<?xml version="1.0" encoding="utf-8"?>
<!-- Generator: Adobe Illustrator 16.0.0, SVG Export Plug-In . SVG Version: 6.00 Build 0)  -->
<!DOCTYPE svg PUBLIC "-//W3C//DTD SVG 1.1//EN" "http://www.w3.org/Graphics/SVG/1.1/DTD/svg11.dtd">
<svg version="1.1" id="Layer_1" xmlns="http://www.w3.org/2000/svg" xmlns:xlink="http://www.w3.org/1999/xlink" x="0px" y="0px"
	 width="768px" height="1024px" viewBox="0 0 768 1024" enable-background="new 0 0 768 1024" xml:space="preserve">
<line fill="none" stroke="#2A79BE" stroke-miterlimit="10" x1="100.974" y1="20.997" x2="60.621" y2="80.871"/>
<g>
	<path fill="#86CDE9" d="M95.985,61.943l5.315,0.026c0.258-0.8,0.619-1.651,0.722-2.451l-8.747-0.026l-0.025-1.883h8.953
		c0.104-0.671,0.155-1.703,0.181-2.374h-6.398l0.025-1.858h16.023l0.026,4.232h3.638l0.026,1.883l-3.664-0.026v4.413l-9.341-0.026
		c-0.387,0.852-0.955,1.651-1.419,2.245h11.224v9.212h-1.961v-1.677h-9.289v1.754h-1.961l0.026-7.225
		c-1.265,1.083-3.02,2.296-4.903,3.122l-0.567,0.181c-0.516-0.568-0.773-1.032-1.394-1.677c3.122-1.316,6.013-3.251,7.947-5.935
		h-4.464L95.985,61.943z M101.274,71.748h9.289v-3.767l-9.289-0.026V71.748z M104.062,59.492c-0.155,0.852-0.387,1.781-0.594,2.477
		l6.502-0.026v-2.451H104.062z M104.396,55.26l-0.129,2.348h5.702v-2.374L104.396,55.26z"/>
	<path fill="#86CDE9" d="M128.475,73.219c0.696,0,1.032-0.567,1.032-1.212v-7.561h-9.883v-1.909h9.883l0.025-2.581
		c2.064-1.316,4.154-3.199,5.315-4.567h-12.05V53.48l14.862,0.026v1.445c-1.677,2.271-3.999,4.49-6.192,5.96v1.625h9.393v1.909
		h-9.393l-0.025,8.592c0,0.826-0.646,1.522-1.188,1.78c-0.696,0.439-3.509,0.258-4.103,0.258l-1.471-1.858H128.475z"/>
	<path fill="#86CDE9" d="M166.355,65.168c-3.715-0.8-7.225-1.806-10.269-3.612c-2.942,1.961-7.509,3.277-11.482,3.896l-0.8-1.858
		c3.096-0.516,5.806-1.212,8.463-2.193c0.697-0.335,1.522-0.749,2.038-1.032c-1.109-0.852-2.58-1.729-3.482-2.967
		c-1.136,1.342-2.787,2.735-4.723,3.509l-1.471-1.78c3.974-1.471,5.883-3.768,7.096-6.941l1.703,0.955
		c-0.284,0.645-0.542,1.109-0.619,1.264h9.676v1.729c-1.522,1.883-3.07,3.096-4.67,4.257c0.335,0.258,1.135,0.516,1.857,0.877
		c2.426,0.903,4.98,1.6,7.947,2.167L166.355,65.168z M162.305,73.477c-0.258,0.8-0.929,1.497-1.677,1.703
		c-1.136,0.335-2.297-0.026-3.483-0.206l-0.49-2.245c1.367,0.387,2.348,0.774,3.406,0.619c0.593-0.387,0.645-1.109,0.773-1.857
		c0.232-1.394,0.517-3.174,0.567-4h-5.573c-0.412,2.219-2.142,4.335-4.231,5.702c-1.548,1.032-4.335,1.858-6.012,2.167
		c-0.361-0.645-0.697-1.161-1.032-1.935c3.277-0.516,6.321-1.29,8.282-3.871c0.542-0.696,0.826-1.471,0.98-2.064h-7.379v-1.884
		h7.689c0.077-0.619,0-1.083,0.077-2.245l1.909,0.258c-0.025,0.98,0.052,1.419-0.025,1.987h7.327
		C163.363,68.471,163.053,71.103,162.305,73.477z M152.164,56.292c1.032,1.238,2.426,2.064,3.871,2.993
		c1.394-0.903,2.786-1.961,3.767-2.993H152.164z"/>
	<path fill="#86CDE9" d="M169.766,69.039c4.283-2.735,7.354-6.631,8.695-10.837h-7.173v-1.961l9.314,0.026v-4.025h2.013
		l-0.025,4.025l9.212-0.026v1.961h-6.89c1.136,4.542,4.748,8.438,8.438,10.605l-1.394,1.651c-6.657-5.032-7.561-7.792-9.314-12.566
		l-0.052,9.16h4.979v1.935l-4.954-0.026l-0.025,6.348h-1.961l-0.026-6.348l-5.108,0.026v-1.935l5.108,0.025v-9.186
		c-1.78,5.625-4.799,9.496-9.237,12.695L169.766,69.039z"/>
	<path fill="#86CDE9" d="M239.568,73.271h-21.081v-1.91h10.192c2.58-3.432,4.154-7.637,4.747-12.333l1.961,0.826
		c-0.645,4.335-2.192,8.36-4.412,11.508h8.593V73.271z M228.989,56.679c-1.007-1.471-2.374-2.838-4.206-3.458l1.651-1.342
		c1.755,0.671,3.226,2.167,4.36,3.793l-1.367,0.98l8.901,0.026v1.91h-18.681v-1.884L228.989,56.679z M225.815,70.38
		c-0.336-3.458-1.651-7.973-4.077-10.527l1.807-0.877c2.451,2.632,3.999,7.199,4.231,10.812L225.815,70.38z"/>
	<path fill="#86CDE9" d="M251.26,72.857l0.025-11.456l-3.328-0.026v13.959h-2.064V59.44h6.941c0.645-1.136,0.929-2.503,1.083-3.768
		h-9.778v-1.935l21.519,0.026v1.909h-9.649c-0.181,1.316-0.388,2.581-0.93,3.768h8.851l0.026,13.34
		c-0.078,0.826-0.697,1.677-1.497,1.883c-0.877,0.207-1.884,0.129-2.89,0.104l-0.646-1.91c1.059-0.025,1.78,0.104,2.529-0.025
		c0.258-0.078,0.49-0.31,0.49-0.646l0.025-10.785l-3.457-0.026v11.431h-1.987l-0.025-11.431h-3.174v11.508L251.26,72.857z"/>
	<path fill="#86CDE9" d="M272.809,62.33h-3.457v-1.78h5.444v9.366c1.367,1.471,3.276,2.4,5.521,2.477
		c2.09,0.078,4.258,0.232,6.399,0.104l5.496-0.31l-0.774,2.116h-10.502c-4.722,0-5.831-1.316-7.121-2.684
		c-1.265,0.929-2.503,2.116-3.896,3.329l-1.471-1.548c1.6-1.161,3.045-2.374,4.36-3.458V62.33z M273.067,58.176
		c-0.697-1.522-1.936-3.38-3.406-4.619l1.445-1.058c1.548,1.238,2.89,3.122,3.638,4.567L273.067,58.176z M288.858,52.525
		c-0.465,0.851-0.723,1.316-1.136,1.935h3.896v1.858h-6.528c-0.232,0.774-0.464,1.419-0.748,2.116h5.548V71h-12.592V58.434h4.773
		c0.387-0.697,0.645-1.368,0.877-2.09h-7.354V54.46h3.741c-0.284-0.31-0.903-0.955-1.78-1.548l1.703-1.083
		c1.032,0.929,1.935,1.729,2.425,2.632h3.768c0.646-0.774,1.213-1.677,1.626-2.735L288.858,52.525z M287.826,61.84v-1.522h-8.515
		v1.522H287.826z M279.312,63.724v1.729h8.54v-1.729H279.312z M287.852,69.142v-1.806h-8.54v1.806H287.852z"/>
	<path fill="#86CDE9" d="M301.686,54.692c-0.026,1.291-0.361,2.322-0.542,3.122h4.335l-0.026-5.496h2.013v5.496h8.438v1.91
		l-8.411-0.026v4.825h7.198v1.883l-7.198-0.025l-0.026,5.521h10.089v1.91h-21.287v-1.91h9.212l-0.026-5.496h-6.657v-1.883h6.657
		l0.026-4.799h-5.032c-0.619,1.754-2.038,3.483-3.483,5.031l-1.961-1.058c2.349-2.219,4.31-4.645,4.723-9.599L301.686,54.692z"/>
</g>
<g>
	<path fill="#86CDE9" d="M56.372,37.475c2.478,0.026,4.825-0.826,5.264-2.993h2.4v18.062h-3.226V39.797h-4.438V37.475z"/>
</g>
</svg>
