<?xml version="1.0" encoding="utf-8"?>
<!-- Generator: Adobe Illustrator 16.0.0, SVG Export Plug-In . SVG Version: 6.00 Build 0)  -->
<!DOCTYPE svg PUBLIC "-//W3C//DTD SVG 1.1//EN" "http://www.w3.org/Graphics/SVG/1.1/DTD/svg11.dtd">
<svg version="1.1" id="Layer_1" xmlns="http://www.w3.org/2000/svg" xmlns:xlink="http://www.w3.org/1999/xlink" x="0px" y="0px"
	 width="768px" height="1024px" viewBox="0 0 768 1024" enable-background="new 0 0 768 1024" xml:space="preserve">
<g>
	<path fill="#FFFFFF" d="M429.89,174.665c-0.54-1.5-1.141-3.161-2.04-4.601c-1.121,2.681-3.021,4.381-5.142,6.161l-0.88-0.8
		c1.939-1.601,4.181-3.681,5.301-6.481c-0.881-1.3-2.621-3.081-3.721-4.061c0.34-0.2,0.7-0.44,1.08-0.58
		c1.301,1.14,2.44,2.3,3.141,3.381c0.66-1.84,1.2-3.741,1.301-5.741h-6.502v-1.101h7.762c-0.061,2.841-0.76,5.501-1.76,8.002
		c1.08,1.6,1.92,3.541,2.54,5.301L429.89,174.665z M430.629,163.522v-1.14h6.002v-3.961h1.221v3.961h1.96v1.12h-1.98v11.723
		c-0.08,0.46-0.399,0.86-0.82,1.06l-0.44,0.16c-0.699,0.04-1.42,0.02-2.12,0l-0.42-1.2c0.681,0.02,1.421,0.12,2.161,0.08
		c0.199-0.02,0.34-0.18,0.439-0.36l0.02-11.442H430.629z M434.211,171.144c-0.541-1.66-1.661-3.121-2.961-4.481
		c0.32-0.16,0.64-0.38,0.98-0.5c0.92,0.98,2.38,2.561,3,4.441L434.211,171.144z"/>
	<path fill="#FFFFFF" d="M441.867,171.804c3.281-2.1,5.762-5.241,6.922-8.842h-5.801v-1.24l7.401,0.02l0.021-3.221h1.279
		l-0.02,3.221l7.401-0.02v1.24l-5.621,0.02c0.319,1.12,0.82,2.201,1.4,3.221c1.261,2.201,3.241,4.081,5.381,5.441l-0.92,1.04
		c-2.161-1.521-4.321-3.641-5.601-5.961c-0.66-1.18-1.201-2.48-1.641-3.741h-0.36v7.382l3.961-0.02v1.22h-3.961v5.061h-1.261
		l-0.02-5.061h-4.081v-1.22l4.081,0.02v-7.402l-0.36,0.02c-1.021,3.381-3.141,6.421-5.961,8.802l-1.181,1L441.867,171.804z"/>
	<path fill="#FFFFFF" d="M465.488,168.464c-0.6,0.56-1.82,1.36-2.36,1.74c-0.38-0.36-0.8-0.64-1.08-0.98
		c2.46-1.4,4.541-3.721,6.161-6.021l1.021,0.68c-0.501,0.9-1.661,2.28-2.481,3.241v9.402h-1.26V168.464z M468.309,158.961
		c-1.3,1.98-2.92,4.041-4.92,5.461c-0.101,0.04-0.061-0.1-0.141-0.12l-0.9-0.78c2.021-1.4,3.701-3.261,5.001-5.301L468.309,158.961z
		 M469.709,165.963v-1.22l10.303,0.02v1.2h-3.682v8.842c-0.1,0.64-0.34,1.06-0.819,1.36c-0.36,0.22-0.82,0.24-1.261,0.24h-2.16
		c-0.12-0.42-0.3-0.82-0.4-1.26c0.881,0.08,1.801,0.08,2.701,0.06c0.26-0.06,0.54-0.2,0.6-0.64v-8.602H469.709z M478.752,160.982
		h-8.563v-1.22h8.563V160.982z"/>
	<path fill="#FFFFFF" d="M491.73,160.702h7.301v1.22h-7.301v5.001h8.061v1.22h-6.441c0.921,1.9,2.141,3.081,3.661,4.241
		c0.8,0.6,2.301,1.561,3.241,1.88l-0.801,0.98c-3-1.1-5.921-3.881-7.342-7.102h-0.379v8.242h-1.24v-8.162
		c-0.921,2.36-3.262,4.621-5.142,5.761c-0.7,0.42-1.341,0.76-2.341,1.16l-0.84-0.92l0.98-0.46c2.38-1.12,4.881-3.121,6.081-5.621
		h-6.622v-1.22h7.862l0.021-5.001h-7.102v-1.2h7.081l0.021-2.321l1.22,0.02L491.73,160.702z M487.749,166.423
		c-0.56-1.32-1.62-2.5-2.78-3.461l0.96-0.66c1.14,0.96,2.22,2.221,2.82,3.521L487.749,166.423z M497.352,162.862
		c-0.82,1.4-1.9,2.641-3.182,3.701l-0.88-0.74c1.261-1.021,2.4-2.241,3.2-3.541L497.352,162.862z"/>
	<path fill="#FFFFFF" d="M505.448,174.825l-0.739-1.081c0.299-0.24,0.479-0.58,0.479-1v-6.981h-2.561v-1.18h3.841v8.382l2.9-1.581
		v1.34L505.448,174.825z M506.568,162.703c-0.52-1.081-1.439-2.081-2.42-2.881l0.859-0.74c1.041,0.7,2.001,1.78,2.581,2.841
		L506.568,162.703z M518.111,169.084h-2.261v4.881c0,0.38,0.3,0.58,0.601,0.58h1.02c0.32,0,0.601-0.18,0.721-0.48
		c0.3-0.74,0.5-1.601,0.66-2.42l1.12,0.62c-0.24,0.92-0.44,1.82-0.9,2.68c-0.26,0.48-0.7,0.76-1.32,0.76h-1.4
		c-0.739,0-1.761-0.54-1.761-1.54v-5.081h-1.56c-0.04,2.86-1.161,5.601-3.78,7.042c-0.301,0.16-0.602,0.34-0.921,0.46l-0.82-1.1
		c1.78-0.64,3.36-2.161,3.86-3.921c0.24-0.84,0.361-1.581,0.381-2.48h-2.201v-6.082h8.563V169.084z M510.729,158.202
		c1.16,1.04,1.9,2.28,2.36,3.601l-1.08,0.62c-0.42-1.32-1.141-2.601-2.32-3.661L510.729,158.202z M516.831,164.183h-6.001v3.721
		h6.001V164.183z M517.271,158.182l1,0.52c-0.48,1.4-1.281,2.721-2.341,3.841l-1.12-0.56
		C515.91,160.862,516.751,159.542,517.271,158.182z"/>
	<path fill="#FFFFFF" d="M530.25,165.963h2v2c0,0.68,0,2.121-1.641,2.821l-0.48-0.74c0.941-0.42,1.08-1.24,1.101-2.081h-0.979
		V165.963z"/>
	<path fill="#FFFFFF" d="M541.848,175.205c0.1-0.82,0.2-1.16,0.48-1.72c0.54-1.081,1.46-2.121,2.9-3.301l0.66-0.54
		c2.641-2.161,3.641-3.521,3.641-4.881c0-1.44-1.141-2.48-2.701-2.48c-1.72,0-2.779,1.08-2.8,2.881l-1.801-0.2
		c0.24-2.681,1.881-4.141,4.642-4.141c2.66,0,4.48,1.621,4.48,3.981c0,1.701-1,3.221-3.521,5.341l-1.44,1.22
		c-1.18,1-1.66,1.521-2.061,2.161h7.041v1.68H541.848z"/>
	<path fill="#FFFFFF" d="M557.929,160.822c3.101,0,4.661,2.461,4.661,7.322s-1.561,7.302-4.661,7.302c-1.86,0-3.28-0.98-4.001-2.781
		c-0.46-1.16-0.66-2.581-0.66-4.561C553.268,163.283,554.828,160.822,557.929,160.822z M555.588,172.205
		c0.4,1.12,1.301,1.8,2.341,1.8s1.94-0.68,2.341-1.8c0.34-0.92,0.52-2.301,0.52-4.061s-0.16-3.101-0.52-4.081
		c-0.4-1.1-1.301-1.78-2.361-1.78c-1.96,0-2.84,1.84-2.84,5.841C555.068,169.904,555.248,171.264,555.588,172.205z"/>
	<path fill="#FFFFFF" d="M569.249,164.003c-0.58,0.56-1.14,0.94-2.181,1.5c-0.641,0.34-0.82,0.42-1.34,0.62v-1.7
		c1.9-0.88,3.48-2.281,4.141-3.601h1.141v14.383h-1.761V164.003z"/>
	<path fill="#FFFFFF" d="M582.869,164.543c-0.199-1.48-1-2.261-2.32-2.261c-1.3,0-2.28,0.7-2.78,1.96
		c-0.36,0.92-0.601,2.241-0.601,3.301v0.28h0.041c0.279-0.5,0.439-0.68,0.8-0.98c0.74-0.58,1.681-0.92,2.641-0.92
		c2.421,0,4.221,1.98,4.221,4.621c0,2.861-1.86,4.901-4.481,4.901c-1.82,0-3.44-0.98-4.2-2.561c-0.54-1.121-0.761-2.461-0.761-4.381
		c0-5.021,1.761-7.682,5.121-7.682c2.281,0,3.781,1.32,4.081,3.561L582.869,164.543z M580.35,174.005c1.58,0,2.721-1.4,2.721-3.341
		c0-1.9-1.121-3.201-2.781-3.201c-1.641,0-2.84,1.32-2.84,3.081C577.449,172.504,578.709,174.005,580.35,174.005z"/>
	<path fill="#FFFFFF" d="M610.674,169.524v1.22l-7.061-0.02l-0.021,5.921l-1.28,0.02l-0.02-5.921l-8.082-0.02v-1.22l2.561,0.02
		v-4.881h5.48v-2.96h-4.5c-0.701,1.44-1.461,2.881-2.741,4.061l-1.08-0.84c1.58-1.46,2.66-3.201,3.221-5.121l0.44-1.48
		c0.379,0.16,0.74,0.32,1.1,0.521c-0.08,0.58-0.279,1.1-0.439,1.66h11.582v1.2l-6.281,0.02l0.02,2.94h5.241l0.021,1.221l-5.221,0.02
		v3.641H610.674z M598.051,165.883v3.641h4.222l0.021-3.661L598.051,165.883z"/>
	<path fill="#FFFFFF" d="M630.674,167.463v1.18l-7.642-0.02l-0.021,1.92h6.102v1.18h-6.102l0.021,2.521
		c0.581,0.12,1.2,0.22,1.821,0.22l4.84-0.02l1.781-0.08c-0.221,0.42-0.44,0.86-0.641,1.3l-6.842-0.02
		c-2.439,0-4.541-1.22-6.301-2.92c-0.54,1.62-1.9,3-3.421,3.821l-0.72-1.12c1.48-0.66,2.84-2.161,3.08-3.781
		c0.16-0.66,0.24-1.36,0.26-2.101c0.42,0.08,0.82,0.08,1.221,0.18c0,0.5-0.04,1.14-0.141,1.66c1.102,1.14,2.342,2,3.741,2.5
		l0.021-5.241h-7.622l0.021-1.18H630.674z M627.873,159.282l0.021,6.881l-11.042,0.02v-6.881L627.873,159.282z M626.553,160.482
		l-8.401-0.02v1.601h8.401V160.482z M626.573,165.003v-1.76h-8.422v1.76H626.573z"/>
	<path fill="#FFFFFF" d="M639.832,171.764h-6.041v-1.18h6.041v-3.041h-4.961v-1.18h4.961v-2.961h-5.722v-1.18h5.722v-3.721h1.3
		v18.084h-1.3V171.764z M643.793,158.501h1.3v3.721h5.441v1.18h-5.441v2.961h4.681v1.18h-4.681v3.041h5.842v1.18h-5.842v4.821h-1.3
		V158.501z"/>
	<path fill="#FFFFFF" d="M435.371,199.745c-1.08,0-1.761-0.78-1.761-1.6v-13.163h-5.602l-0.02,8.522c0,2.94-2.001,5.421-4.382,7.162
		l-1.1-0.96c1.98-1.36,4.061-3.48,4.161-6.001l0.04-1.081l0.02-8.862h8.162v13.903c0,0.42,0.22,0.88,0.78,0.88l1.681-0.02
		c0.66,0,0.84-0.82,0.899-1.14c0.14-0.72,0.32-1.44,0.38-2.181l1.261,0.36c-0.08,1.12-0.64,4.181-2.021,4.181H435.371z
		 M429.649,188.243c1.521,1.46,2.601,3.261,3.161,5.141c-0.4,0.2-0.781,0.46-1.181,0.66c-0.56-1.98-1.521-3.821-3.2-5.241l1.1-0.62
		L429.649,188.243z"/>
	<path fill="#FFFFFF" d="M450.045,200.045c-0.08-0.58,0-1.161-0.021-1.681l-3.761,0.02l-0.02,1.661h-1.301v-13.943h1.841
		c0.399-0.82,1-2.22,1.28-3.581l1.141,0.46c-0.301,1.24-0.621,2.221-1.181,3.121h3.28v13.923L450.045,200.045z M446.224,187.243
		v4.321l3.741,0.02v-4.341H446.224z M450.005,197.205l-0.021-4.461l-3.761-0.02v4.501L450.005,197.205z M454.806,186.902
		c-0.54,1.541-1.3,2.921-2.3,4.241c-0.381-0.2-0.761-0.48-1.161-0.7c0.04-0.12,0.22-0.24,0.261-0.36
		c1.68-2.32,2.58-4.961,3.08-7.742c0.381,0.14,0.86,0.24,1.221,0.38c-0.08,0.66-0.301,1.34-0.461,2c-0.08,0.36-0.18,0.68-0.279,1.04
		h5.561c-0.1,4.221,0.021,8.922-1.3,12.943c-0.22,0.68-0.7,1.48-1.46,1.62c-0.861,0.16-1.621-0.14-2.4-0.3
		c-0.381-0.08-0.761-0.24-1.141-0.34c-0.061-0.46-0.16-0.9-0.2-1.36c0.94,0.36,1.9,0.64,2.921,0.8c0.4,0.06,0.72-0.14,0.939-0.44
		c0.301-0.6,0.48-1.34,0.621-2c0.42-1.94,0.52-4.021,0.64-6.062c0.06-1.22,0.101-2.46,0.12-3.701L454.806,186.902z M455.086,190.203
		c1.221,1.44,2.16,2.98,2.78,4.681c-0.34,0.18-0.681,0.4-1.04,0.56l-0.12,0.04c-0.64-1.681-1.58-3.201-2.7-4.641l1-0.64H455.086z"/>
	<path fill="#FFFFFF" d="M466.199,190.503h15.663v1.4l-15.644,0.02L466.199,190.503z"/>
	<path fill="#FFFFFF" d="M503.697,193.524v1.22l-7.062-0.02l-0.021,5.921l-1.279,0.02l-0.021-5.921l-8.082-0.02v-1.22l2.561,0.02
		v-4.881h5.481v-2.96h-4.501c-0.7,1.44-1.46,2.881-2.741,4.061l-1.08-0.84c1.58-1.46,2.661-3.201,3.221-5.121l0.44-1.48
		c0.38,0.16,0.74,0.32,1.101,0.521c-0.08,0.58-0.28,1.1-0.44,1.66h11.583v1.2l-6.281,0.02l0.02,2.94h5.24l0.021,1.221l-5.221,0.02
		v3.641H503.697z M491.074,189.883v3.641h4.221l0.021-3.661L491.074,189.883z"/>
	<path fill="#FFFFFF" d="M514.436,189.963h2v2c0,0.68,0,2.121-1.641,2.821l-0.48-0.74c0.941-0.42,1.08-1.24,1.101-2.081h-0.979
		V189.963z"/>
	<path fill="#FFFFFF" d="M541.336,198.225c0.361,0,0.681-0.32,0.82-0.66c0.28-0.72,0.44-1.5,0.521-2.301
		c0.44,0.16,0.841,0.38,1.261,0.56c-0.16,0.9-0.381,1.761-0.74,2.581c-0.381,0.6-1.061,1.041-1.781,1.041l-9.742,0.02
		c-0.619-0.08-1.14-0.38-1.459-0.92c-0.181-0.3-0.341-0.62-0.341-0.98v-6.882c-1.021,0.22-1.62,0.4-2.7,0.66
		c-0.041-0.42-0.08-0.78-0.18-1.2c0.959-0.22,1.939-0.44,2.88-0.68l0.021-4.001l1.34,0.02v3.641l3.921-0.96v-5.721h1.3v5.441
		l5.922-1.521v0.28l-0.26,3.141c-0.121,1.54-0.4,3.081-0.841,4.541c-0.159,0.56-0.74,1.04-1.36,1.08l-0.439-0.02
		c-0.621-0.14-1.261-0.3-1.861-0.52l-0.22-1.4c0.62,0.26,1.24,0.54,1.9,0.68c0.16,0,0.36,0.06,0.48-0.04
		c0.3-0.2,0.26-0.54,0.38-0.82c0.46-1.66,0.7-3.46,0.801-5.241c-0.16-0.04-0.301,0.06-0.461,0.08c-1.359,0.3-2.68,0.68-4.041,1
		v7.102h-1.3v-6.822c-1.261,0.36-2.681,0.66-3.94,1v6.661c0,0.5,0.359,1.061,0.699,1.161H541.336z"/>
	<path fill="#FFFFFF" d="M565.093,191.463v1.18l-7.642-0.02l-0.021,1.92h6.102v1.18h-6.102l0.021,2.521
		c0.58,0.12,1.2,0.22,1.82,0.22l4.841-0.02l1.78-0.08c-0.22,0.42-0.439,0.86-0.641,1.3l-6.841-0.02c-2.44,0-4.541-1.22-6.302-2.92
		c-0.539,1.62-1.9,3-3.42,3.821l-0.721-1.12c1.48-0.66,2.841-2.161,3.08-3.781c0.16-0.66,0.24-1.36,0.261-2.101
		c0.42,0.08,0.82,0.08,1.22,0.18c0,0.5-0.039,1.14-0.14,1.66c1.101,1.14,2.341,2,3.741,2.5l0.02-5.241h-7.621l0.02-1.18H565.093z
		 M562.292,183.282l0.021,6.881l-11.043,0.02v-6.881L562.292,183.282z M560.972,184.482l-8.401-0.02v1.601h8.401V184.482z
		 M560.992,189.003v-1.76h-8.422v1.76H560.992z"/>
	<path fill="#FFFFFF" d="M569.145,198.745c1.74-1.721,2.961-3.761,3.781-5.901c-1.001-1.561-1.881-2.881-3.062-4.121l0.921-0.56
		c0.9,0.86,1.939,2.181,2.6,3.161c0.461-1.6,0.74-3.281,0.98-4.961l-4.701-0.02l-0.02-1.14h5.901c0.021,2.741-0.66,5.041-1.36,7.521
		c0.9,1.541,1.62,3.141,2.08,4.881l-1.12,0.66c-0.34-1.44-0.82-2.84-1.5-4.101c-0.74,1.82-1.7,3.721-3.181,5.081l-0.44,0.4
		L569.145,198.745z M587.148,198.885h-8.723v1.581h-1.18v-10.482c-0.34,0.66-0.86,1.34-1.28,1.92l-1.021-0.9
		c1.101-1.581,1.48-2.321,2.061-3.561c0.68-1.46,1.041-3.241,1.32-4.881l1.12,0.3c-0.2,1.06-0.42,2.1-0.7,3.121l8.102-0.02v1.16
		h-3.86v2.741h3.501v1.16h-3.501v2.74l3.54,0.02v1.141h-3.54v2.78h4.141L587.148,198.885z M581.747,187.143h-3.301v2.721h3.301
		V187.143z M581.747,191.003h-3.301v2.76h3.301V191.003z M581.747,194.904h-3.301v2.82h3.301V194.904z M582.567,185.442
		c-0.64-1.061-1.22-1.641-1.98-2.241l0.72-0.58c0.801,0.56,1.5,1.26,2.141,2.161L582.567,185.442z"/>
	<path fill="#FFFFFF" d="M590.66,198.105c1.38-1.101,2.42-2.381,3.021-3.921c0.34,0.14,0.64,0.4,0.96,0.6
		c-0.04,0.34-0.26,0.64-0.359,0.96c-0.641,1.28-1.561,2.281-2.641,3.261L590.66,198.105z M599.962,185.042
		c-0.681-0.88-1.681-1.66-2.641-2.18l0.921-0.72c1.1,0.5,2.14,1.26,2.939,2.3c-0.22,0.18-0.56,0.38-0.76,0.6h7.402v1.18h-12.823
		v3.741c0,0.26,0.159,0.34,0.38,0.48l0.4,0.12h10.542v1.18h-11.042c-0.66,0-1.341-0.521-1.58-1.121l-0.061-0.32v-4.081h-2.221v-1.18
		H599.962z M597.241,197.745c0.04,0.2,0.101,0.38,0.28,0.52c0.16,0.1,0.22,0.18,0.42,0.18h4.441c0.76-0.48,0.84-1.4,1.1-2.14
		l0.02-0.2c0.4,0.12,0.761,0.34,1.102,0.5c-0.24,1.02-0.421,2.141-1.341,2.801c-0.28,0.16-0.62,0.24-0.98,0.24l-4.461-0.02
		c-0.979-0.1-1.46-0.42-1.761-1.12l-0.1-0.52v-4.221h1.28V197.745z M599.021,192.384c1.2,0.6,2.261,1.86,2.861,3.041
		c-0.381,0.2-0.721,0.48-1.121,0.66c-0.619-1.18-1.54-2.36-2.721-3.021L599.021,192.384z M608.783,198.005
		c-0.359,0.24-0.72,0.5-1.08,0.74c-0.779-1.46-1.82-3.021-3.301-3.961c0.28-0.24,0.641-0.42,0.94-0.64c0.36,0.1,0.62,0.42,0.94,0.64
		C607.363,195.704,608.104,196.905,608.783,198.005z"/>
	<path fill="#FFFFFF" d="M618.416,200.045c-0.08-0.58,0-1.161-0.021-1.681l-3.761,0.02l-0.02,1.661h-1.301v-13.943h1.841
		c0.399-0.82,1-2.22,1.28-3.581l1.141,0.46c-0.301,1.24-0.621,2.221-1.181,3.121h3.28v13.923L618.416,200.045z M614.595,187.243
		v4.321l3.741,0.02v-4.341H614.595z M618.376,197.205l-0.021-4.461l-3.761-0.02v4.501L618.376,197.205z M623.177,186.902
		c-0.54,1.541-1.3,2.921-2.3,4.241c-0.381-0.2-0.761-0.48-1.161-0.7c0.04-0.12,0.22-0.24,0.261-0.36
		c1.68-2.32,2.58-4.961,3.08-7.742c0.381,0.14,0.86,0.24,1.221,0.38c-0.08,0.66-0.301,1.34-0.461,2c-0.08,0.36-0.18,0.68-0.279,1.04
		h5.561c-0.1,4.221,0.021,8.922-1.3,12.943c-0.22,0.68-0.7,1.48-1.46,1.62c-0.861,0.16-1.621-0.14-2.4-0.3
		c-0.381-0.08-0.761-0.24-1.141-0.34c-0.061-0.46-0.16-0.9-0.2-1.36c0.94,0.36,1.9,0.64,2.921,0.8c0.4,0.06,0.72-0.14,0.939-0.44
		c0.301-0.6,0.48-1.34,0.621-2c0.42-1.94,0.52-4.021,0.64-6.062c0.06-1.22,0.101-2.46,0.12-3.701L623.177,186.902z M623.457,190.203
		c1.221,1.44,2.16,2.98,2.78,4.681c-0.34,0.18-0.681,0.4-1.04,0.56l-0.12,0.04c-0.64-1.681-1.58-3.201-2.7-4.641l1-0.64H623.457z"/>
	<path fill="#FFFFFF" d="M634.57,190.503h15.663v1.4l-15.644,0.02L634.57,190.503z"/>
	<path fill="#FFFFFF" d="M439.512,217.524v1.22l-7.062-0.02l-0.021,5.921l-1.279,0.02l-0.021-5.921l-8.082-0.02v-1.22l2.561,0.02
		v-4.881h5.481v-2.96h-4.501c-0.7,1.44-1.46,2.881-2.741,4.061l-1.08-0.84c1.58-1.46,2.661-3.201,3.221-5.121l0.44-1.48
		c0.38,0.16,0.74,0.32,1.101,0.521c-0.08,0.58-0.28,1.1-0.44,1.66h11.583v1.2l-6.281,0.02l0.02,2.94h5.24l0.021,1.221l-5.221,0.02
		v3.641H439.512z M426.889,213.883v3.641h4.221l0.021-3.661L426.889,213.883z"/>
	<path fill="#FFFFFF" d="M453.99,216.384c-0.359,1.02-1.36,1.9-2.44,1.98c-0.98,0.08-1.86-0.3-2.48-1.021s-0.82-1.8-0.521-2.721
		c0.34-1.06,1.381-1.88,2.461-1.96c1.02-0.06,1.94,0.3,2.541,1.141C454.07,214.543,454.311,215.483,453.99,216.384z M451.67,213.883
		c-0.6-0.14-1.221,0.04-1.601,0.48c-0.38,0.38-0.54,0.94-0.44,1.48c0.101,0.5,0.48,1,0.94,1.2c0.64,0.28,1.4,0.12,1.881-0.36
		c0.46-0.46,0.601-1.2,0.36-1.8C452.609,214.403,452.15,214.023,451.67,213.883z"/>
	<path fill="#FFFFFF" d="M462.708,213.963v-1.26l4.2,0.02v-3.261c-0.319,0.04-0.66,0.12-1,0.22c-0.779,0.14-1.561,0.3-2.4,0.32
		c-0.24-0.44-0.48-0.84-0.779-1.24c3.52-0.06,5.381-0.94,7.741-2.221l0.819,0.94c-0.979,0.56-1.98,1.2-3.04,1.62l0.021,3.621
		l4.141-0.02c-0.12-2.02-0.24-4.221-0.141-6.281l1.301,0.02c0.02,0.9,0.02,1.721,0.02,2.681v0.26c0,1,0.061,2.34,0.141,3.34
		l5.501-0.02v1.26l-5.341-0.02c0.119,1.34,0.38,2.601,0.74,3.841l0.16,0.541c0.959-1.021,1.9-2.221,2.46-3.421l1.14,0.46
		c-1,1.9-2.08,3.181-3.08,4.241c0.301,0.68,0.7,1.26,1.141,1.9c0.48,0.56,0.9,1.02,1.5,1.4c0.12,0.04,0.2-0.06,0.24-0.16
		c0.22-0.94,0.3-1.78,0.359-2.781c0.44,0.16,0.861,0.36,1.301,0.52c-0.1,1.14-0.301,2.221-0.7,3.241
		c-0.14,0.24-0.319,0.52-0.601,0.62c-0.8,0.18-1.38-0.44-1.98-0.82c-0.959-0.82-1.68-1.921-2.24-2.961
		c-1.26,1.06-2.62,1.94-4.041,2.661l-1.119-0.9c1.619-0.78,3.16-1.7,4.561-2.98c-0.62-1.68-0.961-3.521-1.201-5.381l-4.26,0.02
		l0.02,3.301l3.141-0.78l0.02,1.26l-3.16,0.84v4.401c-0.061,0.58-0.26,0.94-0.801,1.26c-0.959,0.36-2.119,0.14-3.02,0.2
		c-0.16-0.42-0.301-0.86-0.461-1.3l2.501,0.06c0.2-0.04,0.399-0.2,0.44-0.5v-3.741c-0.9,0.24-2.82,0.74-3.701,0.98l-0.94-1.2
		c1.561-0.32,3.121-0.68,4.621-1.08v-3.721H462.708z M475.551,207.442c1.26,0.68,2.7,1.74,3.34,3.141
		c-0.319,0.34-0.699,0.68-1.06,0.92c-0.601-1.4-2.001-2.601-3.341-3.241c0.28-0.3,0.7-0.52,0.961-0.84L475.551,207.442z"/>
	<path fill="#FFFFFF" d="M486.504,224.385v-9.882c-0.561,1.02-1.34,2.04-2.16,2.94l-0.961-0.86c2.701-2.92,3.842-6.501,4.422-10.282
		l1.14,0.38c-0.3,1.66-0.681,3.4-1.2,5.001v12.703H486.504z M492.125,210.442c-0.439-1.26-1.301-2.3-2.2-2.98l1.06-0.66
		c1,0.8,1.82,1.86,2.241,2.96L492.125,210.442z M491.285,211.002v13.383h-1.221l-0.02-13.383H491.285z M499.187,222.985
		c0.181-0.02,0.421-0.1,0.421-0.6v-13.663h-5.882l0.021-1.181h7.102v15.383c0,0.74-0.541,0.98-1.021,1.141
		c-0.6,0.12-1.5,0.14-2.32,0.08l-0.439-1.3L499.187,222.985z"/>
	<path fill="#FFFFFF" d="M504.639,223.625c1.061-1.2,1.48-2.78,1.48-4.381l0.02-12.683h1.221l-0.04,13.463
		c-0.181,1.62-0.601,3.141-1.62,4.381L504.639,223.625z M508.859,221.604v-13.323h1.181v13.323H508.859z M511.62,222.785v-16.204
		h1.181v16.204H511.62z M512.9,223.085c1.92-0.7,4.001-2.16,4.461-5.541c0.1-0.8,0.16-3.021,0.1-4.661l1.181,0.02l-0.021,4.441
		c-0.02,2.541-1.34,4.901-3.68,6.241c-0.4,0.22-0.801,0.46-1.221,0.62L512.9,223.085z M520.803,220.084v-8.222h-5.281v8.202h-1.201
		v-9.382h2.461c0.36-0.7,0.54-1.561,0.68-2.341h-3.9v-1.16h9.202v1.18h-4.101c-0.121,0.82-0.28,1.601-0.58,2.321h3.881v9.402
		H520.803z M522.143,224.325c-0.94-1.52-2.561-2.661-3.98-3.561l0.76-0.84c1.42,0.78,2.9,1.9,4.141,3.461L522.143,224.325z"/>
	<path fill="#FFFFFF" d="M536.336,220.205c-0.781-1.521-1.961-3.001-3.321-4.141v8.582h-1.22v-8.842
		c-0.92,2.18-2.4,3.98-4.301,5.701c-0.381-0.24-0.721-0.54-1.081-0.82c2.161-1.86,3.802-4.161,4.921-6.622
		c0.141-0.32,0.2-0.52,0.28-0.78h-4.481v-1.181l4.582-0.02v-2.98c-0.881,0.18-2.561,0.38-4.061,0.38l-0.66-1.26
		c3.4-0.08,6.601-0.46,9.621-1.42c0.24,0.3,0.541,0.7,0.76,1.06c-1.42,0.46-2.88,0.82-4.4,1.06l-0.02,3.161h4.36v1.201h-4.321v2.16
		c0.24-0.16,0.441-0.34,0.66-0.44c1.521,1.3,2.881,2.621,3.801,4.281L536.336,220.205z M539.776,220.685h-1.24v-11.703h1.261
		L539.776,220.685z M543.736,222.965c-0.079,0.58-0.58,1.24-1.16,1.36c-0.959,0.08-2,0.02-2.98,0.06
		c-0.119-0.44-0.26-0.9-0.399-1.34l2.44,0.08c0.24-0.02,0.7-0.14,0.82-0.36v-16.204h1.279V222.965z"/>
	<path fill="#FFFFFF" d="M562.592,222.505c0.6,0.06,1.021-0.28,1.121-0.66c0.199-0.72,0.279-1.5,0.359-2.3l1.24,0.46
		c-0.16,0.86-0.32,1.82-0.68,2.661c-0.2,0.62-0.801,1.12-1.701,1.02h-3.7c-1.261-0.16-1.32-1-1.261-1.64v-5.001h-2.721
		c-0.16,2.581-1.119,5.181-3.521,6.481c-0.979,0.52-2.021,0.92-3.101,1.16l-0.78-1.26c2.181-0.26,4.562-1.34,5.441-3.481
		c0.36-0.88,0.56-1.92,0.62-2.9l-4.721,0.02v-1.24l15.104,0.02l-0.021,1.2l-5.041,0.02v4.441c-0.06,0.6,0.021,1,0.78,1H562.592z
		 M563.191,210.102h-13.143v2.481h-1.26v-3.701h7.582c-0.701-0.82-1.66-1.4-2.661-1.68l1.021-0.94c1.12,0.34,2.08,1.161,2.9,2.101
		l-0.58,0.52h7.382v3.561h-1.241V210.102z M561.752,213.423H551.49v-1.2h10.281L561.752,213.423z"/>
	<path fill="#FFFFFF" d="M585.408,212.943c-0.701,2.161-1.641,4.261-3.201,6.001l-0.16,0.18c0.721,1.48,1.48,2.821,2.841,3.901
		c0.28,0.22,0.44,0.1,0.54-0.08c0.24-0.9,0.381-1.8,0.42-2.74l1.221,0.7c-0.12,1-0.42,1.88-0.76,2.8
		c-0.101,0.32-0.361,0.66-0.701,0.8c-0.96,0.4-1.54-0.58-2.18-1.1c-0.86-0.96-1.681-2.021-2.24-3.201l-0.121,0.04
		c-1.24,1.32-2.62,2.48-4.101,3.38l-1.14-0.88c1.7-0.9,3.4-2.261,4.74-3.841c-0.98-2.44-1.34-5.061-1.62-7.762l-6.462-0.02
		l-0.02,3.141h5.521c-0.02,1.1-0.18,2.22-0.24,3.241c-0.02,0.44-0.141,0.88-0.2,1.32c-0.1,0.82-0.38,1.78-1.28,2.141
		c-0.779,0.3-1.74,0.12-2.561,0l-0.52-1.32c0.74,0.22,1.52,0.32,2.36,0.3c0.239,0,0.44-0.12,0.56-0.34
		c0.32-0.84,0.42-1.761,0.48-2.701l0.1-1.46l-4.221-0.02c-0.1,1.581-0.08,3.281-0.359,4.781c-0.301,1.62-0.961,3.181-2.021,4.461
		l-1.08-0.8c2.381-2.641,2.24-6.741,2.221-10.142l-0.02-3.781l7.621-0.02c-0.039-1.101-0.1-2.281-0.1-3.481h1.221
		c0.039,1.26,0.039,2.221,0.119,3.501h6.041v1.18h-5.921c0.08,1.18,0.261,2.521,0.48,3.681c0.2,1.021,0.44,2,0.819,2.96l0.08-0.04
		c1.221-1.561,2.041-3.361,2.721-5.161L585.408,212.943z M584.808,209.202c-0.24-0.16-0.42-0.36-0.66-0.52
		c-0.899-0.58-1.9-1.021-2.98-1.24l0.94-0.84c1.34,0.28,2.58,0.88,3.621,1.82L584.808,209.202z"/>
	<path fill="#FFFFFF" d="M600.422,222.585c-0.061,0.6-0.359,1.4-1.36,1.48c-1.261,0.08-1.78,0.12-2.9,0.08l-0.479-1.28
		c0.939,0.02,2,0.04,2.939,0.02c0.221-0.12,0.461-0.36,0.461-0.6v-9.562c1.84-1,3.66-2.18,5.181-3.861l-11.402,0.02v-1.28h13.223
		l-0.021,1.2c-1.56,1.96-3.561,3.421-5.621,4.541L600.422,222.585z"/>
	<path fill="#FFFFFF" d="M618.855,222.725c0,0.68-0.4,1.42-1.279,1.42h-2.121l-0.4-1.241c0.621,0.1,1.621,0.14,2.001,0.1
		c0.26-0.04,0.479-0.24,0.54-0.56v-5.421h-2.74v1.38c0,2.22-0.66,4.361-1.82,6.241l-1.08-0.7c1.24-1.84,1.64-4.301,1.64-6.662
		v-9.842h5.261V222.725z M617.596,208.622h-2.74v3.021h2.74V208.622z M614.855,212.803v3.061h2.74v-3.061H614.855z M619.176,213.483
		c1.26-0.42,2.24-1.46,2.24-2.741v-3.32h5.922v4.361c0,0.3,0.199,0.52,0.5,0.52h1.721v1.12h-2.041c-0.68,0-1.42-0.44-1.42-1.22
		v-3.601h-3.441v2.14c0,0.88-0.18,1.44-0.56,2.021c-0.521,0.76-1.341,1.46-2.2,1.84L619.176,213.483z M619.216,223.285
		c1.62-0.54,3.12-1.34,4.44-2.521c-1.08-1.42-1.76-3.141-2.199-4.841h-0.861v-1.18h7.182c-0.26,2.281-1.08,4.281-2.46,6.082
		c1.341,1.28,2.841,2.22,4.562,2.621l-0.74,1.12c-1.741-0.46-3.262-1.541-4.642-2.861c-1.3,1.141-3.401,2.381-4.741,2.761
		L619.216,223.285z M624.598,219.984c0.74-0.84,1.56-2.94,1.779-4.061h-3.721C623.076,217.364,624.098,219.284,624.598,219.984z"/>
	<path fill="#FFFFFF" d="M640.031,217.084c-0.359-1.061-1.34-2.201-2.041-2.961v10.202h-1.24v-9.122
		c-0.479,1.46-1.279,3.121-2.4,4.401l-0.9-0.76c1.641-2.081,2.762-4.941,3.241-7.001h-2.561l-0.021-1.22l2.621,0.02l0.02-4.361h1.24
		v4.361l2.361-0.02v1.22h-2.361v2.14l0.841-0.46c0.761,0.72,1.86,2.061,2.28,2.98L640.031,217.084z M639.391,223.425
		c2.161-1.061,4.082-2.901,5.562-4.961c-1.42-2.5-2.38-5.221-3.101-7.961l-0.26-1h-1.641l0.02-1.2h9.782v1.28
		c-0.739,3.081-1.7,6.222-3.4,8.942c1.32,2,3.221,3.901,5.341,4.981l-0.939,1c-1.961-1.22-3.881-3.041-5.142-4.941
		c-1.44,1.9-3.421,3.681-5.481,4.801L639.391,223.425z M642.792,209.522c0.46,2.541,1.44,5.441,2.9,7.822
		c1.46-2.5,2.221-5.121,2.82-7.842L642.792,209.522z"/>
	<path fill="#FFFFFF" d="M439.371,248.365c-4-0.54-5.841-1.62-8.002-2.721c-2.46,1.42-5.32,2.301-8.501,2.761
		c-0.22-0.4-0.48-0.78-0.7-1.12c2.94-0.28,6.221-1.32,8.121-2.4c-1.16-0.74-2.34-2.261-3.24-3.421h-1.42v-1.22h10.142v1.28
		c-0.84,1.06-2.12,2.48-3.36,3.361c2.16,1.24,4.941,2.02,7.682,2.36L439.371,248.365z M433.631,234.142v5.702h-1.141v-5.682
		l-2.801-0.02v5.702h-1.12v-5.702h-6.102v-1.1h8.442c-0.4-0.78-1.221-1.46-1.941-1.9l0.82-0.64c0.74,0.58,1.721,1.4,2.221,2.141
		l-0.46,0.34v0.04h8.122v1.12H433.631z M423.588,240.503l-0.92-0.82c1.48-1.28,2.721-3.021,3.58-4.361l0.881,0.76
		C426.009,237.943,424.828,239.203,423.588,240.503z M428.59,241.464c0.66,1.08,1.779,2.041,2.8,2.741
		c1.04-0.8,2.141-1.721,2.821-2.741H428.59z M438.611,240.023c-0.74-1.5-2.021-2.82-3.361-3.901l0.861-0.66
		c1.14,0.92,2.779,2.401,3.54,3.921L438.611,240.023z"/>
	<path fill="#FFFFFF" d="M444.814,234.542h5.92v-1.84l-8.061,0.02v-1.141h17.264l-0.021,1.141l-7.962-0.02v1.84h5.742v7.321h-6.042
		c-0.16,1.32-0.58,2.521-1.38,3.541c1.24,0.68,2.78,1.1,4.201,1.38c1.939,0.4,3.881,0.44,5.961,0.5
		c-0.221,0.46-0.521,0.82-0.761,1.24c-3.641-0.22-7.201-0.66-10.302-2.201c-0.24,0.12-0.461,0.34-0.7,0.48
		c-1.721,1.08-3.701,1.66-5.761,1.92c-0.281-0.38-0.521-0.76-0.781-1.141c2.021-0.22,3.881-0.78,5.642-1.66
		c0.22-0.1,0.261-0.14,0.399-0.26c-1.08-0.68-2.14-1.56-3.02-2.581l1-0.6c0.9,1,2.34,1.98,2.94,2.341
		c0.88-0.82,1.14-1.88,1.341-2.981l-5.621,0.02V234.542z M446.034,237.603l4.7-0.02v-1.88h-4.7V237.603z M446.034,240.664h4.581
		l0.08-1.92h-4.661V240.664z M451.936,238.723l-0.12,1.96l4.681-0.02v-1.94H451.936z M456.496,235.703h-4.501l-0.02,1.88h4.521
		V235.703z"/>
	<path fill="#FFFFFF" d="M472.096,242.184c-0.641-1.521-1.681-2.881-3.061-3.921l0.96-0.84c1.38,0.84,2.681,2.041,3.601,3.381
		L472.096,242.184z"/>
	<path fill="#FFFFFF" d="M483.193,248.285c-0.42-0.22-0.82-0.5-1.221-0.74c2.321-2,3.701-4.541,4.882-7.081
		c0.36,0.18,0.72,0.48,1.08,0.66C486.754,243.685,485.395,246.245,483.193,248.285z M485.594,239.543
		c-0.939-1.2-2.221-2.141-3.461-2.801c0.201-0.3,0.48-0.64,0.721-0.96c0.66,0.3,1.28,0.76,1.9,1.18c0.6,0.4,1.221,0.98,1.68,1.521
		L485.594,239.543z M484.234,230.961c0.699,0.24,1.3,0.7,1.9,1.121c0.66,0.44,1.279,1.14,1.74,1.78
		c-0.24,0.36-0.561,0.72-0.801,1.06c-0.84-1.28-2.24-2.4-3.561-3.041L484.234,230.961z M495.956,233.462
		c1.78,1.241,3.44,2.941,4.562,4.801c-0.36,0.28-0.721,0.5-1.101,0.72c-0.341-0.54-0.7-1.12-1.14-1.581
		c-1.121,0.1-2.241,0.24-3.381,0.38l-2.98,0.36c-1.341,0.16-2.682,0.44-3.981,0.72c-0.38-0.4-0.66-0.9-0.98-1.36
		c2.641-1.86,4.562-4.621,6.222-7.262l1.26,0.76c-1.46,2.201-3.101,4.601-5.281,6.182l0.461,0.02l3.5-0.4
		c1.4-0.16,2.801-0.32,4.201-0.5c-0.74-0.8-1.58-1.46-2.42-2.081L495.956,233.462z M498.437,240.104v8.422h-1.36l-0.02-1.48
		l-6.781-0.02v1.561h-1.381v-8.482H498.437z M497.037,245.805l-0.021-4.481h-6.741v4.481H497.037z"/>
	<path fill="#FFFFFF" d="M508.641,232.162v1.16h-2.281v4.361h2v1.16h-2.039l0.02,4.541c0.779-0.3,1.68-0.72,2.48-1.02v1.28
		c-0.84,0.32-1.721,0.68-2.561,1.02l-3.081,1.24c-0.36-0.32-0.739-0.64-1.08-0.98c1.001-0.3,1.96-0.7,2.961-1.041v-5.041h-2.101
		v-1.16l2.08-0.02v-4.341h-2.48v-1.16H508.641z M519.143,231.602v8.682l-4.221-0.02v2.3h4.061v1.16h-4.102v2.681h5.502v1.16H508.2
		v-1.16h5.401l0.02-2.681H509.5v-1.16h4.102l-0.021-2.3h-4.221v-8.662H519.143z M513.602,235.283v-2.541l-2.98,0.02v2.521H513.602z
		 M510.621,236.423v2.681h2.98v-2.661L510.621,236.423z M514.901,236.443v2.661h2.98l0.021-2.661H514.901z M514.941,235.303h2.961
		v-2.561l-2.98,0.02L514.941,235.303z"/>
	<path fill="#FFFFFF" d="M525.424,236.143l5.641,0.02v-1.34h-7.602l-0.02-1.18l7.582,0.02v-1.18l-6.082,0.12h-0.119
		c-0.201-0.38-0.5-0.7-0.681-1.081h2.841l3.761-0.14c2.521-0.1,4.901-0.5,7.262-1.061l0.72,1.041c-2.061,0.52-4.221,0.72-6.401,0.98
		v1.32h7.562v1.14h-7.562v1.34h5.661v6.562h-5.661v1.3h5.962v1.14l-5.922,0.02v1.5l8.182-0.02l0.021,1.16h-17.784l-0.02-1.14h8.321
		v-1.521h-6.181l-0.021-1.14h6.181l-0.02-1.3h-5.641L525.424,236.143z M531.064,237.303h-4.381v1.521l4.361,0.02L531.064,237.303z
		 M526.684,241.564l4.381-0.02l-0.02-1.561h-4.361V241.564z M532.325,238.823h4.401v-1.5h-4.401V238.823z M532.325,239.983v1.581
		h4.401v-1.581H532.325z"/>
	<path fill="#FFFFFF" d="M549.75,241.884c-1.48,0.36-4.041,1-5.98,1.601l-0.621-1.16c1.16-1.161,2.281-2.441,3.102-3.721
		c-0.58,0.16-1.801,0.46-2.521,0.7l-0.68-1.22c0.98-1.56,2.44-4.761,3.361-7.162l1.119,0.521c-0.56,1.3-2.141,4.741-3.08,6.381
		c0.66-0.08,1.84-0.34,2.561-0.5c0.5-0.74,0.939-1.58,1.36-2.4l1.16,0.52c-1.14,2.281-2.561,4.581-4.461,6.381
		c0.761-0.1,3.141-0.68,4.681-1.02V241.884z M543.229,246.245c2.32-0.72,4.321-1.36,6.962-2.281v1.2l-6.361,2.201L543.229,246.245z
		 M548.77,247.465v-1.141h2.361v-14.703h7.081v14.703h2.401v1.141H548.77z M552.352,232.762v3.581h4.641v-3.581H552.352z
		 M552.352,241.184h4.641v-3.741h-4.641V241.184z M556.992,246.325v-4.041h-4.641v4.041H556.992z"/>
	<path fill="#FFFFFF" d="M569.375,248.045c-0.079-0.58,0-1.161-0.02-1.681l-3.761,0.02l-0.021,1.661h-1.3v-13.943h1.841
		c0.4-0.82,1-2.22,1.28-3.581l1.14,0.46c-0.3,1.24-0.619,2.221-1.18,3.121h3.28v13.923L569.375,248.045z M565.555,235.243v4.321
		l3.741,0.02v-4.341H565.555z M569.336,245.205l-0.02-4.461l-3.762-0.02v4.501L569.336,245.205z M574.137,234.902
		c-0.54,1.541-1.301,2.921-2.301,4.241c-0.38-0.2-0.76-0.48-1.16-0.7c0.04-0.12,0.221-0.24,0.26-0.36
		c1.681-2.32,2.581-4.961,3.081-7.742c0.38,0.14,0.86,0.24,1.22,0.38c-0.08,0.66-0.299,1.34-0.459,2
		c-0.08,0.36-0.181,0.68-0.281,1.04h5.563c-0.101,4.221,0.02,8.922-1.301,12.943c-0.221,0.68-0.7,1.48-1.461,1.62
		c-0.859,0.16-1.619-0.14-2.4-0.3c-0.38-0.08-0.76-0.24-1.14-0.34c-0.06-0.46-0.16-0.9-0.2-1.36c0.939,0.36,1.9,0.64,2.92,0.8
		c0.4,0.06,0.721-0.14,0.941-0.44c0.299-0.6,0.479-1.34,0.619-2c0.42-1.94,0.521-4.021,0.641-6.062c0.061-1.22,0.1-2.46,0.12-3.701
		L574.137,234.902z M574.417,238.203c1.22,1.44,2.16,2.98,2.78,4.681c-0.34,0.18-0.68,0.4-1.04,0.56l-0.12,0.04
		c-0.641-1.681-1.58-3.201-2.701-4.641l1.001-0.64H574.417z"/>
	<path fill="#FFFFFF" d="M587.261,242.944c-1.021,1.48-2.04,2.7-3.601,3.5l-0.74-0.96c1.66-0.76,2.701-2.241,3.521-3.361
		L587.261,242.944z M588.941,247.245c0,0.74-0.541,1.521-1.42,1.521h-1.541l-0.42-1.3c0.58,0.08,0.98,0.16,1.42,0.1
		c0.301-0.04,0.66-0.3,0.66-0.66v-5.761h-3.32v-1.2h3.32v-1.78H583.6v-1.2h3.041c-0.24-0.76-1.26-2.041-1.86-2.561l1.14-0.52
		c0.881,0.92,1.48,2,1.941,3.081h1.039c0.721-0.92,1.201-1.98,1.581-3.041l1.12,0.54c-0.3,1-1.1,2.101-1.44,2.5h2.761v1.2h-3.98
		v1.78h3.28v1.2h-3.28V247.245z M587.601,232.482c-0.3-0.58-0.76-1.18-1.28-1.7l1.181-0.541c0.58,0.68,1.12,1.44,1.399,2.241h3.441
		v1.2h-8.222v-1.2H587.601z M589.981,242.044c1,0.6,2.101,1.521,2.8,2.46l-0.92,0.86c-0.58-0.92-1.939-2.041-2.6-2.48
		L589.981,242.044z M600.523,231.502c-1.7,0.98-3.561,1.5-5.521,1.82v3.261h5.922v1.2h-2.32v10.742h-1.261v-10.742h-2.341v2.82
		c0,2.721-0.9,5.501-2.38,7.802l-1.141-0.8c1.821-2.5,2.241-5.381,2.241-8.582v-6.662c2.16-0.24,4.16-0.88,6.001-1.88
		L600.523,231.502z"/>
	<path fill="#FFFFFF" d="M620.389,248.365c-4.002-0.54-5.842-1.62-8.002-2.721c-2.461,1.42-5.321,2.301-8.502,2.761
		c-0.221-0.4-0.48-0.78-0.7-1.12c2.94-0.28,6.222-1.32,8.122-2.4c-1.16-0.74-2.341-2.261-3.241-3.421h-1.421v-1.22h10.143v1.28
		c-0.84,1.06-2.12,2.48-3.36,3.361c2.16,1.24,4.94,2.02,7.682,2.36L620.389,248.365z M614.646,234.142v5.702h-1.141v-5.682
		l-2.8-0.02v5.702h-1.12v-5.702h-6.102v-1.1h8.441c-0.399-0.78-1.22-1.46-1.939-1.9l0.82-0.64c0.74,0.58,1.72,1.4,2.22,2.141
		l-0.46,0.34v0.04h8.121v1.12H614.646z M604.604,240.503l-0.92-0.82c1.48-1.28,2.721-3.021,3.581-4.361l0.88,0.76
		C607.025,237.943,605.845,239.203,604.604,240.503z M609.605,241.464c0.66,1.08,1.781,2.041,2.801,2.741
		c1.041-0.8,2.141-1.721,2.82-2.741H609.605z M619.628,240.023c-0.74-1.5-2.021-2.82-3.36-3.901l0.859-0.66
		c1.141,0.92,2.781,2.401,3.541,3.921L619.628,240.023z"/>
	<path fill="#FFFFFF" d="M632.872,244.805v3.841l-1.24,0.02v-3.861l-7.942,0.02v-1.18l7.942-0.02v-1.541h-5.562v-4.681h5.562v-1.4
		h-3.461v-2.681h-4.181v-1.18l4.16-0.02l0.021-1.581h1.24v1.601h5.581l0.02-1.661h1.24v1.661h4.142v1.18l-4.142-0.02l-0.02,2.701
		h-3.36v1.4l5.44-0.02l0.021,4.701l-5.461-0.02v1.581l8.062-0.02l0.02,1.2L632.872,244.805z M627.311,240.904h4.321v-2.301
		l-4.302-0.02L627.311,240.904z M629.432,233.322l-0.021,1.5h5.581v-1.5H629.432z M632.872,238.583v2.301h4.2v-2.301H632.872z"/>
	<path fill="#FFFFFF" d="M651.411,237.963h2.001v2c0,0.68,0,2.121-1.641,2.821l-0.479-0.74c0.939-0.42,1.08-1.24,1.1-2.081h-0.98
		V237.963z"/>
	<path fill="#FFFFFF" d="M431.31,262.663c-0.54,0.78-1.16,1.5-1.94,2.121c0.6,0.36,1.16,0.84,1.66,1.38l-0.74,1.02
		c-0.859-0.94-1.84-1.68-2.98-2.08v7.642l-1.34,0.02l0.02-7.962c-0.42,0.24-0.76,0.54-1.18,0.78c-0.521,0.3-1,0.66-1.541,0.92
		c-0.32-0.3-0.539-0.78-0.88-1.04c1.921-0.92,3.881-2.261,5.241-4.041c0.4-0.5,0.6-1.06,0.84-1.64h-5.501v-1.26l6.882,0.02
		c-0.061,0.5,0.119,1.12-0.16,1.56c-0.46,1.3-1.301,2.48-2.4,3.521v0.26l0.859,0.28c0.9-0.48,1.682-1.521,2.061-2.26L431.31,262.663
		z M426.689,255.902c0.319,0.5,0.64,1.04,0.819,1.6c-0.36,0.2-0.72,0.521-1.12,0.66c-0.32-1.2-1-2.32-2.16-3
		c0.32-0.2,0.72-0.44,1.04-0.68c0.319,0.16,0.56,0.44,0.819,0.68C426.289,255.442,426.509,255.622,426.689,255.902z M430.09,255.982
		h9.062l0.021,3.5l-0.08,3.981c-0.041,2.3-0.141,4.601-0.521,6.801c-0.12,0.7-0.88,1.28-1.54,1.44c-1.061,0.1-2.08-0.12-3.061-0.34
		l-0.32-1.44c0.84,0.18,1.62,0.42,2.5,0.52c0.461,0.04,0.881-0.22,1.101-0.6c0.14-0.48,0.14-1.06,0.22-1.54
		c0.041-0.34,0.101-0.72,0.101-1.061c0.02-0.54,0.159-1.04,0.12-1.64c0.1-0.5,0.06-1.121,0.119-1.621c0-0.5,0.041-0.94,0.041-1.46
		l0.039-4.041l-0.02-1.26c-1.12-0.04-2.34,0.02-3.48,0v3.401c0,2.58-0.08,5.221-1,7.582c-0.721,1.84-2.4,3.561-4.182,4.561
		c-0.08,0.04-0.08-0.08-0.119-0.12c-0.281-0.28-0.561-0.6-0.881-0.9c1.041-0.58,2.08-1.34,2.881-2.22
		c0.859-0.94,1.301-2.181,1.52-3.321c0.141-0.2,0.08-0.54,0.181-0.78c0.28-2.5,0.36-5.801,0.3-8.202l-2.98-0.02L430.09,255.982z"/>
	<path fill="#FFFFFF" d="M456.146,268.965c-3.541,2.32-7.762,3.041-12.083,3.5c-0.12-0.42-0.3-0.82-0.421-1.26
		c4.621-0.54,9.363-0.92,12.783-4.141c1.141-1.06,1.801-2.46,2.441-3.781c0.359,0.2,0.699,0.46,1.08,0.68
		C459.086,265.804,457.967,267.764,456.146,268.965z M450.445,264.224c-1.48,1.82-3.502,3.441-5.642,4.401
		c-0.32-0.32-0.62-0.72-0.921-1.04c2.041-0.84,3.961-2.321,5.502-4.121L450.445,264.224z M444.344,262.283v-1.24l2.94,0.02v-4.801
		h1.32l0.021,4.801h3.7v-6.702h1.341v2.601h6.501l0.021,1.22l-6.482,0.02v2.861h7.521l-0.02,1.2h-7.322v5.521h-1.359l-0.02-5.521
		L444.344,262.283z"/>
	<path fill="#FFFFFF" d="M464.939,271.365c1.98-0.66,3.86-2.261,4.641-4.341c0.46-1.221,0.68-2.581,0.66-4.021h-5.021v-1.14
		l5.001-0.02l0.021-5.241h-4.241v-1.14h15.583v1.14h-3.881v5.241h4.721l-0.02,1.16h-4.701l0.021,9.382h-1.261l0.021-9.382h-5.001
		c0.02,3.081-0.78,5.921-3.081,7.862c-0.84,0.7-1.58,1.12-2.44,1.48L464.939,271.365z M471.48,256.602v5.221h4.98l0.021-5.221
		H471.48z"/>
	<path fill="#FFFFFF" d="M502.617,262.123h-12.104c0,2.781-0.02,5.201-1.02,7.382c-0.48,1.04-1.2,1.98-2.041,2.84l-0.96-0.94
		c2.301-2.121,2.741-4.741,2.741-6.281v-8.462l7.102,0.02c-0.58-0.86-1.581-1.561-2.501-2.081l0.8-0.72
		c1,0.44,2.001,1.16,2.701,2.081c-0.18,0.26-0.461,0.48-0.66,0.7h5.961L502.617,262.123z M501.356,257.882h-10.843v3.021h10.843
		V257.882z M500.977,272.345v-1.4h-8.102v1.4h-1.281v-7.842h10.684v7.842H500.977z M500.977,265.744h-8.102v3.98h8.102V265.744z"/>
	<path fill="#FFFFFF" d="M517.631,270.585c-0.061,0.6-0.359,1.4-1.36,1.48c-1.261,0.08-1.78,0.12-2.9,0.08l-0.479-1.28
		c0.939,0.02,2,0.04,2.939,0.02c0.221-0.12,0.461-0.36,0.461-0.6v-9.562c1.84-1,3.66-2.18,5.181-3.861l-11.402,0.02v-1.28h13.223
		l-0.021,1.2c-1.56,1.96-3.561,3.421-5.621,4.541L517.631,270.585z"/>
	<path fill="#FFFFFF" d="M531.865,271.065c0.52-0.28,0.74-0.86,0.74-1.46v-4.48h-2.921v-1.141h2.921v-2.4h-1.181
		c-0.5,0.7-0.94,1.36-1.62,1.94l-0.94-1c1.921-1.641,3.141-4.601,3.341-7.882l1.18,0.3c0.061,0.96-0.1,2.021-0.26,2.421h3.421v1.16
		h-3.661c-0.22,0.66-0.5,1.26-0.76,1.9h4.201v1.16h-2.441v2.38h2.801v1.161h-2.801v5.021c0.921-0.44,1.82-0.9,2.741-1.34v1.24
		l-4.001,2.061L531.865,271.065z M536.826,271.485c0.279-0.14,0.66-0.521,0.66-1.021v-15.003h7.401v8.722h-2.921
		c0.08,1.12,0.4,2.36,0.86,3.261c1.021-0.54,1.841-1.38,2.521-2.48l0.961,0.76c-0.801,1.16-1.841,2.02-3.002,2.68
		c0.841,1.42,2.502,2.401,4.121,2.821l-0.88,1.1c-1.101-0.28-2.06-0.9-2.94-1.64c-1.74-1.76-2.621-4.061-2.801-6.501h-2.04v6.721
		l3.12-1.06v1.22c-1.4,0.44-2.76,0.94-4.121,1.5L536.826,271.485z M538.767,256.622v2.561h4.86v-2.561H538.767z M538.767,260.323
		v2.701h4.86v-2.701H538.767z"/>
	<path fill="#FFFFFF" d="M553.221,272.746v-10.703c-0.141-0.06-0.12,0.14-0.2,0.22c-0.7,0.76-1.22,1.561-2.001,2.3l-0.939-0.88
		c1.5-1.46,2.78-3.361,3.521-5.281c0.5-1.26,0.82-2.581,1.101-3.921l1.119,0.52c-0.239,1.541-0.72,3.161-1.34,4.601v13.143H553.221z
		 M561.002,272.686l0.02-7.582c-0.899,2.4-2.779,4.821-5.141,6.101l-1.04-0.94c1.66-0.86,3.12-2.22,4.12-3.88
		c0.341-0.561,0.621-1.021,0.82-1.5h-4.28v-1.18l5.541,0.02v-2l-4.101,0.02v-6.321h9.201l-0.02,6.321h-3.861v1.96h5.402v1.18h-4.002
		c0.121,0.38,0.32,0.74,0.5,1.12c0.921,1.9,2.741,3.301,4.602,4.261l-0.96,0.92c-0.261-0.08-0.501-0.24-0.72-0.38
		c-1.541-0.88-2.922-2.281-3.781-3.821c-0.36-0.64-0.74-1.34-1-2.021l-0.041,7.722H561.002z M564.883,256.602h-6.701l0.02,3.961
		h6.682V256.602z"/>
	<path fill="#FFFFFF" d="M575.295,259.063h2.721v1.22h-2.701v12.163h-1.26v-12.143h-1.961v-1.24h1.941v-4.681h1.26V259.063z
		 M578.115,266.744c-0.359-0.22-0.72-0.4-1.06-0.66c1.021-1.28,1.8-2.621,2.16-4.161c0.36,0.14,0.72,0.32,1.081,0.5
		C579.956,264.023,579.195,265.464,578.115,266.744z M587.578,258.262c0.08,1.46,0.02,2.901-0.061,4.081
		c0.26-0.04,0.52-0.2,0.801-0.3c1.02,1.24,1.72,2.661,1.939,4.261c-0.379,0.2-0.76,0.34-1.14,0.52
		c-0.24-1.4-0.761-2.701-1.561-3.881c-0.22,2.581-0.56,5.761-1.021,7.961c-0.14,0.66-0.8,1.26-1.46,1.36
		c-0.86,0.12-1.681-0.1-2.46-0.28l-0.101-1.32c0.74,0.14,1.48,0.52,2.241,0.3c0.399-0.34,0.5-0.82,0.619-1.28
		c0.561-2.38,0.881-7.221,0.92-10.202h-3c-0.04,0.38-0.02,0.76,0,1.22c-0.04,1.42-0.12,3.041-0.46,4.401
		c-0.72,2.94-1.921,5.161-4.581,7.321l-0.92-1c1.82-1.4,3.26-3.321,3.92-5.421c0.621-2,0.82-4.281,0.74-6.481h-3.48v-1.26h3.501
		l0.021-3.921h1.199c0.08,1.061,0.021,3.161,0.021,3.921H587.578z"/>
	<path fill="#FFFFFF" d="M595.83,256.542v16.244h-1.3v-17.464h15.423v14.863c0,0.88-0.34,1.54-0.72,1.76
		c-0.28,0.18-0.58,0.26-0.94,0.26c-0.74,0-1.52,0-2.28,0.02c-0.12-0.46-0.28-0.9-0.44-1.36l2.361,0.04
		c0.18-0.02,0.439-0.08,0.58-0.24c0.1-0.2,0.119-0.36,0.119-0.56v-13.563H595.83z M607.673,259.103l0.021,1.22l-10.563-0.02
		l-0.04-1.22L607.673,259.103z M605.992,262.843v5.921h-7.521l0.021-5.901L605.992,262.843z M599.731,267.544h0.079h4.962v-3.461
		h-5.041V267.544z"/>
	<path fill="#FFFFFF" d="M623.111,266.184c-0.64-1.521-1.68-2.881-3.061-3.921l0.961-0.84c1.38,0.84,2.68,2.041,3.601,3.381
		L623.111,266.184z"/>
	<path fill="#FFFFFF" d="M632.89,266.864c1.581-1.82,2.54-3.921,3.041-6.182h-2.221v-1.2h2.46v-2.46c-0.8,0.1-1.64,0.24-2.5,0.24
		l-0.7-1.26c2.28,0.1,4.28-0.46,6.261-1.081c0.181,0.32,0.341,0.68,0.58,0.94c-0.779,0.36-1.56,0.62-2.38,0.86v2.76h2.38v1.2h-2.359
		v1.521l0.74-0.48c0.939,0.92,1.68,1.9,2.1,3.121c-0.34,0.24-0.699,0.46-1.08,0.66c-0.34-1.08-0.939-2.061-1.76-2.94v9.902h-1.281
		v-8.902c-0.539,1.5-1.199,2.92-2.34,4.161L632.89,266.864z M638.791,271.305c-0.32-0.24-0.68-0.6-1-0.88
		c1.24-0.86,1.961-2.061,2.5-3.361c0.34,0.2,0.641,0.46,1,0.621C640.752,269.004,639.991,270.345,638.791,271.305z M640.711,261.763
		h8.202v-1.48h-7.401v-0.86l-0.1,0.02c-0.261,0.12-0.48,0.32-0.781,0.36l-0.72-1.061c1.82-0.74,3.12-2.541,3.481-4.401
		c0.399,0.08,0.72,0.34,1.14,0.42c-0.12,0.42-0.24,0.86-0.42,1.26l4.461,0.02v1.06c-0.3,0.72-0.58,1.32-1.001,2h2.562v6.622h-9.022
		v-1.181h7.802v-1.6h-8.202V261.763z M643.532,257.222c-0.48,0.72-1.001,1.32-1.641,1.88h4.261c0.4-0.48,0.9-1.38,1.121-1.88
		H643.532z M643.152,271.685c-0.84-0.28-1.16-0.86-1.24-1.52v-4.021h1.22v3.861c0.04,0.18,0.181,0.48,0.4,0.48h3.341
		c0.22,0.02,0.359-0.12,0.46-0.2c0.14-0.3,0.26-0.98,0.34-1.66l1.141,0.64c-0.261,0.84-0.36,1.96-1.36,2.34l-0.58,0.08H643.152z
		 M646.572,268.464c-0.34,0.2-0.68,0.46-1.039,0.6c-0.32-0.96-0.881-1.8-1.521-2.621c0.32-0.16,0.601-0.38,0.94-0.52
		C645.612,266.724,646.272,267.504,646.572,268.464z M651.534,270.125c-0.261,0.34-0.601,0.64-0.881,0.96
		c-0.62-1.26-1.72-2.521-2.921-3.321l0.78-0.84c0.86,0.56,1.641,1.36,2.321,2.16L651.534,270.125z"/>
	<path fill="#FFFFFF" d="M424.368,285.683c-0.399,0.62-1.021,1.44-1.56,2.021l-0.941-0.84c2.201-2.48,3.342-5.381,4.241-8.442
		l1.101,0.4c-0.42,1.56-0.961,3.021-1.601,4.481v13.383h-1.261L424.368,285.683z M426.129,295.685c0.82-0.88,1.6-1.86,2.1-2.9
		c-0.84-1.22-1.22-2.641-1.6-4.061l1.12-0.34c0.28,0.98,0.58,2.021,1,2.92c0.46-1.22,0.681-2.541,0.78-3.881h-2.84v-1.12
		c0.92-1.12,1.8-2.221,2.4-3.481l0.42-0.88h-2.541v-1.18h3.841v1.18c-0.601,1.52-1.54,3-2.601,4.321h2.601
		c-0.12,2.22-0.42,4.401-1.22,6.401c0.9,1.28,2.38,1.92,3.961,1.9l4.74-0.04l2.181-0.1l-0.399,1.32h-6.402
		c-1.76,0-3.381-0.48-4.58-1.82l-0.08,0.02c-0.58,0.98-1.281,1.86-2.041,2.761L426.129,295.685z M434.17,294.065l0.021-2.161
		l-3.28-0.02v-1.12l3.26,0.02l0.021-1.621l-2.561,0.02v-1.14h2.54v-1.48h-2.32l-0.02-1.141h2.34l0.021-1.6h-3.301v-1.1h3.28
		l0.021-1.621h-2.36v-1.12l2.36-0.02l-0.021-1.521h1.261l-0.021,1.541h3.281v2.721h1.221v1.14h-1.221v2.721h-3.281l0.021,1.48h3.62
		l-0.02,1.12h-3.621v1.621l4.461-0.02v1.12l-4.44,0.02v2.181L434.17,294.065z M435.431,281.102v1.601h2.021v-1.601H435.431z
		 M437.451,285.423v-1.58l-2.021-0.02v1.6H437.451z"/>
	<path fill="#FFFFFF" d="M445.443,289.784l0.041,0.04c1.42-0.28,3.16-0.64,4.66-0.9v1.06c-2.08,0.48-4.181,1.041-5.961,1.34
		l-0.62-1.16c1.101-1,2.46-2.601,3.86-4.141c-1.061,0.12-2.1,0.34-3.26,0.58l-0.601-1.18c1.16-1.62,3.001-4.821,4.161-7.082
		l1.02,0.72c-1.38,2.561-2.801,4.841-3.721,6.182c0.801-0.06,2.041-0.34,3.32-0.44c0.601-0.82,1.141-1.64,1.701-2.46l1.04,0.74
		C449.084,285.683,447.344,287.804,445.443,289.784z M444.344,295.205c-0.221-0.46-0.48-0.92-0.74-1.34
		c2.68-0.8,4.82-1.541,7.321-2.4v1.24C448.184,293.765,446.384,294.405,444.344,295.205z M449.345,295.525v-1.081h5.241v-4.601
		h-3.701v-1.12h8.622v1.14h-3.701v4.581h5.542v1.081H449.345z M460.467,288.384c-1.6-1.34-3.961-2.641-5.221-3.121
		c-1.801,1.7-3.262,2.7-5.062,3.44c-0.28-0.32-0.54-0.68-0.78-1.04c3.341-1.14,6.342-4.241,8.082-7.302l-7.041-0.02v-1.1h8.621v1.12
		c-0.84,1.561-2.16,3.081-2.98,4.001c1.801,0.88,4.24,2.181,5.301,3.241L460.467,288.384z"/>
	<path fill="#FFFFFF" d="M476.321,283.022v-1.7h-4.601v1.66h-1.24v-1.66h-5.062v-1.18h5.121v-1.541h1.181v1.521h4.601v-1.5h1.24v1.5
		h5.062v1.18h-5.082v1.72H476.321z M466.999,286.303h-1.2v-2.921h16.424l-0.02,2.981h-1.201v-1.8h-14.003V286.303z M478.982,296.686
		v-1.22h-10.043v1.2h-1.26l0.02-5.901h12.523v5.921H478.982z M478.982,291.964h-10.043v2.3h10.043V291.964z M478.682,285.523v4.041
		H469.3v-4.041H478.682z M470.561,286.723v1.641h6.861v-1.641H470.561z"/>
	<path fill="#FFFFFF" d="M492.834,296.045c-0.079-0.58,0-1.161-0.02-1.681l-3.761,0.02l-0.021,1.661h-1.3v-13.943h1.841
		c0.4-0.82,1-2.22,1.28-3.581l1.14,0.46c-0.3,1.24-0.619,2.221-1.18,3.121h3.28v13.923L492.834,296.045z M489.014,283.243v4.321
		l3.741,0.02v-4.341H489.014z M492.795,293.205l-0.02-4.461l-3.762-0.02v4.501L492.795,293.205z M497.596,282.902
		c-0.54,1.541-1.301,2.921-2.301,4.241c-0.38-0.2-0.76-0.48-1.16-0.7c0.04-0.12,0.221-0.24,0.26-0.36
		c1.681-2.32,2.581-4.961,3.081-7.742c0.38,0.14,0.86,0.24,1.22,0.38c-0.08,0.66-0.299,1.34-0.459,2
		c-0.08,0.36-0.181,0.68-0.281,1.04h5.563c-0.101,4.221,0.02,8.922-1.301,12.943c-0.221,0.68-0.7,1.48-1.461,1.62
		c-0.859,0.16-1.619-0.14-2.4-0.3c-0.38-0.08-0.76-0.24-1.14-0.34c-0.06-0.46-0.16-0.9-0.2-1.36c0.939,0.36,1.9,0.64,2.92,0.8
		c0.4,0.06,0.721-0.14,0.941-0.44c0.299-0.6,0.479-1.34,0.619-2c0.42-1.94,0.521-4.021,0.641-6.062c0.061-1.22,0.1-2.46,0.12-3.701
		L497.596,282.902z M497.876,286.203c1.22,1.44,2.16,2.98,2.78,4.681c-0.34,0.18-0.68,0.4-1.04,0.56l-0.12,0.04
		c-0.641-1.681-1.58-3.201-2.701-4.641l1.001-0.64H497.876z"/>
	<path fill="#FFFFFF" d="M511.97,290.944c-1.021,1.48-2.04,2.7-3.601,3.5l-0.74-0.96c1.66-0.76,2.701-2.241,3.521-3.361
		L511.97,290.944z M513.65,295.245c0,0.74-0.541,1.521-1.42,1.521h-1.541l-0.42-1.3c0.58,0.08,0.98,0.16,1.42,0.1
		c0.301-0.04,0.66-0.3,0.66-0.66v-5.761h-3.32v-1.2h3.32v-1.78h-4.041v-1.2h3.041c-0.24-0.76-1.26-2.041-1.86-2.561l1.14-0.52
		c0.881,0.92,1.48,2,1.941,3.081h1.039c0.721-0.92,1.201-1.98,1.581-3.041l1.12,0.54c-0.3,1-1.1,2.101-1.44,2.5h2.761v1.2h-3.98
		v1.78h3.28v1.2h-3.28V295.245z M512.31,280.482c-0.3-0.58-0.76-1.18-1.28-1.7l1.181-0.541c0.58,0.68,1.12,1.44,1.399,2.241h3.441
		v1.2h-8.222v-1.2H512.31z M514.69,290.044c1,0.6,2.101,1.521,2.8,2.46l-0.92,0.86c-0.58-0.92-1.939-2.041-2.6-2.48L514.69,290.044z
		 M525.232,279.502c-1.7,0.98-3.561,1.5-5.521,1.82v3.261h5.922v1.2h-2.32v10.742h-1.261v-10.742h-2.341v2.82
		c0,2.721-0.9,5.501-2.38,7.802l-1.141-0.8c1.821-2.5,2.241-5.381,2.241-8.582v-6.662c2.16-0.24,4.16-0.88,6.001-1.88
		L525.232,279.502z"/>
	<path fill="#FFFFFF" d="M540.547,294.745l2.621,0.38c0.239-0.04,0.5-0.14,0.6-0.38l0.16-0.38c0.561-2.4,0.779-4.821,0.9-7.401
		h-11.883l-0.18,3.061c-0.101,1.561-0.58,3.041-1.221,4.421c-0.34,0.72-0.78,1.36-1.2,2.061l-0.98-0.94
		c1.3-1.78,1.54-2.74,2.04-4.961c0.261-1.08,0.24-3.881,0.24-5.521v-5.701h12.943v4.861h-11.703v1.521l13.163,0.02v1.56l-0.26,3.261
		c-0.101,1.46-0.38,2.901-0.72,4.301c-0.141,0.541-0.58,0.98-1.041,1.241c-0.82,0.28-1.76,0.02-2.641,0l-0.5-0.06L540.547,294.745z
		 M543.327,283.063v-2.5h-10.442v2.5H543.327z M534.646,294.445l-0.021-5.821h7.521l-0.02,5.562h-1.221v-0.82l-5.021,0.02v1.06
		H534.646z M535.865,292.185l5.041,0.02v-2.401h-5.021L535.865,292.185z"/>
	<path fill="#FFFFFF" d="M558.361,283.022c0.44-0.72,0.641-1.561,0.801-2.42h-8.422v-1.18h17.303l-0.02,1.18h-7.562
		c-0.16,0.8-0.36,1.68-0.7,2.42h7.182v13.643h-1.26l0.02-1.38H553.24l-0.02,1.56l-1.24-0.02v-13.803H558.361z M553.221,294.105h3.16
		v-9.882l-3.141-0.02L553.221,294.105z M561.422,284.223h-3.801v2.261h3.801V284.223z M557.621,287.664v2.44h3.801v-2.42
		L557.621,287.664z M557.642,294.105h3.78v-2.821h-3.801L557.642,294.105z M565.703,284.203h-3.041v9.902l3.041-0.02V284.203z"/>
	<path fill="#FFFFFF" d="M578.621,285.963h2v2c0,0.68,0,2.121-1.641,2.821l-0.479-0.74c0.94-0.42,1.08-1.24,1.101-2.081h-0.98
		V285.963z"/>
	<path fill="#FFFFFF" d="M593.88,296.485v-9.042c-0.56,1.3-1.5,3.101-2.74,4.401l-0.94-0.9c1.92-2.161,2.841-3.981,3.541-6.282
		l-2.98,0.02v-1.2l3.1,0.02v-2.601c-0.879,0.2-1.42,0.22-2.52,0.34l-0.621-1.22c2.182-0.06,4.242-0.66,6.223-1.581l0.66,0.92
		c-0.681,0.34-1.621,0.82-2.502,1.12v3h2.781v1.18l-2.781,0.02v1.42l0.66-0.36c1.041,0.84,2.061,2.661,2.602,3.801l-1.061,0.6
		c-0.42-1-1.4-2.721-2.201-3.501v9.842H593.88z M596.98,295.385c1.781-1.42,2.781-3.401,3.581-5.301l1,0.56
		c-0.3,0.78-0.46,1.18-0.76,1.78c-0.7,1.38-1.661,2.721-2.86,3.801L596.98,295.385z M598.561,288.964v-9.362h8.742v9.362H598.561z
		 M606.103,280.802h-6.321v6.982h6.321V280.802z M607.583,296.146c-0.72-1.94-2.261-3.981-3.521-5.301l0.96-0.68
		c1.58,1.54,2.801,3.321,3.62,5.241L607.583,296.146z"/>
	<path fill="#FFFFFF" d="M615.255,287.443c-0.54,1.621-1.32,3-2.501,4.381l-1.06-0.86c1.8-1.92,2.841-4.021,3.241-6.542l0.119-0.76
		h-2.721v-1.18h2.921v-4.001h1.24v3.981h2.541v1.2h-2.541v2.48c0.3-0.1,0.341-0.08,0.62-0.24c1.08,1.04,1.94,1.88,2.281,3.081
		l-1.121,0.74c-0.3-1.26-0.82-1.741-1.78-2.741l-0.02,9.582h-1.221V287.443z M629.178,296.726c-1.46-0.84-3.08-1.781-4.221-3.081
		c-0.78,0.72-1.62,1.44-2.5,2.021c-0.561,0.38-1.041,0.74-1.641,1.021l-0.92-0.96c1.48-0.86,3-1.72,4.221-3.101
		c-1.121-1.48-1.92-3.061-2.461-4.781c0,0.78-0.279,2.5-0.5,3.121c-0.58,1.7-1.42,3.46-2.74,4.741l-0.641,0.62
		c-0.34-0.26-0.699-0.58-1.061-0.84c1.581-1.661,2.98-3.461,3.342-5.622c0.199-1.3,0.319-2.601,0.319-3.96v-5.301h-1.7v-1.22h9.361
		v1.4c-0.479,1.3-0.939,2.46-1.68,3.841h2.5c-0.039,3.141-1.039,5.721-3.04,8.062c1.261,1.42,2.841,2.34,4.461,3.041
		L629.178,296.726z M621.676,280.582c-0.039,1.18,0.021,2.38,0,3.521c0.58,2.721,1.581,5.321,3.262,7.542
		c0.68-0.86,1.38-1.681,1.78-2.661c0.42-1,0.739-2.081,0.88-3.181h-2.721v-1.22c0.74-1.24,1.4-2.641,1.881-4.001H621.676z"/>
	<path fill="#FFFFFF" d="M633.109,295.945c1.201-2.101,1.48-3.461,1.761-5.161c0.181-1,0.12-2.36,0.12-3.381v-7.901h14.243v4.461
		H636.25l0.021,5.201c0,0.541-0.08,1.94-0.14,2.301c-0.28,1.88-0.98,3.581-1.9,5.221L633.109,295.945z M647.993,280.702
		l-11.723-0.02v2.1h11.723V280.702z M649.033,291.824c-0.6,0.8-1.32,1.541-2.16,2.061c1.26,0.88,2.7,1.28,4.221,1.5l-0.84,1.18
		c-2.721-0.44-5.502-2.081-6.701-4.661c-0.201-0.46-0.4-0.94-0.541-1.38h-2.541v4.441l3.361-1.18l0.02,1.22l-4.58,1.741l-1.021-0.86
		c0.46-0.14,1.08-0.52,0.979-1.3v-4.061h-2.3v-1.18l3.301-0.02v-2.22h-2.86l-0.021-1.2h2.881v-1.34l1.24-0.02v1.36h3.78l0.021-1.34
		h1.24v1.34h2.94l-0.02,1.18l-2.921,0.02v2.22l3.741,0.02v1.16h-5.962c0.36,0.96,0.921,1.96,1.721,2.701
		c0.36-0.2,0.66-0.48,0.96-0.78c0.4-0.44,0.76-0.86,1.061-1.36L649.033,291.824z M645.252,289.344v-2.24l-3.74-0.02v2.24
		L645.252,289.344z"/>
	<path fill="#FFFFFF" d="M429.01,308.863v1.2h-2.521v4.741c0.761-0.14,1.881-0.5,2.701-0.7v1.2l-6.321,1.74
		c-0.261-0.44-0.54-0.84-0.82-1.28c1.06-0.14,2.16-0.36,3.221-0.62v-5.101h-2.48v-1.16h2.46v-3.701h-2.7v-1.16h6.661v1.14h-2.721
		v3.701H429.01z M435.07,305.842c0.1,3.621-0.359,7.082-2,10.022c-0.521,0.92-1.28,1.8-2.16,2.561
		c-0.941,0.78-1.941,1.42-3.001,1.96l-0.98-1.04c1.761-0.8,3.721-1.9,4.802-3.721c0.859-1.44,1.459-3.001,1.76-4.641
		c0.32-1.72,0.359-3.381,0.34-5.261L435.07,305.842z M438.611,303.262v10.942c-0.38,0.02-0.82,0.02-1.221,0v-9.742h-5.841v9.702
		h-1.22v-10.902H438.611z M435.73,319.685c-0.8-0.16-1.16-0.8-1.26-1.3v-5.361h1.24v5.101c0.039,0.18,0.199,0.3,0.34,0.4h2.221
		c0.58-0.1,0.439-0.7,0.58-1.08l0.08-0.84c0.42,0.14,0.8,0.42,1.18,0.62c-0.22,0.94-0.34,2.181-1.46,2.46H435.73z"/>
	<path fill="#FFFFFF" d="M451.945,317.685v-6.761h-6.162v-6.642l1.341,0.02v5.381h4.821l-0.02-7.382h1.399v7.382h4.861l0.021-5.361
		h1.34l0.02,6.602h-6.241v6.781l5.241-0.02v-4.841l1.36-0.02v7.762h-1.36v-1.661l-11.902,0.02v1.621h-1.381v-7.802h1.341v4.921
		H451.945z"/>
	<path fill="#FFFFFF" d="M464.738,319.565c0.98-1.38,1.521-3.34,1.521-4.761v-11.203h9.981v1.121l-8.762,0.02l0.021,9.642
		c0,2.26-0.541,4.241-1.721,5.961L464.738,319.565z M474.701,309.823c0.02,1.92-0.08,4.981-0.36,6.821
		c-0.12,0.84-0.22,1.42-0.5,2.101c-0.24,0.58-0.8,0.82-1.44,0.84c-0.54,0-1.04-0.12-1.541-0.22l-0.299-1.28
		c0.56,0.16,1.08,0.32,1.699,0.34c0.281,0,0.461-0.1,0.58-0.36c0.48-1.34,0.721-4.681,0.681-7.142h-2.761
		c0,2.661-0.38,7.202-2.76,9.282l-0.98-0.72c1.68-1.761,2.52-4.681,2.52-6.622v-5.441l-1.479-0.02v-1.12l7.042,0.02v1.1H470.8
		l-0.02,2.401L474.701,309.823z M482.322,307.482c-0.119,2.521-0.34,6.542-0.58,9.082c-0.16,1.42-0.199,2.221-0.52,2.921
		c-0.36,0.8-1.08,1.06-2.24,0.86l-1.201-0.2l-0.3-1.221c0.66,0.1,1.261,0.26,1.96,0.28c0.36,0,0.681-0.16,0.781-0.68
		c0.459-2.141,0.699-6.542,0.859-9.922l-2.32-0.02c-0.12,3.721-0.7,7.121-2.801,10.462c-0.26,0.42-0.52,0.8-0.88,1.24l-1.061-0.78
		c1.32-1.521,2.221-3.261,2.761-5.021c0.58-1.96,0.74-3.841,0.801-5.901l-2.301,0.02v-1.121h2.32l0.02-5.101h1.24l0.021,5.101
		H482.322z"/>
	<path fill="#FFFFFF" d="M489.773,320.625v-7.322c-0.42,0.84-1.14,2.061-1.699,2.861c-0.32,0.46-0.701,0.84-1.121,1.24
		c-0.34-0.24-0.52-0.56-0.84-0.78v-0.12c1.34-1.42,2.82-3.721,3.361-5.581l0.199-0.68h-2.82v-1.18h2.9l0.02-6.682h1.261v6.662h2.081
		v1.22h-2.041l-0.02,1.72c0.24-0.08,0.38-0.3,0.58-0.46c1,0.9,1.9,2.041,2.4,3.181c-0.32,0.2-0.66,0.4-1.021,0.54
		c-0.2-0.52-0.42-0.8-0.681-1.3c-0.34-0.44-0.819-1.14-1.279-1.48l0.02,8.162H489.773z M489.214,307.663
		c-0.36,0.16-0.74,0.3-1.101,0.46c-0.06-1.42-0.64-2.641-1.4-3.741c0.32-0.14,0.66-0.34,1.041-0.42
		C488.533,305.062,489.054,306.322,489.214,307.663z M493.715,304.822c-0.38,1.141-0.74,2.301-1.461,3.261
		c-0.34-0.16-0.66-0.38-0.979-0.52c0.66-0.94,1.04-1.98,1.4-3.061c0.06-0.2,0.06-0.36,0.159-0.54c0.32,0.14,0.66,0.32,0.98,0.44
		C493.775,304.522,493.775,304.702,493.715,304.822z M494.655,307.263v-1.101h3.44l0.02-1.24l-4.061,0.02v-1.18l4.041-0.02l0.02-1.4
		l1.261-0.02v1.44h4.281l0.021,1.14l-4.262,0.02v1.24h3.561l-0.02,1.121h-3.541l0.02,1.32l5.021-0.02v1.2h-10.963v-1.2h4.602
		l0.02-1.32H494.655z M503.076,311.063l-0.02,7.821c-0.18,0.84-0.64,1.181-1.141,1.241c-0.74,0.1-1.58,0.06-2.3,0.1
		c-0.14-0.4-0.261-0.8-0.38-1.22l1.939,0.04c0.201,0,0.641-0.2,0.641-0.6v-1.18l-5.961-0.02v3.341h-1.28v-9.522H503.076z
		 M495.855,314.744c-0.04,0.4-0.04,0.86,0,1.28h5.941v-1.3L495.855,314.744z M501.797,313.524v-1.24l-5.961-0.02v1.24
		L501.797,313.524z"/>
	<path fill="#FFFFFF" d="M523.172,320.565v-1.4H510.35c-0.02,0.44,0,0.94,0,1.4h-1.24v-17.204h15.264v17.204H523.172z
		 M523.152,311.983c-0.32,0.34-0.601,0.76-0.92,1.141c-2.361-0.34-4.182-1.201-5.262-1.881c-1.74,0.96-3.701,1.42-5.641,1.9
		c-0.201-0.44-0.521-0.82-0.66-1.26c1.84-0.36,3.66-0.76,5.281-1.62c-0.74-0.6-1.421-1.36-2.001-2.101
		c-0.72,0.78-1.561,1.48-2.46,1.9c-0.261-0.38-0.521-0.68-0.82-1.08c1.3-0.52,3.02-2.28,4.061-4.441h-4.381v13.503h7.121
		c-1.08-1.16-2.34-2.141-3.721-2.701c0.2-0.34,0.48-0.62,0.721-0.96c1.54,0.72,2.94,1.74,3.9,2.7l-0.78,0.94h5.562V311.983z
		 M514.711,307.223c0.68,1,1.479,1.68,2.4,2.46h0.08c0.899-0.7,1.76-1.5,2.38-2.46H514.711z M523.172,304.542h-8.182l0.92,0.54
		c-0.14,0.34-0.359,0.66-0.52,1h5.682v1.041c-0.66,1.24-1.682,2.4-2.821,3.301c1.101,0.64,3.001,1.54,4.921,1.36V304.542z
		 M518.352,315.164c-0.841-0.98-1.881-1.78-3.001-2.32l0.88-0.84c1.16,0.44,2.141,1.3,3.061,2.241L518.352,315.164z"/>
	<path fill="#FFFFFF" d="M530.024,320.285c-0.42-0.22-0.82-0.5-1.22-0.74c2.32-2,3.7-4.541,4.881-7.081
		c0.359,0.18,0.72,0.48,1.08,0.66C533.586,315.685,532.225,318.245,530.024,320.285z M532.425,311.543
		c-0.94-1.2-2.22-2.141-3.46-2.801c0.199-0.3,0.479-0.64,0.72-0.96c0.66,0.3,1.28,0.76,1.9,1.18c0.601,0.4,1.22,0.98,1.681,1.521
		L532.425,311.543z M531.064,302.961c0.7,0.24,1.301,0.7,1.9,1.121c0.66,0.44,1.281,1.14,1.74,1.78c-0.24,0.36-0.56,0.72-0.8,1.06
		c-0.841-1.28-2.24-2.4-3.561-3.041L531.064,302.961z M542.787,305.462c1.78,1.241,3.441,2.941,4.561,4.801
		c-0.359,0.28-0.72,0.5-1.1,0.72c-0.34-0.54-0.7-1.12-1.141-1.581c-1.12,0.1-2.24,0.24-3.381,0.38l-2.98,0.36
		c-1.34,0.16-2.68,0.44-3.98,0.72c-0.381-0.4-0.66-0.9-0.98-1.36c2.641-1.86,4.561-4.621,6.222-7.262l1.261,0.76
		c-1.461,2.201-3.102,4.601-5.281,6.182l0.459,0.02l3.502-0.4c1.4-0.16,2.8-0.32,4.2-0.5c-0.74-0.8-1.58-1.46-2.421-2.081
		L542.787,305.462z M545.268,312.104v8.422h-1.359l-0.021-1.48l-6.782-0.02v1.561h-1.38v-8.482H545.268z M543.867,317.805
		l-0.02-4.481h-6.742v4.481H543.867z"/>
	<path fill="#FFFFFF" d="M558.926,314.184c-0.64-1.521-1.68-2.881-3.061-3.921l0.961-0.84c1.38,0.84,2.68,2.041,3.601,3.381
		L558.926,314.184z"/>
	<path fill="#FFFFFF" d="M573.625,320.425h-1.24v-8.522c-0.66,0.36-2.12,1.3-2.84,1.521c-0.221-0.34-0.541-0.64-0.74-1
		c2.68-1.28,5.641-3.321,7.241-6.501h-6.642v-1.14h7.322c0.239-0.62,0.66-1.701,0.84-2.441c0.4,0.14,0.74,0.4,1.12,0.56
		c-0.16,0.64-0.421,1.241-0.64,1.861h8.602v1.14h-6.342c1.48,2.76,4.201,4.961,6.842,6.542l-0.9,0.9
		c-0.881-0.46-1.98-1.28-2.461-1.78l-0.02,8.822h-1.24v-1.42h-8.882L573.625,320.425z M577.467,305.922
		c-0.9,1.76-2.361,3.761-3.941,4.981l9.502,0.04c-1.48-0.88-2.82-2.901-3.98-5.021H577.467z M573.646,312.063v2.201h3.761v-2.201
		H573.646z M577.467,315.404h-3.821v2.42h3.821V315.404z M582.508,312.063h-3.881v2.201h3.881V312.063z M578.646,317.825h3.881
		v-2.42h-3.881V317.825z"/>
	<path fill="#FFFFFF" d="M607.344,320.425c-3.021-0.72-4.182-1.7-6.242-3.241c-1.859,1.8-4.141,2.761-6.461,3.201l-0.7-1.02
		c2.521-0.54,4.562-1.38,6.281-2.981c-0.819-0.8-2.32-2.96-3.04-4.481c-1.221,3.601-3.641,6.001-6.162,7.962l-0.84-0.9
		c3.421-2.601,5.541-5.941,6.861-10.342h-4.781v-1.161c0.681-1.5,1.221-3.081,1.801-4.541l1,0.541c-0.34,1.24-0.96,2.88-1.48,4
		h3.762c0.42-1.64,0.619-3.241,0.82-4.981l1.18,0.34c-0.221,1.6-0.42,3.121-0.76,4.661h8.922v1.141h-9.183
		c-0.239,0.64-0.42,1.3-0.64,1.96h7.102c-0.041,0.36,0.1,0.76-0.061,1.101c-0.74,1.62-1.62,3.281-2.881,4.681
		c1.861,1.541,4.002,2.501,6.342,3.081L607.344,320.425z M598.422,311.744c0.58,1.12,1.641,2.9,2.6,3.761
		c1.041-1.16,1.82-2.38,2.421-3.761H598.422z M603.803,306.683c-0.721-1.181-1.92-2.121-3.061-2.781l0.82-0.78
		c1.26,0.66,2.4,1.621,3.221,2.761L603.803,306.683z"/>
	<path fill="#FFFFFF" d="M619.836,302.481c-0.18,0.76-0.48,1.8-0.7,2.581h10.542v1.18l-11.042,0.02
		c-0.34,0.96-0.521,1.521-0.899,2.241h9.441v10.382c-0.061,0.541-0.44,0.94-0.961,1.121c-0.799,0.2-1.76,0.08-2.6,0.12
		c-0.2-0.42-0.4-0.84-0.58-1.26c0.76,0.1,1.58,0.1,2.36,0.06c0.319-0.02,0.44-0.12,0.54-0.42l0.02-2.26l-8.102-0.02v4.361h-1.301
		v-10.182c-0.979,1.46-2.439,2.92-3.68,4.181c-0.4-0.18-0.74-0.54-1.141-0.76c2.48-2.18,4.541-4.701,5.541-7.562l-4.4-0.02v-1.18
		h4.861c0.34-0.9,0.58-1.92,0.819-2.86L619.836,302.481z M617.836,315.044h8.082v-2.18h-8.082V315.044z M617.855,309.683v1.98
		l8.042,0.02v-2H617.855z"/>
	<path fill="#FFFFFF" d="M642.352,308.363c-0.039,3.241-0.68,6.281-2.561,8.782c-1.061,1.42-3.08,2.761-4.4,3.361l-0.86-1.1
		c2.54-0.9,5.081-3.301,5.821-5.941c0.46-1.62,0.82-3.321,0.76-5.121h-7.002v-1.14h7.002v-4.741c0.42-0.02,0.801-0.04,1.24-0.04
		v4.761l7.002,0.02c-0.181,3.761-0.12,8.142-0.9,11.762c-0.1,0.5-0.44,1-0.94,1.24c-0.7,0.34-1.681,0.22-2.46,0.12
		c-0.24-0.06-0.5-0.08-0.701-0.18c-0.06-0.46-0.18-0.86-0.239-1.32c0.761,0.14,1.521,0.46,2.4,0.44c0.28-0.08,0.56-0.22,0.681-0.52
		c0.52-1.741,0.84-5.981,0.92-10.382H642.352z M636.951,303.182c0.959,0.72,1.84,1.8,2.439,2.821c-0.34,0.28-0.699,0.6-1.039,0.84
		c-0.441-1.1-1.381-2.18-2.401-2.9L636.951,303.182z M643.912,311.003c1.2,1.18,2.08,2.46,2.66,3.941c-0.359,0.22-0.72,0.52-1.1,0.7
		c-0.42-1.541-1.48-2.841-2.58-4.041L643.912,311.003z"/>
	<path fill="#FFFFFF" d="M428.648,344.045c-0.079-0.58,0-1.161-0.02-1.681l-3.761,0.02l-0.021,1.661h-1.3v-13.943h1.841
		c0.4-0.82,1-2.22,1.28-3.581l1.14,0.46c-0.3,1.24-0.619,2.221-1.18,3.121h3.28v13.923L428.648,344.045z M424.828,331.243v4.321
		l3.741,0.02v-4.341H424.828z M428.609,341.205l-0.02-4.461l-3.762-0.02v4.501L428.609,341.205z M433.41,330.902
		c-0.54,1.541-1.301,2.921-2.301,4.241c-0.38-0.2-0.76-0.48-1.16-0.7c0.04-0.12,0.221-0.24,0.26-0.36
		c1.681-2.32,2.581-4.961,3.081-7.742c0.38,0.14,0.86,0.24,1.22,0.38c-0.08,0.66-0.299,1.34-0.459,2
		c-0.08,0.36-0.181,0.68-0.281,1.04h5.563c-0.101,4.221,0.02,8.922-1.301,12.943c-0.221,0.68-0.7,1.48-1.461,1.62
		c-0.859,0.16-1.619-0.14-2.4-0.3c-0.38-0.08-0.76-0.24-1.14-0.34c-0.06-0.46-0.16-0.9-0.2-1.36c0.939,0.36,1.9,0.64,2.92,0.8
		c0.4,0.06,0.721-0.14,0.941-0.44c0.299-0.6,0.479-1.34,0.619-2c0.42-1.94,0.521-4.021,0.641-6.062c0.061-1.22,0.1-2.46,0.12-3.701
		L433.41,330.902z M433.69,334.203c1.22,1.44,2.16,2.98,2.78,4.681c-0.34,0.18-0.68,0.4-1.04,0.56l-0.12,0.04
		c-0.641-1.681-1.58-3.201-2.701-4.641l1.001-0.64H433.69z"/>
	<path fill="#FFFFFF" d="M446.389,338.944c-1.02,1.48-2.041,2.7-3.601,3.5l-0.74-0.96c1.66-0.76,2.7-2.241,3.521-3.361
		L446.389,338.944z M448.068,343.245c0,0.74-0.539,1.521-1.42,1.521h-1.54l-0.42-1.3c0.58,0.08,0.979,0.16,1.42,0.1
		c0.3-0.04,0.66-0.3,0.66-0.66v-5.761h-3.32v-1.2h3.32v-1.78h-4.04v-1.2h3.04c-0.24-0.76-1.261-2.041-1.86-2.561l1.141-0.52
		c0.88,0.92,1.48,2,1.939,3.081h1.041c0.72-0.92,1.2-1.98,1.58-3.041l1.12,0.54c-0.3,1-1.101,2.101-1.44,2.5h2.761v1.2h-3.981v1.78
		h3.281v1.2h-3.281V343.245z M446.729,328.482c-0.3-0.58-0.76-1.18-1.28-1.7l1.181-0.541c0.58,0.68,1.12,1.44,1.4,2.241h3.44v1.2
		h-8.222v-1.2H446.729z M449.109,338.044c1,0.6,2.1,1.521,2.801,2.46l-0.92,0.86c-0.58-0.92-1.941-2.041-2.602-2.48L449.109,338.044
		z M459.651,327.502c-1.7,0.98-3.561,1.5-5.521,1.82v3.261h5.921v1.2h-2.321v10.742h-1.26v-10.742h-2.34v2.82
		c0,2.721-0.9,5.501-2.381,7.802l-1.141-0.8c1.82-2.5,2.24-5.381,2.24-8.582v-6.662c2.161-0.24,4.161-0.88,6.002-1.88
		L459.651,327.502z"/>
	<path fill="#FFFFFF" d="M466.689,326.622c-0.021,0.64-0.121,1.16-0.201,1.74l13.644-0.02v1.2l-13.964-0.02
		c-0.699,2.221-1.699,4.401-3.42,6.182c-0.34-0.2-0.66-0.54-1-0.82c1.24-1.3,2.141-2.801,2.76-4.421c0.561-1.4,0.861-2.841,1-4.401
		L466.689,326.622z M476.33,334.183c-0.039,2.98-0.039,6.461,2.161,8.822c0.24,0.12,0.28-0.26,0.36-0.5c0.26-0.7,0.4-1.521,0.42-2.3
		l1.18,0.48c-0.199,1.16-0.459,2.46-1.119,3.301c-0.281,0.38-0.5,0.44-0.841,0.42c-0.7-0.04-1.16-0.6-1.54-1.14
		c-1.601-2.241-1.9-5.221-1.961-7.902h-10.542v-1.18H476.33z M465.949,332.503c-0.021-0.38-0.021-0.78-0.021-1.18h12.482v1.18
		H465.949z"/>
	<path fill="#FFFFFF" d="M492.17,339.144c-0.18-0.64-0.42-0.98-0.7-1.3c-2.3,1.581-4.94,2.381-7.722,2.841l-0.86-1.12
		c2.78-0.36,5.682-1.16,7.962-2.621c-0.359-0.38-0.7-0.54-1.18-0.62c-1.761,0.86-3.661,1.36-5.722,1.66l-0.82-1.14
		c2.501-0.28,5.201-0.84,6.581-1.92l-4.921-0.04v-3.561c-0.399,0.18-0.819,0.36-1.38,0.56l-0.76-1.041
		c2.42-0.86,4.58-2.4,6.16-4.481l1.021,0.521l-0.621,0.84h5.802v1.061c-0.46,0.52-1.3,1.46-1.86,1.78l4.761,0.04v4.281h-6.602
		c-0.159,0.22-0.34,0.44-0.66,0.72c0.9,0.38,1.82,1.16,2.241,2.16c1.38-0.36,2.9-1.3,4-2.2l0.74,0.78c-0.561,0.56-1.28,1.04-2,1.4
		c0.08,0.42,0.26,0.84,0.439,1.24c0.701,1.56,2.24,2.66,3.781,3.28l-0.801,1.041c-2.08-0.94-3.961-2.741-4.5-5.001
		c-0.32,0.22-0.82,0.4-1.24,0.56c0.359,1.24,0.66,2.581,0.459,3.921c-0.1,0.7-0.619,1.42-1.319,1.68
		c-0.94,0.24-2.04,0.08-2.981-0.04l-0.459-1.3c0.899,0.12,1.82,0.24,2.721,0.2c0.52-0.14,0.779-0.36,0.859-0.74
		c0.16-0.7-0.04-1.601-0.199-2.261c-2.701,1.541-5.563,2.841-8.703,3.321l-0.779-1.12
		C486.648,342.085,490.189,340.364,492.17,339.144z M488.089,328.922c-0.64,0.62-1.36,1.141-2.101,1.641l5.502,0.04
		c0.84-0.56,1.24-0.94,1.84-1.681H488.089z M490.97,331.803h-4.901v1.88h4.262C490.649,333.203,490.869,332.523,490.97,331.803z
		 M492.23,331.803c-0.121,0.78-0.281,1.3-0.561,1.88h4.961v-1.88H492.23z"/>
	<path fill="#FFFFFF" d="M513.99,336.384c-0.359,1.02-1.36,1.9-2.44,1.98c-0.98,0.08-1.86-0.3-2.48-1.021s-0.82-1.8-0.521-2.721
		c0.34-1.06,1.381-1.88,2.461-1.96c1.02-0.06,1.94,0.3,2.541,1.141C514.07,334.543,514.311,335.483,513.99,336.384z M511.67,333.883
		c-0.6-0.14-1.221,0.04-1.601,0.48c-0.38,0.38-0.54,0.94-0.44,1.48c0.101,0.5,0.48,1,0.94,1.2c0.64,0.28,1.4,0.12,1.881-0.36
		c0.46-0.46,0.601-1.2,0.36-1.8C512.609,334.403,512.15,334.023,511.67,333.883z"/>
	<path fill="#FFFFFF" d="M608.594,449.702c0.279,0.36,0.479,0.681,0.699,1.2c-2.061,0.46-4.041,0.681-5.881,0.86v0.62h7.701
		l-0.02,1.36h-7.701v0.68h5.341v5.241h-5.321l-0.02,0.681l6.08-0.021v1.341h-6.061v0.7h7.961v1.38H593.95v-1.4l7.882,0.021v-0.7
		h-6.041v-1.32h6.041v-0.681h-5.281v-5.241h5.301l-0.02-0.68h-7.742l0.02-1.381h7.723v-0.5c-1.681,0.12-3.701,0.12-5.662,0.061
		l-0.74-1.381l3.842,0.061c2.141,0.04,4.24-0.16,6.141-0.42v-0.82h-5.66v1.12h-1.521v-1.12h-4.2v-1.44h4.2v-1.5h1.521v1.5h5.66
		v-1.44h1.58v1.44h4.121v1.44h-4.121l0.041,0.62C607.413,449.902,607.953,449.802,608.594,449.702z M601.852,455.724h-3.761
		l-0.021,0.62h3.762L601.852,455.724z M601.832,457.664h-3.741v0.74h3.741V457.664z M607.173,456.344v-0.62h-3.761l-0.02,0.62
		H607.173z M603.412,457.664v0.74h3.761l-0.021-0.74H603.412z"/>
	<path fill="#FFFFFF" d="M615.51,460.364h6.143l0.039-1.16l-8.062-0.02v-1.36l8.062-0.04v-1l-6.201-0.021l0.02-1.36l6.182-0.04
		v-0.84l-5.701-0.04l-0.02-3.961h5.701l0.02-0.88l-7.941,0.02v-1.4h7.922l-0.02-1.58h1.6l-0.02,1.58h7.981l0.021,1.381h-8.002
		l0.02,0.92l5.641-0.04v4.001h-5.641v0.88l6.342-0.02v2.4h1.82l0.02,1.42l-1.881-0.02v2.58l-6.32-0.02c0,0.76,0.199,2.04-0.701,2.44
		c-0.939,0.439-2.24,0.26-3.36,0.319c-0.239-0.5-0.319-0.939-0.58-1.54c1.061,0.08,1.921,0.16,2.741,0.08
		c0.459-0.06,0.3-0.54,0.32-1.28h-6.122L615.51,460.364z M617.451,453.123l4.181-0.021l0.021-1.18l-4.201,0.02V453.123z
		 M628.014,457.804v-1.04l-4.822,0.021v1.04L628.014,457.804z M627.973,460.364l0.021-1.2l-4.802-0.02l0.041,1.22H627.973z
		 M627.373,453.163v-1.24h-4.121v1.22L627.373,453.163z"/>
	<path fill="#FFFFFF" d="M637.671,446.621h1.54v5.682c2.381-1.061,5.021-2.461,7.281-4.321l1.041,1.141
		c-2.501,1.98-5.321,3.521-8.322,4.641v0.32h11.143v1.46h-7.401c1.08,3.461,4.921,5.602,8.342,6.582l-1.021,1.34
		c-5.521-2.061-7.762-4.661-8.802-7.922h-2.261v6.542l3.701-1.641v1.5l-5.401,2.461l-0.9-1.34c0.521-0.221,1.081-0.601,1.081-1.101
		v-6.422h-4.342v-1.46h4.321V446.621z"/>
</g>
</svg>
