<?xml version="1.0" encoding="utf-8"?>
<!-- Generator: Adobe Illustrator 16.0.0, SVG Export Plug-In . SVG Version: 6.00 Build 0)  -->
<!DOCTYPE svg PUBLIC "-//W3C//DTD SVG 1.1//EN" "http://www.w3.org/Graphics/SVG/1.1/DTD/svg11.dtd">
<svg version="1.1" id="Layer_1" xmlns="http://www.w3.org/2000/svg" xmlns:xlink="http://www.w3.org/1999/xlink" x="0px" y="0px"
	 width="768px" height="1024px" viewBox="0 0 768 1024" enable-background="new 0 0 768 1024" xml:space="preserve">
<g>
	<g>
		<path fill="#FFFFFF" d="M96.805,597.673c-1.02,1.479-2.041,2.7-3.601,3.501l-0.74-0.961c1.66-0.76,2.701-2.24,3.521-3.36
			L96.805,597.673z M98.485,601.974c0,0.74-0.54,1.521-1.42,1.521h-1.541l-0.42-1.301c0.58,0.08,0.98,0.16,1.42,0.1
			c0.3-0.039,0.66-0.299,0.66-0.66v-5.761h-3.32v-1.2h3.32v-1.78h-4.041v-1.2h3.041c-0.24-0.76-1.26-2.041-1.86-2.561l1.14-0.52
			c0.88,0.92,1.48,2,1.94,3.08h1.04c0.72-0.92,1.201-1.98,1.581-3.041l1.12,0.541c-0.3,1-1.1,2.1-1.44,2.5h2.761v1.2h-3.981v1.78
			h3.281v1.2h-3.281V601.974z M97.145,587.211c-0.3-0.58-0.76-1.181-1.28-1.701l1.181-0.54c0.58,0.681,1.12,1.44,1.4,2.241h3.441
			v1.199h-8.222v-1.199H97.145z M99.525,596.772c1,0.601,2.1,1.521,2.8,2.46l-0.92,0.861c-0.58-0.921-1.94-2.041-2.601-2.48
			L99.525,596.772z M110.067,586.23c-1.7,0.98-3.561,1.5-5.521,1.82v3.261h5.921v1.2h-2.321v10.742h-1.26v-10.742h-2.34v2.82
			c0,2.721-0.9,5.502-2.38,7.802l-1.141-0.8c1.821-2.501,2.241-5.381,2.241-8.582v-6.662c2.161-0.239,4.161-0.879,6.001-1.88
			L110.067,586.23z"/>
		<path fill="#FFFFFF" d="M120.354,602.773c-0.08-0.58,0-1.16-0.02-1.68l-3.761,0.02l-0.02,1.66h-1.3V588.83h1.841
			c0.4-0.819,1-2.22,1.28-3.58l1.14,0.46c-0.3,1.24-0.62,2.221-1.18,3.12h3.28v13.924L120.354,602.773z M116.533,589.971v4.321
			l3.741,0.021v-4.342H116.533z M120.314,599.934l-0.02-4.461l-3.761-0.021v4.501L120.314,599.934z M125.115,589.631
			c-0.54,1.541-1.3,2.921-2.3,4.241c-0.38-0.2-0.76-0.48-1.161-0.7c0.04-0.12,0.22-0.24,0.26-0.36
			c1.68-2.32,2.581-4.961,3.081-7.741c0.38,0.14,0.86,0.24,1.22,0.38c-0.08,0.66-0.3,1.341-0.46,2.001
			c-0.08,0.359-0.18,0.68-0.28,1.039h5.562c-0.1,4.221,0.02,8.922-1.3,12.943c-0.22,0.68-0.7,1.48-1.46,1.62
			c-0.86,0.16-1.62-0.14-2.4-0.3c-0.38-0.08-0.76-0.24-1.14-0.34c-0.06-0.461-0.16-0.9-0.2-1.361c0.94,0.361,1.9,0.641,2.92,0.801
			c0.4,0.061,0.72-0.141,0.94-0.439c0.3-0.601,0.48-1.341,0.62-2.001c0.42-1.94,0.52-4.021,0.64-6.062
			c0.06-1.221,0.1-2.461,0.12-3.701L125.115,589.631z M125.395,592.932c1.22,1.44,2.16,2.98,2.78,4.682
			c-0.34,0.18-0.68,0.399-1.04,0.56l-0.12,0.04c-0.64-1.681-1.58-3.201-2.701-4.641l1-0.641H125.395z"/>
		<path fill="#FFFFFF" d="M143.143,597.553c0,1.74-0.44,3.121-1.8,3.98c-1.521,0.961-3.221,1.5-5.041,1.761l-1.021-1.22
			c1.801-0.061,3.361-0.561,4.881-1.32c1.1-0.561,1.7-1.521,1.7-3.201h-2.48v-5.201h9.782v5.201h-2.44v3.201
			c0,0.299,0.16,0.5,0.56,0.5h3.701c0.68,0,0.74-0.961,0.96-1.48c0.08-0.58,0.2-1.121,0.24-1.701l1.14,0.861
			c-0.2,1.24-0.34,2.06-0.8,2.76c-0.36,0.521-0.8,0.78-1.34,0.78h-4.261c-0.44,0-1.48-0.34-1.48-1.12v-3.801H143.143z
			 M150.845,593.451v-2.779l-13.143-0.021l0.02,2.7h-1.3v-3.881l4.481,0.02c-0.38-1.14-1.181-2.199-2.241-3l0.94-0.82
			c0.96,0.66,2.04,2,2.581,2.961l-1.021,0.801l2.44,0.039l0.02-4.281l1.32-0.02l-0.02,4.301h2.541l-1-0.66
			c1.08-0.779,1.84-1.9,2.32-3.08l1.141,0.66c-0.46,1.14-1.28,2.141-2.221,3.08l4.441,0.02v3.941L150.845,593.451z M147.884,596.353
			v-2.821h-7.222v2.842L147.884,596.353z"/>
		<path fill="#FFFFFF" d="M165.512,594.412c-0.3,0.32-0.86,0.939-1.16,1.28h9.382v1.2h-3.521c-0.66,1.1-1.6,2.18-2.701,2.98
			c2.061,0.66,4.141,1.301,6.102,2.261l-0.6,1.12c-2.121-1.12-4.341-1.98-6.682-2.561c-2.721,1.66-5.881,2.26-9.122,2.66l-0.5-1.26
			c2.641-0.16,5.701-0.721,7.942-1.82c-1.581-0.381-3.221-0.721-4.881-0.86c0.94-0.96,1.5-1.601,2.181-2.521h-4.581v-1.2h5.441
			c0.58-0.64,1.12-1.32,1.62-1.98L165.512,594.412z M174.354,593.912l-0.68,1.061c-2.761-0.641-5.401-1.98-7.422-4.401l-0.06,3.36
			h-1.28v-3.36c-1.66,2.341-5.241,3.86-7.481,4.44l-0.68-1.119c2.44-0.601,4.781-1.461,6.622-3.321h-6.021v-1.2h7.562v-1.701
			c-1.76,0.141-4.801,0.381-6.301,0.381l-0.6-1.221c6.162-0.02,9.482-0.46,14.123-1.74l0.78,1.061c-1.541,0.42-4.541,1.1-6.662,1.36
			v1.86h7.562v1.2h-6.081C169.813,592.512,171.813,593.371,174.354,593.912z M163.452,596.893c-0.48,0.54-0.98,1.16-1.46,1.7
			c1.42,0.261,2.741,0.54,4.081,0.841c1.02-0.601,2.02-1.541,2.64-2.541H163.452z"/>
		<path fill="#FFFFFF" d="M177.639,600.793c1.02-0.32,2.061-0.68,3.061-1.061l0.02-5.961l-2.081,0.021l0.02-1.2h2.061v-4.781h-2.821
			v-1.18l6.542-0.021v1.181l-2.48,0.02v4.801h1.88l0.02,1.16h-1.92l0.02,5.401l2.9-1.06v1.24l-6.461,2.48L177.639,600.793z
			 M188.241,585.29l0.02,9.642c0,2.861-0.9,5.481-3.101,7.441c-0.32,0.341-0.66,0.641-1,0.921l-0.94-0.94
			c1.66-1.18,3.101-3,3.521-4.98c0.18-0.82,0.26-1.66,0.26-2.48l-0.02-9.603H188.241z M183.62,595.352
			c0.92-1.58,1.24-3.54,1.181-5.521l1.12,0.2c0.08,1.98-0.12,3.94-1.021,5.602L183.62,595.352z M188.181,600.633l2.821,0.021
			l-0.02-6.181h-1.96v-1.181h1.98v-5.542h-2.121v-1.199h6.341v1.18h-2.98v5.562h2.2v1.16l-2.2,0.021v6.181l3.541-0.021v1.181h-7.602
			V600.633z"/>
		<path fill="#FFFFFF" d="M207.109,602.014c0.9-0.6,0.6-1.4,0.6-2.861l-0.02-4.461h-7.882v-1.22h7.882l0.02-2.14
			c1.601-1.001,3.281-2.502,4.441-3.881h-9.802v-1.221l11.563,0.02v0.961c-1.32,1.76-3.141,3.521-4.961,4.74v1.521h7.501v1.181
			l-7.481-0.021l-0.02,7.062c0,0.541-0.36,0.98-0.82,1.28c-0.68,0.261-1.16,0.181-1.64,0.181h-1.541l-0.92-1.141H207.109z"/>
		<path fill="#FFFFFF" d="M229.478,597.973c-0.6-1.32-1.5-2.701-2.76-3.561v9.002h-1.26l0.02-8.602
			c-0.9,1.84-2.381,3.641-4.041,5.08l-1.16-0.859c2.32-1.82,4.301-4.361,5.161-7.021h-4.001v-1.201l4.041,0.021v-2.94
			c-1.221,0.16-2.501,0.42-3.781,0.46l-0.5-1.12c2.801-0.221,5.542-0.58,7.922-1.82l0.78,0.96c-0.541,0.32-1.181,0.521-1.761,0.761
			l-1.42,0.439v3.261l3.5-0.021l-0.02,1.201l-3.48-0.02v1.939l0.72-0.5c0.76,0.5,1.4,1.121,1.96,1.86
			c0.48,0.601,0.8,1.261,1.121,1.921L229.478,597.973z M237.2,602.154l-1.28,0.02l0.02-2.041l-3.621,0.021v2.04h-1.24v-15.143h6.101
			L237.2,602.154z M232.319,598.934h3.621l-0.02-10.703h-3.601V598.934z"/>
		<path fill="#FFFFFF" d="M244.746,587.931c-0.54,0.74-1.28,1.521-2.061,2.081c-0.4-0.301-0.74-0.541-1.04-0.861
			c1.54-0.979,2.561-2.6,3.28-4.121c0.34,0.16,0.7,0.341,1.061,0.501c-0.18,0.399-0.38,0.84-0.58,1.22h5.441v1.16l-3.321,0.021
			c0.34,0.34,0.6,0.94,0.86,1.32l-1.12,0.601c-0.28-0.681-0.64-1.32-1.18-1.921H244.746z M242.505,590.352h7.662
			c-0.28-0.521-0.7-1.041-1.14-1.48l1.14-0.36c0.58,0.56,1.041,1.4,1.36,1.841h7.282v3.561l-1.24-0.02v-2.381h-13.823l-0.02,2.48
			h-1.22V590.352z M246.506,603.374h-1.32l0.02-10.503h10.782v3.901l-9.522,0.021v1.34h10.442v5.182h-1.28v-1.221h-9.142
			L246.506,603.374z M246.466,595.612h8.282l-0.02-1.581h-8.262V595.612z M246.486,599.313l0.02,1.681l9.142-0.02v-1.681
			L246.486,599.313z M255.888,587.83c0.4,0.4,0.84,0.861,1.101,1.341c-0.32,0.22-0.72,0.42-1.101,0.58
			c-0.34-0.681-0.76-1.341-1.36-1.921h-1.5c-0.32,0.541-0.7,1.16-1.16,1.541c-0.34-0.24-0.66-0.44-1-0.7
			c1.04-1.081,1.621-2.321,1.96-3.701l1.1,0.421c-0.1,0.439-0.22,0.859-0.36,1.279h5.701l-0.02,1.16H255.888z"/>
		<path fill="#FFFFFF" d="M269.075,586.891v1.16h-2.28v4.361h2v1.16h-2.04l0.02,4.541c0.78-0.301,1.68-0.721,2.48-1.021v1.28
			c-0.84,0.32-1.721,0.68-2.561,1.02l-3.081,1.24c-0.36-0.319-0.74-0.64-1.08-0.979c1-0.3,1.96-0.7,2.961-1.04v-5.041h-2.101v-1.16
			l2.081-0.021v-4.341h-2.481v-1.16H269.075z M279.577,586.33v8.682l-4.221-0.02v2.301h4.061v1.16h-4.101v2.68h5.501v1.16h-12.183
			v-1.16h5.401l0.02-2.68h-4.121v-1.16h4.101l-0.02-2.301h-4.221v-8.662H279.577z M274.036,590.012v-2.541l-2.98,0.02v2.521H274.036
			z M271.055,591.151v2.681h2.98v-2.66L271.055,591.151z M275.336,591.172v2.66h2.981l0.02-2.66H275.336z M275.376,590.031h2.96
			v-2.561l-2.98,0.02L275.376,590.031z"/>
		<path fill="#FFFFFF" d="M287.523,590.251c0,5.161,0.22,9.142-2.641,12.763c-0.34-0.26-0.66-0.561-0.96-0.859
			c1.26-1.581,2.4-4.041,2.4-8.002v-8.162h14.143v4.261H287.523z M287.523,587.17v1.921h11.763v-1.921H287.523z M293.304,595.713
			l0.78,0.539c-1.04,1.66-2.28,3.262-3.721,4.722c2.24-0.181,4.461-0.48,7.361-0.82c-0.58-0.681-1.14-1.28-1.84-1.841l0.98-0.6
			c1.42,1.301,2.82,3.101,3.821,4.66c-0.34,0.181-0.66,0.48-1.021,0.641c-0.32-0.58-0.68-1.221-1.12-1.801
			c-3.581,0.44-6.061,0.761-8.982,1.141l-0.78-1.301c1.601-1.72,3.081-3.641,4.241-5.34h-4.821v-1.121h13.683l0.02,1.121H293.304z
			 M289.583,592.611v-1.141h9.922v1.141H289.583z"/>
		<path fill="#FFFFFF" d="M308.912,593.813c-0.16,2.92-0.96,5.561-2.541,7.921c-0.4-0.18-0.78-0.36-1.16-0.601
			c0.8-0.979,1.26-2.061,1.68-3.16c0.58-1.54,0.8-3.041,0.92-4.681L308.912,593.813z M308.171,591.252
			c-0.46-1.721-1.54-3.281-2.86-4.521l0.92-0.7c0.78,0.64,1.38,1.44,1.96,2.261c0.48,0.66,0.82,1.42,1.061,2.2L308.171,591.252z
			 M313.252,597.793l-0.22,0.96c0.26,0.181,0.56,0.261,0.84,0.399c0.601,0.301,1.041,0.701,1.541,1.121l-0.76,1.02
			c-0.56-0.68-1.24-1.18-2.021-1.5c-0.8,1.461-2.06,2.621-3.48,3.461l-1.021-0.9c1.201-0.561,2.301-1.48,3.081-2.561
			c0.36-0.641,0.66-1.36,0.8-2.04h-2.84l-0.02-1.161h3.021c0.1-0.739,0.12-1.58,0.08-2.32h-1.06c-0.22,0.641-0.58,1.281-0.96,1.801
			c-0.38-0.2-0.78-0.34-1.16-0.54c1-1.08,1.36-2.54,1.44-4.062l1.02,0.281c0.02,0.459-0.04,0.92-0.08,1.38h3.901v1.14h-1.88
			c-0.02,0.721,0.04,1.541-0.04,2.301l2.4,0.02v1.181L313.252,597.793z M315.333,587.01v1.201l-4.321-0.021
			c0,0.44-0.2,1.4,0.44,1.761h4.281v1.18l-4.541,0.021c-0.64-0.14-1.161-0.64-1.3-1.28l-0.04-0.94l-0.02-3.761h1.2v1.86
			L315.333,587.01z M322.315,587.17c-0.641,1.16-1.421,2.301-2.44,3.221c0.3,0.301,0.6,0.58,0.899,0.941
			c-0.16,0.159-0.399,0.42-0.6,0.6l2.82-0.02c0.04,1.18-0.4,2.22-0.92,3.16l-1.061-0.36c0.32-0.5,0.5-1.101,0.66-1.64l-1.58-0.021
			v3.501h2.761v1.18h-2.781v3.501c1.181,0.42,2.621,0.42,3.941,0.3l-0.561,1.24c-1.24-0.02-2.54-0.02-3.641-0.359
			c-1.08-0.34-2.041-0.92-2.84-1.721c-0.24,0.62-0.48,1.24-0.86,1.78c-0.24,0.341-0.42,0.64-0.7,0.9l-1.06-0.74
			c1.42-1.22,1.72-3.12,1.86-4.901c0.06-0.939,0.06-1.92,0.06-2.9h1.18c0.04,1.541,0.02,3.141-0.22,4.661
			c0.44,0.479,0.96,0.899,1.56,1.2l0.04-0.08l0.021-7.541l-2.981-0.021l0.02-1.14h3.821c-0.82-0.9-1.941-1.682-3.101-2.121
			l0.76-0.84c0.54,0.22,1.04,0.48,1.561,0.76l0.12-0.061c0.68-0.68,1.4-1.539,1.88-2.359h-4.881v-1.181h6.241L322.315,587.17z"/>
		<path fill="#FFFFFF" d="M96.285,616.151c-0.48,2.501-1.561,4.701-2.861,6.842h-0.1l-1.08-0.601c1.26-2.1,2.4-4.261,2.881-6.721
			L96.285,616.151z M106.307,621.252c-0.34,1.32-0.6,2.621-1.16,3.861c-0.38,0.66-1.02,1.021-1.8,1.021l-3.281-0.021
			c-0.88,0-1.7-0.46-2.041-1.24c-0.2-0.439-0.2-1.02-0.2-1.48v-9.242l1.34,0.021v9.862c0.06,0.28,0.24,0.561,0.48,0.721l0.42,0.119
			h3.201c0.4-0.039,0.78-0.26,0.94-0.64c0.36-1.12,0.64-2.261,0.84-3.44L106.307,621.252z M103.886,614.651
			c-0.36,0.239-0.72,0.479-1.1,0.681c-1.141-1.781-2.881-3.662-4.701-4.742c0.4-0.24,0.7-0.56,1.1-0.779
			C101.025,611.051,102.746,612.811,103.886,614.651z M110.708,622.033c-0.4,0.22-0.78,0.459-1.22,0.64
			c-0.94-2.32-2.2-4.601-4.021-6.521c0.38-0.2,0.7-0.399,1.101-0.58C108.427,617.472,109.647,619.752,110.708,622.033z"/>
		<path fill="#FFFFFF" d="M123.88,622.833c-2.021,1.94-4.421,3.341-7.042,3.961l-0.66-1.141c2.661-0.521,4.921-1.82,7.021-3.741
			L123.88,622.833z M125.82,609.891v1.119h-0.92v4.262l1.38-0.381v1.081l-1.38,0.38v1.92h-1.2v-1.62
			c-1.84,0.421-4.181,0.96-6.622,1.501l-0.62-1.24c0.76-0.041,1.44-0.16,2.121-0.28v-5.622h-2v-1.119H125.82z M130.761,618.292
			c-0.94,0.44-1.96,0.74-3,0.979c0.3,0.721,0.7,1.381,1.06,1.881c0.72-0.439,2.161-1.439,2.96-2.301l0.82,0.9
			c-0.94,0.881-2.021,1.621-3.141,2.221c1.36,1.621,3.181,2.961,5.001,3.861l-0.96,0.939c-2.881-1.52-5.741-4.24-6.802-7.321
			c-0.18,0.04-0.4,0.08-0.6,0.101v7.641h-1.26v-7.461c-0.56,0.02-1.18,0.12-2,0.18l0.4,0.68c-1.761,1.541-4.201,2.661-5.981,3.161
			l-0.76-1.181c2.121-0.439,4.081-1.359,5.881-2.561c-1.04,0.021-2.4,0.101-3.801,0.061l-0.6-1.26
			c4.201,0.02,8.402-0.141,12.083-1.48L130.761,618.292z M119.779,611.851h3.921v-0.841h-3.921V611.851z M123.7,612.891h-3.921
			v0.961h3.921V612.891z M123.7,614.891h-3.921v1.501l3.921-0.841V614.891z M125.34,616.932c1.34-0.48,2.541-1.381,3.621-2.461
			c-0.94-0.619-1.92-1.14-2.921-1.6l0.76-0.801c1.021,0.42,2.021,0.881,2.94,1.5c0.621-0.64,1.121-1.38,1.561-2.14h-5.281v-1.081
			h6.702v0.98c-0.58,1.301-1.4,2.32-1.88,2.98c0.88,0.721,1.74,1.501,2.48,2.421l-0.88,0.94c-0.66-0.881-1.54-1.84-2.44-2.48
			c-1.08,1.16-2.34,2.18-3.721,2.78L125.34,616.932z"/>
		<path fill="#FFFFFF" d="M148.794,624.393c1.16,0.361,2.32,0.721,3.581,0.841c0.46-0.06,0.88-0.22,1.12-0.64
			c0.44-0.781,0.44-1.761,0.64-2.641c0.24-1.921,0.42-3.701,0.56-5.662l0.08-1.16h-5.421c-0.2,2.261-0.52,4.541-1.46,6.521
			c-1.26,2.661-4.141,4.401-6.741,5.441l-0.96-1.24c2.661-0.84,5.561-2.601,6.662-5.361c0.66-1.66,1-3.5,1.08-5.361l-5.081,0.021
			v-1.24h5.161l-0.02-4.601h1.3l-0.02,4.601h6.841v0.5l-0.14,3.321c-0.1,2.32-0.42,4.721-0.98,6.961c-0.2,0.84-0.98,1.48-1.82,1.721
			c-1.44,0.22-2.781-0.24-4.081-0.601L148.794,624.393z"/>
		<path fill="#FFFFFF" d="M173.328,620.912c-0.64-1.52-1.68-2.881-3.061-3.92l0.96-0.841c1.38,0.841,2.68,2.04,3.601,3.381
			L173.328,620.912z"/>
		<path fill="#FFFFFF" d="M187.041,625.773c1.14-0.7,2.22-1.62,3.281-2.541v-5.881h-2.661v-1.2h3.941v7.502
			c1.28,1.14,2.8,1.54,4.541,1.54l7.161,0.02c0.7,0,1.4-0.08,2.101-0.14l-0.5,1.341l-9.582-0.041c-2.4-0.26-3.501-0.979-4.601-1.88
			l-2.761,2.241L187.041,625.773z M189.801,609.67c1.06,0.86,1.9,1.94,2.5,3.081l-1.041,0.8c-0.44-1.24-1.4-2.301-2.46-3.16
			L189.801,609.67z M194.902,621.412l2.86-1.64v1.36c-0.4,0.22-2.801,1.58-3.621,2.04l-1.041-0.84c0.24-0.32,0.521-0.46,0.521-1.141
			v-9.842c1.46-0.36,2.84-1.001,3.98-2.001l0.98,0.74c-1.1,1-2.321,1.701-3.681,2.101V621.412z M198.603,610.971h5.221v9.382
			c0,0.761-0.58,1.58-1.5,1.58h-1.541l-0.44-1.3c0.66,0.06,1.22,0.18,1.84,0.039c0.22-0.06,0.36-0.199,0.36-0.479v-8.021h-2.661
			v12.302h-1.28V610.971z"/>
		<path fill="#FFFFFF" d="M210.854,625.474c1.74-1.721,2.96-3.761,3.781-5.901c-1-1.561-1.88-2.881-3.061-4.121l0.92-0.561
			c0.9,0.861,1.94,2.182,2.601,3.161c0.46-1.601,0.74-3.28,0.98-4.961l-4.701-0.021l-0.02-1.14h5.901
			c0.02,2.741-0.66,5.041-1.36,7.521c0.9,1.54,1.62,3.141,2.08,4.881l-1.12,0.66c-0.34-1.44-0.82-2.841-1.5-4.101
			c-0.74,1.82-1.701,3.721-3.181,5.081l-0.44,0.399L210.854,625.474z M228.858,625.613h-8.722v1.58h-1.18v-10.482
			c-0.34,0.66-0.86,1.341-1.28,1.921l-1.02-0.899c1.1-1.581,1.48-2.321,2.06-3.562c0.68-1.46,1.041-3.241,1.32-4.881l1.121,0.3
			c-0.2,1.061-0.42,2.101-0.7,3.121l8.102-0.02v1.16h-3.861v2.74h3.5v1.16h-3.5v2.74l3.541,0.02v1.141h-3.541v2.781h4.141
			L228.858,625.613z M223.457,613.871h-3.301v2.721h3.301V613.871z M223.457,617.732h-3.301v2.76h3.301V617.732z M223.457,621.633
			h-3.301v2.82h3.301V621.633z M224.277,612.171c-0.64-1.061-1.22-1.641-1.98-2.241l0.72-0.58c0.8,0.561,1.5,1.261,2.14,2.161
			L224.277,612.171z"/>
		<path fill="#FFFFFF" d="M240.81,625.414v-9.203l-2.981,0.021v11.143h-1.32v-12.362l5.461-0.021c0.58-1,0.88-2.12,1-3.321h-7.861
			v-1.22h16.863v1.22l-7.702,0.021c-0.14,1.181-0.32,2.28-0.84,3.301l7.201,0.021l-0.02,10.482c-0.06,0.6-0.48,1.18-1.08,1.359
			c-0.66,0.12-1.44,0.1-2.141,0.08l-0.42-1.221c0.62-0.02,1.28,0.08,1.9-0.02c0.18-0.061,0.36-0.3,0.44-0.5v-8.962h-3.041v9.122
			h-1.28l-0.02-9.122h-2.84v9.183H240.81z"/>
		<path fill="#FFFFFF" d="M265.564,624.573V609.53l1.26-0.021l0.02,5.981l7.062,0.021v1.18h-7.062l-0.02,7.882l8.902,0.021v1.199
			l-16.923-0.02l0.02-1.2H265.564z"/>
		<path fill="#FFFFFF" d="M289.898,616.691h2v2c0,0.681,0,2.121-1.641,2.821l-0.48-0.74c0.94-0.42,1.08-1.24,1.1-2.081h-0.98
			V616.691z"/>
		<path fill="#FFFFFF" d="M307.131,622.572c0.6-0.279,1.04-1.06,1.04-1.74V610.45h1.36v10.982c1.661-0.88,3.301-1.9,4.961-2.841
			v1.44c-1.66,0.96-3.32,1.921-4.941,2.901c-0.68,0.399-0.7,0.5-1.38,0.899L307.131,622.572z M320.134,611.971
			c-0.08,2.881-0.28,6.021-1.62,8.541c1.88,1.32,3.62,3.041,4.82,5.021l-1.06,0.94h-0.08c-0.4-0.74-0.881-1.4-1.421-2.081
			c-0.82-1.039-1.88-1.979-2.96-2.76c-1.56,2.26-3.741,3.961-6.001,5.361c-0.3-0.44-0.62-0.82-0.88-1.201
			c2.48-1.24,4.921-3.26,6.241-5.74c0.86-1.621,1.301-3.401,1.461-5.302c0.14-1.681,0.22-3.221,0.199-4.94h1.36L320.134,611.971z
			 M315.193,616.111c-1.08-1.4-2.561-2.381-4.081-3.061l0.86-0.9c0.78,0.26,1.5,0.74,2.161,1.16s1.42,1.201,1.94,1.701
			L315.193,616.111z"/>
		<path fill="#FFFFFF" d="M106.247,637.932h-1.88v-1.602c0-0.979,0-2.359,1.601-3.08l0.44,0.68c-1.02,0.42-1.06,1.4-1.08,1.961h0.92
			V637.932z M109.288,637.932h-1.881v-1.602c0-0.979,0-2.359,1.601-3.08l0.44,0.68c-1.02,0.42-1.06,1.4-1.08,1.961h0.92V637.932z"/>
		<path fill="#FFFFFF" d="M121.994,642.752h1.2v2.181h6.121v1.101h-6.121v3.2h8.102v1.101h-17.244v-1.101h7.942v-3.2h-5.981v-1.101
			h5.981V642.752z M115.513,643.092v-9.102h1.2v9.102H115.513z M130.056,635.211c-0.68,1.34-2.041,3.521-3.121,4.561
			c1.42,1.1,3.081,1.6,4.801,2l-0.88,1.021c-1.7-0.46-3.341-1.14-4.741-2.24c-1.46,1.12-3.101,1.761-4.921,2.2l-0.64-0.88
			l-0.02,2.261h-1.2V633.13l1.18,0.021l0.02,8.521c1.681-0.34,3.341-0.84,4.741-1.94c-1.2-1.3-2.021-2.881-2.701-4.401h-1.5v-1.08
			h8.982V635.211z M123.794,635.33c0.36,0.92,0.8,1.801,1.42,2.621c0.3,0.4,0.6,0.78,0.9,1.02c1.061-1.1,1.881-2.32,2.481-3.641
			H123.794z"/>
		<path fill="#FFFFFF" d="M135.582,650.094c0.72,0.02,1.32,0.061,1.8,0.08c0.4,0,0.68-0.4,0.68-0.74v-5.201l-2.4,0.881l-0.84-1.041
			c1.06-0.34,2.201-0.66,3.241-1.061v-4.58h-2.821v-1.201h2.821v-4.121h1.26v4.121h2.48v1.201h-2.48v4.16l2.38-0.96v1.28l-2.38,0.92
			v5.922c0,0.8-0.56,1.561-1.541,1.561h-1.8L135.582,650.094z M146.544,651.294l-0.48-1.261c0.68,0.101,1.42,0.101,2.12,0.101
			c0.36,0,0.56-0.32,0.56-0.66v-4.661h-7.221v-1.2h7.221v-1.601h1.26v1.601h3.061v1.2h-3.061v5.041c0,0.86-0.64,1.44-1.64,1.44
			H146.544z M147.924,635.971h3.881v1.2h-3.881v2.841h5.001v1.2h-11.022v-1.2h4.761v-2.841h-4.021v-1.2h4.021v-2.881h1.26V635.971z
			 M145.764,648.934c-1.04-0.94-2.22-1.841-3.461-2.361l0.82-0.879c1.26,0.52,2.4,1.34,3.461,2.3L145.764,648.934z"/>
		<path fill="#FFFFFF" d="M156.71,635.871h8.302c-0.44-0.66-1.5-1.621-2.2-1.98l0.9-0.841c1.021,0.48,1.8,1.4,2.46,2.341l-0.5,0.48
			h8.342v1.16H156.71V635.871z M165.952,641.531v9.843h-1.24v-9.843h-4.421v7.723h-1.22v-8.862h5.641v-2.36h1.26v2.36h5.741v7.001
			c0,0.861-0.4,1.541-1.44,1.541h-1.78l-0.42-1.26c0.82,0.059,1.28,0.079,1.661,0.079c0.48,0.021,0.76-0.18,0.76-0.56v-5.662
			H165.952z"/>
		<path fill="#FFFFFF" d="M184.3,645.332c-2.04,0.801-3.561,1.341-6.061,2.201l-0.8-1.101c1.36-0.28,2.32-0.66,3.061-0.899v-5.722
			h-2.5v-1.14h2.48v-5.082h1.22v5.062h2.581v1.181h-2.601v5.24c0.68-0.18,1.38-0.52,2.621-0.9V645.332z M189.001,641.371
			c-0.82,3.161-3.441,6.021-5.541,7.143l-0.82-0.92c2-1.102,4.261-3.342,5.141-6.202h-2.32v-1.181c1.78-1.18,4.261-3.16,6.041-4.7
			h-7.062v-1.12l8.962,0.02v1c-1.9,1.641-4.061,3.441-6.041,4.842l7.642,0.039c-0.18,3.081-0.8,7.702-1.34,9.843
			c-0.36,0.74-1.18,1.06-1.94,0.979l-1.581-0.479c-0.08-0.46-0.22-0.86-0.34-1.32c0.74,0.22,1.44,0.54,2.26,0.601
			c0.2-0.021,0.38-0.201,0.48-0.381c0.48-0.96,1.081-5.82,1.221-8.162h-1.601c-0.92,4.342-3.641,7.803-6.461,9.803l-0.88-0.9
			c2.62-1.94,5.401-5.4,6.161-8.902H189.001z"/>
		<path fill="#FFFFFF" d="M216.651,648.894v1.22h-17.204v-1.22l7.902-0.021l0.02-4.861h-5.981v-1.22l5.981-0.021l-0.02-4.12
			l-7.342,0.021v-1.221h16.003v1.221h-7.321l0.02,4.1h6.001v1.221h-5.981v4.881L216.651,648.894z M208.229,636.891
			c-0.36-0.72-0.96-1.42-1.6-1.9c-0.32-0.4-0.84-0.62-1.24-0.96l-0.54-0.3c0.36-0.24,0.72-0.461,1.08-0.681h0.08
			c1.4,0.7,2.621,1.86,3.4,3.2L208.229,636.891z"/>
		<path fill="#FFFFFF" d="M233.439,643.352h4.541v1.121h-4.541v5.341c-0.06,0.54-0.34,0.94-0.82,1.16c-0.64,0.3-1.62,0.16-2.42,0.16
			c-0.1-0.38-0.28-0.8-0.42-1.181c0.74,0.101,1.46,0.121,2.22,0.101l0.24-0.181v-5.4h-11.803v-1.121h11.783
			c0.04-0.399,0-0.799,0-1.199h1.22V643.352z M225.157,641.732c-1.6,0-1.64-1.16-1.64-1.861v-5.841h10.542v4.621h-9.322v1.601
			c0.1,0.42,0.44,0.399,0.8,0.359h9.262c0.52-0.14,0.48-0.72,0.6-1.12c0.14-0.44,0.1-0.84,0.22-1.3l1.04,0.439
			c-0.24,1.021-0.18,2.361-1.26,2.921c-0.34,0.181-0.76,0.181-1.18,0.181H225.157z M228.218,648.974
			c-1.16-1.221-2.561-2.001-3.981-2.661l0.7-0.84c1.26,0.52,3.001,1.641,4.121,2.58L228.218,648.974z M232.819,635.17h-8.102v2.341
			h8.102V635.17z"/>
		<path fill="#FFFFFF" d="M251.387,644.912c-0.64-1.52-1.68-2.881-3.061-3.92l0.96-0.841c1.38,0.841,2.68,2.04,3.601,3.381
			L251.387,644.912z"/>
		<path fill="#FFFFFF" d="M271.015,642.752h1.2v2.181h6.121v1.101h-6.121v3.2h8.102v1.101h-17.244v-1.101h7.942v-3.2h-5.981v-1.101
			h5.981V642.752z M264.534,643.092v-9.102h1.2v9.102H264.534z M279.077,635.211c-0.68,1.34-2.04,3.521-3.121,4.561
			c1.42,1.1,3.081,1.6,4.801,2l-0.88,1.021c-1.7-0.46-3.341-1.14-4.741-2.24c-1.46,1.12-3.101,1.761-4.921,2.2l-0.64-0.88
			l-0.02,2.261h-1.2V633.13l1.18,0.021l0.02,8.521c1.681-0.34,3.341-0.84,4.741-1.94c-1.2-1.3-2.021-2.881-2.701-4.401h-1.5v-1.08
			h8.982V635.211z M272.815,635.33c0.36,0.92,0.8,1.801,1.42,2.621c0.3,0.4,0.6,0.78,0.9,1.02c1.061-1.1,1.881-2.32,2.481-3.641
			H272.815z"/>
		<path fill="#FFFFFF" d="M284.603,650.094c0.72,0.02,1.32,0.061,1.8,0.08c0.4,0,0.68-0.4,0.68-0.74v-5.201l-2.4,0.881l-0.84-1.041
			c1.06-0.34,2.201-0.66,3.241-1.061v-4.58h-2.821v-1.201h2.821v-4.121h1.26v4.121h2.48v1.201h-2.48v4.16l2.38-0.96v1.28l-2.38,0.92
			v5.922c0,0.8-0.56,1.561-1.54,1.561h-1.801L284.603,650.094z M295.565,651.294l-0.48-1.261c0.68,0.101,1.42,0.101,2.12,0.101
			c0.36,0,0.56-0.32,0.56-0.66v-4.661h-7.221v-1.2h7.221v-1.601h1.26v1.601h3.061v1.2h-3.061v5.041c0,0.86-0.64,1.44-1.64,1.44
			H295.565z M296.945,635.971h3.881v1.2h-3.881v2.841h5.001v1.2h-11.022v-1.2h4.761v-2.841h-4.021v-1.2h4.021v-2.881h1.26V635.971z
			 M294.785,648.934c-1.04-0.94-2.221-1.841-3.461-2.361l0.82-0.879c1.26,0.52,2.4,1.34,3.461,2.3L294.785,648.934z"/>
		<path fill="#FFFFFF" d="M305.031,645.593c1.581-1.82,2.541-3.921,3.041-6.182h-2.221v-1.2h2.46v-2.461
			c-0.8,0.101-1.64,0.24-2.5,0.24l-0.7-1.26c2.281,0.1,4.281-0.461,6.261-1.08c0.18,0.32,0.34,0.68,0.58,0.939
			c-0.78,0.36-1.56,0.621-2.38,0.861v2.76h2.38v1.2h-2.36v1.521l0.74-0.48c0.94,0.92,1.68,1.9,2.101,3.121
			c-0.34,0.24-0.7,0.46-1.081,0.66c-0.34-1.08-0.94-2.061-1.76-2.94v9.901h-1.28v-8.901c-0.54,1.501-1.2,2.921-2.34,4.161
			L305.031,645.593z M310.932,650.033c-0.32-0.24-0.68-0.6-1-0.88c1.24-0.86,1.96-2.061,2.5-3.36c0.34,0.199,0.64,0.46,1,0.62
			C312.893,647.732,312.132,649.073,310.932,650.033z M312.853,640.492h8.202v-1.48h-7.401v-0.861l-0.1,0.021
			c-0.26,0.12-0.48,0.32-0.78,0.36l-0.72-1.061c1.82-0.74,3.121-2.541,3.481-4.4c0.4,0.08,0.72,0.34,1.14,0.42
			c-0.12,0.42-0.24,0.859-0.42,1.26l4.461,0.021v1.06c-0.3,0.721-0.58,1.32-1,2.001h2.561v6.622h-9.022v-1.182h7.802v-1.6h-8.202
			V640.492z M315.673,635.951c-0.48,0.72-1,1.32-1.641,1.88h4.261c0.4-0.479,0.9-1.38,1.12-1.88H315.673z M315.293,650.414
			c-0.84-0.28-1.16-0.86-1.24-1.521v-4.021h1.22v3.86c0.04,0.181,0.18,0.479,0.4,0.479h3.341c0.22,0.021,0.359-0.119,0.46-0.199
			c0.14-0.301,0.26-0.98,0.34-1.66l1.141,0.64c-0.261,0.841-0.36,1.96-1.36,2.341l-0.58,0.08H315.293z M318.713,647.193
			c-0.34,0.199-0.68,0.46-1.04,0.6c-0.32-0.96-0.88-1.801-1.521-2.621c0.32-0.159,0.6-0.379,0.94-0.52
			C317.753,645.453,318.414,646.232,318.713,647.193z M323.675,648.854c-0.261,0.34-0.601,0.641-0.881,0.96
			c-0.62-1.261-1.72-2.521-2.92-3.321l0.779-0.84c0.86,0.561,1.641,1.361,2.321,2.16L323.675,648.854z"/>
		<path fill="#FFFFFF" d="M94.784,664.412c-0.4,0.619-1.02,1.439-1.56,2.02l-0.94-0.84c2.201-2.48,3.341-5.381,4.241-8.441
			l1.101,0.4c-0.42,1.56-0.96,3.02-1.601,4.48v13.383h-1.26L94.784,664.412z M96.544,674.414c0.82-0.881,1.601-1.861,2.101-2.9
			c-0.84-1.221-1.22-2.641-1.6-4.062l1.12-0.34c0.28,0.979,0.58,2.021,1,2.921c0.46-1.221,0.68-2.541,0.78-3.881h-2.84v-1.121
			c0.92-1.119,1.8-2.221,2.4-3.48l0.42-0.88h-2.541v-1.181h3.841v1.181c-0.6,1.521-1.541,3.001-2.601,4.321h2.601
			c-0.12,2.22-0.42,4.4-1.22,6.4c0.9,1.281,2.38,1.921,3.961,1.9l4.741-0.039l2.181-0.101l-0.4,1.32h-6.401
			c-1.761,0-3.381-0.479-4.581-1.82l-0.08,0.021c-0.58,0.979-1.28,1.859-2.041,2.76L96.544,674.414z M104.586,672.793l0.02-2.16
			l-3.281-0.02v-1.121l3.261,0.021l0.02-1.62l-2.561,0.02v-1.141h2.541v-1.479h-2.321l-0.02-1.141h2.341l0.02-1.601h-3.301v-1.1
			h3.281l0.02-1.621h-2.361v-1.119l2.361-0.021l-0.02-1.521h1.26l-0.02,1.541h3.281v2.721h1.22v1.14h-1.22v2.721h-3.281l0.02,1.479
			h3.621l-0.02,1.121h-3.621v1.62l4.461-0.021v1.121l-4.441,0.02v2.181L104.586,672.793z M105.847,659.83v1.602h2.021v-1.602
			H105.847z M107.867,664.151v-1.58l-2.021-0.021v1.601H107.867z"/>
		<path fill="#FFFFFF" d="M115.753,668.512l0.04,0.041c1.42-0.28,3.161-0.641,4.661-0.9v1.061c-2.08,0.479-4.181,1.04-5.961,1.34
			l-0.62-1.16c1.1-1,2.46-2.601,3.861-4.141c-1.061,0.119-2.101,0.34-3.261,0.58l-0.6-1.181c1.16-1.62,3-4.821,4.161-7.081
			l1.02,0.72c-1.38,2.561-2.8,4.841-3.721,6.182c0.8-0.06,2.041-0.341,3.321-0.44c0.6-0.82,1.14-1.641,1.7-2.461l1.041,0.74
			C119.394,664.412,117.653,666.532,115.753,668.512z M114.652,673.934c-0.22-0.46-0.48-0.92-0.74-1.34
			c2.68-0.801,4.821-1.541,7.321-2.4v1.24C118.493,672.493,116.693,673.133,114.652,673.934z M119.654,674.254v-1.08h5.241v-4.602
			h-3.701v-1.12h8.622v1.14h-3.701v4.582h5.542v1.08H119.654z M130.776,667.112c-1.6-1.341-3.961-2.641-5.221-3.12
			c-1.8,1.699-3.261,2.699-5.061,3.439c-0.28-0.319-0.54-0.68-0.78-1.039c3.341-1.141,6.342-4.242,8.082-7.303l-7.042-0.02v-1.1
			h8.622v1.119c-0.84,1.561-2.16,3.081-2.98,4.002c1.8,0.88,4.241,2.18,5.301,3.24L130.776,667.112z"/>
		<path fill="#FFFFFF" d="M146.524,661.751v-1.7h-4.601v1.66h-1.24v-1.66h-5.061v-1.18h5.121v-1.541h1.18v1.521h4.601v-1.501h1.24
			v1.501h5.061v1.181h-5.081v1.72H146.524z M137.202,665.031h-1.2v-2.92h16.424l-0.02,2.98h-1.2v-1.801h-14.003V665.031z
			 M149.185,675.414v-1.221h-10.042v1.201h-1.26l0.02-5.902h12.523v5.922H149.185z M149.185,670.693h-10.042v2.3h10.042V670.693z
			 M148.884,664.252v4.041h-9.382v-4.041H148.884z M140.763,665.451v1.641h6.861v-1.641H140.763z"/>
		<path fill="#FFFFFF" d="M166.232,668.912c-0.64-1.52-1.68-2.881-3.061-3.92l0.96-0.841c1.38,0.841,2.68,2.04,3.601,3.381
			L166.232,668.912z"/>
		<path fill="#FFFFFF" d="M185.86,666.752h1.2v2.181h6.121v1.101h-6.121v3.2h8.102v1.101h-17.244v-1.101h7.942v-3.2h-5.981v-1.101
			h5.981V666.752z M179.379,667.092v-9.102h1.2v9.102H179.379z M193.922,659.211c-0.68,1.34-2.041,3.521-3.121,4.561
			c1.42,1.1,3.081,1.6,4.801,2l-0.88,1.021c-1.7-0.46-3.341-1.14-4.741-2.24c-1.46,1.12-3.101,1.761-4.921,2.2l-0.64-0.88
			l-0.02,2.261h-1.2V657.13l1.18,0.021l0.02,8.521c1.681-0.34,3.341-0.84,4.741-1.94c-1.2-1.3-2.021-2.881-2.701-4.401h-1.5v-1.08
			h8.982V659.211z M187.661,659.33c0.36,0.92,0.8,1.801,1.42,2.621c0.3,0.4,0.6,0.78,0.9,1.02c1.061-1.1,1.881-2.32,2.481-3.641
			H187.661z"/>
		<path fill="#FFFFFF" d="M199.448,674.094c0.72,0.02,1.32,0.061,1.8,0.08c0.4,0,0.68-0.4,0.68-0.74v-5.201l-2.4,0.881l-0.84-1.041
			c1.06-0.34,2.201-0.66,3.241-1.061v-4.58h-2.821v-1.201h2.821v-4.121h1.26v4.121h2.48v1.201h-2.48v4.16l2.38-0.96v1.28l-2.38,0.92
			v5.922c0,0.8-0.56,1.561-1.541,1.561h-1.8L199.448,674.094z M210.41,675.294l-0.48-1.261c0.68,0.101,1.42,0.101,2.12,0.101
			c0.36,0,0.56-0.32,0.56-0.66v-4.661h-7.221v-1.2h7.221v-1.601h1.26v1.601h3.061v1.2h-3.061v5.041c0,0.86-0.64,1.44-1.64,1.44
			H210.41z M211.791,659.971h3.881v1.2h-3.881v2.841h5.001v1.2h-11.022v-1.2h4.761v-2.841h-4.021v-1.2h4.021v-2.881h1.26V659.971z
			 M209.63,672.934c-1.04-0.94-2.22-1.841-3.461-2.361l0.82-0.879c1.26,0.52,2.4,1.34,3.461,2.3L209.63,672.934z"/>
		<path fill="#FFFFFF" d="M228.038,673.394c-0.541-1.501-1.141-3.161-2.041-4.601c-1.121,2.68-3.021,4.381-5.141,6.16l-0.88-0.799
			c1.94-1.602,4.181-3.682,5.301-6.482c-0.88-1.3-2.621-3.08-3.721-4.061c0.34-0.2,0.7-0.439,1.08-0.58
			c1.3,1.141,2.44,2.301,3.141,3.381c0.66-1.84,1.2-3.74,1.3-5.741h-6.501v-1.101h7.762c-0.06,2.841-0.76,5.502-1.76,8.002
			c1.08,1.6,1.92,3.541,2.541,5.301L228.038,673.394z M228.778,662.251v-1.14h6.001v-3.961H236v3.961h1.96v1.119h-1.98v11.723
			c-0.08,0.461-0.4,0.861-0.82,1.061l-0.44,0.16c-0.7,0.04-1.42,0.02-2.121,0l-0.42-1.2c0.68,0.021,1.42,0.12,2.161,0.08
			c0.2-0.021,0.34-0.181,0.44-0.36l0.02-11.442H228.778z M232.359,669.873c-0.54-1.66-1.661-3.121-2.961-4.481
			c0.32-0.159,0.64-0.38,0.98-0.5c0.92,0.98,2.38,2.561,3,4.44L232.359,669.873z"/>
		<path fill="#FFFFFF" d="M244.585,675.074v-8.822c-0.68,1.78-1.4,2.92-2.44,4.041l-0.82-0.86c1.94-2.161,2.561-4.661,3.201-7.302
			h-2.621v-1.141h2.681v-3.92h1.24v3.92h2.36v1.141h-2.36v2.24l0.76-0.34c0.78,0.82,1.5,1.961,2.041,3.081l-0.98,0.54
			c-0.52-1.18-1.1-2.08-1.78-2.961l-0.04,10.383H244.585z M251.607,666.712c-1,2.46-2.92,4.601-3.941,5.661l-1-0.8
			c1.28-1.12,2.9-2.881,3.921-5.421L251.607,666.712z M253.167,664.492h-4.761v-1.102h10.862v1.102h-4.861v8.241
			c0,0.74,0.12,1.56-0.541,2.04c-0.58,0.541-1.48,0.301-2.26,0.36l-0.46-1.24l1.58,0.08c0.14-0.021,0.42-0.16,0.42-0.74
			L253.167,664.492z M249.307,659.811v-1.12h9.021v1.12H249.307z M256.328,666.111c1.1,1.441,2.48,3.321,3.32,5.521l-1.12,0.681
			c-0.66-2.04-1.74-3.901-3.161-5.622L256.328,666.111z"/>
		<path fill="#FFFFFF" d="M271.675,657.029h1.24v3.521h5.361v1.141h-5.361v3.44h6.961v1.16h-5.381v6.462
			c0,0.399,0.34,0.56,0.72,0.56h2.961c0.54,0,0.74-0.36,0.9-0.82c0.2-0.58,0.36-1.28,0.46-2.04l1.24,0.46
			c-0.16,0.761-0.38,1.72-0.74,2.521c-0.4,0.88-1.041,1.02-1.681,1.02h-3.641c-0.84,0-1.46-0.6-1.46-1.24v-6.921h-2.4
			c-0.14,1.761-0.22,3.261-0.96,4.541c-1.2,2.081-3.401,3.581-5.521,4.481l-0.78-1.061c2.641-0.94,5.421-2.98,5.881-6.142
			c0.1-0.38,0.16-1.38,0.16-1.82h-5.281v-1.16h7.322v-3.44h-4.081c-0.56,0.98-1.22,1.96-2.021,2.78l-1.04-0.681
			c1.4-1.4,2.5-3.36,2.841-5.681l1.2,0.34c-0.1,0.66-0.34,1.46-0.52,2.101h3.621V657.029z"/>
		<path fill="#FFFFFF" d="M288.604,671.093c0.66,0.74,2.641,1.94,4.521,2.12c2.32,0.201,5.941-0.02,9.042-0.14
			c-0.18,0.421-0.38,0.841-0.521,1.28l-8.282-0.02c-2.18,0-4.041-0.84-5.481-2.48c-0.76,1.04-2.081,2.12-3.161,2.78
			c-0.24-0.28-0.6-0.54-0.86-0.841c1.02-0.6,2.921-2.04,3.561-3.04v-5.781h-3.081v-1.14h4.261V671.093z M288.103,661.511
			c-0.66-1.28-1.86-2.36-3.061-3.181l0.86-0.74c0.94,0.68,2.24,1.58,3.261,3.182L288.103,661.511z M293.424,666.512
			c-0.16,2.74-1.06,4.161-2.96,5.762l-1-0.881c1.28-1.02,2.721-2.26,2.801-4.86h-3.261v-1.161h3.281v-3.5h-2.5l0.02-1.141h2.44
			c-0.02-0.68,0-1.859,0.02-3.32h1.18c-0.02,1.2,0.06,2.521,0.06,3.341h3.301l0.02-3.36h1.2v3.36l2.701-0.021v1.16h-2.701v3.48
			h3.521v1.182h-3.541v6.041l-1.18-0.021v-6.062H293.424z M296.825,661.891h-3.321c0,1.121,0.02,2.261,0.02,3.48h3.301V661.891z"/>
		<path fill="#FFFFFF" d="M315.253,668.912c-0.64-1.52-1.68-2.881-3.061-3.92l0.96-0.841c1.38,0.841,2.68,2.04,3.601,3.381
			L315.253,668.912z"/>
		<path fill="#FFFFFF" d="M100.706,690.752h1.2v2.181h6.121v1.101h-6.121v3.2h8.102v1.101H92.764v-1.101h7.942v-3.2h-5.981v-1.101
			h5.981V690.752z M94.224,691.092v-9.102h1.2v9.102H94.224z M108.767,683.211c-0.68,1.34-2.04,3.521-3.121,4.561
			c1.42,1.1,3.081,1.6,4.801,2l-0.88,1.021c-1.7-0.46-3.341-1.14-4.741-2.24c-1.46,1.12-3.101,1.761-4.921,2.2l-0.64-0.88
			l-0.02,2.261h-1.2V681.13l1.18,0.021l0.02,8.521c1.681-0.34,3.341-0.84,4.741-1.94c-1.2-1.3-2.021-2.881-2.701-4.401h-1.5v-1.08
			h8.982V683.211z M102.506,683.33c0.36,0.92,0.8,1.801,1.42,2.621c0.3,0.4,0.6,0.78,0.9,1.02c1.061-1.1,1.881-2.32,2.481-3.641
			H102.506z"/>
		<path fill="#FFFFFF" d="M114.292,698.094c0.72,0.02,1.32,0.061,1.8,0.08c0.4,0,0.68-0.4,0.68-0.74v-5.201l-2.4,0.881l-0.84-1.041
			c1.06-0.34,2.201-0.66,3.241-1.061v-4.58h-2.821v-1.201h2.821v-4.121h1.26v4.121h2.48v1.201h-2.48v4.16l2.38-0.96v1.28l-2.38,0.92
			v5.922c0,0.8-0.56,1.561-1.541,1.561h-1.8L114.292,698.094z M125.255,699.294l-0.48-1.261c0.68,0.101,1.42,0.101,2.12,0.101
			c0.36,0,0.56-0.32,0.56-0.66v-4.661h-7.221v-1.2h7.221v-1.601h1.26v1.601h3.061v1.2h-3.061v5.041c0,0.86-0.64,1.44-1.64,1.44
			H125.255z M126.635,683.971h3.881v1.2h-3.881v2.841h5.001v1.2h-11.022v-1.2h4.761v-2.841h-4.021v-1.2h4.021v-2.881h1.26V683.971z
			 M124.475,696.934c-1.04-0.94-2.22-1.841-3.461-2.361l0.82-0.879c1.26,0.52,2.4,1.34,3.461,2.3L124.475,696.934z"/>
		<path fill="#FFFFFF" d="M139.902,692.053v4.82c0.92-0.439,1.82-0.9,2.741-1.34v1.24l-3.561,2l-0.72-1.16
			c0.12-0.18,0.26-0.52,0.26-0.68v-4.881h-2.92v-1.141h2.92v-2.601h-1.18c-0.5,0.7-0.94,1.36-1.62,1.94l-0.98-0.96
			c1.92-1.641,3.181-4.642,3.381-7.922l1.26,0.26c0,1.001-0.18,2.061-0.34,2.461h3.421v1.16h-3.721c-0.16,0.64-0.46,1.28-0.76,1.88
			l4.261,0.021v1.16h-2.44v2.581h2.801v1.16H139.902z M152.565,699.054c-1.14-0.399-2.08-1-2.96-1.74
			c-1.74-1.761-2.601-3.961-2.781-6.401h-2.04v6.721l3.121-1.26v1.221c-1.161,0.5-2.741,1.24-4.101,1.801l-0.56-1.16
			c0.12-0.121,0.26-0.361,0.26-0.641V682.19h7.401v8.722h-2.92c0.08,1.12,0.38,2.301,0.84,3.201c1.021-0.541,1.86-1.32,2.541-2.421
			l0.96,0.761c-0.8,1.16-1.86,1.939-3.021,2.6c0.84,1.42,2.521,2.48,4.141,2.9L152.565,699.054z M149.645,683.351h-4.861v2.561
			h4.861V683.351z M149.645,687.051h-4.861v2.701h4.861V687.051z"/>
		<path fill="#FFFFFF" d="M159.13,699.475v-10.703c-0.14-0.061-0.12,0.141-0.2,0.221c-0.7,0.76-1.22,1.561-2,2.3l-0.94-0.88
			c1.5-1.461,2.781-3.361,3.521-5.281c0.5-1.26,0.82-2.58,1.1-3.921l1.12,0.521c-0.24,1.54-0.72,3.16-1.34,4.601v13.144H159.13z
			 M166.912,699.414l0.02-7.582c-0.9,2.4-2.78,4.821-5.141,6.102l-1.04-0.94c1.66-0.86,3.121-2.22,4.121-3.88
			c0.34-0.561,0.62-1.021,0.82-1.501h-4.281v-1.181l5.541,0.021v-2.001l-4.101,0.021v-6.321h9.202l-0.02,6.321h-3.861v1.96h5.401
			v1.181h-4.001c0.12,0.38,0.32,0.74,0.5,1.12c0.92,1.9,2.741,3.301,4.601,4.261l-0.96,0.921c-0.26-0.08-0.5-0.24-0.72-0.381
			c-1.541-0.88-2.921-2.28-3.781-3.82c-0.36-0.641-0.74-1.34-1-2.021l-0.04,7.722H166.912z M170.793,683.33h-6.701l0.02,3.961h6.681
			V683.33z"/>
		<path fill="#FFFFFF" d="M178.099,696.934h11.143c0.22-1.26,0.48-2.501,0.68-3.741h-8.782l0.78-3.641l1.3-6.081h-4.281v-1.181
			l15.663,0.021v1.18h-9.942l-0.72,3.301h8.542l-1.48,8.122c-0.12,0.62-0.22,1.38-0.36,2.021h4.721v1.18l-17.264-0.02V696.934z
			 M183.66,687.972c-0.28,1.46-0.56,2.7-0.84,4.021h7.261l0.78-4.021H183.66z"/>
		<path fill="#FFFFFF" d="M207.469,695.753c-0.12-0.36-0.46-1.021-0.66-1.32c-1.84,0.521-4.381,1.241-6.341,1.94
			c-0.38-0.48-0.64-0.98-1-1.46c1.5-2.101,2.821-4.222,3.561-6.361h-3.761v-1.141h8.662v1.12h-4.441c0.18,0.16,0.48,0.26,0.72,0.4
			c-0.94,2.32-2.34,4.602-3.26,5.801l0.04,0.041c1.26-0.341,3.041-0.841,5.101-1.361c-0.24-0.399-0.64-0.76-1.021-1.1l0.86-0.62
			c1.06,0.96,2.041,2.04,2.581,3.321L207.469,695.753z M200.068,684.33v-1.1h7.021v1.1H200.068z M215.271,695.193
			c-0.22,1.24-0.18,2.98-1.62,3.561c-0.72,0.3-1.601,0.08-2.361,0.02c-0.14-0.4-0.24-0.84-0.38-1.26c0.7,0.08,1.4,0.3,2.121,0.18
			c0.64-0.24,0.58-1,0.78-1.54c0.5-2.901,0.86-6.542,0.98-9.142h-2.94c-0.1,4.98-0.541,8.701-5.721,12.122l-0.92-0.899
			c1.32-0.941,2.561-2.141,3.5-3.441c1.261-1.74,1.881-3.761,1.881-6.002v-1.8h-2.381v-1.12h2.361l0.02-4.762
			c0.42,0.021,0.8-0.039,1.22-0.02l0.04,4.801h4.241C215.911,689.271,215.731,692.652,215.271,695.193z"/>
		<path fill="#FFFFFF" d="M230.098,692.912c-0.64-1.52-1.68-2.881-3.061-3.92l0.96-0.841c1.38,0.841,2.68,2.04,3.601,3.381
			L230.098,692.912z"/>
		<path fill="#FFFFFF" d="M249.727,690.752h1.2v2.181h6.121v1.101h-6.121v3.2h8.102v1.101h-17.244v-1.101h7.942v-3.2h-5.981v-1.101
			h5.981V690.752z M243.245,691.092v-9.102h1.2v9.102H243.245z M257.788,683.211c-0.68,1.34-2.041,3.521-3.121,4.561
			c1.42,1.1,3.081,1.6,4.801,2l-0.88,1.021c-1.7-0.46-3.341-1.14-4.741-2.24c-1.46,1.12-3.101,1.761-4.921,2.2l-0.64-0.88
			l-0.02,2.261h-1.2V681.13l1.18,0.021l0.02,8.521c1.681-0.34,3.341-0.84,4.741-1.94c-1.2-1.3-2.021-2.881-2.701-4.401h-1.5v-1.08
			h8.982V683.211z M251.527,683.33c0.36,0.92,0.8,1.801,1.42,2.621c0.3,0.4,0.6,0.78,0.9,1.02c1.061-1.1,1.881-2.32,2.481-3.641
			H251.527z"/>
		<path fill="#FFFFFF" d="M263.313,698.094c0.72,0.02,1.32,0.061,1.8,0.08c0.4,0,0.68-0.4,0.68-0.74v-5.201l-2.4,0.881l-0.84-1.041
			c1.06-0.34,2.201-0.66,3.241-1.061v-4.58h-2.821v-1.201h2.821v-4.121h1.26v4.121h2.48v1.201h-2.48v4.16l2.38-0.96v1.28l-2.38,0.92
			v5.922c0,0.8-0.56,1.561-1.54,1.561h-1.801L263.313,698.094z M274.276,699.294l-0.48-1.261c0.68,0.101,1.42,0.101,2.12,0.101
			c0.36,0,0.56-0.32,0.56-0.66v-4.661h-7.221v-1.2h7.221v-1.601h1.26v1.601h3.061v1.2h-3.061v5.041c0,0.86-0.64,1.44-1.64,1.44
			H274.276z M275.656,683.971h3.881v1.2h-3.881v2.841h5.001v1.2h-11.022v-1.2h4.761v-2.841h-4.021v-1.2h4.021v-2.881h1.26V683.971z
			 M273.496,696.934c-1.04-0.94-2.221-1.841-3.461-2.361l0.82-0.879c1.26,0.52,2.4,1.34,3.461,2.3L273.496,696.934z"/>
		<path fill="#FFFFFF" d="M292.504,695.613l-6.902,2.68l-1.18-0.859c0.92-0.6,0.88-0.801,0.88-1.9v-6.961h5.341v-4.742h-5.722
			l0.02-1.22h6.962v7.981h-1.28l-0.02-0.82h-4.021l0.02,6.742l5.901-2.181V695.613z M301.046,699.214
			c-1.54-0.88-2.94-2.2-4.021-3.641l-0.08,0.021c-1.32,1.58-2.961,2.84-4.681,3.7l-0.82-0.98c1.78-0.88,3.581-2.2,4.821-3.86
			c-0.86-1.44-1.46-2.941-1.86-4.561c-0.42,0.879-0.9,1.68-1.44,2.48l-1.16-0.541c2.14-3.021,2.84-6.621,2.92-10.422l1.18,0.279
			c0.02,1.221-0.14,2.221-0.26,3.381h5.661v1.221h-1.22c-0.2,2.36-0.64,4.741-1.641,6.822c-0.22,0.459-0.46,0.92-0.72,1.359
			c1.081,1.58,2.621,2.861,4.241,3.82L301.046,699.214z M295.445,686.311l-0.34,1.441c0.34,1.9,0.88,3.76,1.84,5.461
			c1.16-2.121,1.78-4.422,1.9-6.922L295.445,686.311z"/>
		<path fill="#FFFFFF" d="M315.013,695.533v3.841l-1.24,0.021v-3.861l-7.942,0.02v-1.18l7.942-0.02v-1.541h-5.562v-4.682h5.562
			v-1.399h-3.461v-2.681h-4.181v-1.18l4.161-0.021l0.02-1.581h1.24v1.602h5.581l0.02-1.661h1.241v1.661h4.141v1.18l-4.141-0.02
			l-0.021,2.7h-3.36v1.399l5.441-0.02l0.02,4.701l-5.461-0.02v1.58l8.062-0.02l0.021,1.199L315.013,695.533z M309.452,691.633h4.321
			v-2.301l-4.301-0.021L309.452,691.633z M311.572,684.051l-0.02,1.5h5.581v-1.5H311.572z M315.013,689.312v2.301h4.201v-2.301
			H315.013z"/>
		<path fill="#FFFFFF" d="M103.706,713.732c-0.62-0.521-1.28-1.081-1.82-1.682c-0.2,2.521-0.68,5.201-1.18,6.542
			c-0.28,0.479-0.78,0.74-1.3,0.74c-0.62-0.08-1.22-0.24-1.78-0.42c-0.1-0.421-0.16-0.86-0.24-1.3c0.56,0.239,1.14,0.459,1.78,0.539
			c0.64-0.08,0.62-0.779,0.8-1.22c0.36-1.28,0.54-2.561,0.58-3.901h-4.601v7.902c0.02,0.16,0.2,0.279,0.32,0.359h5.861
			c0.4-0.1,0.58-0.539,0.62-0.9l0.28-1.199c0.34,0.08,0.68,0.38,1,0.539c-0.28,1.001-0.36,2.541-1.761,2.682h-5.801
			c-1.201,0-1.681-0.98-1.761-1.621v-8.062c-0.4,0.341-1.02,0.74-1.7,1.141l-0.76-0.96c1.681-0.9,2.881-2.261,3.941-3.762
			c0.86-1.22,1.46-2.58,1.98-3.98c0.36,0.061,0.7,0.221,1.06,0.32l-0.16,0.42c1.621,2.98,3.461,5.161,5.642,7.041L103.706,713.732z
			 M101.686,711.892c-0.9-1.16-2.2-2.901-3.141-4.661c-0.66,1.641-1.8,3.24-3.041,4.641L101.686,711.892z M104.926,718.693v-10.383
			h1.2v10.383H104.926z M108.147,705.15h1.2v16.764c-0.14,0.5-0.46,1.02-1,1.16c-0.68,0.16-1.46,0.1-2.221,0.1l-0.38-1.2l1.9,0.101
			c0.26-0.021,0.5-0.32,0.5-0.841V705.15z"/>
		<path fill="#FFFFFF" d="M118.093,717.673c-1.02,1.479-2.041,2.7-3.601,3.501l-0.74-0.961c1.66-0.76,2.701-2.24,3.521-3.36
			L118.093,717.673z M119.773,721.974c0,0.74-0.54,1.521-1.42,1.521h-1.541l-0.42-1.301c0.58,0.08,0.98,0.16,1.42,0.1
			c0.3-0.039,0.66-0.299,0.66-0.66v-5.761h-3.32v-1.2h3.32v-1.78h-4.041v-1.2h3.041c-0.24-0.76-1.26-2.041-1.86-2.561l1.14-0.52
			c0.88,0.92,1.48,2,1.94,3.08h1.04c0.72-0.92,1.201-1.98,1.581-3.041l1.12,0.541c-0.3,1-1.1,2.1-1.44,2.5h2.761v1.2h-3.981v1.78
			h3.281v1.2h-3.281V721.974z M118.433,707.211c-0.3-0.58-0.76-1.181-1.28-1.701l1.181-0.54c0.58,0.681,1.12,1.44,1.4,2.241h3.441
			v1.199h-8.222v-1.199H118.433z M120.814,716.772c1,0.601,2.1,1.521,2.8,2.46l-0.92,0.861c-0.58-0.921-1.94-2.041-2.601-2.48
			L120.814,716.772z M131.356,706.23c-1.7,0.98-3.561,1.5-5.521,1.82v3.261h5.921v1.2h-2.321v10.742h-1.26v-10.742h-2.34v2.82
			c0,2.721-0.9,5.502-2.38,7.802l-1.141-0.8c1.821-2.501,2.241-5.381,2.241-8.582v-6.662c2.161-0.239,4.161-0.879,6.001-1.88
			L131.356,706.23z"/>
		<path fill="#FFFFFF" d="M136.662,705.35h1.88v1.601c0,0.98,0,2.36-1.6,3.081l-0.44-0.68c1.021-0.421,1.061-1.4,1.081-1.961h-0.92
			V705.35z M139.703,705.35h1.88v1.601c0,0.98,0,2.36-1.601,3.081l-0.44-0.68c1.02-0.421,1.06-1.4,1.08-1.961h-0.92V705.35z"/>
		<path fill="#FFFFFF" d="M165.472,711.092c-0.04,3.24-0.68,6.281-2.561,8.781c-1.061,1.42-3.081,2.761-4.401,3.361l-0.86-1.101
			c2.541-0.9,5.081-3.301,5.821-5.941c0.46-1.62,0.82-3.321,0.76-5.121h-7.001v-1.14h7.001v-4.742c0.42-0.02,0.8-0.039,1.241-0.039
			v4.761l7.001,0.021c-0.18,3.76-0.12,8.141-0.9,11.762c-0.1,0.5-0.44,1-0.94,1.24c-0.7,0.34-1.68,0.221-2.46,0.12
			c-0.24-0.06-0.5-0.08-0.7-0.18c-0.06-0.46-0.18-0.86-0.24-1.32c0.76,0.14,1.52,0.46,2.4,0.44c0.28-0.08,0.56-0.221,0.68-0.521
			c0.52-1.741,0.84-5.981,0.92-10.382H165.472z M160.071,705.91c0.96,0.721,1.84,1.801,2.44,2.82c-0.34,0.28-0.7,0.601-1.04,0.84
			c-0.44-1.1-1.38-2.18-2.4-2.9L160.071,705.91z M167.032,713.732c1.2,1.18,2.081,2.46,2.661,3.94c-0.36,0.22-0.72,0.521-1.1,0.7
			c-0.42-1.541-1.48-2.841-2.581-4.041L167.032,713.732z"/>
		<path fill="#FFFFFF" d="M180.699,705.21h1.26v4.041h2.221l-0.02,1.16l-2.181,0.021v4.681c0.78-0.3,1.64-0.681,2.42-0.98
			l-0.02,1.24l-2.42,0.94v5.541c0,0.62-0.52,1.16-1.08,1.381c-0.64,0.16-1.4,0.06-2.121,0.08l-0.38-1.281
			c0.64,0.041,1.32,0.141,1.92,0.041c0.24-0.141,0.4-0.361,0.4-0.66v-4.642c-0.72,0.28-1.541,0.66-2.28,0.94l-0.74-1.08
			c1-0.301,2-0.641,2.98-1.041v-5.16l-2.561-0.021v-1.181h2.621L180.699,705.21z M187.101,712.672c-0.8,0-1.541-0.381-1.92-1.101
			c-0.16-0.28-0.24-0.62-0.24-0.979v-5.382h1.36l-0.02,3.28c2.721-0.379,5.321-1.18,7.602-2.54l0.78,0.979
			c-2.521,1.541-5.381,2.281-8.362,2.721c0,0.561-0.18,1.16,0.34,1.541c0.18,0.16,0.38,0.22,0.6,0.24l5.801-0.041
			c0.32-0.039,0.64-0.279,0.78-0.58c0.2-0.58,0.32-1.18,0.42-1.779c0.42,0.16,0.82,0.34,1.24,0.52c-0.14,0.74-0.4,1.44-0.66,2.08
			c-0.36,0.681-1.02,1.021-1.9,1.021L187.101,712.672z M192.982,723.294v-1.181l-6.441-0.02v1.28h-1.28v-9.103h8.982v9.022H192.982z
			 M186.521,717.533l6.441-0.021l-0.02-2.04h-6.401L186.521,717.533z M186.541,720.914h6.421l-0.02-2.201l-6.421-0.02
			L186.541,720.914z"/>
		<path fill="#FFFFFF" d="M208.45,707.431h-7.822v-1.2l9.142,0.02v5.801l-7.001-0.02c-0.12,1-0.46,2.621-0.74,3.841h8.142
			c-0.1,2.141-0.34,4.222-1.04,6.122c-0.34,0.64-1,1.08-1.701,1.14c-1.48-0.021-2.86-0.24-4.201-0.58
			c-0.1-0.44-0.16-0.96-0.28-1.421c1.3,0.361,2.621,0.681,4.041,0.761c0.36,0.021,0.66-0.181,0.88-0.46
			c0.4-0.961,0.66-2.041,0.76-3.121l0.12-1.26h-8.461c0.62-1.801,1-3.961,1.28-6.201h6.881V707.431z M214.871,705.27v17.965h-1.38
			l0.02-17.965H214.871z"/>
		<path fill="#FFFFFF" d="M228.398,712.691h2v2c0,0.681,0,2.121-1.641,2.821l-0.48-0.74c0.94-0.42,1.08-1.24,1.1-2.081h-0.98
			V712.691z"/>
		<path fill="#FFFFFF" d="M245.125,722.514l-0.74-1.08c0.3-0.24,0.44-0.62,0.48-1v-8.402h-2.681v-1.141h3.901v9.723l2.7-1.68v1.34
			L245.125,722.514z M245.746,708.751c-0.52-1.081-1.44-2.081-2.42-2.881l0.86-0.74c1.04,0.7,2,1.78,2.581,2.841L245.746,708.751z
			 M251.847,717.133h-4.421v-1.141h5.561v-1.66h-3.061v-6.102h-1.861v-1.141h1.861v-1.92h1.2v1.92h4.841v-1.96h1.2v1.96h1.84v1.141
			h-1.84v6.102h-2.96v1.66h5.661v1.141h-4.421c0.62,1.801,2.521,3.26,4.481,4.221l-0.86,0.9c-1.98-1.021-4.261-2.82-4.821-5.041
			l-0.04,6.102h-1.22v-6.082c-0.62,2.281-2.661,4.301-4.461,5.262l-0.94-0.92C249.526,720.674,251.127,718.893,251.847,717.133z
			 M255.968,710.111v-1.881h-4.841v1.881H255.968z M255.968,711.191h-4.841v2h4.841V711.191z"/>
		<path fill="#FFFFFF" d="M267.574,708.751h4.361v1.181h-4.361v3.9h3.101v7.461h-5.421v1.16h-1.18v-8.602h2.28v-8.662h1.22V708.751z
			 M265.274,720.094h4.201v-5.082h-4.201V720.094z M280.997,720.693c-0.12,0.86-0.36,1.68-0.6,2.121
			c-0.12,0.119-0.26,0.319-0.48,0.359c-0.82,0.34-1.48-0.26-2.021-0.721c-0.84-0.74-1.82-1.74-2.521-2.82
			c-1.44,1.44-3.061,2.621-4.721,3.682c-0.34-0.261-0.62-0.641-0.92-0.961c1.36-0.74,3.521-2.24,4.961-3.961
			c-0.54-1.4-1.14-4.141-1.42-6.521c-0.92,0.08-1.8,0.28-2.72,0.381l-0.14-1.141c0.94-0.141,1.84-0.28,2.8-0.439
			c-0.2-1.641-0.16-3.062-0.18-5.082c0.4-0.16,0.82-0.26,1.24-0.38c0.1,1.62,0.08,3.901,0.14,5.281c1.64-0.2,3.4-0.54,5.821-0.8
			l0.18,1.1l-5.921,0.86c0.12,1.82,0.601,3.94,1.101,5.642c1-1.641,1.8-3.342,2.4-5.102c0.38,0.16,0.72,0.36,1.08,0.561
			c-0.76,2-1.6,4-2.88,5.781c0.8,1.26,1.84,2.46,3.041,3.34c0.16,0.041,0.28-0.06,0.34-0.18c0.16-0.58,0.24-1.2,0.26-1.801
			L280.997,720.693z M277.816,709.091c-0.64-0.92-1.46-1.66-2.34-2.28l0.66-0.801c0.94,0.58,2.021,1.521,2.521,2.181
			L277.816,709.091z"/>
		<path fill="#FFFFFF" d="M291.804,707.451l-0.02,13.522h-1.2v-1.561h-4.141v1.601l-1.2-0.021v-13.542H291.804z M286.423,708.631
			v4.021h1.5v-4.001L286.423,708.631z M286.423,718.213h1.5v-4.381h-1.5V718.213z M290.544,708.65h-1.5v4.021l1.5-0.021V708.65z
			 M289.043,718.213h1.541v-4.381h-1.541V718.213z M300.766,707.33c-0.28,1.5-0.98,2.82-2.021,3.981l-0.5,0.56
			c-0.08,0.121-0.2,0.24-0.3,0.36c0.68,0.681,1.5,1.181,2.32,1.661c0.66,0.379,1.36,0.66,2.061,0.939l-0.84,0.961
			c-1.26-0.501-2.401-1.102-3.481-1.98l-0.88-0.721h-0.08c-1.221,1.141-2.641,2.021-4.101,2.721c-0.34-0.32-0.62-0.66-0.86-1
			c1.5-0.641,2.961-1.48,4.221-2.621c-0.58-0.74-1.101-1.54-1.46-2.36c-0.48,0.761-1.06,1.46-1.7,2.141l-0.1-0.021l-0.9-0.66
			c1.641-1.68,2.761-3.58,3.381-5.681l0.16-0.54l1.08,0.38c-0.16,0.601-0.4,1.261-0.62,1.88H300.766z M299.065,723.334l-0.02-1.32
			h-3.821v1.34h-1.22v-7.541h6.281v7.521H299.065z M295.185,720.834h3.861l0.02-3.861l-3.861,0.02L295.185,720.834z M295.845,709.07
			c0.36,0.721,0.76,1.661,1.28,2.301c0.9-0.859,1.561-1.801,1.96-2.84l-3.4-0.021L295.845,709.07z"/>
		<path fill="#FFFFFF" d="M315.253,716.912c-0.64-1.52-1.68-2.881-3.061-3.92l0.96-0.841c1.38,0.841,2.68,2.04,3.601,3.381
			L315.253,716.912z"/>
		<path fill="#FFFFFF" d="M93.444,747.395l-0.4-1.221c0.66-0.02,1.3,0.119,1.92-0.04c0.26-0.04,0.46-0.16,0.46-0.54v-5.041
			l-2.22,0.76l-0.92-1.1l3.141-0.961v-4.701h-2.561v-1.199h2.561v-4.021h1.26v4.041h2.121v1.18h-2.121v4.221l2.141-0.699v1.3
			l-2.141,0.74v5.741c0,0.86-0.62,1.541-1.38,1.541H93.444z M104.546,746.533h-1.26v-14.522c-0.62,0.101-1.561,0.2-2.36,0.28
			c0.04,2.301,0.08,4.701,0,6.921c-0.08,2.101-0.26,4.521-1.201,6.362c-0.3,0.58-0.64,1.14-1.02,1.699l-1.18-0.82
			c1.76-2.12,2.041-4.98,2.141-7.641c0.06-1.641,0.02-6.102-0.08-7.643c3.161-0.24,6.321-0.6,9.042-1.939l0.9,0.98
			c-0.4,0.239-0.9,0.42-1.34,0.58c-0.06,1.58-0.06,3.08-0.06,4.48c-0.04,1.54,0.06,2.92,0.14,4.341c0.14,2.36,0.74,4.821,2.46,6.642
			l-1,1.061c-1.1-1.501-1.98-2.922-2.38-4.822c-0.34-1.64-0.46-3.3-0.521-5.141c-0.04-1.84,0-4.041,0.04-6.061
			c-0.66,0.16-1.54,0.359-2.32,0.52V746.533z"/>
		<path fill="#FFFFFF" d="M122.194,743.613l-6.902,2.68l-1.18-0.859c0.92-0.6,0.88-0.801,0.88-1.9v-6.961h5.341v-4.742h-5.721
			l0.02-1.22h6.962v7.981h-1.28l-0.02-0.82h-4.021l0.02,6.742l5.901-2.181V743.613z M130.736,747.214
			c-1.54-0.88-2.94-2.2-4.021-3.641l-0.08,0.021c-1.32,1.58-2.961,2.84-4.681,3.7l-0.82-0.98c1.78-0.88,3.581-2.2,4.821-3.86
			c-0.86-1.44-1.46-2.941-1.86-4.561c-0.42,0.879-0.9,1.68-1.44,2.48l-1.16-0.541c2.14-3.021,2.84-6.621,2.92-10.422l1.18,0.279
			c0.02,1.221-0.14,2.221-0.26,3.381h5.661v1.221h-1.22c-0.2,2.36-0.64,4.741-1.641,6.822c-0.22,0.459-0.46,0.92-0.72,1.359
			c1.081,1.58,2.621,2.861,4.241,3.82L130.736,747.214z M125.135,734.311l-0.34,1.441c0.34,1.9,0.88,3.76,1.84,5.461
			c1.16-2.121,1.78-4.422,1.9-6.922L125.135,734.311z"/>
		<path fill="#FFFFFF" d="M144.704,743.533v3.841l-1.24,0.021v-3.861l-7.942,0.02v-1.18l7.942-0.02v-1.541h-5.562v-4.682h5.562
			v-1.399h-3.461v-2.681h-4.181v-1.18l4.161-0.021l0.02-1.581h1.24v1.602h5.581l0.02-1.661h1.24v1.661h4.141v1.18l-4.141-0.02
			l-0.02,2.7h-3.36v1.399l5.441-0.02l0.02,4.701l-5.461-0.02v1.58l8.062-0.02l0.02,1.199L144.704,743.533z M139.142,739.633h4.321
			v-2.301l-4.301-0.021L139.142,739.633z M141.263,732.051l-0.02,1.5h5.581v-1.5H141.263z M144.704,737.312v2.301h4.201v-2.301
			H144.704z"/>
		<path fill="#FFFFFF" d="M166.232,740.912c-0.64-1.52-1.68-2.881-3.061-3.92l0.96-0.841c1.38,0.841,2.68,2.04,3.601,3.381
			L166.232,740.912z"/>
		<path fill="#FFFFFF" d="M177.338,738.752c1.14-1.6,2.281-3.281,3.021-5.081c0.641-1.521,1.061-2.841,1.561-4.642l1.26,0.501
			c-0.42,1.761-0.98,3.44-1.5,4.721v13.163h-1.28v-11.022c-0.48,1.12-1.28,2.081-2.02,3.081L177.338,738.752z M185.7,738.432
			c0.02,1.32-0.1,2.561-0.2,3.842c0.84,1.039,1.901,1.779,2.981,2.3v-8.202H184.1v-6.24l10.002,0.02l0.02,6.221h-4.321v3.501h5.141
			v1.221h-5.141v3.841c1.94,0.26,4.181,0.279,6.141,0.119c-0.14,0.4-0.26,0.861-0.44,1.24c-2.181,0.101-4.641,0.181-6.662-0.34
			c-1.34-0.479-2.541-1.279-3.561-2.4c-0.3,1.44-1.061,2.74-2.081,3.861l-1.06-0.801c1.26-1.38,1.98-2.939,2.1-4.82
			c0.08-1.141,0.18-2.4,0.16-3.541L185.7,738.432z M192.842,735.172v-3.821h-7.461v3.821H192.842z"/>
		<path fill="#FFFFFF" d="M215.831,747.154c-3.021-0.721-4.181-1.701-6.241-3.241c-1.86,1.8-4.141,2.761-6.461,3.2l-0.7-1.02
			c2.521-0.54,4.561-1.381,6.281-2.98c-0.82-0.801-2.32-2.961-3.041-4.481c-1.22,3.601-3.641,6.001-6.161,7.962l-0.84-0.9
			c3.421-2.601,5.541-5.941,6.861-10.342h-4.781v-1.16c0.68-1.5,1.22-3.081,1.8-4.541l1,0.54c-0.34,1.24-0.96,2.88-1.48,4.001h3.761
			c0.42-1.641,0.62-3.241,0.82-4.981l1.18,0.341c-0.22,1.6-0.42,3.12-0.76,4.66h8.922v1.141h-9.182c-0.24,0.641-0.42,1.3-0.64,1.96
			h7.102c-0.04,0.36,0.1,0.761-0.06,1.101c-0.74,1.62-1.62,3.281-2.88,4.681c1.86,1.54,4.001,2.501,6.341,3.081L215.831,747.154z
			 M206.909,738.473c0.58,1.119,1.641,2.9,2.601,3.76c1.041-1.16,1.82-2.38,2.42-3.76H206.909z M212.291,733.411
			c-0.72-1.181-1.92-2.12-3.061-2.78l0.82-0.781c1.26,0.66,2.401,1.621,3.221,2.762L212.291,733.411z"/>
		<path fill="#FFFFFF" d="M220.096,746.674c1.2-2.101,1.48-3.461,1.76-5.161c0.18-1.001,0.12-2.36,0.12-3.381v-7.901h14.243v4.461
			h-12.983l0.02,5.201c0,0.54-0.08,1.939-0.14,2.301c-0.28,1.88-0.98,3.58-1.9,5.221L220.096,746.674z M234.979,731.431
			l-11.723-0.021v2.101h11.723V731.431z M236.02,742.553c-0.6,0.801-1.32,1.541-2.161,2.061c1.26,0.881,2.701,1.28,4.221,1.5
			l-0.84,1.181c-2.721-0.44-5.501-2.081-6.701-4.661c-0.2-0.46-0.4-0.939-0.541-1.381h-2.541v4.441l3.361-1.18l0.02,1.22
			l-4.581,1.741l-1.02-0.861c0.46-0.14,1.08-0.52,0.98-1.3v-4.062h-2.3v-1.18l3.301-0.02v-2.221h-2.861l-0.02-1.2h2.881v-1.341
			l1.24-0.02v1.36h3.781l0.02-1.341h1.24v1.341h2.94l-0.02,1.181l-2.92,0.02v2.221l3.741,0.02v1.16h-5.961
			c0.36,0.961,0.92,1.961,1.721,2.701c0.36-0.201,0.66-0.48,0.96-0.781c0.4-0.439,0.76-0.859,1.061-1.359L236.02,742.553z
			 M232.239,740.072v-2.24l-3.741-0.02v2.24L232.239,740.072z"/>
		<path fill="#FFFFFF" d="M249.687,736.691h2v2c0,0.681,0,2.121-1.641,2.821l-0.48-0.74c0.94-0.42,1.08-1.24,1.1-2.081h-0.98
			V736.691z"/>
		<path fill="#FFFFFF" d="M277.176,732.211c-1.04,1.561-2.5,3.021-4.061,4.121c1.32,0.82,2.78,1.359,4.261,1.82
			c0.58,0.119,1.12,0.34,1.7,0.459l1.761,0.381c-0.2,0.38-0.48,0.78-0.68,1.18c-0.48,0-0.84-0.24-1.32-0.3
			c-2.401-0.66-4.781-1.44-6.902-2.78c-0.58,0.26-1.14,0.6-1.72,0.859c-2.101,0.921-4.281,1.641-6.501,2.241
			c-0.26-0.36-0.48-0.761-0.76-1.12c2.68-0.7,5.361-1.5,7.841-2.761c-1.1-0.88-2.18-1.96-2.94-3.12
			c-0.94,1.06-1.96,2.12-3.061,2.859l-1.101-0.859c1.4-0.82,2.641-2.141,3.581-3.421c0.64-0.86,1.16-1.761,1.6-2.681l1.28,0.34
			c-0.18,0.561-0.62,1.181-0.96,1.621h7.981V732.211z M276.776,739.813v7.441h-1.32v-1.141l-7.062-0.02v1.221h-1.36l0.02-7.502
			H276.776z M275.436,741.013h-7.042l-0.02,3.86l7.042,0.021L275.436,741.013z M268.754,732.271c0.72,1.2,2.281,2.741,3.181,3.36
			l0.1-0.06c1.38-0.82,2.621-2.04,3.581-3.321L268.754,732.271z"/>
		<path fill="#FFFFFF" d="M290.664,740.692c-1.64,0.66-3.92,1.46-5.961,2.101c-0.24-0.38-0.42-0.801-0.62-1.221
			c0.98-0.3,1.96-0.539,2.92-0.88v-7.962h-2.621v-1.16h6.042v1.16h-2.201v7.502c0.7-0.24,1.88-0.68,2.421-0.84L290.664,740.692z
			 M296.905,740.393c-0.02,1.02-0.8,2.541-1.081,2.92c-1.86,2.421-4.501,3.641-7.401,3.861l-0.56-1.24
			c2.5-0.18,4.901-0.84,6.602-2.801c0.92-1.04,1.32-2.36,1.32-3.801l0.02-3.681l1.181,0.08L296.905,740.393z M301.686,731.291
			h-4.841c-0.22,0.76-0.54,1.48-0.78,2.22h4.461l0.02,9.382h-1.22v-8.221h-6.141v8.621h-1.241v-9.782h2.821
			c0.3-0.739,0.58-1.44,0.82-2.2h-4.481v-1.1h10.582V731.291z M296.745,743.273c0.16-0.301,0.44-0.621,0.62-0.94
			c1.82,0.86,3.541,2.181,4.881,3.881c-0.26,0.319-0.52,0.66-0.78,0.96C299.986,745.354,298.345,744.174,296.745,743.273z"/>
		<path fill="#FFFFFF" d="M307.412,743.393h6.401v-1.58h-8.342v-1.061h8.342v-1.439h-6.441v-1.08h6.441v-1.201h-5.941v-3.76h5.941
			v-1.281h-8.222v-1.08h8.222v-1.641h1.22v1.641h8.242v1.08h-8.242v1.281h5.841v3.76h-5.841v1.201h6.521v2.52h1.921v1.061h-1.921
			v2.66h-6.521v1.4c0,0.781-0.5,1.301-1.48,1.301h-2.44l-0.44-1.16c0.84,0.061,1.581,0.12,2.481,0.12c0.34,0,0.66-0.08,0.66-0.501
			v-1.16h-6.401V743.393z M309.092,735.951h4.721v-1.6h-4.721V735.951z M319.654,735.951v-1.6h-4.621v1.6H319.654z M320.334,740.752
			v-1.439h-5.301v1.439H320.334z M320.334,743.393v-1.58h-5.301v1.58H320.334z"/>
		<path fill="#FFFFFF" d="M93.064,770.174v-1.2h6.021V753.77h1.3v15.224h2.701V753.79h1.24v15.203h5.981v1.181H93.064z
			 M96.305,766.492c-0.06-2.82-0.94-5.32-2.021-7.721c0.3-0.2,0.68-0.34,1.04-0.48c0.98,2.16,1.94,5.021,2.221,7.662L96.305,766.492
			z M106.106,766.713l-0.98-0.6c1.28-1.581,2.4-3.801,2.581-7.742c0.38,0.1,0.72,0.301,1.1,0.42
			C108.507,762.512,107.387,764.752,106.106,766.713z"/>
		<path fill="#FFFFFF" d="M122.234,765.873h-4.241v-1.201h4.241v-3.16h-4.941v-0.86c-0.7,0.44-1.76,0.86-2.661,1.221l-0.74-1.12
			c4.441-1.5,6.721-3.861,8.862-7.021l1.22,0.539l-0.34,0.561c1.601,2.641,5.061,4.781,8.222,5.802l-0.74,1.14
			c-0.94-0.34-1.84-0.76-2.761-1.16v0.9h-4.841v3.16h4.261v1.201h-4.261v3.34h7.441v1.201h-16.043v-1.201h7.322V765.873z
			 M117.773,760.271l10.302,0.04c-1.9-0.96-3.801-2.36-5.281-4.401C121.394,757.831,119.713,759.252,117.773,760.271z"/>
		<path fill="#FFFFFF" d="M142.983,757.751c0.44-0.72,0.64-1.561,0.8-2.421h-8.422v-1.18h17.304l-0.02,1.18h-7.562
			c-0.16,0.801-0.36,1.681-0.7,2.421h7.182v13.644h-1.26l0.02-1.381h-12.463l-0.02,1.561l-1.24-0.021v-13.803H142.983z
			 M137.842,768.834h3.161v-9.883l-3.141-0.02L137.842,768.834z M146.044,758.951h-3.801v2.261h3.801V758.951z M142.243,762.393
			v2.439h3.801v-2.42L142.243,762.393z M142.263,768.834h3.781v-2.821h-3.801L142.263,768.834z M150.325,758.932h-3.041v9.902
			l3.041-0.021V758.932z"/>
		<path fill="#FFFFFF" d="M160.871,767.093c0.66,0.74,2.641,1.94,4.521,2.12c2.32,0.201,5.941-0.02,9.042-0.14
			c-0.18,0.421-0.38,0.841-0.521,1.28l-8.282-0.02c-2.18,0-4.041-0.84-5.481-2.48c-0.76,1.04-2.081,2.12-3.161,2.78
			c-0.24-0.28-0.6-0.54-0.86-0.841c1.02-0.6,2.921-2.04,3.561-3.04v-5.781h-3.081v-1.14h4.261V767.093z M160.371,757.511
			c-0.66-1.28-1.86-2.36-3.061-3.181l0.86-0.74c0.94,0.68,2.24,1.58,3.261,3.182L160.371,757.511z M165.692,762.512
			c-0.16,2.74-1.06,4.161-2.96,5.762l-1-0.881c1.28-1.02,2.721-2.26,2.801-4.86h-3.261v-1.161h3.281v-3.5h-2.5l0.02-1.141h2.44
			c-0.02-0.68,0-1.859,0.02-3.32h1.18c-0.02,1.2,0.06,2.521,0.06,3.341h3.301l0.02-3.36h1.2v3.36l2.701-0.021v1.16h-2.701v3.48
			h3.521v1.182h-3.541v6.041l-1.18-0.021v-6.062H165.692z M169.093,757.891h-3.321c0,1.121,0.02,2.261,0.02,3.48h3.301V757.891z"/>
		<path fill="#FFFFFF" d="M190.321,767.693c-3.541,2.32-7.762,3.041-12.083,3.5c-0.12-0.42-0.3-0.82-0.42-1.26
			c4.621-0.54,9.362-0.92,12.783-4.141c1.141-1.061,1.801-2.461,2.441-3.781c0.36,0.2,0.7,0.461,1.08,0.68
			C193.262,764.532,192.142,766.492,190.321,767.693z M184.62,762.952c-1.48,1.82-3.501,3.44-5.641,4.401
			c-0.32-0.32-0.62-0.721-0.92-1.041c2.041-0.84,3.961-2.32,5.501-4.121L184.62,762.952z M178.519,761.012v-1.24l2.941,0.02v-4.801
			h1.32l0.02,4.801h3.701v-6.701h1.34v2.601h6.501l0.02,1.22l-6.481,0.021v2.86h7.521l-0.02,1.201h-7.322v5.521h-1.36l-0.02-5.521
			L178.519,761.012z"/>
		<path fill="#FFFFFF" d="M207.109,760.691h2v2c0,0.681,0,2.121-1.641,2.821l-0.48-0.74c0.94-0.42,1.08-1.24,1.1-2.081h-0.98
			V760.691z"/>
		<path fill="#FFFFFF" d="M219.876,765.593c1.581-1.82,2.541-3.921,3.041-6.182h-2.221v-1.2h2.46v-2.461
			c-0.8,0.101-1.64,0.24-2.5,0.24l-0.7-1.26c2.281,0.1,4.281-0.461,6.261-1.08c0.18,0.32,0.34,0.68,0.58,0.939
			c-0.78,0.36-1.56,0.621-2.38,0.861v2.76h2.38v1.2h-2.36v1.521l0.74-0.48c0.94,0.92,1.68,1.9,2.101,3.121
			c-0.34,0.24-0.7,0.46-1.081,0.66c-0.34-1.08-0.94-2.061-1.76-2.94v9.901h-1.28v-8.901c-0.54,1.501-1.2,2.921-2.34,4.161
			L219.876,765.593z M225.777,770.033c-0.32-0.24-0.68-0.6-1-0.88c1.24-0.86,1.96-2.061,2.5-3.36c0.34,0.199,0.64,0.46,1,0.62
			C227.738,767.732,226.978,769.073,225.777,770.033z M227.698,760.492h8.202v-1.48h-7.401v-0.861l-0.1,0.021
			c-0.26,0.12-0.48,0.32-0.78,0.36l-0.72-1.061c1.82-0.74,3.121-2.541,3.481-4.4c0.4,0.08,0.72,0.34,1.14,0.42
			c-0.12,0.42-0.24,0.859-0.42,1.26l4.461,0.021v1.06c-0.3,0.721-0.58,1.32-1,2.001h2.561v6.622h-9.022v-1.182h7.802v-1.6h-8.202
			V760.492z M230.519,755.951c-0.48,0.72-1,1.32-1.641,1.88h4.261c0.4-0.479,0.9-1.38,1.12-1.88H230.519z M230.138,770.414
			c-0.84-0.28-1.16-0.86-1.24-1.521v-4.021h1.22v3.86c0.04,0.181,0.18,0.479,0.4,0.479h3.34c0.22,0.021,0.36-0.119,0.46-0.199
			c0.14-0.301,0.26-0.98,0.34-1.66l1.14,0.64c-0.26,0.841-0.36,1.96-1.36,2.341l-0.581,0.08H230.138z M233.559,767.193
			c-0.34,0.199-0.68,0.46-1.04,0.6c-0.32-0.96-0.88-1.801-1.521-2.621c0.32-0.159,0.6-0.379,0.94-0.52
			C232.599,765.453,233.259,766.232,233.559,767.193z M238.52,768.854c-0.26,0.34-0.6,0.641-0.88,0.96
			c-0.62-1.261-1.721-2.521-2.921-3.321l0.78-0.84c0.86,0.561,1.64,1.361,2.32,2.16L238.52,768.854z"/>
		<path fill="#FFFFFF" d="M243.805,760.412c-0.4,0.619-1.02,1.439-1.56,2.02l-0.94-0.84c2.201-2.48,3.341-5.381,4.241-8.441
			l1.101,0.4c-0.42,1.56-0.96,3.02-1.601,4.48v13.383h-1.26L243.805,760.412z M245.565,770.414c0.82-0.881,1.601-1.861,2.101-2.9
			c-0.84-1.221-1.22-2.641-1.6-4.062l1.12-0.34c0.28,0.979,0.58,2.021,1,2.921c0.46-1.221,0.68-2.541,0.78-3.881h-2.84v-1.121
			c0.92-1.119,1.8-2.221,2.4-3.48l0.42-0.88h-2.541v-1.181h3.841v1.181c-0.6,1.521-1.54,3.001-2.601,4.321h2.601
			c-0.12,2.22-0.42,4.4-1.22,6.4c0.9,1.281,2.38,1.921,3.961,1.9l4.741-0.039l2.181-0.101l-0.4,1.32h-6.401
			c-1.761,0-3.381-0.479-4.581-1.82l-0.08,0.021c-0.58,0.979-1.28,1.859-2.041,2.76L245.565,770.414z M253.607,768.793l0.02-2.16
			l-3.281-0.02v-1.121l3.261,0.021l0.02-1.62l-2.561,0.02v-1.141h2.541v-1.479h-2.321l-0.02-1.141h2.34l0.02-1.601h-3.301v-1.1
			h3.281l0.02-1.621h-2.36v-1.119l2.36-0.021l-0.02-1.521h1.26l-0.02,1.541h3.281v2.721h1.22v1.14h-1.22v2.721h-3.281l0.02,1.479
			h3.621l-0.02,1.121h-3.621v1.62l4.461-0.021v1.121l-4.441,0.02v2.181L253.607,768.793z M254.868,755.83v1.602h2.021v-1.602
			H254.868z M256.888,760.151v-1.58l-2.021-0.021v1.601H256.888z"/>
		<path fill="#FFFFFF" d="M279.697,771.154c-3.021-0.721-4.181-1.701-6.241-3.241c-1.86,1.8-4.141,2.761-6.461,3.2l-0.7-1.02
			c2.521-0.54,4.561-1.381,6.281-2.98c-0.82-0.801-2.32-2.961-3.041-4.481c-1.22,3.601-3.641,6.001-6.161,7.962l-0.84-0.9
			c3.421-2.601,5.542-5.941,6.861-10.342h-4.781v-1.16c0.68-1.5,1.22-3.081,1.8-4.541l1,0.54c-0.34,1.24-0.96,2.88-1.48,4.001h3.761
			c0.42-1.641,0.62-3.241,0.82-4.981l1.18,0.341c-0.22,1.6-0.42,3.12-0.76,4.66h8.922v1.141h-9.182c-0.24,0.641-0.42,1.3-0.64,1.96
			h7.102c-0.04,0.36,0.1,0.761-0.06,1.101c-0.74,1.62-1.62,3.281-2.88,4.681c1.86,1.54,4.001,2.501,6.341,3.081L279.697,771.154z
			 M270.775,762.473c0.58,1.119,1.641,2.9,2.601,3.76c1.041-1.16,1.82-2.38,2.42-3.76H270.775z M276.156,757.411
			c-0.72-1.181-1.92-2.12-3.061-2.78l0.82-0.781c1.26,0.66,2.401,1.621,3.221,2.762L276.156,757.411z"/>
		<path fill="#FFFFFF" d="M283.962,770.674c1.2-2.101,1.48-3.461,1.76-5.161c0.18-1.001,0.12-2.36,0.12-3.381v-7.901h14.243v4.461
			h-12.983l0.02,5.201c0,0.54-0.08,1.939-0.14,2.301c-0.28,1.88-0.98,3.58-1.9,5.221L283.962,770.674z M298.846,755.431
			l-11.723-0.021v2.101h11.723V755.431z M299.886,766.553c-0.6,0.801-1.32,1.541-2.161,2.061c1.26,0.881,2.701,1.28,4.221,1.5
			l-0.84,1.181c-2.721-0.44-5.501-2.081-6.701-4.661c-0.2-0.46-0.4-0.939-0.541-1.381h-2.541v4.441l3.361-1.18l0.02,1.22
			l-4.581,1.741l-1.02-0.861c0.46-0.14,1.08-0.52,0.98-1.3v-4.062h-2.3v-1.18l3.301-0.02v-2.221h-2.861l-0.02-1.2h2.881v-1.341
			l1.24-0.02v1.36h3.781l0.02-1.341h1.24v1.341h2.94l-0.02,1.181l-2.92,0.02v2.221l3.741,0.02v1.16h-5.961
			c0.36,0.961,0.92,1.961,1.721,2.701c0.36-0.201,0.66-0.48,0.96-0.781c0.4-0.439,0.76-0.859,1.061-1.359L299.886,766.553z
			 M296.105,764.072v-2.24l-3.741-0.02v2.24L296.105,764.072z"/>
		<path fill="#FFFFFF" d="M310.792,755.07h2.321v1.2h-2.321l-0.02,2.241c1-0.221,1.5-0.381,2.381-0.601v1.12
			c-0.98,0.301-1.38,0.38-2.361,0.62v2.32c0,0.88-0.44,1.2-0.96,1.36c-0.72,0.221-1.061,0.16-1.86,0.16l-0.38-1.18
			c0.38,0.039,1.121,0.039,1.601-0.021c0.22,0,0.36-0.16,0.36-0.44v-1.9c-1.08,0.24-1.64,0.36-2.98,0.7l-0.7-1.14
			c1.38-0.26,2.561-0.461,3.661-0.74l0.02-2.501h-3.041l-0.02-1.2l3.061,0.02v-2h1.26L310.792,755.07z M318.014,769.813
			c0.541,0.021,1.201,0.36,1.661-0.08c0.319-0.399,0.5-0.899,0.58-1.8l0.24-2.721h-5.122c-0.3,2.02-1.94,3.881-3.801,4.681
			c-1.44,0.62-3.061,1.08-4.541,1.2l-0.54-1.221c2.641-0.18,5.281-0.8,6.961-3.141c0.4-0.539,0.54-0.96,0.66-1.52h-7.202v-1.181
			h7.382l0.16-1.12l1.22,0.221l-0.12,0.899h6.201c0,1.62-0.18,3.161-0.44,4.741c-0.18,1.02-0.6,2.42-2.24,2.26
			c-0.6-0.06-1.3-0.14-1.88-0.239l-0.4-1.28L318.014,769.813z M323.834,761.212c-0.26,0.681-0.54,1.36-1.08,1.9
			c-0.22,0.2-0.439,0.22-0.7,0.2c-0.58-0.12-0.88-0.681-1.14-1.16c-0.36-0.781-0.521-1.58-0.641-2.32
			c-0.16-0.881-0.22-2.121-0.22-3.221h-2.221c-0.08,1.1-0.2,2.22-0.64,3.16c0.62,0.48,1.18,0.96,1.701,1.44l-0.86,0.819
			c-0.44-0.42-0.9-0.939-1.4-1.279c-1,1.16-2.4,2.26-3.781,2.801l-0.76-1.021c1.32-0.48,2.581-1.28,3.481-2.501
			c-0.54-0.4-1.12-0.82-1.78-1.061l0.64-0.899c0.64,0.26,1.14,0.66,1.74,0.96c0.36-0.721,0.44-1.6,0.48-2.42h-3.121v-1.181h3.101
			v-2.381h1.18v2.381l3.42-0.021c0.04,2.16-0.1,4.481,0.86,6.281c0.04,0.101,0.181,0.121,0.261,0.041
			c0.279-0.4,0.319-0.74,0.439-1.301L323.834,761.212z"/>
		<path fill="#FFFFFF" d="M103.106,788.053l-0.24,0.619c2.521,1.361,5.101,3.081,6.981,5.542c-0.38,0.26-0.72,0.58-1.121,0.819
			c-1.64-2.359-4.041-4.061-6.381-5.36c-1.94,3.021-5.101,4.661-8.342,5.461l-0.64-1.2c2.181-0.52,4.281-1.381,6.082-2.841
			c1.02-0.819,1.82-1.921,2.28-3.04h-8.762v-1.181h9.162c0.38-1.22,0.56-2.421,0.56-3.801l-0.02-5.962h1.26v6.842
			c0,1.721-0.3,2.301-0.46,2.921h6.721v1.181H103.106z M97.425,785.912c-0.64-1.28-1.86-2.421-3.081-3.161l0.8-0.86
			c1.44,0.961,2.66,2.001,3.28,3.102L97.425,785.912z M99.245,782.211c-0.66-1.221-1.92-2.36-3.101-3.08l0.8-0.861
			c1.2,0.721,2.44,1.741,3.201,2.981L99.245,782.211z"/>
		<path fill="#FFFFFF" d="M125.646,795.094c-0.12-0.439-0.36-0.92-0.46-1.36c0.74,0.021,1.18,0.24,1.9,0.06
			c0.4-0.06,0.68-0.399,0.68-0.819v-11.522l-12.263-0.02l0.02,14.103h-1.28V780.23l5.581,0.02c0.84-0.92,1.42-2.06,1.681-3.2
			l1.28,0.58c-0.34,0.88-0.84,1.821-1.42,2.601h7.682v13.143c0.1,0.74-0.4,1.621-1.22,1.721H125.646z M125.106,784.191l0.02,6.922
			h-7.001l0.02-6.922H125.106z M123.866,785.371h-4.501l0.02,4.562h4.501L123.866,785.371z"/>
		<path fill="#FFFFFF" d="M140.485,781.311c-0.26,2.781-0.82,5.922-2.1,8.462c0.88,0.601,1.74,1.241,2.561,1.921l-0.84,0.96
			c-0.8-0.58-1.5-1.2-2.301-1.72c-0.12,0.119-0.26,0.26-0.28,0.399c-1,1.561-2.601,2.821-4.061,3.86
			c-0.4-0.34-0.68-0.619-0.98-0.959c1.64-1.141,3.241-2.262,4.221-3.981c-0.92-0.62-1.94-1.081-2.98-1.44
			c0.42-1.221,0.88-2.48,1.2-3.74c0.22-0.841,0.42-1.701,0.6-2.561h-2.3l-0.02-1.181l2.561-0.021c0.24-1.3,0.48-2.52,0.68-3.86
			c0.42,0.12,0.86,0.22,1.28,0.36c-0.04,0.619-0.541,2.881-0.64,3.521L140.485,781.311z M136.845,782.512
			c-0.44,1.88-0.98,3.84-1.601,5.621c0.7,0.24,1.36,0.58,2.021,0.96h0.08l0.24-0.521c0.28-0.62,0.58-1.221,0.7-1.86l0.08-0.12
			c0.38-1.24,0.62-2.66,0.7-4.08H136.845z M145.867,793.514c0,0.4-0.16,1.16-0.92,1.58c-0.26,0.16-0.6,0.16-0.92,0.16h-1.98
			c-0.16-0.439-0.32-0.9-0.5-1.36c0.82,0.101,1.7,0.16,2.541,0.06c0.24-0.1,0.42-0.34,0.48-0.58v-6.721h-4.321l0.02-1.181h4.281
			l0.02-2.22c1.2-1.181,2.28-2.581,3.121-3.941h-6.981l0.02-1.16l8.402-0.02l-0.02,1.24c-0.82,1.539-2.361,3.439-3.241,4.301
			l0.02,1.8h4.941v1.2l-4.961-0.02V793.514z"/>
		<path fill="#FFFFFF" d="M164.406,787.112c-0.36,1.021-1.36,1.9-2.44,1.98c-0.98,0.079-1.86-0.3-2.48-1.021s-0.82-1.801-0.52-2.721
			c0.34-1.061,1.38-1.881,2.46-1.961c1.02-0.059,1.94,0.301,2.541,1.141C164.486,785.271,164.727,786.212,164.406,787.112z
			 M162.086,784.611c-0.6-0.14-1.22,0.04-1.601,0.48c-0.38,0.38-0.54,0.939-0.44,1.48c0.1,0.5,0.48,1,0.94,1.2
			c0.64,0.28,1.4,0.12,1.881-0.36c0.46-0.46,0.6-1.2,0.36-1.801C163.026,785.132,162.566,784.752,162.086,784.611z"/>
		<path fill="#FFFFFF" d="M285.591,883.893c2.521-1.44,4.521-3.681,6.162-6.021l1.22,0.82c-0.56,1.02-1.7,2.36-2.44,3.261v9.222
			h-1.541v-7.642c-0.34,0.32-1.46,1.061-2.22,1.601L285.591,883.893z M285.851,878.392c2.101-1.461,3.721-3.261,5.061-5.361
			l1.18,0.92c-1.34,2.021-3,4.141-4.901,5.481L285.851,878.392z M295.013,889.533c1.02,0.08,1.9,0.08,2.76,0.061
			c0.22-0.061,0.44-0.2,0.44-0.48v-8.201h-5.121v-1.48l10.302,0.02v1.461l-3.561,0.02l-0.02,8.362c0,0.699-0.36,1.22-0.86,1.52
			c-0.541,0.301-2.441,0.28-3.461,0.24L295.013,889.533z M302.174,876.07h-8.602l-0.02-1.48l8.622-0.02V876.07z"/>
		<path fill="#FFFFFF" d="M322.615,890.193c-5.521-2.061-7.762-4.661-8.802-7.922h-2.461v6.542l3.901-1.641v1.5l-4.761,2.221
			l-0.9-1.34c0.2-0.181,0.24-0.58,0.24-0.86v-6.422h-4.141v-1.46h4.341v-7.462h1.521v5.682c2.38-1.061,5.021-2.461,7.281-4.321
			l1.041,1.141c-2.501,1.98-5.322,3.521-8.322,4.641v0.32h11.143v1.46h-7.402c1.081,3.461,4.921,5.602,8.342,6.582L322.615,890.193z
			"/>
	</g>
</g>
</svg>
