<?xml version="1.0" encoding="utf-8"?>
<!-- Generator: Adobe Illustrator 16.0.0, SVG Export Plug-In . SVG Version: 6.00 Build 0)  -->
<!DOCTYPE svg PUBLIC "-//W3C//DTD SVG 1.1//EN" "http://www.w3.org/Graphics/SVG/1.1/DTD/svg11.dtd">
<svg version="1.1" id="Layer_1" xmlns="http://www.w3.org/2000/svg" xmlns:xlink="http://www.w3.org/1999/xlink" x="0px" y="0px"
	 width="768px" height="1024px" viewBox="0 0 768 1024" enable-background="new 0 0 768 1024" xml:space="preserve">
<g>
	<path fill="#FFFFFF" d="M170.719,169.231c0.275-0.944,0.235-2.399,0.196-3.462h-2.36c-0.629,1.141-1.729,2.282-2.989,3.265
		l-2.754-1.219c2.715-2.125,3.815-4.799,4.366-8.182l2.872,1.101c-0.157,1.023-0.473,1.771-0.669,2.164l9.087,0.04v2.832
		l-4.603,0.04c0.079,1.023-0.039,2.36-0.196,3.383l6.097,0.04v2.832h-6.529l-0.315,0.748c2.36,0.354,5.153,0.826,7.789,2.439
		l-1.573,2.399c-2.793-1.219-4.957-2.124-7.632-2.203c-0.943,1.219-1.888,1.927-3.265,2.675l21.95,0.079l0.039,16.561h-3.068v-2.321
		h-16.325v2.518l-2.95-0.04v-16.403c-1.021,0.708-3.304,1.495-4.642,1.81l-1.416-2.951c3.658-0.668,7.081-2.439,8.143-5.271h-7.002
		l0.04-2.911L170.719,169.231z M187.161,181.071l-16.325-0.039v2.872h16.325V181.071z M187.161,186.775h-16.325v2.793h16.286
		L187.161,186.775z M180.867,175.21v-13.021h13.021v13.021H180.867z M190.898,165.061h-7.041l-0.04,7.317h7.081V165.061z"/>
	<path fill="#FFFFFF" d="M199.823,190.749c3.068-1.063,5.626-2.242,7.671-4.799l2.046,1.849c-2.046,2.675-4.799,4.091-7.553,5.311
		L199.823,190.749z M208.045,172.496h-6.962v-2.518h6.962v-1.298h-4.681v-2.438h4.681v-1.259h-6.176v-2.518h6.176v-2.714h2.833
		v2.714h5.86v2.518h-5.86v1.259h4.366v2.438h-4.366v1.298h6.411v2.518h-6.411v1.298h-2.833V172.496z M217.172,185.084
		c1.416,0.433,3.107,1.613,4.642,3.068l-2.164,1.77c-1.691-1.81-3.226-2.911-5.153-3.659l1.574-1.101l-10.582-0.079v-2.597h22.068
		v-1.495h-20.573v-2.675h20.573v-1.337h-21.714v-2.596h24.703v10.7L217.172,185.084L217.172,185.084z M226.612,190.591
		c-0.708,1.692-2.046,2.911-3.658,2.911h-9.126c-1.456,0-3.541-1.259-3.541-3.541v-3.658h2.833v3.265
		c0,0.865,0.786,1.416,1.77,1.416h7.12c1.534,0,2.124-1.495,2.872-3.619l2.596,1.18L226.612,190.591z M224.095,166.241v-1.259
		h-5.898v-2.518h5.898v-2.832h2.872v2.832h6.097v2.518h-6.097v1.259h4.523v2.438h-4.523v1.298h7.316v2.518h-7.316v1.337h-2.872
		v-1.337h-6.176v-2.518h6.176v-1.298h-4.366v-2.438H224.095z M233.339,193.148c-1.652-2.714-3.344-4.524-5.507-5.704l2.124-1.613
		c2.518,1.377,4.209,2.99,5.782,5.429L233.339,193.148z"/>
	<path fill="#FFFFFF" d="M258.983,161.246c4.052,5.035,9.323,9.598,16.05,11.565l-2.399,2.439c-2.715-0.905-5.074-2.282-6.845-3.461
		l0.039,1.613l-7.159-0.04l0.039,4.563h10.66l0.04,2.833l-10.739,0.039l0.039,9.441l14.083-0.039v2.872h-31.155l-0.039-2.872
		l14.122,0.039v-9.48l-10.855,0.039l-0.039-2.872h10.896v-4.563l-7.159,0.04v-1.692c-1.928,1.259-4.406,2.675-7.159,3.934
		l-2.007-2.479c5.861-2.635,13.296-7.042,17.702-14.594l2.438,1.652L258.983,161.246z M250.645,189.607
		c-1.063-2.596-2.282-4.76-4.524-6.845l2.675-1.259c1.652,1.298,3.974,4.839,4.721,6.884L250.645,189.607z M263.979,170.529
		c-2.164-1.812-5.035-4.406-6.766-6.845c-1.691,2.124-4.484,5.114-6.963,6.766L263.979,170.529z M260.046,188.191
		c2.596-1.849,4.405-4.327,5.704-7.042l2.399,1.731c-1.259,2.714-2.95,5.232-5.429,7.159L260.046,188.191z"/>
	<path fill="#FFFFFF" d="M300.126,160.97v2.832h-21.557v-2.832H300.126z M295.563,177.531h-12.195v16.994h-2.832v-19.944h17.858
		v16.247c-0.117,1.298-0.982,2.439-2.084,2.872c-1.259,0.511-2.124,0.433-3.658,0.433l-1.023-2.793
		c1.652-0.079,2.4,0.394,3.384-0.079c0.826-0.394,0.551-1.574,0.551-3.187L295.563,177.531L295.563,177.531z M282.307,173.047
		v-7.632h14.24v7.632H282.307z M294.619,183.117v2.832h-3.855v6.333h-2.753v-6.294h-3.619v-2.951h2.675
		c-0.63-1.376-1.928-2.911-3.266-3.501l2.046-1.337c1.338,0.787,2.95,2.36,3.54,3.776l-1.651,1.102l2.163,0.04
		c1.534-1.692,2.085-3.501,2.675-5.035l2.557,1.022c-0.708,1.22-1.494,3.108-2.399,4.052L294.619,183.117z M293.636,168.169h-8.458
		v2.203h8.458V168.169z M302.683,192.558c-0.94,0.275-1.219,0.354-2.317,0.748l-1.377-2.872c2.357-0.511,3.501-0.708,5.15-1.141
		v-7.199h-4.442V167.5h4.442v-7.867h2.793v7.867h4.523v14.594h-4.523l0.039,6.451l2.281-0.551c-0.275-0.551-0.904-1.613-1.81-2.714
		l2.479-0.904c1.573,1.809,2.636,3.894,3.306,5.939l0.864,2.597l-2.95,1.022c-0.272-1.377-0.59-2.753-0.902-3.58L302.683,192.558z
		 M304.139,170.333h-1.688v8.89h1.688V170.333z M306.932,179.223h1.931v-8.89h-1.931V179.223z"/>
	<path fill="#FFFFFF" d="M334.07,197.003v-39.652h3.065v39.652H334.07L334.07,197.003z"/>
	<path fill="#FFFFFF" d="M365.654,168.444c0.117,5.704,0.313,14.201-1.416,18.567c-0.786,2.006-3.068,5.783-5.625,7.75l-2.36-2.242
		c1.967-1.298,6.53-5.861,6.53-13.925v-13.06h13.847c-0.944-1.416-2.872-3.029-5.153-4.012l2.242-1.495
		c2.479,1.141,4.445,2.439,6.021,4.603l-1.573,0.905l12.784,0.04l0.039,2.872h-25.334L365.654,168.444L365.654,168.444z"/>
	<path fill="#FFFFFF" d="M430.045,169.271v2.792h-17.623c-0.354,0.984-0.708,2.282-1.021,3.147h13.452v2.4
		c-1.339,3.147-3.267,6.412-5.509,8.89c3.308,2.714,7.316,4.484,12.233,5.704l-2.045,2.4c-6.021-1.416-8.262-3.344-12.037-6.097
		c-3.344,3.265-7.789,5.153-12.431,6.019l-1.731-2.479c5.232-1.141,9.048-2.675,12.077-5.468c-1.377-1.337-4.288-5.546-5.313-7.75
		c-2.123,6.215-6.646,11.015-11.841,14.791l-2.163-2.518c6.729-4.17,11.486-11.172,13.258-19.04h-9.01v-2.596l3.619-9.008
		l2.636,1.376l-2.947,7.396h6.448c0.747-2.833,1.144-5.9,1.534-9.559l2.871,0.748c-0.472,3.383-0.865,6.294-1.416,8.851
		L430.045,169.271L430.045,169.271z M412.895,178.003c0.865,1.692,2.871,5.035,4.445,6.452c1.771-1.967,3.229-4.249,4.169-6.452
		H412.895z M422.571,168.483c-1.495-2.478-3.737-4.209-6.255-5.665l2.046-1.927c2.596,1.376,4.838,3.265,6.605,5.704
		L422.571,168.483z"/>
	<path fill="#FFFFFF" d="M439.089,184.376v-17.427h12.863l-0.039-7.199h3.146l-0.078,7.16l12.823,0.039v17.269h-3.104v-2.675h-9.719
		l0.078,13.257h-3.104l-0.039-13.257h-9.638l-0.079,2.833H439.089z M451.913,169.821h-9.717v8.89h9.756L451.913,169.821z
		 M464.618,169.821h-9.562v8.851h9.602L464.618,169.821z"/>
	<path fill="#FFFFFF" d="M507.061,161.246v33.358h-2.793l-0.039-2.754h-23.993v2.714h-2.95l0.039-33.318H507.061z M480.271,189.096
		h23.916v-25.058h-23.916V189.096z M503.244,186.303h-22.188v-2.793h9.479v-6.646h-7.788v-2.714h7.828v-5.035h-9.166v-2.675h21.438
		v2.714h-9.438v4.957h8.183v2.793h-8.222v6.648h9.873L503.244,186.303L503.244,186.303z M499.586,183.274
		c-1.534-2.006-2.911-3.383-4.878-4.524l1.928-1.534c1.652,0.983,3.776,2.518,5.035,4.563L499.586,183.274z"/>
</g>
<g>
	<rect x="294.16" y="215.745" fill="#F3F4F4" width="1.521" height="18.641"/>
	<g>
		<path fill="#F3F4F4" d="M266.733,226.434c-0.013,0.01-1.118,0.878-2.66,1.804c-0.613-0.854-0.789-1.771-0.939-2.138h4.208v-9.874
			h-9.801v16.913l0.03,0.022c0.006,0.004,0.56,0.454,1.215,1.164l0.028,0.03l0.038-0.006c1.195-0.293,2.976-0.439,3.381-0.446
			l-0.002-2.259c-0.758,0.001-1.906,0.152-2.21,0.2V226.1h0.589c0.326,2.174,3.256,6.888,5.97,8.334l1.863-1.862
			c-1.585-1.001-2.646-2.208-2.792-2.396c1.422-0.955,2.471-1.692,2.481-1.702l0.051-0.046l-1.385-2.051L266.733,226.434z
			 M260.021,222.139h5.017v1.623h-5.017V222.139z M265.038,220.158h-5.017v-1.597h5.017V220.158z"/>
		<path fill="#F3F4F4" d="M253.561,215.744h-2.485c0,0-0.15,3.166-1.979,6.554l1.403,1.979h1.154v1.603h-2.275v2.477h2.275v4.848
			l1.146,1.176l0.04-0.006c0.53-0.121,2.287-0.384,3.797-0.44v-2.137c-1.18,0-2.282,0.112-2.507,0.142v-3.583h2.545v-2.477h-2.545
			v-1.603h2.214v-2.48h-4.243c0.215-0.49,0.395-0.974,0.549-1.441h4.055v-2.478h-3.412
			C253.528,216.632,253.561,215.744,253.561,215.744z"/>
	</g>
	<g>
		<path fill="#F3F4F4" d="M219.638,215.75h-2.918c0,0,0.368,1.107,0.525,2.168h-7.6c0,0,0,2.69,0,8.208
			c-0.037,1.714-0.352,4.314-2.453,6.664l2.049,1.622c3.146-3.62,3.07-7.805,3.07-9.507c0-2.063-0.031-4.511-0.031-4.511h13.813
			v-2.477h-5.938C219.964,216.694,219.638,215.75,219.638,215.75z"/>
	</g>
	<g>
		<path fill="#F3F4F4" d="M240.64,229.996c1.6-1.494,3.002-3.565,3.654-5.396l-1.48-1.586h-7.457c0.15-0.395,0.473-1.105,0.6-1.483
			h10.354v-2.473h-1.827c-0.405-1.692-0.345-1.513-0.957-3.311h-2.726c0,0,0.75,2.038,1.021,3.311h-5.157
			c0.391-1.743,0.411-3.313,0.411-3.313h-2.511c0,0-0.005,1.591-0.451,3.313h-2.422c0.526-1.969,0.514-3.311,0.514-3.311h-2.479
			c0,0-0.008,1.638-0.884,4.139l-0.014,0.039l1.24,1.605h3.3c-0.776,2.093-2.316,5.463-5.849,8.911l1.713,1.758
			c2.262-2.22,3.661-4.179,4.69-5.999c0.384,0.785,1.005,1.844,1.955,2.952c0.216,0.253,0.438,0.498,0.664,0.732
			c-1.817,1.113-3.751,1.673-5.918,2.076l1.03,2.43c2.851-0.526,5.249-1.596,6.913-2.735c1.932,1.402,4.339,2.232,7.05,2.727
			l0.9-2.444C244.355,231.602,242.27,231.002,240.64,229.996z M236.339,225.486h4.783c-0.389,0.799-1.813,2.442-2.496,2.964
			C237.947,227.809,236.786,226.315,236.339,225.486z"/>
	</g>
	<g>
		<path fill="#F3F4F4" d="M272.101,223.07c2.188-1.06,4.643-4.91,4.722-7.32h-2.48c-0.149,2.13-2.399,4.567-3.428,5.147
			L272.101,223.07z"/>
		<path fill="#F3F4F4" d="M275.604,220.486c-0.468,2.553-3.421,5.533-5.117,6.303l1.043,2.249c0.814-0.379,1.596-1.094,2.211-1.539
			v6.887h2.478v-9.377c0.845-1.201,1.645-2.695,1.863-4.522L275.604,220.486L275.604,220.486z"/>
		<rect x="279.234" y="216.362" fill="#F3F4F4" width="9.604" height="2.566"/>
		<path fill="#F3F4F4" d="M289.435,222.004h-10.877v2.481h6.398v7.332c0,0-2.264-0.229-4.117-0.142v2.346
			c2.337-0.022,6.683,0.365,6.683,0.365v-9.9h1.913V222.004z"/>
	</g>
	<path fill="#F3F4F4" d="M308.597,234.369c-2.538,0-4.813-0.895-6.403-2.517c-1.64-1.676-2.499-4.011-2.495-6.751
		c-0.004-2.744,0.862-5.092,2.507-6.79c1.601-1.651,3.868-2.562,6.387-2.562c2.258,0.002,4.25,0.62,5.774,1.573l-0.9,2.583
		c-1.66-1.083-2.903-1.587-4.854-1.593c-1.81,0.001-3.327,0.614-4.398,1.768c-1.093,1.182-1.674,2.879-1.674,4.911
		c0,2.038,0.583,3.759,1.688,4.979c1.101,1.198,2.631,1.832,4.437,1.835c1.926,0,3.591-0.729,5.071-1.879l0.477,2.885
		c-1.589,0.991-3.534,1.558-5.598,1.558H308.597z"/>
	<path fill="#F3F4F4" d="M325.009,234.369c-2.535,0-4.81-0.895-6.396-2.517c-1.64-1.674-2.502-4.009-2.502-6.752
		c0-2.745,0.867-5.093,2.51-6.789c1.599-1.651,3.865-2.562,6.384-2.562c2.385,0.002,4.546,0.677,6.062,1.63l-0.938,2.604
		c-1.581-1.012-3.28-1.671-5.104-1.671c-1.81,0.001-3.326,0.614-4.396,1.768c-1.096,1.183-1.674,2.88-1.674,4.911
		c0,2.04,0.585,3.761,1.688,4.979c1.097,1.198,2.629,1.832,4.436,1.835c1.478,0,2.764-0.448,3.54-0.803v-3.733h-4.854v-2.646h7.588
		v7.98c-2.034,1.249-4.656,1.765-6.33,1.766H325.009z"/>
	<path fill="#F3F4F4" d="M335.135,234.129V216.02h6.075c2.101,0,3.721,0.458,4.822,1.359c1.024,0.839,1.565,2.069,1.563,3.558
		c0.016,1.606-0.831,2.935-2.378,3.741l-0.171,0.089l0.181,0.069c1.877,0.733,2.945,2.212,2.938,4.061
		c0.004,1.603-0.568,2.917-1.653,3.802c-1.161,0.949-2.888,1.43-5.13,1.43H335.135z M338,231.458h3.604
		c1.237,0,2.211-0.225,2.814-0.649c0.595-0.434,0.864-1.013,0.877-1.881c-0.013-0.902-0.349-1.501-1.094-1.944
		c-0.676-0.387-1.688-0.591-2.938-0.591H338V231.458z M338,223.751h3.042c1.188,0,2.139-0.252,2.772-0.73
		c0.604-0.459,0.902-1.075,0.916-1.882c-0.014-0.788-0.278-1.371-0.815-1.79c-0.563-0.43-1.43-0.657-2.508-0.657H338V223.751z"/>
	<path fill="#F3F4F4" d="M197.742,231.472c-5.624-6.476-9.643-13.101-12.711-21.936h-10.554
		c-2.914,8.543-7.023,15.389-12.708,21.936l5.274,9.13c8.807-1.698,16.742-1.675,25.41-0.002L197.742,231.472z M187.024,231.396
		c2.713,0.27,5.41,0.693,8.059,1.267l-2.924,5.055C190.327,235.706,188.608,233.586,187.024,231.396z M195.044,230.919
		c-3.053-0.642-6.165-1.09-9.29-1.341c-1.894-2.952-3.171-4.94-5.057-8.75c1.179-2.345,2.668-6.27,3.462-8.699
		C186.716,218.963,190.368,225.272,195.044,230.919z M179.755,222.742c1.174,2.299,2.471,4.544,3.867,6.695
		c-2.539-0.166-6.239-0.098-7.733,0C177.29,227.284,178.584,225.04,179.755,222.742z M182.671,211.233
		c-0.72,2.319-2.199,6.048-2.916,7.584c-1.237-2.71-2.254-5.53-2.912-7.584H182.671z M175.353,212.127
		c0.712,2.186,2.297,6.469,3.461,8.701c-1.65,3.183-3,5.843-5.055,8.75c-3.127,0.25-6.239,0.699-9.293,1.341
		C169.143,225.271,172.796,218.962,175.353,212.127z M167.353,237.719l-2.926-5.056c2.648-0.573,5.349-0.997,8.063-1.267
		C170.902,233.588,169.184,235.706,167.353,237.719z M168.897,238.539c2.089-2.325,4.033-4.781,5.799-7.331
		c1.677-0.249,7.885-0.229,10.118,0c1.766,2.549,3.71,5.006,5.8,7.331C182.862,237.205,175.034,237.469,168.897,238.539z"/>
</g>
</svg>
