<?xml version="1.0" encoding="utf-8"?>
<!-- Generator: Adobe Illustrator 16.0.0, SVG Export Plug-In . SVG Version: 6.00 Build 0)  -->
<!DOCTYPE svg PUBLIC "-//W3C//DTD SVG 1.1//EN" "http://www.w3.org/Graphics/SVG/1.1/DTD/svg11.dtd">
<svg version="1.1" id="Layer_1" xmlns="http://www.w3.org/2000/svg" xmlns:xlink="http://www.w3.org/1999/xlink" x="0px" y="0px"
	 width="768px" height="1024px" viewBox="0 0 768 1024" enable-background="new 0 0 768 1024" xml:space="preserve">
<g>
	<g>
		<path fill="#FFFFFF" d="M196.86,282.625v-5.009h3.697l-0.012-2.069h0.904l-0.022,2.058l3.688,0.012v4.963h-0.894v-0.769h-2.793
			l0.022,3.81h-0.893l-0.012-3.81h-2.77l-0.023,0.814H196.86z M200.546,278.441h-2.793v2.555h2.805L200.546,278.441z
			 M204.198,278.441h-2.748v2.544h2.76L204.198,278.441z"/>
		<path fill="#FFFFFF" d="M217.529,275.976v9.588h-0.803l-0.012-0.792h-6.897v0.78h-0.848l0.012-9.577L217.529,275.976
			L217.529,275.976z M209.829,283.981h6.874v-7.203h-6.874V283.981z M216.433,283.178h-6.378v-0.803h2.727v-1.911h-2.239v-0.78h2.25
			v-1.447h-2.634v-0.77h6.162v0.78h-2.714v1.425h2.352v0.803h-2.363v1.911h2.839L216.433,283.178L216.433,283.178z M215.381,282.308
			c-0.441-0.577-0.837-0.972-1.402-1.3l0.554-0.441c0.476,0.283,1.086,0.724,1.447,1.312L215.381,282.308z"/>
		<path fill="#FFFFFF" d="M223.24,278.045c0.033,1.64,0.09,4.082-0.407,5.337c-0.227,0.577-0.882,1.662-1.617,2.228l-0.679-0.645
			c0.565-0.373,1.877-1.685,1.877-4.002v-3.754h3.98c-0.271-0.407-0.825-0.871-1.481-1.153l0.645-0.43
			c0.713,0.328,1.277,0.701,1.73,1.323l-0.453,0.26l3.675,0.011l0.012,0.825H223.24z"/>
		<path fill="#FFFFFF" d="M233.28,284.094c1.131-0.564,2.262-1.413,3.324-2.748l0.6,0.543c-0.735,1.187-2.002,2.227-3.257,2.939
			L233.28,284.094z M237.973,280.114v-1.515h0.859v1.504h3.527v0.803h-3.539v3.89c-0.033,0.339-0.305,0.689-0.645,0.78
			c-0.327,0.09-0.724,0.067-1.13,0.056l-0.328-0.848l1.107,0.056c0.08-0.011,0.125-0.045,0.146-0.124v-3.788h-3.144v-0.757
			l1.493-2.442h-2.997v-0.803h3.449l0.655-1.312l0.78,0.305l-0.509,1.006h5.258l0.012,0.814h-5.608l-1.414,2.375H237.973z
			 M242.292,284.807c-0.916-1.165-1.968-2.058-3.02-2.748l0.498-0.588c1.255,0.689,2.329,1.696,3.223,2.668L242.292,284.807z"/>
		<path fill="#FFFFFF" d="M254.052,279.775v5.925h-0.848v-0.667h-4.342v0.667h-0.859v-5.167c-0.543,0.09-1.232,0.169-2.047,0.237
			l-0.44-0.859c0.949-0.068,1.752-0.136,2.521-0.271c1.718-0.317,3.154-0.826,4.466-2.171l0.633,0.576
			c-0.678,0.667-1.492,1.232-2.544,1.708L254.052,279.775z M245.899,278.237c1.143-0.498,2.126-1.21,2.963-2.16l0.599,0.577
			c-0.859,1.029-1.774,1.719-2.86,2.239L245.899,278.237z M248.851,283.495v0.712h4.354v-0.712H248.851z M248.862,281.234h4.342
			v-0.633h-4.342V281.234z M248.862,282.704h4.342v-0.679h-4.342V282.704z M250.14,278.373v-2.827h0.859v2.827H250.14z
			 M254.832,278.893c-0.814-0.983-1.741-1.775-2.939-2.193l0.667-0.588c1.176,0.396,2.126,1.198,3.008,2.182L254.832,278.893z"/>
		<path fill="#FFFFFF" d="M260.554,278.045c0.033,1.64,0.09,4.082-0.407,5.337c-0.227,0.577-0.882,1.662-1.617,2.228l-0.679-0.645
			c0.565-0.373,1.877-1.685,1.877-4.002v-3.754h3.98c-0.271-0.407-0.825-0.871-1.481-1.153l0.645-0.43
			c0.713,0.328,1.277,0.701,1.73,1.323l-0.453,0.26l3.675,0.011l0.012,0.825H260.554z"/>
		<path fill="#FFFFFF" d="M270.968,281.403c0.713-0.938,1.097-1.854,1.267-2.975l0.746,0.204c-0.113,1.165-0.565,2.159-1.198,3.132
			L270.968,281.403z M275.016,278.362c0.588,0.961,0.882,1.945,0.983,3.086l-0.779,0.396c-0.068-1.12-0.34-2.125-0.871-3.03
			l-0.022,2.307c0,1.323-0.486,2.996-2.363,4.489l-0.724-0.554c1.176-0.882,2.216-2.182,2.216-4.002v-5.405l0.871,0.011v3.008
			L275.016,278.362z M277.843,278.294c0.724,0.938,1.051,2.001,1.255,3.166l-0.837,0.271c-0.124-1.176-0.497-2.125-1.119-3.086
			l-0.022,6.332l-0.849-0.011v-8.864l0.849-0.012v2.499L277.843,278.294z M279.188,285.519v-9.939h0.871v9.939H279.188z"/>
		<path fill="#FFFFFF" d="M292.926,276.971v0.836h-9.656l-0.011-0.836h4.432c-0.248-0.351-0.655-0.734-1.142-0.973l0.633-0.588
			c0.622,0.294,1.074,0.814,1.481,1.402l-0.181,0.159H292.926z M288.505,280.284l0.011,5.371h-0.87v-5.371h-2.205l-0.011,4.207
			l-0.871,0.011v-5.054l3.087-0.011v-1.267l0.87-0.011v1.289h3.155l0.011,3.878c0,0.645-0.237,0.984-0.915,0.984h-1.019
			l-0.282-0.871l1.006,0.045c0.215,0.011,0.34-0.113,0.34-0.283l-0.012-2.917H288.505L288.505,280.284z"/>
	</g>
	<g>
		<path fill="#FFFFFF" d="M196.147,293.422l0.012-0.814h1.888l-0.011-1.413l-1.617,0.011v-0.837h1.628v-1.221l0.849,0.012
			l0.011,1.209l1.526,0.011l0.012,0.826l-1.538-0.011v1.413l1.854-0.011v0.825h-1.504v1.323h1.414l-0.012,0.825h-1.402v1.843
			c0.6,0.35,1.335,0.497,2.138,0.497h4.896l-0.498,0.814h-4.906c-1.356,0-2.488-0.679-3.302-1.526
			c-0.147,0.622-0.396,1.458-1.131,2.092l-0.6-0.554c0.882-0.894,0.995-2.16,0.995-3.313v-1.312h0.837l-0.012,1.956
			c0.103,0.249,0.476,0.622,0.735,0.792v-3.438L196.147,293.422L196.147,293.422z M205.962,295.593
			c-0.057,0.656-0.158,1.221-0.43,1.753c-0.079,0.147-0.339,0.26-0.543,0.249c-0.418-0.011-0.836-0.588-1.198-1.187
			c-0.43,0.599-0.927,0.972-1.515,1.391c-0.271-0.113-0.452-0.294-0.78-0.463c0.813-0.554,1.458-1.063,1.877-1.73
			c-0.521-1.199-0.746-2.612-0.871-3.935l-0.701-0.011l-0.011,3.743l1.153-0.679v0.95l-1.696,1.063l-0.769-0.52
			c0.373-0.305,0.43-0.656,0.463-1.029v-4.342h1.504l-0.058-1.798l0.837,0.011c0,0.667,0.034,1.3,0.068,1.798l2.352-0.022
			l0.012,0.836h-2.307c0.112,1.142,0.203,1.922,0.531,2.94c0.373-0.859,0.543-1.651,0.633-2.759l0.769,0.475
			c-0.112,1.244-0.497,2.284-0.972,3.279c0.169,0.35,0.384,0.712,0.678,1.006c0.103-0.238,0.158-0.871,0.17-1.504L205.962,295.593z
			 M204.877,290.788c-0.509-0.531-0.894-0.757-1.516-0.984l0.634-0.588c0.588,0.159,1.073,0.554,1.526,1.029L204.877,290.788z"/>
		<path fill="#FFFFFF" d="M213.956,294.259h-0.871v-1.911c-0.7,0.825-1.503,1.673-4.002,2.566l-0.555-0.769
			c1.278-0.384,2.624-1.063,3.449-1.832h-2.951l0.011-0.825h4.048v-0.859c-0.689,0.079-2.396,0.158-3.301,0.158l-0.453-0.871
			c1.866,0.158,5.688-0.136,7.564-0.848l0.498,0.656c-1.21,0.418-2.307,0.656-3.438,0.78l-0.012,0.995l4.082-0.011v0.825h-2.962
			c0.994,0.927,2.092,1.379,3.505,1.764l-0.531,0.769c-1.617-0.44-2.985-1.231-4.082-2.441L213.956,294.259L213.956,294.259z
			 M212.916,295.288c-0.261,2.929-2.726,3.652-3.822,3.878l-0.542-0.837c1.628-0.237,3.12-0.757,3.459-3.042h-1.582l0.011-0.803
			h5.518l-0.351,1.493h2.104c-0.158,0.825-0.283,1.504-0.61,2.295c-0.192,0.452-0.634,0.757-1.21,0.746
			c-0.588-0.011-1.176-0.09-1.787-0.249l-0.169-0.893c0.757,0.181,1.356,0.305,2.023,0.283c0.498-0.011,0.634-0.905,0.713-1.368
			h-2.138l0.351-1.504L212.916,295.288L212.916,295.288z"/>
		<path fill="#FFFFFF" d="M230.363,289.759v0.814h-7.813v7.236h8.188v0.814h-8.188v0.645h-0.859v-9.509H230.363L230.363,289.759z
			 M228.814,297.561l-0.182-0.317c-0.509-0.882-1.209-1.775-1.843-2.487c-0.791,1.097-1.775,1.979-3.008,2.872l-0.667-0.724
			c1.346-0.848,2.284-1.696,3.099-2.815c-0.735-0.803-1.81-1.787-2.906-2.624l0.645-0.531c1.018,0.792,1.899,1.538,2.736,2.42
			c0.486-0.69,1.006-1.481,1.538-2.454l0.724,0.396c-0.385,0.746-0.701,1.232-1.108,1.877c-0.192,0.294-0.385,0.588-0.543,0.837
			c0.622,0.656,1.595,1.82,2.262,3.053L228.814,297.561z"/>
		<path fill="#FFFFFF" d="M233.28,297.663c1.131-0.565,2.262-1.413,3.324-2.748l0.6,0.543c-0.735,1.187-2.002,2.227-3.257,2.939
			L233.28,297.663z M237.973,293.683v-1.515h0.859v1.504h3.527v0.803h-3.539v3.89c-0.033,0.339-0.305,0.688-0.645,0.78
			c-0.327,0.09-0.724,0.067-1.13,0.056l-0.328-0.848l1.107,0.056c0.08-0.011,0.125-0.045,0.146-0.124v-3.788h-3.144v-0.757
			l1.493-2.442h-2.997v-0.803h3.449l0.655-1.312l0.78,0.305l-0.509,1.006h5.258l0.012,0.814h-5.608l-1.414,2.375H237.973
			L237.973,293.683z M242.292,298.375c-0.916-1.165-1.968-2.058-3.02-2.748l0.498-0.588c1.255,0.689,2.329,1.696,3.223,2.668
			L242.292,298.375z"/>
		<path fill="#FFFFFF" d="M253.735,289.533v3.889c0,1.662,0.306,3.505,1.108,4.67l0.158-0.938l0.78,0.452l-0.147,0.645
			c-0.091,0.271-0.203,0.656-0.543,0.803c-0.282,0.103-0.655-0.079-0.87-0.328c-0.995-1.221-1.21-3.042-1.289-4.398
			c-0.079-1.176-0.045-2.386-0.057-4.002l-4.964,0.011l-0.011,3.957c0,1.753-0.588,3.799-1.753,4.874l-0.724-0.599
			c1.04-0.995,1.628-2.578,1.628-4.489l0.012-4.545h6.672V289.533z M247.687,297.222c0.848-0.609,2.125-2.25,2.521-2.793
			c-0.521-0.735-1.425-1.673-2.104-2.318l0.577-0.52c0.644,0.565,1.436,1.357,1.989,2.058c0.192-0.249,0.859-1.47,1.21-2.341
			l0.713,0.407c-0.261,0.667-0.95,2.081-1.392,2.646c0.577,0.792,1.323,1.922,1.662,3.03l-0.77,0.441
			c-0.351-1.04-0.961-2.125-1.402-2.725c-0.418,0.588-1.266,1.73-2.317,2.736L247.687,297.222z"/>
		<path fill="#FFFFFF" d="M258.156,297.663c1.131-0.565,2.262-1.413,3.324-2.748l0.6,0.543c-0.735,1.187-2.002,2.227-3.257,2.939
			L258.156,297.663z M262.849,293.683v-1.515h0.859v1.504h3.527v0.803h-3.539v3.89c-0.033,0.339-0.305,0.688-0.646,0.78
			c-0.327,0.09-0.724,0.067-1.13,0.056l-0.328-0.848l1.107,0.056c0.08-0.011,0.125-0.045,0.147-0.124v-3.788h-3.144v-0.757
			l1.493-2.442h-2.997v-0.803h3.449l0.655-1.312l0.78,0.305l-0.509,1.006h5.258l0.012,0.814h-5.608l-1.413,2.375H262.849
			L262.849,293.683z M267.168,298.375c-0.916-1.165-1.968-2.058-3.02-2.748l0.498-0.588c1.255,0.689,2.329,1.696,3.223,2.668
			L267.168,298.375z"/>
		<path fill="#FFFFFF" d="M277.006,289.262c-0.079,0.373-0.204,0.646-0.283,0.837h2.985v0.689c-0.441,1.267-1.018,1.787-1.561,2.34
			c0.6,0.565,1.753,1.142,2.805,1.504l-0.645,0.69c-0.701-0.204-2.092-0.973-2.782-1.617c-0.554,0.453-1.209,0.882-2.023,1.244
			l3.878,0.021v4.206h-0.87v-0.588h-2.138l-0.022,0.622h-0.893v-4.229c-0.215,0.102-0.713,0.294-0.938,0.373l-0.215-0.316h-0.961
			v1.899c0.361-0.147,0.915-0.373,1.515-0.588v0.871c-0.554,0.237-1.063,0.441-1.549,0.656l-2.375,1.018l-0.045-0.102l-0.554-0.656
			c0.328-0.136,0.554-0.181,0.712-0.26v-3.98l0.837,0.011l-0.021,3.743l0.021-0.125l0.588-0.237v-4.319h-1.277v-3.347l3.232-0.011
			l0.012,2.849c0.961-0.961,1.356-2.148,1.774-3.482L277.006,289.262z M273.568,292.145v-1.708h-1.538v1.708H273.568z
			 M274.439,292.755v0.204h-1.097l0.011,1.255h1.086v0.271c0.825-0.305,1.798-0.792,2.532-1.402
			c-0.385-0.475-0.688-0.961-0.927-1.368c-0.113,0.204-0.543,0.938-1.052,1.391L274.439,292.755z M276.339,295.797v1.967
			l2.148,0.012v-1.99L276.339,295.797z M276.564,290.913c0.215,0.52,0.555,1.018,1.018,1.605c0.498-0.531,0.758-0.905,1.097-1.605
			H276.564z"/>
		<path fill="#FFFFFF" d="M285.949,294.893c-0.44,1.198-0.734,2.499-0.791,3.562h-1.018c0.022-1.097,0.361-2.555,0.916-3.901
			c0.35-0.848,0.712-1.504,1.255-2.284c0.282-0.407,0.384-0.532,0.655-0.848h-3.957v-0.95h5.235v0.769
			C287.228,292.27,286.492,293.434,285.949,294.893z"/>
		<path fill="#FFFFFF" d="M293.107,298.454v-6.332c-0.328,0.317-0.645,0.532-1.232,0.848c-0.362,0.192-0.464,0.238-0.758,0.353
			v-0.961c1.074-0.498,1.968-1.289,2.341-2.035h0.645v8.129L293.107,298.454L293.107,298.454z"/>
		<path fill="#FFFFFF" d="M300.354,298.59c-1.411,0-2.44-0.905-2.576-2.273l0.994-0.135c0.078,0.373,0.104,0.475,0.216,0.712
			c0.249,0.554,0.758,0.882,1.366,0.882c0.938,0,1.662-0.735,1.662-1.696c0-0.904-0.653-1.56-1.583-1.56
			c-0.215,0-0.372,0.022-0.7,0.102l0.112-0.871c0.079,0.011,0.113,0.011,0.158,0.011c0.973,0,1.651-0.554,1.651-1.357
			c0-0.735-0.557-1.255-1.323-1.255c-0.803,0-1.323,0.52-1.458,1.458l-0.995-0.181c0.237-1.334,1.13-2.103,2.431-2.103
			c1.348,0,2.363,0.916,2.363,2.103c0,0.735-0.385,1.313-1.107,1.628c0.361,0.103,0.498,0.158,0.714,0.317
			c0.509,0.35,0.803,0.972,0.803,1.685C303.08,297.504,301.903,298.59,300.354,298.59z"/>
		<path fill="#FFFFFF" d="M309.943,297.798c0.555,0.249,0.961,0.373,1.4,0.452c0.146,0.011,0.271-0.068,0.353-0.192
			c0.396-0.859,0.529-1.538,0.7-2.409h-4.683l0.509-1.707h-2.949v-0.792h9.634v0.792h-5.755c-0.093,0.271-0.17,0.656-0.249,0.893
			h4.521c-0.215,1.255-0.438,2.454-0.893,3.528c-0.204,0.486-0.622,0.769-1.099,0.746c-0.385-0.011-0.778-0.113-1.165-0.226
			L309.943,297.798z M307.083,292.654v-3.145h5.959v3.145H307.083z M312.183,290.325h-4.252v1.526h4.252V290.325z"/>
	</g>
	<path fill="#FFFFFF" d="M183.534,287.342c-0.269,0.855-0.672,1.665-1.196,2.408c-1.295,1.838-3.188,3.936-4.975,5.913
		c-0.785,0.871-1.552,1.72-2.229,2.5c-0.676-0.782-1.443-1.63-2.229-2.502c-1.782-1.975-3.676-4.073-4.972-5.91
		c-0.527-0.759-0.932-1.571-1.199-2.424c-0.269-0.842-0.406-1.728-0.406-2.646c0-2.431,0.987-4.633,2.579-6.226
		c1.596-1.594,3.796-2.582,6.229-2.582c2.432,0,4.635,0.987,6.229,2.582c1.593,1.592,2.579,3.795,2.579,6.226h0.002
		C183.944,285.59,183.805,286.486,183.534,287.342 M181.724,278.094c-1.686-1.686-4.014-2.728-6.588-2.728
		c-2.572,0-4.9,1.042-6.587,2.728c-1.687,1.688-2.729,4.015-2.729,6.586c0,0.97,0.146,1.908,0.429,2.801
		c0.285,0.902,0.71,1.758,1.269,2.561l0,0v0.001c1.311,1.855,3.217,3.968,5.014,5.959c0.852,0.938,1.676,1.85,2.408,2.711
		c0.011,0.011,0.021,0.021,0.034,0.031c0.104,0.092,0.265,0.078,0.356-0.027c0.736-0.861,1.561-1.774,2.41-2.714
		c1.798-1.991,3.705-4.105,5.016-5.96c0.555-0.788,0.979-1.646,1.264-2.548c0.285-0.901,0.432-1.847,0.432-2.814h0.002
		C184.452,282.109,183.409,279.78,181.724,278.094"/>
	<path fill="#FFFFFF" d="M179.264,284.682c0,1.14-0.463,2.172-1.209,2.919c-0.747,0.747-1.779,1.208-2.919,1.208
		c-1.139,0-2.172-0.461-2.918-1.208c-0.748-0.747-1.209-1.78-1.209-2.919c0-1.14,0.461-2.171,1.209-2.92
		c0.746-0.746,1.779-1.209,2.918-1.209h0.002c1.138,0,2.17,0.463,2.917,1.209C178.801,282.51,179.264,283.541,179.264,284.682
		L179.264,284.682z M175.138,280.045h-0.002c-1.279,0-2.438,0.519-3.279,1.358c-0.839,0.839-1.357,1.999-1.357,3.278h0.003
		c0,1.281,0.516,2.44,1.354,3.279c0.84,0.839,2,1.357,3.279,1.357c1.279,0,2.44-0.518,3.279-1.357s1.358-1.998,1.358-3.279v-0.001
		c0-1.28-0.52-2.438-1.358-3.277C177.577,280.564,176.418,280.045,175.138,280.045"/>
</g>
</svg>
