<?xml version="1.0" encoding="utf-8"?>
<!-- Generator: Adobe Illustrator 16.0.0, SVG Export Plug-In . SVG Version: 6.00 Build 0)  -->
<!DOCTYPE svg PUBLIC "-//W3C//DTD SVG 1.1//EN" "http://www.w3.org/Graphics/SVG/1.1/DTD/svg11.dtd">
<svg version="1.1" id="Layer_1" xmlns="http://www.w3.org/2000/svg" xmlns:xlink="http://www.w3.org/1999/xlink" x="0px" y="0px"
	 width="768px" height="1024px" viewBox="0 0 768 1024" enable-background="new 0 0 768 1024" xml:space="preserve">
<g>
	<g>
		<path fill="#FFFFFF" d="M198.533,326.248c-1.56,0-2.668-1.029-2.668-2.476c0-0.69,0.271-1.3,0.746-1.685
			c0.237-0.192,0.385-0.26,0.791-0.362c-0.327-0.124-0.452-0.181-0.621-0.328c-0.385-0.305-0.6-0.78-0.6-1.323
			c0-1.221,0.973-2.092,2.329-2.092c1.368,0,2.353,0.893,2.353,2.114c0,0.792-0.396,1.323-1.188,1.617
			c0.384,0.136,0.521,0.204,0.757,0.385c0.486,0.384,0.758,1.006,0.758,1.696C201.19,325.219,200.071,326.248,198.533,326.248z
			 M198.511,322.155c-0.938,0-1.628,0.701-1.628,1.628c0,0.95,0.701,1.651,1.662,1.651c0.949,0,1.628-0.679,1.628-1.628
			C200.173,322.857,199.472,322.155,198.511,322.155z M198.522,318.808c-0.746,0-1.312,0.543-1.312,1.267
			c0,0.724,0.554,1.266,1.322,1.266c0.746,0,1.312-0.531,1.312-1.244C199.845,319.362,199.269,318.808,198.522,318.808z"/>
		<path fill="#FFFFFF" d="M206.054,326.248c-1.029,0-1.945-0.554-2.375-1.447c-0.306-0.633-0.43-1.391-0.43-2.476
			c0-2.838,0.995-4.342,2.895-4.342c1.289,0,2.137,0.746,2.307,2.012l-0.995,0.091c-0.113-0.837-0.565-1.278-1.312-1.278
			c-0.734,0-1.289,0.396-1.571,1.108c-0.204,0.521-0.34,1.267-0.34,1.866v0.158c0.182-0.283,0.271-0.384,0.476-0.554
			c0.418-0.328,0.949-0.52,1.492-0.52c1.368,0,2.386,1.119,2.386,2.612C208.586,325.095,207.534,326.248,206.054,326.248z
			 M205.997,321.737c-0.928,0-1.605,0.746-1.605,1.741c0,1.108,0.712,1.956,1.639,1.956c0.894,0,1.538-0.792,1.538-1.888
			C207.568,322.472,206.936,321.737,205.997,321.737z"/>
		<path fill="#FFFFFF" d="M210.575,323.681v-0.995h3.042v0.995H210.575z"/>
		<path fill="#FFFFFF" d="M215.438,326.112c0.057-0.463,0.113-0.656,0.271-0.972c0.305-0.611,0.825-1.199,1.639-1.866l0.374-0.305
			c1.492-1.221,2.058-1.99,2.058-2.759c0-0.814-0.646-1.402-1.526-1.402c-0.973,0-1.572,0.611-1.583,1.628l-1.018-0.113
			c0.136-1.515,1.063-2.34,2.623-2.34c1.504,0,2.532,0.916,2.532,2.25c0,0.961-0.565,1.82-1.989,3.019l-0.814,0.69
			c-0.667,0.565-0.938,0.859-1.165,1.221h3.98v0.95L215.438,326.112L215.438,326.112z"/>
		<path fill="#FFFFFF" d="M225.659,326.248c-1.052,0-1.854-0.554-2.261-1.572c-0.261-0.656-0.374-1.458-0.374-2.578
			c0-2.725,0.883-4.116,2.635-4.116c1.753,0,2.635,1.391,2.635,4.138S227.412,326.248,225.659,326.248z M226.982,319.814
			c-0.227-0.622-0.735-1.006-1.334-1.006c-1.108,0-1.606,1.04-1.606,3.302c0,1.006,0.103,1.775,0.295,2.307
			c0.226,0.633,0.734,1.018,1.322,1.018s1.097-0.385,1.323-1.018c0.192-0.521,0.294-1.3,0.294-2.295
			S227.186,320.369,226.982,319.814z"/>
		<path fill="#FFFFFF" d="M230.308,323.681v-0.995h3.041v0.995H230.308z"/>
		<path fill="#FFFFFF" d="M237.916,326.248c-1.413,0-2.442-0.905-2.578-2.273l0.995-0.135c0.079,0.373,0.103,0.475,0.215,0.712
			c0.249,0.554,0.758,0.882,1.368,0.882c0.938,0,1.662-0.735,1.662-1.696c0-0.904-0.655-1.56-1.583-1.56
			c-0.215,0-0.373,0.022-0.701,0.102l0.113-0.871c0.079,0.011,0.113,0.011,0.158,0.011c0.973,0,1.651-0.554,1.651-1.357
			c0-0.735-0.555-1.255-1.323-1.255c-0.803,0-1.323,0.521-1.458,1.458l-0.995-0.181c0.237-1.334,1.13-2.103,2.431-2.103
			c1.346,0,2.363,0.916,2.363,2.103c0,0.735-0.385,1.312-1.108,1.628c0.362,0.102,0.498,0.158,0.713,0.317
			c0.509,0.35,0.803,0.972,0.803,1.685C240.642,325.163,239.465,326.248,237.916,326.248z"/>
		<path fill="#FFFFFF" d="M245.413,326.248c-1.56,0-2.668-1.029-2.668-2.476c0-0.69,0.271-1.3,0.746-1.685
			c0.237-0.192,0.385-0.26,0.791-0.362c-0.327-0.124-0.452-0.181-0.621-0.328c-0.385-0.305-0.6-0.78-0.6-1.323
			c0-1.221,0.973-2.092,2.329-2.092c1.368,0,2.352,0.893,2.352,2.114c0,0.792-0.396,1.323-1.188,1.617
			c0.384,0.136,0.521,0.204,0.757,0.385c0.486,0.384,0.758,1.006,0.758,1.696C248.07,325.219,246.951,326.248,245.413,326.248z
			 M245.391,322.155c-0.938,0-1.628,0.701-1.628,1.628c0,0.95,0.701,1.651,1.662,1.651c0.949,0,1.628-0.679,1.628-1.628
			C247.053,322.857,246.352,322.155,245.391,322.155z M245.402,318.808c-0.746,0-1.312,0.543-1.312,1.267
			c0,0.724,0.554,1.266,1.322,1.266c0.746,0,1.312-0.531,1.312-1.244C246.725,319.362,246.148,318.808,245.402,318.808z"/>
		<path fill="#FFFFFF" d="M252.751,326.248c-1.413,0-2.442-0.905-2.578-2.273l0.995-0.135c0.079,0.373,0.103,0.475,0.215,0.712
			c0.249,0.554,0.758,0.882,1.368,0.882c0.938,0,1.662-0.735,1.662-1.696c0-0.904-0.655-1.56-1.583-1.56
			c-0.215,0-0.373,0.022-0.701,0.102l0.113-0.871c0.079,0.011,0.113,0.011,0.158,0.011c0.973,0,1.651-0.554,1.651-1.357
			c0-0.735-0.555-1.255-1.323-1.255c-0.803,0-1.323,0.521-1.458,1.458l-0.995-0.181c0.237-1.334,1.13-2.103,2.431-2.103
			c1.346,0,2.363,0.916,2.363,2.103c0,0.735-0.385,1.312-1.108,1.628c0.362,0.102,0.498,0.158,0.713,0.317
			c0.509,0.35,0.803,0.972,0.803,1.685C255.477,325.163,254.3,326.248,252.751,326.248z"/>
		<path fill="#FFFFFF" d="M257.422,326.112c0.057-0.463,0.113-0.656,0.271-0.972c0.305-0.611,0.825-1.199,1.639-1.866l0.374-0.305
			c1.492-1.221,2.058-1.99,2.058-2.759c0-0.814-0.645-1.402-1.526-1.402c-0.973,0-1.572,0.611-1.583,1.628l-1.019-0.113
			c0.136-1.515,1.063-2.34,2.623-2.34c1.504,0,2.532,0.916,2.532,2.25c0,0.961-0.565,1.82-1.989,3.019l-0.813,0.69
			c-0.667,0.565-0.938,0.859-1.165,1.221h3.979v0.95L257.422,326.112L257.422,326.112z"/>
		<path fill="#FFFFFF" d="M264.839,326.112c0.057-0.463,0.113-0.656,0.271-0.972c0.305-0.611,0.825-1.199,1.639-1.866l0.374-0.305
			c1.492-1.221,2.058-1.99,2.058-2.759c0-0.814-0.645-1.402-1.526-1.402c-0.973,0-1.572,0.611-1.583,1.628l-1.019-0.113
			c0.136-1.515,1.063-2.34,2.623-2.34c1.504,0,2.532,0.916,2.532,2.25c0,0.961-0.565,1.82-1.989,3.019l-0.813,0.69
			c-0.667,0.565-0.938,0.859-1.165,1.221h3.979v0.95L264.839,326.112L264.839,326.112z"/>
		<path fill="#FFFFFF" d="M275.083,326.248c-1.56,0-2.668-1.029-2.668-2.476c0-0.69,0.271-1.3,0.746-1.685
			c0.237-0.192,0.385-0.26,0.791-0.362c-0.327-0.124-0.452-0.181-0.621-0.328c-0.385-0.305-0.6-0.78-0.6-1.323
			c0-1.221,0.973-2.092,2.329-2.092c1.368,0,2.352,0.893,2.352,2.114c0,0.792-0.396,1.323-1.187,1.617
			c0.384,0.136,0.52,0.204,0.757,0.385c0.486,0.384,0.758,1.006,0.758,1.696C277.74,325.219,276.621,326.248,275.083,326.248z
			 M275.061,322.155c-0.938,0-1.628,0.701-1.628,1.628c0,0.95,0.701,1.651,1.662,1.651c0.949,0,1.628-0.679,1.628-1.628
			C276.723,322.857,276.021,322.155,275.061,322.155z M275.072,318.808c-0.746,0-1.313,0.543-1.313,1.267
			c0,0.724,0.554,1.266,1.322,1.266c0.746,0,1.312-0.531,1.312-1.244C276.395,319.362,275.818,318.808,275.072,318.808z"/>
		<path fill="#FFFFFF" d="M282.5,326.248c-1.56,0-2.668-1.029-2.668-2.476c0-0.69,0.271-1.3,0.746-1.685
			c0.237-0.192,0.385-0.26,0.791-0.362c-0.327-0.124-0.452-0.181-0.621-0.328c-0.385-0.305-0.6-0.78-0.6-1.323
			c0-1.221,0.973-2.092,2.329-2.092c1.368,0,2.352,0.893,2.352,2.114c0,0.792-0.396,1.323-1.187,1.617
			c0.384,0.136,0.52,0.204,0.757,0.385c0.486,0.384,0.758,1.006,0.758,1.696C285.157,325.219,284.038,326.248,282.5,326.248z
			 M282.478,322.155c-0.938,0-1.628,0.701-1.628,1.628c0,0.95,0.701,1.651,1.662,1.651c0.949,0,1.628-0.679,1.628-1.628
			C284.14,322.857,283.438,322.155,282.478,322.155z M282.489,318.808c-0.746,0-1.313,0.543-1.313,1.267
			c0,0.724,0.554,1.266,1.322,1.266c0.746,0,1.312-0.531,1.312-1.244C283.812,319.362,283.235,318.808,282.489,318.808z"/>
		<path fill="#FFFFFF" d="M289.918,326.248c-1.56,0-2.668-1.029-2.668-2.476c0-0.69,0.271-1.3,0.746-1.685
			c0.237-0.192,0.385-0.26,0.791-0.362c-0.327-0.124-0.452-0.181-0.621-0.328c-0.385-0.305-0.6-0.78-0.6-1.323
			c0-1.221,0.973-2.092,2.329-2.092c1.368,0,2.352,0.893,2.352,2.114c0,0.792-0.396,1.323-1.187,1.617
			c0.384,0.136,0.52,0.204,0.757,0.385c0.486,0.384,0.758,1.006,0.758,1.696C292.575,325.219,291.456,326.248,289.918,326.248z
			 M289.896,322.155c-0.938,0-1.628,0.701-1.628,1.628c0,0.95,0.701,1.651,1.662,1.651c0.949,0,1.628-0.679,1.628-1.628
			C291.558,322.857,290.856,322.155,289.896,322.155z M289.907,318.808c-0.746,0-1.313,0.543-1.313,1.267
			c0,0.724,0.554,1.266,1.322,1.266c0.746,0,1.312-0.531,1.312-1.244C291.229,319.362,290.653,318.808,289.907,318.808z"/>
	</g>
	<path fill="#FFFFFF" d="M177.284,323.292h-1.122c-0.112,0-0.201,0.09-0.201,0.203c0,0.11,0.089,0.201,0.201,0.201h1.122
		c0.109,0,0.202-0.09,0.202-0.201C177.486,323.382,177.394,323.292,177.284,323.292"/>
	<path fill="#FFFFFF" d="M179.071,326.834h-1.121c-0.112,0-0.203,0.09-0.203,0.203c0,0.11,0.091,0.2,0.203,0.2h1.121
		c0.11,0,0.201-0.09,0.201-0.2C179.272,326.924,179.182,326.834,179.071,326.834"/>
	<path fill="#FFFFFF" d="M177.284,325.062h-1.122c-0.112,0-0.201,0.089-0.201,0.203c0,0.111,0.089,0.201,0.201,0.201h1.122
		c0.109,0,0.202-0.09,0.202-0.201C177.486,325.151,177.394,325.062,177.284,325.062"/>
	<path fill="#FFFFFF" d="M177.284,326.834h-1.122c-0.112,0-0.201,0.09-0.201,0.203c0,0.11,0.089,0.2,0.201,0.2h1.122
		c0.109,0,0.202-0.09,0.202-0.2C177.486,326.924,177.394,326.834,177.284,326.834"/>
	<path fill="#FFFFFF" d="M183.657,329.001c0,0.225-0.091,0.425-0.238,0.572c-0.146,0.146-0.348,0.238-0.57,0.238h-9.487v-0.005
		v-12.908h9.487c0.223,0,0.424,0.091,0.57,0.237l0.002,0.001c0.146,0.146,0.236,0.347,0.236,0.571V329.001z M172.959,316.696v13.11
		c0,0.222-0.091,0.425-0.237,0.57c-0.147,0.146-0.351,0.237-0.572,0.237h-3.544c-0.222,0-0.425-0.091-0.571-0.236l-0.002-0.001
		c-0.146-0.145-0.236-0.348-0.236-0.57v-13.11v-0.328c0-0.223,0.091-0.426,0.238-0.572c0.146-0.146,0.35-0.236,0.571-0.236h3.544
		c0.222,0,0.425,0.089,0.572,0.236h0.001c0.146,0.146,0.236,0.35,0.236,0.572V316.696L172.959,316.696z M167.394,329.806v0.005
		h-0.361c-0.223,0-0.426-0.091-0.571-0.237v-0.001c-0.145-0.146-0.235-0.347-0.235-0.572v-11.293c0-0.223,0.091-0.427,0.235-0.571
		c0.146-0.146,0.35-0.238,0.571-0.238h0.361V329.806z M183.707,316.85h-0.003c-0.218-0.22-0.522-0.357-0.855-0.357h-9.487v-0.125
		v-3.05c0-0.111-0.088-0.202-0.2-0.202c-0.113,0-0.202,0.091-0.202,0.202v2.148c-0.216-0.192-0.501-0.31-0.81-0.31h-3.544
		c-0.333,0-0.637,0.135-0.858,0.355c-0.218,0.218-0.354,0.522-0.354,0.856v0.125h-0.361c-0.333,0-0.636,0.137-0.855,0.357
		c-0.221,0.218-0.356,0.522-0.356,0.857V329c0,0.334,0.137,0.635,0.354,0.855l0.002,0.003c0.221,0.219,0.522,0.357,0.855,0.357
		h0.433c0.062,0.167,0.16,0.32,0.282,0.445h0.003v0.001l0.002,0.001c0.22,0.218,0.522,0.354,0.854,0.354h3.544
		c0.333,0,0.639-0.136,0.855-0.356c0.127-0.125,0.225-0.277,0.285-0.446h9.559c0.333,0,0.638-0.138,0.858-0.357
		c0.218-0.221,0.355-0.522,0.355-0.858v-11.293C184.063,317.373,183.925,317.07,183.707,316.85"/>
	<path fill="#FFFFFF" d="M180.857,325.062h-1.12c-0.114,0-0.203,0.089-0.203,0.203c0,0.111,0.089,0.201,0.203,0.201h1.12
		c0.11,0,0.202-0.09,0.202-0.201C181.06,325.151,180.968,325.062,180.857,325.062"/>
	<path fill="#FFFFFF" d="M180.857,323.292h-1.12c-0.114,0-0.203,0.09-0.203,0.203c0,0.11,0.089,0.201,0.203,0.201h1.12
		c0.11,0,0.202-0.09,0.202-0.201C181.06,323.382,180.968,323.292,180.857,323.292"/>
	<path fill="#FFFFFF" d="M180.988,320.181h-4.957v-1.193h4.957V320.181z M181.19,318.585h-5.361c-0.112,0-0.201,0.089-0.201,0.203
		v1.594c0,0.112,0.089,0.203,0.201,0.203h5.361c0.111,0,0.202-0.091,0.202-0.203v-1.594
		C181.393,318.674,181.302,318.585,181.19,318.585"/>
	<path fill="#FFFFFF" d="M179.071,325.062h-1.121c-0.112,0-0.203,0.089-0.203,0.203c0,0.111,0.091,0.201,0.203,0.201h1.121
		c0.11,0,0.201-0.09,0.201-0.201C179.272,325.151,179.182,325.062,179.071,325.062"/>
	<path fill="#FFFFFF" d="M179.071,323.292h-1.121c-0.112,0-0.203,0.09-0.203,0.203c0,0.11,0.091,0.201,0.203,0.201h1.121
		c0.11,0,0.201-0.09,0.201-0.201C179.272,323.382,179.182,323.292,179.071,323.292"/>
	<path fill="#FFFFFF" d="M180.857,326.834h-1.12c-0.114,0-0.203,0.09-0.203,0.203c0,0.11,0.089,0.2,0.203,0.2h1.12
		c0.11,0,0.202-0.09,0.202-0.2C181.06,326.924,180.968,326.834,180.857,326.834"/>
</g>
</svg>
