<?xml version="1.0" encoding="utf-8"?>
<!-- Generator: Adobe Illustrator 16.0.0, SVG Export Plug-In . SVG Version: 6.00 Build 0)  -->
<!DOCTYPE svg PUBLIC "-//W3C//DTD SVG 1.1//EN" "http://www.w3.org/Graphics/SVG/1.1/DTD/svg11.dtd">
<svg version="1.1" id="Layer_1" xmlns="http://www.w3.org/2000/svg" xmlns:xlink="http://www.w3.org/1999/xlink" x="0px" y="0px"
	 width="768px" height="1024px" viewBox="0 0 768 1024" enable-background="new 0 0 768 1024" xml:space="preserve">
<g>
	<path fill="#FFFFFF" d="M183.772,354.997c0,0.212-0.085,0.406-0.225,0.547h-0.002c-0.139,0.139-0.333,0.226-0.545,0.226h-16.021
		c-0.214,0-0.406-0.087-0.548-0.226c-0.14-0.141-0.228-0.335-0.228-0.547v-5.539c0-0.214,0.088-0.407,0.228-0.546
		c0.142-0.14,0.332-0.227,0.548-0.227h1.661v1.667c0,0.107,0.085,0.194,0.192,0.194h12.316c0.105,0,0.193-0.087,0.193-0.194v-1.667
		h1.658c0.212,0,0.406,0.086,0.545,0.227c0.142,0.141,0.227,0.333,0.227,0.546L183.772,354.997L183.772,354.997z M169.945,341.696
		c0-0.212,0.086-0.406,0.229-0.545c0.138-0.141,0.331-0.228,0.546-0.228h5.549v2.417c0,0.322,0.131,0.61,0.341,0.819
		c0.21,0.21,0.499,0.34,0.82,0.34h2.414l-0.007,5.66h-9.892V341.696z M176.657,341.197l2.914,2.917h-2.143
		c-0.214,0-0.407-0.085-0.549-0.228c-0.139-0.141-0.224-0.333-0.224-0.547L176.657,341.197L176.657,341.197z M183.819,348.639
		c-0.211-0.211-0.499-0.341-0.818-0.341h-1.852c-0.107,0-0.193,0.087-0.193,0.194v1.667h-0.732l0.006-5.835v-0.017
		c0-0.059-0.027-0.111-0.068-0.146l-3.552-3.556c-0.038-0.043-0.086-0.067-0.147-0.067h-0.019h-5.724
		c-0.321,0-0.608,0.13-0.82,0.338c-0.212,0.211-0.341,0.5-0.341,0.82v8.463h-0.532v-1.667c0-0.107-0.088-0.194-0.193-0.194h-1.854
		c-0.319,0-0.61,0.13-0.819,0.341v0.001l-0.003,0.001c-0.21,0.211-0.339,0.498-0.339,0.816v5.539c0,0.319,0.132,0.61,0.342,0.818
		c0.209,0.21,0.5,0.34,0.819,0.34h16.021c0.319,0,0.607-0.13,0.818-0.34c0.212-0.209,0.341-0.499,0.341-0.818v-5.539
		C184.16,349.139,184.031,348.848,183.819,348.639"/>
	<path fill="#FFFFFF" d="M180.662,352.563h-0.587v-0.537h0.587V352.563z M179.886,351.643c-0.109,0-0.193,0.086-0.193,0.191v0.92
		c0,0.106,0.084,0.193,0.189,0.193l0.975,0.001c0.104,0,0.19-0.087,0.19-0.194v-0.919c0-0.106-0.086-0.192-0.19-0.192H179.886
		L179.886,351.643z"/>
	<path fill="#FFFFFF" d="M169.123,354.293c-0.106,0-0.193,0.086-0.193,0.191c0,0.107,0.087,0.194,0.193,0.194h11.73
		c0.106,0,0.193-0.087,0.193-0.194c0-0.105-0.087-0.191-0.193-0.191H169.123z"/>
	<g>
		<path fill="#FFFFFF" d="M198.533,352.53c-1.56,0-2.668-1.029-2.668-2.478c0-0.688,0.271-1.3,0.746-1.685
			c0.237-0.192,0.385-0.26,0.791-0.362c-0.327-0.124-0.452-0.181-0.621-0.328c-0.385-0.305-0.6-0.78-0.6-1.323
			c0-1.221,0.973-2.092,2.329-2.092c1.368,0,2.353,0.894,2.353,2.114c0,0.792-0.396,1.323-1.188,1.617
			c0.384,0.136,0.521,0.204,0.757,0.385c0.486,0.384,0.758,1.006,0.758,1.696C201.19,351.501,200.071,352.53,198.533,352.53z
			 M198.511,348.437c-0.938,0-1.628,0.701-1.628,1.628c0,0.95,0.701,1.651,1.662,1.651c0.949,0,1.628-0.679,1.628-1.628
			C200.173,349.139,199.472,348.437,198.511,348.437z M198.522,345.09c-0.746,0-1.312,0.543-1.312,1.267s0.554,1.266,1.322,1.266
			c0.746,0,1.312-0.531,1.312-1.244C199.845,345.645,199.269,345.09,198.522,345.09z"/>
		<path fill="#FFFFFF" d="M206.054,352.53c-1.029,0-1.945-0.554-2.375-1.447c-0.306-0.633-0.43-1.391-0.43-2.476
			c0-2.838,0.995-4.342,2.895-4.342c1.289,0,2.137,0.746,2.307,2.012l-0.995,0.091c-0.113-0.837-0.565-1.278-1.312-1.278
			c-0.734,0-1.289,0.396-1.571,1.108c-0.204,0.521-0.34,1.267-0.34,1.866v0.158c0.182-0.283,0.271-0.384,0.476-0.554
			c0.418-0.328,0.949-0.52,1.492-0.52c1.368,0,2.386,1.119,2.386,2.612C208.586,351.377,207.534,352.53,206.054,352.53z
			 M205.997,348.019c-0.928,0-1.605,0.746-1.605,1.741c0,1.108,0.712,1.956,1.639,1.956c0.894,0,1.538-0.792,1.538-1.888
			C207.568,348.754,206.936,348.019,205.997,348.019z"/>
		<path fill="#FFFFFF" d="M210.575,349.963v-0.995h3.042v0.995H210.575z"/>
		<path fill="#FFFFFF" d="M215.438,352.395c0.057-0.463,0.113-0.656,0.271-0.972c0.305-0.611,0.825-1.199,1.639-1.866l0.374-0.305
			c1.492-1.221,2.058-1.99,2.058-2.759c0-0.814-0.646-1.402-1.526-1.402c-0.973,0-1.572,0.611-1.583,1.628l-1.018-0.113
			c0.136-1.515,1.063-2.34,2.623-2.34c1.504,0,2.532,0.916,2.532,2.25c0,0.961-0.565,1.82-1.989,3.019l-0.814,0.69
			c-0.667,0.565-0.938,0.859-1.165,1.221h3.98v0.95L215.438,352.395L215.438,352.395z"/>
		<path fill="#FFFFFF" d="M225.659,352.53c-1.052,0-1.854-0.554-2.261-1.572c-0.261-0.656-0.374-1.458-0.374-2.578
			c0-2.725,0.883-4.116,2.635-4.116c1.753,0,2.635,1.391,2.635,4.138C228.294,351.149,227.412,352.53,225.659,352.53z
			 M226.982,346.097c-0.227-0.622-0.735-1.006-1.334-1.006c-1.108,0-1.606,1.04-1.606,3.302c0,1.006,0.103,1.775,0.295,2.307
			c0.226,0.633,0.734,1.018,1.322,1.018s1.097-0.385,1.323-1.018c0.192-0.521,0.294-1.3,0.294-2.295
			C227.276,347.41,227.186,346.651,226.982,346.097z"/>
		<path fill="#FFFFFF" d="M230.308,349.963v-0.995h3.041v0.995H230.308z"/>
		<path fill="#FFFFFF" d="M237.995,352.53c-1.56,0-2.668-1.029-2.668-2.478c0-0.688,0.271-1.3,0.746-1.685
			c0.237-0.192,0.385-0.26,0.791-0.362c-0.327-0.124-0.452-0.181-0.621-0.328c-0.385-0.305-0.6-0.78-0.6-1.323
			c0-1.221,0.973-2.092,2.329-2.092c1.368,0,2.353,0.894,2.353,2.114c0,0.792-0.396,1.323-1.188,1.617
			c0.384,0.136,0.521,0.204,0.757,0.385c0.486,0.384,0.758,1.006,0.758,1.696C240.652,351.501,239.533,352.53,237.995,352.53z
			 M237.973,348.437c-0.938,0-1.628,0.701-1.628,1.628c0,0.95,0.701,1.651,1.662,1.651c0.949,0,1.628-0.679,1.628-1.628
			C239.635,349.139,238.934,348.437,237.973,348.437z M237.984,345.09c-0.746,0-1.312,0.543-1.312,1.267s0.554,1.266,1.322,1.266
			c0.746,0,1.312-0.531,1.312-1.244C239.307,345.645,238.73,345.09,237.984,345.09z"/>
		<path fill="#FFFFFF" d="M245.764,348.833c-0.44,1.198-0.734,2.499-0.791,3.562h-1.018c0.022-1.097,0.361-2.555,0.916-3.901
			c0.35-0.848,0.712-1.504,1.255-2.284c0.282-0.407,0.384-0.532,0.655-0.848h-3.957v-0.95h5.235v0.769
			C247.042,346.21,246.307,347.375,245.764,348.833z"/>
		<path fill="#FFFFFF" d="M252.751,352.53c-1.413,0-2.442-0.905-2.578-2.273l0.995-0.135c0.079,0.373,0.103,0.475,0.215,0.712
			c0.249,0.554,0.758,0.882,1.368,0.882c0.938,0,1.662-0.735,1.662-1.696c0-0.904-0.655-1.56-1.583-1.56
			c-0.215,0-0.373,0.022-0.701,0.102l0.113-0.871c0.079,0.011,0.113,0.011,0.158,0.011c0.973,0,1.651-0.554,1.651-1.357
			c0-0.735-0.555-1.255-1.323-1.255c-0.803,0-1.323,0.52-1.458,1.458l-0.995-0.181c0.237-1.334,1.13-2.104,2.431-2.104
			c1.346,0,2.363,0.916,2.363,2.104c0,0.735-0.385,1.312-1.108,1.628c0.362,0.102,0.498,0.158,0.713,0.317
			c0.509,0.35,0.803,0.972,0.803,1.685C255.477,351.445,254.3,352.53,252.751,352.53z"/>
		<path fill="#FFFFFF" d="M260.339,352.395v-6.332c-0.328,0.317-0.645,0.532-1.232,0.848c-0.362,0.192-0.464,0.238-0.758,0.351
			V346.3c1.074-0.498,1.968-1.289,2.341-2.035h0.645v8.129L260.339,352.395L260.339,352.395z"/>
		<path fill="#FFFFFF" d="M267.643,352.53c-1.052,0-1.854-0.554-2.261-1.572c-0.261-0.656-0.374-1.458-0.374-2.578
			c0-2.725,0.883-4.116,2.635-4.116c1.753,0,2.635,1.391,2.635,4.138C270.278,351.149,269.396,352.53,267.643,352.53z
			 M268.966,346.097c-0.227-0.622-0.735-1.006-1.334-1.006c-1.108,0-1.606,1.04-1.606,3.302c0,1.006,0.103,1.775,0.294,2.307
			c0.227,0.633,0.734,1.018,1.323,1.018c0.588,0,1.097-0.385,1.323-1.018c0.192-0.521,0.294-1.3,0.294-2.295
			C269.26,347.41,269.169,346.651,268.966,346.097z"/>
		<path fill="#FFFFFF" d="M275.434,348.833c-0.44,1.198-0.734,2.499-0.791,3.562h-1.018c0.022-1.097,0.361-2.555,0.916-3.901
			c0.35-0.848,0.712-1.504,1.255-2.284c0.282-0.407,0.384-0.532,0.655-0.848h-3.957v-0.95h5.235v0.769
			C276.712,346.21,275.977,347.375,275.434,348.833z"/>
		<path fill="#FFFFFF" d="M282.851,348.833c-0.44,1.198-0.734,2.499-0.791,3.562h-1.018c0.022-1.097,0.361-2.555,0.916-3.901
			c0.35-0.848,0.712-1.504,1.255-2.284c0.282-0.407,0.384-0.532,0.655-0.848h-3.957v-0.95h5.235v0.769
			C284.129,346.21,283.394,347.375,282.851,348.833z"/>
		<path fill="#FFFFFF" d="M291.965,351.23c-0.486,0.848-1.289,1.3-2.284,1.3c-1.289,0-2.114-0.724-2.272-2.013l0.95-0.079
			c0.158,0.871,0.588,1.278,1.345,1.278c0.611,0,1.143-0.328,1.425-0.882c0.283-0.554,0.464-1.323,0.464-2.046v-0.204
			c-0.419,0.656-1.165,1.063-1.934,1.063c-1.391,0-2.397-1.108-2.397-2.646c0-1.605,1.052-2.736,2.545-2.736
			c0.803,0,1.537,0.35,2.023,0.972c0.531,0.667,0.746,1.515,0.746,2.939C292.575,349.602,292.405,350.461,291.965,351.23z
			 M289.828,345.09c-0.905,0-1.55,0.792-1.55,1.877c0,1.074,0.634,1.809,1.583,1.809c0.938,0,1.617-0.735,1.617-1.741
			C291.479,345.938,290.755,345.09,289.828,345.09z"/>
	</g>
</g>
</svg>
