<?xml version="1.0" encoding="utf-8"?>
<!-- Generator: Adobe Illustrator 16.0.0, SVG Export Plug-In . SVG Version: 6.00 Build 0)  -->
<!DOCTYPE svg PUBLIC "-//W3C//DTD SVG 1.1//EN" "http://www.w3.org/Graphics/SVG/1.1/DTD/svg11.dtd">
<svg version="1.1" id="Layer_1" xmlns="http://www.w3.org/2000/svg" xmlns:xlink="http://www.w3.org/1999/xlink" x="0px" y="0px"
	 width="768px" height="1024px" viewBox="0 0 768 1024" enable-background="new 0 0 768 1024" xml:space="preserve">
<g>
	<path fill="#FFFFFF" d="M198.477,378.51c-1.47,0-2.476-0.871-2.601-2.261l1.041-0.079c0.146,0.972,0.712,1.526,1.56,1.526
		c0.984,0,1.708-0.837,1.708-1.979c0-1.108-0.69-1.832-1.73-1.832c-0.622,0-1.164,0.283-1.47,0.78l-0.938-0.113l0.792-4.161h4.014
		v0.95h-3.223l-0.44,2.171c0.475-0.328,1.018-0.509,1.537-0.509c1.447,0,2.51,1.119,2.51,2.623
		C201.235,377.3,200.071,378.51,198.477,378.51z"/>
	<path fill="#FFFFFF" d="M206.042,378.374v-6.332c-0.328,0.317-0.645,0.532-1.232,0.848c-0.362,0.192-0.464,0.238-0.758,0.351
		v-0.961c1.074-0.498,1.968-1.289,2.341-2.035h0.645v8.129H206.042z"/>
	<path fill="#FFFFFF" d="M213.346,378.51c-1.052,0-1.854-0.554-2.261-1.572c-0.261-0.656-0.374-1.458-0.374-2.578
		c0-2.725,0.883-4.116,2.635-4.116c1.753,0,2.635,1.391,2.635,4.138S215.099,378.51,213.346,378.51z M214.669,372.076
		c-0.227-0.622-0.735-1.006-1.334-1.006c-1.108,0-1.606,1.04-1.606,3.302c0,1.006,0.103,1.775,0.294,2.307
		c0.227,0.633,0.735,1.02,1.323,1.02c0.588,0,1.097-0.385,1.323-1.02c0.192-0.521,0.294-1.3,0.294-2.295
		S214.872,372.63,214.669,372.076z"/>
	<path fill="#FFFFFF" d="M220.764,378.51c-1.052,0-1.854-0.554-2.261-1.572c-0.261-0.656-0.374-1.458-0.374-2.578
		c0-2.725,0.883-4.116,2.635-4.116c1.753,0,2.635,1.391,2.635,4.138S222.517,378.51,220.764,378.51z M222.087,372.076
		c-0.227-0.622-0.735-1.006-1.334-1.006c-1.108,0-1.606,1.04-1.606,3.302c0,1.006,0.103,1.775,0.294,2.307
		c0.227,0.633,0.735,1.02,1.323,1.02c0.588,0,1.097-0.385,1.323-1.02c0.192-0.521,0.294-1.3,0.294-2.295
		S222.29,372.63,222.087,372.076z"/>
	<path fill="#FFFFFF" d="M228.203,378.51c-1.56,0-2.668-1.029-2.668-2.476c0-0.69,0.271-1.3,0.746-1.685
		c0.237-0.192,0.385-0.26,0.791-0.362c-0.327-0.124-0.452-0.181-0.621-0.328c-0.385-0.305-0.6-0.78-0.6-1.323
		c0-1.221,0.973-2.092,2.329-2.092c1.368,0,2.353,0.893,2.353,2.114c0,0.792-0.396,1.323-1.188,1.617
		c0.384,0.136,0.521,0.204,0.757,0.385c0.486,0.384,0.758,1.006,0.758,1.696C230.86,377.481,229.741,378.51,228.203,378.51z
		 M228.181,374.417c-0.938,0-1.628,0.701-1.628,1.628c0,0.95,0.701,1.651,1.662,1.651c0.949,0,1.628-0.679,1.628-1.628
		C229.843,375.119,229.142,374.417,228.181,374.417z M228.192,371.07c-0.746,0-1.312,0.543-1.312,1.267
		c0,0.724,0.554,1.266,1.322,1.266c0.746,0,1.312-0.531,1.312-1.244C229.515,371.624,228.938,371.07,228.192,371.07z"/>
	<path fill="#FFFFFF" d="M235.599,378.51c-1.052,0-1.854-0.554-2.261-1.572c-0.261-0.656-0.374-1.458-0.374-2.578
		c0-2.725,0.883-4.116,2.635-4.116c1.753,0,2.635,1.391,2.635,4.138S237.352,378.51,235.599,378.51z M236.922,372.076
		c-0.227-0.622-0.735-1.006-1.334-1.006c-1.108,0-1.606,1.04-1.606,3.302c0,1.006,0.103,1.775,0.295,2.307
		c0.226,0.633,0.734,1.02,1.322,1.02c0.588,0,1.097-0.385,1.323-1.02c0.192-0.521,0.294-1.3,0.294-2.295
		S237.125,372.63,236.922,372.076z"/>
</g>
<path fill="#FFFFFF" d="M183.938,370.42l-5.523,4.178l-0.011,0.005l-2.842,2.149c-0.146,0.11-0.313,0.165-0.484,0.165
	c-0.168,0-0.334-0.054-0.48-0.165l-2.845-2.149l-0.008-0.005l-5.523-4.178v-1.083c0-0.221,0.089-0.422,0.231-0.564
	c0.146-0.145,0.348-0.235,0.566-0.235h16.121c0.219,0,0.42,0.091,0.563,0.233l0.003,0.002c0.144,0.143,0.232,0.343,0.232,0.564
	V370.42L183.938,370.42z M183.938,378.599l-5.08-3.838l5.08-3.84V378.599z M183.702,379.576c-0.143,0.147-0.344,0.235-0.563,0.235
	h-16.121c-0.219,0-0.42-0.088-0.566-0.233v-0.002c-0.124-0.125-0.208-0.292-0.229-0.479l5.406-4.085l2.728,2.063
	c0.214,0.165,0.469,0.246,0.72,0.246c0.255,0,0.508-0.081,0.727-0.246l2.724-2.063l5.407,4.085
	C183.914,379.283,183.829,379.45,183.702,379.576 M166.221,370.921l5.077,3.84l-5.077,3.838V370.921z M183.987,368.491
	c-0.219-0.218-0.517-0.354-0.848-0.354h-16.121c-0.332,0-0.631,0.135-0.847,0.354c-0.216,0.216-0.353,0.515-0.353,0.847v9.673
	c0,0.332,0.137,0.631,0.353,0.847l0.003,0.002c0.219,0.216,0.518,0.351,0.844,0.351h16.121c0.332,0,0.631-0.134,0.848-0.353
	c0.215-0.216,0.351-0.515,0.351-0.847v-9.673C184.338,369.006,184.202,368.708,183.987,368.491"/>
</svg>
