<?xml version="1.0" encoding="utf-8"?>
<!-- Generator: Adobe Illustrator 16.0.0, SVG Export Plug-In . SVG Version: 6.00 Build 0)  -->
<!DOCTYPE svg PUBLIC "-//W3C//DTD SVG 1.1//EN" "http://www.w3.org/Graphics/SVG/1.1/DTD/svg11.dtd">
<svg version="1.1" id="Layer_1" xmlns="http://www.w3.org/2000/svg" xmlns:xlink="http://www.w3.org/1999/xlink" x="0px" y="0px"
	 width="768px" height="1024px" viewBox="0 0 768 1024" enable-background="new 0 0 768 1024" xml:space="preserve">
<g>
	<path fill="#FFFFFF" d="M457.29,378.979h-1.75l-1.104-4.162h-0.023l-1.057,4.162h-1.763l-1.968-6.2h1.8l1.141,4.209h0.022
		l1.031-4.209h1.655l1.056,4.197h0.023l1.14-4.197h1.751L457.29,378.979z"/>
	<path fill="#FFFFFF" d="M467.059,378.979h-1.751l-1.104-4.162h-0.023l-1.057,4.162h-1.762l-1.968-6.2h1.8l1.139,4.209h0.022
		l1.032-4.209h1.655l1.055,4.197h0.024l1.14-4.197h1.751L467.059,378.979z"/>
	<path fill="#FFFFFF" d="M476.827,378.979h-1.752l-1.104-4.162h-0.022l-1.057,4.162h-1.763l-1.967-6.2h1.799l1.139,4.209h0.024
		l1.032-4.209h1.653l1.057,4.197h0.023l1.14-4.197h1.751L476.827,378.979z"/>
	<path fill="#FFFFFF" d="M479.578,377.132h1.883v1.847h-1.883V377.132z"/>
	<path fill="#FFFFFF" d="M487.063,374.961c-0.106-0.696-0.552-1.067-1.26-1.067c-1.091,0-1.451,1.104-1.451,2.015
		c0,0.888,0.35,1.955,1.416,1.955c0.791,0,1.247-0.504,1.355-1.26h1.643c-0.216,1.644-1.354,2.543-2.985,2.543
		c-1.871,0-3.132-1.319-3.132-3.179c0-1.931,1.152-3.356,3.168-3.356c1.463,0,2.807,0.768,2.914,2.351L487.063,374.961
		L487.063,374.961z"/>
	<path fill="#FFFFFF" d="M495.689,378.583c0,1.02-0.358,2.746-3.213,2.746c-1.225,0-2.65-0.575-2.734-1.991h1.689
		c0.156,0.636,0.672,0.852,1.271,0.852c0.947,0,1.38-0.647,1.367-1.535v-0.815h-0.023c-0.372,0.647-1.115,0.96-1.859,0.96
		c-1.857,0-2.649-1.415-2.649-3.118c0-1.607,0.924-3.07,2.662-3.07c0.815,0,1.438,0.275,1.848,0.995h0.023v-0.827h1.618V378.583z
		 M494.071,375.8c0-1.007-0.349-1.906-1.451-1.906c-0.959,0-1.379,0.839-1.379,1.763c0,0.888,0.336,1.859,1.379,1.859
		C493.592,377.516,494.071,376.688,494.071,375.8z"/>
	<path fill="#FFFFFF" d="M497.063,370.415h1.702v3.118h0.023c0.42-0.636,1.188-0.923,1.955-0.923c1.235,0,2.565,0.995,2.565,3.262
		c0,2.279-1.33,3.274-2.565,3.274c-0.911,0-1.666-0.276-2.039-0.96h-0.023v0.792h-1.618V370.415z M500.156,373.894
		c-1.008,0-1.452,0.947-1.452,1.99c0,1.032,0.444,1.979,1.452,1.979c1.007,0,1.451-0.947,1.451-1.979
		C501.607,374.841,501.163,373.894,500.156,373.894z"/>
	<path fill="#FFFFFF" d="M508.615,374.961c-0.108-0.696-0.553-1.067-1.26-1.067c-1.092,0-1.45,1.104-1.45,2.015
		c0,0.888,0.348,1.955,1.415,1.955c0.792,0,1.247-0.504,1.354-1.26h1.645c-0.217,1.644-1.354,2.543-2.986,2.543
		c-1.871,0-3.13-1.319-3.13-3.179c0-1.931,1.149-3.356,3.166-3.356c1.463,0,2.807,0.768,2.914,2.351L508.615,374.961
		L508.615,374.961z"/>
	<path fill="#FFFFFF" d="M511.282,370.415h1.703v3.227h0.034c0.433-0.695,1.177-1.031,1.813-1.031c1.813,0,2.267,1.02,2.267,2.555
		v3.813h-1.702v-3.502c0-1.02-0.301-1.523-1.093-1.523c-0.923,0-1.317,0.516-1.317,1.775v3.25h-1.703L511.282,370.415
		L511.282,370.415z"/>
	<path fill="#FFFFFF" d="M520.148,371.818h-1.702v-1.403h1.702V371.818z M518.446,372.778h1.702v6.2h-1.702V372.778z"/>
	<path fill="#FFFFFF" d="M521.493,372.778h1.619v0.863h0.036c0.432-0.695,1.175-1.031,1.896-1.031c1.812,0,2.267,1.02,2.267,2.555
		v3.813h-1.703v-3.502c0-1.02-0.3-1.523-1.092-1.523c-0.923,0-1.318,0.516-1.318,1.775v3.25h-1.703L521.493,372.778L521.493,372.778
		z"/>
	<path fill="#FFFFFF" d="M528.538,374.685c0.096-1.595,1.522-2.074,2.914-2.074c1.235,0,2.723,0.275,2.723,1.763v3.227
		c0,0.563,0.061,1.127,0.216,1.379h-1.728c-0.06-0.191-0.107-0.396-0.119-0.6c-0.54,0.563-1.332,0.768-2.088,0.768
		c-1.175,0-2.11-0.588-2.11-1.859c0-1.403,1.057-1.738,2.11-1.883c1.044-0.155,2.016-0.12,2.016-0.815
		c0-0.731-0.504-0.84-1.104-0.84c-0.648,0-1.067,0.265-1.127,0.936h-1.703V374.685z M532.472,375.944
		c-0.288,0.252-0.888,0.264-1.416,0.359c-0.526,0.108-1.007,0.288-1.007,0.912c0,0.636,0.491,0.791,1.044,0.791
		c1.33,0,1.379-1.056,1.379-1.427V375.944z"/>
	<path fill="#FFFFFF" d="M535.569,377.132h1.883v1.847h-1.883V377.132z"/>
	<path fill="#FFFFFF" d="M543.055,374.961c-0.107-0.696-0.552-1.067-1.259-1.067c-1.092,0-1.451,1.104-1.451,2.015
		c0,0.888,0.349,1.955,1.415,1.955c0.792,0,1.247-0.504,1.354-1.26h1.644c-0.216,1.644-1.354,2.543-2.986,2.543
		c-1.87,0-3.13-1.319-3.13-3.179c0-1.931,1.15-3.356,3.166-3.356c1.464,0,2.808,0.768,2.914,2.351L543.055,374.961L543.055,374.961z
		"/>
	<path fill="#FFFFFF" d="M548.73,372.61c1.955,0,3.215,1.295,3.215,3.273c0,1.968-1.26,3.263-3.215,3.263
		c-1.942,0-3.202-1.295-3.202-3.263C545.528,373.905,546.788,372.61,548.73,372.61z M548.73,377.863
		c1.164,0,1.512-0.996,1.512-1.979c0-0.995-0.348-1.99-1.512-1.99c-1.15,0-1.5,0.995-1.5,1.99
		C547.23,376.867,547.58,377.863,548.73,377.863z"/>
	<path fill="#FFFFFF" d="M553.102,372.778h1.606v0.839h0.022c0.444-0.636,1.093-1.007,1.896-1.007c0.78,0,1.477,0.287,1.813,1.031
		c0.358-0.54,1.007-1.031,1.871-1.031c1.317,0,2.266,0.611,2.266,2.219v4.149h-1.703v-3.514c0-0.828-0.071-1.512-1.043-1.512
		c-0.959,0-1.139,0.792-1.139,1.571v3.454h-1.703V375.5c0-0.719,0.047-1.547-1.032-1.547c-0.335,0-1.151,0.216-1.151,1.428v3.598
		h-1.703V372.778L553.102,372.778z"/>
	<path fill="#FFFFFF" d="M563.997,377.132h1.883v1.847h-1.883V377.132z"/>
	<path fill="#FFFFFF" d="M571.482,374.961c-0.108-0.696-0.553-1.067-1.26-1.067c-1.092,0-1.451,1.104-1.451,2.015
		c0,0.888,0.349,1.955,1.416,1.955c0.791,0,1.246-0.504,1.354-1.26h1.645c-0.217,1.644-1.354,2.543-2.986,2.543
		c-1.871,0-3.13-1.319-3.13-3.179c0-1.931,1.149-3.356,3.166-3.356c1.463,0,2.807,0.768,2.913,2.351L571.482,374.961
		L571.482,374.961z"/>
	<path fill="#FFFFFF" d="M574.148,372.778h1.619v0.863h0.035c0.433-0.695,1.176-1.031,1.896-1.031c1.812,0,2.268,1.02,2.268,2.555
		v3.813h-1.703v-3.502c0-1.02-0.301-1.523-1.092-1.523c-0.924,0-1.319,0.516-1.319,1.775v3.25h-1.702L574.148,372.778
		L574.148,372.778z"/>
</g>
</svg>
