<?xml version="1.0" encoding="utf-8"?>
<!-- Generator: Adobe Illustrator 16.0.0, SVG Export Plug-In . SVG Version: 6.00 Build 0)  -->
<!DOCTYPE svg PUBLIC "-//W3C//DTD SVG 1.1//EN" "http://www.w3.org/Graphics/SVG/1.1/DTD/svg11.dtd">
<svg version="1.1" id="Layer_1" xmlns="http://www.w3.org/2000/svg" xmlns:xlink="http://www.w3.org/1999/xlink" x="0px" y="0px"
	 width="768px" height="1024px" viewBox="0 0 768 1024" enable-background="new 0 0 768 1024" xml:space="preserve">
<g>
	<g>
		<path fill="#FFFFFF" d="M136.095,713.326c0.175-1.436,0.35-2.03,0.84-3.01c0.945-1.891,2.556-3.711,5.076-5.776l1.155-0.944
			c4.621-3.781,6.371-6.161,6.371-8.541c0-2.521-1.995-4.341-4.726-4.341c-3.01,0-4.865,1.89-4.9,5.04l-3.15-0.35
			c0.42-4.69,3.291-7.246,8.121-7.246c4.655,0,7.841,2.836,7.841,6.967c0,2.975-1.75,5.635-6.161,9.346l-2.52,2.135
			c-2.065,1.75-2.905,2.66-3.605,3.78h12.321v2.94H136.095z"/>
		<path fill="#FFFFFF" d="M164.236,713.746c-3.255,0-5.74-1.715-7-4.865c-0.805-2.03-1.155-4.516-1.155-7.98
			c0-8.437,2.73-12.742,8.156-12.742c5.426,0,8.156,4.306,8.156,12.812S169.662,713.746,164.236,713.746z M168.332,693.829
			c-0.7-1.925-2.275-3.115-4.13-3.115c-3.431,0-4.971,3.22-4.971,10.222c0,3.115,0.315,5.495,0.91,7.141
			c0.7,1.959,2.275,3.15,4.095,3.15c1.82,0,3.396-1.191,4.096-3.15c0.595-1.611,0.91-4.025,0.91-7.106
			C169.242,697.89,168.961,695.545,168.332,693.829z"/>
		<path fill="#FFFFFF" d="M184.046,713.326v-19.602c-1.015,0.979-1.995,1.645-3.815,2.625c-1.12,0.595-1.435,0.734-2.345,1.085
			v-2.976c3.326-1.54,6.091-3.99,7.246-6.301h1.995v25.168H184.046z"/>
		<path fill="#FFFFFF" d="M203.541,713.746c-3.186,0-6.021-1.715-7.351-4.48c-0.945-1.96-1.331-4.305-1.331-7.666
			c0-8.785,3.081-13.441,8.961-13.441c3.991,0,6.616,2.311,7.141,6.23l-3.081,0.281c-0.35-2.591-1.75-3.956-4.061-3.956
			c-2.275,0-3.99,1.226-4.865,3.431c-0.63,1.609-1.05,3.92-1.05,5.775v0.49c0.56-0.875,0.84-1.19,1.47-1.715
			c1.295-1.016,2.94-1.611,4.621-1.611c4.235,0,7.386,3.466,7.386,8.086C211.382,710.176,208.126,713.746,203.541,713.746z
			 M203.366,699.779c-2.871,0-4.971,2.311-4.971,5.391c0,3.431,2.205,6.057,5.076,6.057c2.765,0,4.76-2.451,4.76-5.846
			C208.231,702.055,206.271,699.779,203.366,699.779z"/>
		<path fill="#FFFFFF" d="M224.646,684.973c-0.14,1.226-0.49,2.136-0.665,2.73h19.602v2.556l-10.676,0.069l0.035,4.48h8.926v2.591
			h-8.926v5.671h12.076v2.59l-12.076-0.035v10.082h-2.765V705.66h-13.651v-2.625l4.34,0.035v-8.262l9.311-0.034v-4.48h-7.211
			c-1.12,2.274-2.45,4.796-4.831,7.001l-2.205-1.785c3.186-2.836,5.181-6.651,6.476-11.621L224.646,684.973z M223.561,697.399v5.671
			h6.581l0.035-5.671H223.561z"/>
		<path fill="#FFFFFF" d="M255.411,701.285c0,4.795-0.28,10.361-3.64,14.596l-2.24-1.75c1.575-2.311,2.555-4.41,2.835-6.896
			c0.21-2.065,0.315-4.2,0.315-6.335v-12.882h12.742c-0.455-0.665-1.05-1.226-2.835-2.345l2.59-1.436
			c1.05,1.05,2.87,2.801,3.465,3.78h11.586l0.035,2.485h-24.817L255.411,701.285z M276.133,705.24
			c-1.225,2.065-4.69,4.69-6.09,5.496c0.84,0.385,2.24,0.805,3.64,1.119c2.345,0.561,4.69,0.945,7.491,1.156
			c-0.42,1.084-0.98,1.68-1.435,2.484c-4.48-0.63-8.786-1.436-12.497-3.255c-1.015,0.42-2.065,0.91-3.185,1.33
			c-2.555,0.979-5.426,1.646-8.436,1.995c-0.595-0.77-1.05-1.436-1.855-2.45c4.305-0.351,7.806-1.4,10.746-2.45
			c-1.715-1.225-3.675-3.221-5.041-5.285h-2.66v-2.486l19.392,0.07L276.133,705.24z M273.823,701.145h-13.196l0.035-4.795h-4.69
			v-2.416l4.656-0.035v-2.695h2.765v2.695h7.701v-2.729h2.73v2.729h5.706v2.486h-5.706V701.145z M262.691,705.381
			c1.75,1.959,2.765,2.869,4.55,4.025c2.135-1.156,4.131-2.381,5.671-3.99L262.691,705.381z M263.497,698.729l7.561-0.034
			l0.035-2.311h-7.666L263.497,698.729z"/>
		<path fill="#FFFFFF" d="M290.831,693.654h-5.425v-2.59h5.425v-6.441h2.8v6.441h4.761v2.59h-4.761v6.405l4.516-1.575v2.66
			l-4.516,1.61v9.382c0,1.295-0.105,2.135-1.26,2.834c-1.26,0.771-3.571,0.211-5.216-0.069l-0.875-2.73
			c1.785,0.315,2.695,0.49,3.885,0.56c0.525,0.07,0.665-0.385,0.665-0.979v-8.016l-4.9,1.785l-1.295-2.695l6.195-1.995V693.654z
			 M314.178,715.531c-2.275-1.26-4.411-3.186-5.46-4.48c-1.015,1.68-2.661,3.045-4.621,4.586l-1.4-1.436l-0.035,1.54h-2.8v-29.858
			h13.091c-0.105,2.801-0.455,5.811-1.225,7.456c-0.385,0.841-1.295,1.61-2.24,1.751c-1.365,0.174-2.66,0.104-4.271-0.315
			l-0.665-2.695c1.715,0.42,2.59,0.524,3.745,0.524c0.771,0,1.015-0.314,1.295-1.189c0.315-1.051,0.455-2.065,0.49-2.976h-7.42
			v8.261h10.571c-0.105,4.586-1.26,8.4-3.08,11.901c1.365,1.96,3.92,3.675,5.88,4.9L314.178,715.531z M302.662,713.151
			c1.61-1.015,3.29-2.485,4.445-4.516c-1.505-2.835-2.485-6.021-2.975-9.347h-1.47V713.151z M306.722,699.255
			c0.28,2.274,1.12,5.075,1.96,6.86c0.84-1.645,1.715-4.83,1.785-6.826L306.722,699.255z"/>
		<path fill="#FFFFFF" d="M334.126,697.365v-5.321h-7.105c-0.84,1.505-1.89,3.115-3.675,4.48l-2.206-1.785
			c3.15-2.415,4.516-5.53,5.391-9.101l2.59,0.63c-0.315,1.364-0.805,2.59-1.015,3.255h6.021v-5.32h2.625v5.32h9.941v2.521h-9.941
			v5.321h13.266v2.52h-29.753v-2.52H334.126z M327.581,715.672h-2.625v-13.826h20.512v13.826h-2.66v-2.486h-15.227V715.672z
			 M327.581,710.666h15.227v-6.301h-15.227V710.666z"/>
		<path fill="#FFFFFF" d="M362.616,695.579v15.262l3.991-1.995v3.115l-5.986,3.08l-1.575-2.275c0.56-0.35,0.945-0.84,0.945-1.645
			V698.1h-4.936v-2.521H362.616z M361.286,692.674c-1.015-2.1-2.66-3.955-4.585-5.496l1.995-1.399
			c1.96,1.295,3.641,3.185,4.796,5.181L361.286,692.674z M373.572,687.108v-2.87h2.59v2.87h7.666v2.485h-7.666v1.471h6.3v2.484h-6.3
			v1.926h9.31v2.484h-21.282v-2.484h9.381v-1.926h-6.301v-2.484h6.301v-1.471h-7.631v-2.485H373.572z M370.107,709.791v5.846h-2.625
			v-16.521h14.807v13.371c0.14,0.945-0.77,2.66-2.59,2.66h-3.36l-0.945-2.625c1.61,0.14,2.59,0.244,3.57,0.209
			c0.49,0,0.7-0.174,0.7-0.734v-2.205H370.107z M379.663,701.6h-9.556v1.61h9.556V701.6z M370.107,705.625v1.75h9.556v-1.75H370.107
			z"/>
		<path fill="#FFFFFF" d="M393.135,715.496l-0.944-2.766l2.94,0.141c0.35-0.07,0.561-0.279,0.561-0.596V704.4l-4.446,2.24
			l-1.785-2.346c2.206-0.77,4.411-1.995,6.266-2.835v-7.876h-5.251v-2.52h5.251v-6.791h2.591v6.756h4.725v2.555h-4.725v6.721
			c0.734-0.314,2.73-1.33,4.305-2.311v2.941l-4.305,2.205v9.976c0,1.365-0.806,2.38-2.17,2.38H393.135z M401.922,711.996v-2.555
			h14.352v-8.927h-12.252v-2.556h12.252v-7.875h-12.986v-2.556h15.576v27.093h-2.59v-2.625H401.922z"/>
		<path fill="#FFFFFF" d="M430.061,704.471c-0.805,0.35-1.926,0.734-3.57,1.47c-0.665-0.771-0.98-1.435-1.715-2.275
			c2.1-0.7,3.745-1.435,5.285-1.995l-0.035-7.525l-4.235,0.035v-2.556l4.235-0.035v-7.211l2.695-0.034v7.28h3.011l-0.035,2.521
			l-2.976,0.035v6.475c0.631-0.244,1.891-0.805,3.291-1.295l0.14,2.66l-3.431,1.4v9.592c0,1.225-0.84,2.24-1.785,2.52
			c-1.26,0.385-2.66,0.105-4.131,0.176l-0.979-2.801c1.61,0,2.415,0.314,3.501,0.141c0.489-0.035,0.734-0.421,0.734-0.91V704.471z
			 M442.207,691.099v4.165h-2.695v-4.199h-4.795v-2.521h4.83l-0.035-4.234h2.695v4.234h5.985v-4.234l2.695,0.035v4.199h5.461v2.556
			h-5.461v4.165h-2.695v-4.165H442.207z M453.863,696.104v19.532h-2.836v-2.451l-11.375-0.034v2.556l-2.626,0.034l0.035-19.637
			H453.863z M439.652,698.66v4.375l4.34,0.035l-0.035-4.41H439.652z M443.957,705.59h-4.305v5.041h4.34L443.957,705.59z
			 M446.652,703.035h4.375v-4.34l-4.375-0.035V703.035z M451.027,705.59h-4.375v5.041h4.375V705.59z"/>
		<path fill="#FFFFFF" d="M472.481,714.551v-26.497h-11.761v-2.591h29.123v2.591h-14.632v26.497H472.481z M485.363,705.521
			c-2.695-3.745-6.23-5.915-8.646-7.28l1.19-1.996c2.205,0.84,4.025,2.065,5.74,3.466c1.296,1.05,2.485,2.345,3.675,3.745
			L485.363,705.521z"/>
		<path fill="#FFFFFF" d="M521.027,698.274c-0.104,4.585-0.56,9.767-1.854,13.792c-0.386,1.225-1.47,2.275-2.766,2.484
			c-1.05,0.351-4.865-0.524-7.071-1.084l-0.524-3.115c2.205,0.805,4.025,1.295,5.881,1.645c0.875,0.141,1.505-0.105,1.89-1.155
			c0.84-3.255,1.26-6.65,1.365-9.94h-10.291c-1.016,4.654-2.24,11.375-11.096,14.771l-1.82-2.521c7-2.521,9.591-6.931,10.256-13.757
			c0.21-2.17,0.21-4.865,0.21-7.141h-8.751v-2.59h14.352c-0.699-1.541-2.415-3.291-4.76-4.445l2.484-1.506
			c1.715,1.051,4.236,3.045,5.216,5.285l-0.875,0.596l12.812,0.07v2.59l-17.607,0.035c0,1.855-0.104,4.2-0.209,6.021
			L521.027,698.274z"/>
		<path fill="#FFFFFF" d="M531.42,709.756v-2.836l28.563,0.035v2.766L531.42,709.756z M557.673,693.129h-23.872v-2.801l23.872,0.035
			V693.129z"/>
		<path fill="#FFFFFF" d="M577.062,701.145v2.381c-2.695,0.665-7.036,1.75-10.536,2.835l-1.26-2.345
			c2.1-2.101,3.99-4.236,5.005-5.811c-0.315,0.069-2.38,0.595-3.815,1.05l-1.33-2.38c1.715-2.766,4.201-8.191,5.881-12.531
			l2.381,1.119c-1.051,2.451-3.746,8.297-5.076,10.642c0.561-0.07,2.555-0.525,3.676-0.771c0.77-1.154,1.539-2.555,2.345-4.2
			l2.45,1.12c-2.064,4.131-4.166,7.771-7.351,10.676L577.062,701.145z M565.266,710.525c4.234-1.26,7.315-2.38,11.83-3.955v2.625
			l-10.5,3.746L565.266,710.525z M577.797,697.154c-0.351,0.84-0.875,1.365-1.681,2.205l-2.345-1.365
			c3.641-4.096,5.32-8.471,6.51-13.616l2.451,0.945c-0.42,2.065-1.086,3.745-1.506,5.181h12.916v2.555h-6.301v3.956h5.986v2.485
			h-5.986v4.235h5.951v2.485h-5.951v4.795h7.281v2.556h-14.631v1.995h-2.695V697.154z M585.147,697.015v-3.956h-4.655v3.956H585.147
			z M580.492,699.5v4.235h4.655V699.5H580.492z M580.492,706.221v4.795h4.655v-4.795H580.492z M586.373,684.063
			c1.609,1.296,2.625,2.766,3.64,4.551l-2.345,1.506c-0.875-1.926-1.926-3.466-3.501-4.691L586.373,684.063z"/>
		<path fill="#FFFFFF" d="M602.926,702.195c-0.525,0.805-1.086,1.4-1.646,1.75l-1.995-1.995c2.346-1.995,3.605-3.921,4.69-7.142
			c0.524-1.539,0.806-3.465,0.91-4.795h-4.585l0.034-2.625l11.831,0.035v2.555l-4.689,0.07c-0.246,2.381-0.596,4.621-1.4,6.65h5.46
			v16.137h-2.625v-2.45h-3.431v2.45h-2.555V702.195z M608.911,707.83v-8.61h-3.431l0.035,8.61H608.911z M625.152,705.59v2.591
			h-12.355v-2.591H625.152z M620.567,712.486c1.646,0.279,2.66,0.49,3.886,0.561c0.875,0.034,1.295-0.666,1.435-1.436
			c0.595-3.045,0.98-7.071,1.12-10.012l-13.477-0.035v-2.31c0.596-2.73,1.506-6.44,1.715-9.416l2.557,0.665
			c-0.455,3.711-0.98,6.16-1.471,8.506h6.686c0.596-3.256,1.051-6.615,1.295-10.012h-11.096v-2.59l13.756,0.035
			c-0.104,4.936-0.595,8.926-1.225,12.566h3.85l-0.035,1.926c-0.069,4.199-0.559,9.03-1.295,11.971
			c-0.314,1.365-1.225,2.52-3.465,2.59c-1.33,0.035-2.346-0.104-3.5-0.314L620.567,712.486z"/>
	</g>
</g>
</svg>
