<?xml version="1.0" encoding="utf-8"?>
<!-- Generator: Adobe Illustrator 16.0.0, SVG Export Plug-In . SVG Version: 6.00 Build 0)  -->
<!DOCTYPE svg PUBLIC "-//W3C//DTD SVG 1.1//EN" "http://www.w3.org/Graphics/SVG/1.1/DTD/svg11.dtd">
<svg version="1.1" id="Layer_1" xmlns="http://www.w3.org/2000/svg" xmlns:xlink="http://www.w3.org/1999/xlink" x="0px" y="0px"
	 width="768px" height="1024px" viewBox="0 0 768 1024" enable-background="new 0 0 768 1024" xml:space="preserve">
<line fill="none" stroke="#2A79BE" stroke-miterlimit="10" x1="100.974" y1="19.996" x2="60.621" y2="79.871"/>
<g>
	<path fill="#58B5E1" d="M98.669,55.679h5.237v1.884h-5.237v4.49h3.87v9.237h-6.761v1.445h-1.883V62.079h2.838V51.241h1.936V55.679z
		 M95.805,69.38h4.851v-5.444h-4.851V69.38z M107.028,51.19c0.155,2.296,0.129,5.16,0.181,6.657l7.276-1.006l0.284,1.781
		l-7.432,1.083c0.13,2.039,0.749,4.696,1.239,6.373c1.006-1.651,1.986-3.741,2.838-6.141l1.703,0.851
		c-1.032,2.684-2.09,5.212-3.612,7.354c0.903,1.419,2.193,2.916,3.638,3.974c0.336-0.955,0.413-1.677,0.465-2.658l1.857,1.29
		c-0.154,1.213-0.464,2.271-0.8,2.864c-0.154,0.155-0.361,0.438-0.696,0.516c-1.136,0.464-2.039-0.361-2.709-0.955
		c-1.059-0.929-2.322-2.193-3.071-3.354c-1.651,1.651-3.689,3.122-5.883,4.541l-1.444-1.497c2.09-1.083,4.593-2.916,6.295-4.954
		c-0.645-1.677-1.393-5.109-1.729-7.896l-3.406,0.49l-0.231-1.832l3.509-0.542c-0.232-1.884-0.181-3.664-0.206-6.322L107.028,51.19z
		 M111.261,56.634c-0.93-1.342-1.91-2.219-3.174-3.148l1.032-1.291c1.367,0.852,2.734,2.039,3.482,3.019L111.261,56.634z"/>
	<path fill="#58B5E1" d="M128.578,63.265c1.935-0.877,3.845-1.961,5.16-3.148c-0.594-0.8-1.187-1.754-1.574-2.606
		c-0.619,1.006-1.032,1.651-2.038,2.632l-1.471-1.109c2.167-2.271,3.587-5.032,4.489-8.102l1.703,0.645
		c-0.258,0.903-0.567,1.755-0.748,2.271h5.754c-0.464,2.813-2.451,5.187-3.509,6.322c1.471,1.213,2.89,2.219,5.573,3.2l-1.342,1.497
		c-2.658-1.11-4.051-2.116-5.521-3.406c-1.601,1.471-3.226,2.426-5.367,3.432l-1.084-1.394l-0.052,7.844h-1.909l0.026-1.987h-4.825
		l0.025,2.012h-1.909V54.002h8.618V63.265z M121.844,55.86v4.645h1.496v-4.619L121.844,55.86z M121.844,67.471h1.496l-0.025-5.083
		h-1.471V67.471z M126.643,55.886h-1.522v4.645h1.522V55.886z M125.12,67.471h1.549v-5.083h-1.549V67.471z M137.273,74.283
		l-0.026-1.651l-4.412-0.026v1.703h-1.883v-9.831h8.257v9.805H137.273z M132.81,70.774l4.464-0.026V66.31l-4.438,0.026
		L132.81,70.774z M133.454,55.731c0.439,0.877,1.084,2.451,1.678,3.07c0.903-0.929,1.445-1.677,2.09-3.07H133.454z"/>
	<path fill="#58B5E1" d="M158.796,64.53c-0.129,2.89-0.567,5.599-1.316,7.947c-0.464,0.877-1.367,1.471-2.296,1.574
		c-1.858-0.052-3.639-0.335-5.471-0.774c-0.129-0.723-0.206-1.368-0.361-2.193c1.884,0.516,3.51,0.903,5.265,0.98
		c0.387,0.052,0.722-0.129,0.929-0.464c0.852-1.29,0.902-3.277,1.135-5.187h-10.733l1.703-8.179l8.592,0.026l0.026-3.896h-9.806
		l0.026-1.832l11.817-0.051v7.663h-8.851l-0.877,4.387H158.796z M164.679,51.267v22.887h-2.116l0.026-22.887H164.679z"/>
	<path fill="#58B5E1" d="M169.637,60.143c1.987-1.729,4.077-4.515,5.238-8.979l1.729,0.542c-0.206,0.645-0.258,1.161-0.387,1.497
		c1.394,0.852,2.761,2.219,3.896,3.845l-1.471,1.213c-0.929-1.342-1.935-2.632-2.915-3.277c-1.161,2.502-2.245,4.206-4.593,6.502
		L169.637,60.143z M177.042,72.658c-1.367-2.4-3.715-4.206-5.728-5.187l1.238-1.316c0.852,0.361,1.832,1.032,2.528,1.497
		c1.084-1.497,1.678-2.529,2.529-3.845l-6.941-0.026v-1.78h9.289l-0.025,1.677c-1.188,1.987-2.606,3.922-3.535,5.083
		c0.645,0.671,1.29,1.213,2.115,2.606L177.042,72.658z M177.042,61.588c-0.619-1.006-1.961-2.426-2.813-2.89l1.29-1.058
		c0.955,0.594,2.245,1.626,2.891,2.89L177.042,61.588z M186.848,65.175c0,2.374-0.955,4.773-2.787,6.347
		c-1.471,1.265-2.684,1.961-4.696,2.606l-1.238-1.471c1.936-0.8,5.212-2.219,6.27-4.774c0.284-0.903,0.517-1.961,0.517-2.993
		l0.025-5.393h1.91V65.175z M192.292,52.222v1.858h-5.135c-0.207,0.749-0.852,2.013-1.109,2.58l5.264-0.025v11.534h-1.961V58.44
		h-6.916l-0.025,10.063h-1.832l-0.025-11.844h3.534c0.361-0.696,0.955-1.961,1.136-2.606h-5.6v-1.832H192.292z M191.492,73.818
		c-1.188-1.857-3.071-3.664-4.903-4.696l1.497-1.264c2.09,1.419,3.586,2.709,4.877,4.619L191.492,73.818z"/>
	<path fill="#58B5E1" d="M221.713,73.38l-1.265-1.703c0.387-0.232,0.8-0.593,0.8-1.264V60.195h-3.354v-1.832h5.264v11.482
		l3.381-2.116v2.167L221.713,73.38z M222.461,56.195c-0.748-1.548-2.142-3.148-3.303-4l1.419-1.083
		c1.445,0.98,2.684,2.348,3.535,3.845L222.461,56.195z M235.13,53.615v-2.451h1.909v2.451h2.297v1.832h-2.297v7.638h-3.715v1.677
		h7.096v1.806h-5.471c1.059,2.452,2.993,3.716,5.677,5.032l-1.367,1.419c-2.632-1.342-5.471-4.051-5.883-5.986l-0.052,7.276h-1.858
		v-7.328c-0.723,2.916-3.07,5.057-5.47,6.347l-1.497-1.445c2.658-1.238,4.567-3.148,5.367-5.315h-5.418v-1.806h6.966v-1.677h-3.844
		v-7.638h-2.322v-1.832h2.322v-2.4h1.909v2.4H235.13z M235.13,57.382v-1.935h-5.65v1.935H235.13z M235.13,59.137h-5.65v2.116h5.65
		V59.137z"/>
	<path fill="#58B5E1" d="M244.268,73.844l-1.445-1.6c1.109-0.826,2.503-1.806,3.689-2.916v-7.405h-3.096v-1.91h5.031v9.341
		c1.6,1.729,3.716,1.987,6.167,1.987l9.057-0.026c0.723,0,1.394-0.129,2.451-0.207l-0.852,2.064h-12.463
		c-1.857,0-3.896-0.8-5.186-2.271L244.268,73.844z M248.009,57.279c-0.8-1.651-1.755-3.174-3.354-4.542l1.6-1.032
		c1.394,1.419,2.58,2.838,3.458,4.542L248.009,57.279z M265.684,66.052c-0.31,2.683-0.774,3.689-1.936,3.689h-3.896
		c-1.031,0-1.729-0.8-1.729-1.806v-7.018h-2.064c0.259,3.586-0.671,7.354-3.947,9.289l-0.567,0.335l-1.497-1.6
		c1.755-0.826,2.864-2.064,3.483-3.535c0.567-1.393,0.697-2.993,0.567-4.464l-4.309-0.025V59.06h14.604v1.883h-4.335v6.58
		c0.052,0.258,0.361,0.413,0.542,0.413l2.632-0.026c0.335,0,0.516-0.722,0.567-2.013l0.025-0.619L265.684,66.052z M250.744,53.254
		h12.669v1.832h-12.669V53.254z"/>
	<path fill="#58B5E1" d="M272.474,64.065c-0.748,0.361-1.6,0.722-2.374,0.955l-1.29-1.651c3.277-1.058,5.909-2.451,8.205-4.748
		l1.548,1.393c-1.6,1.522-3.638,2.916-5.599,3.845l15.688,0.051v7.276h3.122v1.858h-22.499v-1.858h3.199V64.065z M290.587,58.44
		h-20.126v-1.858h20.126V58.44z M273.273,50.958c2.013,1.238,3.303,2.219,4.748,4.206l-1.549,1.291
		c-1.109-1.625-2.967-3.071-4.696-4.258L273.273,50.958z M274.512,65.794v5.393h2.606v-5.393H274.512z M279.131,65.717v5.393h2.813
		v-5.393H279.131z M290.664,65.407c-1.857-2.038-6.708-4.077-8.799-4.851l1.316-1.471c3.045,0.852,6.786,2.89,8.902,4.825
		L290.664,65.407z M289.039,52.041c-1.497,1.961-2.813,3.097-4.619,4.413l-1.471-1.368c1.78-1.213,3.277-2.632,4.593-4.283
		L289.039,52.041z M283.956,65.717v5.393h2.58v-5.393H283.956z"/>
	<path fill="#58B5E1" d="M298.614,60.943h-3.457v-1.78h5.367v9.753c1.367,1.471,3.354,2.4,5.599,2.477
		c2.09,0.078,4.258,0.232,6.399,0.104l5.496-0.31l-0.774,2.116h-10.502c-4.722,0-5.831-1.316-7.121-2.684
		c-1.265,0.929-2.503,2.116-3.896,3.329l-1.471-1.548c1.6-1.161,3.045-2.374,4.36-3.458V60.943z M298.873,57.176
		c-0.697-1.522-1.936-3.38-3.406-4.619l1.445-1.058c1.548,1.238,2.89,3.122,3.638,4.567L298.873,57.176z M316.702,57.847v1.936
		h-4.387v10.553h-2.09V59.782h-4.36c-0.052,2.993-0.129,7.096-2.219,10.295l-1.78-0.955c1.444-2.864,1.986-3.845,1.986-7.586v-7.715
		c3.845-0.387,7.225-0.929,10.476-2.606l1.497,1.574c-3.251,1.677-6.709,2.374-10.012,2.735v2.322H316.702z"/>
</g>
<path fill="#58B5E1" d="M68.474,47.261h-2.322v4.283h-2.786v-4.283h-7.741v-2.916l7.741-10.863h2.786v11.457h2.322V47.261z
	 M57.895,44.938h5.471v-7.947h-0.052L57.895,44.938z"/>
<line fill="none" stroke="#58B5E1" stroke-width="1.5" stroke-miterlimit="10" stroke-dasharray="1.5,1.5" x1="0" y1="933.521" x2="768" y2="933.521"/>
<line fill="none" stroke="#58B5E1" stroke-width="1.5" stroke-miterlimit="10" stroke-dasharray="1.5,1.5" x1="0" y1="90.479" x2="768" y2="90.479"/>
</svg>
