<?xml version="1.0" encoding="utf-8"?>
<!-- Generator: Adobe Illustrator 16.0.0, SVG Export Plug-In . SVG Version: 6.00 Build 0)  -->
<!DOCTYPE svg PUBLIC "-//W3C//DTD SVG 1.1//EN" "http://www.w3.org/Graphics/SVG/1.1/DTD/svg11.dtd">
<svg version="1.1" id="Layer_1" xmlns="http://www.w3.org/2000/svg" xmlns:xlink="http://www.w3.org/1999/xlink" x="0px" y="0px"
	 width="768px" height="1024px" viewBox="0 0 768 1024" enable-background="new 0 0 768 1024" xml:space="preserve">
<g>
	<g>
		<g>
			<path fill="#F2F2F2" d="M629.082,142.124h2.652c-0.271-0.68-1.07-1.733-1.818-2.396l0.936-0.731
				c0.662,0.477,1.529,1.462,2.242,2.72l-0.525,0.374l2.072,0.034c0.596-0.578,1.377-1.836,1.785-3.025l1.189,0.561
				c-0.406,1.054-1.07,2.091-1.428,2.465h2.84v6.068h-4.318v1.394h6.834v1.19h-6.852v3.502h-1.258v-3.485h-6.713v-1.189h6.73v-1.411
				h-4.369V142.124z M633.434,145.728h-3.076v1.292h3.076V145.728z M633.451,144.487v-1.14h-3.076v1.14H633.451z M634.691,143.348
				v1.14h3.094v-1.14H634.691z M637.77,145.711h-3.061v1.309h3.061V145.711z"/>
			<path fill="#F2F2F2" d="M643.482,146.646c2.703-2.617,3.213-5.422,4.063-7.36l1.174,0.544c-0.443,1.326-0.867,2.55-1.361,3.688
				v10.981h-1.309v-8.771c-0.102,0.153-0.867,1.173-1.41,1.751L643.482,146.646z M658.883,153.445l-10.641,0.017v-1.274h4.59
				c1.359-2.414,2.516-4.93,2.686-7.989l1.291,0.492c-0.186,2.567-1.291,5.083-2.531,7.497h4.588L658.883,153.445z M648.633,144.028
				l-0.018-1.275l9.418-0.017v1.274L648.633,144.028z M651.42,151.286c-0.066-2.38-0.662-4.267-1.836-6.238l1.361-0.289
				c1.088,1.921,1.682,3.961,1.852,6.256L651.42,151.286z M652.016,139.251c0.867,0.562,1.887,1.854,2.328,2.873l-1.223,0.544
				c-0.494-1.122-1.174-1.988-2.295-2.72L652.016,139.251z"/>
			<path fill="#F2F2F2" d="M667.332,144.215v-1.836h1.836v1.836H667.332z M667.332,151.32v-1.836h1.836v1.836H667.332z"/>
			<path fill="#F2F2F2" d="M678.197,142.022v-1.275h14.855v1.292h-8.822c0,0.969-0.018,1.785-0.068,2.481h6.289
				c-0.221,3.417-0.662,6.409-1.461,8.721c-0.188,0.526-0.73,1.003-1.309,1.088c-0.781,0.136-1.395-0.255-2.074-0.493l-0.271-1.581
				c0.477,0.136,0.713,0.374,0.934,0.477c0.443,0.136,1.072,0.611,1.293,0.067c0.969-2.38,1.225-4.402,1.445-6.986h-4.914
				c-0.051,0.493-0.117,0.952-0.221,1.479c-0.578,2.805-2.191,5.677-4.93,7.309l-1.121-1.104c2.074-1.122,3.52-3.06,4.301-4.964
				c0.697-1.733,0.68-4.249,0.73-6.51H678.197z"/>
			<path fill="#F2F2F2" d="M696.045,152.748c0.799,0.153,1.361,0.408,1.99,0.425c0.289-0.067,0.305-0.425,0.441-0.73
				c0.441-1.326,0.697-2.567,0.713-3.961l-4.045-0.017c0.238-1.769,0.426-3.519,0.545-4.947h3.518v-1.972h-4.42v-1.224h5.66v4.42
				l-3.604,0.017c-0.084,0.612-0.152,1.802-0.289,2.465h3.91c-0.033,2.159-0.254,4.063-0.85,5.915
				c-0.17,0.511-0.68,1.055-1.225,1.173c-0.662,0.137-1.393,0-2.09-0.152L696.045,152.748z M705.717,151.456v1.343l-3.705,1.615
				l-0.764-0.969c0.34-0.137,0.594-0.374,0.594-0.681v-5.762h-1.377v-1.241h1.377v-6.119h1.293v4.232
				c1.461-0.629,3.076-1.666,4.725-3.553l0.918,0.901c-1.666,1.853-3.621,3.264-5.66,3.858v0.663l6.152,0.017v1.241l-3.637-0.018
				c0.152,1.7,0.85,3.349,2.227,4.658c0.545,0.526,1.139,1.036,1.904,1.529l-0.85,0.918c-0.613-0.271-1.037-0.697-1.48-1.071
				c-1.783-1.529-2.855-3.79-2.975-6.017h-1.324v5.592L705.717,151.456z"/>
		</g>
	</g>
</g>
<g>
	<g>
		<g>
			<path fill="#F2F2F2" d="M629.082,142.124h2.652c-0.271-0.68-1.07-1.733-1.818-2.396l0.936-0.731
				c0.662,0.477,1.529,1.462,2.242,2.72l-0.525,0.374l2.072,0.034c0.596-0.578,1.377-1.836,1.785-3.025l1.189,0.561
				c-0.406,1.054-1.07,2.091-1.428,2.465h2.84v6.068h-4.318v1.394h6.834v1.19h-6.852v3.502h-1.258v-3.485h-6.713v-1.189h6.73v-1.411
				h-4.369V142.124z M633.434,145.728h-3.076v1.292h3.076V145.728z M633.451,144.487v-1.14h-3.076v1.14H633.451z M634.691,143.348
				v1.14h3.094v-1.14H634.691z M637.77,145.711h-3.061v1.309h3.061V145.711z"/>
			<path fill="#F2F2F2" d="M643.482,146.646c2.703-2.617,3.213-5.422,4.063-7.36l1.174,0.544c-0.443,1.326-0.867,2.55-1.361,3.688
				v10.981h-1.309v-8.771c-0.102,0.153-0.867,1.173-1.41,1.751L643.482,146.646z M658.883,153.445l-10.641,0.017v-1.274h4.59
				c1.359-2.414,2.516-4.93,2.686-7.989l1.291,0.492c-0.186,2.567-1.291,5.083-2.531,7.497h4.588L658.883,153.445z M648.633,144.028
				l-0.018-1.275l9.418-0.017v1.274L648.633,144.028z M651.42,151.286c-0.066-2.38-0.662-4.267-1.836-6.238l1.361-0.289
				c1.088,1.921,1.682,3.961,1.852,6.256L651.42,151.286z M652.016,139.251c0.867,0.562,1.887,1.854,2.328,2.873l-1.223,0.544
				c-0.494-1.122-1.174-1.988-2.295-2.72L652.016,139.251z"/>
			<path fill="#F2F2F2" d="M667.332,144.215v-1.836h1.836v1.836H667.332z M667.332,151.32v-1.836h1.836v1.836H667.332z"/>
			<path fill="#F2F2F2" d="M678.197,142.022v-1.275h14.855v1.292h-8.822c0,0.969-0.018,1.785-0.068,2.481h6.289
				c-0.221,3.417-0.662,6.409-1.461,8.721c-0.188,0.526-0.73,1.003-1.309,1.088c-0.781,0.136-1.395-0.255-2.074-0.493l-0.271-1.581
				c0.477,0.136,0.713,0.374,0.934,0.477c0.443,0.136,1.072,0.611,1.293,0.067c0.969-2.38,1.225-4.402,1.445-6.986h-4.914
				c-0.051,0.493-0.117,0.952-0.221,1.479c-0.578,2.805-2.191,5.677-4.93,7.309l-1.121-1.104c2.074-1.122,3.52-3.06,4.301-4.964
				c0.697-1.733,0.68-4.249,0.73-6.51H678.197z"/>
			<path fill="#F2F2F2" d="M696.045,152.748c0.799,0.153,1.361,0.408,1.99,0.425c0.289-0.067,0.305-0.425,0.441-0.73
				c0.441-1.326,0.697-2.567,0.713-3.961l-4.045-0.017c0.238-1.769,0.426-3.519,0.545-4.947h3.518v-1.972h-4.42v-1.224h5.66v4.42
				l-3.604,0.017c-0.084,0.612-0.152,1.802-0.289,2.465h3.91c-0.033,2.159-0.254,4.063-0.85,5.915
				c-0.17,0.511-0.68,1.055-1.225,1.173c-0.662,0.137-1.393,0-2.09-0.152L696.045,152.748z M705.717,151.456v1.343l-3.705,1.615
				l-0.764-0.969c0.34-0.137,0.594-0.374,0.594-0.681v-5.762h-1.377v-1.241h1.377v-6.119h1.293v4.232
				c1.461-0.629,3.076-1.666,4.725-3.553l0.918,0.901c-1.666,1.853-3.621,3.264-5.66,3.858v0.663l6.152,0.017v1.241l-3.637-0.018
				c0.152,1.7,0.85,3.349,2.227,4.658c0.545,0.526,1.139,1.036,1.904,1.529l-0.85,0.918c-0.613-0.271-1.037-0.697-1.48-1.071
				c-1.783-1.529-2.855-3.79-2.975-6.017h-1.324v5.592L705.717,151.456z"/>
		</g>
	</g>
</g>
</svg>
