<?xml version="1.0" encoding="utf-8"?>
<!-- Generator: Adobe Illustrator 16.0.0, SVG Export Plug-In . SVG Version: 6.00 Build 0)  -->
<!DOCTYPE svg PUBLIC "-//W3C//DTD SVG 1.1//EN" "http://www.w3.org/Graphics/SVG/1.1/DTD/svg11.dtd">
<svg version="1.1" id="Layer_1" xmlns="http://www.w3.org/2000/svg" xmlns:xlink="http://www.w3.org/1999/xlink" x="0px" y="0px"
	 width="768px" height="1024px" viewBox="0 0 768 1024" enable-background="new 0 0 768 1024" xml:space="preserve">
<g>
	<g>
		<path fill="#FFFFFF" d="M161.575,360.927h-6.827c0.015-1.643,0.857-2.885,2.2-3.785c1.299-0.943,2.984-1.728,3.014-3.285
			c0.014-0.714-0.286-1.771-1.686-1.771c-1.285,0-1.671,1.1-1.714,2.5h-1.628c0-2.214,1.214-3.856,3.441-3.856
			c2.442,0,3.214,1.785,3.214,3.07c0,1.585-1.086,2.571-2.229,3.371c-1.156,0.8-2.37,1.414-2.656,2.299h4.87L161.575,360.927
			L161.575,360.927z"/>
		<path fill="#FFFFFF" d="M169.585,355.928c0,2.271-0.586,5.199-3.456,5.199c-2.871,0-3.456-2.928-3.456-5.199
			c0-2.271,0.585-5.198,3.456-5.198C168.999,350.729,169.585,353.657,169.585,355.928z M167.957,355.928
			c0-2.085-0.4-3.842-1.828-3.842c-1.429,0-1.828,1.757-1.828,3.842c0,2.085,0.399,3.842,1.828,3.842
			C167.557,359.77,167.957,358.013,167.957,355.928z"/>
		<path fill="#FFFFFF" d="M170.725,352.586c1.371,0.014,2.671-0.457,2.914-1.657h1.328v9.998h-1.785v-7.056h-2.457V352.586z"/>
		<path fill="#FFFFFF" d="M179.69,350.929h5.17v1.457h-3.956l-0.515,2.542l0.029,0.029c0.442-0.486,1.171-0.757,1.842-0.757
			c1.985,0,3.128,1.428,3.128,3.342c0,1.6-0.999,3.585-3.456,3.585c-1.928,0-3.428-1.043-3.499-3.042h1.628
			c0.1,1.071,0.785,1.686,1.843,1.686c1.385,0,1.856-0.986,1.856-2.2c0-1.1-0.586-2.085-1.899-2.085
			c-0.686,0-1.356,0.214-1.614,0.914h-1.628L179.69,350.929z"/>
	</g>
	<g>
		<path fill="#FFFFFF" d="M222.109,360.927h-6.827c0.015-1.643,0.857-2.885,2.2-3.785c1.3-0.943,2.984-1.728,3.013-3.285
			c0.015-0.714-0.285-1.771-1.685-1.771c-1.286,0-1.671,1.1-1.714,2.5h-1.629c0-2.214,1.215-3.856,3.442-3.856
			c2.442,0,3.214,1.785,3.214,3.07c0,1.585-1.086,2.571-2.229,3.371c-1.156,0.8-2.371,1.414-2.656,2.299h4.87L222.109,360.927
			L222.109,360.927z"/>
		<path fill="#FFFFFF" d="M230.119,355.928c0,2.271-0.586,5.199-3.456,5.199c-2.871,0-3.457-2.928-3.457-5.199
			c0-2.271,0.586-5.198,3.457-5.198C229.533,350.729,230.119,353.657,230.119,355.928z M228.491,355.928
			c0-2.085-0.4-3.842-1.828-3.842c-1.429,0-1.828,1.757-1.828,3.842c0,2.085,0.399,3.842,1.828,3.842
			C228.091,359.77,228.491,358.013,228.491,355.928z"/>
		<path fill="#FFFFFF" d="M231.259,352.586c1.371,0.014,2.671-0.457,2.914-1.657h1.328v9.998h-1.785v-7.056h-2.457V352.586z"/>
		<path fill="#FFFFFF" d="M244.109,353.457c-0.071-0.814-0.614-1.371-1.457-1.371c-1.771,0-1.971,2.114-2.071,3.428l0.029,0.029
			c0.442-0.786,1.271-1.186,2.156-1.186c1.985,0,3.156,1.442,3.156,3.356c0,1.942-1.328,3.414-3.327,3.414
			c-2.942,0-3.643-2.314-3.643-5.228c0-2.385,0.942-5.17,3.771-5.17c1.586,0,2.928,1.1,3.014,2.728H244.109L244.109,353.457z
			 M244.295,357.685c0-1.071-0.586-2.042-1.757-2.042c-1.186,0-1.8,0.942-1.8,2.042c0,1.085,0.614,2.085,1.8,2.085
			C243.709,359.77,244.295,358.756,244.295,357.685z"/>
	</g>
	<g>
		<path fill="#FFFFFF" d="M156.315,274.806c1.2,0.047,2.448-0.379,2.448-1.737c0-0.932-0.727-1.563-1.722-1.563
			c-1.247,0-1.863,1.122-1.832,2.258h-1.8c0.095-2.147,1.437-3.758,3.663-3.758c1.722,0,3.49,0.995,3.49,2.953
			c0,1.105-0.505,1.99-1.563,2.369v0.032c1.248,0.253,2.006,1.342,2.006,2.764c0,2.085-1.8,3.38-3.916,3.38
			c-2.559,0-3.838-1.548-3.886-3.854h1.801c-0.048,1.342,0.679,2.353,2.085,2.353c1.2,0,2.116-0.71,2.116-1.974
			c0-1.721-1.469-1.942-2.891-1.879L156.315,274.806L156.315,274.806z"/>
		<path fill="#FFFFFF" d="M165.084,274.806c1.2,0.047,2.448-0.379,2.448-1.737c0-0.932-0.727-1.563-1.722-1.563
			c-1.247,0-1.863,1.122-1.832,2.258h-1.8c0.095-2.147,1.437-3.758,3.663-3.758c1.722,0,3.49,0.995,3.49,2.953
			c0,1.105-0.505,1.99-1.563,2.369v0.032c1.248,0.253,2.006,1.342,2.006,2.764c0,2.085-1.8,3.38-3.916,3.38
			c-2.559,0-3.838-1.548-3.886-3.854h1.801c-0.048,1.342,0.679,2.353,2.085,2.353c1.2,0,2.116-0.71,2.116-1.974
			c0-1.721-1.469-1.942-2.891-1.879L165.084,274.806L165.084,274.806z"/>
		<path fill="#FFFFFF" d="M170.742,278.028c0-1.39,0.79-2.385,2.021-2.701v-0.031c-0.995-0.379-1.563-1.2-1.563-2.274
			c0-1.879,1.248-3.016,3.443-3.016s3.442,1.137,3.442,3.016c0,1.074-0.568,1.895-1.563,2.274v0.031
			c1.232,0.316,2.021,1.311,2.021,2.701c0,2.164-1.658,3.475-3.9,3.475C172.4,281.502,170.742,280.191,170.742,278.028z
			 M176.744,278.028c0-1.216-0.9-1.942-2.101-1.942c-1.201,0-2.101,0.727-2.101,1.942c0,1.295,0.9,2.053,2.101,2.053
			C175.844,280.081,176.744,279.323,176.744,278.028z M172.906,273.116c0,1.042,0.742,1.627,1.737,1.627s1.737-0.584,1.737-1.627
			c0-1.089-0.774-1.689-1.737-1.689S172.906,272.027,172.906,273.116z"/>
		<path fill="#FFFFFF" d="M179.511,278.028c0-1.39,0.79-2.385,2.021-2.701v-0.031c-0.994-0.379-1.563-1.2-1.563-2.274
			c0-1.879,1.248-3.016,3.443-3.016c2.195,0,3.442,1.137,3.442,3.016c0,1.074-0.568,1.895-1.563,2.274v0.031
			c1.232,0.316,2.021,1.311,2.021,2.701c0,2.164-1.658,3.475-3.9,3.475C181.169,281.502,179.511,280.191,179.511,278.028z
			 M185.513,278.028c0-1.216-0.9-1.942-2.101-1.942c-1.201,0-2.101,0.727-2.101,1.942c0,1.295,0.9,2.053,2.101,2.053
			C184.613,280.081,185.513,279.323,185.513,278.028z M181.675,273.116c0,1.042,0.742,1.627,1.737,1.627s1.737-0.584,1.737-1.627
			c0-1.089-0.774-1.689-1.737-1.689C182.448,271.427,181.675,272.027,181.675,273.116z"/>
	</g>
	<line fill="none" stroke="#F2F2F2" stroke-miterlimit="10" x1="123.233" y1="371.333" x2="285.118" y2="371.333"/>
	<path fill="#F2F2F2" d="M140.619,400.978v-10.152c-0.535,0.727-1.128,1.491-1.778,2.142l-1.014-0.746
		c2.772-2.447,3.824-5.468,4.608-8.737l1.07,0.439c-0.439,1.587-0.994,3.748-1.701,5.22l0.019,11.835L140.619,400.978
		L140.619,400.978z M155.398,391.169h-12.466l-0.02-1.128l2.964,0.02v-2.906h-2.161l0.02-1.128h2.142l0.019-2.447h1.186v2.447h3.747
		l0.02-2.447l1.186,0.02v2.408h2.122v1.147h-2.122l-0.02,2.83h3.385v1.184H155.398z M152.129,400.997v-1.224l-6.348,0.019v1.205
		h-1.205v-8.164h8.738v8.164H152.129z M152.109,395.605v-1.626l-6.328-0.019v1.645H152.109z M145.781,398.646h6.348l-0.02-2.027
		h-6.328V398.646z M150.828,387.154h-3.747v2.887h3.767L150.828,387.154z"/>
	<path fill="#F2F2F2" d="M160.982,400.232l-0.707-1.033c0.287-0.229,0.459-0.535,0.459-0.956v-8.163h-2.792v-1.09h3.978v9.464
		l2.504-1.435v1.281L160.982,400.232z M161.346,386.944c-0.497-1.033-1.376-1.988-2.313-2.754l0.822-0.707
		c0.994,0.669,1.912,1.702,2.467,2.715L161.346,386.944z M164.52,385.988v-1.166h8.317v8.278h-1.281v-1.071h-5.104v6.176
		c0,0.479,0.344,0.803,0.803,0.803h4.723c0.363,0,0.745-0.401,0.841-0.688c0.229-0.67,0.268-1.436,0.306-2.161l1.224,0.479
		c-0.057,0.649-0.229,1.242-0.401,1.873c-0.19,0.67-0.745,1.664-1.873,1.664h-5.028c-0.899,0-1.874-0.688-1.874-1.74v-7.552h6.386
		v-4.895H164.52z"/>
	<path fill="#F2F2F2" d="M193.144,392.145h-8.565v8.853h-1.186v-8.853H176.7v-1.109h6.692v-7.36h1.186v2.944h7.131v1.09h-7.131
		v3.326h8.565L193.144,392.145L193.144,392.145z M190.371,397.077c-1.415-1.242-3.06-2.275-4.761-2.695l0.745-0.994
		c1.798,0.592,3.423,1.51,4.876,2.829L190.371,397.077z"/>
	<path fill="#F2F2F2" d="M202.342,397.689c-1.702,1.185-3.671,1.854-5.774,2.122c-0.268-0.345-0.535-0.688-0.841-1.032
		c2.103-0.211,4.129-0.727,5.831-1.874L202.342,397.689z M210.065,391.456c-2.753,1.97-5.889,2.982-9.043,3.938
		c2.581-0.134,5.143-0.248,7.686-0.42c-0.439-0.325-0.918-0.517-1.396-0.727c0.248-0.307,0.65-0.555,0.956-0.804
		c0.783,0.307,1.472,0.765,2.16,1.301c0.65,0.516,1.396,1.146,1.97,1.835l-1.052,0.746c-0.421-0.459-0.822-0.976-1.319-1.377
		l-5.104,0.306v3.231c0,0.535-0.421,0.898-0.938,1.108c-0.688,0.211-1.567,0.058-2.313,0.115l-0.401-1.186l1.893,0.058
		c0.191,0,0.363-0.153,0.459-0.287l0.058-0.229v-2.715c-2.104,0.096-4.455,0.363-6.501,0.593l-0.937-1.243
		c2.523-0.516,4.971-1.262,7.323-2.122c-1.932,0.077-3.92,0.211-5.832,0.459c-0.191-0.382-0.497-0.745-0.727-1.108
		c2.237-0.459,4.264-1.473,6.118-2.677l-5.583-0.038l-0.019-6.176l13.097,0.019v6.138h-6.635l0.497,0.439
		c-1.09,0.88-2.352,1.473-3.613,1.932c1.893-0.02,3.767-0.191,5.659-0.268c0.88-0.479,1.778-0.976,2.601-1.606L210.065,391.456z
		 M198.785,386.562h4.703l0.02-1.396l-4.723,0.02V386.562z M198.785,387.633v1.452h4.703v-1.452H198.785z M204.712,385.186
		l0.02,1.376l4.665-0.019l-0.02-1.377L204.712,385.186z M204.712,387.633v1.452h4.685v-1.452H204.712z M211.729,399.926
		c-1.701-1.146-3.594-1.854-5.697-2.084c0.172-0.344,0.459-0.649,0.669-1.013c2.084,0.286,4.016,0.994,5.736,2.16L211.729,399.926z"
		/>
	<path fill="#F2F2F2" d="M218.327,400.614l-0.708-1.032c0.287-0.229,0.459-0.479,0.459-0.956v-8.623h-2.887v-1.09h4.072v9.923
		l2.964-1.625v1.281L218.327,400.614z M218.786,386.867c-0.497-1.032-1.377-1.988-2.313-2.753l0.822-0.707
		c0.994,0.669,1.911,1.701,2.466,2.715L218.786,386.867z M226.108,390.52h-4.589v-1.147h4.589v-5.851h1.186v5.851h4.607v1.147
		h-4.607v10.4h-1.186V390.52z"/>
	<path fill="#F2F2F2" d="M249.78,400.786c-2.888-0.688-3.996-1.625-5.966-3.097c-1.778,1.721-3.957,2.638-6.175,3.059l-0.67-0.975
		c2.409-0.517,4.359-1.319,6.004-2.85c-0.784-0.765-2.218-2.829-2.906-4.282c-1.166,3.441-3.479,5.735-5.889,7.609l-0.803-0.86
		c3.269-2.485,5.296-5.679,6.558-9.885h-4.569v-1.108c0.649-1.435,1.166-2.944,1.721-4.341l0.956,0.517
		c-0.325,1.186-0.918,2.753-1.415,3.824h3.595c0.401-1.568,0.593-3.098,0.783-4.761l1.128,0.325
		c-0.21,1.529-0.401,2.982-0.727,4.454h8.527v1.09h-8.775c-0.229,0.612-0.401,1.243-0.612,1.874h6.788
		c-0.039,0.344,0.096,0.727-0.058,1.052c-0.707,1.548-1.549,3.135-2.753,4.474c1.777,1.472,3.823,2.39,6.061,2.944L249.78,400.786z
		 M241.253,392.488c0.555,1.071,1.567,2.771,2.485,3.595c0.994-1.108,1.74-2.275,2.313-3.595H241.253z M246.396,387.651
		c-0.688-1.128-1.835-2.026-2.925-2.657l0.784-0.746c1.204,0.631,2.294,1.549,3.078,2.639L246.396,387.651z"/>
	<path fill="#F2F2F2" d="M256.015,393.177c-0.573,0.535-1.74,1.3-2.256,1.663c-0.363-0.344-0.765-0.611-1.032-0.937
		c2.352-1.338,4.34-3.556,5.889-5.755l0.975,0.65c-0.478,0.86-1.587,2.18-2.371,3.097v8.986h-1.204L256.015,393.177L256.015,393.177
		z M258.71,384.096c-1.242,1.893-2.791,3.861-4.703,5.219c-0.096,0.039-0.057-0.096-0.134-0.114l-0.86-0.746
		c1.932-1.338,3.537-3.116,4.78-5.066L258.71,384.096z M260.049,390.787v-1.166l9.847,0.019v1.147h-3.519v8.45
		c-0.096,0.612-0.325,1.014-0.783,1.301c-0.345,0.21-0.784,0.229-1.205,0.229h-2.064c-0.115-0.401-0.287-0.784-0.383-1.205
		c0.842,0.077,1.721,0.077,2.581,0.058c0.249-0.058,0.517-0.191,0.574-0.612v-8.221H260.049L260.049,390.787z M268.69,386.026
		h-8.183v-1.166h8.183V386.026z"/>
	<path fill="#F2F2F2" d="M155.15,413.656v1.07h-2.829c-0.229,3.862-2.353,6.673-4.054,8.699c-0.268-0.306-0.612-0.631-0.88-0.859
		c1.568-1.74,3.27-4.417,3.786-7.839h-3.441v-1.09h3.46c0.058-0.975,0-1.95,0-2.964h-2.905v-1.108h2.887l0.019-3.002
		c0.383-0.038,0.766-0.019,1.167-0.019c-0.02,1.051-0.02,1.931,0,3.001h2.447v1.109h-2.409c0.019,1.166,0.019,2.256-0.038,3.002
		L155.15,413.656L155.15,413.656z M160.083,409.774c-0.114,2.142-0.306,3.671-0.649,5.603c-0.766,4.264-2.639,6.52-6.998,8.259
		c-0.268-0.306-0.535-0.727-0.727-1.032c2.409-0.937,4.799-2.083,5.946-5.104c0.86-2.256,1.186-5.028,1.338-7.896L160.083,409.774z
		 M152.875,416.734c1.09,0.649,2.199,1.816,2.83,2.925c-0.287,0.249-0.593,0.535-0.918,0.708c-0.555-1.167-1.605-2.199-2.657-2.964
		L152.875,416.734z M162.091,418.092v-9.693h-5.334v9.693h-1.128v-10.765h7.59v10.765H162.091z M160.943,422.891
		c-1.052,0-1.549-0.669-1.549-1.224v-5.066h1.129v4.933c0.038,0.134,0.172,0.229,0.306,0.268h2.447
		c0.516-0.325,0.382-1.052,0.593-1.568l0.057-0.306c0.307,0.077,0.632,0.287,0.938,0.421c-0.211,0.937-0.268,2.313-1.491,2.542
		L160.943,422.891L160.943,422.891z"/>
	<path fill="#F2F2F2" d="M172.303,417.27c-0.287-0.822-0.766-1.702-1.339-2.371v8.986h-1.204v-8.298
		c-0.536,1.357-1.224,2.811-2.161,3.977l-0.956-0.841c1.912-2.619,2.696-4.321,3.098-7.189h-2.543v-1.146h2.563v-3.805h1.204v3.805
		h2.122v1.146h-2.122v2.447l0.517-0.286c0.803,0.994,1.414,1.854,1.854,2.925L172.303,417.27z M177.331,418.761
		c0.152-0.478,0.248-0.937,0.286-1.434h-3.785v-5.794h8.737v5.794h-3.824c-0.057,0.497-0.152,0.956-0.268,1.434h5.01v1.108h-4.034
		c1.166,1.95,3.116,2.62,4.895,2.982l-0.65,0.976c-2.237-0.306-4.589-1.739-5.43-3.938h-0.115c-1.013,2.122-3.288,3.384-5.372,3.938
		l-0.669-1.032c1.835-0.421,3.689-1.224,4.779-2.926h-4.015v-1.108H177.331z M176.471,409.564v1.511h-1.186v-1.511h-2.772v-1.147
		h2.772v-1.893h1.186v1.893h3.441v-1.893h1.185v1.893h2.754v1.147h-2.754v1.511h-1.185v-1.511H176.471z M181.365,412.662h-6.329
		v1.185h6.329V412.662z M175.036,414.937v1.262h6.329v-1.262H175.036z"/>
	<path fill="#F2F2F2" d="M185.496,418.417c1.511-1.74,2.429-3.748,2.906-5.908h-2.122v-1.147h2.352v-2.352
		c-0.765,0.096-1.567,0.229-2.39,0.229l-0.669-1.204c2.18,0.096,4.091-0.44,5.984-1.033c0.172,0.307,0.324,0.65,0.554,0.899
		c-0.745,0.344-1.491,0.593-2.274,0.821v2.639h2.274v1.147h-2.256v1.453l0.708-0.459c0.898,0.88,1.605,1.816,2.007,2.982
		c-0.325,0.229-0.669,0.439-1.032,0.631c-0.325-1.032-0.898-1.969-1.683-2.811v9.463h-1.224v-8.508
		c-0.516,1.435-1.147,2.792-2.237,3.977L185.496,418.417z M191.137,422.661c-0.306-0.229-0.65-0.573-0.956-0.842
		c1.186-0.821,1.874-1.969,2.39-3.212c0.325,0.191,0.612,0.44,0.956,0.593C193.011,420.462,192.284,421.743,191.137,422.661z
		 M192.972,413.541h7.839v-1.415h-7.074v-0.822l-0.095,0.021c-0.249,0.115-0.459,0.306-0.746,0.344l-0.688-1.013
		c1.74-0.708,2.982-2.429,3.327-4.206c0.382,0.076,0.688,0.324,1.09,0.401c-0.115,0.401-0.229,0.822-0.401,1.204l4.264,0.021v1.013
		c-0.287,0.688-0.555,1.263-0.956,1.912h2.447v6.329h-8.623v-1.129h7.456v-1.529h-7.839L192.972,413.541L192.972,413.541z
		 M195.668,409.201c-0.459,0.688-0.956,1.262-1.568,1.797h4.073c0.382-0.459,0.86-1.319,1.07-1.797H195.668z M195.305,423.024
		c-0.803-0.269-1.109-0.822-1.186-1.453v-3.843h1.166v3.689c0.038,0.173,0.173,0.459,0.383,0.459h3.192
		c0.211,0.021,0.345-0.114,0.44-0.191c0.134-0.285,0.248-0.937,0.325-1.586l1.089,0.612c-0.248,0.803-0.344,1.874-1.3,2.237
		l-0.555,0.076L195.305,423.024L195.305,423.024z M198.574,419.946c-0.325,0.191-0.65,0.438-0.994,0.573
		c-0.307-0.918-0.842-1.721-1.453-2.505c0.306-0.152,0.573-0.363,0.898-0.497C197.656,418.283,198.287,419.028,198.574,419.946z
		 M203.315,421.533c-0.248,0.325-0.573,0.61-0.841,0.918c-0.593-1.205-1.645-2.409-2.792-3.174l0.746-0.804
		c0.822,0.535,1.567,1.301,2.218,2.065L203.315,421.533z"/>
	<path fill="#F2F2F2" d="M217.064,420.424c-3.385,2.218-7.419,2.906-11.549,3.346c-0.114-0.4-0.286-0.782-0.401-1.203
		c4.417-0.518,8.948-0.881,12.218-3.958c1.09-1.013,1.721-2.352,2.332-3.613c0.345,0.191,0.67,0.439,1.032,0.65
		C219.875,417.403,218.804,419.277,217.064,420.424z M211.615,415.893c-1.415,1.74-3.346,3.289-5.392,4.206
		c-0.306-0.306-0.593-0.688-0.88-0.994c1.95-0.803,3.786-2.218,5.258-3.938L211.615,415.893z M205.784,414.038v-1.186l2.811,0.02
		v-4.589h1.262l0.019,4.589h3.537v-6.405h1.281v2.485h6.214l0.019,1.167l-6.194,0.019v2.734h7.189l-0.02,1.147h-6.998v5.276h-1.3
		l-0.02-5.276L205.784,414.038z"/>
	<path fill="#F2F2F2" d="M224.351,410.405h2.485v-3.767h1.166v3.767h2.161v1.109h-2.161v3.9l1.874-0.822v1.281l-1.874,0.803v5.793
		c0,0.822-0.611,1.377-1.434,1.377h-1.625l-0.383-1.146c0.65,0.038,1.09,0.038,1.645,0.058c0.401,0,0.631-0.19,0.631-0.517v-5.182
		l-2.026,0.822l-0.784-1.013c0.937-0.307,1.912-0.574,2.811-0.976v-4.378h-2.485L224.351,410.405L224.351,410.405z M231.597,421.456
		c-0.421,0.976-1.128,1.97-2.104,2.524l-0.822-0.898c1.435-0.938,2.257-2.524,2.409-4.207c0.058-0.573,0.077-1.013,0.038-1.491
		l1.147,0.153c0.02,0.727-0.038,1.529-0.172,2.256l0.21,0.249c0.631,0.745,1.702,1.224,2.543,1.472v-5.2h-4.531v-1.09h10.688v1.09
		h-5.009v2.026h3.9v1.071h-3.9v2.39c1.396,0.152,2.982,0.172,5.697,0l-0.478,1.225h-3.958c-2.084,0-3.996-0.65-5.487-1.971
		L231.597,421.456z M231.138,407.385h8.298v6.539h-8.298V407.385z M232.304,408.475v1.567h5.966v-1.567H232.304z M232.304,411.094
		v1.74h5.966v-1.74H232.304z"/>
	<path fill="#F2F2F2" d="M243.739,422.853c1.09-0.459,1.912-1.128,2.313-1.511c1.529-1.529,2.447-3.346,2.409-5.965h-4.264
		l0.019-1.147h4.359l0.02-4.741c-1.128,0.286-2.352,0.497-3.557,0.573l-0.649-1.186c2.811-0.134,5.448-0.784,7.724-2.198
		l0.842,0.898c-0.995,0.669-2.065,1.128-3.155,1.567v5.105l4.952-0.02v-7.609h1.186v7.629l4.168-0.02l0.019,1.147l-4.168-0.02v8.642
		h-1.204v-8.622l-5.01-0.02c-0.076,2.084-0.458,4.054-1.701,5.679c-0.956,1.224-2.18,2.198-3.479,2.887L243.739,422.853z"/>
	<rect x="209.001" y="216.4" opacity="0.698" fill="#328EC0" enable-background="new    " width="42.873" height="122.904"/>
	<rect x="148.565" y="290.147" opacity="0.698" fill="#797979" enable-background="new    " width="42.795" height="49.157"/>
	<g>
		<path fill="#FFFFFF" d="M215.809,200.138c1.2,0.047,2.448-0.38,2.448-1.737c0-0.933-0.727-1.563-1.722-1.563
			c-1.247,0-1.863,1.121-1.832,2.258h-1.8c0.095-2.147,1.437-3.759,3.663-3.759c1.722,0,3.49,0.995,3.49,2.953
			c0,1.105-0.505,1.99-1.563,2.369v0.032c1.248,0.252,2.006,1.342,2.006,2.764c0,2.084-1.8,3.379-3.916,3.379
			c-2.559,0-3.838-1.547-3.886-3.854h1.801c-0.048,1.343,0.679,2.354,2.085,2.354c1.2,0,2.116-0.711,2.116-1.974
			c0-1.722-1.469-1.943-2.891-1.88L215.809,200.138L215.809,200.138z"/>
		<path fill="#FFFFFF" d="M221.466,203.36c0-1.391,0.79-2.385,2.021-2.701v-0.031c-0.994-0.379-1.563-1.2-1.563-2.274
			c0-1.879,1.248-3.017,3.443-3.017c2.195,0,3.442,1.138,3.442,3.017c0,1.074-0.568,1.896-1.563,2.274v0.031
			c1.232,0.316,2.021,1.311,2.021,2.701c0,2.163-1.658,3.474-3.9,3.474C223.124,206.833,221.466,205.523,221.466,203.36z
			 M227.468,203.36c0-1.217-0.9-1.943-2.101-1.943c-1.201,0-2.101,0.727-2.101,1.943c0,1.295,0.9,2.053,2.101,2.053
			C226.568,205.413,227.468,204.655,227.468,203.36z M223.63,198.448c0,1.042,0.742,1.627,1.737,1.627
			c0.995,0,1.737-0.585,1.737-1.627c0-1.09-0.774-1.689-1.737-1.689C224.403,196.758,223.63,197.358,223.63,198.448z"/>
		<path fill="#FFFFFF" d="M237.958,201.085c0,2.511-0.647,5.748-3.821,5.748c-3.175,0-3.822-3.237-3.822-5.748
			c0-2.511,0.647-5.749,3.822-5.749C237.311,195.336,237.958,198.575,237.958,201.085z M236.158,201.085
			c0-2.306-0.442-4.248-2.021-4.248c-1.579,0-2.021,1.942-2.021,4.248s0.442,4.248,2.021,4.248
			C235.716,205.333,236.158,203.391,236.158,201.085z"/>
		<path fill="#FFFFFF" d="M239.004,203.36c0-1.391,0.79-2.385,2.021-2.701v-0.031c-0.995-0.379-1.563-1.2-1.563-2.274
			c0-1.879,1.248-3.017,3.443-3.017c2.195,0,3.442,1.138,3.442,3.017c0,1.074-0.568,1.896-1.563,2.274v0.031
			c1.232,0.316,2.021,1.311,2.021,2.701c0,2.163-1.658,3.474-3.9,3.474C240.662,206.833,239.004,205.523,239.004,203.36z
			 M245.006,203.36c0-1.217-0.9-1.943-2.101-1.943c-1.201,0-2.101,0.727-2.101,1.943c0,1.295,0.9,2.053,2.101,2.053
			C244.106,205.413,245.006,204.655,245.006,203.36z M241.168,198.448c0,1.042,0.742,1.627,1.737,1.627
			c0.995,0,1.737-0.585,1.737-1.627c0-1.09-0.774-1.689-1.737-1.689C241.941,196.758,241.168,197.358,241.168,198.448z"/>
	</g>
</g>
</svg>
