<?xml version="1.0" encoding="utf-8"?>
<!-- Generator: Adobe Illustrator 16.0.0, SVG Export Plug-In . SVG Version: 6.00 Build 0)  -->
<!DOCTYPE svg PUBLIC "-//W3C//DTD SVG 1.1//EN" "http://www.w3.org/Graphics/SVG/1.1/DTD/svg11.dtd">
<svg version="1.1" id="Layer_1" xmlns="http://www.w3.org/2000/svg" xmlns:xlink="http://www.w3.org/1999/xlink" x="0px" y="0px"
	 width="768px" height="1024px" viewBox="0 0 768 1024" enable-background="new 0 0 768 1024" xml:space="preserve">
<g>
	<path fill="#FFFFFF" d="M524.946,246.294h-2.141v2h2.722v1.44h-2.722v4.461l2.66-1.3v1.541l-4.081,2.121l-0.899-1.28
		c0.579-0.32,0.761-0.8,0.761-1.36v-4.181h-2.82v-1.44h2.82v-2h-0.9c-0.439,0.6-0.961,1.06-1.66,1.52l-1.121-1.2
		c1.98-1.16,3.343-4.681,3.321-7.401l1.44,0.36c0.06,1.081-0.101,2.141-0.181,2.341h3.24v1.44h-3.602
		c-0.181,0.56-0.439,1.081-0.619,1.48h3.78L524.946,246.294L524.946,246.294z M529.828,257.116v-10.282h-4.262v-1.46h4.262v-6.201
		h1.56v6.201h4.182v1.46h-4.182v10.282H529.828z"/>
	<path fill="#FFFFFF" d="M545.867,241.493c-0.062,2.941-0.74,5.562-1.682,7.902c1,1.5,1.98,3.361,2.642,5.201l-1.501,0.66
		c-0.459-1.561-1.18-3.341-1.859-4.321c-0.66,1.661-2.201,4.181-4.922,6.001l-1.16-1.16c2.08-1.3,4.142-3.641,5.183-6.241
		c-0.802-1.18-2.342-2.901-3.701-3.981l1.12-0.88c1.341,1.18,2.681,2.46,3.199,3.261c0.541-1.48,1.062-3.301,1.16-5.061h-6.319
		v-1.38L545.867,241.493L545.867,241.493z M549.729,256.936l-0.5-1.52c0.898,0.04,1.601,0.16,2.3,0.12c0.121,0,0.2-0.1,0.28-0.22
		l-0.021-10.902h-5.542v-1.42h5.521v-3.841h1.541v3.841h1.9v1.4h-1.921v11.222c-0.1,0.5-0.46,0.94-0.899,1.16l-0.461,0.16H549.729z
		 M547.667,246.514c0.96,0.88,2.36,2.741,3.12,4.681l-1.42,0.86c-0.62-1.721-1.562-3.401-2.801-4.761L547.667,246.514z"/>
	<path fill="#FFFFFF" d="M563.766,250.435c-1.278,0.6-2.899,1.32-4.58,1.9c-0.34-0.42-0.601-0.74-0.939-1.26
		c2.801-1.04,5.321-2.041,7.241-3.241l-6.103-0.06v-1.44l6.042,0.02l-0.021-2.921h-4.541l-0.021-1.44l4.581-0.02v-2.88l1.561,0.02
		v2.86h4.102v1.46l-4.081,0.02l-0.021,2.881h0.801c2.26-1.561,4.061-3.421,6.161-5.881l1.181,0.92
		c-1.561,1.88-3.261,3.781-4.762,4.941l5.002,0.04v1.42l-6.962,0.02c-0.86,0.64-2.222,1.48-3.102,2v1.5
		c2.841-0.14,5.521-1.04,8.162-2.5l0.9,1.18c-2.901,1.46-5.781,2.581-9.022,2.741v1.48c0,0.36,0.239,0.541,0.682,0.58h6.061
		c0.32-0.08,0.58-0.16,0.68-0.5c0.201-0.68,0.342-1.36,0.4-2.22c0.621,0.04,1,0.24,1.562,0.34c-0.16,0.94-0.439,1.76-0.7,2.561
		c-0.319,0.7-0.641,1.3-1.9,1.3h-6.361c-1.14,0-2.001-1.06-2.001-2.061L563.766,250.435L563.766,250.435z"/>
	<path fill="#FFFFFF" d="M583.606,239.532c-0.08,0.7-0.28,1.22-0.381,1.561h11.202v1.46l-6.102,0.04l0.021,2.561h5.102v1.48h-5.102
		v3.241h6.9v1.48l-6.9-0.02v5.761h-1.58v-5.741h-7.803v-1.5l2.48,0.02v-4.721l5.321-0.02v-2.561h-4.12c-0.642,1.3-1.4,2.74-2.763,4
		l-1.26-1.021c1.82-1.621,2.961-3.801,3.701-6.642L583.606,239.532z M582.986,246.634v3.241h3.761l0.021-3.241H582.986z"/>
	<path fill="#FFFFFF" d="M611.788,256.996l-1.501,0.02v-1.12h-6.721l-0.021,1.16l-1.501,0.02v-6.361
		c-1.08,0.28-2.501,0.5-3.581,0.64l-0.76-1.44c2.979-0.32,5.602-0.88,7.781-1.84c-0.939-0.68-1.58-1.28-2.142-1.88
		c-0.68,0.78-1.698,1.48-2.66,2.18l-1.319-0.96c2.281-1.32,3.841-2.94,4.621-4.781l1.279,0.5c-0.101,0.44-0.319,0.82-0.359,0.92
		h6.86l-0.02,1.32c-0.92,1.2-2.201,2.201-3.141,2.781c1.979,1,4.581,1.34,7.461,1.54l-0.66,1.561c-3.18-0.48-6.501-1.24-8.301-2.26
		c-1.422,0.7-3.361,1.38-4.763,1.62l9.442,0.04v6.34H611.788z M606.287,241.093c-0.26-0.22-0.881-0.86-1.841-1.2l1.521-0.98
		c1.78,0.84,2.2,2.081,2.26,2.161l6.423,0.02v3.961l-1.54-0.02l0.021-2.48h-12.482v2.541l-1.5-0.02v-3.981h7.14V241.093z
		 M610.268,252.115h-6.7v2.32h6.721L610.268,252.115z M604.787,245.514c0.56,0.62,1.279,1.32,2.26,1.8c0.98-0.52,1.86-1.16,2.48-1.8
		H604.787z"/>
	<path fill="#FFFFFF" d="M632.368,248.574v-0.82h-10.202c0.061,4.461-0.521,6.902-2.82,9.302l-1.381-1.08
		c2.062-1.781,2.66-4.001,2.66-6.501v-7.302h6.422c-0.24-0.58-1.221-1.46-2.461-2.3l1.121-0.98c0.92,0.7,2.141,1.581,2.979,2.761
		l-0.659,0.46l5.86,0.06v6.401L632.368,248.574L632.368,248.574z M632.368,243.613h-10.222v2.701h10.222V243.613z"/>
	<path fill="#FFFFFF" d="M525.106,279.796h-3.422v1.18h-1.52v-5.241c-0.42,0.44-0.721,0.68-1.361,1.2l-1.26-1
		c1.961-1.46,2.721-2.861,3.261-4.081l-1.66-0.02v-1.44h1.961c0.159-0.561,0.199-1.3,0.26-1.88h-3.222l0.021-1.44h3.241l0.02-1.721
		l-2.261,0.02v-1.46h7.702v3.141h0.8v-0.66h2.501c-0.461-1.041-1.341-2.061-2.281-2.741l1.281-0.8c0.859,0.66,1.72,1.4,2.5,3.001
		l-0.76,0.5l0.84,0.04c0.88-0.98,1.561-2.101,1.78-3.661l1.341,0.82c-0.201,1.2-0.781,2.181-1.301,2.841h2v1.44l-3.2,0.02
		l0.021,2.561h2.54v1.44h-2.561v2.761l3.741,0.02v1.44h-3.741l0.021,4.901h-1.541v-4.881l-3.78-0.02v-1.46h3.78v-2.741h-2.541v-1.46
		h2.541v-2.581h-2.739v0.68h-1.24v3.34h-4.603c-0.1,0.48-0.358,0.98-0.5,1.32h4.843v7.802h-1.501L525.106,279.796L525.106,279.796z
		 M525.127,274.615h-3.441v3.721h3.422L525.127,274.615z M525.347,270.394v-1.88h-2.479c-0.04,0.56-0.102,1.24-0.261,1.88H525.347z
		 M525.347,265.353h-2.479v1.701h2.479V265.353z"/>
	<path fill="#FFFFFF" d="M544.446,273.555c-0.8,0.26-1.479,0.54-2.102,0.74v4.661c0,0.72-0.02,1.2-0.54,1.681
		c-0.439,0.38-1.64,0.46-2.66,0.44l-0.58-1.541c0.819,0.06,1.341,0.14,1.899,0.04c0.261-0.02,0.381-0.26,0.381-0.46v-4.301
		c-0.46,0.18-1.221,0.48-2,0.72c-0.319-0.4-0.541-0.74-0.899-1.26c1.16-0.32,2.08-0.621,2.881-0.92v-4.841h-2.381v-1.42h2.381
		l0.02-3.881h1.5v3.881h2v1.42h-2v4.241c0.541-0.16,1.602-0.58,2.062-0.8L544.446,273.555z M542.626,270.774
		c2.181-2.28,3.401-4.801,4.081-7.722l1.36,0.48c-0.32,1.22-0.562,2.301-0.9,3.141h8.262v1.44h-3.939l-0.021,2.221h2.921v1.46
		h-2.921l0.021,2.361h2.899v1.44h-2.921l0.021,2.561h4.521v1.44h-9.062v1.44h-1.541v-11.402c-0.181,0.26-0.721,1.16-1.359,1.88
		L542.626,270.774z M546.947,268.113v2.221h3.021l0.021-2.201L546.947,268.113z M546.947,274.135h3.021l0.021-2.341l-3.041-0.02
		L546.947,274.135L546.947,274.135z M546.947,278.155h3.021v-2.561l-3.021-0.02V278.155z M550.287,266.613
		c-0.379-1.201-0.939-2.021-1.98-3.001l1.4-0.74c0.721,0.86,1.66,2.141,2.001,3.221L550.287,266.613z"/>
	<path fill="#FFFFFF" d="M566.207,277.916l0.02-6.261h-5.961l-0.02-6.742l1.619,0.02v5.221h4.36v-7.182h1.66v7.162l4.422,0.02
		v-5.221h1.619l0.021,6.722h-6.063v6.281l4.802-0.02l-0.021-4.701l1.621-0.02v7.842h-1.621v-1.601h-11.282v1.581h-1.601
		l-0.021-7.882h1.62v4.781H566.207L566.207,277.916z"/>
	<path fill="#FFFFFF" d="M577.965,278.375c2.381-0.74,3.581-1.3,6.063-2.2v1.5l-5.303,1.96L577.965,278.375z M583.706,273.294v1.32
		c-1.58,0.34-2.98,0.68-5.081,1.32l-0.561-1.36c1.181-1.18,2.301-3,2.94-4.001c-0.2-0.02-1.601,0.26-2.281,0.44l-0.618-1.201
		c1.02-1.64,2.26-3.98,3.1-6.481l1.301,0.72c-0.68,2.2-1.68,4.041-2.541,5.341c0.301-0.04,1.102-0.16,1.781-0.26
		c0.4-0.7,0.779-1.5,0.979-2.261l1.261,0.7c-0.92,2.3-1.92,4.601-3.66,6.501L583.706,273.294z M587.807,274.855
		c-0.479,1.74-1.619,3.601-2.859,4.761l-1.34-0.84c1.101-1.02,2.539-3.48,2.939-4.701L587.807,274.855z M584.346,265.373h4.242
		c-0.221-0.32-0.761-0.92-1.479-1.48l1.319-1.041c0.88,0.86,1.562,1.741,2.021,2.521h4.161v3.941h-1.54v-2.46h-7.162v2.46h-1.562
		V265.373L584.346,265.373z M588.467,279.616c0.201,0.02,0.381-0.1,0.381-0.4v-6.001h-4.381v-1.48h10.521v1.48h-4.562l0.021,6.221
		c0,0.84-0.5,1.641-1.681,1.641h-1.801l-0.62-1.601L588.467,279.616z M592.428,270.014h-5.74v-1.46h5.74V270.014z M592.448,274.015
		c1.319,1.42,2.261,2.96,3.141,4.581l-1.36,0.76c-0.76-1.641-1.659-3.061-2.939-4.501L592.448,274.015z"/>
	<path fill="#FFFFFF" d="M608.307,263.432c-0.219,0.22-0.438,0.44-0.619,0.621c2.341,2.96,6.541,5.861,8.343,6.421
		c-0.341,0.561-0.682,0.9-1,1.34c-0.74-0.3-1.4-0.56-4.063-2.5c-1.341-1-2.979-2.98-4.062-4.261c-1.859,2.22-3.82,4.081-8.121,7.001
		l-1.08-1.2c4.461-2.881,7.922-6.521,9.122-8.422L608.307,263.432z M611.128,280.976l-0.021-1.24h-8.461v1.34h-1.602v-7.441h11.702
		v7.341H611.128z M611.848,271.514h-10.042v-1.541h10.022L611.848,271.514z M602.666,278.215h8.441l0.021-3.081h-8.462V278.215z"/>
	<path fill="#FFFFFF" d="M627.947,263.973c2.061,2.561,4.74,4.881,8.162,5.881l-1.222,1.24c-1.381-0.46-2.58-1.16-3.479-1.76
		l0.02,0.82l-3.641-0.02l0.02,2.32h5.423l0.02,1.44l-5.461,0.02l0.021,4.801l7.161-0.02v1.46h-15.844l-0.02-1.46l7.182,0.02v-4.821
		l-5.521,0.02l-0.021-1.46h5.541v-2.32l-3.641,0.02v-0.86c-0.98,0.64-2.24,1.36-3.642,2l-1.021-1.26
		c2.98-1.34,6.762-3.581,9.002-7.421l1.24,0.84L627.947,263.973z M623.706,278.396c-0.54-1.32-1.16-2.42-2.3-3.48l1.358-0.64
		c0.842,0.66,2.021,2.46,2.4,3.5L623.706,278.396z M630.488,268.693c-1.102-0.92-2.562-2.24-3.441-3.48
		c-0.859,1.08-2.28,2.601-3.541,3.44L630.488,268.693z M628.487,277.675c1.319-0.94,2.239-2.2,2.899-3.581l1.221,0.88
		c-0.641,1.38-1.5,2.661-2.761,3.641L628.487,277.675z"/>
	<path fill="#FFFFFF" d="M528.867,287.833v1.44h-10.963v-1.44H528.867z M526.547,296.254h-6.201v8.642h-1.439v-10.142h9.082v8.262
		c-0.061,0.66-0.501,1.24-1.062,1.46c-0.64,0.26-1.08,0.22-1.859,0.22l-0.521-1.42c0.84-0.04,1.22,0.2,1.72-0.04
		c0.421-0.2,0.28-0.8,0.28-1.621V296.254z M519.805,293.974v-3.881h7.242v3.881H519.805z M526.066,299.095v1.44h-1.961v3.221h-1.399
		v-3.201h-1.841v-1.5h1.36c-0.319-0.7-0.979-1.48-1.661-1.78l1.04-0.68c0.682,0.4,1.5,1.2,1.802,1.92l-0.84,0.56l1.1,0.02
		c0.78-0.86,1.061-1.78,1.359-2.561l1.301,0.52c-0.359,0.62-0.761,1.581-1.221,2.061L526.066,299.095z M525.566,291.493h-4.302v1.12
		h4.302V291.493z M530.168,303.896c-0.479,0.14-0.621,0.18-1.181,0.38l-0.7-1.46c1.2-0.26,1.78-0.36,2.621-0.58v-3.661h-2.262
		v-7.421h2.262v-4.001h1.42v4.001h2.301v7.421h-2.301l0.02,3.281l1.16-0.28c-0.14-0.28-0.459-0.82-0.92-1.38l1.261-0.46
		c0.8,0.92,1.341,1.98,1.682,3.021l0.438,1.32l-1.5,0.521c-0.141-0.7-0.301-1.4-0.461-1.821L530.168,303.896z M530.908,292.593
		h-0.861v4.521h0.861V292.593z M532.328,297.114h0.979v-4.521h-0.979V297.114z"/>
	<path fill="#FFFFFF" d="M545.427,288.053v15.263c0,0.56-0.8,1.32-1.7,1.32h-1.78c-0.16-0.521-0.341-0.92-0.58-1.541
		c0.899,0,1.541,0.08,2.182-0.02c0.159-0.04,0.34-0.18,0.379-0.58v-3.781l-2.721,0.02c-0.119,1.7-0.219,4.181-2,6.421l-1.24-0.94
		c1.541-2.08,1.722-4.281,1.722-6.921v-9.222L545.427,288.053z M541.226,289.553v3.061h2.661v-3.081L541.226,289.553z
		 M543.926,294.054l-2.7,0.02v3.181h2.661L543.926,294.054z M548.247,296.194v8.902l-1.54,0.04v-17.064h8.021
		c-0.12,1.561-0.221,2.941-0.601,4.341c-0.181,0.7-0.92,1.2-1.58,1.24c-0.701,0.06-1.479-0.02-2.262-0.14l-0.439-1.601
		c0.939,0.14,1.681,0.32,2.44,0.34c0.16,0.02,0.24-0.08,0.318-0.3c0.16-0.5,0.361-1.82,0.4-2.4h-4.761l-0.021,5.161h6.521
		c-0.119,1.34-0.34,2.48-0.699,3.561c-0.36,1.08-0.74,2.14-1.261,3.061c0.78,0.96,1.88,1.68,3.12,2.5l-0.899,1.14
		c-1.32-0.78-2.101-1.38-3.001-2.3c-0.46,0.6-1.6,1.7-2.641,2.561c-0.38-0.36-0.641-0.68-1.04-1.101c1.2-0.94,1.96-1.66,2.661-2.641
		c-0.98-1.42-1.682-3.2-2.021-5.301L548.247,296.194L548.247,296.194z M550.468,296.174c0.141,1.2,0.78,2.88,1.32,3.821
		c0.64-1.28,1.06-2.701,1.341-3.821H550.468z"/>
	<path fill="#FFFFFF" d="M575.089,297.214c-2.881-0.62-5.602-1.4-7.962-2.8c-2.28,1.52-5.821,2.541-8.902,3.021l-0.618-1.44
		c2.399-0.4,4.5-0.94,6.561-1.7c0.541-0.26,1.181-0.58,1.58-0.8c-0.859-0.66-2-1.34-2.7-2.3c-0.88,1.04-2.16,2.12-3.661,2.72
		l-1.14-1.38c3.081-1.14,4.562-2.92,5.501-5.381l1.32,0.74c-0.221,0.5-0.421,0.86-0.48,0.98h7.502v1.34
		c-1.18,1.46-2.381,2.4-3.621,3.301c0.261,0.2,0.881,0.4,1.441,0.68c1.88,0.7,3.859,1.24,6.16,1.68L575.089,297.214z
		 M571.948,303.656c-0.2,0.62-0.72,1.16-1.3,1.32c-0.882,0.26-1.781-0.02-2.701-0.16l-0.381-1.74c1.061,0.3,1.82,0.6,2.641,0.48
		c0.461-0.3,0.5-0.86,0.601-1.44c0.182-1.081,0.4-2.461,0.44-3.101h-4.321c-0.318,1.721-1.659,3.361-3.279,4.421
		c-1.201,0.8-3.361,1.44-4.661,1.681c-0.28-0.5-0.54-0.9-0.801-1.5c2.54-0.4,4.9-1,6.422-3c0.42-0.54,0.64-1.14,0.761-1.601h-5.722
		v-1.46h5.961c0.06-0.48,0-0.84,0.06-1.741l1.48,0.2c-0.021,0.76,0.041,1.1-0.021,1.541h5.682
		C572.768,299.775,572.528,301.815,571.948,303.656z M564.086,290.333c0.801,0.96,1.881,1.6,3.001,2.32
		c1.08-0.7,2.161-1.52,2.921-2.32H564.086z"/>
	<path fill="#FFFFFF" d="M592.969,295.134c-0.061,2.621-0.319,5.582-1.061,7.882c-0.221,0.7-0.84,1.3-1.58,1.42
		c-0.602,0.2-2.781-0.3-4.041-0.62l-0.301-1.78c1.261,0.46,2.301,0.74,3.36,0.94c0.5,0.08,0.859-0.06,1.08-0.66
		c0.48-1.86,0.722-3.801,0.78-5.681h-5.882c-0.58,2.661-1.279,6.501-6.341,8.442l-1.04-1.44c4-1.44,5.479-3.961,5.86-7.862
		c0.119-1.24,0.119-2.78,0.119-4.081h-5v-1.48h8.201c-0.4-0.88-1.381-1.88-2.721-2.541l1.42-0.86c0.979,0.6,2.421,1.741,2.979,3.021
		l-0.5,0.34l7.322,0.04v1.48l-10.063,0.02c0,1.06-0.061,2.4-0.119,3.44L592.969,295.134z"/>
	<path fill="#FFFFFF" d="M615.328,304.096c-3.562-0.88-5.44-1.66-7.4-3.801v4.741h-1.621v-4.741c-1.779,2-4.2,2.961-7.342,3.901
		l-0.8-1.36c2.581-0.56,4.841-1.32,6.321-2.76h-5.562v-1.46h7.381l0.021-1.34l1.581-0.02l0.021,1.38h7.262v1.44h-5.581
		c1.461,1.22,3.421,2.14,6.562,2.7L615.328,304.096z M613.908,298.095c-2.08-0.72-4.062-1.36-6.081-1.86
		c-1.96,0.84-4.581,1.58-8.081,1.92l-0.801-1.44c2.58-0.12,4.801-0.48,6.461-1.02c-1.38-0.26-2.46-0.4-4.341-0.581
		c0.899-0.8,1.561-1.32,1.9-1.7h-4.142l0.021-1.44l5.5-0.02c0.562-0.56,0.941-1.1,1.501-1.74l1.48,0.52l-0.98,1.22h8.842v1.46
		h-3.239c-0.721,0.8-1.661,1.42-2.302,1.82c1.44,0.38,3.2,0.9,5.063,1.601L613.908,298.095z M606.167,286.812
		c0.58,0.44,1.42,1.26,1.841,1.9l6.801-0.02v2.861h-1.521l0.021-1.4h-12.563v1.521l-1.521-0.02v-2.961l6.804,0.02
		c-0.142-0.16-0.602-0.54-1.302-0.88L606.167,286.812z M604.166,294.134c1.4,0.14,2.581,0.38,3.561,0.6
		c0.842-0.42,1.521-0.86,2.021-1.32h-4.781L604.166,294.134z"/>
</g>
</svg>
