<?xml version="1.0" encoding="utf-8"?>
<!-- Generator: Adobe Illustrator 16.0.0, SVG Export Plug-In . SVG Version: 6.00 Build 0)  -->
<!DOCTYPE svg PUBLIC "-//W3C//DTD SVG 1.1//EN" "http://www.w3.org/Graphics/SVG/1.1/DTD/svg11.dtd">
<svg version="1.1" id="Layer_1" xmlns="http://www.w3.org/2000/svg" xmlns:xlink="http://www.w3.org/1999/xlink" x="0px" y="0px"
	 width="768px" height="1024px" viewBox="0 0 768 1024" enable-background="new 0 0 768 1024" xml:space="preserve">
<path fill="#FFFFFF" d="M357.876,367.142v4.361l2.44-1.2v1.541l-3.382,1.78l-0.88-1.4c0.181-0.22,0.261-0.46,0.261-1v-4.081h-2.82
	v-1.46h2.82v-2.08h-0.9c-0.44,0.6-0.88,1-1.661,1.68l-1.12-1.2c1.82-1.48,3.102-4.221,3.321-7.582l1.439,0.38
	c0.061,1.08-0.1,2.101-0.18,2.28h3.021v1.46h-3.38c-0.181,0.56-0.44,1.12-0.62,1.521h3.801v1.46h-2.161v2.08h2.5v1.46H357.876
	L357.876,367.142z M370.059,374.023c-1.18-0.3-2.16-0.92-3.021-1.64c-1.701-1.74-2.581-4.021-2.761-6.261h-1.66v6.141l3.021-1.02
	v1.5l-4.061,1.48l-0.76-1.4c0.22-0.22,0.239-0.44,0.239-0.86V357.32h7.481v8.802h-2.82c0.08,0.92,0.38,2.08,0.74,2.78
	c0.84-0.42,1.6-1.22,2.36-2.4l1.159,0.92c-0.859,1.26-1.899,2.12-2.899,2.68c0.7,1.221,2.26,2.141,4.041,2.601L370.059,374.023z
	 M367.039,358.78h-4.421v2.181h4.421V358.78z M367.039,362.341h-4.421v2.32h4.421V362.341z"/>
<path fill="#FFFFFF" d="M378.737,356.899c-0.261,1.621-0.721,3.201-1.32,4.601v12.883h-1.5v-10.242c-0.66,0.84-1.12,1.52-2,2.36
	l-1.12-1.08c1.8-1.84,3.921-4.641,4.562-9.142L378.737,356.899z M386.398,366.762c0.92,2.42,2.479,3.721,5.001,5.021l-1.182,1.12
	c-2.2-1.06-4-2.761-5.201-5.701l-0.04,7.122h-1.521v-6.861c-0.54,1.58-2.38,4.201-4.801,5.501l-1.121-1.16
	c1.86-0.86,3.521-2.681,4.661-5.041h-4.081v-1.46h5.36v-1.621l-3.961,0.02v-6.441h9.223v6.441h-3.761v1.601h5.241v1.46
	L386.398,366.762L386.398,366.762z M387.219,358.7h-6.182v3.541h6.182V358.7z"/>
<path fill="#FFFFFF" d="M396.536,360.84h2.46v1.5h-2.439v11.782h-1.521V362.36h-1.92v-1.521h1.899v-4.541h1.521L396.536,360.84
	L396.536,360.84z M401.417,364.161c-0.36,1.7-1.12,3.121-2.24,4.501c-0.479-0.3-0.841-0.48-1.3-0.84
	c1.061-1.34,1.82-2.621,2.22-4.261L401.417,364.161z M409.059,363.701c1.08,1.3,1.781,2.721,2,4.401
	c-0.479,0.26-0.84,0.38-1.379,0.64c-0.341-1.48-0.761-2.661-1.301-3.521c-0.2,2.521-0.5,5.161-0.939,7.302
	c-0.141,0.68-0.86,1.32-1.54,1.42c-0.882,0.12-1.701-0.1-2.562-0.3l-0.12-1.581c0.94,0.16,1.62,0.521,2.261,0.34
	c0.32-0.28,0.439-0.7,0.539-1.14c0.562-2.281,0.842-6.962,0.882-9.702h-2.602c-0.04,0.2-0.021,0.58-0.021,1.02
	c-0.039,1.38-0.101,2.98-0.42,4.301c-0.721,2.881-1.9,5.081-4.621,7.282l-1.101-1.2c1.881-1.46,3.24-3.281,3.881-5.281
	c0.601-1.92,0.779-4.101,0.721-6.081h-3.38v-1.541h3.38l0.021-3.801l1.48-0.02c0.08,1.2,0.02,3.241,0.02,3.821h4.182
	c0.079,1.581,0.039,2.98-0.04,3.941L409.059,363.701z"/>
<path fill="#FFFFFF" d="M425.139,372.283c0.959,0,2.359-0.06,2.66-0.16c0.199-0.1,0.34-0.52,0.34-0.9l0.021-12.563l-12.122-0.02
	v15.784h-1.581V357.16h15.283l0.021,14.383c0,0.92-0.359,1.86-0.898,2.141c-0.541,0.2-2.521,0.28-3.183,0.24L425.139,372.283z
	 M427.519,360.82l0.021,1.48h-10.563l0.021-1.48H427.519z M425.898,364.461v6.042h-7.603v-6.021L425.898,364.461z M419.816,369.022
	h4.582v-3.061l-4.582,0.02V369.022z"/>
<path fill="#FFFFFF" d="M441.338,368.502l-0.581-0.74c0.94-0.42,1.2-1.18,1.2-1.98h-1.08v-2.2h2.201v2.1
	C443.078,366.361,442.838,367.802,441.338,368.502z"/>
<path fill="#FFFFFF" d="M459.637,366.742c-0.801,0.26-1.479,0.54-2.101,0.74v4.661c0,0.72-0.021,1.2-0.54,1.681
	c-0.439,0.38-1.641,0.46-2.66,0.44l-0.58-1.541c0.82,0.06,1.34,0.14,1.9,0.04c0.26-0.02,0.38-0.26,0.38-0.46v-4.301
	c-0.46,0.18-1.22,0.48-2.001,0.72c-0.32-0.4-0.539-0.74-0.9-1.26c1.161-0.32,2.081-0.621,2.881-0.92v-4.841h-2.38v-1.42h2.38
	l0.021-3.881h1.5v3.881h2.001v1.42h-2.001v4.241c0.54-0.16,1.601-0.58,2.061-0.8L459.637,366.742z M457.816,363.961
	c2.181-2.28,3.399-4.801,4.081-7.722l1.359,0.48c-0.32,1.22-0.561,2.301-0.899,3.141h8.262v1.44h-3.941l-0.02,2.221h2.921v1.46
	h-2.921l0.02,2.361h2.901v1.44h-2.921l0.02,2.561h4.521v1.44h-9.063v1.44h-1.539v-11.402c-0.181,0.26-0.721,1.16-1.36,1.88
	L457.816,363.961z M462.137,361.3v2.221h3.021l0.02-2.201L462.137,361.3z M462.137,367.322h3.021l0.02-2.341l-3.041-0.02V367.322z
	 M462.137,371.342h3.021v-2.561l-3.021-0.02V371.342z M465.479,359.8c-0.381-1.201-0.939-2.021-1.979-3.001l1.4-0.74
	c0.72,0.86,1.659,2.141,2,3.221L465.479,359.8z"/>
<path fill="#FFFFFF" d="M361.397,395.103l0.02-6.261h-5.961l-0.021-6.742l1.62,0.02v5.221h4.361v-7.182h1.661v7.162l4.421,0.02
	v-5.221h1.62l0.02,6.722h-6.061v6.281l4.801-0.02l-0.02-4.701l1.621-0.02v7.842h-1.621v-1.601h-11.282v1.581h-1.602l-0.02-7.882
	h1.62v4.781H361.397L361.397,395.103z"/>
<path fill="#FFFFFF" d="M379.677,393.242v4.881h-1.52v-4.441l-4.361,1.26l-0.96-1.521c0.7-0.06,1.18-0.18,1.54-0.26V382.58h-1.08
	v-1.46h7.501v1.46h-1.12v9.182c0.42-0.1,1.062-0.24,1.42-0.4v1.46L379.677,393.242z M378.157,382.58h-2.261v2.161h2.261V382.58z
	 M378.157,386.201h-2.261v2.18h2.261V386.201z M378.157,389.841h-2.261v2.98c0.84-0.2,1.319-0.3,2.261-0.58V389.841z
	 M389.818,398.083c-0.761-0.48-1.221-0.86-1.801-1.54c-1.341-1.621-2.261-3.761-2.601-6.421c-0.46,2.7-0.74,4.521-3.281,7.001
	c-0.359,0.34-0.72,0.68-1.2,0.94l-1-1.18c2.642-1.76,3.421-3.421,3.981-6.761h-3.681v-1.46h3.801c0.06-0.66,0.06-1.521,0.06-2.42
	v-0.32h-3.479v-1.46h4.541c1.02-1.44,1.479-2.521,2.061-4.141l1.38,0.74c-0.46,0.92-1.181,2.44-1.8,3.4h3.18v1.46h-4.399
	c0,1.34,0,1.92-0.08,2.741h4.979v1.46h-3.721c0.121,0.58,0.201,1.28,0.461,2.02c0.66,1.861,1.82,3.561,3.682,4.941L389.818,398.083z
	 M383.317,384.28c-0.301-1.101-1.021-2.42-1.841-3.081l1.24-0.7c0.84,0.82,1.48,1.84,1.88,3.061L383.317,384.28z"/>
<path fill="#FFFFFF" d="M409.318,398.263h-1.521v-1.12h-7.481l-0.021,1.12h-1.52l0.02-7.481c-1,0.26-2.181,0.62-3.521,0.84
	l-1.301-1.36c2.94-0.56,5.581-1.2,7.862-2.16c-0.44-0.58-1.201-1.061-2.281-1.46l1.42-1.1c0.9,0.48,1.781,1.2,2.222,1.88
	c1.601-0.74,3.262-2.061,4.281-3.361l-5.962,0.02c-1.54,1.34-3.399,2.38-5.301,3.161l-1.581-1.2c2.842-0.98,6.121-2.681,8.223-5.841
	l1.381,0.72c-0.44,0.76-0.98,1.38-1.24,1.68l6.441,0.02l-0.021,1.28c-1.32,2.381-4.4,4.941-8.862,6.302l8.763,0.04V398.263
	L409.318,398.263z M400.297,395.683h7.502v-4.001h-7.502V395.683z"/>
<path fill="#FFFFFF" d="M412.936,389.101c2.101-2.22,3.722-5.881,4.581-8.642l1.46,0.52c-0.438,1.38-0.92,2.761-1.5,3.961v13.383
	h-1.5v-10.682c-0.221,0.4-0.881,1.4-1.7,2.36L412.936,389.101z M423.138,380.139c0.96,0.56,1.96,1.581,2.62,2.581l-0.438,0.5h5.739
	v1.44l-12.741-0.02v-1.4l6.021-0.02c-0.36-0.6-1.28-1.44-2.301-2.1L423.138,380.139z M419.417,387.661v-1.44h10.103v1.44H419.417z
	 M419.417,390.562v-1.44l10.122-0.02l-0.021,1.46H419.417z M421.098,398.283h-1.421l-0.021-6.142h9.582v6.102l-1.42,0.02l0.02-1.16
	h-6.721L421.098,398.283z M421.117,395.843l6.721-0.04v-2.361h-6.761L421.117,395.843z"/>
<path fill="#FFFFFF" d="M449.559,381.16v14.983c0,0.58-0.46,1.5-1.239,1.621l-2.28,0.04l-0.479-1.561c0.82,0.04,1.521,0.1,2.12,0.02
	c0.221-0.02,0.319-0.18,0.319-0.42v-4.281h-4.36v4.761h-1.561v-4.761h-4.381c-0.28,2.581-0.7,4.221-2.921,6.822l-1.279-0.96
	c0.82-1,1.42-1.82,1.859-2.8c0.601-1.36,0.86-3.021,0.86-4.561v-8.902L449.559,381.16L449.559,381.16z M437.776,382.64v2.901h4.301
	v-2.901H437.776z M437.776,390.082h4.301V387h-4.301V390.082z M443.658,385.541l4.301-0.02v-2.881h-4.321L443.658,385.541z
	 M443.658,387l-0.021,3.081h4.301l0.021-3.081H443.658z"/>
<path fill="#FFFFFF" d="M470.639,389.261l-8.682,0.02v9.002h-1.54v-9.002l-6.781-0.02v-1.44h6.781v-7.461l1.54,0.02l0.021,2.98
	h7.223v1.46h-7.222l-0.021,2.98l8.682,0.02V389.261L470.639,389.261z M467.738,394.362c-1.359-1.2-3.181-2.5-5.16-2.861l0.979-1.28
	c1.94,0.64,3.62,1.601,5.223,3.041L467.738,394.362z"/>
</svg>
