<?xml version="1.0" encoding="utf-8"?>
<!-- Generator: Adobe Illustrator 16.0.0, SVG Export Plug-In . SVG Version: 6.00 Build 0)  -->
<!DOCTYPE svg PUBLIC "-//W3C//DTD SVG 1.1//EN" "http://www.w3.org/Graphics/SVG/1.1/DTD/svg11.dtd">
<svg version="1.1" id="Layer_1" xmlns="http://www.w3.org/2000/svg" xmlns:xlink="http://www.w3.org/1999/xlink" x="0px" y="0px"
	 width="768px" height="1024px" viewBox="0 0 768 1024" enable-background="new 0 0 768 1024" xml:space="preserve">
<line fill="none" stroke="#D9D9D9" stroke-miterlimit="10" x1="396.709" y1="468.504" x2="644.453" y2="468.504"/>
<line fill="none" stroke="#D9D9D9" stroke-miterlimit="10" x1="396.709" y1="481.293" x2="396.709" y2="468.504"/>
<polyline opacity="0.2" fill="#FFFFFF" enable-background="new    " points="157.261,556.943 123.324,576.508 89.383,556.943 
	89.383,517.848 123.324,498.284 157.261,517.848 157.261,556.943 "/>
<line fill="none" stroke="#D9D9D9" stroke-miterlimit="10" x1="375.609" y1="468.504" x2="122.725" y2="468.504"/>
<line fill="none" stroke="#D9D9D9" stroke-miterlimit="10" x1="123.342" y1="498.265" x2="123.342" y2="468.504"/>
<line fill="none" stroke="#D9D9D9" stroke-miterlimit="10" x1="123.342" y1="695.895" x2="123.342" y2="666.133"/>
<line fill="none" stroke="#D9D9D9" stroke-miterlimit="10" x1="376.228" y1="481.256" x2="376.228" y2="468.504"/>
<polyline opacity="0.2" fill="#FFFFFF" enable-background="new    " points="157.261,646.443 123.324,666.008 89.383,646.443 
	89.383,607.348 123.324,587.783 157.261,607.348 157.261,646.443 "/>
<line fill="none" stroke="#D9D9D9" stroke-miterlimit="10" x1="394.854" y1="695.803" x2="644.396" y2="695.803"/>
<line fill="none" stroke="#D9D9D9" stroke-miterlimit="10" x1="394.854" y1="683.012" x2="394.854" y2="695.803"/>
<line fill="none" stroke="#D9D9D9" stroke-miterlimit="10" x1="373.753" y1="695.717" x2="122.902" y2="695.717"/>
<line fill="none" stroke="#D9D9D9" stroke-miterlimit="10" x1="374.371" y1="682.963" x2="374.371" y2="695.717"/>
<path fill="#D9D9D9" d="M376.054,568.748c0.392-0.801,0.392-1.191,1.191-1.99c0.391-0.391,0.799-0.799,1.58-1.596
	c0.799-0.391,1.985-0.391,2.789-0.785c0-3.586,0-3.586,0-3.586s0,0,0-0.387c0,0,0,0,0.405,0l0,0
	c0.392-0.412,0.392-0.412,0.781-0.412c0.41,0,0.41,0,0.801,0c0,0,0,0,0.406,0v0.412c0,3.563,0,3.563,0,3.563
	c0.392,0,0.781,0,1.191,0c0.389,0.408,0.799,0.408,1.188,0.408c0.392,0,0.799,0,0.799,0c0.392,0.396,0.802,0.396,0.802,0.396
	s0,0.391,0.391,0.391l0,0c0,0.406,0,0.406,0,0.406c0,0.391,0,0.391,0,0.799c0.389,0,0.389,0.391,0.389,0.391s0,0.392-0.389,0.392
	c0,0,0,0,0,0.407l0,0c-0.391,0-0.391,0-0.801-0.407c-0.392,0-0.799,0-1.189,0c-0.389-0.392-0.799-0.392-1.598-0.392
	c-0.391,0-1.188,0-1.988,0c-0.78,0-1.188,0.392-1.989,0.392c-0.39,0.407-0.779,0.407-1.188,0.799
	c-0.393,0.41-0.393,0.801-0.393,1.19c-0.406,0.408-0.406,0.797-0.406,1.205c0.406,0.781,0.406,1.191,0.799,1.99
	c0.408,0.391,0.799,0.391,1.598,0.781c0.394,0.408,1.189,0.408,1.99,0.799c0.391,0,1.188,0,1.988,0.41
	c0.799,0,1.578,0.391,2.377,0.391c0.41,0.392,1.188,0.799,1.6,1.188c0.799,0.391,1.189,0.799,1.578,1.598
	c0.412,0.391,0.803,1.191,0.803,2.381c0.39,0.801,0,1.601,0,2.377c-0.391,0.802-0.803,1.601-1.19,2.4
	c-0.799,0.391-1.601,1.188-2.379,1.578c-0.801,0.412-1.988,0.799-3.197,0.799c0,3.977,0,3.977,0,3.977v0.412
	c0,0-0.391,0-0.391,0.388h-0.392c-0.405,0-0.797,0-0.797,0c-0.41,0-0.41,0-0.41,0s-0.391,0-0.391-0.388l0,0c0-3.979,0-3.979,0-3.979
	c-0.391,0-1.189,0-1.6,0c-0.39,0-0.779,0-1.188-0.408c-0.393,0-0.799,0-1.191,0c-0.389-0.387-0.389-0.387-0.797-0.387v-0.412
	c0-0.39-0.391-0.39-0.391-0.779c0-0.408,0-0.799,0-0.799v-0.41c0,0,0-0.391,0.391-0.391l0,0c0.408,0,0.408,0,0.797,0
	c0.394,0.391,0.8,0.391,1.191,0.801c0.408,0,1.188,0,1.99,0c0.406,0.391,1.188,0.391,2.395,0c1.58,0,2.771-0.41,3.568-1.189
	c0.801-0.801,1.188-1.987,0.801-3.198c0-0.39,0-1.188-0.391-1.578c-0.41-0.408-1.209-0.802-1.601-0.802
	c-0.389-0.391-1.188-0.799-1.987-0.799c-0.798,0-1.188-0.391-1.988-0.391c-0.797-0.408-1.601-0.408-2.379-0.799
	c-0.408,0-1.207-0.39-1.601-0.797c-0.797-0.392-1.188-0.781-1.596-1.582c-0.393-0.799-0.783-1.599-0.783-2.398
	C376.054,570.344,376.054,569.547,376.054,568.748z M359.735,580.682c1.6,0,1.6,0,1.6,0c0.797,2.787,1.58,5.166,3.176,7.543
	c-1.188,1.209-1.188,1.209-1.188,1.209c-1.191,1.188-1.191,3.179,0,4.367c2.787,2.381,2.787,2.381,2.787,2.381
	c1.188,1.205,3.18,1.205,4.368,0c0.8-0.78,0.8-0.78,0.8-0.78c2.377,1.188,5.166,2.377,7.547,3.178c0,1.188,0,1.188,0,1.188
	c0,1.99,1.598,3.179,3.194,3.179c3.568,0,3.568,0,3.568,0c1.988,0,3.178-1.188,3.178-3.179c0-1.188,0-1.188,0-1.188
	c2.791-0.801,5.17-1.99,7.564-3.178c0.801,0.78,0.801,0.78,0.801,0.78c1.189,1.205,3.18,1.205,4.367,0
	c2.789-2.381,2.789-2.381,2.789-2.381c1.19-1.188,1.19-3.18,0-4.367c-1.189-1.209-1.189-1.209-1.189-1.209
	c1.58-2.377,2.771-4.756,3.181-7.543c1.578,0,1.578,0,1.578,0c1.598,0,3.196-1.19,3.196-2.791c0-3.977,0-3.977,0-3.977
	c0-1.58-1.6-2.789-3.196-2.789c-1.578,0-1.578,0-1.578,0c-0.41-2.768-1.601-5.166-3.181-7.545c1.189-1.193,1.189-1.193,1.189-1.193
	c1.19-1.205,1.19-3.194,0-4.385c-2.789-2.379-2.789-2.379-2.789-2.379c-1.188-1.188-3.178-1.188-4.367,0
	c-0.801,0.801-0.801,0.801-0.801,0.801c-2.396-1.207-4.773-2.399-7.564-2.789c0-1.598,0-1.598,0-1.598
	c0-1.582-1.188-3.178-3.178-3.178c-3.568,0-3.568,0-3.568,0c-1.598,0-3.194,1.596-3.194,3.178c0,1.598,0,1.598,0,1.598
	c-2.381,0.39-5.17,1.582-7.547,2.789c-0.8-0.801-0.8-0.801-0.8-0.801c-1.188-1.188-3.18-1.188-4.368,0
	c-2.787,2.379-2.787,2.379-2.787,2.379c-1.191,1.189-1.191,3.18,0,4.385c1.188,1.193,1.188,1.193,1.188,1.193
	c-1.596,2.379-2.379,4.777-3.176,7.545c-1.6,0-1.6,0-1.6,0c-1.58,0-2.787,1.209-2.787,2.789c0,3.977,0,3.977,0,3.977
	C356.948,579.49,358.155,580.682,359.735,580.682z"/>
<path fill="#D9D9D9" d="M408.19,592.965c-0.39,0.801-0.779,1.988-1.58,2.787c-2.771,2.789-2.771,2.789-2.771,2.789
	c-0.408,0.41-0.799,0.801-1.188,0.801c3.157,1.189,4.348,1.986,4.348,3.195c0,2.787-9.127,5.574-22.992,5.574
	c-14.293,0-23.418-2.787-23.418-5.574c0-0.797,1.189-2.006,4.367-3.195c-0.389,0-0.801-0.391-1.189-0.801
	c-2.77-2.789-2.77-2.789-2.77-2.789c-0.799-0.799-1.189-1.986-1.6-3.195c-8.716,2.396-13.476,5.984-13.476,9.98
	c0,7.174,16.654,12.75,38.084,12.75c21.021,0,38.066-5.576,38.066-12.75C422.075,598.541,416.925,594.953,408.19,592.965z"/>
<path fill="#58B5E1" d="M106.778,526.174h-6.646l-0.644,3.656l0.046,0.045c0.874-0.896,1.886-1.24,3.15-1.24
	c3.174,0,4.967,2.459,4.967,5.474c0,3.311-2.736,5.862-5.979,5.795c-3.127,0-5.933-1.726-5.979-5.105h3.266
	c0.16,1.426,1.218,2.414,2.644,2.414c1.702,0,2.783-1.494,2.783-3.104c0-1.681-1.035-3.015-2.783-3.015
	c-1.173,0-1.816,0.414-2.46,1.289H96.2l1.587-8.899h8.99L106.778,526.174L106.778,526.174z"/>
<path fill="#58B5E1" d="M116.991,527.623c-0.207-1.082-1.034-2.002-2.161-2.002c-2.369,0-2.989,3.104-3.082,4.897l0.047,0.048
	c0.896-1.267,2.069-1.795,3.633-1.795c1.38,0,2.782,0.645,3.702,1.655c0.851,0.988,1.242,2.322,1.242,3.588
	c0,3.287-2.277,5.888-5.634,5.888c-4.875,0-6.187-4.256-6.187-8.324c0-3.934,1.748-8.416,6.324-8.416
	c2.782,0,4.852,1.631,5.22,4.461H116.991L116.991,527.623z M112.048,534.223c0,1.494,0.966,2.988,2.598,2.988
	c1.564,0,2.461-1.494,2.461-2.943c0-1.518-0.782-3.034-2.461-3.034C112.898,531.232,112.048,532.635,112.048,534.223z"/>
<path fill="#58B5E1" d="M122.237,536.039h3.61v3.541h-3.61V536.039z"/>
<path fill="#58B5E1" d="M133.667,523.162c4.001,0,5.381,2.758,5.381,4.322c0,1.586-0.828,2.875-2.346,3.381v0.045
	c1.908,0.438,3.012,1.908,3.012,3.932c0,3.381-3.035,5.062-6.024,5.062c-3.104,0-6.116-1.564-6.116-5.037
	c0-2.047,1.149-3.494,3.035-3.955v-0.045c-1.563-0.438-2.368-1.726-2.368-3.313C128.24,524.656,131.045,523.162,133.667,523.162z
	 M133.689,537.441c1.563,0,2.76-1.104,2.76-2.714c0-1.541-1.242-2.575-2.76-2.575c-1.587,0-2.852,0.896-2.852,2.553
	C130.838,536.359,132.126,537.441,133.689,537.441z M133.667,529.967c1.333,0,2.414-0.733,2.414-2.115
	c0-0.827-0.391-2.229-2.414-2.229c-1.312,0-2.461,0.805-2.461,2.229C131.206,529.254,132.355,529.967,133.667,529.967z"/>
<path fill="#58B5E1" d="M147.214,535.854h-6.807v-2.987l6.99-9.383h2.92v9.682h2.139v2.689h-2.139v3.727h-3.104L147.214,535.854
	L147.214,535.854z M147.214,527.576h-0.069l-4.162,5.588h4.231V527.576z"/>
<path fill="#58B5E1" d="M107.585,549.242v-1.353h15.737v1.369h-9.346c0,1.025-0.018,1.892-0.071,2.629h6.662
	c-0.234,3.619-0.702,6.787-1.549,9.236c-0.198,0.56-0.774,1.063-1.387,1.152c-0.828,0.145-1.477-0.271-2.196-0.521l-0.288-1.676
	c0.504,0.145,0.756,0.396,0.99,0.506c0.468,0.144,1.135,0.646,1.368,0.07c1.026-2.521,1.297-4.662,1.53-7.398h-5.203
	c-0.054,0.521-0.126,1.008-0.234,1.566c-0.612,2.971-2.322,6.014-5.222,7.742l-1.188-1.173c2.196-1.188,3.727-3.239,4.555-5.256
	c0.738-1.838,0.721-4.502,0.774-6.896L107.585,549.242L107.585,549.242z"/>
<path fill="#58B5E1" d="M137.973,554.732v-0.738h-9.183c0.054,4.016-0.468,6.213-2.539,8.373l-1.242-0.974
	c1.854-1.602,2.395-3.6,2.395-5.852v-6.572h5.78c-0.216-0.521-1.099-1.313-2.215-2.069l1.008-0.882
	c0.829,0.63,1.927,1.423,2.684,2.484l-0.595,0.414l5.275,0.053v5.763H137.973z M137.973,550.268h-9.2v2.433h9.2V550.268z"/>
<path fill="#58B5E1" d="M95.563,619.74c-0.115-3.68,1.978-6.508,5.841-6.508c2.943,0,5.519,1.887,5.519,5.036
	c0,2.414-1.288,3.748-2.875,4.874c-1.586,1.127-3.472,2.048-4.645,3.702h7.611v2.807H95.195c0.023-3.727,2.299-5.313,5.082-7.197
	c1.425-0.966,3.357-1.954,3.38-3.933c0-1.519-1.012-2.482-2.414-2.482c-1.932,0-2.553,2-2.553,3.701H95.563L95.563,619.74z"/>
<path fill="#58B5E1" d="M113.87,613.232c3.219,0,5.933,2.022,5.933,8.302c0,6.415-2.713,8.438-5.933,8.438
	c-3.173,0-5.887-2.022-5.887-8.438C107.983,615.256,110.697,613.232,113.87,613.232z M113.87,627.283
	c2.667,0,2.667-3.934,2.667-5.749c0-1.679,0-5.61-2.667-5.61c-2.622,0-2.622,3.933-2.622,5.61
	C111.249,623.351,111.249,627.283,113.87,627.283z"/>
<path fill="#58B5E1" d="M121.668,626.11h3.61v3.541h-3.61V626.11z"/>
<path fill="#58B5E1" d="M135.604,617.693c-0.207-1.08-1.035-2-2.161-2c-2.369,0-2.99,3.104-3.082,4.897l0.046,0.045
	c0.897-1.264,2.07-1.793,3.633-1.793c1.38,0,2.782,0.646,3.702,1.656c0.851,0.988,1.242,2.322,1.242,3.586
	c0,3.289-2.276,5.887-5.634,5.887c-4.875,0-6.186-4.254-6.186-8.323c0-3.933,1.748-8.416,6.324-8.416
	c2.782,0,4.852,1.633,5.22,4.461H135.604z M130.661,624.293c0,1.495,0.966,2.99,2.599,2.99c1.563,0,2.46-1.495,2.46-2.943
	c0-1.518-0.782-3.035-2.46-3.035C131.512,621.305,130.661,622.707,130.661,624.293z"/>
<path fill="#58B5E1" d="M150.968,616.245h-6.646l-0.644,3.656l0.046,0.046c0.874-0.896,1.886-1.242,3.15-1.242
	c3.173,0,4.967,2.461,4.967,5.474c0,3.313-2.736,5.864-5.979,5.794c-3.127,0-5.933-1.725-5.979-5.104h3.265
	c0.161,1.425,1.219,2.414,2.645,2.414c1.702,0,2.782-1.495,2.782-3.104c0-1.679-1.035-3.013-2.782-3.013
	c-1.173,0-1.817,0.414-2.46,1.288h-2.943l1.586-8.899h8.991L150.968,616.245L150.968,616.245z"/>
<path fill="#58B5E1" d="M119.284,644.968c-1.639,0-2.719-1.333-2.719-3.386c0-2.124,1.044-3.438,2.719-3.438
	c1.71,0,2.791,1.313,2.791,3.421C122.074,643.617,120.976,644.968,119.284,644.968z M119.319,639.242
	c-0.936,0-1.368,0.756-1.368,2.377c0,1.477,0.468,2.25,1.368,2.25c0.937,0,1.387-0.756,1.387-2.377
	C120.706,639.998,120.22,639.242,119.319,639.242z M120.634,651.738h-1.314l7.058-13.596h1.278L120.634,651.738z M127.62,651.738
	c-1.639,0-2.719-1.333-2.719-3.387c0-2.124,1.044-3.438,2.719-3.438c1.71,0,2.791,1.314,2.791,3.402
	C130.411,650.387,129.313,651.738,127.62,651.738z M127.656,645.994c-0.936,0-1.368,0.772-1.368,2.395
	c0,1.478,0.468,2.25,1.368,2.25c0.937,0,1.387-0.756,1.387-2.376C129.042,646.768,128.574,645.994,127.656,645.994z"/>
<polyline opacity="0.2" fill="#FFFFFF" enable-background="new    " points="677.928,556.943 643.991,576.508 610.05,556.943 
	610.05,517.848 643.991,498.284 677.928,517.848 677.928,556.943 "/>
<line fill="none" stroke="#D9D9D9" stroke-miterlimit="10" x1="644.009" y1="498.265" x2="644.009" y2="468.504"/>
<line fill="none" stroke="#D9D9D9" stroke-miterlimit="10" x1="644.009" y1="695.895" x2="644.009" y2="666.133"/>
<polyline opacity="0.2" fill="#FFFFFF" enable-background="new    " points="677.928,646.443 643.991,666.008 610.05,646.443 
	610.05,607.348 643.991,587.783 677.928,607.348 677.928,646.443 "/>
<path fill="#58B5E1" d="M619.956,530.729c1.403,0.115,3.427-0.16,3.427-2c0-1.356-1.081-2.139-2.276-2.139
	c-1.634,0-2.507,1.219-2.482,2.874h-3.104c0.114-3.288,2.254-5.564,5.564-5.564c2.575,0,5.403,1.588,5.403,4.461
	c0,1.518-0.758,2.875-2.253,3.289v0.046c1.771,0.391,2.851,1.861,2.851,3.656c0,3.38-2.828,5.287-5.979,5.287
	c-3.609,0-6.048-2.159-5.979-5.862h3.104c0.068,1.748,0.941,3.174,2.829,3.174c1.471,0,2.62-1.012,2.62-2.529
	c0-2.438-2.139-2.393-3.726-2.393L619.956,530.729L619.956,530.729z"/>
<path fill="#58B5E1" d="M638.999,526.911h-6.646l-0.646,3.656l0.047,0.046c0.873-0.896,1.885-1.242,3.15-1.242
	c3.173,0,4.967,2.461,4.967,5.474c0,3.313-2.736,5.864-5.979,5.794c-3.128,0-5.934-1.725-5.979-5.104h3.265
	c0.161,1.425,1.22,2.414,2.646,2.414c1.702,0,2.782-1.495,2.782-3.104c0-1.679-1.035-3.013-2.782-3.013
	c-1.173,0-1.817,0.414-2.46,1.288h-2.943l1.586-8.899h8.991L638.999,526.911L638.999,526.911z"/>
<path fill="#58B5E1" d="M641.67,536.776h3.609v3.541h-3.609V536.776z"/>
<path fill="#58B5E1" d="M653.857,536.592h-6.808v-2.988l6.991-9.383h2.921v9.683h2.139v2.688h-2.139v3.727h-3.104V536.592
	L653.857,536.592z M653.857,528.314h-0.068l-4.162,5.588h4.23V528.314z"/>
<path fill="#58B5E1" d="M660.322,530.406c-0.115-3.68,1.978-6.508,5.84-6.508c2.943,0,5.52,1.887,5.52,5.036
	c0,2.414-1.286,3.748-2.875,4.874c-1.586,1.127-3.472,2.048-4.645,3.702h7.611v2.807h-11.819c0.022-3.727,2.3-5.313,5.082-7.197
	c1.425-0.966,3.356-1.954,3.38-3.933c0-1.519-1.012-2.482-2.414-2.482c-1.932,0-2.553,2-2.553,3.701H660.322L660.322,530.406z"/>
<path fill="#58B5E1" d="M639.285,555.634c-1.639,0-2.719-1.333-2.719-3.386c0-2.124,1.043-3.438,2.719-3.438
	c1.71,0,2.79,1.314,2.79,3.422C642.075,554.283,640.977,555.634,639.285,555.634z M639.32,549.908c-0.937,0-1.368,0.756-1.368,2.377
	c0,1.477,0.468,2.25,1.368,2.25c0.937,0,1.387-0.756,1.387-2.377C640.707,550.664,640.221,549.908,639.32,549.908z M640.635,562.404
	h-1.313l7.059-13.596h1.277L640.635,562.404z M647.621,562.404c-1.639,0-2.719-1.333-2.719-3.387c0-2.124,1.044-3.438,2.719-3.438
	c1.711,0,2.791,1.314,2.791,3.402C650.412,561.053,649.313,562.404,647.621,562.404z M647.656,556.66
	c-0.937,0-1.367,0.772-1.367,2.395c0,1.478,0.468,2.25,1.367,2.25c0.938,0,1.387-0.756,1.387-2.376
	C649.043,557.434,648.575,556.66,647.656,556.66z"/>
<path fill="#58B5E1" d="M624.301,619.027c-0.206-1.081-1.034-2.001-2.16-2.001c-2.368,0-2.989,3.104-3.082,4.896l0.047,0.047
	c0.896-1.266,2.068-1.794,3.634-1.794c1.379,0,2.781,0.645,3.701,1.655c0.852,0.989,1.241,2.322,1.241,3.588
	c0,3.288-2.275,5.887-5.634,5.887c-4.875,0-6.186-4.254-6.186-8.323c0-3.934,1.747-8.416,6.323-8.416
	c2.782,0,4.853,1.633,5.221,4.461H624.301L624.301,619.027z M619.357,625.627c0,1.494,0.966,2.988,2.599,2.988
	c1.563,0,2.46-1.494,2.46-2.943c0-1.518-0.781-3.035-2.46-3.035C620.209,622.637,619.357,624.04,619.357,625.627z"/>
<path fill="#58B5E1" d="M629.018,621.074c-0.113-3.681,1.979-6.508,5.843-6.508c2.942,0,5.519,1.885,5.519,5.034
	c0,2.414-1.288,3.748-2.874,4.875c-1.587,1.127-3.473,2.048-4.646,3.703h7.61v2.806H628.65c0.022-3.726,2.299-5.313,5.082-7.197
	c1.426-0.966,3.356-1.955,3.38-3.933c0-1.519-1.013-2.483-2.414-2.483c-1.933,0-2.554,2.001-2.554,3.703H629.018L629.018,621.074z"
	/>
<path fill="#58B5E1" d="M642.336,627.443h3.609v3.541h-3.609V627.443z"/>
<path fill="#58B5E1" d="M651.213,626.846c0.207,1.08,1.035,2,2.162,2c2.367,0,2.988-3.104,3.08-4.897l-0.045-0.045
	c-0.897,1.264-2.07,1.793-3.634,1.793c-1.38,0-2.782-0.645-3.702-1.655c-0.852-0.989-1.242-2.323-1.242-3.587
	c0-3.289,2.277-5.887,5.635-5.887c4.875,0,6.187,4.254,6.187,8.323c0,3.933-1.748,8.416-6.324,8.416
	c-2.782,0-4.853-1.633-5.22-4.461H651.213z M656.156,620.246c0-1.495-0.965-2.99-2.599-2.99c-1.563,0-2.461,1.495-2.461,2.943
	c0,1.518,0.781,3.035,2.461,3.035C655.306,623.234,656.156,621.832,656.156,620.246z"/>
<path fill="#58B5E1" d="M671.635,617.578h-6.646l-0.645,3.656l0.045,0.046c0.875-0.896,1.888-1.241,3.15-1.241
	c3.174,0,4.967,2.46,4.967,5.473c0,3.312-2.735,5.863-5.979,5.795c-3.127,0-5.933-1.725-5.979-5.104h3.267
	c0.16,1.426,1.219,2.414,2.645,2.414c1.701,0,2.782-1.494,2.782-3.104c0-1.679-1.034-3.013-2.782-3.013
	c-1.173,0-1.815,0.414-2.461,1.288h-2.943l1.587-8.899h8.991L671.635,617.578L671.635,617.578z"/>
<path fill="#58B5E1" d="M639.951,646.301c-1.639,0-2.719-1.332-2.719-3.385c0-2.125,1.043-3.439,2.719-3.439
	c1.71,0,2.79,1.314,2.79,3.422C642.741,644.95,641.643,646.301,639.951,646.301z M639.986,640.574c-0.937,0-1.368,0.757-1.368,2.377
	c0,1.477,0.468,2.251,1.368,2.251c0.937,0,1.387-0.757,1.387-2.376C641.373,641.331,640.887,640.574,639.986,640.574z
	 M641.301,653.07h-1.313l7.059-13.595h1.277L641.301,653.07z M648.287,653.07c-1.639,0-2.719-1.332-2.719-3.386
	c0-2.125,1.044-3.438,2.719-3.438c1.711,0,2.791,1.313,2.791,3.403C651.078,651.721,649.979,653.07,648.287,653.07z
	 M648.322,647.326c-0.937,0-1.367,0.774-1.367,2.396c0,1.478,0.468,2.251,1.367,2.251c0.938,0,1.387-0.756,1.387-2.377
	C649.709,648.102,649.241,647.326,648.322,647.326z"/>
</svg>
