<?xml version="1.0" encoding="utf-8"?>
<!-- Generator: Adobe Illustrator 16.0.0, SVG Export Plug-In . SVG Version: 6.00 Build 0)  -->
<!DOCTYPE svg PUBLIC "-//W3C//DTD SVG 1.1//EN" "http://www.w3.org/Graphics/SVG/1.1/DTD/svg11.dtd">
<svg version="1.1" id="Layer_1" xmlns="http://www.w3.org/2000/svg" xmlns:xlink="http://www.w3.org/1999/xlink" x="0px" y="0px"
	 width="768px" height="1024px" viewBox="0 0 768 1024" enable-background="new 0 0 768 1024" xml:space="preserve">
<g>
	<path fill="#FFFFFF" d="M206.973,511.632c3.321-2.12,5.701-5.141,6.741-8.4h-5.561v-1.521l7.222,0.021v-3.121h1.56l-0.02,3.121
		l7.142-0.021v1.521h-5.341c0.88,3.521,3.681,6.54,6.542,8.222l-1.08,1.28c-5.161-3.901-5.861-6.042-7.222-9.742l-0.04,7.102h3.861
		v1.5l-3.841-0.02l-0.02,4.921h-1.52l-0.02-4.921l-3.961,0.02v-1.5l3.961,0.021v-7.122c-1.38,4.36-3.721,7.36-7.162,9.842
		L206.973,511.632z"/>
	<path fill="#FFFFFF" d="M227.172,509.112c2.521-1.44,4.521-3.682,6.162-6.021l1.22,0.82c-0.56,1.02-1.7,2.36-2.44,3.26v9.222
		h-1.541v-7.642c-0.34,0.32-1.46,1.06-2.22,1.6L227.172,509.112z M227.433,503.611c2.101-1.46,3.721-3.262,5.061-5.361l1.18,0.92
		c-1.34,2.021-3,4.141-4.901,5.481L227.433,503.611z M236.595,514.754c1.02,0.08,1.9,0.08,2.76,0.061c0.22-0.061,0.44-0.2,0.44-0.48
		v-8.202h-5.121v-1.479l10.302,0.02v1.46l-3.561,0.021l-0.02,8.361c0,0.699-0.36,1.221-0.86,1.521
		c-0.541,0.301-2.441,0.28-3.461,0.24L236.595,514.754z M243.756,501.291h-8.602l-0.02-1.48l8.622-0.02V501.291L243.756,501.291z"/>
	<path fill="#FFFFFF" d="M248.773,511.152v-8.862h6.542l-0.02-3.661h1.6l-0.04,3.641l6.521,0.021v8.782h-1.58v-1.36h-4.941
		l0.04,6.741h-1.58l-0.02-6.741h-4.901l-0.04,1.44H248.773z M255.294,503.751h-4.941v4.521h4.961L255.294,503.751z M261.756,503.751
		h-4.861v4.501h4.881L261.756,503.751z"/>
	<path fill="#FFFFFF" d="M268.173,500.15h7.321c-0.18-0.2-0.72-0.7-1.36-1.181l1.54-0.64c0.62,0.6,1.1,1.24,1.42,1.82h7.361
		l0.02,1.46l-16.283-0.021L268.173,500.15z M279.695,514.553c0.88,0,1.44,0.142,2.081,0.021c0.26-0.061,0.42-0.36,0.42-0.721v-5.102
		l-11.663,0.021v7.701l-1.58,0.021l0.02-9.163l14.783-0.02v7c0,0.842-0.561,1.541-1.261,1.683c-0.76,0.139-1.52,0.06-2.38,0.1
		L279.695,514.553z M281.215,502.491v4.021h-9.782l-0.02-4.021H281.215z M272.374,513.854l0.02-4.261l7.862-0.02v4.28H272.374z
		 M272.914,505.051h6.822v-1.12h-6.842L272.914,505.051z M273.874,512.393l4.901,0.021l-0.02-1.36h-4.881V512.393z"/>
	<path fill="#FFFFFF" d="M287.113,512.873c1.24-0.24,2.24-0.46,3.121-0.72c1.02-2.182,1.68-4.621,1.58-7.382l1.48,0.279
		c-0.06,2.521-0.56,4.801-1.36,6.602c0.32-0.061,0.94-0.24,1.74-0.46l0.02,1.42l-5.401,1.581L287.113,512.873z M287.553,504.031
		l-0.02-1.46l6.221-0.021l0.02,1.46L287.553,504.031z M289.013,511.333c0.14-2.181,0.02-4.241-0.96-6.042l1.34-0.5
		c1,1.94,1.18,4.201,1.1,6.461L289.013,511.333z M290.373,502.431c-0.32-1.279-0.76-2.2-1.7-3.181l1.32-0.64
		c0.9,0.96,1.36,2.061,1.78,3.261L290.373,502.431z M299.735,509.732h-1.38v5.582h-1.46v-5.543h-1.32l-0.02,6.742h-1.5v-8.202h3.801
		c0.359-0.479,0.6-1.08,0.699-1.54h-5.021v-1.461h11.503v1.461h-5.021c-0.14,0.52-0.26,1.199-0.46,1.521h4.501l0.021,5.861
		c0,0.659-0.101,1.14-0.521,1.54c-0.64,0.641-1.46,0.5-2.521,0.46l-0.5-1.5c0.28,0.04,0.979,0.101,1.479,0.021
		s0.521-0.301,0.521-0.66l0.02-4.281l-1.359,0.02v4.762l-1.44,0.021L299.735,509.732z M303.836,504.071l-9.682,0.02v-4.261
		l1.521,0.02v2.781h2.541v-4.101l1.521-0.021v4.121h2.581v-2.841l1.5-0.021L303.836,504.071z"/>
	<path fill="#FFFFFF" d="M321.036,516.414l-1.5,0.02v-1.119h-6.721l-0.021,1.159l-1.5,0.021v-6.362c-1.08,0.28-2.5,0.5-3.581,0.641
		l-0.76-1.44c2.979-0.32,5.601-0.88,7.782-1.84c-0.94-0.68-1.581-1.28-2.142-1.88c-0.68,0.779-1.7,1.479-2.661,2.18l-1.319-0.96
		c2.28-1.32,3.841-2.94,4.621-4.781l1.279,0.5c-0.1,0.44-0.319,0.82-0.359,0.92h6.861l-0.02,1.32c-0.92,1.2-2.201,2.201-3.141,2.781
		c1.979,1,4.581,1.34,7.461,1.54l-0.66,1.561c-3.182-0.479-6.501-1.24-8.302-2.26c-1.421,0.7-3.361,1.38-4.762,1.62l9.442,0.04
		V516.414L321.036,516.414z M315.534,500.51c-0.26-0.22-0.88-0.859-1.84-1.2l1.521-0.979c1.78,0.84,2.2,2.081,2.26,2.161l6.422,0.02
		v3.961l-1.54-0.02l0.02-2.48h-12.483v2.541l-1.5-0.02v-3.981h7.142V500.51z M319.515,511.533h-6.7v2.32h6.721L319.515,511.533z
		 M314.034,504.931c0.56,0.62,1.28,1.32,2.26,1.801c0.98-0.521,1.86-1.16,2.48-1.801H314.034z"/>
	<path fill="#FFFFFF" d="M341.616,507.992v-0.82h-10.202c0.06,4.461-0.521,6.902-2.821,9.302l-1.38-1.08
		c2.062-1.779,2.661-4.001,2.661-6.501v-7.302h6.421c-0.24-0.58-1.22-1.46-2.46-2.3l1.12-0.98c0.92,0.7,2.141,1.581,2.98,2.762
		l-0.659,0.46l5.86,0.06v6.401L341.616,507.992L341.616,507.992z M341.616,503.031h-10.223v2.701h10.223V503.031L341.616,503.031z"
		/>
	<path fill="#FFFFFF" d="M360.956,512.833h-4.041v1.44h7.481v1.46h-16.163v-1.46h7.182v-1.44h-3.761v-1.141
		c-1.141,0.779-2.5,1.319-3.801,1.699c-0.341-0.42-0.641-0.8-0.98-1.38c2.061-0.439,3.961-1.22,5.101-2.42h-3.94l-0.021-1.42h3.182
		l0.02-6.562h-2.801v-1.4h2.781v-1.64h1.521v1.64h6.941v-1.68l1.479-0.021v1.7h2.8v1.38h-2.76l-0.02,6.563l3.201,0.02l0.02,1.42
		h-3.761c1.201,1.181,3.241,1.94,5.141,2.24l-0.899,1.38c-1.28-0.38-2.762-0.979-3.901-1.68V512.833L360.956,512.833z
		 M360.815,511.473c-0.78-0.54-1.4-1.081-1.94-1.88h-5.181c-0.48,0.78-1.021,1.34-1.74,1.84l3.461,0.04v-1.479l1.52,0.02l-0.02,1.44
		L360.815,511.473z M352.714,502.811h6.921l0.021-1.22h-6.941V502.811L352.714,502.811z M359.655,505.431v-1.26l-6.941,0.021v1.26
		L359.655,505.431z M359.655,508.172l-0.021-1.359h-6.921v1.34L359.655,508.172z"/>
	<path fill="#FFFFFF" d="M274.714,524.551v1.38h-2.961c-0.02,1.141-0.46,2.54-0.62,3.081h2.881v9.063h-1.42v-1.142h-1.8v1.682h-1.44
		v-5.541c-0.42,0.66-0.66,1.02-1.26,1.721l-1.24-1.061c1.88-2.121,2.94-4.142,3.48-7.781h-2.96v-1.4L274.714,524.551
		L274.714,524.551z M272.594,530.432h-1.82v5.081h1.82V530.432z M278.895,530.852h-3.521v-5.602h1.42v4.141h2.101v-6.841h1.44v6.861
		h2.081v-4.181h1.38v5.602h-3.46v6.801h2.48v-5.602h1.42v8.322h-1.42v-1.32h-6.241v1.26h-1.42v-8.241h1.44v5.581h2.3V530.852
		L278.895,530.852z"/>
	<path fill="#FFFFFF" d="M295.214,529.271c-1.521,1.938-4.081,3.681-6.642,5.101l-1-1.3c2.84-1.42,5.401-3.121,7.301-5.801
		c0.521-0.722,1-1.422,1.34-1.98h-8.342v-1.521h16.724v1.521h-6.461c-0.359,0.6-0.82,1.3-1.28,1.939v13.223h-1.64V529.271
		L295.214,529.271z M298.455,528.471c2.38,1.08,4.441,2.842,6.261,4.941l-1.22,1.04c-1.621-2.021-3.921-4.021-6.102-4.921
		L298.455,528.471z"/>
	<path fill="#FFFFFF" d="M308.033,524.109h1.46v10.104c0.8-0.681,1.819-2.041,2.42-3.582l-2.121-0.02v-1.42h3.141l0.021-6.201
		l1.439-0.021v6.223h2.961v1.438h-2.94v6.822h-1.48v-6.021c-0.52,2.041-1.979,3.562-2.92,4.581l-0.52-0.521v2.221h7.542
		c0.62-0.88,0.859-3.221,0.859-4.541l0.021-8.962c2-0.159,3.661-0.64,5.401-1.42l0.939,1.181c-1.721,0.699-3.321,1.16-4.861,1.381
		l-0.02,3.261h5.101v1.42h-1.84v10.282l-1.439-0.021V530.05h-1.821c-0.08,3.381,0.56,7.063-1.96,10.304l-1.32-0.841
		c0.12-0.1,0.2-0.221,0.32-0.381h-8.382V524.109L308.033,524.109z M311.354,528.711c-0.239-0.979-0.899-2.641-1.439-3.301l1.16-0.68
		c0.52,0.659,1.3,2.221,1.601,3.279L311.354,528.711z M316.234,535.152c-0.181-0.939-1.08-2.701-1.58-3.32l1.04-0.641
		c0.6,0.699,1.46,2.12,1.939,3.301L316.234,535.152z M314.794,527.971c0.7-0.778,1.32-2.399,1.48-3.26l1.22,0.539
		c-0.24,1.201-0.8,2.761-1.5,3.501L314.794,527.971z"/>
	<path fill="#FFFFFF" d="M342.316,532.271c0,1.801-0.221,4.48-0.46,5.961c-0.141,0.78-0.54,1.521-1.28,1.74
		c-0.9,0.159-1.82-0.021-2.76-0.14l-0.561-1.761c1.2,0.359,1.68,0.54,2.34,0.54c0.38,0.061,0.66-0.181,0.74-0.642
		c0.2-1.061,0.44-2.779,0.44-4.201h-4.161c-0.38,2.201-2.262,4.441-4.441,5.463c-1.201,0.56-2.48,0.979-3.921,1.239l-0.94-1.46
		c3.262-0.479,6.763-1.74,7.643-4.922c0.06-0.199,0.1-0.32,0.12-0.359l-5.102,0.039v-1.52l5.302,0.02
		c0.119-0.84,0.159-1.819,0.22-2.939l1.479,0.359c-0.04,1-0.14,1.841-0.199,2.562L342.316,532.271z M327.473,531.031
		c2.781-0.939,5.241-2.36,6.563-4.642h-5.881v-1.521l6.661-0.021c0.319-0.659,0.541-1.438,0.779-2.399l1.38,0.541
		c-0.1,0.8-0.359,1.438-0.5,1.858l7.961,0.021v1.521h-5.78c1.38,2.182,3.9,3.58,6.642,4.541l-0.979,1.382
		c-2.961-1.182-5.882-3.103-7.462-5.923h-1.021c-1.4,2.9-4.361,4.781-7.322,5.981L327.473,531.031z"/>
	<path fill="#FFFFFF" d="M357.515,533.893c-0.64,1.841-2.279,3.761-4.141,4.722c-1.541,0.78-2.901,1.319-4.621,1.68l-1.14-1.359
		c3.541-0.561,6.881-1.979,8.262-5.041h-8.262v-1.461h8.722c0.2-0.58,0.34-1.859,0.34-2.721v-2.76h1.5
		c0,2.66,0.061,3.801-0.28,5.479h6.682v1.461H357.515L357.515,533.893z M362.736,528.171v-1.841h-13.264v1.841h-1.521v-3.301h8.021
		c-0.319-0.54-1.199-1.28-1.859-1.64l1.14-0.722c0.72,0.38,1.68,1.2,2.12,2.062l-0.64,0.26l7.521,0.04v3.301H362.736
		L362.736,528.171z M352.714,532.313c-0.68-1.102-1.661-2.061-2.841-2.801l0.979-0.899c1.141,0.64,2.24,1.641,2.96,2.801
		L352.714,532.313z M354.714,530.392c-0.66-1.199-1.581-2.101-2.761-2.9l1.02-0.859c1.181,0.681,2.241,1.76,2.941,2.94
		L354.714,530.392z M363.696,540.373c-1.9-2.12-3.901-3.24-6.401-4.36l0.78-1.12c2,0.74,4.961,2.521,6.662,4.302L363.696,540.373z"
		/>
</g>
</svg>
