<?xml version="1.0" encoding="utf-8"?>
<!-- Generator: Adobe Illustrator 16.0.0, SVG Export Plug-In . SVG Version: 6.00 Build 0)  -->
<!DOCTYPE svg PUBLIC "-//W3C//DTD SVG 1.1//EN" "http://www.w3.org/Graphics/SVG/1.1/DTD/svg11.dtd">
<svg version="1.1" id="Layer_1" xmlns="http://www.w3.org/2000/svg" xmlns:xlink="http://www.w3.org/1999/xlink" x="0px" y="0px"
	 width="768px" height="1024px" viewBox="0 0 768 1024" enable-background="new 0 0 768 1024" xml:space="preserve">
<g>
	<path fill="#FFFFFF" d="M425.709,508.392c-3.001-1.681-6.063-4.021-7.902-7.201c-1.358,2.46-4.7,5.841-8.102,7.222l-1.301-1.041
		c4.301-2.081,7.102-4.761,9.143-8.862l1.34,0.62l-0.26,0.561c1.602,3.261,5.021,5.721,8.281,7.642L425.709,508.392z
		 M416.927,516.554v-12.442h1.521v12.442H416.927z"/>
	<path fill="#FFFFFF" d="M438.807,499.03c0.021,2.261-0.08,4.301-0.3,6.32c-0.06,0.48,0.12,0.66,0.24,0.94
		c1.62,4.001,3.761,6.742,7.922,8.521l-1.161,1.301c-3.7-1.92-5.961-4.102-7.661-8.063c-0.779,2.3-3.561,5.901-7.421,8.002
		l-1.201-1.181c1.4-0.84,2.562-1.68,3.642-2.72c1.319-1.24,2.281-2.281,3.281-4.361c1.159-2.36,1.02-5.861,1.061-8.762
		L438.807,499.03L438.807,499.03z"/>
	<path fill="#FFFFFF" d="M449.825,513.873c-0.421-0.38-0.8-0.68-1.32-1.2c1.24-0.36,2.161-0.74,3.021-1.06v-4.621h-2.041l0.021-1.42
		l1.98,0.02l0.021-3.961l-2.399,0.021v-1.46l6.2,0.02v1.42h-2.221l-0.02,3.961l1.96-0.02v1.42h-1.96v4.041
		c0.58-0.221,1.438-0.62,2.42-0.98v1.5L449.825,513.873z M465.508,499.67l-0.039,8.702h-4.061v1.92h3.939v1.44h-3.98v2.301h5.342
		v1.42h-12.143v-1.42h5.261l0.021-2.301h-4.002v-1.44h3.981l0.021-1.92h-4.141v-8.722L465.508,499.67z M459.827,503.231l0.021-2.121
		l-2.621-0.021v2.142H459.827z M457.227,504.651v2.301h2.602l0.021-2.321L457.227,504.651z M461.388,504.671v2.261l2.581,0.021
		v-2.261L461.388,504.671z M461.428,503.251h2.562l0.04-2.141l-2.62-0.021L461.428,503.251z"/>
	<path fill="#FFFFFF" d="M468.645,515.213c2.701-1.359,3.843-3.76,3.843-6.921v-5.821h1.5v5.861c0,3.181-0.92,6.161-4.381,8.222
		L468.645,515.213z M469.926,499.81h6.701v11.242h-1.5v-9.821h-3.701v9.781h-1.5V499.81z M474.426,511.613
		c1.062,0.74,2.361,2.06,3.201,3.541l-1.28,1c-0.72-1.479-1.341-2.301-2.859-3.581L474.426,511.613z M480.287,516.453l-0.58-1.6
		c1.061,0.038,1.74,0.06,2.461,0.06c0.22-0.04,0.3-0.14,0.3-0.521V504.35l-0.261,0.021c-0.219,3.681-1.359,6.821-4.52,9.842
		l-1.24-1.16c1.459-1.38,2.399-2.581,3.3-4.4c0.66-1.34,0.9-2.86,0.979-4.302h-3.721v-1.479h5.461v-4.241h1.562v4.241h2.22v1.479
		h-2.22v10.603c0,0.74-0.46,1.5-1.341,1.5L480.287,516.453L480.287,516.453z"/>
	<path fill="#FFFFFF" d="M490.426,511.152v-8.862h6.541l-0.02-3.661h1.6l-0.04,3.641l6.521,0.021v8.782h-1.58v-1.36h-4.941
		l0.04,6.741h-1.58l-0.02-6.741h-4.902l-0.039,1.44H490.426z M496.947,503.751h-4.941v4.521h4.961L496.947,503.751z
		 M503.408,503.751h-4.861v4.501h4.881L503.408,503.751z"/>
	<path fill="#FFFFFF" d="M509.805,516.354v-14.322h1.521v14.322H509.805z M514.326,502.631c-0.961-1.3-1.961-2.341-3.102-3.061
		l1.221-0.82c0.881,0.54,2.221,1.74,3.061,2.92L514.326,502.631z M519.747,513.652v-1.04h-4.521v1.04h-1.521v-9.961h7.562v9.961
		H519.747z M519.747,505.151h-4.521v2h4.521V505.151z M519.747,508.612h-4.521v2.541h4.521V508.612z M523.729,516.094
		c-0.641,0.061-0.979,0.039-1.841,0l-0.439-1.399c0.801,0.12,1.201,0.141,1.681,0.12c0.341-0.061,0.341-0.08,0.341-0.521V501.23
		h-6.781v-1.461h8.302v14.824C524.988,515.354,524.508,516.014,523.729,516.094z"/>
	<path fill="#FFFFFF" d="M529.145,515.394v-1.46h5.843V499.17h1.561v14.764h2.32V499.17h1.5v14.764h5.801v1.461L529.145,515.394
		L529.145,515.394z M532.285,511.893c-0.101-2.721-1.021-5.501-2.021-7.762l1.3-0.62c1.021,2.241,1.961,5.041,2.241,7.723
		L532.285,511.893z M542.428,512.133l-1.279-0.78c1.38-1.819,2.341-5.4,2.479-7.802l1.38,0.5
		C544.608,507.191,543.748,510.092,542.428,512.133z"/>
	<path fill="#FFFFFF" d="M565.988,508.632c-2.881-0.62-5.603-1.399-7.961-2.8c-2.281,1.52-5.822,2.541-8.902,3.021l-0.62-1.439
		c2.4-0.4,4.501-0.94,6.563-1.7c0.54-0.26,1.18-0.58,1.58-0.8c-0.859-0.66-2-1.34-2.701-2.3c-0.879,1.04-2.16,2.12-3.66,2.72
		l-1.141-1.38c3.081-1.141,4.562-2.92,5.502-5.381l1.319,0.739c-0.221,0.5-0.42,0.86-0.479,0.98h7.502v1.34
		c-1.181,1.46-2.381,2.4-3.621,3.301c0.26,0.2,0.881,0.4,1.44,0.681c1.88,0.699,3.859,1.239,6.16,1.68L565.988,508.632z
		 M562.848,515.073c-0.198,0.62-0.72,1.16-1.3,1.319c-0.88,0.262-1.78-0.021-2.7-0.159l-0.381-1.74
		c1.062,0.3,1.82,0.601,2.642,0.479c0.461-0.299,0.5-0.858,0.6-1.438c0.181-1.081,0.4-2.461,0.441-3.102h-4.322
		c-0.319,1.722-1.66,3.361-3.28,4.422c-1.2,0.8-3.36,1.438-4.661,1.68c-0.278-0.5-0.539-0.9-0.8-1.5c2.54-0.4,4.901-1,6.421-3
		c0.42-0.54,0.642-1.141,0.761-1.602h-5.722v-1.46h5.961c0.062-0.479,0-0.84,0.062-1.74l1.479,0.199
		c-0.02,0.761,0.04,1.101-0.02,1.541h5.681C563.668,511.192,563.428,513.232,562.848,515.073z M554.986,501.75
		c0.801,0.96,1.881,1.6,3,2.32c1.08-0.7,2.161-1.521,2.922-2.32H554.986z"/>
	<path fill="#FFFFFF" d="M415.887,539.334c1.9-0.98,3.66-2.221,4.801-3.701c-1.061-1.58-1.601-3.541-1.979-5.102
		c-0.28,0.76-0.98,1.899-1.44,2.479l-1.3-0.96c1.92-2.521,2.76-6.001,2.86-9.502l1.5,0.479c0,1.159-0.141,2.32-0.28,3.12h5.922v1.44
		h-1.221c-0.1,2.801-0.82,5.642-2.26,7.981c0.938,1.399,2.479,2.881,4.34,3.621l-1.119,1.18c-1.781-0.8-3.161-2.16-4.182-3.461
		c-1.16,1.421-2.761,2.621-4.541,3.642l-1.101-1.04v1h-1.521v-5.461l-3.741,1.26l-1.12-1.18c0.72-0.479,0.681-0.66,0.681-1.4v-9.081
		h1.521v9.661l2.661-0.899V522.75h1.521L415.887,539.334L415.887,539.334z M419.567,528.211c0.38,2.181,0.859,4.041,2.04,5.981
		c1.141-2.262,1.5-4.44,1.659-6.603h-3.541L419.567,528.211z"/>
	<path fill="#FFFFFF" d="M429.505,538.594c4.281-2.262,6.821-5.222,8.302-9.742c-0.18-1.239-0.319-2.421-0.319-3.602h-3.461v-1.5
		l5.062-0.02c-0.079,1.778,0.021,3.381,0.28,4.899c0.82,4.683,3.66,7.644,7.102,9.942l-0.961,1.319
		c-2.641-1.641-5.819-4.581-7.061-8.48c-1.32,3.12-3.541,6.141-8.002,8.502L429.505,538.594z"/>
	<path fill="#FFFFFF" d="M460.848,538.514c0.96,0,2.36-0.061,2.66-0.16c0.2-0.101,0.34-0.521,0.34-0.899l0.021-12.563l-12.122-0.021
		v15.784h-1.581V523.39h15.283l0.021,14.384c0,0.92-0.359,1.858-0.899,2.141c-0.54,0.199-2.521,0.279-3.182,0.239L460.848,538.514z
		 M463.229,527.051l0.021,1.48h-10.563l0.021-1.48H463.229z M461.607,530.691v6.041h-7.603v-6.021L461.607,530.691z
		 M455.526,535.252h4.581v-3.061l-4.581,0.021V535.252z"/>
	<path fill="#FFFFFF" d="M469.766,538.493c0.479-0.24,0.92-0.58,0.92-1V523.13l1.62,0.021l0.021,5.221l5.16-0.021v1.521
		l-5.182-0.021v7.582c1.602-0.521,3.36-1.102,5.342-1.762v1.602c-2.82,1.021-4.062,1.4-6.843,2.48L469.766,538.493z
		 M483.107,538.014c0.439,0,0.801-0.239,0.961-0.541c0.239-0.479,0.399-1.858,0.52-2.739l1.541,0.561
		c-0.16,1.039-0.34,2.04-0.74,2.92c-0.301,0.7-0.979,1.32-1.819,1.32l-3.222-0.021c-1.239,0-2.101-0.801-2.101-1.819V523.07
		l1.62-0.021v7.021c1.561-0.62,3.16-1.682,4.721-3.102l1.381,0.9c-1.939,1.76-3.979,3.16-6.102,3.82v5.602
		c0.04,0.32,0.221,0.721,0.7,0.721h2.54V538.014z"/>
	<path fill="#FFFFFF" d="M493.285,534.352c0.361-0.139,1.041-0.34,1.801-0.618l0.041,1.52c-1.781,0.641-3.441,1.221-5.222,1.881
		l-1.062-1.359c1.182-0.28,2.102-0.561,2.901-0.841v-5.48l-2.262-0.021l0.021-1.421h2.241v-4.921h1.52v4.921h1.521v1.44h-1.501
		V534.352L493.285,534.352z M494.967,531.472v-6.501h2.96c-0.3-0.479-1.08-1.141-1.921-1.86l1.541-0.601
		c0.9,0.76,1.58,1.642,2.08,2.44l1.801,0.021c0.76-0.739,1.301-1.66,1.74-2.801c0.561,0.22,0.94,0.5,1.42,0.779
		c-0.459,0.86-0.92,1.602-1.3,1.979h2.82v6.542L494.967,531.472L494.967,531.472z M497.646,540.514h-1.54v-8.002l8.882-0.02v8.002
		l-1.5-0.021l0.02-1.14l-5.881,0.02L497.646,540.514z M499.787,530.051v-3.66l-3.301-0.02v3.68H499.787z M497.707,526.611
		c0.84,0.799,1.28,1.72,1.78,2.72c-0.479,0.22-0.841,0.421-1.38,0.62c-0.281-1.08-0.882-1.84-1.581-2.74L497.707,526.611z
		 M497.607,533.912v1.221h5.881l0.02-1.221H497.607z M497.627,536.553v1.36h5.881l-0.02-1.36H497.627z M504.588,530.012v-3.641
		h-3.34v3.641H504.588z M504.328,526.971c-0.439,1.101-0.9,2.062-1.68,3.021l-1.281-0.682c0.721-0.858,1.381-2.1,1.721-2.92
		L504.328,526.971z"/>
	<path fill="#FFFFFF" d="M525.849,539.414c-5.521-2.061-7.762-4.662-8.802-7.922h-2.461v6.541l3.9-1.642v1.5l-4.761,2.222
		l-0.899-1.34c0.199-0.181,0.24-0.58,0.24-0.86v-6.421h-4.143v-1.461h4.341v-7.461h1.521v5.681c2.38-1.06,5.021-2.46,7.282-4.321
		l1.039,1.142c-2.5,1.979-5.32,3.521-8.321,4.641v0.32h11.143v1.461h-7.4c1.08,3.461,4.921,5.601,8.342,6.581L525.849,539.414z"/>
</g>
</svg>
