<?xml version="1.0" encoding="utf-8"?>
<!-- Generator: Adobe Illustrator 16.0.0, SVG Export Plug-In . SVG Version: 6.00 Build 0)  -->
<!DOCTYPE svg PUBLIC "-//W3C//DTD SVG 1.1//EN" "http://www.w3.org/Graphics/SVG/1.1/DTD/svg11.dtd">
<svg version="1.1" id="Layer_1" xmlns="http://www.w3.org/2000/svg" xmlns:xlink="http://www.w3.org/1999/xlink" x="0px" y="0px"
	 width="768px" height="1024px" viewBox="0 0 768 1024" enable-background="new 0 0 768 1024" xml:space="preserve">
<path fill="#FFFFFF" d="M207.393,630.879c1.621-1.041,2.521-2.501,3.261-4.102c0.48,0.221,0.82,0.399,1.3,0.62
	c-0.22,0.501-0.44,0.939-0.5,1.101h5.181v1.42l-3.021,0.021c0.08,0.101,0.36,0.7,0.68,1.181l-1.36,0.74
	c-0.34-0.801-0.68-1.399-1.14-1.921h-1.16c-0.48,0.659-1.08,1.319-2.101,2.021L207.393,630.879z M208.213,631.998h7.341
	c-0.14-0.279-0.54-0.779-1.14-1.359l1.44-0.461c0.64,0.642,1.12,1.461,1.36,1.82h7.162v3.762l-1.521-0.021v-2.32h-13.123
	l-0.02,2.421l-1.5-0.021L208.213,631.998L208.213,631.998z M212.414,644.941h-1.58l0.02-10.502h10.762l0.02,4.079l-9.262,0.021v1
	h10.142v5.341h-1.54v-1.18h-8.582L212.414,644.941z M212.374,637.1h7.742l-0.02-1.239h-7.722V637.1z M212.394,641l0.02,1.32
	l8.562-0.021v-1.34L212.394,641z M221.736,629.838c0.12,0.12,0.58,0.602,0.92,1.221c-0.44,0.279-0.84,0.48-1.36,0.699
	c-0.38-0.799-0.78-1.42-1.3-1.899h-1.32c-0.26,0.44-0.64,1.061-1.2,1.541c-0.42-0.32-0.74-0.521-1.18-0.86
	c1.08-1.16,1.641-2.32,1.98-3.801l1.34,0.501c-0.08,0.52-0.2,0.959-0.28,1.18h5.461v1.42L221.736,629.838L221.736,629.838z"/>
<path fill="#FFFFFF" d="M228.173,642.301c-0.42-0.38-0.8-0.68-1.32-1.2c1.24-0.359,2.161-0.739,3.021-1.06v-4.621h-2.041l0.02-1.421
	l1.98,0.021l0.02-3.961l-2.4,0.021v-1.461l6.201,0.021v1.422h-2.22l-0.02,3.961l1.96-0.021v1.421h-1.96v4.04
	c0.58-0.22,1.44-0.62,2.42-0.979v1.5L228.173,642.301z M243.856,628.098l-0.04,8.702h-4.061v1.921h3.941v1.439h-3.981v2.301h5.341
	v1.42h-12.143v-1.42h5.261l0.02-2.301h-4.001v-1.439h3.981l0.02-1.921h-4.141v-8.722L243.856,628.098z M238.175,631.658l0.02-2.12
	l-2.621-0.021v2.142H238.175z M235.574,633.078v2.301h2.601l0.02-2.32L235.574,633.078z M239.735,633.099v2.262l2.581,0.02v-2.26
	L239.735,633.099z M239.775,631.679h2.561l0.04-2.141l-2.621-0.021L239.775,631.679z"/>
<path fill="#FFFFFF" d="M263.116,627.938v1.4h-6.221v0.78h7.242v3.561h-1.541v-2.159h-5.701v2.439l0.44,0.34l-0.34,0.36
	c2.121,1.86,5.021,2.86,8.382,3.28l-0.82,1.399c-2.82-0.278-5.741-1.358-8.501-3.66c-2.141,1.78-5.141,3.12-8.242,3.86l-0.8-1.42
	c3.801-1.001,6.861-2.081,8.342-3.921v-2.681h-5.721v2.279h-1.5v-3.681h7.222v-0.78h-6.262v-1.4h14.021V627.938z M250.033,635.1
	v-1.239h4.061v1.239H250.033z M254.054,633.238h-3.801v-1.261h3.801V633.238z M252.794,641.021c1.2,0.22,2.18,0.521,3.161,0.819
	c1.28-0.439,1.98-0.841,3.021-1.399l-8.442-0.04V639h10.982v1.26c-1.24,1.062-2.621,1.9-3.701,2.361c0.46,0.26,1.44,0.699,2.28,1.32
	l-0.9,1.278c-2.241-1.56-4.561-2.42-7.322-2.96L252.794,641.021z M257.075,638.84c-0.74-0.641-1.7-1.12-2.641-1.358l1.04-0.9
	c0.86,0.199,1.841,0.6,2.661,1.22L257.075,638.84z M261.976,633.238h-3.981v-1.24h3.981V633.238z M262.216,635.1h-4.221v-1.239
	h4.221V635.1z"/>
<path fill="#FFFFFF" d="M276.475,629.298c-0.34-0.479-1.14-1.16-1.78-1.56l1.58-0.82c0.9,0.66,1.641,1.54,1.98,2.359l6.122,0.021
	v1.46l-6.481-0.02v1.02l5.361-0.02v1.319h-5.361v1.041l5.361-0.021v1.3h-5.361v1.121h7.142v1.46l-13.703-0.021l-0.02,0.74h-1.5
	v-6.021c-0.26,0.28-0.82,0.979-1.48,1.541l-1.34-0.94c2.1-1.761,3.5-3.921,4.421-6.302l1.34,0.621c-0.3,0.76-0.62,1.358-0.78,1.72
	L276.475,629.298L276.475,629.298z M283.116,644.861h-1.5v-1.101h-9.862v1.16h-1.52l-0.02-6.021h12.922L283.116,644.861z
	 M271.333,630.738v1h5.081v-0.98L271.333,630.738z M276.415,634.079v-1.04l-5.081,0.02v1.021L276.415,634.079L276.415,634.079z
	 M276.395,636.5l0.02-1.121h-5.081v1.121H276.395z M281.616,640.34l-9.882,0.021l0.02,1.96l9.882-0.021L281.616,640.34z"/>
<path fill="#FFFFFF" d="M301.036,644.842l-1.5,0.021v-1.12h-6.721l-0.02,1.16l-1.5,0.021v-6.361c-1.08,0.279-2.5,0.5-3.581,0.641
	l-0.76-1.44c2.98-0.319,5.601-0.881,7.782-1.84c-0.94-0.681-1.581-1.281-2.141-1.881c-0.68,0.78-1.7,1.479-2.661,2.18l-1.32-0.959
	c2.281-1.319,3.841-2.94,4.621-4.781l1.28,0.5c-0.1,0.439-0.32,0.82-0.36,0.921h6.861l-0.02,1.319
	c-0.92,1.2-2.201,2.201-3.141,2.781c1.979,1,4.581,1.34,7.461,1.539l-0.66,1.561c-3.182-0.479-6.501-1.239-8.302-2.26
	c-1.42,0.699-3.361,1.38-4.761,1.62l9.442,0.04V644.842L301.036,644.842z M295.534,628.938c-0.26-0.22-0.88-0.858-1.84-1.198
	l1.521-0.98c1.78,0.84,2.2,2.08,2.26,2.16l6.421,0.021v3.961l-1.54-0.021l0.02-2.479h-12.483v2.541l-1.5-0.021v-3.98h7.141V628.938z
	 M299.515,639.961h-6.701v2.32h6.721L299.515,639.961z M294.034,633.359c0.56,0.619,1.28,1.319,2.26,1.8
	c0.98-0.521,1.86-1.16,2.48-1.8H294.034z"/>
<path fill="#FFFFFF" d="M321.616,636.42v-0.82h-10.202c0.06,4.461-0.521,6.901-2.821,9.303l-1.38-1.08
	c2.062-1.78,2.661-4.001,2.661-6.501v-7.304h6.421c-0.24-0.58-1.22-1.46-2.46-2.3l1.12-0.979c0.92,0.7,2.141,1.581,2.98,2.761
	l-0.659,0.46l5.86,0.061v6.401L321.616,636.42L321.616,636.42z M321.616,631.459h-10.223v2.7h10.223V631.459L321.616,631.459z"/>
<path fill="#FFFFFF" d="M328.473,643.661l-1.06-1.04c1.34-0.961,2.32-2.121,3.301-3.641l1,0.8
	C331.033,641.42,329.673,642.82,328.473,643.661z M330.773,637.939v-7.103h2.939c-0.72-1.279-1.46-2.061-2.721-3.02l1.201-0.82
	c1.199,0.9,2.14,1.9,2.84,3.2l-0.92,0.62l3.721,0.02l-1.041-0.64c1.26-0.88,1.9-1.98,2.541-3.2l1.141,0.779
	c-0.5,1.239-1.041,2.159-2.141,3.041l2.721,0.02v7.103H330.773z M339.535,632.299h-7.242v4.182h7.242V632.299z M339.935,643.861
	l-0.579,0.16h-5.602c-0.78,0-1.46-0.701-1.46-1.4v-3.9h1.521v3.54c0.04,0.16,0.22,0.3,0.42,0.3h4.98c0.38,0,0.76-1.119,0.84-2
	l1.42,0.801C341.176,642.421,341.056,643.341,339.935,643.861z M337.215,641.9c-0.439-1.16-1.121-2.04-2.121-2.881l1.101-0.801
	c1.101,1.021,1.661,1.78,2.301,2.78L337.215,641.9z M343.716,643.262c-0.819-1.461-1.881-2.701-3.021-3.502l1.14-0.858
	c1.201,0.8,2.321,2.061,3.081,3.399L343.716,643.262z"/>
<path fill="#FFFFFF" d="M351.793,632.059c-0.54,1.62-1.92,3.021-3.041,4.121l-1.18-1.08c1.18-0.979,2.279-2.159,3.121-3.78
	L351.793,632.059z M350.553,630.538c-0.859-1.24-1.58-1.78-2.541-2.4l0.92-0.92c0.9,0.38,2.141,1.261,2.74,2.141L350.553,630.538z
	 M348.013,643.32c2.921-0.181,4.881-0.119,6.643-2.039c0.7-0.941,0.72-1.98,0.84-3.643l1.439-0.021
	c-0.06,2.001-0.22,4.062-1.859,5.342c-1.8,1.42-4.041,1.66-6.361,1.82L348.013,643.32z M361.176,635.56v6.241h-1.5V637h-6.9v4.781
	h-1.521v-6.223h0.88l-0.62-0.88c1.92-0.541,3.32-1.021,4.461-1.979c0.721-0.602,1.16-1.301,1.561-2.4l1.399,0.319l-0.26,0.78
	c1.581,2.181,3.642,2.801,6.262,3.501l-1.04,1.279c-2.141-0.541-4.462-1.761-5.901-3.479c-0.8,1.3-3,2.54-4.901,2.82L361.176,635.56
	z M360.835,631.519c0.56-0.64,0.84-1.239,0.98-1.66h-5.842c-0.58,1.081-1.721,2.12-2.94,2.961l-1.021-1.181
	c1.74-1.021,2.92-2.761,3.521-4.641l1.34,0.479c-0.08,0.28-0.26,0.641-0.34,0.881h6.881c0.12,1.899-0.62,2.921-1.22,3.9
	L360.835,631.519z M362.596,644.981c-1.699-1.12-4.021-1.9-6.221-2.36l0.7-1.301c2.081,0.42,4.321,1.061,6.281,2.261
	L362.596,644.981z"/>
<path fill="#FFFFFF" d="M269.373,658.239h3.901c-0.24-0.602-1.24-1.7-1.84-2.161l0.96-0.8c0.62,0.359,1.9,1.561,2.521,2.501
	l-0.68,0.46l2.581,0.04c0.541-0.521,1.581-1.861,2.021-2.98l1.32,0.72c-0.42,0.842-1.1,1.78-1.5,2.222h5.281v1.38h-13.083
	l0.02,3.661c0.02,2.841-1.581,4.641-3.101,5.562l-1.12-1.141c1.32-0.721,2.721-2.281,2.721-4.861v-4.602H269.373z M276.814,653.678
	l7.102,0.041v1.379h-16.263v-1.358h8.042c-0.32-0.58-1.14-1.602-1.94-2.182l1.041-0.841c0.82,0.682,1.74,1.441,2.541,2.642
	L276.814,653.678z"/>
<path fill="#FFFFFF" d="M299.195,666.941c0.96,0,2.359-0.062,2.66-0.16c0.199-0.102,0.34-0.521,0.34-0.9l0.02-12.563l-12.123-0.021
	v15.784h-1.581v-17.264h15.283l0.021,14.383c0,0.92-0.36,1.858-0.9,2.141c-0.54,0.199-2.521,0.279-3.181,0.239L299.195,666.941z
	 M301.576,655.479l0.02,1.48h-10.563l0.02-1.48H301.576z M299.955,659.119v6.041h-7.602v-6.021L299.955,659.119z M293.874,663.68
	h4.581v-3.061l-4.581,0.021V663.68z"/>
<path fill="#FFFFFF" d="M308.113,666.921c0.479-0.24,0.92-0.58,0.92-1v-14.363l1.621,0.021l0.02,5.221l5.161-0.02v1.52l-5.181-0.02
	v7.582c1.6-0.521,3.36-1.103,5.341-1.763v1.603c-2.821,1.02-4.062,1.399-6.842,2.479L308.113,666.921z M321.456,666.441
	c0.44,0,0.8-0.24,0.96-0.541c0.24-0.48,0.4-1.859,0.52-2.74l1.54,0.561c-0.159,1.039-0.34,2.04-0.739,2.92
	c-0.301,0.7-0.98,1.32-1.821,1.32l-3.221-0.02c-1.24,0-2.101-0.802-2.101-1.82v-14.623l1.62-0.021v7.021
	c1.562-0.62,3.161-1.682,4.721-3.102l1.381,0.9c-1.94,1.76-3.981,3.16-6.103,3.82v5.602c0.04,0.32,0.22,0.721,0.7,0.721h2.543
	V666.441z"/>
<path fill="#FFFFFF" d="M331.633,662.779c0.36-0.14,1.041-0.34,1.801-0.619l0.04,1.52c-1.78,0.642-3.44,1.222-5.221,1.881
	l-1.061-1.359c1.181-0.28,2.101-0.561,2.9-0.84v-5.481l-2.261-0.02l0.02-1.422h2.241v-4.921h1.521v4.921h1.521v1.44h-1.5
	L331.633,662.779L331.633,662.779z M333.314,659.899v-6.501h2.96c-0.301-0.48-1.08-1.142-1.921-1.861l1.541-0.6
	c0.9,0.76,1.58,1.641,2.081,2.439l1.801,0.021c0.76-0.74,1.3-1.66,1.739-2.802c0.561,0.221,0.94,0.5,1.42,0.779
	c-0.46,0.861-0.92,1.602-1.3,1.979h2.82v6.543L333.314,659.899L333.314,659.899z M335.995,668.941h-1.541v-8.002l8.882-0.021v8.002
	l-1.5-0.021l0.021-1.141l-5.882,0.021L335.995,668.941z M338.135,658.479v-3.659l-3.301-0.021v3.68H338.135z M336.055,655.039
	c0.84,0.799,1.28,1.72,1.78,2.72c-0.479,0.22-0.84,0.421-1.38,0.62c-0.28-1.08-0.88-1.84-1.581-2.74L336.055,655.039z
	 M335.955,662.34v1.221h5.881l0.021-1.221H335.955z M335.975,664.98v1.359h5.882l-0.021-1.359H335.975z M342.936,658.439v-3.642
	h-3.341v3.642H342.936z M342.676,655.398c-0.439,1.1-0.899,2.061-1.68,3.021l-1.28-0.681c0.72-0.859,1.38-2.101,1.72-2.92
	L342.676,655.398z"/>
<path fill="#FFFFFF" d="M364.196,667.842c-5.521-2.061-7.763-4.662-8.803-7.922h-2.461v6.541l3.901-1.641v1.5l-4.761,2.221
	l-0.9-1.34c0.2-0.18,0.24-0.58,0.24-0.86v-6.421h-4.141v-1.461h4.341v-7.461h1.521v5.681c2.38-1.06,5.021-2.46,7.282-4.32
	l1.04,1.141c-2.5,1.979-5.321,3.521-8.322,4.641v0.32h11.144v1.461h-7.402c1.081,3.461,4.921,5.602,8.342,6.581L364.196,667.842z"/>
</svg>
