<?xml version="1.0" encoding="utf-8"?>
<!-- Generator: Adobe Illustrator 16.0.0, SVG Export Plug-In . SVG Version: 6.00 Build 0)  -->
<!DOCTYPE svg PUBLIC "-//W3C//DTD SVG 1.1//EN" "http://www.w3.org/Graphics/SVG/1.1/DTD/svg11.dtd">
<svg version="1.1" id="Layer_1" xmlns="http://www.w3.org/2000/svg" xmlns:xlink="http://www.w3.org/1999/xlink" x="0px" y="0px"
	 width="768px" height="1024px" viewBox="0 0 768 1024" enable-background="new 0 0 768 1024" xml:space="preserve">
<path fill="#FFFFFF" d="M415.426,627.578c-0.52,1.6-1.119,3.2-1.778,4.58v12.783h-1.541v-10.304c-0.421,0.58-1.24,1.562-2.12,2.562
	l-1.262-0.939c3.201-3.479,3.922-5.44,5.302-9.281L415.426,627.578z M426.949,640.48c-0.24,1.279-0.602,2.439-1.102,3.561
	c-0.3,0.461-0.8,0.74-1.359,0.721c-1.101-0.181-2.021-0.841-2.801-1.621c-2.2-2.26-3.062-5.08-3.421-8.162l-3.461,0.302l-0.181-1.5
	c1.32-0.102,2.46-0.222,3.461-0.302c-0.16-1.979-0.341-4.181-0.32-6.461l1.602,0.021c0.061,2.421,0.141,4.621,0.358,6.302
	c1.861-0.14,3.901-0.318,6.082-0.54l0.16,1.48l-6.062,0.561c0.3,2.58,0.939,4.98,2.779,6.941c0.521,0.539,0.882,0.8,1.48,1.16
	c0.221,0.1,0.461,0.118,0.561-0.102c0.359-0.761,0.601-2.081,0.74-3.04L426.949,640.48z M423.788,632.039
	c-0.921-1.281-1.86-2.501-3.241-3.361l1.121-1c1.38,0.82,2.48,2.102,3.36,3.341L423.788,632.039z"/>
<path fill="#FFFFFF" d="M431.545,643.182c0.602-0.301,0.781-0.801,0.781-1.341v-4.201h-2.842v-1.399h2.842v-2.021h-0.9
	c-0.439,0.602-0.701,0.961-1.479,1.642l-1.121-1.2c1.94-1.682,2.922-4.182,3.121-7.521l1.439,0.36c0.061,1.08-0.101,2.141-0.18,2.32
	h2.96v1.438h-3.301c-0.181,0.562-0.459,1.121-0.619,1.521h3.7v1.438h-2.08v2h2.439v1.421h-2.439v4.481l2.561-1.201v1.541
	l-3.961,2.021L431.545,643.182z M438.507,632.418c-0.42-1.56-1.3-2.74-2.46-3.92l1.34-0.68c1.16,1.14,1.98,2.319,2.5,3.84
	L438.507,632.418z M441.348,643.001c1.08,0.08,1.54,0.14,2.062,0.101c0.438-0.021,0.561-0.28,0.561-0.641v-1.76h-5.401v4.26h-1.521
	v-12.063h3.42v-5.941h1.541v5.941h3.5v9.963c0,0.938-0.778,1.739-1.88,1.739h-1.78L441.348,643.001z M438.566,634.339v1.7h5.401
	v-1.7H438.566z M438.566,637.48v1.778h5.401v-1.778H438.566z M446.269,628.498c-0.56,1.479-1.341,2.74-2.601,3.881l-1.24-0.961
	c1.28-1.039,2.062-2.279,2.701-3.801L446.269,628.498z"/>
<path fill="#FFFFFF" d="M451.025,634.239h3.899c-0.24-0.602-1.24-1.7-1.84-2.161l0.96-0.8c0.62,0.359,1.9,1.561,2.521,2.501
	l-0.681,0.46l2.58,0.04c0.541-0.521,1.58-1.861,2.021-2.98l1.319,0.72c-0.42,0.842-1.101,1.78-1.501,2.222h5.281v1.38h-13.082
	l0.021,3.661c0.021,2.841-1.58,4.641-3.102,5.562l-1.12-1.141c1.32-0.721,2.722-2.281,2.722-4.861V634.239L451.025,634.239z
	 M458.467,629.678l7.103,0.041v1.379h-16.265v-1.358h8.042c-0.318-0.58-1.14-1.602-1.939-2.182l1.041-0.841
	c0.818,0.682,1.739,1.441,2.54,2.642L458.467,629.678z"/>
<path fill="#FFFFFF" d="M475.266,644.901v-1.38h-3.721v1.46l-1.5-0.04v-8.982h6.722l-0.021,8.942H475.266L475.266,644.901z
	 M471.545,642.101l3.701-0.021v-4.7h-3.701V642.101z M483.348,627.838l-0.02,6.541h-11.343v-6.561L483.348,627.838z
	 M482.027,629.118l-8.683-0.04l0.021,4.041h8.643L482.027,629.118z M480.088,644.842h-1.521V635.9h6.842v8.9h-1.521v-1.38
	l-3.801,0.021V644.842L480.088,644.842z M483.908,637.32h-3.82v4.699l3.82-0.021V637.32z"/>
<path fill="#FFFFFF" d="M490.426,639.58v-8.861h6.541l-0.02-3.661h1.6l-0.04,3.642l6.521,0.021v8.781h-1.58v-1.359h-4.941l0.04,6.74
	h-1.58l-0.02-6.74h-4.902l-0.039,1.439L490.426,639.58L490.426,639.58z M496.947,632.179h-4.941v4.521h4.961L496.947,632.179z
	 M503.408,632.179h-4.861v4.501h4.881L503.408,632.179z"/>
<path fill="#FFFFFF" d="M509.805,644.781v-14.322h1.521v14.322H509.805z M514.326,631.059c-0.961-1.301-1.961-2.341-3.102-3.061
	l1.221-0.82c0.881,0.54,2.221,1.74,3.061,2.92L514.326,631.059z M519.747,642.08v-1.039h-4.521v1.039h-1.521v-9.961h7.562v9.961
	H519.747z M519.747,633.579h-4.521v2.001h4.521V633.579z M519.747,637.039h-4.521v2.541h4.521V637.039z M523.729,644.521
	c-0.641,0.06-0.979,0.038-1.841,0l-0.439-1.4c0.801,0.12,1.201,0.141,1.681,0.12c0.341-0.061,0.341-0.08,0.341-0.521v-13.063h-6.781
	v-1.461h8.302v14.823C524.988,643.781,524.508,644.441,523.729,644.521z"/>
<path fill="#FFFFFF" d="M529.145,643.821v-1.46h5.843v-14.765h1.561v14.765h2.32v-14.765h1.5v14.765h5.801v1.46H529.145z
	 M532.285,640.32c-0.101-2.722-1.021-5.501-2.021-7.763l1.3-0.62c1.021,2.241,1.961,5.041,2.241,7.723L532.285,640.32z
	 M542.428,640.561l-1.279-0.779c1.38-1.82,2.341-5.401,2.479-7.803l1.38,0.5C544.608,635.619,543.748,638.52,542.428,640.561z"/>
<path fill="#FFFFFF" d="M565.988,637.06c-2.881-0.619-5.603-1.399-7.961-2.8c-2.281,1.521-5.822,2.54-8.902,3.021l-0.62-1.439
	c2.4-0.399,4.501-0.939,6.563-1.701c0.54-0.26,1.18-0.58,1.58-0.8c-0.859-0.66-2-1.341-2.701-2.3c-0.879,1.039-2.16,2.119-3.66,2.72
	l-1.141-1.38c3.081-1.141,4.562-2.921,5.502-5.381l1.319,0.74c-0.221,0.5-0.42,0.858-0.479,0.979h7.502v1.341
	c-1.181,1.461-2.381,2.4-3.621,3.302c0.26,0.198,0.881,0.398,1.44,0.68c1.88,0.7,3.859,1.24,6.16,1.68L565.988,637.06z
	 M562.848,643.501c-0.198,0.62-0.72,1.16-1.3,1.32c-0.88,0.261-1.78-0.021-2.7-0.16l-0.381-1.74c1.062,0.3,1.82,0.602,2.642,0.479
	c0.461-0.3,0.5-0.859,0.6-1.439c0.181-1.08,0.4-2.461,0.441-3.102h-4.322c-0.319,1.721-1.66,3.36-3.28,4.422
	c-1.2,0.8-3.36,1.438-4.661,1.68c-0.278-0.5-0.539-0.9-0.8-1.5c2.54-0.4,4.901-1,6.421-3c0.42-0.541,0.642-1.141,0.761-1.602h-5.722
	V637.4h5.961c0.062-0.48,0-0.842,0.062-1.741l1.479,0.2c-0.02,0.76,0.04,1.1-0.02,1.541h5.681
	C563.668,639.62,563.428,641.66,562.848,643.501z M554.986,630.178c0.801,0.961,1.881,1.602,3,2.32
	c1.08-0.699,2.161-1.521,2.922-2.32H554.986z"/>
<path fill="#FFFFFF" d="M415.887,667.762c1.9-0.979,3.66-2.221,4.801-3.701c-1.061-1.579-1.601-3.541-1.979-5.102
	c-0.28,0.76-0.98,1.9-1.44,2.48l-1.3-0.961c1.92-2.521,2.76-6,2.86-9.502l1.5,0.479c0,1.16-0.141,2.321-0.28,3.121h5.922v1.439
	h-1.221c-0.1,2.802-0.82,5.643-2.26,7.981c0.938,1.4,2.479,2.881,4.34,3.621l-1.119,1.18c-1.781-0.8-3.161-2.16-4.182-3.461
	c-1.16,1.421-2.761,2.621-4.541,3.643l-1.101-1.04v1h-1.521v-5.462l-3.741,1.261l-1.12-1.181c0.72-0.479,0.681-0.659,0.681-1.399
	v-9.082h1.521v9.662l2.661-0.9v-10.662h1.521L415.887,667.762L415.887,667.762z M419.567,656.639c0.38,2.182,0.859,4.041,2.04,5.981
	c1.141-2.261,1.5-4.44,1.659-6.603h-3.541L419.567,656.639z"/>
<path fill="#FFFFFF" d="M429.505,667.021c4.281-2.263,6.821-5.223,8.302-9.742c-0.18-1.24-0.319-2.421-0.319-3.603h-3.461v-1.5
	l5.062-0.02c-0.079,1.778,0.021,3.381,0.28,4.899c0.82,4.683,3.66,7.644,7.102,9.942l-0.961,1.32
	c-2.641-1.642-5.819-4.581-7.061-8.481c-1.32,3.12-3.541,6.141-8.002,8.502L429.505,667.021z"/>
<path fill="#FFFFFF" d="M460.848,666.941c0.96,0,2.36-0.062,2.66-0.16c0.2-0.102,0.34-0.521,0.34-0.9l0.021-12.563l-12.122-0.021
	v15.784h-1.581v-17.264h15.283l0.021,14.383c0,0.92-0.359,1.858-0.899,2.141c-0.54,0.199-2.521,0.279-3.182,0.239L460.848,666.941z
	 M463.229,655.479l0.021,1.48h-10.563l0.021-1.48H463.229z M461.607,659.119v6.041h-7.603v-6.021L461.607,659.119z M455.526,663.68
	h4.581v-3.061l-4.581,0.021V663.68z"/>
<path fill="#FFFFFF" d="M469.766,666.921c0.479-0.24,0.92-0.58,0.92-1v-14.363l1.62,0.021l0.021,5.221l5.16-0.02v1.52l-5.182-0.02
	v7.582c1.602-0.521,3.36-1.103,5.342-1.763v1.603c-2.82,1.02-4.062,1.399-6.843,2.479L469.766,666.921z M483.107,666.441
	c0.439,0,0.801-0.24,0.961-0.541c0.239-0.48,0.399-1.859,0.52-2.74l1.541,0.561c-0.16,1.039-0.34,2.04-0.74,2.92
	c-0.301,0.7-0.979,1.32-1.819,1.32l-3.222-0.02c-1.239,0-2.101-0.802-2.101-1.82v-14.623l1.62-0.021v7.021
	c1.561-0.62,3.16-1.682,4.721-3.102l1.381,0.9c-1.939,1.76-3.979,3.16-6.102,3.82v5.602c0.04,0.32,0.221,0.721,0.7,0.721h2.54
	V666.441z"/>
<path fill="#FFFFFF" d="M493.285,662.779c0.361-0.14,1.041-0.34,1.801-0.619l0.041,1.52c-1.781,0.642-3.441,1.222-5.222,1.881
	l-1.062-1.359c1.182-0.28,2.102-0.561,2.901-0.84v-5.481l-2.262-0.02l0.021-1.422h2.241v-4.921h1.52v4.921h1.521v1.44h-1.501
	V662.779L493.285,662.779z M494.967,659.899v-6.501h2.96c-0.3-0.48-1.08-1.142-1.921-1.861l1.541-0.6
	c0.9,0.76,1.58,1.641,2.08,2.439l1.801,0.021c0.76-0.74,1.301-1.66,1.74-2.802c0.561,0.221,0.94,0.5,1.42,0.779
	c-0.459,0.861-0.92,1.602-1.3,1.979h2.82v6.543L494.967,659.899L494.967,659.899z M497.646,668.941h-1.54v-8.002l8.882-0.021v8.002
	l-1.5-0.021l0.02-1.141l-5.881,0.021L497.646,668.941z M499.787,658.479v-3.659l-3.301-0.021v3.68H499.787z M497.707,655.039
	c0.84,0.799,1.28,1.72,1.78,2.72c-0.479,0.22-0.841,0.421-1.38,0.62c-0.281-1.08-0.882-1.84-1.581-2.74L497.707,655.039z
	 M497.607,662.34v1.221h5.881l0.02-1.221H497.607z M497.627,664.98v1.359h5.881l-0.02-1.359H497.627z M504.588,658.439v-3.642h-3.34
	v3.642H504.588z M504.328,655.398c-0.439,1.1-0.9,2.061-1.68,3.021l-1.281-0.681c0.721-0.859,1.381-2.101,1.721-2.92
	L504.328,655.398z"/>
<path fill="#FFFFFF" d="M525.849,667.842c-5.521-2.061-7.762-4.662-8.802-7.922h-2.461v6.541l3.9-1.641v1.5l-4.761,2.221
	l-0.899-1.34c0.199-0.18,0.24-0.58,0.24-0.86v-6.421h-4.143v-1.461h4.341v-7.461h1.521v5.681c2.38-1.06,5.021-2.46,7.282-4.32
	l1.039,1.141c-2.5,1.979-5.32,3.521-8.321,4.641v0.32h11.143v1.461h-7.4c1.08,3.461,4.921,5.602,8.342,6.581L525.849,667.842z"/>
</svg>
