<?xml version="1.0" encoding="utf-8"?>
<!-- Generator: Adobe Illustrator 16.0.0, SVG Export Plug-In . SVG Version: 6.00 Build 0)  -->
<!DOCTYPE svg PUBLIC "-//W3C//DTD SVG 1.1//EN" "http://www.w3.org/Graphics/SVG/1.1/DTD/svg11.dtd">
<svg version="1.1" id="Layer_1" xmlns="http://www.w3.org/2000/svg" xmlns:xlink="http://www.w3.org/1999/xlink" x="0px" y="0px"
	 width="768px" height="1024px" viewBox="0 0 768 1024" enable-background="new 0 0 768 1024" xml:space="preserve">
<g>
	<g>
		<g>
			<path fill="#FFFFFF" d="M222.011,908.691h-6.827c0.015-1.644,0.857-2.886,2.2-3.785c1.299-0.943,2.984-1.729,3.014-3.285
				c0.014-0.714-0.286-1.771-1.686-1.771c-1.285,0-1.671,1.101-1.714,2.5h-1.628c0-2.214,1.214-3.854,3.441-3.854
				c2.442,0,3.214,1.785,3.214,3.07c0,1.585-1.086,2.569-2.229,3.37c-1.156,0.8-2.37,1.413-2.656,2.3h4.87L222.011,908.691
				L222.011,908.691z"/>
			<path fill="#FFFFFF" d="M230.021,903.691c0,2.271-0.586,5.198-3.456,5.198c-2.871,0-3.456-2.928-3.456-5.198
				s0.585-5.197,3.456-5.197C229.435,898.494,230.021,901.422,230.021,903.691z M228.393,903.691c0-2.084-0.4-3.843-1.828-3.843
				c-1.429,0-1.828,1.759-1.828,3.843c0,2.086,0.399,3.843,1.828,3.843C227.992,907.534,228.393,905.777,228.393,903.691z"/>
			<path fill="#FFFFFF" d="M231.16,900.35c1.371,0.016,2.671-0.457,2.914-1.655h1.328v9.998h-1.785v-7.058h-2.457V900.35z"/>
			<path fill="#FFFFFF" d="M240.126,898.693h5.17v1.457h-3.956l-0.515,2.542l0.029,0.027c0.442-0.484,1.171-0.757,1.842-0.757
				c1.985,0,3.128,1.429,3.128,3.343c0,1.601-0.999,3.584-3.456,3.584c-1.928,0-3.428-1.043-3.499-3.042h1.628
				c0.1,1.071,0.785,1.687,1.843,1.687c1.385,0,1.856-0.985,1.856-2.2c0-1.1-0.586-2.084-1.899-2.084
				c-0.686,0-1.356,0.213-1.614,0.914h-1.628L240.126,898.693z"/>
		</g>
	</g>
	<g>
		<g>
			<path fill="#FFFFFF" d="M282.545,908.691h-6.827c0.015-1.644,0.857-2.886,2.2-3.785c1.3-0.943,2.984-1.729,3.013-3.285
				c0.015-0.714-0.285-1.771-1.685-1.771c-1.286,0-1.671,1.101-1.714,2.5h-1.629c0-2.214,1.215-3.854,3.442-3.854
				c2.442,0,3.214,1.785,3.214,3.07c0,1.585-1.086,2.569-2.229,3.37c-1.156,0.8-2.371,1.413-2.656,2.3h4.87L282.545,908.691
				L282.545,908.691z"/>
			<path fill="#FFFFFF" d="M290.555,903.691c0,2.271-0.586,5.198-3.456,5.198c-2.871,0-3.457-2.928-3.457-5.198
				s0.586-5.197,3.457-5.197C289.969,898.494,290.555,901.422,290.555,903.691z M288.927,903.691c0-2.084-0.4-3.843-1.828-3.843
				c-1.429,0-1.828,1.759-1.828,3.843c0,2.086,0.399,3.843,1.828,3.843C288.526,907.534,288.927,905.777,288.927,903.691z"/>
			<path fill="#FFFFFF" d="M291.694,900.35c1.371,0.016,2.671-0.457,2.914-1.655h1.328v9.998h-1.785v-7.058h-2.457V900.35z"/>
			<path fill="#FFFFFF" d="M304.545,901.221c-0.071-0.813-0.614-1.371-1.457-1.371c-1.771,0-1.971,2.114-2.071,3.429l0.029,0.028
				c0.442-0.784,1.271-1.186,2.156-1.186c1.984,0,3.156,1.442,3.156,3.355c0,1.942-1.328,3.413-3.327,3.413
				c-2.942,0-3.644-2.313-3.644-5.227c0-2.386,0.942-5.17,3.771-5.17c1.586,0,2.928,1.1,3.014,2.727L304.545,901.221
				L304.545,901.221z M304.73,905.449c0-1.072-0.587-2.043-1.758-2.043c-1.186,0-1.8,0.942-1.8,2.043c0,1.085,0.614,2.085,1.8,2.085
				C304.145,907.534,304.73,906.52,304.73,905.449z"/>
		</g>
	</g>
	<g>
		<g>
			<path fill="#FFFFFF" d="M221.395,768.282h-1.422v2.622h-1.705v-2.622h-4.738v-1.784l4.738-6.649h1.705v7.014h1.422V768.282z
				 M214.919,766.861h3.349v-4.865h-0.032L214.919,766.861z"/>
			<path fill="#FFFFFF" d="M222.756,761.681c1.517,0.018,2.953-0.505,3.222-1.832h1.469v11.057h-1.974v-7.804h-2.717V761.681z"/>
			<path fill="#FFFFFF" d="M238.933,768.282h-1.422v2.622h-1.705v-2.622h-4.738v-1.784l4.738-6.649h1.705v7.014h1.422V768.282z
				 M232.457,766.861h3.349v-4.865h-0.032L232.457,766.861z"/>
			<path fill="#FFFFFF" d="M247.669,765.377c0,2.51-0.647,5.748-3.821,5.748c-3.175,0-3.822-3.238-3.822-5.748
				c0-2.512,0.647-5.749,3.822-5.749C247.021,759.628,247.669,762.865,247.669,765.377z M245.869,765.377
				c0-2.307-0.442-4.249-2.021-4.249c-1.579,0-2.021,1.942-2.021,4.249c0,2.305,0.442,4.248,2.021,4.248
				C245.427,769.625,245.869,767.682,245.869,765.377z"/>
		</g>
	</g>
	<rect x="269.437" y="759.445" opacity="0.698" fill="#328EC0" enable-background="new    " width="42.873" height="127.623"/>
	<rect x="209.001" y="779.77" opacity="0.698" fill="#797979" enable-background="new    " width="42.795" height="107.3"/>
	<g>
		<g>
			<path fill="#FFFFFF" d="M161.575,908.691h-6.827c0.015-1.644,0.857-2.886,2.2-3.785c1.299-0.943,2.984-1.729,3.014-3.285
				c0.014-0.714-0.286-1.771-1.686-1.771c-1.285,0-1.671,1.101-1.714,2.5h-1.628c0-2.214,1.214-3.854,3.441-3.854
				c2.442,0,3.214,1.785,3.214,3.07c0,1.585-1.086,2.569-2.229,3.37c-1.156,0.8-2.37,1.413-2.656,2.3h4.87L161.575,908.691
				L161.575,908.691z"/>
			<path fill="#FFFFFF" d="M169.585,903.691c0,2.271-0.586,5.198-3.456,5.198c-2.871,0-3.456-2.928-3.456-5.198
				s0.585-5.197,3.456-5.197C168.999,898.494,169.585,901.422,169.585,903.691z M167.957,903.691c0-2.084-0.4-3.843-1.828-3.843
				c-1.429,0-1.828,1.759-1.828,3.843c0,2.086,0.399,3.843,1.828,3.843C167.557,907.534,167.957,905.777,167.957,903.691z"/>
			<path fill="#FFFFFF" d="M170.725,900.35c1.371,0.016,2.671-0.457,2.914-1.655h1.328v9.998h-1.785v-7.058h-2.457V900.35z"/>
			<path fill="#FFFFFF" d="M185.389,906.32h-1.285v2.371h-1.542v-2.371h-4.285v-1.614l4.285-6.013h1.542v6.342h1.285V906.32z
				 M179.533,905.035h3.028v-4.399h-0.029L179.533,905.035z"/>
		</g>
	</g>
	<g>
		<g>
			<path fill="#FFFFFF" d="M156.315,781.364c1.2,0.048,2.448-0.379,2.448-1.737c0-0.932-0.727-1.563-1.722-1.563
				c-1.247,0-1.863,1.121-1.832,2.259h-1.8c0.095-2.148,1.437-3.759,3.663-3.759c1.722,0,3.49,0.994,3.49,2.952
				c0,1.105-0.505,1.989-1.563,2.368v0.032c1.248,0.253,2.006,1.343,2.006,2.764c0,2.085-1.8,3.38-3.916,3.38
				c-2.559,0-3.838-1.548-3.886-3.854h1.801c-0.048,1.342,0.679,2.354,2.085,2.354c1.2,0,2.116-0.711,2.116-1.975
				c0-1.721-1.469-1.942-2.891-1.879L156.315,781.364L156.315,781.364z"/>
			<path fill="#FFFFFF" d="M169.728,785.218h-1.422v2.622h-1.705v-2.622h-4.738v-1.784l4.738-6.648h1.705v7.013h1.422V785.218z
				 M163.252,783.797h3.349v-4.865h-0.032L163.252,783.797z"/>
			<path fill="#FFFFFF" d="M172.195,776.784h5.717v1.609h-4.374l-0.568,2.813l0.031,0.031c0.489-0.537,1.295-0.838,2.037-0.838
				c2.195,0,3.459,1.58,3.459,3.695c0,1.77-1.105,3.964-3.822,3.964c-2.132,0-3.79-1.151-3.869-3.362h1.801
				c0.11,1.184,0.868,1.862,2.037,1.862c1.531,0,2.053-1.09,2.053-2.433c0-1.216-0.647-2.306-2.101-2.306
				c-0.758,0-1.5,0.235-1.784,1.011h-1.801L172.195,776.784z"/>
			<path fill="#FFFFFF" d="M187.233,782.313c0,2.511-0.647,5.748-3.821,5.748c-3.175,0-3.822-3.237-3.822-5.748
				c0-2.512,0.647-5.748,3.822-5.748C186.586,776.563,187.233,779.801,187.233,782.313z M185.434,782.313
				c0-2.307-0.442-4.248-2.021-4.248s-2.021,1.941-2.021,4.248c0,2.306,0.442,4.248,2.021,4.248S185.434,784.617,185.434,782.313z"
				/>
		</g>
	</g>
	<rect x="148.565" y="796.705" opacity="0.698" fill="#797979" enable-background="new    " width="42.795" height="90.363"/>
	<g>
		<g>
			<path fill="#FFFFFF" d="M280.888,747.036h-1.422v2.622h-1.705v-2.622h-4.738v-1.784l4.738-6.648h1.705v7.013h1.422V747.036z
				 M274.412,745.615h3.349v-4.864h-0.032L274.412,745.615z"/>
			<path fill="#FFFFFF" d="M281.901,746.405c0-1.392,0.79-2.386,2.021-2.701v-0.031c-0.994-0.379-1.563-1.2-1.563-2.273
				c0-1.88,1.248-3.018,3.443-3.018c2.195,0,3.442,1.138,3.442,3.018c0,1.073-0.568,1.896-1.563,2.273v0.031
				c1.232,0.315,2.021,1.311,2.021,2.701c0,2.163-1.658,3.474-3.9,3.474C283.56,749.879,281.901,748.568,281.901,746.405z
				 M287.903,746.405c0-1.217-0.9-1.943-2.101-1.943c-1.201,0-2.101,0.728-2.101,1.943c0,1.295,0.9,2.053,2.101,2.053
				C287.003,748.458,287.903,747.7,287.903,746.405z M284.065,741.493c0,1.042,0.742,1.627,1.737,1.627
				c0.995,0,1.737-0.585,1.737-1.627c0-1.09-0.774-1.689-1.737-1.689C284.839,739.804,284.065,740.403,284.065,741.493z"/>
			<path fill="#FFFFFF" d="M293.782,743.184c1.2,0.048,2.448-0.38,2.448-1.736c0-0.934-0.727-1.563-1.722-1.563
				c-1.247,0-1.863,1.121-1.832,2.258h-1.8c0.095-2.146,1.437-3.759,3.663-3.759c1.722,0,3.49,0.995,3.49,2.953
				c0,1.105-0.505,1.99-1.563,2.369v0.032c1.248,0.252,2.006,1.342,2.006,2.764c0,2.084-1.8,3.379-3.916,3.379
				c-2.559,0-3.838-1.547-3.886-3.854h1.801c-0.048,1.343,0.679,2.354,2.085,2.354c1.2,0,2.116-0.711,2.116-1.974
				c0-1.723-1.469-1.943-2.891-1.88L293.782,743.184L293.782,743.184z"/>
			<path fill="#FFFFFF" d="M299.503,738.604h7.564v1.5c-2.307,2.605-3.837,5.561-4.122,9.556h-1.975
				c0.237-3.49,1.99-6.886,4.265-9.444h-5.732V738.604z"/>
		</g>
	</g>
</g>
</svg>
