<?xml version="1.0" encoding="utf-8"?>
<!-- Generator: Adobe Illustrator 16.0.0, SVG Export Plug-In . SVG Version: 6.00 Build 0)  -->
<!DOCTYPE svg PUBLIC "-//W3C//DTD SVG 1.1//EN" "http://www.w3.org/Graphics/SVG/1.1/DTD/svg11.dtd">
<svg version="1.1" id="Layer_1" xmlns="http://www.w3.org/2000/svg" xmlns:xlink="http://www.w3.org/1999/xlink" x="0px" y="0px"
	 width="768px" height="1024px" viewBox="0 0 768 1024" enable-background="new 0 0 768 1024" xml:space="preserve">
<g>
	<g opacity="0.7">
		<path fill-rule="evenodd" clip-rule="evenodd" fill="none" stroke="#FFFFFF" stroke-width="2" stroke-miterlimit="10" d="
			M560.846,821.9c0,4.018-3.257,7.273-7.273,7.273h-73.313c-4.018,0-7.273-3.256-7.273-7.273v-38.604
			c0-4.018,3.256-7.273,7.273-7.273h73.313c4.017,0,7.273,3.256,7.273,7.273V821.9z"/>
		<rect x="472.985" y="782.449" fill-rule="evenodd" clip-rule="evenodd" fill="#FFFFFF" width="87.86" height="17.438"/>
		
			<line fill-rule="evenodd" clip-rule="evenodd" fill="none" stroke="#FFFFFF" stroke-width="3" stroke-linecap="round" stroke-linejoin="round" stroke-miterlimit="10" x1="492.02" y1="821.131" x2="481.116" y2="821.131"/>
		
			<line fill-rule="evenodd" clip-rule="evenodd" fill="none" stroke="#FFFFFF" stroke-width="3" stroke-linecap="round" stroke-linejoin="round" stroke-miterlimit="10" x1="518.3" y1="821.131" x2="497.955" y2="821.131"/>
	</g>
	<g>
		<g>
			<path fill="#FFFFFF" d="M384.675,866.737c2.1-2.22,3.721-5.882,4.581-8.642l1.461,0.52c-0.44,1.381-0.92,2.762-1.5,3.961v13.383
				h-1.501v-10.682c-0.22,0.4-0.88,1.4-1.7,2.36L384.675,866.737z M394.877,857.775c0.961,0.561,1.961,1.58,2.621,2.58l-0.44,0.5
				h5.741v1.441l-12.742-0.021v-1.4l6.021-0.021c-0.361-0.6-1.281-1.439-2.301-2.1L394.877,857.775z M391.156,865.297v-1.439h10.103
				v1.439H391.156z M391.156,868.197v-1.439l10.123-0.021l-0.021,1.46H391.156z M392.837,875.92h-1.421l-0.02-6.143h9.582v6.102
				l-1.42,0.021l0.02-1.16h-6.721L392.837,875.92z M392.857,873.479l6.721-0.039v-2.361h-6.762L392.857,873.479z"/>
			<path fill="#FFFFFF" d="M421.299,858.796v14.983c0,0.58-0.461,1.5-1.24,1.62l-2.281,0.04l-0.479-1.561
				c0.82,0.04,1.521,0.1,2.12,0.02c0.221-0.02,0.32-0.18,0.32-0.42v-4.281h-4.361v4.762h-1.561v-4.762h-4.381
				c-0.279,2.581-0.699,4.222-2.92,6.822l-1.28-0.961c0.82-1,1.421-1.82,1.86-2.8c0.6-1.36,0.86-3.021,0.86-4.562v-8.901H421.299z
				 M409.516,860.275v2.901h4.301v-2.901H409.516z M409.516,867.718h4.301v-3.081h-4.301V867.718z M415.397,863.177l4.301-0.021
				v-2.881h-4.321L415.397,863.177z M415.397,864.637l-0.021,3.081h4.301l0.021-3.081H415.397z"/>
			<path fill="#FFFFFF" d="M442.379,866.897l-8.682,0.021v9.002h-1.541v-9.002l-6.781-0.021v-1.44h6.781v-7.461l1.541,0.02
				l0.02,2.98h7.222v1.461h-7.222l-0.02,2.98l8.682,0.02V866.897z M439.479,871.998c-1.36-1.199-3.181-2.5-5.161-2.86l0.979-1.28
				c1.941,0.641,3.621,1.601,5.222,3.041L439.479,871.998z"/>
			<path fill="#FFFFFF" d="M452.396,872.418c-1.9,1.32-3.92,2.021-6.161,2.321c-0.34-0.421-0.601-0.78-1.101-1.341
				c2.421-0.26,4.441-0.76,6.242-2L452.396,872.418z M453.377,871.198c-1.961,0.08-4.361,0.36-6.521,0.62l-1.16-1.54
				c2.801-0.56,5.281-1.32,6.722-1.841c-0.98,0.021-2.981,0.16-5.021,0.42c-0.239-0.459-0.54-0.84-0.88-1.4
				c2.44-0.5,4.48-1.5,5.941-2.439l-5.321-0.041l-0.021-6.581h13.604v6.542h-6.481l0.34,0.32c-1.28,1-2.561,1.6-3.04,1.76
				c1.039,0,2.939-0.16,4.84-0.24c0.861-0.46,1.741-0.96,2.682-1.66l1.18,0.96c-2.961,2.141-5.221,2.86-8.322,3.761
				c2.102-0.1,4.021-0.22,6.262-0.3c-0.08-0.08-0.561-0.28-1.221-0.58c0.421-0.46,0.82-0.72,1.201-1.04
				c1.66,0.84,2.98,1.62,4.421,3.4l-1.261,0.94c-0.56-0.601-0.96-1.12-1.4-1.46l-4.98,0.299v3.121
				c-0.061,0.601-0.48,1.08-1.061,1.281c-0.74,0.239-1.641,0.059-2.5,0.139l-0.521-1.52l2.141,0.061
				c0.159-0.021,0.36-0.101,0.36-0.381L453.377,871.198z M448.695,860.956l4.481-0.021l0.021-1.1l-4.502,0.02V860.956z
				 M448.695,862.336v1.16h4.481v-1.16H448.695z M454.717,859.855l0.021,1.08h4.44l-0.02-1.1L454.717,859.855z M454.717,862.336
				v1.181h4.461v-1.181H454.717z M461.738,874.898c-1.84-1.26-3.74-1.959-6.061-2.199c0.279-0.58,0.561-0.9,0.82-1.341
				c2.24,0.32,4.221,1.04,6.121,2.32L461.738,874.898z"/>
			<path fill="#FFFFFF" d="M468.616,875.619l-0.9-1.28c0.38-0.319,0.521-0.5,0.521-0.94v-8.602h-2.921v-1.42h4.44v9.962l3.001-1.641
				v1.661L468.616,875.619z M469.057,861.696c-0.58-1.2-1.441-2.12-2.541-3.021l1.08-0.92c1.12,0.76,2.08,1.84,2.721,2.98
				L469.057,861.696z M476.397,863.857v-5.941h1.501v5.941h4.681v1.459h-4.681v10.563h-1.501v-10.563h-4.661v-1.459H476.397z"/>
			<path fill="#FFFFFF" d="M501.599,875.76c-3.061-0.721-4.2-1.701-6.121-3.102c-1.7,1.66-3.961,2.621-6.321,3.061l-0.881-1.26
				c2.661-0.58,4.602-1.36,6.142-2.78c-0.7-0.681-2.181-2.821-2.7-3.94c-1.08,3.16-3.381,5.601-6.021,7.521l-1.1-1.281
				c3.42-2.12,5.841-5.66,6.74-9.662h-4.58v-1.34l1.84-4.581l1.34,0.7l-1.5,3.761h3.281c0.38-1.44,0.58-3.001,0.779-4.86
				l1.461,0.379c-0.24,1.721-0.439,3.182-0.721,4.481h8.623v1.46h-8.963c-0.18,0.5-0.359,1.121-0.52,1.561h6.842v1.24
				c-0.681,1.601-1.66,3.262-2.801,4.521c1.68,1.38,3.721,2.28,6.221,2.9L501.599,875.76z M493.137,867.338
				c0.44,0.859,1.461,2.54,2.261,3.26c0.9-1,1.64-2.14,2.12-3.26H493.137z M498.059,862.477c-0.761-1.26-1.9-2.141-3.182-2.881
				l1.041-0.98c1.32,0.701,2.46,1.66,3.36,2.9L498.059,862.477z"/>
			<path fill="#FFFFFF" d="M522.379,866.897l-8.682,0.021v9.002h-1.541v-9.002l-6.781-0.021v-1.44h6.781v-7.461l1.541,0.02
				l0.02,2.98h7.222v1.461h-7.222l-0.02,2.98l8.682,0.02V866.897z M519.479,871.998c-1.36-1.199-3.181-2.5-5.161-2.86l0.979-1.28
				c1.941,0.641,3.621,1.601,5.222,3.041L519.479,871.998z"/>
			<path fill="#FFFFFF" d="M541.119,866.018v6.821h-1.521v-0.88h-3.78v0.92l-1.521,0.02v-6.321l-0.48,0.32l-1.399-1.021l0.319-0.16
				l-1.8-0.039v2.279h2.641v1.461l-2.641,0.02v3.581c0.82,0.38,1.86,0.561,2.921,0.561l5.841-0.021c1.04,0,2.04-0.08,3.321-0.18
				l-0.721,1.6h-8.701c-2.842,0-5.041-1.56-6.042-2.5c-0.34,1.301-0.78,2.301-1.72,3.441l-1.341-0.841
				c1.98-2.181,2.101-5.062,2.061-8.081l1.46,0.16c0.1,1.399-0.02,2.54-0.16,3.7c0.5,0.521,1.141,1.08,1.58,1.341v-6.502h-4.28
				v-1.44l3.54-0.021v-2.6h-2.74v-1.461l2.74,0.02v-2.3h1.541v2.3h2.94v1.441h-2.96v2.62l3.66-0.021v0.781
				c1.121-0.66,2.341-2.4,2.16-4.762h-2.279v-1.46l7.941-0.021c-0.061,2.001-0.26,3.801-0.781,5.481c-0.1,0.479-0.5,0.841-1,0.9
				c-0.74,0.08-1.439,0.021-2.2-0.06l-0.62-1.602c0.961,0.16,1.721,0.361,2.121,0.281c0.22,0.02,0.359-0.141,0.42-0.421
				c0.26-1.06,0.46-2.14,0.5-3.101h-2.541c-0.119,2.16-0.54,4.262-2.6,5.721L541.119,866.018z M535.817,870.498h3.78l-0.02-3.021
				h-3.761V870.498z"/>
			<path fill="#58B5E1" d="M551.633,870.51h-7.398v-3.249l7.599-10.197h3.175v10.522h2.324v2.924h-2.324v4.049h-3.375V870.51z
				 M551.633,861.512h-0.074l-4.524,6.074h4.599V861.512z"/>
			<path fill="#58B5E1" d="M564.708,856.713c4.349,0,5.849,3,5.849,4.699c0,1.725-0.9,3.125-2.549,3.674v0.051
				c2.074,0.475,3.273,2.074,3.273,4.273c0,3.674-3.299,5.499-6.549,5.499c-3.373,0-6.647-1.7-6.647-5.474
				c0-2.225,1.249-3.799,3.299-4.299v-0.051c-1.699-0.475-2.574-1.874-2.574-3.599C558.81,858.338,561.859,856.713,564.708,856.713z
				 M564.732,872.234c1.7,0,3-1.199,3-2.949c0-1.674-1.35-2.799-3-2.799c-1.724,0-3.099,0.975-3.099,2.773
				C561.634,871.061,563.033,872.234,564.732,872.234z M564.708,864.111c1.45,0,2.624-0.799,2.624-2.299
				c0-0.9-0.424-2.425-2.624-2.425c-1.425,0-2.675,0.875-2.675,2.425C562.033,863.337,563.283,864.111,564.708,864.111z"/>
			<path fill="#58B5E1" d="M578.559,856.713c3.498,0,6.447,2.2,6.447,9.023c0,6.973-2.949,9.173-6.447,9.173
				c-3.449,0-6.398-2.2-6.398-9.173C572.16,858.913,575.109,856.713,578.559,856.713z M578.559,871.984
				c2.898,0,2.898-4.273,2.898-6.248c0-1.824,0-6.099-2.898-6.099c-2.85,0-2.85,4.274-2.85,6.099
				C575.709,867.711,575.709,871.984,578.559,871.984z"/>
			<path fill="#58B5E1" d="M592.459,856.713c3.498,0,6.447,2.2,6.447,9.023c0,6.973-2.949,9.173-6.447,9.173
				c-3.449,0-6.398-2.2-6.398-9.173C586.061,858.913,589.01,856.713,592.459,856.713z M592.459,871.984
				c2.898,0,2.898-4.273,2.898-6.248c0-1.824,0-6.099-2.898-6.099c-2.85,0-2.85,4.274-2.85,6.099
				C589.609,867.711,589.609,871.984,592.459,871.984z"/>
			<path fill="#58B5E1" d="M601.56,857.988v-1.875h21.845v1.9h-12.973c0,1.424-0.024,2.624-0.1,3.648h9.248
				c-0.324,5.023-0.975,9.423-2.149,12.822c-0.274,0.774-1.075,1.475-1.925,1.6c-1.149,0.199-2.049-0.375-3.049-0.725l-0.4-2.324
				c0.7,0.199,1.051,0.549,1.375,0.699c0.65,0.199,1.574,0.9,1.899,0.1c1.425-3.499,1.8-6.473,2.124-10.272h-7.223
				c-0.075,0.726-0.175,1.399-0.324,2.175c-0.851,4.124-3.225,8.348-7.249,10.747l-1.649-1.624c3.049-1.65,5.174-4.499,6.323-7.299
				c1.024-2.549,1-6.248,1.075-9.572H601.56z"/>
			<path fill="#FFFFFF" d="M627.156,873.919c0.939,0.181,1.6,0.479,2.34,0.5c0.34-0.08,0.36-0.5,0.52-0.86
				c0.521-1.561,0.82-3.021,0.841-4.66l-4.761-0.021c0.279-2.081,0.5-4.142,0.64-5.821h4.142v-2.32h-5.201v-1.44h6.661v5.201
				l-4.241,0.021c-0.1,0.72-0.18,2.119-0.34,2.9h4.602c-0.041,2.54-0.301,4.781-1.001,6.961c-0.2,0.6-0.8,1.24-1.44,1.381
				c-0.779,0.16-1.641,0-2.461-0.181L627.156,873.919z M638.538,872.398v1.58l-4.36,1.9l-0.9-1.14c0.4-0.16,0.699-0.44,0.699-0.8
				v-6.781h-1.619v-1.461h1.619v-7.201h1.521v4.98c1.72-0.74,3.62-1.961,5.561-4.181l1.08,1.06
				c-1.961,2.182-4.261,3.842-6.661,4.541v0.781l7.241,0.02v1.461l-4.281-0.021c0.181,2,1.001,3.94,2.621,5.481
				c0.641,0.619,1.34,1.22,2.24,1.8l-1,1.081c-0.721-0.32-1.221-0.82-1.74-1.261c-2.101-1.801-3.361-4.462-3.501-7.081h-1.56v6.58
				L638.538,872.398z"/>
		</g>
	</g>
</g>
</svg>
