<?xml version="1.0" encoding="utf-8"?>
<!-- Generator: Adobe Illustrator 16.0.0, SVG Export Plug-In . SVG Version: 6.00 Build 0)  -->
<!DOCTYPE svg PUBLIC "-//W3C//DTD SVG 1.1//EN" "http://www.w3.org/Graphics/SVG/1.1/DTD/svg11.dtd">
<svg version="1.1" id="Layer_1" xmlns="http://www.w3.org/2000/svg" xmlns:xlink="http://www.w3.org/1999/xlink" x="0px" y="0px"
	 width="768px" height="1024px" viewBox="0 0 768 1024" enable-background="new 0 0 768 1024" xml:space="preserve">
<line fill="none" stroke="#2A79BE" stroke-miterlimit="10" x1="99.974" y1="20.808" x2="59.621" y2="80.682"/>
<g>
	<path fill="#58B5E1" d="M99.732,53.523v1.858h-2.632v16.54c0,1.058-0.541,1.754-1.006,2.064c-0.877,0.594-2.064,0.413-3.277,0.413
		c-0.231-0.671-0.438-1.187-0.773-1.987c1.083,0.129,1.961,0.129,2.761,0.129c0.129-0.052,0.181-0.129,0.258-0.232V55.355h-3.561
		v-1.832H99.732z M97.41,73.056c3.303-0.361,6.503-1.651,7.612-4.773c0.852-2.4,0.542-5.057,0.594-7.973
		c0.722-0.026,1.264,0,1.961,0c0.025,2.4,0.103,4.825-0.259,6.941c-0.954,4.799-3.87,6.812-8.747,7.689L97.41,73.056z
		 M105.177,57.42c0.388-0.723,0.749-1.625,0.878-2.374h-5.832v-1.832h13.495v1.832h-5.702c-0.207,0.852-0.438,1.78-0.774,2.348
		h5.471v12.179h-1.884V59.277h-8.153l0.025,10.734h-1.987V57.42H105.177z M112.789,74.94c-1.497-1.987-3.587-3.664-5.78-4.825
		l0.93-1.394c2.683,1.135,5.031,3.071,6.347,4.825L112.789,74.94z"/>
	<path fill="#58B5E1" d="M119.914,53.059h18.088v5.728h-16.204c0,6.245,0.284,11.302-3.457,16.023
		c-0.594-0.438-1.007-0.826-1.522-1.316c1.677-2.116,3.096-5.135,3.096-10.037V53.059z M121.798,54.917v2.013h14.32v-2.013H121.798z
		 M136.558,75.017c-0.388-0.903-0.98-1.883-1.445-2.503c-4.387,0.516-7.328,1.084-11.121,1.574l-0.955-1.91
		c2.039-1.909,4.129-4.645,5.058-6.58h-5.831v-1.78h17.494v1.832h-10.373l0.852,0.619c-1.419,2.271-2.838,4.025-4.257,5.418
		l7.792-0.877c-0.49-0.568-0.955-1.291-2.064-2.167l1.549-1.135c1.909,1.754,3.818,4.18,5.083,6.321L136.558,75.017z
		 M123.991,61.729v-1.832h12.798v1.832H123.991z"/>
	<path fill="#58B5E1" d="M147.423,73.417l-1.135-1.651c0.49-0.413,0.671-0.697,0.671-1.239v-8.334h-3.664V60.31h5.625v10.167
		l3.638-1.961v2.116L147.423,73.417z M149.049,58.194c-0.748-1.548-1.858-2.761-3.277-3.922l1.368-1.161
		c1.444,0.955,2.684,2.348,3.534,3.819L149.049,58.194z M164.556,74.991c-2.115-0.8-4.593-2.038-6.218-3.38
		c-1.574,1.161-3.948,2.709-6.244,3.483l-1.29-1.625c2.399-0.852,4.438-1.884,6.063-3.174c-1.42-1.497-2.322-3.509-3.122-5.367
		h-1.213V63.07h11.095c-0.516,3.354-1.961,5.393-3.896,7.173c1.806,1.419,3.922,2.348,6.579,3.148L164.556,74.991z M162.208,61.394
		c-1.238,0-1.884-0.903-1.884-1.91l-0.025-4.206h-4.154v2.399c0,1.316-0.542,2.658-1.858,3.896c-0.516,0.49-1.238,0.98-2.063,1.316
		l-1.394-1.626c1.471-0.49,2.245-1.264,2.838-2.142c0.568-0.877,0.568-1.471,0.568-2.399v-3.329h7.973l0.025,5.832
		c0.026,0.207,0.232,0.361,0.439,0.335h2.786v1.832H162.208z M155.86,64.928c0.568,1.29,1.316,2.916,2.451,4.051
		c1.161-1.161,2.116-2.477,2.761-4.051H155.86z"/>
	<path fill="#58B5E1" d="M173.875,74.759l-1.161-1.651c0.49-0.413,0.671-0.645,0.671-1.213V60.8h-3.768v-1.832h5.729v12.85
		l3.87-2.116v2.142L173.875,74.759z M174.442,56.8c-0.748-1.548-1.857-2.735-3.276-3.896l1.393-1.187
		c1.445,0.98,2.684,2.374,3.51,3.845L174.442,56.8z M183.912,59.587v-7.664h1.936v7.664h6.037v1.883h-6.037v13.624h-1.936V61.471
		H177.9v-1.883H183.912z"/>
	<path fill="#58B5E1" d="M225.202,56.671c-0.877,1.445-1.729,2.606-3.147,3.767c-0.104,2.348-0.129,3.845-0.31,6.296
		c1.393,0.955,2.58,2.167,3.612,3.819l-1.678,0.98c-0.773-1.497-1.548-2.451-2.322-2.89c-0.542,2.245-2.063,4.696-3.999,6.734
		l-1.807-1.368c2.658-2.219,3.948-4.98,4.206-8.179c0.181-1.987,0.207-3.974,0.207-5.883v-7.663l2.038-0.026v5.702
		c0.567-0.67,1.084-1.109,1.548-2.245L225.202,56.671z M219.294,57.575c0,2.193-0.774,5.083-1.601,6.115l-1.961-0.62
		c1.084-1.651,1.807-3.818,1.729-6.038L219.294,57.575z M222.57,60.542c2.787-2.322,4.619-5.599,5.573-8.618l1.807,0.748
		c-0.31,0.723-0.49,1.291-0.619,1.548h5.779v1.6c-0.387,0.877-0.877,1.987-1.264,2.452h3.07v7.173h1.78v1.858h-5.729
		c0.594,2.632,2.839,5.083,6.528,5.96l-1.084,1.858c-3.664-0.981-6.554-3.406-7.482-7.818h0.129
		c-0.852,3.948-4.619,7.018-7.741,7.973l-1.342-1.806c2.942-0.594,6.555-3.793,7.07-6.167h-5.935v-1.858h1.832v-4.49l-1.161,1.084
		L222.57,60.542z M229.589,65.444c0.284-1.393,0.361-3.225,0.387-5.29h-3.045v5.29H229.589z M228.582,56.104
		c-0.387,0.722-0.929,1.574-1.315,2.167h4.206c0.567-0.671,1.187-1.626,1.394-2.167H228.582z M234.93,60.155h-2.967
		c-0.026,2.039-0.155,3.742-0.413,5.29h3.38V60.155z"/>
	<path fill="#58B5E1" d="M247.241,67.483c-1.084,2.219-2.297,3.819-4.361,5.005l-1.161-1.522c2.039-1.135,3.277-2.632,4.129-4.542
		L247.241,67.483z M249.744,73.237c0,1.006-0.774,2.116-1.962,2.116h-2.09l-0.671-2.064l2.064,0.155
		c0.258,0.026,0.646-0.284,0.646-0.62v-7.018h-4.154v-1.884h4.154V62.09h-5.058v-1.909h3.716c-0.181-0.748-0.8-1.703-1.987-2.606
		l1.703-0.697c1.084,0.852,1.857,2.013,2.219,3.303h1.084c0.852-0.852,1.497-2.142,1.807-3.251l1.729,0.696
		c-0.284,0.903-0.877,1.961-1.445,2.555h3.07v1.909h-4.824v1.832h4.103v1.884h-4.103v1.832l0.748-0.955
		c1.213,0.748,2.374,1.961,3.226,3.406l-1.316,1.497c-0.646-1.548-1.807-2.658-2.657-3.303V73.237z M247.551,54.582
		c-0.232-0.413-0.774-1.135-1.626-1.987l1.884-0.877c0.825,0.98,1.522,1.961,1.832,2.864h4.36v1.883h-10.682v-1.883H247.551z
		 M264.322,53.627c-2.322,1.342-4.696,1.987-6.992,2.399v3.69h7.405V61.6h-2.891v13.443h-1.986V61.6h-2.528v3.329
		c0,3.432-1.136,6.967-3.122,10.037l-1.755-1.238c2.374-3.251,2.89-6.76,2.89-10.76l-0.025-8.515
		c2.863-0.335,5.341-1.11,7.767-2.426L264.322,53.627z"/>
	<path fill="#58B5E1" d="M281.098,54.813h7.457l-0.025,7.225h-15.146c0,3.277-0.129,6.837-1.29,9.108
		c-0.594,1.161-1.651,2.787-2.735,3.741l-1.496-1.445c2.993-2.761,3.509-5.935,3.509-7.844V54.813h8.722
		c-0.646-0.877-2.064-1.754-3.2-2.245l1.42-1.29c1.367,0.619,2.761,1.393,3.741,2.684L281.098,54.813z M286.542,56.723h-13.159v3.38
		h13.159V56.723z M288.091,64.619v10.192h-2.013v-1.754h-9.754v1.754h-1.986V64.619H288.091z M286.078,66.554h-9.754v4.593h9.754
		V66.554z"/>
	<path fill="#58B5E1" d="M297.692,58.607l0.025-2.942c-0.825,0.207-1.986,0.568-3.199,0.697l-0.903-1.832
		c2.684-0.335,6.167-1.083,8.463-2.193l1.239,1.393c-1.29,0.697-2.632,1.161-3.716,1.497v3.38h3.174v1.832h-3.174v2.116l0.696-0.568
		c1.342,1.316,2.064,2.245,3.174,3.948l-1.677,1.239c-0.619-1.394-1.6-2.709-2.193-3.251v11.276h-1.909V65.187
		c-0.568,1.883-1.678,3.689-3.122,5.599l-1.445-1.394c1.857-2.245,3.638-5.444,4.489-8.954h-3.638v-1.832H297.692z M302.543,64
		v-1.806h12.927V64h-5.496v2.967h5.522v1.832h-5.522v3.225h6.555v1.806h-14.914v-1.806h6.373v-3.225h-5.315v-1.832h5.315V64H302.543
		z M303.652,53.137h10.837v7.87h-10.837V53.137z M312.555,59.174v-4.231h-6.967v4.231H312.555z"/>
</g>
<g>
	<path fill="#58B5E1" d="M67.345,52.355H55.011c0.026-2.967,1.549-5.212,3.974-6.838c2.349-1.703,5.394-3.122,5.444-5.935
		c0.026-1.29-0.516-3.199-3.044-3.199c-2.322,0-3.02,1.987-3.097,4.515h-2.941c0-3.999,2.193-6.966,6.219-6.966
		c4.412,0,5.806,3.225,5.806,5.547c0,2.864-1.962,4.645-4.025,6.089c-2.09,1.445-4.283,2.555-4.8,4.154h8.799V52.355z"/>
</g>
<line fill="none" stroke="#58B5E1" stroke-width="1.5" stroke-miterlimit="10" stroke-dasharray="1.5,1.5" x1="-1" y1="934.333" x2="767" y2="934.333"/>
<line fill="none" stroke="#58B5E1" stroke-width="1.5" stroke-miterlimit="10" stroke-dasharray="1.5,1.5" x1="-1" y1="91.29" x2="767" y2="91.29"/>
</svg>
