<?xml version="1.0" encoding="utf-8"?>
<!-- Generator: Adobe Illustrator 16.0.0, SVG Export Plug-In . SVG Version: 6.00 Build 0)  -->
<!DOCTYPE svg PUBLIC "-//W3C//DTD SVG 1.1//EN" "http://www.w3.org/Graphics/SVG/1.1/DTD/svg11.dtd">
<svg version="1.1" id="Layer_1" xmlns="http://www.w3.org/2000/svg" xmlns:xlink="http://www.w3.org/1999/xlink" x="0px" y="0px"
	 width="768px" height="1024px" viewBox="0 0 768 1024" enable-background="new 0 0 768 1024" xml:space="preserve">
<g>
	
		<rect x="56.005" y="122.246" opacity="0.302" fill-rule="evenodd" clip-rule="evenodd" fill="#D9D9D9" width="657.99" height="69.264"/>
	<rect x="62.286" y="127.352" fill="none" stroke="#C1DBF2" stroke-miterlimit="10" width="645.423" height="59.066"/>
</g>
<g>
	<path fill="#C1DBF2" d="M82.33,152.282v1.521h-8.517c-0.012-0.381,0.05-0.747,0.185-1.099c0.217-0.58,0.563-1.151,1.042-1.714
		c0.477-0.563,1.167-1.213,2.069-1.951c1.4-1.148,2.347-2.058,2.839-2.729s0.738-1.305,0.738-1.903c0-0.627-0.225-1.156-0.672-1.586
		c-0.449-0.431-1.033-0.646-1.754-0.646c-0.762,0-1.371,0.229-1.828,0.686s-0.688,1.09-0.694,1.898l-1.626-0.167
		c0.111-1.213,0.53-2.137,1.257-2.773s1.702-0.954,2.927-0.954c1.236,0,2.215,0.343,2.936,1.028s1.081,1.535,1.081,2.549
		c0,0.516-0.105,1.022-0.316,1.521s-0.562,1.022-1.05,1.573c-0.49,0.551-1.303,1.307-2.439,2.268
		c-0.949,0.797-1.559,1.337-1.828,1.622s-0.492,0.57-0.668,0.857H82.33z"/>
	<path fill="#C1DBF2" d="M84.08,147.448c0-1.523,0.156-2.75,0.47-3.678s0.779-1.645,1.398-2.149
		c0.617-0.504,1.396-0.756,2.333-0.756c0.691,0,1.298,0.139,1.819,0.417s0.952,0.68,1.292,1.204s0.606,1.163,0.8,1.916
		s0.29,1.768,0.29,3.045c0,1.512-0.155,2.732-0.466,3.661s-0.775,1.646-1.393,2.153c-0.619,0.507-1.399,0.76-2.343,0.76
		c-1.242,0-2.218-0.445-2.927-1.336C84.505,151.614,84.08,149.868,84.08,147.448z M85.706,147.448c0,2.115,0.247,3.523,0.742,4.223
		s1.106,1.05,1.833,1.05s1.337-0.352,1.833-1.055c0.494-0.703,0.742-2.109,0.742-4.219c0-2.121-0.248-3.53-0.742-4.228
		c-0.496-0.697-1.112-1.046-1.851-1.046c-0.727,0-1.307,0.308-1.74,0.923C85.979,143.883,85.706,145.333,85.706,147.448z"/>
	<path fill="#C1DBF2" d="M100.104,153.803h-1.582v-10.081c-0.381,0.363-0.881,0.727-1.498,1.09
		c-0.619,0.363-1.174,0.636-1.666,0.817V144.1c0.885-0.416,1.658-0.92,2.32-1.512s1.131-1.166,1.406-1.723h1.02V153.803z"/>
	<path fill="#C1DBF2" d="M112.419,144.073l-1.573,0.123c-0.141-0.621-0.34-1.072-0.598-1.354c-0.428-0.451-0.955-0.677-1.582-0.677
		c-0.504,0-0.946,0.141-1.327,0.422c-0.498,0.363-0.891,0.894-1.178,1.591s-0.437,1.69-0.448,2.979
		c0.381-0.58,0.847-1.011,1.397-1.292s1.128-0.422,1.731-0.422c1.055,0,1.952,0.388,2.694,1.165c0.74,0.776,1.111,1.78,1.111,3.01
		c0,0.809-0.175,1.56-0.523,2.254s-0.827,1.226-1.437,1.595s-1.301,0.554-2.074,0.554c-1.318,0-2.394-0.485-3.226-1.455
		s-1.248-2.568-1.248-4.794c0-2.49,0.46-4.301,1.38-5.432c0.803-0.984,1.884-1.477,3.243-1.477c1.014,0,1.844,0.284,2.492,0.853
		C111.901,142.286,112.29,143.071,112.419,144.073z M105.959,149.628c0,0.545,0.115,1.066,0.347,1.564s0.556,0.877,0.972,1.138
		s0.853,0.391,1.31,0.391c0.668,0,1.242-0.27,1.723-0.809s0.721-1.271,0.721-2.197c0-0.891-0.237-1.592-0.712-2.105
		s-1.072-0.769-1.793-0.769c-0.715,0-1.321,0.256-1.819,0.769S105.959,148.796,105.959,149.628z"/>
	<path fill="#C1DBF2" d="M119.56,139.218c-0.072,0.63-0.253,1.099-0.343,1.404H129.3v1.314l-5.491,0.036l0.018,2.305h4.592v1.333
		h-4.592v2.917h6.212v1.332l-6.212-0.018v5.186h-1.422v-5.167h-7.022v-1.35l2.232,0.018v-4.25l4.79-0.018v-2.305h-3.709
		c-0.576,1.17-1.261,2.467-2.485,3.601l-1.134-0.918c1.638-1.458,2.664-3.421,3.331-5.978L119.56,139.218z M119.001,145.61v2.917
		h3.385l0.019-2.917H119.001z"/>
	<path fill="#C1DBF2" d="M139.899,149.824l-0.522-0.667c0.847-0.378,1.081-1.062,1.081-1.782h-0.973v-1.981h1.98v1.891
		C141.466,147.897,141.25,149.193,139.899,149.824z"/>
	<path fill="#C1DBF2" d="M150.374,150.634c2.989-1.909,5.132-4.627,6.067-7.562h-5.005v-1.369l6.5,0.018v-2.809h1.404l-0.019,2.809
		l6.429-0.018v1.369h-4.808c0.792,3.169,3.313,5.888,5.888,7.4l-0.973,1.152c-4.646-3.511-5.275-5.438-6.5-8.769l-0.036,6.392h3.476
		v1.35l-3.457-0.018l-0.019,4.43h-1.368l-0.018-4.43l-3.565,0.018v-1.35l3.565,0.018v-6.41c-1.242,3.925-3.35,6.626-6.446,8.859
		L150.374,150.634z"/>
	<path fill="#C1DBF2" d="M168.607,148.365c2.269-1.296,4.069-3.313,5.546-5.42l1.099,0.738c-0.505,0.918-1.53,2.125-2.197,2.935v8.3
		h-1.386v-6.878c-0.307,0.288-1.314,0.954-1.999,1.44L168.607,148.365z M168.842,143.414c1.891-1.314,3.349-2.935,4.556-4.825
		l1.063,0.828c-1.207,1.818-2.701,3.727-4.412,4.934L168.842,143.414z M177.088,153.443c0.919,0.072,1.711,0.072,2.485,0.054
		c0.198-0.054,0.396-0.18,0.396-0.432v-7.382h-4.609v-1.332l9.273,0.018v1.314l-3.205,0.018l-0.019,7.526
		c0,0.63-0.324,1.098-0.773,1.369c-0.486,0.27-2.197,0.252-3.115,0.216L177.088,153.443z M183.534,141.325h-7.742l-0.019-1.333
		l7.761-0.018V141.325z"/>
	<path fill="#C1DBF2" d="M189.992,146.96c-0.107,2.395,0.019,5.51-2.196,8.139l-1.152-0.864c2.143-2.395,2.017-5.906,1.998-8.895
		l-0.018-3.439l6.662-0.018c-0.036-0.828-0.09-1.854-0.09-3.043h1.35c0.019,1.242,0.036,2.07,0.108,3.061h5.258v1.314l-5.168-0.018
		c0.162,1.692,0.378,3.655,1.063,5.438c1.08-1.404,1.675-2.791,2.305-4.483l1.242,0.414c-0.9,2.395-1.566,3.745-2.952,5.51
		c0.594,1.224,1.224,2.376,2.412,3.295c0.09,0.072,0.145,0.126,0.234,0.018c0.216-0.81,0.342-1.584,0.378-2.629l1.332,0.774
		c-0.09,0.99-0.45,1.764-0.702,2.557c-0.126,0.36-0.324,0.666-0.647,0.792c-0.829,0.306-1.531-0.396-2.053-0.973
		c-0.937-1.026-1.387-1.603-1.927-2.772c-1.116,1.188-2.251,2.178-3.637,3.024l-1.243-0.954c1.657-0.882,3.134-2.053,4.231-3.367
		c-0.828-2.07-1.134-4.411-1.368-6.626h-5.401v2.449h4.807c-0.054,1.332-0.18,3.007-0.396,4.123
		c-0.126,0.738-0.45,1.747-1.188,2.017c-0.738,0.252-1.603,0.108-2.377,0l-0.594-1.495c0.918,0.27,1.584,0.36,2.286,0.324
		c0.162,0,0.324-0.018,0.433-0.252c0.288-0.612,0.414-2.413,0.432-3.421H189.992z M200.67,141.541
		c-1.009-0.846-2.431-1.512-3.493-1.603l1.08-0.972c1.242,0.27,2.377,0.81,3.385,1.729L200.67,141.541z"/>
	<path fill="#C1DBF2" d="M205.111,150.544l3.187-1.243v-6.95h-2.7v-1.296l6.68,0.018l-0.018,1.296l-2.611-0.018v6.41l2.863-1.188
		v1.422l-6.356,2.629L205.111,150.544z M214.582,152.596c1.026,0.252,1.711,0.486,2.575,0.576c0.324,0.036,0.558-0.108,0.63-0.27
		c0.324-1.512,0.558-5.959,0.648-8.48l-2.575,0.018c-0.576,6.176-1.225,8.174-5.905,10.731l-0.99-1.261
		c4.087-1.638,5.095-3.835,5.365-9.525h-2.61v-1.314h2.628l0.019-4.087h1.422l-0.018,4.087l4.087,0.018
		c-0.144,3.728-0.107,6.05-0.576,9.291c-0.126,0.864-0.216,1.566-0.99,1.944c-0.918,0.45-2.521-0.108-3.564-0.198L214.582,152.596z"
		/>
	<path fill="#C1DBF2" d="M232.079,149.067c-0.576,1.656-2.053,3.385-3.728,4.249c-1.387,0.703-2.61,1.188-4.159,1.513l-1.026-1.225
		c3.187-0.504,6.193-1.782,7.437-4.537h-7.437v-1.314h7.851c0.18-0.522,0.306-1.674,0.306-2.449v-2.485h1.351
		c0,2.395,0.054,3.421-0.252,4.934h6.014v1.314H232.079z M236.778,143.918v-1.657h-11.938v1.657h-1.369v-2.971h7.221
		c-0.288-0.486-1.08-1.152-1.675-1.477l1.026-0.648c0.648,0.342,1.513,1.081,1.908,1.854l-0.576,0.234l6.771,0.036v2.971H236.778z
		 M227.757,147.645c-0.611-0.99-1.494-1.854-2.557-2.521l0.883-0.81c1.026,0.576,2.017,1.477,2.665,2.521L227.757,147.645z
		 M229.558,145.917c-0.594-1.081-1.422-1.891-2.484-2.611l0.918-0.774c1.063,0.612,2.017,1.584,2.646,2.647L229.558,145.917z
		 M237.643,154.901c-1.711-1.908-3.512-2.917-5.762-3.925l0.702-1.008c1.801,0.666,4.465,2.269,5.995,3.871L237.643,154.901z"/>
	<path fill="#C1DBF2" d="M246.945,144.494v1.332h-2.196v3.835c0.468-0.09,1.458-0.414,2.358-0.63v1.333l-5.726,1.584
		c-0.288-0.468-0.522-0.828-0.883-1.404c1.135-0.144,2.089-0.324,2.899-0.541v-4.195h-2.161v-1.296h2.143v-2.953h-2.358v-1.296
		h6.104v1.278h-2.376v2.953H246.945z M252.239,141.865c0.09,3.295-0.324,6.356-1.765,8.949c-0.469,0.828-1.135,1.603-1.927,2.269
		c-0.828,0.702-1.711,1.26-2.736,1.783l-1.063-1.117c1.71-0.774,3.367-1.729,4.303-3.277c0.738-1.242,1.261-2.593,1.53-4.015
		c0.271-1.477,0.307-2.917,0.307-4.717L252.239,141.865z M255.317,139.615l0.019,9.813c-0.486,0.036-0.882,0.036-1.351,0.018v-8.517
		h-4.825v8.481h-1.351v-9.795H255.317z M256.65,151.858c-0.234,1.117-0.396,2.359-1.423,2.359h-2.196
		c-0.595,0-1.225-0.594-1.225-1.26v-4.826h1.368v4.591c0.036,0.09,0.217,0.216,0.343,0.216h1.351
		c0.359-0.054,0.252-0.486,0.396-0.846l0.072-0.882L256.65,151.858z"/>
	<path fill="#C1DBF2" d="M260.21,139.65h4.843v13.576c0,0.774-0.468,1.369-1.26,1.369h-1.314l-0.45-1.387
		c0.756,0.126,1.044,0.162,1.351,0.126c0.198-0.018,0.342-0.144,0.342-0.36v-4.627h-2.179c0.018,1.927-0.198,4.735-1.494,6.536
		l-1.045-0.918c0.973-1.819,1.207-3.511,1.207-5.582V139.65z M263.721,140.965h-2.179v2.359h2.179V140.965z M261.542,147.015h2.179
		v-2.359h-2.179V147.015z M267.052,142.729v-3.025h5.455v3.781c0,0.216,0.019,0.486,0.343,0.486h1.584v1.26h-2.088
		c-0.702,0-1.207-0.576-1.207-1.53v-2.701h-2.683c0.162,3.781-0.918,4.231-2.593,5.24l-0.738-1.207
		C266.205,144.62,267.052,143.774,267.052,142.729z M265.144,153.695c1.548-0.558,2.79-1.278,3.816-2.215
		c-0.882-1.152-1.477-2.683-1.836-4.069h-0.774v-1.314h6.554c-0.252,2.161-0.973,3.961-2.106,5.42
		c1.063,1.044,2.341,1.836,4.015,2.25l-0.81,1.207c-1.854-0.486-2.989-1.387-4.105-2.449c-1.423,1.026-2.251,1.692-4.231,2.395
		L265.144,153.695z M268.474,147.411c0.271,0.811,0.919,2.287,1.531,3.205c0.666-1.098,1.063-1.98,1.35-3.205H268.474z"/>
	<path fill="#C1DBF2" d="M279.795,147.159c-0.414,1.314-1.351,2.773-2.089,3.421l-0.99-0.846c1.423-1.512,2.611-4.213,2.989-5.852
		h-2.197l-0.018-1.333l2.286,0.018l0.019-3.817h1.351v3.799h2.07v1.333h-2.07l-0.036,1.638l0.756-0.522
		c0.757,0.576,1.549,1.621,2.053,2.773l-1.206,0.72c-0.433-1.134-1.063-2.035-1.566-2.395v8.679h-1.351V147.159z M291.408,140.515
		v1.278c-0.648,2.953-1.494,5.474-2.935,7.778c1.098,1.657,2.736,3.295,4.717,4.321l-1.026,1.081
		c-1.818-1.134-3.511-2.737-4.501-4.25c-1.152,1.513-2.898,3.097-4.825,4.124l-1.026-1.152c2.017-0.99,3.871-2.467,5.113-4.177
		c-1.206-2.125-2.215-4.195-2.683-6.626l-0.198-1.044h-1.458l0.018-1.333H291.408z M285.358,141.865
		c0.378,2.035,1.225,4.537,2.377,6.41c1.134-1.962,1.908-4.537,2.286-6.428L285.358,141.865z"/>
	<path fill="#C1DBF2" d="M310.074,154.829c-3.602-0.486-5.222-1.44-7.04-2.377c-2.106,1.225-4.628,1.999-7.509,2.413
		c-0.233-0.432-0.45-0.756-0.773-1.243c2.79-0.27,5.617-1.17,7.058-1.999c-0.828-0.522-1.944-1.818-2.629-2.845h-1.314v-1.314h9.147
		v1.296c-0.774,0.972-1.909,2.215-2.827,2.863c1.692,0.972,4.069,1.639,6.698,1.962L310.074,154.829z M305.141,142.405v4.79h-1.314
		l0.036-4.79h-2.143v4.79h-1.278v-4.79h-5.33v-1.242h7.419c-0.288-0.486-0.9-1.008-1.711-1.513l0.828-0.846
		c0.774,0.432,1.711,1.17,2.305,1.963l-0.486,0.342l6.95,0.054v1.242H305.141z M296.246,148.005l-1.009-1.026
		c1.387-1.188,2.449-2.593,3.313-3.889l0.99,0.811C298.497,145.628,297.416,146.781,296.246,148.005z M300.855,148.779
		c0.432,0.702,1.368,1.53,2.179,2.088c0.828-0.63,1.765-1.44,2.215-2.088H300.855z M309.282,147.591
		c-0.702-1.422-1.783-2.557-3.098-3.601l0.973-0.756c1.099,0.882,2.575,2.125,3.331,3.583L309.282,147.591z"/>
	<path fill="#C1DBF2" d="M328.596,154.937c-3.276-0.198-6.428-0.594-9.074-1.927c-0.145,0.072-0.343,0.234-0.559,0.378
		c-1.53,0.936-3.259,1.477-5.167,1.71l-0.811-1.207c2.16-0.342,4.016-0.99,5.239-1.584c-0.792-0.504-1.71-1.278-2.61-2.305
		l1.044-0.702c0.774,0.685,1.854,1.566,2.629,2.053c0.54-0.684,0.847-1.477,0.99-2.269h-4.897l0.019-6.662h5.167v-1.333
		l-7.058,0.018v-1.278h15.358v1.278l-6.968-0.018v1.333h5.005v6.662h-5.258c-0.144,1.062-0.54,2.143-1.17,2.953
		c1.801,0.972,6.14,1.458,8.967,1.513L328.596,154.937z M316.73,145.088h3.835v-1.369l-3.835-0.018V145.088z M316.73,147.771
		l3.728,0.018l0.071-1.422h-3.799V147.771z M321.88,146.367l-0.09,1.422h3.817v-1.422H321.88z M325.589,143.702h-3.655l-0.018,1.387
		h3.673V143.702z"/>
	<path fill="#C1DBF2" d="M339.341,150.364c-0.595-1.278-1.351-2.449-2.215-3.043v7.742h-1.368v-7.094
		c-0.522,1.116-1.837,2.701-3.367,4.051l-1.261-0.918c2.161-1.692,3.871-3.889,4.556-6.014h-3.439v-1.314l3.512,0.018v-2.287
		c-0.9,0.126-2.017,0.342-3.241,0.396l-0.559-1.243c2.647-0.198,5.006-0.522,7.166-1.638l0.829,1.026
		c-0.612,0.396-2.161,0.955-2.827,1.152v2.593l3.061-0.018l-0.018,1.314l-3.043-0.018v1.314l0.486-0.342
		c1.026,0.63,2.395,2.269,2.862,3.493L339.341,150.364z M346.272,153.965l-1.368,0.018V152.2h-2.881v1.801h-1.351l-0.018-13.522
		h5.617V153.965z M342.023,150.868h2.881v-9.075h-2.881V150.868z"/>
	<path fill="#C1DBF2" d="M350.229,154.739c-0.433-0.252-0.793-0.486-1.297-0.792c2.143-1.854,3.331-4.051,4.411-6.392
		c0.469,0.234,0.774,0.486,1.188,0.703C353.451,150.598,352.245,152.884,350.229,154.739z M352.316,147.141
		c-0.918-1.17-2.017-1.962-3.223-2.593c0.252-0.396,0.504-0.72,0.774-1.062c0.702,0.306,1.26,0.702,1.801,1.08
		c0.504,0.342,1.062,0.864,1.548,1.44L352.316,147.141z M351.093,139.291c1.242,0.468,2.826,1.747,3.385,2.665l-0.918,1.152
		c-0.648-1.08-1.981-2.179-3.277-2.827L351.093,139.291z M353.307,145.124c2.413-1.692,4.069-4.087,5.6-6.518l1.333,0.829
		c-1.423,2.106-2.719,3.961-4.466,5.348l6.5-0.792c-0.468-0.504-1.188-1.063-2.07-1.71l1.17-0.828
		c1.639,1.152,3.115,2.665,4.159,4.411c-0.396,0.288-0.738,0.504-1.188,0.774c-0.36-0.594-0.667-1.081-0.99-1.44
		c-2.035,0.144-6.627,0.792-9.039,1.296L353.307,145.124z M363.678,147.303v7.616h-1.458v-1.333l-5.672,0.018l-0.018,1.369
		l-1.44,0.036l-0.019-7.707H363.678z M362.184,152.272l-0.018-3.637h-5.636v3.637H362.184z"/>
	<path fill="#C1DBF2" d="M368.102,152.65c-0.378-0.342-0.72-0.612-1.188-1.081c1.116-0.324,1.945-0.666,2.719-0.954v-4.159h-1.836
		l0.018-1.278l1.783,0.018l0.018-3.565l-2.161,0.018v-1.314l5.582,0.018v1.279h-1.999l-0.018,3.565l1.765-0.018v1.278h-1.765v3.637
		c0.522-0.198,1.297-0.558,2.179-0.882v1.351L368.102,152.65z M382.218,139.867l-0.036,7.832h-3.655v1.729h3.548v1.296h-3.583v2.071
		h4.807v1.278h-10.929v-1.278h4.735l0.018-2.071h-3.601v-1.296h3.583l0.018-1.729h-3.727v-7.85L382.218,139.867z M377.104,143.072
		l0.018-1.909l-2.358-0.018v1.927H377.104z M374.764,144.35v2.07h2.341l0.018-2.088L374.764,144.35z M378.509,144.368v2.035
		l2.322,0.018v-2.035L378.509,144.368z M378.545,143.089h2.305l0.036-1.926l-2.359-0.018L378.545,143.089z"/>
	<path fill="#C1DBF2" d="M386.642,139.758c3.961,0.18,9.975-0.306,12.441-1.026l0.793,1.134c-1.999,0.486-3.907,0.684-5.672,0.9
		l-0.019,0.882h6.608v1.278h-6.608v0.9h4.952v5.996h-4.952v0.864h5.204v1.278l-5.168,0.018l0.036,1.008l7.112,0.018l0.018,1.279
		h-15.809l-0.018-1.279h7.273v-1.044h-5.419v-1.261h5.401l0.018-0.882h-4.969l0.018-5.996h4.951l-0.018-0.882h-6.662v-1.296h6.626
		v-0.756l-5.348,0.144L386.642,139.758z M389.252,148.563l3.565-0.018l0.018-1.117l-3.583,0.018V148.563z M392.835,146.187
		l-0.018-1.081h-3.547v1.081H392.835z M394.186,146.168h3.565v-1.044h-3.565V146.168z M394.186,147.447v1.116h3.583l0.019-1.134
		L394.186,147.447z"/>
	<path fill="#C1DBF2" d="M409.45,148.023v1.225c-1.387,0.342-3.512,0.774-5.313,1.332l-0.647-1.206
		c1.08-1.081,2.053-2.179,2.574-2.953c-0.162,0.018-1.224,0.27-1.962,0.522l-0.685-1.243c0.9-1.422,2.16-4.195,3.024-6.428
		l1.225,0.558c-0.54,1.26-1.927,4.285-2.61,5.474c0.288-0.036,1.314-0.27,1.891-0.396c0.396-0.576,0.792-1.314,1.206-2.143
		l1.278,0.576c-1.063,2.125-2.16,3.961-3.799,5.474L409.45,148.023z M403.544,152.506c2.179-0.684,3.799-1.134,6.302-1.999v1.35
		l-5.636,1.891L403.544,152.506z M408.441,154.037v-1.278h2.053V139.92h6.464v12.838h2.089v1.278H408.441z M411.845,141.199v2.845
		h3.763v-2.845H411.845z M411.845,148.275h3.763v-2.989h-3.763V148.275z M415.607,152.758V149.5h-3.763v3.259H415.607z"/>
	<path fill="#C1DBF2" d="M428.764,149.824l-0.522-0.667c0.847-0.378,1.081-1.062,1.081-1.782h-0.973v-1.981h1.98v1.891
		C430.33,147.897,430.114,149.193,428.764,149.824z"/>
	<path fill="#C1DBF2" d="M442.964,149.68c-0.756,1.548-1.602,2.665-3.042,3.493l-0.811-1.062c1.422-0.792,2.286-1.836,2.881-3.169
		L442.964,149.68z M444.711,153.695c0,0.702-0.54,1.477-1.368,1.477h-1.459l-0.468-1.44l1.44,0.108
		c0.18,0.018,0.45-0.198,0.45-0.432v-4.897h-2.899v-1.314h2.899v-1.278h-3.529v-1.333h2.593c-0.126-0.522-0.559-1.188-1.387-1.818
		l1.188-0.486c0.757,0.594,1.297,1.404,1.549,2.305h0.756c0.595-0.594,1.045-1.495,1.261-2.269l1.206,0.486
		c-0.198,0.63-0.612,1.369-1.008,1.783h2.143v1.333h-3.367v1.278h2.862v1.314h-2.862v1.278l0.522-0.666
		c0.846,0.522,1.656,1.368,2.25,2.376l-0.918,1.044c-0.45-1.081-1.261-1.854-1.854-2.305V153.695z M443.181,140.677
		c-0.162-0.288-0.54-0.792-1.135-1.386l1.314-0.612c0.576,0.684,1.063,1.368,1.278,1.999h3.043v1.314h-7.454v-1.314H443.181z
		 M454.884,140.011c-1.62,0.936-3.277,1.386-4.879,1.674v2.575h5.167v1.314h-2.017v9.381h-1.387v-9.381h-1.764v2.323
		c0,2.395-0.793,4.861-2.179,7.004l-1.225-0.864c1.656-2.269,2.017-4.717,2.017-7.508l-0.019-5.942
		c1.999-0.234,3.728-0.774,5.42-1.693L454.884,140.011z"/>
	<path fill="#C1DBF2" d="M458.732,145.898h13.954v1.495l-13.954,0.018V145.898z"/>
	<path fill="#C1DBF2" d="M478.911,144.242c-0.019,1.243,0.054,2.539-0.072,3.961c-0.271,3.295-1.675,5.708-2.701,6.68l-1.134-0.955
		c1.891-2.413,2.521-4.159,2.521-7.094v-7.274h12.243v4.681H478.911z M488.472,140.857h-9.561c-0.055,0.594,0.018,1.422,0,2.088
		h9.561V140.857z M488.472,154.883v-1.243h-7.49v1.243h-1.297v-8.517h4.394v-1.837h1.297v1.837h4.465v8.517H488.472z
		 M484.078,147.663h-3.097v1.566h3.097V147.663z M484.078,150.526h-3.097v1.818h3.097V150.526z M488.472,147.663h-3.097v1.566h3.097
		V147.663z M488.472,150.526h-3.097v1.818h3.097V150.526z"/>
	<path fill="#C1DBF2" d="M500.998,149.932c-0.019,1.404-0.415,2.683-1.639,3.457c-1.351,0.864-2.845,1.333-4.538,1.566l-1.134-1.333
		c1.837-0.054,3.187-0.486,4.501-1.134c0.937-0.468,1.423-1.26,1.423-2.557h-2.179v-4.808h8.822l-0.018,4.826h-2.106l-0.019,2.665
		c0,0.198,0.072,0.288,0.36,0.288h3.223c0.486,0,0.612-0.504,0.738-1.08c0.09-0.486,0.145-1.063,0.181-1.836l1.296,0.972
		c-0.198,1.152-0.324,1.999-0.738,2.628c-0.324,0.486-0.774,0.648-1.278,0.648h-3.745c-0.396,0-1.404-0.324-1.404-1.116
		l-0.018-3.187H500.998z M498.783,142.604c-0.324-0.937-1.026-1.675-2.053-2.467l1.008-0.882c0.955,0.648,1.909,1.818,2.449,2.791
		l-0.685,0.522l1.621,0.036v-3.745l1.422-0.018v3.763h1.621l-0.648-0.45c1.08-0.774,1.729-1.729,2.196-2.863l1.242,0.702
		c-0.468,1.116-1.188,2.017-1.8,2.611l3.709,0.018v3.727h-1.423v-2.431l-11.199-0.018l0.019,2.358h-1.423v-3.655H498.783z
		 M504.869,148.617v-2.197h-6.05v2.215L504.869,148.617z"/>
	<path fill="#C1DBF2" d="M520.402,146.781h-0.918l0.433,0.27c-0.396,0.396-0.811,0.828-0.973,0.972h8.03v1.296h-3.169
		c-0.54,0.9-1.387,1.927-2.106,2.449c1.548,0.504,3.367,1.081,5.203,1.98l-0.647,1.225c-1.963-1.063-3.89-1.801-5.87-2.287
		c-2.341,1.44-5.132,1.962-8.085,2.323l-0.54-1.369c2.197-0.108,4.502-0.54,6.555-1.386c-1.099-0.288-2.396-0.45-3.943-0.72
		c0.81-0.937,1.477-1.693,1.891-2.233h-3.871v-1.278h4.825c0.45-0.522,0.882-1.008,1.494-1.747l0.307,0.18v-2.305
		c-1.639,1.836-3.709,2.809-6.482,3.565l-0.738-1.206c2.269-0.522,4.34-1.314,5.636-2.647h-5.06v-1.314h6.645v-1.278
		c-1.333,0.144-4.573,0.378-5.564,0.378l-0.594-1.386c4.411,0,8.769-0.342,12.64-1.512l0.847,1.134
		c-1.729,0.522-4.357,1.044-5.942,1.26v1.404h6.645v1.296h-4.897c0.954,0.99,2.898,1.765,4.987,2.269l-0.738,1.17
		c-1.963-0.378-4.646-1.458-5.96-3.403L520.402,146.781z M520.114,151.3c0.828-0.432,1.693-1.368,2.089-1.999h-4.321
		c-0.396,0.522-0.63,0.828-1.026,1.261L520.114,151.3z"/>
	<path fill="#C1DBF2" d="M529.67,152.561c1.099-0.324,1.98-0.648,2.755-0.955l0.018-4.969l-1.801,0.018v-1.314l1.801-0.018v-3.907
		h-2.448v-1.296l5.995-0.018v1.296l-2.178,0.018v3.925h1.656v1.296h-1.675l0.019,4.393l2.521-0.936v1.368l-5.816,2.251
		L529.67,152.561z M534.585,153.983c1.891-1.477,3.367-3.061,3.367-6.5l-0.018-8.535h1.368l0.018,8.553
		c0,3.169-1.26,5.509-3.727,7.508L534.585,153.983z M534.928,147.969c0.864-1.44,1.152-3.205,1.08-5.096l1.261,0.252
		c0.071,1.836-0.108,3.601-0.955,5.149L534.928,147.969z M538.979,152.362h2.467l-0.018-5.114l-1.711-0.018v-1.296h1.729v-4.574
		h-1.854v-1.314h5.815v1.314h-2.61v4.574l1.927,0.018v1.278l-1.927,0.018v5.114h3.097v1.314h-6.914V152.362z"/>
	<path fill="#C1DBF2" d="M554.764,153.551c0.486,0,0.72-0.396,0.72-0.846v-5.276h-6.896v-1.333h6.896l0.019-1.8
		c1.44-0.918,2.898-2.233,3.709-3.187h-8.408v-1.333l10.371,0.018v1.008c-1.171,1.584-2.791,3.133-4.321,4.159v1.134h6.554v1.333
		h-6.554l-0.019,5.996c0,0.576-0.45,1.062-0.828,1.242c-0.486,0.306-2.448,0.18-2.862,0.18l-1.026-1.296H554.764z"/>
	<path fill="#C1DBF2" d="M574.042,150.364c-0.595-1.278-1.351-2.449-2.215-3.043v7.742h-1.368v-7.094
		c-0.522,1.116-1.837,2.701-3.367,4.051l-1.261-0.918c2.161-1.692,3.871-3.889,4.556-6.014h-3.439v-1.314l3.512,0.018v-2.287
		c-0.9,0.126-2.017,0.342-3.241,0.396l-0.559-1.243c2.647-0.198,5.006-0.522,7.166-1.638l0.829,1.026
		c-0.612,0.396-2.161,0.955-2.827,1.152v2.593l3.061-0.018l-0.018,1.314l-3.043-0.018v1.314l0.486-0.342
		c1.026,0.63,2.395,2.269,2.862,3.493L574.042,150.364z M580.974,153.965l-1.368,0.018V152.2h-2.881v1.801h-1.351l-0.018-13.522
		h5.617V153.965z M576.725,150.868h2.881v-9.075h-2.881V150.868z"/>
	<path fill="#C1DBF2" d="M597.479,141.649c0.253,0.324,0.433,0.612,0.631,1.081c-1.854,0.414-3.638,0.612-5.294,0.774v0.559h6.933
		l-0.019,1.224h-6.932v0.612h4.808v4.717h-4.79l-0.018,0.612l5.474-0.018v1.207h-5.456v0.63h7.166v1.243H584.3v-1.261l7.095,0.018
		v-0.63h-5.438v-1.188h5.438v-0.612h-4.754v-4.717h4.771l-0.018-0.612h-6.969l0.019-1.242h6.95v-0.45
		c-1.513,0.108-3.331,0.108-5.096,0.054l-0.666-1.243l3.457,0.054c1.926,0.036,3.816-0.144,5.527-0.378v-0.738h-5.096v1.008h-1.368
		v-1.008h-3.781v-1.297h3.781v-1.35h1.368v1.35h5.096v-1.296h1.423v1.296h3.709v1.297h-3.709l0.035,0.558
		C596.418,141.829,596.903,141.739,597.479,141.649z M591.412,147.069h-3.385l-0.019,0.558h3.386L591.412,147.069z M591.395,148.815
		h-3.367v0.666h3.367V148.815z M596.201,147.627v-0.558h-3.385l-0.018,0.558H596.201z M592.816,148.815v0.666h3.385l-0.018-0.666
		H592.816z"/>
	<path fill="#C1DBF2" d="M603.758,151.246h5.528l0.036-1.044l-7.257-0.018v-1.224l7.257-0.036v-0.9l-5.582-0.018l0.018-1.224
		l5.564-0.036v-0.756l-5.132-0.036l-0.019-3.565h5.132l0.019-0.792l-7.148,0.018v-1.261h7.13l-0.018-1.422h1.44l-0.019,1.422h7.185
		l0.018,1.243h-7.202l0.019,0.828l5.077-0.036v3.601h-5.077v0.792l5.707-0.018v2.161h1.639l0.019,1.278l-1.693-0.018v2.323
		l-5.689-0.018c0,0.684,0.181,1.836-0.63,2.197c-0.847,0.396-2.017,0.234-3.025,0.288c-0.216-0.45-0.288-0.846-0.521-1.387
		c0.954,0.072,1.729,0.145,2.467,0.072c0.414-0.054,0.27-0.486,0.288-1.152h-5.51L603.758,151.246z M605.505,144.728l3.763-0.018
		l0.019-1.062l-3.781,0.018V144.728z M615.012,148.941v-0.937l-4.34,0.018v0.937L615.012,148.941z M614.976,151.246l0.018-1.081
		l-4.321-0.018l0.036,1.099H614.976z M614.436,144.764v-1.116h-3.709v1.098L614.436,144.764z"/>
	<path fill="#C1DBF2" d="M634.938,147.789c-1.26-0.667-2.719-1.675-3.637-2.557v0.738h-7.148v-0.702
		c-0.81,0.756-1.639,1.44-3.402,2.485l-1.063-1.063c1.351-0.666,2.484-1.422,3.457-2.287c2.017-1.8,3.241-3.475,4.339-5.582
		l1.242,0.576l-0.396,0.612c1.566,2.07,2.988,3.943,5.455,5.456l2.071,1.278L634.938,147.789z M633.426,154.577
		c-0.379-0.468-0.721-0.9-0.955-1.081l-6.896,0.882l-2.701,0.414l-0.864-1.548c1.782-1.188,3.745-2.845,4.934-4.25h-5.708v-1.224
		h12.928v1.224h-6.607l0.846,0.63c-1.729,1.801-2.61,2.593-4.303,3.619l6.968-0.864c-0.468-0.342-0.99-0.63-1.746-0.99l0.918-0.918
		c0.864,0.36,1.549,0.846,2.287,1.314c0.612,0.522,1.351,1.098,1.944,1.891L633.426,154.577z M627.646,141.307
		c-0.594,0.918-1.98,2.502-2.862,3.367h6.014C629.267,143.414,628.401,142.351,627.646,141.307z"/>
	<path fill="#C1DBF2" d="M646.69,148.743c-0.414-0.684-1.387-1.836-2.196-2.539l1.008-1.008c0.937,0.702,1.873,1.584,2.467,2.305
		L646.69,148.743z"/>
	<path fill="#C1DBF2" d="M75.087,161.899h6.59c-0.162-0.18-0.647-0.63-1.224-1.063l1.386-0.576c0.559,0.54,0.99,1.116,1.278,1.639
		h6.626l0.019,1.314l-14.656-0.018L75.087,161.899z M85.458,174.863c0.792,0,1.297,0.126,1.873,0.018
		c0.233-0.054,0.378-0.324,0.378-0.648v-4.591l-10.497,0.018v6.932l-1.423,0.018l0.019-8.247l13.306-0.018v6.302
		c0,0.756-0.504,1.387-1.135,1.513c-0.684,0.126-1.368,0.054-2.143,0.09L85.458,174.863z M86.826,164.005v3.619h-8.804l-0.019-3.619
		H86.826z M78.868,174.232l0.018-3.835l7.076-0.018v3.853H78.868z M79.354,166.31h6.14v-1.008h-6.158L79.354,166.31z
		 M80.219,172.918l4.411,0.018l-0.018-1.224h-4.394V172.918z"/>
	<path fill="#C1DBF2" d="M92.438,163.969c1.459-0.936,2.269-2.25,2.935-3.691c0.433,0.198,0.738,0.36,1.171,0.558
		c-0.198,0.45-0.396,0.846-0.45,0.99h4.663v1.278l-2.719,0.018c0.072,0.09,0.324,0.63,0.612,1.063l-1.225,0.666
		c-0.306-0.72-0.612-1.26-1.026-1.729h-1.044c-0.433,0.594-0.973,1.188-1.891,1.819L92.438,163.969z M93.177,164.978h6.608
		c-0.126-0.252-0.486-0.702-1.026-1.224l1.296-0.414c0.576,0.576,1.009,1.314,1.225,1.638h6.446v3.385l-1.369-0.018v-2.088H94.545
		l-0.018,2.178l-1.351-0.018V164.978z M96.958,176.627h-1.423l0.019-9.453h9.687l0.019,3.673l-8.337,0.018v0.9h9.129v4.808h-1.387
		v-1.063H96.94L96.958,176.627z M96.922,169.569h6.968l-0.018-1.116h-6.95V169.569z M96.94,173.08l0.018,1.188l7.706-0.018v-1.207
		L96.94,173.08z M105.349,163.033c0.107,0.108,0.521,0.54,0.828,1.098c-0.396,0.252-0.756,0.432-1.225,0.63
		c-0.342-0.72-0.702-1.278-1.17-1.71h-1.188c-0.234,0.396-0.576,0.954-1.08,1.386c-0.379-0.288-0.667-0.468-1.063-0.774
		c0.972-1.044,1.477-2.089,1.782-3.421l1.206,0.45c-0.071,0.468-0.18,0.864-0.252,1.063h4.916v1.278H105.349z"/>
	<path fill="#C1DBF2" d="M112.042,161.214h12.621v3.998h-11.307c0,4.357,0.197,7.886-2.413,11.181
		c-0.414-0.306-0.702-0.576-1.063-0.918c1.171-1.477,2.161-3.583,2.161-7.004V161.214z M113.356,162.511v1.404h9.992v-1.404H113.356
		z M123.655,176.537c-0.271-0.63-0.685-1.314-1.009-1.747c-3.061,0.36-5.113,0.756-7.76,1.099l-0.666-1.333
		c1.422-1.333,2.881-3.241,3.528-4.591h-4.068v-1.243h12.207v1.279h-7.238l0.595,0.432c-0.99,1.585-1.98,2.809-2.971,3.781
		l5.438-0.612c-0.343-0.396-0.667-0.9-1.44-1.512l1.08-0.792c1.332,1.225,2.665,2.917,3.547,4.412L123.655,176.537z
		 M114.887,167.264v-1.278h8.931v1.278H114.887z"/>
	<path fill="#C1DBF2" d="M127.881,175.637c0.99-1.116,1.351-2.449,1.351-3.835l0.018-11.199h1.351l0.018,11.631
		c0,1.17-0.594,3.061-1.584,4.267L127.881,175.637z M131.626,173.999v-11.902h1.314v11.902H131.626z M134.039,175.042v-14.422h1.296
		v14.422H134.039z M135.659,174.791c1.837-0.684,3.043-1.603,3.385-4.501c0.145-0.685,0.145-2.341,0.09-3.907l1.314,0.018
		l-0.018,3.763c-0.019,2.233-1.206,4.357-3.295,5.546c-0.342,0.198-0.108,0.108-0.595,0.288L135.659,174.791z M142.051,172.684
		V165.5h-4.339v7.166h-1.314v-8.48h2.196c0.271-0.504,0.414-1.243,0.505-1.747h-3.151v-1.296h8.084v1.314l-3.601,0.018
		c-0.072,0.576-0.216,1.278-0.414,1.71h3.331v8.499H142.051z M143.329,176.465c-0.9-1.458-1.998-2.287-3.367-3.169l0.847-0.937
		c1.351,0.756,2.358,1.603,3.547,3.061L143.329,176.465z"/>
	<path fill="#C1DBF2" d="M153.101,167.895c1.53,1.296,2.629,2.395,3.493,3.961l-1.188,0.99c-0.774-1.531-1.801-2.773-2.736-3.547
		v7.311h-1.351v-7.148c-0.559,1.26-1.963,2.953-3.602,4.465c-0.432-0.27-0.864-0.648-1.206-0.864
		c2.017-1.747,3.637-3.925,4.609-6.374h-3.89v-1.314h4.033v-2.341c-0.773,0.162-2.232,0.324-3.492,0.324l-0.702-1.351
		c3.259-0.108,5.923-0.378,8.66-1.26c0.324,0.432,0.594,0.828,0.811,1.152c-1.531,0.486-2.827,0.81-3.926,0.972v2.503h3.817v1.314
		h-3.817v1.549L153.101,167.895z M158.557,173.17h-1.369v-10.516h1.369V173.17z M162.05,174.971c0,0.486-0.505,1.351-1.261,1.422
		c-0.864,0.072-1.801-0.054-2.611,0c-0.161-0.612-0.323-0.99-0.432-1.477l2.448,0.108c0.217-0.054,0.433-0.198,0.433-0.432V160.53
		h1.423V174.971z"/>
	<path fill="#C1DBF2" d="M179.977,176.537c-1.584-0.198-3.007-0.576-4.267-1.17c-1.423,0.63-3.079,0.99-4.826,1.207l-0.72-1.207
		c1.656-0.162,3.097-0.396,4.159-0.774c-0.414-0.27-1.063-0.829-1.477-1.369c-0.378,0.324-0.972,0.738-1.53,0.972l-1.206-0.846
		c1.134-0.414,2.196-1.152,2.7-1.926h-1.008v-2.899l-0.559,0.45l-0.306-0.342c-0.271,0.414-0.648,0.936-1.08,1.404v6.536h-1.351
		v-5.419c-0.198,0.216-0.45,0.378-0.757,0.558l-0.72-0.829c-0.072,2.503-0.828,4.177-1.782,5.744l-1.188-0.738
		c0.99-1.729,1.656-3.457,1.656-6.32v-8.3h13.72v3.403h-12.352v5.888c1.225-0.63,2.593-2.215,3.115-3.385l0.468,0.486
		c0.792-0.594,1.675-1.549,2.179-2.917l1.278,0.36l-0.198,0.324h5.889v1.225h-6.41l-0.307,0.432h5.996v4.339h-4.699l-0.271,0.378
		h4.88v1.134c-0.576,0.756-1.333,1.404-1.927,1.747c0.973,0.342,2.431,0.63,3.619,0.666L179.977,176.537z M167.085,162.565v0.811
		h10.983v-0.811H167.085z M170.938,165.536c-0.54,1.314-1.53,2.305-2.737,3.133l-0.972-0.918c1.296-0.738,2.053-1.566,2.629-2.899
		L170.938,165.536z M177.727,168.741v-0.432h-4.573v0.432H177.727z M173.171,170.217h4.556v-0.414h-4.556V170.217z M174.377,173.116
		c0.288,0.252,0.811,0.666,1.351,0.918c0.595-0.288,1.026-0.594,1.423-0.882L174.377,173.116z"/>
	<path fill="#C1DBF2" d="M186.058,171.28c-0.756,1.548-1.602,2.665-3.042,3.493l-0.811-1.062c1.422-0.792,2.286-1.837,2.881-3.169
		L186.058,171.28z M187.805,175.295c0,0.702-0.54,1.476-1.368,1.476h-1.459l-0.468-1.44l1.44,0.108
		c0.18,0.018,0.45-0.198,0.45-0.432v-4.897h-2.899v-1.314h2.899v-1.278h-3.529v-1.333h2.593c-0.126-0.522-0.559-1.188-1.387-1.818
		l1.188-0.486c0.757,0.594,1.297,1.404,1.549,2.305h0.756c0.595-0.594,1.045-1.495,1.261-2.269l1.206,0.486
		c-0.198,0.63-0.612,1.369-1.008,1.783h2.143v1.333h-3.367v1.278h2.862v1.314h-2.862v1.278l0.522-0.667
		c0.846,0.522,1.656,1.369,2.25,2.377l-0.918,1.044c-0.45-1.081-1.261-1.854-1.854-2.305V175.295z M186.274,162.277
		c-0.162-0.288-0.54-0.792-1.135-1.386l1.314-0.612c0.576,0.684,1.063,1.369,1.278,1.999h3.043v1.314h-7.454v-1.314H186.274z
		 M197.978,161.611c-1.62,0.936-3.277,1.386-4.879,1.674v2.575h5.167v1.314h-2.017v9.381h-1.387v-9.381h-1.764v2.323
		c0,2.395-0.793,4.861-2.179,7.004l-1.225-0.864c1.656-2.269,2.017-4.717,2.017-7.508l-0.019-5.941
		c1.999-0.234,3.728-0.774,5.42-1.692L197.978,161.611z"/>
	<path fill="#C1DBF2" d="M208.883,170.793c-0.792,0.054-1.512-0.252-2.017-0.828c-0.504-0.576-0.647-1.477-0.414-2.215
		c0.271-0.864,1.099-1.53,1.98-1.584c0.829-0.054,1.585,0.252,2.071,0.937c0.432,0.594,0.594,1.35,0.342,2.088
		C210.558,170.019,209.766,170.721,208.883,170.793z M208.919,167.336c-0.414-0.108-0.846,0.018-1.116,0.324
		c-0.252,0.27-0.378,0.666-0.306,1.044c0.072,0.342,0.324,0.685,0.648,0.829c0.449,0.198,0.972,0.09,1.313-0.252
		c0.324-0.324,0.415-0.846,0.253-1.26C209.567,167.679,209.262,167.426,208.919,167.336z"/>
</g>
</svg>
