<?xml version="1.0" encoding="utf-8"?>
<!-- Generator: Adobe Illustrator 16.0.0, SVG Export Plug-In . SVG Version: 6.00 Build 0)  -->
<!DOCTYPE svg PUBLIC "-//W3C//DTD SVG 1.1//EN" "http://www.w3.org/Graphics/SVG/1.1/DTD/svg11.dtd">
<svg version="1.1" id="Layer_1" xmlns="http://www.w3.org/2000/svg" xmlns:xlink="http://www.w3.org/1999/xlink" x="0px" y="0px"
	 width="768px" height="1024px" viewBox="0 0 768 1024" enable-background="new 0 0 768 1024" xml:space="preserve">
<path opacity="0.302" fill="#FFFFFF" enable-background="new    " d="M136.698,244.384c0-3.779,3.063-6.84,6.837-6.84h81.654
	c3.776,0,6.836,3.061,6.836,6.84v27.338c0,3.777-3.06,6.838-6.836,6.838h-81.654c-3.774,0-6.837-3.061-6.837-6.838V244.384z"/>
<g>
	<path fill="#FFFFFF" d="M140.163,256.06c-0.088-2.808,1.509-4.966,4.457-4.966c2.246,0,4.211,1.439,4.211,3.843
		c0,1.843-0.982,2.86-2.193,3.721c-1.211,0.859-2.649,1.562-3.544,2.825h5.808v2.141h-9.02c0.018-2.843,1.755-4.054,3.878-5.492
		c1.088-0.737,2.563-1.492,2.58-3.001c0-1.158-0.772-1.896-1.843-1.896c-1.474,0-1.947,1.527-1.947,2.825H140.163z"/>
	<path fill="#FFFFFF" d="M154.131,251.094c2.457,0,4.527,1.545,4.527,6.335c0,4.896-2.07,6.44-4.527,6.44
		c-2.421,0-4.492-1.545-4.492-6.44C149.639,252.639,151.71,251.094,154.131,251.094z M154.131,261.815c2.036,0,2.036-3,2.036-4.387
		c0-1.281,0-4.281-2.036-4.281c-2,0-2,3-2,4.281C152.131,258.815,152.131,261.815,154.131,261.815z"/>
	<path fill="#FFFFFF" d="M165.906,263.623h-2.492v-7.967h-3.088v-1.877c1.737,0.034,3.334-0.562,3.597-2.439h1.983V263.623z"/>
	<path fill="#FFFFFF" d="M175.594,254.498c-0.158-0.824-0.79-1.526-1.649-1.526c-1.808,0-2.281,2.369-2.352,3.737l0.035,0.035
		c0.685-0.965,1.579-1.368,2.772-1.368c1.053,0,2.123,0.491,2.825,1.263c0.649,0.755,0.947,1.772,0.947,2.738
		c0,2.509-1.737,4.492-4.299,4.492c-3.72,0-4.721-3.247-4.721-6.353c0-3.001,1.334-6.423,4.826-6.423
		c2.123,0,3.702,1.246,3.983,3.404L175.594,254.498L175.594,254.498z M171.821,259.534c0,1.141,0.736,2.281,1.982,2.281
		c1.193,0,1.878-1.141,1.878-2.246c0-1.158-0.597-2.316-1.878-2.316C172.47,257.253,171.821,258.323,171.821,259.534z"/>
	<path fill="#FFFFFF" d="M179.595,260.921h2.755v2.702h-2.755V260.921z"/>
	<path fill="#FFFFFF" d="M188.281,251.094c2.457,0,4.527,1.545,4.527,6.335c0,4.896-2.07,6.44-4.527,6.44
		c-2.421,0-4.492-1.545-4.492-6.44C183.789,252.639,185.86,251.094,188.281,251.094z M188.281,261.815c2.036,0,2.036-3,2.036-4.387
		c0-1.281,0-4.281-2.036-4.281c-2,0-2,3-2,4.281C186.281,258.815,186.281,261.815,188.281,261.815z"/>
	<path fill="#FFFFFF" d="M193.827,256.06c-0.088-2.808,1.509-4.966,4.457-4.966c2.246,0,4.211,1.439,4.211,3.843
		c0,1.843-0.982,2.86-2.193,3.721c-1.211,0.859-2.649,1.562-3.544,2.825h5.808v2.141h-9.02c0.018-2.843,1.755-4.054,3.878-5.492
		c1.088-0.737,2.563-1.492,2.58-3.001c0-1.158-0.772-1.896-1.843-1.896c-1.474,0-1.947,1.527-1.947,2.825H193.827z"/>
	<path fill="#FFFFFF" d="M203.987,260.921h2.755v2.702h-2.755V260.921z"/>
	<path fill="#FFFFFF" d="M208.463,256.06c-0.088-2.808,1.509-4.966,4.457-4.966c2.246,0,4.211,1.439,4.211,3.843
		c0,1.843-0.982,2.86-2.193,3.721c-1.211,0.859-2.649,1.562-3.544,2.825h5.808v2.141h-9.02c0.018-2.843,1.755-4.054,3.878-5.492
		c1.089-0.737,2.563-1.492,2.58-3.001c0-1.158-0.772-1.896-1.843-1.896c-1.474,0-1.947,1.527-1.947,2.825H208.463z"/>
	<path fill="#FFFFFF" d="M220.519,260.465c0.157,0.824,0.789,1.526,1.649,1.526c1.808,0,2.281-2.369,2.352-3.737l-0.035-0.035
		c-0.685,0.965-1.58,1.368-2.772,1.368c-1.054,0-2.124-0.491-2.825-1.264c-0.649-0.754-0.948-1.771-0.948-2.737
		c0-2.509,1.737-4.492,4.3-4.492c3.72,0,4.72,3.247,4.72,6.353c0,3.001-1.333,6.423-4.825,6.423c-2.123,0-3.703-1.246-3.983-3.404
		L220.519,260.465L220.519,260.465z M224.291,255.429c0-1.141-0.737-2.281-1.982-2.281c-1.193,0-1.878,1.141-1.878,2.246
		c0,1.158,0.597,2.316,1.878,2.316C223.642,257.71,224.291,256.639,224.291,255.429z"/>
</g>
</svg>
