<?xml version="1.0" encoding="utf-8"?>
<!-- Generator: Adobe Illustrator 16.0.0, SVG Export Plug-In . SVG Version: 6.00 Build 0)  -->
<!DOCTYPE svg PUBLIC "-//W3C//DTD SVG 1.1//EN" "http://www.w3.org/Graphics/SVG/1.1/DTD/svg11.dtd">
<svg version="1.1" id="Layer_1" xmlns="http://www.w3.org/2000/svg" xmlns:xlink="http://www.w3.org/1999/xlink" x="0px" y="0px"
	 width="768px" height="1024px" viewBox="0 0 768 1024" enable-background="new 0 0 768 1024" xml:space="preserve">
<path opacity="0.302" fill="#FFFFFF" enable-background="new    " d="M136.698,475.686c0-3.778,3.063-6.84,6.837-6.84h81.654
	c3.776,0,6.836,3.062,6.836,6.84v27.339c0,3.776-3.06,6.838-6.836,6.838h-81.654c-3.774,0-6.837-3.062-6.837-6.838V475.686z"/>
<g>
	<path fill="#FFFFFF" d="M140.163,487.361c-0.088-2.809,1.509-4.967,4.457-4.967c2.246,0,4.211,1.439,4.211,3.844
		c0,1.843-0.982,2.859-2.193,3.721c-1.211,0.859-2.649,1.563-3.544,2.825h5.808v2.141h-9.02c0.018-2.843,1.755-4.054,3.878-5.492
		c1.088-0.736,2.563-1.491,2.58-3.001c0-1.157-0.772-1.896-1.843-1.896c-1.474,0-1.947,1.526-1.947,2.825H140.163z"/>
	<path fill="#FFFFFF" d="M154.131,482.396c2.457,0,4.527,1.545,4.527,6.335c0,4.896-2.07,6.439-4.527,6.439
		c-2.421,0-4.492-1.545-4.492-6.439C149.639,483.94,151.71,482.396,154.131,482.396z M154.131,493.117c2.036,0,2.036-3,2.036-4.387
		c0-1.281,0-4.281-2.036-4.281c-2,0-2,3-2,4.281C152.131,490.117,152.131,493.117,154.131,493.117z"/>
	<path fill="#FFFFFF" d="M165.906,494.925h-2.492v-7.967h-3.088v-1.877c1.737,0.034,3.334-0.563,3.597-2.439h1.983V494.925z"/>
	<path fill="#FFFFFF" d="M175.594,485.8c-0.158-0.824-0.79-1.525-1.649-1.525c-1.808,0-2.281,2.368-2.352,3.736l0.035,0.035
		c0.685-0.965,1.579-1.368,2.772-1.368c1.053,0,2.123,0.491,2.825,1.264c0.649,0.755,0.947,1.771,0.947,2.737
		c0,2.509-1.737,4.492-4.299,4.492c-3.72,0-4.721-3.247-4.721-6.353c0-3.001,1.334-6.424,4.826-6.424
		c2.123,0,3.702,1.246,3.983,3.404L175.594,485.8L175.594,485.8z M171.821,490.836c0,1.141,0.736,2.281,1.982,2.281
		c1.193,0,1.878-1.142,1.878-2.246c0-1.158-0.597-2.316-1.878-2.316C172.47,488.555,171.821,489.625,171.821,490.836z"/>
	<path fill="#FFFFFF" d="M179.595,492.223h2.755v2.702h-2.755V492.223z"/>
	<path fill="#FFFFFF" d="M190.3,494.925h-2.492v-7.967h-3.088v-1.877c1.737,0.034,3.334-0.563,3.597-2.439h1.983V494.925z"/>
	<path fill="#FFFFFF" d="M198.038,482.396c2.457,0,4.527,1.545,4.527,6.335c0,4.896-2.07,6.439-4.527,6.439
		c-2.421,0-4.492-1.545-4.492-6.439C193.546,483.94,195.617,482.396,198.038,482.396z M198.038,493.117c2.036,0,2.036-3,2.036-4.387
		c0-1.281,0-4.281-2.036-4.281c-2,0-2,3-2,4.281C196.038,490.117,196.038,493.117,198.038,493.117z"/>
	<path fill="#FFFFFF" d="M203.987,492.223h2.755v2.702h-2.755V492.223z"/>
	<path fill="#FFFFFF" d="M214.692,494.925H212.2v-7.967h-3.088v-1.877c1.737,0.034,3.334-0.563,3.597-2.439h1.983V494.925z"/>
	<path fill="#FFFFFF" d="M221.571,487.607c1.07,0.088,2.614-0.123,2.614-1.526c0-1.035-0.824-1.632-1.737-1.632
		c-1.245,0-1.912,0.93-1.895,2.192h-2.369c0.088-2.51,1.72-4.247,4.246-4.247c1.966,0,4.124,1.212,4.124,3.404
		c0,1.158-0.579,2.193-1.72,2.51v0.035c1.352,0.298,2.176,1.421,2.176,2.79c0,2.579-2.158,4.036-4.563,4.036
		c-2.755,0-4.614-1.65-4.563-4.475h2.369c0.053,1.333,0.72,2.421,2.158,2.421c1.123,0,2.001-0.771,2.001-1.931
		c0-1.859-1.632-1.824-2.843-1.824v-1.754H221.571z"/>
</g>
</svg>
