<?xml version="1.0" encoding="utf-8"?>
<!-- Generator: Adobe Illustrator 16.0.0, SVG Export Plug-In . SVG Version: 6.00 Build 0)  -->
<!DOCTYPE svg PUBLIC "-//W3C//DTD SVG 1.1//EN" "http://www.w3.org/Graphics/SVG/1.1/DTD/svg11.dtd">
<svg version="1.1" id="Layer_1" xmlns="http://www.w3.org/2000/svg" xmlns:xlink="http://www.w3.org/1999/xlink" x="0px" y="0px"
	 width="768px" height="1024px" viewBox="0 0 768 1024" enable-background="new 0 0 768 1024" xml:space="preserve">
<path opacity="0.302" fill="#FFFFFF" enable-background="new    " d="M136.698,706.987c0-3.779,3.063-6.841,6.837-6.841h81.654
	c3.776,0,6.836,3.062,6.836,6.841v27.338c0,3.776-3.06,6.838-6.836,6.838h-81.654c-3.774,0-6.837-3.062-6.837-6.838V706.987z"/>
<g>
	<path fill="#FFFFFF" d="M140.163,718.663c-0.088-2.808,1.509-4.966,4.457-4.966c2.246,0,4.211,1.438,4.211,3.843
		c0,1.843-0.982,2.86-2.193,3.721c-1.211,0.859-2.649,1.563-3.544,2.825h5.808v2.141h-9.02c0.018-2.843,1.755-4.054,3.878-5.491
		c1.088-0.737,2.563-1.492,2.58-3.001c0-1.158-0.772-1.896-1.843-1.896c-1.474,0-1.947,1.527-1.947,2.825H140.163L140.163,718.663z"
		/>
	<path fill="#FFFFFF" d="M154.131,713.697c2.457,0,4.527,1.545,4.527,6.335c0,4.896-2.07,6.439-4.527,6.439
		c-2.421,0-4.492-1.545-4.492-6.439C149.639,715.242,151.71,713.697,154.131,713.697z M154.131,724.419c2.036,0,2.036-3,2.036-4.387
		c0-1.281,0-4.281-2.036-4.281c-2,0-2,3-2,4.281C152.131,721.419,152.131,724.419,154.131,724.419z"/>
	<path fill="#FFFFFF" d="M165.906,726.227h-2.492v-7.967h-3.088v-1.877c1.737,0.034,3.334-0.562,3.597-2.438h1.983V726.227z"/>
	<path fill="#FFFFFF" d="M175.594,717.102c-0.158-0.823-0.79-1.525-1.649-1.525c-1.808,0-2.281,2.369-2.352,3.736l0.035,0.035
		c0.685-0.965,1.579-1.367,2.772-1.367c1.053,0,2.123,0.49,2.825,1.263c0.649,0.755,0.947,1.771,0.947,2.737
		c0,2.51-1.737,4.492-4.299,4.492c-3.72,0-4.721-3.247-4.721-6.353c0-3.001,1.334-6.423,4.826-6.423
		c2.123,0,3.702,1.246,3.983,3.403L175.594,717.102L175.594,717.102z M171.821,722.138c0,1.142,0.736,2.281,1.982,2.281
		c1.193,0,1.878-1.141,1.878-2.246c0-1.158-0.597-2.315-1.878-2.315C172.47,719.856,171.821,720.927,171.821,722.138z"/>
	<path fill="#FFFFFF" d="M179.595,723.524h2.755v2.701h-2.755V723.524z"/>
	<path fill="#FFFFFF" d="M190.3,726.227h-2.492v-7.967h-3.088v-1.877c1.737,0.034,3.334-0.562,3.597-2.438h1.983V726.227z"/>
	<path fill="#FFFFFF" d="M193.827,718.663c-0.088-2.808,1.509-4.966,4.457-4.966c2.246,0,4.211,1.438,4.211,3.843
		c0,1.843-0.982,2.86-2.193,3.721c-1.211,0.859-2.649,1.563-3.544,2.825h5.808v2.141h-9.02c0.018-2.843,1.755-4.054,3.878-5.491
		c1.088-0.737,2.563-1.492,2.58-3.001c0-1.158-0.772-1.896-1.843-1.896c-1.474,0-1.947,1.527-1.947,2.825H193.827L193.827,718.663z"
		/>
	<path fill="#FFFFFF" d="M203.987,723.524h2.755v2.701h-2.755V723.524z"/>
	<path fill="#FFFFFF" d="M208.463,718.663c-0.088-2.808,1.509-4.966,4.457-4.966c2.246,0,4.211,1.438,4.211,3.843
		c0,1.843-0.982,2.86-2.193,3.721c-1.211,0.859-2.649,1.563-3.544,2.825h5.808v2.141h-9.02c0.018-2.843,1.755-4.054,3.878-5.491
		c1.089-0.737,2.563-1.492,2.58-3.001c0-1.158-0.772-1.896-1.843-1.896c-1.474,0-1.947,1.527-1.947,2.825H208.463L208.463,718.663z"
		/>
	<path fill="#FFFFFF" d="M226.643,716.084c-2.58,2.246-3.983,6.861-4.019,10.143h-2.667c0.28-3.633,1.79-7.158,4.123-9.967h-5.825
		v-2.315h8.388V716.084z"/>
</g>
</svg>
