<?xml version="1.0" encoding="utf-8"?>
<!-- Generator: Adobe Illustrator 16.0.0, SVG Export Plug-In . SVG Version: 6.00 Build 0)  -->
<!DOCTYPE svg PUBLIC "-//W3C//DTD SVG 1.1//EN" "http://www.w3.org/Graphics/SVG/1.1/DTD/svg11.dtd">
<svg version="1.1" id="Layer_1" xmlns="http://www.w3.org/2000/svg" xmlns:xlink="http://www.w3.org/1999/xlink" x="0px" y="0px"
	 width="768px" height="1024px" viewBox="0 0 768 1024" enable-background="new 0 0 768 1024" xml:space="preserve">
<g>
	<path fill="#FFFFFF" d="M357.344,440.477v-7.53h5.559l-0.017-3.111h1.359l-0.034,3.094l5.542,0.017v7.462h-1.343v-1.156h-4.199
		l0.034,5.729h-1.343l-0.017-5.729h-4.165l-0.034,1.224H357.344z M362.886,434.188h-4.199v3.842h4.216L362.886,434.188z
		 M368.376,434.188h-4.131v3.825h4.147L368.376,434.188z"/>
	<path fill="#FFFFFF" d="M385.495,444.88v-1.19h-10.353v1.19h-1.292v-14.415h12.852v14.415H385.495z M385.495,431.706h-10.353
		v10.811h10.353V431.706z M375.482,441.293v-1.173h4.114v-2.89h-3.383v-1.173h3.383v-2.159h-3.961v-1.173h9.265v1.173h-4.097v2.159
		h3.552v1.173h-3.552v2.89h4.267v1.173H375.482z M383.489,440.001c-0.663-0.867-1.258-1.462-2.108-1.955l0.833-0.663
		c0.714,0.425,1.632,1.088,2.176,1.972L383.489,440.001z"/>
	<path fill="#FFFFFF" d="M398.466,430.176c0.018,1.921-0.067,3.655-0.255,5.372c-0.051,0.408,0.103,0.561,0.204,0.799
		c1.377,3.4,3.196,5.729,6.731,7.241l-0.985,1.105c-3.146-1.632-5.066-3.485-6.511-6.85c-0.663,1.955-3.025,5.014-6.307,6.799
		l-1.02-1.003c1.189-0.714,2.176-1.428,3.094-2.312c1.122-1.054,1.938-1.938,2.787-3.706c0.986-2.006,0.867-4.98,0.901-7.445
		H398.466z"/>
	<path fill="#FFFFFF" d="M419.002,439.729v3.875c0,0.646-0.425,1.292-1.139,1.292h-1.734l-0.407-1.36l1.58,0.119
		c0.222,0.017,0.408-0.187,0.408-0.493v-3.434h-5.524v-0.442c-1.122,1.819-2.447,3.195-4.232,4.437l-0.935-1.054
		c2.243-1.326,4.249-3.773,4.963-5.507h-4.572v-1.241h5.116c0.188-0.391,0.391-0.765,0.442-1.071h-4.284v-1.173h4.624
		c0.119-0.323,0.204-0.765,0.255-1.037h-5.304V431.4h5.559l0.323-1.666l1.173,0.306c-0.103,0.646-0.153,0.935-0.222,1.36h6.137
		v1.241h-6.357c-0.085,0.391-0.17,0.765-0.237,1.037h5.949v1.173h-6.256c-0.136,0.374-0.255,0.799-0.356,1.071h7.904v1.241h-8.414
		c-0.238,0.476-0.511,1.02-0.697,1.326h4.946v-1.002h1.292v1.002h2.873v1.241H419.002z M414.837,443.078
		c-0.51-1.02-1.121-1.632-2.057-2.159l0.851-0.867c0.884,0.51,1.648,1.309,2.227,2.108L414.837,443.078z"/>
	<path fill="#FFFFFF" d="M427.129,437.417c-0.103,2.261,0.017,5.202-2.074,7.684l-1.088-0.816c2.023-2.261,1.904-5.575,1.887-8.397
		l-0.017-3.247l6.289-0.017c-0.034-0.782-0.085-1.751-0.085-2.873h1.275c0.017,1.173,0.034,1.955,0.102,2.89h4.964v1.241
		l-4.879-0.017c0.153,1.598,0.357,3.451,1.003,5.134c1.021-1.326,1.581-2.635,2.176-4.232l1.173,0.391
		c-0.85,2.261-1.479,3.536-2.787,5.202c0.561,1.156,1.155,2.244,2.277,3.111c0.085,0.068,0.136,0.119,0.221,0.017
		c0.204-0.765,0.323-1.496,0.357-2.481l1.258,0.731c-0.085,0.935-0.425,1.666-0.663,2.414c-0.119,0.34-0.306,0.629-0.612,0.748
		c-0.781,0.289-1.444-0.374-1.938-0.918c-0.884-0.969-1.309-1.513-1.818-2.618c-1.055,1.122-2.125,2.057-3.434,2.855l-1.173-0.901
		c1.563-0.833,2.957-1.938,3.994-3.179c-0.782-1.955-1.071-4.165-1.292-6.255h-5.1v2.312h4.539c-0.051,1.258-0.17,2.838-0.374,3.893
		c-0.119,0.697-0.425,1.649-1.122,1.904c-0.697,0.238-1.513,0.102-2.244,0l-0.561-1.411c0.867,0.255,1.496,0.34,2.159,0.306
		c0.152,0,0.306-0.017,0.407-0.238c0.272-0.578,0.392-2.278,0.408-3.23H427.129z M437.209,432.301
		c-0.952-0.799-2.295-1.428-3.298-1.513l1.02-0.917c1.173,0.255,2.244,0.765,3.196,1.632L437.209,432.301z"/>
	<path fill="#FFFFFF" d="M449.738,443.282c0.799,0.136,1.411,0.391,2.091,0.374c0.204-0.051,0.408-0.136,0.459-0.323
		c0.441-1.428,0.68-4.896,0.748-8.397h-4.471c-0.034,2.566-0.578,5.116-2.142,7.19c-0.884,1.19-2.584,2.312-3.773,2.856
		l-0.885-1.139c2.244-0.782,4.284-2.72,4.879-4.861c0.374-1.326,0.68-2.72,0.629-4.063h-5.763v-1.19h5.763v-3.91
		c0.476-0.017,0.782-0.034,1.292-0.034v3.927l5.763,0.017c-0.153,3.229-0.103,6.85-0.748,9.859
		c-0.085,0.425-0.408,0.867-0.851,1.105c-0.51,0.34-1.309,0.238-2.787-0.085L449.738,443.282z M445.081,433.508
		c-0.408-1.037-1.173-1.648-2.159-2.329l1.054-0.799c0.884,0.663,1.649,1.326,2.21,2.261L445.081,433.508z M450.911,441.004
		c-0.374-1.394-1.224-2.448-2.244-3.553l1.071-0.629c1.071,1.054,1.802,2.125,2.329,3.468L450.911,441.004z"/>
	<path fill="#FFFFFF" d="M460.397,432.709h2.652c-0.272-0.68-1.071-1.734-1.819-2.396l0.936-0.731
		c0.662,0.476,1.529,1.462,2.243,2.72l-0.526,0.374l2.073,0.034c0.595-0.578,1.377-1.836,1.785-3.025l1.189,0.561
		c-0.407,1.054-1.07,2.091-1.428,2.465h2.839v6.068h-4.317v1.394h6.833v1.19h-6.851v3.501h-1.258v-3.484h-6.714v-1.19h6.731v-1.411
		h-4.369V432.709z M464.749,436.313h-3.076v1.292h3.076V436.313z M464.767,435.072v-1.139h-3.077v1.139H464.767z M466.007,433.933
		v1.139h3.094v-1.139H466.007z M469.084,436.296h-3.06v1.309h3.06V436.296z"/>
	<path fill="#FFFFFF" d="M476.174,436.415h13.174v1.411l-13.174,0.017V436.415z"/>
	<path fill="#FFFFFF" d="M492.019,442.908l1.768-0.17v-5.542h-1.513v-1.207h14.397v1.207h-6.851v7.853h-1.359v-1.819l-5.746,0.901
		L492.019,442.908z M494.585,435.48v-4.913h9.706v4.913H494.585z M498.461,438.131v-0.935h-3.366v0.935H498.461z M495.095,439.304
		v0.884h3.383v-0.884H495.095z M495.111,441.344v1.224c1.088-0.153,2.262-0.289,3.35-0.476v-0.748H495.111z M502.965,431.74h-7.071
		v0.748h7.071V431.74z M495.894,433.61v0.731h7.071v-0.731H495.894z M505.889,437.843c-0.34,1.717-0.663,2.771-1.768,4.266
		c0.765,0.782,1.699,1.411,2.89,1.887c-0.34,0.391-0.527,0.663-0.85,0.986c-1.14-0.476-1.921-1.071-2.839-1.955
		c-0.816,0.731-1.717,1.581-2.635,2.091l-0.766-1.02c1.037-0.629,1.938-1.275,2.602-1.955c-0.681-0.918-1.31-1.955-1.514-3.094
		h-0.714v-1.207H505.889z M502.183,439.049c0.272,0.816,0.562,1.36,1.088,2.125c0.493-0.748,0.952-1.496,1.14-2.125H502.183z"/>
	<path fill="#FFFFFF" d="M510.395,435.242v-1.309h5.304c0.136-1.224,0.153-2.686,0.119-4.284c0.527,0.119,0.867,0.119,1.377,0.204
		c0.034,1.496,0.017,2.873-0.085,4.08h6.085l0.018,1.309h-4.998c0.681,3.604,1.989,6.137,5.763,8.346l-0.918,1.02
		c-3.705-2.244-5.405-4.708-6.085-9.366c-0.918,4.675-2.687,7.19-6.442,9.281l-0.969-1.173c3.688-1.734,5.439-4.878,6.017-8.108
		H510.395z"/>
	<path fill="#FFFFFF" d="M527.242,430.516h4.572v12.817c0,0.731-0.441,1.292-1.189,1.292h-1.241l-0.425-1.309
		c0.714,0.119,0.985,0.153,1.274,0.119c0.188-0.017,0.323-0.136,0.323-0.34v-4.369H528.5c0.017,1.819-0.188,4.47-1.411,6.17
		l-0.985-0.867c0.918-1.717,1.139-3.314,1.139-5.27V430.516z M530.557,431.757H528.5v2.227h2.057V431.757z M528.5,437.469h2.057
		v-2.227H528.5V437.469z M533.701,433.423v-2.855h5.15v3.569c0,0.204,0.018,0.459,0.323,0.459h1.496v1.19h-1.972
		c-0.663,0-1.14-0.544-1.14-1.445v-2.55h-2.532c0.152,3.57-0.867,3.995-2.448,4.947l-0.696-1.139
		C532.902,435.208,533.701,434.409,533.701,433.423z M531.899,443.775c1.462-0.527,2.635-1.207,3.604-2.091
		c-0.833-1.088-1.394-2.533-1.733-3.841h-0.731v-1.241h6.188c-0.237,2.04-0.918,3.74-1.988,5.117
		c1.003,0.986,2.209,1.734,3.79,2.125l-0.765,1.139c-1.751-0.459-2.821-1.309-3.876-2.312c-1.343,0.969-2.124,1.598-3.994,2.261
		L531.899,443.775z M535.044,437.843c0.255,0.765,0.867,2.159,1.445,3.025c0.629-1.037,1.003-1.87,1.274-3.025H535.044z"/>
	<path fill="#FFFFFF" d="M543.001,442.687c1.7-0.85,3.399-2.125,4.998-4.13l0.9,0.816c-1.104,1.785-3.009,3.349-4.896,4.419
		L543.001,442.687z M550.056,436.704v-2.278h1.292v2.261h5.303v1.207h-5.32v5.847c-0.051,0.51-0.459,1.037-0.969,1.173
		c-0.493,0.136-1.088,0.102-1.7,0.085l-0.492-1.275l1.665,0.085c0.119-0.017,0.188-0.068,0.222-0.187v-5.694h-4.726v-1.139
		l2.243-3.671h-4.504v-1.207h5.185l0.985-1.972l1.173,0.459l-0.765,1.513h7.904l0.017,1.224h-8.431l-2.125,3.569H550.056z
		 M556.549,443.758c-1.377-1.75-2.958-3.094-4.539-4.13l0.748-0.884c1.887,1.037,3.502,2.55,4.845,4.011L556.549,443.758z"/>
</g>
</svg>
