<?xml version="1.0" encoding="utf-8"?>
<!-- Generator: Adobe Illustrator 16.0.0, SVG Export Plug-In . SVG Version: 6.00 Build 0)  -->
<!DOCTYPE svg PUBLIC "-//W3C//DTD SVG 1.1//EN" "http://www.w3.org/Graphics/SVG/1.1/DTD/svg11.dtd">
<svg version="1.1" id="Layer_1" xmlns="http://www.w3.org/2000/svg" xmlns:xlink="http://www.w3.org/1999/xlink" x="0px" y="0px"
	 width="768px" height="1024px" viewBox="0 0 768 1024" enable-background="new 0 0 768 1024" xml:space="preserve">
<g>
	<path fill="#FFFFFF" d="M381.841,674.295l14.585-0.017v1.207h-14.567L381.841,674.295z M388.301,660.9
		c0.714,0.697,1.155,1.411,1.547,2.057l6.17-0.017l-0.017,3.349h-1.241v-2.142h-11.27l0.017,2.21h-1.274v-3.417h6.102
		c-0.237-0.306-0.646-0.969-1.41-1.377L388.301,660.9z M394.114,673.207h-9.962l-0.017-6.068l10.012,0.018L394.114,673.207z
		 M393.995,666.271l-9.672,0.018l-0.018-1.207h9.689V666.271z M385.394,672l7.411-0.017v-1.309h-7.394L385.394,672z
		 M392.771,669.468l0.018-1.122h-7.344l-0.017,1.139L392.771,669.468z"/>
	<path fill="#FFFFFF" d="M402.496,668.447c-0.799,1.156-1.615,2.074-2.771,3.315l-1.121-0.782c1.972-1.955,3.773-4.063,4.572-6.271
		h-3.808v-1.225h4.267c0.271-0.714,0.51-1.564,0.765-2.498l1.207,0.373c-0.238,0.833-0.442,1.598-0.612,2.125h8.262v1.225h-8.737
		c-0.408,1.002-0.918,2.124-1.445,2.923h3.23v-2.159h1.291v2.159h4.199v5.049c0,0.935-0.425,1.632-1.224,1.632h-1.547l-0.408-1.309
		c0.629,0.067,1.173,0.152,1.496,0.102c0.237,0,0.391-0.188,0.391-0.425v-3.808h-2.907v7.445h-1.291v-7.445h-2.517v5.898h-1.291
		V668.447z"/>
	<path fill="#FFFFFF" d="M418.833,671.287c-0.714,1.461-1.513,2.516-2.873,3.297l-0.765-1.002c1.343-0.748,2.158-1.734,2.72-2.992
		L418.833,671.287z M420.481,675.077c0,0.663-0.51,1.394-1.292,1.394h-1.377l-0.441-1.359l1.359,0.102
		c0.17,0.018,0.425-0.187,0.425-0.408v-4.623h-2.736v-1.24h2.736v-1.207h-3.331v-1.258h2.447c-0.119-0.494-0.526-1.123-1.309-1.717
		l1.122-0.459c0.714,0.561,1.224,1.325,1.462,2.176h0.714c0.561-0.562,0.985-1.411,1.189-2.143l1.14,0.459
		c-0.188,0.596-0.578,1.292-0.952,1.684h2.022v1.258h-3.179v1.207h2.703v1.24h-2.703v1.207l0.493-0.629
		c0.799,0.492,1.563,1.291,2.125,2.244l-0.867,0.985c-0.425-1.021-1.189-1.751-1.751-2.176V675.077z M419.037,662.787
		c-0.153-0.271-0.511-0.748-1.071-1.309l1.241-0.578c0.544,0.646,1.003,1.292,1.207,1.887h2.872v1.241h-7.037v-1.241H419.037z
		 M430.086,662.158c-1.53,0.885-3.094,1.309-4.606,1.581v2.431h4.878v1.241h-1.903v8.856h-1.31v-8.856h-1.665v2.192
		c0,2.262-0.748,4.59-2.058,6.613l-1.155-0.816c1.563-2.143,1.903-4.453,1.903-7.088l-0.017-5.609
		c1.887-0.222,3.519-0.731,5.116-1.599L430.086,662.158z"/>
	<path fill="#FFFFFF" d="M433.674,667.717h13.174v1.411l-13.174,0.017V667.717z"/>
	<path fill="#FFFFFF" d="M462.93,661.733v4.437h-10.25c-0.017,1.173,0.051,2.38-0.068,3.723c-0.255,3.111-1.58,5.389-2.549,6.307
		l-1.071-0.9c1.785-2.278,2.38-3.928,2.38-6.697v-6.868H462.93z M452.68,662.975c-0.051,0.561,0.018,1.309,0,1.938h9.009v-1.955
		L452.68,662.975z M461.706,675.043h-7.071v1.156h-1.241v-8.057h4.147v-1.717h1.241v1.717h4.216v8.074l-1.292-0.018V675.043z
		 M454.635,670.879h2.906V669.4h-2.906V670.879z M454.635,673.785h2.906v-1.699l-2.906-0.018V673.785z M461.723,672.068h-2.94v1.717
		h2.94V672.068z M458.799,669.383v1.479h2.907v-1.479H458.799z"/>
	<path fill="#FFFFFF" d="M469.611,666.527h8.397v4.844h-1.955v2.822c0.103,0.255,0.477,0.17,0.816,0.17h2.635
		c0.289,0,0.391-0.238,0.459-0.477c0.119-0.407,0.17-0.9,0.187-1.479l1.275,0.51c-0.272,0.918-0.17,2.244-1.36,2.551l-0.51,0.067
		h-3.569c-0.833,0-1.19-0.663-1.19-1.325v-2.856l-1.717,0.017c-0.374,4.148-3.773,4.42-6.085,4.896
		c-0.255-0.392-0.493-0.731-0.799-1.225c1.853-0.238,3.502-0.476,4.776-1.529c0.578-0.646,0.833-1.411,0.884-2.159h-2.244V666.527z
		 M479.147,662.158c-0.544,0.952-1.394,1.904-1.717,2.176h3.23v3.145h-1.207v-1.903h-11.321v1.921h-1.241v-3.162h4.012
		c-0.407-0.646-1.155-1.343-2.176-2.006l0.799-0.918c0.918,0.562,2.091,1.53,2.669,2.396l-0.526,0.545h1.495v-3.247h1.241v3.247
		h1.751l-0.425-0.391c1.07-0.697,1.802-1.53,2.413-2.533L479.147,662.158z M476.768,667.699h-5.915v2.517h5.915V667.699z"/>
	<path fill="#FFFFFF" d="M491.763,668.55h-0.867l0.408,0.255c-0.374,0.374-0.766,0.782-0.918,0.918h7.581v1.225h-2.992
		c-0.51,0.85-1.309,1.818-1.988,2.311c1.462,0.477,3.179,1.021,4.912,1.871l-0.611,1.155c-1.854-1.003-3.672-1.7-5.542-2.159
		c-2.21,1.36-4.845,1.854-7.632,2.193l-0.51-1.292c2.073-0.103,4.249-0.511,6.187-1.31c-1.036-0.271-2.261-0.424-3.723-0.68
		c0.766-0.884,1.395-1.598,1.785-2.107h-3.654v-1.207h4.556c0.425-0.492,0.833-0.951,1.41-1.648l0.289,0.17v-2.176
		c-1.547,1.733-3.501,2.651-6.119,3.365l-0.697-1.139c2.143-0.493,4.097-1.24,5.321-2.498h-4.777v-1.242h6.272v-1.207
		c-1.258,0.137-4.317,0.357-5.252,0.357l-0.562-1.309c4.165,0,8.278-0.322,11.934-1.428l0.799,1.07
		c-1.632,0.494-4.114,0.986-5.609,1.19v1.325h6.271v1.225h-4.623c0.901,0.935,2.736,1.666,4.708,2.142l-0.696,1.104
		c-1.853-0.356-4.386-1.377-5.627-3.213L491.763,668.55z M491.49,672.816c0.782-0.408,1.598-1.292,1.972-1.887h-4.079
		c-0.374,0.492-0.596,0.781-0.969,1.189L491.49,672.816z"/>
	<path fill="#FFFFFF" d="M500.467,674.006c1.037-0.306,1.87-0.611,2.601-0.9l0.018-4.691l-1.7,0.017v-1.241l1.7-0.017v-3.688h-2.312
		v-1.225l5.66-0.016v1.223l-2.057,0.018v3.705h1.563v1.225h-1.581l0.018,4.147l2.38-0.884v1.291l-5.491,2.125L500.467,674.006z
		 M505.107,675.35c1.785-1.395,3.179-2.891,3.179-6.137l-0.017-8.057h1.292l0.017,8.074c0,2.991-1.189,5.201-3.519,7.088
		L505.107,675.35z M505.431,669.672c0.815-1.359,1.088-3.025,1.02-4.811l1.19,0.238c0.067,1.733-0.103,3.399-0.901,4.861
		L505.431,669.672z M509.255,673.819h2.329l-0.017-4.827l-1.615-0.018v-1.224h1.632v-4.317h-1.751v-1.241h5.49v1.241h-2.465v4.317
		l1.819,0.017v1.207l-1.819,0.018v4.827h2.924v1.241h-6.527V673.819z"/>
	<path fill="#FFFFFF" d="M524.113,674.941c0.459,0,0.68-0.374,0.68-0.799v-4.98h-6.51v-1.258h6.51l0.018-1.7
		c1.359-0.866,2.736-2.108,3.502-3.009h-7.938v-1.258l9.791,0.018v0.951c-1.105,1.496-2.635,2.958-4.08,3.927v1.071h6.188v1.258
		h-6.188l-0.017,5.66c0,0.544-0.425,1.003-0.782,1.173c-0.459,0.289-2.312,0.17-2.702,0.17l-0.97-1.224H524.113z"/>
</g>
</svg>
