<?xml version="1.0" encoding="utf-8"?>
<!-- Generator: Adobe Illustrator 16.0.0, SVG Export Plug-In . SVG Version: 6.00 Build 0)  -->
<!DOCTYPE svg PUBLIC "-//W3C//DTD SVG 1.1//EN" "http://www.w3.org/Graphics/SVG/1.1/DTD/svg11.dtd">
<svg version="1.1" id="Layer_1" xmlns="http://www.w3.org/2000/svg" xmlns:xlink="http://www.w3.org/1999/xlink" x="0px" y="0px"
	 width="768px" height="1024px" viewBox="0 0 768 1024" enable-background="new 0 0 768 1024" xml:space="preserve">
<g>
	<path fill="#FFFFFF" d="M357.854,898.544h3.315c-0.204-0.511-1.055-1.444-1.564-1.836l0.816-0.681
		c0.526,0.307,1.614,1.326,2.142,2.125l-0.578,0.392l2.193,0.034c0.459-0.442,1.343-1.581,1.717-2.533l1.121,0.611
		c-0.356,0.715-0.935,1.514-1.274,1.888h4.487v1.173h-11.117l0.018,3.11c0.017,2.414-1.343,3.944-2.635,4.726l-0.952-0.969
		c1.122-0.611,2.312-1.938,2.312-4.131V898.544z M364.178,894.668l6.034,0.034v1.173h-13.82v-1.156h6.834
		c-0.272-0.492-0.969-1.359-1.649-1.853l0.885-0.714c0.696,0.578,1.479,1.225,2.158,2.244L364.178,894.668z"/>
	<path fill="#FFFFFF" d="M377.54,894.039c-0.018,0.85-0.238,1.529-0.357,2.057h2.855l-0.017-3.621h1.326v3.621h5.558v1.258
		l-5.541-0.017v3.179h4.742v1.24l-4.742-0.017l-0.017,3.638h6.646v1.258H373.97v-1.258h6.068l-0.017-3.621h-4.386v-1.24h4.386
		l0.017-3.162h-3.314c-0.408,1.156-1.343,2.295-2.295,3.314l-1.292-0.696c1.547-1.462,2.839-3.06,3.111-6.323L377.54,894.039z"/>
	<path fill="#FFFFFF" d="M393.333,902.59c-0.714,1.461-1.513,2.516-2.873,3.297l-0.765-1.002c1.343-0.748,2.158-1.734,2.72-2.992
		L393.333,902.59z M394.981,906.38c0,0.663-0.51,1.394-1.292,1.394h-1.377l-0.441-1.359l1.359,0.102
		c0.17,0.018,0.425-0.187,0.425-0.408v-4.623h-2.736v-1.24h2.736v-1.207h-3.331v-1.258h2.447c-0.119-0.494-0.526-1.123-1.309-1.717
		l1.122-0.459c0.714,0.561,1.224,1.325,1.462,2.176h0.714c0.561-0.562,0.985-1.411,1.189-2.143l1.14,0.459
		c-0.188,0.596-0.578,1.292-0.952,1.684h2.022v1.258h-3.179v1.207h2.703v1.24h-2.703v1.207l0.493-0.629
		c0.799,0.492,1.563,1.291,2.125,2.244l-0.867,0.985c-0.425-1.021-1.189-1.751-1.751-2.176V906.38z M393.537,894.09
		c-0.153-0.271-0.511-0.748-1.071-1.309l1.241-0.578c0.544,0.646,1.003,1.292,1.207,1.887h2.872v1.241h-7.037v-1.241H393.537z
		 M404.586,893.461c-1.53,0.885-3.094,1.309-4.606,1.581v2.431h4.878v1.241h-1.903v8.856h-1.31v-8.856h-1.665v2.192
		c0,2.262-0.748,4.59-2.058,6.613l-1.155-0.816c1.563-2.143,1.903-4.453,1.903-7.088l-0.017-5.609
		c1.887-0.222,3.519-0.731,5.116-1.599L404.586,893.461z"/>
	<path fill="#FFFFFF" d="M408.174,899.02h13.174v1.411l-13.174,0.017V899.02z"/>
	<path fill="#FFFFFF" d="M427.18,897.456c-0.017,1.173,0.051,2.396-0.068,3.739c-0.255,3.111-1.58,5.389-2.549,6.307l-1.071-0.9
		c1.785-2.278,2.38-3.928,2.38-6.697v-6.868h11.559v4.42H427.18z M436.206,894.26h-9.026c-0.051,0.562,0.018,1.344,0,1.973h9.026
		V894.26z M436.206,907.502v-1.173h-7.071v1.173h-1.224v-8.041h4.147v-1.732h1.224v1.732h4.216v8.041H436.206z M432.059,900.686
		h-2.924v1.479h2.924V900.686z M432.059,903.389h-2.924v1.717h2.924V903.389z M436.206,900.686h-2.924v1.479h2.924V900.686z
		 M436.206,903.389h-2.924v1.717h2.924V903.389z"/>
	<path fill="#FFFFFF" d="M453.852,895.008c0.238,0.307,0.408,0.578,0.595,1.02c-1.75,0.392-3.434,0.578-4.997,0.731v0.526h6.544
		l-0.017,1.156h-6.544v0.578h4.538v4.453h-4.521l-0.017,0.578l5.167-0.017v1.139h-5.15v0.595h6.766v1.174h-14.806v-1.19l6.697,0.017
		v-0.595h-5.134v-1.122h5.134v-0.578h-4.487v-4.453h4.504l-0.017-0.578h-6.578l0.017-1.172h6.562v-0.426
		c-1.428,0.102-3.145,0.102-4.811,0.051l-0.629-1.172l3.264,0.051c1.818,0.033,3.604-0.137,5.219-0.357v-0.697h-4.811v0.952h-1.292
		v-0.952h-3.57v-1.224h3.57v-1.274h1.292v1.274h4.811v-1.224h1.343v1.224h3.501v1.224h-3.501l0.034,0.527
		C452.849,895.178,453.308,895.094,453.852,895.008z M448.123,900.125h-3.195l-0.017,0.526h3.195L448.123,900.125z M448.106,901.773
		h-3.179v0.629h3.179V901.773z M452.645,900.651v-0.526h-3.195l-0.017,0.526H452.645z M449.449,901.773v0.629h3.195l-0.017-0.629
		H449.449z"/>
	<path fill="#FFFFFF" d="M459.735,904.068h5.218l0.034-0.986l-6.851-0.017v-1.156l6.851-0.034v-0.85l-5.27-0.018l0.018-1.155
		l5.252-0.034v-0.714l-4.845-0.034l-0.017-3.365h4.845l0.017-0.748l-6.748,0.018v-1.19h6.731l-0.018-1.343h1.36l-0.018,1.343h6.782
		l0.018,1.173h-6.8l0.018,0.781l4.793-0.033v3.399h-4.793v0.748l5.389-0.017v2.039h1.547l0.017,1.207l-1.598-0.017v2.192
		l-5.372-0.017c0,0.646,0.17,1.733-0.595,2.073c-0.799,0.375-1.903,0.221-2.855,0.272c-0.204-0.425-0.272-0.799-0.493-1.31
		c0.901,0.068,1.632,0.137,2.329,0.068c0.391-0.051,0.255-0.459,0.271-1.088h-5.201L459.735,904.068z M461.384,897.914l3.553-0.016
		l0.017-1.004l-3.569,0.018V897.914z M470.358,901.893v-0.885l-4.096,0.018v0.884L470.358,901.893z M470.325,904.068l0.017-1.02
		l-4.079-0.018l0.033,1.037H470.325z M469.814,897.949v-1.055h-3.501v1.037L469.814,897.949z"/>
	<path fill="#FFFFFF" d="M489.127,900.805c-1.19-0.629-2.567-1.581-3.434-2.414v0.697h-6.749v-0.663
		c-0.765,0.714-1.547,1.36-3.212,2.346l-1.003-1.003c1.274-0.629,2.346-1.343,3.264-2.158c1.903-1.7,3.06-3.281,4.097-5.27
		l1.173,0.543l-0.374,0.578c1.479,1.955,2.821,3.723,5.15,5.15l1.954,1.207L489.127,900.805z M487.699,907.213
		c-0.357-0.441-0.681-0.85-0.901-1.02l-6.511,0.832l-2.549,0.392l-0.816-1.462c1.683-1.122,3.536-2.686,4.657-4.012h-5.388v-1.156
		h12.204v1.156h-6.238l0.799,0.596c-1.632,1.699-2.465,2.447-4.063,3.416l6.578-0.816c-0.441-0.322-0.935-0.595-1.648-0.935
		l0.867-0.866c0.815,0.34,1.462,0.799,2.158,1.24c0.578,0.493,1.275,1.037,1.836,1.785L487.699,907.213z M482.242,894.686
		c-0.561,0.867-1.869,2.362-2.702,3.178h5.677C483.772,896.674,482.956,895.671,482.242,894.686z"/>
	<path fill="#FFFFFF" d="M499.77,903.235c-0.562-1.207-1.275-2.312-2.091-2.872v7.309h-1.292v-6.697
		c-0.493,1.054-1.734,2.55-3.179,3.824l-1.189-0.867c2.039-1.598,3.654-3.671,4.3-5.677h-3.246v-1.241l3.314,0.018v-2.159
		c-0.85,0.119-1.904,0.323-3.06,0.374l-0.527-1.173c2.499-0.187,4.726-0.493,6.766-1.547l0.782,0.969
		c-0.578,0.374-2.04,0.901-2.669,1.088v2.448l2.89-0.018l-0.018,1.241l-2.872-0.017v1.24l0.459-0.322
		c0.969,0.594,2.261,2.141,2.702,3.297L499.77,903.235z M506.313,906.635l-1.292,0.018v-1.684h-2.72v1.7h-1.274l-0.018-12.766h5.304
		V906.635z M502.302,903.711h2.72v-8.566h-2.72V903.711z"/>
	<path fill="#FFFFFF" d="M509.834,893.733h6.222c-0.153-0.171-0.612-0.595-1.156-1.003l1.309-0.544
		c0.527,0.51,0.936,1.054,1.207,1.547h6.256l0.017,1.241l-13.837-0.018L509.834,893.733z M519.625,905.973
		c0.748,0,1.224,0.118,1.768,0.016c0.222-0.051,0.357-0.305,0.357-0.611v-4.334l-9.91,0.017v6.544l-1.343,0.018l0.017-7.785
		l12.563-0.018v5.949c0,0.715-0.477,1.309-1.071,1.428c-0.646,0.119-1.292,0.052-2.022,0.086L519.625,905.973z M520.917,895.723
		v3.416h-8.313l-0.017-3.416H520.917z M513.403,905.377l0.018-3.621l6.68-0.017v3.638H513.403z M513.862,897.898h5.797v-0.953
		h-5.813L513.862,897.898z M514.679,904.137l4.164,0.017l-0.017-1.156h-4.147V904.137z"/>
	<path fill="#FFFFFF" d="M526.171,895.688c1.377-0.883,2.142-2.125,2.771-3.484c0.408,0.188,0.697,0.34,1.105,0.527
		c-0.188,0.425-0.374,0.799-0.425,0.935h4.402v1.207l-2.566,0.017c0.067,0.086,0.306,0.596,0.577,1.004l-1.155,0.629
		c-0.289-0.681-0.578-1.19-0.969-1.633h-0.986c-0.408,0.562-0.918,1.123-1.785,1.717L526.171,895.688z M526.868,896.641h6.238
		c-0.119-0.238-0.459-0.664-0.969-1.156l1.224-0.391c0.544,0.543,0.952,1.24,1.156,1.547h6.085v3.195l-1.292-0.018v-1.972h-11.15
		l-0.018,2.058l-1.274-0.018V896.641z M530.438,907.638h-1.343l0.017-8.924h9.146l0.017,3.468l-7.87,0.017v0.851h8.618v4.538h-1.309
		v-1.003h-7.292L530.438,907.638z M530.403,900.975h6.579l-0.018-1.055h-6.562V900.975z M530.421,904.289l0.017,1.122l7.275-0.017
		v-1.139L530.421,904.289z M538.358,894.805c0.103,0.102,0.493,0.51,0.782,1.036c-0.374,0.238-0.714,0.408-1.155,0.595
		c-0.323-0.68-0.663-1.207-1.105-1.614h-1.122c-0.221,0.374-0.544,0.901-1.02,1.309c-0.357-0.272-0.629-0.442-1.003-0.731
		c0.918-0.985,1.394-1.971,1.683-3.229l1.139,0.424c-0.067,0.442-0.17,0.816-0.237,1.004h4.641v1.207H538.358z"/>
	<path fill="#FFFFFF" d="M544.633,893.088h11.916v3.773h-10.675c0,4.113,0.187,7.445-2.278,10.556
		c-0.391-0.289-0.662-0.544-1.003-0.867c1.105-1.394,2.04-3.382,2.04-6.612V893.088z M545.874,894.311v1.326h9.434v-1.326H545.874z
		 M555.597,907.553c-0.255-0.595-0.646-1.24-0.952-1.648c-2.89,0.34-4.827,0.713-7.326,1.037l-0.629-1.258
		c1.343-1.258,2.72-3.061,3.332-4.335h-3.842v-1.173h11.525v1.207h-6.834l0.562,0.408c-0.936,1.495-1.87,2.65-2.805,3.568
		l5.133-0.577c-0.322-0.374-0.629-0.851-1.359-1.429l1.02-0.747c1.258,1.155,2.516,2.753,3.349,4.165L555.597,907.553z
		 M547.318,898.799v-1.207h8.432v1.207H547.318z"/>
</g>
</svg>
