<?xml version="1.0" encoding="utf-8"?>
<!-- Generator: Adobe Illustrator 16.0.0, SVG Export Plug-In . SVG Version: 6.00 Build 0)  -->
<!DOCTYPE svg PUBLIC "-//W3C//DTD SVG 1.1//EN" "http://www.w3.org/Graphics/SVG/1.1/DTD/svg11.dtd">
<svg version="1.1" id="Layer_1" xmlns="http://www.w3.org/2000/svg" xmlns:xlink="http://www.w3.org/1999/xlink" x="0px" y="0px"
	 width="768px" height="1024px" viewBox="0 0 768 1024" enable-background="new 0 0 768 1024" xml:space="preserve">
<g>
	
		<rect x="406.505" y="121.436" opacity="0.302" fill-rule="evenodd" clip-rule="evenodd" fill="#3490C1" width="121.328" height="44.453"/>
	<g>
		<g>
			<g>
				<path fill="#F2F2F2" d="M430.484,133.098c2.574,3.199,5.923,6.099,10.197,7.349l-1.524,1.549
					c-1.725-0.574-3.225-1.449-4.35-2.199l0.025,1.025l-4.549-0.025l0.025,2.899h6.772l0.025,1.8l-6.823,0.024l0.025,5.999
					l8.947-0.025v1.824h-19.795l-0.025-1.824l8.973,0.025v-6.023l-6.897,0.024l-0.025-1.824h6.923v-2.899l-4.549,0.025v-1.075
					c-1.225,0.8-2.799,1.699-4.549,2.499l-1.274-1.574c3.725-1.675,8.448-4.474,11.247-9.272l1.55,1.05L430.484,133.098z
					 M425.186,151.118c-0.675-1.649-1.45-3.024-2.874-4.349l1.699-0.8c1.05,0.824,2.524,3.074,2.999,4.374L425.186,151.118z
					 M433.658,138.996c-1.375-1.149-3.199-2.799-4.299-4.349c-1.074,1.35-2.85,3.249-4.424,4.299L433.658,138.996z M431.159,150.219
					c1.649-1.175,2.799-2.749,3.624-4.474l1.524,1.1c-0.8,1.725-1.874,3.324-3.449,4.549L431.159,150.219z"/>
				<path fill="#F2F2F2" d="M456.608,132.923v1.8h-13.696v-1.8H456.608z M453.709,143.445h-7.748v10.797h-1.8V141.57h11.348v10.323
					c-0.075,0.824-0.625,1.549-1.325,1.824c-0.8,0.325-1.35,0.275-2.324,0.275l-0.649-1.775c1.05-0.05,1.524,0.25,2.149-0.05
					c0.524-0.25,0.35-1,0.35-2.024V143.445z M445.286,140.596v-4.849h9.048v4.849H445.286z M453.109,146.994v1.8h-2.449v4.024h-1.75
					v-3.999h-2.299v-1.875h1.699c-0.4-0.875-1.225-1.85-2.074-2.225l1.3-0.85c0.85,0.5,1.874,1.5,2.249,2.399l-1.05,0.7l1.375,0.024
					c0.975-1.074,1.324-2.225,1.699-3.199l1.625,0.65c-0.45,0.774-0.95,1.975-1.525,2.574L453.109,146.994z M452.484,137.497h-5.374
					v1.399h5.374V137.497z M458.233,152.993c-0.601,0.175-0.775,0.225-1.475,0.475l-0.875-1.824c1.499-0.325,2.225-0.45,3.274-0.726
					v-4.573h-2.824v-9.272h2.824v-4.999h1.774v4.999h2.874v9.272h-2.874l0.024,4.099l1.45-0.35c-0.175-0.35-0.575-1.024-1.149-1.725
					l1.574-0.575c1,1.15,1.675,2.475,2.1,3.774l0.55,1.649l-1.875,0.65c-0.175-0.875-0.375-1.75-0.574-2.275L458.233,152.993z
					 M459.158,138.871h-1.075v5.648h1.075V138.871z M460.933,144.52h1.225v-5.648h-1.225V144.52z"/>
				<path fill="#F2F2F2" d="M489.807,135.297v1.85h-21.345l-0.024-1.85h9.797c-0.55-0.774-1.449-1.624-2.523-2.149l1.399-1.3
					c1.374,0.65,2.374,1.8,3.274,3.1l-0.4,0.35H489.807z M480.034,142.62l0.025,11.872h-1.925V142.62h-4.874l-0.024,9.298
					l-1.925,0.025v-11.173l6.823-0.024v-2.8l1.925-0.024v2.849h6.974l0.024,8.573c0,1.425-0.524,2.175-2.024,2.175h-2.249
					l-0.625-1.925l2.225,0.1c0.475,0.025,0.749-0.25,0.749-0.624l-0.024-6.449H480.034z"/>
				<path fill="#F2F2F2" d="M496.036,132.598h1.85v6.148h3.124v1.8h-3.149v5.924l3.175-1.1v1.799l-7.599,2.75l-1.1-1.7
					c1.5-0.35,2.949-0.85,3.725-1.1v-6.599h-3.05v-1.749h3.024V132.598z M512.082,133.548v1.55
					c-2.374,2.049-4.674,3.999-6.998,5.599l8.948,0.05c-0.25,3.924-1,9.548-1.65,12.172c-0.475,0.975-1.6,1.399-2.574,1.3
					l-2.249-0.625l-0.325-2.024c1.25,0.375,2.074,0.75,3.024,0.825c0.15-0.025,0.325-0.176,0.399-0.375
					c0.476-1.125,1.3-6.974,1.475-9.598h-1.6c-1.1,5.148-4.424,9.397-7.998,11.946l-1.324-1.399
					c3.299-2.449,6.674-6.349,7.498-10.547h-2.024c-0.899,3.773-4.199,7.248-6.898,8.697l-1.25-1.399
					c2.6-1.449,5.524-4.249,6.273-7.273h-2.749v-1.725c2.225-1.475,5.224-3.874,6.998-5.398h-8.223v-1.75L512.082,133.548z"/>
			</g>
		</g>
	</g>
</g>
<g>
	
		<rect x="57.005" y="121.436" opacity="0.302" fill-rule="evenodd" clip-rule="evenodd" fill="#FFFFFF" width="339.694" height="44.455"/>
	<g>
		<path fill="#F2F2F2" d="M149.222,145.12c-3.5-1.125-6.874-2.199-9.823-4.024c-2.225,1.6-7.923,3.199-10.422,3.849l-1.225-1.649
			c3.699-0.95,7.098-1.825,9.897-3.399c-1.125-0.85-2.399-1.6-3.224-2.899c-1.275,1.449-2.575,2.424-4.274,3.224l-1.4-1.575
			c3.049-1.075,5.524-3.924,6.773-6.523l1.6,0.7c-0.2,0.55-0.475,0.95-0.5,1.025h8.898v1.55c-1.05,1.949-2.974,3.474-4.524,4.574
			c2.375,1.325,5.724,2.399,9.647,3.549L149.222,145.12z M129.527,152.868l-1.325-1.725c3.449-0.775,5.624-2,7.548-3.724l1.2,1.299
			C134.625,150.894,132.326,151.968,129.527,152.868z M140.299,146.694v5.674c0,1.024-0.55,2.024-1.525,2.024h-2.549
			c-0.2-0.65-0.45-1.175-0.725-2l2.449,0.125c0.2,0,0.4-0.2,0.45-0.45v-5.374h-7.498v-1.824h7.498v-1.525h1.9v1.525h7.173v1.824
			H140.299z M135.5,135.672c0.975,1.274,2.424,2.374,3.799,3.224c1.5-0.9,3.049-2.024,3.949-3.224H135.5z M148.922,153.093
			c-2.049-2.174-4.574-3.149-7.498-4.074l1-1.5c2.849,1.025,5.049,1.575,7.698,3.949L148.922,153.093z"/>
		<path fill="#F2F2F2" d="M162.025,149.394l-7.973,2.875c-0.325-0.65-0.675-1.1-0.975-1.825c3.149-1.024,5.874-1.949,8.973-2.999
			L162.025,149.394z M156.426,145.195l0.65-0.075l4.449-0.7l0.05,1.7c-2.225,0.375-4.774,0.875-7.348,1.55l-0.925-1.8
			c1.825-1.399,3.174-3.199,3.924-4.474c-1.024,0.175-2.024,0.5-3.049,0.75l-0.85-1.875c1.4-1.75,3.249-5.449,3.824-8.248
			c0.725,0.3,1.149,0.625,1.824,0.85c-0.875,2.849-1.875,5.148-3.249,6.973c0.625-0.075,1.75-0.125,2.699-0.325
			c0.525-0.975,1.075-1.949,1.6-3.224l1.725,0.95C160.351,140.346,158.876,142.97,156.426,145.195z M174.622,153.518
			c-0.225,0.525-0.875,0.925-1.525,0.725c-2.174-0.7-4.074-2.299-5.374-4.049c-1.025,1.225-4.374,3.075-6.423,3.924l-1.175-1.6
			c2.549-1,4.724-2.274,6.548-3.974c-0.85-1.524-1.2-3.474-1.399-5.199l-3.499,0.85l-0.4-2.05l3.799-0.675v-1.95l-3.024,0.475
			l-0.325-1.774l3.374-0.625v-5.149c0.625-0.125,1.125-0.275,1.85-0.325l-0.025,5.149c1.425-0.2,3.149-0.6,6.073-1l0.05,0.175
			l0.3,1.575c-2.375,0.4-5.199,0.925-6.398,1.175l-0.025,1.899c1.425-0.225,4.299-0.775,7.498-1.35
			c0.175,0.65,0.25,1.175,0.325,1.825l-7.698,1.399c0.25,1.625,0.45,2.85,1.025,4.099c1.25-1.125,2.574-2.475,3.624-3.974
			l1.475,1.025c-1.45,1.725-2.774,3.324-4.224,4.674c0.9,1.375,2.424,2.674,4.024,3.399c0.275-0.7,0.375-1.375,0.425-2.325l1.9,1.05
			C175.222,151.968,174.997,152.643,174.622,153.518z M170.848,136.297c-0.725-0.899-1.9-1.924-3.174-2.474l1.125-1.25
			c1.275,0.6,2.299,1.35,3.349,2.475L170.848,136.297z"/>
		<path fill="#F2F2F2" d="M178.627,153.093v-1.824h7.298v-18.446h1.95v18.446h2.899v-18.446h1.875v18.446h7.248v1.824H178.627z
			 M182.551,148.719c-0.125-3.399-1.275-6.873-2.524-9.697l1.625-0.775c1.275,2.799,2.45,6.298,2.799,9.647L182.551,148.719z
			 M195.223,149.019l-1.6-0.975c1.725-2.274,2.924-6.748,3.099-9.748l1.725,0.625C197.947,142.845,196.873,146.47,195.223,149.019z"
			/>
		<path fill="#F2F2F2" d="M224.646,144.645c-3.599-0.775-6.998-1.75-9.947-3.499c-2.85,1.899-7.273,3.174-11.123,3.774l-0.774-1.8
			c2.999-0.5,5.624-1.174,8.198-2.124c0.675-0.325,1.475-0.725,1.975-1c-1.075-0.825-2.5-1.675-3.374-2.875
			c-1.1,1.3-2.7,2.649-4.574,3.399l-1.424-1.725c3.849-1.425,5.698-3.649,6.873-6.723l1.65,0.925
			c-0.275,0.625-0.525,1.075-0.6,1.225h9.373v1.674c-1.475,1.825-2.974,3-4.524,4.124c0.325,0.25,1.1,0.5,1.8,0.85
			c2.349,0.875,4.824,1.549,7.698,2.099L224.646,144.645z M220.723,152.693c-0.25,0.775-0.9,1.45-1.625,1.65
			c-1.1,0.325-2.225-0.025-3.375-0.2l-0.475-2.174c1.325,0.375,2.274,0.75,3.299,0.6c0.575-0.375,0.625-1.075,0.75-1.799
			c0.225-1.35,0.5-3.074,0.55-3.874h-5.398c-0.4,2.149-2.075,4.199-4.099,5.523c-1.5,1-4.199,1.8-5.824,2.1
			c-0.35-0.625-0.675-1.125-1-1.875c3.174-0.5,6.124-1.25,8.023-3.749c0.525-0.675,0.8-1.425,0.95-2h-7.148v-1.825h7.448
			c0.075-0.6,0-1.05,0.075-2.174l1.85,0.25c-0.025,0.95,0.05,1.375-0.025,1.924h7.098
			C221.748,147.844,221.447,150.394,220.723,152.693z M210.9,136.047c1,1.2,2.35,2,3.749,2.899c1.35-0.875,2.7-1.899,3.649-2.899
			H210.9z"/>
		<path fill="#F2F2F2" d="M242.898,151.243c0,0.35,0.1,0.425,0.5,0.425h2.974c1.275-0.175,1.325-1.4,1.45-2.95l1.975,0.75
			c-0.5,1.524-0.775,3.699-2.625,3.974h-3.999c-1.025,0-2.125-0.6-2.125-1.7v-4.599h-4.199v1.649c-0.2,1.649-1.125,3.174-2.85,3.974
			c-1.799,0.825-3.249,1.274-4.949,1.575l-0.925-1.95c1.475-0.025,2.975-0.35,4.899-1.225c1.025-0.3,1.725-1.375,1.924-2.699v-3.1
			h7.948V151.243z M249.272,142.57v4.674h-1.875v-2.874h-16.521v2.874h-1.899v-4.674H249.272z M229.927,136.047v-1.799h8.123
			c-0.375-0.65-1-1.15-1.65-1.5l2.125-1c0.75,0.85,1.325,1.75,1.675,2.5h8.198v1.799H229.927z M233.301,136.847h11.722v4.924
			h-11.722V136.847z M235.175,138.622v1.375h7.998v-1.375H235.175z"/>
		<path fill="#F2F2F2" d="M254.352,154.567l-1.7-1.424c2.149-1.325,3.474-3.1,4.399-5.224l1.575,0.8
			C257.751,151.343,255.876,153.443,254.352,154.567z M263.95,136.297v2.45h6.848v8.348h-14.171v-8.348h5.423v-6.699h1.9v2.524
			h8.998v1.725H263.95z M268.998,140.471h-10.472v4.898h10.472V140.471z M261.925,153.868c-0.475-1.85-1.225-3.424-2.524-5.024
			l1.625-0.675c1,1.25,2.125,3.125,2.874,5.149L261.925,153.868z M267.273,153.917c-0.7-1.774-1.875-3.724-3.099-5.023l1.6-0.775
			c1.275,1.274,2.575,3.199,3.349,5.099L267.273,153.917z M273.322,154.068c-0.975-1.95-2.6-4.024-4.174-5.299l1.475-1
			c1.75,1.525,3.424,3.375,4.499,5.249L273.322,154.068z"/>
		<path fill="#F2F2F2" d="M283.651,139.946c0.55-0.825,1.075-1.825,1.675-3l1.75,0.8c-1.475,2.949-2.875,5.449-5.124,7.598
			l5.324-1.399v1.85c-1.949,0.475-5.024,1.399-7.523,2.174l-0.9-1.825c1.5-1.5,2.824-3.024,3.549-4.149
			c-0.225,0.05-1.675,0.425-2.7,0.75l-0.975-1.7c1.25-1.975,3.599-5.949,4.224-8.948l2,0.85c-0.675,1.95-2.649,5.924-3.774,7.498
			L283.651,139.946z M278.902,150.793c3-0.975,5.824-1.95,8.898-2.924v1.875l-7.923,2.924L278.902,150.793z M297.623,141.671
			c-0.075,3.099-0.25,8.023-0.7,10.297c-0.15,0.8-0.775,1.424-1.55,1.625c-1.15,0.325-2.424-0.025-3.599-0.2l-0.525-2.099
			c1.3,0.3,2.225,0.55,3.199,0.6c0.225-0.025,0.575,0.075,0.65-0.425c0.2-1.375,0.3-2.625,0.375-4.099
			c0.075-1.125,0.225-2.749,0.2-3.874h-2.849c-0.075,3.149-0.575,6.849-3.499,9.123c-0.95,0.725-1.95,1.35-3.199,1.85l-1.325-1.65
			c2.174-0.725,4.124-1.924,5.074-3.899c0.4-0.825,0.7-1.825,0.825-2.824c0.1-0.85,0.15-2,0.175-2.6h-2.149v-1.824H297.623z
			 M285.5,141.446c2.524-1.675,4.649-5.524,4.899-8.398l1.774,0.725c-0.25,3.049-2.524,6.999-4.949,8.898L285.5,141.446z
			 M299.222,142.871c-2.674-1.8-4.849-5.699-5.674-9.073l1.7-0.8c0.9,3.374,2.75,6.648,5.523,8.348L299.222,142.871z"/>
		<path fill="#F2F2F2" d="M313.25,146.895v-2.424h-8.023v-1.8h17.271v1.8h-7.373v2.424h6.773v1.824h-6.773v2.7h9.448v1.799h-20.82
			v-1.799h9.498v-2.7h-7.374v-1.824H313.25z M306.977,133.473h14.146v7.748h-14.146V133.473z M319.224,135.297h-10.373v4.124h10.373
			V135.297z"/>
	</g>
</g>
</svg>
