<?xml version="1.0" encoding="utf-8"?>
<!-- Generator: Adobe Illustrator 16.0.0, SVG Export Plug-In . SVG Version: 6.00 Build 0)  -->
<!DOCTYPE svg PUBLIC "-//W3C//DTD SVG 1.1//EN" "http://www.w3.org/Graphics/SVG/1.1/DTD/svg11.dtd">
<svg version="1.1" id="Layer_1" xmlns="http://www.w3.org/2000/svg" xmlns:xlink="http://www.w3.org/1999/xlink" x="0px" y="0px"
	 width="768px" height="1024px" viewBox="0 0 768 1024" enable-background="new 0 0 768 1024" xml:space="preserve">
<g>
	<path fill="#F2F2F2" d="M567.983,142.625h2.652c-0.272-0.68-1.071-1.733-1.819-2.396l0.936-0.731
		c0.663,0.477,1.529,1.462,2.243,2.72l-0.526,0.374l2.073,0.034c0.595-0.578,1.377-1.836,1.785-3.025l1.189,0.561
		c-0.407,1.054-1.07,2.091-1.428,2.465h2.839v6.068h-4.317v1.394h6.833v1.19h-6.851v3.502h-1.258v-3.485h-6.714v-1.189h6.731v-1.411
		h-4.369V142.625z M572.335,146.229h-3.076v1.292h3.076V146.229z M572.353,144.988v-1.14h-3.077v1.14H572.353z M573.593,143.849
		v1.14h3.094v-1.14H573.593z M576.67,146.212h-3.06v1.309h3.06V146.212z"/>
	<path fill="#F2F2F2" d="M582.384,147.146c2.702-2.617,3.212-5.422,4.063-7.36l1.173,0.544c-0.442,1.326-0.867,2.55-1.36,3.688V155
		h-1.309v-8.771c-0.102,0.153-0.867,1.173-1.411,1.751L582.384,147.146z M597.784,153.946l-10.642,0.017v-1.274h4.59
		c1.36-2.414,2.516-4.93,2.686-7.989l1.292,0.492c-0.187,2.567-1.292,5.083-2.532,7.497h4.589L597.784,153.946z M587.534,144.529
		l-0.018-1.275l9.417-0.017v1.274L587.534,144.529z M590.321,151.787c-0.067-2.38-0.662-4.267-1.836-6.238l1.36-0.289
		c1.088,1.921,1.683,3.961,1.853,6.256L590.321,151.787z M590.917,139.752c0.866,0.562,1.887,1.854,2.328,2.873l-1.224,0.544
		c-0.493-1.122-1.173-1.988-2.295-2.72L590.917,139.752z"/>
	<path fill="#F2F2F2" d="M606.233,144.716v-1.836h1.836v1.836H606.233z M606.233,151.821v-1.836h1.836v1.836H606.233z"/>
	<path fill="#F2F2F2" d="M621.534,140.178c-0.289,1.869-0.816,3.519-1.479,5.048v9.655h-1.292l0.018-7.479
		c-0.51,0.851-1.037,1.343-1.717,1.938l-0.833-1.021c1.938-1.733,2.975-3.842,3.62-6.085c0.188-0.663,0.392-1.462,0.578-2.533
		L621.534,140.178z M631.682,151.464c-0.34,1.564-0.629,2.516-1.529,2.516l-7.803,0.018c-0.221,0-0.663-0.238-0.935-0.646
		c-0.307-0.492-0.442-1.258-0.153-1.768c2.006-2.736,5.456-7.139,7.31-9.196h-6.562v-1.224h8.482l-0.034,1.19
		c-2.839,3.025-5.423,6.374-7.684,9.365c-0.136,0.238-0.34,0.442-0.271,0.714c0.017,0.153,0.237,0.222,0.356,0.289h6.834
		c0.203,0,0.356-0.118,0.459-0.271c0.152-0.391,0.152-0.884,0.255-1.547L631.682,151.464z"/>
	<path fill="#F2F2F2" d="M643.684,152.145c0,0.476,0.34,0.68,0.646,0.68h2.006c0.493,0,0.663-1.19,0.952-2.55l1.309,0.425
		c-0.136,0.833-0.322,1.598-0.595,2.261c-0.255,0.612-0.884,1.173-1.547,1.173h-2.38c-1.41,0-1.75-1.241-1.75-2.176v-5.711
		l-2.159-0.018c0.051,4.946-2.295,7.021-5.304,8.703l-0.935-1.292c2.991-1.563,4.878-3.246,4.861-7.411h-3.893v-1.292l12.8,0.018
		v1.292l-4.012-0.018V152.145z M636.341,140.755h9.943v1.292h-9.943V140.755z"/>
	<path fill="#F2F2F2" d="M650.825,153.997h-1.207l3.519-12.579h1.207L650.825,153.997z"/>
	<path fill="#F2F2F2" d="M655.772,142.523v-1.275h14.856v1.292h-8.822c0,0.969-0.018,1.785-0.068,2.481h6.289
		c-0.221,3.417-0.662,6.409-1.462,8.721c-0.187,0.526-0.73,1.003-1.309,1.088c-0.781,0.136-1.394-0.255-2.073-0.493l-0.272-1.581
		c0.477,0.136,0.714,0.374,0.936,0.477c0.441,0.136,1.07,0.611,1.291,0.067c0.97-2.38,1.225-4.402,1.445-6.986h-4.912
		c-0.052,0.493-0.119,0.952-0.222,1.479c-0.578,2.805-2.192,5.677-4.93,7.309l-1.121-1.104c2.073-1.122,3.519-3.06,4.3-4.964
		c0.697-1.733,0.681-4.249,0.731-6.51H655.772z"/>
	<path fill="#F2F2F2" d="M680.762,142.217l4.997,0.034v5.457h-1.359v-0.681h-8.618c0.051,3.791-0.442,5.848-2.396,7.888
		l-1.173-0.918c1.75-1.513,2.243-3.399,2.243-5.524v-6.222h5.474c-0.204-0.493-1.037-1.224-2.091-1.938l0.952-0.833
		c0.781,0.595,1.818,1.343,2.532,2.346L680.762,142.217z M684.434,145.787v-2.278h-8.652v2.278H684.434z"/>
	<path fill="#F2F2F2" d="M689.5,153.997h-1.207l3.519-12.579h1.207L689.5,153.997z"/>
	<path fill="#F2F2F2" d="M700.396,149.526c-1.225,2.006-2.992,3.502-5.032,4.776l-0.9-1.054c1.598-0.816,3.893-2.754,4.912-4.487
		L700.396,149.526z M706.584,148.285h-9.928l-0.017-7.513h9.944V148.285z M705.189,142.064l-7.173,0.017v4.896l7.173-0.017V142.064z
		 M703.575,148.829c2.481,1.292,3.468,2.499,5.031,4.573l-1.104,0.799c-1.105-1.921-3.196-3.757-4.913-4.471L703.575,148.829z"/>
</g>
</svg>
