<?xml version="1.0" encoding="utf-8"?>
<!-- Generator: Adobe Illustrator 16.0.0, SVG Export Plug-In . SVG Version: 6.00 Build 0)  -->
<!DOCTYPE svg PUBLIC "-//W3C//DTD SVG 1.1//EN" "http://www.w3.org/Graphics/SVG/1.1/DTD/svg11.dtd">
<svg version="1.1" id="Layer_1" xmlns="http://www.w3.org/2000/svg" xmlns:xlink="http://www.w3.org/1999/xlink" x="0px" y="0px"
	 width="768px" height="1024px" viewBox="0 0 768 1024" enable-background="new 0 0 768 1024" xml:space="preserve">
<g>
	<line fill="none" stroke="#F2F2F2" stroke-miterlimit="10" x1="162.042" y1="460.783" x2="323.927" y2="460.783"/>
	<g>
		<path fill="#F2F2F2" d="M157.513,485.821c3.136-2.008,5.507-5.01,6.615-8.451h-5.544v-1.186l7.074,0.02l0.019-3.078h1.224
			l-0.019,3.078l7.074-0.02v1.186l-5.373,0.02c0.306,1.07,0.784,2.103,1.339,3.078c1.204,2.103,3.097,3.9,5.143,5.2l-0.88,0.994
			c-2.064-1.453-4.129-3.479-5.353-5.697c-0.631-1.128-1.147-2.371-1.568-3.575h-0.344v7.055l3.785-0.019v1.166h-3.785v4.837h-1.205
			l-0.019-4.837h-3.9v-1.166l3.9,0.019v-7.074l-0.345,0.02c-0.975,3.23-3.001,6.137-5.697,8.412l-1.128,0.956L157.513,485.821z"/>
		<path fill="#F2F2F2" d="M180.095,482.627c-0.573,0.535-1.74,1.3-2.256,1.663c-0.363-0.344-0.765-0.611-1.032-0.937
			c2.352-1.338,4.34-3.556,5.889-5.755l0.975,0.65c-0.478,0.86-1.587,2.18-2.371,3.097v8.986h-1.204V482.627z M182.791,473.546
			c-1.242,1.893-2.791,3.861-4.703,5.219c-0.096,0.039-0.057-0.096-0.134-0.114l-0.86-0.746c1.932-1.338,3.537-3.116,4.78-5.066
			L182.791,473.546z M184.129,480.238v-1.166l9.847,0.019v1.147h-3.519v8.45c-0.096,0.612-0.325,1.014-0.783,1.301
			c-0.345,0.21-0.784,0.229-1.205,0.229h-2.064c-0.115-0.401-0.287-0.784-0.383-1.205c0.842,0.077,1.721,0.077,2.581,0.058
			c0.249-0.058,0.517-0.191,0.574-0.612v-8.221H184.129z M192.771,475.477h-8.183v-1.166h8.183V475.477z"/>
		<path fill="#F2F2F2" d="M200.191,477.905c-0.497,1.453-1.721,2.85-2.715,3.824l-0.937-0.822c1.052-0.879,2.16-2.064,2.887-3.518
			L200.191,477.905z M196.979,474.024c0.211-0.268,0.479-0.439,0.727-0.707c0.918,0.401,1.74,1.09,2.391,1.931
			c-0.249,0.306-0.593,0.555-0.86,0.841C198.624,475.267,197.801,474.521,196.979,474.024z M205.373,483.526
			c0.076,1.912-0.21,3.748-1.778,4.972c-1.721,1.357-3.881,1.605-6.061,1.739l-0.535-1.128c2.619-0.172,4.569-0.172,6.386-2.026
			c0.88-0.918,0.822-2.333,0.88-3.557H205.373z M201.281,487.292h-1.185V481.5h0.994l-0.65-0.937
			c1.683-0.479,3.136-0.898,4.244-1.932c0.804-0.745,1.339-1.683,1.683-2.619l1.014,0.363l-0.211,0.593
			c1.263,2.352,3.652,3.365,5.984,3.996l-0.803,0.994c-3.154-0.86-4.741-2.523-5.717-3.843c-1.051,1.873-3.097,2.867-5.009,3.346
			l7.915,0.038v5.813h-1.166v-4.703h-7.094V487.292z M205.163,473.565c-0.077,0.287-0.115,0.669-0.229,0.86h6.825
			c0.153,1.262-0.401,2.199-0.956,3.136c-0.152,0.096-0.229,0.535-0.459,0.306l-0.86-0.535c0.459-0.535,0.842-1.128,1.052-1.778
			h-6.176c-0.611,1.128-1.567,2.142-2.657,2.868l-0.784-0.898c1.587-0.918,2.772-2.677,3.308-4.397L205.163,473.565z
			 M205.946,486.873c1.894,0.573,3.729,1.146,5.679,2.428c-0.172,0.344-0.459,0.707-0.688,1.014
			c-1.663-1.186-3.575-1.894-5.525-2.429L205.946,486.873z"/>
		<path fill="#F2F2F2" d="M221.416,480.162c-0.439-0.899-1.128-1.798-1.74-2.563l0.899-0.535c0.821,0.822,1.548,1.797,2.007,2.715
			c-0.229,0.076-0.401,0.287-0.611,0.383l2.772,0.038c0.459-0.688,1.146-1.606,1.625-3.116c0.382,0.134,0.765,0.286,1.146,0.478
			c-0.42,1.052-0.955,1.97-1.472,2.601h5.487v1.07h-12.905l-0.02,3.729c-0.363,2.753-1.587,4.072-2.887,5.22
			c-0.306-0.249-0.593-0.555-0.86-0.822c0.937-0.784,2.064-2.065,2.505-3.633c0.095-0.956,0.134-3.519,0.114-5.563H221.416z
			 M224.513,475.668l6.997,0.038v1.052h-15.734v-1.033h8.049c-0.459-0.803-1.109-1.529-1.912-2.256l0.956-0.516
			c0.765,0.765,1.434,1.434,2.142,2.447L224.513,475.668z"/>
		<path fill="#F2F2F2" d="M237.63,483.583c-0.822,0.268-1.453,0.612-2.352,1.014c-0.287-0.307-0.611-0.688-0.956-0.956
			c1.128-0.439,2.142-0.842,3.346-1.415l-0.019-4.11h-2.811l-0.02-1.128h2.772v-3.844h1.243l0.019,3.844l2.104,0.019v1.128
			l-2.104-0.019v3.633c0.612-0.269,1.281-0.593,2.199-1.014c0.019,0.421,0.019,0.86,0,1.281c-0.746,0.344-1.128,0.459-2.218,0.994
			l-0.02,5.086c0,0.707,0.038,1.605-0.669,2.026c-0.669,0.401-1.606,0.191-2.429,0.248c-0.114-0.42-0.286-0.783-0.401-1.204
			c0.688,0,1.415,0.134,2.065,0c0.363-0.401,0.248-1.014,0.248-1.568V483.583z M246.12,489.702c-0.842,0-1.396-0.573-1.587-1.147
			l-0.115-0.649v-5.354c-0.286,0.096-0.631,0.152-0.937,0.21c-0.611,0.134-1.242,0.211-1.854,0.363
			c-0.076-0.363-0.172-0.765-0.248-1.146l3.021-0.612v-4.799c-0.593,0.096-1.128,0.325-1.721,0.382
			c-0.287,0.039-0.555,0.096-0.842,0.115c-0.229-0.421-0.439-0.746-0.669-1.147c3.078-0.268,5.583-1.338,8.126-2.523
			c0.306,0.325,0.516,0.669,0.784,0.937c-0.345,0.211-0.727,0.363-1.09,0.535c-1.09,0.479-2.218,0.918-3.327,1.281l0.02,4.99
			l5.124-1.09c0.114,0.363,0.134,0.765,0.248,1.128l-0.114,0.038l-3.844,0.784c-0.478,0.096-0.956,0.191-1.414,0.325v5.143
			c-0.039,0.402,0.057,0.784,0.439,0.976l0.421,0.076h2.256c0.248,0,0.363-0.191,0.535-0.325c0.287-0.458,0.401-0.994,0.535-1.529
			c0.076-0.306,0.076-0.593,0.172-0.879c0.345,0.19,0.727,0.363,1.052,0.573c-0.152,0.745-0.363,1.491-0.593,2.218
			c-0.191,0.555-0.688,1.128-1.491,1.128H246.12z"/>
		<path fill="#F2F2F2" d="M256.408,475.687c-0.517,0.708-1.224,1.453-1.97,1.988c-0.382-0.286-0.707-0.516-0.994-0.821
			c1.473-0.938,2.447-2.486,3.136-3.939c0.325,0.153,0.669,0.325,1.014,0.479c-0.173,0.382-0.363,0.803-0.555,1.166h5.2v1.109
			l-3.174,0.019c0.325,0.325,0.573,0.898,0.822,1.262l-1.07,0.574c-0.268-0.65-0.612-1.262-1.128-1.836H256.408z M254.266,478h7.322
			c-0.268-0.497-0.669-0.994-1.089-1.415l1.089-0.344c0.555,0.535,0.995,1.339,1.301,1.759h6.959v3.403l-1.186-0.019v-2.275h-13.211
			l-0.02,2.37h-1.166V478z M258.09,490.448h-1.263l0.02-10.038h10.306v3.729l-9.101,0.019v1.281h9.979v4.952h-1.224v-1.166h-8.737
			L258.09,490.448z M258.052,483.029h7.915l-0.02-1.51h-7.896V483.029z M258.071,486.566l0.02,1.606l8.737-0.02v-1.605
			L258.071,486.566z M267.057,475.591c0.382,0.383,0.803,0.822,1.052,1.281c-0.307,0.211-0.688,0.401-1.052,0.555
			c-0.325-0.65-0.727-1.281-1.301-1.836h-1.434c-0.306,0.517-0.669,1.109-1.108,1.473c-0.325-0.229-0.631-0.421-0.956-0.669
			c0.994-1.033,1.549-2.218,1.873-3.537l1.052,0.401c-0.096,0.421-0.21,0.822-0.344,1.224h5.449l-0.02,1.108H267.057z"/>
		<path fill="#F2F2F2" d="M280.002,480.162v1.07h-2.829c-0.229,3.862-2.353,6.673-4.054,8.699c-0.268-0.306-0.612-0.631-0.88-0.86
			c1.568-1.74,3.27-4.417,3.786-7.839h-3.441v-1.09h3.46c0.058-0.975,0-1.95,0-2.964h-2.905v-1.108h2.887l0.019-3.002
			c0.383-0.038,0.766-0.019,1.167-0.019c-0.02,1.051-0.02,1.931,0,3.001h2.447v1.109h-2.409c0.019,1.166,0.019,2.256-0.038,3.002
			H280.002z M284.935,476.28c-0.114,2.142-0.306,3.671-0.649,5.603c-0.766,4.264-2.639,6.52-6.998,8.259
			c-0.268-0.306-0.535-0.727-0.727-1.032c2.409-0.937,4.799-2.084,5.946-5.104c0.86-2.256,1.186-5.028,1.338-7.896L284.935,476.28z
			 M277.727,483.24c1.09,0.649,2.199,1.816,2.83,2.925c-0.287,0.249-0.593,0.535-0.918,0.708c-0.555-1.167-1.605-2.199-2.657-2.964
			L277.727,483.24z M286.943,484.597v-9.693h-5.334v9.693h-1.128v-10.765h7.59v10.765H286.943z M285.795,489.396
			c-1.052,0-1.549-0.669-1.549-1.224v-5.066h1.129v4.933c0.038,0.134,0.172,0.229,0.306,0.268h2.447
			c0.516-0.325,0.382-1.052,0.593-1.568l0.057-0.306c0.307,0.077,0.632,0.287,0.938,0.421c-0.211,0.937-0.268,2.313-1.491,2.543
			H285.795z"/>
		<path fill="#F2F2F2" d="M297.155,483.775c-0.287-0.822-0.766-1.702-1.339-2.371v8.986h-1.204v-8.298
			c-0.536,1.357-1.224,2.811-2.161,3.977l-0.956-0.841c1.912-2.619,2.696-4.321,3.098-7.189h-2.543v-1.146h2.563v-3.805h1.204v3.805
			h2.122v1.146h-2.122v2.447l0.517-0.286c0.803,0.994,1.414,1.854,1.854,2.925L297.155,483.775z M302.183,485.266
			c0.152-0.478,0.248-0.937,0.286-1.434h-3.785v-5.794h8.737v5.794h-3.824c-0.057,0.497-0.152,0.956-0.268,1.434h5.01v1.108h-4.034
			c1.166,1.95,3.116,2.62,4.895,2.983l-0.65,0.975c-2.237-0.306-4.589-1.739-5.43-3.938h-0.115
			c-1.013,2.122-3.288,3.384-5.372,3.938l-0.669-1.032c1.835-0.421,3.689-1.224,4.779-2.926h-4.015v-1.108H302.183z M301.323,476.07
			v1.511h-1.186v-1.511h-2.772v-1.147h2.772v-1.893h1.186v1.893h3.441v-1.893h1.185v1.893h2.754v1.147h-2.754v1.511h-1.185v-1.511
			H301.323z M306.217,479.167h-6.329v1.185h6.329V479.167z M299.888,481.442v1.262h6.329v-1.262H299.888z"/>
		<path fill="#F2F2F2" d="M323.904,489.32h-8.871v1.108h-1.166v-11.624h4.588c0.363-0.708,0.517-1.243,0.67-2.065h-7.667v-1.108
			h4.913c-0.382-0.688-1.318-1.74-2.045-2.123l1.204-0.631c0.956,0.784,1.74,1.74,2.18,2.754h3.518
			c0.976-1.09,1.645-2.199,1.854-2.734l1.128,0.535c-0.42,0.803-0.917,1.511-1.587,2.199h4.876v1.108h-7.17
			c-0.134,0.803-0.325,1.529-0.593,2.065h5.334v11.586h-1.166V489.32z M315.033,479.894v1.969h8.871v-1.969H315.033z
			 M323.904,484.999v-2.084h-8.871v2.084H323.904z M315.033,486.05v2.18h8.871v-2.18H315.033z"/>
		<path fill="#F2F2F2" d="M192.727,509.303c-0.573,2.39-1.529,4.55-3.098,6.482l-0.076,0.076c-0.363-0.268-0.669-0.535-1.014-0.803
			c1.319-1.549,2.18-3.308,2.792-5.143c0.268-0.822,0.459-1.664,0.593-2.524c0.382,0.153,0.727,0.363,1.09,0.555L192.727,509.303z
			 M189.84,500.165c0.611,0.325,1.204,0.822,1.739,1.28c0.67,0.593,1.167,1.319,1.549,2.027c-0.325,0.268-0.688,0.516-1.032,0.765
			c-0.688-1.357-1.912-2.543-3.212-3.327L189.84,500.165z M199.686,505.728c-0.038,0.86-0.076,1.797-0.21,2.657
			c0.707,2.18,1.854,4.531,4.015,5.755c0.784,0.459,1.587,0.879,2.447,1.146c-0.268,0.363-0.535,0.727-0.803,1.109
			c-2.007-0.727-4.092-2.123-5.143-4.129c-0.383-0.574-0.67-1.224-0.918-1.816c-1.014,2.715-3.671,4.817-6.156,6.022
			c-0.363-0.268-0.555-0.611-0.88-0.898c1.549-0.727,2.944-1.74,4.226-3.002c0.727-0.936,1.415-1.874,1.721-3.02
			c0.344-1.319,0.439-2.715,0.517-4.092L199.686,505.728z M202.363,506.378c0.479-0.994,0.842-2.027,1.033-3.174l-6.387,0.019
			c-0.535,1.549-1.318,2.964-2.352,4.302c-0.382-0.229-0.765-0.439-1.146-0.631c0.497-0.707,1.032-1.415,1.453-2.198
			c0.86-1.664,1.472-3.479,1.759-5.373l1.204,0.191c-0.114,0.842-0.363,1.683-0.555,2.505l7.553,0.019
			c-0.211,1.702-0.574,3.308-1.377,4.78L202.363,506.378z"/>
		<path fill="#F2F2F2" d="M209.343,509.628h5.927c0.229-0.88,0.269-1.97,0.307-2.849l1.186,0.21
			c-0.039,0.898-0.096,1.797-0.269,2.639h7.094v1.147h-5.507c1.224,2.658,4.437,4.015,6.902,4.531l-0.707,1.109
			c-4.551-1.281-6.73-3.557-7.419-5.64h-0.631c-1.128,3.134-4.512,4.761-7.438,5.525l-0.669-1.127
			c2.639-0.67,5.583-1.875,6.788-4.398h-5.564V509.628z M216.705,501.445c-0.746-0.86-1.759-1.472-2.772-1.835l0.976-0.727
			c0.937,0.249,2.198,1.09,2.887,1.816l-0.938,0.707l7.113,0.038v3.213h-1.205v-2.065h-12.542v2.065h-1.205v-3.213H216.705z
			 M209.515,507.277c2.295-0.746,3.806-2.161,5.163-4.321l0.917,0.765c-1.338,2.084-2.772,3.633-5.354,4.608L209.515,507.277z
			 M222.517,507.926c-1.147-1.815-3.04-2.944-5.182-4.187l0.707-0.822c2.295,1.147,4.283,2.543,5.335,4.13L222.517,507.926z
			 M219.037,506.894c1.224,0.191,2.218,0.88,3.078,1.645l-0.707,0.88c-0.688-0.766-1.95-1.549-3.059-1.664L219.037,506.894z"/>
		<path fill="#F2F2F2" d="M228.79,507.888c-0.325,0.574-0.727,1.071-1.128,1.587l-0.937-0.745c1.224-1.606,2.294-3.289,2.695-5.277
			c0.115-0.611,0.287-1.262,0.363-1.931l-2.447,0.019v-1.146h6.367v1.128h-2.734c-0.096,0.268-0.076,0.478-0.134,0.745
			c-0.172,0.956-0.383,1.95-0.707,2.83h2.944v7.59l-3.04,0.02v1.357h-1.243V507.888z M231.925,511.559l0.019-5.334h-1.969v5.334
			H231.925z M243.626,516.34c-0.345-0.039-0.67-0.211-0.994-0.346c-1.205-0.516-2.295-1.451-3.27-2.408
			c-1.243,1.262-2.792,2.199-4.321,2.945l-0.765-1.053c1.567-0.611,3.06-1.568,4.359-2.791c-1.032-1.454-1.798-3.193-2.16-4.933
			h-0.727c-0.077,0.956-0.096,1.95-0.249,2.888c-0.344,2.122-1.281,4.014-2.562,5.715c-0.383-0.209-0.727-0.496-1.071-0.764
			c0.842-1.033,1.549-2.123,1.988-3.346c0.287-0.765,0.421-1.605,0.517-2.466c0.134-1.186,0.191-2.353,0.191-3.595v-4.513h3.767
			v-2.619h1.146v2.601h3.938c-0.038,1.319-0.382,2.619-0.86,3.805l-1.09-0.249c0.307-0.783,0.574-1.587,0.727-2.428l-2.677-0.02
			v3.824h3.04c-0.057,2.333-0.994,4.397-2.428,6.156c1.108,1.262,2.543,2.199,4.11,2.602L243.626,516.34z M238.349,506.588
			l-0.019-3.785h-2.563v3.785H238.349z M237.661,507.716c0.325,1.606,0.804,3.04,1.74,4.034c1.243-1.242,1.549-2.601,1.835-4.034
			H237.661z"/>
		<path fill="#55B5E2" d="M245.826,515.154c0.109-0.891,0.218-1.26,0.521-1.869c0.587-1.173,1.586-2.303,3.15-3.585l0.718-0.587
			c2.868-2.346,3.954-3.824,3.954-5.301c0-1.564-1.238-2.695-2.934-2.695c-1.868,0-3.02,1.174-3.041,3.129l-1.956-0.217
			c0.261-2.912,2.042-4.498,5.041-4.498c2.89,0,4.867,1.76,4.867,4.324c0,1.847-1.087,3.498-3.824,5.802l-1.564,1.325
			c-1.282,1.086-1.804,1.651-2.238,2.346h7.648v1.826H245.826z"/>
		<path fill="#55B5E2" d="M259.127,500.748v-1.629h18.991v1.65h-11.277c0,1.239-0.021,2.282-0.087,3.173h8.04
			c-0.283,4.367-0.848,8.191-1.869,11.146c-0.239,0.674-0.935,1.283-1.673,1.391c-1,0.174-1.782-0.324-2.651-0.629l-0.348-2.021
			c0.608,0.174,0.913,0.479,1.195,0.609c0.564,0.174,1.369,0.781,1.651,0.086c1.238-3.042,1.564-5.627,1.847-8.93h-6.279
			c-0.065,0.63-0.152,1.217-0.282,1.891c-0.739,3.585-2.804,7.256-6.302,9.342l-1.434-1.412c2.65-1.434,4.498-3.911,5.497-6.344
			c0.891-2.217,0.869-5.432,0.935-8.322H259.127z"/>
		<path fill="#F2F2F2" d="M283.816,505.345v11.071h-1.186v-8.814h-0.038c-0.573,0.975-1.396,1.739-2.064,2.313l-0.784-0.938
			c2.16-1.931,3.422-4.416,4.13-7.035c0.248-0.918,0.421-1.874,0.611-2.792c0.345,0.134,0.688,0.306,1.033,0.459
			C285.211,501.636,284.6,503.529,283.816,505.345z M295.651,515.363h-9.158c-0.268-0.113-0.611-0.363-0.822-0.668
			c-0.401-0.479-0.478-1.32-0.172-1.855c2.313-3.173,6.31-8.278,8.699-10.917h-8.049v-1.109h9.77l-0.038,1.167
			c-3.25,3.479-6.252,7.36-8.891,10.839c-0.153,0.27-0.401,0.555-0.344,0.918c0.057,0.287,0.382,0.383,0.535,0.479h7.973
			c0.287,0,0.517-0.191,0.669-0.4c0.191-0.498,0.191-1.072,0.268-1.626l1.109,0.574h0.076
			C297.104,513.777,296.817,515.039,295.651,515.363z"/>
	</g>
	<g>
		<g>
			<path fill="#FFFFFF" d="M234.558,450.32h-6.827c0.015-1.643,0.857-2.885,2.2-3.785c1.299-0.943,2.984-1.728,3.014-3.285
				c0.014-0.714-0.286-1.771-1.686-1.771c-1.285,0-1.671,1.1-1.714,2.5h-1.628c0-2.214,1.214-3.856,3.441-3.856
				c2.442,0,3.214,1.785,3.214,3.07c0,1.585-1.086,2.571-2.229,3.371c-1.156,0.8-2.37,1.414-2.656,2.299h4.87V450.32z"/>
			<path fill="#FFFFFF" d="M242.567,445.321c0,2.271-0.586,5.199-3.456,5.199c-2.871,0-3.456-2.928-3.456-5.199
				c0-2.271,0.585-5.198,3.456-5.198C241.981,440.123,242.567,443.051,242.567,445.321z M240.939,445.321
				c0-2.085-0.4-3.842-1.828-3.842c-1.429,0-1.828,1.757-1.828,3.842c0,2.085,0.399,3.842,1.828,3.842
				C240.539,449.164,240.939,447.407,240.939,445.321z"/>
			<path fill="#FFFFFF" d="M243.707,441.979c1.371,0.014,2.671-0.457,2.914-1.657h1.328v9.998h-1.785v-7.056h-2.457V441.979z"/>
			<path fill="#FFFFFF" d="M252.673,440.323h5.17v1.457h-3.956l-0.515,2.542l0.029,0.029c0.442-0.486,1.171-0.757,1.842-0.757
				c1.985,0,3.128,1.428,3.128,3.342c0,1.6-0.999,3.585-3.456,3.585c-1.928,0-3.428-1.043-3.499-3.042h1.628
				c0.1,1.071,0.785,1.686,1.843,1.686c1.385,0,1.856-0.986,1.856-2.2c0-1.1-0.586-2.085-1.899-2.085
				c-0.686,0-1.356,0.214-1.614,0.914h-1.628L252.673,440.323z"/>
		</g>
	</g>
	<g>
		<g>
			<path fill="#FFFFFF" d="M295.092,450.32h-6.827c0.015-1.643,0.857-2.885,2.2-3.785c1.3-0.943,2.984-1.728,3.013-3.285
				c0.015-0.714-0.285-1.771-1.685-1.771c-1.286,0-1.671,1.1-1.714,2.5h-1.629c0-2.214,1.215-3.856,3.442-3.856
				c2.442,0,3.214,1.785,3.214,3.07c0,1.585-1.086,2.571-2.229,3.371c-1.156,0.8-2.371,1.414-2.656,2.299h4.87V450.32z"/>
			<path fill="#FFFFFF" d="M303.102,445.321c0,2.271-0.586,5.199-3.456,5.199c-2.871,0-3.457-2.928-3.457-5.199
				c0-2.271,0.586-5.198,3.457-5.198C302.516,440.123,303.102,443.051,303.102,445.321z M301.474,445.321
				c0-2.085-0.4-3.842-1.828-3.842c-1.429,0-1.828,1.757-1.828,3.842c0,2.085,0.399,3.842,1.828,3.842
				C301.073,449.164,301.474,447.407,301.474,445.321z"/>
			<path fill="#FFFFFF" d="M304.241,441.979c1.371,0.014,2.671-0.457,2.914-1.657h1.328v9.998h-1.785v-7.056h-2.457V441.979z"/>
			<path fill="#FFFFFF" d="M317.092,442.851c-0.071-0.814-0.614-1.371-1.457-1.371c-1.771,0-1.971,2.114-2.071,3.428l0.029,0.029
				c0.442-0.786,1.271-1.186,2.156-1.186c1.985,0,3.156,1.442,3.156,3.356c0,1.942-1.328,3.414-3.327,3.414
				c-2.942,0-3.643-2.314-3.643-5.228c0-2.385,0.942-5.17,3.771-5.17c1.586,0,2.928,1.1,3.014,2.728H317.092z M317.277,447.078
				c0-1.071-0.586-2.042-1.757-2.042c-1.186,0-1.8,0.942-1.8,2.042c0,1.085,0.614,2.085,1.8,2.085
				C316.691,449.164,317.277,448.149,317.277,447.078z"/>
		</g>
	</g>
	
		<rect x="281.983" y="277.628" opacity="0.698" fill-rule="evenodd" clip-rule="evenodd" fill="#328EC0" width="42.873" height="151.07"/>
	<g>
		<g>
			<path fill="#FFFFFF" d="M174.122,450.32h-6.827c0.015-1.643,0.857-2.885,2.2-3.785c1.299-0.943,2.984-1.728,3.014-3.285
				c0.014-0.714-0.286-1.771-1.686-1.771c-1.285,0-1.671,1.1-1.714,2.5h-1.628c0-2.214,1.214-3.856,3.441-3.856
				c2.442,0,3.214,1.785,3.214,3.07c0,1.585-1.086,2.571-2.229,3.371c-1.156,0.8-2.37,1.414-2.656,2.299h4.87V450.32z"/>
			<path fill="#FFFFFF" d="M182.132,445.321c0,2.271-0.586,5.199-3.456,5.199c-2.871,0-3.456-2.928-3.456-5.199
				c0-2.271,0.585-5.198,3.456-5.198C181.546,440.123,182.132,443.051,182.132,445.321z M180.504,445.321
				c0-2.085-0.4-3.842-1.828-3.842c-1.429,0-1.828,1.757-1.828,3.842c0,2.085,0.399,3.842,1.828,3.842
				C180.104,449.164,180.504,447.407,180.504,445.321z"/>
			<path fill="#FFFFFF" d="M183.271,441.979c1.371,0.014,2.671-0.457,2.914-1.657h1.328v9.998h-1.785v-7.056h-2.457V441.979z"/>
			<path fill="#FFFFFF" d="M197.936,447.949h-1.285v2.371h-1.542v-2.371h-4.285v-1.614l4.285-6.013h1.542v6.341h1.285V447.949z
				 M192.08,446.664h3.028v-4.399h-0.029L192.08,446.664z"/>
		</g>
	</g>
	<g>
		<g>
			<path fill="#FFFFFF" d="M288.688,267.84h-7.549c0.016-1.816,0.947-3.19,2.432-4.186c1.438-1.042,3.301-1.91,3.332-3.632
				c0.017-0.79-0.315-1.958-1.863-1.958c-1.421,0-1.848,1.216-1.895,2.764h-1.801c0-2.448,1.343-4.265,3.806-4.265
				c2.701,0,3.554,1.975,3.554,3.396c0,1.753-1.2,2.843-2.464,3.728c-1.279,0.884-2.621,1.563-2.938,2.542h5.386V267.84z"/>
			<path fill="#FFFFFF" d="M297.503,262.313c0,2.511-0.647,5.748-3.821,5.748c-3.175,0-3.822-3.237-3.822-5.748
				s0.647-5.749,3.822-5.749C296.855,256.564,297.503,259.802,297.503,262.313z M295.703,262.313c0-2.306-0.442-4.248-2.021-4.248
				s-2.021,1.942-2.021,4.248s0.442,4.248,2.021,4.248S295.703,264.619,295.703,262.313z"/>
			<path fill="#FFFFFF" d="M306.305,265.218h-1.422v2.622h-1.705v-2.622h-4.738v-1.784l4.738-6.648h1.705v7.012h1.422V265.218z
				 M299.829,263.797h3.349v-4.864h-0.032L299.829,263.797z"/>
			<path fill="#FFFFFF" d="M310.43,261.366c1.2,0.047,2.448-0.38,2.448-1.737c0-0.933-0.727-1.563-1.722-1.563
				c-1.247,0-1.863,1.121-1.832,2.258h-1.8c0.095-2.147,1.437-3.759,3.663-3.759c1.722,0,3.49,0.995,3.49,2.953
				c0,1.105-0.505,1.99-1.563,2.369v0.032c1.248,0.252,2.006,1.342,2.006,2.764c0,2.084-1.8,3.379-3.916,3.379
				c-2.559,0-3.838-1.547-3.886-3.854h1.801c-0.048,1.343,0.679,2.354,2.085,2.354c1.2,0,2.116-0.711,2.116-1.974
				c0-1.722-1.469-1.943-2.891-1.88V261.366z"/>
			<path fill="#FFFFFF" d="M323.81,262.313c0,2.511-0.647,5.748-3.821,5.748c-3.175,0-3.822-3.237-3.822-5.748
				s0.647-5.749,3.822-5.749C323.162,256.564,323.81,259.802,323.81,262.313z M322.01,262.313c0-2.306-0.442-4.248-2.021-4.248
				s-2.021,1.942-2.021,4.248s0.442,4.248,2.021,4.248S322.01,264.619,322.01,262.313z"/>
		</g>
	</g>
	<g>
		<g>
			<path fill="#FFFFFF" d="M221.866,289.47c1.517,0.016,2.953-0.505,3.222-1.832h1.469v11.055h-1.974v-7.802h-2.717V289.47z"/>
			<path fill="#FFFFFF" d="M231.74,287.638h5.717v1.611h-4.374l-0.568,2.812l0.031,0.031c0.489-0.537,1.295-0.837,2.037-0.837
				c2.195,0,3.459,1.579,3.459,3.696c0,1.769-1.105,3.964-3.822,3.964c-2.132,0-3.79-1.153-3.869-3.364h1.801
				c0.11,1.184,0.868,1.863,2.037,1.863c1.531,0,2.053-1.09,2.053-2.432c0-1.216-0.647-2.306-2.101-2.306
				c-0.758,0-1.5,0.237-1.784,1.011h-1.801L231.74,287.638z"/>
			<path fill="#FFFFFF" d="M244.806,290.434c-0.079-0.9-0.68-1.516-1.611-1.516c-1.958,0-2.179,2.337-2.29,3.791l0.032,0.031
				c0.489-0.868,1.405-1.311,2.385-1.311c2.195,0,3.49,1.595,3.49,3.711c0,2.147-1.469,3.774-3.68,3.774
				c-3.254,0-4.027-2.559-4.027-5.78c0-2.637,1.042-5.717,4.169-5.717c1.753,0,3.237,1.216,3.332,3.016H244.806z M245.011,295.108
				c0-1.185-0.647-2.258-1.942-2.258c-1.311,0-1.99,1.042-1.99,2.258c0,1.2,0.68,2.306,1.99,2.306
				C244.363,297.414,245.011,296.293,245.011,295.108z"/>
			<path fill="#FFFFFF" d="M249.879,295.898c0.079,0.9,0.679,1.516,1.61,1.516c1.959,0,2.18-2.337,2.29-3.79l-0.031-0.032
				c-0.474,0.853-1.374,1.327-2.385,1.327c-2.085,0-3.49-1.469-3.49-3.727c0-2.148,1.39-3.774,3.806-3.774
				c3.127,0,3.901,2.558,3.901,5.78c0,2.638-1.043,5.717-4.17,5.717c-1.753,0-3.237-1.216-3.332-3.017H249.879z M249.673,291.176
				c0,1.2,0.616,2.322,1.927,2.322c1.343,0,2.006-1.105,2.006-2.322c0-1.184-0.663-2.258-2.006-2.258
				C250.289,288.917,249.673,289.976,249.673,291.176z"/>
			<path fill="#FFFFFF" d="M264.316,293.166c0,2.511-0.647,5.749-3.821,5.749c-3.175,0-3.822-3.238-3.822-5.749
				c0-2.511,0.647-5.749,3.822-5.749C263.669,287.417,264.316,290.655,264.316,293.166z M262.517,293.166
				c0-2.306-0.442-4.249-2.021-4.249s-2.021,1.943-2.021,4.249s0.442,4.248,2.021,4.248S262.517,295.472,262.517,293.166z"/>
		</g>
	</g>
	<rect x="221.548" y="306.559" opacity="0.698" fill="#797979" width="42.795" height="122.14"/>
	<g>
		<g>
			<path fill="#FFFFFF" d="M165.467,348.209c0-1.39,0.79-2.385,2.021-2.701v-0.031c-0.995-0.379-1.563-1.2-1.563-2.274
				c0-1.879,1.248-3.016,3.443-3.016s3.442,1.137,3.442,3.016c0,1.074-0.568,1.895-1.563,2.274v0.031
				c1.232,0.316,2.021,1.311,2.021,2.701c0,2.164-1.658,3.475-3.9,3.475C167.125,351.684,165.467,350.373,165.467,348.209z
				 M171.469,348.209c0-1.216-0.9-1.942-2.101-1.942s-2.101,0.727-2.101,1.942c0,1.295,0.9,2.053,2.101,2.053
				S171.469,349.504,171.469,348.209z M167.631,343.297c0,1.042,0.742,1.627,1.737,1.627s1.737-0.584,1.737-1.627
				c0-1.089-0.774-1.689-1.737-1.689C168.404,341.608,167.631,342.208,167.631,343.297z"/>
			<path fill="#FFFFFF" d="M181.99,348.841h-1.422v2.622h-1.705v-2.622h-4.738v-1.785l4.738-6.649h1.705v7.012h1.422V348.841z
				 M175.515,347.419h3.349v-4.864h-0.032L175.515,347.419z"/>
			<path fill="#FFFFFF" d="M188.754,343.203c-0.079-0.9-0.679-1.516-1.611-1.516c-1.958,0-2.179,2.337-2.29,3.791l0.032,0.031
				c0.489-0.868,1.405-1.311,2.385-1.311c2.195,0,3.49,1.595,3.49,3.711c0,2.147-1.469,3.774-3.68,3.774
				c-3.254,0-4.027-2.559-4.027-5.78c0-2.637,1.042-5.717,4.169-5.717c1.753,0,3.237,1.216,3.332,3.016H188.754z M188.959,347.877
				c0-1.185-0.647-2.258-1.942-2.258c-1.311,0-1.99,1.042-1.99,2.258c0,1.2,0.68,2.306,1.99,2.306
				C188.312,350.183,188.959,349.062,188.959,347.877z"/>
			<path fill="#FFFFFF" d="M197.522,343.203c-0.079-0.9-0.68-1.516-1.611-1.516c-1.958,0-2.179,2.337-2.29,3.791l0.032,0.031
				c0.489-0.868,1.405-1.311,2.385-1.311c2.195,0,3.49,1.595,3.49,3.711c0,2.147-1.469,3.774-3.68,3.774
				c-3.254,0-4.027-2.559-4.027-5.78c0-2.637,1.042-5.717,4.169-5.717c1.753,0,3.237,1.216,3.332,3.016H197.522z M197.728,347.877
				c0-1.185-0.647-2.258-1.942-2.258c-1.311,0-1.99,1.042-1.99,2.258c0,1.2,0.68,2.306,1.99,2.306
				C197.08,350.183,197.728,349.062,197.728,347.877z"/>
		</g>
	</g>
	<rect x="161.112" y="361.828" opacity="0.698" fill="#797979" width="42.795" height="66.871"/>
</g>
</svg>
