<?xml version="1.0" encoding="utf-8"?>
<!-- Generator: Adobe Illustrator 16.0.0, SVG Export Plug-In . SVG Version: 6.00 Build 0)  -->
<!DOCTYPE svg PUBLIC "-//W3C//DTD SVG 1.1//EN" "http://www.w3.org/Graphics/SVG/1.1/DTD/svg11.dtd">
<svg version="1.1" id="Layer_1" xmlns="http://www.w3.org/2000/svg" xmlns:xlink="http://www.w3.org/1999/xlink" x="0px" y="0px"
	 width="768px" height="1024px" viewBox="0 0 768 1024" enable-background="new 0 0 768 1024" xml:space="preserve">
<line fill="none" stroke="#F2F2F2" stroke-miterlimit="10" x1="443.073" y1="462.783" x2="604.958" y2="462.783"/>
<g>
	<path fill="#F2F2F2" d="M448.373,492.333h-1.264v-4.913c-0.037-0.02-0.096-0.02-0.152-0.02c-0.688,1.014-1.758,1.97-2.811,2.543
		c-1.414,0.727-2.963,1.3-4.588,1.587l-0.613-1.205c2.41-0.344,4.705-1.032,6.463-2.887l-4.76-0.019l0.879-4.111h5.582v-1.777
		h-6.328v-1.109h13.402v3.977l-5.811,0.02l-0.02,1.893h6.635c-0.115,1.339-0.211,2.639-0.785,3.729
		c-0.324,0.631-0.975,0.879-1.682,0.841c-0.746-0.058-1.453-0.152-2.143-0.363l-0.152-1.204c0.783,0.268,1.605,0.497,2.467,0.497
		c0.363-0.096,0.535-0.459,0.631-0.784c0.133-0.516,0.383-1.186,0.383-1.605h-5.334V492.333z M444.873,480.02
		c-0.344-0.784-0.803-1.491-1.434-2.16h-1.32c-0.553,0.917-1.279,1.739-2.084,2.504c-0.344-0.172-0.668-0.42-1.012-0.611
		c1.453-1.301,2.639-2.926,3.115-4.723c0.344,0.114,0.822,0.191,1.166,0.287c-0.096,0.458-0.439,1.032-0.611,1.453h4.971
		l-0.018,1.09h-2.85c0.402,0.478,0.859,1.032,1.146,1.567L444.873,480.02z M447.109,484.417l-4.568-0.02l-0.422,1.912h4.99V484.417z
		 M447.014,479.351c1.225-1.243,2.275-2.639,2.658-4.341c0.383,0.115,0.803,0.211,1.148,0.402c-0.115,0.401-0.27,0.917-0.459,1.28
		h5.334l0.02,1.109h-3.252c0.363,0.478,0.842,0.956,1.109,1.529c-0.383,0.191-0.764,0.401-1.146,0.555
		c-0.307-0.746-0.727-1.473-1.338-2.084h-1.357c-0.459,0.783-1.053,1.491-1.664,2.18L447.014,479.351z M448.373,481.511v1.797h4.625
		v-1.797H448.373z"/>
	<path fill="#F2F2F2" d="M474.395,489.254v1.262h-15.678l-0.018-1.242L474.395,489.254z M459.77,477.381h13.479v1.243l-13.479,0.019
		V477.381z M472.102,483.079v1.243l-11.205,0.02l-0.02-1.263H472.102z"/>
	<path fill="#F2F2F2" d="M486.461,478.05l7.572,0.038v1.186h-9.904c-0.02,1.205-0.057,2.505-0.135,3.671h8.318
		c-0.078,2.429-0.498,5.583-1.109,7.858c-0.191,0.688-0.766,1.357-1.434,1.511c-0.918,0.19-2.697-0.307-3.939-0.574l-0.229-1.415
		c0.994,0.345,2.025,0.593,3.098,0.822c0.535,0.115,1.07-0.152,1.242-0.803c0.516-1.854,0.859-4.188,0.936-6.232h-6.979
		c-0.936,5.448-3.211,7.017-6.061,8.259l-0.84-1.146c2.752-1.052,3.842-2.142,4.799-4.073c1.031-2.084,1.09-6.328,1.031-7.896
		h-4.951v-1.167h8.164c-0.516-1.108-1.512-2.103-2.6-2.657l1.07-0.65c0.918,0.536,2.275,1.626,2.752,2.754L486.461,478.05z"/>
	<path fill="#F2F2F2" d="M499.732,492.448l0.02-9.254c-0.709,0.994-1.74,2.122-2.639,2.963l-1.09-0.783
		c2.064-1.798,3.67-4.149,4.836-6.597h-3.518v-1.166l4.035,0.02c0.363-0.842,0.611-1.798,0.803-2.716l1.127,0.402
		c-0.113,0.803-0.42,1.548-0.631,2.313l10.039-0.02v1.166h-10.498c-0.381,0.86-0.84,1.645-1.262,2.485l0.02,11.204L499.732,492.448z
		 M506.08,491.013c0.229-0.038,0.496-0.076,0.65-0.268c0.172-0.229,0.133-0.593,0.133-0.841v-3.327h-4.914v-1.147h4.857v-1.548
		c1.07-0.479,1.988-1.186,2.887-2.065h-6.404v-1.166l8.105,0.019v1.147c-0.918,0.938-2.199,2.084-3.307,2.734v0.822h5.18v1.146
		h-5.18l0.018,4.321c-0.057,0.479-0.344,0.937-0.783,1.186c-0.766,0.344-1.605,0.134-2.486,0.21l-0.822-1.204L506.08,491.013z"/>
	<path fill="#F2F2F2" d="M518.318,477.687c-0.518,0.708-1.225,1.453-1.971,1.988c-0.381-0.286-0.707-0.516-0.994-0.821
		c1.473-0.938,2.447-2.486,3.137-3.939c0.324,0.153,0.668,0.325,1.014,0.479c-0.174,0.382-0.363,0.803-0.555,1.166h5.199v1.109
		l-3.174,0.019c0.326,0.325,0.574,0.898,0.822,1.262l-1.07,0.574c-0.268-0.65-0.611-1.262-1.127-1.836H518.318z M516.176,480h7.322
		c-0.268-0.497-0.668-0.994-1.088-1.415l1.088-0.344c0.555,0.535,0.996,1.339,1.301,1.759h6.959v3.403l-1.186-0.019v-2.275h-13.211
		l-0.02,2.37h-1.166V480z M520,492.448h-1.262l0.02-10.038h10.305v3.729l-9.1,0.019v1.281h9.979v4.952h-1.223v-1.166h-8.738
		L520,492.448z M519.963,485.029h7.914l-0.02-1.51h-7.895V485.029z M519.98,488.566l0.02,1.606l8.738-0.02v-1.605L519.98,488.566z
		 M528.967,477.591c0.383,0.383,0.803,0.822,1.053,1.281c-0.307,0.211-0.689,0.401-1.053,0.555c-0.324-0.65-0.727-1.281-1.301-1.836
		h-1.434c-0.305,0.517-0.668,1.109-1.107,1.473c-0.326-0.229-0.631-0.421-0.957-0.669c0.994-1.033,1.549-2.218,1.873-3.537
		l1.053,0.401c-0.096,0.421-0.211,0.822-0.344,1.224h5.449l-0.02,1.108H528.967z"/>
	<path fill="#F2F2F2" d="M534.131,485.641c2.734-0.268,5.334-0.842,7.725-1.874c-1.129-0.841-1.76-1.415-2.428-2.103
		c-0.746,0.86-1.74,1.529-2.602,2.16l-1.031-0.746c1.473-0.898,3.115-2.16,3.861-3.671c0.135-0.286,0.344-0.554,0.459-0.86
		c0.383,0.115,0.727,0.249,1.07,0.401c-0.096,0.287-0.287,0.65-0.439,0.956h6.826v1.09c-0.879,1.147-2.104,2.104-3.25,2.811
		c2.217,1.128,4.799,1.453,7.418,1.645l-0.516,1.243c-2.869-0.345-5.66-0.88-8.127-2.18c-2.563,1.262-5.43,1.893-8.373,2.275
		L534.131,485.641z M542.715,477c-0.516-0.498-1.166-1.129-1.854-1.377l1.186-0.746c1.625,0.765,2.008,1.932,2.141,2.104h6.232
		v3.613h-1.203v-2.466h-12.563v2.504l-1.203-0.019V477H542.715z M546.443,492.371v-1.108h-6.939v1.146l-1.186,0.02l-0.02-6.003
		l9.35-0.02v5.946L546.443,492.371z M546.443,487.553h-6.92l-0.02,2.581h6.939V487.553z M540.518,481.052
		c0.803,0.86,1.529,1.567,2.561,2.104c1.053-0.593,1.932-1.205,2.811-2.104H540.518z"/>
	<path fill="#F2F2F2" d="M567.879,484.016v-0.784h-10.307c0.059,4.531-0.496,6.845-2.656,9.082l-1.09-0.86
		c1.932-1.664,2.523-3.92,2.523-6.405v-7.055h6.271c-0.344-0.822-1.357-1.702-2.371-2.391l1.09-0.611
		c1.07,0.631,1.988,1.549,2.619,2.581l-0.766,0.382v0.039h5.947v6.022H567.879z M567.916,479.14h-10.344v2.944h10.344V479.14z"/>
	<path fill="#F2F2F2" d="M580.154,482.162v1.07h-2.828c-0.23,3.862-2.354,6.673-4.055,8.699c-0.268-0.306-0.611-0.631-0.879-0.86
		c1.568-1.74,3.27-4.417,3.785-7.839h-3.441v-1.09h3.461c0.057-0.975,0-1.95,0-2.964h-2.906v-1.108h2.887l0.02-3.002
		c0.383-0.038,0.766-0.019,1.166-0.019c-0.02,1.051-0.02,1.931,0,3.001h2.447v1.109h-2.408c0.018,1.166,0.018,2.256-0.039,3.002
		H580.154z M585.088,478.28c-0.115,2.142-0.307,3.671-0.65,5.603c-0.766,4.264-2.639,6.52-6.998,8.259
		c-0.268-0.306-0.535-0.727-0.727-1.032c2.41-0.937,4.799-2.084,5.947-5.104c0.859-2.256,1.186-5.028,1.338-7.896L585.088,478.28z
		 M577.879,485.24c1.09,0.649,2.199,1.816,2.83,2.925c-0.287,0.249-0.592,0.535-0.918,0.708c-0.555-1.167-1.605-2.199-2.656-2.964
		L577.879,485.24z M587.096,486.597v-9.693h-5.334v9.693h-1.129v-10.765h7.59v10.765H587.096z M585.947,491.396
		c-1.051,0-1.549-0.669-1.549-1.224v-5.066h1.129v4.933c0.039,0.134,0.172,0.229,0.307,0.268h2.447
		c0.516-0.325,0.381-1.052,0.592-1.568l0.057-0.306c0.307,0.077,0.633,0.287,0.938,0.421c-0.211,0.937-0.268,2.313-1.49,2.543
		H585.947z"/>
	<path fill="#F2F2F2" d="M597.307,485.775c-0.287-0.822-0.766-1.702-1.338-2.371v8.986h-1.205v-8.298
		c-0.535,1.357-1.223,2.811-2.16,3.977l-0.957-0.841c1.912-2.619,2.697-4.321,3.098-7.189h-2.543v-1.146h2.563v-3.805h1.205v3.805
		h2.121v1.146h-2.121v2.447l0.516-0.286c0.803,0.994,1.414,1.854,1.855,2.925L597.307,485.775z M602.336,487.266
		c0.152-0.478,0.248-0.937,0.285-1.434h-3.785v-5.794h8.738v5.794h-3.824c-0.057,0.497-0.152,0.956-0.268,1.434h5.01v1.108h-4.035
		c1.166,1.95,3.117,2.62,4.895,2.983l-0.65,0.975c-2.236-0.306-4.588-1.739-5.43-3.938h-0.115c-1.012,2.122-3.287,3.384-5.371,3.938
		l-0.67-1.032c1.836-0.421,3.689-1.224,4.779-2.926h-4.014v-1.108H602.336z M601.475,478.07v1.511h-1.186v-1.511h-2.771v-1.147
		h2.771v-1.893h1.186v1.893h3.441v-1.893h1.186v1.893h2.754v1.147h-2.754v1.511h-1.186v-1.511H601.475z M606.369,481.167h-6.328
		v1.185h6.328V481.167z M600.041,483.442v1.262h6.328v-1.262H600.041z"/>
	<path fill="#F2F2F2" d="M486.213,509.868c1.512-1.74,2.43-3.748,2.906-5.908h-2.121v-1.147h2.352v-2.352
		c-0.766,0.096-1.568,0.229-2.391,0.229l-0.668-1.204c2.18,0.096,4.09-0.44,5.984-1.033c0.172,0.307,0.324,0.65,0.553,0.899
		c-0.744,0.344-1.49,0.593-2.273,0.821v2.639h2.273v1.147h-2.256v1.453l0.709-0.459c0.898,0.88,1.605,1.816,2.006,2.982
		c-0.324,0.229-0.668,0.439-1.031,0.631c-0.326-1.032-0.898-1.969-1.684-2.811v9.464h-1.223v-8.508
		c-0.516,1.435-1.148,2.792-2.238,3.977L486.213,509.868z M491.854,514.111c-0.305-0.229-0.65-0.572-0.955-0.842
		c1.186-0.821,1.873-1.968,2.389-3.211c0.326,0.191,0.613,0.44,0.957,0.593C493.729,511.913,493.002,513.193,491.854,514.111z
		 M493.689,504.992h7.838v-1.415h-7.074v-0.822l-0.094,0.02c-0.25,0.115-0.459,0.306-0.746,0.344l-0.689-1.013
		c1.74-0.708,2.982-2.429,3.328-4.206c0.381,0.076,0.688,0.324,1.09,0.401c-0.115,0.401-0.23,0.822-0.402,1.204l4.264,0.02v1.013
		c-0.287,0.688-0.555,1.263-0.955,1.912h2.447v6.329h-8.623v-1.129h7.455v-1.529h-7.838V504.992z M496.385,500.652
		c-0.459,0.688-0.955,1.262-1.568,1.797h4.074c0.381-0.459,0.859-1.319,1.07-1.797H496.385z M496.021,514.475
		c-0.803-0.268-1.109-0.822-1.186-1.453v-3.842h1.166v3.69c0.039,0.172,0.174,0.459,0.383,0.459h3.193
		c0.211,0.02,0.344-0.115,0.439-0.191c0.135-0.287,0.248-0.937,0.326-1.587l1.088,0.612c-0.248,0.803-0.344,1.874-1.299,2.237
		l-0.555,0.076H496.021z M499.291,511.397c-0.324,0.191-0.65,0.439-0.994,0.573c-0.307-0.918-0.842-1.721-1.453-2.505
		c0.307-0.152,0.574-0.363,0.898-0.497C498.373,509.734,499.004,510.479,499.291,511.397z M504.033,512.984
		c-0.248,0.324-0.574,0.611-0.842,0.918c-0.592-1.205-1.645-2.41-2.791-3.174l0.746-0.804c0.822,0.535,1.566,1.301,2.217,2.065
		L504.033,512.984z"/>
	<path fill="#F2F2F2" d="M507.859,504.916c-0.383,0.593-0.977,1.376-1.492,1.931l-0.898-0.803c2.104-2.371,3.193-5.144,4.053-8.068
		l1.053,0.383c-0.402,1.491-0.918,2.887-1.531,4.282v12.792h-1.203L507.859,504.916z M509.541,514.475
		c0.783-0.842,1.529-1.777,2.008-2.772c-0.803-1.166-1.166-2.523-1.529-3.881l1.07-0.325c0.268,0.937,0.555,1.931,0.955,2.791
		c0.441-1.166,0.65-2.428,0.746-3.709h-2.715v-1.07c0.879-1.071,1.721-2.122,2.295-3.327l0.4-0.841h-2.428v-1.128h3.672v1.128
		c-0.574,1.453-1.473,2.867-2.486,4.13h2.486c-0.115,2.122-0.402,4.206-1.166,6.118c0.859,1.224,2.273,1.835,3.785,1.816
		l4.531-0.039l2.084-0.096l-0.383,1.264h-6.119c-1.682,0-3.23-0.459-4.377-1.74l-0.076,0.02c-0.555,0.936-1.225,1.777-1.951,2.637
		L509.541,514.475z M517.227,512.926l0.02-2.064l-3.135-0.02v-1.07l3.115,0.019l0.02-1.549l-2.447,0.02v-1.09h2.428v-1.415h-2.217
		l-0.02-1.09h2.236l0.02-1.529h-3.154v-1.052h3.135l0.02-1.549h-2.256v-1.07l2.256-0.02l-0.02-1.452h1.205l-0.02,1.472h3.137v2.601
		h1.166v1.09h-1.166v2.6h-3.137l0.02,1.415h3.461l-0.02,1.07h-3.461v1.549l4.264-0.019v1.07l-4.244,0.02v2.083L517.227,512.926z
		 M518.432,500.537v1.53h1.932v-1.53H518.432z M520.363,504.667v-1.51l-1.932-0.02v1.529H520.363z"/>
	<path fill="#F2F2F2" d="M528.797,509.695c0.553-0.229,1.203-0.42,1.777-0.611l0.02,1.186c-1.645,0.593-3.27,1.166-4.934,1.777
		l-0.822-1.09c0.918-0.21,1.836-0.497,2.734-0.803v-5.659h-2.219v-1.108h2.219v-4.856h1.205v4.856h1.49v1.108h-1.49L528.797,509.695
		z M530.746,506.502v-6.118h3.039c-0.457-0.708-1.242-1.377-1.873-1.932l1.186-0.458c0.822,0.688,1.473,1.548,2.008,2.37l1.893,0.02
		c0.822-0.765,1.377-1.721,1.76-2.696c0.381,0.153,0.744,0.401,1.107,0.631c-0.381,0.727-0.822,1.415-1.434,2.046h2.982v6.138
		H530.746z M533.078,515.393h-1.223v-7.59h8.451v7.571l-1.168-0.02l0.02-1.107h-6.1L533.078,515.393z M535.506,501.493h-3.555v3.9
		h3.537L535.506,501.493z M534.838,504.457c-0.344,0.172-0.689,0.363-1.053,0.497c-0.229-0.937-0.859-1.701-1.434-2.485
		c0.287-0.153,0.594-0.306,0.918-0.439C533.996,502.736,534.418,503.615,534.838,504.457z M533.059,508.892v1.511l6.08-0.02
		l0.02-1.472L533.059,508.892z M533.059,511.493v1.644h6.1l-0.02-1.644H533.059z M540.229,505.355v-3.9l-3.594,0.02v3.881H540.229z
		 M538.107,505.011c-0.326-0.172-0.67-0.345-0.994-0.517c0.229-0.287,0.459-0.631,0.688-0.898c0.307-0.593,0.631-1.166,0.861-1.759
		c0.344,0.114,0.65,0.268,0.955,0.439C539.234,503.233,538.795,504.151,538.107,505.011z"/>
	<path fill="#F2F2F2" d="M560.479,515.086c-5.314-2.771-7.227-5.372-8.279-8.661h-2.887l-0.02,7.342
		c1.301-0.516,2.619-1.166,4.055-1.797v1.167c-1.053,0.479-3.385,1.586-4.838,2.313l-0.516-1.012
		c0.076-0.172,0.191-0.172,0.191-0.363v-7.649h-3.959v-1.089h4.895v-7.342l1.166-0.02v5.831c2.563-1.146,5.182-2.733,7.305-4.474
		l0.822,0.88c-2.41,1.777-5.162,3.479-8.145,4.703v0.421h10.381l0.02,1.089h-7.4c1.014,3.499,4.627,6.292,7.916,7.629
		L560.479,515.086z"/>
</g>
<g>
	<path fill="#FFFFFF" d="M515.589,452.32h-6.827c0.015-1.643,0.857-2.885,2.2-3.785c1.299-0.943,2.984-1.728,3.014-3.285
		c0.014-0.714-0.286-1.771-1.686-1.771c-1.285,0-1.671,1.1-1.714,2.5h-1.628c0-2.214,1.214-3.856,3.441-3.856
		c2.442,0,3.214,1.785,3.214,3.07c0,1.585-1.086,2.571-2.229,3.371c-1.156,0.8-2.37,1.414-2.656,2.299h4.87V452.32z"/>
	<path fill="#FFFFFF" d="M523.599,447.321c0,2.271-0.586,5.199-3.456,5.199c-2.871,0-3.456-2.928-3.456-5.199
		c0-2.271,0.585-5.198,3.456-5.198C523.013,442.123,523.599,445.051,523.599,447.321z M521.971,447.321
		c0-2.085-0.4-3.842-1.828-3.842c-1.429,0-1.828,1.757-1.828,3.842c0,2.085,0.399,3.842,1.828,3.842
		C521.57,451.164,521.971,449.407,521.971,447.321z"/>
	<path fill="#FFFFFF" d="M524.738,443.979c1.371,0.014,2.671-0.457,2.914-1.657h1.328v9.998h-1.785v-7.056h-2.457V443.979z"/>
	<path fill="#FFFFFF" d="M533.704,442.323h5.17v1.457h-3.956l-0.515,2.542l0.029,0.029c0.442-0.486,1.171-0.757,1.842-0.757
		c1.985,0,3.128,1.428,3.128,3.342c0,1.6-0.999,3.585-3.456,3.585c-1.928,0-3.428-1.043-3.499-3.042h1.628
		c0.1,1.071,0.785,1.686,1.843,1.686c1.385,0,1.856-0.986,1.856-2.2c0-1.1-0.586-2.085-1.899-2.085
		c-0.686,0-1.356,0.214-1.614,0.914h-1.628L533.704,442.323z"/>
</g>
<g>
	<path fill="#FFFFFF" d="M576.123,452.32h-6.827c0.015-1.643,0.857-2.885,2.2-3.785c1.3-0.943,2.984-1.728,3.013-3.285
		c0.015-0.714-0.285-1.771-1.685-1.771c-1.286,0-1.671,1.1-1.714,2.5h-1.629c0-2.214,1.215-3.856,3.442-3.856
		c2.442,0,3.214,1.785,3.214,3.07c0,1.585-1.086,2.571-2.229,3.371c-1.156,0.8-2.371,1.414-2.656,2.299h4.87V452.32z"/>
	<path fill="#FFFFFF" d="M584.133,447.321c0,2.271-0.586,5.199-3.456,5.199c-2.871,0-3.457-2.928-3.457-5.199
		c0-2.271,0.586-5.198,3.457-5.198C583.547,442.123,584.133,445.051,584.133,447.321z M582.505,447.321
		c0-2.085-0.4-3.842-1.828-3.842c-1.429,0-1.828,1.757-1.828,3.842c0,2.085,0.399,3.842,1.828,3.842
		C582.104,451.164,582.505,449.407,582.505,447.321z"/>
	<path fill="#FFFFFF" d="M585.272,443.979c1.371,0.014,2.671-0.457,2.914-1.657h1.328v9.998h-1.785v-7.056h-2.457V443.979z"/>
	<path fill="#FFFFFF" d="M598.123,444.851c-0.071-0.814-0.614-1.371-1.457-1.371c-1.771,0-1.971,2.114-2.071,3.428l0.029,0.029
		c0.442-0.786,1.271-1.186,2.156-1.186c1.985,0,3.156,1.442,3.156,3.356c0,1.942-1.328,3.414-3.327,3.414
		c-2.942,0-3.643-2.314-3.643-5.228c0-2.385,0.942-5.17,3.771-5.17c1.586,0,2.928,1.1,3.014,2.728H598.123z M598.309,449.078
		c0-1.071-0.586-2.042-1.757-2.042c-1.186,0-1.8,0.942-1.8,2.042c0,1.085,0.614,2.085,1.8,2.085
		C597.723,451.164,598.309,450.149,598.309,449.078z"/>
</g>
<g>
	<path fill="#FFFFFF" d="M517.156,303.643h5.717v1.611h-4.374l-0.568,2.812l0.031,0.031c0.489-0.537,1.295-0.837,2.037-0.837
		c2.195,0,3.459,1.579,3.459,3.696c0,1.769-1.105,3.964-3.822,3.964c-2.132,0-3.79-1.153-3.869-3.364h1.801
		c0.11,1.184,0.868,1.863,2.037,1.863c1.531,0,2.053-1.09,2.053-2.432c0-1.216-0.647-2.306-2.101-2.306
		c-0.758,0-1.5,0.237-1.784,1.011h-1.801L517.156,303.643z"/>
	<path fill="#FFFFFF" d="M530.221,306.438c-0.079-0.9-0.679-1.516-1.611-1.516c-1.958,0-2.179,2.337-2.29,3.791l0.032,0.031
		c0.489-0.868,1.405-1.311,2.385-1.311c2.195,0,3.49,1.595,3.49,3.711c0,2.147-1.469,3.774-3.68,3.774
		c-3.254,0-4.027-2.559-4.027-5.78c0-2.637,1.042-5.717,4.169-5.717c1.753,0,3.237,1.216,3.332,3.016H530.221z M530.426,311.113
		c0-1.185-0.647-2.258-1.942-2.258c-1.311,0-1.99,1.042-1.99,2.258c0,1.2,0.68,2.306,1.99,2.306
		C529.778,313.419,530.426,312.298,530.426,311.113z"/>
</g>
<rect x="563.015" y="270.276" opacity="0.698" fill-rule="evenodd" clip-rule="evenodd" fill="#328EC0" width="42.873" height="160.422"/>
<rect x="502.579" y="323.563" opacity="0.698" fill="#797979" width="42.795" height="107.135"/>
<g>
	<path fill="#FFFFFF" d="M455.153,452.32h-6.827c0.015-1.643,0.857-2.885,2.2-3.785c1.299-0.943,2.984-1.728,3.014-3.285
		c0.014-0.714-0.286-1.771-1.686-1.771c-1.285,0-1.671,1.1-1.714,2.5h-1.628c0-2.214,1.214-3.856,3.441-3.856
		c2.442,0,3.214,1.785,3.214,3.07c0,1.585-1.086,2.571-2.229,3.371c-1.156,0.8-2.37,1.414-2.656,2.299h4.87V452.32z"/>
	<path fill="#FFFFFF" d="M463.163,447.321c0,2.271-0.586,5.199-3.456,5.199c-2.871,0-3.456-2.928-3.456-5.199
		c0-2.271,0.585-5.198,3.456-5.198C462.577,442.123,463.163,445.051,463.163,447.321z M461.535,447.321
		c0-2.085-0.4-3.842-1.828-3.842c-1.429,0-1.828,1.757-1.828,3.842c0,2.085,0.399,3.842,1.828,3.842
		C461.135,451.164,461.535,449.407,461.535,447.321z"/>
	<path fill="#FFFFFF" d="M464.303,443.979c1.371,0.014,2.671-0.457,2.914-1.657h1.328v9.998h-1.785v-7.056h-2.457V443.979z"/>
	<path fill="#FFFFFF" d="M478.967,449.949h-1.285v2.371h-1.542v-2.371h-4.285v-1.614l4.285-6.013h1.542v6.341h1.285V449.949z
		 M473.111,448.664h3.028v-4.399h-0.029L473.111,448.664z"/>
</g>
<g>
	<path fill="#FFFFFF" d="M458.379,344.255c1.2,0.047,2.448-0.379,2.448-1.737c0-0.932-0.727-1.563-1.722-1.563
		c-1.247,0-1.863,1.122-1.832,2.258h-1.8c0.095-2.147,1.437-3.758,3.663-3.758c1.722,0,3.49,0.995,3.49,2.953
		c0,1.105-0.505,1.99-1.563,2.369v0.032c1.248,0.253,2.006,1.342,2.006,2.764c0,2.085-1.8,3.38-3.916,3.38
		c-2.559,0-3.838-1.548-3.886-3.854h1.801c-0.048,1.342,0.679,2.353,2.085,2.353c1.2,0,2.116-0.71,2.116-1.974
		c0-1.721-1.469-1.942-2.891-1.879V344.255z"/>
	<path fill="#FFFFFF" d="M464.1,339.675h7.564v1.5c-2.306,2.606-3.837,5.559-4.122,9.555h-1.974c0.237-3.49,1.99-6.886,4.264-9.444
		H464.1V339.675z"/>
</g>
<rect x="442.144" y="359.596" opacity="0.698" fill="#797979" width="42.795" height="71.103"/>
<g>
	<path fill="#FFFFFF" d="M575.196,257.236c0-1.391,0.79-2.385,2.021-2.701v-0.031c-0.994-0.379-1.563-1.2-1.563-2.274
		c0-1.879,1.248-3.017,3.443-3.017s3.442,1.138,3.442,3.017c0,1.074-0.568,1.896-1.563,2.274v0.031
		c1.232,0.316,2.021,1.311,2.021,2.701c0,2.163-1.658,3.474-3.9,3.474C576.854,260.709,575.196,259.399,575.196,257.236z
		 M581.198,257.236c0-1.217-0.9-1.943-2.101-1.943s-2.101,0.727-2.101,1.943c0,1.295,0.9,2.053,2.101,2.053
		S581.198,258.531,581.198,257.236z M577.36,252.324c0,1.042,0.742,1.627,1.737,1.627s1.737-0.585,1.737-1.627
		c0-1.09-0.774-1.689-1.737-1.689C578.134,250.634,577.36,251.234,577.36,252.324z"/>
	<path fill="#FFFFFF" d="M589.714,252.229c-0.079-0.9-0.68-1.516-1.611-1.516c-1.958,0-2.179,2.337-2.29,3.79l0.032,0.031
		c0.489-0.868,1.405-1.311,2.385-1.311c2.195,0,3.49,1.595,3.49,3.711c0,2.148-1.469,3.774-3.68,3.774
		c-3.254,0-4.027-2.558-4.027-5.779c0-2.638,1.042-5.718,4.169-5.718c1.753,0,3.237,1.217,3.332,3.017H589.714z M589.919,256.904
		c0-1.185-0.647-2.259-1.942-2.259c-1.311,0-1.99,1.043-1.99,2.259c0,1.2,0.68,2.306,1.99,2.306
		C589.271,259.209,589.919,258.088,589.919,256.904z"/>
</g>
</svg>
