<?xml version="1.0" encoding="utf-8"?>
<!-- Generator: Adobe Illustrator 16.0.0, SVG Export Plug-In . SVG Version: 6.00 Build 0)  -->
<!DOCTYPE svg PUBLIC "-//W3C//DTD SVG 1.1//EN" "http://www.w3.org/Graphics/SVG/1.1/DTD/svg11.dtd">
<svg version="1.1" id="Layer_1" xmlns="http://www.w3.org/2000/svg" xmlns:xlink="http://www.w3.org/1999/xlink" x="0px" y="0px"
	 width="768px" height="1024px" viewBox="0 0 768 1024" enable-background="new 0 0 768 1024" xml:space="preserve">
<g>
	<line fill="none" stroke="#F2F2F2" stroke-miterlimit="10" x1="162.042" y1="824.376" x2="323.927" y2="824.376"/>
	<g>
		<path fill="#F2F2F2" d="M163.708,838.285v1.109h-2.18v4.168h1.912v1.108h-1.95l0.019,4.341c0.746-0.287,1.606-0.688,2.371-0.976
			v1.224c-0.803,0.306-1.645,0.65-2.447,0.976l-2.944,1.185c-0.345-0.306-0.708-0.611-1.032-0.937
			c0.956-0.287,1.873-0.669,2.829-0.994v-4.818h-2.008v-1.108l1.989-0.02v-4.148h-2.371v-1.109H163.708z M173.746,837.75v8.298
			l-4.034-0.02v2.199h3.882v1.108h-3.92v2.563h5.258v1.108h-11.644v-1.108h5.162l0.02-2.563h-3.938v-1.108h3.919l-0.02-2.199h-4.034
			v-8.278H173.746z M168.45,841.268v-2.428l-2.849,0.02v2.408H168.45z M165.601,842.357v2.563h2.849v-2.543L165.601,842.357z
			 M169.693,842.377v2.543h2.849l0.019-2.543H169.693z M169.731,841.287h2.829v-2.447l-2.849,0.02L169.731,841.287z"/>
		<path fill="#F2F2F2" d="M176.941,852.931c2.466-1.319,3.728-3.996,3.728-6.883v-5.583h1.186v5.621c0,3.116-0.745,5.449-4.206,7.82
			L176.941,852.931z M184.455,848.629h-1.186v-9.693h-3.938v9.636h-1.186v-10.726h6.31V848.629z M182.447,849.527
			c0.937,0.65,2.026,1.874,2.791,3.212l-0.86,0.804c-0.631-1.281-1.262-2.123-2.657-3.27L182.447,849.527z M190.038,842.014
			c-0.459,3.651-1.76,6.998-4.475,9.579l-0.917-0.842c1.338-1.281,2.485-2.733,3.135-4.436c0.517-1.338,0.938-2.868,1.09-4.302
			h-3.747v-1.147h5.392v-4.187h1.224v4.187h2.199v1.147h-2.199v10.611c0,0.401-0.287,0.841-0.669,1.07
			c-0.765,0.459-1.778,0.268-2.467,0.211l-0.688-1.224c0.766,0.038,1.435,0.057,2.161,0.057c0.268-0.057,0.439-0.229,0.439-0.669
			v-10.057H190.038z"/>
		<path fill="#F2F2F2" d="M202.294,843.754c-0.439-0.899-1.128-1.798-1.74-2.563l0.899-0.535c0.821,0.822,1.548,1.797,2.007,2.715
			c-0.229,0.076-0.401,0.287-0.611,0.383l2.772,0.038c0.459-0.688,1.146-1.606,1.625-3.116c0.382,0.134,0.765,0.286,1.146,0.478
			c-0.42,1.052-0.955,1.97-1.472,2.601h5.487v1.07h-12.905l-0.02,3.729c-0.363,2.753-1.587,4.072-2.887,5.22
			c-0.306-0.249-0.593-0.555-0.86-0.822c0.937-0.784,2.064-2.065,2.505-3.633c0.095-0.956,0.134-3.519,0.114-5.563H202.294z
			 M205.392,839.261l6.997,0.038v1.052h-15.734v-1.033h8.049c-0.459-0.803-1.109-1.529-1.912-2.256l0.956-0.516
			c0.765,0.765,1.434,1.434,2.142,2.447L205.392,839.261z"/>
		<path fill="#F2F2F2" d="M221.32,854.001v-1.357h-3.957l-0.02,1.396h-1.166v-8.547h6.328l-0.02,8.508H221.32z M217.381,851.535
			h3.92v-4.933h-3.92V851.535z M228.949,837.482l0.019,6.176h-10.879v-6.176H228.949z M227.801,838.572l-8.527,0.02v3.957h8.527
			V838.572z M225.775,853.944h-1.205l0.02-8.509h6.424v8.471h-1.204v-1.357h-4.034V853.944z M229.828,846.545h-4.053v4.914h4.053
			V846.545z"/>
		<path fill="#F2F2F2" d="M250.345,853.829c-2.888-0.688-3.996-1.625-5.966-3.097c-1.778,1.721-3.957,2.638-6.175,3.059l-0.67-0.975
			c2.409-0.517,4.359-1.319,6.004-2.85c-0.784-0.765-2.218-2.829-2.906-4.282c-1.166,3.441-3.479,5.735-5.889,7.609l-0.803-0.86
			c3.269-2.485,5.296-5.679,6.558-9.885h-4.569v-1.108c0.649-1.435,1.166-2.944,1.721-4.341l0.956,0.517
			c-0.325,1.186-0.918,2.753-1.415,3.824h3.595c0.401-1.568,0.593-3.098,0.783-4.761l1.128,0.325
			c-0.21,1.529-0.401,2.982-0.727,4.454h8.527v1.09h-8.775c-0.229,0.612-0.401,1.243-0.612,1.874h6.788
			c-0.039,0.344,0.096,0.727-0.058,1.052c-0.707,1.548-1.549,3.135-2.753,4.474c1.777,1.472,3.823,2.39,6.061,2.944L250.345,853.829
			z M241.818,845.531c0.555,1.071,1.567,2.772,2.485,3.595c0.994-1.108,1.74-2.275,2.313-3.595H241.818z M246.96,840.694
			c-0.688-1.128-1.835-2.026-2.925-2.657l0.784-0.746c1.204,0.631,2.294,1.549,3.078,2.639L246.96,840.694z"/>
		<path fill="#F2F2F2" d="M257,847.883h-1.167v-6.175c-0.535,0.573-1.07,1.262-1.625,1.721l-1.07-0.746
			c1.95-1.625,3.346-3.785,4.206-6.003l1.014,0.497c-0.211,0.611-0.535,1.186-0.765,1.777h4.933
			c-0.115-0.286-0.363-0.516-0.574-0.745c-0.382-0.306-0.745-0.669-1.166-0.937l1.243-0.631c0.803,0.573,1.491,1.396,1.854,2.294
			h5.965v1.147l-6.348-0.02l-0.019,1.262h5.276v0.976H263.5l-0.019,1.3l5.258,0.02l0.019,0.955H263.5l-0.019,1.473l7.035-0.02v1.128
			h-13.498L257,847.883z M268.625,853.963h-1.186v-1.09l-9.999,0.02v1.128h-1.204v-5.64h12.408L268.625,853.963z M257.019,840.063
			v1.281h5.296v-1.262L257.019,840.063z M262.315,843.658v-1.319l-5.296,0.019v1.301H262.315z M262.315,846.048v-1.415l-5.296-0.019
			v1.414L262.315,846.048z M267.439,849.527H257.42l0.02,2.218h10.019L267.439,849.527z"/>
		<path fill="#F2F2F2" d="M279.238,838.648c1.128,0.976,2.046,2.391,2.581,3.748c-0.363,0.152-0.707,0.363-1.109,0.478
			c-0.114-0.401-0.324-0.784-0.516-1.186c-2.256,0.134-4.397,0.459-6.615,0.746l-0.938-1.147c0.287-0.229,0.536-0.383,0.766-0.611
			c1.262-1.263,2.18-2.734,3.078-4.226c0.382,0.172,0.745,0.401,1.108,0.555c-0.841,1.452-1.778,2.982-3.116,4.11
			c0.21,0,0.344-0.058,0.555-0.076l4.416-0.44c-0.325-0.555-0.745-0.975-1.242-1.396L279.238,838.648z M280.615,852.28
			c-0.191,1.109-0.574,1.205-1.109,1.301c-0.65,0.096-1.338,0.096-1.988,0.057l-0.459-1.185c0.65,0,1.281,0.114,1.931,0.057
			c0.363-0.038,0.402-0.363,0.402-0.573v-2.064h-4.417c-0.02,1.453-0.02,2.715,0,4.11h-1.186v-10.478h6.807L280.615,852.28z
			 M274.974,848.743h4.417v-1.491h-4.417V848.743z M279.391,846.105v-1.491h-4.397l0.019,1.51L279.391,846.105z M289.237,847.042
			c-1.683,1.262-3.843,2.008-5.735,2.39v1.97c-0.038,0.287,0.229,0.631,0.841,0.631h3.04c0.306,0,0.574-0.383,0.727-0.631
			c0.211-0.593,0.383-1.186,0.479-1.912l1.07,0.401c-0.268,0.898-0.363,1.893-0.937,2.658c-0.307,0.382-0.727,0.535-1.186,0.592
			h-3.537c-0.612,0-1.186-0.324-1.491-0.879c-0.211-0.383-0.211-0.803-0.211-1.262v-5.525l1.205-0.02v2.791
			c1.549-0.344,3.441-0.975,4.913-2.026L289.237,847.042z M289.046,838.553c-1.587,1.339-3.576,2.084-5.487,2.677v1.74
			c0.095,0.287,0.535,0.535,1.128,0.535h2.6c0.307-0.058,0.517-0.344,0.593-0.631c0.153-0.669,0.383-1.319,0.479-1.988
			c0.363,0.172,0.765,0.268,1.128,0.439c-0.153,0.708-0.383,1.435-0.631,2.122c-0.191,0.536-0.708,1.186-1.319,1.186h-3.499
			c-0.994,0-1.587-0.649-1.683-1.319v-6.672l1.186-0.02l0.02,3.441c1.396-0.383,3.479-1.338,4.761-2.409L289.046,838.553z"/>
		<path fill="#F2F2F2" d="M300.156,851.19c1.109,0.345,2.218,0.688,3.423,0.804c0.439-0.058,0.841-0.211,1.07-0.612
			c0.421-0.745,0.421-1.683,0.612-2.523c0.229-1.836,0.401-3.537,0.535-5.411l0.076-1.108h-5.182c-0.19,2.16-0.497,4.34-1.396,6.232
			c-1.204,2.543-3.957,4.206-6.443,5.201l-0.917-1.186c2.543-0.804,5.314-2.485,6.366-5.124c0.631-1.587,0.956-3.346,1.032-5.124
			l-4.855,0.019v-1.185h4.933l-0.02-4.397h1.243l-0.02,4.397h6.539v0.478l-0.134,3.174c-0.096,2.218-0.401,4.512-0.937,6.653
			c-0.191,0.803-0.938,1.415-1.74,1.645c-1.377,0.21-2.657-0.229-3.9-0.573L300.156,851.19z"/>
		<path fill="#F2F2F2" d="M318.818,842.721c-1.777,2.218-4.244,3.882-6.615,5.201l-0.821-1.033c2.638-1.3,5.296-3.059,7.093-5.678
			c0.478-0.708,1.109-1.435,1.529-2.18l-7.781,0.019l0.02-1.204l14.492-0.02v1.186l-5.392,0.02
			c-0.421,0.649-0.822,1.396-1.243,2.026v12.905h-1.281V842.721z M321.896,842.491c2.219,1.014,4.245,2.734,5.908,4.685
			c-0.344,0.249-0.593,0.555-0.918,0.803c-0.344-0.42-0.707-0.745-1.051-1.128c-1.357-1.453-2.926-2.657-4.685-3.441l-0.096-0.096
			L321.896,842.491z"/>
		<path fill="#F2F2F2" d="M217.286,871.861v2.638h7.553v0.421c0.841-1.491,1.032-3.25,1.032-5.047l-0.038-8.699
			c1.835-0.153,3.575-0.632,5.181-1.358l0.727,0.918c-1.491,0.612-3.078,1.052-4.723,1.281c-0.076,1.186,0.02,2.332,0,3.518h5.029
			v1.09h-1.798v10.134l-1.128-0.02v-10.095h-2.104c0,3.422,0.555,7.017-1.893,10.095l-0.879-0.784
			c0.096-0.114,0.19-0.229,0.248-0.363h-8.336v-14.492h1.128v10.19c0.956-1.051,1.97-2.408,2.792-4.072l-2.409-0.019v-1.109h3.326
			v-6.099l1.128,0.019v6.08h3.021v1.128h-3.002v6.711h-1.147v-6.252c-0.688,2.026-2.218,3.729-3.078,4.627L217.286,871.861z
			 M219.771,865.456c-0.42-0.841-1.108-1.893-1.893-2.849l0.88-0.573c0.783,0.898,1.414,1.911,1.873,2.887L219.771,865.456z
			 M224.743,871.307c-0.555-0.86-1.587-1.988-2.237-2.467l0.746-0.649c0.745,0.593,1.777,1.605,2.313,2.428L224.743,871.307z
			 M225.374,862.55c-0.497,1.3-1.262,2.237-1.874,2.887c-0.325-0.152-0.611-0.382-0.898-0.592c0.65-0.632,1.262-1.396,1.969-2.85
			C224.857,862.148,225.106,862.378,225.374,862.55z"/>
		<path fill="#F2F2F2" d="M238.205,871.287c0.554-0.229,1.204-0.42,1.777-0.611l0.02,1.186c-1.645,0.593-3.27,1.166-4.933,1.777
			l-0.822-1.09c0.918-0.21,1.835-0.497,2.734-0.803v-5.659h-2.219v-1.108h2.219v-4.856h1.204v4.856h1.491v1.108h-1.491
			L238.205,871.287z M240.154,868.095v-6.118h3.04c-0.458-0.708-1.242-1.377-1.873-1.932l1.186-0.458
			c0.821,0.688,1.472,1.548,2.007,2.37l1.894,0.02c0.821-0.765,1.376-1.721,1.759-2.696c0.382,0.153,0.745,0.401,1.108,0.631
			c-0.382,0.727-0.822,1.415-1.434,2.046h2.982v6.138H240.154z M242.487,876.985h-1.224v-7.591h8.451v7.571l-1.167-0.02l0.02-1.108
			h-6.1L242.487,876.985z M244.915,863.085h-3.556v3.9h3.537L244.915,863.085z M244.246,866.049
			c-0.344,0.172-0.688,0.363-1.052,0.497c-0.229-0.937-0.86-1.701-1.434-2.485c0.287-0.153,0.593-0.306,0.918-0.439
			C243.405,864.328,243.826,865.207,244.246,866.049z M242.467,870.484v1.511l6.08-0.02l0.02-1.472L242.467,870.484z
			 M242.467,873.085v1.644h6.1l-0.02-1.644H242.467z M249.637,866.947v-3.9l-3.594,0.02v3.881H249.637z M247.515,866.604
			c-0.325-0.172-0.669-0.345-0.994-0.517c0.229-0.287,0.459-0.631,0.688-0.898c0.306-0.593,0.631-1.166,0.86-1.759
			c0.344,0.114,0.65,0.268,0.956,0.439C248.643,864.825,248.204,865.743,247.515,866.604z"/>
		<path fill="#F2F2F2" d="M259.811,871.269c-0.268,2.026-0.631,3.403-1.357,4.933c-0.229,0.478-0.65,0.784-1.205,0.841
			c-0.688,0.077-1.319-0.134-1.969-0.229l-0.307-1.204l1.74,0.363c0.573,0.114,1.014-0.746,1.224-1.453
			c0.439-1.453,0.803-3.021,0.841-4.627h-4.626l0.898-5.182h3.613v-2.791h-4.818v-1.108h5.966v5.009h-3.862l-0.517,2.964h4.551
			C259.983,869.911,259.925,870.427,259.811,871.269z M269.752,877.004c-0.229-0.497-0.554-0.956-0.898-1.415l-8.068,1.052
			l-0.631-1.166c1.415-0.076,2.982-0.172,4.378-0.421v-3.25h-2.638v0.975h-1.147v-6.156h3.785v-1.128h-2.944v-4.474h7.247v4.474
			h-3.155v1.128h3.882v6.156h-1.147v-0.975h-2.734v3.154l2.237-0.344c-0.401-0.421-0.803-0.688-1.262-1.052l0.975-0.573
			c0.956,0.727,2.199,1.835,3.078,3.441L269.752,877.004z M264.533,867.731h-2.638v2.963h2.638V867.731z M267.688,862.129h-4.952
			v2.257h4.952V862.129z M268.415,867.731h-2.734v2.963h2.734V867.731z"/>
	</g>
	<g>
		<g>
			<path fill="#FFFFFF" d="M234.558,813.912h-6.827c0.015-1.643,0.857-2.885,2.2-3.784c1.299-0.942,2.984-1.728,3.014-3.285
				c0.014-0.714-0.286-1.771-1.686-1.771c-1.285,0-1.671,1.1-1.714,2.499h-1.628c0-2.214,1.214-3.856,3.441-3.856
				c2.442,0,3.214,1.785,3.214,3.07c0,1.586-1.086,2.571-2.229,3.371c-1.156,0.8-2.37,1.414-2.656,2.299h4.87V813.912z"/>
			<path fill="#FFFFFF" d="M242.567,808.914c0,2.271-0.586,5.199-3.456,5.199c-2.871,0-3.456-2.929-3.456-5.199
				c0-2.271,0.585-5.199,3.456-5.199C241.981,803.715,242.567,806.643,242.567,808.914z M240.939,808.914
				c0-2.086-0.4-3.842-1.828-3.842c-1.429,0-1.828,1.756-1.828,3.842c0,2.085,0.399,3.842,1.828,3.842
				C240.539,812.756,240.939,810.999,240.939,808.914z"/>
			<path fill="#FFFFFF" d="M243.707,805.572c1.371,0.014,2.671-0.457,2.914-1.657h1.328v9.997h-1.785v-7.055h-2.457V805.572z"/>
			<path fill="#FFFFFF" d="M252.673,803.915h5.17v1.456h-3.956l-0.515,2.543l0.029,0.029c0.442-0.486,1.171-0.758,1.842-0.758
				c1.985,0,3.128,1.428,3.128,3.342c0,1.6-0.999,3.586-3.456,3.586c-1.928,0-3.428-1.043-3.499-3.043h1.628
				c0.1,1.071,0.785,1.686,1.843,1.686c1.385,0,1.856-0.986,1.856-2.199c0-1.1-0.586-2.086-1.899-2.086
				c-0.686,0-1.356,0.215-1.614,0.914h-1.628L252.673,803.915z"/>
		</g>
	</g>
	<g>
		<g>
			<path fill="#FFFFFF" d="M295.092,813.912h-6.827c0.015-1.643,0.857-2.885,2.2-3.784c1.3-0.942,2.984-1.728,3.013-3.285
				c0.015-0.714-0.285-1.771-1.685-1.771c-1.286,0-1.671,1.1-1.714,2.499h-1.629c0-2.214,1.215-3.856,3.442-3.856
				c2.442,0,3.214,1.785,3.214,3.07c0,1.586-1.086,2.571-2.229,3.371c-1.156,0.8-2.371,1.414-2.656,2.299h4.87V813.912z"/>
			<path fill="#FFFFFF" d="M303.102,808.914c0,2.271-0.586,5.199-3.456,5.199c-2.871,0-3.457-2.929-3.457-5.199
				c0-2.271,0.586-5.199,3.457-5.199C302.516,803.715,303.102,806.643,303.102,808.914z M301.474,808.914
				c0-2.086-0.4-3.842-1.828-3.842c-1.429,0-1.828,1.756-1.828,3.842c0,2.085,0.399,3.842,1.828,3.842
				C301.073,812.756,301.474,810.999,301.474,808.914z"/>
			<path fill="#FFFFFF" d="M304.241,805.572c1.371,0.014,2.671-0.457,2.914-1.657h1.328v9.997h-1.785v-7.055h-2.457V805.572z"/>
			<path fill="#FFFFFF" d="M317.092,806.443c-0.071-0.814-0.614-1.371-1.457-1.371c-1.771,0-1.971,2.113-2.071,3.428l0.029,0.028
				c0.442-0.786,1.271-1.186,2.156-1.186c1.985,0,3.156,1.442,3.156,3.356c0,1.942-1.328,3.414-3.327,3.414
				c-2.942,0-3.643-2.314-3.643-5.229c0-2.385,0.942-5.17,3.771-5.17c1.586,0,2.928,1.1,3.014,2.729H317.092z M317.277,810.67
				c0-1.07-0.586-2.041-1.757-2.041c-1.186,0-1.8,0.941-1.8,2.041c0,1.086,0.614,2.086,1.8,2.086
				C316.691,812.756,317.277,811.742,317.277,810.67z"/>
		</g>
	</g>
	<g>
		<g>
			<path fill="#FFFFFF" d="M227.355,646.393h5.717v1.611h-4.374l-0.568,2.811l0.031,0.031c0.489-0.536,1.295-0.836,2.037-0.836
				c2.195,0,3.459,1.578,3.459,3.695c0,1.769-1.105,3.964-3.822,3.964c-2.132,0-3.79-1.153-3.869-3.364h1.801
				c0.11,1.185,0.868,1.863,2.037,1.863c1.531,0,2.053-1.09,2.053-2.432c0-1.216-0.647-2.306-2.101-2.306
				c-0.758,0-1.5,0.237-1.784,1.011h-1.801L227.355,646.393z"/>
			<path fill="#FFFFFF" d="M236.124,646.393h5.717v1.611h-4.374l-0.568,2.811l0.031,0.031c0.489-0.536,1.295-0.836,2.037-0.836
				c2.195,0,3.459,1.578,3.459,3.695c0,1.769-1.105,3.964-3.822,3.964c-2.132,0-3.79-1.153-3.869-3.364h1.801
				c0.11,1.185,0.868,1.863,2.037,1.863c1.531,0,2.053-1.09,2.053-2.432c0-1.216-0.647-2.306-2.101-2.306
				c-0.758,0-1.5,0.237-1.784,1.011h-1.801L236.124,646.393z"/>
			<path fill="#FFFFFF" d="M243.504,646.393h7.564v1.5c-2.306,2.606-3.837,5.56-4.122,9.555h-1.974
				c0.237-3.49,1.99-6.885,4.264-9.443h-5.732V646.393z"/>
			<path fill="#FFFFFF" d="M259.964,654.826h-1.422v2.621h-1.705v-2.621h-4.738v-1.785l4.738-6.648h1.705v7.012h1.422V654.826z
				 M253.488,653.404h3.349v-4.863h-0.032L253.488,653.404z"/>
		</g>
	</g>
	
		<rect x="281.983" y="627.772" opacity="0.698" fill-rule="evenodd" clip-rule="evenodd" fill="#328EC0" width="42.873" height="164.518"/>
	<rect x="221.548" y="666.313" opacity="0.698" fill="#797979" width="42.795" height="125.977"/>
	<g>
		<g>
			<path fill="#FFFFFF" d="M174.122,813.912h-6.827c0.015-1.643,0.857-2.885,2.2-3.784c1.299-0.942,2.984-1.728,3.014-3.285
				c0.014-0.714-0.286-1.771-1.686-1.771c-1.285,0-1.671,1.1-1.714,2.499h-1.628c0-2.214,1.214-3.856,3.441-3.856
				c2.442,0,3.214,1.785,3.214,3.07c0,1.586-1.086,2.571-2.229,3.371c-1.156,0.8-2.37,1.414-2.656,2.299h4.87V813.912z"/>
			<path fill="#FFFFFF" d="M182.132,808.914c0,2.271-0.586,5.199-3.456,5.199c-2.871,0-3.456-2.929-3.456-5.199
				c0-2.271,0.585-5.199,3.456-5.199C181.546,803.715,182.132,806.643,182.132,808.914z M180.504,808.914
				c0-2.086-0.4-3.842-1.828-3.842c-1.429,0-1.828,1.756-1.828,3.842c0,2.085,0.399,3.842,1.828,3.842
				C180.104,812.756,180.504,810.999,180.504,808.914z"/>
			<path fill="#FFFFFF" d="M183.271,805.572c1.371,0.014,2.671-0.457,2.914-1.657h1.328v9.997h-1.785v-7.055h-2.457V805.572z"/>
			<path fill="#FFFFFF" d="M197.936,811.541h-1.285v2.371h-1.542v-2.371h-4.285v-1.613l4.285-6.013h1.542v6.341h1.285V811.541z
				 M192.08,810.256h3.028v-4.398h-0.029L192.08,810.256z"/>
		</g>
	</g>
	<g>
		<g>
			<path fill="#FFFFFF" d="M166.92,709.381h5.717v1.611h-4.374l-0.568,2.812l0.031,0.031c0.489-0.536,1.295-0.837,2.037-0.837
				c2.195,0,3.459,1.579,3.459,3.695c0,1.77-1.105,3.965-3.822,3.965c-2.132,0-3.79-1.153-3.869-3.364h1.801
				c0.11,1.185,0.868,1.863,2.037,1.863c1.531,0,2.053-1.09,2.053-2.433c0-1.215-0.647-2.305-2.101-2.305
				c-0.758,0-1.5,0.236-1.784,1.01h-1.801L166.92,709.381z"/>
			<path fill="#FFFFFF" d="M177.347,713.961c1.2,0.048,2.448-0.379,2.448-1.736c0-0.932-0.727-1.564-1.722-1.564
				c-1.247,0-1.863,1.122-1.832,2.259h-1.8c0.095-2.147,1.437-3.759,3.663-3.759c1.722,0,3.49,0.995,3.49,2.953
				c0,1.105-0.505,1.99-1.563,2.369v0.031c1.248,0.254,2.006,1.343,2.006,2.764c0,2.086-1.8,3.381-3.916,3.381
				c-2.559,0-3.838-1.549-3.886-3.854h1.801c-0.048,1.342,0.679,2.353,2.085,2.353c1.2,0,2.116-0.71,2.116-1.974
				c0-1.722-1.469-1.943-2.891-1.88V713.961z"/>
			<path fill="#FFFFFF" d="M190.681,720.437h-7.549c0.016-1.816,0.947-3.19,2.432-4.185c1.438-1.043,3.301-1.912,3.332-3.633
				c0.017-0.789-0.315-1.959-1.863-1.959c-1.421,0-1.848,1.217-1.895,2.764h-1.801c0-2.447,1.343-4.264,3.806-4.264
				c2.701,0,3.554,1.975,3.554,3.396c0,1.753-1.2,2.843-2.464,3.728c-1.279,0.885-2.621,1.563-2.938,2.543h5.386V720.437z"/>
			<path fill="#FFFFFF" d="M193.227,709.381h5.717v1.611h-4.374l-0.568,2.812l0.031,0.031c0.489-0.536,1.295-0.837,2.037-0.837
				c2.195,0,3.459,1.579,3.459,3.695c0,1.77-1.105,3.965-3.822,3.965c-2.132,0-3.79-1.153-3.869-3.364h1.801
				c0.11,1.185,0.868,1.863,2.037,1.863c1.531,0,2.053-1.09,2.053-2.433c0-1.215-0.647-2.305-2.101-2.305
				c-0.758,0-1.5,0.236-1.784,1.01h-1.801L193.227,709.381z"/>
		</g>
	</g>
	<rect x="161.112" y="729.302" opacity="0.698" fill="#797979" width="42.795" height="62.988"/>
	<g>
		<g>
			<path fill="#FFFFFF" d="M286.849,606.931h5.717v1.61h-4.374l-0.568,2.812l0.031,0.031c0.489-0.537,1.295-0.837,2.037-0.837
				c2.195,0,3.459,1.579,3.459,3.695c0,1.77-1.105,3.964-3.822,3.964c-2.132,0-3.79-1.152-3.869-3.363h1.801
				c0.11,1.185,0.868,1.863,2.037,1.863c1.531,0,2.053-1.09,2.053-2.432c0-1.217-0.647-2.306-2.101-2.306
				c-0.758,0-1.5,0.236-1.784,1.011h-1.801L286.849,606.931z"/>
			<path fill="#FFFFFF" d="M294.228,606.931h7.564v1.5c-2.306,2.605-3.837,5.56-4.122,9.555h-1.974
				c0.237-3.49,1.99-6.886,4.264-9.444h-5.732V606.931z"/>
			<path fill="#FFFFFF" d="M303.281,608.763c1.517,0.016,2.953-0.506,3.222-1.832h1.469v11.055h-1.974v-7.802h-2.717V608.763z"/>
			<path fill="#FFFFFF" d="M313.756,615.19c0.079,0.899,0.679,1.516,1.61,1.516c1.959,0,2.18-2.337,2.29-3.79l-0.031-0.032
				c-0.474,0.854-1.374,1.327-2.385,1.327c-2.085,0-3.49-1.469-3.49-3.728c0-2.147,1.39-3.774,3.806-3.774
				c3.127,0,3.901,2.559,3.901,5.78c0,2.638-1.043,5.717-4.17,5.717c-1.753,0-3.237-1.216-3.332-3.016H313.756z M313.55,610.468
				c0,1.2,0.616,2.321,1.927,2.321c1.343,0,2.006-1.105,2.006-2.321c0-1.185-0.663-2.258-2.006-2.258
				C314.166,608.21,313.55,609.268,313.55,610.468z"/>
		</g>
	</g>
</g>
</svg>
