<?xml version="1.0" encoding="utf-8"?>
<!-- Generator: Adobe Illustrator 16.0.0, SVG Export Plug-In . SVG Version: 6.00 Build 0)  -->
<!DOCTYPE svg PUBLIC "-//W3C//DTD SVG 1.1//EN" "http://www.w3.org/Graphics/SVG/1.1/DTD/svg11.dtd">
<svg version="1.1" id="Layer_1" xmlns="http://www.w3.org/2000/svg" xmlns:xlink="http://www.w3.org/1999/xlink" x="0px" y="0px"
	 width="768px" height="1024px" viewBox="0 0 768 1024" enable-background="new 0 0 768 1024" xml:space="preserve">
<g>
	<g>
		<path fill-rule="evenodd" clip-rule="evenodd" fill="#D9D9D9" d="M477.209,639.763c-0.94-0.333-2.215-0.333-3.804,0
			c-1.591,0-2.218,0-2.845,0c-0.313-0.333-0.627-0.647,0.314-0.962c0.627-0.333,1.273-0.333,1.902-0.333
			c-0.629-0.312-0.629-0.312-0.629-0.312c-0.646,0-1.273,0-1.9,0.312c-1.276-0.312-1.276-0.312-1.276-0.312
			c-0.626,0-0.626,0-0.626,0c1.254,0.645,1.254,0.645,1.254,0.645c-0.941,0.314-0.941,0.962,0,1.276
			c0.961,0.314,2.215,0.314,4.117,0c1.277,0,1.905,0,2.552,0c0.626,0.314,0.626,0.647-0.333,0.962
			c-0.628,0.313-1.256,0.313-1.904,0.647c0.334,0.313,0.334,0.313,0.334,0.313c0.629,0,1.57-0.313,2.215-0.647
			c1.258,0.647,1.258,0.647,1.258,0.647c0.646-0.313,0.646-0.313,0.646-0.313c-0.961-0.647-0.961-0.647-0.961-0.647
			C478.484,640.725,478.152,640.077,477.209,639.763z"/>
		<path fill-rule="evenodd" clip-rule="evenodd" fill="#D9D9D9" d="M464.049,648.588c0-0.94,1.551-1.883,3.747-1.883
			c1.862,0,3.433,0.942,3.433,1.883c0,0.629-1.57,1.569-3.433,1.569C465.6,650.157,464.049,649.217,464.049,648.588z
			 M454.675,645.765c-1.862,0-3.433-0.942-3.433-1.569c0-0.941,1.57-1.883,3.433-1.883c2.195,0,3.745,0.941,3.745,1.883
			C458.42,644.822,456.87,645.765,454.675,645.765z M473.405,636.037c5.001,0,9.374,1.884,9.374,4.079
			c0,2.196-4.373,4.079-9.374,4.079c-4.981,0-9.042-1.883-9.042-4.079C464.363,637.921,468.424,636.037,473.405,636.037z
			 M476.838,632.271c1.255,0,2.194,0.313,2.194,0.941s-0.939,0.941-2.194,0.941c-0.924,0-1.864-0.313-1.864-0.941
			S475.914,632.271,476.838,632.271z M489.018,634.468c0.939,0,2.174,0.627,2.174,0.941c0,0.628-1.234,1.254-2.174,1.254
			c-1.258,0-2.179-0.626-2.179-1.254C486.839,635.095,487.76,634.468,489.018,634.468z M501.195,633.841
			c-25.596-4.079-25.596-4.079-25.596-4.079c-34.34,15.375-34.34,15.375-34.34,15.375c28.713,9.08,28.713,9.08,28.713,9.08
			L501.195,633.841z"/>
		<path fill-rule="evenodd" clip-rule="evenodd" fill="#D9D9D9" d="M470.285,657.316c0.314,0-21.531-6.924-21.531-6.924
			c-7.494,3.472-7.494,3.472-7.494,3.472c28.713,9.1,28.713,9.1,28.713,9.1c31.223-20.416,31.223-20.416,31.223-20.416
			c-7.178-1.256-7.178-1.256-7.178-1.256L470.285,657.316z"/>
		<path fill-rule="evenodd" clip-rule="evenodd" fill="#D9D9D9" d="M470.285,665.396c0.314,0-21.531-6.864-21.531-6.864
			c-7.494,3.432-7.494,3.432-7.494,3.432c28.713,9.042,28.713,9.042,28.713,9.042c31.223-20.26,31.223-20.26,31.223-20.26
			c-7.178-1.235-7.178-1.235-7.178-1.235L470.285,665.396z"/>
		<path fill-rule="evenodd" clip-rule="evenodd" fill="#D9D9D9" d="M470.285,673.555c0.314,0-21.531-6.904-21.531-6.904
			c-7.494,3.453-7.494,3.453-7.494,3.453c28.713,9.1,28.713,9.1,28.713,9.1c31.223-20.397,31.223-20.397,31.223-20.397
			c-7.178-1.254-7.178-1.254-7.178-1.254L470.285,673.555z"/>
	</g>
	<g>
		<g>
			<path fill="#58B5E1" d="M539.94,650.799h-4.97v-15.891h-6.161v-3.746c3.466,0.07,6.65-1.12,7.176-4.865h3.955V650.799z"/>
			<path fill="#58B5E1" d="M563.775,630.567c-5.145,4.48-7.945,13.687-8.016,20.231h-5.32c0.561-7.245,3.57-14.281,8.227-19.882
				h-11.621v-4.62h16.73V630.567z"/>
			<path fill="#58B5E1" d="M578.86,650.799h-4.97v-15.891h-6.161v-3.746c3.466,0.07,6.65-1.12,7.176-4.865h3.955V650.799z"/>
			<path fill="#58B5E1" d="M586.699,645.408h5.496v5.391h-5.496V645.408z"/>
			<path fill="#58B5E1" d="M611.831,630.393h-10.116l-0.98,5.565l0.07,0.069c1.33-1.365,2.871-1.89,4.795-1.89
				c4.831,0,7.562,3.745,7.562,8.331c0,5.04-4.165,8.926-9.101,8.82c-4.761,0-9.031-2.625-9.102-7.771h4.971
				c0.245,2.171,1.855,3.675,4.025,3.675c2.59,0,4.235-2.274,4.235-4.725c0-2.556-1.575-4.586-4.235-4.586
				c-1.785,0-2.766,0.631-3.745,1.961h-4.48l2.415-13.547h13.687V630.393z"/>
			<path fill="#58B5E1" d="M618.971,640.717v11.363h-1.501v-8.803c-0.601,1-1.22,1.58-2.021,2.281l-0.98-1.201
				c2.281-2.04,3.501-4.521,4.262-7.161c0.22-0.78,0.46-1.72,0.68-2.98l1.301,0.56C620.371,636.977,619.75,638.917,618.971,640.717z
				 M630.853,651.02h-9.182c-0.261,0-0.78-0.26-1.101-0.74c-0.359-0.58-0.52-1.48-0.18-2.08c2.36-3.221,6.422-8.402,8.602-10.822
				h-7.722v-1.461h9.982l-0.04,1.42c-3.341,3.561-6.381,7.502-9.042,11.023c-0.16,0.279-0.399,0.52-0.32,0.84
				c0.021,0.18,0.28,0.279,0.421,0.359h8.041c0.24,0,0.42-0.16,0.54-0.34c0.181-0.46,0.181-1.04,0.3-1.82l1.501,0.66
				C632.253,649.898,631.913,651.02,630.853,651.02z"/>
			<path fill="#58B5E1" d="M646.792,648.859c0,0.56,0.399,0.8,0.76,0.8h2.36c0.58,0,0.781-1.4,1.121-3.001l1.54,0.5
				c-0.16,0.98-0.38,1.881-0.7,2.661c-0.301,0.72-1.041,1.38-1.82,1.38h-2.801c-1.66,0-2.061-1.46-2.061-2.561v-6.721l-2.541-0.021
				c0.061,5.821-2.7,8.262-6.24,10.242l-1.101-1.521c3.521-1.84,5.741-3.82,5.722-8.722h-4.582v-1.521l15.063,0.02v1.521
				l-4.721-0.021V648.859z M638.15,635.456h11.702v1.521H638.15V635.456z"/>
			<path fill="#FFFFFF" d="M544.823,673.439v1.48l-16.983,0.02v-1.48l7.701,0.02l-0.02-4.48H529.7l0.021-1.521l5.801,0.021
				l0.02-3.661l-7.161-0.021v-1.48h15.804l0.039,1.48h-7.121v3.661h5.881l-0.039,1.501l-5.802,0.02l0.021,4.48L544.823,673.439z
				 M534.261,657.976c1.601,0.8,2.741,1.94,3.581,3.401l-1.381,0.779c-0.9-1.6-1.92-2.34-3.521-3.34L534.261,657.976z"/>
			<path fill="#FFFFFF" d="M546.879,672.959c1.701-1.42,3.201-3.441,3.641-5.481c0.201-0.88,0.4-1.82,0.421-2.66h-3.28v-1.46
				l4.82,0.02c0.061,2.78-0.42,5.321-1.68,7.441c-0.701,1.2-1.682,2.341-2.842,3.381L546.879,672.959z M549.779,659.096l12.584-0.02
				v1.4c-1.741,1.3-3.582,2.16-5.402,2.76l0.021,1.4h2.901v1.441h-2.901v1.52l2.581,0.02l-0.041,1.441h-2.54v1.74h4.001l-0.02,1.439
				h-3.961l-0.021,2.661c-0.42,1.24-1.44,1.261-3.62,1.22c-0.181-0.539-0.301-0.939-0.541-1.52c0.94,0.039,1.4,0.14,2.08,0.06
				c0.181-0.06,0.48-0.28,0.48-0.58v-1.841h-3.74l-0.02-1.46h3.76v-1.7h-2.52l0.02-1.44h2.521l0.021-1.56h-2.881v-1.441h2.881v-2.46
				c1.34-0.341,3.18-1.081,4.301-1.581l-9.943-0.039V659.096z M564.383,674.02c-2-1.461-3.561-4.002-4.08-6.701
				c-0.281-1.381-0.4-2.922-0.42-4.481c0.539-0.04,0.979-0.021,1.5-0.021c0.02,1.281,0.039,2.621,0.279,3.561
				c0.801-0.74,1.4-1.619,2.041-2.68l1.1,1.061c-0.76,1.199-1.76,2.359-2.801,3.1c0.561,2.001,1.921,3.801,3.521,5.102
				L564.383,674.02z"/>
			<path fill="#FFFFFF" d="M569.96,674.399c0.601-0.3,0.78-0.8,0.78-1.341v-4.201h-2.841v-1.4h2.841v-2.02h-0.9
				c-0.439,0.6-0.7,0.96-1.48,1.641l-1.12-1.201c1.94-1.68,2.921-4.181,3.121-7.521l1.44,0.36c0.06,1.08-0.101,2.141-0.18,2.32h2.96
				v1.44h-3.301c-0.181,0.561-0.46,1.12-0.62,1.521h3.701v1.44h-2.08v2h2.439v1.42h-2.439v4.481l2.561-1.2v1.541l-3.961,2.02
				L569.96,674.399z M576.922,663.637c-0.42-1.561-1.301-2.74-2.461-3.92l1.34-0.681c1.16,1.14,1.98,2.32,2.501,3.841
				L576.922,663.637z M579.762,674.219c1.08,0.08,1.541,0.141,2.061,0.101c0.44-0.021,0.561-0.28,0.561-0.64v-1.761h-5.401v4.261
				h-1.521v-12.063h3.421v-5.941h1.54v5.941h3.501v9.962c0,0.94-0.78,1.74-1.88,1.74h-1.781L579.762,674.219z M576.981,665.557
				v1.701h5.401v-1.701H576.981z M576.981,668.698v1.78h5.401v-1.78H576.981z M584.684,659.717c-0.561,1.479-1.341,2.74-2.602,3.88
				l-1.24-0.96c1.281-1.04,2.061-2.28,2.701-3.801L584.684,659.717z"/>
			<path fill="#FFFFFF" d="M587.06,666.978c2.101-2.22,3.721-5.882,4.581-8.642l1.46,0.52c-0.44,1.381-0.92,2.762-1.5,3.961v13.383
				H590.1v-10.682c-0.22,0.4-0.88,1.4-1.699,2.36L587.06,666.978z M597.262,658.016c0.96,0.561,1.961,1.58,2.621,2.58l-0.441,0.5
				h5.742v1.441l-12.743-0.021v-1.4l6.021-0.021c-0.36-0.6-1.28-1.439-2.301-2.1L597.262,658.016z M593.541,665.537v-1.439h10.102
				v1.439H593.541z M593.541,668.438v-1.439l10.122-0.021l-0.021,1.46H593.541z M595.221,676.16h-1.42l-0.02-6.143h9.582v6.102
				l-1.421,0.021l0.021-1.16h-6.722L595.221,676.16z M595.241,673.719l6.722-0.039v-2.361h-6.762L595.241,673.719z"/>
			<path fill="#FFFFFF" d="M623.684,659.036v14.983c0,0.58-0.461,1.5-1.24,1.62l-2.281,0.04l-0.48-1.561
				c0.82,0.04,1.521,0.1,2.121,0.02c0.22-0.02,0.32-0.18,0.32-0.42v-4.281h-4.361v4.762h-1.561v-4.762h-4.381
				c-0.279,2.581-0.7,4.222-2.92,6.822l-1.281-0.961c0.82-1,1.421-1.82,1.861-2.8c0.6-1.36,0.859-3.021,0.859-4.562v-8.901H623.684z
				 M611.9,660.516v2.901h4.301v-2.901H611.9z M611.9,667.958h4.301v-3.081H611.9V667.958z M617.781,663.417l4.301-0.021v-2.881
				h-4.32L617.781,663.417z M617.781,664.877l-0.02,3.081h4.301l0.02-3.081H617.781z"/>
			<path fill="#FFFFFF" d="M629.68,666.658c-0.46,0.819-0.779,1.279-1.54,2.14l-1.22-0.979c1.8-2.182,3.58-5.021,4.4-9.563l1.34,0.6
				c-0.359,1.82-0.9,3.381-1.46,4.941v12.343h-1.54L629.68,666.658z M638.781,668.818c-0.039,2.381-0.139,4.301-2.1,5.701
				c-1.121,0.779-2.32,1.32-4.182,1.641l-0.8-1.541c2.321-0.12,4.261-1.061,5.121-2.74c0.521-1,0.46-1.861,0.48-3.221
				L638.781,668.818z M631.92,664.417h5.382v-0.761h-3.86v-1.379h3.84v-0.721h-4.42v-1.48h4.42v-1.76h1.5v1.779h4.941v1.461h-4.941
				l0.021,0.7l4.161,0.021v1.379h-4.161v0.781h5.681v1.439H631.92V664.417z M633.141,673.079v-6.542h9.803v6.402h-1.521v-4.922
				h-6.761v5.062H633.141z M643.263,676.52c-1.32-1.26-3.54-2.36-5.142-2.9l0.881-1.24c1.9,0.58,3.601,1.44,5.201,2.801
				L643.263,676.52z"/>
		</g>
	</g>
</g>
</svg>
