<?xml version="1.0" encoding="utf-8"?>
<!-- Generator: Adobe Illustrator 16.0.0, SVG Export Plug-In . SVG Version: 6.00 Build 0)  -->
<!DOCTYPE svg PUBLIC "-//W3C//DTD SVG 1.1//EN" "http://www.w3.org/Graphics/SVG/1.1/DTD/svg11.dtd">
<svg version="1.1" id="Layer_1" xmlns="http://www.w3.org/2000/svg" xmlns:xlink="http://www.w3.org/1999/xlink" x="0px" y="0px"
	 width="768px" height="1024px" viewBox="0 0 768 1024" enable-background="new 0 0 768 1024" xml:space="preserve">
<g>
	<g>
		<path fill-rule="evenodd" clip-rule="evenodd" fill="#D9D9D9" d="M482.621,741.581c-0.922-0.314-1.234-0.628-1.234-1.235
			c0-0.314,0.313-0.628,0.922-0.628c0.627,0,0.922,0.313,1.235,0.313c0-0.628,0-0.628,0-0.628s-0.608-0.313-0.923-0.313
			c0-0.608,0-0.608,0-0.608c-0.607,0-0.607,0-0.607,0c0,0.608,0,0.608,0,0.608c-0.627,0.313-1.234,0.94-1.234,1.568
			c0,0.607,0.607,1.235,1.234,1.55c0.922,0,1.217,0.314,1.217,0.921c0,0.314-0.609,0.943-1.217,0.943
			c-0.314,0-0.941-0.314-1.234-0.629c0,0.629,0,0.629,0,0.629c0.293,0.312,0.607,0.312,1.234,0.626c0,0.609,0,0.609,0,0.609
			c0.607,0,0.607,0,0.607,0c0-0.924,0-0.924,0-0.924c0.609,0,1.237-0.626,1.237-1.255
			C483.858,742.209,483.544,741.895,482.621,741.581z"/>
		<path fill-rule="evenodd" clip-rule="evenodd" fill="#D9D9D9" d="M462.089,729.696c24.495,0,24.495,0,24.495,0
			c0-2.158,0-2.158,0-2.158c0-2.451-1.823-4.294-3.98-4.294c-37.361,0-37.361,0-37.361,0c-2.453,0-3.982,1.843-3.982,4.294
			c0,28.811,0,28.811,0,28.811c0,2.471,1.529,4.294,3.982,4.294c16.847,0,16.847,0,16.847,0v0.314c0,5.826,0,5.826,0,5.826
			c-10.413,0-10.413,0-10.413,0c-0.924,0-1.846,0.607-1.846,1.843c0,0.921,0.922,1.845,1.846,1.845c24.494,0,24.494,0,24.494,0
			c0.923,0,1.844-0.924,1.844-1.845c0-1.235-0.921-1.843-1.844-1.843c-10.414,0-10.414,0-10.414,0c0-5.826,0-5.826,0-5.826v-0.314
			c16.848,0,16.848,0,16.848,0c2.157,0,3.98-1.823,3.98-4.294c0-1.823,0-1.823,0-1.823c-24.495,0-24.495,0-24.495,0V729.696z"/>
		<path fill-rule="evenodd" clip-rule="evenodd" fill="#D9D9D9" d="M494.9,742.895c-0.314,0-0.628-0.293-0.628-0.921
			c0-0.296,0.313-0.608,0.628-0.608c0.607,0,0.902,0.313,0.902,0.608C495.803,742.602,495.508,742.895,494.9,742.895z
			 M482.309,747.505c-2.745,0-5.216-2.451-5.216-5.531c0-3.061,2.471-5.531,5.216-5.531c2.766,0,5.216,2.471,5.216,5.531
			C487.524,745.054,485.074,747.505,482.309,747.505z M469.738,742.895c-0.609,0-0.924-0.293-0.924-0.921
			c0-0.296,0.314-0.608,0.924-0.608c0.314,0,0.606,0.313,0.606,0.608C470.345,742.602,470.053,742.895,469.738,742.895z
			 M464.521,732.148c0,19.669,0,19.669,0,19.669c35.574,0,35.574,0,35.574,0c0-19.669,0-19.669,0-19.669H464.521z"/>
	</g>
	<g>
		<g>
			<path fill="#58B5E1" d="M537.141,737.178h-10.361v-4.551l10.641-14.281h4.445v14.736h3.256v4.096h-3.256v5.67h-4.725V737.178z
				 M537.141,724.576h-0.105l-6.336,8.506h6.441V724.576z"/>
			<path fill="#58B5E1" d="M553.66,728.252c2.135,0.175,5.215-0.245,5.215-3.046c0-2.065-1.645-3.255-3.465-3.255
				c-2.485,0-3.815,1.855-3.78,4.375h-4.726c0.175-5.006,3.43-8.471,8.471-8.471c3.92,0,8.227,2.416,8.227,6.791
				c0,2.311-1.156,4.375-3.431,5.006v0.069c2.695,0.595,4.341,2.835,4.341,5.565c0,5.146-4.307,8.051-9.102,8.051
				c-5.496,0-9.206-3.29-9.102-8.926h4.727c0.104,2.66,1.435,4.83,4.305,4.83c2.24,0,3.99-1.539,3.99-3.85
				c0-3.711-3.255-3.641-5.67-3.641V728.252z"/>
			<path fill="#58B5E1" d="M574.835,717.855c4.901,0,9.031,3.08,9.031,12.637c0,9.766-4.13,12.846-9.031,12.846
				c-4.83,0-8.961-3.08-8.961-12.846C565.874,720.936,570.005,717.855,574.835,717.855z M574.835,739.242
				c4.061,0,4.061-5.984,4.061-8.75c0-2.556,0-8.541-4.061-8.541c-3.99,0-3.99,5.985-3.99,8.541
				C570.845,733.258,570.845,739.242,574.835,739.242z"/>
			<path fill="#58B5E1" d="M594.295,717.855c4.9,0,9.031,3.08,9.031,12.637c0,9.766-4.131,12.846-9.031,12.846
				c-4.83,0-8.961-3.08-8.961-12.846C585.334,720.936,589.465,717.855,594.295,717.855z M594.295,739.242
				c4.061,0,4.061-5.984,4.061-8.75c0-2.556,0-8.541-4.061-8.541c-3.99,0-3.99,5.985-3.99,8.541
				C590.305,733.258,590.305,739.242,594.295,739.242z"/>
			<path fill="#58B5E1" d="M609.24,732.766v11.363h-1.5v-8.803c-0.601,1-1.221,1.58-2.021,2.281l-0.979-1.201
				c2.28-2.04,3.501-4.521,4.261-7.161c0.221-0.78,0.461-1.72,0.68-2.98l1.301,0.56C610.641,729.025,610.021,730.966,609.24,732.766
				z M621.123,743.068h-9.182c-0.261,0-0.781-0.26-1.102-0.74c-0.359-0.58-0.52-1.48-0.18-2.08
				c2.361-3.221,6.422-8.402,8.602-10.822h-7.721v-1.461h9.982l-0.041,1.42c-3.34,3.561-6.381,7.502-9.041,11.023
				c-0.16,0.279-0.4,0.52-0.32,0.84c0.02,0.18,0.279,0.279,0.42,0.359h8.041c0.24,0,0.421-0.16,0.541-0.34
				c0.18-0.46,0.18-1.04,0.3-1.82l1.501,0.66C622.523,741.947,622.184,743.068,621.123,743.068z"/>
			<path fill="#58B5E1" d="M637.063,740.908c0,0.56,0.399,0.8,0.76,0.8h2.36c0.58,0,0.78-1.4,1.12-3.001l1.541,0.5
				c-0.16,0.98-0.381,1.881-0.701,2.661c-0.3,0.72-1.04,1.38-1.82,1.38h-2.801c-1.66,0-2.061-1.46-2.061-2.561v-6.721l-2.54-0.021
				c0.06,5.821-2.7,8.262-6.241,10.242l-1.1-1.521c3.52-1.84,5.74-3.82,5.721-8.722h-4.581v-1.521l15.063,0.02v1.521l-4.721-0.021
				V740.908z M628.42,727.505h11.703v1.521H628.42V727.505z"/>
			<path fill="#FFFFFF" d="M527.039,763.327c3.321-2.12,5.701-5.141,6.742-8.401h-5.562v-1.521l7.222,0.021v-3.121h1.561
				l-0.021,3.121l7.142-0.021v1.521h-5.342c0.881,3.521,3.682,6.541,6.542,8.222l-1.08,1.28c-5.161-3.9-5.861-6.041-7.222-9.742
				l-0.04,7.102h3.86v1.5l-3.84-0.02l-0.021,4.921h-1.521l-0.02-4.921l-3.961,0.02v-1.5l3.961,0.02v-7.121
				c-1.381,4.361-3.721,7.361-7.162,9.842L527.039,763.327z"/>
			<path fill="#FFFFFF" d="M547.42,766.988c2.28-1.34,4.461-3.16,5.861-5.221c-0.561-0.641-1.641-1.461-2.801-2.141l1.199-1.181
				c0.98,0.64,1.901,1.36,2.481,2.061c0.84-1.44,1.56-3.7,1.86-5.541h-3.581c-0.72,1.62-1.8,3.44-3.161,4.921l-1.42-0.78
				c2.261-2.421,4.021-5.761,3.961-9.142l1.561,0.34c-0.08,1.52-0.26,2.4-0.44,3.181l4.861-0.021
				c-0.66,7.662-4.661,12.123-9.242,14.684L547.42,766.988z M564.123,761.867c-0.881-2.041-2.48-3.961-3.9-5.102l0.02,11.383h-1.561
				v-17.904l1.561-0.02l-0.02,5.801l0.8-0.52c1.3,0.82,3.78,3.5,4.481,5.441L564.123,761.867z"/>
			<path fill="#FFFFFF" d="M575.001,756.906h-4.641v8.481h-1.46v-9.922h6.121l0.02-2.301c-2.08,0.12-4.501,0.16-6.821,0.12
				l-0.54-1.5c4.201,0.5,11.383,0.039,14.643-1.561l0.701,1.28c-2.241,0.8-4.381,1.24-6.462,1.501v2.46h6.281v7.901
				c0,0.62-0.2,1.26-0.86,1.641c-0.66,0.38-1.52,0.221-2.34,0.26l-0.641-1.58c0.9,0.02,1.461,0.16,2.061,0.061
				c0.08-0.041,0.24-0.181,0.279-0.361v-6.48h-4.76v10.962h-1.581V756.906z"/>
			<path fill="#FFFFFF" d="M599.262,766.208c0.961,0,2.361-0.06,2.66-0.16c0.201-0.101,0.341-0.521,0.341-0.899l0.021-12.563
				l-12.123-0.021v15.784h-1.58v-17.264h15.283l0.02,14.383c0,0.921-0.359,1.86-0.9,2.141c-0.539,0.2-2.52,0.28-3.18,0.239
				L599.262,766.208z M601.643,754.746l0.02,1.48H591.1l0.021-1.48H601.643z M600.021,758.387v6.041h-7.602v-6.021L600.021,758.387z
				 M593.941,762.947h4.58v-3.061l-4.58,0.02V762.947z"/>
			<path fill="#FFFFFF" d="M607.56,767.088v-1.46h5.841v-14.763h1.561v14.763h2.32v-14.763h1.5v14.763h5.802v1.46H607.56z
				 M610.7,763.588c-0.101-2.721-1.021-5.502-2.021-7.762l1.301-0.621c1.02,2.241,1.96,5.041,2.24,7.723L610.7,763.588z
				 M620.842,763.828l-1.279-0.781c1.38-1.82,2.34-5.4,2.48-7.801l1.38,0.5C623.023,758.887,622.162,761.787,620.842,763.828z"/>
			<path fill="#FFFFFF" d="M631.021,768.209v-9.103c-0.421,0.64-1.501,1.8-2.501,2.761l-1.359-1c2.22-1.921,3.84-4.301,4.92-6.562
				l-3.5,0.021v-1.48h4.141c0.34-0.761,0.58-1.701,0.82-2.781l1.42,0.5c-0.14,0.94-0.439,1.721-0.6,2.281h10.142v1.48l-10.702-0.021
				c-0.359,0.8-0.82,1.62-1.24,2.421l0.02,11.502L631.021,768.209z M633.261,762.247v-1.48l4.94,0.021v-1.521
				c1.16-0.521,2.081-1.24,2.701-1.86h-6.281v-1.48l8.542,0.02v1.381c-0.96,1-2.301,2.18-3.36,2.781v0.659h5.281l-0.021,1.48h-5.261
				l0.02,4.121c0,0.58-0.381,1.12-0.881,1.38c-0.68,0.381-1.92,0.28-2.66,0.26l-1.061-1.539l2.341-0.021c0.4,0,0.64-0.3,0.64-0.74
				v-3.461H633.261z"/>
			<path fill="#FFFFFF" d="M647.219,765.688c1.32-1.1,2.342-2.221,3.002-3.7l1.14,0.78c-0.64,1.561-1.66,2.76-3.001,3.881
				L647.219,765.688z M647.74,753.385l0.02-1.46l3.94,0.021v-1.74h1.521l-0.02,1.72h4.021l0.021,1.46h-4.041l0.02,1.361h3.24
				l0.021,1.439l-7.942,0.021v-1.46l3.141-0.021l0.021-1.341H647.74z M649.48,766.768h1.76c0.381,0,0.58-0.14,0.58-0.56v-4.901
				h-3.881v-1.439h9.102v1.439h-3.721l0.021,5.142c0,0.739-0.341,1.681-1.341,1.681h-1.439L649.48,766.768z M648.9,758.707v-1.441
				h7.161v1.441H648.9z M654.721,761.848c1.281,0.92,1.761,1.619,2.541,2.84l-1.221,0.82c-0.64-1.061-1.359-2.021-2.44-2.801
				L654.721,761.848z M655.781,767.208c3.141-2.62,3.541-4.961,3.781-7.042c0.08-0.799,0.18-2.58,0.22-3.52l1.5,0.22l-0.12,2.501
				c0.42,2.88,1.561,5.781,4.141,7.621l-1.02,1.141c-1.82-1.121-3.261-3.581-3.701-5.342c-0.68,2.101-1.54,3.48-3.621,5.461
				L655.781,767.208z M662.043,757.766c0.38-1,0.619-1.84,0.779-2.54l-3.34,0.021c-0.32,1.26-0.86,2.58-1.74,3.92l-1.48-0.64
				c1.8-2.4,2.301-5.261,2.34-8.382l1.44,0.38c-0.021,1.221-0.079,2.36-0.26,3.261h4.642c-0.101,1.541-0.521,2.841-0.98,4.241
				L662.043,757.766z"/>
			<path fill="#FFFFFF" d="M681.982,751.904v15.504l-1.6-0.02l-0.021-1.9h-7.821v2l-1.58-0.02l0.02-15.564H681.982z
				 M672.561,757.846l7.822-0.02v-4.441h-7.842L672.561,757.846z M680.402,759.307h-7.861l0.02,4.701h7.822L680.402,759.307z"/>
			<path fill="#FFFFFF" d="M693.881,756.866c1.461-1.821,2.44-4.722,2.601-6.642l1.44,0.34c-0.1,0.78-0.221,1.4-0.34,1.82h6.762
				c-0.061,5.922-0.16,12.823-1.421,14.684c-1.12,1.66-3.321,0.859-4.901,0.74l-0.5-1.74c1.24,0.26,2.221,0.5,3.281,0.52
				c0.4,0.02,0.74-0.18,0.9-0.52c0.92-2.781,1.039-6.962,1.18-12.223h-5.721c-0.541,1.52-1.301,3.24-2.701,4.641l-1.5-0.7
				c0.26-0.26,0.48-0.46,0.699-0.72h-1.68v5.08c0.58-0.26,1.541-0.619,2.541-1.02v1.58l-5.602,2.441l-1.4-1.102
				c1.141-0.42,2.141-0.819,2.94-1.14v-5.841h-2.521v-1.44h2.5v-4.281h1.541v4.281h1.9V756.866z M695.561,764.228l-1.1-1.261
				c1.541-0.439,5.641-2.04,7.281-2.78v1.54L695.561,764.228z M700.042,759.486c-0.64-1.02-2.06-2.461-3.2-3.08l1.12-1
				c1.3,0.76,2.66,1.96,3.38,3.061L700.042,759.486z"/>
		</g>
	</g>
</g>
</svg>
