<?xml version="1.0" encoding="utf-8"?>
<!-- Generator: Adobe Illustrator 16.0.0, SVG Export Plug-In . SVG Version: 6.00 Build 0)  -->
<!DOCTYPE svg PUBLIC "-//W3C//DTD SVG 1.1//EN" "http://www.w3.org/Graphics/SVG/1.1/DTD/svg11.dtd">
<svg version="1.1" id="Layer_1" xmlns="http://www.w3.org/2000/svg" xmlns:xlink="http://www.w3.org/1999/xlink" x="0px" y="0px"
	 width="768px" height="1024px" viewBox="0 0 768 1024" enable-background="new 0 0 768 1024" xml:space="preserve">
<g>
	<g>
		<path fill-rule="evenodd" clip-rule="evenodd" fill="#D9D9D9" d="M476.681,844.654c0,1.862,0,1.862,0,1.862
			c-1.235,0-1.235,0-1.235,0c0-1.862,0-1.862,0-1.862c-0.924,0-1.844-0.313-2.452-0.627c0.312-1.235,0.312-1.235,0.312-1.235
			c0.609,0.627,1.531,0.939,2.453,0.939c1.236,0,2.158-0.939,2.158-1.862c0-0.94-0.628-1.55-2.158-1.864
			c-1.529-0.606-2.765-1.547-2.765-3.097c0-1.236,1.235-2.473,2.765-2.786c0-1.549,0-1.549,0-1.549c0.923,0,0.923,0,0.923,0
			c0,1.549,0,1.549,0,1.549c0.921,0,1.843,0.313,2.157,0.628c-0.314,1.234-0.314,1.234-0.314,1.234
			c-0.314-0.313-1.235-0.626-2.157-0.626c-1.217,0-1.845,0.626-1.845,1.235c0,0.94,0.628,1.55,2.159,2.176
			c1.843,0.629,2.767,1.55,2.767,3.1C479.447,843.104,478.209,844.341,476.681,844.654z M476.072,829.476
			c-5.529,0-9.826,4.646-9.826,9.923c0,5.568,4.297,9.903,9.826,9.903c5.511,0,9.807-4.335,9.807-9.903
			C485.879,834.122,481.583,829.476,476.072,829.476z"/>
		<path fill-rule="evenodd" clip-rule="evenodd" fill="#D9D9D9" d="M476.149,852.049c-6.806,0-12.354-5.885-12.354-12.67
			c0-6.806,5.549-12.355,12.354-12.355c6.786,0,12.337,5.55,12.337,12.355C488.486,846.164,482.936,852.049,476.149,852.049z
			 M457.615,835.672c-1.527,0-2.762-1.236-2.762-2.785c0-1.55,1.234-3.078,2.762-3.078c1.55,0,2.785,1.528,2.785,3.078
			C460.4,834.436,459.165,835.672,457.615,835.672z M500.215,834.75c-2.451,0-2.451,0-2.451,0
			c-0.314-2.177-2.178-10.512-15.436-12.669c-3.708-0.629-6.805-0.922-8.963-0.922c-1.842,0-3.08,0.293-4.315,0.293
			c-1.235,0.314-2.471,0.314-4.335,0.314c-0.292,0-0.292,0-0.292,0c-3.099,0-8.964-2.157-9.278-6.785c0-0.314,0-0.314-0.291-0.314
			c0,0-0.314,0-0.314,0.314c-0.629,4.628-0.629,4.628-0.629,4.628c0,0.314-1.845,13.591-12.65,16.984c0,0,0,0,0,0.314
			c0,6.491,0,6.491,0,6.491c0,0.294,0,0.294,0.314,0.294c3.706,0,3.706,0,3.706,0c0.608,1.861,4,12.061,14.808,15.455
			c0,7.411,0,7.411,0,7.411c0,0.314,0,0.314,0.313,0.314c6.474,0,6.474,0,6.474,0c0.313,0,0.313,0,0.313-0.314
			c0-6.805,0-6.805,0-6.805c10.492,0,10.492,0,10.492,0c0,6.805,0,6.805,0,6.805c0,0.314,0,0.314,0.314,0.314c6.49,0,6.49,0,6.49,0
			c0.295,0,0.295,0,0.295-0.314c0-8.335,0-8.335,0-8.335c4.942-2.176,12.984-6.805,12.984-17.003c0-0.293,0-0.293,0-0.293
			c2.451,0,2.451,0,2.451,0s0.313,0,0.313-0.314c0-5.569,0-5.569,0-5.569C500.528,834.75,500.215,834.75,500.215,834.75z"/>
	</g>
	<g>
		<g>
			<path fill="#58B5E1" d="M539.94,841.568h-4.97v-15.893h-6.161v-3.745c3.466,0.07,6.65-1.12,7.176-4.865h3.955V841.568z"/>
			<path fill="#58B5E1" d="M555.445,816.575c6.09,0,8.191,4.2,8.191,6.581c0,2.415-1.261,4.375-3.57,5.145v0.07
				c2.904,0.666,4.585,2.906,4.585,5.986c0,5.145-4.62,7.701-9.171,7.701c-4.726,0-9.311-2.381-9.311-7.666
				c0-3.115,1.75-5.32,4.619-6.021v-0.07c-2.379-0.664-3.604-2.625-3.604-5.04C547.185,818.851,551.455,816.575,555.445,816.575z
				 M555.48,838.313c2.38,0,4.2-1.68,4.2-4.131c0-2.345-1.89-3.92-4.2-3.92c-2.416,0-4.341,1.365-4.341,3.885
				C551.14,836.668,553.1,838.313,555.48,838.313z M555.445,826.937c2.03,0,3.676-1.12,3.676-3.221c0-1.26-0.596-3.396-3.676-3.396
				c-1.995,0-3.746,1.226-3.746,3.396C551.699,825.852,553.45,826.937,555.445,826.937z"/>
			<path fill="#58B5E1" d="M566.434,826.481c-0.174-5.601,3.012-9.906,8.892-9.906c4.48,0,8.401,2.87,8.401,7.666
				c0,3.675-1.961,5.706-4.376,7.421s-5.286,3.115-7.071,5.635h11.587v4.271h-17.992c0.035-5.671,3.501-8.086,7.735-10.957
				c2.171-1.47,5.111-2.975,5.146-5.985c0-2.31-1.541-3.78-3.676-3.78c-2.94,0-3.885,3.045-3.885,5.636H566.434z"/>
			<path fill="#58B5E1" d="M598.181,823.366c-0.315-1.646-1.575-3.046-3.29-3.046c-3.605,0-4.551,4.726-4.691,7.456l0.07,0.07
				c1.365-1.925,3.15-2.73,5.531-2.73c2.1,0,4.234,0.979,5.635,2.521c1.295,1.505,1.891,3.535,1.891,5.461
				c0,5.005-3.465,8.961-8.576,8.961c-7.42,0-9.416-6.477-9.416-12.672c0-5.986,2.66-12.812,9.626-12.812
				c4.235,0,7.386,2.485,7.946,6.791H598.181z M590.654,833.412c0,2.275,1.471,4.551,3.956,4.551c2.38,0,3.745-2.275,3.745-4.48
				c0-2.311-1.189-4.621-3.745-4.621C591.949,828.861,590.654,830.996,590.654,833.412z"/>
			<path fill="#58B5E1" d="M612.04,826.971c2.136,0.176,5.216-0.244,5.216-3.045c0-2.064-1.646-3.255-3.466-3.255
				c-2.485,0-3.815,1.854-3.78,4.375h-4.726c0.175-5.005,3.431-8.471,8.471-8.471c3.921,0,8.226,2.415,8.226,6.791
				c0,2.31-1.154,4.375-3.43,5.005v0.07c2.695,0.596,4.34,2.836,4.34,5.565c0,5.146-4.305,8.052-9.101,8.052
				c-5.495,0-9.206-3.291-9.101-8.927h4.725c0.105,2.661,1.436,4.831,4.307,4.831c2.24,0,3.99-1.541,3.99-3.851
				c0-3.71-3.256-3.641-5.671-3.641V826.971z"/>
			<path fill="#58B5E1" d="M625.619,836.178h5.496v5.391h-5.496V836.178z"/>
			<path fill="#58B5E1" d="M639.13,835.268c0.315,1.645,1.575,3.045,3.29,3.045c3.605,0,4.551-4.726,4.69-7.455l-0.069-0.07
				c-1.365,1.925-3.15,2.73-5.531,2.73c-2.1,0-4.235-0.98-5.635-2.521c-1.296-1.504-1.891-3.535-1.891-5.46
				c0-5.005,3.465-8.961,8.576-8.961c7.42,0,9.416,6.476,9.416,12.671c0,5.986-2.66,12.813-9.627,12.813
				c-4.234,0-7.385-2.486-7.945-6.791H639.13z M646.655,825.221c0-2.275-1.47-4.55-3.955-4.55c-2.38,0-3.745,2.274-3.745,4.48
				c0,2.31,1.189,4.62,3.745,4.62C645.36,829.771,646.655,827.637,646.655,825.221z"/>
			<path fill="#58B5E1" d="M670.211,821.16h-10.116l-0.979,5.566l0.069,0.07c1.33-1.365,2.87-1.891,4.796-1.891
				c4.83,0,7.561,3.745,7.561,8.33c0,5.041-4.166,8.927-9.102,8.822c-4.76,0-9.03-2.626-9.101-7.771h4.971
				c0.245,2.17,1.854,3.676,4.025,3.676c2.591,0,4.235-2.275,4.235-4.727c0-2.555-1.575-4.585-4.235-4.585
				c-1.785,0-2.765,0.63-3.745,1.96h-4.48l2.415-13.546h13.687V821.16z"/>
			<path fill="#58B5E1" d="M677.35,831.486v11.361h-1.5v-8.801c-0.6,1-1.221,1.58-2.021,2.279l-0.979-1.199
				c2.279-2.041,3.5-4.521,4.26-7.162c0.221-0.78,0.461-1.721,0.681-2.98l1.3,0.561C678.75,827.745,678.131,829.686,677.35,831.486z
				 M689.232,841.788h-9.182c-0.26,0-0.78-0.261-1.101-0.74c-0.36-0.58-0.521-1.48-0.18-2.081c2.36-3.221,6.421-8.401,8.602-10.822
				h-7.722v-1.46h9.982l-0.04,1.421c-3.341,3.561-6.382,7.501-9.042,11.021c-0.16,0.28-0.4,0.521-0.32,0.841
				c0.02,0.18,0.28,0.28,0.42,0.36h8.042c0.24,0,0.421-0.16,0.54-0.341c0.18-0.46,0.18-1.04,0.301-1.82l1.5,0.66
				C690.633,840.668,690.293,841.788,689.232,841.788z"/>
			<path fill="#58B5E1" d="M705.172,839.627c0,0.561,0.4,0.801,0.76,0.801h2.361c0.58,0,0.779-1.4,1.119-3.001l1.541,0.501
				c-0.16,0.979-0.381,1.88-0.7,2.66c-0.3,0.72-1.04,1.38-1.82,1.38h-2.801c-1.66,0-2.061-1.46-2.061-2.561v-6.722l-2.54-0.02
				c0.06,5.821-2.701,8.262-6.242,10.242l-1.1-1.521c3.521-1.841,5.741-3.821,5.721-8.722h-4.58v-1.521l15.063,0.021v1.52
				l-4.721-0.02V839.627z M696.529,826.225h11.703v1.521h-11.703V826.225z"/>
			<path fill="#FFFFFF" d="M528.24,864.287c-0.421-0.379-0.801-0.68-1.32-1.199c1.24-0.361,2.16-0.74,3.02-1.061v-4.621h-2.04
				l0.021-1.42l1.98,0.02l0.02-3.961l-2.4,0.02v-1.46l6.201,0.021v1.42H531.5l-0.02,3.961l1.961-0.02v1.42h-1.961v4.041
				c0.58-0.221,1.44-0.621,2.42-0.98v1.5L528.24,864.287z M543.923,850.084l-0.04,8.703h-4.061v1.92h3.941v1.439h-3.981v2.301h5.341
				v1.421H532.98v-1.421h5.262l0.02-2.301h-4.001v-1.439h3.981l0.02-1.92h-4.141v-8.723L543.923,850.084z M538.242,853.646
				l0.02-2.12l-2.621-0.021v2.141H538.242z M535.641,855.065v2.301h2.602l0.02-2.321L535.641,855.065z M539.803,855.086v2.26
				l2.58,0.021v-2.261L539.803,855.086z M539.842,853.666h2.561l0.041-2.141l-2.621-0.021L539.842,853.666z"/>
			<path fill="#FFFFFF" d="M547.06,865.628c2.7-1.36,3.841-3.761,3.841-6.921v-5.822h1.5v5.861c0,3.182-0.92,6.162-4.381,8.223
				L547.06,865.628z M548.34,850.225h6.701v11.242h-1.5v-9.822h-3.701v9.782h-1.5V850.225z M552.841,862.027
				c1.06,0.74,2.36,2.061,3.2,3.541l-1.279,1c-0.721-1.48-1.341-2.301-2.861-3.581L552.841,862.027z M558.702,866.868l-0.581-1.601
				c1.061,0.04,1.741,0.061,2.461,0.061c0.221-0.041,0.301-0.141,0.301-0.521v-10.042l-0.261,0.02
				c-0.22,3.682-1.36,6.822-4.521,9.842l-1.24-1.16c1.46-1.38,2.4-2.58,3.301-4.4c0.66-1.34,0.9-2.86,0.98-4.301h-3.721v-1.48h5.461
				v-4.24h1.561v4.24h2.22v1.48h-2.22v10.602c0,0.74-0.461,1.501-1.341,1.501H558.702z"/>
			<path fill="#FFFFFF" d="M569.439,856.227h3.901c-0.24-0.601-1.24-1.701-1.841-2.161l0.961-0.8c0.619,0.359,1.9,1.561,2.52,2.5
				l-0.68,0.461l2.58,0.039c0.541-0.52,1.581-1.86,2.021-2.98l1.32,0.721c-0.42,0.84-1.101,1.779-1.501,2.221h5.281v1.379H570.92
				l0.021,3.662c0.021,2.84-1.581,4.641-3.101,5.561l-1.121-1.141c1.32-0.72,2.721-2.28,2.721-4.861V856.227z M576.881,851.665
				l7.102,0.04v1.38H567.72v-1.36h8.042c-0.32-0.58-1.141-1.6-1.941-2.18l1.041-0.841c0.82,0.681,1.74,1.44,2.541,2.641
				L576.881,851.665z"/>
			<path fill="#FFFFFF" d="M593.681,866.889v-1.381h-3.721v1.461l-1.5-0.041v-8.981h6.722l-0.021,8.942H593.681z M589.96,864.088
				l3.7-0.021v-4.7h-3.7V864.088z M601.763,849.824l-0.021,6.541H590.4v-6.561L601.763,849.824z M600.442,851.105l-8.683-0.041
				l0.021,4.041h8.642L600.442,851.105z M598.502,866.828h-1.521v-8.941h6.842v8.901h-1.521v-1.38l-3.801,0.02V866.828z
				 M602.322,859.307h-3.82v4.701l3.82-0.021V859.307z"/>
			<path fill="#FFFFFF" d="M619.223,848.824h1.539v1.621h4.162l-0.021,1.42h-4.142v0.9h1.261v5.48l-6.521,0.02
				c-0.1,0.261-0.3,0.581-0.36,0.681h9.563v1.46h-3.48c0.9,0.721,2.44,1.32,4.341,1.541c-0.4,0.561-0.601,1.02-0.98,1.4
				c-1.08-0.24-2.08-0.621-2.8-0.92c-0.141,0.939-0.141,2.199-0.641,3.26c-0.9,1.441-2.801,0.66-4.121,0.621l-0.46-1.581
				c1.16,0.2,2.04,0.421,2.98,0.38c0.38-0.06,0.32-0.56,0.46-0.96l0.141-0.899h-3.861c-0.439,0.939-1.381,1.92-2.461,2.359
				c-1.6,0.641-3.34,0.98-5.221,1.181l-0.8-1.421c2.2-0.239,4.181-0.42,5.841-1.359c0.381-0.301,0.78-0.58,0.881-0.74h-3.262v-1.021
				c-0.74,0.36-1.779,0.78-2.96,1.04l-0.921-1.4c1.74-0.42,3.321-0.939,4.182-1.46l-3.501-0.04v-1.42h5.222
				c0.22-0.26,0.5-0.621,0.56-0.721h-3.12l0.02-5.501H612v-0.88h-4.141v-1.42H612v-1.621h1.501v1.621h5.722V848.824z
				 M614.021,860.387c-0.701,0.74-1.501,1.18-1.921,1.381l3.12,0.039c0.101-0.32,0.121-0.779,0.201-1.42H614.021z M620.502,854.125
				h-8.262v0.621h8.262V854.125z M620.502,856.066h-8.241l-0.021,0.82l8.242,0.02L620.502,856.066z M613.501,851.865v0.859
				l5.761,0.021v-0.88H613.501z M616.901,860.727c-0.04,0.5-0.06,0.86-0.159,1.08h4.04c-0.3-0.18-1.101-0.72-1.681-1.4h-3.32
				L616.901,860.727z"/>
			<path fill="#FFFFFF" d="M635.621,866.868v-4.741c-1.721,2.08-4.501,3.261-7.441,3.881c-0.301-0.439-0.46-0.859-0.86-1.381
				c2.62-0.439,5.001-1.52,6.501-2.779h-5.58v-1.421l7.361-0.021v-1.08h1.58v1.101h7.441v1.4l-5.701,0.021
				c0.2,0.199,0.66,0.619,1.2,0.939c1.561,0.92,3.28,1.48,5.341,1.781c-0.34,0.58-0.56,0.92-0.779,1.379
				c-2.961-0.52-5.981-1.64-7.482-3.78l-0.039,4.741L635.621,866.868z M644.023,850.965v1.44h-6.382l0.021,0.88l5.101-0.02v1.4
				h-5.121v0.8h5.181l-0.02,1.44l-5.161-0.02l0.021,0.939l6.682-0.02v1.42l-12.684-0.02l-0.02,0.979h-1.48v-6.121
				c-0.221,0.24-0.721,0.74-1.541,1.36c-0.439-0.32-0.699-0.561-1.24-0.9c2.021-1.46,3.301-3.5,4.242-5.581l1.359,0.54
				c-0.3,0.76-0.699,1.381-0.76,1.5l4.341-0.02c-0.341-0.44-1.101-0.9-2.021-1.36l1.1-0.98c0.9,0.36,2.221,1.341,2.741,2.021
				l-0.399,0.28L644.023,850.965z M631.601,856.846l0.04,0.98l4.48-0.02v-0.92L631.601,856.846z M636.142,855.466v-0.78h-4.481v0.78
				H636.142z M636.142,852.445l-4.441-0.04l0.021,0.88l4.421-0.02V852.445z"/>
			<path fill="#FFFFFF" d="M651.86,854.045c-0.54,1.621-1.921,3.021-3.04,4.121l-1.181-1.08c1.181-0.98,2.28-2.16,3.12-3.781
				L651.86,854.045z M650.62,852.525c-0.86-1.24-1.58-1.781-2.54-2.4l0.92-0.92c0.9,0.379,2.141,1.26,2.74,2.14L650.62,852.525z
				 M648.08,865.308c2.92-0.18,4.881-0.12,6.641-2.04c0.701-0.94,0.721-1.98,0.84-3.641l1.441-0.021
				c-0.061,2.001-0.221,4.062-1.861,5.341c-1.8,1.421-4.041,1.66-6.361,1.82L648.08,865.308z M661.242,857.547v6.24h-1.5v-4.801
				h-6.901v4.781h-1.521v-6.221h0.881l-0.621-0.881c1.921-0.54,3.32-1.021,4.461-1.98c0.721-0.6,1.16-1.301,1.561-2.4l1.4,0.32
				l-0.26,0.779c1.58,2.182,3.641,2.801,6.262,3.502l-1.041,1.279c-2.141-0.54-4.461-1.76-5.901-3.48
				c-0.8,1.301-3.001,2.541-4.901,2.82L661.242,857.547z M660.902,853.506c0.561-0.641,0.84-1.24,0.98-1.661h-5.842
				c-0.58,1.081-1.721,2.12-2.94,2.961l-1.021-1.181c1.74-1.02,2.921-2.76,3.521-4.641l1.34,0.48c-0.08,0.279-0.26,0.64-0.34,0.88
				h6.881c0.121,1.9-0.619,2.921-1.22,3.901L660.902,853.506z M662.662,866.969c-1.699-1.121-4.02-1.9-6.221-2.361l0.7-1.3
				c2.081,0.42,4.321,1.06,6.281,2.261L662.662,866.969z"/>
			<path fill="#FFFFFF" d="M677.262,849.805c2.061,2.561,4.74,4.881,8.162,5.881l-1.221,1.24c-1.381-0.46-2.58-1.16-3.48-1.76
				l0.02,0.82l-3.641-0.021l0.02,2.32h5.422l0.02,1.44l-5.461,0.02l0.02,4.802l7.162-0.021v1.461h-15.844l-0.02-1.461l7.182,0.021
				v-4.821l-5.521,0.02l-0.02-1.46h5.541v-2.32l-3.641,0.021v-0.861c-0.98,0.641-2.24,1.361-3.641,2.001l-1.021-1.261
				c2.981-1.34,6.762-3.58,9.002-7.421l1.24,0.84L677.262,849.805z M673.021,864.228c-0.54-1.32-1.16-2.421-2.3-3.48l1.359-0.64
				c0.841,0.659,2.021,2.46,2.4,3.5L673.021,864.228z M679.803,854.525c-1.101-0.92-2.561-2.24-3.441-3.48
				c-0.86,1.08-2.28,2.601-3.541,3.44L679.803,854.525z M677.802,863.508c1.32-0.94,2.24-2.201,2.9-3.581l1.22,0.88
				c-0.64,1.381-1.5,2.66-2.76,3.641L677.802,863.508z"/>
		</g>
	</g>
</g>
</svg>
