<?xml version="1.0" encoding="utf-8"?>
<!-- Generator: Adobe Illustrator 16.0.0, SVG Export Plug-In . SVG Version: 6.00 Build 0)  -->
<!DOCTYPE svg PUBLIC "-//W3C//DTD SVG 1.1//EN" "http://www.w3.org/Graphics/SVG/1.1/DTD/svg11.dtd">
<svg version="1.1" id="Layer_1" xmlns="http://www.w3.org/2000/svg" xmlns:xlink="http://www.w3.org/1999/xlink" x="0px" y="0px"
	 width="768px" height="1024px" viewBox="0 0 768 1024" enable-background="new 0 0 768 1024" xml:space="preserve">
<g>
	
		<rect x="55.004" y="122.247" opacity="0.302" fill-rule="evenodd" clip-rule="evenodd" fill="#FFFFFF" width="339.695" height="44.455"/>
	<g>
		<path fill="#F2F2F2" d="M135.2,145.056v1.799c-2.8,0.775-5.399,1.25-7.523,1.925l-0.9-1.675c1.5-1.5,2.85-3.024,3.549-4.149
			c-0.2,0.05-1.675,0.4-2.699,0.75l-0.95-1.725c1.225-1.95,2.999-5.824,4.199-8.923l1.7,0.8c-0.75,1.75-2.674,5.923-3.624,7.573
			c0.4-0.05,1.824-0.35,2.624-0.525c0.55-0.825,1-1.6,1.575-2.75l1.675,0.9c-1.2,2.274-2.975,5.199-4.949,7.148L135.2,145.056z
			 M126.827,151.754c2.999-0.975,5.624-1.85,8.723-2.824v1.899l-7.798,2.649L126.827,151.754z M135.75,143.832v-1.825h4.648v-3.399
			h-5.573v-1.85h5.573v-4.074h1.925v4.074h5.999v1.85h-5.999v3.399h4.749v1.825H135.75z M146.322,146.181v9.073h-1.875v-1.699
			h-6.148v1.699h-1.875v-9.073H146.322z M144.447,151.705v-3.674h-6.148v3.674H144.447z"/>
		<path fill="#F2F2F2" d="M157.875,141.432c1.425,1.375,2.475,2.374,2.949,4.024l-1.6,0.975c-0.6-1.6-1.35-2.5-2-3.024v11.672
			h-1.875v-10.072c-0.275,0.85-1.149,2.749-2.699,4.549l-1.55-1.175c2.275-2.475,3.324-5.249,3.875-8.248l0.125-0.7h-3.049v-1.825
			h3.274v-4.849h1.899v4.849h2.85v1.8h-2.85v2.399L157.875,141.432z M170.522,148.255c0.175-1.175,0.275-2.424,0.325-3.624
			l0.175-4.224l0.075-2.899h-8.148c-0.475,1.675-1.274,3.424-2.499,5.149l-1.65-1.1c1.95-2.649,2.85-5.549,3.125-8.998l1.799,0.6
			c-0.025,1.1-0.25,1.875-0.375,2.549h9.598l-0.05,6.073c-0.05,3.149-0.35,6.249-0.825,9.273c-0.15,0.975-0.375,2.074-0.85,3.024
			c-0.575,0.85-1.549,1.2-2.524,0.975c-0.5-0.1-0.975-0.225-1.6-0.425l-0.625-2.225c1.175,0.325,1.899,0.825,2.749,0.85
			c0.175-0.025,0.55-0.125,0.7-1.075L170.522,148.255z M166.273,139.982c-0.675,2.549-1.35,4.949-2.724,7.023l-0.775,1.175
			c1.325-0.225,3.074-0.475,4.674-0.8c-0.15-0.425-0.625-0.95-1.125-1.75l1.549-0.85c1.375,1.6,2.075,3.199,2.325,5.398l-1.825,0.95
			c-0.1-0.95-0.175-1.625-0.325-1.974c-2,0.3-4.049,0.65-6.099,1.399l-1.675-1.799c2.024-3,3.574-5.974,4.124-9.673L166.273,139.982
			z"/>
		<path fill="#F2F2F2" d="M176.677,153.629c2.424-1.424,4.624-3.224,5.699-5.449c-0.85-0.85-2.1-1.725-3.375-2.399l1.4-1.149
			c1.1,0.55,2.225,1.299,2.799,1.799c0.325-0.725,0.675-1.75,1-2.974l1.675,0.55c-0.225,1.25-0.75,2.875-1.2,3.724
			c1.15,1.15,2.199,2.699,3.249,4.299l-1.699,1.2c-0.625-1.399-1.625-2.749-2.425-3.674c-1.35,2.299-3.449,4.174-5.948,5.673
			L176.677,153.629z M176.702,143.881c2.1-1.7,2.875-3.174,3.574-5.024l1.649,0.625c-0.875,2.449-1.725,3.849-3.624,5.699
			L176.702,143.881z M188.074,136.633v1.85h-10.897v-1.85l5.224-0.025c-0.525-0.899-1.575-1.974-2.949-2.899l1.549-1.075
			c1.3,0.899,2.5,2.224,3.324,3.474l-0.7,0.475L188.074,136.633z M186.549,143.631c-0.725-1.575-1.6-2.774-3.199-3.874l1.6-0.975
			c1.475,1.149,2.549,2.399,3.299,4.124L186.549,143.631z M197.396,155.204c-1.625-1.175-3.424-3.024-4.449-4.549
			c-0.975,1.274-2.849,3.174-4.774,4.524l-1.475-1.325c2.125-1.45,4.049-3.099,5.199-4.924c-1-1.899-1.475-3.574-1.85-5.224
			c-0.425,0.825-0.85,1.6-1.625,2.674c-0.6-0.3-1.075-0.575-1.674-0.9c2.049-2.774,3.074-5.749,3.324-9.023
			c0.1-1.149,0.175-2.299,0.175-3.699c0.675,0.1,1.149,0.1,1.75,0.3c0.075,1.6-0.075,3.324-0.225,4.674h6.423v1.799h-1.5
			c-0.175,3.35-1.05,6.673-2.674,9.448c1.075,1.8,2.699,3.5,4.824,4.774L197.396,155.204z M191.223,140.632
			c0.35,1.824,1.15,5.023,1.8,6.273c0.975-1.775,1.649-4.724,1.699-7.374h-3.249L191.223,140.632z"/>
		<path fill="#F2F2F2" d="M204.601,145.356c-0.725,0.35-1.55,0.7-2.299,0.925l-1.25-1.6c3.174-1.025,5.724-2.375,7.948-4.599
			l1.5,1.35c-1.549,1.475-3.524,2.824-5.423,3.724l15.196,0.05v7.048h3.024v1.799h-21.794v-1.799h3.099V145.356z M222.146,139.907
			h-19.496v-1.799h19.496V139.907z M205.375,132.659c1.949,1.2,3.199,2.149,4.599,4.074l-1.5,1.25
			c-1.075-1.575-2.874-2.975-4.549-4.124L205.375,132.659z M206.575,147.031v5.224h2.524v-5.224H206.575z M211.049,146.956v5.224
			h2.725v-5.224H211.049z M222.221,146.656c-1.799-1.975-6.498-3.949-8.523-4.699l1.275-1.425c2.949,0.825,6.573,2.799,8.623,4.674
			L222.221,146.656z M220.646,133.709c-1.449,1.899-2.724,2.999-4.474,4.274l-1.425-1.325c1.725-1.175,3.174-2.549,4.449-4.149
			L220.646,133.709z M215.723,146.956v5.224h2.499v-5.224H215.723z"/>
		<path fill="#F2F2F2" d="M226.852,153.354c1.125,0.05,2.099,0.225,2.824-0.05c0.125-0.1,0.25-0.3,0.25-0.575v-6.023
			c-0.575,0.275-1.85,0.775-2.799,1.025c-0.4-0.525-0.775-0.925-1.25-1.575c1.525-0.5,2.899-0.875,4.049-1.325v-5.299h-3.424v-1.774
			h3.424l-0.025-4.974h1.924v4.974h2.999l0.025,1.774h-3.024v4.649c0.675-0.25,1.674-0.7,2.875-1.175v2.025l-2.875,1.075
			l-0.025,7.198c0,0.95-0.425,1.924-2.024,1.924h-2.325L226.852,153.354z M240.273,155.179c-0.275-0.6-0.475-1.1-0.725-1.925
			c1.125,0.15,2,0.125,2.849,0.125c0.2-0.025,0.4-0.2,0.5-0.425v-5.673h-8.773v-1.775h8.773l0.025-1.924h1.899v1.924h3.674v1.775
			h-3.699v6.073c-0.125,1-0.625,1.649-2,1.85L240.273,155.179z M242.248,136.283h4.724v1.774l-4.724,0.025v3.099l6.099-0.025v1.774
			l-13.771,0.025v-1.799h5.749v-3.1h-4.849l0.025-1.774h4.824v-3.524h1.924V136.283z M239.448,152.404
			c-1.225-1.075-2.774-2.324-4.499-3.024l1.25-1.375c1.674,0.675,3.074,1.7,4.524,2.999L239.448,152.404z"/>
		<path fill="#F2F2F2" d="M250.577,151.43c3.049-0.875,5.149-1.375,8.273-2.399v1.85l-7.023,2.274L250.577,151.43z M258.9,145.181
			v1.774c-2.774,0.55-4.749,0.8-6.974,1.225l-0.774-1.649c1.649-1.325,2.624-2.799,3.824-4.449l-3.049,0.35
			c-0.275-0.65-0.475-1.175-0.774-1.75c1.949-2.449,3.224-4.924,4.249-7.898l1.975,0.825c-1.125,2.35-2.375,4.849-3.874,6.773
			c0.45,0,1.55-0.15,2.774-0.3c0.55-0.975,1.075-1.975,1.675-3.225l1.774,0.9c-1.65,3.399-3.024,5.649-5.249,8.048L258.9,145.181z
			 M271.547,155.179c-1.65-1.75-3.774-3.324-5.624-4.099c-1.924,3.274-6.173,3.849-8.748,4.199l-0.775-1.925
			c0.7,0,1.45-0.175,2-0.25c2.674-0.375,5.349-1.824,6.398-4.099H259.1v-1.775l6.224-0.025c0.225-1.625,0.25-3.474,0.3-5.574
			l1.85,0.05c-0.05,2.099-0.1,3.874-0.275,5.523h5.424v1.825h-5.749l-0.225,0.525c2.125,0.95,4.499,2.049,6.523,4.299
			L271.547,155.179z M262.224,146.931c-0.85-1-2.2-2.075-3.625-2.924c0.35-0.5,0.65-0.875,0.95-1.399
			c1.5,0.7,2.799,1.699,3.999,2.924L262.224,146.931z M259.325,140.932v-1.825h4.824v-1.899h-4.249v-1.799h4.224v-2.524h1.899v2.524
			h5.224v1.799h-5.224v1.95h6.148v1.75c-0.3,0.725-0.95,2.099-1.475,2.924l-1.85-0.925c0.7-0.825,1.1-1.5,1.3-1.975h-7.798
			c1,0.6,1.949,1.5,2.899,2.599l-1.399,1.275c-0.975-1.25-2-2.199-3.25-3.024l0.825-0.825L259.325,140.932z"/>
		<path fill="#F2F2F2" d="M275.902,144.656c2.674-2.849,5.148-7.798,6.023-12.047l1.774,0.75c-0.625,2.375-0.95,3.449-1.824,5.599
			v16.121l-1.95,0.025v-12.322c-0.05,0.075-1.625,2.349-2.399,3.074L275.902,144.656z M290.249,139.033h7.923v1.799h-7.998l-0.075,1
			h1.575v10.272c0,0.25,0.125,0.5,0.425,0.5h3.574c0.5,0,0.55-0.25,0.7-0.649c0.15-0.65,0.225-1.55,0.25-2.649l1.85,1.424
			c-0.225,1.35-0.625,3.674-1.924,3.674h-5.149c-1.274,0-1.725-0.7-1.725-1.625v-8.123c-0.375,2.449-1.225,5.574-3.474,8.123
			c-0.75,0.825-1.774,1.774-2.999,2.424l-1.275-1.5c3.599-2.175,5.024-5.399,5.824-8.973c0.275-1.174,0.45-2.849,0.475-3.874h-5.398
			v-1.824h5.449l0.025-6.199l1.95,0.025V139.033z M294.722,138.883c-0.875-1.5-2.174-2.575-3.599-3.625l1.425-1.225
			c1.399,0.95,2.649,2.25,3.724,3.674L294.722,138.883z"/>
		<path fill="#F2F2F2" d="M319.047,152.404c0.475,0,0.95-0.25,1.1-0.7c0.375-1.125,0.6-2,0.8-3.449l1.875,0.7
			c-0.275,1.625-0.5,3.125-1.425,4.399c-0.5,0.575-1.025,0.8-2,0.925h-4.674c-1.5,0-2.875-1.1-2.875-2.574v-4.674
			c-1.075,0.675-2.125,1.225-3.899,1.924l-0.9-0.975l-0.025,7.423h-1.924v-12.747l-0.025,0.35c-0.675,0.925-1.524,1.925-2.474,2.649
			l-1.725-1.299c3.574-3.1,5.324-6.949,6.773-11.272l1.674,0.8c-0.65,2.149-1.399,4.224-2.299,6.023l0.025,7.223
			c1.95-0.8,3.374-1.399,4.799-2.274v-11.297h1.925v10.247c2.749-1.924,4.349-3.624,6.023-5.723l1.649,1.125
			c-2.524,3.124-5.099,5.349-7.673,6.874v5.298c0,0.625,0.425,1.025,1.375,1.025H319.047z"/>
	</g>
</g>
</svg>
