<?xml version="1.0" encoding="utf-8"?>
<!-- Generator: Adobe Illustrator 16.0.0, SVG Export Plug-In . SVG Version: 6.00 Build 0)  -->
<!DOCTYPE svg PUBLIC "-//W3C//DTD SVG 1.1//EN" "http://www.w3.org/Graphics/SVG/1.1/DTD/svg11.dtd">
<svg version="1.1" id="Layer_1" xmlns="http://www.w3.org/2000/svg" xmlns:xlink="http://www.w3.org/1999/xlink" x="0px" y="0px"
	 width="768px" height="1024px" viewBox="0 0 768 1024" enable-background="new 0 0 768 1024" xml:space="preserve">
<g>
	<path fill="#FFFFFF" d="M634.098,140.586h2.652c-0.273-0.68-1.072-1.734-1.82-2.396l0.936-0.731
		c0.662,0.476,1.529,1.462,2.244,2.72l-0.527,0.374l2.074,0.034c0.594-0.578,1.377-1.836,1.785-3.025l1.189,0.561
		c-0.408,1.054-1.07,2.091-1.428,2.465h2.838v6.068h-4.316v1.394h6.832v1.19h-6.85v3.501h-1.258v-3.484h-6.715v-1.19h6.732v-1.411
		h-4.369V140.586z M638.449,144.189h-3.076v1.292h3.076V144.189z M638.467,142.949v-1.139h-3.078v1.139H638.467z M639.707,141.81
		v1.139h3.094v-1.139H639.707z M642.783,144.173h-3.059v1.309h3.059V144.173z"/>
	<path fill="#FFFFFF" d="M648.514,145.107c2.703-2.618,3.213-5.422,4.063-7.36l1.174,0.544c-0.443,1.326-0.867,2.55-1.361,3.689
		v10.981h-1.309v-8.771c-0.102,0.153-0.867,1.173-1.41,1.751L648.514,145.107z M663.914,151.907l-10.641,0.017v-1.275h4.59
		c1.359-2.414,2.516-4.929,2.686-7.989l1.291,0.493c-0.186,2.567-1.291,5.083-2.531,7.496h4.588L663.914,151.907z M653.664,142.49
		l-0.018-1.275l9.418-0.017v1.275L653.664,142.49z M656.451,149.748c-0.066-2.38-0.662-4.267-1.836-6.238l1.361-0.289
		c1.088,1.921,1.682,3.96,1.852,6.255L656.451,149.748z M657.047,137.713c0.867,0.561,1.887,1.853,2.328,2.873l-1.223,0.544
		c-0.494-1.122-1.174-1.989-2.295-2.72L657.047,137.713z"/>
	<path fill="#FFFFFF" d="M671.055,144.648v-1.7h1.701v1.7H671.055z M671.055,151.754v-1.7h1.701v1.7H671.055z"/>
	<path fill="#FFFFFF" d="M684.877,138.138c-0.289,1.87-0.816,3.519-1.48,5.048v9.655h-1.291l0.018-7.479
		c-0.51,0.85-1.037,1.343-1.717,1.938l-0.834-1.02c1.938-1.733,2.975-3.841,3.621-6.085c0.188-0.663,0.391-1.462,0.578-2.533
		L684.877,138.138z M695.023,149.425c-0.34,1.563-0.629,2.516-1.529,2.516l-7.803,0.017c-0.221,0-0.662-0.238-0.934-0.646
		c-0.307-0.493-0.443-1.258-0.154-1.768c2.006-2.736,5.457-7.139,7.311-9.196h-6.563v-1.224h8.482l-0.033,1.19
		c-2.84,3.026-5.424,6.375-7.684,9.366c-0.137,0.238-0.34,0.442-0.271,0.714c0.016,0.153,0.236,0.221,0.355,0.289h6.834
		c0.203,0,0.357-0.119,0.459-0.272c0.152-0.391,0.152-0.884,0.256-1.547L695.023,149.425z"/>
	<path fill="#FFFFFF" d="M707.043,150.105c0,0.476,0.34,0.68,0.646,0.68h2.006c0.492,0,0.662-1.19,0.951-2.55l1.309,0.425
		c-0.135,0.833-0.322,1.598-0.594,2.261c-0.256,0.612-0.885,1.173-1.547,1.173h-2.381c-1.41,0-1.75-1.241-1.75-2.176v-5.711
		l-2.158-0.017c0.051,4.947-2.295,7.021-5.305,8.703l-0.934-1.292c2.99-1.564,4.877-3.247,4.861-7.412h-3.893v-1.292l12.799,0.017
		v1.292l-4.012-0.017V150.105z M699.701,138.716h9.943v1.292h-9.943V138.716z"/>
</g>
</svg>
