<?xml version="1.0" encoding="utf-8"?>
<!-- Generator: Adobe Illustrator 16.0.0, SVG Export Plug-In . SVG Version: 6.00 Build 0)  -->
<!DOCTYPE svg PUBLIC "-//W3C//DTD SVG 1.1//EN" "http://www.w3.org/Graphics/SVG/1.1/DTD/svg11.dtd">
<svg version="1.1" id="Layer_1" xmlns="http://www.w3.org/2000/svg" xmlns:xlink="http://www.w3.org/1999/xlink" x="0px" y="0px"
	 width="768px" height="1024px" viewBox="0 0 768 1024" enable-background="new 0 0 768 1024" xml:space="preserve">
<line fill="none" stroke="#55B4E1" stroke-width="1.5" stroke-miterlimit="10" stroke-dasharray="1.5,1.5" x1="0" y1="567.713" x2="768" y2="567.713"/>
<line fill="none" stroke="#55B4E1" stroke-miterlimit="10" x1="307.8" y1="192.389" x2="276.327" y2="237.345"/>
<g>
	<path fill="#55B4E1" d="M305.586,215.667c-0.494,1.235-1.121,2.336-2.375,3.647l-1.083-1.026c1.862-2.071,2.679-3.724,3.268-5.642
		l-2.698,0.019v-1.406l2.869-0.019v-2.052c-0.646,0.133-1.159,0.19-2.261,0.323l-0.722-1.425c2.223-0.057,4.084-0.608,6.003-1.5
		l0.76,1.102c-0.76,0.38-1.634,0.817-2.355,1.064v2.508h2.564v1.425l-2.564-0.019v1.102l0.76-0.323
		c0.874,0.855,1.748,2.545,2.166,3.705l-1.272,0.684c-0.38-1.14-1.045-2.469-1.653-3.153v8.853h-1.406V215.667z M308.36,222.374
		c1.672-1.482,2.545-3.001,3.458-5.072l1.178,0.627c-0.228,0.741-0.532,1.33-0.76,1.786c-0.703,1.368-1.406,2.508-2.755,3.647
		L308.36,222.374z M310.032,216.617v-8.929h8.207v8.929H310.032z M316.833,209.094h-5.376v6.136h5.376V209.094z M318.276,223.304
		c-0.722-1.938-2.109-3.799-3.381-5.148l1.102-0.779c1.558,1.52,2.698,3.172,3.515,5.072L318.276,223.304z"/>
	<path fill="#55B4E1" d="M326.296,223.551l-1.425,0.019v-7.656c-0.228,0.646-0.95,1.957-2.146,3.324l-1.197-0.95
		c1.748-1.881,2.622-3.799,3.04-6.079l0.095-0.532h-2.469v-1.387h2.678v-3.686h1.444l-0.019,3.686h2.356v1.387h-2.337v1.938
		l0.399-0.285c1.083,1.044,1.919,1.918,2.299,3.172l-1.292,0.855c-0.323-1.33-0.779-1.729-1.425-2.394v7.314
		c1.558-1.634,2.679-3.096,3.001-5.053c0.19-1.197,0.304-2.375,0.304-3.628v-4.749h-1.577v-1.406l8.929-0.019v1.462
		c-0.456,1.235-0.893,2.318-1.463,3.382h2.204c-0.019,3.059-0.969,5.49-2.736,7.58c1.064,1.197,2.47,2.033,4.18,2.774l-1.254,1.121
		c-1.444-0.817-2.963-1.709-3.933-2.792c-0.608,0.551-1.406,1.216-2.204,1.767c-0.513,0.342-0.988,0.703-1.653,0.988l-1.025-1.083
		c1.52-0.893,2.906-1.653,3.932-2.831c-0.969-1.273-1.709-2.774-1.976-3.534c0.038-0.152-0.228,1.463-0.437,2.052
		c-0.551,1.596-1.368,3.172-2.564,4.426l-0.646,0.684l-1.083-0.893V223.551z M331.083,211.906c0.532,2.488,1.272,4.654,2.831,6.744
		c0.551-0.608,0.988-1.063,1.462-2.033c0.494-0.988,0.76-2.127,0.893-2.982h-2.508l-0.019-1.292
		c0.703-1.178,1.292-2.432,1.672-3.514l-4.331,0.019V211.906z"/>
	<path fill="#55B4E1" d="M343.662,221.614l-0.836-1.216c0.456-0.361,0.665-0.608,0.665-0.893v-6.06h-2.451v-1.368h3.875v7.2
		l1.843-0.988v1.539L343.662,221.614z M344.441,210.557c-0.551-1.14-1.272-1.862-2.279-2.735l0.969-0.855
		c1.064,0.722,1.862,1.501,2.451,2.603L344.441,210.557z M347.177,207.518h9.537v13.963c0,1.045-0.646,1.9-1.767,1.9h-1.786
		l-0.494-1.406c0.855,0.038,1.463,0.076,2.166,0.057c0.304-0.019,0.437-0.247,0.437-0.532v-12.614h-6.668v4.978
		c0,2.108,0.171,4.065-0.171,6.079c-0.247,1.444-0.893,2.831-1.881,4.027l-1.235-0.912c0.988-1.273,1.501-2.128,1.729-3.952
		c0.209-1.596,0.133-3.628,0.133-5.471V207.518z M352.629,210.994h2.09v1.311h-2.09v1.425h2.242v1.33h-5.813v-1.33h2.204v-1.425
		h-2.071v-1.33h2.071v-1.634h1.368V210.994z M354.149,215.744v4.996h-4.445v-4.996H354.149z M352.8,217.073h-1.748v2.337h1.748
		V217.073z"/>
	<path fill="#55B4E1" d="M362.738,221.367l0.019-2.546l1.425-0.019v2.583h3.115v-3.4h-6.516l0.019-1.349h14.742v1.349h-6.82v0.931
		h5.927v1.33h-5.927v1.14h7.903v1.311h-16.983v-1.33H362.738z M375.865,216.712c-1.482-0.475-2.66-1.064-3.609-1.938
		c-0.874,0.627-1.919,1.254-3.135,1.786l-0.722-1.083c1.216-0.494,2.09-1.026,2.944-1.729c-0.417-0.626-0.665-1.14-0.912-1.767
		l-0.703,1.083l-1.044-0.57l0.019,0.95h-2.394c0.912,0.323,1.653,0.779,2.47,1.444l-0.893,1.064
		c-0.627-0.627-1.653-1.14-2.299-1.406v1.938l-1.406-0.019v-2.698c-0.456,1.026-2.014,2.261-3.705,2.907l-0.665-1.178
		c1.539-0.551,2.489-1.273,3.078-2.071h-1.938l-0.019-3.59h3.287v-0.608h-4.104v-1.349h4.084l0.019-1.349h1.406l-0.019,1.349h4.008
		v1.349h-4.008v0.608h3.078v2.298c1.33-1.918,1.786-3.533,2.185-5.737l1.463,0.418c-0.209,0.779-0.418,1.539-0.57,2.014l4.351-0.019
		v1.349h-1.083c-0.114,0.323-0.228,0.798-0.38,1.292c-0.304,0.912-0.817,1.748-1.387,2.375c0.418,0.589,2.355,1.558,3.306,1.786
		L375.865,216.712z M362.282,211.146l0.019,0.988h1.9l-0.019-0.988H362.282z M365.588,213.749l0.247-0.304h-0.247V213.749z
		 M367.316,211.146h-1.709v0.988h1.709V211.146z M371.306,210.158c-0.038,0.057-0.057,0.209-0.095,0.342
		c0.38,0.988,0.722,1.805,1.102,2.298c0.475-0.551,1.102-1.748,1.292-2.641H371.306z"/>
	<path fill="#55B4E1" d="M383.03,211.412c-0.513,1.539-1.824,2.869-2.888,3.914l-1.121-1.026c1.121-0.931,2.166-2.052,2.964-3.591
		L383.03,211.412z M381.852,209.968c-0.817-1.178-1.5-1.691-2.413-2.28l0.874-0.874c0.855,0.361,2.033,1.197,2.603,2.033
		L381.852,209.968z M379.439,222.107c2.774-0.171,4.635-0.114,6.307-1.938c0.666-0.893,0.685-1.881,0.799-3.458l1.367-0.019
		c-0.057,1.9-0.209,3.856-1.767,5.072c-1.709,1.349-3.837,1.577-6.041,1.729L379.439,222.107z M391.939,214.737v5.927h-1.424v-4.559
		h-6.555v4.54h-1.444v-5.908h0.836l-0.589-0.836c1.824-0.513,3.154-0.969,4.236-1.881c0.685-0.57,1.103-1.235,1.482-2.28l1.33,0.304
		l-0.248,0.741c1.502,2.071,3.458,2.66,5.947,3.325l-0.988,1.216c-2.033-0.513-4.236-1.672-5.604-3.306
		c-0.761,1.235-2.85,2.413-4.655,2.679L391.939,214.737z M391.617,210.899c0.531-0.608,0.797-1.178,0.931-1.577H387
		c-0.551,1.026-1.633,2.014-2.792,2.812l-0.969-1.121c1.652-0.969,2.773-2.622,3.343-4.407l1.273,0.456
		c-0.076,0.266-0.247,0.608-0.323,0.836h6.535c0.114,1.805-0.589,2.774-1.159,3.705L391.617,210.899z M393.289,223.684
		c-1.615-1.063-3.818-1.805-5.908-2.241l0.664-1.235c1.977,0.399,4.104,1.007,5.965,2.146L393.289,223.684z"/>
	<path fill="#55B4E1" d="M399.731,213.483h3.704c-0.228-0.57-1.178-1.615-1.748-2.052l0.912-0.76
		c0.59,0.342,1.805,1.481,2.395,2.375l-0.646,0.437l2.451,0.038c0.512-0.494,1.5-1.767,1.918-2.831l1.254,0.684
		c-0.398,0.798-1.045,1.691-1.425,2.109h5.016v1.311h-12.425l0.02,3.477c0.02,2.698-1.501,4.407-2.945,5.281l-1.063-1.083
		c1.253-0.684,2.583-2.166,2.583-4.616V213.483z M406.799,209.151l6.744,0.038v1.311h-15.445v-1.292h7.637
		c-0.304-0.551-1.082-1.52-1.843-2.071l0.987-0.798c0.779,0.646,1.653,1.368,2.414,2.508L406.799,209.151z"/>
	<path fill="#55B4E1" d="M420.365,212.077c-0.438,0.494-1.443,1.368-2.488,2.014l-1.121-1.273c2.108-1.026,5.129-3.951,6.363-6.383
		l1.254,0.532c-0.189,0.475-0.512,0.912-0.664,1.159h5.262v1.14l-1.539,2.051h3.686v8.188h-1.405v-6.839h-7.96v7.219h-1.387V212.077
		z M417.287,222.069c3.496-0.854,6.611-1.671,7.467-4.426c0.379-1.235,0.36-2.545,0.304-4.027h1.405
		c0.039,2.831-0.019,5.452-2.223,7.352c-1.387,1.197-3.855,2.071-6.117,2.507L417.287,222.069z M427.053,209.437h-4.256
		c-0.514,0.703-1.158,1.425-1.652,1.88h4.502L427.053,209.437z M432.295,223.589c-1.5-1.406-3.875-3.04-5.984-3.895l0.817-1.102
		c2.166,0.893,4.54,2.241,6.288,3.932L432.295,223.589z"/>
	<path fill="#55B4E1" d="M437.959,214.623c-0.437,0.779-0.74,1.216-1.463,2.033l-1.158-0.931c1.709-2.071,3.4-4.769,4.18-9.081
		l1.272,0.57c-0.343,1.729-0.854,3.21-1.387,4.692v11.721h-1.463L437.959,214.623z M446.604,216.674
		c-0.039,2.261-0.133,4.084-1.995,5.414c-1.063,0.741-2.204,1.254-3.97,1.558l-0.761-1.463c2.204-0.114,4.046-1.007,4.863-2.603
		c0.494-0.95,0.437-1.767,0.456-3.059L446.604,216.674z M440.087,212.495h5.11v-0.722h-3.666v-1.311h3.646v-0.684h-4.197v-1.406
		h4.197v-1.672h1.426v1.691h4.691v1.387h-4.691l0.019,0.665l3.952,0.019v1.311h-3.952v0.741h5.396v1.368h-11.931V212.495z
		 M441.246,220.721v-6.212h9.309v6.079h-1.443v-4.673h-6.422v4.806H441.246z M450.858,223.988c-1.254-1.197-3.362-2.242-4.882-2.754
		l0.836-1.178c1.805,0.551,3.419,1.368,4.939,2.66L450.858,223.988z"/>
	<path fill="#55B4E1" d="M461.424,215.857v1.368c-2.128,0.589-4.104,0.95-5.719,1.463l-0.684-1.273
		c1.141-1.14,2.166-2.298,2.697-3.153c-0.151,0.038-1.272,0.304-2.051,0.57l-0.723-1.311c0.932-1.482,2.279-4.427,3.191-6.782
		l1.293,0.608c-0.57,1.33-2.033,4.502-2.756,5.756c0.305-0.038,1.387-0.266,1.995-0.399c0.418-0.627,0.761-1.216,1.196-2.09
		l1.273,0.684c-0.912,1.729-2.261,3.951-3.762,5.433L461.424,215.857z M455.06,220.949c2.28-0.741,4.274-1.406,6.63-2.146v1.443
		l-5.927,2.014L455.06,220.949z M461.842,214.927v-1.387h3.533v-2.583h-4.236v-1.406h4.236v-3.097h1.463v3.097h4.56v1.406h-4.56
		v2.583h3.609v1.387H461.842z M469.877,216.712v6.896h-1.424v-1.292h-4.674v1.292h-1.425v-6.896H469.877z M468.453,220.911v-2.792
		h-4.674v2.792H468.453z"/>
	<path fill="#55B4E1" d="M478.676,213.103c1.083,1.045,1.881,1.805,2.242,3.059l-1.217,0.741c-0.455-1.216-1.025-1.9-1.52-2.299
		v8.872h-1.424v-7.656c-0.209,0.646-0.875,2.09-2.053,3.458l-1.178-0.893c1.729-1.881,2.527-3.99,2.945-6.269l0.095-0.532h-2.317
		v-1.387h2.488v-3.686h1.443v3.686h2.166v1.368h-2.166v1.824L478.676,213.103z M488.289,218.289
		c0.133-0.893,0.209-1.843,0.246-2.754l0.133-3.211l0.058-2.204h-6.193c-0.36,1.273-0.969,2.603-1.899,3.914l-1.254-0.836
		c1.482-2.014,2.166-4.217,2.375-6.839l1.367,0.456c-0.019,0.836-0.189,1.425-0.285,1.938h7.295l-0.037,4.616
		c-0.039,2.394-0.267,4.75-0.627,7.048c-0.114,0.741-0.285,1.577-0.646,2.298c-0.438,0.646-1.178,0.912-1.918,0.741
		c-0.381-0.076-0.742-0.171-1.217-0.323l-0.475-1.69c0.893,0.247,1.443,0.626,2.09,0.646c0.133-0.019,0.418-0.095,0.531-0.817
		L488.289,218.289z M485.059,212.001c-0.513,1.938-1.025,3.762-2.07,5.338l-0.589,0.893c1.007-0.171,2.337-0.361,3.552-0.608
		c-0.113-0.323-0.475-0.722-0.854-1.33l1.178-0.646c1.045,1.216,1.576,2.432,1.766,4.104l-1.387,0.722
		c-0.076-0.722-0.133-1.235-0.246-1.5c-1.52,0.228-3.078,0.494-4.636,1.063l-1.272-1.368c1.539-2.28,2.717-4.54,3.135-7.352
		L485.059,212.001z"/>
</g>
<line fill="none" stroke="#55B4E1" stroke-miterlimit="10" x1="326.8" y1="597.174" x2="295.327" y2="642.129"/>
<g>
	<path fill="#55B4E1" d="M322.155,626.949c0.854,0.037,1.596,0.17,2.146-0.039c0.095-0.076,0.19-0.228,0.19-0.437v-4.578
		c-0.437,0.209-1.406,0.589-2.127,0.778c-0.304-0.398-0.589-0.703-0.95-1.196c1.159-0.38,2.204-0.665,3.078-1.007v-4.027h-2.603
		v-1.35h2.603l-0.019-3.779h1.463v3.779h2.28l0.019,1.35h-2.299v3.533c0.513-0.189,1.273-0.531,2.185-0.893v1.539l-2.185,0.816
		l-0.019,5.471c0,0.723-0.323,1.463-1.539,1.463h-1.767L322.155,626.949z M332.356,628.336c-0.209-0.457-0.361-0.836-0.551-1.463
		c0.855,0.113,1.52,0.095,2.166,0.095c0.152-0.019,0.304-0.151,0.38-0.323v-4.313h-6.668v-1.349h6.668l0.019-1.462h1.444v1.462
		h2.792v1.349h-2.812v4.617c-0.095,0.76-0.475,1.254-1.52,1.405L332.356,628.336z M333.857,613.974h3.59v1.349l-3.59,0.02v2.355
		l4.635-0.02v1.35l-10.467,0.019v-1.368h4.369v-2.355h-3.686l0.019-1.349h3.667v-2.679h1.463V613.974z M331.729,626.227
		c-0.931-0.816-2.108-1.767-3.419-2.299l0.95-1.045c1.272,0.514,2.336,1.293,3.438,2.28L331.729,626.227z"/>
	<path fill="#55B4E1" d="M340.205,625.486c2.318-0.666,3.914-1.045,6.288-1.824v1.406l-5.338,1.729L340.205,625.486z
		 M346.531,620.736v1.35c-2.108,0.418-3.609,0.607-5.3,0.93l-0.589-1.253c1.254-1.007,1.995-2.128,2.907-3.382l-2.318,0.266
		c-0.209-0.494-0.361-0.893-0.589-1.33c1.482-1.861,2.451-3.742,3.229-6.002l1.501,0.627c-0.855,1.785-1.805,3.686-2.945,5.148
		c0.342,0,1.178-0.115,2.109-0.229c0.418-0.741,0.817-1.501,1.273-2.451l1.349,0.684c-1.254,2.584-2.299,4.294-3.989,6.117
		L346.531,620.736z M356.144,628.336c-1.254-1.33-2.869-2.527-4.274-3.116c-1.463,2.489-4.692,2.926-6.649,3.192l-0.589-1.463
		c0.532,0,1.102-0.133,1.52-0.19c2.033-0.285,4.065-1.387,4.863-3.116h-4.332v-1.348l4.73-0.02c0.171-1.234,0.19-2.641,0.228-4.236
		l1.406,0.038c-0.038,1.596-0.076,2.944-0.209,4.198h4.123v1.387h-4.37l-0.171,0.398c1.615,0.723,3.419,1.559,4.958,3.268
		L356.144,628.336z M349.058,622.066c-0.646-0.76-1.672-1.576-2.755-2.223c0.266-0.38,0.494-0.665,0.722-1.064
		c1.14,0.533,2.127,1.293,3.04,2.223L349.058,622.066z M346.854,617.508v-1.388h3.666v-1.444h-3.229v-1.367h3.211v-1.918h1.443
		v1.918h3.971v1.367h-3.971v1.482h4.673v1.33c-0.228,0.551-0.722,1.596-1.121,2.223l-1.406-0.703c0.532-0.627,0.836-1.14,0.988-1.5
		h-5.927c0.76,0.455,1.482,1.139,2.204,1.975l-1.063,0.969c-0.741-0.949-1.52-1.672-2.47-2.299l0.627-0.627L346.854,617.508z"/>
	<path fill="#55B4E1" d="M359.471,620.338c2.033-2.166,3.914-5.928,4.578-9.156l1.349,0.569c-0.475,1.805-0.722,2.622-1.387,4.255
		v12.254l-1.482,0.019v-9.365c-0.038,0.057-1.235,1.786-1.824,2.337L359.471,620.338z M370.375,616.063h6.022v1.368h-6.079
		l-0.057,0.76h1.197v7.808c0,0.19,0.095,0.38,0.323,0.38h2.717c0.38,0,0.418-0.189,0.532-0.494c0.114-0.494,0.171-1.178,0.19-2.014
		l1.406,1.083c-0.171,1.026-0.475,2.792-1.462,2.792h-3.914c-0.969,0-1.311-0.531-1.311-1.234v-6.174
		c-0.285,1.861-0.931,4.236-2.641,6.174c-0.57,0.627-1.349,1.349-2.279,1.843l-0.969-1.14c2.736-1.652,3.819-4.104,4.427-6.82
		c0.209-0.893,0.342-2.166,0.361-2.944h-4.104v-1.387h4.142l0.019-4.712l1.481,0.02V616.063z M373.775,615.949
		c-0.665-1.14-1.652-1.957-2.735-2.754l1.083-0.932c1.063,0.723,2.014,1.71,2.831,2.793L373.775,615.949z"/>
	<path fill="#55B4E1" d="M392.281,626.227c0.361,0,0.723-0.189,0.836-0.531c0.285-0.855,0.457-1.52,0.608-2.622l1.425,0.532
		c-0.209,1.234-0.38,2.375-1.083,3.344c-0.38,0.437-0.778,0.607-1.52,0.702h-3.553c-1.14,0-2.185-0.835-2.185-1.956v-3.553
		c-0.816,0.513-1.615,0.931-2.963,1.463l-0.684-0.741l-0.019,5.642h-1.463v-9.688l-0.019,0.266c-0.513,0.703-1.159,1.463-1.88,2.014
		l-1.311-0.988c2.717-2.355,4.046-5.281,5.148-8.567l1.272,0.608c-0.494,1.633-1.063,3.21-1.748,4.578l0.019,5.49
		c1.481-0.608,2.564-1.064,3.647-1.729v-8.588h1.463v7.789c2.09-1.463,3.305-2.754,4.578-4.35l1.254,0.854
		c-1.919,2.374-3.875,4.065-5.832,5.224v4.027c0,0.476,0.322,0.779,1.045,0.779H392.281z"/>
	<path fill="#55B4E1" d="M404.348,627.31c1.805-0.931,3.477-2.108,4.56-3.515c-1.007-1.5-1.521-3.362-1.881-4.844
		c-0.267,0.722-0.931,1.805-1.368,2.355l-1.234-0.912c1.824-2.394,2.621-5.699,2.717-9.023l1.424,0.456
		c0,1.102-0.133,2.204-0.266,2.964h5.623v1.367h-1.158c-0.096,2.66-0.779,5.357-2.146,7.58c0.893,1.33,2.355,2.735,4.122,3.438
		l-1.063,1.12c-1.691-0.76-3.002-2.051-3.971-3.285c-1.102,1.348-2.621,2.488-4.313,3.457l-1.045-0.988v0.95h-1.443v-5.187
		l-3.553,1.197l-1.064-1.121c0.685-0.456,0.646-0.627,0.646-1.33v-8.625h1.443v9.176l2.527-0.854v-10.126h1.443V627.31z
		 M407.844,616.747c0.36,2.071,0.816,3.837,1.938,5.681c1.082-2.146,1.424-4.218,1.576-6.27h-3.362L407.844,616.747z"/>
	<path fill="#55B4E1" d="M417.287,626.607c4.066-2.147,6.479-4.959,7.885-9.252c-0.172-1.178-0.305-2.299-0.305-3.42h-3.286v-1.425
		l4.806-0.019c-0.076,1.69,0.02,3.21,0.267,4.654c0.778,4.445,3.477,7.256,6.744,9.441l-0.912,1.254
		c-2.508-1.559-5.528-4.351-6.706-8.055c-1.254,2.963-3.362,5.832-7.599,8.073L417.287,626.607z"/>
	<path fill="#55B4E1" d="M442.424,620.642v1.368c-2.128,0.588-4.104,0.949-5.719,1.463l-0.684-1.273
		c1.141-1.14,2.166-2.299,2.697-3.153c-0.151,0.038-1.272,0.304-2.051,0.569l-0.723-1.311c0.932-1.481,2.279-4.426,3.191-6.781
		l1.293,0.607c-0.57,1.33-2.033,4.502-2.756,5.756c0.305-0.037,1.387-0.266,1.995-0.398c0.418-0.627,0.761-1.216,1.196-2.09
		l1.273,0.684c-0.912,1.729-2.261,3.951-3.762,5.434L442.424,620.642z M436.06,625.732c2.28-0.74,4.274-1.405,6.63-2.146v1.443
		l-5.927,2.014L436.06,625.732z M442.842,619.711v-1.387h3.533v-2.584h-4.236v-1.406h4.236v-3.096h1.463v3.096h4.56v1.406h-4.56
		v2.584h3.609v1.387H442.842z M450.877,621.496v6.896h-1.424v-1.292h-4.674v1.292h-1.425v-6.896H450.877z M449.453,625.695v-2.793
		h-4.674v2.793H449.453z"/>
	<path fill="#55B4E1" d="M459.676,617.887c1.083,1.045,1.881,1.805,2.242,3.059l-1.217,0.741c-0.455-1.216-1.025-1.899-1.52-2.299
		v8.872h-1.424v-7.656c-0.209,0.646-0.875,2.09-2.053,3.457l-1.178-0.893c1.729-1.881,2.527-3.989,2.945-6.269l0.095-0.532h-2.317
		v-1.387h2.488v-3.686h1.443v3.686h2.166v1.367h-2.166v1.824L459.676,617.887z M469.289,623.073
		c0.133-0.894,0.209-1.843,0.246-2.755l0.133-3.211l0.058-2.203h-6.193c-0.36,1.273-0.969,2.604-1.899,3.914l-1.254-0.836
		c1.482-2.014,2.166-4.218,2.375-6.84l1.367,0.457c-0.019,0.836-0.189,1.424-0.285,1.938h7.295l-0.037,4.615
		c-0.039,2.395-0.267,4.75-0.627,7.049c-0.114,0.74-0.285,1.576-0.646,2.299c-0.438,0.646-1.178,0.912-1.918,0.74
		c-0.381-0.076-0.742-0.171-1.217-0.322l-0.475-1.691c0.893,0.247,1.443,0.627,2.09,0.646c0.133-0.02,0.418-0.096,0.531-0.817
		L469.289,623.073z M466.059,616.785c-0.513,1.938-1.025,3.762-2.07,5.338l-0.589,0.893c1.007-0.17,2.337-0.36,3.552-0.607
		c-0.113-0.322-0.475-0.722-0.854-1.33l1.178-0.646c1.045,1.216,1.576,2.432,1.766,4.104l-1.387,0.722
		c-0.076-0.722-0.133-1.234-0.246-1.5c-1.52,0.228-3.078,0.493-4.636,1.063l-1.272-1.367c1.539-2.279,2.717-4.54,3.135-7.352
		L466.059,616.785z"/>
</g>
</svg>
