<?xml version="1.0" encoding="utf-8"?>
<!-- Generator: Adobe Illustrator 16.0.0, SVG Export Plug-In . SVG Version: 6.00 Build 0)  -->
<!DOCTYPE svg PUBLIC "-//W3C//DTD SVG 1.1//EN" "http://www.w3.org/Graphics/SVG/1.1/DTD/svg11.dtd">
<svg version="1.1" id="Layer_1" xmlns="http://www.w3.org/2000/svg" xmlns:xlink="http://www.w3.org/1999/xlink" x="0px" y="0px"
	 width="768px" height="1024px" viewBox="0 0 768 1024" enable-background="new 0 0 768 1024" xml:space="preserve">
<rect x="122.175" y="274.732" opacity="0.698" fill="#797979" enable-background="new    " width="42.83" height="109.356"/>
<g>
	<path fill="#FFFFFF" d="M135.148,405.711h-6.827c0.015-1.643,0.857-2.885,2.2-3.785c1.299-0.943,2.984-1.728,3.014-3.285
		c0.014-0.714-0.286-1.771-1.686-1.771c-1.285,0-1.671,1.1-1.714,2.5h-1.628c0-2.214,1.214-3.856,3.441-3.856
		c2.442,0,3.214,1.785,3.214,3.07c0,1.585-1.086,2.571-2.229,3.371c-1.156,0.8-2.37,1.414-2.656,2.299h4.87L135.148,405.711
		L135.148,405.711z"/>
	<path fill="#FFFFFF" d="M143.158,400.712c0,2.271-0.586,5.199-3.456,5.199c-2.871,0-3.456-2.928-3.456-5.199
		s0.585-5.198,3.456-5.198C142.572,395.514,143.158,398.442,143.158,400.712z M141.53,400.712c0-2.085-0.4-3.842-1.828-3.842
		c-1.429,0-1.828,1.757-1.828,3.842s0.399,3.842,1.828,3.842C141.129,404.555,141.53,402.798,141.53,400.712z"/>
	<path fill="#FFFFFF" d="M144.297,397.371c1.371,0.014,2.671-0.457,2.914-1.657h1.328v9.998h-1.785v-7.056h-2.457V397.371z"/>
	<path fill="#FFFFFF" d="M153.263,395.714h5.17v1.457h-3.956l-0.515,2.542l0.029,0.029c0.442-0.486,1.171-0.757,1.842-0.757
		c1.985,0,3.128,1.428,3.128,3.342c0,1.6-0.999,3.585-3.456,3.585c-1.928,0-3.428-1.043-3.499-3.042h1.628
		c0.1,1.071,0.785,1.686,1.843,1.686c1.385,0,1.856-0.986,1.856-2.2c0-1.1-0.586-2.085-1.899-2.085
		c-0.686,0-1.356,0.214-1.614,0.914h-1.628L153.263,395.714z"/>
</g>
<g>
	<path fill="#FFFFFF" d="M195.643,405.711h-6.827c0.015-1.643,0.857-2.885,2.2-3.785c1.3-0.943,2.984-1.728,3.013-3.285
		c0.015-0.714-0.285-1.771-1.685-1.771c-1.286,0-1.671,1.1-1.714,2.5h-1.629c0-2.214,1.215-3.856,3.442-3.856
		c2.442,0,3.214,1.785,3.214,3.07c0,1.585-1.086,2.571-2.229,3.371c-1.156,0.8-2.371,1.414-2.656,2.299h4.87L195.643,405.711
		L195.643,405.711z"/>
	<path fill="#FFFFFF" d="M203.653,400.712c0,2.271-0.586,5.199-3.456,5.199c-2.871,0-3.457-2.928-3.457-5.199
		s0.586-5.198,3.457-5.198C203.067,395.514,203.653,398.442,203.653,400.712z M202.025,400.712c0-2.085-0.4-3.842-1.828-3.842
		c-1.429,0-1.828,1.757-1.828,3.842s0.399,3.842,1.828,3.842C201.625,404.555,202.025,402.798,202.025,400.712z"/>
	<path fill="#FFFFFF" d="M204.792,397.371c1.371,0.014,2.671-0.457,2.914-1.657h1.328v9.998h-1.785v-7.056h-2.457V397.371z"/>
	<path fill="#FFFFFF" d="M217.643,398.242c-0.071-0.814-0.614-1.371-1.457-1.371c-1.771,0-1.971,2.114-2.071,3.428l0.029,0.029
		c0.442-0.786,1.271-1.186,2.156-1.186c1.985,0,3.156,1.442,3.156,3.356c0,1.942-1.328,3.414-3.327,3.414
		c-2.942,0-3.643-2.314-3.643-5.228c0-2.385,0.942-5.17,3.771-5.17c1.586,0,2.928,1.1,3.014,2.728H217.643L217.643,398.242z
		 M217.829,402.469c0-1.071-0.586-2.042-1.757-2.042c-1.186,0-1.8,0.942-1.8,2.042c0,1.085,0.614,2.085,1.8,2.085
		C217.243,404.555,217.829,403.541,217.829,402.469z"/>
</g>
<line fill="none" stroke="#F2F2F2" stroke-miterlimit="10" x1="92.921" y1="416.116" x2="254.806" y2="416.116"/>
<g>
	<path fill="#FFFFFF" d="M129.309,263.942h-7.549c0.016-1.816,0.947-3.19,2.432-4.185c1.438-1.042,3.301-1.911,3.332-3.632
		c0.017-0.79-0.315-1.958-1.863-1.958c-1.421,0-1.848,1.216-1.895,2.764h-1.801c0-2.448,1.343-4.264,3.806-4.264
		c2.701,0,3.554,1.974,3.554,3.395c0,1.753-1.2,2.843-2.464,3.728c-1.279,0.884-2.621,1.563-2.938,2.542h5.386V263.942z"/>
	<path fill="#FFFFFF" d="M131.002,261.81h2.195v2.132h-2.195V261.81z"/>
	<path fill="#FFFFFF" d="M134.842,252.887h7.564v1.5c-2.306,2.606-3.837,5.559-4.122,9.555h-1.974
		c0.237-3.49,1.99-6.886,4.264-9.444h-5.732V252.887L134.842,252.887z"/>
	<path fill="#FFFFFF" d="M146.658,257.467c1.2,0.047,2.448-0.379,2.448-1.737c0-0.932-0.727-1.563-1.722-1.563
		c-1.247,0-1.863,1.122-1.832,2.258h-1.8c0.095-2.147,1.437-3.758,3.663-3.758c1.722,0,3.49,0.995,3.49,2.953
		c0,1.105-0.505,1.99-1.563,2.369v0.032c1.248,0.253,2.006,1.342,2.006,2.764c0,2.085-1.8,3.38-3.916,3.38
		c-2.559,0-3.838-1.548-3.886-3.854h1.801c-0.048,1.342,0.679,2.353,2.085,2.353c1.2,0,2.116-0.71,2.116-1.974
		c0-1.721-1.469-1.942-2.891-1.879L146.658,257.467L146.658,257.467z"/>
	<path fill="#FFFFFF" d="M153.138,255.809c0-1.706,0.79-3.143,2.638-3.143c1.848,0,2.638,1.437,2.638,3.143
		c0,1.721-0.727,3.143-2.638,3.143C153.865,258.952,153.138,257.53,153.138,255.809z M155.76,257.925
		c0.884,0,1.231-0.932,1.231-2.116c0-1.058-0.253-2.116-1.231-2.116c-0.979,0-1.2,1.058-1.2,2.116
		C154.56,256.993,154.875,257.925,155.76,257.925z M162.093,252.508h1.2l-6.112,11.813h-1.231L162.093,252.508z M161.065,261.02
		c0-1.706,0.79-3.143,2.638-3.143c1.848,0,2.638,1.437,2.638,3.143c0,1.722-0.727,3.143-2.638,3.143
		C161.792,264.163,161.065,262.742,161.065,261.02z M163.688,263.136c0.885,0,1.231-0.932,1.231-2.116
		c0-1.058-0.252-2.116-1.231-2.116s-1.2,1.058-1.2,2.116C162.487,262.205,162.803,263.136,163.688,263.136z"/>
</g>
<g>
	<path fill="#F2F2F2" d="M106.863,436.355c-2.218,1.835-5.239,3.308-8.164,3.993l-0.631-1.106c3.059-0.593,5.851-1.74,8.26-4.034
		v-2.657H100.4v2.236h-1.166v-3.31h7.094v-1.068h-6.157v-1.071h13.479v1.071h-6.118v1.068h7.112v3.193h-1.204v-2.122h-5.908v2.619
		l0.363,0.268l-0.172,0.174c2.218,1.948,4.952,3.136,8.049,3.518l-0.631,1.09C112.139,439.893,109.023,438.286,106.863,436.355z
		 M104.875,436.202h-3.805v-0.918h3.805V436.202z M104.817,434.348h-3.499v-0.918h3.499V434.348z M109.903,445.953
		c-2.084-1.453-4.397-2.313-6.883-2.792l0.707-0.955c0.994,0.152,1.931,0.478,2.887,0.765c1.281-0.345,2.601-1.014,3.709-1.664
		l-8.737-0.036v-1.07h10.497v1.032c-1.109,1.146-2.486,1.797-3.844,2.369c0.746,0.401,1.568,0.767,2.275,1.302L109.903,445.953z
		 M107.761,440.007c-0.593-0.765-1.549-1.355-2.447-1.814l0.707-0.707c0.804,0.248,1.76,0.879,2.505,1.699L107.761,440.007z
		 M112.522,434.348h-3.595v-0.896h3.595V434.348z M112.77,436.202h-3.843v-0.918h3.843V436.202z"/>
	<path fill="#F2F2F2" d="M120.956,439.624h-1.167v-6.175c-0.535,0.573-1.07,1.262-1.625,1.721l-1.07-0.746
		c1.95-1.625,3.346-3.785,4.206-6.003l1.014,0.497c-0.211,0.611-0.535,1.188-0.765,1.777h4.933
		c-0.115-0.286-0.363-0.518-0.574-0.745c-0.382-0.306-0.745-0.669-1.166-0.938l1.243-0.631c0.803,0.573,1.491,1.396,1.854,2.294
		h5.965v1.147l-6.348-0.021l-0.019,1.264h5.276v0.976h-5.258l-0.019,1.3l5.258,0.021l0.019,0.955h-5.258l-0.019,1.473l7.035-0.021
		v1.13h-13.498L120.956,439.624z M132.58,445.704h-1.186v-1.09l-9.999,0.02v1.128h-1.204v-5.64h12.408L132.58,445.704z
		 M120.974,431.805v1.281h5.296v-1.262L120.974,431.805z M126.27,435.399v-1.319l-5.296,0.019v1.303L126.27,435.399L126.27,435.399z
		 M126.27,437.789v-1.415l-5.296-0.019v1.412L126.27,437.789z M131.394,441.269h-10.019l0.02,2.22h10.019L131.394,441.269z"/>
	<path fill="#F2F2F2" d="M140.019,445.781l0.02-9.254c-0.708,0.994-1.74,2.122-2.639,2.963l-1.09-0.783
		c2.064-1.798,3.671-4.149,4.837-6.597h-3.518v-1.166l4.034,0.02c0.363-0.842,0.611-1.798,0.803-2.716l1.128,0.402
		c-0.114,0.803-0.421,1.548-0.631,2.313l10.038-0.02v1.166h-10.497c-0.382,0.858-0.841,1.645-1.262,2.483l0.02,11.204
		L140.019,445.781z M146.367,444.347c0.229-0.038,0.497-0.075,0.65-0.268c0.172-0.229,0.134-0.593,0.134-0.841v-3.327h-4.914v-1.147
		h4.856v-1.548c1.07-0.479,1.988-1.186,2.887-2.063h-6.404v-1.166l8.106,0.019v1.147c-0.918,0.938-2.199,2.084-3.308,2.732v0.822
		h5.181v1.146h-5.181l0.019,4.321c-0.058,0.479-0.344,0.938-0.784,1.188c-0.765,0.344-1.605,0.134-2.485,0.21l-0.822-1.204
		L146.367,444.347z"/>
	<path fill="#F2F2F2" d="M155.489,443.468c1.166-0.994,2.198-2.123,2.791-3.439l0.88,0.593c-0.593,1.414-1.587,2.581-2.772,3.575
		L155.489,443.468z M155.928,431.193l0.019-1.129h3.862v-1.701h1.205l-0.02,1.701l3.977-0.021v1.147h-3.977l0.02,1.644h3.192
		l0.02,1.109l-7.514,0.019v-1.128l3.078-0.019l0.019-1.625L155.928,431.193L155.928,431.193z M157.783,444.653h1.663
		c0.459-0.098,0.479-0.536,0.479-0.806v-4.854h-3.805v-1.128h8.661v1.128h-3.652v5.201c-0.096,0.993-0.344,1.317-1.014,1.51h-1.491
		L157.783,444.653z M157.056,436.432l0.02-1.128h6.729v1.128H157.056z M163.977,443.066c-0.535-0.918-1.28-1.896-2.18-2.543
		l0.88-0.633c0.363,0.19,0.669,0.518,0.975,0.821c0.517,0.519,0.938,1.109,1.301,1.702L163.977,443.066z M163.901,444.921
		c1.128-0.956,2.218-2.218,2.829-3.576c0.899-2.024,0.918-4.436,1.033-6.634l1.166,0.172l-0.096,2.354
		c0.421,2.866,1.567,5.772,4.015,7.531l-0.821,0.898c-0.421-0.191-0.708-0.573-1.09-0.879c-1.205-1.263-2.027-2.83-2.563-4.477
		c-0.593,2.122-1.873,3.958-3.518,5.449L163.901,444.921z M170.057,435.533c0.306-0.822,0.555-1.646,0.746-2.524l-3.575,0.021
		c-0.363,1.355-0.88,2.619-1.664,3.805l-1.166-0.497c1.683-2.218,2.18-5.104,2.218-7.992l1.109,0.309
		c-0.02,1.09-0.077,2.18-0.269,3.229h4.589c-0.096,1.339-0.497,2.603-0.918,3.844L170.057,435.533z"/>
	<path fill="#F2F2F2" d="M190.268,434.596c-0.669,2.065-1.567,4.073-3.059,5.736l-0.153,0.172c0.688,1.415,1.415,2.696,2.715,3.729
		c0.268,0.21,0.421,0.096,0.517-0.077c0.229-0.86,0.363-1.723,0.401-2.619l1.166,0.67c-0.114,0.955-0.401,1.797-0.727,2.676
		c-0.096,0.309-0.344,0.632-0.669,0.768c-0.918,0.382-1.473-0.557-2.084-1.054c-0.822-0.918-1.606-1.932-2.142-3.06l-0.114,0.038
		c-1.186,1.263-2.505,2.371-3.92,3.229l-1.09-0.841c1.625-0.858,3.25-2.161,4.531-3.671c-0.937-2.333-1.281-4.838-1.549-7.419
		l-6.175-0.019l-0.02,3.002h5.277c-0.02,1.051-0.173,2.122-0.229,3.097c-0.02,0.421-0.134,0.842-0.191,1.262
		c-0.096,0.784-0.363,1.702-1.224,2.046c-0.746,0.287-1.663,0.115-2.447,0L178.585,441c0.707,0.21,1.453,0.306,2.256,0.287
		c0.229,0,0.421-0.115,0.535-0.325c0.306-0.803,0.401-1.683,0.459-2.581l0.096-1.396l-4.034-0.021
		c-0.096,1.511-0.076,3.136-0.344,4.569c-0.287,1.549-0.918,3.04-1.932,4.264l-1.032-0.765c2.275-2.523,2.142-6.443,2.122-9.693
		l-0.019-3.613l7.284-0.02c-0.038-1.052-0.096-2.18-0.096-3.326h1.166c0.038,1.204,0.038,2.122,0.115,3.346h5.773v1.13h-5.659
		c0.076,1.128,0.249,2.407,0.459,3.518c0.191,0.976,0.421,1.912,0.784,2.83l0.076-0.038c1.166-1.491,1.95-3.213,2.601-4.934
		L190.268,434.596z M189.695,431.021c-0.229-0.152-0.401-0.346-0.631-0.497c-0.86-0.556-1.816-0.977-2.85-1.188l0.899-0.803
		c1.28,0.268,2.466,0.842,3.46,1.74L189.695,431.021z"/>
	<path fill="#F2F2F2" d="M193.558,441.154c3.136-2.008,5.507-5.012,6.615-8.451h-5.544v-1.188l7.074,0.021l0.019-3.078h1.224
		l-0.019,3.078l7.074-0.021v1.188l-5.373,0.02c0.306,1.07,0.784,2.104,1.339,3.078c1.204,2.104,3.097,3.9,5.143,5.2l-0.88,0.994
		c-2.064-1.453-4.129-3.479-5.353-5.697c-0.631-1.128-1.147-2.371-1.568-3.575h-0.344v7.057l3.785-0.021v1.166h-3.785v4.837h-1.205
		l-0.019-4.837h-3.9v-1.166l3.9,0.021v-7.074l-0.345,0.02c-0.975,3.23-3.001,6.139-5.697,8.412l-1.128,0.956L193.558,441.154z"/>
	<path fill="#F2F2F2" d="M214.094,436.546c0.708-1.128,1.186-2.867,1.529-4.302h-2.294v-1.108h2.523
		c0.211-0.82,0.307-1.721,0.401-2.601l1.129,0.325c-0.039,0.765-0.229,1.511-0.345,2.273h2.926v1.108h-3.193
		c-0.401,1.566-0.688,2.981-1.472,4.436h1.777v-2.562h1.186v2.562h2.046v1.109h-2.046v2.142l2.696-0.727v1.146l-2.696,0.729v4.685
		h-1.186v-4.436l-3.192,0.784l-0.631-0.994c1.376-0.325,2.657-0.593,3.823-0.918v-2.409h-2.982L214.094,436.546L214.094,436.546z
		 M218.549,444.596c2.064-0.688,4.148-1.721,5.602-3.519c-0.937-1.436-1.625-3.021-1.95-4.722l1.109-0.423
		c0.268,1.453,0.841,2.791,1.605,4.034c0.746-1.281,1.319-2.732,1.606-4.226l1.07,0.517c-0.286,1.759-1.032,3.31-1.95,4.817
		c1.319,1.626,2.982,2.715,4.761,3.557l-0.879,1.014c-1.721-0.82-3.365-2.084-4.646-3.574c-1.529,1.683-3.479,2.868-5.506,3.595
		L218.549,444.596z M219.715,436.088c1.357-0.784,2.639-2.18,3.289-3.537l0.937,0.573c-0.593,1.453-1.932,2.829-3.27,3.747
		L219.715,436.088z M220.328,430.868h4.244c-0.497-0.784-1.339-1.491-2.199-1.874l0.938-0.729c0.879,0.385,1.778,1.243,2.352,2.026
		l-0.88,0.536l5.086,0.038v1.128h-9.54L220.328,430.868L220.328,430.868z M229.045,436.775c-0.745-1.376-1.873-2.695-3.288-3.46
		l0.822-0.767c1.185,0.458,2.867,2.37,3.422,3.479L229.045,436.775z"/>
	<path fill="#F2F2F2" d="M248.664,438.975v1.166l-6.749-0.019l-0.019,5.659l-1.224,0.019l-0.02-5.659l-7.725-0.019v-1.167
		l2.447,0.02v-4.665h5.239v-2.829h-4.302c-0.669,1.378-1.396,2.754-2.619,3.883l-1.033-0.806c1.511-1.396,2.543-3.059,3.078-4.895
		l0.421-1.415c0.363,0.153,0.708,0.307,1.052,0.498c-0.076,0.554-0.268,1.051-0.421,1.587h11.07v1.146l-6.004,0.021l0.02,2.811
		h5.009l0.02,1.166l-4.99,0.021v3.479h6.75V438.975z M236.599,435.495v3.479h4.034l0.02-3.499L236.599,435.495z"/>
	<path fill="#F2F2F2" d="M103.145,462.323c-0.516,0.746-1.108,1.434-1.854,2.024c0.573,0.347,1.109,0.806,1.587,1.319l-0.707,0.976
		c-0.822-0.896-1.759-1.604-2.849-1.986v7.304l-1.281,0.019l0.019-7.607c-0.401,0.229-0.727,0.517-1.128,0.746
		c-0.497,0.286-0.956,0.631-1.472,0.879c-0.306-0.287-0.517-0.745-0.842-0.994c1.836-0.88,3.71-2.16,5.01-3.862
		c0.382-0.478,0.573-1.013,0.803-1.565h-5.258v-1.205l6.577,0.02c-0.058,0.479,0.114,1.07-0.153,1.491
		c-0.439,1.243-1.242,2.371-2.294,3.365v0.248l0.822,0.268c0.86-0.458,1.605-1.452,1.969-2.16L103.145,462.323z M98.729,455.861
		c0.306,0.478,0.611,0.994,0.783,1.527c-0.344,0.191-0.688,0.497-1.07,0.633c-0.306-1.147-0.956-2.22-2.064-2.868
		c0.306-0.19,0.688-0.42,0.994-0.649c0.306,0.152,0.535,0.42,0.783,0.649C98.346,455.421,98.556,455.594,98.729,455.861z
		 M101.979,455.938h8.661l0.019,3.348l-0.076,3.805c-0.038,2.199-0.134,4.397-0.497,6.501c-0.114,0.669-0.841,1.226-1.472,1.376
		c-1.014,0.098-1.989-0.114-2.926-0.324l-0.306-1.377c0.803,0.172,1.549,0.401,2.39,0.497c0.439,0.038,0.842-0.21,1.052-0.571
		c0.134-0.459,0.134-1.016,0.21-1.475c0.038-0.325,0.096-0.688,0.096-1.013c0.02-0.519,0.153-0.995,0.115-1.568
		c0.096-0.478,0.057-1.068,0.114-1.549c0-0.478,0.038-0.897,0.038-1.396l0.038-3.862l-0.019-1.204c-1.071-0.038-2.237,0.019-3.327,0
		v3.25c0,2.467-0.076,4.99-0.956,7.246c-0.688,1.759-2.294,3.403-3.995,4.357c-0.077,0.038-0.077-0.074-0.115-0.112
		c-0.268-0.27-0.535-0.574-0.841-0.86c0.994-0.555,1.988-1.281,2.753-2.123c0.822-0.896,1.242-2.084,1.453-3.174
		c0.134-0.19,0.076-0.516,0.172-0.745c0.268-2.39,0.344-5.545,0.287-7.839l-2.849-0.02L101.979,455.938z"/>
	<path fill="#F2F2F2" d="M120.545,471.902l-0.019-14.724h-6.597v-1.167l16.099,0.021l-0.02,1.146h-8.24l-0.019,14.724H120.545
		L120.545,471.902z M127.658,465.535c-1.453-1.988-3.46-3.23-4.684-3.919l0.535-0.88c1.108,0.421,2.103,1.069,3.059,1.874
		c0.708,0.593,1.396,1.317,1.95,2.008L127.658,465.535z"/>
	<path fill="#F2F2F2" d="M138.481,456.435c-0.707,1.513-1.28,2.906-1.911,4.397c1.262,1.434,2.313,3.116,1.797,5.124
		c-0.153,0.611-0.669,1.186-1.281,1.3c-0.555,0.096-1.147,0.06-1.663-0.057l-0.363-1.265c0.535,0.175,1.204,0.325,1.778,0.153
		c0.516-0.287,0.573-0.86,0.516-1.415c-0.152-1.396-1.07-2.581-2.103-3.537c0.649-1.565,1.319-3.059,2.007-4.605h-2.504v15.313
		h-1.224v-16.44h4.951V456.435L138.481,456.435z M148.041,457.353c-0.688,1.264-1.797,2.296-2.944,3.214
		c1.453,1.09,3.136,1.721,4.895,2.104l-0.707,1.108c-1.797-0.519-3.613-1.338-5.124-2.505c-1.281,0.782-3.595,1.894-5.315,2.295
		l-0.593-1.054c1.76-0.497,3.499-1.068,5.01-2.104c-0.631-0.729-1.224-1.472-1.683-2.294c-0.555,0.975-1.338,1.893-2.18,2.695
		l-1.032-0.688c1.377-1.186,2.963-3.614,3.689-5.87l1.09,0.459c-0.152,0.519-0.382,0.994-0.554,1.491h5.448V457.353z
		 M141.311,465.784l-0.401,1.835h2.619v-2.523h-3.862v-1.128h3.862v-1.683h1.224v1.683h3.098v1.128h-3.098v2.523h4.015v1.128h-4.015
		v3.04h-1.224v-3.04h-4.168l0.765-3.364L141.311,465.784z M142.515,457.333c0.421,0.822,1.09,1.74,1.702,2.429
		c0.898-0.648,1.797-1.528,2.428-2.429H142.515z"/>
	<path fill="#F2F2F2" d="M161.216,469.895c-0.058,0.573-0.345,1.341-1.301,1.415c-1.204,0.076-1.701,0.114-2.772,0.076l-0.458-1.224
		c0.898,0.02,1.911,0.038,2.811,0.02c0.21-0.113,0.439-0.345,0.439-0.572v-9.141c1.759-0.956,3.499-2.084,4.952-3.688l-10.898,0.02
		v-1.224h12.638l-0.019,1.146c-1.491,1.873-3.403,3.271-5.373,4.34L161.216,469.895z"/>
	<path fill="#F2F2F2" d="M233.815,468.595c-2.123-0.631-4.417-1.604-5.755-3.537h-5.258c-1.243,2.064-3.461,3.078-5.603,3.709
		c-0.268-0.323-0.573-0.688-0.784-1.068c1.836-0.402,3.729-1.188,5.124-2.641h-4.072l-0.019-1.107h3.135l0.02-6.77h-2.753v-1.069
		h2.772l-0.02-1.605h1.204v1.605h7.056l0.019-1.646l1.186-0.02v1.663h2.753l0.02,1.069h-2.734l-0.019,6.77h3.154v1.033h-3.785
		c0.152,0.284,0.478,0.533,0.727,0.726c1.242,1.014,2.772,1.473,4.34,1.798L233.815,468.595z M233.279,471.099h-15.601l-0.02-1.128
		l7.074-0.019v-1.721h-3.69v-1.032h3.69v-1.453l1.186,0.019v1.415l3.977,0.021l-0.02,1.032l-3.957,0.019v1.702l7.36,0.019
		L233.279,471.099L233.279,471.099z M221.769,458.672h7.132v-1.491h-7.112L221.769,458.672z M228.901,461.253v-1.529h-7.132
		l0.02,1.55L228.901,461.253z M228.901,463.948l-0.02-1.625l-7.093-0.021v1.625L228.901,463.948z"/>
	<path fill="#F2F2F2" d="M236.646,471.673c-0.306-0.172-0.517-0.535-0.841-0.746c1.51-0.937,2.619-2.543,3.402-4.034l0.976,0.519
		C239.476,469.283,237.774,470.831,236.646,471.673z M244.255,457.486v2.218h5.43v6.31h-10.859l-0.02-6.29h4.283v-5.297h1.186v1.988
		h7.093v1.071H244.255z M248.539,460.774h-8.527v4.168h8.527V460.774z M243.089,471.271c-0.345-1.341-1.109-2.581-1.988-3.673
		c0.344-0.113,0.707-0.211,1.07-0.286c0.727,0.897,1.491,2.198,2.026,3.634L243.089,471.271z M247.276,471.252
		c-0.611-1.396-1.587-2.771-2.408-3.633c0.344-0.134,0.688-0.248,1.032-0.382c0.937,0.937,1.854,2.313,2.409,3.649L247.276,471.252z
		 M251.922,471.405c-0.707-1.415-2.046-3.04-3.136-3.92l0.88-0.535c1.28,1.107,2.562,2.601,3.326,3.92L251.922,471.405z"/>
</g>
</svg>
