<?xml version="1.0" encoding="utf-8"?>
<!-- Generator: Adobe Illustrator 16.0.0, SVG Export Plug-In . SVG Version: 6.00 Build 0)  -->
<!DOCTYPE svg PUBLIC "-//W3C//DTD SVG 1.1//EN" "http://www.w3.org/Graphics/SVG/1.1/DTD/svg11.dtd">
<svg version="1.1" id="Layer_1" xmlns="http://www.w3.org/2000/svg" xmlns:xlink="http://www.w3.org/1999/xlink" x="0px" y="0px"
	 width="768px" height="1024px" viewBox="0 0 768 1024" enable-background="new 0 0 768 1024" xml:space="preserve">
<g>
	<path fill="#FFFFFF" d="M181.497,285.891c1.517,0.016,2.953-0.505,3.222-1.832h1.469v11.055h-1.974v-7.802h-2.717V285.891z"/>
	<path fill="#FFFFFF" d="M190.519,292.982h2.195v2.132h-2.195V292.982z"/>
	<path fill="#FFFFFF" d="M196.349,292.318c0.079,0.9,0.679,1.516,1.61,1.516c1.959,0,2.18-2.337,2.29-3.79l-0.031-0.032
		c-0.474,0.854-1.374,1.327-2.385,1.327c-2.085,0-3.49-1.469-3.49-3.727c0-2.148,1.39-3.774,3.806-3.774
		c3.127,0,3.901,2.558,3.901,5.78c0,2.638-1.043,5.717-4.17,5.717c-1.753,0-3.237-1.216-3.332-3.017H196.349z M196.143,287.596
		c0,1.2,0.616,2.322,1.927,2.322c1.343,0,2.006-1.105,2.006-2.322c0-1.184-0.663-2.258-2.006-2.258
		C196.759,285.338,196.143,286.396,196.143,287.596z"/>
	<path fill="#FFFFFF" d="M210.818,292.492h-1.422v2.622h-1.705v-2.622h-4.738v-1.785l4.738-6.649h1.705v7.012h1.422V292.492z
		 M204.343,291.071h3.349v-4.864h-0.032L204.343,291.071z"/>
	<path fill="#FFFFFF" d="M212.654,286.98c0-1.706,0.79-3.143,2.638-3.143s2.637,1.437,2.637,3.143c0,1.721-0.726,3.143-2.637,3.143
		S212.654,288.702,212.654,286.98z M215.276,289.097c0.884,0,1.231-0.932,1.231-2.116c0-1.058-0.253-2.116-1.231-2.116
		c-0.979,0-1.2,1.058-1.2,2.116C214.076,288.165,214.392,289.097,215.276,289.097z M221.609,283.68h1.2l-6.112,11.813h-1.231
		L221.609,283.68z M220.582,292.192c0-1.706,0.79-3.143,2.638-3.143c1.848,0,2.638,1.437,2.638,3.143
		c0,1.722-0.727,3.143-2.638,3.143C221.309,295.335,220.582,293.914,220.582,292.192z M223.204,294.308
		c0.885,0,1.231-0.932,1.231-2.116c0-1.058-0.252-2.116-1.231-2.116s-1.2,1.058-1.2,2.116
		C222.004,293.376,222.319,294.308,223.204,294.308z"/>
</g>
<g>
	<path fill="#58B5E1" d="M176.767,463.643c-0.847,2.306-1.412,4.804-1.521,6.847h-1.956c0.044-2.107,0.695-4.91,1.761-7.496
		c0.673-1.63,1.368-2.893,2.411-4.392c0.544-0.78,0.739-1.021,1.261-1.63h-7.604v-1.822h10.06v1.477
		C179.223,458.602,177.81,460.84,176.767,463.643z"/>
	<path fill="#58B5E1" d="M192.112,468.249c-0.935,1.63-2.478,2.499-4.39,2.499c-2.477,0-4.063-1.391-4.367-3.868l1.825-0.151
		c0.305,1.675,1.13,2.455,2.586,2.455c1.173,0,2.194-0.63,2.737-1.692c0.544-1.065,0.892-2.543,0.892-3.936v-0.391
		c-0.804,1.26-2.238,2.042-3.716,2.042c-2.673,0-4.606-2.129-4.606-5.084c0-3.086,2.021-5.259,4.889-5.259
		c1.543,0,2.955,0.674,3.89,1.869c1.021,1.279,1.434,2.909,1.434,5.647C193.285,465.12,192.959,466.771,192.112,468.249z
		 M188.005,456.45c-1.738,0-2.977,1.521-2.977,3.605c0,2.064,1.217,3.479,3.041,3.479c1.804,0,3.107-1.412,3.107-3.347
		C191.177,458.08,189.787,456.45,188.005,456.45z"/>
	<path fill="#58B5E1" d="M213.649,463.144c-3.26-1.824-6.584-4.366-8.583-7.82c-1.478,2.672-5.106,6.344-8.8,7.844l-1.413-1.13
		c4.672-2.26,7.714-5.172,9.931-9.626l1.456,0.674l-0.283,0.608c1.738,3.542,5.454,6.214,8.996,8.3L213.649,463.144z
		 M204.11,472.009v-13.516h1.651v13.516H204.11z"/>
</g>
</svg>
