<?xml version="1.0" encoding="utf-8"?>
<!-- Generator: Adobe Illustrator 16.0.0, SVG Export Plug-In . SVG Version: 6.00 Build 0)  -->
<!DOCTYPE svg PUBLIC "-//W3C//DTD SVG 1.1//EN" "http://www.w3.org/Graphics/SVG/1.1/DTD/svg11.dtd">
<svg version="1.1" id="Layer_1" xmlns="http://www.w3.org/2000/svg" xmlns:xlink="http://www.w3.org/1999/xlink" x="0px" y="0px"
	 width="768px" height="1024px" viewBox="0 0 768 1024" enable-background="new 0 0 768 1024" xml:space="preserve">
<rect x="330.33" y="328.87" opacity="0.698" fill="#797979" width="42.83" height="54.218"/>
<g>
	<path fill="#FFFFFF" d="M343.361,404.711h-6.827c0.015-1.643,0.857-2.885,2.2-3.785c1.299-0.943,2.984-1.728,3.014-3.285
		c0.014-0.714-0.286-1.771-1.686-1.771c-1.285,0-1.671,1.1-1.714,2.5h-1.628c0-2.214,1.214-3.856,3.441-3.856
		c2.442,0,3.214,1.785,3.214,3.07c0,1.585-1.086,2.571-2.229,3.371c-1.156,0.8-2.37,1.414-2.656,2.299h4.87V404.711z"/>
	<path fill="#FFFFFF" d="M351.371,399.712c0,2.271-0.586,5.199-3.456,5.199c-2.871,0-3.456-2.928-3.456-5.199
		c0-2.271,0.585-5.198,3.456-5.198C350.785,394.514,351.371,397.441,351.371,399.712z M349.743,399.712
		c0-2.085-0.4-3.842-1.828-3.842c-1.429,0-1.828,1.757-1.828,3.842c0,2.085,0.399,3.842,1.828,3.842
		C349.343,403.554,349.743,401.797,349.743,399.712z"/>
	<path fill="#FFFFFF" d="M352.511,396.37c1.371,0.014,2.671-0.457,2.914-1.657h1.328v9.998h-1.785v-7.056h-2.457V396.37z"/>
	<path fill="#FFFFFF" d="M361.477,394.713h5.17v1.457h-3.956l-0.515,2.542l0.029,0.029c0.442-0.486,1.171-0.757,1.842-0.757
		c1.985,0,3.128,1.428,3.128,3.342c0,1.6-0.999,3.585-3.456,3.585c-1.928,0-3.428-1.043-3.499-3.042h1.628
		c0.1,1.071,0.785,1.686,1.843,1.686c1.385,0,1.856-0.986,1.856-2.2c0-1.1-0.586-2.085-1.899-2.085
		c-0.686,0-1.356,0.214-1.614,0.914h-1.628L361.477,394.713z"/>
</g>
<g>
	<path fill="#FFFFFF" d="M403.863,404.711h-6.827c0.015-1.643,0.857-2.885,2.2-3.785c1.299-0.943,2.984-1.728,3.014-3.285
		c0.014-0.714-0.286-1.771-1.686-1.771c-1.285,0-1.671,1.1-1.714,2.5h-1.628c0-2.214,1.214-3.856,3.441-3.856
		c2.442,0,3.214,1.785,3.214,3.07c0,1.585-1.086,2.571-2.229,3.371c-1.156,0.8-2.37,1.414-2.656,2.299h4.87V404.711z"/>
	<path fill="#FFFFFF" d="M411.873,399.712c0,2.271-0.586,5.199-3.456,5.199c-2.871,0-3.456-2.928-3.456-5.199
		c0-2.271,0.585-5.198,3.456-5.198C411.287,394.514,411.873,397.441,411.873,399.712z M410.245,399.712
		c0-2.085-0.4-3.842-1.828-3.842c-1.429,0-1.828,1.757-1.828,3.842c0,2.085,0.399,3.842,1.828,3.842
		C409.845,403.554,410.245,401.797,410.245,399.712z"/>
	<path fill="#FFFFFF" d="M413.013,396.37c1.371,0.014,2.671-0.457,2.914-1.657h1.328v9.998h-1.785v-7.056h-2.457V396.37z"/>
	<path fill="#FFFFFF" d="M425.863,397.241c-0.071-0.814-0.614-1.371-1.457-1.371c-1.771,0-1.971,2.114-2.07,3.428l0.028,0.029
		c0.442-0.786,1.271-1.186,2.156-1.186c1.985,0,3.156,1.442,3.156,3.356c0,1.942-1.328,3.414-3.327,3.414
		c-2.942,0-3.643-2.314-3.643-5.228c0-2.385,0.943-5.17,3.771-5.17c1.586,0,2.928,1.1,3.014,2.728H425.863z M426.049,401.469
		c0-1.071-0.586-2.042-1.757-2.042c-1.186,0-1.8,0.942-1.8,2.042c0,1.085,0.614,2.085,1.8,2.085
		C425.463,403.554,426.049,402.54,426.049,401.469z"/>
</g>
<g>
	<path fill="#FFFFFF" d="M333.945,307.17h7.564v1.5c-2.306,2.606-3.837,5.559-4.122,9.555h-1.974c0.237-3.49,1.99-6.886,4.264-9.444
		h-5.732V307.17z"/>
	<path fill="#FFFFFF" d="M344.104,307.17h5.717v1.611h-4.374l-0.568,2.812l0.031,0.031c0.489-0.537,1.295-0.837,2.037-0.837
		c2.195,0,3.459,1.579,3.459,3.696c0,1.769-1.105,3.964-3.822,3.964c-2.132,0-3.79-1.153-3.869-3.364h1.801
		c0.11,1.184,0.868,1.863,2.037,1.863c1.531,0,2.053-1.09,2.053-2.432c0-1.216-0.647-2.306-2.101-2.306
		c-0.758,0-1.5,0.237-1.784,1.011h-1.801L344.104,307.17z"/>
	<path fill="#FFFFFF" d="M353.474,315.43c0.079,0.9,0.679,1.516,1.61,1.516c1.959,0,2.18-2.337,2.29-3.79l-0.031-0.032
		c-0.474,0.853-1.374,1.327-2.385,1.327c-2.085,0-3.49-1.469-3.49-3.727c0-2.148,1.39-3.774,3.806-3.774
		c3.127,0,3.901,2.558,3.901,5.78c0,2.638-1.043,5.717-4.17,5.717c-1.753,0-3.237-1.216-3.332-3.017H353.474z M353.268,310.708
		c0,1.2,0.616,2.322,1.927,2.322c1.343,0,2.006-1.105,2.006-2.322c0-1.184-0.663-2.258-2.006-2.258
		C353.884,308.45,353.268,309.508,353.268,310.708z"/>
	<path fill="#FFFFFF" d="M362.242,315.43c0.079,0.9,0.679,1.516,1.61,1.516c1.959,0,2.18-2.337,2.29-3.79l-0.031-0.032
		c-0.474,0.853-1.374,1.327-2.385,1.327c-2.085,0-3.49-1.469-3.49-3.727c0-2.148,1.39-3.774,3.806-3.774
		c3.127,0,3.901,2.558,3.901,5.78c0,2.638-1.043,5.717-4.17,5.717c-1.753,0-3.237-1.216-3.332-3.017H362.242z M362.036,310.708
		c0,1.2,0.616,2.322,1.927,2.322c1.343,0,2.006-1.105,2.006-2.322c0-1.184-0.663-2.258-2.006-2.258
		C362.652,308.45,362.036,309.508,362.036,310.708z"/>
</g>
<line fill="none" stroke="#F2F2F2" stroke-miterlimit="10" x1="303.869" y1="415.115" x2="465.754" y2="415.115"/>
<g>
	<path fill="#F2F2F2" d="M326.128,442.887c-0.516-1.434-1.09-3.021-1.95-4.397c-1.07,2.563-2.887,4.188-4.913,5.889l-0.842-0.765
		c1.854-1.529,3.996-3.518,5.066-6.194c-0.841-1.243-2.504-2.944-3.556-3.881c0.325-0.191,0.669-0.421,1.032-0.555
		c1.243,1.09,2.333,2.198,3.002,3.231c0.631-1.76,1.147-3.575,1.242-5.487h-6.213v-1.052h7.418
		c-0.058,2.715-0.727,5.258-1.683,7.647c1.032,1.529,1.835,3.384,2.428,5.066L326.128,442.887z M326.836,432.238v-1.09h5.735v-3.785
		h1.166v3.785h1.874v1.071h-1.893v11.204c-0.077,0.439-0.383,0.821-0.784,1.013l-0.421,0.153c-0.669,0.038-1.357,0.019-2.026,0
		l-0.401-1.147c0.65,0.02,1.357,0.115,2.064,0.076c0.191-0.019,0.325-0.172,0.421-0.344l0.02-10.937H326.836z M330.258,439.523
		c-0.517-1.587-1.587-2.983-2.83-4.283c0.307-0.152,0.612-0.363,0.938-0.478c0.879,0.937,2.275,2.447,2.868,4.244L330.258,439.523z"
		/>
	<path fill="#F2F2F2" d="M345.077,429.122c-0.65,2.639-4.092,6.673-5.659,7.725l-0.937-0.918c1.969-1.529,4.817-4.589,5.563-7.457
		L345.077,429.122z M349.685,437.897c1.664,1.587,2.83,3.614,3.499,5.736l-1.224,0.593c-0.191-0.688-0.497-1.491-0.803-2.142
		l-7.553,1.166c-0.745,0.115-1.434,0.307-2.16,0.44l-0.86-1.301c2.142-1.721,4.321-5.392,4.723-8.604l1.204,0.459
		c-0.631,3.633-2.638,6.462-4.264,7.992c1.587-0.153,6.559-0.918,8.375-1.224c-0.593-0.938-1.263-1.816-2.104-2.581L349.685,437.897
		z M349.035,428.471c1.051,2.772,2.963,5.698,5.525,7.457l-0.86,0.918c-2.257-1.319-4.856-5.373-5.659-7.743L349.035,428.471z"/>
	<path fill="#F2F2F2" d="M374.007,441.511c-2.123-0.631-4.417-1.606-5.755-3.537h-5.258c-1.243,2.064-3.461,3.078-5.603,3.709
		c-0.268-0.325-0.573-0.688-0.784-1.07c1.836-0.402,3.729-1.186,5.124-2.639h-4.072l-0.019-1.109h3.135l0.02-6.768h-2.753v-1.071
		h2.772l-0.02-1.605h1.204v1.605h7.056l0.019-1.644l1.186-0.02v1.663h2.753l0.02,1.071h-2.734l-0.019,6.768h3.154v1.032h-3.785
		c0.152,0.287,0.478,0.536,0.727,0.727c1.242,1.014,2.772,1.473,4.34,1.798L374.007,441.511z M373.471,444.016H357.87l-0.02-1.129
		l7.074-0.019v-1.721h-3.69v-1.032h3.69v-1.453l1.186,0.019v1.415l3.977,0.02l-0.02,1.032l-3.957,0.019v1.702l7.36,0.019V444.016z
		 M361.961,431.588h7.132v-1.491h-7.112L361.961,431.588z M369.093,434.169v-1.529h-7.132l0.02,1.548L369.093,434.169z
		 M369.093,436.865l-0.02-1.625l-7.093-0.019v1.625L369.093,436.865z"/>
	<path fill="#F2F2F2" d="M382.401,433.71v8.623h-1.108v-1.128h-2.065v1.663H378.1v-5.736c-0.439,0.593-0.994,1.224-1.491,1.798
		l-0.898-0.727c1.759-1.988,2.829-4.016,3.365-7.82h-2.926v-1.07h6.94v1.052h-2.925c-0.02,1.262-0.44,2.619-0.65,3.346H382.401z
		 M381.293,434.8h-2.084v5.315h2.084V434.8z M387.507,435.221h-3.461v-5.22h1.09v4.091h2.371v-6.749h1.128v6.769h2.352v-4.13h1.052
		v5.22h-3.403v7.017h2.733v-5.525h1.109v7.896h-1.109v-1.3h-6.442c-0.039,0.42,0,0.841,0,1.242h-1.09v-7.819h1.108v5.506h2.563
		V435.221z"/>
	<path fill="#F2F2F2" d="M398.77,444.781l0.02-9.254c-0.708,0.994-1.74,2.122-2.639,2.963l-1.09-0.783
		c2.064-1.798,3.671-4.149,4.837-6.597h-3.518v-1.166l4.034,0.02c0.363-0.842,0.611-1.798,0.803-2.716l1.128,0.402
		c-0.114,0.803-0.421,1.548-0.631,2.313l10.038-0.02v1.166h-10.497c-0.382,0.86-0.841,1.645-1.262,2.485l0.02,11.204L398.77,444.781
		z M405.117,443.346c0.229-0.038,0.497-0.076,0.65-0.268c0.172-0.229,0.134-0.593,0.134-0.841v-3.327h-4.914v-1.147h4.856v-1.548
		c1.07-0.479,1.988-1.186,2.887-2.065h-6.404v-1.166l8.106,0.019v1.147c-0.918,0.938-2.199,2.084-3.308,2.734v0.822h5.181v1.146
		h-5.181l0.019,4.321c-0.058,0.479-0.344,0.937-0.784,1.186c-0.765,0.344-1.605,0.134-2.485,0.21l-0.822-1.204L405.117,443.346z"/>
	<path fill="#F2F2F2" d="M414.239,442.467c1.166-0.994,2.198-2.123,2.791-3.441l0.88,0.593c-0.593,1.414-1.587,2.581-2.772,3.575
		L414.239,442.467z M414.679,430.193l0.019-1.129h3.862v-1.701h1.205l-0.02,1.701l3.977-0.019v1.147h-3.977l0.02,1.644h3.192
		l0.02,1.109l-7.514,0.019v-1.128l3.078-0.019l0.019-1.625H414.679z M416.533,443.653h1.663c0.459-0.096,0.479-0.536,0.479-0.804
		v-4.856h-3.805v-1.128h8.661v1.128h-3.652v5.201c-0.096,0.994-0.344,1.319-1.014,1.51h-1.491L416.533,443.653z M415.807,435.431
		l0.02-1.128h6.729v1.128H415.807z M422.728,442.066c-0.535-0.918-1.28-1.894-2.18-2.543l0.88-0.631
		c0.363,0.19,0.669,0.516,0.975,0.821c0.517,0.517,0.938,1.109,1.301,1.702L422.728,442.066z M422.651,443.92
		c1.128-0.956,2.218-2.218,2.829-3.576c0.899-2.026,0.918-4.436,1.033-6.634l1.166,0.172l-0.096,2.352
		c0.421,2.868,1.567,5.774,4.015,7.533l-0.821,0.898c-0.421-0.191-0.708-0.573-1.09-0.879c-1.205-1.263-2.027-2.83-2.563-4.475
		c-0.593,2.122-1.873,3.958-3.518,5.449L422.651,443.92z M428.808,434.533c0.306-0.822,0.555-1.645,0.746-2.524l-3.575,0.02
		c-0.363,1.357-0.88,2.619-1.664,3.805l-1.166-0.497c1.683-2.218,2.18-5.104,2.218-7.992l1.109,0.307
		c-0.02,1.09-0.077,2.18-0.269,3.23h4.589c-0.096,1.339-0.497,2.601-0.918,3.844L428.808,434.533z"/>
	<path fill="#F2F2F2" d="M434.603,435.545c0.708-1.128,1.186-2.867,1.529-4.302h-2.294v-1.108h2.523
		c0.211-0.822,0.307-1.721,0.401-2.601l1.129,0.325c-0.039,0.765-0.229,1.511-0.345,2.275h2.926v1.108h-3.193
		c-0.401,1.568-0.688,2.983-1.472,4.436h1.777v-2.562h1.186v2.562h2.046v1.109h-2.046v2.142l2.696-0.727v1.146l-2.696,0.727v4.685
		h-1.186v-4.436l-3.192,0.784l-0.631-0.994c1.376-0.325,2.657-0.593,3.823-0.918v-2.409h-2.982V435.545z M439.058,443.595
		c2.064-0.688,4.148-1.721,5.602-3.519c-0.937-1.434-1.625-3.021-1.95-4.722l1.109-0.421c0.268,1.453,0.841,2.791,1.605,4.034
		c0.746-1.281,1.319-2.734,1.606-4.226l1.07,0.517c-0.286,1.759-1.032,3.308-1.95,4.817c1.319,1.626,2.982,2.715,4.761,3.557
		l-0.879,1.014c-1.721-0.822-3.365-2.084-4.646-3.576c-1.529,1.683-3.479,2.868-5.506,3.595L439.058,443.595z M440.224,435.087
		c1.357-0.784,2.639-2.18,3.289-3.537l0.937,0.573c-0.593,1.453-1.932,2.829-3.27,3.747L440.224,435.087z M440.836,429.868h4.244
		c-0.497-0.784-1.339-1.491-2.199-1.874l0.938-0.727c0.879,0.383,1.778,1.243,2.352,2.026l-0.88,0.536l5.086,0.038v1.128h-9.54
		V429.868z M449.554,435.775c-0.745-1.376-1.873-2.695-3.288-3.46l0.822-0.765c1.185,0.458,2.867,2.37,3.422,3.479L449.554,435.775z
		"/>
	<path fill="#F2F2F2" d="M333.195,464.057v1.166l-6.749-0.02l-0.019,5.66l-1.224,0.019l-0.02-5.659l-7.725-0.02v-1.166l2.447,0.02
		v-4.665h5.239v-2.83h-4.302c-0.669,1.377-1.396,2.753-2.619,3.882l-1.033-0.804c1.511-1.396,2.543-3.059,3.078-4.895l0.421-1.415
		c0.363,0.153,0.708,0.307,1.052,0.498c-0.076,0.554-0.268,1.051-0.421,1.586h11.07v1.147l-6.004,0.02l0.02,2.811h5.009l0.02,1.166
		l-4.99,0.02v3.479H333.195z M321.131,460.578v3.479h4.034l0.02-3.499L321.131,460.578z"/>
	<path fill="#F2F2F2" d="M344.478,461.323c-0.516,0.746-1.108,1.434-1.854,2.026c0.573,0.345,1.109,0.804,1.587,1.319l-0.707,0.976
		c-0.822-0.898-1.759-1.606-2.849-1.988v7.304l-1.281,0.019l0.019-7.609c-0.401,0.229-0.727,0.517-1.128,0.746
		c-0.497,0.286-0.956,0.631-1.472,0.879c-0.306-0.287-0.517-0.745-0.842-0.994c1.836-0.88,3.71-2.16,5.01-3.862
		c0.382-0.478,0.573-1.013,0.803-1.567h-5.258v-1.205l6.577,0.02c-0.058,0.478,0.114,1.07-0.153,1.491
		c-0.439,1.243-1.242,2.371-2.294,3.365v0.248l0.822,0.268c0.86-0.458,1.605-1.452,1.969-2.16L344.478,461.323z M340.062,454.861
		c0.306,0.478,0.611,0.994,0.783,1.529c-0.344,0.191-0.688,0.497-1.07,0.631c-0.306-1.147-0.956-2.218-2.064-2.868
		c0.306-0.19,0.688-0.42,0.994-0.649c0.306,0.152,0.535,0.42,0.783,0.649C339.679,454.42,339.889,454.593,340.062,454.861z
		 M343.312,454.937h8.661l0.019,3.346l-0.076,3.805c-0.038,2.199-0.134,4.397-0.497,6.501c-0.114,0.669-0.841,1.224-1.472,1.376
		c-1.014,0.096-1.989-0.114-2.926-0.324l-0.306-1.377c0.803,0.172,1.549,0.401,2.39,0.497c0.439,0.038,0.842-0.21,1.052-0.573
		c0.134-0.459,0.134-1.014,0.21-1.473c0.038-0.325,0.096-0.688,0.096-1.013c0.02-0.517,0.153-0.995,0.115-1.568
		c0.096-0.478,0.057-1.07,0.114-1.549c0-0.478,0.038-0.898,0.038-1.396l0.038-3.862l-0.019-1.204c-1.071-0.038-2.237,0.019-3.327,0
		v3.25c0,2.467-0.076,4.99-0.956,7.246c-0.688,1.759-2.294,3.403-3.995,4.359c-0.077,0.038-0.077-0.076-0.115-0.114
		c-0.268-0.268-0.535-0.574-0.841-0.86c0.994-0.555,1.988-1.281,2.753-2.123c0.822-0.898,1.242-2.084,1.453-3.174
		c0.134-0.19,0.076-0.516,0.172-0.745c0.268-2.39,0.344-5.545,0.287-7.839l-2.849-0.02L343.312,454.937z"/>
	<path fill="#F2F2F2" d="M358.781,465.166c0.554-0.229,1.204-0.42,1.777-0.611l0.02,1.186c-1.645,0.593-3.27,1.166-4.933,1.777
		l-0.822-1.089c0.918-0.211,1.835-0.498,2.734-0.804v-5.659h-2.219v-1.108h2.219V454h1.204v4.856h1.491v1.108h-1.491
		L358.781,465.166z M360.73,461.973v-6.118h3.04c-0.458-0.708-1.242-1.377-1.873-1.932l1.186-0.458
		c0.821,0.688,1.472,1.548,2.007,2.37l1.894,0.02c0.821-0.765,1.376-1.721,1.759-2.696c0.382,0.153,0.745,0.401,1.108,0.631
		c-0.382,0.727-0.822,1.415-1.434,2.046h2.982v6.138H360.73z M363.063,470.864h-1.224v-7.591h8.451v7.571l-1.167-0.02l0.02-1.108
		h-6.1L363.063,470.864z M365.491,456.963h-3.556v3.9h3.537L365.491,456.963z M364.822,459.927
		c-0.344,0.172-0.688,0.363-1.052,0.497c-0.229-0.937-0.86-1.701-1.434-2.485c0.287-0.153,0.593-0.306,0.918-0.439
		C363.981,458.207,364.402,459.086,364.822,459.927z M363.044,464.363v1.511l6.08-0.02l0.02-1.472L363.044,464.363z
		 M363.044,466.963v1.644h6.1l-0.02-1.644H363.044z M370.214,460.826v-3.9l-3.594,0.02v3.881H370.214z M368.092,460.482
		c-0.325-0.173-0.669-0.345-0.994-0.517c0.229-0.287,0.459-0.631,0.688-0.898c0.306-0.593,0.631-1.166,0.86-1.759
		c0.344,0.114,0.65,0.268,0.956,0.439C369.22,458.704,368.78,459.622,368.092,460.482z"/>
	<path fill="#F2F2F2" d="M390.463,470.557c-5.314-2.771-7.227-5.372-8.278-8.661h-2.887l-0.02,7.342
		c1.3-0.516,2.619-1.166,4.054-1.797v1.166c-1.052,0.479-3.385,1.587-4.838,2.313l-0.516-1.013c0.076-0.172,0.191-0.172,0.191-0.363
		v-7.648h-3.958v-1.089h4.895v-7.342l1.166-0.02v5.831c2.563-1.146,5.182-2.733,7.304-4.474l0.822,0.88
		c-2.409,1.777-5.162,3.479-8.145,4.703v0.421h10.382l0.019,1.089h-7.399c1.014,3.499,4.627,6.291,7.916,7.629L390.463,470.557z"/>
</g>
</svg>
