<?xml version="1.0" encoding="utf-8"?>
<!-- Generator: Adobe Illustrator 16.0.0, SVG Export Plug-In . SVG Version: 6.00 Build 0)  -->
<!DOCTYPE svg PUBLIC "-//W3C//DTD SVG 1.1//EN" "http://www.w3.org/Graphics/SVG/1.1/DTD/svg11.dtd">
<svg version="1.1" id="Layer_1" xmlns="http://www.w3.org/2000/svg" xmlns:xlink="http://www.w3.org/1999/xlink" x="0px" y="0px"
	 width="768px" height="1024px" viewBox="0 0 768 1024" enable-background="new 0 0 768 1024" xml:space="preserve">
<g>
	<path fill="#FFFFFF" d="M395.256,256.771c0-1.39,0.789-2.385,2.021-2.701v-0.031c-0.994-0.379-1.564-1.2-1.564-2.274
		c0-1.879,1.248-3.016,3.443-3.016c2.193,0,3.441,1.137,3.441,3.016c0,1.074-0.566,1.895-1.563,2.274v0.031
		c1.23,0.316,2.021,1.311,2.021,2.701c0,2.164-1.656,3.475-3.898,3.475S395.256,258.935,395.256,256.771z M401.258,256.771
		c0-1.216-0.898-1.942-2.102-1.942c-1.199,0-2.102,0.727-2.102,1.942c0,1.295,0.9,2.053,2.102,2.053
		C400.357,258.825,401.258,258.066,401.258,256.771z M397.42,251.86c0,1.042,0.742,1.627,1.736,1.627
		c0.996,0,1.736-0.584,1.736-1.627c0-1.089-0.773-1.689-1.736-1.689S397.42,250.771,397.42,251.86z"/>
	<path fill="#FFFFFF" d="M411.746,254.498c0,2.511-0.646,5.749-3.82,5.749c-3.176,0-3.822-3.238-3.822-5.749
		c0-2.511,0.646-5.749,3.822-5.749C411.1,248.749,411.746,251.986,411.746,254.498z M409.947,254.498
		c0-2.306-0.443-4.249-2.021-4.249c-1.58,0-2.021,1.943-2.021,4.249s0.439,4.248,2.021,4.248
		C409.504,258.746,409.947,256.803,409.947,254.498z"/>
	<path fill="#FFFFFF" d="M415.904,253.55c1.201,0.047,2.447-0.379,2.447-1.737c0-0.932-0.727-1.563-1.723-1.563
		c-1.246,0-1.863,1.122-1.832,2.258H413c0.094-2.147,1.436-3.758,3.662-3.758c1.723,0,3.49,0.995,3.49,2.953
		c0,1.105-0.504,1.99-1.563,2.369v0.032c1.248,0.253,2.006,1.342,2.006,2.764c0,2.085-1.801,3.38-3.916,3.38
		c-2.559,0-3.838-1.548-3.887-3.854h1.801c-0.047,1.342,0.682,2.353,2.086,2.353c1.199,0,2.115-0.71,2.115-1.974
		c0-1.721-1.469-1.942-2.891-1.879L415.904,253.55L415.904,253.55z"/>
	<path fill="#FFFFFF" d="M421.563,256.771c0-1.39,0.789-2.385,2.021-2.701v-0.031c-0.994-0.379-1.564-1.2-1.564-2.274
		c0-1.879,1.248-3.016,3.443-3.016s3.443,1.137,3.443,3.016c0,1.074-0.568,1.895-1.564,2.274v0.031
		c1.232,0.316,2.021,1.311,2.021,2.701c0,2.164-1.658,3.475-3.9,3.475S421.563,258.935,421.563,256.771z M427.564,256.771
		c0-1.216-0.9-1.942-2.104-1.942c-1.199,0-2.1,0.727-2.1,1.942c0,1.295,0.898,2.053,2.1,2.053
		C426.664,258.825,427.564,258.066,427.564,256.771z M423.727,251.86c0,1.042,0.742,1.627,1.736,1.627
		c0.996,0,1.738-0.584,1.738-1.627c0-1.089-0.775-1.689-1.738-1.689S423.727,250.771,423.727,251.86z"/>
</g>
<path fill="#58B5E1" d="M398.197,470.748c-2.826,0-4.762-1.673-4.998-4.346l1.998-0.152c0.283,1.869,1.369,2.934,3,2.934
	c1.889,0,3.277-1.606,3.277-3.803c0-2.129-1.322-3.52-3.322-3.52c-1.195,0-2.238,0.543-2.824,1.499l-1.803-0.219l1.52-7.996h7.715
	v1.824h-6.191l-0.85,4.172c0.914-0.63,1.957-0.978,2.955-0.978c2.781,0,4.824,2.151,4.824,5.041
	C403.498,468.423,401.26,470.748,398.197,470.748z"/>
<path fill="#58B5E1" d="M406.262,470.487v-2.173h2.172v2.173H406.262z"/>
<path fill="#58B5E1" d="M417.107,463.643c-0.85,2.306-1.414,4.804-1.521,6.847h-1.955c0.043-2.107,0.695-4.91,1.76-7.496
	c0.676-1.63,1.369-2.893,2.412-4.392c0.543-0.78,0.738-1.021,1.262-1.63h-7.605v-1.822h10.061v1.477
	C419.563,458.602,418.15,460.84,417.107,463.643z"/>
<path fill="#58B5E1" d="M429.191,463.643c-0.85,2.306-1.412,4.804-1.521,6.847h-1.955c0.043-2.107,0.695-4.91,1.76-7.496
	c0.676-1.63,1.369-2.893,2.412-4.392c0.543-0.78,0.738-1.021,1.262-1.63h-7.604v-1.822h10.059v1.477
	C431.646,458.602,430.234,460.84,429.191,463.643z"/>
<path fill="#58B5E1" d="M439.125,462.904c-1.977,0-3.281-1.608-3.281-4.085c0-2.564,1.263-4.15,3.281-4.15
	c2.064,0,3.369,1.586,3.369,4.129C442.494,461.274,441.168,462.904,439.125,462.904z M439.168,455.994
	c-1.129,0-1.65,0.913-1.65,2.868c0,1.78,0.564,2.717,1.65,2.717c1.131,0,1.674-0.913,1.674-2.869
	C440.842,456.907,440.256,455.994,439.168,455.994z M440.756,471.074h-1.588l8.518-16.405h1.543L440.756,471.074z M449.186,471.074
	c-1.977,0-3.279-1.608-3.279-4.085c0-2.564,1.26-4.15,3.279-4.15c2.064,0,3.367,1.586,3.367,4.106
	C452.553,469.444,451.229,471.074,449.186,471.074z M449.229,464.143c-1.129,0-1.648,0.937-1.648,2.892
	c0,1.782,0.563,2.717,1.648,2.717c1.133,0,1.676-0.913,1.676-2.869C450.902,465.077,450.338,464.143,449.229,464.143z"/>
</svg>
