<?xml version="1.0" encoding="utf-8"?>
<!-- Generator: Adobe Illustrator 16.0.0, SVG Export Plug-In . SVG Version: 6.00 Build 0)  -->
<!DOCTYPE svg PUBLIC "-//W3C//DTD SVG 1.1//EN" "http://www.w3.org/Graphics/SVG/1.1/DTD/svg11.dtd">
<svg version="1.1" id="Layer_1" xmlns="http://www.w3.org/2000/svg" xmlns:xlink="http://www.w3.org/1999/xlink" x="0px" y="0px"
	 width="768px" height="1024px" viewBox="0 0 768 1024" enable-background="new 0 0 768 1024" xml:space="preserve">
<rect x="538.488" y="333.297" opacity="0.698" fill="#797979" enable-background="new    " width="42.83" height="50.791"/>
<g>
	<g>
		<path fill="#FFFFFF" d="M551.533,405.711h-6.827c0.015-1.643,0.856-2.885,2.2-3.785c1.299-0.943,2.982-1.728,3.014-3.285
			c0.014-0.714-0.286-1.771-1.686-1.771c-1.285,0-1.672,1.1-1.716,2.5h-1.628c0-2.214,1.216-3.856,3.441-3.856
			c2.442,0,3.214,1.785,3.214,3.07c0,1.585-1.086,2.571-2.229,3.371c-1.156,0.8-2.37,1.414-2.656,2.299h4.87L551.533,405.711
			L551.533,405.711z"/>
		<path fill="#FFFFFF" d="M559.543,400.712c0,2.271-0.586,5.199-3.456,5.199c-2.871,0-3.456-2.928-3.456-5.199
			s0.585-5.198,3.456-5.198C558.957,395.514,559.543,398.441,559.543,400.712z M557.915,400.712c0-2.085-0.4-3.842-1.828-3.842
			c-1.429,0-1.828,1.757-1.828,3.842s0.399,3.842,1.828,3.842C557.515,404.554,557.915,402.797,557.915,400.712z"/>
		<path fill="#FFFFFF" d="M560.683,397.37c1.371,0.014,2.671-0.457,2.914-1.657h1.328v9.998h-1.785v-7.056h-2.457V397.37
			L560.683,397.37z"/>
		<path fill="#FFFFFF" d="M569.648,395.713h5.17v1.457h-3.956l-0.517,2.542l0.029,0.029c0.442-0.486,1.171-0.757,1.842-0.757
			c1.985,0,3.128,1.428,3.128,3.342c0,1.6-0.999,3.585-3.456,3.585c-1.928,0-3.428-1.043-3.499-3.042h1.628
			c0.102,1.071,0.785,1.686,1.845,1.686c1.385,0,1.854-0.986,1.854-2.2c0-1.1-0.586-2.085-1.897-2.085
			c-0.688,0-1.356,0.214-1.614,0.914h-1.628L569.648,395.713z"/>
	</g>
</g>
<g>
	<g>
		<path fill="#FFFFFF" d="M612.067,405.711h-6.827c0.015-1.643,0.855-2.885,2.2-3.785c1.3-0.943,2.982-1.728,3.013-3.285
			c0.015-0.714-0.285-1.771-1.687-1.771c-1.284,0-1.671,1.1-1.714,2.5h-1.629c0-2.214,1.215-3.856,3.442-3.856
			c2.44,0,3.214,1.785,3.214,3.07c0,1.585-1.086,2.571-2.229,3.371c-1.154,0.8-2.369,1.414-2.654,2.299h4.87L612.067,405.711
			L612.067,405.711z"/>
		<path fill="#FFFFFF" d="M620.077,400.712c0,2.271-0.586,5.199-3.456,5.199c-2.871,0-3.457-2.928-3.457-5.199
			s0.586-5.198,3.457-5.198C619.491,395.514,620.077,398.441,620.077,400.712z M618.449,400.712c0-2.085-0.4-3.842-1.828-3.842
			c-1.429,0-1.828,1.757-1.828,3.842s0.399,3.842,1.828,3.842C618.049,404.554,618.449,402.797,618.449,400.712z"/>
		<path fill="#FFFFFF" d="M621.217,397.37c1.371,0.014,2.671-0.457,2.914-1.657h1.328v9.998h-1.785v-7.056h-2.457V397.37
			L621.217,397.37z"/>
		<path fill="#FFFFFF" d="M634.067,398.241c-0.071-0.814-0.614-1.371-1.457-1.371c-1.771,0-1.973,2.114-2.071,3.428l0.029,0.029
			c0.44-0.786,1.271-1.186,2.154-1.186c1.985,0,3.156,1.442,3.156,3.356c0,1.942-1.328,3.414-3.327,3.414
			c-2.94,0-3.643-2.314-3.643-5.228c0-2.385,0.94-5.17,3.771-5.17c1.586,0,2.93,1.1,3.016,2.729L634.067,398.241L634.067,398.241z
			 M634.253,402.469c0-1.071-0.586-2.042-1.757-2.042c-1.188,0-1.8,0.942-1.8,2.042c0,1.085,0.612,2.085,1.8,2.085
			C633.667,404.554,634.253,403.54,634.253,402.469z"/>
	</g>
</g>
<g>
	<g>
		<path fill="#FFFFFF" d="M540.021,319.872h-1.424v2.622h-1.705v-2.622h-4.736v-1.785l4.736-6.649h1.705v7.012h1.424V319.872z
			 M533.545,318.45h3.349v-4.864h-0.03L533.545,318.45z"/>
		<path fill="#FFFFFF" d="M541.098,311.438h7.564v1.5c-2.306,2.606-3.837,5.559-4.122,9.555h-1.974
			c0.235-3.49,1.988-6.886,4.264-9.444h-5.732V311.438z"/>
		<path fill="#FFFFFF" d="M550.404,320.361h2.193v2.132h-2.193V320.361z"/>
		<path fill="#FFFFFF" d="M554.18,319.24c0-1.39,0.79-2.385,2.021-2.701v-0.031c-0.994-0.379-1.563-1.2-1.563-2.274
			c0-1.879,1.248-3.016,3.443-3.016s3.442,1.137,3.442,3.016c0,1.074-0.568,1.895-1.563,2.274v0.031
			c1.232,0.316,2.021,1.311,2.021,2.701c0,2.164-1.658,3.475-3.9,3.475C555.838,322.714,554.18,321.403,554.18,319.24z
			 M560.182,319.24c0-1.216-0.898-1.942-2.101-1.942s-2.101,0.727-2.101,1.942c0,1.295,0.898,2.053,2.101,2.053
			S560.182,320.535,560.182,319.24z M556.344,314.328c0,1.042,0.742,1.627,1.737,1.627s1.737-0.584,1.737-1.627
			c0-1.089-0.774-1.689-1.737-1.689C557.117,312.639,556.344,313.239,556.344,314.328z"/>
		<path fill="#FFFFFF" d="M563.012,311.438h7.564v1.5c-2.307,2.606-3.837,5.559-4.122,9.555h-1.974
			c0.235-3.49,1.988-6.886,4.264-9.444h-5.732V311.438z"/>
		<path fill="#FFFFFF" d="M572.162,313.899c0-0.807,0.203-1.494,0.609-2.06c0.404-0.566,0.993-0.849,1.767-0.849
			c0.71,0,1.298,0.253,1.763,0.76c0.466,0.506,0.698,1.251,0.698,2.233c0,0.957-0.235,1.693-0.706,2.21
			c-0.47,0.517-1.05,0.775-1.739,0.775c-0.684,0-1.254-0.254-1.709-0.764C572.39,315.694,572.162,314.928,572.162,313.899z
			 M574.577,311.947c-0.345,0-0.632,0.148-0.86,0.447c-0.228,0.298-0.344,0.846-0.344,1.643c0,0.726,0.116,1.236,0.348,1.532
			c0.232,0.296,0.519,0.443,0.856,0.443c0.35,0,0.639-0.148,0.867-0.447c0.229-0.298,0.344-0.844,0.344-1.636
			c0-0.73-0.115-1.243-0.347-1.539C575.21,312.095,574.922,311.947,574.577,311.947z M574.585,322.91l6.188-11.919h1.127
			l-6.164,11.919H574.585z M579.476,319.839c0-0.813,0.203-1.5,0.609-2.064c0.406-0.563,0.998-0.845,1.774-0.845
			c0.71,0,1.298,0.253,1.763,0.76c0.466,0.506,0.698,1.251,0.698,2.233c0,0.957-0.235,1.693-0.706,2.21
			c-0.47,0.517-1.055,0.775-1.747,0.775c-0.686,0-1.254-0.256-1.709-0.768C579.703,321.628,579.476,320.863,579.476,319.839z
			 M581.898,317.888c-0.352,0-0.642,0.149-0.868,0.447c-0.229,0.298-0.345,0.846-0.345,1.643c0,0.72,0.115,1.229,0.349,1.528
			c0.23,0.299,0.517,0.447,0.854,0.447c0.354,0,0.646-0.149,0.875-0.447c0.229-0.298,0.346-0.844,0.346-1.636
			c0-0.73-0.116-1.243-0.35-1.539C582.531,318.035,582.242,317.888,581.898,317.888z"/>
	</g>
</g>
<line fill="none" stroke="#F2F2F2" stroke-miterlimit="10" x1="513.192" y1="416.115" x2="675.077" y2="416.115"/>
<path fill="#F2F2F2" d="M536.695,436.355c-2.22,1.835-5.239,3.308-8.164,3.993l-0.631-1.106c3.059-0.593,5.851-1.74,8.26-4.034
	v-2.657h-5.928v2.236h-1.166v-3.31h7.094v-1.068h-6.157v-1.071h13.479v1.071h-6.118v1.068h7.112v3.193h-1.204v-2.122h-5.908v2.619
	l0.362,0.268l-0.173,0.174c2.22,1.948,4.952,3.136,8.051,3.518l-0.633,1.09C541.972,439.892,538.855,438.286,536.695,436.355z
	 M534.707,436.202h-3.805v-0.918h3.805V436.202z M534.649,434.347h-3.499v-0.918h3.499V434.347z M539.735,445.953
	c-2.084-1.453-4.397-2.313-6.885-2.792l0.707-0.955c0.994,0.152,1.933,0.478,2.889,0.765c1.279-0.345,2.601-1.014,3.709-1.664
	l-8.737-0.036v-1.07h10.497v1.032c-1.109,1.146-2.486,1.797-3.844,2.369c0.746,0.401,1.566,0.767,2.273,1.302L539.735,445.953z
	 M537.594,440.006c-0.593-0.765-1.549-1.355-2.447-1.814l0.707-0.707c0.806,0.248,1.762,0.879,2.507,1.699L537.594,440.006z
	 M542.354,434.347h-3.595v-0.896h3.595V434.347z M542.604,436.202h-3.844v-0.918h3.844V436.202z"/>
<path fill="#F2F2F2" d="M550.788,439.624h-1.167v-6.175c-0.535,0.573-1.07,1.262-1.625,1.721l-1.07-0.746
	c1.95-1.625,3.348-3.785,4.206-6.003l1.016,0.497c-0.212,0.611-0.535,1.188-0.767,1.777h4.935c-0.115-0.286-0.363-0.518-0.574-0.745
	c-0.382-0.306-0.745-0.669-1.166-0.938l1.243-0.631c0.803,0.573,1.489,1.396,1.854,2.294h5.965v1.147l-6.348-0.021l-0.02,1.264
	h5.275v0.976h-5.258l-0.021,1.3l5.26,0.021l0.019,0.955h-5.258l-0.021,1.473l7.035-0.021v1.13h-13.498L550.788,439.624z
	 M562.412,445.704h-1.188v-1.09l-9.999,0.02v1.128h-1.202v-5.64h12.406L562.412,445.704z M550.807,431.804v1.281h5.297v-1.262
	L550.807,431.804z M556.104,435.399v-1.319l-5.297,0.019v1.303L556.104,435.399L556.104,435.399z M556.104,437.789v-1.415
	l-5.297-0.019v1.412L556.104,437.789z M561.227,441.268h-10.019l0.021,2.22h10.02L561.227,441.268z"/>
<path fill="#F2F2F2" d="M566.372,444.48c2.294-0.346,4.665-0.671,6.558-1.988c1.491-1.032,1.529-3.919,1.529-5.697h1.186
	c0,1.434-0.036,3.862-0.571,4.934c-0.421,0.843-1.205,1.588-2.046,2.104c-1.625,0.975-4.514,1.51-5.929,1.739L566.372,444.48z
	 M569.813,434.5v-2.505c-0.803,0.593-1.625,1.09-2.522,1.453l-0.783-0.978c2.198-0.937,4.11-2.332,5.678-4.168l0.882,0.746
	c-0.633,0.767-1.379,1.453-2.048,2.064v3.385L569.813,434.5L569.813,434.5z M579.239,436.048h-8.72v6.425h-1.225v-7.569h11.166
	v7.188h-1.224L579.239,436.048L579.239,436.048z M578.914,430.485c-0.707-0.557-1.453-0.784-2.352-0.938l0.896-0.896
	c0.784,0.21,1.854,0.631,2.523,1.09l-0.67,0.631l2.905-0.479l0.21,1.032l-5.544,1.015c0.898,0.766,1.933,1.225,3.099,1.566
	c0.4,0.115,0.766,0.271,1.317,0.211c0.153-0.058,0.27-0.211,0.345-0.383c0.174-0.363,0.19-0.783,0.248-1.204l1.13,0.269
	c-0.286,1.301-0.401,1.739-0.938,2.257c-0.688,0.479-2.122,0.058-2.944-0.21c-1.377-0.459-2.715-1.128-3.688-2.237l-3.061,0.555
	l-0.323-1.014l2.694-0.497c-0.211-0.497-0.746-1.721-0.821-2.6l1.263-0.325c0.076,0.956,0.4,1.873,0.879,2.657L578.914,430.485z
	 M582.547,445.551c-1.797-1.339-4.761-2.391-6.998-2.771l0.631-0.994c2.22,0.497,4.763,1.224,7.189,2.771L582.547,445.551z"/>
<path fill="#F2F2F2" d="M585.321,443.467c1.166-0.994,2.196-2.123,2.791-3.439l0.88,0.593c-0.593,1.414-1.587,2.581-2.772,3.575
	L585.321,443.467z M585.761,431.193l0.021-1.129h3.86v-1.701h1.205l-0.02,1.701l3.977-0.021v1.147h-3.977l0.02,1.644h3.192
	l0.02,1.109l-7.514,0.019v-1.128l3.078-0.019l0.02-1.625L585.761,431.193L585.761,431.193z M587.615,444.653h1.663
	c0.459-0.098,0.479-0.536,0.479-0.806v-4.854h-3.805v-1.128h8.661v1.128h-3.652v5.201c-0.096,0.993-0.344,1.317-1.014,1.51h-1.491
	L587.615,444.653z M586.889,436.431l0.021-1.128h6.729v1.128H586.889z M593.81,443.066c-0.533-0.918-1.278-1.896-2.18-2.543
	l0.88-0.633c0.363,0.19,0.669,0.518,0.977,0.821c0.517,0.519,0.938,1.109,1.301,1.702L593.81,443.066z M593.733,444.92
	c1.128-0.956,2.218-2.218,2.827-3.576c0.899-2.024,0.92-4.436,1.033-6.634l1.166,0.172l-0.096,2.354
	c0.421,2.866,1.567,5.772,4.015,7.531l-0.819,0.898c-0.422-0.191-0.708-0.573-1.092-0.879c-1.203-1.263-2.025-2.83-2.563-4.477
	c-0.593,2.122-1.873,3.958-3.52,5.449L593.733,444.92z M599.89,435.533c0.308-0.822,0.557-1.646,0.746-2.524l-3.575,0.021
	c-0.361,1.355-0.88,2.619-1.664,3.805l-1.166-0.497c1.685-2.218,2.182-5.104,2.22-7.992l1.107,0.309
	c-0.02,1.09-0.077,2.18-0.269,3.229h4.589c-0.096,1.339-0.497,2.603-0.918,3.844L599.89,435.533z"/>
<path fill="#F2F2F2" d="M612.567,432.99l-0.021,4.282h6.883v8.47h-1.242l-0.02-1.605h-9.904v1.701h-1.279l0.02-8.563h4.244v-8.892
	l1.301-0.02v3.422l8.298-0.021l0.021,1.204L612.567,432.99z M618.17,438.458h-9.904v4.474h9.904V438.458z"/>
<path fill="#F2F2F2" d="M626.642,428.994v5.124h5.085v1.186l-5.085-0.02v7.818c1.761-0.572,3.498-1.146,5.26-1.738l-0.021,1.262
	c-1.778,0.574-3.518,1.205-5.258,1.874c-0.421,0.153-0.86,0.325-1.281,0.497c-0.286-0.325-0.573-0.688-0.841-0.994
	c0.344-0.172,0.784-0.631,0.822-1.052v-13.979L626.642,428.994z M637.425,443.62c0.479,0,0.86-0.27,1.051-0.631
	c0.271-0.535,0.347-1.188,0.459-1.816c0.021-0.248,0.06-0.516,0.077-0.727l1.204,0.438c-0.134,0.917-0.306,1.873-0.688,2.733
	c-0.286,0.648-0.977,1.146-1.663,1.205l-3.212-0.021c-1.319-0.248-1.685-0.784-1.874-1.549l-0.021-14.358h1.319l-0.021,6.979
	c1.778-0.707,3.348-1.739,4.818-3.097l1.107,0.726c-1.76,1.606-3.729,2.964-5.906,3.652v5.659c0.038,0.361,0.15,0.593,0.803,0.803
	L637.425,443.62L637.425,443.62z"/>
<path fill="#F2F2F2" d="M643.927,436.545c0.708-1.128,1.188-2.867,1.529-4.302h-2.294v-1.108h2.521
	c0.212-0.82,0.309-1.721,0.401-2.601l1.129,0.325c-0.039,0.765-0.229,1.511-0.345,2.273h2.926v1.108h-3.191
	c-0.401,1.566-0.688,2.981-1.474,4.436h1.777v-2.562h1.186v2.562h2.046v1.109h-2.046v2.142l2.696-0.727v1.146l-2.696,0.729v4.685
	h-1.186v-4.436l-3.192,0.784l-0.631-0.994c1.376-0.325,2.657-0.593,3.823-0.918v-2.409h-2.982L643.927,436.545L643.927,436.545z
	 M648.382,444.595c2.064-0.688,4.148-1.721,5.604-3.519c-0.938-1.436-1.625-3.021-1.95-4.724l1.107-0.421
	c0.27,1.453,0.843,2.791,1.605,4.034c0.746-1.281,1.319-2.732,1.604-4.226l1.07,0.517c-0.286,1.759-1.032,3.31-1.95,4.817
	c1.319,1.626,2.982,2.715,4.763,3.557l-0.88,1.016c-1.722-0.822-3.364-2.086-4.646-3.576c-1.529,1.683-3.479,2.868-5.506,3.595
	L648.382,444.595z M649.548,436.087c1.357-0.784,2.639-2.18,3.289-3.537l0.938,0.573c-0.595,1.453-1.934,2.829-3.271,3.747
	L649.548,436.087z M650.16,430.868h4.244c-0.497-0.784-1.339-1.491-2.199-1.874l0.938-0.729c0.881,0.385,1.778,1.243,2.354,2.026
	l-0.88,0.536l5.086,0.038v1.128h-9.54L650.16,430.868L650.16,430.868z M658.878,436.775c-0.745-1.376-1.873-2.695-3.288-3.46
	l0.822-0.767c1.185,0.458,2.867,2.37,3.422,3.479L658.878,436.775z"/>
<path fill="#F2F2F2" d="M542.52,465.057v1.166l-6.747-0.02l-0.021,5.66l-1.224,0.019l-0.021-5.659l-7.725-0.02v-1.166l2.447,0.02
	v-4.665h5.237v-2.828h-4.302c-0.669,1.377-1.396,2.753-2.619,3.882l-1.033-0.806c1.513-1.396,2.543-3.059,3.078-4.895l0.421-1.415
	c0.363,0.153,0.708,0.307,1.054,0.498c-0.076,0.554-0.27,1.051-0.423,1.586h11.07v1.146l-6.004,0.021l0.021,2.811h5.009l0.02,1.166
	l-4.99,0.021v3.479L542.52,465.057L542.52,465.057z M530.455,461.578v3.479h4.034l0.02-3.499L530.455,461.578z"/>
<path fill="#F2F2F2" d="M553.802,462.323c-0.516,0.746-1.106,1.434-1.854,2.024c0.573,0.347,1.107,0.806,1.587,1.319l-0.707,0.976
	c-0.822-0.896-1.759-1.604-2.85-1.986v7.304l-1.28,0.019l0.019-7.607c-0.399,0.229-0.727,0.517-1.128,0.746
	c-0.497,0.286-0.956,0.631-1.472,0.879c-0.308-0.287-0.519-0.745-0.842-0.994c1.836-0.88,3.71-2.16,5.01-3.862
	c0.382-0.478,0.573-1.013,0.803-1.565h-5.258v-1.205l6.577,0.02c-0.06,0.479,0.114,1.07-0.153,1.491
	c-0.438,1.243-1.242,2.371-2.294,3.365v0.248l0.822,0.268c0.858-0.458,1.604-1.452,1.969-2.16L553.802,462.323z M549.386,455.861
	c0.308,0.478,0.611,0.994,0.783,1.527c-0.344,0.191-0.688,0.497-1.07,0.633c-0.306-1.147-0.956-2.22-2.063-2.868
	c0.306-0.19,0.688-0.42,0.994-0.649c0.306,0.152,0.535,0.42,0.783,0.649C549.003,455.42,549.213,455.593,549.386,455.861z
	 M552.636,455.938h8.661l0.021,3.347l-0.076,3.805c-0.038,2.199-0.134,4.397-0.497,6.501c-0.114,0.669-0.841,1.226-1.472,1.376
	c-1.016,0.097-1.989-0.114-2.928-0.324l-0.306-1.377c0.803,0.172,1.549,0.401,2.39,0.497c0.439,0.038,0.843-0.21,1.053-0.571
	c0.135-0.46,0.135-1.016,0.211-1.475c0.036-0.325,0.096-0.688,0.096-1.013c0.02-0.519,0.153-0.995,0.115-1.568
	c0.096-0.478,0.057-1.068,0.112-1.549c0-0.478,0.038-0.896,0.038-1.396l0.038-3.862l-0.019-1.204c-1.071-0.038-2.237,0.019-3.327,0
	v3.25c0,2.467-0.076,4.99-0.956,7.246c-0.688,1.759-2.294,3.403-3.995,4.358c-0.077,0.037-0.077-0.075-0.115-0.113
	c-0.268-0.27-0.533-0.574-0.841-0.86c0.994-0.555,1.988-1.281,2.753-2.123c0.822-0.896,1.242-2.084,1.453-3.174
	c0.134-0.19,0.076-0.516,0.172-0.745c0.27-2.39,0.344-5.545,0.287-7.839l-2.849-0.02L552.636,455.938z"/>
<path fill="#F2F2F2" d="M564.377,458.327h2.485v-3.769h1.166v3.769h2.161v1.107h-2.161v3.9l1.874-0.822v1.281l-1.874,0.803v5.793
	c0,0.822-0.611,1.377-1.436,1.377h-1.625l-0.383-1.146c0.65,0.038,1.09,0.038,1.646,0.058c0.399,0,0.631-0.189,0.631-0.517v-5.181
	l-2.026,0.819l-0.784-1.013c0.938-0.307,1.912-0.574,2.813-0.976v-4.379h-2.485L564.377,458.327L564.377,458.327z M571.623,469.377
	c-0.421,0.977-1.128,1.97-2.104,2.524l-0.82-0.898c1.435-0.938,2.257-2.524,2.408-4.207c0.059-0.573,0.076-1.013,0.038-1.491
	l1.146,0.153c0.02,0.727-0.038,1.529-0.172,2.256l0.21,0.249c0.631,0.745,1.702,1.226,2.543,1.472v-5.198h-4.531v-1.092h10.688
	v1.092h-5.01v2.024h3.899v1.071h-3.899v2.39c1.396,0.153,2.981,0.172,5.696,0l-0.478,1.226h-3.958c-2.084,0-3.996-0.65-5.487-1.972
	L571.623,469.377z M571.164,455.306h8.298v6.539h-8.298V455.306z M572.33,456.396v1.565h5.966v-1.565H572.33z M572.33,459.015v1.74
	h5.966v-1.74H572.33z"/>
<path fill="#F2F2F2" d="M583.766,470.774c1.092-0.459,1.912-1.128,2.313-1.513c1.529-1.527,2.447-3.346,2.409-5.965h-4.266
	l0.021-1.146h4.357l0.021-4.741c-1.128,0.286-2.354,0.497-3.558,0.573l-0.648-1.188c2.811-0.134,5.448-0.784,7.724-2.198
	l0.844,0.898c-0.995,0.669-2.065,1.128-3.155,1.566v5.104l4.952-0.02v-7.609h1.186v7.629l4.168-0.02l0.021,1.146l-4.168-0.02v8.642
	h-1.204v-8.622l-5.011-0.02c-0.075,2.084-0.459,4.054-1.7,5.679c-0.956,1.224-2.182,2.198-3.479,2.887L583.766,470.774z"/>
</svg>
