<?xml version="1.0" encoding="utf-8"?>
<!-- Generator: Adobe Illustrator 16.0.0, SVG Export Plug-In . SVG Version: 6.00 Build 0)  -->
<!DOCTYPE svg PUBLIC "-//W3C//DTD SVG 1.1//EN" "http://www.w3.org/Graphics/SVG/1.1/DTD/svg11.dtd">
<svg version="1.1" id="Layer_1" xmlns="http://www.w3.org/2000/svg" xmlns:xlink="http://www.w3.org/1999/xlink" x="0px" y="0px"
	 width="768px" height="1024px" viewBox="0 0 768 1024" enable-background="new 0 0 768 1024" xml:space="preserve">
<g>
	<g>
		<path fill="#FFFFFF" d="M594.791,260.297l1.459-0.124c0.107,0.71,0.358,1.244,0.752,1.601c0.396,0.357,0.868,0.536,1.423,0.536
			c0.669,0,1.234-0.252,1.697-0.756c0.463-0.504,0.694-1.172,0.694-2.006c0-0.792-0.225-1.417-0.667-1.875
			c-0.445-0.458-1.027-0.687-1.747-0.687c-0.448,0-0.854,0.102-1.212,0.305c-0.359,0.203-0.645,0.467-0.851,0.791l-1.304-0.169
			l1.096-5.809h5.624v1.327h-4.513l-0.609,3.04c0.681-0.473,1.393-0.709,2.139-0.709c0.985,0,1.818,0.342,2.499,1.026
			c0.68,0.684,1.019,1.563,1.019,2.639c0,1.023-0.298,1.908-0.896,2.654c-0.727,0.916-1.717,1.373-2.972,1.373
			c-1.026,0-1.868-0.288-2.519-0.864C595.256,262.013,594.884,261.249,594.791,260.297z"/>
		<path fill="#FFFFFF" d="M603.563,257.682c0-1.337,0.14-2.414,0.413-3.229c0.275-0.815,0.687-1.444,1.229-1.886
			c0.543-0.442,1.226-0.664,2.049-0.664c0.606,0,1.139,0.122,1.597,0.366c0.458,0.245,0.836,0.597,1.136,1.057
			c0.299,0.46,0.53,1.021,0.7,1.682c0.172,0.661,0.257,1.552,0.257,2.673c0,1.327-0.139,2.398-0.409,3.213
			c-0.272,0.815-0.682,1.445-1.225,1.89c-0.543,0.445-1.228,0.667-2.056,0.667c-1.091,0-1.947-0.391-2.569-1.173
			C603.936,261.339,603.563,259.806,603.563,257.682z M604.99,257.682c0,1.856,0.217,3.092,0.65,3.707
			c0.436,0.614,0.973,0.922,1.608,0.922s1.174-0.309,1.606-0.926c0.436-0.617,0.651-1.852,0.651-3.703
			c0-1.862-0.217-3.099-0.651-3.711c-0.435-0.612-0.977-0.918-1.622-0.918c-0.64,0-1.147,0.271-1.527,0.811
			C605.229,254.553,604.99,255.825,604.99,257.682z"/>
		<path fill="#FFFFFF" d="M613.113,263.26v-1.582h1.582v1.582H613.113z"/>
		<path fill="#FFFFFF" d="M616.707,257.682c0-1.337,0.138-2.414,0.413-3.229c0.273-0.815,0.685-1.444,1.227-1.886
			c0.543-0.442,1.228-0.664,2.05-0.664c0.605,0,1.14,0.122,1.598,0.366c0.458,0.245,0.836,0.597,1.134,1.057
			c0.299,0.46,0.532,1.021,0.702,1.682c0.17,0.661,0.255,1.552,0.255,2.673c0,1.327-0.137,2.398-0.409,3.213
			c-0.271,0.815-0.68,1.445-1.223,1.89c-0.543,0.445-1.229,0.667-2.058,0.667c-1.091,0-1.945-0.391-2.567-1.173
			C617.08,261.339,616.707,259.806,616.707,257.682z M618.135,257.682c0,1.856,0.217,3.092,0.652,3.707
			c0.434,0.614,0.971,0.922,1.606,0.922c0.639,0,1.176-0.309,1.608-0.926c0.434-0.617,0.651-1.852,0.651-3.703
			c0-1.862-0.219-3.099-0.651-3.711c-0.435-0.612-0.977-0.918-1.624-0.918c-0.638,0-1.146,0.271-1.527,0.811
			C618.374,254.553,618.135,255.825,618.135,257.682z"/>
		<path fill="#FFFFFF" d="M627.616,257.126c-0.576-0.211-1.003-0.512-1.281-0.902c-0.277-0.391-0.416-0.859-0.416-1.404
			c0-0.823,0.296-1.515,0.887-2.075c0.594-0.561,1.38-0.841,2.361-0.841c0.987,0,1.781,0.287,2.384,0.86
			c0.604,0.574,0.902,1.272,0.902,2.095c0,0.524-0.138,0.981-0.413,1.37c-0.274,0.388-0.692,0.688-1.253,0.898
			c0.693,0.227,1.223,0.592,1.585,1.096s0.544,1.106,0.544,1.805c0,0.967-0.342,1.779-1.026,2.438
			c-0.684,0.658-1.584,0.987-2.698,0.987c-1.116,0-2.018-0.331-2.7-0.991c-0.686-0.661-1.025-1.485-1.025-2.473
			c0-0.735,0.188-1.352,0.561-1.848S626.927,257.307,627.616,257.126z M626.891,259.997c0,0.396,0.096,0.779,0.282,1.149
			c0.188,0.37,0.466,0.657,0.837,0.86c0.37,0.203,0.771,0.305,1.195,0.305c0.664,0,1.211-0.213,1.644-0.641
			c0.434-0.427,0.647-0.969,0.647-1.627c0-0.669-0.224-1.222-0.667-1.659c-0.445-0.438-1.002-0.656-1.67-0.656
			c-0.653,0-1.195,0.216-1.624,0.648C627.105,258.809,626.891,259.349,626.891,259.997z M627.338,254.773
			c0,0.535,0.173,0.972,0.52,1.312c0.344,0.339,0.792,0.509,1.342,0.509c0.535,0,0.974-0.168,1.313-0.505
			c0.341-0.337,0.515-0.75,0.515-1.238c0-0.509-0.178-0.937-0.528-1.284s-0.79-0.521-1.315-0.521c-0.527,0-0.969,0.17-1.316,0.509
			C627.513,253.894,627.338,254.3,627.338,254.773z"/>
		<path fill="#FFFFFF" d="M634.528,254.666c0-0.807,0.203-1.494,0.607-2.06c0.406-0.566,0.995-0.849,1.769-0.849
			c0.71,0,1.298,0.253,1.763,0.76c0.466,0.506,0.698,1.251,0.698,2.233c0,0.957-0.235,1.693-0.706,2.21
			c-0.47,0.517-1.05,0.775-1.739,0.775c-0.684,0-1.254-0.254-1.709-0.764C634.756,256.461,634.528,255.694,634.528,254.666z
			 M636.943,252.714c-0.347,0-0.634,0.149-0.86,0.447c-0.227,0.298-0.344,0.846-0.344,1.643c0,0.726,0.116,1.236,0.348,1.532
			c0.232,0.296,0.519,0.443,0.856,0.443c0.35,0,0.639-0.149,0.867-0.447c0.228-0.298,0.344-0.844,0.344-1.636
			c0-0.73-0.115-1.243-0.349-1.539C637.576,252.862,637.288,252.714,636.943,252.714z M636.951,263.676l6.187-11.919h1.127
			l-6.164,11.919H636.951z M641.842,260.606c0-0.813,0.203-1.5,0.609-2.064c0.406-0.563,0.998-0.845,1.772-0.845
			c0.71,0,1.3,0.253,1.765,0.76c0.466,0.506,0.696,1.251,0.696,2.233c0,0.957-0.233,1.693-0.704,2.21
			c-0.472,0.517-1.055,0.775-1.747,0.775c-0.686,0-1.256-0.256-1.709-0.768C642.069,262.395,641.842,261.629,641.842,260.606z
			 M644.265,258.654c-0.35,0-0.64,0.149-0.866,0.447c-0.229,0.298-0.346,0.846-0.346,1.643c0,0.72,0.116,1.229,0.35,1.528
			c0.23,0.299,0.517,0.447,0.854,0.447c0.354,0,0.646-0.149,0.875-0.447c0.229-0.298,0.345-0.844,0.345-1.636
			c0-0.729-0.115-1.243-0.349-1.539C644.896,258.802,644.608,258.654,644.265,258.654z"/>
	</g>
</g>
<path fill="#57B4E1" d="M602.197,470.487c0.107-0.893,0.218-1.262,0.521-1.869c0.587-1.173,1.586-2.303,3.15-3.585l0.718-0.587
	c2.868-2.348,3.954-3.824,3.954-5.303c0-1.563-1.238-2.693-2.934-2.693c-1.868,0-3.021,1.174-3.041,3.129l-1.956-0.217
	c0.261-2.912,2.042-4.498,5.041-4.498c2.89,0,4.865,1.76,4.865,4.324c0,1.847-1.087,3.496-3.822,5.802l-1.564,1.325
	c-1.282,1.086-1.804,1.649-2.238,2.347h7.648v1.825H602.197L602.197,470.487z"/>
<path fill="#57B4E1" d="M615.586,470.487v-2.173h2.173v2.173H615.586z"/>
<path fill="#57B4E1" d="M620.325,470.487c0.106-0.893,0.218-1.262,0.521-1.869c0.587-1.173,1.587-2.303,3.151-3.585l0.717-0.587
	c2.868-2.348,3.954-3.824,3.954-5.303c0-1.563-1.238-2.693-2.933-2.693c-1.869,0-3.021,1.174-3.043,3.129l-1.955-0.217
	c0.261-2.912,2.043-4.498,5.041-4.498c2.89,0,4.865,1.76,4.865,4.324c0,1.847-1.086,3.496-3.822,5.802l-1.564,1.325
	c-1.282,1.086-1.804,1.649-2.238,2.347h7.648v1.825H620.325L620.325,470.487z"/>
<path fill="#57B4E1" d="M638.017,470.487v-12.168c-0.63,0.606-1.237,1.021-2.366,1.63c-0.695,0.369-0.894,0.456-1.456,0.673v-1.847
	c2.063-0.956,3.778-2.479,4.497-3.911h1.237v15.623H638.017z"/>
<path fill="#57B4E1" d="M648.45,462.904c-1.979,0-3.281-1.608-3.281-4.085c0-2.564,1.261-4.15,3.281-4.15
	c2.063,0,3.368,1.586,3.368,4.129C651.818,461.274,650.492,462.904,648.45,462.904z M648.493,455.994
	c-1.13,0-1.651,0.913-1.651,2.868c0,1.78,0.565,2.717,1.651,2.717c1.13,0,1.673-0.913,1.673-2.869
	C650.166,456.907,649.58,455.994,648.493,455.994z M650.08,471.074h-1.587l8.518-16.405h1.543L650.08,471.074z M658.51,471.074
	c-1.977,0-3.278-1.608-3.278-4.085c0-2.564,1.26-4.15,3.278-4.15c2.064,0,3.368,1.586,3.368,4.106
	C661.878,469.444,660.553,471.074,658.51,471.074z M658.554,464.142c-1.13,0-1.649,0.937-1.649,2.892
	c0,1.782,0.563,2.717,1.649,2.717c1.13,0,1.673-0.913,1.673-2.869C660.227,465.077,659.662,464.142,658.554,464.142z"/>
</svg>
