<?xml version="1.0" encoding="utf-8"?>
<!-- Generator: Adobe Illustrator 16.0.0, SVG Export Plug-In . SVG Version: 6.00 Build 0)  -->
<!DOCTYPE svg PUBLIC "-//W3C//DTD SVG 1.1//EN" "http://www.w3.org/Graphics/SVG/1.1/DTD/svg11.dtd">
<svg version="1.1" id="Layer_1" xmlns="http://www.w3.org/2000/svg" xmlns:xlink="http://www.w3.org/1999/xlink" x="0px" y="0px"
	 width="768px" height="1024px" viewBox="0 0 768 1024" enable-background="new 0 0 768 1024" xml:space="preserve">
<line fill="none" stroke="#F2F2F2" stroke-miterlimit="10" x1="92.922" y1="841.151" x2="254.807" y2="841.151"/>
<g>
	<path fill="#F2F2F2" d="M93.612,869.516c0.88,0.077,1.396,0.191,2.295,0.153c0.248,0.038,0.879,0.02,0.783-0.937v-4.188h-7.533
		v-1.128h7.533l0.02-3.327h-5.908l-0.019-1.128h5.907v-3.021l-3.078,0.229l-3.097,0.076l-0.688-1.166
		c4.454,0.019,8.813-0.306,12.848-1.415c0.268-0.076,0.535-0.21,0.842-0.248l0.688,0.86c-1.969,0.783-4.11,1.204-6.29,1.491
		l0.02,3.192h5.621v1.128h-5.621v3.327l7.227-0.02v1.147l-7.246-0.02v4.856c0,1.109-0.555,1.435-1.204,1.435h-2.658L93.612,869.516z
		"/>
	<path fill="#F2F2F2" d="M107.591,867.967c2.18-0.631,3.861-1.032,6.118-1.777v1.146l-5.335,1.721L107.591,867.967z M113.747,864.22
		c-2.046,0.401-3.613,0.612-5.258,0.918l-0.517-1.09c1.243-0.976,2.008-2.16,3.155-3.729l-2.62,0.287
		c-0.172-0.401-0.344-0.822-0.535-1.186c1.491-1.874,2.505-3.862,3.25-6.061l1.281,0.535c-0.822,1.701-1.797,3.671-3.174,5.43
		c0.688-0.019,1.549-0.134,2.601-0.268c0.478-0.822,0.898-1.625,1.3-2.485c0.383,0.153,0.746,0.401,1.109,0.593
		c-1.167,2.275-2.543,4.493-4.321,6.462c1.224-0.152,2.505-0.268,3.729-0.497V864.22z M123.918,870.625
		c-1.128-1.568-2.887-2.485-4.531-3.231c-1.548,2.658-4.837,3.098-6.749,3.346c-0.172-0.439-0.344-0.822-0.516-1.242
		c0.401-0.115,0.956-0.096,1.414-0.153c2.123-0.306,4.303-1.472,5.258-3.537h-5.162v-1.09h5.469c0.19-1.453,0.21-3.021,0.248-4.531
		l1.166,0.038c-0.038,1.511-0.076,3.002-0.229,4.475h4.282v1.128h-4.474l-0.287,0.649c1.816,0.804,3.671,1.664,5.144,3.289
		L123.918,870.625z M116.538,864.487c-0.573-0.669-1.663-1.549-2.657-2.122c0.172-0.268,0.421-0.573,0.611-0.86
		c1.033,0.479,2.027,1.243,2.868,2.104L116.538,864.487z M124.225,859.536c-0.229,0.554-0.727,1.625-1.09,2.141l-1.147-0.573
		c0.439-0.517,0.765-1.07,1.014-1.663h-8.948v-1.128h4.149v-1.798h-3.365v-1.128h3.346v-1.988h1.186v1.988h4.13v1.109h-4.13v1.854
		h4.856V859.536z M117.839,862.441c-0.688-0.879-1.53-1.548-2.371-2.179l0.765-0.746c1.014,0.707,1.835,1.434,2.467,2.122
		L117.839,862.441z"/>
	<path fill="#F2F2F2" d="M138.26,857.586v1.185h5.009c-0.019,0.784-0.172,1.415-0.286,2.123c-0.058,0.497-0.287,1.108-0.842,1.262
		c-0.555,0.152-1.07-0.096-1.605-0.191v4.875h-1.186v-3.977h-7.629v4.34h-1.166v-4.684c-0.842,0.593-2.352,1.013-3.174,1.242
		l-0.65-0.975c1.568-0.439,4.111-1.224,5.22-2.944h-3.537c0.268-1.109,0.517-2.142,0.669-3.289h3.671v-0.956h-4.264v-1.032h4.245
		l0.019-1.186c0.363-0.019,0.746,0,1.109,0l0.019,1.167h3.213v-1.167h1.166v1.167h3.671v3.04H138.26z M127.896,869.611
		c1.798-0.325,3.672-0.535,5.144-1.605c1.453-1.071,1.797-2.849,1.95-4.531c0.363,0.096,0.727,0.229,1.07,0.344
		c-0.134,1.549-0.573,3.078-1.472,4.264c-1.281,1.396-3.9,2.142-6.022,2.543L127.896,869.611z M129.942,857.586
		c-0.076,0.497-0.152,0.917-0.229,1.224h2.754c0.096-0.363,0.229-0.822,0.268-1.224H129.942z M137.094,861.409v-1.587h-3.805
		c-0.363,0.727-0.918,1.473-1.626,1.932l8.565,0.038c-0.057-0.345-0.096-0.746-0.152-1.032c0.401,0.114,0.765,0.286,1.146,0.401
		c0.191,0.038,0.479,0.134,0.612-0.058c0.134-0.401,0.191-0.822,0.229-1.262h-3.824v1.567H137.094z M133.843,857.604
		c-0.038,0.383-0.114,0.803-0.21,1.166h3.441v-1.166H133.843z M137.094,855.616h-3.174c-0.02,0.21,0,0.669-0.02,0.956h3.193V855.616
		z M142.045,870.567c-1.816-1.491-3.861-2.466-6.041-3.078l0.727-0.841c1.969,0.688,4.397,1.625,6.022,3.078L142.045,870.567z
		 M140.803,856.572v-0.956h-2.543v0.956H140.803z"/>
	<path fill="#F2F2F2" d="M160.937,859.517c-0.172,1.377-0.535,2.677-1.204,3.862c-0.707,1.224-1.549,2.332-2.581,3.384
		c1.74,1.357,3.709,2.275,5.793,2.83l-0.745,1.166c-2.161-0.631-4.168-1.625-6.004-3.06c-0.497,0.325-0.937,0.708-1.377,1.014
		c-1.376,0.956-2.849,1.606-4.416,2.046c-0.268-0.325-0.497-0.707-0.765-1.07c2.046-0.555,3.919-1.453,5.602-2.85
		c-1.816-1.835-3.021-4.015-3.919-6.29c-0.229,2.256-0.345,4.436-1.09,6.424c-0.02,0.058-0.058,0.153-0.096,0.211
		c-0.593,1.3-1.377,2.485-2.391,3.633c-0.439-0.229-0.86-0.517-1.3-0.784c1.453-1.415,2.543-3.002,2.926-4.875
		c0.344-1.664,0.458-3.079,0.554-4.876c0.077-1.491,0.115-2.964,0.077-4.416h-2.639v-1.186h12.236v1.108
		c-0.822,1.262-1.778,2.485-2.696,3.709L160.937,859.517z M152.696,860.664c0.765,1.529,1.511,2.963,2.639,4.32l0.096,0.115
		c0.268,0.325,0.459,0.555,0.784,0.822c1.529-1.511,2.715-3.289,3.269-5.239h-4.244v-1.108c0.976-1.224,2.142-2.772,2.601-3.499
		l0.134-0.21l-6.597,0.019c-0.038,0.345,0.058,0.688,0,1.052c0.307,1.224,0.612,2.313,1.167,3.422L152.696,860.664z"/>
	<path fill="#F2F2F2" d="M167.401,861.237c-0.479,0.746-0.994,1.511-1.625,2.16l-0.995-0.765c2.391-2.657,3.442-5.851,4.226-9.215
		l1.052,0.497c-0.344,1.644-0.898,3.154-1.453,4.722v12.122h-1.204V861.237z M181.32,854.259v14.607
		c0,0.765-0.307,1.663-1.415,1.663h-1.645l-0.439-1.262c0.631,0.058,1.242,0.172,1.893,0.058c0.363-0.058,0.383-0.345,0.383-0.784
		v-4.072h-3.557v5.143h-1.204v-5.143h-3.403c-0.02,1.166-0.02,2.409-0.401,3.537c-0.345,0.994-0.995,1.854-1.76,2.677l-1.051-0.842
		c1.07-0.918,1.701-2.064,1.873-3.461c0.058-0.478,0.115-1.414,0.115-1.931v-10.19H181.32z M171.933,855.387v3.346h3.403v-3.346
		H171.933z M175.336,859.86h-3.403v3.48h3.403V859.86z M180.097,855.387h-3.557v3.346h3.557V855.387z M176.54,859.86v3.48h3.557
		v-3.48H176.54z"/>
	<path fill="#F2F2F2" d="M200.594,869.898h-15.314v-1.128h7.055v-5.048l-5.43,0.02l-0.019-1.147l5.468,0.02v-2.581h-3.595v-0.956
		c-1.204,0.783-2.428,1.472-3.689,2.064l-0.822-1.014c2.562-1.224,5.124-2.733,7.093-4.989c0.593-0.688,1.109-1.396,1.568-2.123
		l0.975,0.631l-0.229,0.497c2.084,2.601,4.761,4.914,7.935,5.832l-0.956,0.975c-1.262-0.42-2.447-1.09-3.537-1.835v0.918h-3.575
		l0.02,2.562h5.334l0.02,1.147h-5.373l0.02,5.028l7.055-0.02V869.898z M189.734,868.12c-0.479-1.166-1.09-2.275-2.104-3.192
		l1.071-0.497c0.745,0.573,1.873,2.313,2.179,3.174L189.734,868.12z M190.537,857.662c-0.497,0.439-1.052,0.86-1.491,1.242h7.781
		c-1.415-1.013-2.811-2.466-3.881-3.747C192.182,856.056,191.379,856.916,190.537,857.662z M194.609,867.585
		c1.166-0.803,2.084-2.065,2.658-3.289l0.955,0.688c-0.573,1.243-1.396,2.485-2.542,3.365L194.609,867.585z"/>
	<path fill="#F2F2F2" d="M206.694,858.197c-0.86-1.281-2.064-2.198-2.944-2.887l0.804-0.784c1.204,0.937,2.562,1.912,3.154,2.849
		L206.694,858.197z M203.903,869.573c0.994-1.721,2.084-3.805,2.944-6.424c0.344,0.172,0.669,0.382,1.014,0.573
		c-0.574,1.721-1.74,4.34-3.021,6.386L203.903,869.573z M209.505,866.094c0-0.383-0.019-0.727,0-1.128h3.882v-2.391h-4.99v-1.146
		h4.99v-2.027h-3.174v-0.726c-0.459,0.458-0.976,0.821-1.473,1.185l-0.937-0.841c2.16-1.357,3.441-3.575,4.302-5.774l0.994,0.497
		c-0.172,0.536-0.363,0.994-0.611,1.53H217v1.051c-0.383,0.65-0.727,1.301-1.224,1.912h3.116v3.174h1.53v1.166h-1.53v3.499h-4.282
		v3.193c0,0.459-0.287,0.841-0.669,1.128c-0.536,0.401-1.319,0.172-1.989,0.229c-0.172-0.401-0.363-0.803-0.535-1.224l1.683,0.058
		c0.134-0.058,0.229-0.173,0.287-0.287v-3.078H209.505z M211.876,856.419c-0.344,0.631-0.822,1.224-1.319,1.816h3.767
		c0.479-0.573,0.86-1.224,1.281-1.816H211.876z M214.61,864.946h3.078v-2.371h-3.078V864.946z M217.707,859.401h-3.078v2.027h3.078
		V859.401z"/>
	<path fill="#F2F2F2" d="M228.703,870.797h-1.186v-5.43l-3.786,1.262l-0.917-0.956c0.631-0.401,0.593-0.688,0.593-1.396v-8.775
		h1.185v9.56l2.926-0.994v-10.459h1.186V870.797z M229.009,869.879c1.759-0.898,3.537-2.122,4.761-3.728
		c-1.07-1.626-1.606-3.537-2.084-5.392c-0.21,0.324-0.344,0.726-0.535,1.07c-0.287,0.517-0.593,1.052-0.956,1.529l-1.032-0.765
		c1.682-2.313,2.313-5.086,2.619-8.011l0.114-1.128l1.205,0.401c-0.02,1.013-0.153,2.142-0.307,3.097h6.387v1.129h-1.74
		c-0.096,2.905-0.803,5.64-2.256,8.011c0.994,1.453,2.715,2.944,4.378,3.613l-0.879,0.918c-1.626-0.727-3.155-2.065-4.245-3.461
		c-1.262,1.529-2.829,2.696-4.474,3.633L229.009,869.879z M232.526,858.083l-0.19,0.745c0.382,2.199,1.013,4.283,2.16,6.176
		c1.147-2.065,1.683-4.531,1.778-6.921H232.526z"/>
	<path fill="#F2F2F2" d="M251.266,854.603c-0.076,1.587,0.038,3.174,0.286,4.704c0.077,0.152,0.058,0.382,0.135,0.573
		c0.573,3.154,2.542,5.927,5.104,8.011c0.555,0.439,1.128,0.784,1.701,1.205c-0.229,0.306-0.497,0.631-0.745,0.956
		c-0.02,0.038-0.077,0.076-0.096,0.095c-0.784-0.458-1.549-1.128-2.275-1.739c-2.16-1.874-3.767-4.245-4.569-6.826
		c-0.937,2.352-2.447,4.589-4.512,6.348c-1.071,0.898-2.123,1.568-3.289,2.295c-0.248-0.363-0.535-0.746-0.803-1.109
		c2.677-1.319,5.43-3.785,6.749-6.443c-0.02-0.057,0.114-0.134,0.134-0.229c0.497-0.937,0.86-1.95,1.224-2.944
		c-0.172-1.242-0.325-2.408-0.325-3.709h-3.403v-1.166L251.266,854.603z"/>
	<path fill="#F2F2F2" d="M91.043,884.108l-0.019,4.282h6.883v8.47h-1.243l-0.019-1.605h-9.904v1.701H85.46l0.02-8.565h4.244v-8.89
		l1.301-0.02v3.422l8.298-0.019l0.019,1.204L91.043,884.108z M96.646,889.576h-9.904v4.474h9.904V889.576z"/>
	<path fill="#F2F2F2" d="M105.117,880.112v5.124h5.085v1.186l-5.085-0.02v7.82c1.759-0.574,3.498-1.147,5.258-1.74l-0.02,1.262
		c-1.778,0.574-3.518,1.205-5.258,1.874c-0.421,0.153-0.86,0.325-1.281,0.497c-0.286-0.325-0.573-0.688-0.841-0.994
		c0.344-0.172,0.784-0.631,0.822-1.052v-13.977L105.117,880.112z M115.9,894.738c0.478,0,0.86-0.268,1.051-0.631
		c0.269-0.535,0.345-1.186,0.459-1.816c0.02-0.248,0.058-0.516,0.077-0.727l1.204,0.44c-0.134,0.917-0.306,1.873-0.688,2.733
		c-0.286,0.65-0.975,1.147-1.663,1.205l-3.212-0.02c-1.319-0.248-1.683-0.784-1.874-1.549l-0.019-14.358h1.319l-0.02,6.979
		c1.778-0.707,3.346-1.739,4.818-3.098l1.108,0.727c-1.759,1.606-3.729,2.964-5.907,3.652v5.659
		c0.038,0.363,0.152,0.593,0.803,0.803H115.9z"/>
	<path fill="#F2F2F2" d="M122.402,887.664c0.708-1.128,1.186-2.867,1.529-4.302h-2.294v-1.108h2.523
		c0.211-0.822,0.307-1.721,0.401-2.601l1.129,0.325c-0.039,0.765-0.229,1.511-0.345,2.275h2.926v1.108h-3.193
		c-0.401,1.568-0.688,2.982-1.472,4.436h1.777v-2.562h1.186v2.562h2.046v1.109h-2.046v2.142l2.696-0.727v1.146l-2.696,0.727v4.685
		h-1.186v-4.436l-3.192,0.784l-0.631-0.994c1.376-0.325,2.657-0.593,3.823-0.918v-2.409h-2.982V887.664z M126.857,895.714
		c2.064-0.688,4.148-1.721,5.602-3.519c-0.937-1.434-1.625-3.021-1.95-4.722l1.109-0.421c0.268,1.453,0.841,2.791,1.605,4.034
		c0.746-1.281,1.319-2.734,1.606-4.226l1.07,0.517c-0.286,1.759-1.032,3.308-1.95,4.817c1.319,1.626,2.983,2.716,4.761,3.557
		l-0.879,1.014c-1.721-0.822-3.365-2.084-4.646-3.576c-1.529,1.683-3.479,2.868-5.506,3.595L126.857,895.714z M128.023,887.206
		c1.357-0.784,2.639-2.18,3.289-3.537l0.937,0.573c-0.593,1.453-1.932,2.829-3.27,3.747L128.023,887.206z M128.636,881.986h4.244
		c-0.497-0.784-1.339-1.491-2.199-1.874l0.938-0.727c0.879,0.383,1.778,1.243,2.352,2.026l-0.88,0.536l5.086,0.038v1.128h-9.54
		V881.986z M137.354,887.894c-0.745-1.376-1.873-2.695-3.288-3.46l0.822-0.765c1.185,0.458,2.867,2.37,3.422,3.479L137.354,887.894z
		"/>
	<path fill="#F2F2F2" d="M156.972,890.093v1.166l-6.749-0.02l-0.019,5.66l-1.224,0.019l-0.02-5.659l-7.725-0.02v-1.166l2.447,0.02
		v-4.665h5.239v-2.83h-4.302c-0.669,1.377-1.396,2.753-2.619,3.882l-1.033-0.804c1.511-1.396,2.543-3.059,3.078-4.895l0.421-1.415
		c0.363,0.153,0.708,0.307,1.052,0.498c-0.076,0.554-0.268,1.051-0.421,1.586h11.07v1.147l-6.004,0.02l0.02,2.811h5.009l0.02,1.166
		l-4.99,0.02v3.479H156.972z M144.907,886.613v3.479h4.034l0.02-3.499L144.907,886.613z"/>
	<path fill="#F2F2F2" d="M168.254,887.358c-0.516,0.746-1.108,1.434-1.854,2.026c0.573,0.345,1.109,0.804,1.587,1.319l-0.707,0.976
		c-0.822-0.898-1.759-1.606-2.849-1.988v7.304l-1.281,0.019l0.019-7.609c-0.401,0.229-0.727,0.517-1.128,0.746
		c-0.497,0.286-0.956,0.631-1.472,0.879c-0.306-0.287-0.517-0.745-0.842-0.994c1.836-0.88,3.71-2.16,5.01-3.862
		c0.382-0.478,0.573-1.013,0.803-1.567h-5.258V883.4l6.577,0.02c-0.058,0.478,0.114,1.07-0.153,1.491
		c-0.439,1.243-1.242,2.371-2.294,3.365v0.248l0.822,0.268c0.86-0.458,1.605-1.452,1.969-2.16L168.254,887.358z M163.838,880.896
		c0.306,0.478,0.611,0.994,0.783,1.529c-0.344,0.191-0.688,0.497-1.07,0.631c-0.306-1.147-0.956-2.218-2.064-2.868
		c0.306-0.19,0.688-0.42,0.994-0.649c0.306,0.152,0.535,0.42,0.783,0.649C163.455,880.456,163.665,880.629,163.838,880.896z
		 M167.088,880.973h8.661l0.019,3.346l-0.076,3.805c-0.038,2.199-0.134,4.397-0.497,6.501c-0.114,0.669-0.841,1.224-1.472,1.376
		c-1.014,0.096-1.989-0.114-2.926-0.324l-0.306-1.377c0.803,0.172,1.549,0.401,2.39,0.497c0.439,0.038,0.842-0.21,1.052-0.573
		c0.134-0.459,0.134-1.014,0.21-1.473c0.038-0.325,0.096-0.688,0.096-1.013c0.02-0.517,0.153-0.995,0.115-1.568
		c0.096-0.478,0.057-1.07,0.114-1.549c0-0.478,0.038-0.898,0.038-1.396l0.038-3.862l-0.019-1.204c-1.071-0.038-2.237,0.019-3.327,0
		v3.25c0,2.467-0.076,4.99-0.956,7.246c-0.688,1.759-2.294,3.403-3.995,4.359c-0.077,0.038-0.077-0.076-0.115-0.114
		c-0.268-0.268-0.535-0.574-0.841-0.86c0.994-0.555,1.988-1.281,2.753-2.123c0.822-0.898,1.242-2.084,1.453-3.174
		c0.134-0.19,0.076-0.516,0.172-0.745c0.268-2.39,0.344-5.545,0.287-7.839l-2.849-0.02L167.088,880.973z"/>
	<path fill="#F2F2F2" d="M178.829,883.362h2.485v-3.767h1.166v3.767h2.161v1.109h-2.161v3.9l1.874-0.822v1.281l-1.874,0.803v5.793
		c0,0.822-0.611,1.377-1.434,1.377h-1.625l-0.383-1.147c0.65,0.038,1.09,0.038,1.645,0.058c0.401,0,0.631-0.191,0.631-0.517v-5.181
		l-2.026,0.821l-0.784-1.013c0.937-0.307,1.912-0.574,2.811-0.976v-4.378h-2.485V883.362z M186.075,894.413
		c-0.421,0.976-1.128,1.97-2.104,2.524l-0.822-0.898c1.435-0.938,2.257-2.524,2.409-4.207c0.058-0.573,0.077-1.013,0.038-1.491
		l1.147,0.153c0.02,0.727-0.038,1.529-0.172,2.256l0.21,0.249c0.631,0.745,1.702,1.224,2.543,1.472v-5.2h-4.531v-1.09h10.688v1.09
		h-5.009v2.026h3.9v1.071h-3.9v2.39c1.396,0.153,2.982,0.172,5.697,0l-0.478,1.224h-3.958c-2.084,0-3.996-0.65-5.487-1.97
		L186.075,894.413z M185.616,880.342h8.298v6.539h-8.298V880.342z M186.782,881.432v1.567h5.966v-1.567H186.782z M186.782,884.051
		v1.74h5.966v-1.74H186.782z"/>
	<path fill="#F2F2F2" d="M198.218,895.81c1.09-0.459,1.912-1.128,2.313-1.511c1.529-1.529,2.447-3.346,2.409-5.965h-4.264
		l0.019-1.147h4.359l0.02-4.741c-1.128,0.286-2.352,0.497-3.557,0.573l-0.649-1.186c2.811-0.134,5.448-0.784,7.724-2.198
		l0.842,0.898c-0.995,0.669-2.065,1.128-3.155,1.567v5.105l4.952-0.02v-7.609h1.186v7.629l4.168-0.02l0.019,1.147l-4.168-0.02v8.642
		h-1.204v-8.622l-5.01-0.02c-0.076,2.084-0.458,4.054-1.701,5.679c-0.956,1.224-2.18,2.198-3.479,2.887L198.218,895.81z"/>
	<path fill="#57B4E1" d="M224.993,891.807v3.716h-1.912v-3.716h-6.735v-1.76l7.083-10.082h1.564v10.082h2.108v1.76H224.993z
		 M223.081,883.028l-4.867,7.019h4.867V883.028z"/>
	<path fill="#57B4E1" d="M230.038,895.522v-2.173h2.173v2.173H230.038z"/>
	<path fill="#57B4E1" d="M240.058,895.783c-2.716,0-4.693-1.738-4.954-4.367l1.912-0.261c0.152,0.717,0.195,0.912,0.413,1.369
		c0.478,1.064,1.456,1.694,2.629,1.694c1.804,0,3.194-1.412,3.194-3.259c0-1.738-1.261-2.999-3.042-2.999
		c-0.413,0-0.718,0.044-1.348,0.195l0.218-1.673c0.152,0.021,0.217,0.021,0.304,0.021c1.869,0,3.173-1.064,3.173-2.607
		c0-1.412-1.064-2.412-2.543-2.412c-1.542,0-2.542,1-2.803,2.804l-1.912-0.348c0.457-2.564,2.173-4.042,4.672-4.042
		c2.586,0,4.541,1.76,4.541,4.042c0,1.412-0.738,2.521-2.129,3.129c0.695,0.195,0.956,0.304,1.369,0.608
		c0.978,0.674,1.542,1.868,1.542,3.237C245.294,893.697,243.034,895.783,240.058,895.783z"/>
	<path fill="#57B4E1" d="M250.817,887.939c-1.978,0-3.281-1.608-3.281-4.085c0-2.564,1.261-4.15,3.281-4.15
		c2.063,0,3.368,1.586,3.368,4.129C254.186,886.31,252.859,887.939,250.817,887.939z M250.86,881.029
		c-1.13,0-1.651,0.913-1.651,2.868c0,1.782,0.565,2.717,1.651,2.717c1.13,0,1.673-0.913,1.673-2.869
		C252.533,881.942,251.947,881.029,250.86,881.029z M252.447,896.109h-1.587l8.518-16.405h1.543L252.447,896.109z M260.877,896.109
		c-1.977,0-3.28-1.608-3.28-4.085c0-2.564,1.26-4.15,3.28-4.15c2.064,0,3.368,1.586,3.368,4.106
		C264.245,894.479,262.92,896.109,260.877,896.109z M260.921,889.178c-1.13,0-1.651,0.935-1.651,2.89
		c0,1.782,0.564,2.717,1.651,2.717c1.13,0,1.673-0.913,1.673-2.869C262.594,890.112,262.029,889.178,260.921,889.178z"/>
</g>
<path opacity="0.502" fill-rule="evenodd" clip-rule="evenodd" fill="#2879BE" d="M212.323,788.106
	c23.319-21.258,24.984-57.362,3.729-80.68c-10.819-11.866-26.136-18.624-42.196-18.624v19.036c21.018,0,38.071,17.037,38.071,38.071
	c0,10.708-4.505,20.907-12.421,28.123L212.323,788.106z"/>
<path opacity="0.502" fill-rule="evenodd" clip-rule="evenodd" fill="#797979" d="M173.855,688.803
	c-31.539,0-57.107,25.555-57.107,57.107c0,31.534,25.568,57.107,57.107,57.107c14.234,0,27.951-5.332,38.468-14.911l-12.817-14.073
	c-15.539,14.169-39.619,13.057-53.785-2.487c-14.166-15.532-13.053-39.611,2.485-53.777c7.013-6.395,16.161-9.93,25.649-9.93
	V688.803z"/>
<path opacity="0.698" fill-rule="evenodd" clip-rule="evenodd" fill="#2879BE" d="M208.437,813.741
	c37.469-19.102,52.349-64.943,33.267-102.414c-13.009-25.508-39.215-41.56-67.848-41.56v19.035
	c31.535,0,57.107,25.555,57.107,57.107c0,21.462-12.041,41.117-31.171,50.874L208.437,813.741z"/>
<path opacity="0.698" fill-rule="evenodd" clip-rule="evenodd" fill="#797979" d="M173.855,669.768
	c-42.053,0-76.144,34.09-76.144,76.143c0,42.054,34.091,76.144,76.144,76.144c12.02,0,23.873-2.856,34.581-8.313l-8.645-16.957
	c-28.104,14.323-62.493,3.154-76.815-24.953c-14.323-28.096-3.154-62.486,24.945-76.81c8.033-4.093,16.918-6.219,25.934-6.219
	V669.768z"/>
<g>
	<g>
		<path fill="#FFFFFF" d="M176.276,751h-6.827c0.015-1.643,0.857-2.885,2.2-3.785c1.3-0.942,2.984-1.728,3.013-3.284
			c0.015-0.715-0.285-1.771-1.685-1.771c-1.286,0-1.671,1.1-1.714,2.5h-1.629c0-2.214,1.215-3.856,3.442-3.856
			c2.442,0,3.214,1.785,3.214,3.07c0,1.585-1.086,2.571-2.229,3.371c-1.156,0.8-2.371,1.413-2.656,2.299h4.87V751z"/>
		<path fill="#FFFFFF" d="M184.3,746.001c0,2.271-0.586,5.199-3.456,5.199c-2.871,0-3.457-2.928-3.457-5.199
			c0-2.271,0.586-5.198,3.457-5.198C183.714,740.803,184.3,743.73,184.3,746.001z M182.672,746.001c0-2.085-0.4-3.842-1.828-3.842
			c-1.429,0-1.828,1.757-1.828,3.842c0,2.086,0.399,3.842,1.828,3.842C182.271,749.843,182.672,748.087,182.672,746.001z"/>
		<path fill="#FFFFFF" d="M185.611,742.659c1.371,0.015,2.671-0.457,2.914-1.656h1.328V751h-1.785v-7.056h-2.457V742.659z"/>
		<path fill="#FFFFFF" d="M194.592,741.003h5.17v1.456h-3.956l-0.515,2.542l0.029,0.029c0.442-0.486,1.171-0.757,1.842-0.757
			c1.985,0,3.128,1.428,3.128,3.342c0,1.6-0.999,3.585-3.456,3.585c-1.928,0-3.428-1.043-3.499-3.042h1.628
			c0.1,1.071,0.785,1.685,1.843,1.685c1.385,0,1.856-0.985,1.856-2.199c0-1.1-0.586-2.085-1.899-2.085
			c-0.686,0-1.356,0.214-1.614,0.914h-1.628L194.592,741.003z"/>
	</g>
</g>
<g>
	<g>
		<path fill="#FFFFFF" d="M249.229,708.091h-6.827c0.015-1.643,0.857-2.885,2.2-3.785c1.299-0.942,2.984-1.728,3.014-3.284
			c0.014-0.715-0.286-1.771-1.686-1.771c-1.285,0-1.671,1.1-1.714,2.499h-1.628c0-2.213,1.214-3.855,3.441-3.855
			c2.442,0,3.214,1.785,3.214,3.07c0,1.586-1.086,2.571-2.229,3.371c-1.156,0.8-2.37,1.414-2.656,2.299h4.87V708.091z"/>
		<path fill="#FFFFFF" d="M257.252,703.092c0,2.271-0.586,5.199-3.456,5.199c-2.871,0-3.456-2.928-3.456-5.199
			c0-2.271,0.585-5.198,3.456-5.198C256.666,697.894,257.252,700.821,257.252,703.092z M255.624,703.092
			c0-2.085-0.4-3.842-1.828-3.842c-1.429,0-1.828,1.757-1.828,3.842s0.399,3.842,1.828,3.842
			C255.224,706.934,255.624,705.177,255.624,703.092z"/>
		<path fill="#FFFFFF" d="M258.563,699.75c1.371,0.015,2.671-0.457,2.914-1.657h1.328v9.998h-1.785v-7.056h-2.457V699.75z"/>
		<path fill="#FFFFFF" d="M271.429,700.621c-0.071-0.813-0.614-1.371-1.457-1.371c-1.771,0-1.971,2.114-2.071,3.428l0.029,0.028
			c0.442-0.785,1.271-1.186,2.156-1.186c1.985,0,3.156,1.443,3.156,3.356c0,1.942-1.328,3.414-3.327,3.414
			c-2.942,0-3.643-2.313-3.643-5.228c0-2.385,0.942-5.17,3.771-5.17c1.586,0,2.928,1.1,3.014,2.728H271.429z M271.614,704.849
			c0-1.071-0.586-2.042-1.757-2.042c-1.186,0-1.8,0.942-1.8,2.042c0,1.086,0.614,2.085,1.8,2.085
			C271.028,706.934,271.614,705.92,271.614,704.849z"/>
	</g>
</g>
<g>
	<g>
		<path fill="#FFFFFF" d="M181.176,686.479h-1.261v2.324h-1.513v-2.324H174.2v-1.584l4.202-5.896h1.513v6.219h1.261V686.479z
			 M175.433,685.217h2.97v-4.314h-0.027L175.433,685.217z"/>
		<path fill="#FFFFFF" d="M188.876,688.803h-6.696c0.015-1.611,0.841-2.828,2.157-3.711c1.275-0.926,2.928-1.695,2.956-3.223
			c0.014-0.699-0.28-1.736-1.653-1.736c-1.261,0-1.639,1.078-1.681,2.451h-1.597c0-2.172,1.19-3.781,3.376-3.781
			c2.396,0,3.151,1.75,3.151,3.01c0,1.557-1.064,2.521-2.186,3.307c-1.134,0.785-2.325,1.387-2.605,2.256h4.777V688.803z"/>
		<path fill="#FFFFFF" d="M190.371,686.912h1.946v1.891h-1.946V686.912z"/>
		<path fill="#FFFFFF" d="M195.005,678.998h5.071v1.428h-3.88l-0.505,2.494l0.028,0.027c0.434-0.475,1.148-0.742,1.807-0.742
			c1.947,0,3.067,1.4,3.067,3.279c0,1.568-0.98,3.516-3.39,3.516c-1.891,0-3.361-1.023-3.432-2.984h1.597
			c0.099,1.051,0.771,1.652,1.808,1.652c1.358,0,1.82-0.967,1.82-2.156c0-1.078-0.574-2.045-1.862-2.045
			c-0.673,0-1.331,0.209-1.583,0.896h-1.598L195.005,678.998z"/>
		<path fill="#FFFFFF" d="M202.2,681.59c0-1.514,0.7-2.787,2.34-2.787c1.639,0,2.339,1.273,2.339,2.787
			c0,1.525-0.645,2.787-2.339,2.787C202.845,684.377,202.2,683.115,202.2,681.59z M204.525,683.467c0.784,0,1.093-0.826,1.093-1.877
			c0-0.939-0.224-1.877-1.093-1.877c-0.868,0-1.064,0.938-1.064,1.877C203.461,682.641,203.741,683.467,204.525,683.467z
			 M210.143,678.662h1.064l-5.421,10.477h-1.093L210.143,678.662z M209.232,686.211c0-1.512,0.7-2.787,2.339-2.787
			s2.34,1.275,2.34,2.787c0,1.527-0.645,2.789-2.34,2.789C209.877,689,209.232,687.738,209.232,686.211z M211.558,688.088
			c0.784,0,1.093-0.826,1.093-1.877c0-0.938-0.225-1.877-1.093-1.877c-0.869,0-1.064,0.939-1.064,1.877
			C210.493,687.262,210.773,688.088,211.558,688.088z"/>
	</g>
</g>
<g>
	<g>
		<path fill="#FFFFFF" d="M208.145,771.76c0.912,0.036,1.859-0.288,1.859-1.319c0-0.708-0.552-1.188-1.308-1.188
			c-0.947,0-1.415,0.852-1.392,1.715h-1.367c0.072-1.631,1.092-2.854,2.783-2.854c1.307,0,2.65,0.756,2.65,2.243
			c0,0.839-0.384,1.511-1.188,1.799v0.024c0.947,0.191,1.523,1.019,1.523,2.099c0,1.583-1.367,2.566-2.975,2.566
			c-1.943,0-2.914-1.176-2.95-2.927h1.367c-0.036,1.02,0.516,1.787,1.583,1.787c0.911,0,1.607-0.539,1.607-1.499
			c0-1.308-1.116-1.476-2.195-1.427V771.76z"/>
		<path fill="#FFFFFF" d="M212.442,774.206c0-1.056,0.6-1.811,1.535-2.051v-0.024c-0.756-0.287-1.188-0.911-1.188-1.727
			c0-1.428,0.947-2.291,2.614-2.291s2.615,0.863,2.615,2.291c0,0.815-0.433,1.439-1.188,1.727v0.024
			c0.936,0.24,1.535,0.995,1.535,2.051c0,1.644-1.26,2.639-2.963,2.639S212.442,775.85,212.442,774.206z M217,774.206
			c0-0.924-0.684-1.476-1.596-1.476c-0.911,0-1.595,0.552-1.595,1.476c0,0.983,0.684,1.56,1.595,1.56
			C216.316,775.766,217,775.189,217,774.206z M214.085,770.477c0,0.791,0.563,1.235,1.319,1.235s1.319-0.444,1.319-1.235
			c0-0.828-0.588-1.283-1.319-1.283S214.085,769.648,214.085,770.477z"/>
		<path fill="#FFFFFF" d="M219.558,775.058h1.667v1.619h-1.667V775.058z"/>
		<path fill="#FFFFFF" d="M228.254,776.677h-5.732c0.012-1.379,0.72-2.423,1.847-3.179c1.092-0.791,2.507-1.451,2.531-2.758
			c0.012-0.6-0.24-1.487-1.416-1.487c-1.079,0-1.402,0.924-1.438,2.099h-1.367c0-1.858,1.02-3.238,2.89-3.238
			c2.052,0,2.699,1.499,2.699,2.579c0,1.331-0.912,2.158-1.871,2.83c-0.972,0.672-1.991,1.188-2.231,1.931h4.09V776.677z"/>
		<path fill="#FFFFFF" d="M229.697,770.5c0-1.295,0.6-2.387,2.003-2.387s2.003,1.092,2.003,2.387c0,1.308-0.552,2.387-2.003,2.387
			S229.697,771.808,229.697,770.5z M231.688,772.107c0.671,0,0.936-0.708,0.936-1.607c0-0.804-0.192-1.607-0.936-1.607
			c-0.744,0-0.912,0.804-0.912,1.607C230.776,771.399,231.017,772.107,231.688,772.107z M236.498,767.993h0.911l-4.642,8.972h-0.936
			L236.498,767.993z M235.718,774.458c0-1.295,0.6-2.387,2.003-2.387s2.003,1.092,2.003,2.387c0,1.308-0.552,2.387-2.003,2.387
			S235.718,775.766,235.718,774.458z M237.709,776.065c0.672,0,0.936-0.708,0.936-1.607c0-0.804-0.192-1.607-0.936-1.607
			c-0.744,0-0.911,0.804-0.911,1.607C236.798,775.357,237.037,776.065,237.709,776.065z"/>
	</g>
</g>
</svg>
