<?xml version="1.0" encoding="utf-8"?>
<!-- Generator: Adobe Illustrator 16.0.0, SVG Export Plug-In . SVG Version: 6.00 Build 0)  -->
<!DOCTYPE svg PUBLIC "-//W3C//DTD SVG 1.1//EN" "http://www.w3.org/Graphics/SVG/1.1/DTD/svg11.dtd">
<svg version="1.1" id="Layer_1" xmlns="http://www.w3.org/2000/svg" xmlns:xlink="http://www.w3.org/1999/xlink" x="0px" y="0px"
	 width="768px" height="1024px" viewBox="0 0 768 1024" enable-background="new 0 0 768 1024" xml:space="preserve">
<g>
	<rect x="390.818" y="675.111" opacity="0.698" fill="#328EC0" enable-background="new    " width="42.91" height="134.014"/>
	<rect x="330.33" y="756.967" opacity="0.698" fill="#797979" enable-background="new    " width="42.831" height="52.156"/>
	<g>
		<path fill="#FFFFFF" d="M326.057,737.623c1.518,0.016,2.953-0.506,3.223-1.832h1.469v11.055h-1.974v-7.802h-2.718V737.623
			L326.057,737.623z"/>
		<path fill="#FFFFFF" d="M342.233,744.224h-1.423v2.622h-1.704v-2.622h-4.738v-1.783l4.738-6.648h1.704v7.012h1.423V744.224z
			 M335.757,742.803h3.35v-4.863h-0.032L335.757,742.803z"/>
		<path fill="#FFFFFF" d="M343.848,744.714h2.195v2.132h-2.195V744.714z"/>
		<path fill="#FFFFFF" d="M347.624,743.593c0-1.391,0.79-2.385,2.021-2.701v-0.03c-0.994-0.379-1.563-1.2-1.563-2.274
			c0-1.879,1.248-3.017,3.443-3.017c2.194,0,3.441,1.138,3.441,3.017c0,1.074-0.567,1.896-1.563,2.274v0.03
			c1.231,0.316,2.021,1.312,2.021,2.701c0,2.163-1.658,3.475-3.899,3.475C349.282,747.066,347.624,745.756,347.624,743.593z
			 M353.625,743.593c0-1.217-0.9-1.942-2.101-1.942c-1.201,0-2.102,0.727-2.102,1.942c0,1.295,0.9,2.054,2.102,2.054
			C352.725,745.646,353.625,744.888,353.625,743.593z M349.788,738.681c0,1.042,0.742,1.627,1.737,1.627
			c0.994,0,1.736-0.585,1.736-1.627c0-1.09-0.773-1.688-1.736-1.688C350.561,736.991,349.788,737.591,349.788,738.681z"/>
		<path fill="#FFFFFF" d="M356.74,737.623c1.517,0.016,2.953-0.506,3.222-1.832h1.469v11.055h-1.974v-7.802h-2.717V737.623
			L356.74,737.623z"/>
		<path fill="#FFFFFF" d="M365.967,738.712c0-1.705,0.79-3.143,2.639-3.143c1.848,0,2.637,1.438,2.637,3.143
			c0,1.722-0.727,3.144-2.637,3.144C366.694,741.855,365.967,740.434,365.967,738.712z M368.589,740.829
			c0.884,0,1.231-0.933,1.231-2.117c0-1.058-0.253-2.116-1.231-2.116s-1.2,1.06-1.2,2.116
			C367.389,739.896,367.705,740.829,368.589,740.829z M374.922,735.412h1.2l-6.112,11.813h-1.23L374.922,735.412z M373.895,743.924
			c0-1.705,0.79-3.143,2.639-3.143c1.848,0,2.638,1.438,2.638,3.143c0,1.723-0.727,3.144-2.638,3.144
			S373.895,745.646,373.895,743.924z M376.517,746.04c0.886,0,1.231-0.932,1.231-2.116c0-1.058-0.252-2.116-1.231-2.116
			c-0.979,0-1.199,1.06-1.199,2.116C375.317,745.108,375.632,746.04,376.517,746.04z"/>
	</g>
	<g>
		<path fill="#FFFFFF" d="M388.42,655.992c1.516,0.016,2.953-0.506,3.221-1.832h1.47v11.055h-1.974v-7.802h-2.717V655.992z"/>
		<path fill="#FFFFFF" d="M396.904,654.16h7.563v1.5c-2.307,2.604-3.838,5.56-4.123,9.555h-1.973c0.236-3.49,1.99-6.886,4.264-9.443
			h-5.731V654.16L396.904,654.16z"/>
		<path fill="#FFFFFF" d="M406.211,663.083h2.195v2.132h-2.195V663.083z"/>
		<path fill="#FFFFFF" d="M415.734,656.955c-0.078-0.9-0.679-1.516-1.611-1.516c-1.957,0-2.178,2.337-2.289,3.789l0.031,0.031
			c0.49-0.868,1.406-1.311,2.385-1.311c2.195,0,3.49,1.595,3.49,3.711c0,2.147-1.469,3.773-3.681,3.773
			c-3.254,0-4.026-2.558-4.026-5.778c0-2.639,1.043-5.718,4.17-5.718c1.752,0,3.236,1.217,3.332,3.017L415.734,656.955
			L415.734,656.955z M415.939,661.63c0-1.185-0.646-2.259-1.941-2.259c-1.312,0-1.99,1.043-1.99,2.259c0,1.2,0.68,2.306,1.99,2.306
			C415.293,663.936,415.939,662.814,415.939,661.63z"/>
		<path fill="#FFFFFF" d="M420.207,654.16h5.717v1.609h-4.373l-0.567,2.813l0.03,0.031c0.488-0.537,1.295-0.837,2.037-0.837
			c2.195,0,3.459,1.579,3.459,3.694c0,1.771-1.104,3.964-3.821,3.964c-2.134,0-3.791-1.151-3.869-3.362h1.801
			c0.109,1.185,0.867,1.862,2.037,1.862c1.531,0,2.053-1.09,2.053-2.432c0-1.217-0.647-2.306-2.102-2.306
			c-0.759,0-1.5,0.235-1.783,1.011h-1.801L420.207,654.16z"/>
		<path fill="#FFFFFF" d="M428.33,657.081c0-1.705,0.789-3.144,2.637-3.144s2.639,1.438,2.639,3.144
			c0,1.722-0.727,3.144-2.639,3.144C429.057,660.225,428.33,658.803,428.33,657.081z M430.951,659.198
			c0.885,0,1.231-0.934,1.231-2.117c0-1.058-0.254-2.116-1.231-2.116c-0.979,0-1.199,1.06-1.199,2.116
			C429.752,658.266,430.066,659.198,430.951,659.198z M437.285,653.781h1.199l-6.111,11.813h-1.232L437.285,653.781z
			 M436.258,662.293c0-1.705,0.789-3.143,2.637-3.143c1.849,0,2.64,1.438,2.64,3.143c0,1.722-0.728,3.143-2.64,3.143
			C436.984,665.436,436.258,664.015,436.258,662.293z M438.879,664.409c0.885,0,1.232-0.933,1.232-2.116
			c0-1.058-0.252-2.116-1.232-2.116c-0.979,0-1.199,1.06-1.199,2.116C437.68,663.479,437.994,664.409,438.879,664.409z"/>
	</g>
	<g>
		<path fill="#FFFFFF" d="M343.361,830.746h-6.827c0.015-1.644,0.856-2.885,2.2-3.784c1.299-0.942,2.983-1.728,3.014-3.285
			c0.014-0.714-0.286-1.771-1.686-1.771c-1.285,0-1.672,1.1-1.715,2.499h-1.628c0-2.214,1.214-3.856,3.441-3.856
			c2.442,0,3.214,1.785,3.214,3.07c0,1.586-1.086,2.571-2.229,3.371c-1.156,0.8-2.37,1.414-2.656,2.299h4.87L343.361,830.746
			L343.361,830.746z"/>
		<path fill="#FFFFFF" d="M351.371,825.748c0,2.271-0.586,5.199-3.456,5.199c-2.871,0-3.456-2.93-3.456-5.199
			c0-2.271,0.585-5.199,3.456-5.199C350.785,820.549,351.371,823.477,351.371,825.748z M349.743,825.748
			c0-2.086-0.4-3.842-1.828-3.842c-1.429,0-1.828,1.756-1.828,3.842c0,2.085,0.399,3.842,1.828,3.842
			C349.342,829.59,349.743,827.833,349.743,825.748z"/>
		<path fill="#FFFFFF" d="M352.51,822.406c1.371,0.014,2.671-0.457,2.914-1.657h1.328v9.997h-1.785v-7.055h-2.457V822.406z"/>
		<path fill="#FFFFFF" d="M361.476,820.749h5.171v1.456h-3.956l-0.516,2.543l0.029,0.029c0.442-0.486,1.171-0.758,1.842-0.758
			c1.985,0,3.128,1.428,3.128,3.342c0,1.6-0.999,3.586-3.456,3.586c-1.928,0-3.428-1.043-3.499-3.043h1.628
			c0.101,1.07,0.785,1.686,1.844,1.686c1.385,0,1.855-0.986,1.855-2.199c0-1.1-0.586-2.086-1.898-2.086
			c-0.687,0-1.356,0.215-1.614,0.914h-1.628L361.476,820.749z"/>
	</g>
	<g>
		<path fill="#FFFFFF" d="M403.863,830.746h-6.828c0.016-1.644,0.856-2.885,2.201-3.784c1.299-0.942,2.983-1.728,3.014-3.285
			c0.014-0.714-0.287-1.771-1.686-1.771c-1.285,0-1.673,1.1-1.716,2.499h-1.627c0-2.214,1.213-3.856,3.441-3.856
			c2.44,0,3.213,1.785,3.213,3.07c0,1.586-1.086,2.571-2.229,3.371c-1.156,0.8-2.369,1.414-2.656,2.299h4.871L403.863,830.746
			L403.863,830.746z"/>
		<path fill="#FFFFFF" d="M411.873,825.748c0,2.271-0.586,5.199-3.457,5.199s-3.455-2.93-3.455-5.199
			c0-2.271,0.584-5.199,3.455-5.199S411.873,823.477,411.873,825.748z M410.244,825.748c0-2.086-0.4-3.842-1.828-3.842
			s-1.828,1.756-1.828,3.842c0,2.085,0.4,3.842,1.828,3.842S410.244,827.833,410.244,825.748z"/>
		<path fill="#FFFFFF" d="M413.012,822.406c1.371,0.014,2.672-0.457,2.914-1.657h1.328v9.997h-1.785v-7.055h-2.457V822.406z"/>
		<path fill="#FFFFFF" d="M425.863,823.277c-0.072-0.814-0.615-1.371-1.457-1.371c-1.771,0-1.972,2.112-2.07,3.428l0.027,0.028
			c0.442-0.786,1.271-1.187,2.155-1.187c1.986,0,3.156,1.442,3.156,3.356c0,1.941-1.328,3.414-3.326,3.414
			c-2.942,0-3.643-2.314-3.643-5.229c0-2.385,0.943-5.17,3.77-5.17c1.587,0,2.929,1.101,3.015,2.729L425.863,823.277
			L425.863,823.277z M426.049,827.504c0-1.07-0.586-2.041-1.758-2.041c-1.186,0-1.799,0.941-1.799,2.041
			c0,1.086,0.613,2.086,1.799,2.086C425.463,829.59,426.049,828.576,426.049,827.504z"/>
	</g>
	<line fill="none" stroke="#F2F2F2" stroke-miterlimit="10" x1="303.869" y1="841.152" x2="465.754" y2="841.152"/>
	<g>
		<path fill="#F2F2F2" d="M317.409,861.047v0.975c2.753-1.108,5.334-3.881,6.634-6.52h-6.232v-1.146h7.477l0.019,1.203
			c-0.554,1.091-1.279,2.259-2.18,3.558c0.173,0.114,0.383,0.229,0.574,0.344c1.107,0.67,2.122,1.607,2.906,2.658l-0.898,0.746
			c-0.363-0.574-0.861-1.166-1.415-1.664c-0.574-0.517-1.186-0.918-1.854-1.242c-1.281,1.301-2.734,2.58-4.437,3.135l-0.898-0.897
			h-2.544v2.619c0.899-0.229,1.606-0.421,2.447-0.65v1.09l-2.447,0.727v4.38l-1.185,0.02v-4.131l-3.213,0.822l-0.726-1.166
			c1.338-0.172,2.656-0.439,3.938-0.804v-2.905h-3.117v-1.377l1.491-4.244h-1.835v-1.127h2.16c0.211-0.709,0.421-1.437,0.593-2.144
			l1.09,0.363l-0.478,1.76h4.13v1.146h-4.438l-1.586,4.455h1.988v-2.563h1.185v2.582L317.409,861.047L317.409,861.047z
			 M321.06,864.488h-3.671v-1.166h8.604v1.166h-3.747v4.053h4.264v1.166h-10.286v-1.166h4.837L321.06,864.488L321.06,864.488z"/>
		<path fill="#F2F2F2" d="M332.457,858.273c-0.497,1.452-1.721,2.85-2.715,3.823l-0.938-0.821c1.053-0.88,2.16-2.064,2.888-3.519
			L332.457,858.273z M329.245,854.393c0.211-0.268,0.479-0.438,0.727-0.707c0.918,0.402,1.74,1.091,2.392,1.933
			c-0.249,0.305-0.594,0.555-0.86,0.84C330.889,855.637,330.067,854.891,329.245,854.393z M337.638,863.895
			c0.076,1.912-0.21,3.748-1.777,4.974c-1.722,1.356-3.882,1.604-6.062,1.738l-0.535-1.128c2.619-0.172,4.569-0.172,6.387-2.026
			c0.88-0.918,0.821-2.332,0.88-3.558H337.638z M333.546,867.662h-1.185v-5.793h0.994l-0.65-0.938
			c1.683-0.479,3.136-0.897,4.244-1.932c0.804-0.744,1.339-1.682,1.683-2.619l1.015,0.363l-0.212,0.594
			c1.264,2.352,3.652,3.365,5.984,3.996l-0.803,0.994c-3.154-0.861-4.741-2.523-5.717-3.845c-1.052,1.873-3.098,2.867-5.01,3.347
			l7.915,0.039v5.813h-1.166v-4.703h-7.094L333.546,867.662L333.546,867.662z M337.428,853.934c-0.077,0.287-0.114,0.67-0.229,0.861
			h6.825c0.152,1.262-0.401,2.199-0.956,3.135c-0.152,0.097-0.229,0.535-0.459,0.308l-0.86-0.535
			c0.459-0.535,0.842-1.129,1.052-1.779h-6.176c-0.611,1.129-1.567,2.144-2.657,2.869l-0.784-0.897
			c1.588-0.918,2.772-2.679,3.309-4.398L337.428,853.934z M338.211,867.242c1.895,0.572,3.729,1.146,5.679,2.428
			c-0.172,0.344-0.459,0.707-0.688,1.014c-1.663-1.186-3.575-1.895-5.525-2.43L338.211,867.242z"/>
		<path fill="#F2F2F2" d="M347.142,866.189c3.137-2.009,5.508-5.011,6.615-8.451h-5.544v-1.187l7.074,0.021l0.019-3.078h1.225
			l-0.02,3.078l7.074-0.021v1.187l-5.373,0.02c0.306,1.07,0.784,2.104,1.339,3.078c1.204,2.104,3.098,3.9,5.144,5.201l-0.88,0.994
			c-2.064-1.453-4.13-3.48-5.354-5.697c-0.631-1.129-1.146-2.371-1.568-3.576h-0.344v7.056l3.785-0.019v1.166h-3.785v4.836h-1.205
			l-0.019-4.836h-3.9v-1.166l3.9,0.019v-7.074l-0.345,0.02c-0.976,3.23-3.002,6.138-5.697,8.412l-1.128,0.957L347.142,866.189z"/>
		<path fill="#F2F2F2" d="M367.009,869.67v-1.148h5.755v-14.528h1.242v14.549h2.582V854.01h1.186v14.531h5.717v1.129H367.009
			L367.009,869.67z M370.107,866.152c-0.059-2.697-0.899-5.086-1.933-7.381c0.287-0.191,0.65-0.324,0.994-0.459
			c0.938,2.063,1.854,4.799,2.122,7.321L370.107,866.152z M379.475,866.361l-0.937-0.572c1.223-1.512,2.294-3.633,2.466-7.4
			c0.363,0.097,0.688,0.287,1.052,0.402C381.769,862.348,380.699,864.488,379.475,866.361z"/>
		<path fill="#F2F2F2" d="M402.516,863.264c-2.733-0.592-5.393-1.356-7.78-2.771c-2.314,1.528-5.757,2.522-8.681,2.981l-0.498-1.127
			c2.199-0.362,4.304-0.881,6.31-1.664c0.574-0.229,1.186-0.573,1.778-0.897c-1.032-0.785-2.143-1.722-2.926-2.791
			c-0.975,1.146-2.217,2.197-3.574,2.731l-0.899-1.09c2.447-0.592,4.246-3.059,5.24-5.18c0.344,0.152,0.668,0.381,1.012,0.592
			c-0.152,0.344-0.344,0.688-0.516,1.033h7.477l0.018,1.127c-1.127,1.377-2.293,2.563-3.688,3.576
			c0.459,0.324,1.07,0.535,1.625,0.803c1.875,0.707,3.844,1.242,5.869,1.625L402.516,863.264z M399.361,869.479
			c-0.172,0.556-0.67,1.031-1.205,1.187c-0.822,0.229-1.683-0.021-2.486-0.135l-0.305-1.377c0.783,0.229,1.586,0.536,2.467,0.401
			c0.535-0.344,0.572-0.975,0.668-1.528c0.191-1.07,0.402-2.447,0.439-3.23h-4.531c-0.324,1.777-1.605,3.346-3.191,4.377
			c-1.168,0.767-3.252,1.396-4.436,1.605c-0.23-0.4-0.479-0.783-0.65-1.185c2.332-0.363,4.685-0.977,6.232-2.983
			c0.42-0.554,0.67-1.185,0.821-1.834h-5.678v-1.13h5.89c0.094-0.631,0.018-1.338,0.036-2.045l1.187,0.172
			c-0.021,0.593,0.02,1.3-0.039,1.873h5.604C400.145,865.674,399.916,867.662,399.361,869.479z M391.406,856.248
			c1.014,1.205,2.104,2.104,3.289,2.867c1.147-0.746,2.237-1.816,3.231-2.867H391.406z"/>
		<path fill="#F2F2F2" d="M410.969,870.797h-1.186v-5.43l-3.787,1.262l-0.916-0.955c0.631-0.401,0.592-0.688,0.592-1.396v-8.775
			h1.187v9.562l2.926-0.994v-10.459h1.186L410.969,870.797L410.969,870.797z M411.273,869.879c1.76-0.897,3.536-2.121,4.762-3.727
			c-1.07-1.627-1.607-3.537-2.084-5.394c-0.211,0.324-0.344,0.728-0.535,1.07c-0.287,0.518-0.594,1.053-0.957,1.529l-1.031-0.765
			c1.683-2.313,2.313-5.086,2.619-8.012l0.113-1.127l1.205,0.4c-0.021,1.014-0.152,2.143-0.308,3.098h6.388v1.129h-1.74
			c-0.096,2.904-0.803,5.639-2.256,8.01c0.994,1.453,2.715,2.945,4.379,3.613l-0.879,0.918c-1.627-0.727-3.156-2.064-4.246-3.461
			c-1.262,1.529-2.828,2.697-4.474,3.633L411.273,869.879z M414.791,858.084l-0.189,0.744c0.382,2.199,1.013,4.283,2.16,6.176
			c1.146-2.063,1.683-4.531,1.777-6.92H414.791L414.791,858.084z"/>
		<path fill="#F2F2F2" d="M433.531,854.604c-0.076,1.587,0.037,3.175,0.285,4.703c0.078,0.152,0.059,0.384,0.135,0.574
			c0.574,3.154,2.543,5.926,5.104,8.01c0.556,0.439,1.127,0.785,1.701,1.205c-0.229,0.308-0.498,0.631-0.746,0.957
			c-0.02,0.037-0.075,0.076-0.096,0.094c-0.783-0.456-1.549-1.127-2.275-1.737c-2.159-1.875-3.766-4.246-4.567-6.826
			c-0.938,2.352-2.447,4.588-4.512,6.348c-1.072,0.898-2.123,1.568-3.289,2.295c-0.248-0.362-0.535-0.745-0.804-1.108
			c2.677-1.32,5.431-3.785,6.748-6.443c-0.02-0.057,0.115-0.135,0.135-0.229c0.496-0.937,0.859-1.949,1.224-2.943
			c-0.172-1.242-0.324-2.408-0.324-3.709h-3.404v-1.166L433.531,854.604z"/>
		<path fill="#F2F2F2" d="M451.045,858.025l-0.018,4.282h6.883v8.47h-1.244l-0.018-1.605h-9.904v1.701h-1.281l0.021-8.564h4.243
			v-8.891l1.302-0.02v3.422l8.297-0.019l0.02,1.203L451.045,858.025z M456.648,863.494h-9.904v4.473h9.904V863.494z"/>
		<path fill="#F2F2F2" d="M331.272,876.975v5.125h5.085v1.187l-5.085-0.021v7.82c1.759-0.574,3.497-1.148,5.258-1.74l-0.021,1.263
			c-1.777,0.573-3.518,1.204-5.258,1.872c-0.421,0.154-0.86,0.326-1.281,0.498c-0.286-0.325-0.572-0.688-0.841-0.993
			c0.344-0.173,0.784-0.632,0.822-1.054v-13.977L331.272,876.975z M342.055,891.602c0.479,0,0.86-0.268,1.052-0.631
			c0.269-0.535,0.345-1.186,0.459-1.815c0.02-0.248,0.058-0.517,0.076-0.728l1.204,0.439c-0.134,0.918-0.306,1.873-0.688,2.734
			c-0.286,0.649-0.976,1.146-1.663,1.204l-3.212-0.02c-1.319-0.248-1.684-0.785-1.874-1.549l-0.02-14.359h1.319l-0.02,6.979
			c1.777-0.707,3.346-1.738,4.817-3.097l1.108,0.726c-1.759,1.606-3.729,2.965-5.907,3.651v5.66
			c0.038,0.363,0.152,0.592,0.803,0.803L342.055,891.602L342.055,891.602z"/>
		<path fill="#F2F2F2" d="M348.557,884.527c0.708-1.129,1.187-2.867,1.529-4.304h-2.294v-1.106h2.523
			c0.211-0.822,0.307-1.721,0.4-2.603l1.129,0.326c-0.039,0.765-0.229,1.51-0.345,2.275h2.926v1.106h-3.192
			c-0.401,1.568-0.688,2.984-1.473,4.437h1.777v-2.56h1.186v2.562h2.046v1.108h-2.046v2.144l2.696-0.728v1.146l-2.696,0.727v4.685
			h-1.186v-4.437l-3.192,0.785l-0.631-0.994c1.376-0.326,2.657-0.594,3.823-0.918v-2.41h-2.982L348.557,884.527L348.557,884.527z
			 M353.012,892.576c2.064-0.688,4.148-1.721,5.603-3.519c-0.938-1.434-1.625-3.021-1.95-4.723l1.109-0.42
			c0.268,1.453,0.841,2.791,1.604,4.033c0.746-1.281,1.319-2.734,1.606-4.226l1.069,0.517c-0.286,1.76-1.032,3.309-1.95,4.817
			c1.319,1.625,2.982,2.716,4.762,3.558l-0.879,1.014c-1.722-0.822-3.365-2.084-4.646-3.576c-1.529,1.683-3.479,2.867-5.506,3.595
			L353.012,892.576z M354.178,884.068c1.357-0.783,2.64-2.181,3.289-3.537l0.938,0.574c-0.594,1.452-1.933,2.827-3.271,3.745
			L354.178,884.068z M354.791,878.85h4.244c-0.497-0.784-1.339-1.491-2.199-1.875l0.938-0.727c0.879,0.383,1.777,1.244,2.352,2.027
			l-0.88,0.534l5.086,0.039v1.127h-9.54L354.791,878.85L354.791,878.85z M363.508,884.756c-0.745-1.375-1.873-2.695-3.288-3.459
			l0.822-0.766c1.185,0.459,2.867,2.371,3.422,3.479L363.508,884.756z"/>
		<path fill="#F2F2F2" d="M383.126,886.955v1.166l-6.749-0.018l-0.019,5.657l-1.225,0.021l-0.02-5.66l-7.726-0.018v-1.168
			l2.447,0.02v-4.664h5.239v-2.83h-4.302c-0.67,1.377-1.396,2.752-2.619,3.881l-1.033-0.803c1.511-1.396,2.543-3.059,3.078-4.895
			l0.421-1.416c0.363,0.153,0.708,0.307,1.052,0.497c-0.076,0.556-0.268,1.052-0.421,1.589h11.07v1.146l-6.004,0.021l0.02,2.811
			h5.009l0.021,1.166l-4.99,0.02v3.479L383.126,886.955L383.126,886.955z M371.063,883.477v3.479h4.033l0.021-3.498L371.063,883.477
			z"/>
		<path fill="#F2F2F2" d="M394.408,884.221c-0.517,0.746-1.107,1.437-1.854,2.027c0.572,0.344,1.109,0.803,1.586,1.318l-0.707,0.977
			c-0.821-0.898-1.758-1.607-2.848-1.988v7.304l-1.281,0.02l0.019-7.609c-0.4,0.229-0.728,0.517-1.127,0.746
			c-0.498,0.285-0.957,0.631-1.474,0.879c-0.305-0.286-0.516-0.745-0.842-0.993c1.836-0.882,3.711-2.16,5.01-3.863
			c0.384-0.478,0.574-1.012,0.804-1.566h-5.259v-1.205l6.578,0.021c-0.059,0.479,0.113,1.07-0.153,1.49
			c-0.439,1.243-1.242,2.37-2.293,3.364v0.248l0.821,0.271c0.859-0.459,1.605-1.453,1.97-2.162L394.408,884.221z M389.992,877.76
			c0.307,0.478,0.61,0.994,0.783,1.529c-0.345,0.191-0.688,0.496-1.07,0.631c-0.305-1.148-0.955-2.219-2.064-2.869
			c0.308-0.188,0.688-0.42,0.994-0.647c0.308,0.151,0.535,0.42,0.783,0.647C389.609,877.318,389.82,877.492,389.992,877.76z
			 M393.242,877.836h8.662l0.018,3.346l-0.076,3.806c-0.037,2.198-0.133,4.396-0.496,6.5c-0.114,0.67-0.842,1.225-1.473,1.377
			c-1.014,0.096-1.988-0.115-2.926-0.324l-0.305-1.377c0.803,0.172,1.549,0.4,2.389,0.496c0.438,0.039,0.842-0.209,1.053-0.572
			c0.133-0.459,0.133-1.014,0.209-1.473c0.039-0.326,0.096-0.689,0.096-1.015c0.021-0.516,0.154-0.994,0.115-1.567
			c0.097-0.478,0.058-1.07,0.115-1.549c0-0.478,0.037-0.898,0.037-1.396l0.039-3.863l-0.021-1.203c-1.069-0.038-2.235,0.019-3.325,0
			v3.25c0,2.468-0.076,4.99-0.957,7.246c-0.688,1.759-2.293,3.402-3.994,4.359c-0.078,0.037-0.078-0.076-0.115-0.115
			c-0.268-0.268-0.535-0.574-0.842-0.858c0.994-0.556,1.987-1.281,2.754-2.123c0.822-0.898,1.242-2.084,1.453-3.175
			c0.133-0.19,0.076-0.516,0.172-0.745c0.268-2.39,0.344-5.545,0.287-7.839l-2.851-0.02L393.242,877.836z"/>
		<path fill="#F2F2F2" d="M404.984,880.225h2.483v-3.766h1.166v3.766h2.162v1.109h-2.162v3.9l1.875-0.822v1.281l-1.875,0.803v5.793
			c0,0.822-0.61,1.377-1.434,1.377h-1.625l-0.383-1.146c0.649,0.037,1.09,0.037,1.645,0.058c0.402,0,0.631-0.191,0.631-0.517v-5.182
			l-2.024,0.822l-0.785-1.014c0.938-0.308,1.912-0.574,2.811-0.976v-4.379h-2.483L404.984,880.225L404.984,880.225z M412.23,891.275
			c-0.423,0.977-1.13,1.971-2.104,2.524l-0.822-0.897c1.435-0.938,2.256-2.525,2.408-4.207c0.06-0.574,0.078-1.015,0.039-1.492
			l1.146,0.154c0.02,0.727-0.037,1.528-0.173,2.256l0.211,0.248c0.632,0.746,1.701,1.225,2.543,1.473v-5.201h-4.53v-1.09h10.688
			v1.09h-5.01v2.027h3.9v1.07h-3.9v2.391c1.396,0.152,2.982,0.172,5.697,0l-0.478,1.223h-3.959c-2.084,0-3.996-0.649-5.485-1.969
			L412.23,891.275z M411.771,877.205h8.297v6.539h-8.297V877.205z M412.938,878.295v1.566h5.966v-1.566H412.938z M412.938,880.914
			v1.74h5.966v-1.74H412.938z"/>
		<path fill="#F2F2F2" d="M424.373,892.672c1.09-0.459,1.912-1.127,2.313-1.51c1.529-1.529,2.447-3.346,2.41-5.965h-4.264
			l0.018-1.148h4.359l0.02-4.74c-1.127,0.285-2.352,0.496-3.557,0.572l-0.647-1.186c2.811-0.133,5.446-0.783,7.723-2.197
			l0.842,0.898c-0.994,0.668-2.063,1.127-3.154,1.565v5.105l4.951-0.021v-7.609h1.187v7.63l4.168-0.021l0.02,1.148l-4.168-0.021
			v8.642h-1.205v-8.621l-5.01-0.021c-0.076,2.084-0.457,4.053-1.701,5.678c-0.955,1.226-2.18,2.199-3.479,2.888L424.373,892.672z"/>
		<path fill="#57B2DF" d="M354.63,918.469c0.109-0.891,0.218-1.26,0.521-1.869c0.587-1.174,1.586-2.303,3.149-3.586l0.718-0.586
			c2.868-2.346,3.954-3.824,3.954-5.301c0-1.564-1.237-2.695-2.934-2.695c-1.868,0-3.021,1.174-3.041,3.129l-1.956-0.217
			c0.261-2.912,2.042-4.498,5.041-4.498c2.89,0,4.867,1.761,4.867,4.324c0,1.846-1.087,3.498-3.824,5.801l-1.563,1.326
			c-1.282,1.086-1.805,1.65-2.238,2.346h7.647v1.826H354.63z"/>
		<path fill="#57B2DF" d="M368.019,918.469v-2.174h2.174v2.174H368.019z"/>
		<path fill="#57B2DF" d="M378.191,918.729c-2.999,0-5.128-1.977-5.128-4.758c0-1.326,0.521-2.498,1.434-3.237
			c0.456-0.369,0.739-0.5,1.521-0.695c-0.63-0.238-0.868-0.348-1.194-0.629c-0.739-0.588-1.151-1.5-1.151-2.543
			c0-2.347,1.868-4.021,4.477-4.021c2.63,0,4.52,1.717,4.52,4.063c0,1.521-0.761,2.543-2.281,3.106
			c0.739,0.263,0.999,0.392,1.456,0.738c0.935,0.74,1.455,1.936,1.455,3.26C383.296,916.752,381.146,918.729,378.191,918.729z
			 M378.147,910.863c-1.805,0-3.13,1.348-3.13,3.129c0,1.826,1.349,3.172,3.194,3.172c1.825,0,3.129-1.303,3.129-3.129
			C381.341,912.211,379.994,910.863,378.147,910.863z M378.169,904.432c-1.435,0-2.521,1.043-2.521,2.435
			c0,1.391,1.064,2.434,2.543,2.434c1.434,0,2.521-1.021,2.521-2.391C380.711,905.496,379.603,904.432,378.169,904.432z"/>
		<path fill="#57B2DF" d="M393.188,914.752v3.717h-1.911v-3.717h-6.736v-1.76l7.083-10.082h1.564v10.082h2.106v1.76H393.188z
			 M391.275,905.975l-4.867,7.019h4.867V905.975z"/>
		<path fill="#57B2DF" d="M400.883,910.885c-1.977,0-3.281-1.606-3.281-4.084c0-2.563,1.263-4.149,3.281-4.149
			c2.064,0,3.369,1.586,3.369,4.129C404.252,909.256,402.926,910.885,400.883,910.885z M400.926,903.975
			c-1.129,0-1.649,0.914-1.649,2.869c0,1.781,0.563,2.717,1.649,2.717c1.131,0,1.674-0.914,1.674-2.868
			C402.6,904.889,402.014,903.975,400.926,903.975z M402.514,919.055h-1.588l8.519-16.403h1.543L402.514,919.055z M410.943,919.055
			c-1.978,0-3.281-1.606-3.281-4.084c0-2.563,1.26-4.149,3.281-4.149c2.063,0,3.366,1.586,3.366,4.104
			C414.311,917.426,412.986,919.055,410.943,919.055z M410.986,912.123c-1.129,0-1.65,0.936-1.65,2.891
			c0,1.781,0.564,2.717,1.65,2.717c1.131,0,1.674-0.913,1.674-2.868C412.66,913.059,412.096,912.123,410.986,912.123z"/>
	</g>
</g>
</svg>
