<?xml version="1.0" encoding="utf-8"?>
<!-- Generator: Adobe Illustrator 16.0.0, SVG Export Plug-In . SVG Version: 6.00 Build 0)  -->
<!DOCTYPE svg PUBLIC "-//W3C//DTD SVG 1.1//EN" "http://www.w3.org/Graphics/SVG/1.1/DTD/svg11.dtd">
<svg version="1.1" id="Layer_1" xmlns="http://www.w3.org/2000/svg" xmlns:xlink="http://www.w3.org/1999/xlink" x="0px" y="0px"
	 width="768px" height="1024px" viewBox="0 0 768 1024" enable-background="new 0 0 768 1024" xml:space="preserve">
<g>
	<path fill="#FFFFFF" d="M551.533,830.746h-6.828c0.016-1.644,0.857-2.885,2.201-3.784c1.299-0.942,2.983-1.728,3.014-3.285
		c0.014-0.714-0.287-1.771-1.686-1.771c-1.285,0-1.672,1.1-1.716,2.499h-1.627c0-2.214,1.214-3.856,3.441-3.856
		c2.44,0,3.213,1.785,3.213,3.07c0,1.586-1.086,2.571-2.229,3.371c-1.156,0.8-2.369,1.414-2.656,2.299h4.871L551.533,830.746
		L551.533,830.746z"/>
	<path fill="#FFFFFF" d="M559.543,825.748c0,2.271-0.586,5.199-3.457,5.199s-3.455-2.93-3.455-5.199
		c0-2.271,0.584-5.199,3.455-5.199S559.543,823.477,559.543,825.748z M557.914,825.748c0-2.086-0.4-3.842-1.828-3.842
		s-1.828,1.756-1.828,3.842c0,2.085,0.4,3.842,1.828,3.842S557.914,827.833,557.914,825.748z"/>
	<path fill="#FFFFFF" d="M560.682,822.406c1.371,0.014,2.672-0.457,2.914-1.657h1.328v9.997h-1.785v-7.055h-2.457V822.406
		L560.682,822.406z"/>
	<path fill="#FFFFFF" d="M569.648,820.749h5.17v1.456h-3.957l-0.515,2.543l0.029,0.029c0.441-0.486,1.17-0.758,1.842-0.758
		c1.984,0,3.127,1.428,3.127,3.342c0,1.6-0.998,3.586-3.455,3.586c-1.928,0-3.428-1.043-3.5-3.043h1.63
		c0.1,1.07,0.784,1.686,1.842,1.686c1.385,0,1.856-0.986,1.856-2.199c0-1.1-0.586-2.086-1.899-2.086
		c-0.687,0-1.355,0.215-1.613,0.914h-1.629L569.648,820.749z"/>
</g>
<g>
	<path fill="#FFFFFF" d="M612.066,830.746h-6.826c0.014-1.644,0.856-2.885,2.199-3.784c1.301-0.942,2.983-1.728,3.014-3.285
		c0.014-0.714-0.285-1.771-1.687-1.771c-1.284,0-1.67,1.1-1.713,2.499h-1.629c0-2.214,1.215-3.856,3.441-3.856
		c2.442,0,3.215,1.785,3.215,3.07c0,1.586-1.086,2.571-2.229,3.371c-1.155,0.8-2.371,1.414-2.655,2.299h4.868v1.457H612.066z"/>
	<path fill="#FFFFFF" d="M620.076,825.748c0,2.271-0.586,5.199-3.455,5.199c-2.871,0-3.457-2.93-3.457-5.199
		c0-2.271,0.586-5.199,3.457-5.199C619.49,820.549,620.076,823.477,620.076,825.748z M618.449,825.748
		c0-2.086-0.4-3.842-1.828-3.842c-1.43,0-1.828,1.756-1.828,3.842c0,2.085,0.398,3.842,1.828,3.842
		C618.049,829.59,618.449,827.833,618.449,825.748z"/>
	<path fill="#FFFFFF" d="M621.217,822.406c1.371,0.014,2.67-0.457,2.914-1.657h1.328v9.997h-1.785v-7.055h-2.457V822.406
		L621.217,822.406z"/>
	<path fill="#FFFFFF" d="M634.066,823.277c-0.07-0.814-0.613-1.371-1.457-1.371c-1.771,0-1.972,2.112-2.07,3.428l0.029,0.028
		c0.44-0.786,1.27-1.187,2.155-1.187c1.984,0,3.156,1.442,3.156,3.356c0,1.941-1.328,3.414-3.328,3.414
		c-2.94,0-3.643-2.314-3.643-5.229c0-2.385,0.942-5.17,3.771-5.17c1.586,0,2.929,1.101,3.015,2.729L634.066,823.277L634.066,823.277
		z M634.252,827.504c0-1.07-0.586-2.041-1.756-2.041c-1.186,0-1.801,0.941-1.801,2.041c0,1.086,0.614,2.086,1.801,2.086
		C633.666,829.59,634.252,828.576,634.252,827.504z"/>
</g>
<g>
	<path fill="#FFFFFF" d="M535.707,736.474h5.717v1.61h-4.375l-0.568,2.813l0.031,0.031c0.49-0.537,1.295-0.838,2.037-0.838
		c2.195,0,3.459,1.58,3.459,3.696c0,1.769-1.104,3.964-3.822,3.964c-2.131,0-3.789-1.152-3.869-3.363h1.802
		c0.11,1.185,0.869,1.863,2.037,1.863c1.53,0,2.053-1.09,2.053-2.433c0-1.217-0.646-2.307-2.101-2.307
		c-0.758,0-1.5,0.236-1.784,1.011h-1.802L535.707,736.474z"/>
	<path fill="#FFFFFF" d="M550.744,742.002c0,2.51-0.646,5.748-3.82,5.748c-3.176,0-3.822-3.238-3.822-5.748
		c0-2.512,0.646-5.749,3.822-5.749C550.098,736.253,550.744,739.49,550.744,742.002z M548.945,742.002
		c0-2.307-0.443-4.249-2.021-4.249c-1.58,0-2.021,1.942-2.021,4.249c0,2.305,0.44,4.248,2.021,4.248
		C548.502,746.25,548.945,744.307,548.945,742.002z"/>
	<path fill="#FFFFFF" d="M552.393,745.396h2.195v2.133h-2.195V745.396z"/>
	<path fill="#FFFFFF" d="M563.891,742.002c0,2.51-0.647,5.748-3.821,5.748c-3.175,0-3.822-3.238-3.822-5.748
		c0-2.512,0.647-5.749,3.822-5.749C563.243,736.253,563.891,739.49,563.891,742.002z M562.09,742.002
		c0-2.307-0.44-4.249-2.021-4.249c-1.578,0-2.021,1.942-2.021,4.249c0,2.305,0.443,4.248,2.021,4.248
		C561.648,746.25,562.09,744.307,562.09,742.002z"/>
	<path fill="#FFFFFF" d="M565.283,738.306c1.518,0.018,2.953-0.505,3.223-1.832h1.469v11.057H568v-7.804h-2.717V738.306z"/>
	<path fill="#FFFFFF" d="M574.512,739.396c0-1.706,0.789-3.144,2.638-3.144c1.848,0,2.639,1.438,2.639,3.144
		c0,1.722-0.728,3.143-2.639,3.143C575.238,742.538,574.512,741.117,574.512,739.396z M577.133,741.512
		c0.885,0,1.232-0.932,1.232-2.115c0-1.059-0.254-2.116-1.232-2.116c-0.978,0-1.199,1.059-1.199,2.116
		C575.934,740.58,576.248,741.512,577.133,741.512z M583.467,736.095h1.199l-6.111,11.813h-1.231L583.467,736.095z M582.439,744.607
		c0-1.706,0.789-3.144,2.637-3.144s2.639,1.438,2.639,3.144c0,1.721-0.727,3.143-2.639,3.143
		C583.166,747.75,582.439,746.328,582.439,744.607z M585.061,746.723c0.886,0,1.232-0.932,1.232-2.114
		c0-1.06-0.252-2.117-1.232-2.117c-0.979,0-1.198,1.059-1.198,2.117C583.861,745.791,584.176,746.723,585.061,746.723z"/>
</g>
<line fill="none" stroke="#F2F2F2" stroke-miterlimit="10" x1="513.191" y1="841.152" x2="675.076" y2="841.152"/>
<g>
	<path fill="#F2F2F2" d="M527.135,861.391c-2.219,1.836-5.24,3.31-8.164,3.996l-0.631-1.108c3.06-0.593,5.851-1.74,8.26-4.033
		v-2.658h-5.928v2.236h-1.166v-3.308h7.094v-1.069h-6.157v-1.072h13.479v1.072h-6.119v1.069h7.113v3.193h-1.205v-2.123h-5.908v2.619
		l0.363,0.268l-0.172,0.172c2.219,1.951,4.953,3.138,8.049,3.519l-0.631,1.09C532.41,864.928,529.295,863.322,527.135,861.391z
		 M525.146,861.238h-3.806v-0.918h3.806V861.238z M525.088,859.383h-3.498v-0.918h3.498V859.383z M530.174,870.988
		c-2.084-1.453-4.396-2.313-6.883-2.791l0.707-0.955c0.994,0.151,1.932,0.477,2.887,0.764c1.281-0.344,2.603-1.014,3.709-1.664
		l-8.735-0.037v-1.069h10.495v1.03c-1.108,1.148-2.485,1.797-3.844,2.371c0.746,0.402,1.568,0.767,2.275,1.301L530.174,870.988z
		 M528.033,865.043c-0.594-0.766-1.549-1.357-2.447-1.816l0.707-0.706c0.803,0.247,1.76,0.879,2.504,1.7L528.033,865.043z
		 M532.793,859.383h-3.594v-0.897h3.594V859.383z M533.041,861.238h-3.842v-0.918h3.842V861.238z"/>
	<path fill="#F2F2F2" d="M541.227,864.66h-1.166v-6.176c-0.534,0.573-1.069,1.262-1.625,1.721l-1.069-0.746
		c1.948-1.625,3.346-3.785,4.205-6.002l1.014,0.496c-0.211,0.611-0.535,1.186-0.764,1.776h4.932
		c-0.115-0.284-0.363-0.516-0.574-0.743c-0.381-0.308-0.744-0.67-1.166-0.938l1.244-0.631c0.803,0.574,1.49,1.396,1.854,2.295h5.965
		v1.146l-6.348-0.02l-0.019,1.262h5.275v0.978h-5.259l-0.018,1.299l5.258,0.02l0.019,0.955h-5.259l-0.018,1.474l7.035-0.021v1.129
		h-13.498L541.227,864.66z M552.852,870.74h-1.186v-1.09l-10,0.02v1.127h-1.203v-5.639h12.408L552.852,870.74z M541.246,856.84
		v1.281h5.295v-1.262L541.246,856.84z M546.541,860.436v-1.319l-5.295,0.02v1.302h5.295V860.436z M546.541,862.824v-1.414
		l-5.295-0.021v1.414L546.541,862.824z M551.666,866.305h-10.02l0.02,2.217h10.02L551.666,866.305z"/>
	<path fill="#F2F2F2" d="M557.213,869.67v-1.148h5.754v-14.528h1.242v14.549h2.582V854.01h1.186v14.531h5.718v1.129H557.213
		L557.213,869.67z M560.311,866.152c-0.059-2.697-0.899-5.086-1.932-7.381c0.287-0.191,0.65-0.324,0.994-0.459
		c0.938,2.063,1.854,4.799,2.121,7.321L560.311,866.152z M569.678,866.361l-0.936-0.572c1.223-1.512,2.293-3.633,2.465-7.4
		c0.363,0.097,0.689,0.287,1.053,0.402C571.973,862.348,570.902,864.488,569.678,866.361z"/>
	<path fill="#F2F2F2" d="M592.719,863.264c-2.733-0.592-5.393-1.356-7.781-2.771c-2.313,1.528-5.756,2.522-8.68,2.981l-0.498-1.127
		c2.199-0.362,4.303-0.881,6.31-1.664c0.573-0.229,1.186-0.573,1.778-0.897c-1.032-0.785-2.143-1.722-2.926-2.791
		c-0.975,1.146-2.217,2.197-3.574,2.731l-0.899-1.09c2.446-0.592,4.246-3.059,5.239-5.18c0.345,0.152,0.669,0.381,1.013,0.592
		c-0.152,0.344-0.344,0.688-0.517,1.033h7.478l0.018,1.127c-1.127,1.377-2.293,2.563-3.688,3.576
		c0.459,0.324,1.069,0.535,1.625,0.803c1.875,0.707,3.844,1.242,5.869,1.625L592.719,863.264z M589.564,869.479
		c-0.173,0.556-0.67,1.031-1.205,1.187c-0.822,0.229-1.683-0.021-2.486-0.135l-0.305-1.377c0.782,0.229,1.586,0.536,2.467,0.401
		c0.535-0.344,0.572-0.975,0.668-1.528c0.19-1.07,0.402-2.447,0.438-3.23h-4.53c-0.324,1.777-1.605,3.346-3.191,4.377
		c-1.168,0.767-3.252,1.396-4.436,1.605c-0.23-0.4-0.479-0.783-0.65-1.185c2.332-0.363,4.684-0.977,6.232-2.983
		c0.42-0.554,0.67-1.185,0.821-1.834h-5.678v-1.13h5.889c0.095-0.631,0.019-1.338,0.037-2.045l1.187,0.172
		c-0.021,0.593,0.02,1.3-0.039,1.873h5.604C590.348,865.674,590.119,867.662,589.564,869.479z M581.609,856.248
		c1.014,1.205,2.104,2.104,3.289,2.867c1.147-0.746,2.237-1.816,3.231-2.867H581.609z"/>
	<path fill="#F2F2F2" d="M601.172,870.797h-1.186v-5.43l-3.787,1.262l-0.916-0.955c0.631-0.401,0.592-0.688,0.592-1.396v-8.775
		h1.186v9.562l2.927-0.994v-10.459h1.186L601.172,870.797L601.172,870.797z M601.477,869.879c1.761-0.897,3.537-2.121,4.763-3.727
		c-1.07-1.627-1.607-3.537-2.084-5.394c-0.211,0.324-0.345,0.728-0.535,1.07c-0.287,0.518-0.594,1.053-0.957,1.529l-1.031-0.765
		c1.683-2.313,2.313-5.086,2.619-8.012l0.113-1.127l1.205,0.4c-0.021,1.014-0.152,2.143-0.308,3.098h6.388v1.129h-1.74
		c-0.096,2.904-0.803,5.639-2.256,8.01c0.994,1.453,2.715,2.945,4.379,3.613l-0.879,0.918c-1.627-0.727-3.156-2.064-4.246-3.461
		c-1.262,1.529-2.828,2.697-4.473,3.633L601.477,869.879z M604.994,858.084l-0.189,0.744c0.381,2.199,1.013,4.283,2.16,6.176
		c1.146-2.063,1.682-4.531,1.777-6.92H604.994L604.994,858.084z"/>
	<path fill="#F2F2F2" d="M623.734,854.604c-0.076,1.587,0.037,3.175,0.284,4.703c0.078,0.152,0.06,0.384,0.136,0.574
		c0.573,3.154,2.543,5.926,5.104,8.01c0.556,0.439,1.127,0.785,1.701,1.205c-0.229,0.308-0.498,0.631-0.746,0.957
		c-0.02,0.037-0.076,0.076-0.096,0.094c-0.783-0.456-1.549-1.127-2.275-1.737c-2.16-1.875-3.766-4.246-4.567-6.826
		c-0.938,2.352-2.447,4.588-4.513,6.348c-1.071,0.898-2.123,1.568-3.289,2.295c-0.248-0.362-0.534-0.745-0.803-1.108
		c2.676-1.32,5.43-3.785,6.748-6.443c-0.021-0.057,0.115-0.135,0.135-0.229c0.496-0.937,0.859-1.949,1.224-2.943
		c-0.172-1.242-0.324-2.408-0.324-3.709h-3.404v-1.166L623.734,854.604z"/>
	<path fill="#F2F2F2" d="M641.248,858.025l-0.018,4.282h6.883v8.47h-1.244l-0.019-1.605h-9.903v1.701h-1.281l0.02-8.564h4.244
		v-8.891l1.302-0.02v3.422l8.297-0.019l0.02,1.203L641.248,858.025z M646.852,863.494h-9.903v4.473h9.903V863.494z"/>
	<path fill="#F2F2F2" d="M655.322,854.029v5.125h5.086v1.186l-5.086-0.02v7.819c1.76-0.573,3.498-1.147,5.258-1.739l-0.021,1.262
		c-1.776,0.574-3.518,1.205-5.258,1.873c-0.42,0.154-0.858,0.326-1.28,0.498c-0.285-0.326-0.572-0.689-0.841-0.994
		c0.345-0.172,0.783-0.631,0.822-1.053V854.01L655.322,854.029z M666.105,868.656c0.479,0,0.86-0.269,1.051-0.631
		c0.27-0.535,0.346-1.187,0.459-1.816c0.02-0.248,0.059-0.516,0.078-0.727l1.203,0.438c-0.134,0.918-0.306,1.873-0.688,2.734
		c-0.287,0.649-0.975,1.146-1.664,1.205l-3.211-0.021c-1.32-0.248-1.684-0.785-1.875-1.549l-0.018-14.359h1.317l-0.02,6.979
		c1.778-0.707,3.346-1.738,4.817-3.096l1.109,0.725c-1.76,1.607-3.729,2.965-5.908,3.652v5.659c0.039,0.363,0.152,0.593,0.803,0.804
		L666.105,868.656L666.105,868.656z"/>
	<path fill="#F2F2F2" d="M548.32,884.527c0.709-1.129,1.186-2.867,1.528-4.304h-2.293v-1.106h2.523
		c0.211-0.822,0.307-1.721,0.399-2.603l1.13,0.326c-0.039,0.765-0.229,1.51-0.345,2.275h2.927v1.106h-3.193
		c-0.402,1.568-0.689,2.984-1.473,4.437h1.776v-2.56h1.187v2.562h2.047v1.108h-2.047v2.144l2.696-0.728v1.146l-2.696,0.727v4.685
		h-1.187v-4.437l-3.19,0.785l-0.631-0.994c1.375-0.326,2.655-0.594,3.821-0.918v-2.41h-2.981L548.32,884.527L548.32,884.527z
		 M552.775,892.576c2.063-0.688,4.147-1.721,5.602-3.519c-0.936-1.434-1.625-3.021-1.949-4.723l1.109-0.42
		c0.268,1.453,0.84,2.791,1.604,4.033c0.746-1.281,1.318-2.734,1.605-4.226l1.07,0.517c-0.285,1.76-1.031,3.309-1.949,4.817
		c1.317,1.625,2.981,2.716,4.76,3.558l-0.879,1.014c-1.721-0.822-3.365-2.084-4.646-3.576c-1.529,1.683-3.479,2.867-5.507,3.595
		L552.775,892.576z M553.941,884.068c1.356-0.783,2.639-2.181,3.289-3.537l0.938,0.574c-0.594,1.452-1.932,2.827-3.27,3.745
		L553.941,884.068z M554.555,878.85h4.244c-0.498-0.784-1.34-1.491-2.199-1.875l0.938-0.727c0.879,0.383,1.777,1.244,2.352,2.027
		l-0.881,0.534l5.086,0.039v1.127h-9.539L554.555,878.85L554.555,878.85z M563.271,884.756c-0.744-1.375-1.873-2.695-3.287-3.459
		l0.821-0.766c1.185,0.459,2.867,2.371,3.423,3.479L563.271,884.756z"/>
	<path fill="#F2F2F2" d="M582.891,886.955v1.166l-6.75-0.018l-0.018,5.657l-1.225,0.021l-0.021-5.66l-7.725-0.018v-1.168l2.446,0.02
		v-4.664h5.24v-2.83h-4.303c-0.668,1.377-1.396,2.752-2.619,3.881l-1.033-0.803c1.513-1.396,2.543-3.059,3.078-4.895l0.422-1.416
		c0.363,0.153,0.707,0.307,1.051,0.497c-0.075,0.556-0.268,1.052-0.42,1.589h11.07v1.146l-6.004,0.021l0.02,2.811h5.009l0.02,1.166
		l-4.99,0.02v3.479L582.891,886.955L582.891,886.955z M570.826,883.477v3.479h4.033l0.02-3.498L570.826,883.477z"/>
	<path fill="#F2F2F2" d="M594.172,884.221c-0.516,0.746-1.106,1.437-1.854,2.027c0.571,0.344,1.108,0.803,1.586,1.318l-0.707,0.977
		c-0.822-0.898-1.758-1.607-2.849-1.988v7.304l-1.28,0.02l0.018-7.609c-0.4,0.229-0.727,0.517-1.127,0.746
		c-0.498,0.285-0.957,0.631-1.473,0.879c-0.306-0.286-0.517-0.745-0.843-0.993c1.837-0.882,3.712-2.16,5.011-3.863
		c0.383-0.478,0.573-1.012,0.803-1.566h-5.258v-1.205l6.578,0.021c-0.06,0.479,0.112,1.07-0.154,1.49
		c-0.439,1.243-1.242,2.37-2.293,3.364v0.248l0.822,0.271c0.858-0.459,1.604-1.453,1.969-2.162L594.172,884.221z M589.756,877.76
		c0.307,0.478,0.611,0.994,0.783,1.529c-0.344,0.191-0.688,0.496-1.07,0.631c-0.305-1.148-0.955-2.219-2.063-2.869
		c0.307-0.188,0.688-0.42,0.994-0.647c0.307,0.151,0.534,0.42,0.782,0.647C589.373,877.318,589.584,877.492,589.756,877.76z
		 M593.006,877.836h8.662l0.018,3.346l-0.075,3.806c-0.037,2.198-0.134,4.396-0.496,6.5c-0.115,0.67-0.842,1.225-1.474,1.377
		c-1.014,0.096-1.987-0.115-2.926-0.324l-0.305-1.377c0.803,0.172,1.549,0.4,2.389,0.496c0.439,0.039,0.842-0.209,1.053-0.572
		c0.134-0.459,0.134-1.014,0.209-1.473c0.039-0.326,0.097-0.689,0.097-1.015c0.02-0.516,0.153-0.994,0.114-1.567
		c0.097-0.478,0.058-1.07,0.115-1.549c0-0.478,0.037-0.898,0.037-1.396l0.039-3.863l-0.02-1.203c-1.07-0.038-2.236,0.019-3.326,0
		v3.25c0,2.468-0.076,4.99-0.957,7.246c-0.688,1.759-2.293,3.402-3.994,4.359c-0.078,0.037-0.078-0.076-0.115-0.115
		c-0.268-0.268-0.535-0.574-0.842-0.858c0.994-0.556,1.988-1.281,2.754-2.123c0.822-0.898,1.242-2.084,1.453-3.175
		c0.133-0.19,0.076-0.516,0.172-0.745c0.268-2.39,0.344-5.545,0.287-7.839l-2.85-0.02L593.006,877.836z"/>
	<path fill="#F2F2F2" d="M604.748,880.225h2.484v-3.766h1.166v3.766h2.161v1.109h-2.161v3.9l1.875-0.822v1.281l-1.875,0.803v5.793
		c0,0.822-0.611,1.377-1.435,1.377h-1.625l-0.383-1.146c0.65,0.037,1.09,0.037,1.645,0.058c0.402,0,0.632-0.191,0.632-0.517v-5.182
		l-2.025,0.822l-0.785-1.014c0.938-0.308,1.912-0.574,2.812-0.976v-4.379h-2.484L604.748,880.225L604.748,880.225z M611.994,891.275
		c-0.422,0.977-1.129,1.971-2.104,2.524l-0.821-0.897c1.434-0.938,2.256-2.525,2.407-4.207c0.06-0.574,0.078-1.015,0.039-1.492
		l1.146,0.154c0.02,0.727-0.037,1.528-0.172,2.256l0.211,0.248c0.631,0.746,1.701,1.225,2.543,1.473v-5.201h-4.531v-1.09H621.4v1.09
		h-5.011v2.027h3.9v1.07h-3.9v2.391c1.396,0.152,2.982,0.172,5.697,0l-0.477,1.223h-3.959c-2.084,0-3.996-0.649-5.486-1.969
		L611.994,891.275z M611.535,877.205h8.297v6.539h-8.297V877.205z M612.701,878.295v1.566h5.965v-1.566H612.701z M612.701,880.914
		v1.74h5.965v-1.74H612.701z"/>
	<path fill="#F2F2F2" d="M624.137,892.672c1.09-0.459,1.912-1.127,2.313-1.51c1.528-1.529,2.447-3.346,2.41-5.965h-4.265
		l0.019-1.148h4.358l0.021-4.74c-1.127,0.285-2.353,0.496-3.558,0.572l-0.647-1.186c2.811-0.133,5.447-0.783,7.723-2.197
		l0.843,0.898c-0.994,0.668-2.064,1.127-3.154,1.565v5.105l4.951-0.021v-7.609h1.186v7.63l4.168-0.021l0.021,1.148l-4.168-0.021
		v8.642h-1.205v-8.621l-5.011-0.021c-0.075,2.084-0.457,4.053-1.7,5.678c-0.955,1.226-2.181,2.199-3.479,2.888L624.137,892.672z"/>
	<path fill="#57B2DF" d="M569.561,918.469v-12.168c-0.629,0.607-1.237,1.021-2.366,1.629c-0.695,0.369-0.894,0.457-1.457,0.674
		v-1.848c2.063-0.955,3.78-2.477,4.498-3.91h1.237v15.623H569.561z"/>
	<path fill="#57B2DF" d="M577.344,918.469v-2.174h2.172v2.174H577.344z"/>
	<path fill="#57B2DF" d="M590.426,914.752v3.717h-1.912v-3.717h-6.733v-1.76l7.082-10.082h1.563v10.082h2.109v1.76H590.426z
		 M588.514,905.975l-4.867,7.019h4.867V905.975z"/>
	<path fill="#57B2DF" d="M599.773,918.469v-12.168c-0.63,0.607-1.238,1.021-2.367,1.629c-0.695,0.369-0.894,0.457-1.457,0.674
		v-1.848c2.063-0.955,3.781-2.477,4.498-3.91h1.237v15.623H599.773z"/>
	<path fill="#57B2DF" d="M610.207,910.885c-1.977,0-3.281-1.606-3.281-4.084c0-2.563,1.262-4.149,3.281-4.149
		c2.064,0,3.369,1.586,3.369,4.129C613.576,909.256,612.25,910.885,610.207,910.885z M610.25,903.975
		c-1.129,0-1.65,0.914-1.65,2.869c0,1.781,0.564,2.717,1.65,2.717c1.131,0,1.674-0.914,1.674-2.868
		C611.924,904.889,611.338,903.975,610.25,903.975z M611.838,919.055h-1.588l8.518-16.403h1.543L611.838,919.055z M620.268,919.055
		c-1.977,0-3.28-1.606-3.28-4.084c0-2.563,1.26-4.149,3.28-4.149c2.064,0,3.367,1.586,3.367,4.104
		C623.635,917.426,622.311,919.055,620.268,919.055z M620.311,912.123c-1.129,0-1.649,0.936-1.649,2.891
		c0,1.781,0.563,2.717,1.649,2.717c1.132,0,1.675-0.913,1.675-2.868C621.984,913.059,621.42,912.123,620.311,912.123z"/>
</g>
<rect x="598.959" y="682.723" opacity="0.698" fill="#328EC0" enable-background="new    " width="42.873" height="126.4"/>
<rect x="538.523" y="756.395" opacity="0.698" fill="#797979" enable-background="new    " width="42.795" height="52.729"/>
<g>
	<path fill="#FFFFFF" d="M595.199,661.882h5.717v1.61h-4.373l-0.568,2.812l0.031,0.031c0.488-0.537,1.295-0.837,2.037-0.837
		c2.195,0,3.459,1.579,3.459,3.695c0,1.77-1.105,3.964-3.822,3.964c-2.133,0-3.791-1.152-3.869-3.363h1.802
		c0.108,1.186,0.866,1.863,2.036,1.863c1.531,0,2.054-1.09,2.054-2.433c0-1.217-0.648-2.306-2.103-2.306
		c-0.758,0-1.5,0.236-1.783,1.011h-1.801L595.199,661.882z"/>
	<path fill="#FFFFFF" d="M602.863,663.714c1.516,0.017,2.953-0.506,3.221-1.832h1.469v11.056h-1.973v-7.803h-2.717V663.714z"/>
	<path fill="#FFFFFF" d="M611.885,670.805h2.195v2.133h-2.195V670.805z"/>
	<path fill="#FFFFFF" d="M623.416,670.314h-1.422v2.621h-1.705v-2.621h-4.738v-1.784l4.738-6.648h1.705v7.013h1.422V670.314z
		 M616.939,668.894h3.35v-4.863h-0.033L616.939,668.894z"/>
	<path fill="#FFFFFF" d="M632.105,672.938h-7.55c0.017-1.816,0.947-3.19,2.433-4.187c1.438-1.042,3.301-1.91,3.332-3.632
		c0.016-0.79-0.316-1.958-1.863-1.958c-1.422,0-1.848,1.216-1.896,2.764h-1.801c0-2.448,1.342-4.265,3.806-4.265
		c2.7,0,3.555,1.975,3.555,3.396c0,1.753-1.201,2.844-2.465,3.729c-1.279,0.884-2.621,1.563-2.938,2.542h5.387L632.105,672.938
		L632.105,672.938z"/>
	<path fill="#FFFFFF" d="M634.004,664.803c0-1.705,0.791-3.143,2.639-3.143c1.849,0,2.638,1.438,2.638,3.143
		c0,1.723-0.728,3.145-2.638,3.145C634.73,667.946,634.004,666.524,634.004,664.803z M636.627,666.92c0.883,0,1.23-0.933,1.23-2.117
		c0-1.058-0.252-2.116-1.23-2.116c-0.979,0-1.201,1.06-1.201,2.116C635.426,665.987,635.742,666.92,636.627,666.92z
		 M642.959,661.503h1.201l-6.113,11.813h-1.229L642.959,661.503z M641.932,670.015c0-1.705,0.791-3.143,2.64-3.143
		c1.848,0,2.637,1.438,2.637,3.143c0,1.723-0.727,3.144-2.637,3.144C642.658,673.157,641.932,671.736,641.932,670.015z
		 M644.555,672.131c0.886,0,1.23-0.932,1.23-2.116c0-1.058-0.252-2.116-1.23-2.116c-0.979,0-1.201,1.06-1.201,2.116
		C643.354,671.199,643.67,672.131,644.555,672.131z"/>
</g>
</svg>
