<?xml version="1.0" encoding="utf-8"?>
<!-- Generator: Adobe Illustrator 16.0.0, SVG Export Plug-In . SVG Version: 6.00 Build 0)  -->
<!DOCTYPE svg PUBLIC "-//W3C//DTD SVG 1.1//EN" "http://www.w3.org/Graphics/SVG/1.1/DTD/svg11.dtd">
<svg version="1.1" id="Layer_1" xmlns="http://www.w3.org/2000/svg" xmlns:xlink="http://www.w3.org/1999/xlink" x="0px" y="0px"
	 width="768px" height="1024px" viewBox="0 0 768 1024" enable-background="new 0 0 768 1024" xml:space="preserve">
<g>
	
		<rect x="137.36" y="493.205" opacity="0.302" fill-rule="evenodd" clip-rule="evenodd" fill="#D9D9D9" width="493.279" height="52.82"/>
	<g>
		<path fill="#BDD7EF" d="M191.651,525.029c3.654-2.339,6.416-5.836,7.708-9.846h-6.46v-1.382l8.243,0.022l0.021-3.587h1.426
			l-0.021,3.587l8.242-0.022v1.382l-6.26,0.021c0.356,1.248,0.913,2.451,1.56,3.587c1.403,2.45,3.608,4.544,5.992,6.06l-1.024,1.158
			c-2.406-1.693-4.813-4.055-6.238-6.639c-0.734-1.314-1.336-2.762-1.826-4.166h-0.401v8.221l4.411-0.022v1.358h-4.411v5.637h-1.403
			l-0.022-5.637h-4.545v-1.358l4.545,0.022v-8.242l-0.401,0.021c-1.136,3.766-3.497,7.151-6.639,9.803l-1.314,1.113L191.651,525.029
			z"/>
		<path fill="#BDD7EF" d="M217.977,521.309c-0.668,0.625-2.026,1.516-2.628,1.939c-0.424-0.402-0.892-0.713-1.203-1.092
			c2.74-1.561,5.057-4.145,6.861-6.706l1.136,0.757c-0.557,1.003-1.849,2.541-2.762,3.609v10.471h-1.404V521.309z M221.119,510.727
			c-1.448,2.206-3.253,4.5-5.48,6.082c-0.111,0.045-0.066-0.111-0.156-0.133l-1.002-0.869c2.25-1.56,4.121-3.631,5.569-5.904
			L221.119,510.727z M222.678,518.524v-1.358l11.473,0.021v1.337h-4.099v9.847c-0.111,0.713-0.379,1.182-0.914,1.516
			c-0.4,0.244-0.913,0.268-1.403,0.268h-2.405c-0.134-0.469-0.335-0.914-0.446-1.404c0.98,0.09,2.005,0.09,3.008,0.066
			c0.29-0.066,0.602-0.223,0.668-0.713v-9.579H222.678z M232.748,512.978h-9.535v-1.359h9.535V512.978z"/>
		<path fill="#BDD7EF" d="M240.205,518.502c-0.735,1.07-1.515,1.871-2.384,2.852l-1.292-0.98c1.737-1.76,3.431-3.764,4.455-5.947
			c0.669-1.404,1.226-2.874,1.761-4.3l1.336,0.624c-0.579,1.693-1.358,3.454-2.16,5.035v14.748l-1.426,0.022v-12.543
			L240.205,518.502z M249.182,530.398l-0.445-1.515c0.936,0.111,1.471,0.067,2.25,0.111c0.513,0.022,0.914-0.223,0.824-0.824V516.92
			h-7.931v-1.336h7.931v-5.28h1.426v5.28h3.342v1.336h-3.386l0.021,11.652c0,0.734-0.623,1.826-1.804,1.826H249.182z
			 M248.916,524.785c-0.98-1.827-2.429-3.564-4.277-4.456l1.113-0.892c0.78,0.357,1.56,0.936,2.184,1.561
			c0.891,0.868,1.626,1.848,2.228,2.896L248.916,524.785z"/>
		<path fill="#BDD7EF" d="M258.601,527.792c1.47-0.713,2.94-1.894,3.81-3.364l1.002,0.758c-0.847,1.471-2.384,2.83-3.854,3.631
			L258.601,527.792z M270.164,510.616c-0.313,0.535-0.78,1.069-1.248,1.56l5.993-0.022v10.382l-12.609,0.021l-0.022-10.381
			l4.968-0.022c0.646-0.601,1.314-1.47,1.693-2.228L270.164,510.616z M263.68,515.116l9.847,0.022v-1.648h-9.869L263.68,515.116z
			 M263.68,516.43l-0.022,1.717h9.869v-1.738L263.68,516.43z M263.658,519.416v1.826l9.869-0.021v-1.805H263.658z M273.995,526.166
			c-0.334,1.069-0.468,1.737-1.069,2.74c-0.268,0.468-0.824,0.512-1.358,0.512h-5.369c-1.337,0-1.827-0.312-1.827-1.358v-3.899
			l1.426,0.023l-0.022,3.475c0.09,0.313,0.201,0.445,0.558,0.445h5.124c0.713,0,0.891-1.402,1.202-2.094L273.995,526.166z
			 M270.185,526.656c-1.002-1.182-2.228-2.05-3.608-2.54l0.868-0.958c1.382,0.468,2.674,1.359,3.676,2.539L270.185,526.656z
			 M277.67,528.549c-0.824-1.537-2.294-2.828-3.854-3.43l1.047-0.803c1.56,0.602,3.052,1.938,3.987,3.408L277.67,528.549z"/>
		<path fill="#BDD7EF" d="M295.108,513.111c-0.69,0.913-1.314,1.849-2.071,2.718h4.655v9.534h-1.336v-8.265h-9.98v8.733h-1.314
			v-9.625c-0.914,0.713-2.295,1.693-3.364,2.361l-0.936-1.068c2.606-1.783,5.726-4.656,7.53-7.552
			c0.423,0.133,0.802,0.378,1.202,0.535c-0.244,0.557-0.623,1.047-0.913,1.493h6.527V513.111z M292.079,518.436
			c-0.045,3.23,0.022,6.572-2.629,8.732c-1.782,1.448-4.679,2.34-7.218,2.986c-0.29-0.357-0.535-0.848-0.78-1.293
			c3.787-1.025,7.798-2.139,8.845-5.547c0.445-1.492,0.49-3.275,0.423-4.879H292.079z M287.711,513.2
			c-0.646,0.892-1.515,1.782-2.316,2.629h5.658c0.713-0.602,1.604-1.761,2.272-2.629H287.711z M299.319,530.242
			c-1.983-2.183-4.456-3.631-7.063-4.545l1.003-1.002c2.518,1.047,5.302,2.161,7.151,4.611L299.319,530.242z"/>
		<path fill="#BDD7EF" d="M309.471,510.794c-0.379,1.916-1.003,3.721-1.648,5.524v14.035h-1.426V519.26
			c-0.535,0.936-1.181,1.738-1.938,2.584l-1.136-0.891c1.982-2.385,4.032-5.682,4.945-10.694L309.471,510.794z M316.511,521.799
			c-0.045,2.54-0.201,5.125-2.34,6.729c-1.447,1.092-3.074,1.693-4.9,1.85l-0.735-1.426c2.45-0.111,4.968-0.914,6.082-3.254
			c0.423-1.246,0.534-2.695,0.534-4.076L316.511,521.799z M323.061,517.277v1.291h-14.392c-0.022-0.422-0.022-0.868,0-1.313h6.505
			v-1.226h-4.768v-1.248h4.745v-1.18h-5.413v-1.337h5.413v-2.027h1.381v2.049h5.659v1.315h-5.659v1.158l4.79,0.021v1.248h-4.768
			v1.248H323.061z M310.407,526.834v-7.396H321.3v7.419h-1.381v-6.082h-8.132v6.06H310.407z M317.134,526.299
			c2.05,0.625,3.966,1.604,5.682,3.053c-0.223,0.4-0.58,0.735-0.803,1.158c-1.715-1.559-3.676-2.406-5.681-3.074L317.134,526.299z"
			/>
		<path fill="#BDD7EF" d="M329.381,518.502c-0.735,1.07-1.515,1.871-2.384,2.852l-1.292-0.98c1.737-1.76,3.431-3.764,4.455-5.947
			c0.669-1.404,1.226-2.874,1.761-4.3l1.336,0.624c-0.579,1.693-1.358,3.454-2.16,5.035v14.748l-1.426,0.022v-12.543
			L329.381,518.502z M338.359,530.398l-0.445-1.515c0.936,0.111,1.471,0.067,2.25,0.111c0.513,0.022,0.914-0.223,0.824-0.824V516.92
			h-7.931v-1.336h7.931v-5.28h1.426v5.28h3.342v1.336h-3.386l0.022,11.652c0,0.734-0.624,1.826-1.805,1.826H338.359z
			 M338.092,524.785c-0.98-1.827-2.429-3.564-4.277-4.456l1.113-0.892c0.78,0.357,1.56,0.936,2.184,1.561
			c0.891,0.868,1.626,1.848,2.228,2.896L338.092,524.785z"/>
		<path fill="#BDD7EF" d="M347.778,527.792c1.47-0.713,2.94-1.894,3.81-3.364l1.002,0.758c-0.847,1.471-2.384,2.83-3.854,3.631
			L347.778,527.792z M359.339,510.616c-0.312,0.535-0.779,1.069-1.247,1.56l5.993-0.022v10.382l-12.609,0.021l-0.022-10.381
			l4.968-0.022c0.646-0.601,1.314-1.47,1.693-2.228L359.339,510.616z M352.857,515.116l9.847,0.022v-1.648h-9.869L352.857,515.116z
			 M352.857,516.43l-0.022,1.717h9.869v-1.738L352.857,516.43z M352.834,519.416v1.826l9.869-0.021v-1.805H352.834z
			 M363.171,526.166c-0.334,1.069-0.468,1.737-1.069,2.74c-0.267,0.468-0.824,0.512-1.358,0.512h-5.369
			c-1.337,0-1.827-0.312-1.827-1.358v-3.899l1.426,0.023l-0.022,3.475c0.09,0.313,0.201,0.445,0.558,0.445h5.124
			c0.713,0,0.891-1.402,1.203-2.094L363.171,526.166z M359.362,526.656c-1.002-1.182-2.228-2.05-3.608-2.54l0.868-0.958
			c1.382,0.468,2.674,1.359,3.676,2.539L359.362,526.656z M366.847,528.549c-0.824-1.537-2.294-2.828-3.854-3.43l1.047-0.803
			c1.56,0.602,3.052,1.938,3.987,3.408L366.847,528.549z"/>
		<path fill="#BDD7EF" d="M379.807,525.564h-8.956v-1.293h8.956v-1.18h1.381v1.18h8.957v1.293h-8.957v4.813h-1.381V525.564z
			 M376.42,520.106c-1.381,1.136-2.852,2.094-4.5,2.651l-0.979-1.114c0.534-0.224,1.158-0.401,1.692-0.669
			c1.069-0.534,2.095-1.225,3.053-1.982L376.42,520.106z M372.478,516.141c-0.29-0.2-0.58-0.379-0.892-0.468l0.892-0.979
			c0.445,0.133,0.824,0.4,1.225,0.623c0.803,0.557,1.604,1.181,2.206,1.982l-1.025,1.003
			C374.282,517.389,373.346,516.721,372.478,516.141z M389.186,513.846h-7.44c-1.137,1.582-1.961,2.584-2.83,3.364
			c0.869-0.067,1.872-0.134,2.941-0.29c0.4-0.467,0.623-0.957,0.936-1.426l1.158,0.625c-0.624,1.047-1.381,2.071-2.272,2.984
			c-0.802,0.824-1.671,1.537-2.606,2.094c1.248-0.044,2.473-0.223,3.698-0.355c-0.223-0.313-0.468-0.58-0.758-0.824l1.137-0.58
			c1.002,0.869,1.783,2.027,2.384,3.142l-1.137,0.646c-0.178-0.423-0.423-0.891-0.713-1.291c-2.139,0.199-4.277,0.512-6.305,0.891
			l-0.824-1.314c0.513-0.178,0.914-0.49,1.359-0.758c1.002-0.623,2.05-1.604,2.874-2.494c-1.226,0.088-2.54,0.311-3.721,0.534
			l-0.69-1.203c1.47-0.78,2.874-2.272,3.72-3.743h-8.376v-1.291h8.376c-0.534-0.691-1.292-1.449-2.071-1.894l1.292-0.691
			c0.892,0.735,1.648,1.649,2.205,2.585h7.664V513.846z M385.533,518.057l-0.848-1.203c1.426-0.512,2.764-1.403,3.877-2.518
			l0.758,1.025C388.139,516.453,386.98,517.5,385.533,518.057z M384.709,520.24l0.713-1.07c1.67,0.424,3.252,1.159,4.521,2.385
			l-0.779,1.047C387.916,521.376,386.313,520.686,384.709,520.24z"/>
		<path fill="#BDD7EF" d="M393.947,519.66c0.824-1.314,1.381-3.342,1.783-5.012h-2.674v-1.293h2.939
			c0.246-0.958,0.357-2.004,0.469-3.029l1.314,0.379c-0.045,0.891-0.268,1.76-0.4,2.65h3.408v1.293h-3.721
			c-0.469,1.826-0.803,3.475-1.715,5.168h2.07v-2.984h1.383v2.984h2.383v1.293h-2.383v2.494l3.141-0.846v1.336l-3.141,0.847v5.458
			h-1.383v-5.168l-3.719,0.913l-0.736-1.159c1.604-0.378,3.098-0.689,4.455-1.068v-2.807h-3.475V519.66z M399.139,529.039
			c2.406-0.801,4.834-2.004,6.527-4.099c-1.092-1.671-1.895-3.521-2.273-5.503l1.293-0.49c0.313,1.693,0.98,3.253,1.871,4.701
			c0.869-1.492,1.537-3.186,1.871-4.924l1.248,0.602c-0.334,2.05-1.203,3.854-2.273,5.614c1.537,1.894,3.477,3.163,5.549,4.144
			l-1.025,1.182c-2.006-0.959-3.922-2.43-5.414-4.166c-1.781,1.96-4.055,3.342-6.416,4.188L399.139,529.039z M400.496,519.126
			c1.582-0.913,3.076-2.54,3.832-4.122l1.092,0.669c-0.689,1.693-2.25,3.298-3.809,4.366L400.496,519.126z M401.209,513.045h4.947
			c-0.58-0.914-1.561-1.738-2.563-2.184l1.092-0.847c1.025,0.446,2.072,1.448,2.74,2.362L406.4,513l5.926,0.045v1.313h-11.117
			V513.045z M411.369,519.928c-0.869-1.604-2.184-3.141-3.832-4.031l0.957-0.893c1.381,0.535,3.342,2.764,3.988,4.055
			L411.369,519.928z"/>
		<path fill="#BDD7EF" d="M423.17,527.303v-16.753l1.402-0.022l0.023,6.661l7.863,0.022v1.314h-7.863l-0.023,8.778l9.914,0.021
			v1.337l-18.846-0.022l0.021-1.336H423.17z"/>
		<path fill="#BDD7EF" d="M456.357,522.49v1.359l-7.863-0.023l-0.023,6.595l-1.426,0.022l-0.021-6.594l-9-0.023v-1.358l2.852,0.022
			v-5.436h6.104v-3.297h-5.012c-0.779,1.604-1.627,3.207-3.053,4.521l-1.203-0.936c1.76-1.627,2.963-3.564,3.588-5.703l0.49-1.648
			c0.422,0.178,0.824,0.356,1.225,0.579c-0.09,0.646-0.313,1.225-0.49,1.849h12.898v1.337l-6.994,0.021l0.021,3.275h5.836
			l0.023,1.358l-5.814,0.022v4.055H456.357z M442.301,518.436v4.055h4.701l0.021-4.077L442.301,518.436z"/>
		<path fill="#BDD7EF" d="M467.514,530.465l-0.023-17.153h-7.686v-1.359l18.758,0.022l-0.021,1.336h-9.602l-0.023,17.153H467.514z
			 M475.801,523.047c-1.693-2.316-4.033-3.766-5.459-4.566l0.625-1.025c1.291,0.49,2.449,1.248,3.564,2.184
			c0.824,0.69,1.625,1.537,2.271,2.339L475.801,523.047z"/>
		<path fill="#BDD7EF" d="M488.426,512.443c-0.824,1.76-1.492,3.386-2.227,5.124c1.471,1.671,2.695,3.631,2.094,5.971
			c-0.178,0.713-0.779,1.381-1.492,1.515c-0.646,0.112-1.338,0.067-1.939-0.067l-0.422-1.47c0.623,0.2,1.402,0.379,2.072,0.179
			c0.6-0.334,0.668-1.003,0.6-1.648c-0.178-1.627-1.246-3.008-2.449-4.122c0.758-1.827,1.537-3.564,2.338-5.368h-2.918v17.844
			h-1.426V511.24h5.77V512.443z M499.566,513.512c-0.803,1.471-2.096,2.674-3.432,3.743c1.693,1.27,3.654,2.005,5.703,2.45
			l-0.824,1.293c-2.094-0.602-4.211-1.561-5.971-2.919c-1.492,0.913-4.188,2.206-6.193,2.673l-0.689-1.225
			c2.049-0.58,4.076-1.248,5.836-2.451c-0.734-0.846-1.426-1.715-1.961-2.673c-0.646,1.136-1.559,2.206-2.539,3.142l-1.203-0.803
			c1.604-1.381,3.453-4.211,4.299-6.839l1.271,0.535c-0.18,0.602-0.447,1.159-0.646,1.738h6.35V513.512z M491.725,523.336
			l-0.469,2.139h3.053v-2.939h-4.5v-1.314h4.5v-1.961h1.426v1.961h3.609v1.314h-3.609v2.939h4.678v1.314h-4.678v3.543h-1.426v-3.543
			h-4.857l0.891-3.92L491.725,523.336z M493.127,513.49c0.49,0.957,1.27,2.027,1.982,2.828c1.047-0.757,2.096-1.781,2.83-2.828
			H493.127z"/>
		<path fill="#55B4E1" d="M514.541,513.217c-0.271-1.409-1.35-2.609-2.82-2.609c-3.09,0-3.9,4.051-4.02,6.391l0.059,0.059
			c1.17-1.649,2.701-2.34,4.74-2.34c1.801,0,3.631,0.841,4.83,2.16c1.109,1.291,1.621,3.03,1.621,4.68
			c0,4.291-2.971,7.68-7.352,7.68c-6.359,0-8.068-5.549-8.068-10.859c0-5.129,2.279-10.979,8.25-10.979
			c3.629,0,6.328,2.13,6.809,5.819H514.541z M508.09,521.827c0,1.95,1.262,3.899,3.391,3.899c2.039,0,3.209-1.949,3.209-3.84
			c0-1.979-1.02-3.959-3.209-3.959C509.201,517.928,508.09,519.758,508.09,521.827z"/>
		<path fill="#55B4E1" d="M527.951,507.398c5.219,0,7.02,3.6,7.02,5.639c0,2.07-1.08,3.75-3.061,4.41v0.061
			c2.49,0.569,3.93,2.489,3.93,5.129c0,4.41-3.959,6.6-7.859,6.6c-4.051,0-7.98-2.039-7.98-6.569c0-2.67,1.5-4.56,3.961-5.159
			v-0.061c-2.041-0.57-3.09-2.25-3.09-4.32C520.871,509.348,524.531,507.398,527.951,507.398z M527.98,526.027
			c2.039,0,3.6-1.44,3.6-3.54c0-2.011-1.619-3.36-3.6-3.36c-2.07,0-3.721,1.17-3.721,3.33S525.939,526.027,527.98,526.027z
			 M527.951,516.277c1.738,0,3.148-0.96,3.148-2.76c0-1.08-0.51-2.91-3.148-2.91c-1.711,0-3.211,1.05-3.211,2.91
			C524.74,515.348,526.24,516.277,527.951,516.277z"/>
		<path fill="#55B4E1" d="M537.73,507.398h4.26v7.799h0.061c1.049-1.59,2.969-2.31,4.889-2.31c3.092,0,6.42,2.489,6.42,8.159
			c0,5.7-3.328,8.189-6.42,8.189c-2.279,0-4.168-0.689-5.1-2.399h-0.059v1.979h-4.051V507.398z M545.471,516.098
			c-2.52,0-3.631,2.369-3.631,4.979c0,2.58,1.111,4.95,3.631,4.95s3.629-2.37,3.629-4.95
			C549.1,518.467,547.99,516.098,545.471,516.098z"/>
		<path fill="#55B4E1" d="M556.061,513.308h4.051v1.979h0.059c1.021-1.649,2.701-2.399,4.621-2.399c4.859,0,7.049,3.93,7.049,8.339
			c0,4.141-2.279,8.01-6.809,8.01c-1.861,0-3.631-0.81-4.65-2.34h-0.061v7.381h-4.26V513.308z M567.58,521.107
			c0-2.46-0.99-5.01-3.719-5.01c-2.791,0-3.691,2.49-3.691,5.01s0.961,4.92,3.721,4.92
			C566.68,526.027,567.58,523.627,567.58,521.107z"/>
		<path fill="#55B4E1" d="M577.811,523.777c0.029,1.859,1.59,2.609,3.27,2.609c1.23,0,2.789-0.479,2.789-1.979
			c0-1.29-1.77-1.74-4.83-2.399c-2.459-0.541-4.92-1.41-4.92-4.141c0-3.959,3.42-4.979,6.75-4.979c3.391,0,6.51,1.14,6.84,4.95
			h-4.049c-0.121-1.65-1.381-2.101-2.91-2.101c-0.961,0-2.369,0.181-2.369,1.44c0,1.529,2.398,1.74,4.828,2.31
			c2.49,0.569,4.92,1.47,4.92,4.35c0,4.08-3.539,5.399-7.078,5.399c-3.602,0-7.111-1.35-7.291-5.459H577.811z"/>
	</g>
	<rect x="143.009" y="497.725" fill="none" stroke="#BDD7EF" stroke-miterlimit="10" width="481.986" height="43.778"/>
</g>
</svg>
