<?xml version="1.0" encoding="utf-8"?>
<!-- Generator: Adobe Illustrator 16.0.0, SVG Export Plug-In . SVG Version: 6.00 Build 0)  -->
<!DOCTYPE svg PUBLIC "-//W3C//DTD SVG 1.1//EN" "http://www.w3.org/Graphics/SVG/1.1/DTD/svg11.dtd">
<svg version="1.1" id="Layer_1" xmlns="http://www.w3.org/2000/svg" xmlns:xlink="http://www.w3.org/1999/xlink" x="0px" y="0px"
	 width="768px" height="1024px" viewBox="0 0 768 1024" enable-background="new 0 0 768 1024" xml:space="preserve">
<path opacity="0.5" fill="#E6E7E8" d="M637.359,671.59c-11.315,0-21.901,5.109-27.563,15.148l-0.364-0.363
	c1.278-16.793,3.832-43.807,26.466-43.807c10.769,0,17.707,7.121,18.617,17.522h20.809c-1.096-20.809-18.252-34.862-38.512-34.862
	c-36.141,0-48.188,35.594-48.188,66.073c0,37.234,8.941,66.804,46.543,66.804c25.554,0,42.528-18.8,42.528-43.621
	C677.697,690.023,662.73,671.59,637.359,671.59z M634.439,740.768c-15.149,0-22.998-12.776-22.998-26.647
	c0-14.058,7.849-26.104,22.998-26.104c14.967,0,22.449,12.414,22.449,26.104C656.89,727.807,649.406,740.768,634.439,740.768z"/>
</svg>
