<?xml version="1.0" encoding="utf-8"?>
<!-- Generator: Adobe Illustrator 16.0.0, SVG Export Plug-In . SVG Version: 6.00 Build 0)  -->
<!DOCTYPE svg PUBLIC "-//W3C//DTD SVG 1.1//EN" "http://www.w3.org/Graphics/SVG/1.1/DTD/svg11.dtd">
<svg version="1.1" id="Layer_1" xmlns="http://www.w3.org/2000/svg" xmlns:xlink="http://www.w3.org/1999/xlink" x="0px" y="0px"
	 width="768px" height="1024px" viewBox="0 0 768 1024" enable-background="new 0 0 768 1024" xml:space="preserve">
<line fill="none" stroke="#FFFFFF" stroke-width="2" x1="327.302" y1="540.488" x2="344.764" y2="540.488"/>
<g>
	<g>
		<path fill="#FFFFFF" d="M376.472,235.17c0,0.576,0.337,0.864,1.018,0.864h7.61c0.406,0,0.609,0.186,0.609,0.558v12.688
			c0,5.245-0.896,10.505-2.689,15.783c0,0.27,0.067,0.406,0.203,0.406c0.236,0,0.438-0.085,0.608-0.253
			c2.639-5.108,3.958-10.386,3.958-15.834v-13.703c0-0.846-0.391-1.269-1.167-1.269h-9.135
			C376.811,234.409,376.472,234.664,376.472,235.17 M403.674,250.04c0,10.421-1.589,15.631-4.77,15.631
			c-3.756,0-5.633-4.957-5.633-14.87v-9.846h10.399L403.674,250.04L403.674,250.04z M403.674,239.484h-10.399v-3.654h10.399V239.484
			z M403.674,234.256h-10.399v-3.095c1.624-0.304,3.263-0.457,4.922-0.457c1.857,0,3.686,0.169,5.479,0.508L403.674,234.256
			L403.674,234.256z M391.189,225.375c0,0.543,0.317,0.813,0.966,0.813h5.176c-0.543,0.711-1,1.421-1.371,2.132
			c-0.305,0.338-0.473,0.658-0.507,0.963c-0.744,0.069-1.506,0.169-2.283,0.306c-0.104-0.509-0.391-0.762-0.864-0.762
			c-0.676,0-1.015,0.439-1.015,1.319v20.859c0,7.613,1.218,12.586,3.654,14.921c-0.203,1.454-0.85,2.959-1.932,4.516
			c0.034,0.236,0.223,0.354,0.563,0.354c0.303,0,0.624-0.187,0.963-0.558c0.979-0.982,1.708-2.047,2.183-3.198
			c0.609,0.237,1.306,0.356,2.081,0.356c0.71,0,1.371-0.151,1.979-0.457c0.541,1.116,1.168,2.199,1.878,3.249
			c0.27,0.473,0.605,0.71,1.015,0.71c0.439,0,0.66-0.237,0.66-0.71c0-0.541-0.709-1.946-2.133-4.211
			c2.301-2.234,3.452-7.326,3.452-15.277v-20.605c0-0.879-0.307-1.319-0.913-1.319c-0.478,0-0.796,0.288-0.965,0.863
			c-1.792-0.338-3.62-0.509-5.48-0.509c-0.339,0-0.711,0.019-1.117,0.051c0.575-0.743,1.117-1.589,1.625-2.537
			c0.136-0.067,0.223-0.219,0.253-0.457h6.496c0.646,0,0.964-0.27,0.964-0.813c0-0.438-0.389-0.692-1.165-0.76h-12.739
			C391.662,224.683,391.189,224.937,391.189,225.375 M379.366,238.215c-0.203,3.216-0.339,8.596-0.406,16.14
			c0,8.255,0.203,13.397,0.608,15.428c0.135,0.641,0.254,0.979,0.354,1.014c0.203,0,0.373-0.304,0.507-0.912
			c0.307-1.253,0.457-6.43,0.457-15.53c0-6.97-0.221-12.384-0.66-16.241c-0.135-0.507-0.254-0.76-0.354-0.76
			C379.669,237.354,379.5,237.641,379.366,238.215 M379.009,230.501c0,0.542,0.322,0.813,0.964,0.813h5.482
			c0.676,0,1.014-0.27,1.014-0.813c0-0.438-0.39-0.692-1.167-0.761h-4.922C379.466,229.809,379.009,230.063,379.009,230.501
			 M382.105,223.6c-4.534,5.008-6.986,8.221-7.358,9.642c0,0.442,0.119,0.694,0.354,0.762c0.307,0,0.56-0.185,0.763-0.558
			c2.398-3.012,4.466-5.448,6.188-7.31c0.308-0.304,0.491-0.456,0.562-0.456c0.135,0,0.306,0.102,0.508,0.303
			c1.117,1.05,2.926,3.063,5.43,6.04c0.234,0.271,0.562,0.406,0.965,0.406c0.307,0,0.456-0.237,0.456-0.711
			c0-0.304-0.572-1.133-1.726-2.487c-0.914-1.319-2.656-3.197-5.228-5.632c-0.172-0.169-0.34-0.254-0.51-0.254
			C382.376,223.346,382.24,223.431,382.105,223.6"/>
		<path fill="#FFFFFF" d="M403.015,171.075c-0.233,4.635-0.391,12.366-0.457,23.191c0,11.842,0.235,19.201,0.71,22.077
			c0.174,0.778,0.322,1.201,0.459,1.269c0.234,0,0.424-0.355,0.56-1.064c0.372-1.829,0.56-9.255,0.56-22.281
			c0-10.013-0.255-17.795-0.763-23.345c-0.17-0.574-0.322-0.862-0.455-0.862C403.388,170.059,403.186,170.397,403.015,171.075
			 M376.675,172.901c0,0.575,0.355,0.863,1.067,0.863h11.264l-0.049,3.096c0,0.948-0.441,1.42-1.32,1.42h-7.354
			c-1.084,0.069-1.828,0.406-2.234,1.016l-1.927,6.293c0,1.082,0.557,1.624,1.674,1.624H388.3c0.915,0,1.37,0.439,1.37,1.32v3.603
			c0,0.88-0.661,1.642-1.979,2.284c-2.81,2.098-5.022,4.753-6.646,7.967c-1.49,4.196-2.232,8.865-2.232,14.007
			c0,0.879,0.223,1.32,0.66,1.32c0.338,0,0.51-0.644,0.51-1.928c0.135-4.195,1.049-8.408,2.739-12.637
			c1.589-3.011,3.893-5.532,6.901-7.562c1.521-0.777,2.283-1.758,2.283-2.944v-4.769c-0.067-1.625-1.102-2.437-3.098-2.437h-9.742
			c-0.439,0-0.66-0.204-0.66-0.609l1.521-4.212c0.134-0.44,0.439-0.661,0.913-0.661h7.207c1.963,0,2.943-0.879,2.943-2.639
			l-0.104-5.785c-0.136-0.845-0.455-1.302-0.964-1.37c-0.438,0.068-0.728,0.525-0.862,1.37v0.608
			c-0.064-0.033-0.151-0.051-0.254-0.051h-10.709C377.146,172.156,376.675,172.428,376.675,172.901"/>
		<path fill="#FFFFFF" d="M392.866,123.117c0,0.236,0.082,0.389,0.252,0.456c1.049,0.438,2.184,1.034,3.398,1.776
			c-3.28,3.181-5.702,5.906-7.259,8.172c0,0.373,0.134,0.558,0.406,0.558c0.203,0,0.523-0.118,0.964-0.355
			c2.438-2.367,4.978-4.804,7.613-7.309c0.54,0.338,1.099,0.711,1.675,1.117c3.281,2.403,5.277,4.584,5.988,6.547
			c0.168,0.711,0.456,2.638,0.858,5.786c0,0.338,0.104,0.507,0.31,0.507s0.304-0.203,0.304-0.608
			c0.17-0.981,0.254-2.876,0.254-5.685c-0.069-1.15-0.424-2.098-1.063-2.842c-0.777-1.185-1.742-2.233-2.896-3.146
			c-1.421-1.117-2.824-2.047-4.211-2.792c1.048-1.014,2.147-2.063,3.298-3.146c0.848-0.372,1.271-0.813,1.271-1.32
			c0-0.744-0.541-1.623-1.624-2.639c-1.22-1.016-2.42-1.523-3.604-1.523c-1.422,0-3.756,1.133-7.005,3.4
			c-0.507,0.17-0.761,0.423-0.761,0.762s0.521,0.507,1.573,0.507c0.233,0,1.1-0.558,2.59-1.674c1.284-0.846,2.314-1.269,3.095-1.269
			c0.711,0,1.284,0.136,1.725,0.406c1.188,0.645,1.778,1.116,1.778,1.422c0,0.44-0.238,0.76-0.712,0.963
			c-1.218,1.117-2.385,2.183-3.502,3.198c-1.386-0.677-2.775-1.167-4.161-1.472C393.186,122.914,392.999,122.98,392.866,123.117
			 M398.498,135.499c1.015,0,2.047,0.051,3.094,0.152v18.778c0,5.007-1.029,7.563-3.094,7.664c-2.401-0.102-3.604-2.911-3.604-8.426
			v-17.915C396.112,135.583,397.313,135.499,398.498,135.499 M394.793,134.078c-0.135-0.914-0.457-1.371-0.965-1.371
			c-0.575,0.068-0.861,1.117-0.861,3.147v17.813c0.032,6.937,1.911,10.404,5.633,10.404c3.217,0,4.871-3.181,4.976-9.541v-19.133
			c0-1.792-0.337-2.689-1.018-2.689c-0.474,0-0.775,0.44-0.913,1.32c-0.979-0.134-1.994-0.203-3.045-0.203
			C397.347,133.824,396.078,133.909,394.793,134.078 M378.197,152.196v-25.021h3.146c-0.065,3.723-0.119,8.559-0.148,14.515
			c0,10.488,0.2,17.017,0.605,19.589c0.033,0.067,0.051,0.151,0.051,0.253C379.416,161.059,378.197,157.947,378.197,152.196
			 M386.571,151.841c0,6.395-1.319,9.642-3.958,9.743c0.033-0.067,0.05-0.135,0.05-0.203c0.305-1.59,0.457-8.152,0.457-19.69
			c0-5.617-0.085-10.455-0.253-14.515h3.705L386.571,151.841L386.571,151.841z M381.598,121.086
			c-0.031,1.218-0.102,2.724-0.203,4.517h-2.893c-0.068,0-0.169,0.017-0.305,0.051v-4.619c1.148-0.134,2.314-0.22,3.502-0.254
			C381.666,120.85,381.631,120.952,381.598,121.086 M386.571,125.654c-0.067-0.034-0.169-0.051-0.307-0.051h-3.502
			c-0.065-1.658-0.169-3.18-0.305-4.568c0-0.068-0.034-0.152-0.103-0.254c1.422,0,2.823,0.12,4.213,0.354L386.571,125.654
			L386.571,125.654z M376.27,119.563v32.835c0,7.173,2.049,10.76,6.144,10.76c4.06,0,6.089-3.553,6.089-10.659v-32.684
			c0-0.845-0.289-1.269-0.863-1.269c-0.507,0-0.846,0.322-1.015,0.965c-1.388-0.27-2.79-0.405-4.211-0.405
			c-1.42,0-2.826,0.102-4.213,0.304c-0.104-0.744-0.423-1.117-0.963-1.117C376.589,118.294,376.27,118.718,376.27,119.563"/>
		<path fill="#FFFFFF" d="M378.807,81.908c-0.136-0.373-0.271-0.964-0.403-1.777h5.177c-0.068,1.558-0.119,3.35-0.152,5.38
			C381.225,85.24,379.686,84.039,378.807,81.908 M389.719,82.162c-0.438,2.097-1.979,3.214-4.619,3.35
			c-0.032-1.895-0.084-3.688-0.149-5.38h5.276C390.09,81.146,389.921,81.823,389.719,82.162 M378.248,78.507
			c-0.068-0.676-0.135-1.489-0.201-2.437c1.826-0.337,3.635-0.507,5.429-0.507h0.308v0.051c-0.035,0.813-0.07,1.775-0.104,2.893
			H378.248z M390.377,78.507h-5.531c-0.065-1.048-0.149-2.029-0.254-2.943c1.932,0.034,3.909,0.187,5.938,0.456
			C390.495,76.901,390.445,77.729,390.377,78.507 M376.318,74.498c0,3.315,0.205,5.633,0.607,6.952
			c0.916,3.35,3.079,5.246,6.497,5.685v2.386h-6.698c-0.914,0.067-1.369,0.338-1.369,0.811c0,0.575,0.319,0.863,0.963,0.863h7.104
			c-0.033,0.608-0.051,1.287-0.051,2.029c0,9.001,0.186,14.583,0.559,16.748c0.137,0.643,0.253,0.998,0.354,1.066
			c0.203,0,0.354-0.304,0.457-0.912c0.305-1.354,0.457-6.988,0.457-16.901v-2.029h6.242c0.712,0,1.063-0.288,1.063-0.863
			c0-0.473-0.406-0.744-1.218-0.811h-6.09c0-0.813-0.021-1.591-0.051-2.335c3.82-0.237,6.039-1.98,6.646-5.228
			c0.406-1.759,0.609-4.179,0.609-7.258c0-0.777-0.321-1.251-0.964-1.421c-0.439,0.136-0.714,0.49-0.813,1.065
			c-2.3-0.27-4.651-0.405-7.053-0.405c-1.861,0-3.727,0.152-5.583,0.456v-0.152c-0.068-0.813-0.371-1.218-0.914-1.218
			C376.642,73.026,376.388,73.517,376.318,74.498 M391.24,68.966c-0.17,1.151-0.828,1.726-1.979,1.726
			c-1.116,0-1.878-0.575-2.282-1.726c-0.137-0.373-0.221-1.167-0.255-2.385c0.878-0.135,1.777-0.203,2.688-0.203
			c0.712,0,1.404,0.085,2.082,0.254C391.425,67.918,391.342,68.697,391.24,68.966 M385.15,65.565c0,1.727,0.102,2.943,0.303,3.654
			c0.543,1.962,1.845,2.961,3.909,2.994c2.063-0.032,3.248-1.031,3.553-2.994c0.169-0.979,0.253-2.334,0.253-4.06
			c0-0.711-0.271-1.149-0.81-1.319c-0.479,0.17-0.747,0.558-0.813,1.167v0.152c-0.643-0.168-1.318-0.252-2.029-0.252
			c-0.914,0-1.879,0.068-2.894,0.202c-0.104-0.574-0.355-0.863-0.761-0.863C385.453,64.246,385.217,64.686,385.15,65.565
			 M382.156,68.966c-0.169,1.151-0.829,1.726-1.98,1.726c-1.047,0-1.758-0.575-2.128-1.726c-0.137-0.373-0.222-1.184-0.255-2.436
			c0.813-0.135,1.658-0.203,2.538-0.203c0.642,0,1.336,0.068,2.081,0.203C382.376,67.884,382.291,68.697,382.156,68.966
			 M376.218,65.515c0,1.759,0.103,2.994,0.309,3.705c0.506,1.962,1.758,2.961,3.753,2.994c2.028-0.032,3.216-1.031,3.554-2.994
			c0.168-0.979,0.253-2.334,0.253-4.06c0-0.711-0.271-1.149-0.813-1.319c-0.474,0.17-0.743,0.558-0.813,1.167v0.051
			c-0.71-0.135-1.403-0.202-2.08-0.202c-0.914,0-1.812,0.066-2.689,0.202c-0.104-0.574-0.374-0.862-0.813-0.862
			C376.505,64.196,376.285,64.635,376.218,65.515 M393.98,67.901c0,0.541,0.354,0.813,1.063,0.813h1.877
			c0.478,2.402,1.032,5.819,1.676,10.251c-0.945,1.386-1.795,2.74-2.538,4.06c-1.858,3.924-2.789,9.523-2.789,16.798
			c0.065,3.213,0.15,6.461,0.255,9.744c0.064,0.474,0.168,0.711,0.304,0.711c0.234,0,0.354-0.255,0.354-0.762
			c0.104-3.417,0.223-6.817,0.355-10.201c0-3.789,0.829-8.288,2.486-13.5c0.541-1.352,1.219-2.706,2.027-4.06
			c0.137,1.014,0.286,2.115,0.457,3.298c1.591,10.252,4.331,18.608,8.225,25.072c0.168,0.269,0.338,0.405,0.508,0.405
			c0.168,0,0.253-0.085,0.253-0.253c-3.044-7.005-5.515-16.308-7.41-27.914c-0.202-0.981-0.389-1.979-0.558-2.994
			c0.371-0.508,0.776-1.048,1.219-1.624c1.861-2.944,2.791-5.194,2.791-6.751c0-0.337-0.068-0.507-0.203-0.507
			s-0.236,0.136-0.303,0.406c-0.544,1.354-1.508,2.926-2.896,4.72c-0.374,0.405-0.728,0.845-1.063,1.319
			c-0.646-3.249-1.307-5.989-1.98-8.221h7.917c0.646,0,0.964-0.272,0.964-0.813c0-0.44-0.389-0.693-1.167-0.762h-2.028v-1.674
			c-0.065-0.813-0.354-1.219-0.861-1.219c-0.541,0.069-0.813,0.474-0.813,1.219v1.674h-4.517c-0.473-1.353-0.98-2.402-1.521-3.146
			c-0.169-0.236-0.32-0.354-0.457-0.354c-0.136,0.068-0.2,0.169-0.2,0.304c0.27,0,0.642,1.065,1.113,3.197h-1.113
			C394.454,67.208,393.98,67.46,393.98,67.901"/>
		<path fill="#FFFFFF" d="M391.174,496.152c0.271-1.896,0.813-3.502,1.623-4.821h1.574c3.925-0.067,6.853-1.066,8.779-2.994
			c0.234-0.237,0.354-0.407,0.354-0.509c0-0.303-0.153-0.456-0.457-0.456c-2.842,1.521-5.904,2.284-9.186,2.284h-5.48
			c-0.813,0-1.219,0.288-1.219,0.859c0,0.542,0.523,0.813,1.574,0.813h2.938c-1.725,2.505-2.62,5.549-2.688,9.135l-0.354,12.028
			c-0.373,7.85-1.879,13.023-4.518,15.529c0,0.169,0.052,0.255,0.151,0.255c0.171,0,0.371-0.086,0.607-0.255
			c3.451-2.102,5.363-7.344,5.734-15.732l0.255-11.571c0-1.015,0.05-2.013,0.149-2.993h8.271v0.053
			c-0.203,3.044-0.338,8.119-0.406,15.226c0,7.746,0.203,12.584,0.607,14.515c0.104,0.645,0.222,0.997,0.354,1.065
			c0.203,0,0.371-0.322,0.509-0.965c0.372-1.188,0.562-6.058,0.562-14.615c0-6.53-0.255-11.623-0.763-15.276h2.992
			c0.645,0,0.967-0.254,0.967-0.762c0-0.507-0.406-0.794-1.222-0.861H391.47C391.377,496.102,391.275,496.118,391.174,496.152
			 M374.882,494.732c0,0.474,0.288,0.709,0.863,0.709h4.262c0.409,0,0.611,0.187,0.611,0.56v20.451c0,3.756-0.562,6.971-1.675,9.645
			c-1.018,2.873-2.271,5.313-3.758,7.31c-0.234,0.063-0.354,0.186-0.354,0.354s0.104,0.254,0.307,0.254
			c1.727-1.42,3.146-3.108,4.265-5.071c1.218,1.146,2.707,2.063,4.464,2.737c2.063,0.914,4.451,1.369,7.158,1.369l15.225-0.203
			c1.421-0.03,2.132-0.271,2.132-0.709c-0.136-0.438-0.914-0.658-2.334-0.658l-15.124-0.104c-3.959,0-7.562-1.252-10.809-3.756
			c1.485-3.146,2.265-6.938,2.333-11.369v-21.111c0-0.775-0.355-1.167-1.065-1.167h-5.634
			C375.17,493.97,374.882,494.223,374.882,494.732 M375.492,488.793c0,0.304,0.101,0.524,0.304,0.661
			c1.558,0.979,3.333,1.793,5.329,2.435c0.439-0.064,0.659-0.285,0.659-0.656c0-0.271-0.136-0.543-0.405-0.813
			c-1.286-0.744-2.995-1.421-5.125-2.029C375.813,488.388,375.559,488.523,375.492,488.793"/>
		<path fill="#FFFFFF" d="M377.521,479.304c2.771-5.071,4.277-12.044,4.516-20.909v-5.529c-0.033-1.487-0.168-2.844-0.405-4.063
			c1.589-0.134,3.198-0.219,4.821-0.253c0,0.034-0.02,0.104-0.049,0.203c-0.203,3.113-0.323,8.29-0.357,15.529
			c0,7.917,0.188,12.84,0.562,14.768c0,0.067,0.017,0.152,0.051,0.254H377.521z M387.367,479.304
			c0.033-0.034,0.052-0.085,0.052-0.149c0.372-1.221,0.558-6.176,0.558-14.87c0-6.699-0.235-11.895-0.711-15.58
			c0-0.033-0.018-0.084-0.052-0.152c1.05-0.064,2.132-0.102,3.249-0.102c0.947,0,1.912,0.017,2.896,0.051
			c-0.034,0.068-0.069,0.17-0.104,0.304c-0.203,3.114-0.321,8.29-0.354,15.53c0,7.951,0.185,12.891,0.557,14.819
			c0,0.031,0.017,0.084,0.051,0.149H387.367z M399.345,460.323c0.033,7.885,1.116,14.21,3.248,18.979h-8.271V479.2
			c0.338-1.187,0.507-6.143,0.507-14.87c0-6.699-0.236-11.893-0.709-15.58c0-0.066-0.021-0.134-0.052-0.203
			c2.132,0.104,4.263,0.322,6.395,0.659C399.852,452.254,399.479,455.958,399.345,460.323 M380.262,446.266
			c-0.065,1.489-0.102,3.688-0.102,6.6v5.529c-0.068,8.188-1.218,15.157-3.451,20.909h-1.066c-0.979,0.068-1.472,0.355-1.472,0.863
			c0,0.542,0.357,0.813,1.066,0.813h30.603c0.644,0,0.962-0.271,0.962-0.813c0-0.507-0.389-0.795-1.165-0.863h-2.132
			c-1.557-5.379-2.335-11.737-2.335-19.082c0-5.786,0.188-10.335,0.563-13.649c1.622,2.063,3.551,3.604,5.78,4.619
			c0.271,0,0.406-0.086,0.406-0.257c0-0.204-0.17-0.372-0.508-0.508c-2.91-2.875-5.988-6.851-9.234-11.926h6.293
			c0.709,0,1.064-0.253,1.064-0.762c0-0.476-0.424-0.743-1.271-0.813h-4.971c0.473-0.438,0.896-0.914,1.27-1.421
			c0.305-0.373,0.455-0.676,0.455-0.914c0-0.438-0.255-0.691-0.762-0.762c-0.238,0-0.592,0.22-1.063,0.66
			c-0.78,0.88-1.354,1.689-1.729,2.437h-13.803c-0.069-0.168-0.272-0.458-0.61-0.86l-0.403-0.967
			c-0.306-0.473-0.625-0.74-0.967-0.812c-0.606,0.068-0.913,0.304-0.913,0.71c0,0.203,0.086,0.474,0.257,0.813l0.456,1.116h-5.075
			c-0.914,0.068-1.371,0.338-1.371,0.813c0,0.508,0.321,0.762,0.964,0.762h7.308c-0.71,0.575-1.402,1.303-2.079,2.184
			c-1.051,1.592-2.082,3.146-3.098,4.668c-1.354,2.368-2.876,4.364-4.564,5.988c0,0.338,0.254,0.506,0.76,0.506
			c0.066,0,0.171-0.064,0.307-0.199c1.488-0.813,2.895-2.25,4.211-4.313c1.354-2.267,2.401-3.94,3.146-5.022
			c0.846-1.284,1.827-2.556,2.941-3.809h12.586c0.98,2.875,2.25,5.379,3.809,7.511c-0.169,0.509-0.321,1.066-0.457,1.677
			c-3.418-0.608-6.852-0.914-10.302-0.914c-3.113,0-6.229,0.15-9.339,0.458c-0.103-0.339-0.222-0.66-0.354-0.966
			c-0.135-0.201-0.271-0.306-0.406-0.306C380.329,445.961,380.262,446.063,380.262,446.266"/>
		<path fill="#FFFFFF" d="M374.882,387.092c0,0.474,0.288,0.711,0.863,0.711h4.11c0.438,0,0.658,0.219,0.658,0.659v21.874
			c0,3.755-0.541,6.987-1.623,9.692c-0.98,2.844-2.198,5.278-3.652,7.309c-0.271,0.067-0.405,0.202-0.405,0.405
			c0,0.17,0.102,0.254,0.303,0.254c1.827-1.488,3.316-3.248,4.466-5.278c1.186,1.018,2.605,1.86,4.267,2.537
			c2.097,0.915,4.479,1.371,7.155,1.371l15.121-0.203c1.487-0.067,2.232-0.322,2.232-0.761c-0.135-0.477-0.948-0.711-2.438-0.711
			l-15.021-0.104c-3.854,0-7.393-1.199-10.604-3.604c1.42-3.112,2.162-6.816,2.231-11.114v-22.635c0-0.71-0.392-1.064-1.168-1.064
			h-5.634C375.17,386.433,374.882,386.651,374.882,387.092 M377.574,380.9c0,0.373,0.102,0.626,0.303,0.762
			c1.049,1.116,2.268,2.047,3.656,2.791c0.404-0.067,0.604-0.286,0.604-0.66c0-0.305-0.136-0.591-0.403-0.862
			c-0.879-0.813-2.015-1.624-3.4-2.436C377.893,380.494,377.641,380.63,377.574,380.9 M400.055,394.704
			c-0.438,1.015-2.027,1.523-4.771,1.523c-2.199,0-3.688-0.558-4.466-1.675c-0.17-0.303-0.322-0.896-0.455-1.776
			c1.653-0.236,3.329-0.355,5.021-0.355c1.759,0,3.521,0.136,5.278,0.406C400.529,393.841,400.324,394.467,400.055,394.704
			 M388.586,391.202c0,1.794,0.169,3.063,0.507,3.807c0.507,1.219,1.522,2.082,3.045,2.588c-0.847,0.44-1.456,1.05-1.827,1.829
			c-0.508,1.759-1.302,3.332-2.384,4.719c-1.218,1.084-2.231,1.708-3.048,1.879c-0.236,0-0.354,0.066-0.354,0.202
			c0,0.17,0.149,0.254,0.455,0.254c1.729,0,3.352-0.693,4.87-2.081v5.684c0,4.636-1.063,8.831-3.194,12.586
			c0,0.271,0.084,0.407,0.254,0.407c0.271,0,0.473-0.152,0.604-0.458c2.849-3.179,4.269-7.003,4.269-11.469
			c0-3.282-0.307-5.938-0.914-7.969c0.575-0.947,1.063-2.165,1.472-3.653c0.44-0.677,0.896-1.202,1.37-1.574
			c0.509,0.069,1.065,0.102,1.675,0.102c0.338,0,0.711-0.017,1.117-0.051c0.235,0.88,0.372,2.099,0.405,3.654
			c0.606,4.028,1.252,7.429,1.929,10.202c1.456,5.245,3.772,9.066,6.954,11.47c0.134,0.203,0.285,0.304,0.455,0.304
			c0.135,0,0.203-0.065,0.203-0.202c-2.198-2.741-4.043-6.496-5.53-11.267c-0.646-2.808-1.271-5.666-1.879-8.577
			c0.102,0.069,0.203,0.102,0.305,0.102c2.097-1.083,3.958-2.436,5.582-4.06c0.271-0.169,0.406-0.439,0.406-0.812
			c-0.069-0.337-0.389-0.507-0.966-0.507c-2.129,1.15-3.892,2.368-5.276,3.653c-0.102,0.103-0.203,0.239-0.305,0.407
			c-0.068-0.237-0.119-0.474-0.152-0.711c-0.339-1.623-0.69-2.875-1.063-3.755c2.504-0.271,3.975-1.133,4.415-2.588
			c0.338-0.912,0.508-2.182,0.508-3.807c0-0.743-0.271-1.184-0.813-1.319c-0.438,0.135-0.728,0.492-0.858,1.065
			c-1.765-0.27-3.538-0.405-5.33-0.405c-1.762,0-3.521,0.135-5.278,0.405v-0.304c-0.102-0.744-0.406-1.117-0.914-1.117
			C388.891,389.832,388.652,390.288,388.586,391.202 M388.23,383.184c0,0.542,0.305,0.813,0.911,0.813h5.53
			c0,1.319,0.152,2.148,0.457,2.487c0.034,0.136,0.086,0.288,0.152,0.456h-7.563c-0.915,0.069-1.372,0.338-1.372,0.813
			c0,0.576,0.322,0.862,0.967,0.862H403.2c0.643,0,0.965-0.286,0.965-0.862c0-0.474-0.391-0.744-1.168-0.813h-7.256
			c0.032-0.033,0.064-0.152,0.102-0.354c0.235-0.205,0.371-1.066,0.405-2.588h5.227c0.609,0,0.914-0.271,0.914-0.813
			c0-0.44-0.373-0.677-1.117-0.711H396.2c-0.069-0.676-0.238-1.269-0.508-1.775c-0.104-0.44-0.203-0.66-0.308-0.66
			c-0.168,0-0.305,0.237-0.406,0.71c-0.102,0.373-0.171,0.948-0.2,1.725H389.5C388.652,382.507,388.23,382.744,388.23,383.184"/>
		<path fill="#FFFFFF" d="M401.271,334.312c-0.104,1.929-0.256,3.13-0.457,3.604c-0.403,2.774-1.846,4.161-4.313,4.161
			c-2.335,0-3.926-1.472-4.771-4.415c-0.168-0.576-0.32-1.692-0.454-3.35H401.271z M401.424,330.151
			c-0.032,0.914-0.063,1.775-0.101,2.588h-10.148c0-0.745-0.019-1.607-0.052-2.588H401.424z M387.164,329.338
			c0,0.542,0.354,0.813,1.066,0.813h1.268c0.035,3.248,0.221,5.549,0.561,6.901c0.775,3.926,2.725,6.108,5.836,6.547
			c-0.033,0.102-0.067,0.203-0.103,0.306c0,0.304-0.018,0.643-0.051,1.014h-7.714c-0.947,0.068-1.422,0.355-1.422,0.863
			c0,0.507,0.318,0.762,0.965,0.762h8.066c0,0.44-0.018,0.931-0.051,1.472c-0.237,0.067-0.508,0.186-0.813,0.354
			c-1.624,0.813-2.911,2.167-3.856,4.06c-0.881,1.591-1.676,3.993-2.387,7.207c-0.271,2.911-0.658,5.278-1.166,7.104
			c-0.813,3.079-1.929,5.465-3.353,7.157c0,0.271,0.084,0.406,0.256,0.406c0.476,0,0.763-0.17,0.861-0.506
			c1.42-1.117,2.672-2.979,3.756-5.584c0.849-1.827,1.453-4.685,1.826-8.577c0.307-3.045,0.947-5.532,1.93-7.46
			c0.776-1.624,1.76-2.808,2.942-3.553c-0.067,2.708-0.136,6.209-0.203,10.505c0,7.748,0.203,12.552,0.609,14.413
			c0.136,0.711,0.271,1.098,0.405,1.167c0.233,0,0.424-0.339,0.559-1.015c0.338-1.184,0.507-6.039,0.507-14.565
			c0-3.925-0.085-7.358-0.253-10.302c1.082,0.745,2.013,1.862,2.791,3.35c0.98,1.826,1.643,4.211,1.979,7.155
			c0.37,3.958,0.932,6.868,1.676,8.729c1.015,2.639,2.146,4.518,3.396,5.633c0.104,0.373,0.406,0.559,0.914,0.559
			c0.203,0,0.307-0.152,0.307-0.456c-1.319-1.693-2.334-4.112-3.045-7.258c-0.439-1.861-0.797-4.263-1.063-7.207
			c-0.712-3.078-1.525-5.396-2.437-6.953c-0.948-1.826-2.254-3.129-3.909-3.908c-0.202-0.102-0.423-0.203-0.659-0.304
			c0-0.542-0.033-1.083-0.104-1.624h8.479c0.641,0,0.964-0.255,0.964-0.762c0-0.507-0.391-0.795-1.167-0.863h-8.425
			c-0.068-0.372-0.119-0.744-0.15-1.117c0-0.034-0.02-0.067-0.053-0.102c3.451-0.169,5.431-2.249,5.937-6.242
			c0.343-1.793,0.524-4.229,0.563-7.308h1.979c0.646,0,0.964-0.271,0.964-0.813c0-0.439-0.402-0.692-1.218-0.761h-1.772
			c-0.034-0.542-0.31-0.879-0.813-1.015c-0.438,0.135-0.709,0.473-0.813,1.015h-10.504c-0.067-0.677-0.322-1.015-0.763-1.015
			c-0.375,0-0.608,0.337-0.713,1.015h-0.912C387.654,328.646,387.164,328.899,387.164,329.338 M380.77,344.767
			c0.98,0,1.979,0.068,2.996,0.203v14.718c0,8.627-1.016,12.942-3.048,12.942c-1.757,0-2.639-4.229-2.639-12.688v-15.073
			C378.993,344.8,379.89,344.767,380.77,344.767 M377.927,343.244c-0.102-0.845-0.287-1.268-0.558-1.268
			c-0.677,0-1.018,0.897-1.018,2.689v15.378c0,9.506,1.488,14.261,4.47,14.261c3.109,0,4.668-4.839,4.668-14.515v-14.413
			c-0.033-2.199-0.354-3.299-0.964-3.299c-0.308,0-0.525,0.44-0.66,1.319c-0.948-0.168-1.944-0.253-2.994-0.253
			C379.923,343.143,378.942,343.177,377.927,343.244 M376.913,338.779c0,0.542,0.322,0.811,0.964,0.811h5.837
			c0.609,0,0.914-0.27,0.914-0.811c0-0.439-0.354-0.693-1.065-0.762h-5.275C377.37,338.085,376.913,338.339,376.913,338.779
			 M377.27,334.77c0,0.507,0.306,0.76,0.913,0.76h5.583c0.608,0,0.914-0.253,0.914-0.76c0-0.474-0.354-0.745-1.064-0.813h-5.075
			C377.689,334.025,377.27,334.296,377.27,334.77 M380.11,328.881v0.965h-3.197c-0.914,0.069-1.372,0.355-1.372,0.862
			c0,0.508,0.322,0.762,0.966,0.762h9.338c0.646,0,0.964-0.254,0.964-0.762c0-0.507-0.39-0.793-1.167-0.862h-3.448v-0.965
			c-0.104-1.047-0.457-1.572-1.064-1.572C380.448,327.411,380.11,327.936,380.11,328.881"/>
		<g>
			<rect x="375.808" y="295.788" fill="#FFFFFF" width="31.439" height="1.5"/>
		</g>
		<g>
			<g>
				<path fill="#FFFFFF" d="M332.998,479.29h5.514v2.281h-5.514V479.29z M332.998,482.484h5.514v0.897h0.963v-5.006h-7.427v5.006
					h0.95V482.484L332.998,482.484z M330.349,476.755v0.912h10.773v-0.912h-4.803v-1.927h3.6v-0.913h-3.6v-1.926h-0.951v1.926
					h-2.181c0.074-0.241,0.254-0.685,0.365-1.179l-0.938-0.229c-0.317,1.292-0.813,2.421-1.952,3.295l0.798,0.646
					c0.647-0.494,1.027-1.077,1.331-1.623h2.574v1.927h-5.021v0.003H330.349z"/>
				<path fill="#FFFFFF" d="M332.364,463.688l-2.243,0.724l0.469,0.976l1.774-0.646v2.9c0,0.218-0.054,0.382-0.24,0.355
					c-0.431-0.025-0.761-0.089-1.407-0.203l0.317,0.988c0.595,0.102,1.432,0.304,1.888,0.022c0.418-0.254,0.457-0.558,0.457-1.024
					v-3.396l1.634-0.583v-0.963l-1.634,0.57v-2.318h1.723v-0.938h-1.723v-2.332h-1.015v2.332H330.4v0.938h1.964V463.688
					L332.364,463.688z M339.475,463.129c-0.023,0.722-0.343,1.876-0.646,2.472c-0.305-0.646-0.608-1.658-0.709-2.481
					L339.475,463.129z M336.648,463.129h0.53c0.179,1.204,0.532,2.357,1.077,3.384c-0.418,0.735-1.025,1.271-1.607,1.638V463.129z
					 M341.491,468.275c-0.71-0.444-1.64-1.065-2.13-1.774c0.66-1.268,1.078-2.649,1.112-4.31h-3.825V459.2h2.687
					c-0.013,0.33-0.062,0.696-0.177,1.078c-0.104,0.313-0.189,0.431-0.469,0.431c-0.418,0-0.736-0.038-1.357-0.189l0.242,0.978
					c0.583,0.152,1.052,0.178,1.545,0.114c0.343-0.054,0.673-0.329,0.812-0.637c0.279-0.596,0.406-1.686,0.443-2.697h-4.741v10.812
					h1.018l0.012-0.558l0.507,0.52c0.709-0.558,1.305-1.052,1.673-1.661c0.379,0.472,1.153,1.166,1.979,1.623L341.491,468.275z"/>
				<path fill="#FFFFFF" d="M332.225,445.625h8.986l-0.012-0.9h-4.197c-0.215-0.354-0.874-0.985-1.255-1.366l-0.938,0.52
					c0.646,0.405,0.862,0.608,1.026,0.849h-4.613v4.665c0,0.773-0.039,1.546-0.111,2.294c-0.104,0.9-0.457,1.661-1.027,2.497
					l0.812,0.637c1.219-1.534,1.317-3.552,1.317-5.285L332.225,445.625z M338.55,451.023c-0.559,0.584-1.28,1.024-2.054,1.443
					c-0.647-0.419-1.014-0.748-1.647-1.458L338.55,451.023z M339.741,450.137l-7.022-0.022v0.897h0.964
					c0.494,0.748,1.203,1.474,1.824,1.915c-1.063,0.38-2.332,0.761-3.891,0.89c0.292,0.365,0.457,0.606,0.671,0.887
					c1.091-0.126,2.13-0.367,3.055-0.725c0.405-0.149,0.786-0.327,1.154-0.479c1.343,0.659,2.902,0.951,4.521,1.178
					c0.166-0.291,0.369-0.506,0.521-0.896c-1.014-0.076-1.863-0.218-2.712-0.418c-0.506-0.114-1.017-0.269-1.318-0.406
					c0.507-0.291,1.765-1.241,2.206-1.99L339.741,450.137z M335.114,447.754h2.774l-0.013,0.836l-2.738,0.014L335.114,447.754z
					 M338.879,447.754h2.066v-0.9h-2.066v-0.986h-0.989v0.986h-2.79v-0.976h-1v0.976l-1.687,0.015v0.875h1.699l-0.015,1.735h4.778
					L338.879,447.754L338.879,447.754z"/>
				<path fill="#FFFFFF" d="M335.748,433.798l-0.012,2.054h-2.386v-2.054H335.748z M332.936,428.906
					c-0.47,1.8-1.189,3.181-2.346,4.208l0.798,0.646c0.862-0.798,1.347-1.711,1.75-2.535h2.61v1.622l-3.371,0.016v2.989
					l-1.572-0.014v0.951h4.942v3.638h1.003v-3.647l4.372,0.013v-0.938h-4.372V433.8h3.23v-0.938h-3.23l-0.013-1.623l3.862-0.025
					v-0.925h-7.098c0.064-0.215,0.19-0.544,0.24-0.988L332.936,428.906z"/>
				<path fill="#FFFFFF" d="M335.748,419.475l-0.012,2.054h-2.386v-2.054H335.748z M332.936,414.583
					c-0.47,1.799-1.189,3.181-2.346,4.208l0.798,0.646c0.862-0.798,1.347-1.71,1.75-2.535h2.61v1.623l-3.371,0.012v2.992
					l-1.572-0.016v0.951h4.942v3.641h1.003v-3.651l4.372,0.013v-0.938h-4.372v-2.054h3.23v-0.938h-3.23l-0.013-1.622l3.862-0.025
					v-0.925h-7.098c0.064-0.215,0.19-0.545,0.24-0.989L332.936,414.583z"/>
				<path fill="#FFFFFF" d="M331.35,410.919c1.826-1.292,2.902-3.003,3.739-4.804l-0.874-0.469
					c-0.646,1.648-2.015,3.486-3.587,4.513L331.35,410.919z M341.364,410.337c-0.748-1.876-2.104-3.422-3.854-4.83l-0.748,0.595
					c1.369,1.205,2.979,2.903,3.701,4.729L341.364,410.337z M331.034,403.72v0.963h9.848l-0.012-0.976L331.034,403.72z
					 M336.901,403.01c-0.308-1.077-1.181-1.914-1.914-2.459l-0.889,0.533c0.748,0.558,1.548,1.433,1.852,2.358L336.901,403.01z"/>
			</g>
			<polygon fill="#FFFFFF" points="331.034,391.032 331.034,392.097 340.857,392.084 340.857,391.032 			"/>
			<g>
				<path fill="#FFFFFF" d="M334.532,376.114h-2.573v0.785h2.573V376.114z M337.092,378.61c-0.52-0.393-1.141-0.646-1.686-0.773
					l-0.658,0.571c0.595,0.151,1.203,0.456,1.672,0.861L337.092,378.61z M333.125,381.437c1.749,0.342,3.219,0.888,4.638,1.876
					l0.571-0.811c-0.532-0.393-1.153-0.672-1.445-0.837c0.688-0.292,1.563-0.824,2.347-1.496v-0.798h-6.958v0.888l5.349,0.025
					c-0.658,0.354-1.103,0.608-1.914,0.887c-0.622-0.19-1.243-0.38-2.003-0.52L333.125,381.437z M334.506,374.922h-2.408v0.798
					h2.408V374.922z M339.678,376.114h-2.675v0.785h2.675V376.114z M339.525,374.935h-2.523v0.786h2.523V374.935z M331.362,372.362
					v0.887h3.967v0.494h-4.575v2.333h0.951v-1.444h3.624v1.698c-0.938,1.166-2.876,1.851-5.285,2.484l0.507,0.9
					c1.965-0.469,3.867-1.318,5.226-2.446c1.749,1.458,3.599,2.143,5.387,2.319l0.52-0.887c-2.13-0.266-3.967-0.9-5.312-2.079
					l0.215-0.228l-0.279-0.215v-1.546h3.613V376h0.977v-2.256h-4.59v-0.494h3.943v-0.887L331.362,372.362L331.362,372.362z"/>
			</g>
			<path fill="#FFFFFF" d="M341.11,366.645v-1.001l-10.346-0.013v1.027L341.11,366.645z M340.273,359.636l-8.646-0.013v1.015h8.646
				V359.636z"/>
		</g>
		<g>
			<rect x="375.814" y="295.75" fill="#FFFFFF" width="31.438" height="1.5"/>
		</g>
		<polygon fill="#FFFFFF" points="335.021,38.554 335.021,351.731 327.302,351.731 327.302,353.731 344.764,353.731 
			344.764,351.731 337.021,351.731 337.021,40.554 440.286,40.554 440.286,553.383 337.021,553.383 337.021,541.45 344.77,541.45 
			344.77,539.45 327.308,539.45 327.308,541.45 335.021,541.45 335.021,555.383 442.286,555.383 442.286,38.554 		"/>
		<g>
			<g>
				<path fill="#FFFFFF" d="M333.003,479.252h5.514v2.281h-5.514V479.252z M333.003,482.446h5.514v0.896h0.967v-5.006h-7.431v5.006
					h0.95V482.446L333.003,482.446z M330.354,476.717v0.912h10.773v-0.912h-4.803v-1.927h3.6v-0.913h-3.6v-1.926h-0.951v1.926
					h-2.181c0.073-0.241,0.254-0.685,0.364-1.179l-0.938-0.229c-0.317,1.292-0.813,2.421-1.952,3.295l0.798,0.646
					c0.647-0.494,1.027-1.077,1.331-1.623h2.574v1.927h-5.021v0.003H330.354L330.354,476.717z"/>
				<path fill="#FFFFFF" d="M332.37,463.648l-2.243,0.723l0.469,0.976l1.774-0.646v2.899c0,0.219-0.051,0.384-0.24,0.355
					c-0.431-0.025-0.761-0.089-1.407-0.203l0.317,0.988c0.595,0.102,1.432,0.304,1.888,0.021c0.418-0.254,0.457-0.558,0.457-1.023
					v-3.396l1.634-0.583v-0.96l-1.634,0.57v-2.318h1.727v-0.938h-1.727v-2.332h-1.015v2.332h-1.964v0.938h1.964V463.648
					L332.37,463.648z M339.48,463.092c-0.026,0.726-0.347,1.876-0.646,2.476c-0.305-0.646-0.607-1.661-0.709-2.484L339.48,463.092z
					 M336.655,463.092h0.532c0.177,1.204,0.528,2.357,1.073,3.385c-0.418,0.734-1.023,1.271-1.605,1.638V463.092L336.655,463.092z
					 M341.497,468.238c-0.71-0.444-1.637-1.065-2.13-1.774c0.66-1.268,1.078-2.646,1.115-4.31h-3.827v-2.991h2.686
					c-0.013,0.33-0.062,0.697-0.177,1.078c-0.102,0.313-0.189,0.431-0.469,0.431c-0.418,0-0.736-0.038-1.357-0.188l0.242,0.976
					c0.583,0.152,1.052,0.178,1.545,0.114c0.343-0.051,0.673-0.329,0.813-0.634c0.276-0.6,0.403-1.688,0.44-2.7h-4.741v10.812h1.019
					l0.012-0.558l0.507,0.52c0.709-0.558,1.309-1.052,1.673-1.66c0.38,0.472,1.153,1.166,1.979,1.623L341.497,468.238z"/>
				<path fill="#FFFFFF" d="M332.23,445.587h8.983l-0.012-0.897h-4.197c-0.215-0.354-0.874-0.987-1.255-1.368l-0.938,0.52
					c0.646,0.405,0.859,0.608,1.023,0.853h-4.613v4.664c0,0.771-0.037,1.547-0.11,2.295c-0.104,0.896-0.457,1.658-1.027,2.496
					l0.813,0.635c1.217-1.534,1.314-3.549,1.314-5.285L332.23,445.587z M338.556,450.987c-0.559,0.583-1.276,1.022-2.054,1.441
					c-0.646-0.419-1.014-0.748-1.646-1.458L338.556,450.987z M339.747,450.099l-7.022-0.021v0.896h0.968
					c0.49,0.748,1.2,1.475,1.82,1.915c-1.063,0.381-2.332,0.764-3.891,0.891c0.292,0.365,0.457,0.605,0.671,0.887
					c1.091-0.126,2.13-0.367,3.055-0.723c0.405-0.151,0.786-0.329,1.154-0.481c1.343,0.659,2.903,0.951,4.524,1.178
					c0.166-0.29,0.365-0.506,0.521-0.896c-1.014-0.076-1.863-0.215-2.712-0.418c-0.506-0.114-1.014-0.27-1.318-0.406
					c0.511-0.291,1.767-1.241,2.206-1.99L339.747,450.099z M335.12,447.717h2.776l-0.016,0.836l-2.734,0.017L335.12,447.717z
					 M338.885,447.717h2.066v-0.896h-2.066v-0.989h-0.985v0.989h-2.79v-0.979h-1v0.979l-1.688,0.012v0.875h1.699l-0.012,1.737h4.774
					L338.885,447.717L338.885,447.717z"/>
				<path fill="#FFFFFF" d="M335.753,433.761l-0.012,2.057h-2.383v-2.057H335.753z M332.941,428.869
					c-0.474,1.8-1.192,3.181-2.35,4.208l0.798,0.646c0.862-0.798,1.348-1.711,1.75-2.535h2.61v1.623l-3.371,0.016v2.991
					l-1.572-0.017v0.951h4.942v3.638h1.003v-3.646l4.372,0.013v-0.938h-4.372v-2.057h3.23v-0.938h-3.23l-0.013-1.623l3.864-0.025
					v-0.925h-7.101c0.063-0.215,0.19-0.544,0.24-0.988L332.941,428.869z"/>
				<path fill="#FFFFFF" d="M335.753,419.438l-0.012,2.054h-2.383v-2.054H335.753z M332.941,414.546
					c-0.474,1.799-1.192,3.181-2.35,4.208l0.798,0.646c0.862-0.798,1.348-1.71,1.75-2.535h2.61v1.623l-3.371,0.012v2.992
					l-1.572-0.017v0.951h4.942v3.642h1.003v-3.651l4.372,0.013v-0.938h-4.372v-2.054h3.23V418.5h-3.23l-0.013-1.622l3.864-0.025
					v-0.925h-7.101c0.063-0.215,0.19-0.545,0.24-0.989L332.941,414.546z"/>
				<path fill="#FFFFFF" d="M331.355,410.882c1.823-1.292,2.899-3.003,3.736-4.804l-0.874-0.469
					c-0.646,1.648-2.015,3.486-3.587,4.513L331.355,410.882z M341.37,410.299c-0.748-1.876-2.104-3.422-3.854-4.83l-0.748,0.595
					c1.369,1.205,2.979,2.903,3.701,4.729L341.37,410.299z M331.04,403.683v0.963h9.848l-0.012-0.976L331.04,403.683z
					 M336.907,402.973c-0.309-1.077-1.179-1.914-1.914-2.459l-0.886,0.533c0.748,0.558,1.545,1.433,1.849,2.358L336.907,402.973z"/>
			</g>
		</g>
		<g>
			<polygon fill="#FFFFFF" points="331.04,390.995 331.04,392.059 340.863,392.047 340.863,390.995 			"/>
		</g>
		<g>
			<g>
				<path fill="#FFFFFF" d="M334.538,376.076h-2.573v0.785h2.573V376.076z M337.098,378.572c-0.52-0.394-1.141-0.646-1.686-0.773
					l-0.658,0.571c0.595,0.151,1.203,0.456,1.672,0.861L337.098,378.572z M333.131,381.399c1.749,0.342,3.219,0.888,4.639,1.876
					l0.57-0.811c-0.532-0.393-1.149-0.672-1.445-0.837c0.688-0.292,1.563-0.824,2.348-1.496v-0.798h-6.958v0.888l5.349,0.025
					c-0.658,0.354-1.103,0.608-1.914,0.887c-0.622-0.19-1.243-0.38-2.003-0.52L333.131,381.399z M334.512,374.884h-2.408v0.798
					h2.408V374.884z M339.684,376.076h-2.675v0.785h2.675V376.076z M339.531,374.897h-2.523v0.786h2.523V374.897z M331.368,372.324
					v0.887h3.967v0.494h-4.575v2.333h0.951v-1.444h3.624v1.698c-0.937,1.166-2.876,1.851-5.285,2.484l0.507,0.9
					c1.965-0.469,3.867-1.318,5.227-2.446c1.749,1.458,3.599,2.143,5.387,2.319l0.521-0.887c-2.132-0.266-3.969-0.9-5.313-2.079
					l0.215-0.228l-0.278-0.215v-1.546h3.612v1.368h0.979v-2.256h-4.592v-0.494h3.942v-0.887L331.368,372.324L331.368,372.324z"/>
			</g>
		</g>
		<g>
			<path fill="#FFFFFF" d="M341.116,366.607v-1.001l-10.343-0.013v1.027L341.116,366.607z M340.279,359.598l-8.646-0.013v1.015
				h8.646V359.598z"/>
		</g>
	</g>
</g>
</svg>
