<?xml version="1.0" encoding="utf-8"?>
<!-- Generator: Adobe Illustrator 16.0.0, SVG Export Plug-In . SVG Version: 6.00 Build 0)  -->
<!DOCTYPE svg PUBLIC "-//W3C//DTD SVG 1.1//EN" "http://www.w3.org/Graphics/SVG/1.1/DTD/svg11.dtd">
<svg version="1.1" id="Layer_1" xmlns="http://www.w3.org/2000/svg" xmlns:xlink="http://www.w3.org/1999/xlink" x="0px" y="0px"
	 width="768px" height="1024px" viewBox="0 0 768 1024" enable-background="new 0 0 768 1024" xml:space="preserve">
<g>
	<rect x="436.724" y="820.985" fill="#B62026" width="2.083" height="25.552"/>
	<g>
		<path fill="#FFFFFF" d="M396.808,827.032h-6.878v-2.189h6.878V827.032z M389.93,829.746h6.878v2.226h-6.878V829.746z
			 M399.129,835.634c-0.017,0.018-1.532,1.205-3.646,2.477c-0.844-1.173-1.079-2.43-1.284-2.935h5.768v-13.534H386.53v23.187
			l0.041,0.028c0.01,0.004,0.77,0.623,1.666,1.597l0.036,0.041l0.059-0.009c1.637-0.399,4.074-0.604,4.632-0.61l-0.003-3.1
			c-1.04,0.003-2.612,0.212-3.028,0.272v-7.872h0.808c0.445,2.979,4.465,9.442,8.186,11.424l2.559-2.553
			c-2.177-1.373-3.627-3.026-3.829-3.283c1.947-1.307,3.386-2.313,3.4-2.332l0.067-0.063l-1.899-2.813L399.129,835.634z"/>
		<path fill="#FFFFFF" d="M381.073,820.98h-3.405c0,0-0.207,4.344-2.713,8.984l1.922,2.713h1.582v2.197h-3.118v3.395h3.118v6.646
			l1.576,1.612l0.054-0.012c0.729-0.164,3.136-0.521,5.204-0.601v-2.935c-1.616,0-3.13,0.152-3.438,0.198v-4.916h3.486v-3.389
			h-3.486v-2.197h3.031v-3.396h-5.813c0.294-0.678,0.54-1.339,0.755-1.979h5.555v-3.396h-4.677
			C381.031,822.198,381.073,820.98,381.073,820.98"/>
		<path fill="#FFFFFF" d="M334.579,820.989h-3.999c0,0,0.504,1.519,0.717,2.973H320.88v11.253c-0.049,2.347-0.479,5.914-3.357,9.134
			l2.806,2.226c4.314-4.967,4.208-10.701,4.208-13.029c0-2.827-0.042-6.185-0.042-6.185h18.936v-3.396h-8.14
			C335.022,822.285,334.579,820.989,334.579,820.989"/>
		<path fill="#FFFFFF" d="M357.467,834.335h6.561c-0.533,1.096-2.485,3.348-3.418,4.063
			C359.676,837.518,358.08,835.47,357.467,834.335 M363.366,840.519c2.188-2.048,4.11-4.888,5.006-7.396l-2.026-2.177h-10.22
			c0.205-0.539,0.643-1.518,0.82-2.03h14.191v-3.396h-2.509c-0.553-2.313-0.471-2.067-1.308-4.537h-3.737
			c0,0,1.027,2.801,1.398,4.537h-7.068c0.537-2.387,0.563-4.54,0.563-4.54h-3.439c0,0-0.006,2.185-0.616,4.54h-3.32
			c0.722-2.693,0.704-4.537,0.704-4.537h-3.396c0,0-0.01,2.247-1.21,5.68l-0.021,0.053l1.697,2.202h4.523
			c-1.063,2.866-3.178,7.484-8.021,12.214l2.354,2.41c3.099-3.044,5.019-5.729,6.429-8.226c0.525,1.077,1.374,2.526,2.678,4.045
			c0.298,0.351,0.605,0.688,0.914,1.011c-2.492,1.521-5.144,2.291-8.113,2.843l1.411,3.333c3.909-0.725,7.198-2.189,9.479-3.751
			c2.645,1.921,5.942,3.063,9.666,3.739l1.229-3.352C368.454,842.721,365.598,841.896,363.366,840.519"/>
		<path fill="#FFFFFF" d="M406.484,831.023c3.002-1.447,6.361-6.729,6.476-10.03h-3.399c-0.206,2.921-3.288,6.26-4.7,7.055
			L406.484,831.023z"/>
		<path fill="#FFFFFF" d="M411.288,827.482c-0.645,3.499-4.69,7.585-7.015,8.643l1.43,3.085c1.124-0.522,2.188-1.501,3.031-2.112
			v9.441h3.396v-12.854c1.157-1.646,2.249-3.693,2.553-6.197L411.288,827.482L411.288,827.482z"/>
	</g>
	<rect x="416.262" y="821.83" fill="#FFFFFF" width="13.169" height="3.519"/>
	<g>
		<path fill="#FFFFFF" d="M430.247,829.563h-14.911v3.401h8.771v10.05c0,0-3.103-0.313-5.642-0.196v3.219
			c3.199-0.026,9.157,0.503,9.157,0.503v-13.574h2.625V829.563z"/>
		<path fill="#FFFFFF" d="M456.508,846.512c-3.478,0-6.596-1.227-8.779-3.449c-2.238-2.301-3.424-5.498-3.418-9.257
			c-0.006-3.761,1.186-6.979,3.438-9.306c2.188-2.267,5.302-3.511,8.753-3.511c3.094,0.002,5.828,0.852,7.915,2.151l-1.235,3.541
			c-2.271-1.48-3.977-2.175-6.656-2.183c-2.479,0.002-4.563,0.843-6.023,2.425c-1.502,1.619-2.298,3.945-2.298,6.729
			c0,2.794,0.802,5.149,2.313,6.822c1.504,1.646,3.604,2.517,6.074,2.519c2.646,0,4.923-0.996,6.957-2.575l0.648,3.954
			c-2.182,1.356-4.843,2.138-7.675,2.138L456.508,846.512L456.508,846.512z"/>
		<path fill="#FFFFFF" d="M479.004,846.512c-3.473,0-6.591-1.227-8.771-3.449c-2.241-2.294-3.428-5.493-3.428-9.257
			c0-3.762,1.188-6.979,3.438-9.306c2.188-2.267,5.298-3.511,8.752-3.511c3.268,0.002,6.229,0.928,8.306,2.229l-1.286,3.572
			c-2.165-1.396-4.494-2.292-6.992-2.292c-2.479,0.002-4.563,0.843-6.025,2.425c-1.504,1.619-2.296,3.946-2.296,6.729
			c0,2.8,0.804,5.155,2.323,6.823c1.496,1.646,3.595,2.517,6.069,2.519c2.026,0,3.787-0.612,4.854-1.104v-5.116h-6.649v-3.628
			h10.398v10.94c-2.792,1.711-6.392,2.417-8.681,2.421L479.004,846.512L479.004,846.512z"/>
		<path fill="#FFFFFF" d="M496.813,831.959h4.166c1.634,0,2.936-0.352,3.805-1.003c0.825-0.629,1.236-1.477,1.253-2.579
			c-0.017-1.08-0.382-1.88-1.117-2.45c-0.771-0.593-1.963-0.904-3.438-0.904h-4.668V831.959L496.813,831.959z M496.813,842.523
			h4.938c1.695,0,3.028-0.309,3.856-0.894c0.813-0.593,1.185-1.387,1.196-2.578c-0.016-1.234-0.478-2.054-1.499-2.659
			c-0.926-0.534-2.313-0.813-4.021-0.813h-4.474v6.94L496.813,842.523L496.813,842.523z M492.882,846.183v-24.82h8.328
			c2.879,0,5.104,0.625,6.61,1.859c1.405,1.149,2.146,2.837,2.144,4.881c0.021,2.2-1.143,4.022-3.26,5.125l-0.236,0.122l0.247,0.102
			c2.572,1.004,4.039,3.027,4.024,5.563c0.004,2.198-0.779,4-2.27,5.212c-1.594,1.302-3.959,1.96-7.03,1.96L492.882,846.183
			L492.882,846.183z"/>
		<path fill="#B62026" d="M279.896,828.804c-0.904-1.839-1.755-3.706-2.559-5.601c-1.488-3.522-2.784-7.104-3.883-10.729
			c-4.039,11.629-10.28,22.314-18.194,31.433c5.7-1.328,11.506-2.192,17.397-2.578C275.349,837.323,277.761,833.146,279.896,828.804
			"/>
		<path fill="#70161A" d="M279.896,841.088c-2.424,0-4.838,0.08-7.238,0.236c-3.253,4.85-6.912,9.434-10.951,13.729
			c5.885-1.134,11.981-1.681,18.189-1.681c6.206,0,12.307,0.547,18.187,1.681c-4.037-4.297-7.693-8.881-10.952-13.729
			C284.729,841.168,282.323,841.088,279.896,841.088"/>
		<path fill="#E32431" d="M255.26,843.903l6.447,11.15c4.039-4.3,7.697-8.881,10.951-13.729
			C266.768,841.71,260.958,842.576,255.26,843.903"/>
		<path fill="#FFFFFF" d="M272.658,841.326c2.69-4.001,5.103-8.182,7.238-12.522c2.135,4.345,4.548,8.521,7.235,12.522
			c-2.399-0.158-4.809-0.236-7.235-0.236S275.058,841.168,272.658,841.326"/>
		<path fill="#E32431" d="M286.336,812.476L286.336,812.476c-1.099,3.627-2.393,7.205-3.884,10.729
			c-0.8,1.895-1.655,3.762-2.558,5.598c2.135,4.347,4.548,8.524,7.235,12.523c5.896,0.386,11.701,1.252,17.402,2.58
			C296.618,834.79,290.375,824.104,286.336,812.476"/>
		<path fill="#70161A" d="M279.896,828.804c0.903-1.839,1.758-3.706,2.558-5.601c1.491-3.522,2.785-7.104,3.881-10.729h-12.881
			c1.099,3.626,2.395,7.205,3.883,10.729C278.142,825.098,278.992,826.965,279.896,828.804"/>
		<path fill="#B62026" d="M298.083,855.055l6.448-11.146c-5.699-1.328-11.504-2.192-17.399-2.58
			C290.391,846.174,294.045,850.758,298.083,855.055"/>
	</g>
</g>
</svg>
