<?xml version="1.0" encoding="utf-8"?>
<!-- Generator: Adobe Illustrator 16.0.0, SVG Export Plug-In . SVG Version: 6.00 Build 0)  -->
<!DOCTYPE svg PUBLIC "-//W3C//DTD SVG 1.1//EN" "http://www.w3.org/Graphics/SVG/1.1/DTD/svg11.dtd">
<svg version="1.1" id="Layer_1" xmlns="http://www.w3.org/2000/svg" xmlns:xlink="http://www.w3.org/1999/xlink" x="0px" y="0px"
	 width="768px" height="1024px" viewBox="0 0 768 1024" enable-background="new 0 0 768 1024" xml:space="preserve">
<g>
	<path fill="#3490C1" d="M213.647,880.34h11.739c4.33,0,7.172,1.963,7.172,5.988c0,2.437-1.252,4.195-3.451,5.143v0.066
		c2.943,0.644,4.533,2.943,4.533,6.225c0,3.789-2.639,6.732-8.897,6.732h-11.096V880.34z M217.876,890.455h6.901
		c2.03,0,3.552-1.184,3.552-3.349c0-2.438-1.251-3.315-3.552-3.315h-6.901V890.455z M217.876,901.043h7.476
		c2.571,0,4.059-1.387,4.059-3.821c0-2.367-1.488-3.722-4.059-3.722h-7.476V901.043z"/>
	<path fill="#3490C1" d="M239.937,896.747c0,2.74,1.488,5.176,4.702,5.176c2.233,0,3.586-0.979,4.262-2.909h3.654
		c-0.846,3.822-4.093,5.953-7.916,5.953c-5.48,0-8.56-3.822-8.56-9.201c0-4.974,3.248-9.234,8.457-9.234
		c5.514,0,8.897,4.973,8.254,10.216H239.937L239.937,896.747z M248.936,894.21c-0.135-2.436-1.793-4.634-4.398-4.634
		c-2.672,0-4.499,2.03-4.601,4.634H248.936z"/>
	<path fill="#3490C1" d="M265.685,880.34h11.739c4.33,0,7.172,1.963,7.172,5.988c0,2.437-1.252,4.195-3.451,5.143v0.066
		c2.943,0.644,4.533,2.943,4.533,6.225c0,3.789-2.639,6.732-8.897,6.732h-11.096V880.34z M269.914,890.455h6.901
		c2.03,0,3.552-1.184,3.552-3.349c0-2.438-1.251-3.315-3.552-3.315h-6.901V890.455z M269.914,901.043h7.476
		c2.571,0,4.059-1.387,4.059-3.821c0-2.367-1.488-3.722-4.059-3.722h-7.476V901.043z"/>
	<path fill="#3490C1" d="M303.61,900.604c0,0.946,0.202,1.319,0.913,1.319c0.236,0,0.542,0,0.946-0.067v2.672
		c-0.575,0.203-1.793,0.438-2.437,0.438c-1.557,0-2.672-0.541-2.978-2.131c-1.521,1.489-3.992,2.131-6.055,2.131
		c-3.146,0-5.988-1.689-5.988-5.106c0-4.364,3.484-5.074,6.731-5.446c2.773-0.507,5.244-0.203,5.244-2.469
		c0-1.996-2.064-2.368-3.62-2.368c-2.165,0-3.687,0.879-3.855,2.773h-3.856c0.271-4.499,4.093-5.817,7.95-5.817
		c3.417,0,7.003,1.387,7.003,5.074V900.604L303.61,900.604z M299.754,895.732c-1.184,0.776-3.045,0.743-4.736,1.049
		c-1.658,0.271-3.146,0.879-3.146,2.909c0,1.725,2.199,2.232,3.552,2.232c1.691,0,4.33-0.881,4.33-3.314V895.732z"/>
	<path fill="#3490C1" d="M307.774,887.005h3.652v2.571l0.067,0.067c1.149-1.93,3.146-3.111,5.446-3.111
		c3.788,0,6.19,2.03,6.19,5.954v12.009h-3.856v-10.994c-0.067-2.739-1.149-3.924-3.417-3.924c-2.571,0-4.229,2.03-4.229,4.602
		v10.317h-3.854L307.774,887.005L307.774,887.005z"/>
	<path fill="#3490C1" d="M327.296,880.34h3.856v13.734l6.969-7.07h4.736l-6.698,6.428l7.341,11.063h-4.702l-5.345-8.491l-2.3,2.233
		v6.258h-3.855V880.34H327.296z"/>
	<path fill="#3490C1" d="M348.246,883.243h2.014v3.985h3.965v2.013h-3.965v3.984h-2.014v-3.984h-3.965v-2.013h3.965V883.243z"/>
	<path fill="#3490C1" d="M370.798,897.019l-0.98-1.252c1.59-0.71,2.029-1.995,2.029-3.35h-1.827v-3.721h3.722v3.552
		C373.74,893.398,373.335,895.834,370.798,897.019z"/>
	<path fill="#3490C1" d="M391.575,880.34h11.738c4.329,0,7.172,1.963,7.172,5.988c0,2.437-1.252,4.195-3.451,5.143v0.066
		c2.942,0.644,4.533,2.943,4.533,6.225c0,3.789-2.64,6.732-8.896,6.732h-11.096V880.34z M395.804,890.455h6.899
		c2.03,0,3.554-1.184,3.554-3.349c0-2.438-1.252-3.315-3.554-3.315h-6.899V890.455z M395.804,901.043h7.477
		c2.57,0,4.06-1.387,4.06-3.821c0-2.367-1.487-3.722-4.06-3.722h-7.477V901.043z"/>
	<path fill="#3490C1" d="M417.863,896.747c0,2.74,1.488,5.176,4.702,5.176c2.231,0,3.586-0.979,4.263-2.909h3.653
		c-0.847,3.822-4.094,5.953-7.916,5.953c-5.479,0-8.56-3.822-8.56-9.201c0-4.974,3.248-9.234,8.458-9.234
		c5.515,0,8.896,4.973,8.254,10.216H417.863L417.863,896.747z M426.862,894.21c-0.137-2.436-1.793-4.634-4.396-4.634
		c-2.674,0-4.5,2.03-4.603,4.634H426.862z"/>
	<path fill="#3490C1" d="M443.612,880.34h11.737c4.33,0,7.173,1.963,7.173,5.988c0,2.437-1.253,4.195-3.451,5.143v0.066
		c2.942,0.644,4.532,2.943,4.532,6.225c0,3.789-2.639,6.732-8.896,6.732h-11.096V880.34z M447.841,890.455h6.899
		c2.029,0,3.554-1.184,3.554-3.349c0-2.438-1.253-3.315-3.554-3.315h-6.899V890.455z M447.841,901.043h7.477
		c2.57,0,4.06-1.387,4.06-3.821c0-2.367-1.487-3.722-4.06-3.722h-7.477V901.043z"/>
	<path fill="#3490C1" d="M481.538,900.604c0,0.946,0.203,1.319,0.913,1.319c0.236,0,0.541,0,0.947-0.067v2.672
		c-0.575,0.203-1.793,0.438-2.438,0.438c-1.557,0-2.673-0.541-2.977-2.131c-1.521,1.489-3.992,2.131-6.057,2.131
		c-3.146,0-5.987-1.689-5.987-5.106c0-4.364,3.483-5.074,6.73-5.446c2.774-0.507,5.243-0.203,5.243-2.469
		c0-1.996-2.063-2.368-3.618-2.368c-2.165,0-3.688,0.879-3.855,2.773h-3.856c0.271-4.499,4.094-5.817,7.949-5.817
		c3.417,0,7.003,1.387,7.003,5.074L481.538,900.604L481.538,900.604z M477.682,895.732c-1.186,0.776-3.045,0.743-4.735,1.049
		c-1.657,0.271-3.146,0.879-3.146,2.909c0,1.725,2.197,2.232,3.552,2.232c1.69,0,4.33-0.881,4.33-3.314V895.732z"/>
	<path fill="#3490C1" d="M485.701,887.005h3.654v2.571l0.066,0.067c1.149-1.93,3.146-3.111,5.445-3.111
		c3.789,0,6.189,2.03,6.189,5.954v12.009h-3.855v-10.994c-0.066-2.739-1.149-3.924-3.416-3.924c-2.57,0-4.229,2.03-4.229,4.602
		v10.317H485.7L485.701,887.005L485.701,887.005z"/>
	<path fill="#3490C1" d="M505.224,880.34h3.855v13.734l6.969-7.07h4.736l-6.697,6.428l7.341,11.063h-4.702l-5.346-8.491
		l-2.301,2.233v6.258h-3.855V880.34z"/>
	<path fill="#3490C1" d="M526.302,896.747c0,2.74,1.488,5.176,4.703,5.176c2.231,0,3.584-0.979,4.262-2.909h3.652
		c-0.846,3.822-4.093,5.953-7.914,5.953c-5.479,0-8.561-3.822-8.561-9.201c0-4.974,3.248-9.234,8.458-9.234
		c5.515,0,8.896,4.973,8.254,10.216H526.302L526.302,896.747z M535.301,894.21c-0.137-2.436-1.794-4.634-4.396-4.634
		c-2.673,0-4.5,2.03-4.603,4.634H535.301z"/>
	<path fill="#3490C1" d="M542.104,887.005h3.619v3.384h0.066c0.439-1.86,2.74-3.855,5.107-3.855c0.881,0,1.116,0.066,1.455,0.103
		v3.722c-0.542-0.067-1.116-0.17-1.657-0.17c-2.64,0-4.736,2.132-4.736,5.987v8.322h-3.855L542.104,887.005L542.104,887.005z"/>
</g>
</svg>
