<?xml version="1.0" encoding="utf-8"?>
<!-- Generator: Adobe Illustrator 16.0.0, SVG Export Plug-In . SVG Version: 6.00 Build 0)  -->
<!DOCTYPE svg PUBLIC "-//W3C//DTD SVG 1.1//EN" "http://www.w3.org/Graphics/SVG/1.1/DTD/svg11.dtd">
<svg version="1.1" id="Layer_1" xmlns="http://www.w3.org/2000/svg" xmlns:xlink="http://www.w3.org/1999/xlink" x="0px" y="0px"
	 width="768px" height="1024px" viewBox="0 0 768 1024" enable-background="new 0 0 768 1024" xml:space="preserve">
<g>
	<g>
		<path fill="#58B5E1" d="M313.444,73.168H301.11c0.026-2.967,1.548-5.212,3.974-6.838c2.348-1.703,5.393-3.122,5.444-5.935
			c0.026-1.29-0.516-3.199-3.045-3.199c-2.322,0-3.019,1.987-3.096,4.515h-2.941c0-3.999,2.193-6.966,6.218-6.966
			c4.413,0,5.806,3.225,5.806,5.547c0,2.864-1.961,4.645-4.025,6.089c-2.09,1.445-4.283,2.555-4.799,4.154h8.799V73.168z"/>
		<path fill="#58B5E1" d="M327.87,64.137c0,4.103-1.058,9.392-6.244,9.392c-5.187,0-6.245-5.29-6.245-9.392s1.058-9.392,6.245-9.392
			C326.812,54.745,327.87,60.035,327.87,64.137z M324.928,64.137c0-3.768-0.723-6.941-3.303-6.941c-2.581,0-3.303,3.173-3.303,6.941
			c0,3.767,0.722,6.941,3.303,6.941C324.206,71.078,324.928,67.904,324.928,64.137z"/>
		<path fill="#58B5E1" d="M330.168,58.099c2.477,0.026,4.825-0.826,5.264-2.993h2.399v18.062h-3.225V60.421h-4.438V58.099z"/>
		<path fill="#58B5E1" d="M353.34,59.673c-0.129-1.471-1.109-2.477-2.632-2.477c-3.199,0-3.561,3.819-3.741,6.192l0.052,0.052
			c0.8-1.419,2.296-2.142,3.896-2.142c3.586,0,5.702,2.606,5.702,6.063c0,3.509-2.399,6.167-6.012,6.167
			c-5.315,0-6.58-4.18-6.58-9.444c0-4.309,1.703-9.34,6.812-9.34c2.864,0,5.29,1.987,5.444,4.928H353.34z M353.676,67.311
			c0-1.935-1.058-3.689-3.174-3.689c-2.142,0-3.251,1.703-3.251,3.689c0,1.961,1.109,3.768,3.251,3.768
			C352.618,71.078,353.676,69.246,353.676,67.311z"/>
		<path fill="#58B5E1" d="M387.635,73.375c-3.973-1.471-6.992-3.896-9.366-7.302L378.243,75h-1.961v-8.928
			c-1.316,2.58-5.264,6.244-9.237,7.508l-1.291-1.574c3.406-1.187,6.374-2.993,8.67-6.296h-7.147v-1.883h9.005v-2.452h1.961v2.452
			h9.03v1.883h-7.172c1.548,1.729,3.483,3.819,8.85,6.141L387.635,73.375z M381.907,56.242v2.064h-1.961v-2.064h-5.367v2.064h-1.961
			v-2.064h-6.296v-1.884h6.296v-2.271h1.961v2.271h5.367v-2.271h1.961v2.271h6.373v1.884H381.907z M385.829,63.002V60.86h-17.133
			v2.142h-1.961v-4.025h21.055v4.025H385.829z"/>
		<path fill="#58B5E1" d="M413.519,64.989c-0.929-0.387-1.961-0.981-2.632-1.419l-0.025,1.264h-15.43v-1.058
			c-0.646,0.387-1.652,0.877-2.762,1.368c-0.49-0.594-0.773-1.058-1.264-1.781c3.07-1.212,5.96-3.044,7.508-5.547h-6.812v-1.832
			h14.604c0.955-1.213,1.548-2.477,2.038-4.386l1.884,0.748c-0.438,1.445-1.032,2.555-1.78,3.664h5.161v1.78h-6.555
			c1.522,2.271,4.773,4.516,7.561,5.625L413.519,64.989z M397.934,55.648c-0.49-1.032-1.754-2.193-2.838-2.761l1.729-1.135
			c1.059,0.49,2.374,1.703,2.968,2.709L397.934,55.648z M410.836,67.414h-15.354v-1.78h15.354V67.414z M397.728,73.4
			c-0.052,0.232,0,0.722,0,1.393h-1.961V68.42h14.888v6.373h-1.961V73.4H397.728z M410.242,63.053
			c-0.336-0.206-0.748-0.593-1.059-0.877h-11.791c-0.258,0.232-0.697,0.645-1.109,0.826L410.242,63.053z M408.668,70.252h-10.94
			v1.367l10.94-0.025V70.252z M401.107,57.815c-0.465,0.955-1.238,1.935-1.754,2.554h3.689c-0.361-0.67-1.006-1.161-1.832-1.574
			l1.316-0.929L401.107,57.815z M402.991,55.545c-0.206-0.8-1.342-2.09-2.245-2.503l1.858-0.955
			c0.877,0.464,1.987,1.806,2.296,2.606L402.991,55.545z M403.146,57.815c0.696,0.335,1.548,1.135,1.986,1.884l-0.8,0.619
			l2.813,0.026c-0.567-0.568-1.342-1.651-1.909-2.529H403.146z"/>
		<path fill="#58B5E1" d="M423.431,65.014c-0.98,3.354-2.091,6.502-4.671,9.237l-1.496-1.212c2.322-2.632,3.922-6.141,4.516-8.721
			L423.431,65.014z M421.237,62.099c-1.007-1.497-2.296-2.606-3.561-3.406l1.238-1.239c1.29,0.723,2.528,1.677,3.69,3.251
			L421.237,62.099z M422.115,56.654c-1.162-1.548-1.729-2.09-3.484-3.096l1.188-1.265c1.445,0.749,2.684,1.548,3.715,2.916
			L422.115,56.654z M429.727,70.407c0.877-0.671,1.677-1.755,2.064-2.4c-0.49-0.593-1.084-1.083-1.678-1.445
			c-0.567,1.471-1.651,3.535-3.122,4.876l-0.8-0.851v4.103l-1.986-0.026V61.557h4.721v-1.548h-5.443v-1.91l16.591,0.026v1.884
			h-4.929v1.548h4.18v10.398c0.13,0.903-0.438,1.729-0.773,2.039c-0.671,0.568-1.6,0.413-3.251,0.413l-0.646-1.91l2.297,0.103
			c0.232,0,0.438-0.051,0.438-0.49v-3.096l-1.007,0.826c-0.748-1.161-1.65-2.09-2.167-2.399c-0.36,0.955-1.831,3.329-3.019,4.231
			L429.727,70.407z M433.52,53.764v-1.935h1.936v1.935h4.412v1.858l-4.412,0.026v1.987h-1.936v-1.987h-3.51v1.987h-1.909v-1.987
			l-4.077-0.026v-1.858h4.077v-1.986h1.909v1.986H433.52z M426.191,69.504c1.986-2.167,2.451-4,2.658-6.038l-2.658-0.026V69.504z
			 M430.758,63.44c-0.076,0.361-0.076,0.852-0.205,1.264c0.619,0.335,1.573,1.006,2.115,1.574c0.232-0.671,0.49-1.91,0.49-2.838
			H430.758z M430.861,61.557h2.348v-1.548h-2.348V61.557z M437.416,63.44h-2.375c-0.051,0.697-0.18,1.677-0.283,2.245
			c0.748,0.516,1.884,1.342,2.605,2.426L437.416,63.44z"/>
		<path fill="#58B5E1" d="M464.666,61.505c-0.773,2.451-2.348,5.238-3.689,7.431c0.748,1.29,1.832,2.683,3.199,3.715
			c0.129-0.877,0.129-1.393,0.129-2.039l2.014,1.11c-0.207,1.135-0.258,2.632-1.497,3.199c-0.851,0.207-1.444-0.438-2.013-0.8
			c-1.393-1.083-2.348-2.142-3.096-3.509c-2.143,2.529-3.845,3.535-5.548,4.309l-1.136-1.677c2.143-1.084,4.336-3.071,5.754-4.567
			c-1.031-2.399-1.471-5.393-1.6-9.005h-9.134l1.187,0.645c-0.077,0.387-0.206,0.903-0.283,1.187h7.379v1.857h-8.024
			c-0.413,0.774-0.851,1.703-1.265,2.245h2.451v-1.394h1.936v1.394h4.412v1.935l-4.438-0.026l-0.025,1.419l3.922-0.542l0.025,1.858
			l-3.871,0.645v4.051h-1.961l0.026-3.767c-1.729,0.232-3.458,0.568-5.083,0.748l-0.852-2.038c2.787-0.284,4.283-0.542,5.908-0.671
			v-1.703h-4.824l0.025-1.883c0.671-0.826,1.161-1.626,1.471-2.245h-2.193v-1.883h2.891c0.206-0.49,0.438-1.136,0.541-1.806
			l-3.689-0.026v-1.858h5.857v-1.522h-4.877v-1.806h4.902v-2.58h1.857l0.026,2.554h4.851v1.832h-4.851v1.522h5.702l0.025-5.418
			l1.885-0.387v5.832h6.579v1.858h-6.579c0.077,2.58,0.387,4.954,1.006,7.07c0.671-1.084,2.142-3.69,2.941-6.012L464.666,61.505z
			 M461.158,52.913c1.341,0.929,2.373,1.729,3.25,3.148l-1.65,1.187c-0.749-1.264-1.781-2.348-3.148-3.148L461.158,52.913z"/>
	</g>
</g>
</svg>
