<?xml version="1.0" encoding="utf-8"?>
<!-- Generator: Adobe Illustrator 16.0.0, SVG Export Plug-In . SVG Version: 6.00 Build 0)  -->
<!DOCTYPE svg PUBLIC "-//W3C//DTD SVG 1.1//EN" "http://www.w3.org/Graphics/SVG/1.1/DTD/svg11.dtd">
<svg version="1.1" id="Layer_1" xmlns="http://www.w3.org/2000/svg" xmlns:xlink="http://www.w3.org/1999/xlink" x="0px" y="0px"
	 width="768px" height="1024px" viewBox="0 0 768 1024" enable-background="new 0 0 768 1024" xml:space="preserve">
<g>
	<rect x="140.671" y="122.42" opacity="0.698" fill="#58B5E1" enable-background="new    " width="162.219" height="162.22"/>
	<g>
		<path fill="#FFFFFF" d="M166.973,162.593h-4.97v-15.892h-6.161v-3.746c3.465,0.07,6.65-1.12,7.176-4.865h3.955V162.593z"/>
		<path fill="#FFFFFF" d="M186.433,162.593h-4.97v-15.892h-6.161v-3.746c3.465,0.07,6.65-1.12,7.176-4.865h3.955V162.593z"/>
	</g>
	<path fill="#FFFFFF" d="M172.152,179.893v18.659h-1.562l-0.022-1.541h-13.422v1.52h-1.65l0.022-18.637H172.152z M157.169,195.471
		h13.378v-14.016h-13.378V195.471z M170.019,193.909h-12.41v-1.563h5.303v-3.718h-4.356v-1.519h4.379v-2.816h-5.127v-1.496h11.991
		v1.518h-5.28v2.772h4.577v1.563h-4.6v3.718h5.523V193.909L170.019,193.909z M167.972,192.215c-0.857-1.122-1.628-1.893-2.728-2.53
		l1.078-0.858c0.924,0.55,2.112,1.408,2.815,2.552L167.972,192.215z"/>
	<path fill="#FFFFFF" d="M181.853,185.812c1.122,1.452,2.354,2.97,2.442,4.973c0.044,1.034-0.44,1.958-1.364,2.376
		c-0.792,0.352-1.672,0.375-2.597,0.308l-0.616-1.65c1.123,0.044,2.223,0.22,2.751-0.242c0.264-0.308,0.44-0.528,0.286-1.1
		c-0.462-1.65-1.563-3.015-2.795-4.467l2.442-4.555h-2.948l0.022,17.119h-1.673l-0.021-18.615h6.579v1.408L181.853,185.812z
		 M182.051,194.899c2.156-1.32,3.784-3.344,5.017-5.5l1.188,0.924c-1.034,2.002-2.905,4.379-5.149,5.853L182.051,194.899z
		 M195.692,185.702v1.519h-5.038v9.527c0,0.814-0.639,1.65-1.476,1.738c-0.704,0.066-1.21,0.088-2.135,0.022l-0.638-1.606
		c0.88,0.11,1.408,0.11,2.2,0.11c0.33,0,0.396-0.22,0.396-0.748v-9.043h-5.479v-1.519H195.692z M184.867,181.851v-1.54h10.165v1.54
		H184.867z M195.297,196.352c-0.946-2.223-2.663-4.687-4.313-5.875l1.232-0.924c1.87,1.541,3.543,3.586,4.4,5.81L195.297,196.352z"
		/>
	<path fill="#FFFFFF" d="M205.812,179.409c-0.088,0.771-0.308,1.342-0.418,1.716h12.321v1.606l-6.711,0.044l0.022,2.816h5.61v1.628
		h-5.61v3.564h7.591v1.628l-7.591-0.022v6.337h-1.738v-6.315h-8.581v-1.65l2.729,0.022v-5.193l5.853-0.022v-2.816h-4.533
		c-0.704,1.43-1.54,3.014-3.036,4.4l-1.386-1.122c2.002-1.782,3.256-4.181,4.07-7.305L205.812,179.409z M205.13,187.22v3.564h4.136
		l0.022-3.564H205.13z"/>
	<path fill="#FFFFFF" d="M226.007,184.866h-3.41v-1.628h3.41v-4.048h1.761v4.048h2.992v1.628h-2.992v4.026l2.838-0.99v1.672
		l-2.838,1.012v5.897c0,0.814-0.066,1.342-0.793,1.782c-0.792,0.484-2.244,0.132-3.278-0.044l-0.55-1.716
		c1.122,0.198,1.694,0.308,2.442,0.352c0.33,0.044,0.418-0.242,0.418-0.616v-5.039l-3.08,1.122l-0.813-1.694l3.895-1.254
		L226.007,184.866L226.007,184.866z M240.683,198.618c-1.43-0.792-2.772-2.002-3.432-2.816c-0.639,1.056-1.673,1.914-2.905,2.882
		l-0.88-0.902l-0.021,0.968h-1.761v-18.769h8.229c-0.066,1.76-0.286,3.652-0.771,4.687c-0.242,0.528-0.813,1.012-1.408,1.1
		c-0.858,0.11-1.672,0.066-2.685-0.198l-0.418-1.694c1.078,0.264,1.629,0.33,2.354,0.33c0.484,0,0.639-0.198,0.814-0.748
		c0.198-0.66,0.286-1.298,0.308-1.87h-4.664v5.192h6.645c-0.066,2.882-0.792,5.281-1.937,7.48c0.858,1.232,2.465,2.311,3.697,3.08
		L240.683,198.618z M233.444,197.122c1.012-0.638,2.068-1.563,2.794-2.838c-0.946-1.782-1.563-3.785-1.87-5.875h-0.924V197.122z
		 M235.996,188.386c0.177,1.43,0.704,3.19,1.232,4.313c0.528-1.034,1.078-3.037,1.122-4.291L235.996,188.386z"/>
	<path fill="#FFFFFF" d="M246.576,186.054v-1.694h6.865c0.176-1.584,0.198-3.476,0.154-5.544c0.682,0.154,1.122,0.154,1.782,0.264
		c0.044,1.937,0.021,3.719-0.11,5.281h7.877l0.022,1.694h-6.469c0.88,4.665,2.574,7.943,7.459,10.804l-1.188,1.32
		c-4.797-2.905-6.997-6.095-7.877-12.124c-1.188,6.051-3.477,9.308-8.34,12.014l-1.254-1.519c4.774-2.244,7.041-6.314,7.789-10.496
		h-6.71V186.054z"/>
	<path fill="#FFFFFF" d="M286.112,180.773l0.021,3.653h-1.65l-0.022-2.134h-3.718v0.528h3.19v1.43l-3.19-0.022v0.528h2.86
		l0.021,1.386h-2.882v0.594h5.809l-0.021,1.518l-5.324-0.022c1.496,1.783,3.542,2.861,6.161,3.763l-1.101,1.32
		c-1.606-0.616-3.08-1.408-4.114-2.2v3.806l-1.65-0.022v-4.291h-6.755v4.687h-1.629v-3.674c-1.078,0.726-2.574,1.342-4.181,1.782
		l-0.88-1.386c1.232-0.352,2.223-0.638,3.125-1.122c1.275-0.682,2.596-1.694,3.278-2.663h-5.633v-1.496h5.853l-0.021-0.572
		l-2.883-0.022v-1.386h2.904v-0.506h-3.233v-1.408h3.233v-0.572l-3.828,0.022v2.156h-1.65v-3.675h8.493
		c-0.286-0.352-0.528-0.616-1.298-1.188l1.43-0.836c0.771,0.682,1.188,1.408,1.563,2.024H286.112z M268.532,196.923
		c2.992,0.132,5.94-0.682,7.019-2.729c0.484-0.924,0.771-1.694,0.925-2.97l1.54,0.264c-0.265,2.354-1.188,4.51-3.125,5.677
		c-1.584,0.968-3.718,1.364-5.545,1.408L268.532,196.923z M279.952,189.112c-0.11-0.132-0.419-0.55-0.66-0.88h-3.917
		c-0.198,0.462-0.462,0.792-0.528,0.88H279.952z M279.094,182.841l-0.021-0.55h-3.763l0.022,0.55H279.094z M279.094,184.756
		l-0.021-0.506l-3.763-0.022l0.022,0.528H279.094z M279.094,186.736l-0.021-0.572l-3.763-0.022l0.022,0.594H279.094z
		 M284.286,198.882c-2.311-1.452-4.356-2.179-7.019-2.927l0.792-1.298c2.706,0.66,4.709,1.474,7.239,2.838L284.286,198.882z"/>
	<g>
		<g>
			<path fill="#FFFFFF" d="M155.479,229.117v-7.53h5.559l-0.017-3.111h1.359l-0.034,3.094l5.542,0.017v7.462h-1.343v-1.156h-4.199
				l0.034,5.729h-1.343l-0.017-5.729h-4.165l-0.034,1.224H155.479z M161.021,222.827h-4.199v3.841h4.216L161.021,222.827z
				 M166.511,222.827h-4.131v3.825h4.147L166.511,222.827z"/>
			<path fill="#FFFFFF" d="M184.854,219.122v14.415h-1.207l-0.017-1.19h-10.369v1.173h-1.275l0.018-14.397L184.854,219.122
				L184.854,219.122z M173.277,231.156h10.335v-10.828h-10.335V231.156z M183.205,229.949h-9.588v-1.207h4.097v-2.873h-3.365v-1.173
				h3.383v-2.176h-3.961v-1.156h9.264v1.173h-4.079v2.142h3.536v1.207h-3.553v2.873h4.267L183.205,229.949L183.205,229.949z
				 M181.624,228.641c-0.663-0.867-1.258-1.462-2.108-1.955l0.833-0.663c0.714,0.425,1.632,1.088,2.176,1.972L181.624,228.641z"/>
			<path fill="#FFFFFF" d="M188.153,231.547l1.768-0.17v-5.542h-1.513v-1.207h14.397v1.207h-6.851v7.853h-1.36v-1.819l-5.745,0.901
				L188.153,231.547z M190.72,224.119v-4.913h9.706v4.913H190.72z M194.595,226.771v-0.935h-3.365v0.935H194.595z M191.229,227.943
				v0.884h3.383v-0.884H191.229z M191.246,229.983v1.224c1.088-0.153,2.261-0.289,3.349-0.476v-0.748H191.246z M199.1,220.379
				h-7.071v0.748h7.071V220.379z M192.028,222.249v0.731h7.071v-0.731H192.028z M202.023,226.482
				c-0.34,1.717-0.663,2.771-1.768,4.267c0.765,0.782,1.699,1.411,2.89,1.887c-0.34,0.391-0.527,0.663-0.85,0.986
				c-1.14-0.476-1.921-1.071-2.839-1.955c-0.816,0.731-1.717,1.581-2.635,2.091l-0.767-1.02c1.037-0.629,1.938-1.275,2.603-1.955
				c-0.681-0.918-1.311-1.955-1.514-3.094h-0.714v-1.207H202.023z M198.317,227.688c0.272,0.816,0.562,1.36,1.088,2.125
				c0.493-0.748,0.952-1.496,1.14-2.125H198.317z"/>
			<path fill="#FFFFFF" d="M209.93,218.815c-0.441,1.445-0.9,2.856-1.581,4.045v10.879h-1.258v-8.907
				c-0.17,0.272-0.68,1.037-1.428,1.768l-1.054-0.935c1.972-1.887,3.382-4.59,4.13-7.327L209.93,218.815z M220.111,231.938v1.241
				h-11.049v-1.241h4.794v-2.448h-3.638v-1.241h3.638v-1.904h1.394v1.904h3.604v1.241h-3.604v2.448H220.111z M215.232,224.612h4.42
				v1.241h-10.25v-1.241h4.437v-2.329h-3.484v-1.258h3.484v-2.244h1.394v2.261h3.451v1.224h-3.451L215.232,224.612L215.232,224.612z
				"/>
			<path fill="#FFFFFF" d="M226.946,218.748c-0.068,0.595-0.238,1.037-0.323,1.326h9.52v1.241l-5.185,0.034l0.017,2.176h4.335v1.258
				h-4.335v2.754h5.865v1.258l-5.865-0.017v4.896h-1.343v-4.878h-6.629v-1.275l2.107,0.017v-4.012l4.521-0.017v-2.176h-3.501
				c-0.544,1.105-1.19,2.329-2.346,3.4l-1.071-0.867c1.547-1.376,2.516-3.229,3.145-5.643L226.946,218.748z M226.419,224.782v2.754
				h3.196l0.017-2.754H226.419z"/>
			<path fill="#FFFFFF" d="M242.094,222.963h-2.635v-1.258h2.635v-3.127h1.359v3.127h2.313v1.258h-2.313v3.111l2.193-0.765v1.292
				l-2.193,0.782v4.555c0,0.629-0.051,1.037-0.611,1.377c-0.612,0.374-1.734,0.102-2.533-0.034l-0.425-1.326
				c0.867,0.153,1.309,0.238,1.887,0.272c0.255,0.034,0.323-0.187,0.323-0.476v-3.893l-2.38,0.867l-0.629-1.309l3.009-0.969V222.963
				z M253.432,233.587c-1.105-0.612-2.142-1.547-2.652-2.176c-0.492,0.816-1.291,1.479-2.243,2.227l-0.68-0.697l-0.018,0.748h-1.359
				v-14.5h6.357c-0.052,1.36-0.222,2.822-0.596,3.621c-0.187,0.408-0.629,0.782-1.088,0.85c-0.662,0.085-1.292,0.051-2.073-0.153
				l-0.323-1.309c0.833,0.204,1.258,0.255,1.819,0.255c0.373,0,0.492-0.153,0.629-0.578c0.152-0.51,0.221-1.003,0.237-1.445h-3.604
				v4.012h5.134c-0.051,2.227-0.612,4.08-1.496,5.779c0.663,0.952,1.904,1.785,2.855,2.38L253.432,233.587z M247.839,232.431
				c0.782-0.493,1.598-1.207,2.159-2.193c-0.731-1.377-1.207-2.924-1.445-4.539h-0.714V232.431z M249.811,225.683
				c0.136,1.105,0.544,2.465,0.952,3.332c0.408-0.799,0.833-2.346,0.867-3.315L249.811,225.683z"/>
		</g>
	</g>
</g>
</svg>
