<?xml version="1.0" encoding="utf-8"?>
<!-- Generator: Adobe Illustrator 16.0.0, SVG Export Plug-In . SVG Version: 6.00 Build 0)  -->
<!DOCTYPE svg PUBLIC "-//W3C//DTD SVG 1.1//EN" "http://www.w3.org/Graphics/SVG/1.1/DTD/svg11.dtd">
<svg version="1.1" id="Layer_1" xmlns="http://www.w3.org/2000/svg" xmlns:xlink="http://www.w3.org/1999/xlink" x="0px" y="0px"
	 width="768px" height="1024px" viewBox="0 0 768 1024" enable-background="new 0 0 768 1024" xml:space="preserve">
<g>
	<rect x="302.89" y="122.42" opacity="0.698" fill="#2A79BE" enable-background="new    " width="324.439" height="162.22"/>
	<g>
		<g>
			<path fill="#FFFFFF" d="M329.844,162.593h-4.97v-15.892h-6.161v-3.746c3.465,0.07,6.65-1.12,7.176-4.865h3.955V162.593z"/>
			<path fill="#FFFFFF" d="M336.878,147.506c-0.175-5.601,3.011-9.906,8.892-9.906c4.479,0,8.4,2.87,8.4,7.666
				c0,3.675-1.96,5.706-4.375,7.42c-2.415,1.715-5.286,3.116-7.071,5.636h11.586v4.271h-17.991c0.035-5.67,3.5-8.086,7.735-10.956
				c2.17-1.47,5.111-2.976,5.146-5.986c0-2.31-1.54-3.78-3.675-3.78c-2.94,0-3.886,3.045-3.886,5.636L336.878,147.506
				L336.878,147.506z"/>
		</g>
	</g>
	<g>
		<path fill="#FFFFFF" d="M322.911,198.75l-5.765-9.945l5.698-9.989h1.188l-5.633,9.989l5.698,9.945H322.911z M325.838,198.75
			l-5.633-9.945l5.566-9.989h1.255l-5.655,9.989l5.655,9.945H325.838z"/>
		<path fill="#FFFFFF" d="M340.862,179.893c2.267,2.816,5.215,5.369,8.978,6.469l-1.342,1.364c-1.52-0.506-2.839-1.276-3.829-1.936
			l0.022,0.902l-4.006-0.022l0.022,2.552h5.962l0.022,1.584l-6.007,0.022l0.021,5.281l7.877-0.022v1.606h-17.427l-0.022-1.606
			l7.899,0.022v-5.303l-6.072,0.022l-0.022-1.606h6.096v-2.552l-4.005,0.022v-0.946c-1.078,0.704-2.464,1.497-4.004,2.201
			l-1.122-1.386c3.277-1.474,7.437-3.939,9.9-8.164l1.364,0.924L340.862,179.893z M336.198,195.757
			c-0.595-1.452-1.276-2.663-2.53-3.829l1.496-0.704c0.924,0.726,2.222,2.707,2.64,3.851L336.198,195.757z M343.657,185.086
			c-1.211-1.012-2.816-2.465-3.785-3.829c-0.945,1.188-2.508,2.86-3.896,3.784L343.657,185.086z M341.457,194.965
			c1.452-1.034,2.464-2.42,3.189-3.939l1.343,0.968c-0.704,1.518-1.65,2.926-3.036,4.004L341.457,194.965z"/>
		<path fill="#FFFFFF" d="M364.47,179.739v1.584h-12.058v-1.584H364.47z M361.917,189.002h-6.821v9.505h-1.584v-11.156h9.989v9.087
			c-0.065,0.726-0.55,1.364-1.166,1.606c-0.704,0.286-1.188,0.242-2.046,0.242l-0.572-1.562c0.924-0.044,1.342,0.22,1.894-0.044
			c0.462-0.22,0.308-0.88,0.308-1.782L361.917,189.002L361.917,189.002z M354.502,186.494v-4.269h7.965v4.269H354.502z
			 M361.389,192.127v1.584h-2.155v3.542h-1.54v-3.521h-2.024v-1.65h1.496c-0.353-0.77-1.078-1.628-1.826-1.958l1.146-0.748
			c0.748,0.44,1.649,1.32,1.979,2.112l-0.925,0.616l1.211,0.022c0.857-0.946,1.166-1.958,1.496-2.816l1.43,0.572
			c-0.396,0.682-0.836,1.738-1.342,2.267L361.389,192.127z M360.839,183.766h-4.729v1.232h4.729V183.766z M365.898,197.407
			c-0.527,0.154-0.682,0.198-1.298,0.418l-0.771-1.606c1.32-0.286,1.959-0.396,2.883-0.638v-4.026h-2.486v-8.163h2.486v-4.401h1.563
			v4.401h2.529v8.163h-2.529l0.021,3.608l1.276-0.308c-0.154-0.308-0.507-0.902-1.014-1.518l1.388-0.506
			c0.88,1.012,1.475,2.178,1.849,3.322l0.483,1.452l-1.65,0.572c-0.153-0.771-0.33-1.541-0.506-2.002L365.898,197.407z
			 M366.714,184.976h-0.946v4.973h0.946V184.976z M368.276,189.948h1.077v-4.973h-1.077V189.948z"/>
		<path fill="#FFFFFF" d="M382.377,182.379l0.021,14.522h-1.717v-1.628h-2.839v1.628h-1.672v-14.5L382.377,182.379z
			 M380.683,188.034v-4.005h-2.839l0.022,4.027L380.683,188.034z M380.683,193.667v-4.027h-2.839l0.022,4.049L380.683,193.667z
			 M388.625,198.596l-0.638-1.782l1.979,0.154c0.198,0.022,0.374-0.198,0.353-0.396l0.021-11.288h-6.864l-0.021-1.628h6.887v-4.665
			h1.65v4.643h2.31v1.65l-2.31-0.022v11.729c0,0.902-0.639,1.605-1.364,1.605H388.625z M387.327,192.765
			c-0.484-1.43-2.112-3.762-3.498-4.907l1.319-0.924c1.299,1.034,3.015,3.3,3.564,4.885L387.327,192.765z"/>
		<path fill="#FFFFFF" d="M401.472,184.866h-3.409v-1.628h3.409v-4.048h1.761v4.048h2.992v1.628h-2.992v4.026l2.839-0.99v1.672
			l-2.839,1.012v5.897c0,0.814-0.065,1.342-0.793,1.782c-0.791,0.484-2.243,0.132-3.277-0.044l-0.55-1.716
			c1.122,0.198,1.693,0.308,2.441,0.352c0.33,0.044,0.418-0.242,0.418-0.616v-5.039l-3.08,1.122l-0.813-1.694l3.895-1.254
			L401.472,184.866L401.472,184.866z M416.146,198.618c-1.43-0.792-2.771-2.002-3.432-2.816c-0.639,1.056-1.673,1.914-2.904,2.882
			l-0.881-0.902l-0.021,0.968h-1.761v-18.769h8.229c-0.066,1.76-0.286,3.652-0.771,4.687c-0.241,0.528-0.813,1.012-1.407,1.1
			c-0.858,0.11-1.672,0.066-2.686-0.198l-0.418-1.694c1.078,0.264,1.629,0.33,2.354,0.33c0.484,0,0.639-0.198,0.813-0.748
			c0.198-0.66,0.286-1.298,0.309-1.87h-4.664v5.192h6.645c-0.065,2.882-0.792,5.281-1.937,7.48c0.857,1.232,2.465,2.311,3.697,3.08
			L416.146,198.618z M408.909,197.122c1.012-0.638,2.067-1.563,2.794-2.838c-0.946-1.782-1.563-3.785-1.87-5.875h-0.924V197.122z
			 M411.461,188.386c0.177,1.43,0.704,3.19,1.232,4.313c0.527-1.034,1.078-3.037,1.121-4.291L411.461,188.386z"/>
		<path fill="#FFFFFF" d="M421.381,198.75h-1.188l5.653-9.945l-5.653-9.989h1.254l5.565,9.989L421.381,198.75z M424.308,198.75
			h-1.188l5.699-9.945l-5.634-9.989h1.188l5.698,9.989L424.308,198.75z"/>
	</g>
	<g>
		<g>
			<path fill="#FFFFFF" d="M321.817,218.748c-0.068,0.595-0.238,1.037-0.323,1.326h9.52v1.241l-5.185,0.034l0.017,2.176h4.335v1.258
				h-4.335v2.754h5.865v1.258l-5.865-0.017v4.896h-1.343v-4.878h-6.629v-1.275l2.106,0.017v-4.012l4.521-0.017v-2.176h-3.501
				c-0.544,1.105-1.19,2.329-2.346,3.4l-1.071-0.867c1.547-1.376,2.516-3.229,3.145-5.643L321.817,218.748z M321.29,224.782v2.754
				h3.196l0.017-2.754H321.29z"/>
			<path fill="#FFFFFF" d="M336.761,226.668c0,2.329-0.136,5.032-1.768,7.088l-1.088-0.85c0.765-1.122,1.239-2.142,1.377-3.349
				c0.102-1.003,0.151-2.04,0.151-3.077v-6.255h6.188c-0.221-0.323-0.51-0.595-1.377-1.139l1.258-0.697
				c0.51,0.51,1.396,1.36,1.685,1.836h5.625l0.018,1.207h-12.052L336.761,226.668z M346.823,228.589
				c-0.595,1.003-2.277,2.278-2.957,2.669c0.407,0.188,1.088,0.391,1.768,0.544c1.14,0.272,2.277,0.459,3.638,0.562
				c-0.203,0.527-0.476,0.815-0.696,1.207c-2.176-0.306-4.268-0.697-6.068-1.581c-0.493,0.204-1.003,0.442-1.547,0.646
				c-1.24,0.477-2.635,0.799-4.097,0.969c-0.289-0.374-0.51-0.697-0.9-1.19c2.091-0.17,3.79-0.68,5.219-1.19
				c-0.833-0.595-1.785-1.563-2.447-2.566h-1.292v-1.207l9.417,0.034L346.823,228.589z M345.702,226.601h-6.409l0.018-2.329h-2.277
				v-1.173l2.261-0.017v-1.309h1.344v1.309h3.739v-1.326h1.326v1.326h2.771v1.207h-2.771L345.702,226.601L345.702,226.601z
				 M340.296,228.658c0.851,0.952,1.344,1.394,2.21,1.955c1.037-0.562,2.006-1.156,2.754-1.938L340.296,228.658z M340.688,225.428
				l3.673-0.017l0.017-1.122h-3.723L340.688,225.428z"/>
			<path fill="#FFFFFF" d="M351.023,231.547l1.769-0.17v-5.542h-1.513v-1.207h14.396v1.207h-6.851v7.853h-1.36v-1.819l-5.745,0.901
				L351.023,231.547z M353.591,224.119v-4.913h9.706v4.913H353.591z M357.466,226.771v-0.935h-3.364v0.935H357.466z
				 M354.102,227.943v0.884h3.383v-0.884H354.102z M354.117,229.983v1.224c1.088-0.153,2.261-0.289,3.349-0.476v-0.748H354.117z
				 M361.971,220.379h-7.07v0.748h7.07V220.379z M354.898,222.249v0.731h7.071v-0.731H354.898z M364.895,226.482
				c-0.34,1.717-0.662,2.771-1.768,4.267c0.765,0.782,1.699,1.411,2.89,1.887c-0.34,0.391-0.526,0.663-0.85,0.986
				c-1.14-0.476-1.921-1.071-2.839-1.955c-0.816,0.731-1.717,1.581-2.635,2.091l-0.767-1.02c1.037-0.629,1.938-1.275,2.603-1.955
				c-0.682-0.918-1.311-1.955-1.515-3.094h-0.714v-1.207H364.895z M361.188,227.688c0.272,0.816,0.563,1.36,1.089,2.125
				c0.493-0.748,0.952-1.496,1.14-2.125H361.188z"/>
			<path fill="#FFFFFF" d="M372.801,218.815c-0.441,1.445-0.9,2.856-1.581,4.045v10.879h-1.258v-8.907
				c-0.17,0.272-0.68,1.037-1.428,1.768l-1.054-0.935c1.972-1.887,3.382-4.59,4.13-7.327L372.801,218.815z M382.982,231.938v1.241
				h-11.05v-1.241h4.794v-2.448h-3.638v-1.241h3.638v-1.904h1.395v1.904h3.604v1.241h-3.604v2.448H382.982z M378.104,224.612h4.421
				v1.241h-10.25v-1.241h4.437v-2.329h-3.484v-1.258h3.484v-2.244h1.395v2.261h3.45v1.224h-3.45v2.346H378.104z"/>
			<path fill="#FFFFFF" d="M390.464,233.638v-1.173h-3.162v1.241l-1.274-0.034v-7.632h5.712l-0.018,7.599h-1.258V233.638z
				 M387.302,231.258l3.146-0.017v-3.995h-3.146V231.258z M397.331,219.139l-0.019,5.558h-9.638v-5.575L397.331,219.139z
				 M396.209,220.227l-7.377-0.034l0.017,3.434h7.344L396.209,220.227z M394.561,233.587h-1.291v-7.598h5.813v7.563h-1.291v-1.173
				l-3.23,0.017V233.587L394.561,233.587z M397.807,227.196h-3.246v3.995l3.246-0.017V227.196z"/>
			<path fill="#FFFFFF" d="M404.795,219.104l0.018,3.671h1.036v-4.47h1.259l0.017,4.47h0.986l-0.018,1.258h-3.247
				c-0.017,0.917-0.017,1.563-0.017,2.294h2.464v7.088h-1.258v-5.847h-1.24c-0.034,1.733-0.493,3.586-1.326,5.252
				c-0.119,0.17-0.17,0.408-0.425,0.68c-0.459-0.204-0.765-0.391-1.207-0.663c1.071-1.615,1.547-3.382,1.632-5.218
				s0.051-6.119,0.018-8.516L404.795,219.104L404.795,219.104z M408.398,226.55l0.017-6.579h2.313
				c0.491-0.408,0.984-1.071,1.375-1.785c0.478,0.102,0.782,0.289,1.275,0.408c-0.34,0.697-0.748,1.156-0.952,1.376h3.91
				l0.017,6.579h-4.471c-0.476,0.952-2.295,1.972-3.229,2.363l3.621,0.034l0.017-2.125h1.359v2.125h3.757l-0.018,1.258h-3.757v3.365
				h-1.358l0.017-3.365h-4.641v-1.258h0.663l-0.851-0.917c0.935-0.392,1.92-0.816,2.601-1.479H408.398z M409.707,221.178v1.343
				h2.074c0.017-0.374,0.102-0.986,0.066-1.343H409.707z M409.707,223.745v1.547h1.377c0.271-0.493,0.442-1.037,0.561-1.547H409.707
				z M415.011,223.745h-2.073c-0.103,0.527-0.237,1.139-0.392,1.547h2.465V223.745z M413.105,221.178
				c-0.017,0.425-0.051,0.918-0.066,1.343h1.972v-1.343H413.105z"/>
			<path fill="#FFFFFF" d="M433.744,233.026h-6.459c-1.989,0-3.842-0.476-5.271-1.615c-0.374,0.612-1.377,1.717-1.938,2.261
				l-0.969-0.935c0.814-0.799,1.495-1.513,1.972-2.261c-0.646-0.714-1.156-1.683-1.649-2.703l1.037-0.595
				c0.442,0.816,0.833,1.717,1.275,2.209c0.646-1.188,0.696-2.176,0.78-3.06h-2.89v-1.071c1.224-1.275,2.228-2.771,2.806-4.08
				h-3.095l0.019-1.241l4.453,0.017l0.018,1.122c-0.545,1.292-1.36,2.771-2.448,4.012l2.432,0.017
				c-0.018,1.003-0.137,3.094-1.189,5.201c1.614,1.513,3.994,1.564,6.442,1.513c1.343-0.017,3.331-0.068,5.185-0.17L433.744,233.026
				z M427.693,231.547v-1.598h-3.858v-1.241h3.841l0.019-1.003h-3.214v-1.224h3.195l0.019-1.003h-2.891v-1.241h2.891l-0.019-1.02
				l-3.994-0.017v-1.224l3.994-0.017v-0.917h-2.872v-1.224l2.872-0.017v-1.326h1.292l0.019,1.326l3.688,0.017v2.159h1.104v1.224
				h-1.104v2.278l-3.706-0.017v1.02l3.91-0.017v1.241h-3.893l-0.019,1.003h4.828l0.018,1.241l-4.846-0.017l0.019,1.615
				L427.693,231.547L427.693,231.547z M428.968,221.042v0.935h2.414v-0.935H428.968z M431.382,224.238v-1.037l-2.414,0.017v1.037
				L431.382,224.238z"/>
			<path fill="#FFFFFF" d="M438.761,232.533l-0.748-1.088c0.323-0.272,0.442-0.459,0.442-0.816v-5.491h-2.414v-1.241h3.706v6.697
				l2.396-1.292v1.395L438.761,232.533z M439.832,222.504c-0.493-1.02-1.225-1.819-2.159-2.583l0.9-0.765
				c0.952,0.629,1.769,1.547,2.329,2.516L439.832,222.504z M450.048,233.57c-1.395-0.527-3.026-1.343-4.097-2.228
				c-1.037,0.765-2.602,1.785-4.114,2.295l-0.85-1.071c1.581-0.561,2.924-1.241,3.995-2.091c-0.937-0.986-1.53-2.312-2.059-3.535
				h-0.799v-1.224h7.31c-0.34,2.21-1.292,3.553-2.565,4.726c1.188,0.935,2.583,1.547,4.334,2.074L450.048,233.57z M448.501,224.612
				c-0.815,0-1.241-0.595-1.241-1.258l-0.017-2.771h-2.737v1.581c0,0.867-0.355,1.751-1.224,2.567
				c-0.34,0.323-0.816,0.646-1.359,0.867l-0.918-1.071c0.969-0.323,1.479-0.833,1.869-1.411c0.374-0.578,0.374-0.969,0.374-1.581
				v-2.193h5.253l0.017,3.842c0.019,0.136,0.153,0.238,0.289,0.221h1.836v1.207H448.501z M444.319,226.941
				c0.374,0.85,0.866,1.92,1.613,2.668c0.767-0.765,1.396-1.632,1.819-2.668H444.319z"/>
			<path fill="#FFFFFF" d="M459.109,230.29v1.309l-3.265,1.717l-0.782-1.105c0.493-0.272,0.646-0.68,0.646-1.139v-3.57h-2.396
				v-1.207h2.396v-1.7h-0.766c-0.373,0.51-0.747,0.85-1.41,1.428l-0.952-1.02c1.547-1.258,2.635-3.587,2.821-6.442l1.225,0.323
				c0.051,0.918-0.085,1.802-0.153,1.955h2.566v1.224h-2.872c-0.153,0.476-0.374,0.969-0.527,1.309h3.229v1.224h-1.836v1.683h2.125
				v1.224h-2.125v3.808L459.109,230.29z M460.063,233.672l-0.952-1.105c0.374-0.119,0.629-0.51,0.629-0.867v-12.426h6.356v7.462
				l-2.396-0.017c0.066,0.782,0.321,1.785,0.629,2.38c0.714-0.357,1.358-1.037,2.006-2.04l0.985,0.782
				c-0.73,1.071-1.614,1.802-2.465,2.277c0.596,1.037,1.921,1.819,3.434,2.21l-0.9,1.122c-1.003-0.255-1.836-0.782-2.566-1.394
				c-1.444-1.479-2.192-3.417-2.346-5.32h-1.41v5.218l2.565-0.867v1.275L460.063,233.672z M461.064,220.499v1.853h3.738v-1.853
				H461.064z M461.064,223.541v1.972h3.738v-1.972H461.064z"/>
			<path fill="#FFFFFF" d="M469.99,227.383c2.142-1.224,3.842-3.128,5.234-5.117l1.037,0.697c-0.477,0.867-1.445,2.006-2.074,2.771
				v7.836h-1.309v-6.493c-0.289,0.272-1.241,0.901-1.887,1.36L469.99,227.383z M470.211,222.708
				c1.785-1.241,3.162-2.771,4.301-4.556l1.003,0.782c-1.139,1.717-2.55,3.519-4.165,4.657L470.211,222.708z M477.996,232.176
				c0.867,0.068,1.615,0.068,2.346,0.051c0.188-0.051,0.374-0.17,0.374-0.408v-6.969h-4.352v-1.258l8.754,0.017v1.241l-3.025,0.017
				l-0.017,7.104c0,0.595-0.307,1.037-0.731,1.292c-0.459,0.255-2.073,0.238-2.939,0.204L477.996,232.176z M484.081,220.736h-7.31
				l-0.018-1.258l7.326-0.017L484.081,220.736L484.081,220.736z"/>
		</g>
	</g>
</g>
</svg>
