<?xml version="1.0" encoding="utf-8"?>
<!-- Generator: Adobe Illustrator 16.0.0, SVG Export Plug-In . SVG Version: 6.00 Build 0)  -->
<!DOCTYPE svg PUBLIC "-//W3C//DTD SVG 1.1//EN" "http://www.w3.org/Graphics/SVG/1.1/DTD/svg11.dtd">
<svg version="1.1" id="Layer_1" xmlns="http://www.w3.org/2000/svg" xmlns:xlink="http://www.w3.org/1999/xlink" x="0px" y="0px"
	 width="768px" height="1024px" viewBox="0 0 768 1024" enable-background="new 0 0 768 1024" xml:space="preserve">
<g>
	<rect x="140.671" y="284.64" opacity="0.698" fill="#144F84" enable-background="new    " width="324.396" height="162.22"/>
	<g>
		<g>
			<path fill="#FFFFFF" d="M166.973,324.727h-4.97v-15.892h-6.161v-3.746c3.465,0.07,6.65-1.12,7.176-4.865h3.955V324.727z"/>
			<path fill="#FFFFFF" d="M180.693,310.13c2.135,0.175,5.215-0.245,5.215-3.045c0-2.065-1.646-3.255-3.465-3.255
				c-2.485,0-3.815,1.855-3.78,4.375h-4.726c0.175-5.005,3.43-8.471,8.471-8.471c3.92,0,8.226,2.416,8.226,6.791
				c0,2.31-1.155,4.375-3.43,5.005v0.07c2.695,0.595,4.34,2.835,4.34,5.565c0,5.146-4.306,8.051-9.101,8.051
				c-5.496,0-9.206-3.291-9.101-8.926h4.726c0.105,2.661,1.435,4.831,4.306,4.831c2.24,0,3.99-1.54,3.99-3.85
				c0-3.71-3.255-3.641-5.67-3.641L180.693,310.13L180.693,310.13z"/>
		</g>
	</g>
	<g>
		<path fill="#FFFFFF" d="M160.04,360.884l-5.765-9.945l5.699-9.989h1.188l-5.633,9.989l5.699,9.945H160.04z M162.967,360.884
			l-5.633-9.945l5.566-9.989h1.255l-5.655,9.989l5.655,9.945H162.967z"/>
		<path fill="#FFFFFF" d="M168.729,354.965v-9.748h7.194l-0.021-4.027h1.76l-0.044,4.005l7.173,0.021v9.659h-1.738v-1.496h-5.435
			l0.044,7.415h-1.738l-0.021-7.415h-5.391l-0.044,1.584L168.729,354.965L168.729,354.965z M175.901,346.824h-5.435v4.973h5.456
			L175.901,346.824z M183.008,346.824h-5.347v4.951h5.369L183.008,346.824z"/>
		<path fill="#FFFFFF" d="M207.362,342.027v18.659H205.8l-0.022-1.541h-13.422v1.519h-1.65l0.022-18.637L207.362,342.027
			L207.362,342.027z M192.379,357.605h13.378v-14.016h-13.378V357.605z M205.229,356.043h-12.41v-1.563h5.303v-3.718h-4.356v-1.519
			h4.379v-2.816h-5.127v-1.496h11.992v1.518h-5.281v2.771h4.576v1.563h-4.599v3.718h5.523V356.043z M203.182,354.349
			c-0.857-1.122-1.628-1.893-2.728-2.53l1.078-0.858c0.924,0.55,2.112,1.408,2.816,2.552L203.182,354.349z"/>
		<path fill="#FFFFFF" d="M219.726,352.831v1.475c-2.333,0.55-4.841,1.056-6.623,1.496l-0.771-1.474
			c1.255-1.145,2.707-3.015,3.895-4.335c-0.66,0.088-1.782,0.308-3.146,0.594l-0.748-1.474c1.299-1.782,3.257-5.193,4.599-7.769
			l1.364,0.946c-1.166,2.112-3.08,5.325-3.851,6.447c0.462-0.022,1.826-0.33,3.103-0.418c0.595-0.814,1.166-1.694,1.87-2.707
			l1.387,0.99c-2.244,2.926-4.093,5.5-5.854,7.173L219.726,352.831z M212.354,358.178c3.08-0.924,5.104-1.76,7.987-2.75v1.672
			c-3.037,1.188-4.731,1.782-7.041,2.706L212.354,358.178z M218.537,360.092v-1.496h5.589v-4.577h-3.938v-1.541h9.527v1.563h-3.938
			v4.555h5.896v1.496H218.537z M218.625,350.873c4.929-1.65,7.239-4.665,8.472-6.975h-7.394v-1.518h9.55v1.408
			c-1.188,2.134-2.223,3.344-2.948,4.159c1.716,0.856,4.136,2.112,5.412,3.41l-1.144,1.167c-1.805-1.519-4.159-2.839-5.413-3.323
			c-1.849,1.76-3.587,2.42-5.479,3.081L218.625,350.873z"/>
		<path fill="#FFFFFF" d="M246.764,345.79v-1.584h-4.576v1.54h-1.673v-1.54h-5.391V342.6h5.457v-1.276h1.606v1.254h4.576v-1.232
			h1.65v1.232h5.413v1.606h-5.436v1.606H246.764z M237.148,349.882h-1.628v-3.477h17.866l-0.021,3.521h-1.628v-1.914h-14.588
			L237.148,349.882L237.148,349.882z M249.603,360.95v-1.298h-10.386v1.276h-1.673l0.022-6.645h13.686v6.667H249.603z
			 M249.603,355.911h-10.386v2.112h10.386V355.911z M249.624,353.359h-10.363v-4.489h10.342L249.624,353.359z M240.955,350.499
			v1.232h6.975v-1.232H240.955z"/>
		<path fill="#FFFFFF" d="M261.238,347h-3.41v-1.628h3.41v-4.048h1.761v4.048h2.992V347h-2.992v4.026l2.838-0.99v1.672l-2.838,1.012
			v5.897c0,0.814-0.066,1.342-0.793,1.782c-0.792,0.484-2.244,0.132-3.278-0.044l-0.55-1.716c1.122,0.198,1.694,0.308,2.442,0.352
			c0.33,0.044,0.418-0.242,0.418-0.616v-5.039l-3.08,1.122l-0.814-1.694l3.896-1.254L261.238,347L261.238,347z M275.914,360.752
			c-1.43-0.792-2.772-2.002-3.432-2.816c-0.639,1.056-1.673,1.914-2.905,2.882l-0.88-0.902l-0.021,0.968h-1.761v-18.769h8.229
			c-0.066,1.76-0.286,3.652-0.771,4.687c-0.242,0.528-0.813,1.012-1.408,1.1c-0.857,0.11-1.672,0.066-2.685-0.198l-0.418-1.694
			c1.078,0.264,1.629,0.33,2.354,0.33c0.484,0,0.639-0.198,0.814-0.748c0.198-0.66,0.286-1.298,0.308-1.87h-4.664v5.192h6.646
			c-0.066,2.882-0.792,5.281-1.938,7.481c0.858,1.232,2.465,2.31,3.697,3.08L275.914,360.752z M268.676,359.256
			c1.012-0.638,2.068-1.563,2.794-2.838c-0.946-1.782-1.563-3.785-1.87-5.875h-0.924V359.256z M271.228,350.521
			c0.176,1.43,0.704,3.19,1.232,4.313c0.528-1.034,1.078-3.037,1.122-4.291L271.228,350.521z"/>
		<path fill="#FFFFFF" d="M281.17,360.884h-1.188l5.654-9.945l-5.654-9.989h1.254l5.564,9.989L281.17,360.884z M284.097,360.884
			h-1.188l5.699-9.945l-5.633-9.989h1.188l5.698,9.989L284.097,360.884z"/>
	</g>
	<g>
		<g>
			<path fill="#FFFFFF" d="M153.745,394.65c0.085-0.697,0.17-0.986,0.408-1.462c0.459-0.918,1.24-1.802,2.464-2.805l0.562-0.459
				c2.243-1.836,3.094-2.992,3.094-4.147c0-1.224-0.969-2.108-2.295-2.108c-1.462,0-2.363,0.918-2.38,2.448l-1.53-0.17
				c0.204-2.278,1.599-3.521,3.944-3.521c2.261,0,3.808,1.377,3.808,3.383c0,1.445-0.851,2.736-2.992,4.538l-1.224,1.037
				c-1.003,0.85-1.411,1.292-1.751,1.836h5.983v1.428L153.745,394.65L153.745,394.65z"/>
			<path fill="#FFFFFF" d="M167.413,394.854c-1.581,0-2.788-0.833-3.4-2.363c-0.391-0.986-0.561-2.193-0.561-3.875
				c0-4.097,1.326-6.188,3.961-6.188c2.635,0,3.96,2.091,3.96,6.221C171.373,392.781,170.048,394.854,167.413,394.854z
				 M169.401,385.182c-0.34-0.935-1.104-1.513-2.006-1.513c-1.666,0-2.414,1.564-2.414,4.963c0,1.513,0.153,2.669,0.442,3.468
				c0.34,0.952,1.104,1.53,1.989,1.53c0.884,0,1.648-0.578,1.988-1.53c0.289-0.782,0.442-1.955,0.442-3.451
				C169.844,387.154,169.707,386.015,169.401,385.182z"/>
			<path fill="#FFFFFF" d="M177.035,394.65v-9.519c-0.493,0.476-0.97,0.799-1.854,1.275c-0.544,0.289-0.696,0.355-1.139,0.527
				v-1.445c1.615-0.748,2.958-1.938,3.519-3.062h0.969v12.222L177.035,394.65L177.035,394.65z"/>
			<path fill="#FFFFFF" d="M186.504,394.854c-1.547,0-2.924-0.833-3.569-2.176c-0.459-0.952-0.646-2.091-0.646-3.723
				c0-4.267,1.496-6.527,4.352-6.527c1.938,0,3.213,1.122,3.468,3.025l-1.496,0.136c-0.17-1.258-0.852-1.921-1.972-1.921
				c-1.104,0-1.938,0.595-2.362,1.666c-0.307,0.782-0.51,1.904-0.51,2.805v0.238c0.271-0.425,0.407-0.578,0.714-0.833
				c0.629-0.493,1.428-0.782,2.243-0.782c2.057,0,3.587,1.683,3.587,3.927C190.312,393.121,188.73,394.854,186.504,394.854z
				 M186.419,388.072c-1.394,0-2.414,1.122-2.414,2.618c0,1.666,1.071,2.94,2.465,2.94c1.343,0,2.313-1.19,2.313-2.838
				C188.781,389.177,187.83,388.072,186.419,388.072z"/>
			<path fill="#FFFFFF" d="M206.954,392.832l-6.748-0.017v2.992h-1.275v-2.992l-6.766,0.017v-1.241l6.766,0.017v-1.224h-4.726
				l0.018-6.068l4.028-0.017v-3.688h1.292v1.358h6.527v1.241h-6.527v1.105h5.286l-0.017,6.068h-4.606v1.224l6.748-0.017V392.832z
				 M195.497,386.695l8.04,0.017l-0.017-1.173l-8.007,0.017L195.497,386.695z M203.537,387.936h-8.023v1.207h8.023V387.936z"/>
			<path fill="#FFFFFF" d="M209.217,387.086l0.017-1.224h2.839l-0.02-2.125l-2.431,0.017v-1.258h2.448v-1.836l1.272,0.017
				l0.02,1.819l2.295,0.017l0.017,1.241l-2.312-0.017v2.125l2.787-0.019v1.241h-2.261v1.989h2.125l-0.017,1.241h-2.108v2.771
				c0.901,0.527,2.006,0.748,3.213,0.748h7.36l-0.748,1.224h-7.377c-2.04,0-3.74-1.02-4.964-2.295
				c-0.221,0.937-0.595,2.193-1.699,3.146l-0.901-0.833c1.326-1.343,1.496-3.247,1.496-4.98v-1.972h1.258l-0.018,2.941
				c0.153,0.374,0.715,0.935,1.105,1.189v-5.167L209.217,387.086L209.217,387.086z M223.971,390.35
				c-0.085,0.986-0.237,1.836-0.646,2.635c-0.119,0.221-0.51,0.391-0.816,0.374c-0.629-0.017-1.258-0.884-1.802-1.785
				c-0.646,0.901-1.394,1.462-2.277,2.091c-0.408-0.17-0.68-0.442-1.173-0.697c1.224-0.833,2.192-1.598,2.821-2.601
				c-0.781-1.802-1.122-3.926-1.309-5.916l-1.054-0.017l-0.018,5.626l1.734-1.02v1.428l-2.55,1.598l-1.156-0.782
				c0.562-0.459,0.646-0.986,0.697-1.547v-6.527h2.261l-0.085-2.703l1.258,0.017c0,1.003,0.051,1.955,0.102,2.703l3.536-0.034
				l0.017,1.258h-3.468c0.17,1.717,0.307,2.89,0.799,4.42c0.562-1.292,0.816-2.482,0.952-4.147l1.156,0.714
				c-0.17,1.87-0.748,3.434-1.462,4.929c0.255,0.527,0.578,1.071,1.02,1.513c0.153-0.357,0.238-1.309,0.255-2.261L223.971,390.35z
				 M222.339,383.125c-0.765-0.799-1.343-1.139-2.277-1.479l0.952-0.884c0.884,0.238,1.614,0.833,2.294,1.547L222.339,383.125z"/>
			<path fill="#FFFFFF" d="M240.903,392.627c-0.119,0.833-0.272,1.7-1.055,2.159l-0.492,0.153h-3.791
				c-0.884,0-1.326-0.493-1.462-1.071V391.2l-1.598,0.017c-0.17,1.445-1.19,2.924-2.736,3.569c-0.986,0.425-2.074,0.714-3.264,0.85
				l-0.782-1.343c2.532-0.221,3.043-0.34,4.437-1.275c0.697-0.459,0.985-1.19,1.104-1.819h-2.617v-4.114h9.281v4.114h-2.533v2.244
				c0.017,0.136,0.153,0.238,0.289,0.289h3.553c0.323-0.119,0.271-0.51,0.356-0.884c0.034-0.187,0.052-0.408,0.085-0.799
				L240.903,392.627z M231.23,385.438c-0.391-0.68-0.969-1.241-1.614-1.581l0.544-0.493h-3.196v-1.189h5.678
				c-0.391-0.408-0.799-0.816-1.274-1.088l1.122-0.68c0.544,0.459,1.139,1.02,1.428,1.751h5.592v1.241h-3.434l0.595,0.357
				c-0.306,0.612-0.662,1.241-1.036,1.7h4.861v1.156h-14.482v-1.173L231.23,385.438L231.23,385.438z M236.619,390.027v-1.683h-6.714
				v1.683H236.619z M234.273,385.471c0.459-0.714,1.003-1.598,1.173-2.057h-4.487c0.578,0.306,0.969,0.697,1.444,1.547l-0.611,0.476
				L234.273,385.471z"/>
			<path fill="#FFFFFF" d="M247.568,394.446l1.683,0.068c0.17-0.034,0.289-0.153,0.289-0.34v-2.583h-5.15v-1.275h5.15v-1.615h-6.442
				v-1.258h6.425v-1.309h-3.875c-0.392,0.306-1.071,0.731-1.615,0.937l-0.918-1.037c2.448-0.969,3.688-3.111,4.352-5.474
				l1.139,0.476c-0.051,0.357-0.152,0.697-0.289,0.986h5.354v1.105c-0.373,0.697-0.765,1.326-1.036,1.751h3.331v2.567h1.785v1.258
				h-1.768v2.907h-5.134v2.992c0,0.612-0.374,1.241-0.935,1.241l-1.904-0.017L247.568,394.446z M247.789,383.262
				c-0.289,0.595-0.731,1.241-1.02,1.615h4.352c0.407-0.544,0.73-1.003,1.07-1.615H247.789z M254.69,386.151h-3.842v1.275h3.824
				L254.69,386.151z M254.673,388.701h-3.808v1.615h3.808V388.701z"/>
			<path fill="#FFFFFF" d="M273.73,384.435c-0.085,3.536-0.272,5.881-0.936,9.06c-0.187,0.918-1.02,1.428-1.683,1.513
				c-1.241,0.17-2.277-0.187-3.434-0.51l-0.289-1.479c1.156,0.374,2.107,0.68,3.11,0.765c0.357,0.034,0.663-0.238,0.833-0.459
				c0.459-0.646,0.969-5.304,1.021-7.632l-4.267,0.017c-0.289,6.493-3.247,8.363-6.867,9.893l-0.97-1.241
				c2.976-1.105,6.239-2.414,6.477-8.652h-4.198v-1.258h4.249v-3.808h1.31l-0.018,3.808L273.73,384.435z"/>
			<path fill="#FFFFFF" d="M282.401,395.772V394.6h-3.162v1.241l-1.275-0.034v-7.632h5.712l-0.017,7.599h-1.258V395.772z
				 M279.239,393.393l3.145-0.017v-3.995h-3.145V393.393z M289.269,381.273l-0.018,5.558h-9.638v-5.575L289.269,381.273z
				 M288.146,382.361l-7.377-0.034l0.017,3.434h7.343L288.146,382.361z M286.497,395.721h-1.291v-7.598h5.813v7.564h-1.291v-1.173
				l-3.23,0.017L286.497,395.721L286.497,395.721z M289.744,389.33h-3.247v3.995l3.247-0.017V389.33z"/>
			<path fill="#FFFFFF" d="M296.732,381.239l0.017,3.671h1.037v-4.47h1.258l0.017,4.47h0.986l-0.017,1.258h-3.247
				c-0.017,0.917-0.017,1.563-0.017,2.294h2.464v7.088h-1.26v-5.847h-1.24c-0.034,1.733-0.493,3.586-1.326,5.252
				c-0.119,0.17-0.17,0.408-0.425,0.68c-0.459-0.204-0.765-0.391-1.207-0.663c1.071-1.615,1.547-3.382,1.632-5.218
				c0.085-1.836,0.051-6.119,0.017-8.516L296.732,381.239L296.732,381.239z M300.336,388.684l0.018-6.579h2.313
				c0.492-0.408,0.985-1.071,1.376-1.785c0.479,0.102,0.782,0.289,1.275,0.408c-0.342,0.697-0.748,1.156-0.952,1.376h3.91
				l0.017,6.579h-4.471c-0.478,0.952-2.295,1.972-3.229,2.363l3.621,0.034l0.019-2.125h1.357v2.125h3.757l-0.017,1.258h-3.757v3.365
				h-1.359l0.019-3.365h-4.643v-1.258h0.663l-0.85-0.917c0.935-0.391,1.92-0.816,2.601-1.479H300.336z M301.645,383.313v1.343h2.074
				c0.019-0.374,0.104-0.986,0.067-1.343H301.645z M301.645,385.879v1.547h1.377c0.272-0.493,0.442-1.037,0.563-1.547H301.645z
				 M306.948,385.879h-2.074c-0.103,0.527-0.237,1.139-0.391,1.547h2.465V385.879z M305.044,383.313
				c-0.017,0.425-0.051,0.918-0.067,1.343h1.974v-1.343H305.044z"/>
			<path fill="#FFFFFF" d="M325.682,395.16h-6.459c-1.987,0-3.842-0.476-5.27-1.615c-0.374,0.612-1.377,1.717-1.938,2.261
				l-0.969-0.935c0.815-0.799,1.495-1.513,1.972-2.261c-0.646-0.714-1.154-1.683-1.647-2.703l1.037-0.595
				c0.44,0.816,0.833,1.717,1.273,2.209c0.646-1.189,0.696-2.176,0.781-3.06h-2.89v-1.071c1.224-1.275,2.227-2.771,2.805-4.08
				h-3.094l0.018-1.241l4.453,0.017l0.018,1.122c-0.545,1.292-1.358,2.771-2.446,4.012l2.431,0.019
				c-0.017,1.003-0.136,3.094-1.188,5.201c1.612,1.513,3.994,1.564,6.44,1.513c1.343-0.017,3.331-0.068,5.187-0.17L325.682,395.16z
				 M319.631,393.682v-1.598h-3.856v-1.241h3.841l0.018-1.003h-3.213v-1.224h3.195l0.018-1.003h-2.89v-1.241h2.89l-0.018-1.02
				l-3.994-0.017v-1.224l3.994-0.019v-0.917h-2.872v-1.224l2.872-0.017v-1.326h1.292l0.018,1.326l3.688,0.017v2.159h1.104v1.224
				h-1.104v2.278l-3.706-0.017v1.02l3.91-0.017v1.241h-3.895l-0.018,1.003h4.828l0.017,1.241l-4.845-0.017l0.018,1.615H319.631
				L319.631,393.682z M320.905,383.177v0.937h2.414v-0.937H320.905z M323.319,386.372v-1.037l-2.414,0.017v1.037L323.319,386.372z"
				/>
			<path fill="#FFFFFF" d="M330.698,394.667l-0.748-1.088c0.323-0.272,0.44-0.459,0.44-0.816v-5.491h-2.412v-1.241h3.704v6.697
				l2.396-1.292v1.394L330.698,394.667z M331.77,384.638c-0.491-1.02-1.225-1.819-2.157-2.583l0.898-0.765
				c0.952,0.629,1.771,1.547,2.329,2.516L331.77,384.638z M341.985,395.704c-1.396-0.527-3.026-1.343-4.099-2.227
				c-1.036,0.765-2.601,1.785-4.113,2.295l-0.851-1.071c1.581-0.561,2.924-1.241,3.995-2.091c-0.938-0.986-1.53-2.312-2.058-3.535
				h-0.8v-1.224h7.311c-0.34,2.21-1.292,3.553-2.566,4.726c1.189,0.935,2.583,1.547,4.334,2.074L341.985,395.704z M340.438,386.746
				c-0.814,0-1.239-0.595-1.239-1.258l-0.019-2.771h-2.735v1.581c0,0.867-0.356,1.751-1.226,2.567
				c-0.34,0.323-0.814,0.646-1.357,0.867l-0.918-1.071c0.969-0.323,1.479-0.833,1.867-1.411c0.375-0.578,0.375-0.969,0.375-1.581
				v-2.193h5.252l0.019,3.842c0.018,0.136,0.152,0.238,0.289,0.221h1.836v1.207H340.438z M336.257,389.075
				c0.374,0.85,0.867,1.92,1.614,2.668c0.766-0.765,1.395-1.632,1.818-2.668H336.257z"/>
			<path fill="#FFFFFF" d="M351.047,392.424v1.309l-3.264,1.717l-0.782-1.105c0.493-0.271,0.646-0.68,0.646-1.139v-3.57h-2.396
				v-1.207h2.396v-1.7h-0.766c-0.373,0.51-0.747,0.85-1.41,1.428l-0.951-1.021c1.548-1.258,2.636-3.587,2.82-6.441l1.225,0.323
				c0.053,0.918-0.084,1.802-0.151,1.955h2.565v1.225h-2.873c-0.151,0.476-0.372,0.969-0.525,1.309h3.229v1.224h-1.836v1.683h2.125
				v1.224h-2.125v3.809L351.047,392.424z M351.999,395.806l-0.952-1.105c0.374-0.119,0.629-0.51,0.629-0.867v-12.426h6.357v7.462
				l-2.396-0.017c0.067,0.782,0.322,1.785,0.629,2.38c0.715-0.357,1.359-1.037,2.006-2.04l0.985,0.782
				c-0.729,1.071-1.614,1.802-2.465,2.277c0.596,1.037,1.921,1.819,3.434,2.21l-0.898,1.122c-1.003-0.255-1.836-0.782-2.567-1.394
				c-1.443-1.479-2.19-3.417-2.346-5.32h-1.41v5.218l2.566-0.867v1.275L351.999,395.806z M353.002,382.633v1.853h3.739v-1.853
				H353.002z M353.002,385.675v1.972h3.739v-1.972H353.002z"/>
			<path fill="#FFFFFF" d="M361.928,389.517c2.144-1.224,3.842-3.128,5.235-5.117l1.037,0.697c-0.479,0.867-1.445,2.006-2.074,2.771
				v7.836h-1.309v-6.493c-0.289,0.272-1.241,0.901-1.889,1.36L361.928,389.517z M362.148,384.842
				c1.783-1.241,3.162-2.771,4.301-4.556l1.003,0.782c-1.14,1.717-2.55,3.519-4.165,4.657L362.148,384.842z M369.934,394.311
				c0.867,0.068,1.615,0.068,2.348,0.051c0.188-0.051,0.374-0.17,0.374-0.408v-6.969h-4.354v-1.258l8.754,0.017v1.241l-3.023,0.017
				l-0.019,7.105c0,0.595-0.307,1.037-0.729,1.292c-0.459,0.255-2.073,0.238-2.94,0.204L369.934,394.311z M376.02,382.871h-7.31
				l-0.018-1.258l7.324-0.019v1.275L376.02,382.871L376.02,382.871z"/>
			<path fill="#FFFFFF" d="M387.121,389.874c-0.393-0.646-1.311-1.734-2.074-2.397l0.952-0.952c0.884,0.663,1.768,1.496,2.328,2.176
				L387.121,389.874z"/>
			<path fill="#FFFFFF" d="M395.554,394.65c0.085-0.697,0.17-0.986,0.408-1.462c0.459-0.918,1.24-1.802,2.464-2.805l0.563-0.459
				c2.241-1.836,3.094-2.992,3.094-4.147c0-1.224-0.969-2.108-2.295-2.108c-1.462,0-2.363,0.918-2.38,2.448l-1.53-0.17
				c0.204-2.278,1.599-3.521,3.944-3.521c2.261,0,3.808,1.377,3.808,3.383c0,1.445-0.851,2.736-2.992,4.538l-1.224,1.037
				c-1.003,0.85-1.411,1.292-1.751,1.836h5.981v1.428L395.554,394.65L395.554,394.65z"/>
			<path fill="#FFFFFF" d="M409.222,394.854c-1.581,0-2.788-0.833-3.398-2.363c-0.393-0.986-0.563-2.193-0.563-3.875
				c0-4.097,1.326-6.188,3.961-6.188c2.636,0,3.96,2.091,3.96,6.221C413.182,392.781,411.855,394.854,409.222,394.854z
				 M411.21,385.182c-0.34-0.935-1.104-1.513-2.006-1.513c-1.666,0-2.414,1.564-2.414,4.963c0,1.513,0.153,2.669,0.442,3.468
				c0.34,0.952,1.104,1.53,1.987,1.53s1.648-0.578,1.988-1.53c0.289-0.782,0.442-1.955,0.442-3.451
				C411.652,387.154,411.516,386.015,411.21,385.182z"/>
			<path fill="#FFFFFF" d="M418.844,394.65v-9.519c-0.493,0.476-0.97,0.799-1.854,1.275c-0.544,0.289-0.696,0.355-1.141,0.527
				v-1.445c1.615-0.748,2.958-1.938,3.521-3.062h0.969v12.222L418.844,394.65L418.844,394.65z"/>
			<path fill="#FFFFFF" d="M428.313,394.854c-1.547,0-2.924-0.833-3.567-2.176c-0.459-0.952-0.646-2.091-0.646-3.723
				c0-4.267,1.496-6.527,4.354-6.527c1.938,0,3.213,1.122,3.468,3.025l-1.496,0.136c-0.17-1.258-0.85-1.921-1.972-1.921
				c-1.104,0-1.938,0.595-2.362,1.666c-0.307,0.782-0.51,1.904-0.51,2.805v0.238c0.271-0.425,0.407-0.578,0.714-0.833
				c0.629-0.493,1.428-0.782,2.243-0.782c2.057,0,3.587,1.683,3.587,3.927C432.12,393.121,430.539,394.854,428.313,394.854z
				 M428.229,388.072c-1.395,0-2.414,1.122-2.414,2.618c0,1.666,1.07,2.94,2.466,2.94c1.343,0,2.312-1.19,2.312-2.838
				C430.59,389.177,429.639,388.072,428.229,388.072z"/>
			<path fill="#FFFFFF" d="M448.763,392.832l-6.748-0.017v2.992h-1.273v-2.992l-6.768,0.017v-1.241l6.768,0.017v-1.224h-4.728
				l0.02-6.068l4.027-0.017v-3.688h1.291v1.358h6.527v1.241h-6.527v1.105h5.286l-0.017,6.068h-4.606v1.224l6.748-0.017V392.832
				L448.763,392.832z M437.306,386.695l8.04,0.017l-0.017-1.173l-8.007,0.017L437.306,386.695z M445.346,387.936h-8.021v1.207h8.021
				V387.936z"/>
			<path fill="#FFFFFF" d="M154.408,407.486l0.017-1.224h2.839l-0.018-2.125l-2.431,0.019v-1.258h2.448v-1.836l1.274,0.017
				l0.018,1.819l2.295,0.017l0.017,1.241l-2.312-0.019v2.125l2.787-0.017v1.241h-2.261v1.989h2.125l-0.017,1.241h-2.108v2.771
				c0.901,0.527,2.006,0.748,3.213,0.748h7.36l-0.748,1.224h-7.377c-2.04,0-3.74-1.02-4.964-2.294
				c-0.221,0.935-0.595,2.193-1.699,3.145l-0.901-0.833c1.326-1.343,1.496-3.247,1.496-4.98v-1.972h1.258l-0.018,2.941
				c0.153,0.374,0.715,0.935,1.105,1.189v-5.167h-3.398V407.486z M169.162,410.75c-0.085,0.986-0.237,1.836-0.646,2.635
				c-0.119,0.221-0.51,0.391-0.816,0.374c-0.629-0.017-1.258-0.884-1.802-1.785c-0.646,0.901-1.394,1.462-2.277,2.091
				c-0.408-0.17-0.68-0.442-1.173-0.697c1.224-0.833,2.192-1.598,2.821-2.601c-0.781-1.802-1.122-3.926-1.309-5.915l-1.054-0.017
				l-0.02,5.626l1.734-1.02v1.428l-2.55,1.598l-1.156-0.782c0.562-0.459,0.646-0.986,0.697-1.547v-6.527h2.261l-0.085-2.703
				l1.258,0.017c0,1.003,0.051,1.955,0.102,2.703l3.536-0.034l0.017,1.258h-3.468c0.17,1.717,0.307,2.89,0.799,4.419
				c0.562-1.292,0.816-2.482,0.952-4.148l1.156,0.714c-0.17,1.87-0.748,3.434-1.462,4.929c0.255,0.527,0.578,1.071,1.021,1.513
				c0.153-0.357,0.238-1.309,0.255-2.261L169.162,410.75z M167.53,403.525c-0.765-0.799-1.343-1.139-2.277-1.479l0.952-0.884
				c0.884,0.238,1.614,0.833,2.294,1.547L167.53,403.525z"/>
			<path fill="#FFFFFF" d="M186.095,413.027c-0.119,0.833-0.271,1.7-1.055,2.159l-0.492,0.153h-3.791
				c-0.884,0-1.326-0.493-1.462-1.071V411.6l-1.598,0.017c-0.17,1.445-1.19,2.924-2.736,3.57c-0.986,0.425-2.074,0.714-3.264,0.85
				l-0.782-1.343c2.532-0.221,3.043-0.34,4.437-1.275c0.697-0.459,0.985-1.19,1.104-1.819h-2.617v-4.114h9.281v4.114h-2.533v2.244
				c0.017,0.136,0.153,0.238,0.289,0.289h3.553c0.323-0.119,0.271-0.51,0.356-0.884c0.034-0.187,0.052-0.408,0.085-0.799
				L186.095,413.027z M176.422,405.837c-0.391-0.68-0.969-1.241-1.614-1.581l0.544-0.493h-3.196v-1.188h5.678
				c-0.391-0.408-0.799-0.816-1.274-1.088l1.122-0.68c0.544,0.459,1.139,1.021,1.428,1.751h5.592v1.241h-3.434l0.595,0.357
				c-0.306,0.612-0.662,1.241-1.036,1.7h4.861v1.156h-14.482v-1.173L176.422,405.837L176.422,405.837z M181.811,410.427v-1.683
				h-6.714v1.683H181.811z M179.465,405.871c0.459-0.714,1.003-1.598,1.173-2.057h-4.487c0.578,0.306,0.969,0.697,1.444,1.547
				l-0.611,0.476L179.465,405.871z"/>
			<path fill="#FFFFFF" d="M192.76,414.846l1.683,0.068c0.17-0.034,0.289-0.153,0.289-0.34v-2.583h-5.15v-1.275h5.15v-1.615h-6.442
				v-1.258h6.425v-1.309h-3.875c-0.392,0.306-1.071,0.731-1.615,0.935l-0.918-1.037c2.448-0.969,3.688-3.111,4.352-5.474
				l1.139,0.476c-0.051,0.357-0.152,0.697-0.289,0.986h5.354v1.105c-0.373,0.697-0.765,1.326-1.036,1.751h3.331v2.564h1.785v1.258
				h-1.768v2.907h-5.134V415c0,0.612-0.374,1.241-0.935,1.241l-1.904-0.017L192.76,414.846z M192.98,403.662
				c-0.289,0.595-0.731,1.241-1.02,1.615h4.352c0.407-0.544,0.73-1.003,1.07-1.615H192.98z M199.882,406.551h-3.842v1.275h3.824
				L199.882,406.551z M199.864,409.101h-3.808v1.615h3.808V409.101z"/>
			<path fill="#FFFFFF" d="M218.922,404.834c-0.085,3.536-0.272,5.881-0.936,9.06c-0.187,0.918-1.02,1.428-1.683,1.513
				c-1.241,0.17-2.277-0.188-3.434-0.51l-0.289-1.479c1.156,0.374,2.107,0.68,3.11,0.765c0.357,0.034,0.663-0.238,0.833-0.459
				c0.459-0.646,0.969-5.304,1.021-7.632l-4.267,0.017c-0.289,6.493-3.247,8.363-6.867,9.893l-0.97-1.241
				c2.976-1.104,6.239-2.414,6.477-8.652h-4.198v-1.258h4.249v-3.808h1.31l-0.018,3.808L218.922,404.834z"/>
			<path fill="#FFFFFF" d="M227.474,401.265c-0.442,1.36-1.088,2.805-1.666,3.995l-0.018,10.947l-1.291,0.017v-8.873
				c-0.204,0.306-0.612,0.884-1.395,1.734L222,408.302c2.022-2.074,3.434-4.946,4.267-7.598L227.474,401.265z M226.402,415.288
				c1.563-1.173,2.703-2.583,3.672-4.182l1.104,0.714c-0.935,1.7-2.073,3.093-3.79,4.419L226.402,415.288z M230.346,400.908
				l-0.017,3.313l3.162,0.034l0.017-3.349h1.309l0.018,3.298l1.938,0.017l-0.017,1.292h-1.938l0.018,3.706h2.413v1.258
				l-10.606,0.017l-0.018-1.275h2.38l0.018-3.706l-1.87,0.019l0.017-1.311l1.854,0.034l-0.018-3.332L230.346,400.908z
				 M230.346,405.48v3.739h3.111l0.017-3.706L230.346,405.48z M233.576,411.226c0.561,0.408,1.088,0.85,1.529,1.258
				c0.901,0.816,1.717,1.802,2.38,2.941c-0.408,0.255-0.629,0.51-1.071,0.765c-0.918-1.632-2.312-3.06-3.926-4.198L233.576,411.226z
				"/>
			<path fill="#FFFFFF" d="M239.034,415.152c1.479-1.292,2.039-3.009,2.158-4.726c0.137-1.802,0.153-4.521,0.137-7.021h6.204
				c-0.221-0.51-0.884-1.139-1.666-1.685l0.901-0.85c0.884,0.476,1.665,1.241,2.176,2.074l-0.442,0.459h5.474v1.188h-11.372
				c-0.034,1.955,0,4.896-0.221,6.579c-0.272,2.142-1.003,3.349-2.346,4.878L239.034,415.152z M254.026,415.356h-12.018l0.017-1.207
				h7.174c1.258-2.057,2.243-5.304,2.516-8.159l1.224,0.425c-0.306,3.4-1.359,6.29-2.295,7.734h3.383L254.026,415.356
				L254.026,415.356z M245.459,413.436c-0.663-3.23-1.495-4.232-2.651-5.881l1.156-0.544c1.376,1.734,2.294,3.586,2.736,5.694
				L245.459,413.436z M246.904,405.582c1.173,1.53,2.057,3.706,2.312,5.661l-1.258,0.612c-0.238-1.955-1.003-3.96-2.125-5.711
				L246.904,405.582z"/>
			<path fill="#FFFFFF" d="M261.405,413.299c-0.595,0.357-1.189,0.731-1.836,1.071c-0.867,0.459-1.292,0.697-1.733,0.918
				l-0.578-1.224c0.34-0.085,0.612-0.306,0.646-0.459v-3.451h-1.563v-1.258h1.563v-1.734h-0.356c-0.204,0.34-0.595,0.884-0.85,1.122
				l-1.003-0.782c1.614-1.853,2.277-3.926,2.635-6.374l1.173,0.544c-0.137,0.748-0.289,1.445-0.374,1.853h2.192l-0.019,1.275h-2.533
				c-0.187,0.425-0.323,0.833-0.493,1.105h3.298v1.258h-2.38v1.734h2.227v1.275h-2.227v2.873c0.663-0.34,1.292-0.646,2.21-1.156
				V413.299L261.405,413.299z M263.207,407.35l0.018,5.609c1.224,1.615,2.566,1.581,4.3,1.581h2.176
				c0.527,0,0.833-0.085,1.479-0.136l-0.425,1.36l-3.672-0.017c-1.462,0-3.179-0.238-4.301-1.547
				c-0.748,0.782-1.462,1.343-2.04,1.802l-0.833-1.02c0.697-0.51,1.598-1.292,2.023-1.751v-4.606h-1.428v-1.275H263.207
				L263.207,407.35z M262.629,405.735c-0.289-0.884-0.969-2.329-1.614-2.941l1.003-0.527c0.577,0.663,1.41,2.057,1.699,2.941
				L262.629,405.735z M270.432,402.931v1.275h-4.114c-0.187,0.833-0.696,2.142-1.002,2.89h1.291l0.018-1.921h1.292v1.921h2.72v1.258
				h-2.72l-0.018,1.666l2.89-0.017v1.292l-2.89-0.017v2.907h-1.292v-2.89l-2.991-0.017v-1.275h2.991v-1.649h-2.753v-1.037
				c0.526-1.139,1.088-2.533,1.206-3.11h-1.444v-1.292h1.666c0.085-0.442,0.102-0.816,0.136-1.649l1.224,0.391
				c-0.051,0.612-0.051,0.85-0.136,1.258L270.432,402.931z"/>
			<path fill="#FFFFFF" d="M281.635,401.656c1.751,2.176,4.029,4.146,6.938,4.998l-1.037,1.054
				c-1.173-0.391-2.192-0.986-2.957-1.496l0.017,0.697l-3.094-0.017l0.017,1.972h4.606l0.018,1.224l-4.641,0.017l0.017,4.08
				l6.086-0.017v1.241H274.14l-0.017-1.241l6.103,0.017v-4.097l-4.692,0.017l-0.017-1.241h4.709v-1.972l-3.094,0.017v-0.731
				c-0.833,0.544-1.904,1.156-3.094,1.7l-0.867-1.071c2.532-1.139,5.745-3.042,7.649-6.306l1.054,0.714L281.635,401.656z
				 M278.031,413.912c-0.459-1.122-0.985-2.057-1.955-2.958l1.156-0.544c0.714,0.561,1.717,2.091,2.04,2.975L278.031,413.912z
				 M283.794,405.667c-0.936-0.782-2.176-1.903-2.924-2.958c-0.73,0.918-1.938,2.21-3.009,2.924L283.794,405.667z M282.094,413.299
				c1.122-0.799,1.904-1.87,2.465-3.042l1.037,0.748c-0.544,1.173-1.273,2.261-2.346,3.094L282.094,413.299z"/>
			<path fill="#FFFFFF" d="M299.417,401.537v1.224h-9.315v-1.224H299.417z M297.445,408.693h-5.271v7.343h-1.224v-8.618h7.717v7.021
				c-0.051,0.561-0.425,1.054-0.899,1.241c-0.543,0.221-0.917,0.188-1.582,0.188l-0.442-1.207c0.714-0.034,1.037,0.17,1.462-0.034
				c0.356-0.17,0.238-0.68,0.238-1.377L297.445,408.693L297.445,408.693z M291.717,406.755v-3.297h6.153v3.297H291.717z
				 M297.037,411.106v1.224h-1.666v2.737h-1.189v-2.72h-1.564v-1.273h1.156c-0.271-0.595-0.833-1.258-1.411-1.513l0.884-0.578
				c0.578,0.34,1.275,1.02,1.53,1.632l-0.714,0.476l0.935,0.017c0.663-0.73,0.901-1.513,1.156-2.176l1.104,0.442
				c-0.306,0.527-0.646,1.343-1.036,1.75L297.037,411.106z M296.612,404.647h-3.654v0.952h3.654V404.647z M300.521,415.187
				c-0.407,0.119-0.526,0.153-1.005,0.323l-0.595-1.241c1.021-0.221,1.514-0.306,2.229-0.493v-3.111h-1.922v-6.306h1.922v-3.4h1.207
				v3.4h1.955v6.306h-1.955l0.018,2.788l0.985-0.238c-0.119-0.238-0.393-0.697-0.781-1.173l1.069-0.391
				c0.681,0.782,1.14,1.683,1.429,2.567l0.374,1.122l-1.274,0.442c-0.119-0.595-0.255-1.19-0.392-1.547L300.521,415.187z
				 M301.15,405.582h-0.73v3.842h0.73V405.582z M302.357,409.424h0.832v-3.842h-0.832V409.424z"/>
			<path fill="#FFFFFF" d="M313.493,401.724v12.97c0,0.476-0.681,1.122-1.444,1.122h-1.514c-0.136-0.442-0.289-0.782-0.492-1.309
				c0.765,0,1.309,0.068,1.854-0.017c0.137-0.034,0.289-0.153,0.322-0.493v-3.213l-2.313,0.017
				c-0.104,1.445-0.188,3.553-1.699,5.457l-1.054-0.799c1.309-1.768,1.461-3.637,1.461-5.881v-7.836L313.493,401.724z
				 M309.924,402.999v2.601h2.262v-2.618L309.924,402.999z M312.219,406.823l-2.295,0.017v2.703h2.261L312.219,406.823z
				 M315.89,408.642v7.564l-1.309,0.034v-14.5h6.815c-0.103,1.326-0.188,2.499-0.511,3.688c-0.151,0.595-0.78,1.021-1.343,1.054
				c-0.596,0.051-1.258-0.017-1.921-0.119l-0.374-1.36c0.799,0.119,1.428,0.272,2.073,0.289c0.137,0.017,0.204-0.068,0.271-0.255
				c0.137-0.425,0.308-1.547,0.34-2.04h-4.046l-0.017,4.386h5.541c-0.102,1.139-0.289,2.107-0.595,3.025
				c-0.308,0.918-0.63,1.819-1.07,2.601c0.662,0.815,1.598,1.428,2.651,2.125l-0.767,0.969c-1.122-0.663-1.785-1.173-2.55-1.955
				c-0.393,0.51-1.36,1.445-2.244,2.176c-0.323-0.306-0.544-0.578-0.884-0.937c1.02-0.799,1.666-1.411,2.261-2.244
				c-0.833-1.207-1.428-2.72-1.717-4.504L315.89,408.642L315.89,408.642z M317.776,408.625c0.118,1.02,0.663,2.448,1.122,3.247
				c0.544-1.088,0.899-2.295,1.139-3.247H317.776z"/>
			<path fill="#FFFFFF" d="M330.188,401.588c-0.188,0.425-0.355,0.714-0.406,0.815h6.355l0.019,1.156
				c-1.003,1.241-2.022,2.04-3.076,2.805c0.221,0.17,0.748,0.34,1.224,0.578c1.6,0.595,3.28,1.054,5.235,1.428l-0.833,1.139
				c-2.447-0.527-4.759-1.188-6.766-2.38c-1.938,1.292-4.946,2.159-7.563,2.567l-0.527-1.224c2.04-0.34,3.825-0.799,5.575-1.445
				c0.459-0.221,1.003-0.493,1.344-0.68c-0.729-0.561-1.699-1.139-2.295-1.955c-0.748,0.884-1.836,1.802-3.109,2.312l-0.971-1.173
				c2.618-0.969,3.876-2.482,4.676-4.573L330.188,401.588z M331.955,408.489c-0.018,0.646,0.034,0.935-0.018,1.309h4.826
				c-0.033,1.887-0.221,3.621-0.729,5.185c-0.152,0.527-0.611,0.986-1.104,1.122c-0.748,0.221-1.513-0.017-2.295-0.136l-0.322-1.479
				c0.9,0.255,1.548,0.51,2.243,0.408c0.393-0.255,0.425-0.731,0.511-1.224c0.152-0.918,0.341-2.091,0.373-2.635h-3.67
				c-0.271,1.462-1.41,2.856-2.789,3.757c-1.02,0.68-2.854,1.224-3.961,1.428c-0.235-0.425-0.459-0.765-0.68-1.275
				c2.159-0.34,4.165-0.85,5.456-2.55c0.357-0.459,0.544-0.986,0.646-1.377h-4.86v-1.224l5.065,0.017
				c0.051-0.408,0-0.731,0.051-1.496L331.955,408.489z M329.354,403.678c0.682,0.816,1.6,1.343,2.552,1.955
				c0.918-0.595,1.836-1.275,2.479-1.955H329.354z"/>
			<path fill="#FFFFFF" d="M347.238,412.824v1.309l-3.266,1.717l-0.78-1.105c0.493-0.272,0.646-0.68,0.646-1.139v-3.57h-2.396
				v-1.207h2.396v-1.7h-0.766c-0.373,0.51-0.747,0.85-1.41,1.428l-0.952-1.02c1.547-1.258,2.635-3.587,2.821-6.442l1.225,0.323
				c0.051,0.918-0.085,1.802-0.152,1.955h2.565v1.224h-2.872c-0.152,0.478-0.374,0.969-0.527,1.311H347v1.224h-1.836v1.683h2.125
				v1.224h-2.125v3.808L347.238,412.824z M348.189,416.206l-0.951-1.105c0.374-0.119,0.629-0.51,0.629-0.867v-12.426h6.355v7.462
				l-2.396-0.017c0.065,0.782,0.321,1.785,0.629,2.38c0.714-0.357,1.358-1.037,2.006-2.04l0.985,0.782
				c-0.73,1.071-1.614,1.802-2.465,2.277c0.596,1.037,1.921,1.819,3.434,2.21l-0.9,1.122c-1.003-0.255-1.836-0.782-2.565-1.394
				c-1.444-1.479-2.192-3.417-2.347-5.32h-1.409v5.218l2.564-0.867v1.275L348.189,416.206z M349.193,403.033v1.853h3.737v-1.853
				H349.193z M349.193,406.075v1.972h3.737v-1.972H349.193z"/>
			<path fill="#FFFFFF" d="M358.119,409.917c2.142-1.224,3.842-3.128,5.234-5.117l1.036,0.697c-0.477,0.867-1.443,2.006-2.073,2.771
				v7.836h-1.31v-6.493c-0.289,0.272-1.241,0.901-1.887,1.36L358.119,409.917z M358.34,405.242c1.785-1.241,3.162-2.771,4.301-4.556
				l1.004,0.782c-1.14,1.717-2.551,3.521-4.166,4.657L358.34,405.242z M366.125,414.71c0.867,0.068,1.615,0.068,2.346,0.051
				c0.188-0.051,0.374-0.17,0.374-0.408v-6.969h-4.352v-1.258l8.754,0.017v1.241l-3.025,0.017l-0.017,7.105
				c0,0.595-0.307,1.037-0.731,1.292c-0.459,0.255-2.071,0.238-2.938,0.204L366.125,414.71z M372.21,403.271h-7.309l-0.02-1.258
				l7.326-0.017L372.21,403.271L372.21,403.271z"/>
			<path fill="#FFFFFF" d="M383.313,410.274c-0.392-0.646-1.31-1.734-2.072-2.397l0.952-0.952c0.884,0.663,1.768,1.496,2.327,2.176
				L383.313,410.274z"/>
			<path fill="#FFFFFF" d="M391.745,415.05c0.085-0.697,0.17-0.986,0.408-1.462c0.459-0.918,1.238-1.802,2.464-2.805l0.562-0.459
				c2.243-1.836,3.095-2.992,3.095-4.147c0-1.224-0.97-2.108-2.295-2.108c-1.463,0-2.362,0.918-2.381,2.448l-1.528-0.17
				c0.202-2.278,1.599-3.519,3.942-3.519c2.262,0,3.81,1.377,3.81,3.382c0,1.445-0.853,2.737-2.992,4.539l-1.226,1.037
				c-1.003,0.85-1.409,1.292-1.75,1.836h5.982v1.428H391.745L391.745,415.05z"/>
			<path fill="#FFFFFF" d="M405.413,415.254c-1.581,0-2.788-0.833-3.4-2.363c-0.391-0.986-0.561-2.193-0.561-3.875
				c0-4.097,1.326-6.188,3.961-6.188s3.96,2.091,3.96,6.221C409.373,413.181,408.048,415.254,405.413,415.254z M407.401,405.582
				c-0.341-0.935-1.104-1.513-2.007-1.513c-1.666,0-2.414,1.564-2.414,4.963c0,1.513,0.152,2.669,0.441,3.468
				c0.34,0.952,1.104,1.53,1.989,1.53c0.884,0,1.647-0.578,1.988-1.53c0.288-0.782,0.44-1.955,0.44-3.451
				C407.844,407.554,407.707,406.415,407.401,405.582z"/>
			<path fill="#FFFFFF" d="M415.035,415.05v-9.519c-0.493,0.476-0.971,0.799-1.854,1.273c-0.544,0.289-0.694,0.357-1.139,0.527
				v-1.445c1.615-0.748,2.958-1.938,3.519-3.06h0.971v12.222L415.035,415.05L415.035,415.05z"/>
			<path fill="#FFFFFF" d="M424.504,415.254c-1.547,0-2.924-0.833-3.568-2.176c-0.459-0.952-0.646-2.091-0.646-3.723
				c0-4.267,1.496-6.527,4.352-6.527c1.938,0,3.214,1.122,3.47,3.025l-1.496,0.136c-0.17-1.258-0.852-1.921-1.974-1.921
				c-1.104,0-1.938,0.595-2.36,1.666c-0.309,0.782-0.51,1.904-0.51,2.805v0.238c0.271-0.425,0.405-0.578,0.713-0.833
				c0.63-0.493,1.429-0.782,2.242-0.782c2.059,0,3.588,1.683,3.588,3.927C428.313,413.521,426.73,415.254,424.504,415.254z
				 M424.419,408.472c-1.394,0-2.414,1.122-2.414,2.618c0,1.666,1.071,2.94,2.465,2.94c1.343,0,2.313-1.19,2.313-2.838
				C426.781,409.577,425.83,408.472,424.419,408.472z"/>
			<path fill="#FFFFFF" d="M444.954,413.231l-6.748-0.017v2.992h-1.275v-2.992l-6.766,0.017v-1.241l6.766,0.017v-1.224h-4.726
				l0.018-6.068l4.028-0.017v-3.688h1.292v1.36h6.527v1.241h-6.527v1.105h5.286l-0.017,6.068h-4.606v1.224l6.748-0.017V413.231
				L444.954,413.231z M433.497,407.095l8.04,0.019l-0.018-1.173l-8.008,0.017L433.497,407.095z M441.537,408.336h-8.023v1.207h8.023
				V408.336z"/>
			<path fill="#FFFFFF" d="M154.408,427.886l0.017-1.224h2.839l-0.018-2.125l-2.431,0.017v-1.258h2.448v-1.836l1.274,0.017
				l0.018,1.819l2.295,0.017l0.017,1.241l-2.312-0.017v2.125l2.787-0.018v1.24h-2.261v1.989h2.125l-0.017,1.241h-2.108v2.771
				c0.901,0.527,2.006,0.748,3.213,0.748h7.36l-0.748,1.226h-7.377c-2.04,0-3.74-1.021-4.964-2.295
				c-0.221,0.935-0.595,2.191-1.699,3.145l-0.901-0.833c1.326-1.343,1.496-3.247,1.496-4.979v-1.973h1.258l-0.018,2.941
				c0.153,0.374,0.715,0.935,1.105,1.188v-5.167H154.408L154.408,427.886z M169.162,431.148c-0.085,0.985-0.237,1.837-0.646,2.636
				c-0.119,0.221-0.51,0.391-0.816,0.374c-0.629-0.019-1.258-0.885-1.802-1.785c-0.646,0.9-1.394,1.462-2.277,2.091
				c-0.408-0.17-0.68-0.442-1.173-0.697c1.224-0.833,2.192-1.598,2.821-2.601c-0.781-1.802-1.122-3.926-1.309-5.916l-1.054-0.017
				l-0.02,5.626l1.734-1.021v1.429l-2.55,1.599l-1.156-0.782c0.562-0.459,0.646-0.986,0.697-1.547v-6.527h2.261l-0.085-2.703
				l1.258,0.019c0,1.003,0.051,1.955,0.102,2.703l3.536-0.034l0.017,1.258h-3.468c0.17,1.717,0.307,2.89,0.799,4.42
				c0.562-1.292,0.816-2.481,0.952-4.146l1.156,0.714c-0.17,1.87-0.748,3.434-1.462,4.929c0.255,0.527,0.578,1.071,1.021,1.513
				c0.153-0.355,0.238-1.309,0.255-2.261L169.162,431.148z M167.53,423.925c-0.765-0.799-1.343-1.139-2.277-1.479l0.952-0.884
				c0.884,0.236,1.614,0.832,2.294,1.547L167.53,423.925z"/>
			<path fill="#FFFFFF" d="M186.095,433.427c-0.119,0.833-0.271,1.7-1.055,2.159l-0.492,0.153h-3.791
				c-0.884,0-1.326-0.493-1.462-1.071V432l-1.598,0.017c-0.17,1.445-1.19,2.926-2.736,3.569c-0.986,0.425-2.074,0.714-3.264,0.85
				l-0.782-1.343c2.532-0.221,3.043-0.34,4.437-1.273c0.697-0.459,0.985-1.19,1.104-1.819h-2.617v-4.114h9.281V432h-2.533v2.244
				c0.017,0.136,0.153,0.238,0.289,0.289h3.553c0.323-0.119,0.271-0.51,0.356-0.885c0.034-0.188,0.052-0.407,0.085-0.8
				L186.095,433.427z M176.422,426.237c-0.391-0.682-0.969-1.241-1.614-1.581l0.544-0.493h-3.196v-1.189h5.678
				c-0.391-0.406-0.799-0.814-1.274-1.088l1.122-0.68c0.544,0.459,1.139,1.02,1.428,1.751h5.592v1.241h-3.434l0.595,0.355
				c-0.306,0.612-0.662,1.241-1.036,1.7h4.861v1.156h-14.482v-1.173H176.422L176.422,426.237z M181.811,430.827v-1.683h-6.714v1.683
				H181.811z M179.465,426.271c0.459-0.716,1.003-1.6,1.173-2.059h-4.487c0.578,0.307,0.969,0.697,1.444,1.547l-0.611,0.478
				L179.465,426.271z"/>
			<path fill="#FFFFFF" d="M192.76,435.246l1.683,0.068c0.17-0.034,0.289-0.153,0.289-0.342v-2.583h-5.15v-1.273h5.15v-1.615h-6.442
				v-1.258h6.425v-1.311h-3.875c-0.392,0.308-1.071,0.731-1.615,0.937l-0.918-1.037c2.448-0.969,3.688-3.111,4.352-5.474
				l1.139,0.476c-0.051,0.357-0.152,0.697-0.289,0.986h5.354v1.104c-0.373,0.697-0.765,1.326-1.036,1.751h3.331v2.567h1.785v1.258
				h-1.768v2.907h-5.134v2.992c0,0.61-0.374,1.239-0.935,1.239l-1.904-0.017L192.76,435.246z M192.98,424.063
				c-0.289,0.596-0.731,1.24-1.02,1.614h4.352c0.407-0.544,0.73-1.003,1.07-1.614H192.98z M199.882,426.951h-3.842v1.273h3.824
				L199.882,426.951z M199.864,429.501h-3.808v1.615h3.808V429.501z"/>
			<path fill="#FFFFFF" d="M218.922,425.234c-0.085,3.535-0.272,5.881-0.936,9.06c-0.187,0.918-1.02,1.428-1.683,1.513
				c-1.241,0.17-2.277-0.187-3.434-0.51l-0.289-1.479c1.156,0.374,2.107,0.68,3.11,0.765c0.357,0.034,0.663-0.238,0.833-0.459
				c0.459-0.646,0.969-5.304,1.021-7.632l-4.267,0.017c-0.289,6.493-3.247,8.363-6.867,9.895l-0.97-1.241
				c2.976-1.105,6.239-2.414,6.477-8.652h-4.198v-1.258h4.249v-3.808h1.31l-0.018,3.808L218.922,425.234z"/>
			<path fill="#FFFFFF" d="M227.898,426.662v1.258h-2.074v3.621c0.442-0.085,1.377-0.391,2.228-0.595v1.258l-5.406,1.496
				c-0.271-0.442-0.492-0.782-0.833-1.326c1.071-0.136,1.973-0.306,2.737-0.51v-3.961h-2.04v-1.226h2.022v-2.788h-2.229v-1.224
				h5.763v1.207h-2.244v2.788L227.898,426.662L227.898,426.662z M232.896,424.18c0.085,3.111-0.306,6-1.666,8.448
				c-0.441,0.782-1.07,1.513-1.818,2.142c-0.782,0.663-1.615,1.189-2.584,1.685l-1.003-1.054c1.615-0.731,3.179-1.633,4.063-3.096
				c0.697-1.173,1.19-2.446,1.445-3.791c0.255-1.394,0.289-2.753,0.289-4.453L232.896,424.18z M235.803,422.056l0.017,9.266
				c-0.459,0.032-0.833,0.032-1.274,0.017v-8.04h-4.556v8.006h-1.275v-9.247L235.803,422.056L235.803,422.056z M237.061,433.614
				c-0.221,1.054-0.374,2.227-1.343,2.227h-2.074c-0.561,0-1.155-0.561-1.155-1.188v-4.558h1.291v4.334
				c0.034,0.085,0.204,0.204,0.323,0.204h1.275c0.34-0.051,0.237-0.459,0.374-0.799l0.067-0.833L237.061,433.614z"/>
			<path fill="#FFFFFF" d="M247.635,422.056c1.751,2.178,4.029,4.147,6.938,4.998l-1.037,1.054
				c-1.173-0.391-2.192-0.984-2.957-1.494l0.017,0.695l-3.094-0.017l0.017,1.972h4.606l0.018,1.226l-4.641,0.017l0.017,4.08
				l6.086-0.017v1.239H240.14l-0.017-1.239l6.103,0.017v-4.097l-4.692,0.017l-0.017-1.241h4.709v-1.972l-3.094,0.017v-0.729
				c-0.833,0.544-1.904,1.156-3.094,1.7l-0.867-1.071c2.532-1.139,5.745-3.043,7.649-6.307l1.054,0.714L247.635,422.056z
				 M244.031,434.313c-0.459-1.123-0.985-2.058-1.955-2.959l1.156-0.543c0.714,0.562,1.717,2.092,2.04,2.976L244.031,434.313z
				 M249.794,426.067c-0.936-0.782-2.176-1.904-2.924-2.958c-0.73,0.918-1.938,2.21-3.009,2.924L249.794,426.067z M248.094,433.699
				c1.122-0.799,1.904-1.87,2.465-3.042l1.037,0.748c-0.544,1.173-1.273,2.261-2.346,3.093L248.094,433.699z"/>
			<path fill="#FFFFFF" d="M256.306,424.656c1.377-0.885,2.142-2.125,2.771-3.484c0.408,0.188,0.697,0.34,1.105,0.527
				c-0.188,0.425-0.374,0.799-0.425,0.935h4.402v1.207l-2.566,0.019c0.067,0.085,0.306,0.595,0.577,1.003l-1.155,0.629
				c-0.289-0.681-0.578-1.19-0.969-1.632h-0.986c-0.408,0.561-0.918,1.121-1.785,1.717L256.306,424.656z M257.003,425.608h6.238
				c-0.119-0.238-0.459-0.663-0.969-1.156l1.224-0.392c0.544,0.545,0.952,1.24,1.156,1.548h6.085v3.193l-1.292-0.017v-1.973h-11.15
				l-0.018,2.058l-1.274-0.019V425.608L257.003,425.608z M260.572,436.605h-1.343l0.017-8.925h9.146l0.017,3.468l-7.87,0.018v0.85
				h8.618v4.539h-1.309v-1.003h-7.292L260.572,436.605z M260.538,429.943h6.579l-0.018-1.056h-6.562L260.538,429.943
				L260.538,429.943z M260.556,433.257l0.017,1.122l7.275-0.017v-1.141L260.556,433.257z M268.493,423.771
				c0.103,0.103,0.493,0.511,0.782,1.036c-0.374,0.238-0.714,0.408-1.155,0.597c-0.323-0.682-0.663-1.207-1.105-1.615h-1.122
				c-0.221,0.374-0.544,0.9-1.02,1.309c-0.357-0.271-0.629-0.44-1.003-0.729c0.918-0.986,1.394-1.974,1.683-3.229l1.139,0.426
				c-0.067,0.441-0.17,0.815-0.237,1.004h4.641v1.207h-2.603V423.771z"/>
			<path fill="#FFFFFF" d="M273.969,434.362c-0.354-0.323-0.68-0.578-1.122-1.021c1.054-0.306,1.836-0.629,2.567-0.899v-3.929
				h-1.734l0.02-1.207l1.683,0.019l0.017-3.366l-2.04,0.017v-1.239l5.27,0.017v1.207h-1.887l-0.017,3.366l1.666-0.019v1.207h-1.666
				v3.436c0.493-0.188,1.224-0.527,2.057-0.833v1.273L273.969,434.362z M287.296,422.293l-0.034,7.395h-3.451v1.634h3.349v1.224
				h-3.383v1.955h4.539v1.207h-10.318V434.5h4.471l0.02-1.955h-3.4v-1.224h3.383l0.019-1.634h-3.521v-7.41L287.296,422.293z
				 M282.468,425.319l0.018-1.804l-2.228-0.017v1.819L282.468,425.319L282.468,425.319z M280.258,426.526v1.954h2.21l0.018-1.973
				L280.258,426.526z M283.794,426.543v1.921l2.192,0.017v-1.92L283.794,426.543z M283.828,425.336h2.176l0.033-1.819l-2.227-0.017
				L283.828,425.336z"/>
			<path fill="#FFFFFF" d="M296.238,433.224v1.311l-3.264,1.717l-0.782-1.104c0.493-0.271,0.646-0.681,0.646-1.14v-3.569h-2.397
				v-1.207h2.397v-1.699h-0.766c-0.373,0.51-0.747,0.85-1.41,1.428l-0.952-1.02c1.547-1.26,2.635-3.589,2.821-6.442l1.225,0.323
				c0.051,0.918-0.085,1.802-0.153,1.955h2.566v1.224h-2.872c-0.153,0.476-0.374,0.969-0.527,1.309H296v1.226h-1.836v1.683h2.125
				v1.226h-2.125v3.808L296.238,433.224z M297.19,436.605l-0.952-1.104c0.374-0.119,0.629-0.51,0.629-0.867v-12.426h6.355v7.462
				l-2.396-0.017c0.065,0.782,0.321,1.784,0.629,2.38c0.714-0.357,1.358-1.037,2.006-2.04l0.985,0.782
				c-0.73,1.069-1.614,1.802-2.465,2.275c0.596,1.037,1.921,1.819,3.434,2.21l-0.9,1.122c-1.003-0.255-1.836-0.781-2.565-1.394
				c-1.444-1.479-2.192-3.417-2.347-5.32h-1.409v5.218l2.564-0.865v1.273L297.19,436.605z M298.193,423.433v1.854h3.737v-1.854
				H298.193z M298.193,426.475v1.974h3.737v-1.974H298.193z"/>
			<path fill="#FFFFFF" d="M307.119,430.317c2.142-1.226,3.842-3.128,5.234-5.117l1.036,0.696c-0.477,0.866-1.443,2.007-2.073,2.771
				v7.836h-1.31v-6.493c-0.289,0.272-1.241,0.901-1.887,1.36L307.119,430.317z M307.34,425.642c1.785-1.239,3.162-2.771,4.301-4.556
				l1.004,0.782c-1.14,1.717-2.551,3.519-4.166,4.657L307.34,425.642z M315.125,435.11c0.867,0.066,1.615,0.066,2.346,0.051
				c0.188-0.051,0.374-0.17,0.374-0.408v-6.969h-4.352v-1.258l8.754,0.017v1.241l-3.025,0.017l-0.017,7.105
				c0,0.595-0.307,1.037-0.731,1.292c-0.459,0.255-2.071,0.237-2.938,0.204L315.125,435.11z M321.21,423.67h-7.309l-0.02-1.258
				l7.326-0.018L321.21,423.67L321.21,423.67z"/>
		</g>
	</g>
</g>
</svg>
