<?xml version="1.0" encoding="utf-8"?>
<!-- Generator: Adobe Illustrator 16.0.0, SVG Export Plug-In . SVG Version: 6.00 Build 0)  -->
<!DOCTYPE svg PUBLIC "-//W3C//DTD SVG 1.1//EN" "http://www.w3.org/Graphics/SVG/1.1/DTD/svg11.dtd">
<svg version="1.1" id="Layer_1" xmlns="http://www.w3.org/2000/svg" xmlns:xlink="http://www.w3.org/1999/xlink" x="0px" y="0px"
	 width="768px" height="1024px" viewBox="0 0 768 1024" enable-background="new 0 0 768 1024" xml:space="preserve">
<g>
	<rect x="465.11" y="284.64" opacity="0.698" fill="#3490C1" enable-background="new    " width="162.219" height="162.22"/>
	<g>
		<g>
			<path fill="#FFFFFF" d="M486.82,324.727h-4.972v-15.892h-6.159v-3.746c3.465,0.07,6.649-1.12,7.176-4.865h3.955V324.727
				L486.82,324.727z"/>
			<path fill="#FFFFFF" d="M503.48,319.057h-10.361v-4.551l10.641-14.281h4.445v14.736h3.256v4.096h-3.256v5.67h-4.725V319.057z
				 M503.48,306.455h-0.105l-6.336,8.506h6.441V306.455z"/>
		</g>
	</g>
	<g>
		<path fill="#FFFFFF" d="M481.383,360.884l-5.765-9.945l5.699-9.989h1.188l-5.633,9.989l5.699,9.945H481.383z M484.311,360.884
			l-5.634-9.945l5.566-9.989h1.255l-5.655,9.989l5.655,9.945H484.311z"/>
		<path fill="#FFFFFF" d="M490.071,354.965v-9.748h7.193l-0.021-4.027h1.76l-0.044,4.005l7.173,0.021v9.659h-1.738v-1.496h-5.435
			l0.044,7.415h-1.738l-0.021-7.415h-5.392l-0.043,1.584L490.071,354.965L490.071,354.965z M497.244,346.824h-5.436v4.973h5.456
			L497.244,346.824z M504.352,346.824h-5.348v4.951h5.369L504.352,346.824z"/>
		<path fill="#FFFFFF" d="M528.684,342.027v18.659h-1.562l-0.022-1.541h-13.422v1.519h-1.649l0.021-18.637L528.684,342.027
			L528.684,342.027z M513.7,357.605h13.378v-14.016H513.7V357.605z M526.55,356.043h-12.41v-1.563h5.304v-3.718h-4.356v-1.519h4.379
			v-2.816h-5.127v-1.496h11.992v1.518h-5.281v2.771h4.576v1.563h-4.599v3.718h5.522V356.043z M524.503,354.349
			c-0.856-1.122-1.628-1.893-2.728-2.53l1.078-0.858c0.924,0.55,2.111,1.408,2.815,2.552L524.503,354.349z"/>
		<path fill="#FFFFFF" d="M535.105,357.54c0.352-0.176,0.703-0.638,0.703-0.924l0.021-7.107h-2.112v-1.628h3.896v8.339l2.574-1.386
			v1.848l-4.093,2.267L535.105,357.54z M535.545,341.829c1.232,0.792,2.201,1.563,3.213,2.729l-1.275,1.188
			c-0.881-1.188-1.87-2.002-3.146-2.75L535.545,341.829z M552.048,344.25h-4.577v5.479h3.939v1.562h-3.939v6.997h5.215v1.606
			h-14.037v-1.628h2.685v-10.408h1.673v10.43l2.86,0.022l-0.022-14.06h-5.853v-1.584h12.058L552.048,344.25L552.048,344.25z"/>
		<path fill="#FFFFFF" d="M570.285,350.455c1.363,1.562,3.212,2.926,5.697,3.322l-0.989,1.518c-1.034-0.066-2.618-0.946-3.564-1.65
			c-0.153,1.936-0.396,3.477-0.748,5.126c-0.22,0.968-1.077,1.541-2.046,1.563c-1.145,0.044-1.826-0.22-2.927-0.374l-0.396-1.672
			c1.274,0.264,2.178,0.594,3.189,0.462c0.55,0.022,0.682-0.616,0.836-1.386c0.242-1.078,0.352-2.288,0.44-3.278h-3.478
			c-0.507,2.86-1.849,5.853-8.538,6.491l-0.726-1.672c5.017-0.044,7.283-2.156,7.635-4.841l-2.771,0.022l-0.021-1.452
			c-1.299,1.078-2.751,1.958-4.423,2.684l-0.968-1.452c2.838-1.254,4.246-2.486,5.324-3.432l-4.246,0.022v-1.606h5.565
			c0.506-0.616,0.836-1.122,1.034-1.65l-5.347-0.022v-1.584h5.896c0.44-1.342,0.616-2.949,0.639-4.643l1.65,0.11
			c0,1.672-0.198,3.278-0.507,4.511l6.932,0.021v1.584h-7.415c-0.285,0.616-0.527,1.232-0.813,1.672h9.438v1.606L570.285,350.455
			L570.285,350.455z M560.031,341.653c1.231,0.264,2.839,1.694,3.563,2.596l-1.342,1.034c-0.969-1.21-2.024-2.002-3.477-2.574
			L560.031,341.653z M569.955,352.457c-0.44-0.396-1.254-1.188-1.893-2.002h-4.006c-0.594,0.726-1.23,1.408-1.936,2.024
			L569.955,352.457z M572.705,342.599c-0.88,1.188-1.87,2.245-3.168,2.905l-1.211-1.232c1.123-0.418,2.486-1.606,3.19-2.729
			L572.705,342.599z"/>
		<path fill="#FFFFFF" d="M582.537,347h-3.41v-1.628h3.41v-4.048h1.761v4.048h2.992V347h-2.992v4.026l2.838-0.99v1.672l-2.838,1.012
			v5.897c0,0.814-0.065,1.342-0.793,1.782c-0.792,0.484-2.244,0.132-3.278-0.044l-0.55-1.716c1.122,0.198,1.694,0.308,2.442,0.352
			c0.33,0.044,0.418-0.242,0.418-0.616v-5.039l-3.08,1.122l-0.814-1.694l3.896-1.254L582.537,347L582.537,347z M597.213,360.752
			c-1.43-0.792-2.771-2.002-3.432-2.816c-0.639,1.056-1.673,1.914-2.905,2.882l-0.88-0.902l-0.021,0.968h-1.761v-18.769h8.229
			c-0.066,1.76-0.286,3.652-0.771,4.687c-0.242,0.528-0.813,1.012-1.408,1.1c-0.857,0.11-1.672,0.066-2.685-0.198l-0.418-1.694
			c1.078,0.264,1.629,0.33,2.354,0.33c0.484,0,0.64-0.198,0.814-0.748c0.198-0.66,0.286-1.298,0.308-1.87h-4.664v5.192h6.646
			c-0.066,2.882-0.792,5.281-1.938,7.481c0.858,1.232,2.466,2.31,3.697,3.08L597.213,360.752z M589.975,359.256
			c1.013-0.638,2.068-1.563,2.795-2.838c-0.946-1.782-1.563-3.785-1.871-5.875h-0.924V359.256z M592.526,350.521
			c0.177,1.43,0.704,3.19,1.231,4.313c0.528-1.034,1.078-3.037,1.122-4.291L592.526,350.521z"/>
		<path fill="#FFFFFF" d="M602.447,360.884h-1.188l5.654-9.945l-5.654-9.989h1.254l5.566,9.989L602.447,360.884z M605.374,360.884
			h-1.188l5.699-9.945l-5.633-9.989h1.188l5.699,9.989L605.374,360.884z"/>
	</g>
	<g>
		<path fill="#FFFFFF" d="M482.48,381.256c1.752,2.176,4.029,4.147,6.937,4.998l-1.037,1.054c-1.173-0.391-2.192-0.986-2.957-1.496
			l0.017,0.697l-3.094-0.017l0.018,1.972h4.605l0.019,1.224l-4.642,0.017l0.018,4.08l6.086-0.017v1.241h-13.463l-0.018-1.241
			l6.104,0.017v-4.097l-4.692,0.017l-0.017-1.241h4.709v-1.972l-3.094,0.017v-0.731c-0.834,0.544-1.904,1.156-3.095,1.7
			l-0.866-1.071c2.531-1.139,5.744-3.043,7.648-6.307l1.054,0.714L482.48,381.256z M478.878,393.512
			c-0.459-1.122-0.985-2.057-1.955-2.958l1.156-0.544c0.714,0.562,1.717,2.091,2.04,2.975L478.878,393.512z M484.641,385.268
			c-0.936-0.782-2.176-1.904-2.924-2.958c-0.729,0.918-1.938,2.21-3.009,2.924L484.641,385.268z M482.939,392.899
			c1.123-0.799,1.904-1.87,2.466-3.042l1.037,0.748c-0.544,1.173-1.275,2.261-2.347,3.093L482.939,392.899z"/>
		<path fill="#FFFFFF" d="M495.912,381.918c0.034,0.816-0.136,1.547-0.255,2.04h2.616l0.019-3.417h1.377l-0.018,3.417h4.743v1.292
			h-4.727v3.247l6.374-0.017v1.309h-6.374v6.017h-1.395l0.018-6.017h-6.833l0.017-1.292h6.816l-0.018-3.264l-3.11,0.017
			c-0.544,0.969-0.9,1.479-1.955,2.805c-0.459-0.17-0.815-0.459-1.274-0.697c1.377-1.75,2.5-2.583,2.702-5.898L495.912,381.918z"/>
		<path fill="#FFFFFF" d="M508.814,393.563c-0.355-0.323-0.68-0.578-1.121-1.02c1.054-0.306,1.836-0.629,2.566-0.901v-3.927h-1.733
			l0.018-1.207l1.683,0.017l0.018-3.366l-2.04,0.017v-1.241l5.27,0.017v1.207h-1.887l-0.017,3.366l1.666-0.017v1.207h-1.666v3.434
			c0.492-0.187,1.224-0.527,2.057-0.833v1.275L508.814,393.563z M522.143,381.494l-0.033,7.395h-3.451v1.632h3.349v1.224h-3.383
			v1.955h4.539v1.207h-10.318V393.7h4.472l0.018-1.955h-3.4v-1.224h3.384l0.018-1.632h-3.521v-7.412L522.143,381.494z
			 M517.314,384.52l0.018-1.802l-2.229-0.017v1.819H517.314z M515.104,385.726v1.955h2.211l0.018-1.972L515.104,385.726z
			 M518.641,385.743v1.921l2.192,0.017v-1.921L518.641,385.743z M518.675,384.537h2.177l0.032-1.819l-2.227-0.017L518.675,384.537z"
			/>
		<path fill="#FFFFFF" d="M524.813,394.701c2.295-1.156,3.265-3.195,3.265-5.881v-4.946h1.274v4.98c0,2.703-0.781,5.235-3.723,6.986
			L524.813,394.701z M525.9,381.613h5.693v9.553h-1.273v-8.346h-3.146v8.313H525.9V381.613z M529.725,391.642
			c0.901,0.629,2.006,1.751,2.721,3.009l-1.088,0.85c-0.611-1.258-1.14-1.955-2.432-3.043L529.725,391.642z M534.705,395.755
			l-0.492-1.36c0.9,0.034,1.479,0.051,2.091,0.051c0.188-0.034,0.255-0.119,0.255-0.442v-8.533l-0.221,0.017
			c-0.188,3.128-1.156,5.796-3.842,8.363l-1.055-0.986c1.24-1.173,2.039-2.193,2.806-3.74c0.562-1.139,0.765-2.431,0.832-3.655
			h-3.161v-1.258h4.641v-3.604h1.325v3.604h1.888v1.258h-1.888v9.009c0,0.629-0.391,1.275-1.139,1.275L534.705,395.755
			L534.705,395.755z"/>
		<path fill="#FFFFFF" d="M548.085,392.424v1.309l-3.264,1.717l-0.782-1.105c0.493-0.271,0.646-0.68,0.646-1.139v-3.57h-2.397
			v-1.207h2.397v-1.7h-0.767c-0.373,0.51-0.747,0.85-1.41,1.428l-0.952-1.021c1.547-1.258,2.636-3.587,2.821-6.441l1.226,0.323
			c0.051,0.918-0.086,1.802-0.153,1.955h2.565v1.224h-2.871c-0.153,0.476-0.375,0.969-0.527,1.309h3.229v1.224h-1.836v1.683h2.125
			v1.224h-2.125v3.809L548.085,392.424z M549.037,395.806l-0.952-1.105c0.374-0.119,0.629-0.51,0.629-0.867v-12.426h6.357v7.462
			l-2.396-0.017c0.067,0.782,0.322,1.785,0.629,2.38c0.714-0.357,1.359-1.037,2.007-2.04l0.984,0.782
			c-0.73,1.071-1.614,1.802-2.465,2.277c0.596,1.037,1.921,1.819,3.434,2.21l-0.899,1.122c-1.003-0.255-1.836-0.782-2.567-1.394
			c-1.443-1.479-2.191-3.417-2.346-5.32h-1.41v5.218l2.566-0.867v1.275L549.037,395.806z M550.04,382.633v1.853h3.739v-1.853H550.04
			z M550.04,385.675v1.972h3.739v-1.972H550.04z"/>
		<path fill="#FFFFFF" d="M558.966,389.517c2.143-1.224,3.842-3.128,5.235-5.117l1.037,0.697c-0.478,0.867-1.445,2.006-2.074,2.771
			v7.836h-1.309v-6.493c-0.289,0.272-1.241,0.901-1.888,1.36L558.966,389.517z M559.188,384.842
			c1.784-1.241,3.161-2.771,4.301-4.556l1.003,0.782c-1.14,1.717-2.55,3.519-4.165,4.657L559.188,384.842z M566.972,394.311
			c0.867,0.068,1.615,0.068,2.347,0.051c0.188-0.051,0.374-0.17,0.374-0.408v-6.969h-4.353v-1.258l8.754,0.017v1.241l-3.024,0.017
			l-0.018,7.105c0,0.595-0.307,1.037-0.73,1.292c-0.459,0.255-2.073,0.238-2.94,0.204L566.972,394.311z M573.057,382.871h-7.309
			l-0.018-1.258l7.325-0.018L573.057,382.871L573.057,382.871z"/>
		<path fill="#FFFFFF" d="M590.72,389.874v1.241h-5.523c0.782,1.258,2.702,2.618,6.12,3.4l-0.937,1.139
			c-3.757-1.037-6-2.941-6.544-4.573h-0.17c-1.564,3.927-5.508,4.284-7.225,4.573l-0.833-1.122c2.277-0.425,5.627-1.037,6.577-3.417
			h-6.051v-1.241h6.748l0.357-1.156l1.273,0.153l-0.271,1.003H590.72z M581.388,389.296h-1.325v-2.975
			c-0.951,0.782-2.243,1.7-3.28,2.295l-0.867-1.258c1.174-0.544,2.891-1.717,4.131-2.566v-4.25h1.31L581.388,389.296z
			 M576.917,381.341c0.885,0.629,1.836,1.666,2.432,2.737l-1.021,1.003c-0.408-1.02-1.343-2.159-2.295-2.958L576.917,381.341z
			 M584.788,384.078c0.492,0.357,1.121,0.884,1.495,1.411c0.596-0.493,1.411-1.258,2.176-2.414h-3.62
			c-0.51,0.748-1.581,1.989-2.329,2.431l-1.003-0.969c1.31-0.816,2.432-2.006,3.213-4.148l1.14,0.476
			c-0.067,0.306-0.238,0.714-0.408,1.003h4.437l0.019,1.224c-1.462,2.805-3.688,4.708-7.514,5.575l-0.851-1.173
			c1.326-0.238,2.754-0.595,3.808-1.343c-0.492-0.527-0.951-0.969-1.513-1.275L584.788,384.078z"/>
		<path fill="#FFFFFF" d="M601.159,389.874c-0.393-0.646-1.311-1.734-2.074-2.397l0.952-0.952c0.884,0.663,1.768,1.496,2.328,2.176
			L601.159,389.874z"/>
		<path fill="#FFFFFF" d="M482.48,401.656c1.752,2.176,4.029,4.146,6.937,4.998l-1.037,1.054c-1.173-0.391-2.192-0.986-2.957-1.496
			l0.017,0.697l-3.094-0.017l0.018,1.972h4.605l0.019,1.224l-4.642,0.017l0.018,4.08l6.086-0.017v1.241h-13.463l-0.018-1.241
			l6.104,0.017v-4.097l-4.692,0.017l-0.017-1.241h4.709v-1.972l-3.094,0.017v-0.731c-0.834,0.544-1.904,1.156-3.095,1.7
			l-0.866-1.071c2.531-1.139,5.744-3.042,7.648-6.306l1.054,0.714L482.48,401.656z M478.878,413.912
			c-0.459-1.122-0.985-2.057-1.955-2.958l1.156-0.544c0.714,0.561,1.717,2.091,2.04,2.975L478.878,413.912z M484.641,405.667
			c-0.936-0.782-2.176-1.903-2.924-2.958c-0.729,0.918-1.938,2.21-3.009,2.924L484.641,405.667z M482.939,413.299
			c1.123-0.799,1.904-1.87,2.466-3.042l1.037,0.748c-0.544,1.173-1.275,2.261-2.347,3.094L482.939,413.299z"/>
		<path fill="#FFFFFF" d="M495.912,402.318c0.034,0.816-0.136,1.547-0.255,2.04h2.616l0.019-3.417h1.377l-0.018,3.417h4.743v1.292
			h-4.727v3.247l6.374-0.017v1.309h-6.374v6.017h-1.395l0.018-6.017h-6.833l0.017-1.292h6.816l-0.018-3.264l-3.11,0.017
			c-0.544,0.969-0.9,1.479-1.955,2.805c-0.459-0.17-0.815-0.459-1.274-0.697c1.377-1.75,2.5-2.583,2.702-5.898L495.912,402.318z"/>
		<path fill="#FFFFFF" d="M508.814,413.962c-0.355-0.323-0.68-0.578-1.121-1.02c1.054-0.306,1.836-0.629,2.566-0.901v-3.926h-1.733
			l0.018-1.207l1.683,0.017l0.018-3.366l-2.04,0.017v-1.241l5.27,0.017v1.207h-1.887l-0.017,3.366l1.666-0.017v1.207h-1.666v3.434
			c0.492-0.187,1.224-0.527,2.057-0.833v1.275L508.814,413.962z M522.143,401.894l-0.033,7.395h-3.451v1.632h3.349v1.224h-3.383
			v1.955h4.539v1.207h-10.318V414.1h4.472l0.018-1.955h-3.4v-1.224h3.384l0.018-1.632h-3.521v-7.412L522.143,401.894z
			 M517.314,404.919l0.018-1.802l-2.229-0.017v1.819H517.314z M515.104,406.126v1.955h2.211l0.018-1.972L515.104,406.126z
			 M518.641,406.143v1.921l2.192,0.017v-1.921L518.641,406.143z M518.675,404.937h2.177l0.032-1.819l-2.227-0.017L518.675,404.937z"
			/>
		<path fill="#FFFFFF" d="M524.813,415.101c2.295-1.156,3.265-3.195,3.265-5.881v-4.946h1.274v4.98c0,2.703-0.781,5.235-3.723,6.986
			L524.813,415.101z M525.9,402.013h5.693v9.553h-1.273v-8.346h-3.146v8.313H525.9V402.013z M529.725,412.042
			c0.901,0.629,2.006,1.751,2.721,3.009l-1.088,0.85c-0.611-1.258-1.14-1.955-2.432-3.043L529.725,412.042z M534.705,416.155
			l-0.492-1.36c0.9,0.034,1.479,0.051,2.091,0.051c0.188-0.034,0.255-0.119,0.255-0.441v-8.533l-0.221,0.017
			c-0.188,3.128-1.156,5.796-3.842,8.363l-1.055-0.986c1.24-1.173,2.039-2.193,2.806-3.74c0.562-1.139,0.765-2.431,0.832-3.655
			h-3.161v-1.258h4.641v-3.604h1.325v3.604h1.888v1.258h-1.888v9.009c0,0.629-0.391,1.275-1.139,1.275L534.705,416.155
			L534.705,416.155z"/>
		<path fill="#FFFFFF" d="M543.835,407.112h3.315c-0.204-0.51-1.056-1.445-1.564-1.836l0.816-0.68
			c0.525,0.306,1.613,1.326,2.142,2.125l-0.578,0.392l2.193,0.034c0.458-0.442,1.343-1.581,1.717-2.533l1.121,0.612
			c-0.356,0.714-0.935,1.513-1.274,1.887h4.487v1.173h-11.117l0.019,3.11c0.017,2.414-1.344,3.944-2.636,4.726l-0.952-0.969
			c1.123-0.612,2.313-1.938,2.313-4.131L543.835,407.112L543.835,407.112z M550.159,403.236l6.034,0.034v1.173h-13.82v-1.156h6.834
			c-0.271-0.493-0.969-1.36-1.649-1.853l0.884-0.714c0.697,0.578,1.479,1.224,2.159,2.244L550.159,403.236z"/>
		<path fill="#FFFFFF" d="M564.439,416.172V415h-3.162v1.241l-1.275-0.034v-7.632h5.712l-0.017,7.599h-1.258V416.172z
			 M561.277,413.792l3.145-0.017v-3.995h-3.145V413.792z M571.307,401.673l-0.018,5.558h-9.638v-5.575L571.307,401.673z
			 M570.186,402.761l-7.378-0.034l0.018,3.434h7.343L570.186,402.761z M568.535,416.121h-1.291v-7.598h5.813v7.564h-1.291v-1.173
			l-3.229,0.017L568.535,416.121L568.535,416.121z M571.782,409.73h-3.247v3.995l3.247-0.017V409.73z"/>
		<path fill="#FFFFFF" d="M590.72,410.274v1.241h-5.523c0.782,1.258,2.702,2.618,6.12,3.399l-0.937,1.139
			c-3.757-1.037-6-2.941-6.544-4.573h-0.17c-1.564,3.927-5.508,4.284-7.225,4.573l-0.833-1.122c2.277-0.425,5.627-1.037,6.577-3.417
			h-6.051v-1.241h6.748l0.357-1.156l1.273,0.153l-0.271,1.003L590.72,410.274L590.72,410.274z M581.388,409.696h-1.325v-2.976
			c-0.951,0.782-2.243,1.7-3.28,2.295l-0.867-1.258c1.174-0.544,2.891-1.717,4.131-2.566v-4.25h1.31L581.388,409.696z
			 M576.917,401.741c0.885,0.629,1.836,1.666,2.432,2.737l-1.021,1.003c-0.408-1.02-1.343-2.159-2.295-2.958L576.917,401.741z
			 M584.788,404.478c0.492,0.357,1.121,0.884,1.495,1.411c0.596-0.493,1.411-1.258,2.176-2.414h-3.62
			c-0.51,0.748-1.581,1.989-2.329,2.431l-1.003-0.969c1.31-0.816,2.432-2.006,3.213-4.148l1.14,0.476
			c-0.067,0.306-0.238,0.714-0.408,1.003h4.437l0.019,1.224c-1.462,2.805-3.688,4.709-7.514,5.576l-0.851-1.173
			c1.326-0.238,2.754-0.595,3.808-1.343c-0.492-0.527-0.951-0.969-1.513-1.275L584.788,404.478z"/>
	</g>
</g>
</svg>
