<?xml version="1.0" encoding="utf-8"?>
<!-- Generator: Adobe Illustrator 16.0.0, SVG Export Plug-In . SVG Version: 6.00 Build 0)  -->
<!DOCTYPE svg PUBLIC "-//W3C//DTD SVG 1.1//EN" "http://www.w3.org/Graphics/SVG/1.1/DTD/svg11.dtd">
<svg version="1.1" id="Layer_1" xmlns="http://www.w3.org/2000/svg" xmlns:xlink="http://www.w3.org/1999/xlink" x="0px" y="0px"
	 width="768px" height="1024px" viewBox="0 0 768 1024" enable-background="new 0 0 768 1024" xml:space="preserve">
<g>
	<rect x="302.89" y="446.86" opacity="0.698" fill="#58B5E1" enable-background="new    " width="324.439" height="162.221"/>
	<g>
		<g>
			<path fill="#FFFFFF" d="M329.844,482.439h-4.97v-15.893h-6.161v-3.746c3.465,0.07,6.65-1.12,7.176-4.865h3.955V482.439z"/>
			<path fill="#FFFFFF" d="M353.085,462.032h-10.116l-0.979,5.565l0.069,0.07c1.33-1.365,2.871-1.89,4.795-1.89
				c4.832,0,7.562,3.745,7.562,8.331c0,5.041-4.166,8.926-9.101,8.82c-4.761,0-9.031-2.625-9.102-7.771h4.971
				c0.245,2.17,1.855,3.675,4.025,3.675c2.59,0,4.235-2.275,4.235-4.726c0-2.556-1.575-4.585-4.235-4.585
				c-1.785,0-2.765,0.63-3.746,1.96h-4.48l2.416-13.546h13.688L353.085,462.032L353.085,462.032z"/>
		</g>
	</g>
	<g>
		<path fill="#FFFFFF" d="M324.407,518.596l-5.766-9.944l5.699-9.989h1.188l-5.633,9.989l5.698,9.944H324.407z M327.334,518.596
			l-5.633-9.944l5.566-9.989h1.254l-5.654,9.989l5.654,9.944H327.334z"/>
		<path fill="#FFFFFF" d="M336.704,518.553h-1.717l0.021-13.313l5.171-0.022c0.353-0.682,0.527-1.254,0.66-1.958h-8.538v-1.584
			h5.325c-0.418-0.638-1.298-1.605-2.332-2.2l1.804-0.945c0.97,0.857,2.024,2.09,2.466,3.146l3.695,0.022
			c1.012-1.188,1.805-2.398,2.112-3.125c0.572,0.264,1.012,0.462,1.563,0.749c-0.552,1.056-1.123,1.848-1.586,2.332h5.215
			l0.022,1.605l-8.009,0.022c-0.221,0.924-0.354,1.474-0.572,1.958h5.854v13.313l-1.717-0.045l-0.021-1.166h-9.396L336.704,518.553z
			 M336.704,506.825l0.021,1.804h9.396l0.021-1.804H336.704z M346.145,512.105l0.043-1.894l-9.482,0.044v1.848h9.439V512.105z
			 M336.704,513.711l0.021,2.047l9.418-0.044v-2.003H336.704z"/>
		<path fill="#FFFFFF" d="M367.55,514.988c0.771-0.022,1.476,0.043,2.112,0.021c0.22-0.021,0.418-0.196,0.418-0.352v-1.871h-4.07
			v5.743l-1.693,0.021v-5.743l-3.938-0.021v4.069h-1.673v-5.676l5.611,0.044l0.021-1.76h-3.851l0.044-3.233l-3.19-0.045v7.041
			c0,2.092-1.034,4.226-2.023,5.26c-0.551-0.286-0.925-0.616-1.407-0.97c0.989-1.407,1.76-2.704,1.76-4.928v-11.552l7.701,0.021
			c-0.242-0.308-0.728-0.968-1.496-1.584c0.616-0.352,1.012-0.615,1.563-0.857c0.968,0.857,1.584,1.562,2.002,2.42h7.679v1.628
			l-15.776,0.044l0.022,1.893h3.103v-1.563h1.716v1.563h5.722v-1.605h1.673v1.628h4.005v1.562h-3.983l-0.021,3.301l-3.564-0.022
			l-0.021,1.76h5.787l0.044,3.477c0,0.595-0.286,1.231-0.858,1.563c-0.792,0.464-1.87,0.265-2.904,0.31L367.55,514.988z
			 M362.181,506.188v1.672h5.699l0.044-1.629L362.181,506.188z"/>
		<path fill="#FFFFFF" d="M376.325,517.145c2.971-1.495,4.225-4.137,4.225-7.612v-6.403h1.65v6.447c0,3.499-1.013,6.775-4.818,9.043
			L376.325,517.145z M377.733,500.202h7.37v12.366h-1.649v-10.805h-4.07v10.76h-1.649L377.733,500.202L377.733,500.202z
			 M382.686,513.184c1.165,0.814,2.597,2.267,3.521,3.896l-1.408,1.1c-0.792-1.628-1.475-2.528-3.146-3.938L382.686,513.184z
			 M389.132,518.508l-0.639-1.76c1.166,0.044,1.914,0.066,2.706,0.066c0.242-0.045,0.33-0.154,0.33-0.572v-11.046l-0.286,0.021
			c-0.241,4.049-1.496,7.503-4.974,10.826l-1.362-1.276c1.604-1.518,2.64-2.838,3.63-4.84c0.727-1.474,0.99-3.146,1.078-4.73h-4.094
			v-1.628h6.008v-4.665h1.717v4.665h2.441v1.628h-2.441v11.66c0,0.814-0.506,1.65-1.475,1.65H389.132z"/>
		<path fill="#FFFFFF" d="M406.973,499.651c-0.242,0.55-0.462,0.924-0.527,1.057h8.229l0.021,1.496
			c-1.299,1.606-2.618,2.64-3.982,3.63c0.286,0.22,0.968,0.44,1.584,0.748c2.068,0.77,4.247,1.364,6.777,1.848l-1.078,1.476
			c-3.169-0.683-6.161-1.541-8.758-3.081c-2.508,1.672-6.402,2.794-9.791,3.322l-0.683-1.584c2.641-0.44,4.95-1.034,7.218-1.871
			c0.594-0.286,1.298-0.639,1.737-0.881c-0.945-0.726-2.2-1.474-2.971-2.529c-0.968,1.144-2.376,2.332-4.026,2.992l-1.254-1.519
			c3.389-1.254,5.018-3.212,6.051-5.919L406.973,499.651z M409.261,508.585c-0.021,0.836,0.044,1.21-0.021,1.694h6.249
			c-0.044,2.441-0.286,4.687-0.945,6.711c-0.198,0.682-0.793,1.274-1.431,1.452c-0.968,0.286-1.958-0.022-2.972-0.178l-0.418-1.913
			c1.166,0.329,2.003,0.659,2.904,0.527c0.507-0.33,0.551-0.945,0.66-1.584c0.198-1.188,0.439-2.707,0.484-3.411h-4.754
			c-0.352,1.893-1.825,3.697-3.607,4.863c-1.32,0.881-3.696,1.584-5.127,1.848c-0.309-0.549-0.594-0.989-0.88-1.648
			c2.794-0.44,5.391-1.102,7.063-3.302c0.462-0.594,0.704-1.275,0.836-1.781h-6.293v-1.584l6.558,0.021
			c0.065-0.527,0-0.945,0.065-1.937L409.261,508.585z M405.895,502.358c0.881,1.056,2.068,1.737,3.301,2.529
			c1.188-0.77,2.377-1.649,3.213-2.529H405.895z"/>
		<path fill="#FFFFFF" d="M430.534,498.396c0.857,0.837,1.54,1.782,2.155,2.597h7.746v4.511h-1.738v-2.859h-14.391v2.992h-1.693
			v-4.643h8.053c-0.109-0.22-0.88-1.012-1.628-1.738L430.534,498.396z M436.277,518.553v-1.32h-8.67v1.387h-1.649v-14.192h10.297
			v5.436h-8.646v1.782h10.319v6.908H436.277z M427.607,505.966v2.333h6.953v-2.333H427.607z M427.607,513.229v2.464h8.67v-2.464
			H427.607z"/>
		<path fill="#FFFFFF" d="M445.472,518.596h-1.188l5.653-9.944l-5.653-9.989h1.254l5.565,9.989L445.472,518.596z M448.398,518.596
			h-1.188l5.699-9.944l-5.633-9.989h1.188l5.699,9.989L448.398,518.596z"/>
	</g>
	<g>
		<path fill="#FFFFFF" d="M317.023,551.395l1.769-0.17v-5.541h-1.513v-1.207h14.396v1.207h-6.851v7.853h-1.36v-1.818l-5.745,0.9
			L317.023,551.395z M319.591,543.966v-4.913h9.706v4.913H319.591z M323.466,546.617v-0.936h-3.364v0.936H323.466z M320.102,547.79
			v0.884h3.383v-0.884H320.102z M320.117,549.83v1.224c1.088-0.152,2.261-0.288,3.349-0.476v-0.748H320.117z M327.971,540.227h-7.07
			v0.748h7.07V540.227z M320.898,542.096v0.73h7.071v-0.73H320.898z M330.895,546.328c-0.34,1.717-0.662,2.771-1.768,4.268
			c0.765,0.781,1.699,1.41,2.89,1.888c-0.34,0.391-0.526,0.661-0.85,0.984c-1.14-0.476-1.921-1.071-2.839-1.955
			c-0.816,0.731-1.717,1.581-2.635,2.091l-0.767-1.02c1.037-0.629,1.938-1.275,2.603-1.955c-0.682-0.918-1.311-1.955-1.515-3.094
			h-0.714v-1.207H330.895z M327.188,547.535c0.272,0.815,0.563,1.359,1.089,2.125c0.493-0.748,0.952-1.496,1.14-2.125H327.188z"/>
		<path fill="#FFFFFF" d="M338.801,538.662c-0.441,1.445-0.9,2.854-1.581,4.045v10.879h-1.258v-8.906
			c-0.17,0.271-0.68,1.037-1.428,1.769l-1.054-0.936c1.972-1.888,3.382-4.59,4.13-7.327L338.801,538.662z M348.982,551.785v1.24
			h-11.05v-1.24h4.794v-2.448h-3.638v-1.241h3.638v-1.902h1.395v1.902h3.604v1.241h-3.604v2.448H348.982z M344.104,544.459h4.421
			v1.24h-10.25v-1.24h4.437v-2.329h-3.484v-1.258h3.484v-2.243h1.395v2.26h3.45v1.226h-3.45v2.345H344.104z"/>
		<path fill="#FFFFFF" d="M356.77,543.574v1.258h-2.073v3.621c0.441-0.085,1.377-0.391,2.228-0.596v1.259l-5.406,1.495
			c-0.271-0.441-0.491-0.781-0.833-1.325c1.071-0.136,1.974-0.306,2.737-0.511v-3.961h-2.04v-1.224h2.022v-2.787h-2.228v-1.225
			h5.763v1.207h-2.243v2.787L356.77,543.574L356.77,543.574z M361.767,541.093c0.085,3.11-0.306,6.001-1.665,8.448
			c-0.441,0.781-1.07,1.513-1.818,2.143c-0.782,0.662-1.615,1.189-2.584,1.683l-1.003-1.054c1.614-0.73,3.179-1.633,4.063-3.094
			c0.697-1.174,1.19-2.447,1.445-3.791c0.255-1.395,0.289-2.754,0.289-4.453L361.767,541.093z M364.674,538.969l0.018,9.264
			c-0.459,0.033-0.833,0.033-1.274,0.018v-8.04h-4.556v8.006h-1.275v-9.246L364.674,538.969L364.674,538.969z M365.932,550.527
			c-0.221,1.054-0.374,2.227-1.343,2.227h-2.074c-0.561,0-1.154-0.561-1.154-1.189v-4.557h1.291v4.335
			c0.034,0.085,0.204,0.204,0.322,0.204h1.275c0.34-0.051,0.237-0.459,0.374-0.799l0.066-0.833L365.932,550.527z"/>
		<path fill="#FFFFFF" d="M376.506,538.969c1.751,2.176,4.029,4.146,6.937,4.997l-1.037,1.054c-1.173-0.391-2.192-0.985-2.957-1.495
			l0.017,0.696l-3.094-0.018l0.017,1.973h4.606l0.018,1.225l-4.641,0.017l0.017,4.08l6.086-0.018v1.241H369.01l-0.017-1.241
			l6.103,0.018V547.4l-4.691,0.017l-0.018-1.239h4.709v-1.974l-3.094,0.019v-0.73c-0.833,0.543-1.904,1.155-3.094,1.699l-0.867-1.07
			c2.532-1.139,5.745-3.043,7.649-6.307l1.054,0.714L376.506,538.969z M372.902,551.225c-0.459-1.123-0.985-2.058-1.955-2.959
			l1.156-0.543c0.714,0.562,1.717,2.09,2.039,2.976L372.902,551.225z M378.665,542.98c-0.937-0.783-2.176-1.904-2.924-2.959
			c-0.73,0.918-1.938,2.211-3.009,2.924L378.665,542.98z M376.965,550.611c1.122-0.799,1.904-1.869,2.465-3.042l1.037,0.748
			c-0.544,1.173-1.274,2.261-2.346,3.093L376.965,550.611z"/>
		<path fill="#FFFFFF" d="M385.177,541.568c1.377-0.883,2.143-2.125,2.771-3.484c0.407,0.188,0.696,0.34,1.104,0.527
			c-0.188,0.425-0.374,0.799-0.425,0.935h4.402v1.207l-2.566,0.017c0.067,0.086,0.306,0.597,0.577,1.004l-1.155,0.63
			c-0.289-0.682-0.578-1.19-0.969-1.634h-0.986c-0.407,0.563-0.918,1.123-1.784,1.718L385.177,541.568z M385.874,542.521h6.238
			c-0.119-0.238-0.459-0.664-0.97-1.156l1.225-0.392c0.544,0.544,0.952,1.24,1.156,1.548h6.085v3.194l-1.292-0.018v-1.972h-11.15
			l-0.018,2.058l-1.274-0.019V542.521z M389.443,553.52H388.1l0.018-8.925h9.146l0.018,3.468l-7.87,0.018v0.851h8.618v4.538h-1.31
			v-1.003h-7.292L389.443,553.52z M389.409,546.855h6.579l-0.019-1.056h-6.562L389.409,546.855L389.409,546.855z M389.427,550.17
			l0.018,1.122l7.274-0.017v-1.14L389.427,550.17z M397.364,540.686c0.103,0.103,0.493,0.511,0.782,1.036
			c-0.375,0.238-0.715,0.408-1.155,0.595c-0.323-0.68-0.663-1.206-1.105-1.613h-1.122c-0.221,0.374-0.544,0.9-1.02,1.309
			c-0.357-0.271-0.629-0.441-1.003-0.73c0.918-0.985,1.394-1.972,1.683-3.229l1.139,0.424c-0.066,0.442-0.17,0.816-0.236,1.005
			h4.641v1.207h-2.603V540.686z"/>
		<path fill="#FFFFFF" d="M402.84,551.275c-0.355-0.323-0.68-0.578-1.122-1.021c1.054-0.306,1.836-0.629,2.567-0.9v-3.927h-1.734
			l0.019-1.207l1.683,0.019l0.018-3.366l-2.041,0.017v-1.239l5.271,0.017v1.207h-1.887l-0.018,3.366l1.666-0.019v1.207h-1.666v3.435
			c0.493-0.188,1.225-0.527,2.058-0.833v1.273L402.84,551.275z M416.167,539.206l-0.034,7.396h-3.451v1.632h3.35v1.224h-3.383v1.954
			h4.539v1.207h-10.318v-1.207h4.471l0.019-1.954h-3.4v-1.224h3.383l0.019-1.632h-3.521v-7.412L416.167,539.206z M411.339,542.232
			l0.019-1.804l-2.229-0.017v1.818h2.21V542.232z M409.129,543.438v1.955h2.21l0.019-1.972L409.129,543.438z M412.665,543.455v1.922
			l2.192,0.018v-1.922L412.665,543.455z M412.699,542.249h2.176l0.033-1.819l-2.228-0.017L412.699,542.249z"/>
		<path fill="#FFFFFF" d="M424.616,538.645l-0.136,0.375c1.377,2.396,2.669,4.198,4.452,5.523l-0.935,1.071
			c-0.595-0.511-0.986-0.936-1.224-1.206c-0.153,1.784-0.46,4.012-0.901,5.133c-0.221,0.561-0.799,0.68-1.274,0.68
			c-0.526-0.067-1.021-0.203-1.563-0.373c-0.102-0.441-0.152-0.799-0.255-1.395c0.681,0.289,1.14,0.477,1.648,0.527
			c0.392-0.068,0.374-0.527,0.526-0.901c0.289-1.036,0.441-2.073,0.477-3.042h-3.535v6.102c0,0.289,0.17,0.442,0.34,0.442h4.605
			c0.256-0.068,0.357-0.341,0.393-0.629l0.271-1.14l1.14,0.562c-0.256,0.918-0.373,2.261-1.666,2.38h-4.845
			c-0.969,0-1.513-0.663-1.513-1.359v-6.46c-0.137,0.104-0.646,0.442-1.292,0.833l-0.816-1.139c1.564-0.715,2.55-1.751,3.366-2.975
			c0.663-1.004,1.258-2.295,1.632-3.521L424.616,538.645z M426.23,543.83c-0.577-0.748-1.666-2.193-2.312-3.4
			c-0.442,1.105-1.292,2.482-2.159,3.383L426.23,543.83z M429.138,549.693v-8.821h1.259v8.821H429.138z M431.688,538.271h1.259
			v13.955c0,0.561-0.322,1.104-1.055,1.174l-1.836-0.019l-0.391-1.258l1.733,0.085c0.152,0,0.289-0.17,0.289-0.563V538.271
			L431.688,538.271z"/>
		<path fill="#FFFFFF" d="M439.339,548.471c-0.714,1.461-1.513,2.517-2.873,3.297l-0.765-1.002c1.343-0.748,2.158-1.733,2.72-2.992
			L439.339,548.471z M440.987,552.261c0,0.663-0.511,1.395-1.292,1.395h-1.377l-0.441-1.359l1.359,0.103
			c0.17,0.018,0.425-0.188,0.425-0.408v-4.623h-2.736v-1.24h2.736v-1.207h-3.331v-1.258h2.447c-0.118-0.494-0.526-1.123-1.31-1.717
			l1.122-0.459c0.714,0.561,1.225,1.324,1.462,2.176h0.714c0.562-0.563,0.985-1.411,1.189-2.143l1.14,0.459
			c-0.188,0.596-0.578,1.291-0.952,1.684h2.022v1.258h-3.179v1.207h2.703v1.24h-2.703v1.207l0.492-0.629
			c0.8,0.492,1.563,1.291,2.125,2.244l-0.866,0.984c-0.425-1.021-1.189-1.751-1.751-2.176L440.987,552.261L440.987,552.261z
			 M439.543,539.971c-0.153-0.271-0.511-0.748-1.071-1.309l1.241-0.578c0.544,0.646,1.003,1.292,1.207,1.887h2.872v1.241h-7.037
			v-1.241H439.543z M450.592,539.342c-1.529,0.885-3.094,1.31-4.605,1.581v2.431h4.878v1.241h-1.903v8.856h-1.31v-8.856h-1.665
			v2.192c0,2.262-0.748,4.59-2.059,6.613l-1.154-0.816c1.563-2.143,1.902-4.453,1.902-7.088l-0.017-5.609
			c1.887-0.222,3.519-0.73,5.116-1.599L450.592,539.342z"/>
		<path fill="#FFFFFF" d="M467.744,547.586v1.241h-5.524c0.782,1.258,2.703,2.618,6.12,3.399l-0.936,1.139
			c-3.758-1.037-6-2.94-6.544-4.572h-0.171c-1.563,3.927-5.508,4.283-7.225,4.572l-0.833-1.121c2.278-0.426,5.627-1.037,6.578-3.417
			h-6.051v-1.241h6.748l0.356-1.156l1.274,0.154l-0.271,1.002H467.744z M458.412,547.008h-1.325v-2.975
			c-0.952,0.781-2.244,1.7-3.281,2.295l-0.866-1.258c1.174-0.544,2.891-1.717,4.131-2.566v-4.25h1.309L458.412,547.008z
			 M453.941,539.053c0.885,0.629,1.836,1.666,2.432,2.737l-1.021,1.003c-0.407-1.02-1.343-2.159-2.295-2.958L453.941,539.053z
			 M461.813,541.79c0.492,0.356,1.121,0.884,1.495,1.411c0.597-0.494,1.411-1.258,2.177-2.414h-3.62
			c-0.511,0.748-1.581,1.988-2.329,2.431l-1.003-0.969c1.309-0.815,2.431-2.006,3.213-4.147l1.139,0.477
			c-0.066,0.306-0.237,0.714-0.407,1.003h4.437l0.018,1.225c-1.462,2.806-3.688,4.708-7.514,5.574l-0.85-1.172
			c1.325-0.238,2.754-0.596,3.808-1.344c-0.493-0.526-0.952-0.97-1.513-1.274L461.813,541.79z"/>
		<path fill="#FFFFFF" d="M478.184,547.586c-0.392-0.646-1.31-1.732-2.073-2.396l0.952-0.95c0.884,0.662,1.768,1.495,2.327,2.176
			L478.184,547.586z"/>
		<path fill="#FFFFFF" d="M317.023,571.794l1.769-0.17v-5.542h-1.513v-1.207h14.396v1.207h-6.851v7.854h-1.36v-1.817l-5.745,0.899
			L317.023,571.794z M319.591,564.365v-4.912h9.706v4.912H319.591z M323.466,567.018v-0.936h-3.364v0.936H323.466z M320.102,568.189
			v0.885h3.383v-0.885H320.102z M320.117,570.23v1.223c1.088-0.152,2.261-0.288,3.349-0.475v-0.748H320.117z M327.971,560.626h-7.07
			v0.748h7.07V560.626z M320.898,562.496v0.729h7.071v-0.729H320.898z M330.895,566.729c-0.34,1.718-0.662,2.771-1.768,4.267
			c0.765,0.783,1.699,1.412,2.89,1.888c-0.34,0.391-0.526,0.663-0.85,0.985c-1.14-0.477-1.921-1.07-2.839-1.955
			c-0.816,0.731-1.717,1.582-2.635,2.092l-0.767-1.021c1.037-0.629,1.938-1.274,2.603-1.954c-0.682-0.919-1.311-1.955-1.515-3.095
			h-0.714v-1.207H330.895z M327.188,567.936c0.272,0.815,0.563,1.359,1.089,2.125c0.493-0.748,0.952-1.496,1.14-2.125H327.188z"/>
		<path fill="#FFFFFF" d="M338.801,559.063c-0.441,1.444-0.9,2.855-1.581,4.045v10.88h-1.258v-8.906
			c-0.17,0.271-0.68,1.036-1.428,1.768l-1.054-0.936c1.972-1.887,3.382-4.59,4.13-7.326L338.801,559.063z M348.982,572.186v1.24
			h-11.05v-1.24h4.794v-2.448h-3.638v-1.24h3.638v-1.904h1.395v1.904h3.604v1.24h-3.604v2.448H348.982z M344.104,564.857h4.421
			v1.241h-10.25v-1.241h4.437v-2.328h-3.484v-1.258h3.484v-2.244h1.395v2.262h3.45v1.224h-3.45v2.345H344.104z"/>
		<path fill="#FFFFFF" d="M356.345,558.977c-0.441,1.36-1.088,2.806-1.666,3.995l-0.018,10.946l-1.291,0.018v-8.873
			c-0.204,0.308-0.612,0.885-1.396,1.734l-1.104-0.783c2.021-2.072,3.434-4.944,4.267-7.598L356.345,558.977z M355.273,573
			c1.563-1.172,2.703-2.583,3.672-4.182l1.104,0.715c-0.935,1.699-2.072,3.094-3.79,4.42L355.273,573z M359.217,558.62l-0.017,3.313
			l3.162,0.034l0.017-3.349h1.309l0.019,3.298l1.938,0.017l-0.018,1.293h-1.938l0.018,3.704h2.413v1.259l-10.606,0.018l-0.018-1.275
			h2.38l0.019-3.705l-1.87,0.019l0.017-1.31l1.854,0.033l-0.018-3.332L359.217,558.62z M359.217,563.193v3.737h3.111l0.017-3.705
			L359.217,563.193z M362.447,568.938c0.561,0.408,1.088,0.852,1.528,1.259c0.901,0.815,1.718,1.803,2.38,2.94
			c-0.407,0.255-0.629,0.51-1.07,0.766c-0.918-1.633-2.313-3.061-3.926-4.198L362.447,568.938z"/>
		<path fill="#FFFFFF" d="M367.905,572.865c1.479-1.293,2.039-3.01,2.157-4.728c0.138-1.801,0.153-4.521,0.138-7.02h6.204
			c-0.222-0.511-0.885-1.14-1.666-1.685l0.9-0.85c0.885,0.477,1.665,1.241,2.176,2.074l-0.441,0.459h5.474v1.188h-11.372
			c-0.033,1.955,0,4.896-0.221,6.578c-0.271,2.144-1.003,3.351-2.346,4.879L367.905,572.865z M382.896,573.068H370.88l0.017-1.207
			h7.175c1.258-2.058,2.243-5.303,2.516-8.158l1.224,0.424c-0.306,3.4-1.358,6.29-2.295,7.734h3.383v1.207H382.896z M374.33,571.148
			c-0.663-3.23-1.495-4.232-2.651-5.883l1.156-0.544c1.376,1.734,2.294,3.586,2.736,5.694L374.33,571.148z M375.775,563.295
			c1.173,1.529,2.057,3.705,2.312,5.66l-1.258,0.611c-0.238-1.954-1.003-3.961-2.125-5.711L375.775,563.295z"/>
		<path fill="#FFFFFF" d="M390.276,571.012c-0.596,0.357-1.189,0.73-1.837,1.07c-0.866,0.459-1.291,0.697-1.732,0.918l-0.578-1.223
			c0.34-0.086,0.612-0.308,0.646-0.459v-3.451h-1.563v-1.258h1.563v-1.734h-0.356c-0.204,0.34-0.595,0.885-0.85,1.123l-1.003-0.783
			c1.613-1.852,2.276-3.926,2.635-6.373l1.173,0.543c-0.137,0.748-0.289,1.445-0.374,1.854h2.192l-0.018,1.273h-2.532
			c-0.188,0.425-0.323,0.833-0.493,1.104h3.298v1.258h-2.38v1.734h2.227v1.274h-2.227v2.872c0.663-0.34,1.292-0.646,2.21-1.154
			L390.276,571.012L390.276,571.012z M392.078,565.063l0.018,5.609c1.225,1.615,2.566,1.581,4.301,1.581h2.176
			c0.526,0,0.833-0.085,1.479-0.136l-0.425,1.359l-3.672-0.019c-1.462,0-3.179-0.237-4.301-1.547
			c-0.748,0.783-1.462,1.344-2.04,1.803l-0.833-1.02c0.696-0.512,1.598-1.294,2.022-1.753v-4.604h-1.428v-1.274H392.078
			L392.078,565.063z M391.5,563.447c-0.289-0.883-0.969-2.328-1.614-2.94l1.003-0.526c0.577,0.662,1.41,2.058,1.699,2.94
			L391.5,563.447z M399.303,560.643v1.275h-4.113c-0.188,0.832-0.696,2.143-1.002,2.891h1.291l0.018-1.922h1.292v1.922h2.72v1.258
			h-2.72l-0.019,1.664l2.891-0.016v1.291l-2.891-0.017v2.907h-1.291v-2.892l-2.991-0.017v-1.274h2.991v-1.649h-2.754v-1.036
			c0.526-1.14,1.088-2.532,1.206-3.11h-1.443v-1.292h1.666c0.085-0.442,0.102-0.815,0.136-1.649l1.224,0.393
			c-0.051,0.612-0.051,0.85-0.136,1.258L399.303,560.643z"/>
		<path fill="#FFFFFF" d="M410.506,559.368c1.751,2.176,4.029,4.146,6.937,4.997l-1.037,1.055c-1.173-0.392-2.192-0.986-2.957-1.496
			l0.017,0.697l-3.094-0.018l0.017,1.972h4.606l0.018,1.224l-4.641,0.019l0.017,4.079l6.086-0.018v1.24H403.01l-0.017-1.24
			l6.103,0.018v-4.098l-4.691,0.019l-0.018-1.241h4.709v-1.973l-3.094,0.019v-0.731c-0.833,0.545-1.904,1.155-3.094,1.7
			l-0.867-1.071c2.532-1.14,5.745-3.041,7.649-6.306l1.054,0.713L410.506,559.368z M406.902,571.624
			c-0.459-1.122-0.985-2.058-1.955-2.958l1.156-0.544c0.714,0.562,1.717,2.091,2.039,2.975L406.902,571.624z M412.665,563.379
			c-0.937-0.781-2.176-1.902-2.924-2.957c-0.73,0.918-1.938,2.21-3.009,2.924L412.665,563.379z M410.965,571.012
			c1.122-0.799,1.904-1.869,2.465-3.043l1.037,0.748c-0.544,1.174-1.274,2.262-2.346,3.094L410.965,571.012z"/>
		<path fill="#FFFFFF" d="M428.288,559.249v1.224h-9.315v-1.224H428.288z M426.316,566.405h-5.271v7.343h-1.224v-8.617h7.717v7.021
			c-0.051,0.562-0.425,1.055-0.9,1.241c-0.544,0.222-0.918,0.187-1.58,0.187l-0.442-1.207c0.714-0.033,1.037,0.17,1.462-0.033
			c0.357-0.17,0.238-0.68,0.238-1.377V566.405z M420.588,564.467v-3.297h6.153v3.297H420.588z M425.908,568.818v1.225h-1.666v2.736
			h-1.189v-2.719h-1.563v-1.275h1.155c-0.271-0.596-0.832-1.258-1.41-1.514l0.884-0.577c0.578,0.34,1.274,1.021,1.53,1.632
			l-0.715,0.477l0.936,0.017c0.663-0.73,0.9-1.513,1.156-2.177l1.104,0.443c-0.306,0.526-0.646,1.342-1.036,1.75L425.908,568.818z
			 M425.483,562.359h-3.654v0.951h3.654V562.359z M429.393,572.898c-0.406,0.119-0.525,0.152-1.003,0.322l-0.595-1.24
			c1.021-0.222,1.513-0.307,2.227-0.492v-3.111h-1.92v-6.307h1.92v-3.399h1.207v3.399h1.955v6.307h-1.955l0.019,2.788l0.985-0.238
			c-0.119-0.237-0.392-0.696-0.781-1.173l1.07-0.391c0.68,0.781,1.139,1.683,1.428,2.565l0.374,1.122l-1.274,0.442
			c-0.119-0.597-0.255-1.19-0.392-1.547L429.393,572.898z M430.021,563.295h-0.73v3.842h0.73V563.295z M431.229,567.137h0.834
			v-3.842h-0.834V567.137z"/>
		<path fill="#FFFFFF" d="M450.744,567.986v1.24h-5.524c0.782,1.258,2.703,2.617,6.12,3.399l-0.936,1.139
			c-3.758-1.036-6-2.94-6.544-4.571h-0.171c-1.563,3.926-5.508,4.283-7.225,4.571l-0.833-1.122c2.278-0.425,5.627-1.035,6.578-3.416
			h-6.051v-1.24h6.748l0.356-1.156l1.274,0.153l-0.271,1.003H450.744z M441.412,567.408h-1.325v-2.975
			c-0.952,0.78-2.244,1.698-3.281,2.295l-0.866-1.259c1.174-0.545,2.891-1.717,4.131-2.565v-4.25h1.309L441.412,567.408z
			 M436.941,559.453c0.885,0.629,1.836,1.666,2.432,2.736l-1.021,1.004c-0.407-1.021-1.343-2.16-2.295-2.959L436.941,559.453z
			 M444.813,562.189c0.492,0.356,1.121,0.885,1.495,1.41c0.597-0.492,1.411-1.258,2.177-2.412h-3.62
			c-0.511,0.746-1.581,1.987-2.329,2.43l-1.003-0.969c1.309-0.815,2.431-2.006,3.213-4.147l1.139,0.476
			c-0.066,0.308-0.237,0.716-0.407,1.005h4.437l0.018,1.223c-1.462,2.806-3.688,4.709-7.514,5.576l-0.85-1.173
			c1.325-0.237,2.754-0.596,3.808-1.344c-0.493-0.526-0.952-0.969-1.513-1.274L444.813,562.189z"/>
		<path fill="#FFFFFF" d="M461.184,567.986c-0.392-0.646-1.31-1.734-2.073-2.396l0.952-0.952c0.884,0.663,1.768,1.495,2.327,2.177
			L461.184,567.986z"/>
		<path fill="#FFFFFF" d="M317.023,592.193l1.769-0.17v-5.541h-1.513v-1.207h14.396v1.207h-6.851v7.854h-1.36v-1.818l-5.745,0.9
			L317.023,592.193z M319.591,584.766v-4.912h9.706v4.912H319.591z M323.466,587.417v-0.935h-3.364v0.935H323.466z M320.102,588.59
			v0.885h3.383v-0.885H320.102z M320.117,590.63v1.224c1.088-0.151,2.261-0.289,3.349-0.476v-0.748H320.117z M327.971,581.025h-7.07
			v0.748h7.07V581.025z M320.898,582.896v0.73h7.071v-0.73H320.898z M330.895,587.129c-0.34,1.717-0.662,2.771-1.768,4.266
			c0.765,0.782,1.699,1.411,2.89,1.888c-0.34,0.391-0.526,0.663-0.85,0.985c-1.14-0.477-1.921-1.069-2.839-1.955
			c-0.816,0.73-1.717,1.582-2.635,2.092l-0.767-1.021c1.037-0.63,1.938-1.273,2.603-1.955c-0.682-0.918-1.311-1.954-1.515-3.094
			h-0.714v-1.206H330.895z M327.188,588.335c0.272,0.815,0.563,1.36,1.089,2.125c0.493-0.748,0.952-1.496,1.14-2.125H327.188z"/>
		<path fill="#FFFFFF" d="M338.801,579.462c-0.441,1.444-0.9,2.856-1.581,4.046v10.879h-1.258v-8.906
			c-0.17,0.271-0.68,1.035-1.428,1.768l-1.054-0.936c1.972-1.887,3.382-4.59,4.13-7.325L338.801,579.462z M348.982,592.584v1.242
			h-11.05v-1.242h4.794v-2.447h-3.638v-1.24h3.638v-1.903h1.395v1.903h3.604v1.24h-3.604v2.447H348.982z M344.104,585.258h4.421
			v1.242h-10.25v-1.242h4.437v-2.328h-3.484v-1.258h3.484v-2.244h1.395v2.262h3.45v1.224h-3.45v2.345H344.104z"/>
		<path fill="#FFFFFF" d="M355.631,584.629v2.057h1.632v1.175h-1.648l0.018,2.924c0.425-0.17,1.121-0.426,1.903-0.697v1.326
			l-3.688,1.326c-0.629,0.221-1.24,0.475-1.938,0.729c-0.357-0.34-0.563-0.646-1.003-1.088l1.188-0.34v-6.137l1.259,0.018v5.711
			c0.255-0.068,0.646-0.221,0.951-0.357l-0.017-6.646h-1.904v-5.1h4.472v5.1L355.631,584.629L355.631,584.629z M353.591,583.371
			h1.972v-2.635l-1.972,0.018V583.371z M366.188,586.448c-1.071-0.563-1.87-1.311-2.296-1.7l0.018,0.578h-4.368v-0.662
			c-0.459,0.51-1.241,1.121-2.244,1.682l-1.104-0.969c1.751-0.73,2.924-2.057,3.587-3.348h-2.448l0.018-1.242h2.925
			c0.236-0.594,0.34-1.359,0.51-2.243l1.188,0.356c-0.051,0.766-0.255,1.429-0.374,1.887h4.624v1.242h-2.805
			c0.17,0.406,0.629,0.951,1.02,1.461c0.731,0.68,1.53,1.359,2.517,1.904L366.188,586.448z M365.778,587.758l-4.827,0.016
			c-0.136,0.375-0.238,0.852-0.34,1.175h4.215c-0.051,1.409-0.203,2.854-0.544,4.063c-0.152,0.527-0.611,1.037-1.189,1.088
			c-0.799,0.068-1.632-0.018-2.499-0.188c-0.066-0.476-0.151-0.815-0.221-1.326c0.799,0.154,1.496,0.357,2.227,0.341
			c0.153-0.017,0.289-0.067,0.357-0.187c0.271-0.852,0.407-1.836,0.493-2.584h-4.522c0.256-0.952,0.493-1.769,0.682-2.396h-2.006
			V586.5h8.176L365.778,587.758L365.778,587.758z M361.188,582.046c-0.355,0.714-0.765,1.53-1.173,2.04h3.281
			c-0.459-0.459-0.884-1.293-1.207-2.057L361.188,582.046z"/>
		<path fill="#FFFFFF" d="M371.594,583.082h1.359l-0.018,1.242l-1.325-0.035l-0.018,3.773c0.307-0.118,1.054-0.441,1.718-0.681
			l-0.019,1.293c-1.479,0.646-2.854,1.224-4.334,1.888c-0.34-0.375-0.612-0.597-1.071-1.021c0.969-0.355,1.751-0.629,2.414-0.918
			v-4.317l-1.732,0.019l0.017-1.242h1.7l0.017-3.127l1.274,0.018L371.594,583.082z M383.306,590.867
			c-0.34,0.953-0.595,2.5-1.614,2.602H379.6c-0.814,0-1.273-0.544-1.324-1.055v-2.158h-1.19c-0.136,0.9-0.459,1.836-1.292,2.55
			c-1.139,0.952-2.516,1.343-4.028,1.462c-0.322-0.356-0.459-0.748-0.833-1.239c1.496-0.104,2.651-0.238,3.604-0.919
			c0.714-0.493,1.173-1.174,1.224-1.836h-1.717v-5.065l7.429-0.017l0.018,5.064h-1.954v1.684c0,0.222,0.187,0.356,0.391,0.356h1.411
			c0.374-0.085,0.629-1.156,0.696-1.903L383.306,590.867z M375.503,581.824l-2.106-0.033l-0.019-1.225h3.689
			c-0.068-0.222-0.663-0.851-1.089-1.225l1.31-0.577c0.544,0.611,0.899,1.224,1.139,1.802h3.638l0.018,1.225h-2.09l0.799,0.441
			c-0.393,0.611-0.714,1.02-0.782,1.104h2.72l-0.017,1.24l-9.469-0.033v-1.207h2.618c-0.153-0.238-0.646-0.562-1.225-1.004
			L375.503,581.824z M380.178,587.196v-0.766h-4.826v0.748L380.178,587.196z M375.352,588.369v0.68h4.811v-0.68H375.352z
			 M375.962,581.791c0.51,0.51,1.003,0.986,1.292,1.547h1.173c0.563-0.51,0.646-0.611,1.156-1.547H375.962z"/>
		<path fill="#FFFFFF" d="M385.534,592.959c2.686-0.205,5.371-1.189,6.188-3.773c0.188-0.629,0.222-1.055,0.222-1.903l1.224,0.102
			c-0.034,1.547-0.289,2.788-1.104,3.943c-0.799,1.123-2.72,2.481-5.863,2.821L385.534,592.959z M390.09,582.777
			c-0.119-0.104-0.441-0.324-0.833-0.597l0.969-0.629c0.936,0.511,1.581,1.054,2.192,2.091l-1.088,0.852
			c-0.188-0.443-0.407-0.697-0.544-0.885l-2.481,1.563c-0.492,0.306-0.985,0.543-1.647,0.918l-0.731-1.207
			c0.323-0.067,0.459-0.237,0.51-0.441l-0.017-4.028c1.784-0.153,3.399-0.578,4.861-1.377l1.036,0.951
			c-1.58,0.766-3.11,1.207-4.605,1.377v2.754L390.09,582.777z M389.308,591.293l-1.24-0.018v-5.711h2.991l-0.526-0.663
			c2.499-0.833,3.604-1.989,3.688-3.909h-1.732v-1.19h6.425c-0.067,1.547-0.221,2.925-0.459,4.249
			c-0.188,0.63-0.492,0.937-0.969,1.123c-0.766,0.203-1.359,0.084-2.177,0.018l-0.374-1.344c0.767,0.238,1.226,0.271,1.836,0.256
			c0.272-0.018,0.426-0.188,0.511-0.696c0.152-0.816,0.256-1.666,0.289-2.414l-2.073,0.017c-0.357,2.262-1.122,3.706-3.655,4.538
			l5.22,0.019l0.018,5.234h-1.311l0.019-3.994l-6.46-0.018L389.308,591.293z M398.674,594.285c-1.87-1.463-3.876-2.313-6.205-2.822
			l0.697-1.088c2.278,0.527,4.352,1.326,6.256,2.787L398.674,594.285z"/>
		<path fill="#FFFFFF" d="M410.863,592.177c0.884,0.204,1.428,0.442,2.142,0.526c0.459,0.051,0.612-0.407,0.867-1.377
			c0.271-0.985,0.425-2.006,0.561-2.957l-1.394,0.018c-0.782,2.48-3.162,4.642-5.559,5.914l-0.936-0.984
			c2.277-1.174,4.283-2.891,5.116-4.946l-1.854,0.018c-1.274,2.38-3.943,3.943-6.562,4.742l-0.852-1.055
			c2.433-0.713,4.709-1.92,5.916-3.705l-1.632,0.018c-0.918,0.696-2.107,1.378-3.313,1.802l-0.885-1.07
			c1.973-0.629,3.757-1.666,4.742-2.975h-2.091v-6.272l9.451,0.017l-0.019,6.257h-5.813c-0.355,0.543-0.73,0.918-0.832,0.969
			l7.921,0.033c-0.204,1.955-0.459,3.672-0.918,5.389c-0.119,0.459-0.391,0.918-0.833,1.174c-0.935,0.511-1.972,0-2.939-0.137
			L410.863,592.177z M413.276,582.334l0.018-1.223l-6.885-0.019v1.24L413.276,582.334L413.276,582.334z M406.409,584.901
			l6.867,0.017v-1.428h-6.867V584.901z"/>
		<path fill="#FFFFFF" d="M427.506,579.768c1.751,2.177,4.029,4.148,6.937,4.998l-1.037,1.055c-1.173-0.393-2.192-0.985-2.957-1.495
			l0.017,0.696l-3.094-0.018l0.017,1.971h4.606l0.018,1.226l-4.641,0.018l0.017,4.079l6.086-0.017v1.239H420.01l-0.017-1.239
			l6.103,0.017V588.2l-4.691,0.018l-0.018-1.242h4.709v-1.971l-3.094,0.017v-0.73c-0.833,0.545-1.904,1.156-3.094,1.7l-0.867-1.071
			c2.532-1.139,5.745-3.043,7.649-6.307l1.054,0.715L427.506,579.768z M423.902,592.023c-0.459-1.121-0.985-2.058-1.955-2.957
			l1.156-0.545c0.714,0.562,1.717,2.092,2.039,2.975L423.902,592.023z M429.665,583.779c-0.937-0.781-2.176-1.904-2.924-2.957
			c-0.73,0.918-1.938,2.209-3.009,2.924L429.665,583.779z M427.965,591.412c1.122-0.799,1.904-1.87,2.465-3.043l1.037,0.748
			c-0.544,1.173-1.274,2.261-2.346,3.094L427.965,591.412z"/>
		<path fill="#FFFFFF" d="M445.288,579.648v1.225h-9.315v-1.225H445.288z M443.316,586.805h-5.271v7.344h-1.224v-8.617h7.717v7.021
			c-0.051,0.562-0.425,1.054-0.9,1.24c-0.544,0.222-0.918,0.188-1.58,0.188l-0.442-1.207c0.714-0.033,1.037,0.17,1.462-0.033
			c0.357-0.17,0.238-0.682,0.238-1.377V586.805z M437.588,584.867v-3.297h6.153v3.297H437.588z M442.908,589.219v1.226h-1.666v2.735
			h-1.189v-2.72h-1.563v-1.274h1.155c-0.271-0.596-0.832-1.258-1.41-1.514l0.884-0.578c0.578,0.34,1.274,1.021,1.53,1.633
			l-0.715,0.477l0.936,0.017c0.663-0.729,0.9-1.513,1.156-2.176l1.104,0.442c-0.306,0.525-0.646,1.343-1.036,1.751L442.908,589.219z
			 M442.483,582.76h-3.654v0.951h3.654V582.76z M446.393,593.299c-0.406,0.119-0.525,0.152-1.003,0.322l-0.595-1.24
			c1.021-0.221,1.513-0.307,2.227-0.493v-3.109h-1.92v-6.308h1.92v-3.399h1.207v3.399h1.955v6.308h-1.955l0.019,2.787l0.985-0.238
			c-0.119-0.237-0.392-0.696-0.781-1.172l1.07-0.392c0.68,0.781,1.139,1.683,1.428,2.566l0.374,1.121l-1.274,0.441
			c-0.119-0.595-0.255-1.189-0.392-1.547L446.393,593.299z M447.021,583.694h-0.73v3.842h0.73V583.694z M448.229,587.536h0.834
			v-3.842h-0.834V587.536z"/>
		<path fill="#FFFFFF" d="M467.744,588.387v1.24h-5.524c0.782,1.258,2.703,2.617,6.12,3.4l-0.936,1.139
			c-3.758-1.037-6-2.941-6.544-4.573h-0.171c-1.563,3.927-5.508,4.284-7.225,4.573l-0.833-1.123
			c2.278-0.424,5.627-1.036,6.578-3.416h-6.051v-1.24h6.748l0.356-1.156l1.274,0.152l-0.271,1.004H467.744z M458.412,587.809h-1.325
			v-2.975c-0.952,0.781-2.244,1.699-3.281,2.295l-0.866-1.259c1.174-0.544,2.891-1.717,4.131-2.566v-4.249h1.309L458.412,587.809z
			 M453.941,579.854c0.885,0.63,1.836,1.666,2.432,2.736l-1.021,1.003c-0.407-1.021-1.343-2.159-2.295-2.958L453.941,579.854z
			 M461.813,582.59c0.492,0.357,1.121,0.884,1.495,1.41c0.597-0.492,1.411-1.258,2.177-2.413h-3.62
			c-0.511,0.747-1.581,1.989-2.329,2.431l-1.003-0.969c1.309-0.815,2.431-2.006,3.213-4.147l1.139,0.477
			c-0.066,0.308-0.237,0.714-0.407,1.003h4.437l0.018,1.225c-1.462,2.805-3.688,4.709-7.514,5.575l-0.85-1.174
			c1.325-0.237,2.754-0.594,3.808-1.342c-0.493-0.527-0.952-0.97-1.513-1.275L461.813,582.59z"/>
	</g>
</g>
</svg>
