<?xml version="1.0" encoding="utf-8"?>
<!-- Generator: Adobe Illustrator 16.0.0, SVG Export Plug-In . SVG Version: 6.00 Build 0)  -->
<!DOCTYPE svg PUBLIC "-//W3C//DTD SVG 1.1//EN" "http://www.w3.org/Graphics/SVG/1.1/DTD/svg11.dtd">
<svg version="1.1" id="Layer_1" xmlns="http://www.w3.org/2000/svg" xmlns:xlink="http://www.w3.org/1999/xlink" x="0px" y="0px"
	 width="768px" height="1024px" viewBox="0 0 768 1024" enable-background="new 0 0 768 1024" xml:space="preserve">
<g>
	<rect x="140.671" y="446.86" opacity="0.698" fill="#173058" enable-background="new    " width="162.219" height="324.439"/>
	<g>
		<g>
			<path fill="#FFFFFF" d="M166.973,482.439h-4.97v-15.893h-6.161v-3.746c3.465,0.07,6.65-1.12,7.176-4.865h3.955V482.439z"/>
			<path fill="#FFFFFF" d="M186.293,464.238c-0.315-1.646-1.575-3.045-3.291-3.045c-3.605,0-4.55,4.725-4.69,7.455l0.07,0.07
				c1.365-1.925,3.15-2.729,5.531-2.729c2.1,0,4.235,0.979,5.636,2.52c1.295,1.505,1.89,3.536,1.89,5.461
				c0,5.005-3.465,8.961-8.576,8.961c-7.42,0-9.416-6.476-9.416-12.671c0-5.986,2.661-12.812,9.626-12.812
				c4.236,0,7.386,2.484,7.946,6.791L186.293,464.238L186.293,464.238z M178.768,474.284c0,2.274,1.47,4.55,3.956,4.55
				c2.38,0,3.745-2.275,3.745-4.48c0-2.31-1.189-4.621-3.745-4.621C180.063,469.733,178.768,471.868,178.768,474.284z"/>
		</g>
	</g>
	<g>
		<path fill="#FFFFFF" d="M164.371,518.596l-5.765-9.944l5.699-9.989h1.188l-5.633,9.989l5.699,9.944H164.371z M167.298,518.596
			l-5.633-9.944l5.566-9.989h1.255l-5.655,9.989l5.655,9.944H167.298z"/>
		<path fill="#FFFFFF" d="M182.322,499.74c2.267,2.815,5.215,5.369,8.978,6.469l-1.342,1.364c-1.519-0.506-2.839-1.276-3.829-1.937
			l0.022,0.902l-4.005-0.022l0.022,2.553h5.962l0.022,1.584l-6.007,0.021l0.022,5.281l7.877-0.022v1.606h-17.427l-0.022-1.606
			l7.899,0.022v-5.303l-6.072,0.021l-0.022-1.605h6.095v-2.553l-4.005,0.022v-0.946c-1.078,0.704-2.464,1.497-4.004,2.201
			l-1.122-1.386c3.278-1.475,7.437-3.939,9.901-8.164l1.364,0.924L182.322,499.74z M177.658,515.604
			c-0.595-1.45-1.276-2.661-2.53-3.827l1.496-0.704c0.924,0.726,2.222,2.706,2.64,3.851L177.658,515.604z M185.117,504.933
			c-1.211-1.012-2.816-2.465-3.785-3.829c-0.945,1.188-2.508,2.86-3.895,3.784L185.117,504.933z M182.917,514.813
			c1.452-1.034,2.464-2.421,3.19-3.938l1.342,0.968c-0.704,1.519-1.65,2.926-3.036,4.004L182.917,514.813z"/>
		<path fill="#FFFFFF" d="M205.93,499.585v1.584h-12.058v-1.584H205.93z M203.377,508.849h-6.821v9.505h-1.584v-11.155h9.989v9.087
			c-0.065,0.726-0.55,1.363-1.166,1.605c-0.704,0.285-1.188,0.242-2.046,0.242l-0.572-1.563c0.924-0.045,1.342,0.22,1.893-0.045
			c0.462-0.22,0.308-0.879,0.308-1.781L203.377,508.849L203.377,508.849z M195.962,506.341v-4.269h7.965v4.269H195.962z
			 M202.849,511.974v1.584h-2.156v3.542h-1.54v-3.52h-2.024v-1.651h1.496c-0.352-0.77-1.078-1.628-1.826-1.958l1.145-0.748
			c0.748,0.44,1.65,1.32,1.98,2.112l-0.925,0.616l1.211,0.021c0.857-0.945,1.166-1.958,1.496-2.815l1.43,0.571
			c-0.396,0.683-0.836,1.738-1.342,2.268L202.849,511.974z M202.299,503.612h-4.73v1.231h4.73V503.612z M207.359,517.254
			c-0.528,0.154-0.682,0.198-1.298,0.418l-0.771-1.604c1.32-0.287,1.959-0.396,2.883-0.64v-4.025h-2.486v-8.163h2.486v-4.401h1.563
			v4.401h2.53v8.163h-2.53l0.021,3.607l1.276-0.309c-0.154-0.309-0.506-0.901-1.013-1.518l1.387-0.507
			c0.88,1.013,1.475,2.179,1.849,3.322l0.483,1.452l-1.65,0.572c-0.153-0.771-0.33-1.54-0.506-2.003L207.359,517.254z
			 M208.174,504.822h-0.946v4.973h0.946V504.822z M209.736,509.795h1.078v-4.973h-1.078V509.795z"/>
		<path fill="#FFFFFF" d="M223.837,502.227l0.021,14.521h-1.716v-1.629h-2.839v1.629h-1.672v-14.5L223.837,502.227z
			 M222.143,507.881v-4.005h-2.839l0.022,4.027L222.143,507.881z M222.143,513.514v-4.026h-2.839l0.022,4.048L222.143,513.514z
			 M230.085,518.442l-0.638-1.782l1.979,0.154c0.198,0.021,0.374-0.198,0.353-0.396l0.021-11.288h-6.865l-0.021-1.628h6.887v-4.665
			h1.65v4.644h2.31v1.649l-2.31-0.021v11.728c0,0.902-0.639,1.606-1.364,1.606H230.085L230.085,518.442z M228.787,512.611
			c-0.484-1.431-2.112-3.763-3.498-4.907l1.319-0.924c1.299,1.034,3.015,3.3,3.565,4.885L228.787,512.611z"/>
		<path fill="#FFFFFF" d="M242.932,504.712h-3.41v-1.628h3.41v-4.048h1.761v4.048h2.992v1.628h-2.992v4.026l2.838-0.99v1.672
			l-2.838,1.012v5.897c0,0.813-0.066,1.342-0.793,1.782c-0.792,0.482-2.244,0.132-3.278-0.045l-0.55-1.717
			c1.122,0.198,1.694,0.31,2.442,0.354c0.33,0.044,0.418-0.242,0.418-0.616v-5.039l-3.08,1.122l-0.814-1.694l3.895-1.254
			L242.932,504.712L242.932,504.712z M257.607,518.465c-1.43-0.793-2.772-2.003-3.432-2.815c-0.639,1.056-1.673,1.913-2.905,2.882
			l-0.88-0.901l-0.021,0.967h-1.761v-18.768h8.229c-0.066,1.76-0.286,3.652-0.771,4.687c-0.242,0.528-0.813,1.013-1.408,1.101
			c-0.858,0.11-1.672,0.065-2.685-0.198l-0.418-1.693c1.078,0.264,1.629,0.329,2.354,0.329c0.484,0,0.639-0.197,0.814-0.748
			c0.198-0.659,0.286-1.298,0.308-1.87h-4.664v5.192h6.645c-0.066,2.882-0.792,5.281-1.937,7.481
			c0.858,1.231,2.465,2.311,3.697,3.08L257.607,518.465z M250.369,516.969c1.012-0.639,2.068-1.563,2.794-2.839
			c-0.946-1.782-1.563-3.785-1.87-5.875h-0.924V516.969z M252.921,508.233c0.177,1.43,0.704,3.189,1.232,4.313
			c0.528-1.034,1.078-3.037,1.122-4.291L252.921,508.233z"/>
		<path fill="#FFFFFF" d="M262.841,518.596h-1.188l5.654-9.944l-5.654-9.989h1.254l5.566,9.989L262.841,518.596z M265.768,518.596
			h-1.188l5.699-9.944l-5.633-9.989h1.188l5.698,9.989L265.768,518.596z"/>
		<path fill="#FFFFFF" d="M283.896,510.895c-0.506-0.836-1.694-2.243-2.685-3.102l1.232-1.232c1.145,0.858,2.288,1.938,3.015,2.816
			L283.896,510.895z"/>
		<path fill="#FFFFFF" d="M157.176,539.077v-9.747h7.194l-0.021-4.027h1.76l-0.044,4.006l7.173,0.021v9.659H171.5v-1.496h-5.435
			l0.044,7.415h-1.738l-0.021-7.415h-5.391l-0.044,1.584H157.176z M164.349,530.936h-5.435v4.975h5.456L164.349,530.936z
			 M171.455,530.936h-5.347v4.951h5.369L171.455,530.936z"/>
		<path fill="#FFFFFF" d="M195.788,526.14v18.659h-1.562l-0.022-1.541h-13.422v1.52h-1.65l0.022-18.638H195.788L195.788,526.14z
			 M180.805,541.718h13.378v-14.017h-13.378V541.718z M193.654,540.156h-12.41v-1.563h5.303v-3.719h-4.356v-1.519h4.379v-2.816
			h-5.127v-1.496h11.991v1.52h-5.28v2.771h4.577v1.563h-4.6v3.719h5.523L193.654,540.156L193.654,540.156z M191.607,538.461
			c-0.857-1.121-1.628-1.893-2.728-2.529l1.078-0.858c0.924,0.551,2.112,1.407,2.816,2.553L191.607,538.461z"/>
		<path fill="#FFFFFF" d="M205.687,530.805c-0.595,1.781-2.112,3.322-3.345,4.532l-1.298-1.188c1.298-1.077,2.508-2.375,3.433-4.157
			L205.687,530.805z M204.322,529.132c-0.946-1.364-1.738-1.958-2.795-2.64l1.013-1.014c0.99,0.418,2.354,1.387,3.015,2.354
			L204.322,529.132z M201.527,543.191c3.213-0.197,5.369-0.131,7.306-2.244c0.77-1.033,0.792-2.178,0.924-4.004l1.584-0.022
			c-0.065,2.2-0.241,4.467-2.046,5.875c-1.98,1.563-4.444,1.826-6.997,2.003L201.527,543.191z M216.006,534.654v6.865h-1.65v-5.281
			h-7.591v5.26h-1.673v-6.844h0.969l-0.683-0.969c2.112-0.594,3.653-1.121,4.907-2.179c0.792-0.66,1.276-1.43,1.716-2.64l1.54,0.352
			l-0.285,0.858c1.738,2.397,4.004,3.08,6.887,3.851l-1.145,1.408c-2.354-0.595-4.906-1.938-6.49-3.829
			c-0.881,1.431-3.301,2.795-5.392,3.104L216.006,534.654z M215.632,530.21c0.616-0.704,0.924-1.364,1.078-1.826h-6.425
			c-0.639,1.188-1.893,2.333-3.234,3.257l-1.122-1.299c1.914-1.122,3.212-3.036,3.872-5.104l1.475,0.527
			c-0.088,0.31-0.286,0.704-0.374,0.969h7.568c0.133,2.091-0.682,3.213-1.342,4.291L215.632,530.21z M217.568,545.018
			c-1.87-1.23-4.423-2.09-6.844-2.596l0.771-1.43c2.288,0.461,4.753,1.166,6.909,2.486L217.568,545.018z"/>
		<path fill="#FFFFFF" d="M225.618,533.203h4.29c-0.264-0.66-1.364-1.871-2.024-2.377l1.057-0.88c0.682,0.396,2.09,1.716,2.772,2.75
			l-0.748,0.507l2.838,0.043c0.594-0.572,1.738-2.046,2.223-3.277l1.452,0.791c-0.462,0.926-1.21,1.959-1.65,2.443h5.809v1.518
			h-14.39l0.021,4.027c0.022,3.123-1.738,5.104-3.41,6.116l-1.232-1.255c1.452-0.791,2.993-2.508,2.993-5.347L225.618,533.203
			L225.618,533.203z M233.803,528.186l7.813,0.045v1.519h-17.889v-1.496h8.845c-0.353-0.639-1.254-1.76-2.134-2.397l1.144-0.925
			c0.902,0.748,1.915,1.584,2.795,2.904L233.803,528.186z"/>
		<path fill="#FFFFFF" d="M246.804,541.652c0.353-0.178,0.704-0.64,0.704-0.926l0.021-7.105h-2.112v-1.629h3.895v8.34l2.575-1.387
			v1.848l-4.093,2.268L246.804,541.652z M247.244,525.941c1.231,0.791,2.2,1.563,3.212,2.729l-1.276,1.188
			c-0.88-1.188-1.87-2.002-3.146-2.75L247.244,525.941z M263.746,528.361h-4.577v5.479h3.939v1.563h-3.939v6.998h5.215v1.604
			h-14.038v-1.628h2.686V531.97h1.673V542.4l2.86,0.021l-0.022-14.061h-5.853v-1.584h12.058L263.746,528.361L263.746,528.361z"/>
		<path fill="#FFFFFF" d="M281.983,534.566c1.364,1.563,3.212,2.927,5.698,3.321l-0.99,1.52c-1.034-0.065-2.618-0.946-3.564-1.649
			c-0.153,1.937-0.396,3.478-0.748,5.126c-0.22,0.968-1.078,1.54-2.046,1.563c-1.145,0.044-1.826-0.221-2.927-0.374l-0.396-1.673
			c1.276,0.265,2.178,0.595,3.19,0.462c0.55,0.021,0.682-0.615,0.836-1.387c0.242-1.077,0.352-2.288,0.44-3.277h-3.477
			c-0.507,2.859-1.849,5.854-8.538,6.489l-0.726-1.672c5.017-0.043,7.283-2.156,7.635-4.84l-2.772,0.021l-0.021-1.452
			c-1.299,1.078-2.751,1.958-4.423,2.685l-0.968-1.453c2.838-1.254,4.246-2.485,5.324-3.432l-4.246,0.021v-1.605h5.566
			c0.506-0.617,0.836-1.123,1.034-1.65l-5.347-0.021v-1.584h5.896c0.44-1.344,0.616-2.948,0.639-4.644l1.65,0.11
			c0,1.672-0.198,3.277-0.507,4.51l6.932,0.022v1.584h-7.415c-0.286,0.616-0.528,1.231-0.814,1.673h9.439v1.604L281.983,534.566
			L281.983,534.566z M271.729,525.766c1.232,0.265,2.839,1.694,3.564,2.597l-1.342,1.034c-0.969-1.211-2.024-2.002-3.477-2.573
			L271.729,525.766z M281.653,536.568c-0.44-0.396-1.255-1.188-1.894-2.002h-4.005c-0.594,0.727-1.231,1.407-1.936,2.023
			L281.653,536.568z M284.403,526.711c-0.88,1.189-1.87,2.245-3.168,2.905l-1.211-1.232c1.123-0.418,2.487-1.605,3.19-2.729
			L284.403,526.711z"/>
		<path fill="#FFFFFF" d="M171.214,568.822c0.418,0,0.836-0.221,0.968-0.617c0.33-0.99,0.528-1.76,0.704-3.035l1.65,0.615
			c-0.242,1.43-0.44,2.75-1.255,3.873c-0.439,0.506-0.901,0.703-1.76,0.813h-4.114c-1.32,0-2.53-0.969-2.53-2.268v-4.113
			c-0.946,0.595-1.871,1.078-3.433,1.693l-0.792-0.857l-0.022,6.534h-1.694V560.24l-0.021,0.309
			c-0.595,0.814-1.343,1.693-2.179,2.332l-1.519-1.145c3.146-2.729,4.688-6.116,5.963-9.924l1.476,0.704
			c-0.572,1.894-1.232,3.72-2.024,5.304l0.022,6.358c1.716-0.705,2.97-1.231,4.225-2.003v-9.945h1.693v9.021
			c2.421-1.694,3.829-3.189,5.303-5.039l1.453,0.99c-2.223,2.751-4.489,4.708-6.756,6.051v4.665c0,0.55,0.374,0.902,1.211,0.902
			L171.214,568.822L171.214,568.822z"/>
		<path fill="#FFFFFF" d="M177.68,562.396c2.618-3.696,3.06-5.5,3.434-7.834h-2.839l-0.021-1.474l7.812,0.021l-0.022,1.495h-3.124
			c-0.221,1.232-0.771,3.191-1.167,4.226h3.719v10.386h-1.694l-0.021-1.716h-2.047l-0.021,2.178l-1.628-0.021v-7.592
			c-0.286,0.353-0.616,0.881-1.057,1.475L177.68,562.396z M183.906,560.196c-0.792,0-1.584-0.022-2.376,0v5.919h2.376V560.196z
			 M190.023,561.759c0,5.501-1.122,6.733-3.652,9.681l-1.364-1.1c1.716-1.65,2.927-3.454,3.19-5.611
			c0.11-1.012,0.176-2.198,0.132-2.991h-2.486v-1.519h2.486l0.022-5.963l-1.87-0.021v-1.52h10.781l-0.021,1.52l-2.508,0.021v5.963
			h3.19v1.54h-3.19l0.021,9.638h-1.716l0.021-9.638H190.023L190.023,561.759z M193.016,554.234l-3.014,0.021l-0.022,5.963h3.015
			L193.016,554.234z"/>
		<path fill="#FFFFFF" d="M202.408,562.661h5.654c0.154-0.792,0.309-2.068,0.396-3.06l1.628,0.198
			c-0.021,1.122-0.154,2.156-0.286,2.86h6.051c-0.33,1.914-0.55,3.607-0.748,5.368c-0.044,0.506,0.198,0.836,0.616,0.836h1.276
			c0.308-0.065,0.396-0.109,0.506-0.33c0.286-0.527,0.33-0.857,0.462-1.431c0.11-0.241,0.242-0.969,0.396-1.451l1.628,0.659
			c-0.154,0.66-0.704,2.376-1.122,3.257c-0.374,0.791-1.21,0.837-2.002,0.837h-1.585c-1.166,0-2.023-0.925-1.893-2.662
			c0.088-1.232,0.353-2.466,0.506-3.499h-4.379c-0.308,2.091-1.144,3.981-2.376,4.973c-1.738,1.408-2.244,1.408-3.74,1.805
			c-0.727,0.198-1.65,0.418-2.245,0.463l-0.99-1.629c2.575-0.462,4.203-0.99,5.281-1.65c0.704-0.439,1.188-0.901,1.849-2.266
			c0.264-0.528,0.374-1.232,0.462-1.694h-5.347L202.408,562.661L202.408,562.661z M210.087,554.189
			c-0.748-0.595-1.849-1.299-2.883-1.629l1.299-1.121c1.21,0.438,2.53,1.274,3.477,2.135l-0.616,0.615h7.525v4.225h-1.738v-2.641
			h-14.148v2.729h-1.716v-4.313H210.087z M201.352,560.373c2.971-0.771,5.104-2.135,6.887-4.357l1.255,1.078
			c-1.717,2.135-4.335,4.027-7.35,4.863L201.352,560.373z M217.59,561.891c-2.09-2.354-4.643-3.895-6.645-4.687l1.034-1.21
			c2.794,1.145,5.236,2.706,6.776,4.621L217.59,561.891z"/>
		<path fill="#FFFFFF" d="M224.012,571.506v-18.791h5.677v1.408l-1.738,4.818c0.418,0.596,1.034,1.255,1.364,2.024
			c0.66,1.21,0.726,3.125-0.11,4.246c-0.638,0.858-1.54,1.166-3.366,0.639l-0.132-1.123l-0.044,6.777L224.012,571.506
			L224.012,571.506z M225.662,563.959c0.77,0.33,1.804,0.836,2.266,0.198c0.639-1.298,0.11-2.927-0.946-3.938l-0.924-0.901
			l1.87-4.994l-2.266-0.022V563.959z M230.261,561.518l10.803,0.021l-0.021,1.584h-3.036v5.127c0.044,0.439,0.197,0.572,0.638,0.527
			h1.232c0.572,0,0.836-0.727,1.1-3.168l1.606,0.813c-0.594,2.486-0.792,3.916-2.729,3.938l-1.782,0.021
			c-1.452,0.022-1.716-1.012-1.716-1.826v-5.435h-1.584c-0.221,2.53-0.242,6.602-6.359,8.428l-1.078-1.431
			c4.73-1.167,5.765-3.764,5.699-6.997h-2.772L230.261,561.518L230.261,561.518z M239.788,557.6l-0.022-1.936h-8.317v2.068
			l-1.672-0.022l0.021-3.63h5.062c-0.418-0.551-1.541-1.145-2.619-1.387l1.013-1.211c1.364,0.265,2.552,1.034,3.477,2.268
			l-0.396,0.285l5.104,0.045l0.022,3.52H239.788z M239.744,557.82v1.604h-8.273v-1.604H239.744z"/>
		<path fill="#FFFFFF" d="M252.612,557.6c-0.31-0.968-1.013-1.892-1.563-2.508l-1.145,0.021c-0.418,0.925-1.275,2.091-2.53,2.949
			l-1.275-1.034c2.002-1.497,3.3-4.026,3.542-5.546l1.563,0.44c-0.198,0.726-0.396,1.298-0.528,1.605h5.369v1.584h-2.971
			c0.264,0.265,0.704,0.925,1.145,1.737L252.612,557.6z M256.44,569.613c1.034,0.065,1.805,0.133,2.553,0.11
			c0.286,0,0.484-0.286,0.484-0.551v-2.86h-13.07v-1.563h13.07v-1.431l1.737-0.021v1.476h3.917v1.539h-3.917v3.346
			c0,0.462-0.439,1.056-0.88,1.362c-0.506,0.33-1.694,0.354-3.278,0.33L256.44,569.613z M256.572,556.83v1.452l6.096,0.021v1.54
			l-6.073,0.022v1.627h7.701v1.585h-17.163l-0.021-1.563l7.745-0.021v-1.627h-5.919l-0.021-1.563h5.94v-1.629h1.519l-0.946-0.727
			c1.386-1.319,2.332-2.705,2.53-4.62l1.519,0.595c-0.177,0.88-0.177,1.033-0.353,1.518h5.94v1.563h-3.014
			c0.242,0.242,0.594,0.902,0.946,1.717l-1.585,0.791c-0.22-0.989-0.77-1.958-1.254-2.508h-1.826
			c-0.286,0.572-0.99,1.519-1.584,1.958L256.572,556.83z M250.346,566.533c1.958,0.221,3.675,0.902,5.171,2.311l-0.902,1.408
			c-1.254-1.364-3.586-2.2-5.192-2.377L250.346,566.533z"/>
	</g>
	<g>
		<path fill="#FFFFFF" d="M153.745,617.154c0.085-0.697,0.17-0.986,0.408-1.462c0.459-0.919,1.24-1.803,2.464-2.806l0.562-0.459
			c2.243-1.836,3.094-2.99,3.094-4.146c0-1.225-0.969-2.107-2.295-2.107c-1.462,0-2.363,0.918-2.38,2.447l-1.53-0.17
			c0.204-2.277,1.599-3.52,3.944-3.52c2.261,0,3.808,1.377,3.808,3.384c0,1.443-0.851,2.735-2.992,4.538l-1.224,1.037
			c-1.003,0.85-1.411,1.291-1.751,1.836h5.983v1.428H153.745z"/>
		<path fill="#FFFFFF" d="M167.413,617.357c-1.581,0-2.788-0.832-3.4-2.361c-0.391-0.986-0.561-2.193-0.561-3.876
			c0-4.097,1.326-6.188,3.961-6.188c2.635,0,3.96,2.092,3.96,6.223S170.048,617.357,167.413,617.357z M169.401,607.686
			c-0.34-0.934-1.104-1.512-2.006-1.512c-1.666,0-2.414,1.563-2.414,4.963c0,1.514,0.153,2.669,0.442,3.469
			c0.34,0.951,1.104,1.529,1.989,1.529c0.884,0,1.648-0.578,1.988-1.529c0.289-0.782,0.442-1.954,0.442-3.45
			S169.707,608.52,169.401,607.686z"/>
		<path fill="#FFFFFF" d="M177.035,617.154v-9.521c-0.493,0.478-0.97,0.799-1.854,1.275c-0.544,0.289-0.696,0.356-1.139,0.526
			v-1.444c1.615-0.748,2.958-1.938,3.519-3.061h0.969v12.223L177.035,617.154L177.035,617.154z"/>
		<path fill="#FFFFFF" d="M186.504,617.357c-1.547,0-2.924-0.832-3.569-2.176c-0.459-0.951-0.646-2.091-0.646-3.723
			c0-4.268,1.496-6.527,4.352-6.527c1.938,0,3.213,1.122,3.468,3.025l-1.496,0.136c-0.17-1.258-0.851-1.92-1.972-1.92
			c-1.104,0-1.938,0.595-2.362,1.666c-0.307,0.781-0.51,1.903-0.51,2.806v0.236c0.271-0.425,0.407-0.577,0.714-0.833
			c0.629-0.492,1.428-0.781,2.243-0.781c2.057,0,3.587,1.683,3.587,3.927C190.312,615.625,188.73,617.357,186.504,617.357z
			 M186.419,610.576c-1.394,0-2.414,1.121-2.414,2.617c0,1.666,1.071,2.94,2.465,2.94c1.343,0,2.313-1.189,2.313-2.839
			C188.781,611.681,187.83,610.576,186.419,610.576z"/>
		<path fill="#FFFFFF" d="M200.121,604.015c1.394,2.228,4.521,4.964,7.224,5.372l-0.85,1.206c-4.028-1.411-5.763-3.568-7.089-5.507
			c-1.258,1.801-3.179,3.909-6.884,5.507l-0.986-0.952c2.72-1.224,5.983-3.229,7.785-6.78l1.003,0.729L200.121,604.015z
			 M200.358,612.531v3.842h6.018v1.273h-13.888v-1.259h2.72v-5.643h1.343v5.643h2.465v-8.057h1.343v2.958h4.029v1.241
			L200.358,612.531L200.358,612.531z"/>
		<path fill="#FFFFFF" d="M223.665,616.117v1.241h-14.466V616.1h4.964v-12.527h1.326v12.545h1.972V603.59h1.274v12.527H223.665z
			 M211.256,607.262c0.867,1.903,1.666,4.283,1.904,6.562l-1.292,0.562c-0.085-2.312-0.867-4.675-1.717-6.596L211.256,607.262z
			 M222.679,607.721c-0.34,2.668-1.07,5.133-2.191,6.867l-1.088-0.663c1.173-1.547,1.989-4.59,2.107-6.63L222.679,607.721z"/>
		<path fill="#FFFFFF" d="M225.859,616.916c2.192-0.322,4.097-0.459,5.678-1.58c1.207-0.867,1.292-2.482,1.292-4.148h1.274
			c0,1.377-0.034,2.636-0.51,3.588c-0.374,0.748-0.918,1.359-1.632,1.836c-1.275,0.851-3.978,1.377-5.405,1.563L225.859,616.916z
			 M228.817,608.621v-2.039c-0.493,0.373-1.224,0.799-2.091,1.155l-0.833-1.055c2.04-0.866,3.654-2.057,5.082-3.723l0.97,0.815
			c-0.646,0.765-1.292,1.359-1.819,1.853v2.992L228.817,608.621L228.817,608.621z M228.375,609.232h9.894v5.934h-1.326v-4.691
			h-7.241v5.015h-1.326L228.375,609.232L228.375,609.232z M237.316,604.797l2.431-0.441l0.238,1.154l-4.641,0.852
			c0.544,0.459,1.479,0.918,2.481,1.207c0.357,0.103,0.646,0.322,1.003,0.117c0.068-0.051,0.153-0.117,0.204-0.271
			c0.136-0.271,0.187-0.748,0.238-1.274l1.224,0.426c-0.272,1.258-0.374,1.683-0.884,2.157c-0.646,0.442-1.938,0.138-2.652-0.102
			c-1.206-0.392-2.38-1.054-3.195-1.972l-2.669,0.492l-0.355-1.139l2.295-0.426c-0.119-0.271-0.511-1.343-0.612-2.227l1.292-0.357
			c0.187,0.97,0.356,1.717,0.714,2.313l2.228-0.391c-0.459-0.323-1.122-0.51-1.988-0.681l0.646-1.003
			c0.629,0.033,1.836,0.34,2.55,0.832L237.316,604.797z M239.917,618.26c-1.666-1.225-4.063-2.107-6.137-2.533l0.596-1.104
			c2.022,0.442,4.232,1.071,6.442,2.516L239.917,618.26z"/>
		<path fill="#FFFFFF" d="M242.91,616.168c1.122-0.935,1.989-1.887,2.55-3.145l0.969,0.662c-0.544,1.326-1.41,2.347-2.55,3.299
			L242.91,616.168z M243.353,605.715l0.017-1.241l3.349,0.018v-1.479h1.292l-0.017,1.462h3.416l0.018,1.241h-3.434l0.017,1.155
			h2.754l0.017,1.224l-6.748,0.019v-1.241l2.669-0.018l0.017-1.139H243.353z M244.831,617.086h1.496
			c0.323,0,0.493-0.119,0.493-0.476v-4.165h-3.298v-1.225h7.734v1.225h-3.162l0.018,4.369c0,0.629-0.289,1.428-1.14,1.428h-1.224
			L244.831,617.086z M244.338,610.236v-1.226h6.086v1.226H244.338z M249.285,612.904c1.088,0.781,1.495,1.377,2.158,2.414
			l-1.037,0.696c-0.544-0.9-1.155-1.717-2.073-2.38L249.285,612.904z M250.186,617.461c2.669-2.229,3.009-4.217,3.213-5.984
			c0.068-0.68,0.153-2.191,0.187-2.99l1.275,0.187l-0.103,2.125c0.357,2.447,1.326,4.912,3.52,6.478l-0.867,0.969
			c-1.547-0.952-2.771-3.043-3.145-4.539c-0.578,1.785-1.31,2.958-3.077,4.641L250.186,617.461z M255.506,609.438
			c0.323-0.851,0.527-1.563,0.663-2.158l-2.839,0.017c-0.271,1.071-0.73,2.193-1.479,3.332l-1.258-0.544
			c1.53-2.04,1.955-4.471,1.988-7.122l1.225,0.322c-0.018,1.037-0.068,2.006-0.222,2.771h3.944c-0.085,1.31-0.442,2.414-0.833,3.604
			L255.506,609.438z"/>
		<path fill="#FFFFFF" d="M268.597,617.154l-1.428-3.688h-5.083l-1.343,3.688h-1.699l4.674-12.172h1.734l4.963,12.172H268.597z
			 M265.401,608.791c-0.493-1.292-0.612-1.666-0.833-2.533c-0.17,0.715-0.426,1.633-0.681,2.329l-1.343,3.569h4.131L265.401,608.791
			z"/>
		<path fill="#FFFFFF" d="M278.916,616.729c-0.748,0.323-1.377,0.442-2.635,0.442h-4.641l0.017-12.188h4.556
			c1.717,0,2.686,0.374,3.399,1.273c0.408,0.527,0.629,1.19,0.629,1.836c0,1.123-0.595,2.04-1.683,2.584
			c1.462,0.442,2.277,1.496,2.277,2.976C280.836,615.013,280.071,616.236,278.916,616.729z M277.572,606.598
			c-0.425-0.117-0.951-0.17-1.887-0.17h-2.431v3.672h2.635c1.088,0,1.36-0.032,1.836-0.254c0.595-0.256,0.935-0.815,0.935-1.547
			C278.66,607.465,278.235,606.803,277.572,606.598z M278.015,611.8c-0.544-0.221-0.85-0.271-1.938-0.271h-2.822v4.198h3.026
			c1.088,0,1.309-0.033,1.853-0.307c0.646-0.306,1.037-0.984,1.037-1.784C279.171,612.785,278.729,612.089,278.015,611.8z"/>
		<path fill="#FFFFFF" d="M287.688,617.357c-3.213,0-5.116-1.513-5.185-4.113l1.53-0.135c0.067,0.646,0.119,0.865,0.323,1.239
			c0.526,0.97,1.768,1.564,3.264,1.564c1.818,0,3.008-0.816,3.008-2.074c0-0.646-0.34-1.188-0.917-1.479
			c-0.578-0.308-0.833-0.393-2.754-0.852c-1.598-0.391-2.193-0.612-2.856-1.104c-0.73-0.545-1.121-1.36-1.121-2.277
			c0-2.006,1.717-3.35,4.267-3.35c2.771,0,4.487,1.359,4.572,3.638l-1.547,0.119c-0.17-1.598-1.104-2.329-2.958-2.329
			c-1.733,0-2.787,0.68-2.787,1.819c0,1.02,0.595,1.428,2.89,1.938c1.903,0.425,2.481,0.612,3.229,1.055
			c0.985,0.577,1.547,1.547,1.547,2.702C292.192,615.846,290.322,617.357,287.688,617.357z"/>
		<path fill="#FFFFFF" d="M154.153,636.586l1.768-0.17v-5.542h-1.513v-1.207h14.397v1.207h-6.851v7.853h-1.36v-1.817l-5.745,0.899
			L154.153,636.586z M156.72,629.157v-4.913h9.706v4.913H156.72z M160.595,631.809v-0.935h-3.365v0.935H160.595z M157.229,632.98
			v0.885h3.383v-0.885H157.229z M157.246,635.021v1.224c1.088-0.153,2.261-0.288,3.349-0.476v-0.748H157.246z M165.1,625.418h-7.071
			v0.748h7.071V625.418z M158.028,627.287v0.729h7.071v-0.729H158.028z M168.023,631.52c-0.34,1.718-0.663,2.771-1.768,4.268
			c0.765,0.782,1.699,1.411,2.89,1.888c-0.34,0.392-0.527,0.662-0.85,0.985c-1.14-0.477-1.921-1.071-2.839-1.955
			c-0.816,0.73-1.717,1.581-2.635,2.091l-0.767-1.02c1.037-0.63,1.938-1.275,2.603-1.955c-0.681-0.918-1.311-1.955-1.514-3.095
			h-0.714v-1.207H168.023z M164.317,632.727c0.272,0.816,0.562,1.359,1.088,2.125c0.493-0.748,0.952-1.496,1.14-2.125H164.317z"/>
		<path fill="#FFFFFF" d="M173.906,631.418h9.299v1.054c-0.766,1.462-2.058,2.602-3.179,3.384c1.632,0.85,3.671,1.273,6.034,1.462
			l-0.799,1.239c-2.346-0.34-4.605-0.865-6.493-1.953c-2.023,1.035-4.284,1.632-6.681,2.106l-0.85-1.19
			c2.396-0.391,4.538-0.85,6.271-1.698c-0.969-0.73-2.142-1.904-2.651-3.146l-0.952-0.018L173.906,631.418L173.906,631.418z
			 M172.155,624.855c4.012,0.067,9.469-0.459,12.069-1.394l0.68,1.054c-3.705,1.104-8.091,1.53-12.104,1.581L172.155,624.855z
			 M175.317,628.919c-0.459-0.85-1.173-1.665-2.142-2.227l1.258-0.578c0.952,0.544,1.581,1.377,2.142,2.329l-0.952,0.44l4.964,0.019
			c0.935-1.021,1.683-2.263,2.04-3.758l1.343,0.511c-0.459,1.155-1.479,2.702-1.904,3.264h2.992v2.754h-1.292l-0.017-1.496h-10.25
			v1.6l-1.31-0.019l-0.017-2.839H175.317z M176.27,632.676c0.408,0.766,1.802,2.125,2.499,2.465c1.104-0.646,2.209-1.58,2.805-2.465
			H176.27z M178.921,628.834c-0.374-1.02-0.884-1.734-1.768-2.566l1.224-0.441c0.765,0.781,1.36,1.529,1.751,2.55L178.921,628.834z"
			/>
		<path fill="#FFFFFF" d="M194.595,626.047c-0.391,2.583-0.561,3.857-1.529,5.915c0.969,1.122,1.785,2.192,2.414,3.688l-1.156,0.832
			c-0.527-1.479-1.088-2.295-1.887-3.246c-0.782,1.292-2.107,2.992-3.893,4.317l-0.952-0.969c2.074-1.496,3.179-3.026,3.961-4.353
			c-1.343-1.444-1.955-1.938-3.128-2.721l0.901-0.85c0.985,0.578,2.192,1.632,2.838,2.328c0.426-0.969,0.766-2.26,0.97-3.705h-4.896
			l-0.019-1.258L194.595,626.047z M202.618,638.643c-0.34-0.152-0.646-0.392-0.85-0.562c-1.309-1.054-2.346-2.448-2.907-3.654
			c-0.526,1.818-2.805,3.569-4.98,4.182l-0.832-1.155c1.343-0.374,2.447-0.85,3.349-1.7c1.394-1.291,1.818-3.161,1.818-5.116v-1.699
			h1.241c0,1.547,0.067,2.651-0.153,3.842c0.391,0.815,0.867,1.633,1.445,2.396c0.73,0.97,1.479,1.769,2.617,2.397L202.618,638.643z
			 M202.499,626.369c0.085,1.055-0.356,2.839-0.662,3.757l-1.225-0.323c0.17-0.51,0.477-1.528,0.596-2.209h-3.859
			c-0.374,1.428-1.104,3.06-2.261,4.486l-1.122-0.814c1.836-2.313,2.652-4.93,2.805-7.973l1.174,0.408
			c-0.052,1.036-0.153,1.852-0.323,2.668H202.499L202.499,626.369z"/>
		<path fill="#FFFFFF" d="M207.651,629.889h-2.277v-1.174h3.535v6.426c0.901,0.97,2.21,1.58,3.688,1.633
			c1.377,0.051,2.806,0.152,4.216,0.066l3.621-0.203l-0.51,1.395h-6.919c-3.11,0-3.842-0.867-4.691-1.77
			c-0.833,0.612-1.648,1.396-2.566,2.193l-0.969-1.02c1.054-0.767,2.006-1.564,2.872-2.278V629.889z M207.821,627.406
			c-0.459-1.003-1.274-2.228-2.243-3.043l0.951-0.697c1.021,0.816,1.904,2.058,2.396,3.01L207.821,627.406z M214.077,633.406
			c-0.782,0.426-2.176,1.156-3.128,1.733l-1.021-0.833c0.271-0.255,0.492-0.511,0.492-0.748v-8.447
			c1.259-0.238,2.414-0.833,3.4-1.717l1.02,0.781c-1.037,0.936-2.073,1.514-3.11,1.835v7.191c0.748-0.357,1.24-0.664,2.346-1.241
			V633.406z M214.688,624.771h4.556v7.973c0,0.408-0.255,0.969-0.815,1.172c-0.544,0.205-1.207,0.222-1.921,0.17l-0.442-1.342
			c0.714,0.084,1.173,0.066,1.53,0.033c0.238-0.033,0.356-0.152,0.356-0.356v-6.356h-1.954v10.113h-1.31V624.771z"/>
		<path fill="#FFFFFF" d="M236.873,632.777v1.24h-5.524c0.782,1.259,2.703,2.618,6.12,3.399l-0.936,1.139
			c-3.757-1.036-6-2.939-6.544-4.571h-0.17c-1.564,3.927-5.508,4.282-7.225,4.571l-0.833-1.12c2.278-0.427,5.627-1.037,6.578-3.418
			h-6.051v-1.24h6.748l0.357-1.156l1.274,0.154l-0.271,1.002H236.873z M227.541,632.199h-1.325v-2.976
			c-0.952,0.782-2.244,1.7-3.281,2.296l-0.867-1.259c1.174-0.544,2.891-1.717,4.131-2.565v-4.25h1.309L227.541,632.199z
			 M223.07,624.244c0.885,0.629,1.836,1.666,2.432,2.736l-1.021,1.004c-0.408-1.021-1.343-2.159-2.295-2.958L223.07,624.244z
			 M230.941,626.98c0.492,0.356,1.121,0.885,1.495,1.412c0.596-0.493,1.411-1.259,2.176-2.414h-3.62
			c-0.51,0.748-1.581,1.987-2.329,2.431l-1.003-0.969c1.309-0.815,2.431-2.007,3.213-4.147l1.139,0.477
			c-0.067,0.306-0.238,0.714-0.408,1.003h4.437l0.018,1.224c-1.462,2.806-3.688,4.709-7.514,5.575l-0.85-1.172
			c1.326-0.238,2.754-0.597,3.808-1.345c-0.493-0.525-0.952-0.969-1.513-1.273L230.941,626.98z"/>
	</g>
</g>
</svg>
