<?xml version="1.0" encoding="utf-8"?>
<!-- Generator: Adobe Illustrator 16.0.0, SVG Export Plug-In . SVG Version: 6.00 Build 0)  -->
<!DOCTYPE svg PUBLIC "-//W3C//DTD SVG 1.1//EN" "http://www.w3.org/Graphics/SVG/1.1/DTD/svg11.dtd">
<svg version="1.1" id="Layer_1" xmlns="http://www.w3.org/2000/svg" xmlns:xlink="http://www.w3.org/1999/xlink" x="0px" y="0px"
	 width="768px" height="1024px" viewBox="0 0 768 1024" enable-background="new 0 0 768 1024" xml:space="preserve">
<g>
	<rect x="302.89" y="609.081" opacity="0.698" fill="#3490C1" enable-background="new    " width="162.222" height="162.22"/>
	<g>
		<g>
			<path fill="#FFFFFF" d="M329.844,643.837h-4.97v-15.892h-6.161v-3.746c3.465,0.07,6.65-1.119,7.176-4.865h3.955V643.837z"/>
			<path fill="#FFFFFF" d="M353.68,623.605c-5.146,4.479-7.945,13.686-8.016,20.23h-5.321c0.562-7.245,3.571-14.282,8.227-19.882
				h-11.621v-4.621h16.73L353.68,623.605L353.68,623.605z"/>
		</g>
	</g>
	<g>
		<g>
			<path fill="#FFFFFF" d="M324.407,679.994l-5.766-9.945l5.699-9.99h1.188l-5.633,9.99l5.698,9.945H324.407z M327.334,679.994
				l-5.633-9.945l5.566-9.99h1.254l-5.654,9.99l5.654,9.945H327.334z"/>
			<path fill="#FFFFFF" d="M339.256,675.594v1.693l-4.225,2.223l-1.012-1.43c0.638-0.354,0.836-0.881,0.836-1.475v-4.621h-3.104
				v-1.563h3.104v-2.198h-0.99c-0.483,0.659-0.969,1.1-1.826,1.848l-1.232-1.32c2.004-1.628,3.411-4.643,3.653-8.339l1.584,0.418
				c0.065,1.188-0.11,2.332-0.198,2.53h3.322v1.584h-3.719c-0.197,0.616-0.483,1.254-0.682,1.693h4.181v1.586h-2.376v2.178h2.75
				v1.584h-2.75v4.93L339.256,675.594z M340.488,679.972l-1.232-1.431c0.484-0.153,0.814-0.66,0.814-1.121v-16.085h8.229v9.659
				l-3.103-0.021c0.088,1.013,0.418,2.312,0.813,3.08c0.925-0.462,1.761-1.342,2.597-2.641l1.276,1.013
				c-0.946,1.386-2.091,2.332-3.189,2.948c0.771,1.342,2.485,2.354,4.443,2.859l-1.166,1.453c-1.298-0.33-2.376-1.013-3.321-1.806
				c-1.87-1.914-2.84-4.422-3.036-6.887h-1.827v6.756l3.323-1.123v1.65L340.488,679.972z M341.786,662.92v2.398h4.841v-2.398
				H341.786z M341.786,666.857v2.553h4.841v-2.553H341.786z"/>
			<path fill="#FFFFFF" d="M353.93,671.83c2.772-1.584,4.974-4.048,6.777-6.623l1.342,0.902c-0.616,1.123-1.87,2.597-2.685,3.587
				v10.144h-1.694v-8.405c-0.374,0.354-1.605,1.166-2.441,1.762L353.93,671.83z M354.216,665.779
				c2.312-1.605,4.093-3.586,5.566-5.896l1.299,1.012c-1.476,2.224-3.301,4.556-5.391,6.029L354.216,665.779z M364.293,678.035
				c1.122,0.088,2.091,0.088,3.037,0.065c0.241-0.065,0.482-0.221,0.482-0.527v-9.021h-5.633v-1.629l11.332,0.021v1.607
				l-3.917,0.021l-0.021,9.196c0,0.771-0.396,1.343-0.946,1.673c-0.594,0.33-2.685,0.309-3.807,0.265L364.293,678.035z
				 M372.171,663.229h-9.462l-0.021-1.629l9.483-0.021V663.229z"/>
			<path fill="#FFFFFF" d="M395.227,678.211c-2.311-0.968-4.137-3.52-4.929-5.874l-1.057,0.44c0.353,1.518,0.439,3.102,0.33,4.334
				c-0.11,1.211-0.353,2.267-1.496,2.662c-0.968,0.353-2.662,0.065-3.852-0.154l-0.682-1.957c1.43,0.461,2.53,0.748,3.696,0.703
				c0.264-0.109,0.571-0.439,0.638-0.727c0.11-0.857,0.132-1.781,0.088-2.947c-2.64,2.287-6.843,3.389-9.703,3.916l-1.21-1.519
				c4.094-0.595,7.701-1.649,10.563-4.115c-0.176-0.462-0.33-0.856-0.596-1.274c-2.31,1.584-4.84,2.815-8.359,3.188l-1.167-1.43
				c3.411-0.484,6.271-1.299,8.626-3.015c-0.354-0.286-0.704-0.528-1.102-0.748c-1.825,0.901-3.719,1.431-5.963,1.737l-1.144-1.452
				c3.63-0.571,6.116-1.342,8.009-2.485l-5.545-0.021l0.021-1.585h12.409v1.563h-4.049c-0.704,0.616-1.518,1.056-2.112,1.407
				c0.793,0.507,1.65,1.52,2.068,2.465c1.475-0.484,2.839-1.693,4.071-3.168l1.274,1.121c-0.856,0.99-1.672,1.629-2.44,2.2
				c0.614,2.003,2.464,4.576,4.708,5.437L395.227,678.211z M395.271,666.77h-1.694v-2.44h-14.104l0.022,2.529H377.8v-4.093h7.943
				c-0.354-0.551-0.814-0.901-2.091-1.849c0.55-0.396,0.925-0.683,1.387-1.034c1.364,0.792,2.376,2.156,2.794,2.883h7.438V666.77z"
				/>
			<path fill="#FFFFFF" d="M400.283,679.994h-1.188l5.654-9.945l-5.654-9.99h1.254l5.566,9.99L400.283,679.994z M403.21,679.994
				h-1.188l5.699-9.945l-5.633-9.99h1.188l5.697,9.99L403.21,679.994z"/>
			<path fill="#FFFFFF" d="M428.532,666.197c-0.31-0.969-1.013-1.893-1.563-2.508l-1.145,0.021c-0.418,0.925-1.275,2.091-2.53,2.949
				l-1.274-1.034c2.002-1.497,3.3-4.026,3.541-5.545l1.563,0.439c-0.198,0.727-0.396,1.299-0.528,1.605h5.369v1.584h-2.971
				c0.264,0.265,0.704,0.925,1.145,1.738L428.532,666.197z M432.36,678.211c1.034,0.066,1.805,0.133,2.553,0.111
				c0.286,0,0.483-0.287,0.483-0.551v-2.86h-13.069v-1.563h13.069v-1.431l1.738-0.021v1.475h3.916v1.54h-3.916v3.345
				c0,0.462-0.439,1.057-0.881,1.363c-0.506,0.33-1.693,0.353-3.278,0.33L432.36,678.211z M432.492,665.428v1.452l6.096,0.022v1.539
				l-6.073,0.022v1.627h7.701v1.585h-17.162l-0.021-1.563l7.745-0.022v-1.627h-5.919l-0.021-1.563h5.94v-1.63h1.519l-0.946-0.727
				c1.387-1.318,2.332-2.705,2.53-4.62l1.52,0.595c-0.178,0.881-0.178,1.033-0.354,1.519h5.94v1.563h-3.015
				c0.242,0.242,0.595,0.902,0.946,1.718l-1.585,0.791c-0.22-0.99-0.771-1.959-1.254-2.509h-1.826
				c-0.286,0.572-0.99,1.519-1.584,1.958L432.492,665.428z M426.266,675.131c1.958,0.221,3.676,0.902,5.172,2.311l-0.902,1.408
				c-1.254-1.363-3.586-2.199-5.192-2.377L426.266,675.131z"/>
		</g>
	</g>
	<g>
		<g>
			<path fill="#FFFFFF" d="M323.959,699.516h1.428v5.711h6.053l0.017,1.293l-6.068,0.018l0.019,8.414h-1.445v-8.414h-6.051v-1.311
				h6.051v-5.711H323.959z"/>
			<path fill="#FFFFFF" d="M338.801,700.061c-0.441,1.443-0.9,2.855-1.581,4.045v10.88h-1.258v-8.907
				c-0.17,0.271-0.68,1.036-1.428,1.768l-1.054-0.935c1.972-1.887,3.382-4.59,4.13-7.326L338.801,700.061z M348.982,713.182v1.242
				h-11.05v-1.242h4.794v-2.446h-3.638v-1.24h3.638v-1.904h1.395v1.904h3.604v1.24h-3.604v2.446H348.982z M344.104,705.855h4.421
				v1.241h-10.25v-1.241h4.437v-2.328h-3.484v-1.258h3.484v-2.244h1.395v2.262h3.45v1.223h-3.45v2.346H344.104z"/>
			<path fill="#FFFFFF" d="M350.837,713.811c2.295-1.154,3.265-3.194,3.265-5.881v-4.945h1.274v4.979
				c0,2.702-0.782,5.235-3.723,6.986L350.837,713.811z M351.925,700.723h5.694v9.554h-1.274v-8.347H353.2v8.313h-1.275V700.723z
				 M355.749,710.752c0.901,0.629,2.006,1.75,2.72,3.008l-1.088,0.852c-0.611-1.26-1.139-1.955-2.431-3.043L355.749,710.752z
				 M360.729,714.865l-0.491-1.359c0.899,0.033,1.479,0.051,2.091,0.051c0.187-0.033,0.255-0.119,0.255-0.441v-8.533l-0.221,0.017
				c-0.188,3.13-1.156,5.798-3.843,8.363l-1.055-0.985c1.241-1.173,2.04-2.191,2.807-3.738c0.561-1.14,0.765-2.433,0.832-3.655
				h-3.161v-1.258h4.641v-3.604h1.325v3.604h1.888v1.258h-1.888v9.009c0,0.629-0.392,1.275-1.139,1.275h-2.041V714.865z"/>
			<path fill="#FFFFFF" d="M382.422,703.561h-1.275l-0.017-1.375l-10.913,0.017v1.428h-1.258l-0.018-2.668l5.916-0.018
				c-0.119-0.137-0.478-0.425-1.088-0.697l1.173-0.765c0.374,0.237,1.054,0.8,1.411,1.479l6.067-0.018L382.422,703.561
				L382.422,703.561z M380.109,714.797v-0.884h-8.806v0.985h-1.274v-6.408h11.354v6.307H380.109z M380.705,703.986l-10.029,0.018
				v-1.242l10.012-0.016L380.705,703.986z M371.305,710.666l3.739-0.018v-0.918h-3.739V710.666z M371.321,711.789l-0.018,0.9h3.739
				v-0.9H371.321z M371.355,707.828l0.018-3.195h8.651l0.018,3.178L371.355,707.828z M378.75,706.639v-0.851h-6.104v0.851H378.75z
				 M376.319,709.73v0.901l3.79,0.018v-0.919H376.319z M376.336,711.771l-0.017,0.918h3.79v-0.9L376.336,711.771z"/>
			<path fill="#FFFFFF" d="M385.177,702.967c1.377-0.885,2.143-2.125,2.771-3.484c0.407,0.187,0.696,0.341,1.104,0.526
				c-0.188,0.425-0.374,0.799-0.425,0.936h4.402v1.206l-2.566,0.019c0.067,0.084,0.306,0.594,0.577,1.002l-1.155,0.629
				c-0.289-0.68-0.578-1.188-0.969-1.631h-0.986c-0.407,0.562-0.918,1.121-1.784,1.717L385.177,702.967z M385.874,703.918h6.238
				c-0.119-0.238-0.459-0.662-0.97-1.156l1.225-0.391c0.544,0.545,0.952,1.241,1.156,1.547h6.085v3.195l-1.292-0.017v-1.973h-11.15
				l-0.018,2.057l-1.274-0.017V703.918z M389.443,714.916H388.1l0.018-8.924h9.146l0.018,3.467l-7.87,0.018v0.851h8.618v4.539h-1.31
				v-1.003h-7.292L389.443,714.916z M389.409,708.253h6.579l-0.019-1.054h-6.562L389.409,708.253L389.409,708.253z M389.427,711.567
				l0.018,1.122l7.274-0.019v-1.139L389.427,711.567z M397.364,702.082c0.103,0.104,0.493,0.51,0.782,1.037
				c-0.375,0.238-0.715,0.408-1.155,0.596c-0.323-0.681-0.663-1.207-1.105-1.615h-1.122c-0.221,0.373-0.544,0.9-1.02,1.31
				c-0.357-0.271-0.629-0.441-1.003-0.73c0.918-0.985,1.394-1.973,1.683-3.229l1.139,0.426c-0.066,0.441-0.17,0.815-0.236,1.002
				h4.641v1.207h-2.603V702.082z"/>
			<path fill="#FFFFFF" d="M402.84,712.672c-0.355-0.322-0.68-0.578-1.122-1.02c1.054-0.307,1.836-0.629,2.567-0.9v-3.928h-1.734
				l0.019-1.206l1.683,0.017l0.018-3.365l-2.041,0.019v-1.242l5.271,0.019v1.207h-1.887l-0.018,3.364l1.666-0.017v1.206h-1.666
				v3.435c0.493-0.187,1.225-0.527,2.058-0.833v1.275L402.84,712.672z M416.167,700.604l-0.034,7.396h-3.451v1.632h3.35v1.225
				h-3.383v1.955h4.539v1.207h-10.318v-1.207h4.471l0.019-1.955h-3.4v-1.225h3.383l0.019-1.632h-3.521v-7.412L416.167,700.604z
				 M411.339,703.629l0.019-1.801l-2.229-0.018v1.817L411.339,703.629L411.339,703.629z M409.129,704.836v1.955h2.21l0.019-1.972
				L409.129,704.836z M412.665,704.854v1.92l2.192,0.019v-1.921L412.665,704.854z M412.699,703.646h2.176l0.033-1.818l-2.228-0.018
				L412.699,703.646z"/>
			<path fill="#FFFFFF" d="M322.616,720.442l-0.136,0.374c1.377,2.396,2.669,4.198,4.452,5.523l-0.935,1.071
				c-0.595-0.51-0.986-0.937-1.224-1.207c-0.153,1.785-0.46,4.012-0.901,5.133c-0.221,0.563-0.799,0.681-1.274,0.681
				c-0.526-0.067-1.021-0.203-1.563-0.373c-0.102-0.441-0.152-0.8-0.255-1.396c0.681,0.289,1.14,0.478,1.648,0.527
				c0.392-0.068,0.374-0.527,0.526-0.9c0.289-1.037,0.441-2.074,0.477-3.043h-3.535v6.102c0,0.289,0.17,0.443,0.34,0.443h4.605
				c0.256-0.068,0.357-0.341,0.393-0.629l0.271-1.14l1.14,0.562c-0.256,0.918-0.373,2.26-1.666,2.379h-4.845
				c-0.969,0-1.513-0.662-1.513-1.358v-6.459c-0.137,0.102-0.646,0.44-1.292,0.832l-0.816-1.14c1.564-0.714,2.55-1.75,3.366-2.975
				c0.663-1.003,1.258-2.295,1.632-3.52L322.616,720.442z M324.23,725.627c-0.577-0.748-1.666-2.193-2.312-3.398
				c-0.442,1.104-1.292,2.48-2.159,3.382L324.23,725.627z M327.138,731.491v-8.821h1.259v8.821H327.138z M329.688,720.068h1.259
				v13.955c0,0.562-0.322,1.104-1.055,1.174l-1.836-0.019l-0.391-1.258l1.733,0.086c0.152,0,0.289-0.17,0.289-0.562V720.068
				L329.688,720.068z"/>
			<path fill="#FFFFFF" d="M337.339,730.268c-0.714,1.463-1.513,2.517-2.873,3.299l-0.765-1.004c1.343-0.748,2.158-1.733,2.72-2.991
				L337.339,730.268z M338.987,734.059c0,0.662-0.511,1.395-1.292,1.395h-1.377l-0.441-1.36l1.359,0.104
				c0.17,0.017,0.425-0.188,0.425-0.408v-4.624h-2.736v-1.24h2.736v-1.207h-3.331v-1.258h2.447c-0.118-0.493-0.526-1.122-1.31-1.717
				l1.122-0.459c0.714,0.561,1.225,1.326,1.462,2.176h0.714c0.562-0.561,0.985-1.41,1.189-2.142l1.14,0.459
				c-0.188,0.595-0.578,1.292-0.952,1.683h2.022v1.258h-3.179v1.207h2.703v1.24h-2.703v1.207l0.492-0.629
				c0.8,0.492,1.563,1.293,2.125,2.244l-0.866,0.985c-0.425-1.021-1.189-1.752-1.751-2.176L338.987,734.059L338.987,734.059z
				 M337.543,721.77c-0.153-0.272-0.511-0.748-1.071-1.311l1.241-0.578c0.544,0.646,1.003,1.293,1.207,1.889h2.872v1.24h-7.037
				v-1.24H337.543z M348.592,721.14c-1.529,0.884-3.094,1.31-4.605,1.581v2.431h4.878v1.241h-1.903v8.855h-1.31v-8.855h-1.665v2.191
				c0,2.262-0.748,4.59-2.059,6.613l-1.154-0.816c1.563-2.142,1.902-4.453,1.902-7.088l-0.017-5.609
				c1.887-0.221,3.519-0.729,5.116-1.598L348.592,721.14z"/>
			<path fill="#FFFFFF" d="M365.744,729.384v1.241h-5.524c0.782,1.258,2.703,2.617,6.12,3.398l-0.936,1.14
				c-3.758-1.037-6-2.94-6.544-4.573h-0.171c-1.563,3.928-5.508,4.284-7.225,4.573l-0.833-1.122
				c2.278-0.425,5.627-1.037,6.578-3.416h-6.051v-1.241h6.748l0.356-1.155l1.274,0.152l-0.271,1.003H365.744z M356.412,728.806
				h-1.325v-2.975c-0.952,0.782-2.244,1.7-3.281,2.295l-0.866-1.259c1.174-0.543,2.891-1.717,4.131-2.566v-4.249h1.309
				L356.412,728.806z M351.941,720.852c0.885,0.629,1.836,1.664,2.432,2.736l-1.021,1.002c-0.407-1.02-1.343-2.158-2.295-2.957
				L351.941,720.852z M359.813,723.588c0.492,0.356,1.121,0.883,1.495,1.41c0.597-0.492,1.411-1.258,2.177-2.414h-3.62
				c-0.511,0.748-1.581,1.989-2.329,2.432l-1.003-0.969c1.309-0.816,2.431-2.006,3.213-4.148l1.139,0.478
				c-0.066,0.306-0.237,0.713-0.407,1.002h4.437l0.018,1.226c-1.462,2.805-3.688,4.709-7.514,5.574l-0.85-1.173
				c1.325-0.237,2.754-0.596,3.808-1.343c-0.493-0.526-0.952-0.97-1.513-1.274L359.813,723.588z"/>
		</g>
	</g>
</g>
</svg>
