<?xml version="1.0" encoding="utf-8"?>
<!-- Generator: Adobe Illustrator 16.0.0, SVG Export Plug-In . SVG Version: 6.00 Build 0)  -->
<!DOCTYPE svg PUBLIC "-//W3C//DTD SVG 1.1//EN" "http://www.w3.org/Graphics/SVG/1.1/DTD/svg11.dtd">
<svg version="1.1" id="Layer_1" xmlns="http://www.w3.org/2000/svg" xmlns:xlink="http://www.w3.org/1999/xlink" x="0px" y="0px"
	 width="768px" height="1024px" viewBox="0 0 768 1024" enable-background="new 0 0 768 1024" xml:space="preserve">
<g>
	<rect x="465.11" y="609.081" opacity="0.698" fill="#2A79BE" enable-background="new    " width="162.219" height="162.22"/>
	<g>
		<g>
			<path fill="#FFFFFF" d="M486.82,643.838h-4.972v-15.893h-6.159V624.2c3.465,0.069,6.649-1.12,7.176-4.865h3.955V643.838
				L486.82,643.838z"/>
			<path fill="#FFFFFF" d="M502.324,618.845c6.091,0,8.19,4.2,8.19,6.581c0,2.415-1.26,4.375-3.569,5.146v0.069
				c2.904,0.666,4.586,2.906,4.586,5.986c0,5.145-4.621,7.701-9.172,7.701c-4.726,0-9.312-2.381-9.312-7.666
				c0-3.115,1.75-5.32,4.62-6.021v-0.069c-2.38-0.664-3.604-2.625-3.604-5.04C494.064,621.12,498.334,618.845,502.324,618.845z
				 M502.359,640.582c2.381,0,4.201-1.68,4.201-4.131c0-2.346-1.892-3.92-4.201-3.92c-2.415,0-4.34,1.365-4.34,3.885
				C498.02,638.938,499.979,640.582,502.359,640.582z M502.324,629.206c2.031,0,3.676-1.12,3.676-3.221
				c0-1.261-0.596-3.396-3.676-3.396c-1.994,0-3.745,1.226-3.745,3.396C498.579,628.121,500.33,629.206,502.324,629.206z"/>
		</g>
	</g>
	<g>
		<g>
			<path fill="#FFFFFF" d="M481.383,679.994l-5.765-9.945l5.699-9.988h1.188l-5.633,9.988l5.699,9.945H481.383z M484.311,679.994
				l-5.634-9.945l5.566-9.988h1.255l-5.655,9.988l5.655,9.945H484.311z"/>
			<path fill="#FFFFFF" d="M495.836,671.941v1.475c-2.333,0.549-4.841,1.056-6.623,1.496l-0.771-1.475
				c1.255-1.146,2.707-3.016,3.895-4.336c-0.66,0.09-1.782,0.309-3.146,0.596l-0.748-1.476c1.299-1.782,3.257-5.192,4.599-7.768
				l1.364,0.946c-1.166,2.111-3.08,5.324-3.852,6.446c0.463-0.021,1.826-0.33,3.104-0.418c0.595-0.813,1.166-1.694,1.87-2.706
				l1.387,0.99c-2.244,2.926-4.093,5.5-5.854,7.172L495.836,671.941z M488.465,677.288c3.08-0.925,5.104-1.761,7.987-2.751v1.673
				c-3.037,1.188-4.731,1.782-7.041,2.706L488.465,677.288z M494.646,679.202v-1.496h5.59v-4.577h-3.938v-1.54h9.527v1.563h-3.938
				v4.555h5.896v1.496L494.646,679.202L494.646,679.202z M494.735,669.982c4.929-1.65,7.238-4.664,8.472-6.976h-7.395v-1.518h9.551
				v1.407c-1.188,2.135-2.224,3.345-2.948,4.158c1.716,0.857,4.136,2.112,5.412,3.41l-1.145,1.166
				c-1.805-1.518-4.159-2.838-5.413-3.322c-1.849,1.761-3.587,2.42-5.479,3.08L494.735,669.982z"/>
			<path fill="#FFFFFF" d="M516.143,671.678c-0.813,2.354-2.2,6.006-4.291,7.92l-1.275-1.012c2.223-2.442,3.213-4.951,4.049-7.547
				L516.143,671.678z M514.294,669.719c-0.88-1.387-2.267-2.42-3.587-3.301l1.078-0.99c1.343,0.771,2.751,1.914,3.719,3.279
				L514.294,669.719z M514.91,664.768c-0.88-1.407-2.156-2.311-3.521-3.102l1.101-1.013c1.343,0.813,2.729,1.804,3.696,3.146
				L514.91,664.768z M522.325,662.986c-0.462-0.793-1.146-1.52-2.091-2.068l1.188-0.814c0.814,0.527,1.85,1.431,2.442,2.398
				l-0.946,0.439l6.646,0.045v1.562h-1.959c-0.595,1.079-1.629,2.224-3.015,3.323c1.386,0.9,3.96,1.518,6.14,1.936l-1.211,1.52
				c-3.059-0.748-5.304-1.762-6.271-2.464c-0.353,0.219-1.342,0.77-1.804,0.989c-1.629,0.791-2.949,1.166-4.731,1.431l-1.012-1.476
				c2.112-0.33,4.773-1.012,6.139-1.893c-1.034-0.945-2.244-2.332-2.971-3.389h-2.134v-1.563L522.325,662.986z M516.23,678.498
				c1.649-0.594,3.168-2.2,3.541-3.278c0.177-0.507,0.286-1.056,0.286-2.046v-2.465h1.65v2.354c0,2.311-0.792,4.444-2.553,5.722
				c-0.55,0.396-1.057,0.726-1.87,1.101L516.23,678.498z M520.675,664.525c0.572,0.639,1.342,1.563,2.574,2.465
				c1.166-0.857,1.738-1.475,2.421-2.465H520.675z M525.251,679.752v-8.934h1.65v8.934H525.251z"/>
			<path fill="#FFFFFF" d="M535.237,665.34c0.924,0.858,2.067,1.938,2.839,2.928c0.506-1.32,0.99-3.278,1.23-4.774l-5.697-0.022
				v-1.539h7.393l-0.044,1.563c-0.33,2.023-1.166,4.818-1.716,6.402c0.726,1.231,2.068,3.739,2.574,5.303l-1.496,1.035
				c-0.484-1.695-1.232-3.39-1.894-4.467c-1.275,2.286-3.015,4.817-4.399,6.336l-1.254-1.101c1.518-1.541,3.365-4.399,4.643-6.865
				c-0.792-1.166-2.112-2.684-3.499-3.895L535.237,665.34z M546.173,673.107c-0.813,3.807-4.555,5.633-7.085,6.711l-1.254-1.452
				c2.618-0.946,5.191-2.288,6.381-4.709c0.792-1.584,1.232-3.41,1.232-5.304l-0.022-4.005l1.65-0.021
				c0.064,2.398,0,4.797-0.177,6.249h0.881v6.513c0.064,0.088,0.176,0.176,0.264,0.242h2.421c0.286-0.066,0.55-0.133,0.616-0.396
				c0.109-0.506,0.088-1.056,0.132-1.848l1.672,0.682c-0.132,0.99-0.176,2.024-0.901,2.662c-0.33,0.287-0.771,0.44-1.231,0.44
				h-3.125c-1.254-0.22-1.408-1.231-1.452-1.716L546.173,673.107L546.173,673.107z M551.102,661.049v12.41h-1.672v-10.803h-5.81
				v10.824h-1.649v-12.433L551.102,661.049L551.102,661.049z"/>
			<path fill="#FFFFFF" d="M561.176,667.145c0.374,0.154,1.122,0.683,1.519,1.146c0.595-0.639,1.077-1.166,1.343-1.563h-2.992
				c-0.771,1.013-1.805,1.914-2.993,2.795l-1.452-1.122c1.98-1.058,3.697-2.662,4.356-4.753l1.299,0.507
				c-0.065,0.55-0.286,0.968-0.353,1.1l3.895,0.021l-0.021,1.232c-0.484,1.057-1.188,2.003-1.673,2.553h4.532
				c-1.077-1.408-1.913-3.035-2.465-4.797l1.388-0.526c0.703,1.913,1.451,3.321,2.729,4.817c0.482-0.418,0.902-1.452,1.145-2.156
				h-2.53v-1.475h4.313c-0.064,1.938-0.813,3.521-1.826,4.73c0.902,0.946,2.949,2.067,4.577,2.442l-1.033,1.363
				c-0.946-0.353-2.024-0.771-3.016-1.408v1.408l-4.841-0.021v4.575c0,0.64-0.418,1.3-0.88,1.584
				c-0.858,0.396-1.782,0.199-2.772,0.242l-0.813-1.518h2.111c0.418,0,0.66-0.265,0.66-0.616v-4.247h-5.061v-1.298
				c-0.902,0.55-1.894,1.033-2.928,1.431l-1.254-1.365c1.408-0.482,2.53-0.967,3.366-1.495c-0.241-0.242-0.682-0.507-1.364-0.88
				l1.146-0.989c0.66,0.373,1.057,0.813,1.387,1.121c0.353-0.177,0.771-0.507,1.013-0.771c-0.33-0.353-0.858-0.728-1.672-1.057
				L561.176,667.145z M564.124,675.22c-2.024,1.584-4.137,2.509-6.535,3.081l-1.034-1.432c2.486-0.506,4.6-1.319,6.535-2.793
				L564.124,675.22z M575.037,665.538l-1.672-0.022v-1.957h-14.544v2.045h-1.65v-3.629h7.635c-0.352-0.396-0.482-0.507-1.54-1.057
				l1.408-0.947c0.748,0.31,1.894,1.476,2.244,2.003h8.119V665.538L575.037,665.538z M571.759,671.919
				c-0.968-0.659-1.979-1.562-2.75-2.442v1.123h-5.479v-0.901c-0.771,0.748-1.938,1.649-2.86,2.178L571.759,671.919z
				 M574.422,678.102c-1.893-1.45-3.873-2.266-6.293-2.684l0.836-1.387c2.442,0.396,4.62,1.342,6.623,2.795L574.422,678.102z"/>
			<path fill="#FFFFFF" d="M582.537,666.11h-3.41v-1.628h3.41v-4.05h1.761v4.05h2.992v1.628h-2.992v4.025l2.838-0.989v1.672
				l-2.838,1.013v5.897c0,0.813-0.065,1.342-0.793,1.78c-0.792,0.484-2.244,0.133-3.278-0.043l-0.55-1.717
				c1.122,0.197,1.694,0.309,2.442,0.352c0.33,0.046,0.418-0.241,0.418-0.614v-5.039l-3.08,1.122l-0.814-1.694l3.896-1.254
				L582.537,666.11L582.537,666.11z M597.213,679.862c-1.43-0.792-2.771-2.003-3.432-2.816c-0.639,1.056-1.673,1.914-2.905,2.882
				l-0.88-0.9l-0.021,0.968h-1.761v-18.769h8.229c-0.066,1.761-0.286,3.651-0.771,4.687c-0.242,0.528-0.813,1.012-1.408,1.1
				c-0.857,0.111-1.672,0.066-2.685-0.196l-0.418-1.694c1.078,0.265,1.629,0.33,2.354,0.33c0.484,0,0.64-0.198,0.814-0.748
				c0.198-0.66,0.286-1.298,0.308-1.87h-4.664v5.192h6.646c-0.066,2.882-0.792,5.28-1.938,7.48c0.858,1.232,2.466,2.312,3.697,3.08
				L597.213,679.862z M589.975,678.366c1.013-0.638,2.068-1.563,2.795-2.839c-0.946-1.781-1.563-3.784-1.871-5.875h-0.924V678.366z
				 M592.526,669.631c0.177,1.43,0.704,3.19,1.231,4.313c0.528-1.034,1.078-3.037,1.122-4.291L592.526,669.631z"/>
			<path fill="#FFFFFF" d="M602.447,679.994h-1.188l5.654-9.945l-5.654-9.988h1.254l5.566,9.988L602.447,679.994z M605.374,679.994
				h-1.188l5.699-9.945l-5.633-9.988h1.188l5.699,9.988L605.374,679.994z"/>
		</g>
	</g>
	<g>
		<g>
			<path fill="#FFFFFF" d="M478.793,699.992c-0.068,0.595-0.238,1.037-0.323,1.326h9.521v1.239l-5.186,0.034l0.018,2.176h4.335
				v1.259h-4.335v2.754h5.865v1.258l-5.865-0.017v4.895h-1.344v-4.878h-6.629v-1.274l2.107,0.018v-4.012l4.521-0.018v-2.176h-3.502
				c-0.544,1.104-1.189,2.328-2.346,3.398l-1.071-0.867c1.548-1.375,2.517-3.229,3.146-5.644L478.793,699.992z M478.266,706.026
				v2.754h3.196l0.017-2.754H478.266z"/>
			<path fill="#FFFFFF" d="M493.736,707.913c0,2.329-0.137,5.032-1.769,7.089l-1.088-0.85c0.765-1.123,1.24-2.144,1.377-3.351
				c0.103-1.002,0.152-2.039,0.152-3.075v-6.257h6.188c-0.221-0.321-0.51-0.595-1.377-1.139l1.259-0.697
				c0.51,0.511,1.395,1.36,1.684,1.836h5.626l0.017,1.207h-12.052L493.736,707.913z M503.799,709.834
				c-0.595,1.003-2.277,2.277-2.957,2.669c0.408,0.187,1.088,0.392,1.769,0.544c1.139,0.271,2.276,0.459,3.638,0.561
				c-0.204,0.527-0.477,0.816-0.697,1.207c-2.176-0.306-4.267-0.696-6.067-1.58c-0.493,0.203-1.003,0.441-1.548,0.646
				c-1.239,0.477-2.635,0.799-4.097,0.969c-0.289-0.374-0.51-0.695-0.899-1.189c2.091-0.17,3.789-0.68,5.219-1.189
				c-0.833-0.595-1.785-1.563-2.448-2.565h-1.292v-1.207l9.417,0.034L503.799,709.834z M502.678,707.846h-6.408l0.018-2.328h-2.278
				v-1.174l2.261-0.018v-1.309h1.345v1.309h3.739v-1.325h1.325v1.325h2.771v1.207h-2.771L502.678,707.846L502.678,707.846z
				 M497.271,709.902c0.851,0.951,1.344,1.394,2.209,1.955c1.037-0.563,2.007-1.156,2.755-1.938L497.271,709.902z M497.663,706.672
				l3.672-0.017l0.017-1.122h-3.723L497.663,706.672z"/>
			<path fill="#FFFFFF" d="M522.992,711.941l-6.748-0.018v2.991h-1.275v-2.991l-6.766,0.018v-1.24l6.766,0.018v-1.225h-4.726
				l0.018-6.068l4.028-0.018v-3.688h1.292v1.359h6.526v1.24h-6.526v1.104h5.286l-0.018,6.068h-4.605v1.225l6.748-0.018V711.941z
				 M511.535,705.806l8.04,0.018l-0.018-1.173l-8.007,0.017L511.535,705.806z M519.575,707.047h-8.023v1.207h8.023V707.047z"/>
			<path fill="#FFFFFF" d="M525.255,706.196l0.017-1.225h2.84l-0.019-2.125l-2.431,0.019v-1.258h2.448v-1.836l1.273,0.017
				l0.019,1.819l2.295,0.017l0.017,1.241l-2.312-0.019v2.125l2.787-0.018v1.241h-2.262v1.988h2.125l-0.017,1.24h-2.108v2.771
				c0.901,0.525,2.006,0.748,3.213,0.748h7.36l-0.748,1.224h-7.377c-2.04,0-3.74-1.021-4.964-2.295
				c-0.221,0.935-0.595,2.192-1.699,3.146l-0.9-0.834c1.325-1.343,1.495-3.245,1.495-4.979v-1.972h1.259l-0.019,2.939
				c0.153,0.374,0.715,0.937,1.105,1.189v-5.167h-3.398V706.196z M540.009,709.46c-0.085,0.986-0.237,1.836-0.646,2.635
				c-0.119,0.223-0.51,0.393-0.816,0.374c-0.629-0.018-1.258-0.884-1.802-1.785c-0.646,0.901-1.394,1.464-2.277,2.093
				c-0.407-0.17-0.68-0.442-1.173-0.697c1.225-0.833,2.192-1.599,2.821-2.603c-0.781-1.801-1.122-3.926-1.31-5.914l-1.054-0.018
				l-0.018,5.627l1.733-1.021v1.428l-2.55,1.598l-1.156-0.782c0.563-0.459,0.646-0.984,0.697-1.547v-6.526h2.261l-0.085-2.702
				l1.259,0.017c0,1.005,0.051,1.955,0.102,2.703l3.536-0.034l0.017,1.259h-3.468c0.17,1.718,0.307,2.89,0.799,4.42
				c0.563-1.292,0.816-2.481,0.952-4.147l1.156,0.714c-0.17,1.87-0.748,3.435-1.462,4.93c0.255,0.526,0.577,1.07,1.02,1.514
				c0.153-0.357,0.238-1.31,0.255-2.261L540.009,709.46z M538.377,702.236c-0.765-0.799-1.343-1.14-2.277-1.479l0.952-0.884
				c0.884,0.238,1.614,0.833,2.294,1.547L538.377,702.236z"/>
			<path fill="#FFFFFF" d="M549.037,702.066c-1.428,0.17-3.417,0.221-5.271,0.271l-0.766-1.258
				c4.012,0.085,9.044-0.374,12.138-1.479l0.715,0.97c-1.871,0.747-3.724,1.104-5.491,1.343v2.516h4.845v1.241h-4.845v2.601
				l6.238-0.017v1.24h-6.256v4.063c0,0.8-0.271,1.359-1.207,1.359h-2.346l-0.476-1.394c0.969,0.084,1.598,0.152,2.142,0.136
				c0.374-0.018,0.578-0.17,0.578-0.595v-3.569h-6.493l-0.018-1.224h6.511l0.017-2.602h-5.1l-0.018-1.241h5.101L549.037,702.066
				L549.037,702.066z"/>
			<path fill="#FFFFFF" d="M564.626,709.273c-0.272-1.071-0.782-1.904-1.139-2.381l-0.034,7.955h-1.36v-7.104
				c-0.288,0.646-0.984,1.87-2.073,2.976l-1.002-0.867c1.58-1.58,2.584-3.824,2.957-5.678h-2.465l0.018-1.258h2.55v-3.213h1.377
				v3.213h2.329v1.258h-2.329v1.666l0.51-0.322c0.901,0.9,1.513,1.869,1.888,2.99L564.626,709.273z M563.963,714.05
				c1.53-1.394,2.566-2.89,2.566-4.811v-8.771h5.287l-0.019,12.323c0,0.17,0.068,0.204,0.289,0.204h0.544
				c0.527,0,0.682-1.581,0.852-2.618l1.188,0.799c-0.17,0.816-0.356,1.547-0.595,2.244c-0.153,0.459-0.595,0.833-1.173,0.833h-1.156
				c-0.51,0-1.274-0.237-1.274-1.055v-11.49h-2.617l0.018,7.7c0,2.006-1.037,3.995-2.754,5.593L563.963,714.05z"/>
			<path fill="#FFFFFF" d="M576.425,713.676c2.328-0.408,4.742-1.563,6.289-2.431c-1.36-1.071-2.431-2.499-3.28-3.961h-1.14
				l-0.017-1.241l4.811,0.018v-2.396h-6.238v-1.226l6.223,0.019v-2.805h1.358l0.034,2.786h6.222v1.241h-6.256l0.034,2.362h4.268
				v1.141c-0.442,0.9-2.329,3.211-3.791,4.112c1.717,1.122,3.808,1.903,6.222,2.329l-0.578,1.24
				c-1.733-0.254-5.389-1.666-6.714-2.821c-2.144,1.224-4.318,2.278-6.782,2.821L576.425,713.676z M580.878,707.284
				c0.646,1.14,1.666,2.192,2.94,3.213c0.9-0.493,2.617-2.142,3.332-3.213H580.878z"/>
			<path fill="#FFFFFF" d="M596.042,706.061c-0.544,0.766-1.139,1.377-1.853,2.193l-1.156-0.9c2.414-2.33,3.621-4.487,4.726-7.838
				l1.226,0.629c-0.478,1.36-1.056,2.688-1.649,3.825v11.032h-1.31L596.042,706.061z M602.484,714.898l-0.408-1.41
				c0.867,0.119,1.225,0.103,1.803,0.119c0.391,0.018,0.526-0.256,0.526-0.492v-8.193h-5.882v-1.258h5.882v-3.91h1.292l-0.018,3.91
				h2.517v1.258l-2.499-0.018v8.517c0,0.646-0.562,1.479-1.514,1.479h-1.699V714.898z M600.02,706.502
				c1.548,0.697,2.856,2.396,3.469,3.502l-1.139,0.782c-0.782-1.53-1.938-2.856-3.399-3.485L600.02,706.502z"/>
			<path fill="#FFFFFF" d="M480.085,731.934v1.31l-3.264,1.717l-0.782-1.104c0.493-0.271,0.646-0.68,0.646-1.139v-3.568h-2.396
				v-1.207h2.396v-1.7h-0.766c-0.373,0.511-0.747,0.851-1.41,1.429l-0.952-1.021c1.547-1.259,2.636-3.587,2.821-6.442l1.226,0.322
				c0.051,0.918-0.086,1.803-0.153,1.955h2.565v1.225h-2.871c-0.153,0.477-0.375,0.969-0.527,1.309h3.229v1.225h-1.836v1.683h2.125
				v1.226h-2.125v3.807L480.085,731.934z M481.037,735.316l-0.952-1.105c0.374-0.118,0.629-0.51,0.629-0.866v-12.426h6.357v7.462
				l-2.396-0.017c0.067,0.781,0.322,1.784,0.629,2.38c0.714-0.357,1.359-1.037,2.007-2.04l0.984,0.782
				c-0.73,1.069-1.614,1.802-2.465,2.276c0.596,1.037,1.921,1.818,3.434,2.21l-0.899,1.122c-1.003-0.255-1.836-0.782-2.567-1.395
				c-1.443-1.479-2.191-3.416-2.346-5.32h-1.41v5.219l2.566-0.866v1.274L481.037,735.316z M482.04,722.143v1.854h3.739v-1.854
				H482.04z M482.04,725.186v1.973h3.739v-1.973H482.04z"/>
			<path fill="#FFFFFF" d="M490.966,729.027c2.143-1.226,3.842-3.129,5.235-5.117l1.037,0.697c-0.478,0.866-1.445,2.006-2.074,2.771
				v7.836h-1.309v-6.494c-0.289,0.272-1.241,0.901-1.888,1.36L490.966,729.027z M491.188,724.354
				c1.784-1.241,3.161-2.771,4.301-4.557l1.003,0.782c-1.14,1.717-2.55,3.519-4.165,4.657L491.188,724.354z M498.972,733.82
				c0.867,0.067,1.615,0.067,2.347,0.051c0.188-0.051,0.374-0.17,0.374-0.407v-6.97h-4.353v-1.258l8.754,0.018v1.24l-3.024,0.018
				l-0.018,7.105c0,0.594-0.307,1.037-0.73,1.291c-0.459,0.256-2.073,0.238-2.94,0.204L498.972,733.82z M505.057,722.381h-7.309
				l-0.018-1.258l7.325-0.018L505.057,722.381L505.057,722.381z"/>
			<path fill="#FFFFFF" d="M522.72,729.385v1.24h-5.523c0.782,1.258,2.702,2.617,6.12,3.398l-0.937,1.141
				c-3.757-1.037-6-2.941-6.544-4.573h-0.17c-1.564,3.927-5.508,4.284-7.225,4.573l-0.833-1.123
				c2.277-0.424,5.627-1.036,6.577-3.416h-6.051v-1.24h6.748l0.357-1.156l1.273,0.152l-0.271,1.004H522.72z M513.388,728.807h-1.325
				v-2.975c-0.951,0.781-2.243,1.699-3.28,2.295l-0.867-1.259c1.174-0.544,2.891-1.717,4.131-2.566v-4.249h1.31L513.388,728.807z
				 M508.917,720.852c0.885,0.629,1.836,1.665,2.432,2.736l-1.021,1.003c-0.408-1.021-1.343-2.159-2.295-2.958L508.917,720.852z
				 M516.788,723.588c0.492,0.357,1.121,0.884,1.495,1.41c0.596-0.492,1.411-1.258,2.176-2.413h-3.62
				c-0.51,0.747-1.581,1.989-2.329,2.431l-1.003-0.969c1.31-0.816,2.432-2.006,3.213-4.148l1.14,0.478
				c-0.067,0.307-0.238,0.714-0.408,1.003h4.437l0.019,1.225c-1.462,2.805-3.688,4.709-7.514,5.575l-0.851-1.174
				c1.326-0.237,2.754-0.595,3.808-1.342c-0.492-0.527-0.951-0.97-1.513-1.275L516.788,723.588z"/>
			<path fill="#FFFFFF" d="M533.159,729.385c-0.393-0.646-1.311-1.733-2.074-2.396l0.952-0.952c0.884,0.663,1.768,1.496,2.328,2.176
				L533.159,729.385z"/>
			<path fill="#FFFFFF" d="M556.992,732.342l-6.748-0.018v2.992h-1.275v-2.992l-6.766,0.018v-1.24l6.766,0.018v-1.225h-4.726
				l0.018-6.067l4.028-0.019v-3.688h1.292v1.359h6.526v1.24h-6.526v1.105h5.286l-0.018,6.068h-4.605v1.224l6.748-0.018V732.342z
				 M545.535,726.205l8.04,0.018l-0.018-1.173l-8.007,0.018L545.535,726.205z M553.575,727.446h-8.023v1.207h8.023V727.446z"/>
			<path fill="#FFFFFF" d="M559.255,726.596l0.017-1.223h2.84l-0.019-2.125l-2.431,0.017v-1.258h2.448v-1.836l1.273,0.017
				l0.019,1.819l2.295,0.018l0.017,1.241l-2.312-0.018v2.125l2.787-0.018v1.239h-2.262v1.989h2.125l-0.017,1.241h-2.108v2.771
				c0.901,0.526,2.006,0.748,3.213,0.748h7.36l-0.748,1.225h-7.377c-2.04,0-3.74-1.021-4.964-2.295
				c-0.221,0.936-0.595,2.192-1.699,3.145l-0.9-0.832c1.325-1.344,1.495-3.247,1.495-4.979v-1.974h1.259l-0.019,2.941
				c0.153,0.373,0.715,0.935,1.105,1.189v-5.169L559.255,726.596L559.255,726.596z M574.009,729.859
				c-0.085,0.985-0.237,1.836-0.646,2.635c-0.119,0.222-0.51,0.392-0.816,0.375c-0.629-0.018-1.258-0.885-1.802-1.785
				c-0.646,0.9-1.394,1.462-2.277,2.091c-0.407-0.17-0.68-0.441-1.173-0.696c1.225-0.834,2.192-1.599,2.821-2.602
				c-0.781-1.802-1.122-3.926-1.31-5.915l-1.054-0.017l-0.018,5.626l1.733-1.021v1.429l-2.55,1.599l-1.156-0.782
				c0.563-0.459,0.646-0.986,0.697-1.547v-6.527h2.261l-0.085-2.703l1.259,0.019c0,1.003,0.051,1.955,0.102,2.703l3.536-0.035
				l0.017,1.259h-3.468c0.17,1.717,0.307,2.891,0.799,4.419c0.563-1.291,0.816-2.48,0.952-4.146l1.156,0.714
				c-0.17,1.87-0.748,3.434-1.462,4.93c0.255,0.527,0.577,1.07,1.02,1.514c0.153-0.356,0.238-1.31,0.255-2.262L574.009,729.859z
				 M572.377,722.636c-0.765-0.799-1.343-1.139-2.277-1.479l0.952-0.884c0.884,0.238,1.614,0.832,2.294,1.548L572.377,722.636z"/>
			<path fill="#FFFFFF" d="M581.745,725.373v1.258h-2.074v3.62c0.442-0.085,1.377-0.392,2.229-0.595v1.258l-5.406,1.496
				c-0.271-0.442-0.492-0.782-0.833-1.326c1.07-0.137,1.973-0.307,2.736-0.51v-3.961h-2.039v-1.225h2.021v-2.788h-2.227v-1.224
				h5.763v1.207h-2.244v2.788L581.745,725.373L581.745,725.373z M586.742,722.891c0.085,3.111-0.307,6-1.666,8.448
				c-0.441,0.782-1.07,1.513-1.818,2.142c-0.781,0.664-1.615,1.189-2.584,1.685l-1.003-1.055c1.615-0.73,3.179-1.632,4.063-3.095
				c0.696-1.172,1.189-2.446,1.444-3.789c0.255-1.395,0.289-2.755,0.289-4.454L586.742,722.891z M589.648,720.766l0.018,9.266
				c-0.459,0.033-0.833,0.033-1.273,0.017v-8.04h-4.557v8.008h-1.275v-9.248h7.088V720.766z M590.907,732.324
				c-0.222,1.055-0.374,2.228-1.343,2.228h-2.074c-0.562,0-1.155-0.562-1.155-1.189v-4.556h1.291v4.334
				c0.034,0.086,0.204,0.204,0.323,0.204h1.274c0.341-0.051,0.237-0.459,0.374-0.799l0.067-0.833L590.907,732.324z"/>
			<path fill="#FFFFFF" d="M601.48,720.766c1.752,2.177,4.029,4.148,6.937,4.998l-1.037,1.055c-1.173-0.393-2.192-0.985-2.957-1.496
				l0.018,0.697l-3.095-0.018l0.018,1.971h4.605l0.019,1.226l-4.642,0.018l0.018,4.079l6.086-0.017v1.239h-13.463l-0.018-1.239
				l6.104,0.017v-4.097l-4.692,0.018l-0.017-1.242h4.709v-1.971l-3.094,0.017v-0.73c-0.834,0.545-1.904,1.156-3.095,1.7
				l-0.866-1.071c2.531-1.139,5.744-3.042,7.648-6.306l1.054,0.714L601.48,720.766z M597.878,733.021
				c-0.459-1.121-0.985-2.058-1.955-2.957l1.156-0.545c0.714,0.562,1.717,2.092,2.04,2.975L597.878,733.021z M603.641,724.777
				c-0.936-0.781-2.176-1.903-2.924-2.957c-0.729,0.918-1.938,2.209-3.009,2.924L603.641,724.777z M601.939,732.41
				c1.123-0.799,1.904-1.87,2.466-3.043l1.037,0.748c-0.544,1.173-1.275,2.261-2.347,3.094L601.939,732.41z"/>
			<path fill="#FFFFFF" d="M474.152,743.768c1.377-0.885,2.142-2.125,2.771-3.484c0.408,0.187,0.697,0.34,1.105,0.525
				c-0.188,0.427-0.374,0.8-0.425,0.937h4.401v1.207l-2.565,0.017c0.066,0.085,0.306,0.596,0.576,1.003l-1.154,0.63
				c-0.289-0.681-0.578-1.189-0.969-1.633h-0.986c-0.408,0.563-0.918,1.122-1.785,1.717L474.152,743.768z M474.85,744.719h6.238
				c-0.119-0.238-0.459-0.663-0.969-1.156l1.224-0.391c0.544,0.544,0.952,1.24,1.156,1.547h6.085v3.195l-1.292-0.018v-1.972h-11.149
				l-0.019,2.058l-1.274-0.019V744.719L474.85,744.719z M478.419,755.717h-1.343l0.017-8.924h9.146l0.017,3.467l-7.87,0.019v0.85
				h8.618v4.539h-1.309v-1.004h-7.292L478.419,755.717z M478.385,749.053h6.579l-0.018-1.054h-6.563L478.385,749.053
				L478.385,749.053z M478.402,752.367l0.017,1.123l7.275-0.019v-1.139L478.402,752.367z M486.34,742.883
				c0.104,0.103,0.493,0.51,0.782,1.037c-0.374,0.238-0.714,0.408-1.155,0.595c-0.322-0.681-0.663-1.207-1.104-1.614h-1.122
				c-0.221,0.373-0.544,0.9-1.021,1.31c-0.356-0.272-0.629-0.442-1.003-0.731c0.918-0.984,1.395-1.972,1.684-3.229l1.139,0.425
				c-0.067,0.442-0.17,0.815-0.237,1.003h4.642v1.207h-2.604V742.883z"/>
			<path fill="#FFFFFF" d="M491.814,753.473c-0.355-0.321-0.68-0.578-1.121-1.02c1.054-0.307,1.836-0.629,2.566-0.901v-3.927h-1.733
				l0.018-1.207l1.683,0.018l0.018-3.364l-2.04,0.017v-1.241l5.27,0.019v1.207h-1.887l-0.017,3.365l1.666-0.019v1.207h-1.666v3.435
				c0.492-0.188,1.224-0.527,2.057-0.832v1.273L491.814,753.473z M505.143,741.404l-0.033,7.395h-3.451v1.631h3.349v1.226h-3.383
				v1.954h4.539v1.207h-10.318v-1.207h4.472l0.018-1.954h-3.4v-1.226h3.384l0.018-1.631h-3.52v-7.412L505.143,741.404z
				 M500.314,744.43l0.018-1.802l-2.229-0.017v1.817L500.314,744.43L500.314,744.43z M498.104,745.637v1.955h2.211l0.018-1.973
				L498.104,745.637z M501.641,745.653v1.921l2.192,0.018v-1.922L501.641,745.653z M501.675,744.447h2.176l0.033-1.819l-2.227-0.017
				L501.675,744.447z"/>
			<path fill="#FFFFFF" d="M514.085,752.334v1.309l-3.264,1.718l-0.782-1.105c0.493-0.271,0.646-0.68,0.646-1.139v-3.569h-2.397
				v-1.206h2.397v-1.7h-0.767c-0.373,0.511-0.747,0.851-1.41,1.429l-0.952-1.021c1.547-1.258,2.636-3.586,2.821-6.44l1.226,0.322
				c0.051,0.918-0.086,1.802-0.153,1.954h2.565v1.225h-2.871c-0.153,0.476-0.375,0.97-0.527,1.31h3.229v1.223h-1.836v1.685h2.125
				v1.224h-2.125v3.809L514.085,752.334z M515.037,755.717l-0.952-1.104c0.374-0.119,0.629-0.511,0.629-0.867v-12.426h6.357v7.463
				l-2.396-0.019c0.067,0.782,0.322,1.785,0.629,2.381c0.714-0.356,1.359-1.037,2.007-2.041l0.984,0.783
				c-0.73,1.07-1.614,1.801-2.465,2.277c0.596,1.037,1.921,1.818,3.434,2.209l-0.899,1.123c-1.003-0.256-1.836-0.783-2.567-1.396
				c-1.443-1.479-2.191-3.416-2.346-5.319h-1.41V754l2.566-0.867v1.275L515.037,755.717z M516.04,742.543v1.854h3.739v-1.854H516.04
				z M516.04,745.586v1.971h3.739v-1.971H516.04z"/>
			<path fill="#FFFFFF" d="M524.966,749.428c2.143-1.225,3.842-3.129,5.235-5.117l1.037,0.697c-0.478,0.867-1.445,2.006-2.074,2.771
				v7.836h-1.309v-6.493c-0.289,0.271-1.241,0.899-1.888,1.358L524.966,749.428z M525.188,744.752
				c1.784-1.24,3.161-2.77,4.301-4.555l1.003,0.781c-1.14,1.717-2.55,3.52-4.165,4.657L525.188,744.752z M532.972,754.221
				c0.867,0.068,1.615,0.068,2.347,0.051c0.188-0.051,0.374-0.17,0.374-0.407v-6.97h-4.353v-1.258l8.754,0.018v1.24l-3.024,0.018
				l-0.018,7.105c0,0.595-0.307,1.036-0.73,1.291c-0.459,0.256-2.073,0.238-2.94,0.204L532.972,754.221z M539.057,742.781h-7.309
				l-0.018-1.258l7.325-0.019L539.057,742.781L539.057,742.781z"/>
			<path fill="#FFFFFF" d="M556.72,749.784v1.241h-5.523c0.782,1.258,2.702,2.617,6.12,3.398l-0.937,1.139
				c-3.757-1.036-6-2.939-6.544-4.572h-0.17c-1.564,3.928-5.508,4.283-7.225,4.572l-0.833-1.121
				c2.277-0.426,5.627-1.037,6.577-3.416h-6.051v-1.241h6.748l0.357-1.156l1.273,0.153l-0.271,1.003H556.72z M547.388,749.206
				h-1.325v-2.976c-0.951,0.782-2.243,1.7-3.28,2.296l-0.867-1.259c1.174-0.544,2.891-1.718,4.131-2.566v-4.249h1.31
				L547.388,749.206z M542.917,741.251c0.885,0.629,1.836,1.665,2.432,2.737l-1.021,1.002c-0.408-1.021-1.343-2.158-2.295-2.957
				L542.917,741.251z M550.788,743.988c0.492,0.355,1.121,0.883,1.495,1.41c0.596-0.493,1.411-1.259,2.176-2.414h-3.62
				c-0.51,0.748-1.581,1.988-2.329,2.432l-1.003-0.969c1.31-0.816,2.432-2.006,3.213-4.148l1.14,0.477
				c-0.067,0.307-0.238,0.714-0.408,1.003h4.437l0.019,1.225c-1.462,2.805-3.688,4.709-7.514,5.575l-0.851-1.173
				c1.326-0.238,2.754-0.595,3.808-1.343c-0.492-0.526-0.951-0.971-1.513-1.274L550.788,743.988z"/>
		</g>
	</g>
</g>
</svg>
