<?xml version="1.0" encoding="utf-8"?>
<!-- Generator: Adobe Illustrator 16.0.0, SVG Export Plug-In . SVG Version: 6.00 Build 0)  -->
<!DOCTYPE svg PUBLIC "-//W3C//DTD SVG 1.1//EN" "http://www.w3.org/Graphics/SVG/1.1/DTD/svg11.dtd">
<svg version="1.1" id="Layer_1" xmlns="http://www.w3.org/2000/svg" xmlns:xlink="http://www.w3.org/1999/xlink" x="0px" y="0px"
	 width="768px" height="1024px" viewBox="0 0 768 1024" enable-background="new 0 0 768 1024" xml:space="preserve">
<g>
	<rect x="140.671" y="771.301" opacity="0.698" fill="#144F84" enable-background="new    " width="324.396" height="162.223"/>
	<g>
		<g>
			<path fill="#FFFFFF" d="M166.973,811.867h-4.97v-15.891h-6.161v-3.746c3.465,0.068,6.65-1.12,7.176-4.865h3.955V811.867z"/>
			<path fill="#FFFFFF" d="M178.592,805.566c0.315,1.646,1.575,3.046,3.291,3.046c3.605,0,4.55-4.728,4.69-7.456l-0.07-0.07
				c-1.365,1.926-3.15,2.73-5.531,2.73c-2.1,0-4.235-0.979-5.635-2.521c-1.295-1.506-1.891-3.535-1.891-5.461
				c0-5.006,3.466-8.961,8.576-8.961c7.421,0,9.416,6.476,9.416,12.672c0,5.985-2.66,12.813-9.626,12.813
				c-4.235,0-7.386-2.484-7.946-6.791H178.592z M186.118,795.521c0-2.275-1.47-4.553-3.955-4.553c-2.38,0-3.746,2.275-3.746,4.48
				c0,2.311,1.19,4.62,3.746,4.62C184.823,800.071,186.118,797.936,186.118,795.521z"/>
		</g>
	</g>
	<g>
		<path fill="#FFFFFF" d="M161.536,848.023l-5.765-9.944l5.699-9.989h1.188l-5.633,9.989l5.699,9.944H161.536z M164.463,848.023
			l-5.633-9.944l5.566-9.989h1.255l-5.655,9.989l5.655,9.944H164.463z"/>
		<path fill="#FFFFFF" d="M179.487,829.168c2.267,2.816,5.215,5.369,8.978,6.469l-1.342,1.364c-1.519-0.506-2.839-1.276-3.829-1.937
			l0.022,0.9l-4.005-0.021l0.022,2.552h5.962l0.022,1.585l-6.007,0.021l0.022,5.28l7.877-0.021v1.604h-17.427l-0.022-1.604
			l7.899,0.021v-5.303l-6.072,0.021l-0.022-1.604h6.095v-2.552l-4.005,0.021v-0.944c-1.078,0.703-2.464,1.496-4.004,2.198
			l-1.122-1.386c3.278-1.474,7.437-3.938,9.901-8.163l1.364,0.924L179.487,829.168z M174.823,845.032
			c-0.595-1.452-1.276-2.663-2.53-3.829l1.496-0.703c0.924,0.727,2.222,2.706,2.64,3.85L174.823,845.032z M182.282,834.361
			c-1.211-1.015-2.816-2.465-3.785-3.829c-0.945,1.188-2.508,2.86-3.895,3.784L182.282,834.361z M180.082,844.24
			c1.452-1.034,2.464-2.42,3.19-3.939l1.342,0.969c-0.704,1.52-1.65,2.928-3.036,4.004L180.082,844.24z"/>
		<path fill="#FFFFFF" d="M203.095,829.014v1.584h-12.058v-1.584H203.095z M200.542,838.277h-6.821v9.506h-1.584v-11.156h9.989
			v9.088c-0.065,0.727-0.55,1.363-1.166,1.605c-0.704,0.285-1.188,0.242-2.046,0.242L198.342,846
			c0.924-0.044,1.342,0.221,1.893-0.044c0.462-0.22,0.308-0.88,0.308-1.782L200.542,838.277L200.542,838.277z M193.127,835.77v-4.27
			h7.965v4.27H193.127z M200.014,841.402v1.584h-2.156v3.542h-1.54v-3.521h-2.024v-1.649h1.496
			c-0.352-0.771-1.078-1.629-1.826-1.959l1.145-0.747c0.748,0.439,1.65,1.318,1.98,2.111l-0.925,0.615l1.211,0.022
			c0.857-0.946,1.166-1.959,1.496-2.815l1.43,0.571c-0.396,0.683-0.836,1.736-1.342,2.267L200.014,841.402z M199.464,833.041h-4.73
			v1.23h4.73V833.041z M204.524,846.682c-0.528,0.154-0.682,0.199-1.298,0.42l-0.771-1.605c1.32-0.286,1.959-0.396,2.883-0.641
			v-4.023h-2.486v-8.164h2.486v-4.4h1.563v4.4h2.53v8.164h-2.53l0.021,3.605l1.276-0.308c-0.154-0.308-0.506-0.901-1.013-1.519
			l1.387-0.506c0.88,1.012,1.475,2.179,1.849,3.32l0.483,1.453l-1.65,0.572c-0.153-0.771-0.33-1.541-0.506-2.003L204.524,846.682z
			 M205.339,834.25h-0.946v4.973h0.946V834.25z M206.901,839.223h1.078v-4.973h-1.078V839.223z"/>
		<path fill="#FFFFFF" d="M215.017,831.654h6.513v-3.391h1.648v3.367h6.667v10.736h-6.645v2.553c0,0.354,0.153,0.528,0.616,0.528
			h6.622c0.507-0.153,0.396-0.836,0.551-1.364l0.197-1.87l1.563,0.88c-0.33,1.408-0.109,3.543-1.87,3.785l-0.66,0.088h-6.887
			c-1.364,0-1.826-0.924-1.826-2.179v-2.421h-6.491L215.017,831.654L215.017,831.654z M221.508,833.217h-4.907v2.904h4.907V833.217z
			 M221.508,837.684h-4.907v3.104h4.907V837.684z M228.219,833.238h-5.017v2.883h5.017V833.238z M228.219,837.684h-5.017v3.104
			h5.017V837.684z"/>
		<path fill="#FFFFFF" d="M244.827,846.198c0.595,0,0.881-0.483,0.881-1.034v-6.447h-8.428v-1.628h8.428l0.021-2.2
			c1.761-1.122,3.543-2.729,4.533-3.895h-10.276v-1.629l12.674,0.021v1.232c-1.43,1.937-3.41,3.829-5.28,5.083v1.386h8.009v1.628
			h-8.009l-0.022,7.328c0,0.703-0.55,1.297-1.012,1.518c-0.594,0.374-2.992,0.223-3.499,0.223l-1.254-1.585H244.827L244.827,846.198
			z"/>
		<path fill="#FFFFFF" d="M274.661,845.45c0.418,0,0.836-0.22,0.968-0.616c0.33-0.99,0.528-1.76,0.704-3.036l1.65,0.616
			c-0.242,1.43-0.44,2.75-1.255,3.872c-0.439,0.507-0.901,0.704-1.76,0.813h-4.114c-1.32,0-2.53-0.968-2.53-2.267v-4.114
			c-0.946,0.595-1.871,1.078-3.433,1.694l-0.792-0.858l-0.022,6.534h-1.694v-11.221l-0.021,0.309
			c-0.595,0.813-1.343,1.693-2.179,2.332l-1.519-1.145c3.146-2.729,4.687-6.117,5.963-9.926l1.475,0.705
			c-0.572,1.894-1.232,3.72-2.024,5.305l0.022,6.356c1.716-0.704,2.97-1.23,4.225-2.003v-9.945h1.693v9.021
			c2.421-1.693,3.829-3.189,5.303-5.039l1.453,0.99c-2.223,2.751-4.489,4.709-6.756,6.051v4.665c0,0.55,0.374,0.902,1.211,0.902
			h3.432V845.45z"/>
		<path fill="#FFFFFF" d="M282.645,848.023h-1.188l5.654-9.944l-5.654-9.989h1.254l5.566,9.989L282.645,848.023z M285.571,848.023
			h-1.188l5.699-9.944l-5.633-9.989h1.188l5.698,9.989L285.571,848.023z"/>
	</g>
	<g>
		<g>
			<path fill="#FFFFFF" d="M153.745,881.791c0.085-0.697,0.17-0.986,0.408-1.462c0.459-0.918,1.24-1.802,2.464-2.805l0.562-0.459
				c2.243-1.837,3.094-2.991,3.094-4.147c0-1.225-0.969-2.107-2.295-2.107c-1.462,0-2.363,0.92-2.38,2.447l-1.53-0.17
				c0.204-2.275,1.599-3.519,3.944-3.519c2.261,0,3.808,1.377,3.808,3.383c0,1.444-0.851,2.736-2.992,4.538l-1.224,1.037
				c-1.003,0.85-1.411,1.292-1.751,1.836h5.983v1.428H153.745L153.745,881.791z"/>
			<path fill="#FFFFFF" d="M167.413,881.995c-1.581,0-2.788-0.833-3.4-2.362c-0.391-0.986-0.561-2.193-0.561-3.876
				c0-4.097,1.326-6.188,3.961-6.188c2.635,0,3.96,2.091,3.96,6.222S170.048,881.995,167.413,881.995z M169.401,872.322
				c-0.34-0.936-1.104-1.512-2.006-1.512c-1.666,0-2.414,1.563-2.414,4.963c0,1.514,0.153,2.669,0.442,3.468
				c0.34,0.952,1.104,1.53,1.989,1.53c0.884,0,1.648-0.578,1.988-1.53c0.289-0.782,0.442-1.954,0.442-3.45
				S169.707,873.156,169.401,872.322z"/>
			<path fill="#FFFFFF" d="M177.035,881.791v-9.52c-0.493,0.477-0.97,0.799-1.854,1.273c-0.544,0.289-0.696,0.357-1.139,0.527
				v-1.445c1.615-0.748,2.958-1.938,3.519-3.061h0.969v12.223L177.035,881.791L177.035,881.791z"/>
			<path fill="#FFFFFF" d="M186.504,881.995c-1.547,0-2.924-0.833-3.569-2.176c-0.459-0.952-0.646-2.091-0.646-3.725
				c0-4.267,1.496-6.525,4.352-6.525c1.938,0,3.213,1.122,3.468,3.023l-1.496,0.138c-0.17-1.26-0.852-1.92-1.972-1.92
				c-1.104,0-1.938,0.595-2.362,1.666c-0.307,0.779-0.51,1.901-0.51,2.805v0.236c0.271-0.426,0.407-0.576,0.714-0.832
				c0.629-0.492,1.428-0.781,2.243-0.781c2.057,0,3.587,1.682,3.587,3.926C190.312,880.262,188.73,881.995,186.504,881.995z
				 M186.419,875.213c-1.394,0-2.414,1.121-2.414,2.617c0,1.666,1.071,2.941,2.465,2.941c1.343,0,2.313-1.19,2.313-2.841
				C188.781,876.317,187.83,875.213,186.419,875.213z"/>
			<path fill="#FFFFFF" d="M196.755,868.021c-0.068,0.596-0.238,1.035-0.323,1.324h9.52v1.242l-5.185,0.033l0.017,2.176h4.335v1.258
				h-4.335v2.756h5.865v1.258l-5.865-0.02v4.896h-1.343v-4.879h-6.629v-1.275l2.107,0.02v-4.014l4.521-0.018v-2.178h-3.501
				c-0.544,1.105-1.19,2.33-2.346,3.4l-1.071-0.867c1.547-1.377,2.516-3.229,3.145-5.643L196.755,868.021z M196.228,874.057v2.754
				h3.196l0.017-2.754H196.228z"/>
			<path fill="#FFFFFF" d="M211.698,875.943c0,2.328-0.136,5.029-1.77,7.088l-1.088-0.852c0.765-1.119,1.24-2.142,1.377-3.348
				c0.104-1.004,0.152-2.041,0.152-3.077V869.5h6.188c-0.221-0.324-0.51-0.596-1.377-1.141l1.258-0.695
				c0.51,0.51,1.395,1.357,1.684,1.836h5.626l0.017,1.206h-12.052L211.698,875.943z M221.761,877.864
				c-0.595,1.003-2.277,2.278-2.957,2.669c0.408,0.188,1.088,0.391,1.77,0.544c1.139,0.271,2.277,0.459,3.638,0.562
				c-0.204,0.526-0.476,0.815-0.697,1.206c-2.176-0.306-4.267-0.694-6.067-1.581c-0.493,0.205-1.003,0.442-1.547,0.646
				c-1.24,0.476-2.635,0.799-4.097,0.969c-0.289-0.374-0.51-0.697-0.9-1.189c2.091-0.17,3.79-0.68,5.219-1.188
				c-0.833-0.595-1.785-1.563-2.448-2.565h-1.292v-1.207l9.417,0.033L221.761,877.864z M220.64,875.875h-6.409l0.018-2.328h-2.278
				v-1.173l2.261-0.017v-1.312h1.344v1.312h3.739v-1.326h1.326v1.326h2.771v1.207h-2.771L220.64,875.875L220.64,875.875z
				 M215.233,877.933c0.851,0.952,1.344,1.396,2.21,1.954c1.037-0.561,2.006-1.154,2.754-1.938L215.233,877.933z M215.625,874.703
				l3.672-0.018l0.017-1.121h-3.723L215.625,874.703z"/>
			<path fill="#FFFFFF" d="M234.443,868.396c1.751,2.176,4.029,4.146,6.936,4.998l-1.037,1.053
				c-1.173-0.393-2.192-0.985-2.957-1.495l0.017,0.696l-3.094-0.019l0.017,1.972h4.606l0.018,1.227l-4.641,0.017l0.017,4.079
				l6.086-0.017v1.241h-13.463l-0.017-1.241l6.103,0.017v-4.096l-4.692,0.017l-0.017-1.241h4.709v-1.972l-3.094,0.017v-0.729
				c-0.833,0.544-1.904,1.156-3.094,1.699l-0.867-1.07c2.532-1.139,5.745-3.043,7.649-6.307l1.054,0.715L234.443,868.396z
				 M230.84,880.652c-0.459-1.122-0.985-2.059-1.955-2.958l1.156-0.544c0.714,0.561,1.717,2.091,2.04,2.975L230.84,880.652z
				 M236.603,872.408c-0.936-0.782-2.176-1.904-2.924-2.958c-0.729,0.918-1.938,2.21-3.009,2.924L236.603,872.408z M234.902,880.04
				c1.122-0.799,1.904-1.87,2.465-3.042l1.037,0.748c-0.544,1.172-1.275,2.26-2.346,3.093L234.902,880.04z"/>
			<path fill="#FFFFFF" d="M252.226,868.277v1.225h-9.315v-1.225H252.226z M250.254,875.434h-5.27v7.346h-1.224v-8.619h7.717v7.021
				c-0.051,0.563-0.425,1.054-0.9,1.24c-0.544,0.221-0.918,0.188-1.581,0.188l-0.442-1.206c0.714-0.034,1.037,0.17,1.462-0.034
				c0.357-0.17,0.238-0.682,0.238-1.377V875.434z M244.525,873.496v-3.298h6.153v3.298H244.525z M249.846,877.848v1.226h-1.666
				v2.735h-1.188v-2.721h-1.564v-1.273h1.156c-0.271-0.596-0.833-1.259-1.411-1.514l0.884-0.578c0.578,0.34,1.275,1.021,1.53,1.633
				l-0.714,0.477l0.935,0.02c0.663-0.73,0.901-1.516,1.156-2.178l1.104,0.441c-0.306,0.525-0.646,1.344-1.036,1.751L249.846,877.848
				z M249.421,871.389h-3.654v0.951h3.654V871.389z M253.33,881.927c-0.407,0.119-0.526,0.153-1.003,0.323l-0.595-1.24
				c1.021-0.222,1.513-0.307,2.227-0.494v-3.108h-1.921V871.1h1.921V867.7h1.207v3.398h1.955v6.308h-1.955l0.018,2.788l0.985-0.238
				c-0.119-0.238-0.391-0.697-0.781-1.173l1.07-0.391c0.68,0.78,1.139,1.683,1.428,2.564l0.374,1.122l-1.272,0.44
				c-0.119-0.596-0.255-1.188-0.394-1.547L253.33,881.927z M253.959,872.322h-0.73v3.842h0.73V872.322z M255.166,876.164h0.833
				v-3.842h-0.833V876.164z"/>
			<path fill="#FFFFFF" d="M259.928,876.658c2.144-1.225,3.842-3.129,5.235-5.117l1.037,0.697c-0.477,0.867-1.445,2.006-2.074,2.771
				v7.836h-1.309v-6.493c-0.289,0.271-1.241,0.9-1.887,1.359L259.928,876.658z M260.148,871.982c1.785-1.24,3.162-2.771,4.301-4.557
				l1.003,0.781c-1.139,1.717-2.55,3.521-4.165,4.658L260.148,871.982z M267.934,881.451c0.867,0.068,1.615,0.068,2.346,0.051
				c0.188-0.051,0.374-0.17,0.374-0.408v-6.969h-4.354v-1.258l8.754,0.017v1.241l-3.024,0.018l-0.018,7.104
				c0,0.595-0.307,1.037-0.73,1.292c-0.459,0.255-2.073,0.238-2.94,0.204L267.934,881.451z M274.019,870.012h-7.309l-0.018-1.258
				l7.326-0.018L274.019,870.012L274.019,870.012z"/>
			<path fill="#FFFFFF" d="M291.665,880.754v1.241h-14.466v-1.258h4.964v-12.528h1.326v12.545h1.972v-12.527h1.274v12.527H291.665z
				 M279.256,871.898c0.867,1.901,1.666,4.281,1.904,6.561l-1.292,0.563c-0.085-2.313-0.867-4.676-1.717-6.597L279.256,871.898z
				 M290.679,872.357c-0.34,2.668-1.07,5.133-2.19,6.865l-1.088-0.662c1.173-1.548,1.989-4.591,2.107-6.631L290.679,872.357z"/>
			<path fill="#FFFFFF" d="M295.797,873.854h3.315c-0.204-0.511-1.057-1.443-1.564-1.836l0.816-0.681
				c0.524,0.306,1.614,1.326,2.142,2.125l-0.578,0.392l2.193,0.033c0.458-0.439,1.343-1.58,1.717-2.533l1.121,0.612
				c-0.355,0.714-0.935,1.513-1.273,1.888h4.486v1.174h-11.117l0.019,3.109c0.017,2.414-1.343,3.943-2.635,4.727l-0.952-0.971
				c1.122-0.609,2.312-1.938,2.312-4.131L295.797,873.854L295.797,873.854z M302.121,869.977l6.034,0.035v1.172h-13.82v-1.153h6.834
				c-0.272-0.493-0.969-1.36-1.649-1.854l0.886-0.715c0.696,0.578,1.479,1.225,2.157,2.244L302.121,869.977z"/>
			<path fill="#FFFFFF" d="M316.401,882.913v-1.173h-3.162v1.24l-1.275-0.033v-7.633h5.712l-0.017,7.599H316.401z M313.239,880.533
				l3.145-0.02v-3.992h-3.145V880.533z M323.27,868.414l-0.019,5.558h-9.638v-5.575L323.27,868.414z M322.146,869.502l-7.377-0.035
				l0.017,3.436h7.343L322.146,869.502z M320.497,882.861h-1.291v-7.6h5.813v7.564h-1.291v-1.173l-3.23,0.017L320.497,882.861
				L320.497,882.861z M323.744,876.471h-3.247v3.994l3.247-0.017V876.471z"/>
			<path fill="#FFFFFF" d="M333.554,868.073l-0.136,0.374c1.377,2.396,2.669,4.199,4.453,5.522l-0.936,1.071
				c-0.596-0.51-0.985-0.938-1.225-1.207c-0.153,1.785-0.459,4.012-0.9,5.133c-0.222,0.563-0.8,0.683-1.273,0.683
				c-0.527-0.068-1.021-0.204-1.564-0.374c-0.102-0.441-0.15-0.799-0.255-1.396c0.683,0.289,1.142,0.479,1.649,0.527
				c0.391-0.068,0.374-0.527,0.524-0.9c0.289-1.037,0.442-2.074,0.479-3.043h-3.536v6.104c0,0.289,0.17,0.441,0.34,0.441h4.606
				c0.256-0.066,0.355-0.341,0.392-0.629l0.271-1.14l1.139,0.562c-0.255,0.918-0.373,2.262-1.665,2.379h-4.845
				c-0.97,0-1.515-0.66-1.515-1.357v-6.459c-0.137,0.102-0.646,0.439-1.292,0.832l-0.814-1.141c1.563-0.714,2.55-1.75,3.365-2.975
				c0.664-1.003,1.259-2.295,1.633-3.52L333.554,868.073z M335.169,873.258c-0.578-0.748-1.666-2.193-2.312-3.397
				c-0.442,1.104-1.293,2.479-2.159,3.382L335.169,873.258z M338.075,879.122v-8.821h1.258v8.821H338.075z M340.625,867.699h1.258
				v13.956c0,0.561-0.322,1.104-1.054,1.173l-1.836-0.02l-0.392-1.258l1.732,0.086c0.153,0,0.289-0.17,0.289-0.562L340.625,867.699
				L340.625,867.699z"/>
			<path fill="#FFFFFF" d="M348.276,877.898c-0.714,1.462-1.515,2.516-2.873,3.298l-0.767-1.003
				c1.344-0.748,2.158-1.734,2.722-2.992L348.276,877.898z M349.925,881.689c0,0.662-0.51,1.394-1.292,1.394h-1.377l-0.441-1.36
				l1.359,0.104c0.17,0.017,0.425-0.188,0.425-0.408v-4.624h-2.734v-1.24h2.734v-1.207h-3.331v-1.258h2.447
				c-0.118-0.493-0.525-1.122-1.309-1.717l1.122-0.459c0.714,0.563,1.224,1.326,1.462,2.176h0.714
				c0.561-0.561,0.985-1.408,1.188-2.142l1.142,0.459c-0.188,0.595-0.578,1.292-0.952,1.683h2.022v1.258h-3.181v1.207h2.703v1.24
				h-2.703V878l0.493-0.629c0.799,0.493,1.563,1.292,2.125,2.244l-0.867,0.986c-0.425-1.021-1.188-1.754-1.751-2.178
				L349.925,881.689L349.925,881.689z M348.48,869.398c-0.153-0.271-0.513-0.747-1.071-1.311l1.241-0.577
				c0.544,0.646,1.003,1.292,1.207,1.888h2.871v1.24h-7.036v-1.24H348.48z M359.529,868.771c-1.53,0.884-3.094,1.309-4.606,1.58
				v2.431h4.878v1.241h-1.902v8.854h-1.311v-8.854h-1.665v2.191c0,2.262-0.748,4.589-2.058,6.612l-1.155-0.816
				c1.563-2.142,1.903-4.452,1.903-7.088l-0.019-5.608c1.888-0.222,3.521-0.729,5.116-1.599L359.529,868.771z"/>
			<path fill="#FFFFFF" d="M363.117,876.76h5.148c0.172-0.646,0.188-1.563,0.224-2.48l1.291,0.236
				c-0.033,0.886-0.085,1.666-0.203,2.244h6.085v1.258h-4.675c0.952,2.059,3.672,3.195,5.967,3.688l-0.765,1.19
				c-4.048-0.938-5.983-3.146-6.547-4.881h-0.354c-0.97,2.67-3.944,4.098-6.579,4.776l-0.714-1.207
				c2.431-0.612,4.913-1.632,5.848-3.567h-4.726V876.76z M369.865,869.672l6.137,0.033v3.043h-1.309v-1.785h-10.558v1.785h-1.292
				v-3.043h6.459c-0.425-0.51-1.272-1.02-2.36-1.41l1.088-0.799c0.884,0.221,2.006,0.969,2.702,1.732L369.865,869.672z
				 M363.186,874.805c2.125-0.697,3.416-1.615,4.677-3.568l0.983,0.8c-1.24,1.921-2.516,3.009-4.859,3.909L363.186,874.805z
				 M374.591,875.638c-1.054-1.683-2.771-2.346-4.742-3.483l0.782-0.918c2.073,1.055,3.909,1.973,4.896,3.449L374.591,875.638z
				 M371.294,874.193c1.139,0.305,1.887,0.694,2.72,1.428l-0.8,0.969c-0.662-0.748-1.563-1.189-2.651-1.496L371.294,874.193z"/>
			<path fill="#FFFFFF" d="M385.965,880.244l0.019-5.32h-5.065l-0.017-5.729l1.377,0.018v4.436h3.705v-6.102h1.409v6.085
				l3.759,0.019v-4.438h1.377l0.017,5.711h-5.148v5.338l4.078-0.018l-0.018-3.994l1.377-0.018v6.664h-1.377v-1.36h-9.587v1.343
				h-1.359l-0.018-6.697h1.377v4.063L385.965,880.244L385.965,880.244z"/>
			<path fill="#FFFFFF" d="M403.883,875.314c0.153,2.602-0.833,4.369-1.615,5.185c-1.343,1.377-3.501,2.022-5.541,2.329
				l-0.851-1.156c1.734-0.238,2.976-0.611,4.216-1.207c1.785-0.867,2.499-2.479,2.55-5.184L403.883,875.314z M402.591,869.756
				h-4.641v-1.207h10.59v1.225h-4.675v1.685h6.596v1.173h-14.432v-1.173h6.562V869.756z M407.895,873.547v5.813h-1.239v-4.643
				h-6.833v5.031l-1.226-0.019v-6.188h9.298V873.547z M408.982,882.811c-1.312-1.121-3.706-2.53-5.476-3.159l0.73-0.972
				c1.325,0.459,4.216,1.615,5.593,3.182L408.982,882.811z"/>
			<path fill="#FFFFFF" d="M414.984,882.709h-1.311v-10.76h3.501v-1.359h-4.182l-0.019-1.275h4.198v-1.836h1.312v1.854l4.367-0.019
				v1.275h-4.367v1.359h3.723v9.264l-0.02,0.204c1.36-1.717,1.615-3.247,1.634-5.372l0.032-3.008l-1.461,0.017v-1.292h1.444v-4.23
				h1.291l-0.017,1.357l1.003-0.543c0.833,0.781,1.343,1.648,1.683,2.668c-0.391,0.238-0.695,0.408-1.104,0.612
				c-0.374-1.021-0.663-1.683-1.581-2.465v2.601h2.788v1.275h-1.615c0.034,0.935,0.051,2.125,0.188,3.246
				c0.237,1.922,0.73,3.893,1.804,5.49l-0.986,0.936c-1.666-2.328-2.04-5.32-2.159-8.244c-0.033,1.699-0.17,3.773-0.595,5.049
				c-0.356,1.104-0.815,2.158-1.614,3.195l-1.037-0.714c-0.833,0.799-1.581,0.544-2.531,0.51l-0.46-1.36l1.665,0.086
				c0.272,0.019,0.357-0.188,0.357-0.44l-0.02-7.564h-1.323l0.898,0.394c-0.391,1.207-0.833,1.887-1.122,2.295h1.241v1.223h-2.021
				l-0.02,1.141h2.193v1.207h-2.176v2.396l-1.293-0.018v-2.381h-2.125v-1.224h2.125v-1.123h-1.973v-1.223h1.377
				c-0.204-0.664-0.814-1.36-1.633-2.125l0.938-0.527l-1.004-0.034v9.484h0.004V882.709z M417.891,875.91
				c0.612-0.816,1.004-1.564,1.345-2.688h-3.042c0.85,0.731,1.343,1.515,1.768,2.499l-0.374,0.152L417.891,875.91z"/>
			<path fill="#FFFFFF" d="M444.682,877.015v1.241h-5.522c0.782,1.258,2.703,2.617,6.12,3.399l-0.938,1.139
				c-3.757-1.037-6-2.94-6.544-4.573h-0.17c-1.563,3.928-5.508,4.284-7.225,4.573l-0.833-1.122c2.276-0.425,5.627-1.037,6.578-3.416
				h-6.053v-1.241h6.748l0.357-1.155l1.272,0.152l-0.271,1.003H444.682L444.682,877.015z M435.35,876.438h-1.323v-2.976
				c-0.952,0.782-2.244,1.7-3.281,2.295l-0.867-1.259c1.174-0.543,2.892-1.717,4.131-2.566v-4.248h1.311L435.35,876.438z
				 M430.879,868.48c0.885,0.63,1.836,1.666,2.432,2.736l-1.021,1.002c-0.408-1.02-1.343-2.156-2.295-2.957L430.879,868.48z
				 M438.75,871.219c0.492,0.356,1.121,0.883,1.495,1.41c0.596-0.493,1.411-1.258,2.176-2.414h-3.62
				c-0.51,0.748-1.581,1.989-2.329,2.432l-1.003-0.969c1.311-0.814,2.433-2.006,3.213-4.146l1.141,0.477
				c-0.067,0.307-0.238,0.713-0.408,1.002h4.438l0.019,1.227c-1.462,2.805-3.688,4.709-7.515,5.574l-0.851-1.174
				c1.326-0.236,2.754-0.595,3.81-1.343c-0.493-0.526-0.952-0.97-1.515-1.272L438.75,871.219z"/>
			<path fill="#FFFFFF" d="M455.121,877.015c-0.393-0.646-1.311-1.731-2.074-2.396l0.952-0.951c0.884,0.662,1.768,1.496,2.328,2.176
				L455.121,877.015z"/>
			<path fill="#FFFFFF" d="M162.635,888.797c1.751,2.176,4.029,4.146,6.938,4.997l-1.037,1.054
				c-1.173-0.391-2.192-0.984-2.957-1.496l0.017,0.697l-3.094-0.018l0.017,1.973h4.606l0.018,1.226l-4.641,0.017l0.017,4.08
				l6.086-0.02v1.241H155.14l-0.017-1.241l6.103,0.02v-4.097l-4.692,0.017l-0.017-1.24h4.709v-1.973l-3.094,0.018v-0.729
				c-0.833,0.543-1.904,1.155-3.094,1.699l-0.867-1.07c2.532-1.141,5.745-3.043,7.649-6.307l1.054,0.714L162.635,888.797z
				 M159.031,901.053c-0.459-1.123-0.985-2.058-1.955-2.959l1.156-0.543c0.714,0.563,1.717,2.09,2.04,2.977L159.031,901.053z
				 M164.794,892.808c-0.936-0.78-2.176-1.901-2.924-2.958c-0.73,0.918-1.938,2.211-3.009,2.924L164.794,892.808z M163.094,900.439
				c1.122-0.801,1.904-1.869,2.465-3.042l1.037,0.747c-0.544,1.174-1.273,2.262-2.346,3.095L163.094,900.439z"/>
			<path fill="#FFFFFF" d="M180.417,888.678v1.226h-9.315v-1.226H180.417z M178.445,895.834h-5.271v7.343h-1.224v-8.618h7.717v7.021
				c-0.051,0.562-0.425,1.054-0.9,1.241c-0.544,0.221-0.918,0.187-1.581,0.187l-0.442-1.207c0.714-0.033,1.037,0.17,1.462-0.033
				c0.357-0.171,0.238-0.681,0.238-1.378L178.445,895.834L178.445,895.834z M172.717,893.896v-3.3h6.153v3.3H172.717z
				 M178.037,898.247v1.224h-1.666v2.737h-1.189v-2.72h-1.564v-1.275h1.156c-0.271-0.595-0.833-1.258-1.411-1.512l0.884-0.578
				c0.578,0.34,1.275,1.02,1.53,1.631l-0.714,0.477l0.935,0.019c0.663-0.73,0.901-1.513,1.156-2.176l1.104,0.44
				c-0.306,0.527-0.646,1.344-1.036,1.75L178.037,898.247z M177.612,891.788h-3.654v0.952h3.654V891.788z M181.521,902.327
				c-0.407,0.118-0.526,0.153-1.003,0.323l-0.595-1.241c1.021-0.222,1.513-0.308,2.227-0.493v-3.111h-1.921v-6.306h1.921V888.1
				h1.207v3.399h1.955v6.306h-1.955l0.018,2.789l0.985-0.236c-0.119-0.238-0.391-0.697-0.781-1.176l1.07-0.391
				c0.68,0.782,1.139,1.684,1.428,2.566l0.374,1.123l-1.274,0.439c-0.119-0.595-0.255-1.188-0.392-1.547L181.521,902.327z
				 M182.15,892.723h-0.73v3.842h0.73V892.723z M183.357,896.564h0.833v-3.844h-0.833V896.564z"/>
			<path fill="#FFFFFF" d="M188.119,897.058c2.142-1.224,3.842-3.128,5.235-5.116l1.037,0.696c-0.477,0.867-1.445,2.006-2.074,2.771
				v7.836h-1.309v-6.492c-0.289,0.271-1.241,0.9-1.887,1.359L188.119,897.058z M188.34,892.383c1.785-1.24,3.162-2.771,4.301-4.556
				l1.003,0.782c-1.139,1.717-2.55,3.519-4.165,4.655L188.34,892.383z M196.125,901.852c0.867,0.067,1.615,0.067,2.346,0.053
				c0.188-0.053,0.374-0.17,0.374-0.408v-6.969h-4.352v-1.26l8.754,0.018v1.242l-3.025,0.016l-0.017,7.105
				c0,0.596-0.307,1.035-0.731,1.293c-0.459,0.254-2.073,0.235-2.94,0.201L196.125,901.852z M202.21,890.411h-7.309l-0.018-1.258
				l7.326-0.019L202.21,890.411L202.21,890.411z"/>
			<path fill="#FFFFFF" d="M219.856,901.154v1.238H205.39v-1.258h4.964v-12.525h1.326v12.545h1.972v-12.527h1.274v12.527H219.856z
				 M207.447,892.298c0.867,1.903,1.666,4.284,1.904,6.563l-1.292,0.561c-0.085-2.312-0.867-4.674-1.717-6.596L207.447,892.298z
				 M218.87,892.757c-0.34,2.669-1.07,5.134-2.192,6.867l-1.088-0.663c1.173-1.547,1.989-4.59,2.107-6.629L218.87,892.757z"/>
			<path fill="#FFFFFF" d="M225.331,896.648c-0.373,0.766-1.155,1.973-2.261,3.076l-1.121-0.78c1.733-1.563,2.753-3.45,3.365-5.271
				h-2.532l0.017-1.224h2.532v-1.921c-0.595,0.102-1.343,0.271-2.227,0.306l-0.663-1.273c2.329,0,4.029-0.611,5.712-1.463
				l0.748,0.986c-0.816,0.458-1.581,0.815-2.261,1.053l-0.018,2.295l2.55,0.02v1.224l-2.55,0.019v1.174l0.442-0.289
				c1.054,0.609,1.972,1.598,2.516,2.668l-1.037,0.782c-0.526-1.037-1.24-1.854-1.903-2.295v7.632l-1.31-0.019L225.331,896.648
				L225.331,896.648z M233.933,903.296l-0.017-4.675l-5.253,1.241l-0.34-1.241l5.609-1.359l-0.017-8.992l1.292,0.019l0.017,8.669
				l1.988-0.459l0.272,1.241l-2.261,0.544l-0.017,5.015L233.933,903.296L233.933,903.296z M231.876,897.092
				c-0.748-1.258-1.819-2.227-3.145-2.873l0.918-0.898c1.258,0.68,2.346,1.563,3.161,2.77L231.876,897.092z M232.284,892.979
				c-0.884-1.259-2.006-2.006-3.315-2.687l0.8-0.901c1.309,0.598,2.516,1.43,3.416,2.67L232.284,892.979z"/>
			<path fill="#FFFFFF" d="M240.309,897.159h5.15c0.17-0.646,0.188-1.563,0.222-2.481l1.291,0.238
				c-0.033,0.884-0.085,1.666-0.203,2.243h6.085v1.259h-4.675c0.952,2.057,3.672,3.195,5.967,3.688l-0.765,1.19
				c-4.046-0.935-5.983-3.146-6.545-4.878h-0.356c-0.97,2.668-3.944,4.096-6.579,4.775l-0.714-1.207
				c2.431-0.611,4.913-1.631,5.848-3.568h-4.726V897.159z M247.057,890.071l6.137,0.034v3.043h-1.309v-1.785h-10.556v1.785h-1.292
				v-3.043h6.459c-0.425-0.512-1.274-1.021-2.362-1.411l1.088-0.8c0.884,0.222,2.006,0.97,2.702,1.732L247.057,890.071z
				 M240.377,895.205c2.125-0.697,3.416-1.615,4.675-3.57l0.985,0.799c-1.241,1.922-2.516,3.011-4.861,3.91L240.377,895.205z
				 M251.782,896.037c-1.054-1.684-2.771-2.346-4.742-3.484l0.782-0.918c2.073,1.055,3.909,1.973,4.896,3.451L251.782,896.037z
				 M248.485,894.593c1.139,0.308,1.887,0.696,2.72,1.429l-0.8,0.97c-0.662-0.747-1.563-1.189-2.651-1.495L248.485,894.593z"/>
			<path fill="#FFFFFF" d="M263.156,900.645l0.017-5.318h-5.065l-0.017-5.729l1.377,0.019v4.437h3.705v-6.103h1.411v6.085
				l3.757,0.018v-4.437h1.377l0.017,5.712h-5.15v5.337l4.08-0.018l-0.018-3.994l1.377-0.019v6.663h-1.377v-1.359h-9.587v1.345h-1.36
				l-0.018-6.697h1.377v4.063L263.156,900.645L263.156,900.645z"/>
			<path fill="#FFFFFF" d="M273.697,902.038c0.629,0.153,1.188,0.17,1.632,0.136c0.288-0.018,0.441-0.221,0.441-0.439l0.018-3.895
				l-2.04,0.748l-0.867-1.088l2.89-1.004l0.018-3.723h-2.295l-0.018-1.226h2.313v-3.298h1.258l0.017,3.281h1.751v1.238l-1.751,0.02
				l-0.017,3.213l1.887-0.663v1.292l-1.87,0.697l-0.017,4.773c0,0.646-0.341,1.346-1.31,1.346h-1.41L273.697,902.038z
				 M277.827,902.242c1.768-0.493,3.229-1.227,4.402-2.21c-1.002-1.071-1.699-2.55-2.192-3.927l-0.833-0.02l-0.017-1.223
				l3.246,0.017v-2.819h-3.553v-1.242h3.553v-2.636h1.275l0.017,2.651l3.927-0.018v1.24h-3.927l-0.017,2.807h2.991
				c-0.237,2.158-1.359,3.841-2.617,5.184c1.139,0.986,2.635,1.581,4.352,2.107l-0.816,1.14c-1.699-0.493-3.179-1.31-4.453-2.362
				c-1.071,0.815-2.193,1.733-4.369,2.432L277.827,902.242z M281.414,896.088c0.527,1.275,0.969,2.278,1.785,3.094
				c0.747-0.729,1.614-2.006,1.938-3.076L281.414,896.088z"/>
			<path fill="#FFFFFF" d="M295.745,888.473l-0.136,0.375c1.377,2.396,2.669,4.198,4.454,5.523l-0.936,1.071
				c-0.595-0.512-0.986-0.937-1.224-1.206c-0.153,1.783-0.459,4.011-0.901,5.133c-0.221,0.561-0.799,0.68-1.274,0.68
				c-0.527-0.066-1.021-0.203-1.564-0.373c-0.102-0.44-0.152-0.799-0.255-1.395c0.681,0.289,1.14,0.477,1.649,0.525
				c0.391-0.066,0.374-0.525,0.526-0.899c0.289-1.036,0.442-2.073,0.477-3.042h-3.536v6.102c0,0.289,0.17,0.442,0.34,0.442h4.604
				c0.257-0.068,0.357-0.341,0.394-0.629l0.271-1.142l1.141,0.563c-0.257,0.918-0.373,2.261-1.666,2.38h-4.845
				c-0.969,0-1.513-0.663-1.513-1.359v-6.46c-0.137,0.104-0.646,0.442-1.292,0.833l-0.816-1.139c1.564-0.715,2.55-1.751,3.366-2.975
				c0.663-1.004,1.258-2.295,1.632-3.521L295.745,888.473z M297.36,893.658c-0.578-0.748-1.666-2.193-2.312-3.4
				c-0.442,1.105-1.292,2.482-2.159,3.383L297.36,893.658z M300.267,899.521V890.7h1.26v8.821H300.267z M302.816,888.1h1.258v13.955
				c0,0.563-0.322,1.105-1.055,1.174l-1.837-0.018l-0.391-1.258l1.733,0.085c0.151,0,0.289-0.17,0.289-0.563L302.816,888.1
				L302.816,888.1z"/>
			<path fill="#FFFFFF" d="M310.468,898.299c-0.714,1.461-1.513,2.518-2.873,3.297l-0.765-1.002c1.343-0.748,2.158-1.732,2.72-2.992
				L310.468,898.299z M312.116,902.089c0,0.663-0.511,1.396-1.292,1.396h-1.377l-0.441-1.359l1.359,0.102
				c0.17,0.02,0.425-0.187,0.425-0.406v-4.623h-2.736v-1.24h2.736v-1.207h-3.331v-1.258h2.447c-0.118-0.494-0.526-1.123-1.311-1.717
				l1.122-0.459c0.714,0.561,1.226,1.324,1.462,2.176h0.715c0.562-0.563,0.984-1.411,1.188-2.145l1.14,0.459
				c-0.188,0.598-0.576,1.293-0.951,1.686h2.021v1.258h-3.179v1.207h2.703v1.24h-2.703v1.207l0.493-0.629
				c0.799,0.49,1.563,1.291,2.125,2.242l-0.867,0.985c-0.425-1.021-1.189-1.751-1.751-2.176L312.116,902.089L312.116,902.089z
				 M310.672,889.799c-0.152-0.271-0.511-0.748-1.071-1.309l1.241-0.578c0.544,0.646,1.003,1.292,1.207,1.887h2.872v1.241h-7.037
				v-1.241H310.672z M321.721,889.17c-1.528,0.885-3.094,1.309-4.604,1.581v2.431h4.878v1.241h-1.903v8.856h-1.31v-8.856h-1.665
				v2.192c0,2.262-0.748,4.59-2.06,6.613l-1.153-0.816c1.563-2.143,1.901-4.453,1.901-7.088l-0.017-5.609
				c1.887-0.222,3.519-0.729,5.116-1.599L321.721,889.17z"/>
			<path fill="#FFFFFF" d="M332.074,895.715c0.152,2.603-0.833,4.368-1.615,5.186c-1.343,1.377-3.501,2.021-5.541,2.33l-0.851-1.156
				c1.732-0.238,2.976-0.612,4.216-1.207c1.785-0.867,2.499-2.482,2.55-5.186L332.074,895.715z M330.782,890.156h-4.643v-1.207
				h10.591v1.225h-4.676v1.682h6.598v1.176H324.22v-1.176h6.563L330.782,890.156L330.782,890.156z M336.086,893.947v5.813h-1.241
				v-4.641h-6.833v5.032l-1.224-0.019v-6.188L336.086,893.947L336.086,893.947z M337.174,903.211
				c-1.31-1.122-3.706-2.533-5.474-3.162l0.729-0.969c1.326,0.459,4.218,1.615,5.595,3.179L337.174,903.211z"/>
			<path fill="#FFFFFF" d="M343.176,903.109h-1.309v-10.762h3.501v-1.358h-4.183l-0.018-1.274h4.198v-1.836h1.31v1.852l4.368-0.016
				v1.274h-4.368v1.358h3.725v9.266l-0.02,0.203c1.36-1.719,1.615-3.246,1.632-5.371l0.034-3.008l-1.462,0.016v-1.291h1.445v-4.232
				h1.291l-0.019,1.359l1.003-0.544c0.833,0.782,1.343,1.649,1.685,2.669c-0.393,0.238-0.696,0.408-1.104,0.611
				c-0.374-1.021-0.663-1.684-1.581-2.465v2.602h2.788v1.275h-1.615c0.034,0.934,0.053,2.123,0.188,3.244
				c0.237,1.922,0.729,3.895,1.802,5.49l-0.985,0.938c-1.666-2.329-2.039-5.32-2.158-8.244c-0.033,1.699-0.17,3.771-0.597,5.048
				c-0.354,1.104-0.813,2.159-1.612,3.196l-1.037-0.717c-0.833,0.801-1.581,0.545-2.533,0.512l-0.459-1.359l1.666,0.085
				c0.271,0.018,0.357-0.187,0.357-0.442l-0.02-7.563h-1.325l0.9,0.391c-0.392,1.207-0.833,1.888-1.122,2.295h1.241v1.226h-2.022
				l-0.018,1.139h2.191v1.207h-2.176v2.396l-1.292-0.018v-2.38h-2.125v-1.224h2.125v-1.122h-1.972v-1.226h1.377
				c-0.204-0.663-0.816-1.359-1.633-2.125l0.936-0.525l-1.003-0.033L343.176,903.109L343.176,903.109z M346.082,896.311
				c0.612-0.814,1.003-1.563,1.343-2.687h-3.042c0.852,0.729,1.343,1.513,1.77,2.499l-0.374,0.152L346.082,896.311z"/>
			<path fill="#FFFFFF" d="M372.873,897.414v1.241h-5.524c0.782,1.258,2.703,2.618,6.12,3.397l-0.936,1.141
				c-3.757-1.037-6-2.94-6.544-4.572h-0.17c-1.564,3.927-5.51,4.283-7.227,4.572l-0.833-1.121c2.278-0.426,5.627-1.037,6.578-3.417
				h-6.051v-1.241h6.748l0.355-1.156l1.274,0.154l-0.271,1.002H372.873L372.873,897.414z M363.541,896.836h-1.325v-2.975
				c-0.952,0.781-2.244,1.699-3.281,2.295l-0.865-1.258c1.174-0.545,2.891-1.719,4.131-2.566v-4.25h1.309L363.541,896.836z
				 M359.07,888.881c0.885,0.629,1.836,1.666,2.432,2.737l-1.021,1.003c-0.406-1.021-1.343-2.159-2.295-2.958L359.07,888.881z
				 M366.941,891.618c0.49,0.354,1.121,0.884,1.494,1.411c0.597-0.493,1.41-1.258,2.177-2.414h-3.62
				c-0.51,0.748-1.581,1.988-2.329,2.431l-1.003-0.969c1.309-0.815,2.431-2.006,3.213-4.147l1.139,0.478
				c-0.065,0.306-0.236,0.714-0.408,1.003h4.438l0.019,1.224c-1.463,2.808-3.688,4.709-7.515,5.575l-0.85-1.172
				c1.325-0.238,2.754-0.596,3.808-1.344c-0.493-0.526-0.952-0.971-1.513-1.274L366.941,891.618z"/>
		</g>
	</g>
</g>
</svg>
