<?xml version="1.0" encoding="utf-8"?>
<!-- Generator: Adobe Illustrator 16.0.0, SVG Export Plug-In . SVG Version: 6.00 Build 0)  -->
<!DOCTYPE svg PUBLIC "-//W3C//DTD SVG 1.1//EN" "http://www.w3.org/Graphics/SVG/1.1/DTD/svg11.dtd">
<svg version="1.1" id="Layer_1" xmlns="http://www.w3.org/2000/svg" xmlns:xlink="http://www.w3.org/1999/xlink" x="0px" y="0px"
	 width="768px" height="1024px" viewBox="0 0 768 1024" enable-background="new 0 0 768 1024" xml:space="preserve">
<g>
	<rect x="465.11" y="771.301" opacity="0.698" fill="#173058" enable-background="new    " width="162.219" height="162.222"/>
	<g>
		<g>
			<path fill="#FFFFFF" d="M474.395,796.781c-0.176-5.602,3.011-9.906,8.892-9.906c4.479,0,8.399,2.87,8.399,7.666
				c0,3.676-1.959,5.705-4.375,7.42c-2.416,1.716-5.285,3.116-7.07,5.637h11.587v4.271h-17.992c0.035-5.67,3.5-8.086,7.735-10.955
				c2.171-1.471,5.109-2.978,5.146-5.986c0-2.311-1.54-3.78-3.676-3.78c-2.939,0-3.885,3.047-3.885,5.637h-4.761V796.781z"/>
			<path fill="#FFFFFF" d="M502.254,786.875c4.901,0,9.031,3.08,9.031,12.637c0,9.767-4.13,12.847-9.031,12.847
				c-4.83,0-8.961-3.08-8.961-12.847C493.293,789.955,497.424,786.875,502.254,786.875z M502.254,808.262
				c4.061,0,4.061-5.983,4.061-8.75c0-2.556,0-8.541-4.061-8.541c-3.99,0-3.99,5.985-3.99,8.541
				C498.264,802.277,498.264,808.262,502.254,808.262z"/>
		</g>
	</g>
	<g>
		<path fill="#FFFFFF" d="M479.876,833.635c0.153-0.527,0.132-1.342,0.109-1.937h-1.32c-0.353,0.638-0.968,1.275-1.672,1.825
			l-1.54-0.683c1.518-1.188,2.134-2.684,2.441-4.576l1.606,0.616c-0.089,0.572-0.265,0.99-0.374,1.21l5.082,0.021v1.585
			l-2.574,0.021c0.044,0.572-0.021,1.32-0.109,1.893l3.41,0.021v1.584h-3.651l-0.177,0.418c1.319,0.198,2.883,0.462,4.356,1.364
			l-0.881,1.343c-1.562-0.683-2.772-1.188-4.269-1.231c-0.528,0.682-1.057,1.078-1.826,1.496l12.277,0.044l0.021,9.263h-1.716
			v-1.298h-9.132v1.408l-1.65-0.022v-9.175c-0.571,0.396-1.848,0.837-2.596,1.013l-0.792-1.649c2.046-0.375,3.96-1.365,4.555-2.949
			h-3.917l0.021-1.628L479.876,833.635z M489.073,840.258l-9.132-0.021v1.605h9.132V840.258z M489.073,843.447h-9.132v1.563h9.108
			L489.073,843.447z M485.553,836.979v-7.282h7.283v7.282H485.553z M491.163,831.303h-3.938l-0.021,4.092h3.96L491.163,831.303
			L491.163,831.303z"/>
		<path fill="#FFFFFF" d="M497.563,844.328l-1.056-1.672c0.771-0.066,1.32-0.199,1.716-0.287v-11.661h-1.21v-1.562h8.251v1.539
			h-1.254v10.145c0.462-0.11,1.188-0.266,1.584-0.44v1.606l-1.584,0.461v5.369h-1.629v-4.885L497.563,844.328z M502.381,830.708
			h-2.529v2.397h2.529V830.708z M502.381,834.713h-2.529v2.42h2.529V834.713z M499.852,838.717v3.279
			c0.925-0.221,1.451-0.33,2.485-0.639v-2.642L499.852,838.717L499.852,838.717z M515.913,839.025h-4.093
			c0.133,0.639,0.221,1.408,0.507,2.223c0.726,2.046,2.002,3.916,4.048,5.434l-1.188,1.103c-0.836-0.529-1.344-0.947-1.98-1.695
			c-1.475-1.78-2.486-4.137-2.86-7.063c-0.506,2.971-0.813,4.973-3.607,7.7c-0.396,0.375-0.792,0.748-1.32,1.034l-1.101-1.298
			c2.903-1.938,3.763-3.764,4.379-7.438l-4.049-0.021v-1.606h4.181c0.065-0.727,0.065-1.65,0.065-2.641v-0.353h-3.828v-1.584h4.994
			c1.122-1.584,1.629-2.795,2.268-4.576l1.518,0.813c-0.506,1.014-1.298,2.706-1.979,3.764l3.499-0.021v1.605h-4.842
			c0,1.475,0,2.135-0.088,3.037h5.479v1.584H515.913z M507.376,828.441c0.924,0.901,1.628,2.023,2.068,3.366l-1.408,0.791
			c-0.33-1.209-1.122-2.661-2.024-3.388L507.376,828.441z"/>
		<path fill="#FFFFFF" d="M532.963,830.885c-0.197,5.633-2.156,6.732-4.048,7.986l8.933,0.044v8.956h-1.737l0.021-1.387h-5.743
			l-0.021,1.475h-1.694v-9.044h0.088l-1.145-1.122l-0.021,0.242l-2.751,1.254v6.865c0,0.506-0.22,1.145-0.726,1.451
			c-0.771,0.616-1.914,0.287-2.927,0.375c-0.242-0.551-0.418-1.058-0.727-1.738c0.989,0.044,1.716,0.198,2.376,0.088
			c0.396-0.176,0.309-0.66,0.309-1.166v-5.039l-2.288,0.969c-0.374-0.418-0.66-0.857-1.057-1.408
			c1.298-0.439,2.376-0.924,3.345-1.342v-4.094h-2.772v-1.627h2.751v-4.159l1.716,0.022v4.137h2.53v1.627h-2.53v3.323
			c0.97-0.44,1.629-0.749,2.751-1.21v1.166c2.53-1.034,3.542-3.543,3.608-5.941l0.021-0.726h-3.607l0.021-1.628l10.737-0.022
			c-0.022,2.509-0.176,4.886-0.572,7.129c-0.108,0.66-0.857,1.232-1.474,1.364c-0.99,0-1.871-0.198-2.883-0.418
			c-0.088-0.594-0.133-1.1-0.242-1.805c0.969,0.375,1.761,0.527,2.553,0.615c0.506-0.064,0.396-0.658,0.528-1.144
			c0.153-1.496,0.352-2.772,0.33-4.093L532.963,830.885z M530.367,840.521v4.313h5.742v-4.313H530.367z"/>
		<path fill="#FFFFFF" d="M549.242,841.468l1.034-0.396v1.715l-1.014,0.354v4.929h-1.672v-4.4l-4.885,1.65l-1.101-1.388l1.761-0.638
			v-12.321h-1.013v-1.585h8.164v1.585h-1.276L549.242,841.468L549.242,841.468z M545.018,833.523h2.574v-2.529h-2.574V833.523z
			 M545.039,835.131v2.75h2.553v-2.75H545.039z M547.592,839.443h-2.553v3.277l2.553-0.813V839.443z M551.729,843.58
			c0.396-1.1,0.66-2.047,0.793-2.795h-2.816v-1.605h12.189v1.605h-7.592l-0.374,1.166h5.919c-0.088,1.563-0.22,3.037-0.506,4.4
			c-0.265,0.813-1.057,1.452-1.893,1.452c-0.88,0.021-1.782-0.109-2.794-0.264l-0.31-1.738c1.058,0.109,2.024,0.373,2.928,0.353
			c0.836-0.418,0.615-1.519,0.77-2.574H551.729z M556.415,828.222v1.915h3.896v8.03h-9.439v-8.03h3.895v-1.893L556.415,828.222z
			 M552.521,834.889v1.672h2.243v-1.672H552.521z M552.543,831.721v1.584h2.222v-1.584H552.543z M556.415,836.561h2.244v-1.649
			h-2.244V836.561z M558.638,831.742h-2.2v1.563h2.223L558.638,831.742z"/>
	</g>
	<g>
		<g>
			<path fill="#FFFFFF" d="M475.325,878.393v-7.53h5.559l-0.017-3.111h1.359l-0.034,3.094l5.542,0.019v7.462h-1.344v-1.155h-4.198
				l0.034,5.729h-1.344l-0.017-5.729h-4.165l-0.034,1.224L475.325,878.393L475.325,878.393z M480.867,872.102h-4.199v3.843h4.216
				L480.867,872.102z M486.357,872.102h-4.132v3.825h4.147L486.357,872.102z"/>
			<path fill="#FFFFFF" d="M504.7,868.396v14.414h-1.207l-0.017-1.189h-10.369v1.173h-1.275l0.018-14.397H504.7L504.7,868.396z
				 M493.124,880.432h10.335v-10.828h-10.335V880.432z M503.052,879.225h-9.588v-1.207h4.097v-2.873h-3.364v-1.173h3.383v-2.176
				h-3.961v-1.155h9.264v1.172h-4.079v2.144h3.536v1.207h-3.553v2.872h4.267L503.052,879.225L503.052,879.225z M501.471,877.916
				c-0.663-0.867-1.258-1.463-2.107-1.955l0.833-0.663c0.714,0.425,1.632,1.088,2.176,1.972L501.471,877.916z"/>
			<path fill="#FFFFFF" d="M512.793,868.021c-0.068,0.596-0.238,1.036-0.323,1.325h9.521v1.242l-5.186,0.033l0.018,2.176h4.335
				v1.258h-4.335v2.755h5.865v1.258l-5.865-0.019v4.896h-1.344v-4.879h-6.629v-1.275l2.107,0.019v-4.013l4.521-0.018v-2.177h-3.502
				c-0.543,1.105-1.189,2.33-2.346,3.4l-1.07-0.867c1.547-1.377,2.516-3.229,3.145-5.643L512.793,868.021z M512.266,874.057v2.754
				h3.196l0.017-2.754H512.266z"/>
			<path fill="#FFFFFF" d="M527.736,875.943c0,2.328-0.137,5.03-1.769,7.088l-1.088-0.851c0.765-1.12,1.24-2.142,1.377-3.348
				c0.103-1.004,0.152-2.041,0.152-3.077v-6.255h6.188c-0.221-0.324-0.51-0.596-1.377-1.14l1.259-0.696
				c0.51,0.51,1.395,1.358,1.684,1.836h5.626l0.017,1.206h-12.052L527.736,875.943z M537.799,877.864
				c-0.595,1.003-2.277,2.278-2.957,2.669c0.408,0.188,1.088,0.391,1.769,0.544c1.139,0.271,2.276,0.459,3.638,0.562
				c-0.204,0.526-0.477,0.815-0.697,1.206c-2.176-0.306-4.267-0.695-6.067-1.581c-0.493,0.205-1.003,0.442-1.548,0.646
				c-1.239,0.476-2.635,0.799-4.097,0.969c-0.289-0.374-0.51-0.697-0.899-1.189c2.091-0.17,3.789-0.68,5.219-1.189
				c-0.833-0.595-1.785-1.563-2.448-2.566h-1.292v-1.207l9.417,0.034L537.799,877.864z M536.678,875.875h-6.408l0.018-2.328h-2.278
				v-1.173l2.261-0.017v-1.311h1.345v1.311h3.739v-1.326h1.325v1.326h2.771v1.207h-2.771L536.678,875.875L536.678,875.875z
				 M531.271,877.933c0.851,0.952,1.344,1.395,2.209,1.954c1.037-0.561,2.007-1.154,2.755-1.938L531.271,877.933z M531.663,874.703
				l3.672-0.018l0.017-1.121h-3.723L531.663,874.703z"/>
			<path fill="#FFFFFF" d="M542,880.822l1.768-0.17v-5.541h-1.513v-1.207h14.397v1.207h-6.852v7.853h-1.359v-1.819l-5.745,0.901
				L542,880.822z M544.566,873.395v-4.912h9.705v4.912H544.566z M548.441,876.045v-0.934h-3.365v0.934H548.441z M545.076,877.219
				v0.885h3.383v-0.885H545.076z M545.093,879.258v1.225c1.088-0.152,2.261-0.288,3.35-0.477v-0.748H545.093z M552.946,869.654
				h-7.071v0.748h7.071V869.654z M545.875,871.523v0.73h7.071v-0.73H545.875z M555.87,875.757c-0.34,1.717-0.663,2.771-1.769,4.268
				c0.766,0.78,1.699,1.409,2.891,1.887c-0.34,0.391-0.527,0.662-0.85,0.986c-1.141-0.478-1.922-1.071-2.84-1.955
				c-0.815,0.729-1.717,1.58-2.635,2.09l-0.766-1.021c1.037-0.629,1.938-1.273,2.602-1.955c-0.681-0.918-1.31-1.953-1.514-3.094
				h-0.714v-1.206H555.87z M552.164,876.963c0.271,0.816,0.563,1.36,1.088,2.125c0.493-0.748,0.952-1.496,1.141-2.125H552.164z"/>
			<path fill="#FFFFFF" d="M563.776,868.09c-0.442,1.445-0.901,2.856-1.581,4.046v10.88h-1.258v-8.907
				c-0.17,0.271-0.681,1.036-1.429,1.768l-1.054-0.934c1.972-1.889,3.382-4.591,4.13-7.327L563.776,868.09z M573.958,881.213v1.241
				h-11.049v-1.241h4.794v-2.447h-3.639v-1.24h3.639v-1.903h1.394v1.903h3.604v1.24h-3.604v2.447H573.958z M569.079,873.887h4.42
				v1.241h-10.25v-1.241h4.437v-2.328h-3.483v-1.258h3.483v-2.244h1.395v2.262h3.451v1.224h-3.451L569.079,873.887L569.079,873.887z
				"/>
			<path fill="#FFFFFF" d="M583.479,869.484c-0.459-0.578-1.104-1.056-2.039-1.529l1.189-0.682c0.884,0.375,1.733,0.985,2.432,1.922
				l-0.612,0.255l5.202,0.034v3.842h-11.102v3.893c0.885-0.426,2.703-2.313,2.873-3.74l1.258,0.341
				c-0.102,0.407-0.289,0.799-0.44,1.104h2.446c-0.136-0.289-0.34-0.596-0.646-0.9l1.139-0.426c0.392,0.357,0.73,0.885,0.936,1.326
				h3.876v1.225h-4.113v0.781h3.399v1.225h-3.399v0.781h3.399v1.225h-3.399v0.781h4.93v1.225h-9.229v0.9h-1.258v-5.66
				c-0.408,0.392-0.748,0.646-1.156,0.884l-0.612-0.578c-0.033,2.176-0.61,3.621-1.768,5.32l-1.155-0.832
				c0.918-1.189,1.274-2.058,1.479-3.351c0.085-0.51,0.102-1.479,0.102-2.005v-7.36H583.479L583.479,869.484z M578.549,870.708
				v1.377h9.791v-1.377H578.549z M584.584,876.93v-0.781h-3.009v0.781H584.584z M581.575,878.936h3.009v-0.781h-3.009V878.936z
				 M581.575,880.159v0.782h3.009v-0.782H581.575z"/>
			<path fill="#FFFFFF" d="M607.907,880.635v1.258l-14.433,0.019v-1.258l6.545,0.017l-0.018-3.808h-4.946l0.018-1.291l4.93,0.016
				l0.017-3.108l-6.084-0.019v-1.258h13.429l0.034,1.258h-6.053v3.111h4.997l-0.032,1.273l-4.931,0.018l0.017,3.808L607.907,880.635
				z M598.932,867.496c1.36,0.68,2.329,1.648,3.043,2.889l-1.173,0.663c-0.765-1.358-1.632-1.989-2.991-2.839L598.932,867.496z"/>
		</g>
	</g>
</g>
</svg>
