<?xml version="1.0" encoding="utf-8"?>
<!-- Generator: Adobe Illustrator 16.0.0, SVG Export Plug-In . SVG Version: 6.00 Build 0)  -->
<!DOCTYPE svg PUBLIC "-//W3C//DTD SVG 1.1//EN" "http://www.w3.org/Graphics/SVG/1.1/DTD/svg11.dtd">
<svg version="1.1" id="Layer_1" xmlns="http://www.w3.org/2000/svg" xmlns:xlink="http://www.w3.org/1999/xlink" x="0px" y="0px"
	 width="768px" height="1024px" viewBox="0 0 768 1024" enable-background="new 0 0 768 1024" xml:space="preserve">
<g>
	
		<rect x="405.505" y="122.436" opacity="0.302" fill-rule="evenodd" clip-rule="evenodd" fill="#3490C1" width="121.328" height="44.453"/>
	<g>
		<g>
			<g>
				<path fill="#F2F2F2" d="M425.311,137.622c-0.625,2.449-2.925,5.674-5.999,7.848l-1.475-1.475
					c3.225-2.174,4.773-4.124,5.874-7.373L425.311,137.622z M435.158,154.843c-0.325-1.075-0.7-1.925-1.101-2.774
					c-2.649,0.475-9.947,1.425-12.247,2.05l-1.249-1.825c4.049-3.523,5.623-8.522,6.099-11.172l1.924,0.649
					c-0.449,3.324-2.074,6.724-5.073,10.023c4.049-0.575,6.773-0.9,9.723-1.425c-0.725-1.15-1.425-2.024-2.675-3.199l1.85-0.825
					c2.225,2.125,3.725,4.724,4.649,7.623L435.158,154.843z M437.457,145.47c-3.499-1.924-5.623-6.448-6.373-9.173h-6.474v-1.899
					l8.073,0.025c0.925,3.724,2.549,7.423,6.173,9.598L437.457,145.47z"/>
				<path fill="#F2F2F2" d="M459.532,140.347h-16.121l0.025-1.9h16.071L459.532,140.347z M457.133,153.269
					c1.25,0.125,2.05,0.175,3,0.125c0.499,0.024,0.649-0.301,0.649-0.625v-16.821h-16.146v-1.899h18.171l0.025,19.195
					c0,0.899-0.5,1.6-1.175,1.925c-0.9,0.3-2.949,0.175-3.874,0.199L457.133,153.269z M454.834,152.019v-1.75l-6.648,0.025v1.8
					h-1.975v-9.348l10.672,0.024l-0.024,9.248H454.834z M454.834,144.646h-6.648v3.749h6.648V144.646z"/>
				<path fill="#F2F2F2" d="M479.435,134.098c2.574,3.199,5.923,6.099,10.197,7.349l-1.524,1.549
					c-1.725-0.574-3.225-1.449-4.35-2.199l0.025,1.025l-4.549-0.025l0.025,2.899h6.773l0.024,1.8l-6.823,0.024l0.025,5.999
					l8.947-0.025v1.824h-19.795l-0.025-1.824l8.973,0.025v-6.023l-6.897,0.024l-0.025-1.824h6.923v-2.899l-4.549,0.025v-1.075
					c-1.225,0.8-2.799,1.699-4.549,2.499l-1.274-1.574c3.725-1.675,8.448-4.474,11.247-9.272l1.55,1.05L479.435,134.098z
					 M474.136,152.118c-0.675-1.649-1.45-3.024-2.874-4.349l1.699-0.8c1.05,0.824,2.524,3.074,2.999,4.374L474.136,152.118z
					 M482.608,139.996c-1.374-1.149-3.199-2.799-4.299-4.349c-1.075,1.35-2.85,3.249-4.424,4.299L482.608,139.996z M480.109,151.219
					c1.649-1.175,2.799-2.749,3.624-4.474l1.524,1.1c-0.8,1.725-1.874,3.324-3.449,4.549L480.109,151.219z"/>
				<path fill="#F2F2F2" d="M505.559,133.923v1.8h-13.696v-1.8H505.559z M502.659,144.445h-7.748v10.797h-1.8V142.57h11.348v10.323
					c-0.075,0.824-0.625,1.549-1.325,1.824c-0.8,0.325-1.35,0.275-2.324,0.275l-0.649-1.775c1.05-0.05,1.524,0.25,2.149-0.05
					c0.524-0.25,0.35-1,0.35-2.024V144.445z M494.236,141.596v-4.849h9.048v4.849H494.236z M502.06,147.994v1.8h-2.449v4.024h-1.75
					v-3.999h-2.299v-1.875h1.699c-0.4-0.875-1.225-1.85-2.074-2.225l1.3-0.85c0.85,0.5,1.874,1.5,2.249,2.399l-1.05,0.7l1.375,0.024
					c0.975-1.074,1.324-2.225,1.699-3.199l1.625,0.65c-0.45,0.774-0.95,1.975-1.525,2.574L502.06,147.994z M501.435,138.497h-5.374
					v1.399h5.374V138.497z M507.184,153.993c-0.601,0.175-0.775,0.225-1.475,0.475l-0.875-1.824c1.499-0.325,2.225-0.45,3.274-0.726
					v-4.573h-2.824v-9.272h2.824v-4.999h1.774v4.999h2.874v9.272h-2.874l0.024,4.099l1.45-0.35c-0.175-0.35-0.575-1.024-1.15-1.725
					l1.575-0.575c1,1.15,1.675,2.475,2.1,3.774l0.55,1.649l-1.875,0.65c-0.175-0.875-0.375-1.75-0.574-2.275L507.184,153.993z
					 M508.108,139.871h-1.075v5.648h1.075V139.871z M509.883,145.52h1.225v-5.648h-1.225V145.52z"/>
			</g>
		</g>
	</g>
</g>
<g>
	
		<rect x="56.005" y="122.436" opacity="0.302" fill-rule="evenodd" clip-rule="evenodd" fill="#FFFFFF" width="339.694" height="44.455"/>
	<g>
		<path fill="#F2F2F2" d="M148.222,146.12c-3.5-1.125-6.874-2.199-9.823-4.024c-2.225,1.6-7.923,3.199-10.422,3.849l-1.225-1.649
			c3.699-0.95,7.098-1.825,9.897-3.399c-1.125-0.85-2.399-1.6-3.224-2.899c-1.275,1.449-2.575,2.424-4.274,3.224l-1.4-1.575
			c3.049-1.075,5.524-3.924,6.773-6.523l1.6,0.7c-0.2,0.55-0.475,0.95-0.5,1.025h8.898v1.55c-1.05,1.949-2.974,3.474-4.524,4.574
			c2.375,1.325,5.724,2.399,9.647,3.549L148.222,146.12z M128.527,153.868l-1.325-1.725c3.449-0.775,5.624-2,7.548-3.724l1.2,1.299
			C133.625,151.894,131.326,152.968,128.527,153.868z M139.299,147.694v5.674c0,1.024-0.55,2.024-1.525,2.024h-2.549
			c-0.2-0.65-0.45-1.175-0.725-2l2.449,0.125c0.2,0,0.4-0.2,0.45-0.45v-5.374h-7.498v-1.824h7.498v-1.525h1.9v1.525h7.173v1.824
			H139.299z M134.5,136.672c0.975,1.274,2.424,2.374,3.799,3.224c1.5-0.9,3.049-2.024,3.949-3.224H134.5z M147.922,154.093
			c-2.049-2.174-4.574-3.149-7.498-4.074l1-1.5c2.849,1.025,5.049,1.575,7.698,3.949L147.922,154.093z"/>
		<path fill="#F2F2F2" d="M161.025,150.394l-7.973,2.875c-0.325-0.65-0.675-1.1-0.975-1.825c3.149-1.024,5.874-1.949,8.973-2.999
			L161.025,150.394z M155.426,146.195l0.65-0.075l4.449-0.7l0.05,1.7c-2.225,0.375-4.774,0.875-7.348,1.55l-0.925-1.8
			c1.825-1.399,3.174-3.199,3.924-4.474c-1.024,0.175-2.024,0.5-3.049,0.75l-0.85-1.875c1.4-1.75,3.249-5.449,3.824-8.248
			c0.725,0.3,1.149,0.625,1.824,0.85c-0.875,2.849-1.875,5.148-3.249,6.973c0.625-0.075,1.75-0.125,2.699-0.325
			c0.525-0.975,1.075-1.949,1.6-3.224l1.725,0.95C159.351,141.346,157.876,143.97,155.426,146.195z M173.622,154.518
			c-0.225,0.525-0.875,0.925-1.525,0.725c-2.174-0.7-4.074-2.299-5.374-4.049c-1.025,1.225-4.374,3.075-6.423,3.924l-1.175-1.6
			c2.549-1,4.724-2.274,6.548-3.974c-0.85-1.524-1.2-3.474-1.399-5.199l-3.499,0.85l-0.4-2.05l3.799-0.675v-1.95l-3.024,0.475
			l-0.325-1.774l3.374-0.625v-5.149c0.625-0.125,1.125-0.275,1.85-0.325l-0.025,5.149c1.425-0.2,3.149-0.6,6.073-1l0.05,0.175
			l0.3,1.575c-2.375,0.4-5.199,0.925-6.398,1.175l-0.025,1.899c1.425-0.225,4.299-0.775,7.498-1.35
			c0.175,0.65,0.25,1.175,0.325,1.825l-7.698,1.399c0.25,1.625,0.45,2.85,1.025,4.099c1.25-1.125,2.574-2.475,3.624-3.974
			l1.475,1.025c-1.45,1.725-2.774,3.324-4.224,4.674c0.9,1.375,2.424,2.674,4.024,3.399c0.275-0.7,0.375-1.375,0.425-2.325l1.9,1.05
			C174.222,152.968,173.997,153.643,173.622,154.518z M169.848,137.297c-0.725-0.899-1.9-1.924-3.174-2.474l1.125-1.25
			c1.275,0.6,2.299,1.35,3.349,2.475L169.848,137.297z"/>
		<path fill="#F2F2F2" d="M177.627,154.093v-1.824h7.298v-18.446h1.95v18.446h2.899v-18.446h1.875v18.446h7.248v1.824H177.627z
			 M181.551,149.719c-0.125-3.399-1.275-6.873-2.524-9.697l1.625-0.775c1.275,2.799,2.45,6.298,2.799,9.647L181.551,149.719z
			 M194.223,150.019l-1.6-0.975c1.725-2.274,2.924-6.748,3.099-9.748l1.725,0.625C196.947,143.845,195.873,147.47,194.223,150.019z"
			/>
		<path fill="#F2F2F2" d="M223.646,145.645c-3.599-0.775-6.998-1.75-9.947-3.499c-2.85,1.899-7.273,3.174-11.123,3.774l-0.774-1.8
			c2.999-0.5,5.624-1.174,8.198-2.124c0.675-0.325,1.475-0.725,1.975-1c-1.075-0.825-2.5-1.675-3.374-2.875
			c-1.1,1.3-2.7,2.649-4.574,3.399l-1.424-1.725c3.849-1.425,5.698-3.649,6.873-6.723l1.65,0.925
			c-0.275,0.625-0.525,1.075-0.6,1.225h9.373v1.674c-1.475,1.825-2.974,3-4.524,4.124c0.325,0.25,1.1,0.5,1.8,0.85
			c2.349,0.875,4.824,1.549,7.698,2.099L223.646,145.645z M219.723,153.693c-0.25,0.775-0.9,1.45-1.625,1.65
			c-1.1,0.325-2.225-0.025-3.375-0.2l-0.475-2.174c1.325,0.375,2.274,0.75,3.299,0.6c0.575-0.375,0.625-1.075,0.75-1.799
			c0.225-1.35,0.5-3.074,0.55-3.874h-5.398c-0.4,2.149-2.075,4.199-4.099,5.523c-1.5,1-4.199,1.8-5.824,2.1
			c-0.35-0.625-0.675-1.125-1-1.875c3.174-0.5,6.124-1.25,8.023-3.749c0.525-0.675,0.8-1.425,0.95-2h-7.148v-1.825h7.448
			c0.075-0.6,0-1.05,0.075-2.174l1.85,0.25c-0.025,0.95,0.05,1.375-0.025,1.924h7.098
			C220.748,148.844,220.447,151.394,219.723,153.693z M209.9,137.047c1,1.2,2.35,2,3.749,2.899c1.35-0.875,2.7-1.899,3.649-2.899
			H209.9z"/>
		<path fill="#F2F2F2" d="M241.898,152.243c0,0.35,0.1,0.425,0.5,0.425h2.974c1.275-0.175,1.325-1.4,1.45-2.95l1.975,0.75
			c-0.5,1.524-0.775,3.699-2.625,3.974h-3.999c-1.025,0-2.125-0.6-2.125-1.7v-4.599h-4.199v1.649c-0.2,1.649-1.125,3.174-2.85,3.974
			c-1.799,0.825-3.249,1.274-4.949,1.575l-0.925-1.95c1.475-0.025,2.975-0.35,4.899-1.225c1.025-0.3,1.725-1.375,1.924-2.699v-3.1
			h7.948V152.243z M248.272,143.57v4.674h-1.875v-2.874h-16.521v2.874h-1.899v-4.674H248.272z M228.927,137.047v-1.799h8.123
			c-0.375-0.65-1-1.15-1.65-1.5l2.125-1c0.75,0.85,1.325,1.75,1.675,2.5h8.198v1.799H228.927z M232.301,137.847h11.722v4.924
			h-11.722V137.847z M234.175,139.622v1.375h7.998v-1.375H234.175z"/>
		<path fill="#F2F2F2" d="M253.352,155.567l-1.7-1.424c2.149-1.325,3.474-3.1,4.399-5.224l1.575,0.8
			C256.751,152.343,254.876,154.443,253.352,155.567z M262.95,137.297v2.45h6.848v8.348h-14.171v-8.348h5.423v-6.699h1.9v2.524
			h8.998v1.725H262.95z M267.998,141.471h-10.472v4.898h10.472V141.471z M260.925,154.868c-0.475-1.85-1.225-3.424-2.524-5.024
			l1.625-0.675c1,1.25,2.125,3.125,2.874,5.149L260.925,154.868z M266.273,154.917c-0.7-1.774-1.875-3.724-3.099-5.023l1.6-0.775
			c1.275,1.274,2.575,3.199,3.349,5.099L266.273,154.917z M272.322,155.068c-0.975-1.95-2.6-4.024-4.174-5.299l1.475-1
			c1.75,1.525,3.424,3.375,4.499,5.249L272.322,155.068z"/>
		<path fill="#F2F2F2" d="M282.651,140.946c0.55-0.825,1.075-1.825,1.675-3l1.75,0.8c-1.475,2.949-2.875,5.449-5.124,7.598
			l5.324-1.399v1.85c-1.949,0.475-5.024,1.399-7.523,2.174l-0.9-1.825c1.5-1.5,2.824-3.024,3.549-4.149
			c-0.225,0.05-1.675,0.425-2.7,0.75l-0.975-1.7c1.25-1.975,3.599-5.949,4.224-8.948l2,0.85c-0.675,1.95-2.649,5.924-3.774,7.498
			L282.651,140.946z M277.902,151.793c3-0.975,5.824-1.95,8.898-2.924v1.875l-7.923,2.924L277.902,151.793z M296.623,142.671
			c-0.075,3.099-0.25,8.023-0.7,10.297c-0.15,0.8-0.775,1.424-1.55,1.625c-1.15,0.325-2.424-0.025-3.599-0.2l-0.525-2.099
			c1.3,0.3,2.225,0.55,3.199,0.6c0.225-0.025,0.575,0.075,0.65-0.425c0.2-1.375,0.3-2.625,0.375-4.099
			c0.075-1.125,0.225-2.749,0.2-3.874h-2.849c-0.075,3.149-0.575,6.849-3.499,9.123c-0.95,0.725-1.95,1.35-3.199,1.85l-1.325-1.65
			c2.174-0.725,4.124-1.924,5.074-3.899c0.4-0.825,0.7-1.825,0.825-2.824c0.1-0.85,0.15-2,0.175-2.6h-2.149v-1.824H296.623z
			 M284.5,142.446c2.524-1.675,4.649-5.524,4.899-8.398l1.774,0.725c-0.25,3.049-2.524,6.999-4.949,8.898L284.5,142.446z
			 M298.222,143.871c-2.674-1.8-4.849-5.699-5.674-9.073l1.7-0.8c0.9,3.374,2.75,6.648,5.523,8.348L298.222,143.871z"/>
		<path fill="#F2F2F2" d="M312.25,147.895v-2.424h-8.023v-1.8h17.271v1.8h-7.373v2.424h6.773v1.824h-6.773v2.7h9.448v1.799h-20.82
			v-1.799h9.498v-2.7h-7.374v-1.824H312.25z M305.977,134.473h14.146v7.748h-14.146V134.473z M318.224,136.297h-10.373v4.124h10.373
			V136.297z"/>
	</g>
</g>
</svg>
