<?xml version="1.0" encoding="utf-8"?>
<!-- Generator: Adobe Illustrator 16.0.0, SVG Export Plug-In . SVG Version: 6.00 Build 0)  -->
<!DOCTYPE svg PUBLIC "-//W3C//DTD SVG 1.1//EN" "http://www.w3.org/Graphics/SVG/1.1/DTD/svg11.dtd">
<svg version="1.1" id="Layer_1" xmlns="http://www.w3.org/2000/svg" xmlns:xlink="http://www.w3.org/1999/xlink" x="0px" y="0px"
	 width="768px" height="1024px" viewBox="0 0 768 1024" enable-background="new 0 0 768 1024" xml:space="preserve">
<g>
	<g>
		<g>
			<path fill="#F2F2F2" d="M614.551,142.625h2.652c-0.273-0.68-1.072-1.733-1.82-2.396l0.936-0.731
				c0.664,0.477,1.529,1.462,2.244,2.72l-0.527,0.374l2.074,0.034c0.594-0.578,1.377-1.836,1.785-3.025l1.189,0.561
				c-0.408,1.054-1.07,2.091-1.428,2.465h2.838v6.068h-4.316v1.394h6.832v1.19h-6.85v3.502h-1.258v-3.485h-6.715v-1.189h6.732
				v-1.411h-4.369V142.625z M618.902,146.229h-3.076v1.292h3.076V146.229z M618.92,144.988v-1.14h-3.078v1.14H618.92z
				 M620.16,143.849v1.14h3.094v-1.14H620.16z M623.236,146.212h-3.059v1.309h3.059V146.212z"/>
			<path fill="#F2F2F2" d="M628.951,147.146c2.701-2.617,3.211-5.422,4.063-7.36l1.172,0.544c-0.441,1.326-0.867,2.55-1.359,3.688
				V155h-1.309v-8.771c-0.102,0.153-0.867,1.173-1.412,1.751L628.951,147.146z M644.352,153.946l-10.643,0.017v-1.274h4.59
				c1.361-2.414,2.516-4.93,2.686-7.989l1.293,0.492c-0.188,2.567-1.293,5.083-2.533,7.497h4.59L644.352,153.946z M634.102,144.529
				l-0.018-1.275l9.416-0.017v1.274L634.102,144.529z M636.889,151.787c-0.068-2.38-0.662-4.267-1.836-6.238l1.359-0.289
				c1.088,1.921,1.684,3.961,1.854,6.256L636.889,151.787z M637.484,139.752c0.865,0.562,1.887,1.854,2.328,2.873l-1.225,0.544
				c-0.492-1.122-1.172-1.988-2.295-2.72L637.484,139.752z"/>
			<path fill="#F2F2F2" d="M652.801,144.716v-1.836h1.836v1.836H652.801z M652.801,151.821v-1.836h1.836v1.836H652.801z"/>
			<path fill="#F2F2F2" d="M671.67,142.217l4.998,0.034v5.457h-1.359v-0.681h-8.619c0.051,3.791-0.441,5.848-2.396,7.888
				l-1.172-0.918c1.75-1.513,2.242-3.399,2.242-5.524v-6.222h5.475c-0.205-0.493-1.037-1.224-2.092-1.938l0.953-0.833
				c0.781,0.595,1.818,1.343,2.531,2.346L671.67,142.217z M675.342,145.787v-2.278h-8.652v2.278H675.342z"/>
			<path fill="#F2F2F2" d="M680.408,153.997h-1.207l3.52-12.579h1.207L680.408,153.997z"/>
			<path fill="#F2F2F2" d="M689.793,140.178c-0.289,1.869-0.816,3.519-1.48,5.048v9.655h-1.291l0.018-7.479
				c-0.51,0.851-1.037,1.343-1.717,1.938l-0.834-1.021c1.938-1.733,2.975-3.842,3.621-6.085c0.188-0.663,0.391-1.462,0.578-2.533
				L689.793,140.178z M699.939,151.464c-0.34,1.564-0.629,2.516-1.529,2.516l-7.803,0.018c-0.221,0-0.662-0.238-0.934-0.646
				c-0.307-0.492-0.443-1.258-0.154-1.768c2.006-2.736,5.457-7.139,7.311-9.196h-6.563v-1.224h8.482l-0.033,1.19
				c-2.84,3.025-5.424,6.374-7.684,9.365c-0.137,0.238-0.34,0.442-0.271,0.714c0.016,0.153,0.236,0.222,0.355,0.289h6.834
				c0.203,0,0.357-0.118,0.459-0.271c0.152-0.391,0.152-0.884,0.256-1.547L699.939,151.464z"/>
			<path fill="#F2F2F2" d="M711.943,152.145c0,0.476,0.34,0.68,0.646,0.68h2.004c0.494,0,0.664-1.19,0.953-2.55l1.309,0.425
				c-0.137,0.833-0.322,1.598-0.596,2.261c-0.254,0.612-0.883,1.173-1.547,1.173h-2.379c-1.41,0-1.75-1.241-1.75-2.176v-5.711
				l-2.16-0.018c0.051,4.946-2.295,7.021-5.303,8.703l-0.936-1.292c2.992-1.563,4.879-3.246,4.861-7.411h-3.893v-1.292l12.801,0.018
				v1.292l-4.012-0.018V152.145z M704.6,140.755h9.943v1.292H704.6V140.755z"/>
		</g>
	</g>
</g>
</svg>
