<?xml version="1.0" encoding="utf-8"?>
<!-- Generator: Adobe Illustrator 16.0.0, SVG Export Plug-In . SVG Version: 6.00 Build 0)  -->
<!DOCTYPE svg PUBLIC "-//W3C//DTD SVG 1.1//EN" "http://www.w3.org/Graphics/SVG/1.1/DTD/svg11.dtd">
<svg version="1.1" id="Layer_1" xmlns="http://www.w3.org/2000/svg" xmlns:xlink="http://www.w3.org/1999/xlink" x="0px" y="0px"
	 width="768px" height="1024px" viewBox="0 0 768 1024" enable-background="new 0 0 768 1024" xml:space="preserve">
<g>
	<g>
		<path fill="#FFFFFF" d="M206.441,360.927h-6.827c0.015-1.643,0.857-2.885,2.2-3.785c1.299-0.943,2.984-1.728,3.014-3.285
			c0.014-0.714-0.286-1.771-1.686-1.771c-1.285,0-1.671,1.1-1.714,2.5H199.8c0-2.214,1.214-3.856,3.441-3.856
			c2.442,0,3.214,1.785,3.214,3.07c0,1.585-1.086,2.571-2.229,3.371c-1.156,0.8-2.37,1.414-2.656,2.299h4.87L206.441,360.927
			L206.441,360.927z"/>
		<path fill="#FFFFFF" d="M214.451,355.928c0,2.271-0.586,5.199-3.456,5.199c-2.871,0-3.456-2.928-3.456-5.199
			c0-2.271,0.585-5.198,3.456-5.198C213.865,350.729,214.451,353.657,214.451,355.928z M212.823,355.928
			c0-2.085-0.4-3.842-1.828-3.842c-1.429,0-1.828,1.757-1.828,3.842c0,2.085,0.399,3.842,1.828,3.842
			C212.422,359.77,212.823,358.013,212.823,355.928z"/>
		<path fill="#FFFFFF" d="M215.59,352.586c1.371,0.014,2.671-0.457,2.914-1.657h1.328v9.998h-1.785v-7.056h-2.457V352.586z"/>
		<path fill="#FFFFFF" d="M224.556,350.929h5.17v1.457h-3.956l-0.515,2.542l0.029,0.029c0.442-0.486,1.171-0.757,1.842-0.757
			c1.985,0,3.128,1.428,3.128,3.342c0,1.6-0.999,3.585-3.456,3.585c-1.928,0-3.428-1.043-3.499-3.042h1.628
			c0.1,1.071,0.785,1.686,1.843,1.686c1.385,0,1.856-0.986,1.856-2.2c0-1.1-0.586-2.085-1.899-2.085
			c-0.686,0-1.356,0.214-1.614,0.914h-1.628L224.556,350.929z"/>
	</g>
	<g>
		<path fill="#FFFFFF" d="M266.975,360.927h-6.827c0.015-1.643,0.857-2.885,2.2-3.785c1.3-0.943,2.984-1.728,3.013-3.285
			c0.015-0.714-0.285-1.771-1.685-1.771c-1.286,0-1.671,1.1-1.714,2.5h-1.629c0-2.214,1.215-3.856,3.442-3.856
			c2.442,0,3.214,1.785,3.214,3.07c0,1.585-1.086,2.571-2.229,3.371c-1.156,0.8-2.371,1.414-2.656,2.299h4.87L266.975,360.927
			L266.975,360.927z"/>
		<path fill="#FFFFFF" d="M274.985,355.928c0,2.271-0.586,5.199-3.456,5.199c-2.871,0-3.457-2.928-3.457-5.199
			c0-2.271,0.586-5.198,3.457-5.198C274.399,350.729,274.985,353.657,274.985,355.928z M273.357,355.928
			c0-2.085-0.4-3.842-1.828-3.842c-1.429,0-1.828,1.757-1.828,3.842c0,2.085,0.399,3.842,1.828,3.842
			C272.957,359.77,273.357,358.013,273.357,355.928z"/>
		<path fill="#FFFFFF" d="M276.125,352.586c1.371,0.014,2.671-0.457,2.914-1.657h1.328v9.998h-1.785v-7.056h-2.457V352.586z"/>
		<path fill="#FFFFFF" d="M288.975,353.457c-0.071-0.814-0.614-1.371-1.457-1.371c-1.771,0-1.971,2.114-2.071,3.428l0.029,0.029
			c0.442-0.786,1.271-1.186,2.156-1.186c1.985,0,3.156,1.442,3.156,3.356c0,1.942-1.328,3.414-3.327,3.414
			c-2.942,0-3.643-2.314-3.643-5.228c0-2.385,0.942-5.17,3.771-5.17c1.586,0,2.928,1.1,3.014,2.728H288.975L288.975,353.457z
			 M289.161,357.685c0-1.071-0.586-2.042-1.757-2.042c-1.186,0-1.8,0.942-1.8,2.042c0,1.085,0.614,2.085,1.8,2.085
			C288.575,359.77,289.161,358.756,289.161,357.685z"/>
	</g>
	<g>
		<path fill="#FFFFFF" d="M201.181,230.337c1.2,0.047,2.448-0.379,2.448-1.737c0-0.932-0.727-1.563-1.722-1.563
			c-1.247,0-1.863,1.122-1.832,2.258h-1.8c0.095-2.147,1.437-3.758,3.663-3.758c1.722,0,3.49,0.995,3.49,2.953
			c0,1.104-0.505,1.99-1.563,2.369v0.032c1.248,0.253,2.006,1.342,2.006,2.764c0,2.085-1.8,3.38-3.916,3.38
			c-2.559,0-3.838-1.548-3.886-3.854h1.801c-0.048,1.342,0.679,2.353,2.085,2.353c1.2,0,2.116-0.71,2.116-1.974
			c0-1.721-1.469-1.942-2.891-1.879L201.181,230.337L201.181,230.337z"/>
		<path fill="#FFFFFF" d="M214.514,236.813h-7.549c0.016-1.816,0.947-3.19,2.432-4.185c1.438-1.042,3.301-1.911,3.332-3.632
			c0.017-0.79-0.315-1.958-1.863-1.958c-1.421,0-1.848,1.216-1.895,2.764h-1.801c0-2.448,1.343-4.264,3.806-4.264
			c2.701,0,3.554,1.974,3.554,3.395c0,1.753-1.2,2.843-2.464,3.728c-1.279,0.884-2.621,1.563-2.938,2.542h5.386V236.813z"/>
		<path fill="#FFFFFF" d="M223.331,231.285c0,2.511-0.647,5.749-3.821,5.749c-3.175,0-3.822-3.238-3.822-5.749
			c0-2.511,0.647-5.749,3.822-5.749C222.683,225.537,223.331,228.774,223.331,231.285z M221.531,231.285
			c0-2.306-0.442-4.249-2.021-4.249c-1.579,0-2.021,1.943-2.021,4.249c0,2.306,0.442,4.248,2.021,4.248
			C221.089,235.533,221.531,233.591,221.531,231.285z"/>
		<path fill="#FFFFFF" d="M232.052,236.813h-7.549c0.016-1.816,0.947-3.19,2.432-4.185c1.438-1.042,3.301-1.911,3.332-3.632
			c0.017-0.79-0.315-1.958-1.863-1.958c-1.421,0-1.848,1.216-1.895,2.764h-1.801c0-2.448,1.343-4.264,3.806-4.264
			c2.701,0,3.554,1.974,3.554,3.395c0,1.753-1.2,2.843-2.464,3.728c-1.279,0.884-2.621,1.563-2.938,2.542h5.386V236.813z"/>
	</g>
	<line fill="none" stroke="#F2F2F2" stroke-miterlimit="10" x1="168.1" y1="371.333" x2="329.985" y2="371.333"/>
	<g>
		<path fill="#F2F2F2" d="M179.825,395.28c-0.268,2.026-0.631,3.403-1.357,4.933c-0.229,0.478-0.65,0.784-1.205,0.841
			c-0.688,0.077-1.319-0.134-1.969-0.229l-0.307-1.204l1.74,0.363c0.573,0.114,1.014-0.746,1.224-1.453
			c0.439-1.453,0.803-3.021,0.841-4.627h-4.626l0.898-5.182h3.613v-2.791h-4.818v-1.108h5.966v5.009h-3.862l-0.517,2.964h4.551
			C179.997,393.923,179.939,394.438,179.825,395.28z M189.766,401.016c-0.229-0.497-0.554-0.956-0.898-1.415l-8.068,1.052
			l-0.631-1.166c1.415-0.076,2.982-0.172,4.378-0.421v-3.25h-2.638v0.975h-1.147v-6.156h3.785v-1.128h-2.944v-4.474h7.247v4.474
			h-3.155v1.128h3.882v6.156h-1.147v-0.975h-2.734v3.154l2.237-0.344c-0.401-0.421-0.803-0.688-1.262-1.052l0.975-0.573
			c0.956,0.727,2.199,1.835,3.078,3.441L189.766,401.016z M184.546,391.743h-2.638v2.963h2.638V391.743z M187.702,386.141h-4.952
			v2.257h4.952V386.141z M188.428,391.743h-2.734v2.963h2.734V391.743z"/>
		<path fill="#F2F2F2" d="M195.848,390.711c-0.611,0.879-1.415,1.873-2.16,2.6l-1.186-0.707c2.677-2.333,4.206-5.563,5.258-8.814
			l1.07,0.535c-0.478,1.53-1.052,3.155-1.778,4.608v12.103h-1.204V390.711z M206.689,398.97c0.401,0,0.879-0.229,1.013-0.648
			c0.287-0.898,0.479-1.606,0.612-2.563l1.186,0.44c-0.211,1.166-0.383,2.313-1.071,3.269c-0.382,0.44-0.745,0.593-1.472,0.688
			h-3.786c-1.146,0-2.122-0.784-2.122-1.873v-3.939c-0.841,0.44-1.931,0.956-3.192,1.453l-0.479-1.09
			c1.357-0.554,2.524-1.051,3.671-1.759v-8.833h1.205v8.26c2.466-1.3,3.823-3.098,5.066-4.627l1.052,0.688
			c-1.625,2.103-3.595,4.034-6.118,5.315v4.263c0,0.574,0.439,0.956,1.242,0.956L206.689,398.97L206.689,398.97z"/>
		<path fill="#F2F2F2" d="M217.704,394.42c-0.345-1.071-1.071-1.988-1.836-2.849v9.406h-1.186v-8.775
			c-0.593,1.549-1.491,2.944-2.562,4.264l-0.956-0.708c1.587-2.16,3.193-4.34,3.518-7.055h-2.715v-1.147l2.696,0.02l0.019-3.862
			l1.186,0.02v3.843l2.352-0.02v1.147h-2.352v2.294l0.708-0.325c0.994,0.822,1.721,1.912,2.218,3.06L217.704,394.42z M227.76,400.71
			c-0.669-1.339-1.988-2.447-3.231-3.193c-0.096,0.039-0.058-0.057-0.114-0.095c-0.191-0.096-0.383-0.249-0.631-0.287
			c-1.721,1.625-3.767,2.753-5.832,3.689l-1.032-0.917c2.467-1.052,4.914-2.313,6.845-4.417c1.07-1.166,2.046-2.563,2.791-3.862
			l1.033,0.44c-0.784,1.434-1.74,2.887-2.926,4.187c1.529,0.822,3.174,2.027,4.034,3.633L227.76,400.71z M223.401,386.007
			l4.895,0.039v1.128h-5.028c-0.707,1.28-1.415,2.504-2.734,3.518l3.441-0.344c0.383-0.593,0.765-1.263,1.071-1.932l1.032,0.535
			c-1.473,3.078-3.92,6.329-7.094,7.935l-1.204-0.841c1.988-0.88,3.881-2.485,5.277-4.34v-0.077
			c-1.243,0.096-2.486,0.307-3.71,0.517l-0.669-1.186c1.262-1.052,2.505-2.352,3.136-3.785h-3.499v-1.128h4.455
			c-0.573-0.727-1.357-1.415-2.104-1.912l0.956-0.804c0.88,0.65,1.606,1.319,2.352,2.275L223.401,386.007z"/>
		<path fill="#F2F2F2" d="M234.32,390.271c-0.459,2.391-1.491,4.493-2.734,6.539h-0.096l-1.032-0.573
			c1.205-2.008,2.295-4.072,2.753-6.425L234.32,390.271z M243.899,395.146c-0.325,1.262-0.574,2.504-1.109,3.689
			c-0.363,0.631-0.975,0.976-1.721,0.976l-3.136-0.02c-0.841,0-1.625-0.439-1.95-1.186c-0.191-0.42-0.191-0.975-0.191-1.414v-8.834
			l1.281,0.02v9.426c0.058,0.268,0.229,0.535,0.459,0.688l0.401,0.114h3.06c0.382-0.038,0.745-0.248,0.898-0.611
			c0.344-1.071,0.611-2.16,0.803-3.289L243.899,395.146z M241.585,388.837c-0.345,0.229-0.688,0.459-1.052,0.65
			c-1.09-1.702-2.753-3.499-4.493-4.531c0.383-0.229,0.669-0.536,1.052-0.746C238.851,385.396,240.496,387.078,241.585,388.837z
			 M248.105,395.892c-0.383,0.211-0.746,0.44-1.166,0.612c-0.899-2.218-2.104-4.397-3.844-6.233c0.363-0.19,0.67-0.382,1.052-0.554
			C245.925,391.532,247.091,393.712,248.105,395.892z"/>
		<path fill="#F2F2F2" d="M249.598,394.19c2.733-0.268,5.334-0.842,7.724-1.874c-1.128-0.841-1.759-1.415-2.428-2.103
			c-0.746,0.86-1.74,1.529-2.601,2.16l-1.032-0.746c1.473-0.898,3.116-2.16,3.862-3.671c0.134-0.286,0.344-0.554,0.459-0.86
			c0.382,0.115,0.727,0.249,1.07,0.401c-0.096,0.287-0.287,0.65-0.439,0.956h6.825v1.09c-0.879,1.147-2.103,2.104-3.25,2.811
			c2.218,1.128,4.799,1.453,7.418,1.645l-0.516,1.243c-2.868-0.345-5.66-0.88-8.126-2.18c-2.563,1.262-5.43,1.893-8.374,2.275
			L249.598,394.19z M258.182,385.549c-0.516-0.498-1.166-1.129-1.854-1.377l1.186-0.746c1.625,0.765,2.008,1.932,2.142,2.104h6.232
			v3.613h-1.204v-2.466h-12.562v2.504l-1.204-0.019v-3.613H258.182L258.182,385.549z M261.911,400.92v-1.108h-6.94v1.146
			l-1.186,0.02l-0.019-6.003l9.349-0.02v5.946L261.911,400.92z M261.911,396.103h-6.921l-0.02,2.581h6.94L261.911,396.103
			L261.911,396.103z M255.984,389.602c0.803,0.86,1.529,1.567,2.562,2.104c1.052-0.593,1.932-1.205,2.811-2.104H255.984z"/>
		<path fill="#F2F2F2" d="M283.345,392.565v-0.784H273.04c0.058,4.531-0.497,6.845-2.657,9.082l-1.09-0.86
			c1.932-1.664,2.523-3.92,2.523-6.405v-7.055h6.271c-0.344-0.822-1.357-1.702-2.371-2.391l1.09-0.611
			c1.071,0.631,1.988,1.549,2.62,2.581l-0.766,0.382v0.039h5.946v6.022H283.345L283.345,392.565z M283.383,387.689H273.04v2.944
			h10.344L283.383,387.689L283.383,387.689z"/>
		<path fill="#F2F2F2" d="M299.005,387.977v-1.625h-4.397v1.587h-1.185v-1.587h-4.838v-1.128h4.895v-1.473h1.128v1.453h4.397v-1.434
			h1.187v1.434h4.838v1.128h-4.856v1.645H299.005z M290.096,391.112h-1.147v-2.792h15.697l-0.021,2.849h-1.146v-1.721h-13.384
			V391.112z M301.548,401.035v-1.166h-9.598v1.146h-1.204l0.019-5.64h11.969v5.659L301.548,401.035L301.548,401.035z
			 M301.548,396.522h-9.598v2.199h9.598V396.522z M301.262,390.366v3.862h-8.968v-3.862H301.262z M293.5,391.514v1.567h6.558v-1.567
			H293.5z"/>
		<path fill="#F2F2F2" d="M310.154,399.448c0.497-0.268,0.708-0.822,0.708-1.396v-4.283h-2.792v-1.09h2.792v-2.294h-1.128
			c-0.479,0.669-0.899,1.3-1.55,1.854l-0.897-0.956c1.835-1.567,3.001-4.397,3.191-7.533l1.129,0.287
			c0.058,0.918-0.097,1.95-0.248,2.332h3.27v1.109h-3.499c-0.211,0.631-0.479,1.186-0.727,1.797h4.015v1.109h-2.352v2.275h2.695
			v1.108h-2.695v4.799l2.753-1.319v1.186l-3.938,2.008L310.154,399.448z M316.903,388.55c-0.382-1.376-1.28-2.581-2.274-3.594
			l1.032-0.536c1.052,1.033,1.854,2.18,2.313,3.537L316.903,388.55z M319.809,399.371c0.843,0.058,1.319,0.096,1.836,0.077
			c0.517-0.038,0.688-0.383,0.688-0.784v-1.893h-5.621v4.206h-1.205v-11.586h3.385v-5.851h1.204v5.851h3.441v9.674
			c0,0.86-0.669,1.568-1.684,1.568h-1.645L319.809,399.371z M316.712,390.52v1.969h5.621v-1.969H316.712z M316.712,393.598v2.064
			h5.621v-2.064H316.712z M324.264,384.956c-0.497,1.338-1.262,2.562-2.39,3.575l-0.956-0.746c1.128-0.918,1.912-2.18,2.466-3.499
			L324.264,384.956z"/>
		<path fill="#F2F2F2" d="M173.114,417.136c2.733-0.268,5.334-0.842,7.724-1.874c-1.128-0.841-1.759-1.415-2.428-2.103
			c-0.746,0.86-1.74,1.529-2.601,2.16l-1.032-0.746c1.473-0.898,3.116-2.16,3.862-3.671c0.134-0.286,0.344-0.554,0.459-0.86
			c0.382,0.115,0.727,0.249,1.07,0.401c-0.096,0.287-0.287,0.65-0.439,0.956h6.825v1.09c-0.879,1.146-2.103,2.104-3.25,2.811
			c2.218,1.128,4.799,1.453,7.418,1.645l-0.516,1.243c-2.868-0.345-5.66-0.88-8.126-2.18c-2.563,1.262-5.43,1.893-8.374,2.275
			L173.114,417.136z M181.698,408.494c-0.516-0.498-1.166-1.129-1.854-1.377l1.186-0.746c1.625,0.765,2.008,1.932,2.142,2.104h6.232
			v3.613H188.2v-2.466h-12.562v2.504l-1.204-0.019v-3.613H181.698L181.698,408.494z M185.426,423.865v-1.108h-6.94v1.146
			l-1.186,0.02l-0.019-6.003l9.349-0.02v5.946L185.426,423.865z M185.426,419.048h-6.921l-0.02,2.581h6.94L185.426,419.048
			L185.426,419.048z M179.5,412.547c0.803,0.86,1.529,1.567,2.562,2.104c1.052-0.593,1.932-1.205,2.811-2.104H179.5z"/>
		<path fill="#F2F2F2" d="M206.861,415.511v-0.784h-10.306c0.058,4.531-0.497,6.845-2.657,9.082l-1.09-0.859
			c1.932-1.664,2.523-3.92,2.523-6.405v-7.055h6.271c-0.344-0.822-1.357-1.702-2.371-2.391l1.09-0.611
			c1.071,0.631,1.988,1.549,2.62,2.581l-0.766,0.382v0.039h5.946v6.021H206.861z M206.899,410.635h-10.344v2.944h10.344V410.635z"/>
		<path fill="#F2F2F2" d="M219.137,413.656v1.07h-2.829c-0.229,3.862-2.353,6.673-4.054,8.699c-0.268-0.306-0.612-0.631-0.88-0.859
			c1.568-1.74,3.27-4.417,3.786-7.839h-3.441v-1.09h3.46c0.058-0.975,0-1.95,0-2.964h-2.905v-1.108h2.887l0.019-3.002
			c0.383-0.038,0.766-0.019,1.167-0.019c-0.02,1.051-0.02,1.931,0,3.001h2.447v1.109h-2.409c0.019,1.166,0.019,2.256-0.038,3.002
			L219.137,413.656L219.137,413.656z M224.07,409.774c-0.114,2.142-0.306,3.671-0.649,5.603c-0.766,4.264-2.639,6.52-6.998,8.259
			c-0.268-0.306-0.535-0.727-0.727-1.032c2.409-0.937,4.799-2.083,5.946-5.104c0.86-2.256,1.186-5.028,1.338-7.896L224.07,409.774z
			 M216.862,416.734c1.09,0.649,2.199,1.816,2.83,2.925c-0.287,0.249-0.593,0.535-0.918,0.708c-0.555-1.167-1.605-2.199-2.657-2.964
			L216.862,416.734z M226.078,418.092v-9.693h-5.334v9.693h-1.128v-10.765h7.59v10.765H226.078z M224.93,422.891
			c-1.052,0-1.549-0.669-1.549-1.224v-5.066h1.129v4.933c0.038,0.134,0.172,0.229,0.306,0.268h2.447
			c0.516-0.325,0.382-1.052,0.593-1.568l0.057-0.306c0.307,0.077,0.632,0.287,0.938,0.421c-0.211,0.937-0.268,2.313-1.491,2.542
			L224.93,422.891L224.93,422.891z"/>
		<path fill="#F2F2F2" d="M236.29,417.27c-0.287-0.822-0.766-1.702-1.339-2.371v8.986h-1.204v-8.298
			c-0.536,1.357-1.224,2.811-2.161,3.977l-0.956-0.841c1.912-2.619,2.696-4.321,3.098-7.189h-2.543v-1.146h2.563v-3.805h1.204v3.805
			h2.122v1.146h-2.122v2.447l0.517-0.286c0.803,0.994,1.414,1.854,1.854,2.925L236.29,417.27z M241.318,418.761
			c0.152-0.478,0.248-0.937,0.286-1.434h-3.785v-5.794h8.737v5.794h-3.824c-0.057,0.497-0.152,0.956-0.268,1.434h5.01v1.108h-4.034
			c1.166,1.95,3.116,2.62,4.895,2.982l-0.65,0.976c-2.237-0.306-4.589-1.739-5.43-3.938h-0.115
			c-1.013,2.122-3.288,3.384-5.372,3.938l-0.669-1.032c1.835-0.421,3.689-1.224,4.779-2.926h-4.015v-1.108H241.318z
			 M240.458,409.564v1.511h-1.186v-1.511H236.5v-1.147h2.772v-1.893h1.186v1.893h3.441v-1.893h1.185v1.893h2.754v1.147h-2.754v1.511
			h-1.185v-1.511H240.458z M245.352,412.662h-6.329v1.185h6.329V412.662z M239.023,414.937v1.262h6.329v-1.262H239.023z"/>
		<path fill="#F2F2F2" d="M259.769,414.86h1.167v6.921h5.965v1.108h-16.806v-1.108h5.965v-6.921h1.166v6.902h2.543V414.86
			L259.769,414.86z M253.804,421.304c-0.421-1.798-1.511-3.346-2.849-4.761c0.248-0.21,0.649-0.363,0.918-0.593h0.076
			c1.319,1.396,2.39,3.002,2.944,4.741L253.804,421.304z M253.421,414.306v-6.863h10.306v6.863H253.421z M262.542,408.551h-7.935
			v1.645h7.954L262.542,408.551z M262.523,413.159v-1.855h-7.916v1.855H262.523z M265.639,416.371
			c-0.612,1.835-1.511,3.518-2.887,4.99c-0.363-0.174-0.708-0.459-1.052-0.65c1.434-1.377,2.313-3.06,2.963-4.818L265.639,416.371z"
			/>
		<path fill="#F2F2F2" d="M279.56,415.319c-0.976,0.555-1.798,0.937-2.85,1.3l6.195,0.038v7.208h-1.243v-1.108h-7.647v1.128h-1.186
			v-5.813c-1.014,0.287-2.352,0.65-3.403,0.842l-0.631-0.976c2.18-0.535,4.359-1.09,6.424-1.893c0.67-0.249,1.301-0.497,1.97-0.688
			l-7.915-0.038v-1.09h6.997v-1.511h-5.143l-0.02-1.07h5.162v-1.645h1.224v1.645h3.729v1.07h-3.729v1.511h1.645
			c1.721-0.956,3.346-2.008,4.799-3.499l0.86,0.727c-1.07,1.128-2.313,1.988-3.595,2.734l4.876,0.038v1.09H279.56z M281.625,409.354
			l0.02,1.644h-1.243v-1.644h-5.831v1.663h-1.224v-1.663h-4.072v-1.071h4.053v-1.567h1.243l-0.02,1.567h5.851v-1.645h1.224v1.645
			h4.092v1.071H281.625z M274.034,417.729v1.434h7.629v-1.434H274.034z M281.663,420.214h-7.609v1.472h7.609V420.214z"/>
		<path fill="#F2F2F2" d="M292.066,418.244c0.554-0.229,1.204-0.42,1.777-0.611l0.02,1.186c-1.645,0.593-3.27,1.166-4.933,1.777
			l-0.822-1.09c0.918-0.21,1.835-0.497,2.734-0.803v-5.659h-2.219v-1.108h2.219v-4.856h1.204v4.856h1.491v1.108h-1.491
			L292.066,418.244z M294.015,415.052v-6.118h3.04c-0.458-0.708-1.242-1.377-1.873-1.932l1.186-0.458
			c0.821,0.688,1.472,1.548,2.007,2.37l1.895,0.02c0.82-0.765,1.376-1.721,1.759-2.696c0.382,0.153,0.745,0.401,1.107,0.631
			c-0.382,0.727-0.821,1.415-1.434,2.046h2.981v6.138L294.015,415.052L294.015,415.052z M296.348,423.942h-1.224v-7.591h8.451v7.571
			l-1.167-0.02l0.02-1.108h-6.1L296.348,423.942z M298.776,410.042h-3.556v3.9h3.537L298.776,410.042z M298.107,413.006
			c-0.345,0.172-0.688,0.363-1.052,0.497c-0.229-0.937-0.86-1.701-1.434-2.485c0.287-0.153,0.593-0.306,0.918-0.439
			C297.266,411.285,297.688,412.164,298.107,413.006z M296.329,417.441v1.511l6.08-0.02l0.02-1.472L296.329,417.441z
			 M296.329,420.042v1.644h6.1l-0.02-1.644H296.329z M303.499,413.904v-3.9l-3.594,0.02v3.881h3.594V413.904z M301.376,413.561
			c-0.325-0.172-0.669-0.345-0.994-0.517c0.229-0.287,0.459-0.631,0.688-0.898c0.306-0.593,0.631-1.166,0.859-1.759
			c0.345,0.114,0.65,0.269,0.956,0.439C302.504,411.782,302.065,412.7,301.376,413.561z"/>
		<path fill="#F2F2F2" d="M323.748,423.636c-5.314-2.771-7.227-5.372-8.278-8.661h-2.887l-0.021,7.342
			c1.301-0.517,2.619-1.166,4.055-1.797v1.166c-1.052,0.479-3.385,1.588-4.838,2.313l-0.517-1.013
			c0.076-0.172,0.191-0.172,0.191-0.363v-7.648h-3.958v-1.089h4.895v-7.342l1.166-0.02v5.831c2.563-1.146,5.183-2.733,7.305-4.474
			l0.821,0.88c-2.409,1.777-5.162,3.479-8.145,4.703v0.421h10.382l0.019,1.089h-7.398c1.014,3.499,4.627,6.291,7.916,7.628
			L323.748,423.636z"/>
	</g>
	<rect x="253.867" y="206.613" opacity="0.698" fill="#328EC0" enable-background="new    " width="42.873" height="132.691"/>
	<rect x="193.432" y="245.678" opacity="0.698" fill="#797979" enable-background="new    " width="42.794" height="93.626"/>
	<g>
		<path fill="#FFFFFF" d="M265.318,194.204h-1.422v2.622h-1.705v-2.622h-4.738v-1.784l4.738-6.648h1.705v7.012h1.422V194.204z
			 M258.842,192.783h3.349v-4.864h-0.032L258.842,192.783z"/>
		<path fill="#FFFFFF" d="M267.785,185.771h5.717v1.61h-4.374l-0.568,2.812l0.031,0.031c0.489-0.537,1.295-0.837,2.037-0.837
			c2.195,0,3.459,1.579,3.459,3.695c0,1.77-1.105,3.964-3.822,3.964c-2.132,0-3.79-1.152-3.869-3.363h1.801
			c0.11,1.185,0.868,1.863,2.037,1.863c1.531,0,2.053-1.09,2.053-2.432c0-1.217-0.647-2.306-2.101-2.306
			c-0.758,0-1.5,0.236-1.784,1.011H266.6L267.785,185.771z"/>
		<path fill="#FFFFFF" d="M278.212,190.351c1.2,0.047,2.448-0.38,2.448-1.737c0-0.933-0.727-1.563-1.722-1.563
			c-1.247,0-1.863,1.121-1.832,2.258h-1.8c0.095-2.147,1.437-3.759,3.663-3.759c1.722,0,3.49,0.995,3.49,2.953
			c0,1.105-0.505,1.99-1.563,2.369v0.032c1.248,0.252,2.006,1.342,2.006,2.764c0,2.084-1.8,3.379-3.916,3.379
			c-2.559,0-3.838-1.547-3.886-3.854h1.801c-0.048,1.343,0.679,2.354,2.085,2.354c1.2,0,2.116-0.711,2.116-1.974
			c0-1.722-1.469-1.943-2.891-1.88L278.212,190.351L278.212,190.351z"/>
		<path fill="#FFFFFF" d="M291.545,196.826h-7.549c0.016-1.816,0.947-3.19,2.432-4.186c1.438-1.042,3.301-1.91,3.332-3.632
			c0.017-0.79-0.315-1.958-1.863-1.958c-1.421,0-1.848,1.216-1.895,2.764h-1.801c0-2.448,1.343-4.265,3.806-4.265
			c2.701,0,3.554,1.975,3.554,3.396c0,1.753-1.2,2.843-2.464,3.728c-1.279,0.884-2.621,1.563-2.938,2.542h5.386V196.826z"/>
	</g>
</g>
</svg>
