<?xml version="1.0" encoding="utf-8"?>
<!-- Generator: Adobe Illustrator 16.0.0, SVG Export Plug-In . SVG Version: 6.00 Build 0)  -->
<!DOCTYPE svg PUBLIC "-//W3C//DTD SVG 1.1//EN" "http://www.w3.org/Graphics/SVG/1.1/DTD/svg11.dtd">
<svg version="1.1" id="Layer_1" xmlns="http://www.w3.org/2000/svg" xmlns:xlink="http://www.w3.org/1999/xlink" x="0px" y="0px"
	 width="768px" height="1024px" viewBox="0 0 768 1024" enable-background="new 0 0 768 1024" xml:space="preserve">
<g>
	<g>
		<path fill="#FFFFFF" d="M476.352,360.927h-6.825c0.014-1.643,0.856-2.885,2.198-3.785c1.3-0.943,2.984-1.728,3.015-3.285
			c0.014-0.714-0.285-1.771-1.687-1.771c-1.285,0-1.67,1.1-1.713,2.5h-1.629c0-2.214,1.215-3.856,3.441-3.856
			c2.442,0,3.215,1.785,3.215,3.07c0,1.585-1.086,2.571-2.229,3.371c-1.155,0.8-2.371,1.414-2.655,2.299h4.868L476.352,360.927
			L476.352,360.927z"/>
		<path fill="#FFFFFF" d="M484.361,355.928c0,2.271-0.586,5.199-3.455,5.199c-2.871,0-3.457-2.928-3.457-5.199
			c0-2.271,0.586-5.198,3.457-5.198C483.775,350.729,484.361,353.657,484.361,355.928z M482.734,355.928
			c0-2.085-0.4-3.842-1.828-3.842c-1.431,0-1.828,1.757-1.828,3.842c0,2.085,0.397,3.842,1.828,3.842
			C482.334,359.77,482.734,358.013,482.734,355.928z"/>
		<path fill="#FFFFFF" d="M485.502,352.586c1.371,0.014,2.67-0.457,2.914-1.657h1.328v9.998h-1.785v-7.056h-2.457V352.586z"/>
		<path fill="#FFFFFF" d="M494.467,350.929h5.17v1.457h-3.955l-0.516,2.542l0.029,0.029c0.442-0.486,1.172-0.757,1.842-0.757
			c1.986,0,3.129,1.428,3.129,3.342c0,1.6-1,3.585-3.457,3.585c-1.928,0-3.428-1.043-3.498-3.042h1.627
			c0.101,1.071,0.785,1.686,1.844,1.686c1.386,0,1.855-0.986,1.855-2.2c0-1.1-0.586-2.085-1.898-2.085
			c-0.686,0-1.356,0.214-1.614,0.914h-1.627L494.467,350.929z"/>
	</g>
	<g>
		<path fill="#FFFFFF" d="M536.887,360.927h-6.828c0.017-1.643,0.857-2.885,2.201-3.785c1.299-0.943,2.984-1.728,3.013-3.285
			c0.016-0.714-0.285-1.771-1.685-1.771c-1.287,0-1.672,1.1-1.715,2.5h-1.629c0-2.214,1.215-3.856,3.442-3.856
			c2.441,0,3.214,1.785,3.214,3.07c0,1.585-1.086,2.571-2.229,3.371c-1.156,0.8-2.371,1.414-2.656,2.299h4.871L536.887,360.927
			L536.887,360.927z"/>
		<path fill="#FFFFFF" d="M544.896,355.928c0,2.271-0.587,5.199-3.457,5.199c-2.871,0-3.457-2.928-3.457-5.199
			c0-2.271,0.586-5.198,3.457-5.198C544.31,350.73,544.896,353.657,544.896,355.928z M543.268,355.928
			c0-2.085-0.399-3.842-1.827-3.842c-1.429,0-1.828,1.757-1.828,3.842c0,2.085,0.399,3.842,1.828,3.842
			C542.868,359.77,543.268,358.013,543.268,355.928z"/>
		<path fill="#FFFFFF" d="M546.035,352.586c1.371,0.014,2.672-0.457,2.914-1.657h1.328v9.998h-1.785v-7.056h-2.457V352.586
			L546.035,352.586z"/>
		<path fill="#FFFFFF" d="M558.887,353.457c-0.071-0.814-0.614-1.371-1.457-1.371c-1.771,0-1.971,2.114-2.071,3.428l0.028,0.029
			c0.443-0.786,1.271-1.186,2.156-1.186c1.986,0,3.156,1.442,3.156,3.356c0,1.942-1.328,3.414-3.326,3.414
			c-2.943,0-3.643-2.314-3.643-5.228c0-2.385,0.94-5.17,3.77-5.17c1.586,0,2.928,1.1,3.014,2.728H558.887L558.887,353.457z
			 M559.072,357.685c0-1.071-0.586-2.042-1.758-2.042c-1.187,0-1.8,0.942-1.8,2.042c0,1.085,0.613,2.085,1.8,2.085
			C558.486,359.77,559.072,358.756,559.072,357.685z"/>
	</g>
	<g>
		<path fill="#FFFFFF" d="M471.91,223.014h7.563v1.5c-2.305,2.606-3.836,5.559-4.12,9.555h-1.976c0.238-3.49,1.99-6.886,4.264-9.444
			h-5.731V223.014z"/>
		<path fill="#FFFFFF" d="M480.615,230.816c0-1.39,0.791-2.385,2.021-2.701v-0.031c-0.994-0.379-1.563-1.2-1.563-2.274
			c0-1.879,1.248-3.016,3.442-3.016c2.195,0,3.441,1.137,3.441,3.016c0,1.074-0.568,1.895-1.563,2.274v0.031
			c1.231,0.316,2.021,1.311,2.021,2.701c0,2.164-1.658,3.475-3.9,3.475C482.273,234.291,480.615,232.979,480.615,230.816z
			 M486.617,230.816c0-1.216-0.9-1.942-2.101-1.942s-2.102,0.727-2.102,1.942c0,1.295,0.9,2.053,2.102,2.053
			C485.717,232.869,486.617,232.111,486.617,230.816z M482.779,225.904c0,1.042,0.742,1.627,1.737,1.627
			c0.994,0,1.736-0.584,1.736-1.627c0-1.089-0.772-1.689-1.736-1.689S482.779,224.815,482.779,225.904z"/>
		<path fill="#FFFFFF" d="M489.732,224.846c1.518,0.016,2.952-0.505,3.223-1.832h1.469v11.055h-1.975v-7.802h-2.717V224.846
			L489.732,224.846z"/>
	</g>
	<line fill="none" stroke="#F2F2F2" stroke-miterlimit="10" x1="438.012" y1="371.333" x2="599.896" y2="371.333"/>
	<g>
		<path fill="#F2F2F2" d="M449.869,389.735v1.147h-2.408v4.531c0.727-0.134,1.797-0.479,2.58-0.669v1.146L444,397.556
			c-0.248-0.421-0.516-0.804-0.783-1.224c1.012-0.134,2.064-0.345,3.078-0.593v-4.876h-2.371v-1.108h2.353v-3.537h-2.582v-1.109
			h6.366v1.09h-2.6v3.537L449.869,389.735L449.869,389.735z M455.662,386.849c0.096,3.46-0.344,6.768-1.912,9.578
			c-0.496,0.88-1.223,1.721-2.064,2.447c-0.897,0.746-1.854,1.358-2.866,1.874l-0.938-0.994c1.682-0.765,3.557-1.816,4.588-3.556
			c0.822-1.377,1.396-2.868,1.685-4.438c0.305-1.644,0.344-3.229,0.323-5.028L455.662,386.849z M459.047,384.382v10.458
			c-0.363,0.02-0.783,0.02-1.166,0v-9.311h-5.584v9.272h-1.166v-10.42L459.047,384.382L459.047,384.382z M456.293,400.079
			c-0.764-0.153-1.109-0.765-1.203-1.243v-5.124h1.185v4.876c0.038,0.172,0.19,0.286,0.325,0.382h2.121
			c0.556-0.096,0.422-0.669,0.556-1.032l0.075-0.803c0.402,0.134,0.767,0.401,1.129,0.593c-0.211,0.898-0.323,2.084-1.396,2.352
			L456.293,400.079L456.293,400.079z"/>
		<path fill="#F2F2F2" d="M478.76,400.079h-15.313v-1.128h7.055v-5.048l-5.43,0.02l-0.019-1.147l5.467,0.02v-2.581h-3.594v-0.956
			c-1.205,0.783-2.428,1.472-3.688,2.064l-0.822-1.014c2.562-1.224,5.123-2.733,7.092-4.989c0.595-0.688,1.109-1.396,1.568-2.123
			l0.975,0.631l-0.229,0.497c2.084,2.601,4.76,4.914,7.934,5.832l-0.955,0.975c-1.262-0.42-2.446-1.09-3.537-1.835v0.918h-3.575
			l0.02,2.562h5.334l0.02,1.147h-5.372l0.02,5.028l7.055-0.02v1.147H478.76z M467.9,398.301c-0.479-1.166-1.091-2.275-2.104-3.192
			l1.072-0.497c0.744,0.573,1.873,2.313,2.178,3.174L467.9,398.301z M468.703,387.843c-0.496,0.439-1.051,0.86-1.49,1.242h7.781
			c-1.416-1.013-2.812-2.466-3.881-3.747C470.348,386.236,469.545,387.097,468.703,387.843z M472.775,397.766
			c1.166-0.803,2.084-2.065,2.657-3.289l0.955,0.688c-0.571,1.243-1.395,2.485-2.541,3.365L472.775,397.766z"/>
		<path fill="#F2F2F2" d="M484.574,386.236c-0.517,0.708-1.224,1.453-1.969,1.988c-0.384-0.286-0.707-0.516-0.994-0.821
			c1.473-0.938,2.446-2.486,3.135-3.939c0.326,0.153,0.67,0.325,1.014,0.479c-0.172,0.382-0.362,0.803-0.555,1.166h5.201v1.109
			l-3.174,0.019c0.323,0.325,0.571,0.898,0.821,1.262l-1.069,0.574c-0.269-0.65-0.613-1.262-1.129-1.836L484.574,386.236
			L484.574,386.236z M482.434,388.55h7.322c-0.268-0.497-0.67-0.994-1.09-1.415l1.09-0.344c0.555,0.535,0.994,1.339,1.301,1.759
			h6.959v3.403l-1.186-0.019v-2.275h-13.211l-0.021,2.37h-1.166L482.434,388.55L482.434,388.55z M486.258,400.997h-1.264
			l0.02-10.038h10.308v3.729l-9.103,0.019v1.281h9.98v4.952h-1.226v-1.166h-8.735L486.258,400.997z M486.219,393.578h7.916
			l-0.02-1.51h-7.896V393.578z M486.238,397.115l0.02,1.605l8.736-0.02v-1.605L486.238,397.115z M495.225,386.141
			c0.382,0.383,0.804,0.822,1.052,1.281c-0.308,0.211-0.688,0.401-1.052,0.555c-0.325-0.65-0.727-1.281-1.301-1.836h-1.434
			c-0.308,0.517-0.67,1.109-1.109,1.473c-0.324-0.229-0.631-0.421-0.955-0.669c0.994-1.033,1.549-2.218,1.873-3.537l1.051,0.401
			c-0.096,0.421-0.209,0.822-0.344,1.224h5.449l-0.02,1.108H495.225z"/>
		<path fill="#F2F2F2" d="M506.602,385.242v1.109h-2.18v4.168h1.912v1.108h-1.949l0.019,4.341c0.746-0.287,1.606-0.688,2.371-0.976
			v1.224c-0.804,0.306-1.646,0.65-2.447,0.976l-2.943,1.185c-0.346-0.306-0.709-0.611-1.033-0.937
			c0.957-0.287,1.873-0.669,2.83-0.994v-4.818h-2.008v-1.108l1.988-0.02v-4.148h-2.371v-1.109L506.602,385.242L506.602,385.242z
			 M516.639,384.707v8.298l-4.033-0.02v2.199h3.882v1.108h-3.92v2.563h5.258v1.108h-11.644v-1.108h5.162l0.021-2.563h-3.939v-1.108
			h3.92l-0.02-2.199h-4.035v-8.278H516.639z M511.344,388.225v-2.428l-2.85,0.02v2.408H511.344z M508.494,389.314v2.563h2.85v-2.543
			L508.494,389.314z M512.586,389.334v2.543h2.85l0.019-2.543H512.586z M512.625,388.244h2.828v-2.447l-2.848,0.02L512.625,388.244z
			"/>
		<path fill="#F2F2F2" d="M522.74,392.24c-0.746-1.187-1.912-2.084-3.135-2.601l0.897-0.803c1.187,0.593,2.353,1.377,3.096,2.562
			L522.74,392.24z M519.986,399.734c1.721-1.854,2.83-3.957,3.461-6.271l0.975,0.459c-0.647,2.37-1.701,4.627-3.44,6.5
			L519.986,399.734z M521.803,384.478c1.416,0.517,2.431,1.339,3.289,2.39l-0.842,0.804c-0.879-1.071-1.988-1.894-3.211-2.409
			L521.803,384.478z M533.982,399.716h-6.56v1.319H526.2v-7.094h3.899v-3.594h-5.545V389.2h5.545v-2.887
			c-1.356,0.19-2.811,0.21-4.227,0.268l-0.631-1.167c3.44-0.019,6.883-0.306,9.809-1.682l0.822,0.879
			c-1.396,0.65-3.002,1.3-4.551,1.549v3.04h5.563v1.147h-5.563v3.594h3.881v7.094h-1.223v-1.319H533.982z M527.424,395.069v3.519
			h6.56v-3.519H527.424z"/>
		<path fill="#F2F2F2" d="M539.625,399.754l-0.689-1.186l0.938-0.152v-6.96h1.146v6.635c0.556-0.038,1.091-0.268,1.625-0.401v-7.323
			h1.148v2.601h1.912v1.146h-1.912v3.155c0.668-0.172,1.549-0.421,2.102-0.593v1.147
			C544.365,398.339,541.861,399.047,539.625,399.754z M540.064,389.984v-5.564h5.602v5.564H540.064z M544.52,385.567h-3.327v3.289
			h3.327V385.567z M555.779,400.806c-0.916-0.65-1.605-1.683-2.197-2.619c-1.262-2.008-1.951-4.283-2.295-6.673
			c-0.039-0.02-0.096,0-0.135,0c-0.478,3.651-2.218,7.132-5.506,9.311l-0.859-0.975c2.063-1.396,4.033-3.461,4.588-5.774
			c0.211-0.841,0.439-1.701,0.594-2.562h-4.303v-1.147h4.396c0.059-1.396,0.02-2.811,0.038-4.206
			c-1.127,0.172-2.274,0.421-3.479,0.439l-0.535-1.262c2.906,0.076,5.584-0.497,7.973-1.759l0.498,0.937
			c-1.014,0.574-2.104,1.014-3.25,1.319c-0.02,1.377,0,2.792-0.059,4.531h4.514v1.147h-3.385c0.516,2.619,1.414,5.659,4.32,8.45
			C556.393,400.193,556.086,400.538,555.779,400.806z"/>
		<path fill="#F2F2F2" d="M573.754,399.123c0,0.784-0.574,1.415-1.301,1.415h-1.894l-0.381-1.243
			c0.804,0.076,1.279,0.115,1.873,0.096c0.269,0,0.517-0.134,0.517-0.517v-4.492h-4.685v4.684h-1.166v-4.684h-4.627
			c-0.19,1.911-0.268,3.078-1.434,4.855c-0.384,0.574-0.746,1.129-1.341,1.816l-1.012-0.783c0.726-0.86,1.318-1.625,1.777-2.601
			c0.555-1.166,0.67-2.084,0.803-3.595c0.057-0.573,0.039-1.3,0.039-1.988v-7.647h12.828v14.684H573.754z M562.111,385.549v3.25
			h4.606v-3.25H562.111z M562.111,393.292h4.606v-3.403h-4.606V393.292z M567.885,388.799h4.685v-3.25h-4.685V388.799z
			 M567.885,389.889v3.403h4.685v-3.403H567.885z"/>
		<path fill="#F2F2F2" d="M591.498,392.565v-0.784h-10.305c0.057,4.531-0.498,6.845-2.658,9.082l-1.09-0.86
			c1.932-1.664,2.522-3.92,2.522-6.405v-7.055h6.271c-0.345-0.822-1.357-1.702-2.371-2.391l1.09-0.611
			c1.072,0.631,1.988,1.549,2.621,2.581l-0.767,0.382v0.039h5.945v6.022H591.498L591.498,392.565z M591.537,387.689h-10.344v2.944
			h10.344V387.689z"/>
		<path fill="#F2F2F2" d="M465.988,423.942l0.02-9.254c-0.707,0.994-1.74,2.122-2.639,2.963l-1.09-0.783
			c2.063-1.798,3.672-4.149,4.838-6.597H463.6v-1.166l4.033,0.02c0.363-0.842,0.611-1.798,0.803-2.716l1.13,0.402
			c-0.115,0.803-0.423,1.548-0.632,2.313l10.037-0.02v1.166h-10.496c-0.383,0.86-0.842,1.645-1.262,2.485l0.021,11.204
			L465.988,423.942z M472.336,422.508c0.23-0.038,0.498-0.076,0.65-0.268c0.172-0.229,0.135-0.593,0.135-0.841v-3.327h-4.914v-1.147
			h4.855v-1.548c1.069-0.479,1.987-1.186,2.887-2.065h-6.404v-1.166l8.107,0.019v1.147c-0.918,0.938-2.199,2.084-3.31,2.734v0.822
			h5.183v1.146h-5.183l0.021,4.321c-0.06,0.479-0.344,0.938-0.785,1.187c-0.764,0.344-1.605,0.134-2.484,0.21l-0.822-1.204
			L472.336,422.508z"/>
		<path fill="#F2F2F2" d="M481.459,421.629c1.166-0.994,2.197-2.123,2.791-3.441l0.879,0.593c-0.592,1.414-1.586,2.581-2.771,3.575
			L481.459,421.629z M481.898,409.354l0.018-1.129h3.863v-1.701h1.205l-0.021,1.701l3.978-0.019v1.147h-3.978l0.021,1.644h3.19
			l0.021,1.109l-7.515,0.019v-1.128l3.078-0.019l0.021-1.625L481.898,409.354L481.898,409.354z M483.752,422.814h1.664
			c0.459-0.097,0.479-0.536,0.479-0.805v-4.855h-3.805v-1.128h8.66v1.128h-3.652v5.201c-0.096,0.993-0.344,1.318-1.014,1.51h-1.49
			L483.752,422.814z M483.025,414.593l0.02-1.128h6.73v1.128H483.025z M489.947,421.228c-0.535-0.917-1.281-1.894-2.181-2.542
			l0.88-0.631c0.362,0.19,0.67,0.516,0.975,0.821c0.518,0.517,0.938,1.109,1.301,1.702L489.947,421.228z M489.871,423.082
			c1.127-0.956,2.217-2.218,2.828-3.576c0.899-2.026,0.918-4.436,1.033-6.634l1.166,0.172l-0.097,2.352
			c0.422,2.868,1.568,5.774,4.017,7.533l-0.822,0.898c-0.42-0.191-0.707-0.573-1.09-0.879c-1.205-1.264-2.027-2.83-2.563-4.475
			c-0.592,2.122-1.873,3.958-3.518,5.449L489.871,423.082z M496.027,413.694c0.305-0.822,0.555-1.645,0.746-2.524l-3.576,0.02
			c-0.363,1.357-0.879,2.619-1.664,3.805l-1.166-0.497c1.684-2.218,2.18-5.104,2.219-7.992l1.109,0.307
			c-0.021,1.09-0.078,2.18-0.271,3.23h4.59c-0.096,1.339-0.497,2.601-0.918,3.844L496.027,413.694z"/>
		<path fill="#F2F2F2" d="M510.369,406.678c-0.135,0.152-0.211,0.286-0.363,0.42c2.084,2.524,4.988,4.034,7.838,5.201
			c-0.248,0.324-0.516,0.688-0.766,1.013c-2.904-1.09-5.715-2.657-7.799-5.315c-2.258,2.447-5.029,4.226-7.859,5.393
			c-0.229-0.345-0.477-0.688-0.668-1.052c3.25-1.357,6.27-3.403,8.604-6.29c0.019-0.058,0.076-0.096,0.134-0.058L510.369,406.678z
			 M506.813,418.589c-1.452,1.663-3.174,3.097-5.086,3.9l-0.688-0.977c1.815-0.86,3.44-2.084,4.877-3.688L506.813,418.589z
			 M502.51,416.772v-1.166l6.195-0.02v-2.485h-3.729l0.021-1.147h8.641v1.166h-3.649v2.486l6.021-0.02v1.186l-6.021-0.02v5.583
			c0,0.612-0.326,1.07-0.843,1.377c-0.745,0.269-1.663,0.134-2.504,0.172c-0.153-0.421-0.268-0.842-0.422-1.262
			c0.67,0,1.396,0.114,2.084,0c0.535-0.211,0.363-0.86,0.422-1.319v-4.531H502.51L502.51,416.772z M512.605,417.862
			c1.815,0.86,3.594,2.064,4.989,3.767l-0.821,0.783c-1.492-1.682-3.365-2.925-5.222-3.785c0.269-0.325,0.519-0.535,0.822-0.842
			L512.605,417.862z"/>
		<path fill="#F2F2F2" d="M527.137,412.757c-0.42,0.67-1.146,1.587-1.721,2.18c0.861,0.401,1.703,0.956,2.447,1.625l-0.688,0.822
			c-1.014-0.745-1.721-1.09-2.619-1.644c-0.842,0.803-1.893,1.414-2.754,1.893l5.412,0.038v4.455H522.7v1.186h-1.127v-5.507
			c-0.287,0.096-0.689,0.287-1.07,0.459l-0.746-0.918c1.318-0.478,2.484-1.262,3.652-2.046c-0.519-0.248-1.109-0.363-1.685-0.497
			l0.556-0.86c0.707,0.115,1.396,0.325,2.084,0.555c0.459-0.439,1.166-1.243,1.453-1.759h-3.289
			c-0.593,0.688-1.339,1.415-2.313,2.103l-0.785-0.86c1.437-1.051,2.869-2.6,3.691-3.957c0.324,0.152,0.611,0.382,0.897,0.573
			c-0.172,0.383-0.479,0.784-0.706,1.109h3.821v1.05H527.137z M523.754,408.78c-0.268-0.497-0.842-1.147-1.434-1.797
			c0.209-0.153,0.496-0.383,0.783-0.535c0.745,0.478,1.338,1.204,1.721,1.988c-0.152,0.076-0.287,0.229-0.42,0.268l3.498,0.038
			v2.601h-1.129v-1.53h-5.181v1.549h-1.166v-2.581L523.754,408.78L523.754,408.78z M522.721,418.761v2.275h3.347v-2.275H522.721z
			 M532.797,412.433c0,1.262,0.039,2.37-0.039,3.308c-0.172,2.16-0.305,4.378-2.006,5.927c-1.053,0.956-2.143,1.529-3.346,2.026
			h-0.078l-0.898-0.956c1.972-0.517,4.131-1.835,4.724-3.977c0.534-1.988,0.516-4.188,0.516-6.348L532.797,412.433z
			 M534.633,419.563v-7.857h-4.838v8.183h-1.109v-9.272H531c0.4-0.65,0.688-1.357,0.859-2.104h-3.978v-1.128h8.623v1.128h-3.422
			c-0.172,0.669-0.631,1.453-0.898,2.084h3.558v8.967L534.633,419.563L534.633,419.563z M536.238,423.234
			c-1.109-1.376-2.523-2.181-3.978-2.867l0.707-0.804c1.396,0.612,2.963,1.587,4.053,2.83L536.238,423.234z"/>
		<path fill="#F2F2F2" d="M542.855,418.244c0.555-0.229,1.204-0.42,1.776-0.611l0.021,1.186c-1.646,0.593-3.271,1.166-4.933,1.777
			l-0.821-1.09c0.918-0.21,1.834-0.497,2.733-0.803v-5.659h-2.219v-1.108h2.219v-4.856h1.203v4.856h1.492v1.108h-1.492
			L542.855,418.244z M544.805,415.052v-6.118h3.041c-0.459-0.708-1.242-1.377-1.873-1.932l1.187-0.458
			c0.819,0.688,1.471,1.548,2.006,2.37l1.895,0.02c0.82-0.765,1.375-1.721,1.759-2.696c0.383,0.153,0.746,0.401,1.108,0.631
			c-0.383,0.727-0.821,1.415-1.434,2.046h2.981v6.138L544.805,415.052L544.805,415.052z M547.139,423.942h-1.225v-7.591h8.451v7.571
			l-1.166-0.02l0.02-1.108h-6.1L547.139,423.942z M549.566,410.042h-3.558v3.9h3.537L549.566,410.042z M548.896,413.006
			c-0.345,0.172-0.688,0.363-1.052,0.497c-0.229-0.937-0.86-1.701-1.434-2.485c0.287-0.153,0.592-0.306,0.918-0.439
			C548.057,411.285,548.477,412.164,548.896,413.006z M547.119,417.441v1.511l6.08-0.02l0.02-1.472L547.119,417.441z
			 M547.119,420.042v1.644h6.1l-0.02-1.644H547.119z M554.289,413.904v-3.9l-3.594,0.02v3.881h3.594V413.904z M552.166,413.561
			c-0.324-0.172-0.668-0.345-0.994-0.517c0.23-0.287,0.459-0.631,0.689-0.898c0.305-0.593,0.631-1.166,0.858-1.759
			c0.345,0.114,0.65,0.269,0.957,0.439C553.295,411.782,552.855,412.7,552.166,413.561z"/>
		<path fill="#F2F2F2" d="M567.119,415.511c-0.037,1.739-0.152,2.982-0.42,4.646l-0.115,0.727c-0.152,0.994-0.344,1.836-1.49,2.199
			c-0.805,0.268-1.645-0.058-2.43-0.173l-0.477-0.114c-0.076-0.459-0.211-0.88-0.269-1.339c0.783,0.229,1.529,0.517,2.389,0.574
			c0.308-0.038,0.535-0.229,0.707-0.518c0.574-1.604,0.728-3.46,0.806-5.258l0.172-4.436h-2.697c-0.113,2.409-0.4,4.723-1.012,7.017
			c-0.402,1.491-1.263,2.83-2.238,4.072c-0.324,0.345-0.572,0.766-0.955,1.09l-1.014-0.803c1.129-1.225,2.199-2.485,2.771-4.016
			c0.402-1.033,0.613-2.18,0.785-3.308c0.191-1.357,0.324-2.696,0.4-4.054l-3.211,0.02l-0.021-1.147h3.23
			c0.114-1.204,0.153-2.944,0.19-4.148l1.281,0.095c-0.021,1.453-0.133,2.734-0.152,4.034l3.861,0.02L567.119,415.511z
			 M574.557,409.488v13.594h-1.241v-1.473h-3.404v1.511h-1.242v-13.613L574.557,409.488z M573.295,410.635h-3.385v9.827h3.385
			V410.635z"/>
	</g>
	<rect x="523.779" y="208.781" opacity="0.698" fill="#328EC0" enable-background="new    " width="42.873" height="130.523"/>
	<rect x="463.344" y="242.935" opacity="0.698" fill="#797979" enable-background="new    " width="42.795" height="96.369"/>
	<g>
		<path fill="#FFFFFF" d="M527.822,189.772c1.516,0.016,2.953-0.506,3.221-1.832h1.469v11.055h-1.973v-7.802h-2.717V189.772z"/>
		<path fill="#FFFFFF" d="M543.965,193.467c0,2.511-0.646,5.748-3.82,5.748c-3.176,0-3.821-3.237-3.821-5.748
			c0-2.511,0.646-5.749,3.821-5.749C543.318,187.718,543.965,190.957,543.965,193.467z M542.166,193.467
			c0-2.306-0.443-4.248-2.021-4.248c-1.579,0-2.021,1.942-2.021,4.248c0,2.306,0.441,4.248,2.021,4.248
			C541.723,197.715,542.166,195.773,542.166,193.467z"/>
		<path fill="#FFFFFF" d="M545.076,187.94h7.563v1.5c-2.307,2.605-3.838,5.56-4.123,9.555h-1.973c0.236-3.49,1.99-6.886,4.264-9.444
			h-5.731V187.94z"/>
		<path fill="#FFFFFF" d="M554.129,189.772c1.516,0.016,2.953-0.506,3.221-1.832h1.47v11.055h-1.974v-7.802h-2.717V189.772z"/>
	</g>
</g>
</svg>
