<?xml version="1.0" encoding="utf-8"?>
<!-- Generator: Adobe Illustrator 16.0.0, SVG Export Plug-In . SVG Version: 6.00 Build 0)  -->
<!DOCTYPE svg PUBLIC "-//W3C//DTD SVG 1.1//EN" "http://www.w3.org/Graphics/SVG/1.1/DTD/svg11.dtd">
<svg version="1.1" id="Layer_1" xmlns="http://www.w3.org/2000/svg" xmlns:xlink="http://www.w3.org/1999/xlink" x="0px" y="0px"
	 width="768px" height="1024px" viewBox="0 0 768 1024" enable-background="new 0 0 768 1024" xml:space="preserve">
<g>
	<g>
		<path fill="#FFFFFF" d="M206.441,628.393h-6.827c0.015-1.643,0.857-2.885,2.2-3.783c1.299-0.942,2.984-1.729,3.014-3.285
			c0.014-0.714-0.286-1.771-1.686-1.771c-1.285,0-1.671,1.101-1.714,2.499H199.8c0-2.214,1.214-3.855,3.441-3.855
			c2.442,0,3.214,1.785,3.214,3.069c0,1.586-1.086,2.571-2.229,3.371c-1.156,0.801-2.37,1.414-2.656,2.299h4.87L206.441,628.393
			L206.441,628.393z"/>
		<path fill="#FFFFFF" d="M214.451,623.395c0,2.271-0.586,5.199-3.456,5.199c-2.871,0-3.456-2.929-3.456-5.199
			s0.585-5.198,3.456-5.198C213.865,618.195,214.451,621.123,214.451,623.395z M212.823,623.395c0-2.086-0.4-3.842-1.828-3.842
			c-1.429,0-1.828,1.756-1.828,3.842s0.399,3.843,1.828,3.843C212.422,627.236,212.823,625.479,212.823,623.395z"/>
		<path fill="#FFFFFF" d="M215.59,620.053c1.371,0.015,2.671-0.457,2.914-1.656h1.328v9.996h-1.785v-7.055h-2.457V620.053z"/>
		<path fill="#FFFFFF" d="M224.556,618.396h5.17v1.455h-3.956l-0.515,2.543l0.029,0.029c0.442-0.486,1.171-0.758,1.842-0.758
			c1.985,0,3.128,1.428,3.128,3.342c0,1.601-0.999,3.586-3.456,3.586c-1.928,0-3.428-1.043-3.499-3.043h1.628
			c0.1,1.071,0.785,1.687,1.843,1.687c1.385,0,1.856-0.986,1.856-2.199c0-1.101-0.586-2.086-1.899-2.086
			c-0.686,0-1.356,0.215-1.614,0.914h-1.628L224.556,618.396z"/>
	</g>
	<g>
		<path fill="#FFFFFF" d="M266.975,628.393h-6.827c0.015-1.643,0.857-2.885,2.2-3.783c1.3-0.942,2.984-1.729,3.013-3.285
			c0.015-0.714-0.285-1.771-1.685-1.771c-1.286,0-1.671,1.101-1.714,2.499h-1.629c0-2.214,1.215-3.855,3.442-3.855
			c2.442,0,3.214,1.785,3.214,3.069c0,1.586-1.086,2.571-2.229,3.371c-1.156,0.801-2.371,1.414-2.656,2.299h4.87L266.975,628.393
			L266.975,628.393z"/>
		<path fill="#FFFFFF" d="M274.985,623.395c0,2.271-0.586,5.199-3.456,5.199c-2.871,0-3.457-2.929-3.457-5.199
			s0.586-5.198,3.457-5.198C274.399,618.195,274.985,621.123,274.985,623.395z M273.357,623.395c0-2.086-0.4-3.842-1.828-3.842
			c-1.429,0-1.828,1.756-1.828,3.842s0.399,3.843,1.828,3.843C272.957,627.236,273.357,625.479,273.357,623.395z"/>
		<path fill="#FFFFFF" d="M276.125,620.053c1.371,0.015,2.671-0.457,2.914-1.656h1.328v9.996h-1.785v-7.055h-2.457V620.053z"/>
		<path fill="#FFFFFF" d="M288.975,620.924c-0.071-0.813-0.614-1.371-1.457-1.371c-1.771,0-1.971,2.113-2.071,3.429l0.029,0.027
			c0.442-0.786,1.271-1.186,2.156-1.186c1.985,0,3.156,1.441,3.156,3.355c0,1.942-1.328,3.414-3.327,3.414
			c-2.942,0-3.643-2.313-3.643-5.229c0-2.385,0.942-5.17,3.771-5.17c1.586,0,2.928,1.1,3.014,2.729L288.975,620.924L288.975,620.924
			z M289.161,625.15c0-1.07-0.586-2.041-1.757-2.041c-1.186,0-1.8,0.94-1.8,2.041c0,1.086,0.614,2.086,1.8,2.086
			C288.575,627.236,289.161,626.223,289.161,625.15z"/>
	</g>
	<g>
		<path fill="#FFFFFF" d="M206.826,508.26c1.517,0.017,2.953-0.505,3.222-1.832h1.469v11.056h-1.974v-7.802h-2.717V508.26z"/>
		<path fill="#FFFFFF" d="M215.594,508.26c1.517,0.017,2.953-0.505,3.222-1.832h1.469v11.056h-1.974v-7.802h-2.717V508.26z"/>
	</g>
	<line fill="none" stroke="#F2F2F2" stroke-miterlimit="10" x1="168.1" y1="638.799" x2="329.985" y2="638.799"/>
	<g>
		<path fill="#F2F2F2" d="M176.593,661.887c-0.765,0.248-1.645,0.572-2.409,0.783c-0.248-0.344-0.516-0.688-0.745-1.033
			c1.07-0.248,2.103-0.535,3.097-0.897l0.02-4.685l-2.563-0.02v-1.109l2.543-0.018v-3.652h1.243v3.652l2.236,0.018v1.129
			l-2.256-0.02l-0.019,4.303l2.218-0.727v1.127c-0.708,0.326-1.491,0.459-2.199,0.785l-0.019,5.733
			c-0.058,0.422-0.421,0.746-0.765,0.957c-0.746,0.269-1.664,0.152-2.486,0.152c-0.134-0.363-0.268-0.765-0.382-1.146
			c0.631,0.076,1.338,0.076,2.008,0.037c0.229-0.076,0.458-0.268,0.458-0.535L176.593,661.887z M188.581,659.172
			c-0.152,2.16-1.224,3.957-2.771,5.486c1.434,1.317,3.116,2.123,4.951,2.6c-0.229,0.441-0.497,0.767-0.727,1.148
			c-1.835-0.594-3.575-1.646-5.085-2.906c-1.626,1.299-3.385,2.199-5.239,2.811c-0.286-0.325-0.573-0.688-0.841-1.053
			c1.854-0.592,3.671-1.375,5.162-2.676c-1.109-1.281-1.874-2.715-2.429-4.264h-0.994v-1.146H188.581z M188.199,657.871
			c-1.166-0.211-1.453-0.957-1.453-1.701v-2.965l-3.996-0.019c-0.058,1.242-0.038,2.562-0.631,3.556
			c-0.421,0.881-1.3,1.645-2.122,2.162l-0.976-0.9c0.956-0.457,1.97-1.223,2.218-2.293c0.287-0.689,0.269-1.529,0.269-2.256v-1.396
			h6.424v4.148c0.058,0.25,0.114,0.594,0.649,0.594l1.894-0.02v1.09H188.199L188.199,657.871z M182.865,660.299
			c0.286,0.707,0.593,1.396,0.994,2.047c0.306,0.517,0.631,1.031,1.108,1.414c1.032-1.033,1.721-1.932,2.199-3.461H182.865z"/>
		<path fill="#F2F2F2" d="M195.714,660.643c-0.573,0.535-1.74,1.302-2.256,1.664c-0.363-0.344-0.765-0.61-1.032-0.938
			c2.352-1.338,4.34-3.555,5.889-5.754l0.975,0.649c-0.478,0.859-1.587,2.181-2.371,3.097v8.985h-1.204L195.714,660.643
			L195.714,660.643z M198.41,651.563c-1.242,1.894-2.791,3.861-4.703,5.22c-0.096,0.039-0.057-0.097-0.134-0.115l-0.86-0.746
			c1.932-1.338,3.537-3.115,4.78-5.065L198.41,651.563z M199.749,658.254v-1.166l9.847,0.019v1.147h-3.519v8.449
			c-0.096,0.613-0.325,1.014-0.783,1.301c-0.345,0.211-0.784,0.23-1.205,0.23h-2.064c-0.115-0.402-0.287-0.785-0.383-1.205
			c0.842,0.076,1.721,0.076,2.581,0.057c0.249-0.057,0.517-0.191,0.574-0.611v-8.221H199.749L199.749,658.254z M208.39,653.492
			h-8.183v-1.166h8.183V653.492z"/>
		<path fill="#F2F2F2" d="M212.121,667.316v-1.148h5.755v-14.529h1.242v14.549h2.582v-14.53h1.185v14.53h5.717v1.13L212.121,667.316
			L212.121,667.316z M215.218,663.799c-0.058-2.697-0.899-5.086-1.932-7.381c0.287-0.191,0.65-0.324,0.994-0.459
			c0.938,2.064,1.854,4.799,2.122,7.322L215.218,663.799z M224.586,664.008l-0.937-0.572c1.223-1.512,2.294-3.633,2.466-7.399
			c0.363,0.096,0.688,0.287,1.052,0.401C226.88,659.994,225.81,662.135,224.586,664.008z"/>
		<path fill="#F2F2F2" d="M247.626,660.91c-2.733-0.592-5.392-1.357-7.781-2.771c-2.313,1.529-5.755,2.523-8.68,2.982l-0.497-1.127
			c2.198-0.363,4.302-0.881,6.309-1.664c0.574-0.23,1.186-0.574,1.778-0.898c-1.032-0.785-2.142-1.721-2.925-2.791
			c-0.976,1.146-2.218,2.197-3.575,2.732l-0.899-1.09c2.447-0.592,4.245-3.06,5.239-5.181c0.344,0.152,0.669,0.382,1.013,0.593
			c-0.152,0.344-0.344,0.688-0.516,1.032h7.476l0.019,1.127c-1.128,1.378-2.294,2.563-3.689,3.576
			c0.459,0.324,1.07,0.535,1.625,0.804c1.874,0.706,3.843,1.241,5.869,1.625L247.626,660.91z M244.472,667.125
			c-0.172,0.555-0.669,1.031-1.204,1.186c-0.822,0.229-1.683-0.02-2.486-0.135l-0.306-1.377c0.784,0.23,1.587,0.537,2.467,0.402
			c0.535-0.344,0.573-0.976,0.669-1.529c0.191-1.07,0.401-2.447,0.439-3.229h-4.531c-0.325,1.776-1.605,3.346-3.192,4.377
			c-1.167,0.766-3.251,1.396-4.436,1.604c-0.229-0.4-0.479-0.783-0.65-1.184c2.332-0.363,4.685-0.978,6.232-2.984
			c0.421-0.553,0.67-1.184,0.822-1.834h-5.678v-1.129h5.889c0.095-0.631,0.019-1.338,0.038-2.045l1.186,0.172
			c-0.02,0.592,0.019,1.299-0.039,1.873h5.603C245.256,663.32,245.027,665.309,244.472,667.125z M236.518,653.895
			c1.014,1.205,2.104,2.104,3.289,2.867c1.147-0.746,2.237-1.815,3.231-2.867H236.518z"/>
		<path fill="#F2F2F2" d="M265.964,668.252c-2.888-0.688-3.996-1.625-5.966-3.096c-1.778,1.721-3.957,2.637-6.175,3.059l-0.67-0.975
			c2.409-0.519,4.359-1.32,6.004-2.851c-0.784-0.766-2.218-2.829-2.906-4.282c-1.166,3.44-3.479,5.735-5.889,7.608l-0.803-0.858
			c3.269-2.486,5.296-5.681,6.558-9.886h-4.569v-1.108c0.649-1.435,1.166-2.943,1.721-4.34l0.956,0.516
			c-0.325,1.186-0.918,2.754-1.415,3.824h3.595c0.401-1.568,0.593-3.099,0.783-4.761l1.128,0.324
			c-0.21,1.529-0.401,2.982-0.727,4.455h8.527v1.09h-8.775c-0.229,0.611-0.401,1.242-0.612,1.873h6.788
			c-0.039,0.345,0.096,0.728-0.058,1.054c-0.707,1.547-1.549,3.135-2.753,4.473c1.777,1.473,3.823,2.391,6.061,2.945
			L265.964,668.252z M257.437,659.955c0.555,1.07,1.567,2.771,2.485,3.594c0.994-1.106,1.74-2.274,2.313-3.594H257.437z
			 M262.58,655.117c-0.688-1.127-1.835-2.025-2.925-2.656l0.784-0.746c1.204,0.631,2.294,1.549,3.078,2.639L262.58,655.117z"/>
		<path fill="#F2F2F2" d="M268.815,667.793c1.146-2.006,1.414-3.307,1.683-4.932c0.172-0.957,0.114-2.256,0.114-3.23v-7.553h13.613
			v4.264h-12.409l0.02,4.972c0,0.516-0.076,1.854-0.134,2.198c-0.268,1.797-0.937,3.422-1.816,4.99L268.815,667.793z
			 M283.04,653.225l-11.204-0.02v2.008h11.204V653.225z M284.034,663.855c-0.573,0.764-1.262,1.473-2.065,1.969
			c1.205,0.842,2.581,1.225,4.034,1.434l-0.803,1.129c-2.601-0.42-5.258-1.987-6.405-4.455c-0.19-0.438-0.382-0.897-0.516-1.317
			h-2.429v4.244l3.213-1.13l0.019,1.166l-4.378,1.664l-0.976-0.821c0.44-0.134,1.032-0.496,0.938-1.242v-3.881h-2.199v-1.129
			l3.154-0.021v-2.121h-2.733l-0.02-1.147h2.753v-1.281l1.186-0.019v1.3h3.614l0.019-1.281h1.186v1.281h2.811l-0.02,1.129
			l-2.791,0.02v2.121l3.575,0.021v1.108h-5.697c0.344,0.918,0.879,1.873,1.645,2.58c0.344-0.19,0.631-0.459,0.917-0.744
			c0.383-0.422,0.727-0.821,1.014-1.301L284.034,663.855z M280.42,661.484v-2.142l-3.576-0.02v2.141L280.42,661.484z"/>
		<path fill="#F2F2F2" d="M289.274,659.229c0.708-1.129,1.186-2.866,1.529-4.303h-2.294v-1.106h2.523
			c0.211-0.822,0.307-1.722,0.401-2.603l1.129,0.326c-0.039,0.764-0.229,1.51-0.345,2.275h2.926v1.106h-3.193
			c-0.401,1.568-0.688,2.984-1.472,4.437h1.777V656.8h1.186v2.562h2.046v1.108h-2.046v2.144l2.696-0.728v1.146l-2.696,0.727v4.685
			h-1.186v-4.437l-3.192,0.785l-0.631-0.994c1.376-0.326,2.657-0.594,3.823-0.918v-2.41h-2.982L289.274,659.229L289.274,659.229z
			 M293.729,667.277c2.064-0.688,4.148-1.722,5.602-3.519c-0.938-1.434-1.625-3.021-1.95-4.723l1.109-0.42
			c0.268,1.453,0.841,2.791,1.604,4.033c0.746-1.281,1.319-2.734,1.606-4.226l1.07,0.517c-0.286,1.76-1.032,3.309-1.95,4.817
			c1.318,1.625,2.981,2.715,4.761,3.558l-0.879,1.014c-1.721-0.822-3.365-2.084-4.646-3.576c-1.528,1.682-3.479,2.867-5.506,3.594
			L293.729,667.277z M294.895,658.77c1.357-0.782,2.639-2.18,3.289-3.536l0.938,0.573c-0.593,1.453-1.932,2.828-3.27,3.746
			L294.895,658.77z M295.507,653.551h4.244c-0.497-0.785-1.339-1.492-2.199-1.875l0.938-0.727c0.879,0.383,1.777,1.244,2.352,2.026
			l-0.88,0.535l5.086,0.039v1.127h-9.54L295.507,653.551L295.507,653.551z M304.225,659.457c-0.744-1.375-1.873-2.695-3.287-3.459
			l0.821-0.766c1.186,0.459,2.867,2.37,3.422,3.479L304.225,659.457z"/>
		<path fill="#F2F2F2" d="M308.529,654.965c-0.076-0.096,0.096-0.135,0.038-0.229c0.383,0.076,0.727,0.229,1.09,0.344
			c-0.097,1.777-0.573,3.479-1.473,4.932c-0.345-0.151-0.727-0.287-1.07-0.438c0.573-1.031,1.07-2.142,1.243-3.386L308.529,654.965z
			 M310.135,651.199h1.128v17.283h-1.146L310.135,651.199z M314.054,658.367c-0.362,0.135-0.745,0.268-1.128,0.346
			c-0.229-1.281-0.727-2.506-1.491-3.596c0.363-0.133,0.707-0.269,1.053-0.381C313.347,655.807,313.844,657.029,314.054,658.367z
			 M317.266,654.277l0.021-3.31l1.224-0.02v3.346l3.978-0.018l0.02,5.354h1.567v1.166h-4.416c0.306,1.471,0.917,2.906,1.815,4.129
			c0.86,1.166,2.026,1.933,3.212,2.582c-0.286,0.305-0.534,0.611-0.842,0.937c-0.382-0.113-0.727-0.363-1.069-0.593
			c-2.447-1.625-3.806-4.34-4.38-7.055h-0.285c-0.346,1.662-0.918,3.154-1.874,4.549c-0.804,1.168-2.084,2.181-3.271,2.965
			l-0.937-0.897c1.356-0.881,2.849-2.047,3.633-3.521c0.516-0.955,0.879-2.063,1.146-3.096h-4.033v-1.166h4.302l0.114-1.416
			c0.058-0.897,0.096-1.836,0.075-2.752l-3.402-0.021v-1.166h3.402V654.277z M318.509,655.443c-0.02,1.453-0.058,2.828-0.19,4.188
			h2.926l-0.021-4.168L318.509,655.443z"/>
		<path fill="#F2F2F2" d="M198.716,691.389h-1.186v-5.43l-3.786,1.262l-0.917-0.955c0.631-0.401,0.593-0.688,0.593-1.396v-8.775
			h1.185v9.562l2.926-0.994v-10.459h1.186L198.716,691.389L198.716,691.389z M199.022,690.471c1.759-0.897,3.537-2.121,4.761-3.727
			c-1.07-1.627-1.606-3.537-2.084-5.394c-0.21,0.324-0.344,0.728-0.535,1.07c-0.287,0.519-0.593,1.053-0.956,1.529l-1.032-0.765
			c1.682-2.313,2.313-5.086,2.619-8.012l0.114-1.127l1.205,0.4c-0.021,1.014-0.153,2.143-0.307,3.098h6.387v1.129h-1.74
			c-0.096,2.904-0.803,5.64-2.256,8.01c0.994,1.453,2.715,2.945,4.378,3.613l-0.879,0.918c-1.626-0.727-3.155-2.063-4.245-3.461
			c-1.262,1.529-2.829,2.697-4.474,3.633L199.022,690.471z M202.54,678.676l-0.19,0.744c0.382,2.199,1.013,4.283,2.16,6.176
			c1.147-2.063,1.683-4.53,1.778-6.92H202.54L202.54,678.676z"/>
		<path fill="#F2F2F2" d="M221.279,675.195c-0.076,1.586,0.038,3.174,0.286,4.703c0.077,0.151,0.058,0.383,0.135,0.573
			c0.573,3.154,2.542,5.927,5.104,8.011c0.555,0.438,1.128,0.784,1.701,1.205c-0.229,0.307-0.497,0.631-0.745,0.956
			c-0.02,0.037-0.077,0.076-0.096,0.095c-0.784-0.457-1.549-1.127-2.275-1.738c-2.16-1.875-3.767-4.246-4.569-6.826
			c-0.937,2.353-2.447,4.588-4.512,6.349c-1.071,0.897-2.123,1.567-3.289,2.295c-0.248-0.363-0.535-0.746-0.803-1.109
			c2.677-1.32,5.43-3.785,6.749-6.443c-0.02-0.057,0.114-0.135,0.134-0.229c0.497-0.937,0.86-1.949,1.224-2.943
			c-0.172-1.242-0.325-2.408-0.325-3.709h-3.403v-1.166L221.279,675.195z"/>
		<path fill="#F2F2F2" d="M234.703,685.711c0.554-0.229,1.204-0.42,1.777-0.611l0.02,1.187c-1.645,0.592-3.27,1.166-4.933,1.776
			l-0.822-1.09c0.918-0.211,1.835-0.498,2.734-0.803v-5.66h-2.219v-1.106h2.219v-4.857h1.204v4.857h1.491v1.106h-1.491
			L234.703,685.711z M236.652,682.518V676.4h3.04c-0.458-0.709-1.242-1.377-1.873-1.933l1.186-0.459
			c0.821,0.688,1.472,1.549,2.007,2.371l1.894,0.021c0.821-0.767,1.376-1.722,1.759-2.697c0.382,0.154,0.745,0.402,1.108,0.631
			c-0.382,0.727-0.822,1.416-1.434,2.047h2.982v6.137H236.652z M238.985,691.408h-1.224v-7.59h8.451v7.569l-1.167-0.02l0.02-1.107
			h-6.1L238.985,691.408z M241.413,677.508h-3.556v3.9h3.537L241.413,677.508z M240.744,680.473
			c-0.344,0.172-0.688,0.363-1.052,0.496c-0.229-0.936-0.86-1.701-1.434-2.483c0.287-0.154,0.593-0.308,0.918-0.439
			C239.903,678.752,240.324,679.631,240.744,680.473z M238.965,684.908v1.51l6.08-0.02l0.02-1.472L238.965,684.908z
			 M238.965,687.508v1.646h6.1l-0.02-1.646H238.965z M246.135,681.371v-3.9l-3.594,0.021v3.881L246.135,681.371L246.135,681.371z
			 M244.013,681.027c-0.325-0.172-0.669-0.347-0.994-0.519c0.229-0.287,0.459-0.631,0.688-0.897c0.306-0.593,0.631-1.166,0.86-1.759
			c0.344,0.113,0.65,0.269,0.956,0.439C245.141,679.248,244.702,680.166,244.013,681.027z"/>
		<path fill="#F2F2F2" d="M266.384,691.102c-5.314-2.771-7.227-5.37-8.278-8.659h-2.887l-0.02,7.342
			c1.3-0.517,2.619-1.166,4.054-1.797v1.166c-1.052,0.479-3.385,1.586-4.838,2.313l-0.516-1.012
			c0.076-0.172,0.191-0.172,0.191-0.363v-7.647h-3.958v-1.091h4.895v-7.342l1.166-0.02v5.832c2.563-1.146,5.182-2.734,7.304-4.476
			l0.822,0.881c-2.409,1.777-5.162,3.479-8.145,4.703v0.42h10.382l0.019,1.091h-7.399c1.014,3.497,4.627,6.291,7.916,7.629
			L266.384,691.102z"/>
		<path fill="#F2F2F2" d="M276.023,676.037l0.019,11.088h-1.147v-1.242h-3.326l-0.02,1.262l-1.146-0.02v-11.088H276.023z
			 M271.568,680.262l3.27,0.021l0.019-3.117l-3.288,0.021L271.568,680.262L271.568,680.262z M271.568,681.408v3.346h3.308v-3.346
			H271.568z M279.139,684.984c-0.172,2.198-1.3,4.207-3.04,5.678c-0.249,0.211-0.517,0.459-0.822,0.631
			c-0.325-0.287-0.631-0.611-0.975-0.898c1.242-0.782,2.408-1.893,3.001-3.192c0.077-0.037,0-0.076,0.058-0.133
			c0.688-1.529,0.669-3.154,0.669-4.896v-7.303h7.036l-0.02,14.74c-0.114,0.555-0.783,1.205-1.357,1.301
			c-0.688-0.039-1.28-0.06-2.007-0.039l-0.401-1.205c0.669,0.059,1.414,0.135,2.103,0.039c0.229-0.039,0.401-0.268,0.459-0.459
			v-4.264H279.139z M283.842,676.018h-4.607v3.25h4.607V676.018z M279.235,680.396v3.44l4.627,0.019v-3.459H279.235z"/>
		<path fill="#F2F2F2" d="M298.011,682.326h1.167v6.922h5.965v1.109h-16.806v-1.109h5.965v-6.922h1.166v6.901h2.543V682.326
			L298.011,682.326z M292.046,688.77c-0.421-1.797-1.511-3.346-2.849-4.76c0.248-0.211,0.649-0.362,0.918-0.594h0.076
			c1.319,1.396,2.39,3.002,2.944,4.742L292.046,688.77z M291.664,681.771v-6.863h10.306v6.863H291.664z M300.784,676.018h-7.935
			v1.646h7.954L300.784,676.018z M300.765,680.625v-1.855h-7.916v1.855H300.765z M303.881,683.838
			c-0.612,1.834-1.511,3.519-2.887,4.99c-0.363-0.174-0.708-0.459-1.052-0.65c1.434-1.377,2.313-3.061,2.963-4.817L303.881,683.838z
			"/>
	</g>
	<rect x="253.867" y="477.699" opacity="0.698" fill="#328EC0" enable-background="new    " width="42.873" height="129.07"/>
	<rect x="193.432" y="526.348" opacity="0.698" fill="#797979" enable-background="new    " width="42.794" height="80.422"/>
	<g>
		<path fill="#FFFFFF" d="M266.319,458.689c1.517,0.016,2.953-0.507,3.222-1.832h1.469v11.055h-1.974v-7.802h-2.717V458.689
			L266.319,458.689z"/>
		<path fill="#FFFFFF" d="M280.489,459.652c-0.079-0.9-0.68-1.517-1.611-1.517c-1.958,0-2.179,2.337-2.29,3.79l0.032,0.031
			c0.489-0.868,1.405-1.311,2.385-1.311c2.195,0,3.49,1.595,3.49,3.711c0,2.147-1.469,3.773-3.68,3.773
			c-3.254,0-4.027-2.558-4.027-5.779c0-2.638,1.042-5.718,4.169-5.718c1.753,0,3.237,1.217,3.332,3.018L280.489,459.652
			L280.489,459.652z M280.694,464.327c0-1.186-0.647-2.259-1.942-2.259c-1.311,0-1.99,1.043-1.99,2.259c0,1.2,0.68,2.306,1.99,2.306
			C280.046,466.633,280.694,465.512,280.694,464.327z"/>
	</g>
</g>
</svg>
