<?xml version="1.0" encoding="utf-8"?>
<!-- Generator: Adobe Illustrator 16.0.0, SVG Export Plug-In . SVG Version: 6.00 Build 0)  -->
<!DOCTYPE svg PUBLIC "-//W3C//DTD SVG 1.1//EN" "http://www.w3.org/Graphics/SVG/1.1/DTD/svg11.dtd">
<svg version="1.1" id="Layer_1" xmlns="http://www.w3.org/2000/svg" xmlns:xlink="http://www.w3.org/1999/xlink" x="0px" y="0px"
	 width="768px" height="1024px" viewBox="0 0 768 1024" enable-background="new 0 0 768 1024" xml:space="preserve">
<g>
	<g>
		<g>
			<path fill="#FFFFFF" d="M477.354,628.365h-6.827c0.015-1.644,0.856-2.885,2.199-3.784c1.3-0.942,2.984-1.729,3.015-3.285
				c0.014-0.714-0.286-1.771-1.687-1.771c-1.284,0-1.671,1.1-1.714,2.499h-1.628c0-2.214,1.214-3.856,3.441-3.856
				c2.441,0,3.214,1.785,3.214,3.07c0,1.586-1.086,2.57-2.229,3.371c-1.155,0.8-2.37,1.414-2.655,2.299h4.869v1.457H477.354z"/>
			<path fill="#FFFFFF" d="M485.362,623.367c0,2.271-0.586,5.199-3.456,5.199c-2.871,0-3.456-2.93-3.456-5.199
				c0-2.271,0.585-5.199,3.456-5.199C484.776,618.168,485.362,621.096,485.362,623.367z M483.734,623.367
				c0-2.086-0.4-3.842-1.828-3.842c-1.43,0-1.828,1.756-1.828,3.842c0,2.085,0.398,3.842,1.828,3.842
				C483.334,627.209,483.734,625.452,483.734,623.367z"/>
			<path fill="#FFFFFF" d="M486.502,620.025c1.371,0.014,2.671-0.457,2.914-1.657h1.328v9.997h-1.785v-7.055h-2.457V620.025z"/>
			<path fill="#FFFFFF" d="M495.468,618.368h5.17v1.456h-3.956l-0.515,2.543l0.029,0.029c0.441-0.486,1.171-0.759,1.842-0.759
				c1.985,0,3.128,1.429,3.128,3.343c0,1.6-0.999,3.586-3.456,3.586c-1.928,0-3.428-1.043-3.499-3.043h1.628
				c0.101,1.07,0.785,1.686,1.843,1.686c1.386,0,1.856-0.986,1.856-2.199c0-1.1-0.586-2.086-1.899-2.086
				c-0.686,0-1.355,0.215-1.613,0.914h-1.629L495.468,618.368z"/>
		</g>
	</g>
	<g>
		<g>
			<path fill="#FFFFFF" d="M537.887,628.365h-6.827c0.016-1.644,0.857-2.885,2.2-3.784c1.3-0.942,2.984-1.729,3.014-3.285
				c0.015-0.714-0.285-1.771-1.686-1.771c-1.286,0-1.671,1.1-1.714,2.499h-1.629c0-2.214,1.215-3.856,3.442-3.856
				c2.441,0,3.214,1.785,3.214,3.07c0,1.586-1.086,2.57-2.229,3.371c-1.156,0.8-2.371,1.414-2.656,2.299h4.87L537.887,628.365
				L537.887,628.365z"/>
			<path fill="#FFFFFF" d="M545.896,623.367c0,2.271-0.587,5.199-3.456,5.199c-2.871,0-3.457-2.93-3.457-5.199
				c0-2.271,0.586-5.199,3.457-5.199C545.311,618.168,545.896,621.096,545.896,623.367z M544.269,623.367
				c0-2.086-0.399-3.842-1.827-3.842c-1.43,0-1.828,1.756-1.828,3.842c0,2.085,0.398,3.842,1.828,3.842
				C543.868,627.209,544.269,625.452,544.269,623.367z"/>
			<path fill="#FFFFFF" d="M547.036,620.025c1.371,0.014,2.671-0.457,2.914-1.657h1.328v9.997h-1.785v-7.055h-2.457V620.025
				L547.036,620.025z"/>
			<path fill="#FFFFFF" d="M559.887,620.896c-0.07-0.814-0.613-1.371-1.457-1.371c-1.771,0-1.971,2.112-2.07,3.428l0.028,0.028
				c0.442-0.786,1.271-1.187,2.156-1.187c1.985,0,3.156,1.442,3.156,3.356c0,1.941-1.328,3.414-3.327,3.414
				c-2.942,0-3.643-2.314-3.643-5.229c0-2.385,0.941-5.17,3.771-5.17c1.586,0,2.928,1.1,3.014,2.729L559.887,620.896
				L559.887,620.896z M560.072,625.123c0-1.07-0.586-2.041-1.757-2.041c-1.187,0-1.801,0.941-1.801,2.041
				c0,1.086,0.614,2.086,1.801,2.086C559.486,627.209,560.072,626.195,560.072,625.123z"/>
		</g>
	</g>
	<g>
		<g>
			<path fill="#FFFFFF" d="M475.266,506.4h7.564v1.5c-2.306,2.605-3.837,5.559-4.122,9.554h-1.974
				c0.236-3.49,1.989-6.885,4.264-9.444h-5.732V506.4z"/>
			<path fill="#FFFFFF" d="M484.571,515.324h2.194v2.131h-2.194V515.324z"/>
			<path fill="#FFFFFF" d="M488.411,506.4h7.563v1.5c-2.306,2.605-3.837,5.559-4.121,9.554h-1.975
				c0.237-3.49,1.99-6.885,4.264-9.444h-5.731V506.4z"/>
		</g>
	</g>
	<line fill="none" stroke="#F2F2F2" stroke-miterlimit="10" x1="439.012" y1="638.771" x2="600.896" y2="638.771"/>
	<g>
		<path fill="#F2F2F2" d="M448.193,661.189v5.868c0,0.519-0.384,1.378-1.474,1.378h-1.434l-0.421-1.166
			c0.555,0.096,1.07,0.075,1.605,0.114c0.307,0.019,0.535-0.19,0.535-0.498v-5.123l-2.025,0.822l-0.938-0.938
			c0.976-0.345,2.027-0.707,2.964-1.146v-4.455h-2.563v-1.108h2.563v-3.824h1.187v3.824h1.721v1.108h-1.721v3.861l1.7-0.746v1.244
			L448.193,661.189z M449.818,654v-1.107h4.685v-1.895h1.166v1.895h5.028v1.091h-5.028v1.356h4.13v2.523h1.721v1.09h-1.721v2.676
			h-4.13v1.625h4.818v1.09h-4.818v2.104c0.516,0.307,3.613,0.115,6.08-0.058l-0.421,1.242h-5.449c-1.549,0-2.906-0.649-3.996-1.797
			c-0.478,1.07-1.338,1.93-2.273,2.676l-0.956-0.918c1.969-1.051,2.656-3.114,2.656-5.237l1.166,0.211
			c-0.038,0.783-0.113,1.414-0.248,2.084c0.632,0.688,1.435,1.317,2.275,1.549v-4.551h-3.595v-1.109h3.595v-1.586h-4.665v-1.09
			h4.665v-1.435h-3.614v-1.09h3.614V654H449.818z M455.669,656.43v1.453h2.963v-1.453H455.669z M455.669,658.953v1.586h2.963v-1.586
			H455.669z"/>
		<path fill="#F2F2F2" d="M469.532,655.281c-0.211-0.517-0.497-1.127-0.938-1.586h-1.683c-0.518,0.975-1.357,1.912-2.275,2.619
			l-1.052-0.746c1.606-1.052,2.812-2.734,3.002-4.627l1.052,0.362c-0.058,0.42-0.152,0.879-0.307,1.263h4.914v1.129h-2.428
			c0.285,0.344,0.631,0.668,0.782,1.09L469.532,655.281z M475.325,668.531h-1.204v-3.402h-3.423
			c-0.059,0.248-0.076,0.457-0.229,0.688c-1.338,2.104-3.899,2.543-6.231,2.754l-0.65-1.205c1.567-0.039,3.078-0.269,4.397-0.879
			c0.535-0.25,1.262-0.728,1.473-1.357h-4.99V664h5.124v-1.166h-3.04v-7.055h11.356v7.055h-2.581V664h5.048v1.129h-5.048
			L475.325,668.531L475.325,668.531z M467.735,656.869v0.955h8.984v-0.955H467.735z M476.721,659.717v-0.955h-8.984v0.955H476.721z
			 M467.735,661.764h8.984v-1.09h-8.984V661.764z M470.794,662.834V664h3.327v-1.166H470.794z M477.619,653.6
			c0.287,0.345,0.649,0.783,0.822,1.109l-1.091,0.496c-0.229-0.574-0.554-1.146-1.031-1.605h-2.046
			c-0.363,0.593-0.783,1.242-1.301,1.759l-1.09-0.648c1.147-1.053,1.932-2.295,2.122-3.807l1.015,0.422
			c-0.059,0.496-0.153,0.783-0.269,1.146h5.831v1.129H477.619z"/>
		<path fill="#F2F2F2" d="M491.521,666.676c2.256,0.078,4.646,0.039,8.336-0.151l-0.518,1.262h-7.857
			c-2.695,0-4.282-1.396-5.372-2.353c-0.918,0.898-1.701,1.646-2.85,2.523l-0.784-0.898c0.977-0.727,1.874-1.452,2.965-2.694v-5.506
			h-2.602v-1.148h3.805v6.635c0.574,0.767,1.032,1.033,1.55,1.377v-9.979h4.589c-0.822-0.439-1.778-0.822-2.715-1.07l0.897-0.918
			c0.728,0.191,1.376,0.555,2.046,0.879c1.187-0.285,2.274-0.858,3.309-1.338l-8.644-0.037v-1.129h10.593v1.014
			c-1.262,0.994-2.601,1.625-4.071,2.181c0.21,0.151,0.382,0.268,0.554,0.42h3.882v8.508c0,0.803-0.536,1.512-1.511,1.512h-1.473
			l-0.383-1.108c0.745,0.037,1.108,0.037,1.55,0.057c0.362,0.021,0.61-0.287,0.61-0.668v-1.664h-3.402v2.6h-1.204v-2.6h-3.423v3.461
			H488.5C489.284,666.256,490.259,666.639,491.521,666.676z M485.767,655.436c-0.479-0.995-1.415-2.123-2.37-2.965l0.955-0.764
			c0.956,0.84,1.625,1.701,2.467,2.943L485.767,655.436z M489.398,656.869v1.586h3.423v-1.586H489.398z M492.821,659.564h-3.423v1.7
			h3.423V659.564z M494.025,656.869v1.586h3.402v-1.586H494.025z M494.025,659.564v1.7h3.402v-1.7H494.025z"/>
		<path fill="#F2F2F2" d="M518.481,659.584h-8.565v8.852h-1.186v-8.852h-6.692v-1.109h6.692v-7.36h1.186v2.944h7.131v1.091h-7.131
			v3.325h8.564L518.481,659.584L518.481,659.584z M515.709,664.516c-1.415-1.241-3.06-2.274-4.761-2.694l0.745-0.994
			c1.798,0.592,3.423,1.51,4.876,2.83L515.709,664.516z"/>
		<path fill="#F2F2F2" d="M527.68,665.129c-1.702,1.185-3.671,1.854-5.773,2.121c-0.269-0.344-0.535-0.688-0.841-1.031
			c2.103-0.211,4.129-0.727,5.831-1.875L527.68,665.129z M535.403,658.895c-2.753,1.972-5.89,2.982-9.043,3.939
			c2.581-0.135,5.143-0.248,7.686-0.42c-0.438-0.326-0.918-0.518-1.396-0.727c0.248-0.308,0.649-0.556,0.955-0.806
			c0.783,0.308,1.473,0.767,2.16,1.302c0.65,0.516,1.396,1.146,1.971,1.836l-1.053,0.745c-0.421-0.459-0.821-0.977-1.318-1.377
			l-5.104,0.306v3.231c0,0.535-0.421,0.898-0.938,1.107c-0.688,0.211-1.567,0.059-2.313,0.115l-0.4-1.187l1.893,0.06
			c0.191,0,0.363-0.154,0.459-0.287l0.058-0.23v-2.715c-2.104,0.096-4.455,0.363-6.501,0.594l-0.937-1.244
			c2.522-0.516,4.971-1.262,7.323-2.12c-1.933,0.075-3.92,0.211-5.832,0.459c-0.191-0.384-0.497-0.746-0.728-1.109
			c2.237-0.459,4.265-1.473,6.118-2.676l-5.583-0.039l-0.019-6.177l13.097,0.021v6.137h-6.635l0.497,0.439
			c-1.091,0.881-2.353,1.473-3.613,1.932c1.893-0.02,3.767-0.19,5.659-0.268c0.88-0.479,1.777-0.976,2.601-1.605L535.403,658.895z
			 M524.123,654h4.703l0.02-1.395l-4.723,0.02V654z M524.123,655.072v1.451h4.703v-1.451H524.123z M530.05,652.625L530.07,654
			l4.665-0.018l-0.021-1.377L530.05,652.625z M530.05,655.072v1.451h4.686v-1.451H530.05z M537.066,667.365
			c-1.701-1.146-3.595-1.855-5.697-2.084c0.172-0.344,0.459-0.65,0.669-1.015c2.084,0.287,4.016,0.994,5.736,2.16L537.066,667.365z"
			/>
		<path fill="#F2F2F2" d="M543.665,668.053l-0.708-1.031c0.287-0.229,0.459-0.479,0.459-0.956v-8.623h-2.887v-1.091h4.071v9.925
			l2.964-1.625v1.28L543.665,668.053z M544.124,654.307c-0.497-1.032-1.377-1.987-2.313-2.754l0.822-0.707
			c0.994,0.67,1.911,1.701,2.466,2.715L544.124,654.307z M551.446,657.959h-4.589v-1.148h4.589v-5.85h1.186v5.85h4.607v1.148h-4.607
			v10.4h-1.186V657.959z"/>
		<path fill="#F2F2F2" d="M559.038,667.213c1.894-0.631,3.69-2.162,4.437-4.15c0.439-1.166,0.649-2.465,0.632-3.842h-4.8v-1.09
			l4.779-0.02l0.021-5.011h-4.055v-1.09h14.895v1.09h-3.709v5.011h4.513l-0.02,1.108h-4.493l0.02,8.967h-1.205l0.021-8.967h-4.78
			c0.021,2.943-0.745,5.658-2.944,7.515c-0.803,0.668-1.51,1.069-2.332,1.414L559.038,667.213z M565.29,653.102v4.99h4.761
			l0.021-4.99H565.29z"/>
		<path fill="#F2F2F2" d="M594.966,659.584H586.4v8.852h-1.187v-8.852h-6.691v-1.109h6.691v-7.36h1.187v2.944h7.131v1.091H586.4
			v3.325h8.564L594.966,659.584L594.966,659.584z M592.193,664.516c-1.415-1.241-3.061-2.274-4.762-2.694l0.745-0.994
			c1.798,0.592,3.423,1.51,4.876,2.83L592.193,664.516z"/>
		<path fill="#F2F2F2" d="M479.855,689.564v-0.955h-6.327v-0.938h6.327v-0.879h-5.602v-4.666h12.408v4.666h-5.641v0.879h6.387v0.938
			h-6.387v0.955h8.088v1.032h-17.283v-1.032H479.855z M488.308,681.381h-15.734v-1.031h15.734V681.381z M485.994,679.643H474.81
			v-4.817h11.186L485.994,679.643L485.994,679.643z M475.421,683.102v0.938h4.437v-0.938H475.421z M475.421,684.842v1.014h4.437
			v-1.014H475.421z M484.828,675.838h-8.854v0.955h8.854V675.838z M475.976,677.654v0.994h8.854v-0.994H475.976z M481.023,683.102
			v0.938h4.474v-0.938H481.023z M481.023,685.855h4.474v-1.015h-4.474V685.855z"/>
		<path fill="#F2F2F2" d="M499.475,681.057c1.357-0.782,2.181-2.123,2.313-3.612c0.039-0.574,0.134-1.148,0.096-1.492h-2.235v-1.127
			l7.531-0.021c-0.076,1.797-0.268,3.613-0.765,5.258c-0.152,0.345-0.478,0.611-0.841,0.728c-0.669,0.096-1.415,0.039-2.084-0.057
			l-0.459-1.244c0.649,0.114,1.338,0.307,2.046,0.229c0.21-0.096,0.286-0.326,0.344-0.535c0.269-1.032,0.479-2.104,0.517-3.231
			h-2.791c-0.135,2.008-0.439,3.92-1.97,5.276c-0.287,0.248-0.555,0.498-0.859,0.688l6.271,0.02l0.021,6.425l-1.204-0.019v-0.86
			h-4.034v0.918l-1.187,0.02v-6.348l-0.611,0.399l-1.128-0.803l0.631-0.324l-2.504-0.039v2.543h2.6v1.13l-2.6,0.02v3.785
			c0.917,0.4,1.969,0.611,3.021,0.611l5.773-0.039c1.014,0,2.008-0.076,3.002-0.152l-0.555,1.262h-8.471
			c-1.529,0-2.963-0.496-4.225-1.205c-0.65-0.381-1.225-0.84-1.778-1.375c-0.363,1.242-0.842,2.447-1.683,3.441l-1.053-0.65
			c1.874-2.063,2.009-4.934,1.933-7.762l1.166,0.152c0.096,1.205-0.021,2.332-0.172,3.537c0.554,0.571,1.185,1.146,1.854,1.528
			v-6.807h-4.188l-0.021-1.129l3.48-0.019l0.019-2.85h-2.715v-1.127h2.715v-2.275h1.205v2.275h2.906v1.127h-2.906v2.867h3.594
			L499.475,681.057L499.475,681.057z M501.368,686.334l4.034,0.02l-0.021-3.27h-3.996L501.368,686.334z"/>
		<path fill="#F2F2F2" d="M514.811,679.297c-0.555,0.535-1.09,0.898-2.084,1.437c-0.611,0.323-0.783,0.399-1.28,0.592V679.7
			c1.815-0.842,3.327-2.181,3.958-3.441h1.09v13.746h-1.684V679.297L514.811,679.297z"/>
		<path fill="#F2F2F2" d="M525.25,676.258c2.964,0,4.455,2.353,4.455,6.998s-1.491,6.979-4.455,6.979
			c-1.778,0-3.136-0.938-3.823-2.658c-0.439-1.109-0.632-2.467-0.632-4.359C520.795,678.609,522.287,676.258,525.25,676.258z
			 M523.013,687.137c0.384,1.07,1.243,1.722,2.237,1.722s1.854-0.65,2.237-1.722c0.325-0.879,0.497-2.198,0.497-3.881
			c0-1.684-0.153-2.965-0.497-3.899c-0.384-1.054-1.243-1.701-2.256-1.701c-1.874,0-2.717,1.758-2.717,5.582
			C522.516,684.938,522.688,686.238,523.013,687.137z"/>
		<path fill="#F2F2F2" d="M545.842,680.178c-0.268,3.785-0.783,7.246-1.701,9.885c-0.21,0.593-0.765,1.107-1.377,1.203
			c-0.859,0.154-1.528-0.305-2.256-0.555l-0.268-1.51c0.287,0.096,0.555,0.344,0.859,0.479c0.479,0.152,1.281,0.783,1.663,0.021
			c1.091-2.83,1.436-5.162,1.702-8.318h-5.983c-0.059,0.746-0.153,1.226-0.269,1.816c-0.65,3.25-2.505,6.52-5.525,8.317l-1.09-1.053
			c2.256-1.223,4.016-3.479,4.875-5.736c0.669-1.737,0.728-3.536,0.842-5.391c0.038-0.746,0.038-1.473,0.02-2.352l-5.411,0.02
			l0.021-1.186h16.9v1.186h-10.229c0.019,1.281,0,2.217-0.077,3.191L545.842,680.178z"/>
		<path fill="#F2F2F2" d="M556.054,678.973v-2.6h-5.124v-1.109h6.252v4.818h-4.147c-0.115,0.879-0.211,2.008-0.363,2.963h4.531
			c-0.039,2.332-0.269,4.779-0.977,6.883c-0.172,0.556-0.727,1.129-1.3,1.263c-0.746,0.151-1.549,0-2.274-0.152
			c-0.097-0.439-0.21-0.879-0.269-1.32c0.728,0.136,1.396,0.441,2.18,0.459c0.459-0.112,0.479-0.61,0.632-0.955
			c0.517-1.567,0.821-3.25,0.841-5.028h-4.665c0.249-1.894,0.459-3.709,0.593-5.22L556.054,678.973L556.054,678.973z
			 M559.112,682.701h-1.854v-1.129h1.854v-7.092h1.186v4.987c1.933-0.819,3.824-2.045,5.642-4.147l0.841,0.842
			c-1.816,2.026-4.054,3.633-6.5,4.358v1.031l7.131,0.021v1.129h-4.226c0.19,2.141,1.032,4.108,2.639,5.658
			c0.649,0.612,1.356,1.225,2.084,1.684l-0.783,0.859c-0.593-0.269-1.071-0.744-1.587-1.187c-2.046-1.737-3.251-4.301-3.385-7.016
			h-1.854v6.883c0.977-0.402,2.256-0.897,3.002-1.301v1.205c-1.186,0.516-2.925,1.28-4.092,1.776l-0.688-0.858
			c0.229-0.097,0.592-0.402,0.592-0.861L559.112,682.701L559.112,682.701z"/>
	</g>
	<rect x="524.779" y="477.671" opacity="0.698" fill="#328EC0" enable-background="new    " width="42.873" height="129.071"/>
	<rect x="464.344" y="526.32" opacity="0.698" fill="#797979" enable-background="new    " width="42.795" height="80.422"/>
	<g>
		<g>
			<path fill="#FFFFFF" d="M530.658,458.662c1.517,0.016,2.953-0.506,3.222-1.832h1.469v11.055h-1.974v-7.802h-2.717V458.662z"/>
			<path fill="#FFFFFF" d="M546.802,462.357c0,2.511-0.646,5.748-3.82,5.748c-3.176,0-3.822-3.237-3.822-5.748
				c0-2.512,0.646-5.749,3.822-5.749C546.154,456.608,546.802,459.847,546.802,462.357z M545.002,462.357
				c0-2.307-0.442-4.248-2.021-4.248c-1.579,0-2.021,1.941-2.021,4.248c0,2.306,0.442,4.248,2.021,4.248
				C544.56,466.605,545.002,464.663,545.002,462.357z"/>
			<path fill="#FFFFFF" d="M548.449,465.753h2.194v2.132h-2.194V465.753z"/>
			<path fill="#FFFFFF" d="M552.288,456.83h7.563v1.5c-2.306,2.604-3.837,5.56-4.121,9.555h-1.975
				c0.237-3.49,1.99-6.886,4.264-9.443h-5.731V456.83z"/>
		</g>
	</g>
</g>
</svg>
