<?xml version="1.0" encoding="utf-8"?>
<!-- Generator: Adobe Illustrator 16.0.0, SVG Export Plug-In . SVG Version: 6.00 Build 0)  -->
<!DOCTYPE svg PUBLIC "-//W3C//DTD SVG 1.1//EN" "http://www.w3.org/Graphics/SVG/1.1/DTD/svg11.dtd">
<svg version="1.1" id="Layer_1" xmlns="http://www.w3.org/2000/svg" xmlns:xlink="http://www.w3.org/1999/xlink" x="0px" y="0px"
	 width="768px" height="1024px" viewBox="0 0 768 1024" enable-background="new 0 0 768 1024" xml:space="preserve">
<g>
	<line fill="none" stroke="#F2F2F2" stroke-miterlimit="10" x1="165.071" y1="869.816" x2="326.956" y2="869.816"/>
	<g>
		<path fill="#F2F2F2" d="M176.431,892.904c-0.345-1.072-1.071-1.988-1.836-2.85v9.406h-1.186v-8.775
			c-0.593,1.549-1.491,2.945-2.562,4.264l-0.956-0.707c1.587-2.16,3.193-4.34,3.518-7.055h-2.715v-1.148l2.696,0.02l0.019-3.861
			l1.186,0.02v3.842l2.352-0.02v1.148h-2.352v2.293l0.708-0.324c0.994,0.822,1.721,1.912,2.218,3.059L176.431,892.904z
			 M186.488,899.193c-0.669-1.338-1.988-2.447-3.231-3.193c-0.096,0.039-0.058-0.057-0.114-0.094
			c-0.191-0.096-0.383-0.25-0.631-0.287c-1.721,1.625-3.767,2.752-5.832,3.689l-1.032-0.918c2.467-1.051,4.914-2.313,6.845-4.416
			c1.07-1.166,2.046-2.563,2.791-3.863l1.033,0.441c-0.784,1.434-1.74,2.887-2.926,4.186c1.529,0.822,3.174,2.027,4.034,3.633
			L186.488,899.193z M182.128,884.49l4.895,0.039v1.129h-5.028c-0.707,1.279-1.415,2.504-2.734,3.518l3.441-0.344
			c0.383-0.594,0.765-1.264,1.071-1.932l1.032,0.535c-1.473,3.078-3.92,6.328-7.094,7.934l-1.204-0.84
			c1.988-0.881,3.881-2.486,5.277-4.34v-0.078c-1.243,0.096-2.486,0.307-3.71,0.518l-0.669-1.186
			c1.262-1.053,2.505-2.352,3.136-3.785h-3.499v-1.129h4.455c-0.573-0.727-1.357-1.414-2.104-1.912l0.956-0.803
			c0.88,0.65,1.606,1.318,2.352,2.275L182.128,884.49z"/>
		<path fill="#F2F2F2" d="M193.047,888.754c-0.459,2.391-1.491,4.494-2.734,6.539h-0.096l-1.032-0.572
			c1.205-2.008,2.295-4.072,2.753-6.426L193.047,888.754z M202.626,893.631c-0.325,1.262-0.574,2.504-1.109,3.689
			c-0.363,0.631-0.975,0.975-1.721,0.975l-3.136-0.02c-0.841,0-1.625-0.439-1.95-1.186c-0.191-0.42-0.191-0.975-0.191-1.414v-8.834
			l1.281,0.02v9.426c0.058,0.268,0.229,0.535,0.459,0.689l0.401,0.113h3.06c0.382-0.037,0.745-0.248,0.898-0.611
			c0.344-1.07,0.611-2.16,0.803-3.289L202.626,893.631z M200.313,887.32c-0.345,0.23-0.688,0.459-1.052,0.65
			c-1.09-1.701-2.753-3.498-4.493-4.531c0.383-0.229,0.669-0.535,1.052-0.746C197.579,883.879,199.223,885.563,200.313,887.32z
			 M206.833,894.375c-0.383,0.211-0.746,0.441-1.166,0.613c-0.899-2.219-2.104-4.398-3.844-6.234
			c0.363-0.189,0.67-0.381,1.052-0.553C204.653,890.016,205.819,892.195,206.833,894.375z"/>
		<path fill="#F2F2F2" d="M208.326,892.674c2.733-0.268,5.334-0.842,7.724-1.873c-1.128-0.842-1.759-1.416-2.428-2.104
			c-0.746,0.861-1.74,1.529-2.601,2.16l-1.032-0.746c1.473-0.898,3.116-2.16,3.862-3.67c0.134-0.287,0.344-0.555,0.459-0.861
			c0.382,0.115,0.727,0.25,1.07,0.402c-0.096,0.287-0.287,0.65-0.439,0.955h6.825v1.09c-0.879,1.148-2.103,2.104-3.25,2.811
			c2.218,1.129,4.799,1.453,7.418,1.645l-0.516,1.244c-2.868-0.346-5.66-0.881-8.126-2.18c-2.563,1.262-5.43,1.893-8.374,2.275
			L208.326,892.674z M216.91,884.033c-0.516-0.498-1.166-1.129-1.854-1.377l1.186-0.746c1.625,0.764,2.008,1.932,2.142,2.104h6.232
			v3.613h-1.204v-2.467h-12.562v2.504l-1.204-0.018v-3.613H216.91z M220.638,899.404v-1.109h-6.94v1.146l-1.186,0.02l-0.019-6.002
			l9.349-0.02v5.945L220.638,899.404z M220.638,894.586h-6.921l-0.02,2.582h6.94V894.586z M214.711,888.086
			c0.803,0.859,1.529,1.566,2.562,2.104c1.052-0.594,1.932-1.205,2.811-2.104H214.711z"/>
		<path fill="#F2F2F2" d="M242.073,891.049v-0.783h-10.306c0.058,4.531-0.497,6.844-2.657,9.082l-1.09-0.861
			c1.932-1.664,2.523-3.92,2.523-6.404v-7.055h6.271c-0.344-0.822-1.357-1.703-2.371-2.391l1.09-0.611
			c1.071,0.631,1.988,1.549,2.62,2.58l-0.766,0.383v0.039h5.946v6.021H242.073z M242.111,886.174h-10.344v2.943h10.344V886.174z"/>
		<path fill="#F2F2F2" d="M250.411,899.48l0.02-9.254c-0.708,0.994-1.74,2.123-2.639,2.963l-1.09-0.783
			c2.064-1.797,3.671-4.148,4.837-6.596h-3.518v-1.166l4.034,0.02c0.363-0.842,0.611-1.799,0.803-2.717l1.128,0.402
			c-0.114,0.803-0.421,1.549-0.631,2.314l10.038-0.02v1.166h-10.497c-0.382,0.859-0.841,1.645-1.262,2.484l0.02,11.205
			L250.411,899.48z M256.758,898.047c0.229-0.039,0.497-0.076,0.65-0.268c0.172-0.23,0.134-0.594,0.134-0.842v-3.326h-4.914v-1.148
			h4.856v-1.547c1.07-0.479,1.988-1.186,2.887-2.066h-6.404v-1.166l8.106,0.02v1.146c-0.918,0.938-2.199,2.084-3.308,2.734v0.822
			h5.181v1.146h-5.181l0.019,4.322c-0.058,0.479-0.344,0.936-0.784,1.186c-0.765,0.344-1.605,0.133-2.485,0.209l-0.822-1.203
			L256.758,898.047z"/>
		<path fill="#F2F2F2" d="M265.88,897.168c1.166-0.994,2.198-2.123,2.791-3.441l0.88,0.592c-0.593,1.414-1.587,2.582-2.772,3.576
			L265.88,897.168z M266.32,884.893l0.019-1.129h3.862v-1.701h1.205l-0.02,1.701l3.977-0.018v1.146h-3.977l0.02,1.645h3.192
			l0.02,1.109l-7.514,0.018v-1.127l3.078-0.02l0.019-1.625H266.32z M268.174,898.354h1.663c0.459-0.096,0.479-0.537,0.479-0.805
			v-4.855h-3.805v-1.129h8.661v1.129h-3.652v5.201c-0.096,0.994-0.344,1.318-1.014,1.51h-1.491L268.174,898.354z M267.448,890.131
			l0.02-1.127h6.729v1.127H267.448z M274.369,896.766c-0.535-0.918-1.28-1.893-2.18-2.543l0.88-0.631
			c0.363,0.191,0.669,0.516,0.975,0.822c0.517,0.516,0.938,1.109,1.301,1.701L274.369,896.766z M274.292,898.621
			c1.128-0.957,2.218-2.219,2.829-3.576c0.899-2.027,0.918-4.436,1.033-6.635l1.166,0.172l-0.096,2.352
			c0.421,2.869,1.567,5.775,4.015,7.533l-0.821,0.898c-0.421-0.191-0.708-0.572-1.09-0.879c-1.205-1.262-2.027-2.83-2.563-4.475
			c-0.593,2.123-1.873,3.959-3.518,5.449L274.292,898.621z M280.449,889.232c0.306-0.822,0.555-1.645,0.746-2.523l-3.575,0.02
			c-0.363,1.357-0.88,2.619-1.664,3.805l-1.166-0.498c1.683-2.217,2.18-5.104,2.218-7.992l1.109,0.307
			c-0.02,1.09-0.077,2.18-0.269,3.23h4.589c-0.096,1.34-0.497,2.602-0.918,3.844L280.449,889.232z"/>
		<path fill="#F2F2F2" d="M294.198,890.705c0.152,2.83-0.842,4.779-1.854,5.945c-1.224,1.396-3.442,1.971-6.253,2.639l-0.783-1.07
			c1.625-0.344,3.23-0.65,4.703-1.357c2.122-1.014,2.944-3.154,3.002-6.156H294.198z M292.993,884.146h-5.392v-1.09h11.988v1.109
			h-5.431v2.256h7.648v1.053h-16.424v-1.053h7.609V884.146z M288.347,888.85h10.478v6.539h-1.129v-5.486h-8.221v5.793l-1.128,0.02
			V888.85z M300.22,899.348c-1.664-1.836-3.824-2.945-6.062-3.652l0.65-0.879c2.333,0.668,4.569,1.873,6.252,3.746L300.22,899.348z"
			/>
		<path fill="#F2F2F2" d="M310.202,885.313v1.875l4.302,0.018v10.574c0,0.439-0.268,0.859-0.649,1.109
			c-0.65,0.439-1.606,0.152-2.409,0.229l-0.401-1.242l1.701,0.057c0.211,0,0.401-0.152,0.497-0.344l0.077-0.287l-0.02-8.928h-7.15
			l0.019,10.975h-1.242v-12.16h4.053v-1.875h-4.855v-1.166h4.855v-2.141h1.224v2.141h5.067v1.166H310.202z M310.297,895.619v2.771
			h-1.186l-0.019-2.771h-2.447v-1.109h2.447v-1.605h-2.275v-1.129h1.645c-0.306-0.975-1.032-1.816-1.836-2.58l0.956-0.613
			c0.88,0.766,1.529,1.76,1.95,2.773c-0.248,0.113-0.459,0.248-0.688,0.381l0.899,0.039c0.745-0.994,1.3-2.045,1.644-3.211
			c0.383,0.113,0.708,0.344,1.071,0.496c-0.383,1.262-0.899,2.027-1.396,2.715h1.587l-0.019,1.129h-2.333l-0.019,1.625h2.523
			l0.02,1.07L310.297,895.619z M320.679,899.309c-2.313-3.117-2.409-7.227-2.6-11.146c-0.058-0.02-0.096,0-0.153,0
			c0.02,2.428,0.058,5.258-0.707,7.609c-0.402,1.281-0.938,2.467-1.76,3.557c-0.382-0.191-0.727-0.479-1.07-0.727
			c1.511-1.951,2.084-4.322,2.275-6.787c0.096-1.301,0.019-2.506,0.058-3.652h-1.874v-1.186h1.854v-4.914h1.204l0.02,4.914h3.174
			l0.02,1.186h-1.874c-0.02,1.242,0.114,2.58,0.229,3.844c-0.02,0.018-0.038,0.057-0.02,0.076c0.249,2.217,0.688,4.473,2.008,6.232
			l0.114,0.152L320.679,899.309z M319.915,886.48c-0.344-1.053-0.898-2.066-1.816-2.85l1.071-0.574
			c0.86,0.822,1.434,1.797,1.797,2.85C320.622,886.098,320.278,886.289,319.915,886.48z"/>
		<path fill="#F2F2F2" d="M173.094,913.191c0.708-1.129,1.186-2.867,1.529-4.303h-2.294v-1.107h2.523
			c0.211-0.822,0.307-1.721,0.401-2.602l1.129,0.326c-0.039,0.764-0.229,1.51-0.345,2.275h2.926v1.107h-3.193
			c-0.401,1.568-0.688,2.984-1.472,4.436h1.777v-2.561h1.186v2.561h2.046v1.109h-2.046v2.143l2.696-0.727v1.146l-2.696,0.727v4.684
			h-1.186v-4.436l-3.192,0.785l-0.631-0.994c1.376-0.326,2.657-0.594,3.823-0.918v-2.41h-2.982V913.191z M177.549,921.24
			c2.064-0.688,4.148-1.721,5.602-3.518c-0.937-1.434-1.625-3.021-1.95-4.723l1.109-0.42c0.268,1.453,0.841,2.791,1.605,4.033
			c0.746-1.281,1.319-2.734,1.606-4.225l1.07,0.516c-0.286,1.76-1.032,3.309-1.95,4.818c1.319,1.625,2.983,2.715,4.761,3.557
			l-0.879,1.014c-1.721-0.822-3.365-2.084-4.646-3.576c-1.529,1.682-3.479,2.867-5.506,3.594L177.549,921.24z M178.715,912.732
			c1.357-0.783,2.639-2.18,3.289-3.537l0.937,0.574c-0.593,1.453-1.932,2.828-3.27,3.746L178.715,912.732z M179.328,907.514h4.244
			c-0.497-0.785-1.339-1.492-2.199-1.875l0.938-0.727c0.879,0.383,1.778,1.244,2.352,2.027l-0.88,0.535l5.086,0.039v1.127h-9.54
			V907.514z M188.045,913.42c-0.745-1.375-1.873-2.695-3.288-3.459l0.822-0.766c1.185,0.459,2.867,2.371,3.422,3.48L188.045,913.42z
			"/>
		<path fill="#F2F2F2" d="M207.664,915.619v1.166l-6.749-0.018l-0.019,5.658l-1.224,0.02l-0.02-5.66l-7.725-0.018V915.6l2.447,0.02
			v-4.664h5.239v-2.83h-4.302c-0.669,1.377-1.396,2.752-2.619,3.881l-1.033-0.803c1.511-1.396,2.543-3.059,3.078-4.895l0.421-1.416
			c0.363,0.154,0.708,0.307,1.052,0.498c-0.076,0.555-0.268,1.051-0.421,1.588h11.07v1.146l-6.004,0.02l0.02,2.811h5.009l0.02,1.166
			l-4.99,0.02v3.479H207.664z M195.599,912.141v3.479h4.034l0.02-3.498L195.599,912.141z"/>
		<path fill="#F2F2F2" d="M218.946,912.885c-0.516,0.746-1.108,1.436-1.854,2.027c0.573,0.344,1.109,0.803,1.587,1.318l-0.707,0.977
			c-0.822-0.898-1.759-1.607-2.849-1.988v7.303l-1.281,0.02l0.019-7.609c-0.401,0.229-0.727,0.516-1.128,0.746
			c-0.497,0.285-0.956,0.631-1.472,0.879c-0.306-0.287-0.517-0.746-0.842-0.994c1.836-0.881,3.71-2.16,5.01-3.863
			c0.382-0.477,0.573-1.012,0.803-1.566h-5.258v-1.205l6.577,0.02c-0.058,0.479,0.114,1.07-0.153,1.49
			c-0.439,1.244-1.242,2.371-2.294,3.365v0.248l0.822,0.27c0.86-0.459,1.605-1.453,1.969-2.162L218.946,912.885z M214.53,906.424
			c0.306,0.477,0.611,0.994,0.783,1.529c-0.344,0.191-0.688,0.496-1.07,0.631c-0.306-1.148-0.956-2.219-2.064-2.869
			c0.306-0.189,0.688-0.42,0.994-0.648c0.306,0.152,0.535,0.42,0.783,0.648C214.147,905.982,214.357,906.156,214.53,906.424z
			 M217.78,906.5h8.661l0.019,3.346l-0.076,3.805c-0.038,2.199-0.134,4.396-0.497,6.5c-0.114,0.67-0.841,1.225-1.472,1.377
			c-1.014,0.096-1.989-0.115-2.926-0.324l-0.306-1.377c0.803,0.172,1.549,0.4,2.39,0.496c0.439,0.039,0.842-0.209,1.052-0.572
			c0.134-0.459,0.134-1.014,0.21-1.473c0.038-0.326,0.096-0.689,0.096-1.014c0.02-0.516,0.153-0.994,0.115-1.568
			c0.096-0.477,0.057-1.07,0.114-1.549c0-0.477,0.038-0.898,0.038-1.395l0.038-3.863l-0.019-1.203c-1.071-0.039-2.237,0.018-3.327,0
			v3.25c0,2.467-0.076,4.99-0.956,7.246c-0.688,1.758-2.294,3.402-3.995,4.359c-0.077,0.037-0.077-0.076-0.115-0.115
			c-0.268-0.268-0.535-0.574-0.841-0.859c0.994-0.555,1.988-1.281,2.753-2.123c0.822-0.898,1.242-2.084,1.453-3.174
			c0.134-0.191,0.076-0.516,0.172-0.746c0.268-2.389,0.344-5.545,0.287-7.838l-2.849-0.02L217.78,906.5z"/>
		<path fill="#F2F2F2" d="M229.521,908.889h2.485v-3.766h1.166v3.766h2.161v1.109h-2.161v3.9l1.874-0.822v1.281l-1.874,0.803v5.793
			c0,0.822-0.611,1.377-1.434,1.377h-1.625l-0.383-1.146c0.65,0.037,1.09,0.037,1.645,0.057c0.401,0,0.631-0.191,0.631-0.516v-5.182
			l-2.026,0.822l-0.784-1.014c0.937-0.307,1.912-0.574,2.811-0.975v-4.379h-2.485V908.889z M236.767,919.939
			c-0.421,0.977-1.128,1.971-2.104,2.525l-0.822-0.898c1.435-0.938,2.257-2.525,2.409-4.207c0.058-0.574,0.077-1.014,0.038-1.492
			l1.147,0.154c0.02,0.727-0.038,1.529-0.172,2.256l0.21,0.248c0.631,0.746,1.702,1.225,2.543,1.473v-5.201h-4.531v-1.09h10.688
			v1.09h-5.009v2.027h3.9v1.07h-3.9v2.391c1.396,0.152,2.982,0.172,5.697,0l-0.478,1.223h-3.958c-2.084,0-3.996-0.65-5.487-1.969
			L236.767,919.939z M236.308,905.869h8.298v6.539h-8.298V905.869z M237.474,906.959v1.566h5.966v-1.566H237.474z M237.474,909.578
			v1.74h5.966v-1.74H237.474z"/>
		<path fill="#F2F2F2" d="M248.91,921.336c1.09-0.459,1.912-1.127,2.313-1.51c1.529-1.529,2.447-3.346,2.409-5.965h-4.264
			l0.019-1.148h4.359l0.02-4.74c-1.128,0.285-2.352,0.496-3.557,0.572l-0.649-1.186c2.811-0.133,5.448-0.783,7.724-2.197
			l0.842,0.898c-0.995,0.668-2.065,1.127-3.155,1.566v5.105l4.952-0.02v-7.609h1.186v7.629l4.168-0.02l0.019,1.148l-4.168-0.02
			v8.641h-1.204v-8.621l-5.01-0.02c-0.076,2.084-0.458,4.053-1.701,5.678c-0.956,1.225-2.18,2.199-3.479,2.887L248.91,921.336z"/>
		<path fill="#F2F2F2" d="M269.312,917.32c0.248,1.645,1.204,2.582,2.638,2.582c1.664,0,2.888-1.414,2.888-3.346
			c0-1.875-1.167-3.098-2.926-3.098c-1.052,0-1.969,0.479-2.485,1.318l-1.587-0.189l1.339-7.037h6.787v1.605h-5.449l-0.746,3.672
			c0.804-0.555,1.722-0.861,2.601-0.861c2.447,0,4.244,1.895,4.244,4.438c0,2.828-1.969,4.875-4.665,4.875
			c-2.485,0-4.187-1.473-4.397-3.824L269.312,917.32z"/>
		<path fill="#F2F2F2" d="M279.043,919.137h1.912v1.912h-1.912V919.137z"/>
		<path fill="#F2F2F2" d="M286.08,913.65v-0.039c-0.554-0.191-0.765-0.287-1.051-0.535c-0.65-0.516-1.014-1.318-1.014-2.236
			c0-2.064,1.645-3.537,3.938-3.537c2.313,0,3.977,1.51,3.977,3.574c0,1.34-0.669,2.238-2.007,2.734v0.039
			c0.649,0.191,0.879,0.307,1.28,0.611c0.822,0.65,1.281,1.701,1.281,2.867c0,2.41-1.893,4.15-4.493,4.15
			c-2.638,0-4.512-1.74-4.512-4.188c0-1.166,0.459-2.199,1.262-2.85c0.401-0.324,0.65-0.439,1.338-0.611V913.65z M288.011,919.902
			c1.605,0,2.753-1.146,2.753-2.754c0-1.605-1.186-2.791-2.811-2.791c-1.587,0-2.753,1.186-2.753,2.754
			C285.201,918.717,286.386,919.902,288.011,919.902z M287.992,912.98c1.262,0,2.218-0.898,2.218-2.104
			c0-1.242-0.975-2.178-2.236-2.178s-2.218,0.916-2.218,2.141C285.755,912.063,286.692,912.98,287.992,912.98z"/>
		<path fill="#F2F2F2" d="M298.584,907.303c2.964,0,4.455,2.352,4.455,6.998c0,4.645-1.491,6.979-4.455,6.979
			c-1.778,0-3.136-0.938-3.823-2.658c-0.44-1.109-0.632-2.467-0.632-4.359C294.129,909.654,295.622,907.303,298.584,907.303z
			 M296.348,918.182c0.382,1.07,1.242,1.721,2.236,1.721s1.854-0.65,2.237-1.721c0.325-0.879,0.497-2.199,0.497-3.881
			c0-1.684-0.153-2.965-0.497-3.9c-0.383-1.053-1.243-1.701-2.256-1.701c-1.874,0-2.716,1.758-2.716,5.582
			C295.85,915.982,296.023,917.283,296.348,918.182z"/>
		<path fill="#F2F2F2" d="M307.954,907.131c1.816,0,2.964,1.395,2.964,3.633c0,2.18-1.167,3.613-2.964,3.613
			c-1.74,0-2.887-1.416-2.887-3.594C305.067,908.525,306.175,907.131,307.954,907.131z M306.539,910.82
			c0,1.568,0.497,2.391,1.453,2.391c0.994,0,1.473-0.803,1.473-2.523c0-1.588-0.517-2.391-1.473-2.391
			C306.998,908.297,306.539,909.1,306.539,910.82z M315.487,907.131h1.357l-7.457,14.436h-1.396L315.487,907.131z M316.806,914.32
			c1.816,0,2.963,1.395,2.963,3.613c0,2.197-1.166,3.633-2.963,3.633c-1.74,0-2.888-1.416-2.888-3.596
			C313.918,915.715,315.028,914.32,316.806,914.32z M315.391,918.01c0,1.566,0.497,2.389,1.453,2.389
			c0.994,0,1.472-0.803,1.472-2.523c0-1.586-0.497-2.408-1.472-2.408C315.85,915.467,315.391,916.289,315.391,918.01z"/>
	</g>
	<g>
		<path fill="#FFFFFF" d="M248.425,796.092h-6.827c0.015-1.643,0.857-2.885,2.2-3.785c1.3-0.941,2.984-1.727,3.013-3.283
			c0.015-0.715-0.285-1.771-1.685-1.771c-1.286,0-1.671,1.1-1.714,2.5h-1.629c0-2.215,1.215-3.857,3.442-3.857
			c2.442,0,3.214,1.785,3.214,3.07c0,1.586-1.086,2.572-2.229,3.371c-1.156,0.801-2.371,1.414-2.656,2.299h4.87V796.092z"/>
		<path fill="#FFFFFF" d="M256.449,791.094c0,2.271-0.586,5.199-3.456,5.199c-2.871,0-3.457-2.928-3.457-5.199
			s0.586-5.199,3.457-5.199C255.863,785.895,256.449,788.822,256.449,791.094z M254.821,791.094c0-2.086-0.4-3.842-1.828-3.842
			c-1.429,0-1.828,1.756-1.828,3.842s0.399,3.842,1.828,3.842C254.42,794.936,254.821,793.18,254.821,791.094z"/>
		<path fill="#FFFFFF" d="M257.76,787.752c1.371,0.014,2.671-0.457,2.914-1.656h1.328v9.996h-1.785v-7.055h-2.457V787.752z"/>
		<path fill="#FFFFFF" d="M266.741,786.096h5.17v1.455h-3.956l-0.515,2.543l0.029,0.029c0.442-0.486,1.171-0.758,1.842-0.758
			c1.985,0,3.128,1.428,3.128,3.342c0,1.6-0.999,3.586-3.456,3.586c-1.928,0-3.428-1.043-3.499-3.043h1.628
			c0.1,1.072,0.785,1.686,1.843,1.686c1.385,0,1.856-0.986,1.856-2.199c0-1.1-0.586-2.086-1.899-2.086
			c-0.686,0-1.356,0.215-1.614,0.914h-1.628L266.741,786.096z"/>
	</g>
	<g>
		<path fill="#FFFFFF" d="M321.377,753.184h-6.827c0.015-1.643,0.857-2.885,2.2-3.785c1.299-0.943,2.984-1.729,3.014-3.285
			c0.014-0.715-0.286-1.771-1.686-1.771c-1.285,0-1.671,1.1-1.714,2.5h-1.628c0-2.213,1.214-3.855,3.441-3.855
			c2.442,0,3.214,1.785,3.214,3.07c0,1.586-1.086,2.57-2.229,3.371c-1.156,0.799-2.37,1.414-2.656,2.299h4.87V753.184z"/>
		<path fill="#FFFFFF" d="M329.401,748.184c0,2.271-0.586,5.199-3.456,5.199c-2.871,0-3.456-2.928-3.456-5.199
			c0-2.27,0.585-5.197,3.456-5.197C328.815,742.986,329.401,745.914,329.401,748.184z M327.773,748.184
			c0-2.084-0.4-3.842-1.828-3.842c-1.429,0-1.828,1.758-1.828,3.842c0,2.086,0.399,3.842,1.828,3.842
			C327.373,752.025,327.773,750.27,327.773,748.184z"/>
		<path fill="#FFFFFF" d="M330.712,744.842c1.371,0.016,2.671-0.457,2.914-1.656h1.328v9.998h-1.785v-7.057h-2.457V744.842z"/>
		<path fill="#FFFFFF" d="M343.578,745.713c-0.071-0.813-0.614-1.371-1.457-1.371c-1.771,0-1.971,2.115-2.071,3.428l0.029,0.029
			c0.442-0.785,1.271-1.186,2.156-1.186c1.985,0,3.156,1.443,3.156,3.355c0,1.943-1.328,3.414-3.327,3.414
			c-2.942,0-3.643-2.313-3.643-5.227c0-2.385,0.942-5.17,3.771-5.17c1.586,0,2.928,1.1,3.014,2.727H343.578z M343.763,749.941
			c0-1.072-0.586-2.043-1.757-2.043c-1.186,0-1.8,0.943-1.8,2.043c0,1.086,0.614,2.084,1.8,2.084
			C343.177,752.025,343.763,751.012,343.763,749.941z"/>
	</g>
	<g>
		<path opacity="0.698" fill-rule="evenodd" clip-rule="evenodd" fill="#144F84" d="M197.99,808.42
			c9.773,26.625,39.269,40.268,65.894,30.508c26.621-9.775,40.279-39.277,30.505-65.9c-7.428-20.215-26.666-33.65-48.196-33.65
			v17.113c18.901,0,34.228,15.326,34.228,34.225c0,18.918-15.326,34.246-34.228,34.246c-14.353,0-27.188-8.965-32.136-22.445
			L197.99,808.42z"/>
		<path opacity="0.698" fill-rule="evenodd" clip-rule="evenodd" fill="#595959" d="M246.192,739.377
			c-28.358,0-51.345,22.988-51.345,51.338c0,6.039,1.064,12.035,3.143,17.705l16.066-5.904c-6.515-17.748,2.591-37.416,20.339-43.93
			c3.78-1.389,7.766-2.096,11.797-2.096V739.377z"/>
		<path opacity="0.8" fill-rule="evenodd" clip-rule="evenodd" fill="#2A79BE" d="M177.736,789.861
			c-0.475,37.801,29.788,68.838,67.602,69.311c37.799,0.473,68.838-29.783,69.309-67.584c0.474-37.814-29.798-68.838-67.597-69.324
			c-0.281,0-0.577,0-0.857,0v17.113c28.351,0,51.341,22.988,51.341,51.338c0,28.367-22.99,51.357-51.341,51.357
			c-28.358,0-51.345-22.99-51.345-51.357c0-0.203,0-0.426,0.003-0.633L177.736,789.861z"/>
		<path opacity="0.8" fill-rule="evenodd" clip-rule="evenodd" fill="#797979" d="M246.192,722.264
			c-37.475,0-67.986,30.121-68.456,67.598l17.114,0.221c0.354-28.115,23.235-50.705,51.342-50.705V722.264z"/>
	</g>
</g>
</svg>
