<?xml version="1.0" encoding="utf-8"?>
<!-- Generator: Adobe Illustrator 16.0.0, SVG Export Plug-In . SVG Version: 6.00 Build 0)  -->
<!DOCTYPE svg PUBLIC "-//W3C//DTD SVG 1.1//EN" "http://www.w3.org/Graphics/SVG/1.1/DTD/svg11.dtd">
<svg version="1.1" id="Layer_1" xmlns="http://www.w3.org/2000/svg" xmlns:xlink="http://www.w3.org/1999/xlink" x="0px" y="0px"
	 width="768px" height="1024px" viewBox="0 0 768 1024" enable-background="new 0 0 768 1024" xml:space="preserve">
<g>
	<line fill="none" stroke="#F2F2F2" stroke-miterlimit="10" x1="434.982" y1="869.816" x2="596.867" y2="869.816"/>
	<g>
		<path fill="#F2F2F2" d="M436.781,892.904c-0.344-1.072-1.07-1.988-1.836-2.85v9.406h-1.186v-8.775
			c-0.592,1.549-1.49,2.945-2.561,4.264l-0.957-0.707c1.588-2.16,3.193-4.34,3.518-7.055h-2.715v-1.148l2.697,0.02l0.018-3.861
			l1.186,0.02v3.842l2.352-0.02v1.148h-2.352v2.293l0.709-0.324c0.994,0.822,1.721,1.912,2.217,3.059L436.781,892.904z
			 M446.838,899.193c-0.668-1.338-1.988-2.447-3.23-3.193c-0.096,0.039-0.059-0.057-0.115-0.094
			c-0.191-0.096-0.383-0.25-0.631-0.287c-1.721,1.625-3.766,2.752-5.832,3.689l-1.031-0.918c2.467-1.051,4.914-2.313,6.844-4.416
			c1.07-1.166,2.047-2.563,2.791-3.863l1.033,0.441c-0.783,1.434-1.74,2.887-2.926,4.186c1.529,0.822,3.174,2.027,4.035,3.633
			L446.838,899.193z M442.479,884.49l4.895,0.039v1.129h-5.027c-0.707,1.279-1.416,2.504-2.734,3.518l3.441-0.344
			c0.383-0.594,0.764-1.264,1.07-1.932l1.033,0.535c-1.473,3.078-3.92,6.328-7.094,7.934l-1.205-0.84
			c1.988-0.881,3.881-2.486,5.277-4.34v-0.078c-1.242,0.096-2.486,0.307-3.709,0.518l-0.67-1.186
			c1.262-1.053,2.506-2.352,3.137-3.785h-3.5v-1.129h4.455c-0.572-0.727-1.357-1.414-2.104-1.912l0.957-0.803
			c0.879,0.65,1.605,1.318,2.352,2.275L442.479,884.49z"/>
		<path fill="#F2F2F2" d="M453.398,888.754c-0.459,2.391-1.492,4.494-2.734,6.539h-0.096l-1.033-0.572
			c1.205-2.008,2.295-4.072,2.754-6.426L453.398,888.754z M462.977,893.631c-0.324,1.262-0.574,2.504-1.109,3.689
			c-0.363,0.631-0.975,0.975-1.721,0.975l-3.135-0.02c-0.842,0-1.625-0.439-1.951-1.186c-0.191-0.42-0.191-0.975-0.191-1.414v-8.834
			l1.281,0.02v9.426c0.059,0.268,0.23,0.535,0.459,0.689l0.402,0.113h3.059c0.383-0.037,0.746-0.248,0.898-0.611
			c0.344-1.07,0.611-2.16,0.803-3.289L462.977,893.631z M460.664,887.32c-0.346,0.23-0.689,0.459-1.053,0.65
			c-1.09-1.701-2.752-3.498-4.492-4.531c0.383-0.229,0.668-0.535,1.051-0.746C457.93,883.879,459.574,885.563,460.664,887.32z
			 M467.184,894.375c-0.383,0.211-0.746,0.441-1.166,0.613c-0.9-2.219-2.104-4.398-3.844-6.234c0.363-0.189,0.67-0.381,1.051-0.553
			C465.004,890.016,466.17,892.195,467.184,894.375z"/>
		<path fill="#F2F2F2" d="M468.676,892.674c2.734-0.268,5.334-0.842,7.725-1.873c-1.129-0.842-1.76-1.416-2.428-2.104
			c-0.746,0.861-1.74,1.529-2.602,2.16l-1.031-0.746c1.473-0.898,3.115-2.16,3.861-3.67c0.135-0.287,0.344-0.555,0.459-0.861
			c0.383,0.115,0.727,0.25,1.07,0.402c-0.096,0.287-0.287,0.65-0.439,0.955h6.826v1.09c-0.879,1.148-2.104,2.104-3.25,2.811
			c2.217,1.129,4.799,1.453,7.418,1.645l-0.516,1.244c-2.869-0.346-5.66-0.881-8.127-2.18c-2.563,1.262-5.43,1.893-8.373,2.275
			L468.676,892.674z M477.26,884.033c-0.516-0.498-1.166-1.129-1.854-1.377l1.186-0.746c1.625,0.764,2.008,1.932,2.141,2.104h6.232
			v3.613h-1.203v-2.467h-12.563v2.504l-1.203-0.018v-3.613H477.26z M480.988,899.404v-1.109h-6.939v1.146l-1.186,0.02l-0.02-6.002
			l9.35-0.02v5.945L480.988,899.404z M480.988,894.586h-6.92l-0.02,2.582h6.939V894.586z M475.063,888.086
			c0.803,0.859,1.529,1.566,2.561,2.104c1.053-0.594,1.932-1.205,2.811-2.104H475.063z"/>
		<path fill="#F2F2F2" d="M502.424,891.049v-0.783h-10.307c0.059,4.531-0.496,6.844-2.656,9.082l-1.09-0.861
			c1.932-1.664,2.523-3.92,2.523-6.404v-7.055h6.271c-0.344-0.822-1.357-1.703-2.371-2.391l1.09-0.611
			c1.07,0.631,1.988,1.549,2.619,2.58l-0.766,0.383v0.039h5.947v6.021H502.424z M502.461,886.174h-10.344v2.943h10.344V886.174z"/>
		<path fill="#F2F2F2" d="M514.604,897.588c-0.516-1.434-1.09-3.021-1.949-4.398c-1.07,2.563-2.887,4.188-4.914,5.889l-0.842-0.764
			c1.855-1.529,3.996-3.518,5.066-6.195c-0.84-1.242-2.504-2.943-3.555-3.881c0.324-0.191,0.668-0.42,1.031-0.555
			c1.244,1.09,2.334,2.199,3.002,3.232c0.631-1.76,1.148-3.576,1.242-5.488h-6.213v-1.051h7.418
			c-0.057,2.715-0.727,5.258-1.682,7.646c1.031,1.529,1.834,3.385,2.428,5.066L514.604,897.588z M515.313,886.938v-1.09h5.734
			v-3.785h1.166v3.785h1.875v1.072h-1.893v11.203c-0.078,0.439-0.383,0.822-0.785,1.014l-0.42,0.152c-0.67,0.039-1.357,0.02-2.027,0
			l-0.4-1.146c0.65,0.02,1.357,0.115,2.064,0.076c0.191-0.02,0.324-0.172,0.42-0.344l0.02-10.938H515.313z M518.734,894.223
			c-0.518-1.586-1.588-2.982-2.83-4.283c0.307-0.152,0.611-0.363,0.938-0.477c0.879,0.936,2.275,2.447,2.867,4.244L518.734,894.223z
			"/>
		<path fill="#F2F2F2" d="M533.553,883.822c-0.65,2.639-4.092,6.672-5.658,7.725l-0.938-0.918c1.969-1.529,4.818-4.59,5.564-7.457
			L533.553,883.822z M538.16,892.598c1.664,1.586,2.83,3.613,3.5,5.736l-1.225,0.592c-0.191-0.688-0.496-1.49-0.803-2.141
			l-7.553,1.166c-0.744,0.115-1.434,0.307-2.16,0.439l-0.859-1.301c2.141-1.721,4.32-5.391,4.723-8.604l1.203,0.459
			c-0.631,3.633-2.637,6.463-4.264,7.992c1.588-0.152,6.559-0.918,8.375-1.223c-0.592-0.938-1.262-1.816-2.104-2.582L538.16,892.598
			z M537.512,883.172c1.051,2.771,2.963,5.697,5.525,7.457l-0.861,0.918c-2.256-1.32-4.855-5.373-5.658-7.744L537.512,883.172z"/>
		<path fill="#F2F2F2" d="M556.326,886.461v-1.625h-4.398v1.586h-1.184v-1.586h-4.838v-1.129h4.895v-1.473h1.127v1.453h4.398v-1.434
			h1.186v1.434h4.838v1.129h-4.857v1.645H556.326z M547.416,889.596h-1.146v-2.791h15.697l-0.02,2.848h-1.146v-1.721h-13.385
			V889.596z M558.869,899.52v-1.166h-9.598v1.146h-1.205l0.02-5.641h11.969v5.66H558.869z M558.869,895.006h-9.598v2.199h9.598
			V895.006z M558.582,888.85v3.863h-8.967v-3.863H558.582z M550.82,889.998v1.566h6.557v-1.566H550.82z"/>
		<path fill="#F2F2F2" d="M570.764,899.461h-1.186v-5.43l-3.787,1.262l-0.916-0.955c0.631-0.402,0.592-0.689,0.592-1.396v-8.775
			h1.186v9.561l2.926-0.994v-10.459h1.186V899.461z M571.068,898.543c1.76-0.898,3.537-2.121,4.762-3.727
			c-1.07-1.627-1.607-3.537-2.084-5.393c-0.211,0.324-0.344,0.727-0.535,1.07c-0.287,0.518-0.594,1.053-0.957,1.529l-1.031-0.764
			c1.682-2.314,2.313-5.086,2.619-8.012l0.113-1.127l1.205,0.4c-0.02,1.014-0.152,2.143-0.307,3.098h6.387v1.129h-1.74
			c-0.096,2.904-0.803,5.639-2.256,8.01c0.994,1.453,2.715,2.945,4.379,3.613l-0.879,0.918c-1.627-0.727-3.156-2.064-4.246-3.461
			c-1.262,1.529-2.828,2.697-4.473,3.633L571.068,898.543z M574.586,886.748l-0.189,0.744c0.381,2.199,1.012,4.283,2.16,6.176
			c1.146-2.064,1.682-4.531,1.777-6.92H574.586z"/>
		<path fill="#F2F2F2" d="M592.791,890.705c0.152,2.83-0.842,4.779-1.855,5.945c-1.223,1.396-3.441,1.971-6.252,2.639l-0.783-1.07
			c1.625-0.344,3.23-0.65,4.703-1.357c2.121-1.014,2.943-3.154,3.002-6.156H592.791z M591.586,884.146h-5.393v-1.09h11.988v1.109
			h-5.43v2.256h7.648v1.053h-16.424v-1.053h7.609V884.146z M586.939,888.85h10.479v6.539h-1.129v-5.486h-8.221v5.793l-1.129,0.02
			V888.85z M598.813,899.348c-1.664-1.836-3.824-2.945-6.061-3.652l0.65-0.879c2.332,0.668,4.568,1.873,6.252,3.746L598.813,899.348
			z"/>
		<path fill="#F2F2F2" d="M432.967,908.258v1.875l4.301,0.018v10.574c0,0.439-0.268,0.859-0.648,1.109
			c-0.65,0.439-1.607,0.152-2.41,0.229l-0.4-1.242l1.701,0.057c0.211,0,0.4-0.152,0.496-0.344l0.078-0.287l-0.02-8.928h-7.15
			l0.018,10.975h-1.242v-12.16h4.053v-1.875h-4.855v-1.166h4.855v-2.141h1.225v2.141h5.066v1.166H432.967z M433.063,918.564v2.771
			h-1.186l-0.02-2.771h-2.447v-1.109h2.447v-1.605h-2.275v-1.129h1.645c-0.305-0.975-1.031-1.816-1.836-2.58l0.957-0.613
			c0.879,0.766,1.529,1.76,1.949,2.773c-0.248,0.113-0.459,0.248-0.688,0.381l0.898,0.039c0.746-0.994,1.301-2.045,1.645-3.211
			c0.383,0.113,0.707,0.344,1.07,0.496c-0.383,1.262-0.898,2.027-1.396,2.715h1.588l-0.02,1.129h-2.332l-0.02,1.625h2.523l0.02,1.07
			L433.063,918.564z M443.443,922.254c-2.313-3.117-2.408-7.227-2.6-11.146c-0.057-0.02-0.096,0-0.152,0
			c0.02,2.428,0.057,5.258-0.707,7.609c-0.402,1.281-0.938,2.467-1.76,3.557c-0.383-0.191-0.727-0.479-1.07-0.727
			c1.51-1.951,2.084-4.322,2.275-6.787c0.096-1.301,0.018-2.506,0.057-3.652h-1.873v-1.186h1.854v-4.914h1.205l0.02,4.914h3.174
			l0.02,1.186h-1.875c-0.02,1.242,0.115,2.58,0.23,3.844c-0.02,0.018-0.039,0.057-0.02,0.076c0.248,2.217,0.688,4.473,2.008,6.232
			l0.113,0.152L443.443,922.254z M442.68,909.426c-0.344-1.053-0.898-2.066-1.816-2.85l1.07-0.574
			c0.861,0.822,1.434,1.797,1.797,2.85C443.387,909.043,443.043,909.234,442.68,909.426z"/>
		<path fill="#F2F2F2" d="M447.25,913.191c0.709-1.129,1.186-2.867,1.529-4.303h-2.293v-1.107h2.523
			c0.211-0.822,0.307-1.721,0.4-2.602l1.129,0.326c-0.039,0.764-0.229,1.51-0.344,2.275h2.926v1.107h-3.193
			c-0.402,1.568-0.689,2.984-1.473,4.436h1.777v-2.561h1.186v2.561h2.047v1.109h-2.047v2.143l2.697-0.727v1.146l-2.697,0.727v4.684
			h-1.186v-4.436l-3.191,0.785l-0.631-0.994c1.375-0.326,2.656-0.594,3.822-0.918v-2.41h-2.982V913.191z M451.705,921.24
			c2.064-0.688,4.148-1.721,5.602-3.518c-0.936-1.434-1.625-3.021-1.949-4.723l1.109-0.42c0.268,1.453,0.84,2.791,1.605,4.033
			c0.746-1.281,1.318-2.734,1.605-4.225l1.07,0.516c-0.285,1.76-1.031,3.309-1.949,4.818c1.318,1.625,2.982,2.715,4.76,3.557
			l-0.879,1.014c-1.721-0.822-3.365-2.084-4.646-3.576c-1.529,1.682-3.479,2.867-5.506,3.594L451.705,921.24z M452.871,912.732
			c1.357-0.783,2.639-2.18,3.289-3.537l0.938,0.574c-0.594,1.453-1.932,2.828-3.27,3.746L452.871,912.732z M453.484,907.514h4.244
			c-0.498-0.785-1.34-1.492-2.199-1.875l0.938-0.727c0.879,0.383,1.777,1.244,2.352,2.027l-0.881,0.535l5.086,0.039v1.127h-9.539
			V907.514z M462.201,913.42c-0.744-1.375-1.873-2.695-3.287-3.459l0.822-0.766c1.184,0.459,2.867,2.371,3.422,3.48L462.201,913.42z
			"/>
		<path fill="#F2F2F2" d="M481.82,915.619v1.166l-6.75-0.018l-0.018,5.658l-1.225,0.02l-0.02-5.66l-7.725-0.018V915.6l2.447,0.02
			v-4.664h5.24v-2.83h-4.303c-0.668,1.377-1.395,2.752-2.619,3.881l-1.033-0.803c1.512-1.396,2.543-3.059,3.078-4.895l0.422-1.416
			c0.363,0.154,0.707,0.307,1.051,0.498c-0.076,0.555-0.268,1.051-0.42,1.588h11.07v1.146l-6.004,0.02l0.02,2.811h5.008l0.02,1.166
			l-4.99,0.02v3.479H481.82z M469.756,912.141v3.479h4.033l0.02-3.498L469.756,912.141z"/>
		<path fill="#F2F2F2" d="M493.102,912.885c-0.516,0.746-1.107,1.436-1.854,2.027c0.572,0.344,1.109,0.803,1.586,1.318l-0.707,0.977
			c-0.822-0.898-1.758-1.607-2.848-1.988v7.303l-1.281,0.02l0.018-7.609c-0.4,0.229-0.727,0.516-1.127,0.746
			c-0.498,0.285-0.957,0.631-1.473,0.879c-0.305-0.287-0.516-0.746-0.842-0.994c1.836-0.881,3.711-2.16,5.01-3.863
			c0.383-0.477,0.574-1.012,0.803-1.566h-5.258v-1.205l6.578,0.02c-0.059,0.479,0.113,1.07-0.154,1.49
			c-0.439,1.244-1.242,2.371-2.293,3.365v0.248l0.822,0.27c0.859-0.459,1.605-1.453,1.969-2.162L493.102,912.885z M488.686,906.424
			c0.307,0.477,0.611,0.994,0.783,1.529c-0.344,0.191-0.688,0.496-1.07,0.631c-0.305-1.148-0.955-2.219-2.064-2.869
			c0.307-0.189,0.688-0.42,0.994-0.648c0.307,0.152,0.535,0.42,0.783,0.648C488.303,905.982,488.514,906.156,488.686,906.424z
			 M491.936,906.5h8.662l0.018,3.346l-0.076,3.805c-0.037,2.199-0.133,4.396-0.496,6.5c-0.115,0.67-0.842,1.225-1.473,1.377
			c-1.014,0.096-1.988-0.115-2.926-0.324l-0.305-1.377c0.803,0.172,1.549,0.4,2.389,0.496c0.439,0.039,0.842-0.209,1.053-0.572
			c0.133-0.459,0.133-1.014,0.209-1.473c0.039-0.326,0.096-0.689,0.096-1.014c0.02-0.516,0.154-0.994,0.115-1.568
			c0.096-0.477,0.057-1.07,0.115-1.549c0-0.477,0.037-0.898,0.037-1.395l0.039-3.863l-0.02-1.203c-1.07-0.039-2.236,0.018-3.326,0
			v3.25c0,2.467-0.076,4.99-0.957,7.246c-0.688,1.758-2.293,3.402-3.994,4.359c-0.078,0.037-0.078-0.076-0.115-0.115
			c-0.268-0.268-0.535-0.574-0.842-0.859c0.994-0.555,1.988-1.281,2.754-2.123c0.822-0.898,1.242-2.084,1.453-3.174
			c0.133-0.191,0.076-0.516,0.172-0.746c0.268-2.389,0.344-5.545,0.287-7.838l-2.85-0.02L491.936,906.5z"/>
		<path fill="#F2F2F2" d="M503.678,908.889h2.484v-3.766h1.166v3.766h2.162v1.109h-2.162v3.9l1.875-0.822v1.281l-1.875,0.803v5.793
			c0,0.822-0.611,1.377-1.434,1.377h-1.625l-0.383-1.146c0.65,0.037,1.09,0.037,1.645,0.057c0.402,0,0.631-0.191,0.631-0.516v-5.182
			l-2.025,0.822l-0.785-1.014c0.938-0.307,1.912-0.574,2.811-0.975v-4.379h-2.484V908.889z M510.924,919.939
			c-0.422,0.977-1.129,1.971-2.104,2.525l-0.822-0.898c1.434-0.938,2.256-2.525,2.408-4.207c0.059-0.574,0.078-1.014,0.039-1.492
			l1.146,0.154c0.02,0.727-0.037,1.529-0.172,2.256l0.211,0.248c0.631,0.746,1.701,1.225,2.543,1.473v-5.201h-4.531v-1.09h10.688
			v1.09h-5.01v2.027h3.9v1.07h-3.9v2.391c1.396,0.152,2.982,0.172,5.697,0l-0.477,1.223h-3.959c-2.084,0-3.996-0.65-5.486-1.969
			L510.924,919.939z M510.465,905.869h8.297v6.539h-8.297V905.869z M511.631,906.959v1.566h5.965v-1.566H511.631z M511.631,909.578
			v1.74h5.965v-1.74H511.631z"/>
		<path fill="#F2F2F2" d="M523.066,921.336c1.09-0.459,1.912-1.127,2.313-1.51c1.529-1.529,2.447-3.346,2.41-5.965h-4.264
			l0.018-1.148h4.359l0.02-4.74c-1.127,0.285-2.352,0.496-3.557,0.572l-0.648-1.186c2.811-0.133,5.447-0.783,7.723-2.197
			l0.842,0.898c-0.994,0.668-2.064,1.127-3.154,1.566v5.105l4.951-0.02v-7.609h1.186v7.629l4.168-0.02l0.02,1.148l-4.168-0.02v8.641
			h-1.205v-8.621l-5.01-0.02c-0.076,2.084-0.457,4.053-1.701,5.678c-0.955,1.225-2.18,2.199-3.479,2.887L523.066,921.336z"/>
		<path fill="#F2F2F2" d="M541.422,921.049c0.096-0.783,0.191-1.109,0.459-1.645c0.516-1.031,1.396-2.025,2.771-3.154l0.633-0.516
			c2.523-2.064,3.479-3.365,3.479-4.666c0-1.375-1.09-2.369-2.58-2.369c-1.645,0-2.658,1.031-2.678,2.752l-1.721-0.191
			c0.23-2.561,1.797-3.957,4.436-3.957c2.543,0,4.283,1.549,4.283,3.805c0,1.625-0.957,3.078-3.365,5.105l-1.377,1.166
			c-1.127,0.955-1.586,1.453-1.969,2.064h6.73v1.605H541.422z"/>
		<path fill="#F2F2F2" d="M554.021,917.207c0.135,0.631,0.174,0.803,0.363,1.203c0.422,0.938,1.281,1.492,2.314,1.492
			c1.586,0,2.811-1.242,2.811-2.867c0-1.531-1.109-2.639-2.678-2.639c-0.363,0-0.631,0.037-1.186,0.172l0.191-1.473
			c0.135,0.02,0.191,0.02,0.268,0.02c1.645,0,2.793-0.938,2.793-2.295c0-1.242-0.938-2.121-2.238-2.121
			c-1.357,0-2.236,0.879-2.465,2.465l-1.684-0.305c0.402-2.256,1.912-3.557,4.111-3.557c2.275,0,3.996,1.549,3.996,3.557
			c0,1.242-0.65,2.217-1.875,2.752v0.039c0.613,0.133,0.842,0.229,1.205,0.496c0.861,0.594,1.357,1.645,1.357,2.85
			c0,2.447-1.988,4.283-4.607,4.283c-2.391,0-4.131-1.529-4.359-3.844L554.021,917.207z"/>
		<path fill="#F2F2F2" d="M563.83,919.137h1.912v1.912h-1.912V919.137z"/>
		<path fill="#F2F2F2" d="M569.969,917.207c0.133,0.631,0.172,0.803,0.363,1.203c0.42,0.938,1.281,1.492,2.313,1.492
			c1.588,0,2.811-1.242,2.811-2.867c0-1.531-1.107-2.639-2.676-2.639c-0.363,0-0.631,0.037-1.186,0.172l0.191-1.473
			c0.133,0.02,0.191,0.02,0.268,0.02c1.645,0,2.791-0.938,2.791-2.295c0-1.242-0.938-2.121-2.236-2.121
			c-1.357,0-2.238,0.879-2.467,2.465l-1.682-0.305c0.4-2.256,1.91-3.557,4.109-3.557c2.275,0,3.996,1.549,3.996,3.557
			c0,1.242-0.65,2.217-1.873,2.752v0.039c0.611,0.133,0.842,0.229,1.205,0.496c0.859,0.594,1.357,1.645,1.357,2.85
			c0,2.447-1.99,4.283-4.609,4.283c-2.389,0-4.129-1.529-4.359-3.844L569.969,917.207z"/>
		<path fill="#F2F2F2" d="M583.371,907.303c2.965,0,4.455,2.352,4.455,6.998c0,4.645-1.49,6.979-4.455,6.979
			c-1.777,0-3.135-0.938-3.822-2.658c-0.441-1.109-0.633-2.467-0.633-4.359C578.916,909.654,580.408,907.303,583.371,907.303z
			 M581.135,918.182c0.383,1.07,1.242,1.721,2.236,1.721s1.855-0.65,2.238-1.721c0.324-0.879,0.496-2.199,0.496-3.881
			c0-1.684-0.152-2.965-0.496-3.9c-0.383-1.053-1.244-1.701-2.256-1.701c-1.875,0-2.717,1.758-2.717,5.582
			C580.637,915.982,580.811,917.283,581.135,918.182z"/>
		<path fill="#F2F2F2" d="M592.74,907.131c1.816,0,2.965,1.395,2.965,3.633c0,2.18-1.168,3.613-2.965,3.613
			c-1.74,0-2.887-1.416-2.887-3.594C589.854,908.525,590.963,907.131,592.74,907.131z M591.326,910.82
			c0,1.568,0.496,2.391,1.453,2.391c0.994,0,1.473-0.803,1.473-2.523c0-1.588-0.518-2.391-1.473-2.391
			C591.785,908.297,591.326,909.1,591.326,910.82z M600.273,907.131h1.357l-7.457,14.436h-1.395L600.273,907.131z M601.594,914.32
			c1.816,0,2.963,1.395,2.963,3.613c0,2.197-1.166,3.633-2.963,3.633c-1.74,0-2.889-1.416-2.889-3.596
			C598.705,915.715,599.814,914.32,601.594,914.32z M600.178,918.01c0,1.566,0.498,2.389,1.453,2.389
			c0.994,0,1.473-0.803,1.473-2.523c0-1.586-0.498-2.408-1.473-2.408C600.637,915.467,600.178,916.289,600.178,918.01z"/>
	</g>
	<g>
		<path fill="#FFFFFF" d="M518.336,796.092h-6.826c0.014-1.643,0.857-2.885,2.199-3.785c1.301-0.941,2.984-1.727,3.014-3.283
			c0.014-0.715-0.285-1.771-1.686-1.771c-1.285,0-1.67,1.1-1.713,2.5h-1.629c0-2.215,1.215-3.857,3.441-3.857
			c2.443,0,3.215,1.785,3.215,3.07c0,1.586-1.086,2.572-2.229,3.371c-1.156,0.801-2.371,1.414-2.656,2.299h4.869V796.092z"/>
		<path fill="#FFFFFF" d="M526.359,791.094c0,2.271-0.586,5.199-3.455,5.199c-2.871,0-3.457-2.928-3.457-5.199
			s0.586-5.199,3.457-5.199C525.773,785.895,526.359,788.822,526.359,791.094z M524.732,791.094c0-2.086-0.4-3.842-1.828-3.842
			c-1.43,0-1.828,1.756-1.828,3.842s0.398,3.842,1.828,3.842C524.332,794.936,524.732,793.18,524.732,791.094z"/>
		<path fill="#FFFFFF" d="M527.672,787.752c1.371,0.014,2.67-0.457,2.914-1.656h1.328v9.996h-1.785v-7.055h-2.457V787.752z"/>
		<path fill="#FFFFFF" d="M536.652,786.096h5.17v1.455h-3.957l-0.514,2.543l0.029,0.029c0.441-0.486,1.17-0.758,1.842-0.758
			c1.984,0,3.127,1.428,3.127,3.342c0,1.6-0.998,3.586-3.455,3.586c-1.928,0-3.428-1.043-3.5-3.043h1.629
			c0.1,1.072,0.785,1.686,1.842,1.686c1.385,0,1.857-0.986,1.857-2.199c0-1.1-0.586-2.086-1.9-2.086
			c-0.686,0-1.355,0.215-1.613,0.914h-1.629L536.652,786.096z"/>
	</g>
	<g>
		<path fill="#FFFFFF" d="M591.289,753.184h-6.828c0.016-1.643,0.857-2.885,2.201-3.785c1.299-0.943,2.984-1.729,3.014-3.285
			c0.014-0.715-0.287-1.771-1.686-1.771c-1.285,0-1.672,1.1-1.715,2.5h-1.627c0-2.213,1.213-3.855,3.441-3.855
			c2.441,0,3.213,1.785,3.213,3.07c0,1.586-1.086,2.57-2.229,3.371c-1.156,0.799-2.369,1.414-2.656,2.299h4.871V753.184z"/>
		<path fill="#FFFFFF" d="M599.313,748.184c0,2.271-0.586,5.199-3.457,5.199s-3.455-2.928-3.455-5.199
			c0-2.27,0.584-5.197,3.455-5.197S599.313,745.914,599.313,748.184z M597.684,748.184c0-2.084-0.4-3.842-1.828-3.842
			s-1.828,1.758-1.828,3.842c0,2.086,0.4,3.842,1.828,3.842S597.684,750.27,597.684,748.184z"/>
		<path fill="#FFFFFF" d="M600.623,744.842c1.371,0.016,2.672-0.457,2.914-1.656h1.328v9.998h-1.785v-7.057h-2.457V744.842z"/>
		<path fill="#FFFFFF" d="M613.488,745.713c-0.07-0.813-0.613-1.371-1.457-1.371c-1.77,0-1.971,2.115-2.07,3.428l0.029,0.029
			c0.441-0.785,1.27-1.186,2.156-1.186c1.984,0,3.156,1.443,3.156,3.355c0,1.943-1.328,3.414-3.328,3.414
			c-2.941,0-3.643-2.313-3.643-5.227c0-2.385,0.943-5.17,3.771-5.17c1.586,0,2.928,1.1,3.014,2.727H613.488z M613.674,749.941
			c0-1.072-0.586-2.043-1.756-2.043c-1.186,0-1.801,0.943-1.801,2.043c0,1.086,0.615,2.084,1.801,2.084
			C613.088,752.025,613.674,751.012,613.674,749.941z"/>
	</g>
	<g>
		<path opacity="0.698" fill-rule="evenodd" clip-rule="evenodd" fill="#144F84" d="M514.811,841.857
			c28.316,0.531,51.705-21.988,52.236-50.305c0.547-28.316-21.988-51.707-50.305-52.236c-0.324-0.016-0.635-0.016-0.959-0.016
			v17.094c18.877,0,34.186,15.307,34.186,34.184c0,18.893-15.309,34.203-34.186,34.203c-0.221,0-0.426-0.018-0.648-0.018
			L514.811,841.857z"/>
		<path opacity="0.698" fill-rule="evenodd" clip-rule="evenodd" fill="#595959" d="M515.783,739.301
			c-28.33,0-51.293,22.961-51.293,51.277c0,27.947,22.387,50.748,50.32,51.279l0.324-17.094
			c-18.877-0.352-33.891-15.943-33.537-34.818c0.355-18.627,15.545-33.551,34.186-33.551V739.301z"/>
		<path opacity="0.8" fill-rule="evenodd" clip-rule="evenodd" fill="#2A79BE" d="M447.662,796.596
			c3.32,37.607,36.502,65.422,74.123,62.104c37.623-3.318,65.422-36.502,62.104-74.123c-3.111-35.293-32.682-62.367-68.105-62.367
			v17.092c28.316,0,51.277,22.961,51.277,51.277c0,28.332-22.961,51.293-51.277,51.293c-26.576,0-48.756-20.307-51.086-46.779
			L447.662,796.596z"/>
		<path opacity="0.8" fill-rule="evenodd" clip-rule="evenodd" fill="#797979" d="M515.783,722.209
			c-37.768,0-68.385,30.617-68.385,68.369c0,2.006,0.086,4.012,0.264,6.018l17.035-1.504c-2.492-28.211,18.361-53.107,46.572-55.584
			c1.506-0.133,3.01-0.207,4.514-0.207V722.209z"/>
	</g>
</g>
</svg>
