<?xml version="1.0" encoding="utf-8"?>
<!-- Generator: Adobe Illustrator 16.0.0, SVG Export Plug-In . SVG Version: 6.00 Build 0)  -->
<!DOCTYPE svg PUBLIC "-//W3C//DTD SVG 1.1//EN" "http://www.w3.org/Graphics/SVG/1.1/DTD/svg11.dtd">
<svg version="1.1" id="Layer_1" xmlns="http://www.w3.org/2000/svg" xmlns:xlink="http://www.w3.org/1999/xlink" x="0px" y="0px"
	 width="768px" height="1024px" viewBox="0 0 768 1024" enable-background="new 0 0 768 1024" xml:space="preserve">
<rect x="98.188" y="122.435" opacity="0.302" fill-rule="evenodd" clip-rule="evenodd" fill="#D9D9D9" width="571.624" height="126.614"/>
<rect x="104.734" y="129.88" fill="none" stroke="#C2DCF3" stroke-miterlimit="10" width="558.523" height="111.72"/>
<g>
	<path fill="#C1DBF2" d="M127.534,168.148c3.153-2.014,5.414-4.882,6.401-7.979h-5.281v-1.444l6.858,0.019v-2.963h1.481
		l-0.019,2.963l6.782-0.019v1.444h-5.072c0.836,3.343,3.495,6.212,6.212,7.808l-1.026,1.216c-4.901-3.704-5.566-5.737-6.857-9.251
		l-0.038,6.744h3.666v1.425l-3.647-0.019l-0.019,4.673h-1.444l-0.019-4.673l-3.762,0.019v-1.425l3.762,0.019v-6.763
		c-1.311,4.142-3.533,6.991-6.801,9.347L127.534,168.148z"/>
	<path fill="#C1DBF2" d="M146.78,165.754c2.394-1.368,4.294-3.495,5.852-5.718l1.158,0.779c-0.531,0.969-1.614,2.242-2.317,3.096
		v8.758h-1.463v-7.257c-0.323,0.304-1.387,1.007-2.108,1.52L146.78,165.754z M147.027,160.53c1.995-1.387,3.533-3.097,4.807-5.091
		l1.12,0.874c-1.272,1.918-2.85,3.932-4.654,5.205L147.027,160.53z M155.728,171.111c0.969,0.076,1.805,0.076,2.621,0.057
		c0.209-0.057,0.418-0.19,0.418-0.456v-7.789h-4.863v-1.406l9.783,0.019v1.387l-3.381,0.019l-0.02,7.941
		c0,0.665-0.342,1.159-0.816,1.444c-0.513,0.285-2.317,0.266-3.287,0.228L155.728,171.111z M162.529,158.326h-8.169l-0.02-1.406
		l8.188-0.019V158.326z"/>
	<path fill="#C1DBF2" d="M172.905,169.25c-1.368,1.178-3.667,2.299-5.452,2.85l-0.988-1.235c1.976-0.589,3.951-1.444,5.547-2.641
		L172.905,169.25z M168.421,162.848h-1.368v-6.402h1.368V162.848z M178.395,162.695c-1.463,1.406-4.236,3.287-7.048,4.123
		l6.459-0.76c-0.38-0.38-0.912-0.684-1.179-0.817l1.159-0.817c1.121,0.646,2.317,1.672,3.191,3.191l-1.254,0.931
		c-0.342-0.57-0.778-1.083-0.987-1.368l-3.762,0.551v3.723c-0.133,0.608-0.779,1.064-1.368,1.178l-1.272-0.019l-0.665-1.462
		c0.722,0.095,0.969,0.19,1.672,0.209c0.323,0,0.171-0.399,0.209-0.741l0.02-2.754c-1.521,0.152-3.211,0.399-4.959,0.722
		l-0.798-1.615c1.938-0.551,3.42-1.216,5.281-2.108l-3.951,0.627l-0.646-1.425c1.216-0.551,2.26-1.311,3.267-2.204l-1.082-0.038
		v-6.174h1.387v5.927l0.684-0.684l1.045,1.045c-0.969,1.026-1.558,1.349-2.45,1.881l3.647-0.304
		c0.664-0.494,1.329-0.988,2.089-1.671L178.395,162.695z M181.416,156.407v1.159c-0.703,1.026-1.596,1.729-2.299,2.223
		c0.854,0.437,2.052,0.741,3.515,1.007l-1.007,1.349c-1.482-0.323-2.773-0.893-3.914-1.5c-1.045,0.551-2.241,0.95-3.552,1.272
		l-1.141-1.178c1.103-0.285,2.641-0.627,3.306-1.007c-0.627-0.475-1.443-1.102-1.976-1.9h-1.539v-1.406L181.416,156.407z
		 M180.921,172.023c-1.577-1.387-3.153-2.298-5.148-2.925l0.836-1.121c1.919,0.646,3.666,1.52,5.263,2.926L180.921,172.023z
		 M176.039,157.813c0.343,0.342,0.988,0.912,1.634,1.235c0.665-0.38,1.387-0.817,1.748-1.235H176.039z"/>
	<path fill="#C1DBF2" d="M191.961,169.25c-1.368,1.178-3.667,2.299-5.452,2.85l-0.988-1.235c1.976-0.589,3.951-1.444,5.547-2.641
		L191.961,169.25z M187.478,162.848h-1.368v-6.402h1.368V162.848z M197.452,162.695c-1.463,1.406-4.236,3.287-7.048,4.123
		l6.459-0.76c-0.38-0.38-0.912-0.684-1.179-0.817l1.159-0.817c1.121,0.646,2.317,1.672,3.191,3.191l-1.254,0.931
		c-0.342-0.57-0.778-1.083-0.987-1.368l-3.762,0.551v3.723c-0.133,0.608-0.779,1.064-1.368,1.178l-1.272-0.019l-0.665-1.462
		c0.722,0.095,0.969,0.19,1.672,0.209c0.323,0,0.171-0.399,0.209-0.741l0.02-2.754c-1.521,0.152-3.211,0.399-4.959,0.722
		l-0.798-1.615c1.938-0.551,3.42-1.216,5.281-2.108l-3.951,0.627l-0.646-1.425c1.216-0.551,2.26-1.311,3.267-2.204l-1.082-0.038
		v-6.174h1.387v5.927l0.684-0.684l1.045,1.045c-0.969,1.026-1.558,1.349-2.45,1.881l3.647-0.304
		c0.664-0.494,1.329-0.988,2.089-1.671L197.452,162.695z M200.472,156.407v1.159c-0.703,1.026-1.596,1.729-2.299,2.223
		c0.854,0.437,2.052,0.741,3.515,1.007l-1.007,1.349c-1.482-0.323-2.773-0.893-3.914-1.5c-1.045,0.551-2.241,0.95-3.552,1.272
		l-1.141-1.178c1.103-0.285,2.641-0.627,3.306-1.007c-0.627-0.475-1.443-1.102-1.976-1.9h-1.539v-1.406L200.472,156.407z
		 M199.978,172.023c-1.577-1.387-3.153-2.298-5.148-2.925l0.836-1.121c1.919,0.646,3.666,1.52,5.263,2.926L199.978,172.023z
		 M195.095,157.813c0.343,0.342,0.988,0.912,1.634,1.235c0.665-0.38,1.387-0.817,1.748-1.235H195.095z"/>
	<path fill="#C1DBF2" d="M205.072,172.802v-16.186h14.361v16.205h-1.425v-1.234h-11.512l-0.02,1.216H205.072z M206.497,170.124
		h11.512l-0.019-12.083h-11.493V170.124z M212.423,163.038v1.102h4.712c0,1.634-0.058,2.679-0.38,3.837
		c-0.096,0.38-0.514,0.969-1.121,1.026c-0.646,0.057-1.14,0.076-1.862-0.057l-0.209-1.387l1.387,0.19
		c0.229,0.057,0.399-0.076,0.456-0.171c0.134-0.323,0.134-0.589,0.19-0.95l0.151-1.121h-3.324v4.179h-1.425v-4.161h-3.933
		l-0.019-1.368h3.951v-1.102h-3.153v-1.368h3.153v-0.854h-3.951l0.019-1.368h3.933v-1.007l1.463-0.019l-0.019,1.026h4.407v1.387
		h-4.407v0.816h3.704v1.368H212.423z"/>
	<path fill="#C1DBF2" d="M229.087,169.155l-5.319,2.317l-0.893-1.311c0.893-0.228,1.881-0.551,3.077-1.064l3.135-1.349V169.155z
		 M223.123,162.145c0.874-1.197,1.576-2.451,2.146-3.686l1.311-2.831l1.292,0.665c-0.893,2.033-1.919,3.989-3.001,5.49
		c0.513-0.076,1.405-0.323,2.223-0.475c0.304-0.475,0.455-0.703,0.835-1.558l1.197,0.722c-0.665,1.425-1.14,2.261-2.052,3.496
		c-0.456,0.608-1.083,1.463-1.634,1.862l3.115-0.703l-0.019,1.444c-1.672,0.361-3.021,0.722-4.692,1.083l-0.665-1.254
		c1.33-1.254,2.317-2.47,2.964-3.533l-2.299,0.494L223.123,162.145z M239.555,165.146v1.368h-3.856v3.894
		c0,0.152,0.133,0.19,0.247,0.19h1.976c0.285,0,0.38-0.266,0.456-0.646c0.057-0.342,0.171-0.931,0.171-1.52l1.425,0.722
		c-0.171,0.931-0.267,2.146-1.197,2.641c-0.247,0.095-0.437,0.133-0.778,0.133h-2.223c-0.761,0-1.521-0.665-1.521-1.634v-3.78
		l-1.558,0.019c-0.114,2.413-0.778,4.028-2.679,5.225c-0.589,0.361-0.949,0.646-1.729,0.874l-0.969-1.197
		c1.729-0.494,3.438-1.767,3.8-3.647c0.075-0.437,0.151-0.893,0.133-1.272h-2.261l0.019-1.368H239.555z M228.708,163.55
		c1.672-0.342,3.458-0.76,4.769-1.5c-0.513-0.627-0.969-1.425-1.292-2.28l-3.04,0.152l-0.113-1.33l2.659-0.152
		c-0.114-0.551-0.228-1.33-0.456-2.26l1.444-0.437c0.076,0.969,0.285,1.899,0.531,2.603l5.984-0.342l0.058,1.349l-5.528,0.323
		c0.189,0.456,0.569,1.178,0.987,1.577c0.551-0.304,1.121-0.779,1.748-1.444l0.931,0.912c-0.646,0.741-1.292,1.159-1.729,1.501
		c0.513,0.456,1.025,0.779,1.823,1.045c0.171,0.057,0.418,0,0.514-0.095c0.342-0.456,0.38-0.931,0.627-1.653l1.234,0.722
		c-0.323,0.95-0.684,2.052-1.71,2.394c-0.836,0.285-1.501-0.114-2.165-0.513c-0.57-0.361-1.141-0.665-1.559-1.044
		c-1.481,0.76-2.925,1.368-4.977,1.709L228.708,163.55z"/>
	<path fill="#C1DBF2" d="M255.591,172.802l-4.978-8.587l4.92-8.625h1.026l-4.863,8.625l4.92,8.587H255.591z M258.118,172.802
		l-4.863-8.587l4.807-8.625h1.082l-4.882,8.625l4.882,8.587H258.118z"/>
	<path fill="#C1DBF2" d="M273.11,158.155h0.874v1.938h-1.786v-1.52c0-0.931,0-2.242,1.521-2.926l0.418,0.646
		C273.167,156.692,273.128,157.623,273.11,158.155z M275.998,158.155h0.874v1.938h-1.786v-1.52c0-0.931,0-2.242,1.52-2.926
		l0.418,0.646C276.054,156.692,276.016,157.623,275.998,158.155z"/>
	<path fill="#C1DBF2" d="M287.968,155.572h1.596v6.383h6.763l0.02,1.444l-6.782,0.019l0.019,9.403h-1.614v-9.403h-6.763v-1.463
		h6.763V155.572z"/>
	<path fill="#C1DBF2" d="M315.554,169.42v1.482h-15.406l-0.02-1.482H315.554z M301.173,157.946l13.279,0.019v1.481l-13.298,0.019
		L301.173,157.946z M313.351,163.456v1.481l-11.113,0.019v-1.5H313.351z"/>
	<path fill="#C1DBF2" d="M331.687,169.572h3.039v1.444l-15.844,0.019v-1.463h4.674l0.816-5.889h-3.495v-1.482h3.666l0.57-3.381
		h-5.452v-1.463h14.248v1.463h-7.238l-0.551,3.381l6.288,0.019L331.687,169.572z M325.17,169.554h4.978l0.627-5.87l-4.825-0.019
		L325.17,169.554z"/>
	<path fill="#C1DBF2" d="M338.927,160.188l-0.418-0.646c0.969-0.399,1.007-1.33,1.025-1.862h-0.874v-1.938h1.786v1.52
		C340.447,158.193,340.447,159.504,338.927,160.188z M341.815,160.188l-0.418-0.646c0.969-0.399,1.007-1.33,1.025-1.862h-0.874
		v-1.938h1.786v1.52C343.334,158.193,343.334,159.504,341.815,160.188z"/>
	<path fill="#C1DBF2" d="M372.307,172.631c-2.906-0.684-3.989-1.615-5.813-2.944c-1.615,1.577-3.762,2.489-6.003,2.907l-0.836-1.197
		c2.526-0.551,4.369-1.292,5.832-2.641c-0.665-0.646-2.071-2.678-2.564-3.742c-1.026,3.001-3.211,5.319-5.719,7.143l-1.045-1.216
		c3.249-2.014,5.548-5.376,6.402-9.176h-4.351v-1.273l1.748-4.35l1.272,0.665l-1.425,3.572h3.116c0.36-1.368,0.551-2.85,0.74-4.616
		l1.387,0.361c-0.228,1.634-0.418,3.021-0.684,4.255h8.188v1.387h-8.511c-0.171,0.475-0.342,1.064-0.494,1.482h6.497v1.178
		c-0.646,1.52-1.576,3.097-2.659,4.293c1.596,1.311,3.533,2.166,5.908,2.754L372.307,172.631z M364.272,164.633
		c0.418,0.817,1.387,2.413,2.146,3.097c0.854-0.95,1.558-2.033,2.014-3.097H364.272z M368.945,160.017
		c-0.722-1.197-1.805-2.033-3.021-2.736l0.988-0.931c1.254,0.665,2.336,1.577,3.191,2.754L368.945,160.017z"/>
	<path fill="#C1DBF2" d="M378.637,165.583c0.019,3.249-0.646,4.844-1.976,7.295l-1.292-0.836c1.272-1.995,1.805-4.464,1.805-6.706
		v-8.644h13.412v4.388h-11.968L378.637,165.583z M389.143,158.079l-10.505-0.019v1.653h10.505V158.079z M386.104,167.122
		c0.246,0.684,0.74,1.577,1.404,2.166c0.646-0.418,1.273-1.178,1.787-1.995l1.158,0.874c-0.646,0.836-1.215,1.425-1.918,1.938
		c0.949,0.665,2.26,1.026,3.875,1.273l-0.949,1.349c-2.775-0.57-5.643-1.957-6.859-5.604h-2.09v3.761l3.097-1.102l0.02,1.444
		l-4.389,1.653l-1.235-1.007c0.685-0.19,1.159-0.494,1.064-1.121v-3.628h-2.128l0.019-1.368l3.04-0.019v-1.767h-2.641v-1.387
		l2.641,0.019v-1.254l1.443-0.019v1.273h3.192l0.02-1.254h1.424v1.254l2.717-0.019l-0.02,1.387h-2.697v1.786h3.457v1.368H386.104z
		 M386.635,165.754v-1.786h-3.21l0.019,1.767L386.635,165.754z"/>
	<path fill="#C1DBF2" d="M394.047,171.358c1.424-1.444,3.324-4.142,3.703-7.428h-3.305v-1.33h3.324c0.057-0.798,0-1.729,0-2.564
		h-2.793v-1.368h2.773v-2.869h1.445v2.85h2.355v1.368h-2.318c-0.02,1.159,0.02,1.805,0,2.603h2.508v1.311l-2.604,0.019
		c-0.359,4.104-2.469,6.953-4.045,8.473L394.047,171.358z M398.207,171.301c2.469-0.95,4.711-2.033,5.793-4.882
		c0.818-2.166,1.027-4.806,1.311-7.732l1.33,0.19c-0.113,2.223-0.303,3.705-0.627,5.566c-0.645,3.59-2.014,6.136-6.934,8.112
		L398.207,171.301z M401.094,169.458c-0.588-1.235-1.387-2.489-2.203-3.153l1.045-0.76c0.779,0.589,1.766,1.881,2.299,3.078
		L401.094,169.458z M409.662,156.521v10.657h-1.387v-9.347h-4.844v9.347h-1.387v-10.657H409.662z M405.805,165.659h1.406v4.692
		c0.039,0.057,0.076,0.076,0.152,0.114h2.051c0.361-0.171,0.514-1.045,0.57-1.406l0.057-0.437l1.217,0.494
		c-0.229,1.007-0.285,2.451-1.596,2.679h-2.203c-1.084,0-1.635-0.741-1.635-1.311L405.805,165.659z"/>
	<path fill="#C1DBF2" d="M423.268,163.151c-0.836,1.748-2.109,3.306-3.381,4.56c0.512,1.235,1.234,2.336,2.432,3.286
		c0.246,0.133,0.266,0.057,0.342-0.076c0.285-1.045,0.475-1.748,0.607-2.432l1.367,0.532c-0.189,1.178-0.531,2.166-1.102,3.116
		c-0.305,0.494-0.646,0.646-1.311,0.494c-0.799-0.171-1.33-0.646-1.9-1.406c-0.645-0.874-1.271-1.709-1.652-2.526
		c-1.121,0.779-2.395,1.709-4.084,2.355l-1.121-1.197c1.805-0.665,3.324-1.539,4.635-2.564c-0.57-1.577-0.988-3.382-1.197-5.091
		l-2.678,0.38l-0.189-1.368l2.678-0.399c-0.076-1.596-0.17-3.21-0.152-5.129h1.482l0.02,2.185l0.17,2.736l5.605-0.855l0.189,1.406
		l-5.643,0.836c0.209,1.539,0.438,2.831,0.932,4.274c1.139-1.197,2.051-2.527,2.811-3.952L423.268,163.151z M421.102,159.941
		c-0.664-1.159-1.52-2.09-2.754-2.754c0.455-0.361,0.74-0.57,1.063-0.893c1.178,0.589,2.109,1.615,2.85,2.717
		C421.861,159.295,421.576,159.656,421.102,159.941z M426.137,157.927v10.752h-1.426v-10.752H426.137z M427.77,171.244
		c0.189-0.038,0.455-0.076,0.455-0.494l-0.018-15.122l1.443,0.019v15.388c0,0.722-0.342,1.197-0.912,1.444
		c-0.703,0.285-1.443,0.171-2.432,0.171l-0.514-1.463L427.77,171.244z"/>
	<path fill="#C1DBF2" d="M433.244,171.187l-0.818-1.234c2.318-0.684,3.951-1.254,6.422-2.128c0.02,0.494-0.02,0.912,0,1.33
		L433.244,171.187z M436.359,161.669c0.418-0.646,0.873-1.349,1.348-2.279l1.16,0.969c-1.539,2.622-2.813,4.332-4.352,6.022
		l4.275-1.026v1.311c-1.9,0.532-3.742,0.931-5.338,1.425l-0.818-1.273c1.141-1.444,2.355-2.926,2.832-3.686l-2.299,0.494
		l-0.646-1.216c1.52-2.166,2.945-5.187,3.609-6.668l1.197,0.817c-0.779,1.596-2.09,4.103-3.039,5.471L436.359,161.669z
		 M448.461,156.483v14.514c-0.059,0.513-0.438,1.14-0.988,1.311c-0.57,0.19-1.234,0.114-1.938,0.095l-0.514-1.387l1.748,0.076
		c0.113-0.038,0.209-0.114,0.266-0.228v-13.051h-6.346v14.799h-1.404v-16.128H448.461z M442.152,159.124
		c0.855,1.045,1.559,2.318,2.033,3.268c0.514-0.912,1.025-2.242,1.367-3.381l1.236,0.494c-0.457,1.577-1.369,3.496-1.787,4.426
		c0.666,1.178,1.369,2.983,1.863,4.56l-1.254,0.722c-0.418-1.444-0.932-2.812-1.33-3.837c-0.855,1.976-1.463,2.926-2.242,3.99
		l-1.121-0.874c0.875-1.14,2.109-3.419,2.604-4.56c-0.686-1.272-1.502-2.697-2.471-4.141L442.152,159.124z"/>
	<path fill="#C1DBF2" d="M453.838,164.367l-0.018-5.091l3.912,0.038v-1.273l-5.395-0.019v-1.349h16.148v1.33h-5.34l-0.018,1.311
		l3.988-0.038l-0.018,5.091h-7.162l0.777,0.627l-0.797,0.874h8.416l-0.02,1.311l-3.229,0.019c-0.553,0.855-1.33,1.653-1.977,2.147
		c0.855,0.266,1.957,0.665,3.02,1.178c0.686,0.323,1.389,0.665,2.225,1.159l-1.027,1.121c-1.729-0.912-4.084-1.881-5.793-2.375
		c-2.146,1.254-5.547,2.052-8.814,2.28l-1.008-1.33c3.002-0.152,5.129-0.456,7.484-1.368c-1.063-0.19-2.867-0.38-4.482-0.551
		l2.033-2.242h-4.219v-1.349l5.51-0.019l1.387-1.463L453.838,164.367z M455.283,163h2.412l0.037-2.375h-2.449V163z M458.701,167.179
		l-1.045,1.14c0.703,0.114,1.387,0.133,2.375,0.323c0.342,0.076,1.008,0.19,1.273,0.228c0.797-0.494,1.615-1.102,2.051-1.672
		L458.701,167.179z M459.215,158.003v1.272h2.432v-1.272H459.215z M459.215,160.625v2.394h2.451l-0.02-2.394H459.215z
		 M463.146,160.625v2.394h2.471l-0.02-2.394H463.146z"/>
	<path fill="#C1DBF2" d="M471.756,172.802h-1.025l4.883-8.587l-4.883-8.625h1.082l4.807,8.625L471.756,172.802z M474.283,172.802
		h-1.025l4.92-8.587l-4.863-8.625h1.025l4.92,8.625L474.283,172.802z"/>
	<path fill="#C1DBF2" d="M504.188,166.78v1.311h-5.643v2.47h7.467v1.292h-16.186v-1.292h7.313v-2.47h-5.49v-1.311h5.49v-1.88h1.406
		v1.88H504.188z M491.174,165.184v-8.663h1.406v8.663H491.174z M496.133,166.153h-1.443l0.018-10.429l1.369-0.019l0.018,7.846
		c1.369-0.266,2.869-0.722,4.01-1.615c-1.008-1.102-1.787-2.583-2.375-3.895h-1.217v-1.292h8.359v1.063
		c-0.646,1.292-1.918,3.306-2.813,4.142c1.16,0.912,2.66,1.368,4.484,1.786l-1.045,1.197c-1.672-0.456-3.191-1.083-4.408-2.052
		c-1.271,0.988-2.717,1.653-4.482,2.09l-0.457-0.779L496.133,166.153z M499.172,158.041c0.246,0.646,0.646,1.444,1.217,2.185
		c0.266,0.361,0.531,0.703,0.701,0.817c0.855-0.893,1.596-1.995,2.053-3.002H499.172z"/>
	<path fill="#C1DBF2" d="M509.375,171.301c0.855,0.038,1.596,0.171,2.148-0.038c0.094-0.076,0.189-0.228,0.189-0.437v-4.578
		c-0.438,0.209-1.406,0.589-2.129,0.779c-0.303-0.399-0.588-0.703-0.949-1.197c1.158-0.38,2.203-0.665,3.078-1.007v-4.027h-2.604
		v-1.349h2.604l-0.02-3.78h1.463v3.78h2.279l0.02,1.349h-2.299v3.533c0.514-0.19,1.273-0.532,2.186-0.893v1.539l-2.186,0.817
		l-0.02,5.471c0,0.722-0.322,1.463-1.539,1.463h-1.766L509.375,171.301z M519.578,172.688c-0.209-0.456-0.361-0.836-0.551-1.463
		c0.854,0.114,1.52,0.095,2.164,0.095c0.152-0.019,0.305-0.152,0.381-0.323v-4.312h-6.668v-1.349h6.668l0.02-1.462h1.443v1.462
		h2.793v1.349h-2.813v4.616c-0.096,0.76-0.475,1.254-1.52,1.406L519.578,172.688z M521.078,158.326h3.59v1.349l-3.59,0.019v2.356
		l4.635-0.019v1.349l-10.467,0.019v-1.368h4.369v-2.356h-3.686l0.02-1.349h3.666v-2.679h1.463V158.326z M518.951,170.58
		c-0.932-0.817-2.109-1.767-3.42-2.299l0.949-1.045c1.273,0.513,2.338,1.292,3.439,2.28L518.951,170.58z"/>
	<path fill="#C1DBF2" d="M534.266,159.2c-0.475,1.861-2.223,4.312-4.559,5.965l-1.121-1.121c2.449-1.653,3.629-3.135,4.463-5.604
		L534.266,159.2z M541.75,172.289c-0.246-0.817-0.531-1.463-0.836-2.109c-2.014,0.361-7.561,1.083-9.309,1.558l-0.949-1.387
		c3.078-2.679,4.273-6.478,4.635-8.492l1.463,0.494c-0.342,2.527-1.576,5.11-3.855,7.618c3.076-0.437,5.148-0.684,7.389-1.083
		c-0.551-0.874-1.082-1.539-2.031-2.432l1.404-0.627c1.691,1.615,2.832,3.59,3.533,5.794L541.75,172.289z M543.498,165.165
		c-2.66-1.463-4.273-4.901-4.844-6.972h-4.92v-1.444l6.135,0.019c0.703,2.831,1.938,5.642,4.693,7.295L543.498,165.165z"/>
	<path fill="#C1DBF2" d="M560.352,161.271h-12.254l0.02-1.443h12.215L560.352,161.271z M558.527,171.092
		c0.949,0.095,1.559,0.133,2.279,0.095c0.381,0.019,0.494-0.228,0.494-0.475v-12.785h-12.271v-1.444h13.811l0.02,14.59
		c0,0.684-0.381,1.216-0.893,1.463c-0.686,0.228-2.242,0.133-2.945,0.152L558.527,171.092z M556.779,170.143v-1.33l-5.053,0.019
		v1.368h-1.5v-7.105l8.111,0.019l-0.02,7.029H556.779z M556.779,164.538h-5.053v2.85h5.053V164.538z"/>
	<path fill="#C1DBF2" d="M575.551,156.521c1.957,2.432,4.504,4.635,7.752,5.585l-1.16,1.178c-1.311-0.437-2.449-1.102-3.305-1.672
		l0.02,0.779l-3.457-0.019l0.018,2.204h5.148l0.02,1.368l-5.186,0.019l0.018,4.56l6.801-0.019v1.387h-15.045l-0.02-1.387l6.82,0.019
		v-4.579l-5.244,0.019l-0.018-1.387h5.262v-2.204l-3.457,0.019v-0.817c-0.932,0.608-2.129,1.292-3.457,1.9l-0.971-1.197
		c2.832-1.272,6.422-3.4,8.549-7.048l1.178,0.798L575.551,156.521z M571.523,170.218c-0.512-1.254-1.102-2.298-2.184-3.305
		l1.291-0.608c0.799,0.627,1.92,2.336,2.279,3.324L571.523,170.218z M577.965,161.005c-1.045-0.874-2.432-2.128-3.268-3.306
		c-0.818,1.026-2.166,2.47-3.363,3.268L577.965,161.005z M576.064,169.535c1.254-0.893,2.127-2.09,2.754-3.401l1.16,0.836
		c-0.609,1.311-1.426,2.527-2.623,3.458L576.064,169.535z"/>
	<path fill="#C1DBF2" d="M595.482,156.389v1.368h-10.41v-1.368H595.482z M593.279,164.386h-5.889v8.207h-1.369v-9.632h8.625v7.846
		c-0.057,0.627-0.475,1.178-1.006,1.387c-0.607,0.247-1.025,0.208-1.768,0.208l-0.494-1.349c0.799-0.038,1.16,0.19,1.635-0.038
		c0.398-0.19,0.266-0.76,0.266-1.539V164.386z M586.877,162.221v-3.686h6.877v3.686H586.877z M592.824,167.084v1.368h-1.863v3.059
		h-1.33v-3.04h-1.746v-1.425h1.291c-0.305-0.665-0.932-1.406-1.576-1.691l0.986-0.646c0.646,0.38,1.426,1.14,1.711,1.824
		l-0.799,0.532l1.045,0.019c0.742-0.817,1.008-1.691,1.293-2.432l1.234,0.494c-0.342,0.589-0.723,1.501-1.158,1.957L592.824,167.084
		z M592.348,159.865h-4.084v1.064h4.084V159.865z M596.717,171.643c-0.455,0.133-0.588,0.171-1.119,0.361l-0.666-1.387
		c1.141-0.247,1.691-0.342,2.488-0.551v-3.477h-2.146v-7.048h2.146v-3.799h1.35v3.799h2.184v7.048h-2.184l0.02,3.116l1.102-0.266
		c-0.133-0.266-0.438-0.779-0.875-1.311l1.197-0.437c0.76,0.874,1.273,1.88,1.596,2.869l0.418,1.253l-1.424,0.494
		c-0.133-0.665-0.285-1.33-0.438-1.729L596.717,171.643z M597.42,160.91h-0.816v4.293h0.816V160.91z M598.77,165.203h0.932v-4.293
		h-0.932V165.203z"/>
	<path fill="#C1DBF2" d="M613.305,166.153c-0.438-0.722-1.463-1.938-2.318-2.678l1.064-1.064c0.988,0.741,1.977,1.672,2.604,2.432
		L613.305,166.153z"/>
	<path fill="#C1DBF2" d="M638.346,156.635v1.33h-5.908v0.741h6.877v3.381h-1.463v-2.051h-5.414v2.317l0.418,0.323l-0.322,0.342
		c2.014,1.767,4.768,2.716,7.959,3.115l-0.777,1.33c-2.68-0.266-5.453-1.292-8.074-3.477c-2.033,1.691-4.883,2.963-7.826,3.667
		l-0.762-1.349c3.611-0.95,6.518-1.976,7.922-3.724v-2.545h-5.432v2.166h-1.426v-3.496h6.857v-0.741h-5.945v-1.33H638.346z
		 M625.922,163.437v-1.178h3.857v1.178H625.922z M629.74,161.669h-3.609v-1.197h3.609V161.669z M628.543,169.06
		c1.141,0.209,2.072,0.494,3.002,0.779c1.217-0.418,1.881-0.798,2.869-1.33l-8.018-0.038v-1.33h10.43v1.197
		c-1.178,1.007-2.488,1.805-3.514,2.242c0.438,0.247,1.367,0.665,2.166,1.253l-0.855,1.216c-2.127-1.481-4.332-2.298-6.953-2.812
		L628.543,169.06z M632.609,166.989c-0.703-0.608-1.615-1.064-2.508-1.292l0.988-0.855c0.816,0.19,1.748,0.57,2.525,1.159
		L632.609,166.989z M637.264,161.669h-3.781v-1.178h3.781V161.669z M637.492,163.437h-4.01v-1.178h4.01V163.437z"/>
	<path fill="#C1DBF2" d="M146.086,180.727c-0.323-0.456-1.083-1.102-1.691-1.482l1.501-0.779c0.855,0.627,1.558,1.463,1.881,2.242
		l5.813,0.019v1.387l-6.155-0.019v0.969l5.091-0.019v1.254h-5.091v0.988l5.091-0.019v1.234h-5.091v1.064h6.782v1.387l-13.014-0.019
		l-0.019,0.703h-1.425v-5.718c-0.247,0.266-0.779,0.931-1.406,1.463l-1.272-0.893c1.995-1.671,3.324-3.723,4.198-5.984l1.273,0.589
		c-0.285,0.722-0.59,1.292-0.741,1.634H146.086z M152.393,195.507h-1.425v-1.045h-9.365v1.102h-1.444l-0.019-5.718h12.272
		L152.393,195.507z M141.204,182.095v0.95h4.825v-0.931L141.204,182.095z M146.029,185.268v-0.988l-4.825,0.019v0.969H146.029z
		 M146.01,187.566l0.019-1.064h-4.825v1.064H146.01z M150.968,191.213l-9.385,0.019l0.02,1.862l9.385-0.019L150.968,191.213z"/>
	<path fill="#C1DBF2" d="M165.827,179.321c1.957,2.432,4.503,4.635,7.751,5.585l-1.159,1.178c-1.311-0.437-2.45-1.102-3.305-1.672
		l0.019,0.779l-3.457-0.019l0.019,2.204h5.148l0.019,1.368l-5.186,0.019l0.019,4.56l6.801-0.019v1.387h-15.046l-0.019-1.387
		l6.82,0.019v-4.579l-5.244,0.019l-0.019-1.387h5.263v-2.204l-3.458,0.019v-0.817c-0.931,0.608-2.128,1.292-3.457,1.9l-0.97-1.197
		c2.831-1.272,6.422-3.4,8.549-7.048l1.178,0.798L165.827,179.321z M161.799,193.018c-0.513-1.254-1.102-2.298-2.185-3.305
		l1.292-0.608c0.798,0.627,1.919,2.336,2.279,3.324L161.799,193.018z M168.24,183.805c-1.045-0.874-2.432-2.128-3.268-3.306
		c-0.817,1.026-2.166,2.47-3.362,3.268L168.24,183.805z M166.339,192.334c1.254-0.893,2.128-2.09,2.755-3.401l1.159,0.836
		c-0.608,1.311-1.425,2.527-2.622,3.458L166.339,192.334z"/>
	<path fill="#C1DBF2" d="M185.758,179.188v1.368h-10.41v-1.368H185.758z M183.554,187.186h-5.889v8.207h-1.368v-9.632h8.625v7.846
		c-0.057,0.627-0.475,1.178-1.007,1.387c-0.607,0.247-1.025,0.208-1.767,0.208l-0.494-1.349c0.798-0.038,1.159,0.19,1.634-0.038
		c0.399-0.19,0.266-0.76,0.266-1.539V187.186z M177.153,185.021v-3.686h6.877v3.686H177.153z M183.099,189.884v1.368h-1.862v3.059
		h-1.33v-3.04h-1.747v-1.425h1.292c-0.305-0.665-0.932-1.406-1.577-1.691l0.987-0.646c0.646,0.38,1.425,1.14,1.71,1.824
		l-0.798,0.532l1.045,0.019c0.741-0.817,1.007-1.691,1.292-2.432l1.234,0.494c-0.342,0.589-0.722,1.501-1.158,1.957L183.099,189.884
		z M182.624,182.665h-4.084v1.064h4.084V182.665z M186.993,194.443c-0.455,0.133-0.589,0.171-1.12,0.361l-0.665-1.387
		c1.14-0.247,1.69-0.342,2.488-0.551v-3.477h-2.146v-7.048h2.146v-3.799h1.349v3.799h2.185v7.048h-2.185l0.02,3.116l1.102-0.266
		c-0.133-0.266-0.437-0.779-0.874-1.311l1.197-0.437c0.76,0.874,1.272,1.88,1.596,2.869l0.418,1.253l-1.425,0.494
		c-0.133-0.665-0.285-1.33-0.438-1.729L186.993,194.443z M187.696,183.709h-0.816v4.293h0.816V183.709z M189.044,188.003h0.932
		v-4.293h-0.932V188.003z"/>
	<path fill="#C1DBF2" d="M203.125,190.663c-0.627-1.349-1.425-2.583-2.337-3.21v8.168h-1.444v-7.485
		c-0.551,1.178-1.938,2.85-3.552,4.274l-1.33-0.969c2.279-1.786,4.084-4.104,4.807-6.345h-3.629v-1.387l3.704,0.019v-2.413
		c-0.949,0.133-2.127,0.361-3.419,0.418l-0.589-1.311c2.792-0.209,5.281-0.551,7.561-1.729l0.874,1.083
		c-0.646,0.418-2.279,1.007-2.982,1.216v2.735l3.229-0.019l-0.02,1.387l-3.21-0.019v1.387l0.513-0.361
		c1.083,0.665,2.526,2.394,3.021,3.686L203.125,190.663z M210.438,194.462l-1.443,0.019V192.6h-3.04v1.9h-1.425l-0.019-14.267h5.927
		V194.462z M205.955,191.194h3.04v-9.574h-3.04V191.194z"/>
	<path fill="#C1DBF2" d="M222.998,179.321c1.957,2.432,4.503,4.635,7.751,5.585l-1.159,1.178c-1.311-0.437-2.45-1.102-3.305-1.672
		l0.019,0.779l-3.458-0.019l0.02,2.204h5.148l0.019,1.368l-5.187,0.019l0.02,4.56l6.801-0.019v1.387H214.62l-0.019-1.387l6.82,0.019
		v-4.579l-5.244,0.019l-0.019-1.387h5.263v-2.204l-3.458,0.019v-0.817c-0.931,0.608-2.128,1.292-3.457,1.9l-0.97-1.197
		c2.831-1.272,6.422-3.4,8.549-7.048l1.178,0.798L222.998,179.321z M218.97,193.018c-0.513-1.254-1.102-2.298-2.185-3.305
		l1.292-0.608c0.798,0.627,1.919,2.336,2.279,3.324L218.97,193.018z M225.411,183.805c-1.045-0.874-2.432-2.128-3.268-3.306
		c-0.817,1.026-2.166,2.47-3.362,3.268L225.411,183.805z M223.51,192.334c1.254-0.893,2.128-2.09,2.755-3.401l1.159,0.836
		c-0.608,1.311-1.425,2.527-2.622,3.458L223.51,192.334z"/>
	<path fill="#C1DBF2" d="M242.929,179.188v1.368h-10.41v-1.368H242.929z M240.725,187.186h-5.889v8.207h-1.368v-9.632h8.625v7.846
		c-0.057,0.627-0.475,1.178-1.007,1.387c-0.607,0.247-1.025,0.208-1.767,0.208l-0.494-1.349c0.798-0.038,1.159,0.19,1.634-0.038
		c0.399-0.19,0.266-0.76,0.266-1.539V187.186z M234.324,185.021v-3.686h6.877v3.686H234.324z M240.27,189.884v1.368h-1.862v3.059
		h-1.33v-3.04h-1.747v-1.425h1.292c-0.305-0.665-0.932-1.406-1.577-1.691l0.987-0.646c0.646,0.38,1.425,1.14,1.71,1.824
		l-0.798,0.532l1.045,0.019c0.741-0.817,1.007-1.691,1.292-2.432l1.234,0.494c-0.342,0.589-0.722,1.501-1.158,1.957L240.27,189.884z
		 M239.794,182.665h-4.084v1.064h4.084V182.665z M244.164,194.443c-0.455,0.133-0.589,0.171-1.12,0.361l-0.665-1.387
		c1.14-0.247,1.69-0.342,2.488-0.551v-3.477h-2.146v-7.048h2.146v-3.799h1.349v3.799h2.185v7.048h-2.185l0.02,3.116l1.102-0.266
		c-0.133-0.266-0.437-0.779-0.874-1.311l1.197-0.437c0.76,0.874,1.272,1.88,1.596,2.869l0.418,1.253l-1.425,0.494
		c-0.133-0.665-0.285-1.33-0.438-1.729L244.164,194.443z M244.867,183.709h-0.816v4.293h0.816V183.709z M246.215,188.003h0.932
		v-4.293h-0.932V188.003z"/>
	<path fill="#C1DBF2" d="M268.236,180.993v1.406h-16.224l-0.019-1.406h7.446c-0.418-0.589-1.102-1.235-1.919-1.634l1.064-0.988
		c1.045,0.494,1.805,1.368,2.488,2.355l-0.304,0.266H268.236z M260.808,186.559l0.019,9.024h-1.463v-9.024h-3.704l-0.019,7.067
		l-1.463,0.019v-8.492l5.186-0.019v-2.127l1.463-0.019v2.166h5.301l0.019,6.516c0,1.083-0.398,1.653-1.539,1.653h-1.709
		l-0.476-1.463l1.691,0.076c0.36,0.019,0.569-0.19,0.569-0.475l-0.019-4.901H260.808z"/>
	<path fill="#C1DBF2" d="M273.045,178.941h1.406v4.673h2.374v1.368h-2.394v4.502l2.413-0.836v1.368l-5.775,2.09l-0.836-1.292
		c1.14-0.266,2.242-0.646,2.831-0.836v-5.015h-2.318v-1.33h2.299V178.941z M285.242,179.663v1.178
		c-1.805,1.558-3.553,3.04-5.319,4.255l6.801,0.038c-0.189,2.982-0.76,7.257-1.253,9.252c-0.361,0.741-1.216,1.063-1.957,0.988
		l-1.71-0.475l-0.247-1.539c0.95,0.285,1.577,0.57,2.299,0.626c0.114-0.019,0.247-0.133,0.304-0.285
		c0.361-0.855,0.988-5.3,1.121-7.295h-1.216c-0.836,3.914-3.362,7.143-6.079,9.081l-1.007-1.064
		c2.508-1.861,5.072-4.825,5.699-8.017h-1.539c-0.684,2.869-3.191,5.509-5.243,6.611l-0.949-1.063
		c1.976-1.102,4.198-3.23,4.768-5.528h-2.09v-1.311c1.691-1.121,3.971-2.944,5.319-4.103h-6.25v-1.33L285.242,179.663z"/>
	<path fill="#C1DBF2" d="M306.027,192.22v1.482h-15.406l-0.02-1.482H306.027z M291.646,180.746l13.279,0.019v1.481l-13.298,0.019
		L291.646,180.746z M303.824,186.255v1.481l-11.113,0.019v-1.5H303.824z"/>
	<path fill="#C1DBF2" d="M310.342,184.641v-1.463h5.927c0.152-1.368,0.171-3.001,0.133-4.788c0.589,0.133,0.969,0.133,1.539,0.228
		c0.038,1.672,0.019,3.21-0.095,4.56h6.801l0.019,1.463h-5.585c0.76,4.027,2.223,6.858,6.44,9.328l-1.026,1.14
		c-4.141-2.508-6.041-5.262-6.801-10.467c-1.025,5.224-3.002,8.036-7.2,10.372l-1.082-1.311c4.122-1.938,6.079-5.452,6.725-9.062
		H310.342z"/>
	<path fill="#C1DBF2" d="M331.147,178.656h1.444v3.818h2.146v1.387h-2.146v1.52l0.38-0.266c0.912,0.836,1.786,1.9,2.108,3.325
		l-1.254,0.817c-0.304-1.121-0.816-2.185-1.234-2.527v8.929h-1.444v-8.131c-0.569,1.387-1.291,2.318-2.507,3.61l-1.197-1.045
		c1.292-1.159,2.375-2.736,3.04-4.293c0.284-0.684,0.455-1.368,0.569-1.938h-2.603v-1.387h2.697V178.656z M335.327,194.481
		c1.615-0.798,3.077-1.805,4.027-3.097c-1.045-1.69-1.748-3.837-2.032-5.851h-0.665v3.875c0,2.223-0.893,4.179-2.071,6.022
		l-1.349-0.76c1.026-1.52,1.786-2.735,1.881-4.369l0.095-1.539v-8.131c2.603-0.152,5.51-0.931,7.865-1.861l0.532,1.253
		c-2.033,0.76-4.939,1.52-6.953,1.805v2.356h6.573c-0.285,2.716-0.741,4.996-1.977,7.067c0.874,1.235,2.071,2.545,3.705,3.229
		l-0.969,1.216c-1.615-0.646-2.793-2.09-3.629-3.191c-0.798,1.178-2.679,2.754-3.971,3.268L335.327,194.481z M338.785,185.514
		c0.246,1.558,1.044,4.065,1.538,4.579c0.589-0.703,1.197-3.382,1.312-4.56L338.785,185.514z"/>
	<path fill="#C1DBF2" d="M347.43,192.733l-0.893-1.273c1.045-0.38,1.69-0.608,2.926-1.083v-5.281h-2.413v-1.387h2.413v-4.616h1.443
		v4.616h2.09v1.387h-2.09v4.598l2.508-1.064v1.482L347.43,192.733z M362.914,195.621c-0.494-0.19-0.817-0.399-1.159-0.626
		c-2.375-1.577-3.742-4.483-4.16-6.763h-0.152c-0.398,1.862-0.854,2.982-1.786,4.332c-0.798,1.159-2.07,2.146-3.324,2.963
		l-1.083-1.102c1.444-0.931,2.793-2.052,3.591-3.419c0.513-0.874,0.874-1.843,1.083-2.773h-3.876v-1.387h4.18
		c0.114-1.216,0.171-3.059,0.152-3.781h-3.287v-1.387h3.306v-3.229h1.444v3.229h3.856v5.167h1.538v1.387H359
		c0.267,1.235,0.855,2.564,1.691,3.742c0.798,1.121,1.918,1.824,3.21,2.527L362.914,195.621z M360.253,183.063h-2.412
		c0,1.235-0.038,2.641-0.172,3.781h2.584V183.063z"/>
	<path fill="#C1DBF2" d="M369.185,182.817h2.336v1.425h-2.317v11.189h-1.443v-11.17h-1.824v-1.443h1.805v-4.313h1.444V182.817z
		 M373.82,185.97c-0.342,1.615-1.063,2.963-2.128,4.274c-0.455-0.285-0.798-0.456-1.234-0.798c1.007-1.273,1.729-2.489,2.108-4.046
		L373.82,185.97z M381.077,185.533c1.026,1.235,1.691,2.583,1.9,4.18c-0.456,0.247-0.798,0.361-1.312,0.608
		c-0.322-1.406-0.722-2.527-1.234-3.344c-0.19,2.394-0.475,4.901-0.893,6.934c-0.134,0.646-0.817,1.254-1.463,1.349
		c-0.836,0.114-1.615-0.095-2.432-0.285l-0.114-1.501c0.893,0.152,1.539,0.494,2.146,0.323c0.304-0.266,0.418-0.665,0.513-1.083
		c0.532-2.166,0.798-6.611,0.836-9.214h-2.47c-0.038,0.19-0.019,0.551-0.019,0.969c-0.038,1.311-0.095,2.831-0.399,4.084
		c-0.684,2.736-1.805,4.826-4.388,6.915l-1.045-1.14c1.785-1.387,3.077-3.116,3.686-5.015c0.569-1.824,0.74-3.895,0.684-5.775
		h-3.211v-1.463h3.211l0.02-3.609l1.405-0.019c0.076,1.14,0.019,3.078,0.019,3.628h3.971c0.076,1.501,0.038,2.831-0.038,3.743
		L381.077,185.533z"/>
	<path fill="#C1DBF2" d="M388.014,193.55l-0.836-1.216c0.457-0.361,0.666-0.608,0.666-0.893v-6.06h-2.451v-1.368h3.875v7.2
		l1.844-0.988v1.539L388.014,193.55z M388.793,182.494c-0.551-1.14-1.273-1.862-2.279-2.735l0.969-0.855
		c1.064,0.722,1.861,1.501,2.451,2.603L388.793,182.494z M391.529,179.454h9.535v13.963c0,1.045-0.645,1.9-1.766,1.9h-1.785
		l-0.494-1.406c0.854,0.038,1.463,0.076,2.166,0.057c0.303-0.019,0.436-0.247,0.436-0.532v-12.614h-6.668v4.978
		c0,2.108,0.172,4.065-0.17,6.079c-0.248,1.444-0.893,2.831-1.881,4.027l-1.234-0.912c0.986-1.273,1.5-2.128,1.729-3.952
		c0.209-1.596,0.133-3.628,0.133-5.471V179.454z M396.98,182.931h2.09v1.311h-2.09v1.425h2.242v1.33h-5.813v-1.33h2.203v-1.425
		h-2.07v-1.33h2.07v-1.634h1.367V182.931z M398.5,187.68v4.996h-4.445v-4.996H398.5z M397.152,189.01h-1.748v2.337h1.748V189.01z"/>
	<path fill="#C1DBF2" d="M419.951,195.431c-2.906-0.684-3.99-1.615-5.813-2.944c-1.615,1.577-3.762,2.489-6.004,2.907l-0.836-1.197
		c2.527-0.551,4.369-1.292,5.832-2.641c-0.664-0.646-2.07-2.678-2.564-3.742c-1.025,3.001-3.211,5.319-5.719,7.143l-1.045-1.216
		c3.25-2.014,5.549-5.376,6.402-9.176h-4.35v-1.273l1.748-4.35l1.271,0.665l-1.424,3.572h3.115c0.361-1.368,0.551-2.85,0.74-4.616
		l1.387,0.361c-0.227,1.634-0.418,3.021-0.684,4.255h8.188v1.387h-8.51c-0.172,0.475-0.342,1.064-0.494,1.482h6.496v1.178
		c-0.645,1.52-1.576,3.097-2.658,4.293c1.596,1.311,3.533,2.166,5.908,2.754L419.951,195.431z M411.916,187.433
		c0.418,0.817,1.387,2.413,2.146,3.097c0.854-0.95,1.557-2.033,2.014-3.097H411.916z M416.588,182.817
		c-0.721-1.197-1.805-2.033-3.02-2.736l0.988-0.931c1.254,0.665,2.336,1.577,3.191,2.754L416.588,182.817z"/>
	<path fill="#C1DBF2" d="M426.281,188.383c0.018,3.249-0.646,4.844-1.977,7.295l-1.291-0.836c1.271-1.995,1.805-4.464,1.805-6.706
		v-8.644h13.412v4.388h-11.969L426.281,188.383z M436.785,180.879l-10.504-0.019v1.653h10.504V180.879z M433.746,189.922
		c0.248,0.684,0.742,1.577,1.406,2.166c0.646-0.418,1.273-1.178,1.785-1.995l1.16,0.874c-0.646,0.836-1.217,1.425-1.92,1.938
		c0.951,0.665,2.262,1.026,3.875,1.273l-0.949,1.349c-2.773-0.57-5.643-1.957-6.857-5.604h-2.09v3.761l3.096-1.102l0.02,1.444
		l-4.389,1.653l-1.234-1.007c0.684-0.19,1.158-0.494,1.064-1.121v-3.628h-2.129l0.02-1.368l3.039-0.019v-1.767h-2.641v-1.387
		l2.641,0.019v-1.254l1.443-0.019v1.273h3.193l0.018-1.254h1.426v1.254l2.717-0.019l-0.02,1.387h-2.697v1.786h3.457v1.368H433.746z
		 M434.279,188.554v-1.786h-3.211l0.018,1.767L434.279,188.554z"/>
	<path fill="#C1DBF2" d="M449.973,190.093l-0.551-0.703c0.893-0.399,1.139-1.121,1.139-1.881h-1.025v-2.089h2.09v1.995
		C451.625,188.06,451.396,189.428,449.973,190.093z"/>
	<path fill="#C1DBF2" d="M464.945,187.262c-0.551,0.646-1.539,1.634-2.604,2.66l-1.102-1.102c2.053-1.881,3.895-3.951,4.883-6.098
		l-3.895,0.019v-1.406h4.598c0.342-0.817,0.684-1.729,0.893-2.869l1.387,0.456c-0.152,0.931-0.438,1.805-0.666,2.413h8.91v1.406
		h-9.555c-0.4,0.779-0.875,1.748-1.406,2.545l0.02,10.297h-1.482L464.945,187.262z M466.939,193.075h4.293l-0.02-4.635h-3.723
		v-1.406l3.742-0.019v-3.154l1.443-0.019l0.02,3.172h4.123l-0.02,1.425h-4.104v4.635l5.111,0.019v1.406l-10.867-0.019V193.075z"/>
	<path fill="#C1DBF2" d="M484.287,181.487c1.008,1.273,1.918,2.736,2.336,3.458c0.285-0.95,0.514-2.242,0.723-3.761l1.35,0.513
		c-0.361,2.166-0.703,4.084-1.16,5.224c0.609,1.311,1.121,2.812,1.369,4.464l-1.369,1.064c-0.17-1.482-0.455-2.641-0.74-3.4
		c-0.494,1.14-1.273,2.66-2.469,4.065l-0.875-0.418v2.812h-1.5V179.53l14.096-0.019l-0.02,14.4c0,0.589-0.322,1.387-1.197,1.387
		h-1.785l-0.551-1.577c0.799,0.152,1.387,0.209,1.691,0.19c0.246,0,0.359-0.19,0.359-0.437v-12.538l-11.094-0.019v1.425
		L484.287,181.487z M483.451,191.821c0.949-1.007,1.9-2.792,2.508-4.806c-0.703-1.539-1.52-2.907-2.469-4.388L483.451,191.821z
		 M494.033,181.905c-0.248,1.52-0.533,2.812-1.102,4.502c0.721,1.596,1.291,3.4,1.443,5.414l-1.443,1.083
		c-0.057-1.843-0.342-3.306-0.723-4.313c-0.531,1.387-1.348,3.154-2.66,4.75l-1.424-0.76c1.633-1.918,2.584-3.913,3.248-6.003
		c-0.551-1.406-1.424-2.717-2.299-4.217l1.084-0.836c0.76,1.083,1.596,2.242,1.898,2.869c0.248-0.703,0.438-1.881,0.666-3.059
		L494.033,181.905z"/>
	<path fill="#C1DBF2" d="M500.475,194.063l-0.701-1.197c2.24-0.703,3.666-1.216,6.098-2.109v1.425L500.475,194.063z
		 M505.566,188.041v1.368c-2.109,0.494-3.553,0.76-4.92,1.197l-0.799-1.349c1.121-1.121,2.186-2.831,2.813-3.799
		c-0.209,0-1.52,0.247-2.166,0.418l-0.607-1.14c0.969-1.539,2.166-3.78,2.943-6.155l1.236,0.684
		c-0.646,2.09-1.596,3.837-2.414,5.072c0.285-0.019,1.064-0.133,1.691-0.247c0.381-0.665,0.607-1.121,1.064-2.014l1.197,0.665
		c-0.912,1.805-1.977,4.027-3.648,6.003L505.566,188.041z M505.51,183.634c1.463-1.121,2.963-3.534,3.154-5.434l1.387,0.494
		c-0.133,0.646-0.305,1.102-0.4,1.368h4.902v1.311c-0.533,1.406-1.539,2.641-2.488,3.609c0.873,0.969,2.697,1.9,4.672,2.185
		l-0.836,1.387c-1.938-0.532-3.609-1.311-4.92-2.564c-1.443,1.159-3.305,2.166-4.691,2.564l-0.875-1.311
		c1.824-0.589,3.383-1.33,4.578-2.375c-0.588-0.665-1.139-1.634-1.5-2.28c-0.607,0.893-1.291,1.596-1.918,2.052L505.51,183.634z
		 M514.381,188.193v7.295h-1.463v-1.235h-3.836v1.235h-1.463v-7.295H514.381z M512.918,192.866v-3.287h-3.836v3.287H512.918z
		 M509.557,181.449c0.342,0.779,1.025,1.653,1.596,2.413c0.664-0.608,1.404-1.615,1.785-2.413H509.557z"/>
	<path fill="#C1DBF2" d="M527.91,179.321c1.957,2.432,4.502,4.635,7.75,5.585l-1.158,1.178c-1.311-0.437-2.451-1.102-3.305-1.672
		l0.018,0.779l-3.457-0.019l0.02,2.204h5.148l0.018,1.368l-5.186,0.019l0.02,4.56l6.801-0.019v1.387h-15.047l-0.018-1.387
		l6.82,0.019v-4.579l-5.244,0.019l-0.02-1.387h5.264v-2.204l-3.459,0.019v-0.817c-0.93,0.608-2.127,1.292-3.457,1.9l-0.969-1.197
		c2.83-1.272,6.422-3.4,8.549-7.048l1.178,0.798L527.91,179.321z M523.883,193.018c-0.514-1.254-1.102-2.298-2.186-3.305
		l1.293-0.608c0.797,0.627,1.918,2.336,2.279,3.324L523.883,193.018z M530.322,183.805c-1.045-0.874-2.432-2.128-3.268-3.306
		c-0.816,1.026-2.166,2.47-3.361,3.268L530.322,183.805z M528.422,192.334c1.254-0.893,2.129-2.09,2.756-3.401l1.158,0.836
		c-0.607,1.311-1.424,2.527-2.621,3.458L528.422,192.334z"/>
	<path fill="#C1DBF2" d="M547.842,179.188v1.368h-10.41v-1.368H547.842z M545.637,187.186h-5.889v8.207h-1.367v-9.632h8.625v7.846
		c-0.057,0.627-0.475,1.178-1.008,1.387c-0.607,0.247-1.025,0.208-1.766,0.208l-0.494-1.349c0.797-0.038,1.158,0.19,1.633-0.038
		c0.4-0.19,0.266-0.76,0.266-1.539V187.186z M539.236,185.021v-3.686h6.877v3.686H539.236z M545.182,189.884v1.368h-1.861v3.059
		h-1.33v-3.04h-1.748v-1.425h1.293c-0.305-0.665-0.932-1.406-1.578-1.691l0.988-0.646c0.646,0.38,1.424,1.14,1.709,1.824
		l-0.797,0.532l1.045,0.019c0.74-0.817,1.006-1.691,1.291-2.432l1.234,0.494c-0.342,0.589-0.721,1.501-1.158,1.957L545.182,189.884z
		 M544.707,182.665h-4.084v1.064h4.084V182.665z M549.076,194.443c-0.455,0.133-0.59,0.171-1.121,0.361l-0.664-1.387
		c1.139-0.247,1.689-0.342,2.488-0.551v-3.477h-2.146v-7.048h2.146v-3.799h1.348v3.799h2.186v7.048h-2.186l0.02,3.116l1.102-0.266
		c-0.133-0.266-0.436-0.779-0.873-1.311l1.197-0.437c0.76,0.874,1.271,1.88,1.596,2.869l0.418,1.253l-1.426,0.494
		c-0.133-0.665-0.285-1.33-0.438-1.729L549.076,194.443z M549.779,183.709h-0.816v4.293h0.816V183.709z M551.127,188.003h0.932
		v-4.293h-0.932V188.003z"/>
	<path fill="#C1DBF2" d="M565.664,188.953c-0.438-0.722-1.463-1.938-2.318-2.678l1.064-1.064c0.986,0.741,1.975,1.672,2.602,2.432
		L565.664,188.953z"/>
	<path fill="#C1DBF2" d="M580.084,188.801v4.142l2.318-1.14v1.463l-3.211,1.691l-0.836-1.33c0.172-0.209,0.248-0.437,0.248-0.95
		v-3.875h-2.68v-1.387h2.68v-1.976h-0.855c-0.418,0.57-0.836,0.95-1.576,1.596l-1.064-1.14c1.729-1.406,2.943-4.008,3.152-7.2
		l1.369,0.361c0.057,1.026-0.096,1.995-0.172,2.166h2.869v1.387h-3.211c-0.17,0.532-0.418,1.063-0.588,1.444h3.609v1.387h-2.053
		v1.976h2.375v1.387H580.084z M591.654,195.336c-1.121-0.285-2.053-0.874-2.869-1.558c-1.615-1.653-2.451-3.819-2.621-5.946h-1.578
		v5.832l2.869-0.969v1.425l-3.855,1.406l-0.723-1.33c0.209-0.209,0.229-0.417,0.229-0.816v-13.906h7.104v8.359h-2.678
		c0.076,0.874,0.361,1.976,0.703,2.641c0.797-0.399,1.52-1.159,2.242-2.28l1.102,0.874c-0.816,1.197-1.805,2.014-2.756,2.545
		c0.666,1.159,2.148,2.033,3.838,2.47L591.654,195.336z M588.785,180.86h-4.199v2.071h4.199V180.86z M588.785,184.242h-4.199v2.204
		h4.199V184.242z"/>
	<path fill="#C1DBF2" d="M599.959,179.074c-0.246,1.539-0.684,3.04-1.254,4.37v12.234h-1.424v-9.727
		c-0.627,0.798-1.064,1.444-1.9,2.242l-1.064-1.026c1.711-1.748,3.725-4.407,4.332-8.682L599.959,179.074z M607.234,188.44
		c0.875,2.299,2.355,3.533,4.75,4.768l-1.121,1.064c-2.09-1.007-3.799-2.622-4.939-5.414l-0.037,6.763h-1.445v-6.516
		c-0.512,1.5-2.26,3.989-4.559,5.224l-1.064-1.102c1.768-0.817,3.344-2.545,4.428-4.787h-3.877v-1.387h5.092v-1.539l-3.762,0.019
		v-6.117h8.758v6.117h-3.57v1.52h4.977v1.387H607.234z M608.014,180.784h-5.869v3.362h5.869V180.784z"/>
	<path fill="#C1DBF2" d="M616.926,182.817h2.336v1.425h-2.316v11.189h-1.443v-11.17h-1.824v-1.443h1.805v-4.313h1.443V182.817z
		 M621.561,185.97c-0.342,1.615-1.063,2.963-2.127,4.274c-0.455-0.285-0.799-0.456-1.234-0.798c1.006-1.273,1.729-2.489,2.107-4.046
		L621.561,185.97z M628.818,185.533c1.025,1.235,1.691,2.583,1.9,4.18c-0.457,0.247-0.799,0.361-1.313,0.608
		c-0.322-1.406-0.721-2.527-1.234-3.344c-0.189,2.394-0.475,4.901-0.893,6.934c-0.133,0.646-0.816,1.254-1.463,1.349
		c-0.836,0.114-1.615-0.095-2.432-0.285l-0.113-1.501c0.893,0.152,1.539,0.494,2.146,0.323c0.303-0.266,0.418-0.665,0.512-1.083
		c0.533-2.166,0.799-6.611,0.836-9.214h-2.469c-0.037,0.19-0.02,0.551-0.02,0.969c-0.037,1.311-0.094,2.831-0.398,4.084
		c-0.684,2.736-1.805,4.826-4.389,6.915l-1.045-1.14c1.785-1.387,3.078-3.116,3.686-5.015c0.57-1.824,0.74-3.895,0.684-5.775h-3.211
		v-1.463h3.211l0.02-3.609l1.406-0.019c0.076,1.14,0.02,3.078,0.02,3.628h3.969c0.076,1.501,0.039,2.831-0.037,3.743
		L628.818,185.533z"/>
	<path fill="#C1DBF2" d="M215.369,216.483c0.912,0,2.242-0.057,2.527-0.152c0.189-0.095,0.322-0.494,0.322-0.855l0.02-11.93
		l-11.513-0.019v14.989h-1.501v-16.395h14.515l0.019,13.659c0,0.874-0.342,1.767-0.854,2.033c-0.514,0.19-2.394,0.266-3.021,0.228
		L215.369,216.483z M217.629,205.598l0.02,1.406h-10.03l0.019-1.406H217.629z M216.091,209.055v5.737h-7.22v-5.718L216.091,209.055z
		 M210.316,213.386h4.351v-2.906l-4.351,0.019V213.386z"/>
	<path fill="#C1DBF2" d="M232.166,211.752c-0.438-0.722-1.463-1.938-2.318-2.678l1.064-1.064c0.987,0.741,1.976,1.672,2.603,2.432
		L232.166,211.752z"/>
	<path fill="#C1DBF2" d="M242.104,215.799c2.261-0.703,3.4-1.235,5.756-2.089v1.425l-5.034,1.861L242.104,215.799z M247.556,210.974
		v1.254c-1.501,0.323-2.83,0.646-4.825,1.254l-0.532-1.292c1.121-1.121,2.185-2.85,2.793-3.799c-0.19-0.019-1.52,0.247-2.166,0.418
		l-0.589-1.14c0.969-1.558,2.146-3.781,2.944-6.155l1.235,0.684c-0.646,2.09-1.596,3.838-2.413,5.072
		c0.285-0.038,1.045-0.152,1.691-0.247c0.38-0.665,0.74-1.425,0.931-2.147l1.196,0.665c-0.873,2.185-1.823,4.369-3.477,6.174
		L247.556,210.974z M251.451,212.456c-0.456,1.653-1.539,3.419-2.717,4.521l-1.272-0.798c1.045-0.969,2.412-3.306,2.792-4.464
		L251.451,212.456z M248.165,203.451h4.027c-0.209-0.304-0.723-0.874-1.406-1.406l1.254-0.988c0.836,0.817,1.481,1.653,1.919,2.394
		h3.951v3.743h-1.463v-2.337h-6.801v2.337h-1.481V203.451z M252.078,216.977c0.189,0.019,0.361-0.095,0.361-0.38v-5.699h-4.161
		v-1.406h9.993v1.406h-4.332l0.02,5.908c0,0.798-0.476,1.558-1.596,1.558h-1.71l-0.589-1.52L252.078,216.977z M255.839,207.858
		h-5.452v-1.387h5.452V207.858z M255.858,211.658c1.254,1.349,2.146,2.812,2.982,4.35l-1.292,0.722
		c-0.722-1.558-1.576-2.907-2.792-4.274L255.858,211.658z"/>
	<path fill="#C1DBF2" d="M270.982,201.608c-0.209,0.209-0.418,0.418-0.589,0.589c2.223,2.812,6.212,5.566,7.922,6.098
		c-0.323,0.532-0.646,0.855-0.949,1.273c-0.703-0.285-1.33-0.532-3.856-2.375c-1.273-0.95-2.831-2.831-3.856-4.046
		c-1.768,2.108-3.629,3.875-7.713,6.649l-1.026-1.14c4.236-2.736,7.523-6.193,8.663-7.998L270.982,201.608z M273.661,218.269
		l-0.019-1.178h-8.036v1.273h-1.52v-7.067H275.2v6.972H273.661z M274.344,209.283h-9.536v-1.463h9.518L274.344,209.283z
		 M265.625,215.647h8.018l0.019-2.925h-8.036V215.647z"/>
	<path fill="#C1DBF2" d="M289.697,202.121c1.957,2.432,4.503,4.635,7.751,5.585l-1.159,1.178c-1.311-0.437-2.45-1.102-3.305-1.672
		l0.019,0.779l-3.458-0.019l0.02,2.204h5.148l0.019,1.368l-5.187,0.019l0.02,4.56l6.801-0.019v1.387h-15.046l-0.019-1.387
		l6.82,0.019v-4.579l-5.244,0.019l-0.019-1.387h5.263v-2.204l-3.458,0.019v-0.817c-0.931,0.608-2.128,1.292-3.457,1.9l-0.97-1.197
		c2.831-1.272,6.422-3.4,8.549-7.048l1.178,0.798L289.697,202.121z M285.669,215.818c-0.513-1.254-1.102-2.298-2.185-3.305
		l1.292-0.608c0.798,0.627,1.919,2.336,2.279,3.324L285.669,215.818z M292.11,206.604c-1.045-0.874-2.432-2.128-3.268-3.306
		c-0.817,1.026-2.166,2.47-3.362,3.268L292.11,206.604z M290.209,215.134c1.254-0.893,2.128-2.09,2.755-3.401l1.159,0.836
		c-0.608,1.311-1.425,2.527-2.622,3.458L290.209,215.134z"/>
	<path fill="#C1DBF2" d="M309.628,201.988v1.368h-10.41v-1.368H309.628z M307.424,209.986h-5.889v8.207h-1.368v-9.632h8.625v7.846
		c-0.057,0.627-0.475,1.178-1.007,1.387c-0.607,0.247-1.025,0.208-1.767,0.208l-0.494-1.349c0.798-0.038,1.159,0.19,1.634-0.038
		c0.399-0.19,0.266-0.76,0.266-1.539V209.986z M301.023,207.82v-3.686h6.877v3.686H301.023z M306.969,212.684v1.368h-1.862v3.059
		h-1.33v-3.04h-1.747v-1.425h1.292c-0.305-0.665-0.932-1.406-1.577-1.691l0.987-0.646c0.646,0.38,1.425,1.14,1.71,1.824
		l-0.798,0.532l1.045,0.019c0.741-0.817,1.007-1.691,1.292-2.432l1.234,0.494c-0.342,0.589-0.722,1.501-1.158,1.957L306.969,212.684
		z M306.494,205.464h-4.084v1.064h4.084V205.464z M310.863,217.243c-0.455,0.133-0.589,0.171-1.12,0.361l-0.665-1.387
		c1.14-0.247,1.69-0.342,2.488-0.551v-3.477h-2.146v-7.048h2.146v-3.799h1.349v3.799h2.185v7.048h-2.185l0.02,3.116l1.102-0.266
		c-0.133-0.266-0.437-0.779-0.874-1.311l1.197-0.437c0.76,0.874,1.272,1.88,1.596,2.869l0.418,1.253l-1.425,0.494
		c-0.133-0.665-0.285-1.33-0.438-1.729L310.863,217.243z M311.566,206.509h-0.816v4.293h0.816V206.509z M312.915,210.803h0.932
		v-4.293h-0.932V210.803z"/>
	<path fill="#C1DBF2" d="M334.612,215.02v1.482h-15.406l-0.02-1.482H334.612z M320.231,203.546l13.279,0.019v1.481l-13.298,0.019
		L320.231,203.546z M332.409,209.055v1.481l-11.113,0.019v-1.5H332.409z"/>
	<path fill="#C1DBF2" d="M338.928,207.44v-1.463h5.927c0.152-1.368,0.171-3.001,0.133-4.788c0.589,0.133,0.969,0.133,1.539,0.228
		c0.038,1.672,0.019,3.21-0.095,4.56h6.801l0.019,1.463h-5.585c0.76,4.027,2.223,6.858,6.44,9.328l-1.026,1.14
		c-4.141-2.508-6.041-5.262-6.801-10.467c-1.025,5.224-3.002,8.036-7.2,10.372l-1.082-1.311c4.122-1.938,6.079-5.452,6.725-9.062
		H338.928z"/>
	<path fill="#C1DBF2" d="M356.123,207.934c1.463-1.273,3.002-3.324,3.856-6.611l1.273,0.399c-0.152,0.475-0.19,0.855-0.285,1.102
		c1.025,0.627,2.032,1.634,2.868,2.831l-1.083,0.893c-0.684-0.988-1.425-1.938-2.146-2.413c-0.854,1.843-1.652,3.097-3.381,4.787
		L356.123,207.934z M361.575,217.148c-1.007-1.767-2.735-3.097-4.217-3.818l0.912-0.969c0.626,0.266,1.349,0.76,1.861,1.102
		c0.798-1.102,1.234-1.862,1.861-2.831l-5.11-0.019v-1.311h6.84l-0.02,1.235c-0.874,1.463-1.919,2.888-2.603,3.743
		c0.475,0.494,0.95,0.893,1.558,1.918L361.575,217.148z M361.575,208.998c-0.456-0.741-1.443-1.786-2.07-2.128l0.95-0.779
		c0.702,0.437,1.652,1.197,2.127,2.128L361.575,208.998z M368.794,211.639c0,1.748-0.703,3.515-2.052,4.673
		c-1.083,0.931-1.977,1.444-3.458,1.918l-0.912-1.083c1.425-0.589,3.838-1.634,4.617-3.515c0.208-0.665,0.38-1.444,0.38-2.204
		l0.019-3.97h1.406V211.639z M372.802,202.102v1.368h-3.78c-0.152,0.551-0.627,1.482-0.817,1.9l3.876-0.019v8.492h-1.444v-7.162
		h-5.091l-0.019,7.409h-1.35l-0.019-8.72h2.603c0.266-0.513,0.703-1.444,0.836-1.919h-4.122v-1.349H372.802z M372.213,218.002
		c-0.874-1.368-2.261-2.697-3.609-3.457l1.102-0.931c1.539,1.045,2.641,1.995,3.591,3.4L372.213,218.002z"/>
	<path fill="#C1DBF2" d="M381.278,214.051l-5.016,2.146l-1.083-1.121l2.622-1.045v-5.794h-2.146l0.038-1.368l2.108-0.019v-4.464
		h1.425v4.464l1.899,0.019v1.368h-1.881l-0.019,5.262l2.052-0.95V214.051z M380.175,215.4l6.725-2.204l0.02,1.463l-5.889,2.014
		L380.175,215.4z M392.828,214.716c-0.248,1.14-0.551,2.166-0.988,3.115c-0.322,0.456-0.836,0.646-1.387,0.513
		c-0.664-0.171-0.932-0.874-1.215-1.311c-0.344-0.513-0.57-1.121-0.779-1.577c-0.607,0.76-1.861,1.938-3.059,2.736l-1.254-0.893
		c1.577-1.026,2.87-2.185,3.78-3.496c-0.74-2.564-0.93-5.68-1.082-8.264h-6.402v-1.387h6.269v-2.926h1.443v2.945h1.52
		c-0.133-0.57-0.57-1.178-1.404-1.843l1.48-0.475c0.703,0.76,1.084,1.558,1.311,2.318l1.16-0.019v1.368l-3.99,0.019
		c0.152,2.28,0.342,4.142,0.74,6.421c0.646-1.045,1.045-3.04,1.084-5.433l1.348,0.323c-0.018,2.735-0.76,5.129-1.898,7.2
		c0.285,0.836,0.607,1.691,1.158,2.47c0.133,0.133,0.133,0.133,0.285-0.095c0.229-0.817,0.418-1.425,0.494-2.583L392.828,214.716z
		 M381.543,212.665v-5.604l4.806,0.019l-0.02,5.585H381.543z M384.887,208.447h-1.899l-0.02,2.831h1.919V208.447z"/>
	<path fill="#C1DBF2" d="M403.754,215.856c1.578,0.209,3.496,0.133,4.863,0.114c1.008,0,1.939-0.095,3.174-0.114l-0.646,1.482
		l-6.857,0.038c-2.279,0.019-4.143-1.064-5.623-2.356c-0.342,1.235-1.52,2.603-2.889,3.477l-1.348-0.95
		c2.373-1.368,3.438-2.489,3.494-7.694h1.406c-0.02,1.292-0.113,2.583-0.303,3.667c1.025,0.912,2.127,1.748,3.285,2.051v-6.611
		h-7.086v-1.368l7.086-0.019v-2.792l-5.434,0.019v-1.387h5.453l-0.02-2.089h1.443l0.02,2.108l5.357-0.019v1.387h-5.377v2.792
		l7.012-0.019v1.387l-7.012-0.019l0.02,2.375h5.377v1.387l-5.396-0.019V215.856z"/>
	<path fill="#C1DBF2" d="M420.76,209.321c0.113-0.323,0.266-0.912,0.305-1.615h-4.863v-1.368l5.014-0.019
		c0.059-0.437,0.096-0.988,0.115-1.425h-6.213v-1.387h3.875c-0.359-0.399-1.006-0.931-2.07-1.463l1.293-0.931
		c0.969,0.646,1.955,1.539,2.449,2.394h2.451c0.76-0.475,1.559-1.387,2.014-2.375l1.35,0.741c-0.477,0.817-0.818,1.292-1.369,1.615
		l3.725,0.019v1.387h-6.023c-0.057,0.475-0.113,1.045-0.133,1.444h5.072v1.368l-5.223,0.038c-0.039,0.646-0.191,1.14-0.285,1.577
		h7.371v1.387h-7.809c-0.209,0.513-0.646,1.178-0.949,1.539h7.01v1.387h-3.818v2.47h6.021v1.368h-14.002v-1.368h6.518v-2.47h-3.021
		c-1.387,1.14-3.646,2.489-5.301,3.001l-1.082-1.254c2.395-0.817,5.586-2.394,6.973-4.673h-5.775v-1.387H420.76z"/>
	<path fill="#C1DBF2" d="M437.879,210.423h1.463l-0.02,1.672h3.799v-1.71h1.406l0.02,1.691h4.482v1.368h-4.502v5.072h-1.406v-5.053
		l-3.836,0.019c-0.133,1.824-1.691,3.705-3.516,4.407c-0.664,0.266-1.367,0.456-2.184,0.57c-0.305-0.437-0.514-0.836-0.855-1.444
		c2.127-0.114,4.027-0.874,4.824-2.66c0.152-0.342,0.248-0.646,0.268-0.874h-4.959v-1.387h4.977L437.879,210.423z M436.529,209.72
		c-0.816,0-1.5-0.779-1.5-1.481v-5.87h10.715v4.692h-9.309v0.95c0.076,0.19,0.227,0.323,0.436,0.323l9.424,0.019
		c0.227,0,0.436-0.209,0.512-0.551c0.096-0.38,0.152-0.855,0.172-1.52c0.57,0.133,0.912,0.323,1.406,0.361
		c-0.039,0.95-0.115,1.767-0.551,2.413c-0.324,0.475-0.875,0.665-1.406,0.665H436.529z M436.436,203.774v1.918h7.863v-1.918H436.436
		z"/>
	<path fill="#C1DBF2" d="M465.332,216.179c0.361,0,0.723-0.19,0.836-0.532c0.285-0.855,0.457-1.52,0.609-2.622l1.424,0.532
		c-0.209,1.235-0.379,2.375-1.082,3.344c-0.381,0.437-0.779,0.608-1.52,0.703h-3.553c-1.141,0-2.186-0.835-2.186-1.957v-3.552
		c-0.816,0.513-1.615,0.931-2.963,1.462l-0.684-0.741l-0.02,5.642h-1.463v-9.688l-0.02,0.266c-0.512,0.703-1.158,1.463-1.881,2.014
		l-1.311-0.988c2.717-2.356,4.047-5.281,5.148-8.568l1.273,0.608c-0.494,1.634-1.064,3.21-1.748,4.578l0.02,5.49
		c1.48-0.608,2.564-1.063,3.646-1.729v-8.587h1.463v7.789c2.09-1.463,3.307-2.755,4.578-4.351l1.254,0.855
		c-1.918,2.375-3.875,4.065-5.832,5.224v4.027c0,0.475,0.324,0.779,1.045,0.779H465.332z"/>
	<path fill="#C1DBF2" d="M486.896,205.997v1.349h-8.51c-0.172,0.475-0.342,1.102-0.494,1.52h6.496v1.159
		c-0.645,1.52-1.576,3.097-2.658,4.293c1.596,1.311,3.533,2.166,5.908,2.754l-0.988,1.159c-2.906-0.684-3.99-1.615-5.813-2.944
		c-1.615,1.577-3.762,2.489-6.004,2.907l-0.836-1.197c2.527-0.551,4.369-1.292,5.832-2.641c-0.664-0.646-2.07-2.678-2.564-3.742
		c-1.025,3.001-3.211,5.319-5.719,7.143l-1.045-1.216c3.25-2.014,5.549-5.396,6.402-9.195h-4.35v-1.254l1.748-4.35l1.271,0.665
		l-1.424,3.572h3.115c0.361-1.368,0.551-2.85,0.74-4.616l1.387,0.361c-0.227,1.634-0.418,3.04-0.684,4.274H486.896z
		 M478.615,210.214c0.418,0.817,1.387,2.432,2.146,3.116c0.854-0.95,1.557-2.052,2.014-3.116H478.615z M483.287,205.617
		c-0.721-1.197-1.805-2.033-3.02-2.736l0.988-0.931c1.254,0.665,2.336,1.577,3.191,2.754L483.287,205.617z"/>
	<path fill="#C1DBF2" d="M492.98,211.183c0.018,3.249-0.646,4.844-1.977,7.295l-1.291-0.836c1.271-1.995,1.805-4.464,1.805-6.706
		v-8.644h13.412v4.388h-11.969L492.98,211.183z M503.484,203.679l-10.504-0.019v1.653h10.504V203.679z M500.445,212.722
		c0.248,0.684,0.742,1.577,1.406,2.166c0.646-0.418,1.273-1.178,1.785-1.995l1.16,0.874c-0.646,0.836-1.217,1.425-1.92,1.938
		c0.951,0.665,2.262,1.026,3.875,1.273l-0.949,1.349c-2.773-0.57-5.643-1.957-6.857-5.604h-2.09v3.761l3.096-1.102l0.02,1.444
		l-4.389,1.653l-1.234-1.007c0.684-0.19,1.158-0.494,1.064-1.121v-3.628h-2.129l0.02-1.368l3.039-0.019v-1.767h-2.641v-1.387
		l2.641,0.019v-1.254l1.443-0.019v1.273h3.193l0.018-1.254h1.426v1.254l2.717-0.019l-0.02,1.387h-2.697v1.786h3.457v1.368H500.445z
		 M500.979,211.354v-1.786h-3.211l0.018,1.767L500.979,211.354z"/>
	<path fill="#C1DBF2" d="M511.695,208.808h-2.547v-1.311h4.01v6.896c1.006,1.083,2.412,1.767,4.064,1.824
		c1.539,0.057,3.135,0.171,4.711,0.076l4.047-0.228l-0.57,1.558h-7.732c-3.477,0-4.293-0.969-5.242-1.976
		c-0.932,0.684-1.844,1.558-2.869,2.451l-1.082-1.14c1.178-0.855,2.242-1.748,3.211-2.546V208.808z M511.885,205.75
		c-0.514-1.121-1.426-2.489-2.508-3.4l1.064-0.779c1.139,0.912,2.127,2.298,2.678,3.362L511.885,205.75z M523.51,201.589
		c-0.342,0.626-0.531,0.969-0.834,1.424h2.867v1.368h-4.807c-0.17,0.57-0.342,1.045-0.551,1.558h4.086v9.251H515v-9.251h3.514
		c0.285-0.513,0.477-1.007,0.646-1.539h-5.414v-1.387h2.754c-0.209-0.228-0.664-0.703-1.311-1.14l1.254-0.798
		c0.76,0.684,1.426,1.273,1.787,1.938h2.773c0.475-0.57,0.893-1.234,1.195-2.014L523.51,201.589z M522.75,208.447v-1.121h-6.268
		v1.121H522.75z M516.482,209.834v1.273h6.287v-1.273H516.482z M522.77,213.823v-1.33h-6.287v1.33H522.77z"/>
	<path fill="#C1DBF2" d="M538.711,201.646c-0.133,0.627-0.342,1.083-0.475,1.406h5.016v1.159c-0.742,2.127-1.711,3.001-2.623,3.932
		c1.008,0.95,2.945,1.919,4.713,2.527l-1.084,1.159c-1.178-0.342-3.514-1.634-4.674-2.717c-0.93,0.76-2.031,1.482-3.4,2.09
		l6.518,0.038v7.067h-1.463v-0.988h-3.592l-0.037,1.045h-1.502v-7.105c-0.359,0.171-1.195,0.494-1.576,0.627l-0.361-0.532h-1.613
		v3.192c0.607-0.247,1.537-0.627,2.545-0.988v1.463c-0.932,0.399-1.785,0.741-2.604,1.102l-3.988,1.709l-0.076-0.171l-0.932-1.102
		c0.551-0.228,0.932-0.304,1.197-0.437v-6.687l1.406,0.019l-0.039,6.288l0.039-0.209l0.988-0.399v-7.257h-2.146v-5.623l5.432-0.019
		l0.02,4.788c1.615-1.615,2.279-3.61,2.982-5.851L538.711,201.646z M532.936,206.49v-2.869h-2.584v2.869H532.936z M534.398,207.516
		v0.342h-1.842l0.018,2.108h1.824v0.456c1.387-0.513,3.021-1.33,4.256-2.355c-0.646-0.798-1.16-1.615-1.559-2.299
		c-0.189,0.342-0.912,1.577-1.766,2.336L534.398,207.516z M537.59,212.626v3.306l3.609,0.019v-3.344L537.59,212.626z
		 M537.971,204.42c0.359,0.874,0.93,1.709,1.709,2.697c0.836-0.893,1.273-1.52,1.844-2.697H537.971z"/>
	<path fill="#C1DBF2" d="M555.754,212.228c-0.834,0.057-1.596-0.266-2.127-0.874s-0.684-1.558-0.438-2.336
		c0.285-0.912,1.16-1.615,2.09-1.672c0.875-0.057,1.672,0.266,2.186,0.988c0.455,0.627,0.627,1.425,0.361,2.204
		C557.521,211.411,556.686,212.151,555.754,212.228z M555.793,208.58c-0.438-0.114-0.893,0.019-1.178,0.342
		c-0.266,0.285-0.398,0.703-0.322,1.102c0.074,0.361,0.342,0.722,0.684,0.874c0.475,0.209,1.025,0.095,1.387-0.266
		c0.342-0.342,0.436-0.893,0.266-1.33C556.477,208.941,556.154,208.675,555.793,208.58z"/>
</g>
</svg>
