<?xml version="1.0" encoding="utf-8"?>
<!-- Generator: Adobe Illustrator 16.0.0, SVG Export Plug-In . SVG Version: 6.00 Build 0)  -->
<!DOCTYPE svg PUBLIC "-//W3C//DTD SVG 1.1//EN" "http://www.w3.org/Graphics/SVG/1.1/DTD/svg11.dtd">
<svg version="1.1" id="Layer_1" xmlns="http://www.w3.org/2000/svg" xmlns:xlink="http://www.w3.org/1999/xlink" x="0px" y="0px"
	 width="768px" height="1024px" viewBox="0 0 768 1024" enable-background="new 0 0 768 1024" xml:space="preserve">
<g>
	<g>
		<path opacity="0.698" fill-rule="evenodd" clip-rule="evenodd" fill="#3490C1" d="M506.706,447.725l-18.539,57.033
			c31.504,10.233,65.342-7.009,75.574-38.51c10.232-31.505-7.012-65.328-38.514-75.561c-5.984-1.941-12.238-2.937-18.521-2.937
			V447.725z"/>
		<path opacity="0.698" fill-rule="evenodd" clip-rule="evenodd" fill="#797979" d="M506.706,447.725V387.75
			c-33.131,0-59.975,26.844-59.975,59.975c0,25.973,16.723,48.996,41.436,57.033L506.706,447.725z"/>
	</g>
	<g>
		<path fill="#F2F2F2" d="M579.192,385.476l-0.021,4.48h7.202v8.862h-1.301l-0.02-1.681h-10.362v1.78h-1.341l0.021-8.962h4.44
			v-9.302l1.36-0.02v3.58l8.682-0.02l0.021,1.26L579.192,385.476z M585.054,391.196h-10.362v4.682h10.362V391.196z"/>
		<path fill="#F2F2F2" d="M599.152,393.357h-4.24v-1.2h4.24v-3.161h-4.94v-0.86c-0.7,0.44-1.761,0.86-2.661,1.221l-0.74-1.12
			c4.441-1.501,6.722-3.861,8.862-7.021l1.22,0.54l-0.34,0.56c1.601,2.641,5.062,4.781,8.222,5.802l-0.74,1.14
			c-0.939-0.34-1.84-0.76-2.761-1.16v0.9h-4.841v3.161h4.261v1.2h-4.261v3.341h7.441v1.2h-16.043v-1.2h7.321V393.357z
			 M594.691,387.756l10.303,0.04c-1.9-0.96-3.801-2.36-5.281-4.401C598.313,385.315,596.632,386.735,594.691,387.756z"/>
		<path fill="#F2F2F2" d="M628.114,391.736v1.221l-7.062-0.021l-0.021,5.922l-1.28,0.02l-0.02-5.921l-8.082-0.021v-1.22l2.561,0.02
			v-4.881h5.481v-2.96h-4.501c-0.7,1.439-1.461,2.88-2.741,4.061l-1.08-0.84c1.581-1.461,2.661-3.201,3.221-5.121l0.44-1.48
			c0.38,0.16,0.74,0.319,1.101,0.52c-0.08,0.58-0.28,1.101-0.44,1.66h11.582v1.201l-6.281,0.02l0.021,2.94h5.241l0.02,1.221
			l-5.221,0.02v3.641H628.114z M615.491,388.096v3.641h4.221l0.021-3.66L615.491,388.096z"/>
		<path fill="#F2F2F2" d="M634.071,391.977c-0.8,0.261-1.72,0.601-2.521,0.82c-0.26-0.36-0.54-0.72-0.78-1.08
			c1.12-0.26,2.201-0.561,3.241-0.94l0.02-4.9l-2.681-0.021v-1.16l2.661-0.021v-3.82h1.3v3.82l2.341,0.021v1.181l-2.36-0.021
			l-0.021,4.501l2.32-0.76v1.18c-0.739,0.34-1.56,0.48-2.3,0.82l-0.021,6.001c-0.06,0.44-0.439,0.78-0.8,1.001
			c-0.78,0.279-1.74,0.159-2.601,0.159c-0.14-0.38-0.28-0.8-0.4-1.2c0.66,0.08,1.4,0.08,2.101,0.04c0.24-0.08,0.48-0.279,0.48-0.56
			L634.071,391.977z M646.614,389.136c-0.16,2.261-1.28,4.142-2.9,5.741c1.5,1.381,3.261,2.221,5.181,2.721
			c-0.24,0.46-0.52,0.801-0.76,1.2c-1.921-0.62-3.741-1.72-5.321-3.04c-1.7,1.36-3.541,2.3-5.481,2.94
			c-0.3-0.34-0.6-0.72-0.88-1.101c1.94-0.62,3.841-1.44,5.401-2.8c-1.16-1.341-1.961-2.841-2.541-4.461h-1.04v-1.201H646.614z
			 M646.214,387.776c-1.22-0.221-1.521-1.001-1.521-1.781v-3.101l-4.181-0.02c-0.06,1.3-0.04,2.681-0.66,3.721
			c-0.439,0.92-1.36,1.721-2.221,2.261l-1.02-0.94c1-0.48,2.061-1.28,2.32-2.4c0.3-0.721,0.28-1.601,0.28-2.36v-1.461h6.721v4.341
			c0.061,0.261,0.12,0.62,0.681,0.62l1.98-0.02v1.141H646.214z M640.633,390.316c0.3,0.74,0.62,1.46,1.04,2.141
			c0.32,0.54,0.66,1.08,1.16,1.48c1.081-1.08,1.801-2.021,2.301-3.621H640.633z"/>
		<path fill="#F2F2F2" d="M654.111,396.538c0.761,0.22,1.5,0.52,2.32,0.58c0.24-0.04,0.48-0.2,0.561-0.42
			c0.36-0.74,0.5-1.921,0.58-2.881c0.1-1.301,0.28-2.44,0.2-3.721l-2.98,0.02c-0.32,3.161-1.181,6.161-3.201,8.602l-1.101-0.939
			c1.641-1.74,2.401-3.961,2.841-6.201c0.4-1.961,0.28-3.921,0.32-6.021h-2.28v-1.181h8.622l0.02,1.181h-5.141v3.301l4.24,0.02
			c-0.04,1.101-0.12,2.48-0.2,3.561c-0.12,1.421-0.239,2.181-0.439,3.562c-0.141,0.84-0.341,1.92-1.32,2.2
			c-0.94,0.28-1.881-0.16-2.821-0.28L654.111,396.538z M655.932,383.976c-0.68-1.101-1.7-2.161-2.881-2.681l1.061-0.78
			c0.48,0.2,0.84,0.56,1.24,0.9c0.681,0.54,1.261,1.16,1.761,1.86L655.932,383.976z M667.814,398.738
			c-0.88-0.521-1.721-1.24-2.461-1.98c-0.5-0.5-0.979-1.08-1.38-1.641c-1.141,1.4-2.501,2.621-4.001,3.562l-0.94-0.921
			c1.66-0.96,3.061-2.28,4.261-3.801c-0.779-1.601-1.38-3.221-1.56-5.041c-0.021-0.02-0.061-0.02-0.08-0.02
			c-0.34,0.68-0.62,1.4-1.101,2l-1.18-0.66c1.94-2.801,2.66-6.222,2.68-9.762l1.221,0.38c-0.06,1.3-0.18,2.58-0.34,3.82l5.241-0.02
			v1.2h-1.24c-0.141,2.841-0.761,5.682-2.181,8.082c0.86,1.58,2.4,3.04,4.001,3.78L667.814,398.738z M662.753,385.836l-0.34,1.08
			c0.36,2,0.78,3.961,1.601,5.701c1.101-2.081,1.601-4.341,1.7-6.781H662.753z"/>
	</g>
	<g>
		<path fill="#58B5E1" d="M580.912,407.879h-6.359l-0.616,3.499l0.044,0.044c0.836-0.858,1.805-1.188,3.015-1.188
			c3.036,0,4.753,2.354,4.753,5.237c0,3.168-2.618,5.61-5.721,5.544c-2.993,0-5.677-1.649-5.721-4.885h3.124
			c0.154,1.364,1.166,2.311,2.53,2.311c1.628,0,2.662-1.43,2.662-2.97c0-1.606-0.99-2.883-2.662-2.883
			c-1.122,0-1.738,0.396-2.354,1.232h-2.816l1.519-8.516h8.604V407.879z"/>
		<path fill="#58B5E1" d="M593.145,407.879h-6.359l-0.616,3.499l0.044,0.044c0.836-0.858,1.805-1.188,3.015-1.188
			c3.036,0,4.753,2.354,4.753,5.237c0,3.168-2.618,5.61-5.721,5.544c-2.993,0-5.677-1.649-5.721-4.885h3.124
			c0.154,1.364,1.166,2.311,2.53,2.311c1.628,0,2.662-1.43,2.662-2.97c0-1.606-0.99-2.883-2.662-2.883
			c-1.122,0-1.738,0.396-2.354,1.232h-2.816l1.519-8.516h8.604V407.879z"/>
		<path fill="#58B5E1" d="M599.765,404.997c2.729,0,3.608,2.024,3.608,4.444c0,2.398-1.144,4.137-3.718,4.137
			c-2.707,0-3.631-1.805-3.631-4.225C596.024,406.955,597.19,404.997,599.765,404.997z M599.677,411.928
			c1.364,0,1.452-1.584,1.452-2.509c0-0.857-0.065-2.771-1.364-2.771c-1.408,0-1.496,1.738-1.496,2.75
			C598.269,410.344,598.269,411.928,599.677,411.928z M609.072,404.82h1.87l-9.065,16.371h-1.914L609.072,404.82z M611.118,412.434
			c2.729,0,3.608,1.914,3.608,4.335c0,2.398-1.144,4.246-3.718,4.246c-2.707,0-3.631-1.914-3.631-4.334
			C607.378,414.282,608.544,412.434,611.118,412.434z M611.03,419.365c1.364,0,1.452-1.717,1.452-2.641
			c0-0.858-0.065-2.641-1.364-2.641c-1.408,0-1.496,1.606-1.496,2.618C609.622,417.648,609.622,419.365,611.03,419.365z"/>
	</g>
</g>
<g>
	<path opacity="0.698" fill-rule="evenodd" clip-rule="evenodd" fill="#FFFFFF" d="M393.903,447.233 M393.903,447.233
		c-2.281,0-4.225,1.495-4.225,3.918c0,2.111,1.943,3.587,4.225,3.587c2.305,0,4.252-1.476,4.252-3.587
		C398.155,448.728,396.208,447.233,393.903,447.233z"/>
	<path opacity="0.698" fill-rule="evenodd" clip-rule="evenodd" fill="#FFFFFF" d="M384.024,420.847 M384.024,420.847
		c-2.326,0-4.275,1.52-4.275,3.634c0,2.09,1.949,3.871,4.275,3.871c2.254,0,4.203-1.781,4.203-3.871
		C388.228,422.366,386.278,420.847,384.024,420.847z"/>
	<path opacity="0.698" fill-rule="evenodd" clip-rule="evenodd" fill="#FFFFFF" d="M393.903,456.017 M393.903,456.017
		c-2.281,0-4.225,1.758-4.225,3.85c0,2.042,1.943,3.8,4.225,3.8c2.305,0,4.252-1.758,4.252-3.8
		C398.155,457.775,396.208,456.017,393.903,456.017z"/>
	<path opacity="0.698" fill-rule="evenodd" clip-rule="evenodd" fill="#FFFFFF" d="M393.903,438.446 M393.903,438.446
		c-2.281,0-4.225,1.755-4.225,3.799c0,2.088,1.943,3.845,4.225,3.845c2.305,0,4.252-1.757,4.252-3.845
		C398.155,440.201,396.208,438.446,393.903,438.446z"/>
	<path opacity="0.698" fill-rule="evenodd" clip-rule="evenodd" fill="#FFFFFF" d="M393.903,429.657 M393.903,429.657
		c-2.281,0-4.225,1.758-4.225,3.799c0,2.092,1.943,3.85,4.225,3.85c2.305,0,4.252-1.758,4.252-3.85
		C398.155,431.415,396.208,429.657,393.903,429.657z"/>
	<path opacity="0.698" fill-rule="evenodd" clip-rule="evenodd" fill="#FFFFFF" d="M358.827,451.151 M358.827,451.151
		c0-2.423-1.947-3.918-4.25-3.918c-2.281,0-4.229,1.495-4.229,3.918c0,2.111,1.947,3.587,4.229,3.587
		C356.88,454.738,358.827,453.263,358.827,451.151z"/>
	<path opacity="0.698" fill-rule="evenodd" clip-rule="evenodd" fill="#FFFFFF" d="M384.024,429.657 M384.024,429.657
		c-2.326,0-4.275,1.758-4.275,3.799c0,2.092,1.949,3.85,4.275,3.85c2.254,0,4.203-1.758,4.203-3.85
		C388.228,431.415,386.278,429.657,384.024,429.657z"/>
	<path opacity="0.698" fill-rule="evenodd" clip-rule="evenodd" fill="#FFFFFF" d="M413.354,442.84 M413.354,442.84
		c-2.352,0-4.016,1.781-4.016,3.891c0,2.093,1.664,3.611,4.016,3.611c2.305,0,4.297-1.518,4.297-3.611
		C417.651,444.621,415.659,442.84,413.354,442.84z"/>
	<path opacity="0.698" fill-rule="evenodd" clip-rule="evenodd" fill="#FFFFFF" d="M403.714,447.233 M403.714,447.233
		c-2.305,0-4.301,1.495-4.301,3.918c0,2.111,1.996,3.587,4.301,3.587c2.35,0,4.014-1.476,4.014-3.587
		C407.728,448.728,406.063,447.233,403.714,447.233z"/>
	<path opacity="0.698" fill-rule="evenodd" clip-rule="evenodd" fill="#FFFFFF" d="M403.714,438.446 M403.714,438.446
		c-2.305,0-4.301,1.755-4.301,3.799c0,2.088,1.996,3.845,4.301,3.845c2.35,0,4.014-1.757,4.014-3.845
		C407.728,440.201,406.063,438.446,403.714,438.446z"/>
	<path opacity="0.698" fill-rule="evenodd" clip-rule="evenodd" fill="#FFFFFF" d="M364.479,447.233 M364.479,447.233
		c-2.256,0-4.229,1.495-4.229,3.918c0,2.111,1.973,3.587,4.229,3.587c2.324,0,4.273-1.476,4.273-3.587
		C368.753,448.728,366.804,447.233,364.479,447.233z"/>
	<path opacity="0.698" fill-rule="evenodd" clip-rule="evenodd" fill="#FFFFFF" d="M374.407,447.233 M374.407,447.233
		c-2.613,0-4.23,1.495-4.23,3.918c0,2.111,1.617,3.587,4.23,3.587c2.303,0,3.918-1.476,3.918-3.587
		C378.325,448.728,376.71,447.233,374.407,447.233z"/>
	<path opacity="0.698" fill-rule="evenodd" clip-rule="evenodd" fill="#FFFFFF" d="M360.251,442.245 M360.251,442.245
		c0,2.088,1.973,3.845,4.229,3.845c2.324,0,4.273-1.757,4.273-3.845c0-2.044-1.949-3.799-4.273-3.799
		C362.224,438.446,360.251,440.201,360.251,442.245z"/>
	<path opacity="0.698" fill-rule="evenodd" clip-rule="evenodd" fill="#FFFFFF" d="M384.024,438.446 M384.024,438.446
		c-2.326,0-4.275,1.755-4.275,3.799c0,2.088,1.949,3.845,4.275,3.845c2.254,0,4.203-1.757,4.203-3.845
		C388.228,440.201,386.278,438.446,384.024,438.446z"/>
	<path opacity="0.698" fill-rule="evenodd" clip-rule="evenodd" fill="#FFFFFF" d="M354.577,446.09 M354.577,446.09
		c2.303,0,4.25-1.757,4.25-3.845c0-2.044-1.947-3.799-4.25-3.799c-2.281,0-4.229,1.755-4.229,3.799
		C350.349,444.333,352.296,446.09,354.577,446.09z"/>
	<path opacity="0.698" fill-rule="evenodd" clip-rule="evenodd" fill="#FFFFFF" d="M384.024,447.233 M384.024,447.233
		c-2.326,0-4.275,1.495-4.275,3.918c0,2.111,1.949,3.587,4.275,3.587c2.254,0,4.203-1.476,4.203-3.587
		C388.228,448.728,386.278,447.233,384.024,447.233z"/>
	<path opacity="0.698" fill-rule="evenodd" clip-rule="evenodd" fill="#FFFFFF" d="M384.024,456.017 M384.024,456.017
		c-2.326,0-4.275,1.758-4.275,3.85c0,2.042,1.949,3.8,4.275,3.8c2.254,0,4.203-1.758,4.203-3.8
		C388.228,457.775,386.278,456.017,384.024,456.017z"/>
	<path opacity="0.698" fill-rule="evenodd" clip-rule="evenodd" fill="#FFFFFF" d="M384.024,464.972 M384.024,464.972
		c-2.326,0-4.275,1.755-4.275,3.801c0,2.088,1.949,3.845,4.275,3.845c2.254,0,4.203-1.757,4.203-3.845
		C388.228,466.727,386.278,464.972,384.024,464.972z"/>
	<path opacity="0.698" fill-rule="evenodd" clip-rule="evenodd" fill="#FFFFFF" d="M370.177,442.245 M370.177,442.245
		c0,2.088,1.617,3.845,4.23,3.845c2.303,0,3.918-1.757,3.918-3.845c0-2.044-1.615-3.799-3.918-3.799
		C371.794,438.446,370.177,440.201,370.177,442.245z"/>
</g>
<g>
	<path fill="#58B5E1" d="M115.69,394.922h-10.116l-0.98,5.566l0.07,0.07c1.33-1.365,2.871-1.89,4.795-1.89
		c4.831,0,7.561,3.745,7.561,8.331c0,5.041-4.166,8.926-9.101,8.821c-4.76,0-9.031-2.625-9.101-7.771h4.971
		c0.245,2.17,1.855,3.675,4.025,3.675c2.59,0,4.235-2.275,4.235-4.726c0-2.555-1.575-4.585-4.235-4.585
		c-1.785,0-2.765,0.63-3.746,1.96h-4.48l2.416-13.546h13.687V394.922z"/>
	<path fill="#58B5E1" d="M125.629,400.732c2.135,0.175,5.215-0.245,5.215-3.045c0-2.065-1.645-3.255-3.465-3.255
		c-2.485,0-3.815,1.855-3.78,4.375h-4.726c0.175-5.005,3.43-8.471,8.471-8.471c3.92,0,8.226,2.416,8.226,6.791
		c0,2.31-1.155,4.375-3.43,5.005v0.07c2.695,0.595,4.34,2.835,4.34,5.565c0,5.146-4.306,8.051-9.101,8.051
		c-5.496,0-9.206-3.291-9.101-8.926h4.726c0.105,2.661,1.435,4.831,4.306,4.831c2.24,0,3.99-1.54,3.99-3.85
		c0-3.71-3.255-3.641-5.67-3.641V400.732z"/>
	<path fill="#58B5E1" d="M142.988,409.028c0.315,1.646,1.575,3.045,3.291,3.045c3.605,0,4.55-4.726,4.69-7.456l-0.07-0.07
		c-1.365,1.925-3.15,2.73-5.531,2.73c-2.1,0-4.235-0.98-5.635-2.521c-1.295-1.505-1.891-3.535-1.891-5.46
		c0-5.005,3.466-8.961,8.576-8.961c7.421,0,9.416,6.476,9.416,12.671c0,5.986-2.66,12.812-9.626,12.812
		c-4.235,0-7.386-2.485-7.946-6.791H142.988z M150.514,398.982c0-2.275-1.47-4.55-3.955-4.55c-2.38,0-3.746,2.275-3.746,4.48
		c0,2.31,1.19,4.62,3.746,4.62C149.219,403.533,150.514,401.397,150.514,398.982z"/>
	<path fill="#58B5E1" d="M161.749,405.247v11.362h-1.5v-8.802c-0.6,1-1.22,1.58-2.021,2.28l-0.98-1.2
		c2.28-2.041,3.5-4.521,4.261-7.162c0.22-0.78,0.46-1.72,0.68-2.98l1.3,0.56C163.149,401.506,162.529,403.447,161.749,405.247z
		 M173.631,415.549h-9.182c-0.26,0-0.78-0.26-1.101-0.74c-0.36-0.58-0.52-1.48-0.18-2.081c2.36-3.221,6.421-8.402,8.602-10.822
		h-7.722v-1.46h9.982l-0.04,1.42c-3.341,3.561-6.381,7.501-9.042,11.022c-0.16,0.28-0.4,0.52-0.32,0.84
		c0.02,0.18,0.28,0.28,0.42,0.36h8.042c0.24,0,0.42-0.16,0.54-0.34c0.18-0.46,0.18-1.04,0.3-1.82l1.5,0.66
		C175.032,414.429,174.692,415.549,173.631,415.549z"/>
	<path fill="#58B5E1" d="M189.571,413.389c0,0.56,0.4,0.8,0.76,0.8h2.36c0.58,0,0.78-1.4,1.12-3.001l1.541,0.5
		c-0.16,0.98-0.38,1.88-0.7,2.661c-0.3,0.72-1.041,1.38-1.82,1.38h-2.801c-1.66,0-2.061-1.46-2.061-2.561v-6.721l-2.541-0.02
		c0.06,5.821-2.701,8.262-6.241,10.242l-1.1-1.521c3.521-1.84,5.741-3.821,5.721-8.722h-4.581v-1.521l15.063,0.02v1.521l-4.721-0.02
		V413.389z M180.929,399.986h11.703v1.521h-11.703V399.986z"/>
	<path fill="#FFFFFF" d="M107.15,449.086c-0.06,2.941-0.74,5.562-1.68,7.902c1,1.5,1.98,3.361,2.641,5.201l-1.5,0.66
		c-0.46-1.561-1.18-3.341-1.86-4.321c-0.66,1.661-2.201,4.181-4.921,6.001l-1.16-1.16c2.081-1.3,4.141-3.641,5.181-6.241
		c-0.8-1.18-2.34-2.901-3.701-3.981l1.12-0.88c1.34,1.18,2.681,2.46,3.201,3.261c0.54-1.48,1.061-3.301,1.16-5.061h-6.321v-1.38
		H107.15z M111.011,464.529l-0.5-1.52c0.9,0.04,1.6,0.16,2.3,0.12c0.12,0,0.2-0.1,0.28-0.22l-0.02-10.902h-5.542v-1.42h5.521v-3.841
		h1.54v3.841h1.9v1.4h-1.92v11.222c-0.1,0.5-0.46,0.94-0.9,1.16l-0.46,0.16H111.011z M108.95,454.107
		c0.96,0.88,2.36,2.741,3.121,4.681l-1.42,0.86c-0.621-1.721-1.561-3.401-2.801-4.761L108.95,454.107z"/>
	<path fill="#FFFFFF" d="M125.89,450.386c-0.5,1.96-2.34,4.541-4.801,6.281l-1.18-1.18c2.581-1.74,3.821-3.301,4.701-5.901
		L125.89,450.386z M133.771,464.169c-0.26-0.86-0.56-1.541-0.88-2.221c-2.121,0.38-7.962,1.14-9.802,1.641l-1-1.46
		c3.241-2.821,4.501-6.821,4.881-8.942l1.541,0.52c-0.36,2.661-1.661,5.381-4.061,8.022c3.241-0.46,5.421-0.72,7.782-1.141
		c-0.58-0.92-1.14-1.62-2.141-2.561l1.48-0.66c1.78,1.701,2.98,3.781,3.721,6.102L133.771,464.169z M135.612,456.667
		c-2.801-1.54-4.501-5.161-5.101-7.341h-5.181v-1.521l6.461,0.02c0.74,2.981,2.041,5.941,4.941,7.682L135.612,456.667z"/>
	<path fill="#FFFFFF" d="M143.269,463.689c0.56-0.28,0.78-0.78,0.84-1.14v-3.48c-0.92,0.58-2.361,1.34-3.801,1.72l-0.82-1.36
		c2.32-0.68,4.421-1.74,5.741-3.181h-5.141v-1.44h7.381v-1.64h-5.261v-1.48h5.261v-1.52h-6.441v-1.46h6.441v-2.161h1.601v2.201
		h6.361v1.4h-6.301v1.54h5.161v1.44h-5.201v1.68h7.262v1.44h-5.941c0.34,1.18,0.58,1.84,1.06,2.781
		c1.021-0.52,2.161-1.44,3.121-2.381l1.141,1.081c-1.161,1.14-2.321,1.96-3.381,2.561c1.12,1.32,2.781,2.3,4.661,3.101l-1.061,1.3
		c-4.781-2.48-6.201-4.541-7.082-8.442h-1.7c-0.38,0.62-0.96,1.26-1.521,1.76v4.601l3.961-1.96v1.561l-5.261,2.641L143.269,463.689z
		"/>
	<path fill="#FFFFFF" d="M167.59,450.246v-3.4h1.44v3.4h6.461v12.823c0,0.76-0.48,1.041-1.04,1.221c-0.521,0.16-1.32,0.1-2.261,0.08
		l-0.58-1.48c0.86,0.06,1.32,0.12,1.92,0.08c0.36-0.08,0.5-0.18,0.5-0.521v-10.762h-5.061c0,0.78-0.04,1.661-0.12,2.46
		c1.84,1.42,3.061,2.881,4.401,5.121l-1.22,0.92c-0.96-1.68-2.38-3.281-3.641-4.401c-0.68,1.58-2.161,3.48-4.661,4.821l-0.92-1.28
		c3.841-2.12,4.681-4.201,4.681-7.642h-5.181v12.923h-1.48v-14.363H167.59z"/>
	<path fill="#FFFFFF" d="M179.388,463.469c2.281-1.34,4.461-3.161,5.861-5.221c-0.56-0.64-1.64-1.46-2.801-2.141l1.2-1.18
		c0.98,0.64,1.901,1.36,2.481,2.061c0.84-1.44,1.56-3.701,1.86-5.541h-3.581c-0.72,1.62-1.8,3.44-3.161,4.921l-1.42-0.78
		c2.261-2.42,4.021-5.761,3.961-9.142l1.561,0.34c-0.08,1.52-0.26,2.4-0.44,3.181l4.861-0.02c-0.66,7.662-4.661,12.123-9.242,14.683
		L179.388,463.469z M196.092,458.348c-0.88-2.041-2.48-3.961-3.901-5.101l0.02,11.382h-1.56v-17.904l1.56-0.02l-0.02,5.801l0.8-0.52
		c1.3,0.82,3.781,3.5,4.481,5.441L196.092,458.348z"/>
	<path fill="#FFFFFF" d="M199.128,463.049c2.581-0.38,4.821-0.54,6.681-1.86c1.42-1.02,1.521-2.92,1.521-4.881h1.5
		c0,1.62-0.04,3.101-0.6,4.221c-0.44,0.88-1.08,1.601-1.92,2.161c-1.5,1-4.681,1.62-6.361,1.84L199.128,463.049z M202.609,453.287
		v-2.401c-0.58,0.44-1.44,0.94-2.46,1.36l-0.98-1.24c2.401-1.02,4.301-2.42,5.981-4.381l1.14,0.96c-0.76,0.9-1.52,1.6-2.14,2.18
		v3.521H202.609z M202.089,454.007h11.643v6.981h-1.561v-5.521h-8.522v5.901h-1.56V454.007z M212.611,448.786l2.861-0.52l0.28,1.36
		l-5.461,1c0.64,0.54,1.74,1.08,2.921,1.42c0.42,0.12,0.76,0.38,1.18,0.14c0.08-0.06,0.18-0.14,0.24-0.32
		c0.16-0.32,0.22-0.88,0.28-1.5l1.44,0.5c-0.32,1.48-0.44,1.98-1.041,2.541c-0.76,0.521-2.28,0.16-3.121-0.12
		c-1.42-0.46-2.8-1.24-3.761-2.321l-3.141,0.58l-0.42-1.34l2.7-0.5c-0.14-0.32-0.6-1.58-0.72-2.621l1.521-0.42
		c0.22,1.14,0.42,2.021,0.84,2.721l2.621-0.46c-0.54-0.38-1.32-0.601-2.341-0.8l0.76-1.18c0.74,0.04,2.161,0.4,3,0.98
		L212.611,448.786z M215.672,464.629c-1.96-1.44-4.781-2.48-7.222-2.98l0.7-1.3c2.38,0.52,4.981,1.26,7.582,2.96L215.672,464.629z"
		/>
	<path fill="#FFFFFF" d="M219.188,462.169c1.32-1.1,2.341-2.221,3.001-3.701l1.14,0.78c-0.64,1.561-1.66,2.761-3,3.881
		L219.188,462.169z M219.708,449.866l0.02-1.46l3.94,0.02v-1.74h1.521l-0.02,1.72h4.021l0.02,1.46h-4.041l0.02,1.36h3.241l0.02,1.44
		l-7.942,0.02v-1.46l3.141-0.02l0.02-1.34H219.708z M221.449,463.249h1.76c0.38,0,0.58-0.14,0.58-0.56v-4.901h-3.881v-1.44h9.102
		v1.44h-3.721l0.02,5.141c0,0.74-0.34,1.68-1.34,1.68h-1.44L221.449,463.249z M220.869,455.188v-1.44h7.162v1.44H220.869z
		 M226.69,458.328c1.28,0.92,1.76,1.62,2.541,2.84l-1.22,0.82c-0.64-1.06-1.36-2.021-2.441-2.801L226.69,458.328z M227.75,463.689
		c3.141-2.62,3.541-4.961,3.781-7.042c0.08-0.8,0.18-2.581,0.22-3.521l1.5,0.22l-0.12,2.5c0.42,2.88,1.56,5.781,4.141,7.622
		l-1.02,1.14c-1.82-1.12-3.261-3.581-3.701-5.341c-0.68,2.101-1.541,3.481-3.621,5.461L227.75,463.689z M234.011,454.247
		c0.38-1,0.62-1.84,0.78-2.541l-3.341,0.02c-0.32,1.26-0.86,2.581-1.74,3.921l-1.48-0.64c1.8-2.4,2.301-5.261,2.341-8.382l1.44,0.38
		c-0.02,1.221-0.08,2.361-0.26,3.261h4.641c-0.1,1.541-0.521,2.841-0.98,4.241L234.011,454.247z"/>
	<path fill="#FFFFFF" d="M241.128,447.806c5.682,0.22,10.922-0.3,13.163-1.24l0.94,1.28c-2.12,0.68-4.201,1.041-6.161,1.22
		l0.02,1.38l7.122-0.02v1.48l-5.381-0.02c1.4,1.28,4.481,3,6.542,3.121l-0.78,1.4c-3.161-0.8-5.421-2-7.521-4.181v3.141h-1.541
		v-3.181c-1.82,2.041-4.581,3.561-7.521,4.421l-0.82-1.32c2.561-0.74,4.821-1.861,6.401-3.401h-5.221v-1.46l7.161,0.02v-1.22
		c-1.7,0.14-3.661,0.18-5.681,0.14L241.128,447.806z M249.311,463.129c0,0.6-0.44,1.3-1,1.38c-0.94,0.24-1.9,0.1-2.96,0.16
		c-0.18-0.54-0.32-1-0.54-1.621l2.48,0.1c0.32,0.02,0.48-0.24,0.48-0.48v-2.061h-7.982v-1.44h8.002l-0.02-0.96
		c1.1-0.4,2.041-0.84,2.521-1.14l-7.321-0.04l-0.02-1.46l10.082,0.02l0.02,1.28c-1.18,0.98-2.521,1.76-3.761,2.261l7.501,0.04
		l0.02,1.44h-7.501V463.129z"/>
	<path fill="#FFFFFF" d="M262.469,456.448c0,2.74-0.16,5.921-2.08,8.342l-1.28-1c0.9-1.32,1.46-2.521,1.62-3.941
		c0.12-1.18,0.18-2.4,0.18-3.621v-7.361h7.281c-0.26-0.38-0.6-0.7-1.62-1.34l1.48-0.82c0.6,0.6,1.64,1.6,1.98,2.161h6.622l0.02,1.42
		h-14.183L262.469,456.448z M274.312,458.708c-0.7,1.18-2.681,2.681-3.481,3.141c0.48,0.22,1.28,0.46,2.081,0.64
		c1.34,0.32,2.681,0.54,4.281,0.66c-0.24,0.62-0.56,0.96-0.82,1.42c-2.561-0.36-5.021-0.82-7.142-1.86
		c-0.58,0.24-1.18,0.52-1.82,0.76c-1.46,0.56-3.101,0.94-4.821,1.14c-0.34-0.44-0.6-0.82-1.06-1.4c2.46-0.2,4.461-0.8,6.141-1.4
		c-0.98-0.7-2.101-1.84-2.88-3.021h-1.521v-1.42l11.083,0.04L274.312,458.708z M272.991,456.368h-7.542l0.02-2.741h-2.681v-1.38
		l2.661-0.02v-1.54h1.58v1.54h4.401v-1.56h1.561v1.56h3.261v1.42h-3.261V456.368z M266.63,458.788c1,1.12,1.58,1.641,2.601,2.3
		c1.22-0.66,2.36-1.36,3.241-2.28L266.63,458.788z M267.09,454.987l4.321-0.02l0.02-1.32h-4.381L267.09,454.987z"/>
	<path fill="#FFFFFF" d="M283.669,458.528c0.36-0.14,1.041-0.34,1.801-0.62l0.04,1.521c-1.781,0.64-3.441,1.22-5.221,1.88
		l-1.061-1.36c1.181-0.28,2.101-0.56,2.901-0.84v-5.481l-2.261-0.02l0.02-1.42h2.241v-4.921h1.52v4.921h1.521v1.44h-1.5V458.528z
		 M285.35,455.647v-6.501h2.96c-0.3-0.48-1.08-1.14-1.92-1.86l1.541-0.6c0.9,0.76,1.58,1.64,2.081,2.44l1.8,0.02
		c0.76-0.74,1.3-1.66,1.74-2.8c0.56,0.22,0.94,0.5,1.42,0.78c-0.46,0.86-0.92,1.601-1.3,1.98h2.82v6.542H285.35z M288.03,464.689
		h-1.541v-8.002l8.882-0.02v8.002l-1.5-0.02l0.02-1.14l-5.881,0.02L288.03,464.689z M290.17,454.227v-3.661l-3.301-0.02v3.681
		H290.17z M288.09,450.787c0.84,0.8,1.28,1.72,1.78,2.72c-0.48,0.22-0.84,0.42-1.38,0.62c-0.28-1.08-0.88-1.84-1.581-2.74
		L288.09,450.787z M287.99,458.088v1.22h5.881l0.02-1.22H287.99z M288.01,460.729v1.36h5.881l-0.02-1.36H288.01z M294.972,454.187
		v-3.641h-3.341v3.641H294.972z M294.711,451.146c-0.44,1.1-0.9,2.061-1.68,3.021l-1.28-0.68c0.72-0.86,1.38-2.1,1.72-2.92
		L294.711,451.146z"/>
	<path fill="#FFFFFF" d="M116.232,489.989c-5.521-2.061-7.762-4.661-8.802-7.922h-2.461v6.542l3.901-1.641v1.5l-4.761,2.22
		l-0.9-1.34c0.2-0.18,0.24-0.58,0.24-0.86v-6.421h-4.141v-1.46h4.341v-7.461h1.521v5.681c2.38-1.06,5.021-2.46,7.282-4.321
		l1.04,1.14c-2.5,1.98-5.321,3.521-8.322,4.641v0.32h11.143v1.46h-7.402c1.081,3.461,4.921,5.601,8.342,6.582L116.232,489.989z"/>
	<path fill="#FFFFFF" d="M127.43,485.308l-0.581-0.74c0.94-0.42,1.201-1.18,1.201-1.98h-1.081v-2.2h2.201v2.1
		C129.17,483.167,128.93,484.608,127.43,485.308z"/>
	<path fill="#FFFFFF" d="M156.792,488.369v1.48l-16.984,0.02v-1.48l7.702,0.02l-0.02-4.481h-5.821l0.02-1.521l5.801,0.02l0.02-3.661
		l-7.161-0.02v-1.48h15.803l0.04,1.48h-7.122v3.661h5.881l-0.04,1.5l-5.801,0.02l0.02,4.481L156.792,488.369z M146.229,472.905
		c1.601,0.8,2.741,1.94,3.581,3.401l-1.38,0.78c-0.9-1.601-1.92-2.341-3.521-3.341L146.229,472.905z"/>
	<path fill="#FFFFFF" d="M161.469,482.228l-0.02-5.361l4.121,0.04v-1.34l-5.681-0.02v-1.42h17.004v1.4h-5.621l-0.02,1.38l4.201-0.04
		l-0.02,5.361h-7.542l0.82,0.66l-0.84,0.92h8.862l-0.02,1.38l-3.401,0.02c-0.58,0.9-1.4,1.74-2.08,2.261
		c0.9,0.28,2.06,0.7,3.181,1.24c0.72,0.34,1.46,0.7,2.34,1.22l-1.08,1.18c-1.82-0.96-4.301-1.98-6.102-2.5
		c-2.26,1.32-5.841,2.16-9.282,2.4l-1.061-1.4c3.161-0.16,5.401-0.48,7.882-1.44c-1.12-0.2-3.021-0.4-4.721-0.58l2.141-2.36h-4.441
		v-1.42l5.801-0.02l1.46-1.54L161.469,482.228z M162.989,480.787h2.541l0.04-2.5h-2.58V480.787z M166.59,485.188l-1.1,1.2
		c0.74,0.12,1.46,0.14,2.5,0.34c0.36,0.08,1.06,0.2,1.34,0.24c0.84-0.52,1.7-1.16,2.16-1.76L166.59,485.188z M167.13,475.526v1.34
		h2.561v-1.34H167.13z M167.13,478.287v2.521h2.581l-0.02-2.521H167.13z M171.271,478.287v2.521h2.6l-0.02-2.521H171.271z"/>
	<path fill="#FFFFFF" d="M182.569,484.468c-0.56,0.18-1.42,0.52-2.32,0.76c-0.3-0.44-0.56-0.78-0.94-1.32
		c1.3-0.3,2.341-0.6,3.261-0.92v-4.521h-2.601v-1.44h2.601v-3.721h1.521v3.721h2.3v1.44h-2.3v4l2.24-0.74v1.46
		c-0.82,0.38-1.62,0.52-2.24,0.8v5.721c0,0.44-0.42,0.94-0.88,1.12c-0.8,0.3-1.76,0.16-2.701,0.16c-0.16-0.48-0.28-0.88-0.5-1.5
		c0.9,0.1,1.44,0.1,2.101,0.08c0.2,0.02,0.5-0.22,0.46-0.46V484.468z M184.85,489.629c2.06-0.66,3.861-1.44,5.261-2.661
		c-1.04-1.2-1.84-2.661-2.38-4.161h-1.04v-1.46h8.402c-0.16,2.4-1.28,4.261-2.741,5.721c1.32,1.22,3.141,2.041,5.101,2.581
		l-0.98,1.4c-1.72-0.44-4.101-2.021-5.281-2.98c-1.36,1.14-3.141,2.2-5.321,2.9L184.85,489.629z M184.969,480.267
		c1.161-0.54,2.101-1.3,2.361-2.341c0.24-0.9,0.26-2.32,0.28-3.801h6.822l0.02,4.301c0,0.32,0.16,0.5,0.56,0.5h2v1.4h-2.461
		c-1.3-0.24-1.62-1.101-1.62-1.88v-2.861l-3.761-0.02c-0.06,1.12-0.08,2.46-0.66,3.541c-0.48,0.9-1.26,1.7-2.34,2.36
		L184.969,480.267z M189.351,482.808c0.3,0.88,1.3,2.681,1.92,3.121c0.92-0.92,1.6-1.8,2.02-3.121H189.351z"/>
	<path fill="#FFFFFF" d="M212.071,490.809c-0.12-0.54-0.34-1.02-0.44-1.62c0.9,0.02,1.3,0.2,1.96,0.06
		c0.34-0.08,0.54-0.28,0.54-0.64v-11.042l-11.603-0.02l0.02,13.683h-1.56l0.02-15.144h5.501c0.76-0.82,1.3-1.88,1.601-3.161
		l1.54,0.7c-0.38,0.98-0.88,1.92-1.28,2.44l7.302,0.02v13.043c0,0.96-0.62,1.68-1.541,1.68H212.071z M211.851,479.927l0.02,7.021
		h-7.102l0.02-7.021H211.851z M210.351,481.387l-4.061-0.02v4.121l4.081,0.02L210.351,481.387z"/>
	<path fill="#FFFFFF" d="M231.831,475.686h0.92v2.041h-1.88v-1.601c0-0.98,0-2.36,1.601-3.081l0.44,0.68
		C231.891,474.146,231.851,475.126,231.831,475.686z M234.872,475.686h0.92v2.041h-1.881v-1.601c0-0.98,0-2.36,1.601-3.081
		l0.44,0.68C234.932,474.146,234.892,475.126,234.872,475.686z"/>
	<path fill="#58B5E1" d="M258.211,487.331v1.716h-17.845l-0.022-1.716H258.211z M241.555,474.041l15.38,0.022v1.716l-15.402,0.022
		L241.555,474.041z M255.659,480.422v1.716l-12.872,0.022v-1.738H255.659z"/>
	<path fill="#58B5E1" d="M263.004,472.566c4.841,0.22,12.19-0.374,15.204-1.254l0.968,1.386c-2.442,0.594-4.775,0.836-6.931,1.1
		l-0.022,1.078h8.075v1.562h-8.075v1.1h6.051v7.327h-6.051v1.056h6.359v1.563l-6.315,0.022l0.044,1.232l8.691,0.022l0.022,1.563
		h-19.319l-0.022-1.563h8.889v-1.276h-6.623v-1.541h6.601l0.022-1.078H264.5l0.022-7.327h6.051l-0.022-1.078h-8.141v-1.584h8.097
		v-0.924l-6.535,0.176L263.004,472.566z M266.195,483.326l4.356-0.022l0.022-1.364l-4.378,0.022V483.326z M270.573,480.422
		l-0.022-1.32h-4.334v1.32H270.573z M272.224,480.4h4.357v-1.276h-4.357V480.4z M272.224,481.962v1.364h4.379l0.022-1.386
		L272.224,481.962z"/>
	<path fill="#58B5E1" d="M284.851,480.07h17.052v1.826l-17.052,0.022V480.07z"/>
	<path fill="#58B5E1" d="M106.329,510.364c-0.44-1.364-1.232-2.376-1.782-2.993v10.232h-1.672v-9.066
		c-0.352,0.902-1.342,2.464-2.662,4.093l-1.342-0.99c1.892-2.552,3.652-4.951,4.004-7.789H99.86v-1.562h3.014l0.022-4.313
		l1.65,0.022v4.291l2.618-0.022v1.584h-2.64v2.178l0.66-0.308c1.21,1.012,2.046,2.245,2.662,3.697L106.329,510.364z
		 M105.251,516.173c5.611-2.267,8.339-4.774,11.001-9.417l1.43,0.638c-0.946,1.76-2.024,3.411-3.212,4.709
		c1.519,0.814,3.411,2.2,4.467,4.158l-1.342,1.145c-0.748-1.98-3.433-3.696-4.313-4.093c-1.893,1.76-4.203,3.059-6.623,4.158
		L105.251,516.173z M106.175,511.882c2.948-1.276,4.533-3.081,6.007-4.73c-1.21,0.088-2.53,0.352-4.005,0.594l-0.88-1.562
		c1.518-1.254,2.882-2.663,3.477-4.005h-3.829v-1.606h4.797c-0.418-0.528-1.276-1.276-2.289-1.937l1.342-1.122
		c1.1,0.792,1.914,1.563,2.86,2.772l-0.374,0.264l5.148,0.044v1.584h-5.699c-0.726,1.342-1.54,2.75-2.574,3.521l3.168-0.286
		c0.396-0.616,0.814-1.342,1.21-2.223l1.475,0.726c-1.716,3.609-4.489,7.283-8.164,9.132L106.175,511.882z"/>
	<path fill="#FFFFFF" d="M122.869,504.227l-0.44-0.68c1.02-0.42,1.06-1.4,1.08-1.96h-0.92v-2.041h1.88v1.6
		C124.469,502.126,124.469,503.506,122.869,504.227z M125.909,504.227l-0.44-0.68c1.02-0.42,1.06-1.4,1.08-1.96h-0.92v-2.041h1.881
		v1.6C127.51,502.126,127.51,503.506,125.909,504.227z"/>
	<path fill="#FFFFFF" d="M140.908,506.487c1.54-1.34,3.161-3.5,4.061-6.961l1.34,0.42c-0.16,0.5-0.2,0.9-0.3,1.16
		c1.08,0.66,2.141,1.721,3.021,2.981l-1.14,0.94c-0.72-1.04-1.5-2.04-2.261-2.541c-0.9,1.94-1.74,3.261-3.561,5.041L140.908,506.487
		z M146.649,516.189c-1.06-1.861-2.881-3.261-4.441-4.021l0.96-1.02c0.66,0.28,1.42,0.8,1.96,1.16c0.84-1.16,1.3-1.96,1.96-2.98
		l-5.381-0.02v-1.38h7.201l-0.02,1.3c-0.92,1.54-2.02,3.041-2.74,3.94c0.5,0.521,1,0.94,1.64,2.021L146.649,516.189z
		 M146.649,507.607c-0.48-0.78-1.521-1.88-2.181-2.24l1-0.82c0.74,0.46,1.74,1.26,2.24,2.241L146.649,507.607z M154.251,510.388
		c0,1.84-0.74,3.7-2.161,4.921c-1.14,0.98-2.08,1.521-3.641,2.021l-0.96-1.14c1.5-0.621,4.041-1.721,4.861-3.701
		c0.22-0.7,0.4-1.521,0.4-2.321l0.02-4.181h1.48V510.388z M158.472,500.346v1.44h-3.98c-0.16,0.58-0.66,1.561-0.86,2l4.081-0.02
		v8.942h-1.521v-7.542h-5.361l-0.02,7.802h-1.42l-0.02-9.182h2.74c0.28-0.54,0.74-1.52,0.88-2.021h-4.341v-1.42H158.472z
		 M157.852,517.09c-0.92-1.441-2.38-2.842-3.801-3.642l1.161-0.98c1.62,1.1,2.78,2.1,3.781,3.581L157.852,517.09z"/>
	<path fill="#FFFFFF" d="M167.33,512.928l-5.281,2.26l-1.14-1.181l2.761-1.1v-6.101h-2.261l0.04-1.44l2.221-0.02v-4.701h1.5v4.701
		l2,0.02v1.44h-1.98l-0.02,5.541l2.161-1V512.928z M166.169,514.349l7.082-2.321l0.02,1.541l-6.202,2.121L166.169,514.349z
		 M179.492,513.629c-0.26,1.199-0.58,2.279-1.041,3.28c-0.34,0.479-0.88,0.681-1.46,0.54c-0.7-0.18-0.98-0.92-1.28-1.381
		c-0.36-0.539-0.6-1.18-0.82-1.66c-0.64,0.801-1.96,2.041-3.221,2.881l-1.32-0.939c1.661-1.081,3.021-2.301,3.981-3.682
		c-0.78-2.7-0.98-5.981-1.14-8.702h-6.742v-1.46h6.602v-3.081h1.521v3.101h1.6c-0.14-0.6-0.6-1.24-1.48-1.94l1.561-0.5
		c0.74,0.8,1.14,1.641,1.38,2.44l1.22-0.02v1.44l-4.201,0.02c0.16,2.4,0.36,4.361,0.78,6.761c0.68-1.1,1.1-3.201,1.14-5.721
		l1.42,0.34c-0.02,2.88-0.8,5.401-2,7.582c0.3,0.88,0.64,1.781,1.22,2.601c0.14,0.14,0.14,0.14,0.3-0.101
		c0.24-0.86,0.44-1.501,0.52-2.721L179.492,513.629z M167.609,511.468v-5.901l5.062,0.02l-0.02,5.881H167.609z M171.13,507.027h-2
		l-0.02,2.981h2.021V507.027z"/>
</g>
</svg>
