<?xml version="1.0" encoding="utf-8"?>
<!-- Generator: Adobe Illustrator 16.0.0, SVG Export Plug-In . SVG Version: 6.00 Build 0)  -->
<!DOCTYPE svg PUBLIC "-//W3C//DTD SVG 1.1//EN" "http://www.w3.org/Graphics/SVG/1.1/DTD/svg11.dtd">
<svg version="1.1" id="Layer_1" xmlns="http://www.w3.org/2000/svg" xmlns:xlink="http://www.w3.org/1999/xlink" x="0px" y="0px"
	 width="768px" height="1024px" viewBox="0 0 768 1024" enable-background="new 0 0 768 1024" xml:space="preserve">
<g>
	<path opacity="0.698" fill="#FFFFFF" enable-background="new    " d="M393.903,447.233c-2.281,0-4.226,1.494-4.226,3.918
		c0,2.11,1.943,3.587,4.226,3.587c2.305,0,4.252-1.477,4.252-3.587C398.155,448.728,396.208,447.233,393.903,447.233z"/>
	<path opacity="0.698" fill="#FFFFFF" enable-background="new    " d="M384.024,420.847c-2.326,0-4.275,1.52-4.275,3.634
		c0,2.09,1.949,3.87,4.275,3.87c2.254,0,4.202-1.78,4.202-3.87C388.228,422.366,386.278,420.847,384.024,420.847z"/>
	<path opacity="0.698" fill="#FFFFFF" enable-background="new    " d="M393.903,456.017c-2.281,0-4.226,1.759-4.226,3.851
		c0,2.042,1.943,3.8,4.226,3.8c2.305,0,4.252-1.758,4.252-3.8C398.155,457.775,396.208,456.017,393.903,456.017z"/>
	<path opacity="0.698" fill="#FFFFFF" enable-background="new    " d="M393.903,438.446c-2.281,0-4.226,1.755-4.226,3.799
		c0,2.088,1.943,3.845,4.226,3.845c2.305,0,4.252-1.757,4.252-3.845C398.155,440.201,396.208,438.446,393.903,438.446z"/>
	<path opacity="0.698" fill="#FFFFFF" enable-background="new    " d="M393.903,429.657c-2.281,0-4.226,1.758-4.226,3.799
		c0,2.092,1.943,3.85,4.226,3.85c2.305,0,4.252-1.758,4.252-3.85C398.155,431.415,396.208,429.657,393.903,429.657z"/>
	<path opacity="0.698" fill="#FFFFFF" enable-background="new    " d="M358.827,451.151c0-2.424-1.947-3.918-4.25-3.918
		c-2.281,0-4.229,1.494-4.229,3.918c0,2.11,1.947,3.587,4.229,3.587C356.88,454.738,358.827,453.263,358.827,451.151z"/>
	<path opacity="0.698" fill="#FFFFFF" enable-background="new    " d="M384.024,429.657c-2.326,0-4.275,1.758-4.275,3.799
		c0,2.092,1.949,3.85,4.275,3.85c2.254,0,4.202-1.758,4.202-3.85C388.228,431.415,386.278,429.657,384.024,429.657z"/>
	<path opacity="0.698" fill="#FFFFFF" enable-background="new    " d="M413.354,442.84c-2.352,0-4.016,1.781-4.016,3.892
		c0,2.093,1.664,3.61,4.016,3.61c2.306,0,4.298-1.518,4.298-3.61C417.651,444.621,415.659,442.84,413.354,442.84z"/>
	<path opacity="0.698" fill="#FFFFFF" enable-background="new    " d="M403.714,447.233c-2.305,0-4.301,1.494-4.301,3.918
		c0,2.11,1.996,3.587,4.301,3.587c2.351,0,4.014-1.477,4.014-3.587C407.728,448.728,406.063,447.233,403.714,447.233z"/>
	<path opacity="0.698" fill="#FFFFFF" enable-background="new    " d="M403.714,438.446c-2.305,0-4.301,1.755-4.301,3.799
		c0,2.088,1.996,3.845,4.301,3.845c2.351,0,4.014-1.757,4.014-3.845C407.728,440.201,406.063,438.446,403.714,438.446z"/>
	<path opacity="0.698" fill="#FFFFFF" enable-background="new    " d="M364.479,447.233c-2.256,0-4.229,1.494-4.229,3.918
		c0,2.11,1.973,3.587,4.229,3.587c2.324,0,4.273-1.477,4.273-3.587C368.753,448.728,366.804,447.233,364.479,447.233z"/>
	<path opacity="0.698" fill="#FFFFFF" enable-background="new    " d="M374.407,447.233c-2.613,0-4.23,1.494-4.23,3.918
		c0,2.11,1.617,3.587,4.23,3.587c2.303,0,3.918-1.477,3.918-3.587C378.325,448.728,376.71,447.233,374.407,447.233z"/>
	<path opacity="0.698" fill="#FFFFFF" enable-background="new    " d="M360.251,442.245c0,2.088,1.973,3.845,4.229,3.845
		c2.323,0,4.272-1.757,4.272-3.845c0-2.044-1.949-3.799-4.272-3.799C362.224,438.446,360.251,440.201,360.251,442.245z"/>
	<path opacity="0.698" fill="#FFFFFF" enable-background="new    " d="M384.024,438.446c-2.326,0-4.275,1.755-4.275,3.799
		c0,2.088,1.949,3.845,4.275,3.845c2.254,0,4.202-1.757,4.202-3.845C388.228,440.201,386.278,438.446,384.024,438.446z"/>
	<path opacity="0.698" fill="#FFFFFF" enable-background="new    " d="M354.577,446.09c2.303,0,4.25-1.757,4.25-3.845
		c0-2.044-1.947-3.799-4.25-3.799c-2.281,0-4.229,1.755-4.229,3.799C350.349,444.333,352.296,446.09,354.577,446.09z"/>
	<path opacity="0.698" fill="#FFFFFF" enable-background="new    " d="M384.024,447.233c-2.326,0-4.275,1.494-4.275,3.918
		c0,2.11,1.949,3.587,4.275,3.587c2.254,0,4.202-1.477,4.202-3.587C388.228,448.728,386.278,447.233,384.024,447.233z"/>
	<path opacity="0.698" fill="#FFFFFF" enable-background="new    " d="M384.024,456.017c-2.326,0-4.275,1.759-4.275,3.851
		c0,2.042,1.949,3.8,4.275,3.8c2.254,0,4.202-1.758,4.202-3.8C388.228,457.775,386.278,456.017,384.024,456.017z"/>
	<path opacity="0.698" fill="#FFFFFF" enable-background="new    " d="M384.024,464.972c-2.326,0-4.275,1.755-4.275,3.802
		c0,2.088,1.949,3.845,4.275,3.845c2.254,0,4.202-1.757,4.202-3.845C388.228,466.727,386.278,464.972,384.024,464.972z"/>
	<path opacity="0.698" fill="#FFFFFF" enable-background="new    " d="M370.177,442.245c0,2.088,1.617,3.845,4.23,3.845
		c2.303,0,3.918-1.757,3.918-3.845c0-2.044-1.615-3.799-3.918-3.799C371.794,438.446,370.177,440.201,370.177,442.245z"/>
</g>
</svg>
