<?xml version="1.0" encoding="utf-8"?>
<!-- Generator: Adobe Illustrator 16.0.0, SVG Export Plug-In . SVG Version: 6.00 Build 0)  -->
<!DOCTYPE svg PUBLIC "-//W3C//DTD SVG 1.1//EN" "http://www.w3.org/Graphics/SVG/1.1/DTD/svg11.dtd">
<svg version="1.1" id="Layer_1" xmlns="http://www.w3.org/2000/svg" xmlns:xlink="http://www.w3.org/1999/xlink" x="0px" y="0px"
	 width="768px" height="1024px" viewBox="0 0 768 1024" enable-background="new 0 0 768 1024" xml:space="preserve">
<g>
	<g>
		<path id="changeColor" opacity="0.698" fill="#3490C1" enable-background="new    " d="M506.706,447.725l-18.539,57.033
			c31.504,10.233,65.342-7.009,75.574-38.51c10.231-31.505-7.013-65.328-38.515-75.561c-5.983-1.941-12.237-2.937-18.521-2.937
			V447.725z"/>
		<path opacity="0.698" fill="#797979" enable-background="new    " d="M506.706,447.725V387.75
			c-33.131,0-59.975,26.844-59.975,59.975c0,25.974,16.723,48.996,41.436,57.033L506.706,447.725z"/>
	</g>
	<g>
		<path fill="#F2F2F2" d="M579.192,385.476l-0.021,4.48h7.202v8.862h-1.301l-0.021-1.681H574.69v1.78h-1.342l0.021-8.962h4.439
			v-9.302l1.36-0.02v3.58l8.682-0.02l0.021,1.26L579.192,385.476z M585.054,391.196h-10.361v4.682h10.361V391.196z"/>
		<path fill="#F2F2F2" d="M599.152,393.357h-4.24v-1.2h4.24v-3.161h-4.94v-0.86c-0.7,0.44-1.761,0.86-2.661,1.221l-0.74-1.12
			c4.441-1.501,6.723-3.861,8.862-7.021l1.22,0.54l-0.34,0.56c1.602,2.641,5.063,4.781,8.223,5.802l-0.74,1.14
			c-0.939-0.34-1.84-0.76-2.762-1.16v0.9h-4.841v3.161h4.262v1.2h-4.262v3.341h7.441v1.2h-16.043v-1.2h7.321V393.357
			L599.152,393.357z M594.691,387.756l10.303,0.04c-1.9-0.96-3.801-2.36-5.281-4.401
			C598.313,385.315,596.632,386.735,594.691,387.756z"/>
		<path fill="#F2F2F2" d="M628.114,391.736v1.221l-7.063-0.021l-0.021,5.922l-1.28,0.02l-0.021-5.921l-8.081-0.021v-1.22l2.561,0.02
			v-4.881h5.481v-2.96h-4.501c-0.7,1.439-1.462,2.88-2.741,4.061l-1.08-0.84c1.581-1.461,2.661-3.201,3.221-5.121l0.44-1.48
			c0.38,0.16,0.739,0.319,1.101,0.52c-0.08,0.58-0.28,1.101-0.439,1.66h11.582v1.201l-6.281,0.02l0.021,2.94h5.241l0.021,1.221
			l-5.222,0.02v3.641h7.062V391.736z M615.491,388.096v3.641h4.221l0.021-3.66L615.491,388.096z"/>
		<path fill="#F2F2F2" d="M634.071,391.977c-0.8,0.261-1.721,0.601-2.521,0.82c-0.26-0.36-0.54-0.72-0.78-1.08
			c1.12-0.26,2.201-0.561,3.241-0.94l0.021-4.9l-2.682-0.021v-1.16l2.661-0.021v-3.82h1.3v3.82l2.342,0.021v1.181l-2.36-0.021
			l-0.021,4.501l2.319-0.76v1.18c-0.739,0.34-1.56,0.48-2.3,0.82l-0.021,6.001c-0.06,0.44-0.438,0.78-0.8,1.001
			c-0.779,0.279-1.739,0.159-2.601,0.159c-0.141-0.38-0.28-0.8-0.4-1.2c0.66,0.08,1.4,0.08,2.102,0.04
			c0.239-0.08,0.479-0.279,0.479-0.56L634.071,391.977z M646.614,389.136c-0.16,2.261-1.28,4.142-2.9,5.741
			c1.5,1.381,3.261,2.221,5.181,2.721c-0.239,0.46-0.52,0.801-0.76,1.2c-1.921-0.62-3.741-1.72-5.32-3.04
			c-1.7,1.36-3.541,2.3-5.481,2.94c-0.3-0.34-0.6-0.72-0.88-1.101c1.939-0.62,3.841-1.44,5.4-2.8
			c-1.159-1.341-1.961-2.841-2.541-4.461h-1.039v-1.201L646.614,389.136L646.614,389.136z M646.214,387.776
			c-1.22-0.221-1.521-1.001-1.521-1.781v-3.101l-4.182-0.02c-0.06,1.3-0.04,2.681-0.66,3.721c-0.438,0.92-1.359,1.721-2.221,2.261
			l-1.02-0.94c1-0.48,2.061-1.28,2.319-2.4c0.3-0.721,0.28-1.601,0.28-2.36v-1.461h6.721v4.341c0.062,0.261,0.12,0.62,0.682,0.62
			l1.979-0.02v1.141L646.214,387.776L646.214,387.776z M640.633,390.316c0.3,0.74,0.62,1.46,1.04,2.141
			c0.32,0.54,0.66,1.08,1.16,1.48c1.081-1.08,1.801-2.021,2.301-3.621H640.633z"/>
		<path fill="#F2F2F2" d="M654.111,396.538c0.761,0.22,1.5,0.52,2.319,0.58c0.24-0.04,0.48-0.2,0.562-0.42
			c0.359-0.74,0.5-1.921,0.58-2.881c0.1-1.301,0.279-2.44,0.2-3.721l-2.98,0.02c-0.32,3.161-1.181,6.161-3.201,8.602l-1.101-0.939
			c1.641-1.74,2.4-3.961,2.841-6.201c0.4-1.961,0.28-3.921,0.32-6.021h-2.28v-1.181h8.622l0.02,1.181h-5.141v3.301l4.24,0.02
			c-0.04,1.101-0.12,2.48-0.2,3.561c-0.12,1.421-0.239,2.181-0.439,3.562c-0.141,0.84-0.341,1.92-1.319,2.2
			c-0.94,0.28-1.881-0.16-2.821-0.28L654.111,396.538z M655.932,383.976c-0.68-1.101-1.699-2.161-2.881-2.681l1.062-0.78
			c0.479,0.2,0.84,0.56,1.239,0.9c0.682,0.54,1.262,1.16,1.762,1.86L655.932,383.976z M667.814,398.738
			c-0.881-0.521-1.722-1.24-2.461-1.98c-0.5-0.5-0.979-1.08-1.381-1.641c-1.141,1.4-2.501,2.621-4.001,3.562l-0.939-0.921
			c1.66-0.96,3.061-2.28,4.261-3.801c-0.779-1.601-1.38-3.221-1.56-5.041c-0.021-0.02-0.062-0.02-0.08-0.02
			c-0.341,0.68-0.62,1.4-1.102,2l-1.18-0.66c1.94-2.801,2.66-6.222,2.68-9.762l1.222,0.38c-0.061,1.3-0.181,2.58-0.341,3.82
			l5.241-0.02v1.2h-1.24c-0.141,2.841-0.761,5.682-2.181,8.082c0.86,1.58,2.4,3.04,4.001,3.78L667.814,398.738z M662.753,385.836
			l-0.34,1.08c0.36,2,0.78,3.961,1.601,5.701c1.102-2.081,1.602-4.341,1.7-6.781H662.753L662.753,385.836z"/>
	</g>
	<g>
		<path fill="#58B5E1" d="M580.912,407.879h-6.359l-0.616,3.499l0.044,0.044c0.837-0.858,1.806-1.188,3.016-1.188
			c3.036,0,4.753,2.354,4.753,5.237c0,3.168-2.618,5.61-5.721,5.543c-2.993,0-5.678-1.648-5.722-4.885h3.124
			c0.154,1.364,1.166,2.311,2.53,2.311c1.628,0,2.662-1.43,2.662-2.97c0-1.606-0.99-2.883-2.662-2.883
			c-1.122,0-1.738,0.396-2.354,1.232h-2.816l1.519-8.516h8.604v2.575H580.912z"/>
		<path fill="#58B5E1" d="M593.145,407.879h-6.358l-0.616,3.499l0.044,0.044c0.836-0.858,1.805-1.188,3.015-1.188
			c3.036,0,4.754,2.354,4.754,5.237c0,3.168-2.618,5.61-5.722,5.543c-2.993,0-5.677-1.648-5.721-4.885h3.124
			c0.154,1.364,1.166,2.311,2.53,2.311c1.628,0,2.662-1.43,2.662-2.97c0-1.606-0.99-2.883-2.662-2.883
			c-1.122,0-1.738,0.396-2.354,1.232h-2.815l1.519-8.516h8.604v2.575H593.145z"/>
		<path fill="#58B5E1" d="M599.765,404.997c2.729,0,3.608,2.024,3.608,4.444c0,2.398-1.145,4.137-3.718,4.137
			c-2.707,0-3.631-1.805-3.631-4.225C596.024,406.955,597.19,404.997,599.765,404.997z M599.677,411.928
			c1.364,0,1.452-1.584,1.452-2.509c0-0.857-0.064-2.771-1.364-2.771c-1.407,0-1.495,1.738-1.495,2.75
			C598.269,410.344,598.269,411.928,599.677,411.928z M609.072,404.82h1.87l-9.065,16.372h-1.914L609.072,404.82z M611.118,412.434
			c2.729,0,3.607,1.914,3.607,4.335c0,2.398-1.144,4.246-3.718,4.246c-2.707,0-3.631-1.914-3.631-4.333
			C607.378,414.282,608.544,412.434,611.118,412.434z M611.03,419.365c1.364,0,1.452-1.717,1.452-2.641
			c0-0.858-0.065-2.641-1.364-2.641c-1.408,0-1.496,1.606-1.496,2.618C609.622,417.648,609.622,419.365,611.03,419.365z"/>
	</g>
</g>
</svg>
