<?xml version="1.0" encoding="utf-8"?>
<!-- Generator: Adobe Illustrator 16.0.0, SVG Export Plug-In . SVG Version: 6.00 Build 0)  -->
<!DOCTYPE svg PUBLIC "-//W3C//DTD SVG 1.1//EN" "http://www.w3.org/Graphics/SVG/1.1/DTD/svg11.dtd">
<svg version="1.1" id="Layer_1" xmlns="http://www.w3.org/2000/svg" xmlns:xlink="http://www.w3.org/1999/xlink" x="0px" y="0px"
	 width="768px" height="1024px" viewBox="0 0 768 1024" enable-background="new 0 0 768 1024" xml:space="preserve">
<g>
	<path fill="#58B5E1" d="M111.77,711.716c-0.315-1.646-1.575-3.046-3.291-3.046c-3.605,0-4.55,4.726-4.69,7.456l0.07,0.07
		c1.365-1.925,3.15-2.73,5.531-2.73c2.1,0,4.235,0.979,5.636,2.521c1.295,1.505,1.89,3.535,1.89,5.461
		c0,5.005-3.465,8.961-8.576,8.961c-7.42,0-9.416-6.477-9.416-12.672c0-5.986,2.661-12.812,9.626-12.812
		c4.236,0,7.386,2.485,7.946,6.791H111.77z M104.244,721.762c0,2.275,1.47,4.551,3.956,4.551c2.38,0,3.745-2.275,3.745-4.48
		c0-2.311-1.19-4.621-3.745-4.621C105.539,717.211,104.244,719.346,104.244,721.762z"/>
	<path fill="#58B5E1" d="M135.745,709.686c-5.146,4.48-7.946,13.686-8.016,20.232h-5.321c0.561-7.246,3.571-14.282,8.226-19.883
		h-11.621v-4.62h16.731V709.686z"/>
	<path fill="#58B5E1" d="M142.289,719.836v11.361h-1.5v-8.801c-0.6,1-1.22,1.58-2.021,2.279l-0.98-1.199
		c2.28-2.041,3.5-4.521,4.261-7.162c0.22-0.78,0.46-1.721,0.68-2.98l1.3,0.561C143.689,716.095,143.069,718.035,142.289,719.836z
		 M154.171,730.138h-9.182c-0.26,0-0.78-0.261-1.101-0.74c-0.36-0.58-0.52-1.48-0.18-2.081c2.36-3.221,6.421-8.401,8.602-10.822
		h-7.722v-1.46h9.982l-0.04,1.421c-3.341,3.561-6.381,7.501-9.042,11.021c-0.16,0.28-0.4,0.521-0.32,0.841
		c0.02,0.18,0.28,0.28,0.42,0.36h8.042c0.24,0,0.42-0.16,0.54-0.341c0.18-0.46,0.18-1.04,0.3-1.82l1.5,0.66
		C155.572,729.018,155.232,730.138,154.171,730.138z"/>
	<path fill="#58B5E1" d="M170.111,727.977c0,0.561,0.4,0.801,0.76,0.801h2.36c0.58,0,0.78-1.4,1.12-3.001l1.541,0.501
		c-0.16,0.979-0.38,1.88-0.7,2.66c-0.3,0.72-1.041,1.38-1.82,1.38h-2.801c-1.66,0-2.061-1.46-2.061-2.561v-6.722l-2.541-0.02
		c0.06,5.821-2.701,8.262-6.241,10.242l-1.1-1.521c3.521-1.841,5.741-3.821,5.721-8.722h-4.581v-1.521l15.063,0.021v1.52
		l-4.721-0.02V727.977z M161.469,714.574h11.703v1.521h-11.703V714.574z"/>
	<path fill="#FFFFFF" d="M116.092,771.156c-3-1.681-6.062-4.021-7.902-7.201c-1.36,2.46-4.701,5.841-8.102,7.221l-1.3-1.04
		c4.301-2.081,7.102-4.761,9.142-8.862l1.34,0.621l-0.26,0.56c1.601,3.261,5.021,5.722,8.282,7.642L116.092,771.156z
		 M107.31,779.318v-12.443h1.52v12.443H107.31z"/>
	<path fill="#FFFFFF" d="M129.19,761.794c0.02,2.261-0.08,4.301-0.3,6.321c-0.06,0.48,0.12,0.66,0.24,0.94
		c1.62,4.001,3.761,6.741,7.922,8.522l-1.161,1.3c-3.701-1.921-5.961-4.101-7.662-8.062c-0.78,2.3-3.561,5.9-7.421,8.002l-1.2-1.182
		c1.4-0.84,2.561-1.68,3.641-2.72c1.32-1.24,2.281-2.28,3.281-4.361c1.16-2.36,1.02-5.86,1.06-8.762H129.19z"/>
	<path fill="#FFFFFF" d="M142.489,779.318v-10.923c-0.36,0.46-1.18,1.48-2.12,2.3l-1.24-1.06c2.62-2.28,4.061-5.281,5.161-8.502
		l1.4,0.62c-0.48,1.5-1.08,2.781-1.68,4.061l0.02,13.504H142.489z M144.75,778.098v-1.461l5.441-0.02v-4.841h-3.861l-0.02-1.44
		l3.881-0.02l0.02-4.002l-4.701-0.02v-1.48l4.901,0.02c-0.36-1.02-1.541-2.06-2.881-2.84l1.34-0.881
		c1.24,0.761,2.48,1.801,3.081,3.241l-0.7,0.44l5.221,0.02v1.48h-4.721l-0.02,4.021h3.981v1.46h-3.981v4.841h5.581v1.48H144.75z"/>
	<path fill="#FFFFFF" d="M162.809,768.735v3.581c0,2.58-1.22,5.381-2.681,6.842l-1.32-0.801c1.46-1.54,2.44-4.24,2.44-6.121v-8.082
		h7.102c-0.44-0.6-1.12-1.32-2.161-1.939l1.48-0.841c1.08,0.62,1.94,1.46,2.46,2.3l-0.76,0.441l6.261,0.039v4.581h-6.021
		c0.54,0.44,1,1.161,1.24,1.78h6.102v1.5h-8.202c-0.04,0.48-0.12,1.041-0.18,1.48h6.781c-0.12,1.301-0.28,2.781-0.56,3.941
		c-0.12,0.54-0.54,1.061-1.08,1.32c-1,0.34-2.121,0.061-3.201-0.02l-0.52-1.682c1.06,0.221,1.82,0.4,2.68,0.4
		c0.26,0,0.42-0.119,0.521-0.34c0.16-0.561,0.32-1.54,0.38-2.141h-5.281c-0.32,1.381-1.66,2.781-3.061,3.421
		c-0.72,0.341-1.46,0.601-2.3,0.841l-1-1.521c1.98-0.399,4.001-1.02,4.701-2.82c0.36-0.92,0.48-2.061,0.54-2.9h-3.881v-1.48h5.701
		c-0.2-0.439-0.76-1.08-1.28-1.46l0.6-0.28L162.809,768.735z M162.829,765.595v1.681h11.182v-1.681H162.829z"/>
	<path fill="#FFFFFF" d="M179.128,777.637c2.581-0.379,4.821-0.539,6.681-1.859c1.42-1.021,1.521-2.921,1.521-4.881h1.5
		c0,1.619-0.04,3.1-0.6,4.221c-0.44,0.88-1.08,1.6-1.92,2.16c-1.5,1-4.681,1.62-6.361,1.84L179.128,777.637z M182.609,767.875v-2.4
		c-0.58,0.44-1.44,0.94-2.46,1.36l-0.98-1.24c2.401-1.021,4.301-2.421,5.981-4.381l1.14,0.96c-0.76,0.9-1.52,1.601-2.14,2.181v3.521
		H182.609z M182.089,768.596h11.643v6.981h-1.561v-5.521h-8.522v5.901h-1.56V768.596z M192.611,763.375l2.861-0.521l0.28,1.36
		l-5.461,1c0.64,0.54,1.74,1.08,2.921,1.42c0.42,0.12,0.76,0.381,1.18,0.141c0.08-0.061,0.18-0.141,0.24-0.32
		c0.16-0.32,0.22-0.881,0.28-1.5l1.44,0.5c-0.32,1.48-0.44,1.98-1.041,2.54c-0.76,0.521-2.28,0.16-3.121-0.12
		c-1.42-0.46-2.8-1.24-3.761-2.32l-3.141,0.58l-0.42-1.34l2.7-0.5c-0.14-0.32-0.6-1.58-0.72-2.621l1.521-0.42
		c0.22,1.141,0.42,2.021,0.84,2.721l2.621-0.46c-0.54-0.38-1.32-0.601-2.341-0.8l0.76-1.181c0.74,0.04,2.161,0.399,3,0.979
		L192.611,763.375z M195.672,779.218c-1.96-1.44-4.781-2.48-7.222-2.98l0.7-1.3c2.38,0.52,4.981,1.26,7.582,2.96L195.672,779.218z"
		/>
	<path fill="#FFFFFF" d="M199.188,776.758c1.32-1.101,2.341-2.221,3.001-3.701l1.14,0.779c-0.64,1.561-1.66,2.762-3,3.881
		L199.188,776.758z M199.708,764.455l0.02-1.461l3.94,0.02v-1.74h1.521l-0.02,1.721h4.021l0.02,1.461h-4.041l0.02,1.359h3.241
		l0.02,1.441l-7.942,0.02v-1.461l3.141-0.02l0.02-1.34H199.708z M201.449,777.838h1.76c0.38,0,0.58-0.141,0.58-0.561v-4.9h-3.881
		v-1.441h9.102v1.441h-3.721l0.02,5.141c0,0.74-0.34,1.68-1.34,1.68h-1.44L201.449,777.838z M200.869,769.775v-1.439h7.162v1.439
		H200.869z M206.69,772.916c1.28,0.92,1.76,1.621,2.541,2.841l-1.22,0.82c-0.64-1.06-1.36-2.021-2.441-2.801L206.69,772.916z
		 M207.75,778.277c3.141-2.62,3.541-4.961,3.781-7.041c0.08-0.801,0.18-2.581,0.22-3.521l1.5,0.221l-0.12,2.5
		c0.42,2.881,1.56,5.781,4.141,7.622l-1.02,1.14c-1.82-1.119-3.261-3.58-3.701-5.341c-0.68,2.101-1.541,3.481-3.621,5.462
		L207.75,778.277z M214.011,768.836c0.38-1,0.62-1.841,0.78-2.541l-3.341,0.02c-0.32,1.261-0.86,2.581-1.74,3.922l-1.48-0.641
		c1.8-2.4,2.301-5.262,2.341-8.382l1.44,0.38c-0.02,1.221-0.08,2.361-0.26,3.261h4.641c-0.1,1.54-0.521,2.841-0.98,4.241
		L214.011,768.836z"/>
	<path fill="#FFFFFF" d="M223.149,773.336c-0.84,1.721-1.78,2.961-3.38,3.881l-0.9-1.18c1.58-0.881,2.541-2.041,3.201-3.521
		L223.149,773.336z M225.089,777.797c0,0.781-0.6,1.641-1.52,1.641h-1.621l-0.52-1.6l1.6,0.119c0.2,0.021,0.5-0.22,0.5-0.479v-5.441
		h-3.221v-1.46h3.221v-1.42h-3.921v-1.48h2.88c-0.14-0.58-0.62-1.32-1.54-2.021l1.32-0.539c0.84,0.66,1.44,1.561,1.72,2.561h0.84
		c0.66-0.66,1.16-1.66,1.4-2.521l1.34,0.541c-0.22,0.699-0.68,1.52-1.12,1.98h2.38v1.48h-3.741v1.42h3.181v1.46h-3.181v1.421
		l0.58-0.74c0.94,0.58,1.84,1.52,2.5,2.641l-1.02,1.16c-0.5-1.201-1.4-2.061-2.061-2.561V777.797z M223.389,763.334
		c-0.18-0.32-0.6-0.88-1.26-1.54l1.46-0.681c0.64,0.761,1.18,1.521,1.42,2.221h3.381v1.461h-8.282v-1.461H223.389z M236.392,762.594
		c-1.801,1.041-3.641,1.541-5.421,1.861v2.86h5.741v1.46h-2.24v10.422h-1.541v-10.422h-1.96v2.58c0,2.661-0.88,5.402-2.42,7.782
		l-1.36-0.96c1.84-2.521,2.24-5.241,2.24-8.342l-0.02-6.602c2.221-0.26,4.141-0.86,6.021-1.881L236.392,762.594z"/>
	<path fill="#FFFFFF" d="M243.669,773.116c0.36-0.14,1.041-0.34,1.801-0.62l0.04,1.521c-1.781,0.64-3.441,1.22-5.221,1.88
		l-1.061-1.359c1.181-0.28,2.101-0.561,2.901-0.84v-5.482l-2.261-0.02l0.02-1.42h2.241v-4.922h1.52v4.922h1.521v1.439h-1.5V773.116z
		 M245.35,770.236v-6.502h2.96c-0.3-0.48-1.08-1.141-1.92-1.86l1.541-0.601c0.9,0.761,1.58,1.641,2.081,2.441l1.8,0.02
		c0.76-0.74,1.3-1.66,1.74-2.801c0.56,0.221,0.94,0.5,1.42,0.78c-0.46,0.86-0.92,1.601-1.3,1.98h2.82v6.542H245.35z M248.03,779.277
		h-1.541v-8.002l8.882-0.02v8.002l-1.5-0.02l0.02-1.141l-5.881,0.02L248.03,779.277z M250.17,768.815v-3.661l-3.301-0.02v3.681
		H250.17z M248.09,765.375c0.84,0.8,1.28,1.721,1.78,2.721c-0.48,0.22-0.84,0.42-1.38,0.619c-0.28-1.08-0.88-1.84-1.581-2.74
		L248.09,765.375z M247.99,772.676v1.221h5.881l0.02-1.221H247.99z M248.01,775.316v1.361h5.881l-0.02-1.361H248.01z
		 M254.972,768.775v-3.641h-3.341v3.641H254.972z M254.711,765.734c-0.44,1.101-0.9,2.061-1.68,3.021l-1.28-0.681
		c0.72-0.86,1.38-2.101,1.72-2.921L254.711,765.734z"/>
	<path fill="#FFFFFF" d="M266.45,763.395v10.982h-1.5v-0.721h-3.061v1.261h-1.5v-11.522H266.45z M261.869,767.635h3.001v-2.78
		h-3.001V767.635z M261.889,769.115v3.102h3.061v-3.102H261.889z M264.329,778.098c3.101-2.24,3.801-3.98,3.801-8.342v-7.582h7.462
		v15.063c0,0.601-0.88,1.46-1.541,1.521c-0.72-0.02-1.32-0.061-2.16-0.02l-0.5-1.561c0.88,0.08,1.761,0.18,2.201,0.08
		c0.22-0.041,0.44-0.261,0.44-0.48v-4.021h-4.461c-0.2,2.361-1.52,4.682-4.121,6.462L264.329,778.098z M274.071,763.635h-4.421v3
		h4.421V763.635z M269.67,768.096v3.18h4.381v-3.18H269.67z"/>
	<path fill="#FFFFFF" d="M289.07,770.396h1.5v6.421h6.041v1.42h-17.364v-1.42h6.062v-6.421h1.5v6.4h2.26V770.396z M281.249,770.816
		c1.4,1.48,2.661,2.9,3.261,4.82l-1.4,0.78c-0.7-1.96-1.66-3.501-3.041-4.78L281.249,770.816z M282.629,769.535v-7.281h10.762v7.281
		H282.629z M291.891,763.694h-7.742v1.36h7.762L291.891,763.694z M291.871,768.055v-1.56h-7.722v1.56H291.871z M290.991,775.557
		c1.74-1.68,2.661-3.5,3.141-4.781l1.24,0.601c-0.66,2.021-1.54,3.401-3.021,4.981L290.991,775.557z"/>
	<path fill="#FFFFFF" d="M307.43,773.496l-0.581-0.74c0.94-0.42,1.201-1.18,1.201-1.98h-1.081v-2.199h2.201v2.1
		C309.17,771.355,308.93,772.797,307.43,773.496z"/>
	<path fill="#FFFFFF" d="M100.088,793.736c0.84-1.461,1.28-2.701,1.621-4.162h-2.281v-1.439h2.601c0.18-0.68,0.28-1.601,0.4-2.681
		l1.42,0.42c-0.04,0.921-0.22,1.681-0.34,2.261h2.661v1.439h-2.981c-0.36,1.741-0.98,3.201-1.46,4.201h1.5v-2.6h1.521v2.6h1.8v1.44
		h-1.8v1.801l2.74-0.74v1.5l-2.74,0.74v4.781h-1.521v-4.461l-3.161,0.78l-0.8-1.301c1.601-0.38,2.901-0.64,3.961-0.939v-2.161
		h-3.141V793.736z M104.929,801.877c2.281-0.76,4.061-1.779,5.441-3.5c-0.9-1.36-1.561-2.781-1.92-4.641l1.42-0.541
		c0.3,1.641,0.82,2.721,1.46,3.762c0.621-1.041,1.121-2.241,1.44-3.941l1.38,0.66c-0.16,1.26-1,3.261-1.88,4.701
		c1.26,1.54,2.9,2.62,4.881,3.561l-1.1,1.28c-1.86-0.9-3.561-2.2-4.741-3.601c-1.46,1.6-3.161,2.82-5.341,3.601L104.929,801.877z
		 M106.07,793.035c1.3-0.64,2.581-1.939,3.281-3.521l1.2,0.72c-0.74,1.801-1.561,2.801-3.361,4.002L106.07,793.035z
		 M110.911,787.875c-0.58-0.701-1.44-1.381-2.34-1.74l1.12-0.921c1,0.44,1.82,1.021,2.741,2.021l-0.68,0.641h4.781v1.46H106.53
		v-1.46H110.911z M115.492,794.256c-0.92-1.541-2.041-2.801-3.321-3.781l1.061-0.8c1.54,0.96,2.8,2.32,3.46,3.641L115.492,794.256z"
		/>
	<path fill="#FFFFFF" d="M119.708,789.515v-1.46h4.881c-0.4-0.68-0.9-1.48-2.041-2.181l1.48-0.841c0.5,0.281,0.88,0.781,1.18,1.081
		c0.5,0.601,0.94,1.341,1.3,1.94h3.141c0.86-0.881,1.4-1.82,1.92-3.141l1.44,0.779c-0.46,1.021-1.021,1.841-1.48,2.361h5.141v1.46
		H119.708z M121.469,802.638v-11.583h6.761v10.103c0,0.66-0.4,1.24-0.98,1.48c-0.74,0.3-1.641,0.12-2.5,0.14l-0.5-1.46l2.04,0.06
		c0.14-0.02,0.38-0.1,0.38-0.38v-2.32h-3.641v3.961H121.469z M123.029,792.535v1.58h3.641v-1.58H123.029z M123.029,797.236h3.641
		v-1.74h-3.641V797.236z M130.03,791.676h1.541v7.861h-1.541V791.676z M134.972,790.355v11.162c0,0.58-0.52,1.26-1.081,1.46
		c-0.72,0.24-1.58,0.101-2.48,0.14l-0.48-1.48c0.86,0.021,1.46-0.039,2.061-0.059c0.18-0.061,0.4-0.261,0.4-0.541v-10.682H134.972z"
		/>
	<path fill="#FFFFFF" d="M156.392,799.736v1.561h-16.224l-0.02-1.561H156.392z M141.249,787.654l13.983,0.02v1.561l-14.003,0.021
		L141.249,787.654z M154.071,793.455v1.561l-11.703,0.021v-1.581H154.071z"/>
	<path fill="#FFFFFF" d="M161.128,786.395c5.682,0.22,10.922-0.301,13.163-1.24l0.94,1.279c-2.12,0.681-4.201,1.041-6.161,1.221
		l0.02,1.381l7.122-0.021v1.48l-5.381-0.021c1.4,1.281,4.481,3.001,6.542,3.121l-0.78,1.4c-3.161-0.801-5.421-2-7.521-4.182v3.141
		h-1.541v-3.18c-1.82,2.04-4.581,3.561-7.521,4.421l-0.82-1.32c2.561-0.74,4.821-1.86,6.401-3.401h-5.221v-1.46l7.161,0.021v-1.221
		c-1.7,0.141-3.661,0.18-5.681,0.141L161.128,786.395z M169.311,801.717c0,0.601-0.44,1.301-1,1.381c-0.94,0.24-1.9,0.1-2.96,0.16
		c-0.18-0.54-0.32-1-0.54-1.621l2.48,0.101c0.32,0.021,0.48-0.239,0.48-0.479v-2.061h-7.982v-1.44h8.002l-0.02-0.96
		c1.1-0.4,2.041-0.841,2.521-1.141l-7.321-0.04l-0.02-1.46l10.082,0.02l0.02,1.28c-1.18,0.98-2.521,1.761-3.761,2.261l7.501,0.04
		l0.02,1.44h-7.501V801.717z"/>
	<path fill="#FFFFFF" d="M182.469,795.036c0,2.74-0.16,5.921-2.08,8.342l-1.28-1.001c0.9-1.32,1.46-2.52,1.62-3.94
		c0.12-1.181,0.18-2.4,0.18-3.62v-7.361h7.281c-0.26-0.381-0.6-0.701-1.62-1.341l1.48-0.82c0.6,0.601,1.64,1.601,1.98,2.161h6.622
		l0.02,1.42h-14.183L182.469,795.036z M194.312,797.297c-0.7,1.18-2.681,2.68-3.481,3.141c0.48,0.22,1.28,0.46,2.081,0.64
		c1.34,0.32,2.681,0.54,4.281,0.66c-0.24,0.62-0.56,0.96-0.82,1.421c-2.561-0.36-5.021-0.82-7.142-1.861
		c-0.58,0.24-1.18,0.521-1.82,0.761c-1.46,0.56-3.101,0.94-4.821,1.14c-0.34-0.439-0.6-0.82-1.06-1.4
		c2.46-0.199,4.461-0.8,6.141-1.4c-0.98-0.699-2.101-1.84-2.88-3.02h-1.521v-1.421l11.083,0.04L194.312,797.297z M192.991,794.956
		h-7.542l0.02-2.741h-2.681v-1.38l2.661-0.021v-1.539h1.58v1.539h4.401v-1.56h1.561v1.56h3.261v1.421h-3.261V794.956z
		 M186.63,797.377c1,1.119,1.58,1.641,2.601,2.3c1.22-0.659,2.36-1.36,3.241-2.28L186.63,797.377z M187.09,793.576l4.321-0.021
		l0.02-1.32h-4.381L187.09,793.576z"/>
	<path fill="#FFFFFF" d="M207.35,803.318v-7.262h-7.742v-1.461h7.742v-6.961h-6.481v-1.461h14.363v1.461h-6.361v6.961h7.722v1.461
		h-7.722v7.262H207.35z M202.649,788.215c1.64,1.46,2.641,3.16,3.441,5.101l-1.4,0.761c-0.7-1.98-1.661-3.762-3.521-5.142
		L202.649,788.215z M209.75,793.156c1.64-1.501,2.92-3.081,3.5-5.062l1.32,0.7c-0.66,2.02-1.9,3.641-3.46,5.24L209.75,793.156z"/>
	<path fill="#FFFFFF" d="M225.85,791.936c1.46-1.82,2.44-4.721,2.601-6.642l1.44,0.34c-0.1,0.78-0.22,1.4-0.34,1.821h6.762
		c-0.06,5.92-0.16,12.822-1.42,14.683c-1.12,1.66-3.321,0.86-4.901,0.74l-0.5-1.741c1.24,0.261,2.221,0.5,3.281,0.521
		c0.4,0.021,0.74-0.18,0.9-0.521c0.92-2.779,1.04-6.961,1.18-12.223h-5.721c-0.54,1.521-1.3,3.241-2.701,4.642l-1.5-0.7
		c0.26-0.26,0.48-0.46,0.7-0.721h-1.68v5.082c0.58-0.26,1.541-0.621,2.541-1.021v1.58l-5.601,2.44l-1.4-1.1
		c1.14-0.42,2.141-0.82,2.94-1.141v-5.842h-2.521v-1.439h2.5v-4.281h1.541v4.281h1.9V791.936z M227.53,799.297l-1.1-1.26
		c1.541-0.44,5.641-2.041,7.282-2.781v1.541L227.53,799.297z M232.011,794.556c-0.64-1.021-2.06-2.46-3.201-3.081l1.121-1
		c1.3,0.761,2.66,1.961,3.38,3.061L232.011,794.556z"/>
	<path fill="#FFFFFF" d="M243.669,797.116c0.36-0.14,1.041-0.34,1.801-0.62l0.04,1.521c-1.781,0.64-3.441,1.22-5.221,1.88
		l-1.061-1.359c1.181-0.28,2.101-0.561,2.901-0.84v-5.482l-2.261-0.02l0.02-1.42h2.241v-4.922h1.52v4.922h1.521v1.439h-1.5V797.116z
		 M245.35,794.236v-6.502h2.96c-0.3-0.48-1.08-1.141-1.92-1.86l1.541-0.601c0.9,0.761,1.58,1.641,2.081,2.441l1.8,0.02
		c0.76-0.74,1.3-1.66,1.74-2.801c0.56,0.221,0.94,0.5,1.42,0.78c-0.46,0.86-0.92,1.601-1.3,1.98h2.82v6.542H245.35z M248.03,803.277
		h-1.541v-8.002l8.882-0.02v8.002l-1.5-0.02l0.02-1.141l-5.881,0.02L248.03,803.277z M250.17,792.815v-3.661l-3.301-0.02v3.681
		H250.17z M248.09,789.375c0.84,0.8,1.28,1.721,1.78,2.721c-0.48,0.22-0.84,0.42-1.38,0.619c-0.28-1.08-0.88-1.84-1.581-2.74
		L248.09,789.375z M247.99,796.676v1.221h5.881l0.02-1.221H247.99z M248.01,799.316v1.361h5.881l-0.02-1.361H248.01z
		 M254.972,792.775v-3.641h-3.341v3.641H254.972z M254.711,789.734c-0.44,1.101-0.9,2.061-1.68,3.021l-1.28-0.681
		c0.72-0.86,1.38-2.101,1.72-2.921L254.711,789.734z"/>
	<path fill="#FFFFFF" d="M276.232,802.178c-5.521-2.061-7.762-4.661-8.802-7.922h-2.461v6.541l3.901-1.641v1.501l-4.761,2.221
		l-0.9-1.341c0.2-0.18,0.24-0.58,0.24-0.859v-6.422h-4.141v-1.461h4.341v-7.461h1.521v5.682c2.38-1.061,5.021-2.461,7.282-4.321
		l1.04,1.14c-2.5,1.98-5.321,3.521-8.322,4.642v0.319h11.143v1.461h-7.402c1.081,3.461,4.921,5.602,8.342,6.582L276.232,802.178z"/>
	<path fill="#FFFFFF" d="M290.95,791.516c-0.18-0.94-0.9-1.74-1.88-1.74c-2.061,0-2.601,2.7-2.681,4.26l0.04,0.041
		c0.78-1.101,1.8-1.561,3.161-1.561c1.2,0,2.42,0.561,3.221,1.439c0.74,0.861,1.08,2.021,1.08,3.121c0,2.861-1.98,5.121-4.901,5.121
		c-4.241,0-5.381-3.701-5.381-7.241c0-3.421,1.521-7.321,5.501-7.321c2.42,0,4.221,1.42,4.541,3.881H290.95z M286.649,797.256
		c0,1.301,0.84,2.602,2.26,2.602c1.36,0,2.141-1.301,2.141-2.561c0-1.32-0.68-2.641-2.141-2.641
		C287.389,794.656,286.649,795.876,286.649,797.256z"/>
	<path fill="#FFFFFF" d="M304.31,790.255h-5.781l-0.56,3.181l0.04,0.04c0.76-0.78,1.641-1.08,2.741-1.08
		c2.761,0,4.321,2.141,4.321,4.761c0,2.881-2.38,5.102-5.201,5.041c-2.72,0-5.161-1.5-5.201-4.44h2.841
		c0.14,1.24,1.06,2.101,2.3,2.101c1.48,0,2.421-1.301,2.421-2.701c0-1.46-0.9-2.62-2.421-2.62c-1.02,0-1.58,0.36-2.14,1.12h-2.561
		l1.38-7.742h7.821V790.255z"/>
	<path fill="#FFFFFF" d="M310.329,787.635c2.48,0,3.281,1.84,3.281,4.041c0,2.18-1.04,3.76-3.38,3.76
		c-2.461,0-3.301-1.64-3.301-3.84C306.929,789.415,307.989,787.635,310.329,787.635z M310.249,793.936c1.241,0,1.32-1.439,1.32-2.28
		c0-0.78-0.06-2.521-1.24-2.521c-1.28,0-1.36,1.58-1.36,2.5C308.969,792.496,308.969,793.936,310.249,793.936z M318.791,787.475h1.7
		l-8.242,14.883h-1.74L318.791,787.475z M320.651,794.396c2.48,0,3.281,1.74,3.281,3.94c0,2.181-1.04,3.86-3.381,3.86
		c-2.46,0-3.3-1.74-3.3-3.94C317.251,796.076,318.311,794.396,320.651,794.396z M320.571,800.697c1.24,0,1.32-1.561,1.32-2.4
		c0-0.78-0.06-2.4-1.24-2.4c-1.28,0-1.36,1.46-1.36,2.381C319.291,799.137,319.291,800.697,320.571,800.697z"/>
</g>
<g>
	<path fill="#FFFFFF" d="M490.65,770.096c2.101-2.221,3.721-5.881,4.582-8.642l1.459,0.521c-0.439,1.38-0.92,2.76-1.5,3.961v13.383
		h-1.5v-10.683c-0.221,0.399-0.881,1.399-1.7,2.36L490.65,770.096z M500.854,761.134c0.959,0.56,1.96,1.581,2.62,2.581l-0.44,0.5
		h5.741v1.439l-12.743-0.02v-1.4l6.021-0.02c-0.359-0.601-1.279-1.44-2.301-2.101L500.854,761.134z M497.133,768.655v-1.44h10.102
		v1.44H497.133z M497.133,771.557v-1.441l10.121-0.02l-0.02,1.461H497.133z M498.813,779.277h-1.42l-0.021-6.141h9.582v6.102
		l-1.421,0.02l0.021-1.16h-6.722L498.813,779.277z M498.832,776.838l6.722-0.041v-2.36h-6.761L498.832,776.838z"/>
	<path fill="#FFFFFF" d="M527.274,762.154v14.982c0,0.58-0.46,1.501-1.24,1.621l-2.28,0.04l-0.48-1.561
		c0.82,0.04,1.521,0.101,2.121,0.021c0.219-0.021,0.319-0.181,0.319-0.42v-4.281h-4.36v4.761h-1.561v-4.761h-4.381
		c-0.28,2.58-0.701,4.221-2.921,6.821l-1.28-0.96c0.82-1,1.42-1.82,1.86-2.801c0.601-1.36,0.86-3.021,0.86-4.561v-8.902H527.274z
		 M515.492,763.635v2.9h4.301v-2.9H515.492z M515.492,771.076h4.301v-3.081h-4.301V771.076z M521.373,766.535l4.301-0.02v-2.881
		h-4.32L521.373,766.535z M521.373,767.995l-0.02,3.081h4.301l0.02-3.081H521.373z"/>
	<path fill="#FFFFFF" d="M548.354,770.256l-8.682,0.02v9.002h-1.54v-9.002l-6.781-0.02v-1.44h6.781v-7.462l1.54,0.021l0.021,2.98
		h7.221v1.46h-7.221l-0.021,2.98l8.682,0.021V770.256z M545.454,775.357c-1.36-1.201-3.181-2.501-5.161-2.861l0.98-1.28
		c1.939,0.64,3.62,1.601,5.221,3.041L545.454,775.357z"/>
	<path fill="#FFFFFF" d="M559.633,777.018c1.62,0.08,3.301,0.16,4.961,0.06l4.261-0.239l-0.601,1.64h-8.141
		c-3.661,0-4.521-1.021-5.521-2.081c-0.98,0.721-1.94,1.641-3.021,2.581l-1.14-1.2c1.24-0.9,2.36-1.84,3.381-2.681v-6.201h-2.681
		v-1.38h4.16v7.561c0.521,0.561,1.161,1.041,1.842,1.381l-0.381-0.84c1.561-0.42,3.141-1.381,3.101-4.561h-1.54v-1.341
		c-0.48,0.239-1.061,0.44-1.561,0.601l-1.2-1.281c1.96-0.479,3.661-1.359,4.562-2.54h-3.361v-1.46h4.821v-1.221
		c-1.141,0.04-2.601,0.12-4.181,0.2l-0.701-1.44c3.582-0.04,6.842-0.26,9.883-1.28l0.88,1.12c-1.7,0.68-2.98,0.98-4.341,1.18v1.421
		h4.801v1.46h-3.34c0.779,1.301,2.48,2.041,4.32,2.561l-1,1.301c-2.041-0.641-4.241-1.98-4.762-3.341l-0.039,2.601h2.66l-0.66,2.24
		h2.301c-0.2,1.5-0.5,3.001-1.181,4.041c-0.44,0.66-1.181,0.881-2.261,0.62l-1.699-0.399l-0.16-1.561
		c0.939,0.34,1.64,0.539,2.42,0.64c0.359,0.04,0.5-0.101,0.66-0.319c0.301-0.561,0.359-1.081,0.48-1.581h-2.521l0.66-2.22h-2.6
		c0,3.26-1.08,4.68-3.201,5.701C558.572,776.957,558.973,776.957,559.633,777.018z M554.012,765.975
		c-0.541-1.18-1.5-2.62-2.641-3.58l1.12-0.82c1.2,0.96,2.24,2.42,2.82,3.541L554.012,765.975z M561.573,766.995
		c-0.44,0.96-1.7,1.96-3.062,2.561l3.062,0.04V766.995z"/>
	<path fill="#FFFFFF" d="M571.371,777.817c2.74-0.479,5.581-1.841,7.401-2.86c-1.601-1.26-2.86-2.941-3.86-4.661h-1.341l-0.021-1.46
		l5.662,0.02v-2.82h-7.342v-1.44l7.321,0.021v-3.301h1.601l0.04,3.28h7.321v1.46h-7.361l0.04,2.781h5.021v1.34
		c-0.52,1.061-2.74,3.781-4.461,4.842c2.021,1.319,4.481,2.24,7.322,2.74l-0.68,1.46c-2.041-0.3-6.342-1.96-7.902-3.321
		c-2.521,1.441-5.081,2.682-7.982,3.321L571.371,777.817z M576.611,770.296c0.761,1.341,1.961,2.581,3.461,3.78
		c1.061-0.58,3.081-2.52,3.922-3.78H576.611z"/>
	<path fill="#FFFFFF" d="M599.473,761.314h1.5v6.9h5.781v10.902h-1.439v-1.14h-13.043v-1.36h13.043v-2.961h-11.924v-1.38h11.903
		v-2.7h-12.883v-1.361h7.062V761.314z M593.731,762.414c1.761,1.32,3.261,2.82,4.44,4.262l-1.359,1.02
		c-1.121-1.601-2.682-3.181-4.161-4.261L593.731,762.414z M607.375,763.174c-1.102,1.761-2.321,3.201-3.781,4.481l-1.32-1.08
		c1.561-1.2,2.78-2.62,3.82-4.201L607.375,763.174z"/>
	<path fill="#FFFFFF" d="M612.751,762.395c5.682,0.22,10.923-0.301,13.163-1.24l0.939,1.279c-2.119,0.681-4.2,1.041-6.16,1.221
		l0.02,1.381l7.121-0.021v1.48l-5.381-0.021c1.4,1.281,4.48,3.001,6.541,3.121l-0.779,1.4c-3.161-0.801-5.422-2-7.521-4.182v3.141
		h-1.541v-3.18c-1.82,2.04-4.58,3.561-7.521,4.421l-0.82-1.32c2.561-0.74,4.821-1.86,6.401-3.401h-5.221v-1.46l7.161,0.021v-1.221
		c-1.7,0.141-3.66,0.18-5.682,0.141L612.751,762.395z M620.934,777.717c0,0.601-0.441,1.301-1.001,1.381
		c-0.94,0.24-1.9,0.1-2.96,0.16c-0.181-0.54-0.32-1-0.541-1.621l2.48,0.101c0.32,0.021,0.48-0.239,0.48-0.479v-2.061h-7.982v-1.44
		h8.002l-0.02-0.96c1.1-0.4,2.041-0.841,2.521-1.141l-7.321-0.04l-0.02-1.46l10.082,0.02l0.02,1.28
		c-1.18,0.98-2.521,1.761-3.761,2.261l7.501,0.04l0.021,1.44h-7.501V777.717z"/>
	<path fill="#FFFFFF" d="M634.771,773.336c-0.84,1.721-1.78,2.961-3.381,3.881l-0.9-1.18c1.58-0.881,2.541-2.041,3.201-3.521
		L634.771,773.336z M636.712,777.797c0,0.781-0.601,1.641-1.521,1.641h-1.62l-0.521-1.6l1.601,0.119
		c0.2,0.021,0.501-0.22,0.501-0.479v-5.441h-3.221v-1.46h3.221v-1.42h-3.922v-1.48h2.881c-0.141-0.58-0.62-1.32-1.54-2.021
		l1.32-0.539c0.84,0.66,1.44,1.561,1.72,2.561h0.841c0.66-0.66,1.16-1.66,1.399-2.521l1.341,0.541c-0.22,0.699-0.681,1.52-1.12,1.98
		h2.381v1.48h-3.741v1.42h3.181v1.46h-3.181v1.421l0.58-0.74c0.94,0.58,1.841,1.52,2.501,2.641l-1.021,1.16
		c-0.5-1.201-1.4-2.061-2.061-2.561V777.797z M635.012,763.334c-0.18-0.32-0.6-0.88-1.26-1.54l1.46-0.681
		c0.64,0.761,1.181,1.521,1.42,2.221h3.381v1.461h-8.282v-1.461H635.012z M648.015,762.594c-1.801,1.041-3.642,1.541-5.421,1.861
		v2.86h5.74v1.46h-2.24v10.422h-1.54v-10.422h-1.96v2.58c0,2.661-0.881,5.402-2.421,7.782l-1.36-0.96
		c1.84-2.521,2.24-5.241,2.24-8.342l-0.02-6.602c2.221-0.26,4.141-0.86,6.021-1.881L648.015,762.594z"/>
	<path fill="#FFFFFF" d="M655.291,773.116c0.361-0.14,1.041-0.34,1.801-0.62l0.041,1.521c-1.781,0.64-3.441,1.22-5.222,1.88
		l-1.061-1.359c1.181-0.28,2.101-0.561,2.901-0.84v-5.482l-2.262-0.02l0.021-1.42h2.241v-4.922h1.52v4.922h1.521v1.439h-1.501
		V773.116z M656.973,770.236v-6.502h2.96c-0.3-0.48-1.08-1.141-1.921-1.86l1.541-0.601c0.9,0.761,1.58,1.641,2.08,2.441l1.801,0.02
		c0.76-0.74,1.301-1.66,1.74-2.801c0.561,0.221,0.94,0.5,1.42,0.78c-0.459,0.86-0.92,1.601-1.3,1.98h2.82v6.542H656.973z
		 M659.652,779.277h-1.54v-8.002l8.882-0.02v8.002l-1.5-0.02l0.02-1.141l-5.881,0.02L659.652,779.277z M661.793,768.815v-3.661
		l-3.301-0.02v3.681H661.793z M659.713,765.375c0.84,0.8,1.28,1.721,1.78,2.721c-0.479,0.22-0.841,0.42-1.38,0.619
		c-0.281-1.08-0.881-1.84-1.581-2.74L659.713,765.375z M659.613,772.676v1.221h5.881l0.02-1.221H659.613z M659.633,775.316v1.361
		h5.881l-0.02-1.361H659.633z M666.594,768.775v-3.641h-3.34v3.641H666.594z M666.334,765.734c-0.439,1.101-0.9,2.061-1.68,3.021
		l-1.281-0.681c0.721-0.86,1.381-2.101,1.721-2.921L666.334,765.734z"/>
	<path fill="#FFFFFF" d="M500.693,794.396h1.5v6.421h6.041v1.42h-17.363v-1.42h6.061v-6.421h1.501v6.4h2.261V794.396z
		 M492.871,794.816c1.4,1.48,2.66,2.9,3.261,4.82l-1.4,0.78c-0.7-1.96-1.66-3.501-3.04-4.78L492.871,794.816z M494.252,793.535
		v-7.281h10.762v7.281H494.252z M503.514,787.694h-7.742v1.36h7.762L503.514,787.694z M503.494,792.055v-1.56h-7.723v1.56H503.494z
		 M502.613,799.557c1.74-1.68,2.66-3.5,3.141-4.781l1.24,0.601c-0.66,2.021-1.54,3.401-3.021,4.981L502.613,799.557z"/>
	<path fill="#FFFFFF" d="M521.913,794.516c-0.7,0.381-1.38,0.76-2.101,1.041h5.621l-0.02,7.641l-1.561-0.02v-1.12h-7.422v1.16h-1.54
		v-5.841c-0.841,0.22-2.22,0.58-3.381,0.8c-0.28-0.42-0.479-0.74-0.84-1.28c3.101-0.6,6.562-1.84,8.001-2.36l-7.4-0.021l-0.021-1.4
		h7.081v-1.24h-5.181l-0.021-1.4h5.201v-1.62h1.58v1.641h3.801v1.2c0.861-0.62,1.861-1.461,2.581-2.221l1.101,0.961
		c-1.201,1.1-2.021,1.82-3.32,2.68h4.561v1.4H521.913z M524.154,788.494v1.621h-1.561v-1.621h-5.642v1.641h-1.561v-1.641h-4.12
		l-0.021-1.46h4.12v-1.58l1.581,0.021v1.56h5.621v-1.64h1.581v1.64h4.12v1.46H524.154z M523.854,796.957h-7.422v1.16h7.422V796.957z
		 M523.854,799.497h-7.422v1.181h7.422V799.497z M519.912,791.875v1.221l1.581-0.02c0.479-0.261,1.56-0.9,2.021-1.201H519.912z"/>
	<path fill="#FFFFFF" d="M539.053,797.496l-0.58-0.74c0.939-0.42,1.2-1.18,1.2-1.98h-1.081v-2.199h2.201v2.1
		C540.793,795.355,540.553,796.797,539.053,797.496z"/>
	<path fill="#FFFFFF" d="M551.711,793.736c0.84-1.461,1.28-2.701,1.621-4.162h-2.281v-1.439h2.601
		c0.181-0.68,0.28-1.601,0.399-2.681l1.421,0.42c-0.04,0.921-0.22,1.681-0.34,2.261h2.661v1.439h-2.981
		c-0.36,1.741-0.979,3.201-1.46,4.201h1.5v-2.6h1.521v2.6h1.8v1.44h-1.8v1.801l2.74-0.74v1.5l-2.74,0.74v4.781h-1.521v-4.461
		l-3.16,0.78l-0.801-1.301c1.601-0.38,2.9-0.64,3.961-0.939v-2.161h-3.141V793.736z M556.552,801.877
		c2.28-0.76,4.062-1.779,5.441-3.5c-0.9-1.36-1.561-2.781-1.921-4.641l1.421-0.541c0.3,1.641,0.819,2.721,1.46,3.762
		c0.621-1.041,1.121-2.241,1.44-3.941l1.38,0.66c-0.16,1.26-1,3.261-1.88,4.701c1.261,1.54,2.9,2.62,4.881,3.561l-1.101,1.28
		c-1.859-0.9-3.561-2.2-4.74-3.601c-1.461,1.6-3.161,2.82-5.342,3.601L556.552,801.877z M557.692,793.035
		c1.3-0.64,2.581-1.939,3.28-3.521l1.201,0.72c-0.74,1.801-1.561,2.801-3.361,4.002L557.692,793.035z M562.533,787.875
		c-0.58-0.701-1.44-1.381-2.34-1.74l1.119-0.921c1,0.44,1.82,1.021,2.741,2.021l-0.681,0.641h4.781v1.46h-10.002v-1.46H562.533z
		 M567.114,794.256c-0.921-1.541-2.04-2.801-3.321-3.781l1.061-0.8c1.541,0.96,2.801,2.32,3.461,3.641L567.114,794.256z"/>
	<path fill="#FFFFFF" d="M571.331,789.515v-1.46h4.881c-0.399-0.68-0.9-1.48-2.04-2.181l1.48-0.841
		c0.5,0.281,0.879,0.781,1.18,1.081c0.5,0.601,0.94,1.341,1.301,1.94h3.141c0.859-0.881,1.4-1.82,1.92-3.141l1.44,0.779
		c-0.46,1.021-1.021,1.841-1.48,2.361h5.142v1.46H571.331z M573.092,802.638v-11.583h6.761v10.103c0,0.66-0.399,1.24-0.979,1.48
		c-0.74,0.3-1.641,0.12-2.501,0.14l-0.5-1.46l2.04,0.06c0.141-0.02,0.381-0.1,0.381-0.38v-2.32h-3.642v3.961H573.092z
		 M574.651,792.535v1.58h3.642v-1.58H574.651z M574.651,797.236h3.642v-1.74h-3.642V797.236z M581.652,791.676h1.541v7.861h-1.541
		V791.676z M586.594,790.355v11.162c0,0.58-0.52,1.26-1.08,1.46c-0.72,0.24-1.58,0.101-2.48,0.14l-0.48-1.48
		c0.861,0.021,1.461-0.039,2.061-0.059c0.181-0.061,0.4-0.261,0.4-0.541v-10.682H586.594z"/>
	<path fill="#FFFFFF" d="M608.015,799.736v1.561h-16.224l-0.02-1.561H608.015z M592.871,787.654l13.982,0.02v1.561l-14.002,0.021
		L592.871,787.654z M605.693,793.455v1.561l-11.702,0.021v-1.581H605.693z"/>
	<path fill="#FFFFFF" d="M612.751,786.395c5.682,0.22,10.923-0.301,13.163-1.24l0.939,1.279c-2.119,0.681-4.2,1.041-6.16,1.221
		l0.02,1.381l7.121-0.021v1.48l-5.381-0.021c1.4,1.281,4.48,3.001,6.541,3.121l-0.779,1.4c-3.161-0.801-5.422-2-7.521-4.182v3.141
		h-1.541v-3.18c-1.82,2.04-4.58,3.561-7.521,4.421l-0.82-1.32c2.561-0.74,4.821-1.86,6.401-3.401h-5.221v-1.46l7.161,0.021v-1.221
		c-1.7,0.141-3.66,0.18-5.682,0.141L612.751,786.395z M620.934,801.717c0,0.601-0.441,1.301-1.001,1.381
		c-0.94,0.24-1.9,0.1-2.96,0.16c-0.181-0.54-0.32-1-0.541-1.621l2.48,0.101c0.32,0.021,0.48-0.239,0.48-0.479v-2.061h-7.982v-1.44
		h8.002l-0.02-0.96c1.1-0.4,2.041-0.841,2.521-1.141l-7.321-0.04l-0.02-1.46l10.082,0.02l0.02,1.28
		c-1.18,0.98-2.521,1.761-3.761,2.261l7.501,0.04l0.021,1.44h-7.501V801.717z"/>
	<path fill="#FFFFFF" d="M634.092,795.036c0,2.74-0.16,5.921-2.08,8.342l-1.281-1.001c0.9-1.32,1.461-2.52,1.621-3.94
		c0.119-1.181,0.18-2.4,0.18-3.62v-7.361h7.281c-0.26-0.381-0.6-0.701-1.62-1.341l1.48-0.82c0.601,0.601,1.64,1.601,1.979,2.161
		h6.622l0.021,1.42h-14.184L634.092,795.036z M645.934,797.297c-0.699,1.18-2.68,2.68-3.48,3.141c0.48,0.22,1.28,0.46,2.08,0.64
		c1.341,0.32,2.682,0.54,4.281,0.66c-0.24,0.62-0.561,0.96-0.82,1.421c-2.561-0.36-5.021-0.82-7.141-1.861
		c-0.58,0.24-1.181,0.521-1.82,0.761c-1.461,0.56-3.102,0.94-4.822,1.14c-0.34-0.439-0.6-0.82-1.06-1.4
		c2.46-0.199,4.461-0.8,6.142-1.4c-0.98-0.699-2.102-1.84-2.881-3.02h-1.521v-1.421l11.083,0.04L645.934,797.297z M644.613,794.956
		h-7.541l0.02-2.741h-2.68v-1.38l2.66-0.021v-1.539h1.58v1.539h4.4v-1.56h1.561v1.56h3.262v1.421h-3.262V794.956z M638.252,797.377
		c1,1.119,1.58,1.641,2.602,2.3c1.22-0.659,2.359-1.36,3.24-2.28L638.252,797.377z M638.713,793.576l4.32-0.021l0.02-1.32h-4.381
		L638.713,793.576z"/>
	<path fill="#FFFFFF" d="M658.973,803.318v-7.262h-7.742v-1.461h7.742v-6.961h-6.481v-1.461h14.362v1.461h-6.361v6.961h7.723v1.461
		h-7.723v7.262H658.973z M654.271,788.215c1.641,1.46,2.641,3.16,3.441,5.101l-1.4,0.761c-0.701-1.98-1.661-3.762-3.521-5.142
		L654.271,788.215z M661.373,793.156c1.641-1.501,2.92-3.081,3.5-5.062l1.32,0.7c-0.66,2.02-1.9,3.641-3.46,5.24L661.373,793.156z"
		/>
	<path fill="#FFFFFF" d="M497.473,815.936c1.46-1.82,2.439-4.721,2.6-6.642l1.441,0.34c-0.101,0.78-0.221,1.4-0.341,1.821h6.762
		c-0.06,5.92-0.16,12.822-1.421,14.683c-1.119,1.66-3.32,0.86-4.9,0.74l-0.5-1.741c1.24,0.261,2.221,0.5,3.28,0.521
		c0.4,0.021,0.74-0.18,0.9-0.521c0.92-2.779,1.04-6.961,1.181-12.223h-5.722c-0.54,1.521-1.3,3.241-2.7,4.642l-1.501-0.7
		c0.261-0.26,0.48-0.46,0.7-0.721h-1.68v5.082c0.58-0.26,1.54-0.621,2.54-1.021v1.58l-5.601,2.44l-1.4-1.1
		c1.14-0.42,2.141-0.82,2.939-1.141v-5.842h-2.52v-1.439h2.5v-4.281h1.541v4.281h1.9V815.936z M499.152,823.297l-1.1-1.26
		c1.54-0.44,5.641-2.041,7.281-2.781v1.541L499.152,823.297z M503.633,818.556c-0.64-1.021-2.06-2.46-3.2-3.081l1.12-1
		c1.301,0.761,2.66,1.961,3.381,3.061L503.633,818.556z"/>
	<path fill="#FFFFFF" d="M515.291,821.116c0.361-0.14,1.041-0.34,1.801-0.62l0.041,1.521c-1.781,0.64-3.441,1.22-5.222,1.88
		l-1.061-1.359c1.181-0.28,2.101-0.561,2.901-0.84v-5.482l-2.262-0.02l0.021-1.42h2.241v-4.922h1.52v4.922h1.521v1.439h-1.501
		V821.116z M516.973,818.236v-6.502h2.96c-0.3-0.48-1.08-1.141-1.921-1.86l1.541-0.601c0.9,0.761,1.58,1.641,2.08,2.441l1.801,0.02
		c0.76-0.74,1.301-1.66,1.74-2.801c0.561,0.221,0.94,0.5,1.42,0.78c-0.459,0.86-0.92,1.601-1.3,1.98h2.82v6.542H516.973z
		 M519.652,827.277h-1.54v-8.002l8.882-0.02v8.002l-1.5-0.02l0.02-1.141l-5.881,0.02L519.652,827.277z M521.793,816.815v-3.661
		l-3.301-0.02v3.681H521.793z M519.713,813.375c0.84,0.8,1.28,1.721,1.78,2.721c-0.479,0.22-0.841,0.42-1.38,0.619
		c-0.281-1.08-0.881-1.84-1.581-2.74L519.713,813.375z M519.613,820.676v1.221h5.881l0.02-1.221H519.613z M519.633,823.316v1.361
		h5.881l-0.02-1.361H519.633z M526.594,816.775v-3.641h-3.34v3.641H526.594z M526.334,813.734c-0.439,1.101-0.9,2.061-1.68,3.021
		l-1.281-0.681c0.721-0.86,1.381-2.101,1.721-2.921L526.334,813.734z"/>
	<path fill="#FFFFFF" d="M547.854,826.178c-5.521-2.061-7.762-4.661-8.802-7.922h-2.461v6.541l3.9-1.641v1.501l-4.76,2.221
		l-0.9-1.341c0.199-0.18,0.24-0.58,0.24-0.859v-6.422h-4.142v-1.461h4.341v-7.461h1.521v5.682c2.38-1.061,5.021-2.461,7.282-4.321
		l1.039,1.14c-2.5,1.98-5.32,3.521-8.321,4.642v0.319h11.143v1.461h-7.401c1.08,3.461,4.921,5.602,8.342,6.582L547.854,826.178z"/>
	<path fill="#FFFFFF" d="M556.052,822.677h-5.921v-2.601l6.081-8.162h2.54v8.422h1.861v2.341h-1.861v3.241h-2.7V822.677z
		 M556.052,815.475h-0.06l-3.621,4.861h3.681V815.475z"/>
	<path fill="#FFFFFF" d="M564.291,822.316c0.18,0.94,0.9,1.74,1.881,1.74c2.061,0,2.601-2.7,2.681-4.26l-0.04-0.041
		c-0.78,1.101-1.801,1.561-3.16,1.561c-1.201,0-2.422-0.561-3.221-1.44c-0.74-0.86-1.081-2.021-1.081-3.12
		c0-2.861,1.98-5.121,4.901-5.121c4.24,0,5.381,3.701,5.381,7.241c0,3.421-1.52,7.321-5.501,7.321c-2.421,0-4.222-1.42-4.541-3.881
		H564.291z M568.592,816.576c0-1.301-0.84-2.602-2.26-2.602c-1.36,0-2.141,1.301-2.141,2.561c0,1.32,0.68,2.641,2.141,2.641
		C567.852,819.176,568.592,817.955,568.592,816.576z"/>
	<path fill="#FFFFFF" d="M576.951,811.635c2.48,0,3.281,1.84,3.281,4.041c0,2.18-1.041,3.76-3.381,3.76
		c-2.461,0-3.301-1.64-3.301-3.84C573.551,813.415,574.611,811.635,576.951,811.635z M576.871,817.936c1.24,0,1.32-1.439,1.32-2.28
		c0-0.78-0.061-2.521-1.24-2.521c-1.28,0-1.36,1.58-1.36,2.5C575.591,816.496,575.591,817.936,576.871,817.936z M585.413,811.475
		h1.7l-8.242,14.883h-1.74L585.413,811.475z M587.273,818.396c2.48,0,3.281,1.74,3.281,3.94c0,2.181-1.041,3.86-3.381,3.86
		c-2.461,0-3.301-1.74-3.301-3.94C583.873,820.076,584.934,818.396,587.273,818.396z M587.193,824.697c1.24,0,1.32-1.561,1.32-2.4
		c0-0.78-0.061-2.4-1.24-2.4c-1.28,0-1.36,1.46-1.36,2.381C585.913,823.137,585.913,824.697,587.193,824.697z"/>
</g>
<g>
	<path fill="#58B5E1" d="M585.152,729.208h-4.971v-15.892h-6.16v-3.745c3.465,0.069,6.65-1.12,7.176-4.866h3.955V729.208z"/>
	<path fill="#58B5E1" d="M600.588,704.216c4.9,0,9.029,3.08,9.029,12.636c0,9.767-4.129,12.847-9.029,12.847
		c-4.832,0-8.961-3.08-8.961-12.847C591.627,707.296,595.756,704.216,600.588,704.216z M600.588,725.603
		c4.061,0,4.061-5.985,4.061-8.751c0-2.555,0-8.541-4.061-8.541c-3.99,0-3.99,5.986-3.99,8.541
		C596.598,719.617,596.598,725.603,600.588,725.603z"/>
	<path fill="#58B5E1" d="M620.117,704.216c6.09,0,8.191,4.2,8.191,6.58c0,2.415-1.262,4.376-3.57,5.146v0.07
		c2.904,0.665,4.584,2.905,4.584,5.985c0,5.146-4.619,7.701-9.17,7.701c-4.727,0-9.311-2.381-9.311-7.666
		c0-3.115,1.75-5.32,4.619-6.021v-0.07c-2.379-0.665-3.605-2.625-3.605-5.04C611.855,706.49,616.127,704.216,620.117,704.216z
		 M620.152,725.953c2.381,0,4.201-1.681,4.201-4.131c0-2.346-1.891-3.921-4.201-3.921c-2.416,0-4.34,1.365-4.34,3.886
		S617.771,725.953,620.152,725.953z M620.117,714.576c2.029,0,3.676-1.12,3.676-3.22c0-1.261-0.596-3.396-3.676-3.396
		c-1.996,0-3.746,1.225-3.746,3.396C616.371,713.491,618.121,714.576,620.117,714.576z"/>
	<path fill="#58B5E1" d="M634.992,719.126v11.362h-1.5v-8.802c-0.6,1-1.221,1.58-2.021,2.28l-0.98-1.2
		c2.281-2.04,3.502-4.521,4.262-7.161c0.221-0.78,0.461-1.721,0.68-2.981l1.301,0.561
		C636.393,715.385,635.771,717.325,634.992,719.126z M646.875,729.428h-9.182c-0.26,0-0.781-0.26-1.102-0.74
		c-0.359-0.58-0.52-1.479-0.18-2.08c2.361-3.221,6.422-8.401,8.602-10.822h-7.721v-1.46h9.982l-0.041,1.42
		c-3.34,3.561-6.381,7.502-9.041,11.022c-0.16,0.28-0.4,0.52-0.32,0.84c0.02,0.181,0.279,0.28,0.42,0.36h8.041
		c0.24,0,0.42-0.16,0.541-0.34c0.18-0.46,0.18-1.04,0.299-1.82l1.502,0.66C648.275,728.308,647.936,729.428,646.875,729.428z"/>
	<path fill="#58B5E1" d="M662.814,727.268c0,0.561,0.4,0.8,0.76,0.8h2.359c0.58,0,0.781-1.4,1.121-3l1.541,0.5
		c-0.16,0.98-0.381,1.88-0.701,2.66c-0.299,0.721-1.039,1.381-1.82,1.381h-2.801c-1.66,0-2.061-1.461-2.061-2.561v-6.722
		l-2.539-0.021c0.059,5.821-2.701,8.263-6.242,10.242l-1.1-1.52c3.52-1.841,5.74-3.821,5.721-8.723h-4.582v-1.52l15.064,0.02v1.521
		l-4.721-0.021V727.268z M654.172,713.864h11.703v1.521h-11.703V713.864z"/>
</g>
<g opacity="0.7">
	<path fill-rule="evenodd" clip-rule="evenodd" fill="none" stroke="#FFFFFF" stroke-width="2" stroke-miterlimit="10" d="
		M669.812,883.592c0,4.018-3.258,7.273-7.273,7.273h-73.314c-4.018,0-7.273-3.256-7.273-7.273v-38.604
		c0-4.018,3.256-7.273,7.273-7.273h73.314c4.016,0,7.273,3.256,7.273,7.273V883.592z"/>
	<rect x="581.95" y="844.14" fill-rule="evenodd" clip-rule="evenodd" fill="#FFFFFF" width="87.861" height="17.438"/>
	
		<line fill-rule="evenodd" clip-rule="evenodd" fill="none" stroke="#FFFFFF" stroke-width="3" stroke-linecap="round" stroke-linejoin="round" stroke-miterlimit="10" x1="600.985" y1="882.821" x2="590.081" y2="882.821"/>
	
		<line fill-rule="evenodd" clip-rule="evenodd" fill="none" stroke="#FFFFFF" stroke-width="3" stroke-linecap="round" stroke-linejoin="round" stroke-miterlimit="10" x1="627.265" y1="882.821" x2="606.921" y2="882.821"/>
</g>
<path opacity="0.698" fill-rule="evenodd" clip-rule="evenodd" fill="#FFFFFF" d="M209.109,826.192h57.078l25.914,35.81h-6.945
	v22.514h6.287v6.35H182.473v-6.35h8.181v-19.249h-5.286l-3.067-5.556L209.109,826.192L209.109,826.192z M277.309,884.516v-22.514
	H245.22v22.514h4.411v-20.439h13.038v20.439H277.309L277.309,884.516z M237.377,884.516v-22.514h-2.359l-21.282-29.414
	l-19.664,24.832h0.505h3.923v27.096H237.377L237.377,884.516z M209.758,861.749v15.956h10.765v-15.956H209.758z"/>
</svg>
