<?xml version="1.0" encoding="utf-8"?>
<!-- Generator: Adobe Illustrator 16.0.0, SVG Export Plug-In . SVG Version: 6.00 Build 0)  -->
<!DOCTYPE svg PUBLIC "-//W3C//DTD SVG 1.1//EN" "http://www.w3.org/Graphics/SVG/1.1/DTD/svg11.dtd">
<svg version="1.1" id="Layer_1" xmlns="http://www.w3.org/2000/svg" xmlns:xlink="http://www.w3.org/1999/xlink" x="0px" y="0px"
	 width="768px" height="1024px" viewBox="0 0 768 1024" enable-background="new 0 0 768 1024" xml:space="preserve">
<g>
	<path fill="#58B5E1" d="M111.77,711.716c-0.315-1.646-1.575-3.046-3.291-3.046c-3.605,0-4.55,4.727-4.69,7.456l0.07,0.07
		c1.365-1.925,3.15-2.73,5.531-2.73c2.1,0,4.235,0.979,5.636,2.521c1.295,1.505,1.89,3.534,1.89,5.461
		c0,5.005-3.465,8.961-8.576,8.961c-7.42,0-9.416-6.478-9.416-12.672c0-5.986,2.661-12.813,9.626-12.813
		c4.236,0,7.386,2.485,7.946,6.791H111.77z M104.244,721.762c0,2.275,1.47,4.552,3.956,4.552c2.38,0,3.745-2.275,3.745-4.48
		c0-2.311-1.19-4.621-3.745-4.621C105.539,717.211,104.244,719.346,104.244,721.762z"/>
	<path fill="#58B5E1" d="M135.745,709.686c-5.146,4.48-7.946,13.687-8.016,20.232h-5.321c0.561-7.246,3.571-14.282,8.226-19.883
		h-11.621v-4.62h16.731L135.745,709.686L135.745,709.686z"/>
	<path fill="#58B5E1" d="M142.289,719.836v11.361h-1.5v-8.801c-0.6,1-1.22,1.579-2.021,2.278l-0.98-1.199
		c2.28-2.041,3.5-4.521,4.261-7.161c0.22-0.78,0.46-1.722,0.68-2.98l1.3,0.561C143.689,716.095,143.069,718.035,142.289,719.836z
		 M154.171,730.138h-9.182c-0.26,0-0.78-0.261-1.101-0.739c-0.36-0.58-0.52-1.48-0.18-2.081c2.36-3.222,6.421-8.401,8.602-10.822
		h-7.722v-1.46h9.982l-0.04,1.421c-3.341,3.561-6.381,7.501-9.042,11.021c-0.16,0.28-0.4,0.521-0.32,0.842
		c0.02,0.18,0.28,0.279,0.42,0.359h8.042c0.24,0,0.42-0.16,0.54-0.341c0.18-0.46,0.18-1.04,0.3-1.82l1.5,0.66
		C155.572,729.018,155.232,730.138,154.171,730.138z"/>
	<path fill="#58B5E1" d="M170.111,727.977c0,0.562,0.4,0.802,0.76,0.802h2.36c0.58,0,0.78-1.4,1.12-3.001l1.541,0.501
		c-0.16,0.979-0.38,1.88-0.7,2.659c-0.3,0.721-1.041,1.381-1.82,1.381h-2.801c-1.66,0-2.061-1.46-2.061-2.562v-6.722l-2.541-0.021
		c0.06,5.821-2.701,8.263-6.241,10.242l-1.1-1.521c3.521-1.842,5.741-3.821,5.721-8.723h-4.581v-1.521l15.063,0.021v1.521
		l-4.721-0.021L170.111,727.977L170.111,727.977z M161.469,714.574h11.703v1.521h-11.703V714.574z"/>
	<path fill="#FFFFFF" d="M116.092,771.156c-3-1.682-6.062-4.021-7.902-7.201c-1.36,2.46-4.701,5.841-8.102,7.221l-1.3-1.04
		c4.301-2.081,7.102-4.761,9.142-8.861l1.34,0.62l-0.26,0.561c1.601,3.261,5.021,5.722,8.282,7.642L116.092,771.156z
		 M107.31,779.318v-12.443h1.52v12.443H107.31z"/>
	<path fill="#FFFFFF" d="M129.19,761.794c0.02,2.261-0.08,4.301-0.3,6.321c-0.06,0.479,0.12,0.66,0.24,0.939
		c1.62,4.001,3.761,6.741,7.922,8.522l-1.161,1.3c-3.701-1.921-5.961-4.101-7.662-8.063c-0.78,2.301-3.561,5.9-7.421,8.003
		l-1.2-1.183c1.4-0.84,2.561-1.68,3.641-2.72c1.32-1.24,2.281-2.28,3.281-4.361c1.16-2.359,1.02-5.859,1.06-8.762h1.6V761.794z"/>
	<path fill="#FFFFFF" d="M142.489,779.318v-10.924c-0.36,0.461-1.18,1.48-2.12,2.301l-1.24-1.061
		c2.62-2.279,4.061-5.281,5.161-8.502l1.4,0.62c-0.48,1.5-1.08,2.781-1.68,4.062l0.02,13.504H142.489z M144.75,778.098v-1.461
		l5.441-0.02v-4.841h-3.861l-0.02-1.44l3.881-0.02l0.02-4.002l-4.701-0.021v-1.479l4.901,0.02c-0.36-1.02-1.541-2.06-2.881-2.84
		l1.34-0.881c1.24,0.761,2.48,1.801,3.081,3.24l-0.7,0.44l5.221,0.021v1.479h-4.721l-0.02,4.021h3.981v1.46h-3.981v4.841h5.581
		v1.479H144.75V778.098z"/>
	<path fill="#FFFFFF" d="M162.809,768.735v3.581c0,2.58-1.22,5.381-2.681,6.842l-1.32-0.801c1.46-1.54,2.44-4.24,2.44-6.121v-8.082
		h7.102c-0.44-0.601-1.12-1.32-2.161-1.939l1.48-0.841c1.08,0.62,1.94,1.46,2.46,2.3l-0.76,0.441l6.261,0.039v4.581h-6.021
		c0.54,0.439,1,1.16,1.24,1.779h6.102v1.5h-8.202c-0.04,0.48-0.12,1.041-0.18,1.48h6.781c-0.12,1.301-0.28,2.781-0.56,3.94
		c-0.12,0.54-0.54,1.062-1.08,1.32c-1,0.34-2.121,0.061-3.201-0.02l-0.52-1.683c1.06,0.222,1.82,0.4,2.68,0.4
		c0.26,0,0.42-0.119,0.521-0.34c0.16-0.562,0.32-1.54,0.38-2.142h-5.281c-0.32,1.381-1.66,2.781-3.061,3.421
		c-0.72,0.342-1.46,0.602-2.3,0.842l-1-1.521c1.98-0.399,4.001-1.02,4.701-2.82c0.36-0.92,0.48-2.061,0.54-2.899h-3.881v-1.48h5.701
		c-0.2-0.438-0.76-1.08-1.28-1.46l0.6-0.28L162.809,768.735z M162.829,765.595v1.682h11.182v-1.682H162.829z"/>
	<path fill="#FFFFFF" d="M179.128,777.637c2.581-0.379,4.821-0.539,6.681-1.858c1.42-1.021,1.521-2.921,1.521-4.881h1.5
		c0,1.618-0.04,3.1-0.6,4.221c-0.44,0.88-1.08,1.6-1.92,2.16c-1.5,1-4.681,1.62-6.361,1.84L179.128,777.637z M182.609,767.875v-2.4
		c-0.58,0.44-1.44,0.94-2.46,1.36l-0.98-1.24c2.401-1.021,4.301-2.421,5.981-4.381l1.14,0.96c-0.76,0.9-1.52,1.602-2.14,2.182v3.521
		L182.609,767.875L182.609,767.875z M182.089,768.596h11.643v6.981h-1.561v-5.521h-8.522v5.901h-1.56V768.596z M192.611,763.375
		l2.861-0.521l0.28,1.36l-5.461,1c0.64,0.54,1.74,1.08,2.921,1.42c0.42,0.12,0.76,0.381,1.18,0.142c0.08-0.062,0.18-0.142,0.24-0.32
		c0.16-0.32,0.22-0.881,0.28-1.5l1.44,0.5c-0.32,1.479-0.44,1.979-1.041,2.54c-0.76,0.521-2.28,0.16-3.121-0.12
		c-1.42-0.46-2.8-1.24-3.761-2.32l-3.141,0.58l-0.42-1.34l2.7-0.5c-0.14-0.32-0.6-1.58-0.72-2.621l1.521-0.42
		c0.22,1.141,0.42,2.021,0.84,2.721l2.621-0.46c-0.54-0.38-1.32-0.601-2.341-0.8l0.76-1.181c0.74,0.04,2.161,0.398,3,0.979
		L192.611,763.375z M195.672,779.218c-1.96-1.439-4.781-2.479-7.222-2.979l0.7-1.3c2.38,0.52,4.981,1.26,7.582,2.96L195.672,779.218
		z"/>
	<path fill="#FFFFFF" d="M199.188,776.758c1.32-1.101,2.341-2.221,3.001-3.701l1.14,0.779c-0.64,1.561-1.66,2.762-3,3.881
		L199.188,776.758z M199.708,764.455l0.02-1.461l3.94,0.02v-1.739h1.521l-0.02,1.721h4.021l0.02,1.461h-4.041l0.02,1.359h3.241
		l0.02,1.44l-7.942,0.021v-1.461l3.141-0.021l0.02-1.34H199.708z M201.449,777.838h1.76c0.38,0,0.58-0.141,0.58-0.561v-4.9h-3.881
		v-1.441h9.102v1.441h-3.721l0.02,5.141c0,0.74-0.34,1.681-1.34,1.681h-1.44L201.449,777.838z M200.869,769.775v-1.439h7.162v1.439
		H200.869z M206.69,772.916c1.28,0.92,1.76,1.621,2.541,2.841l-1.22,0.82c-0.64-1.061-1.36-2.021-2.441-2.801L206.69,772.916z
		 M207.75,778.277c3.141-2.62,3.541-4.961,3.781-7.041c0.08-0.802,0.18-2.581,0.22-3.521l1.5,0.221l-0.12,2.5
		c0.42,2.882,1.56,5.781,4.141,7.622l-1.02,1.141c-1.82-1.119-3.261-3.58-3.701-5.341c-0.68,2.101-1.541,3.48-3.621,5.462
		L207.75,778.277z M214.011,768.836c0.38-1,0.62-1.841,0.78-2.541l-3.341,0.021c-0.32,1.261-0.86,2.581-1.74,3.922l-1.48-0.642
		c1.8-2.399,2.301-5.262,2.341-8.382l1.44,0.38c-0.02,1.222-0.08,2.361-0.26,3.262h4.641c-0.1,1.539-0.521,2.841-0.98,4.24
		L214.011,768.836z"/>
	<path fill="#FFFFFF" d="M223.149,773.336c-0.84,1.721-1.78,2.961-3.38,3.881l-0.9-1.18c1.58-0.881,2.541-2.041,3.201-3.521
		L223.149,773.336z M225.089,777.797c0,0.781-0.6,1.641-1.52,1.641h-1.621l-0.52-1.6l1.6,0.119c0.2,0.021,0.5-0.22,0.5-0.479v-5.441
		h-3.221v-1.46h3.221v-1.42h-3.921v-1.48h2.88c-0.14-0.58-0.62-1.319-1.54-2.021l1.32-0.539c0.84,0.66,1.44,1.561,1.72,2.561h0.84
		c0.66-0.66,1.16-1.66,1.4-2.521l1.34,0.541c-0.22,0.699-0.68,1.52-1.12,1.979h2.38v1.48h-3.741v1.42h3.181v1.46h-3.181v1.421
		l0.58-0.74c0.94,0.58,1.84,1.521,2.5,2.642l-1.02,1.159c-0.5-1.2-1.4-2.061-2.061-2.561v3.838H225.089z M223.389,763.334
		c-0.18-0.32-0.6-0.88-1.26-1.54l1.46-0.681c0.64,0.761,1.18,1.521,1.42,2.221h3.381v1.461h-8.282v-1.461H223.389z M236.392,762.594
		c-1.801,1.041-3.641,1.541-5.421,1.861v2.86h5.741v1.46h-2.24v10.422h-1.541v-10.422h-1.96v2.58c0,2.66-0.88,5.401-2.42,7.781
		l-1.36-0.96c1.84-2.521,2.24-5.241,2.24-8.342l-0.02-6.602c2.221-0.261,4.141-0.86,6.021-1.882L236.392,762.594z"/>
	<path fill="#FFFFFF" d="M243.669,773.116c0.36-0.141,1.041-0.34,1.801-0.62l0.04,1.521c-1.781,0.641-3.441,1.221-5.221,1.881
		l-1.061-1.359c1.181-0.28,2.101-0.562,2.901-0.84v-5.482l-2.261-0.02l0.02-1.42h2.241v-4.923h1.52v4.923h1.521v1.438h-1.5
		L243.669,773.116L243.669,773.116z M245.35,770.236v-6.502h2.96c-0.3-0.48-1.08-1.142-1.92-1.86l1.541-0.601
		c0.9,0.761,1.58,1.641,2.081,2.44l1.8,0.021c0.76-0.74,1.3-1.66,1.74-2.802c0.56,0.222,0.94,0.5,1.42,0.78
		c-0.46,0.86-0.92,1.602-1.3,1.98h2.82v6.542L245.35,770.236L245.35,770.236z M248.03,779.277h-1.541v-8.002l8.882-0.021v8.002
		l-1.5-0.02l0.02-1.142l-5.881,0.021L248.03,779.277z M250.17,768.815v-3.661l-3.301-0.021v3.682H250.17z M248.09,765.375
		c0.84,0.8,1.28,1.721,1.78,2.721c-0.48,0.221-0.84,0.42-1.38,0.619c-0.28-1.08-0.88-1.84-1.581-2.74L248.09,765.375z
		 M247.99,772.676v1.222h5.881l0.02-1.222H247.99z M248.01,775.316v1.36h5.881l-0.02-1.36H248.01z M254.972,768.775v-3.642h-3.341
		v3.642H254.972z M254.711,765.734c-0.44,1.101-0.9,2.061-1.68,3.021l-1.28-0.681c0.72-0.86,1.38-2.102,1.72-2.921L254.711,765.734z
		"/>
	<path fill="#FFFFFF" d="M266.45,763.395v10.982h-1.5v-0.721h-3.061v1.261h-1.5v-11.522H266.45z M261.869,767.635h3.001v-2.779
		h-3.001V767.635z M261.889,769.115v3.102h3.061v-3.102H261.889z M264.329,778.098c3.101-2.239,3.801-3.979,3.801-8.342v-7.582
		h7.462v15.063c0,0.601-0.88,1.46-1.541,1.521c-0.72-0.02-1.32-0.061-2.16-0.02l-0.5-1.562c0.88,0.08,1.761,0.181,2.201,0.08
		c0.22-0.041,0.44-0.261,0.44-0.479v-4.021h-4.461c-0.2,2.361-1.52,4.683-4.121,6.462L264.329,778.098z M274.071,763.635h-4.421v3
		h4.421V763.635z M269.67,768.096v3.181h4.381v-3.181H269.67z"/>
	<path fill="#FFFFFF" d="M289.07,770.396h1.5v6.421h6.041v1.42h-17.364v-1.42h6.062v-6.421h1.5v6.399h2.26L289.07,770.396
		L289.07,770.396z M281.249,770.816c1.4,1.479,2.661,2.899,3.261,4.819l-1.4,0.78c-0.7-1.96-1.66-3.501-3.041-4.78L281.249,770.816z
		 M282.629,769.535v-7.281h10.762v7.281H282.629z M291.891,763.694h-7.742v1.359h7.762L291.891,763.694z M291.871,768.055v-1.56
		h-7.722v1.56H291.871z M290.991,775.557c1.74-1.68,2.661-3.5,3.141-4.78l1.24,0.601c-0.66,2.021-1.54,3.401-3.021,4.981
		L290.991,775.557z"/>
	<path fill="#FFFFFF" d="M307.43,773.496l-0.581-0.74c0.94-0.42,1.201-1.18,1.201-1.979h-1.081v-2.199h2.201v2.1
		C309.17,771.355,308.93,772.797,307.43,773.496z"/>
	<path fill="#FFFFFF" d="M100.088,793.736c0.84-1.461,1.28-2.701,1.621-4.162h-2.281v-1.439h2.601c0.18-0.68,0.28-1.601,0.4-2.681
		l1.42,0.42c-0.04,0.921-0.22,1.681-0.34,2.261h2.661v1.439h-2.981c-0.36,1.741-0.98,3.201-1.46,4.201h1.5v-2.601h1.521v2.601h1.8
		v1.439h-1.8v1.801l2.74-0.739v1.5l-2.74,0.739v4.781h-1.521v-4.461l-3.161,0.78l-0.8-1.301c1.601-0.381,2.901-0.641,3.961-0.939
		v-2.161h-3.141V793.736z M104.929,801.877c2.281-0.76,4.061-1.779,5.441-3.5c-0.9-1.36-1.561-2.781-1.92-4.641l1.42-0.541
		c0.3,1.641,0.82,2.721,1.46,3.762c0.621-1.041,1.121-2.241,1.44-3.941l1.38,0.66c-0.16,1.26-1,3.262-1.88,4.701
		c1.26,1.54,2.9,2.62,4.881,3.561l-1.1,1.28c-1.86-0.899-3.561-2.2-4.741-3.601c-1.46,1.6-3.161,2.82-5.341,3.601L104.929,801.877z
		 M106.07,793.035c1.3-0.641,2.581-1.939,3.281-3.521l1.2,0.721c-0.74,1.801-1.561,2.801-3.361,4.002L106.07,793.035z
		 M110.911,787.875c-0.58-0.701-1.44-1.381-2.34-1.74l1.12-0.921c1,0.44,1.82,1.021,2.741,2.021l-0.68,0.641h4.781v1.46H106.53
		v-1.46L110.911,787.875L110.911,787.875z M115.492,794.256c-0.92-1.541-2.041-2.801-3.321-3.781l1.061-0.8
		c1.54,0.96,2.8,2.32,3.46,3.642L115.492,794.256z"/>
	<path fill="#FFFFFF" d="M119.708,789.515v-1.46h4.881c-0.4-0.68-0.9-1.479-2.041-2.181l1.48-0.841c0.5,0.281,0.88,0.781,1.18,1.081
		c0.5,0.601,0.94,1.341,1.3,1.939h3.141c0.86-0.881,1.4-1.819,1.92-3.141l1.44,0.779c-0.46,1.021-1.021,1.841-1.48,2.36h5.141v1.46
		h-16.962V789.515z M121.469,802.638v-11.583h6.761v10.104c0,0.66-0.4,1.24-0.98,1.479c-0.74,0.3-1.641,0.12-2.5,0.141l-0.5-1.46
		l2.04,0.06c0.14-0.02,0.38-0.1,0.38-0.38v-2.32h-3.641v3.961L121.469,802.638L121.469,802.638z M123.029,792.535v1.58h3.641v-1.58
		H123.029z M123.029,797.236h3.641v-1.74h-3.641V797.236z M130.03,791.676h1.541v7.861h-1.541V791.676z M134.972,790.355v11.161
		c0,0.58-0.52,1.261-1.081,1.46c-0.72,0.24-1.58,0.102-2.48,0.141l-0.48-1.48c0.86,0.021,1.46-0.039,2.061-0.059
		c0.18-0.062,0.4-0.261,0.4-0.541v-10.682H134.972z"/>
	<path fill="#FFFFFF" d="M156.392,799.736v1.561h-16.224l-0.02-1.561H156.392z M141.249,787.654l13.983,0.02v1.562l-14.003,0.021
		L141.249,787.654z M154.071,793.455v1.561l-11.703,0.021v-1.581L154.071,793.455L154.071,793.455z"/>
	<path fill="#FFFFFF" d="M161.128,786.395c5.682,0.221,10.922-0.301,13.163-1.239l0.94,1.278c-2.12,0.682-4.201,1.041-6.161,1.222
		l0.02,1.381l7.122-0.021v1.48l-5.381-0.021c1.4,1.281,4.481,3.001,6.542,3.121l-0.78,1.4c-3.161-0.801-5.421-2-7.521-4.183v3.142
		h-1.541v-3.18c-1.82,2.04-4.581,3.561-7.521,4.421l-0.82-1.32c2.561-0.74,4.821-1.86,6.401-3.401h-5.221v-1.46l7.161,0.021v-1.221
		c-1.7,0.141-3.661,0.18-5.681,0.141L161.128,786.395z M169.311,801.717c0,0.602-0.44,1.301-1,1.381c-0.94,0.24-1.9,0.101-2.96,0.16
		c-0.18-0.54-0.32-1-0.54-1.621l2.48,0.102c0.32,0.021,0.48-0.239,0.48-0.479v-2.061h-7.982v-1.44h8.002l-0.02-0.96
		c1.1-0.399,2.041-0.841,2.521-1.141l-7.321-0.04l-0.02-1.46l10.082,0.02l0.02,1.28c-1.18,0.98-2.521,1.761-3.761,2.261l7.501,0.04
		l0.02,1.44h-7.501L169.311,801.717L169.311,801.717z"/>
	<path fill="#FFFFFF" d="M182.469,795.036c0,2.74-0.16,5.921-2.08,8.342l-1.28-1.001c0.9-1.32,1.46-2.52,1.62-3.939
		c0.12-1.182,0.18-2.4,0.18-3.62v-7.361h7.281c-0.26-0.381-0.6-0.701-1.62-1.341l1.48-0.82c0.6,0.602,1.64,1.602,1.98,2.161h6.622
		l0.02,1.42h-14.183L182.469,795.036z M194.312,797.297c-0.7,1.18-2.681,2.68-3.481,3.141c0.48,0.221,1.28,0.461,2.081,0.641
		c1.34,0.32,2.681,0.54,4.281,0.66c-0.24,0.62-0.56,0.96-0.82,1.421c-2.561-0.36-5.021-0.82-7.142-1.861
		c-0.58,0.24-1.18,0.521-1.82,0.761c-1.46,0.561-3.101,0.94-4.821,1.141c-0.34-0.439-0.6-0.82-1.06-1.4
		c2.46-0.199,4.461-0.8,6.141-1.4c-0.98-0.698-2.101-1.84-2.88-3.02h-1.521v-1.421l11.083,0.04L194.312,797.297z M192.991,794.956
		h-7.542l0.02-2.741h-2.681v-1.38l2.661-0.021v-1.539h1.58v1.539h4.401v-1.561h1.561v1.561h3.261v1.421h-3.261V794.956
		L192.991,794.956z M186.63,797.377c1,1.119,1.58,1.641,2.601,2.3c1.22-0.659,2.36-1.359,3.241-2.28L186.63,797.377z
		 M187.09,793.576l4.321-0.021l0.02-1.319h-4.381L187.09,793.576z"/>
	<path fill="#FFFFFF" d="M207.35,803.318v-7.263h-7.742v-1.461h7.742v-6.961h-6.481v-1.461h14.363v1.461h-6.361v6.961h7.722v1.461
		h-7.722v7.263H207.35z M202.649,788.215c1.64,1.46,2.641,3.16,3.441,5.102l-1.4,0.761c-0.7-1.98-1.661-3.762-3.521-5.143
		L202.649,788.215z M209.75,793.156c1.64-1.501,2.92-3.081,3.5-5.063l1.32,0.7c-0.66,2.021-1.9,3.641-3.46,5.24L209.75,793.156z"/>
	<path fill="#FFFFFF" d="M225.85,791.936c1.46-1.819,2.44-4.721,2.601-6.642l1.44,0.34c-0.1,0.78-0.22,1.4-0.34,1.821h6.762
		c-0.06,5.92-0.16,12.822-1.42,14.683c-1.12,1.66-3.321,0.86-4.901,0.74l-0.5-1.741c1.24,0.261,2.221,0.5,3.281,0.521
		c0.4,0.021,0.74-0.181,0.9-0.521c0.92-2.779,1.04-6.961,1.18-12.223h-5.721c-0.54,1.521-1.3,3.241-2.701,4.642l-1.5-0.7
		c0.26-0.26,0.48-0.46,0.7-0.721h-1.68v5.082c0.58-0.26,1.541-0.621,2.541-1.021v1.579l-5.601,2.44l-1.4-1.1
		c1.14-0.42,2.141-0.82,2.94-1.142v-5.842h-2.521v-1.438h2.5v-4.281h1.541v4.281h1.9L225.85,791.936L225.85,791.936z
		 M227.53,799.297l-1.1-1.26c1.541-0.44,5.641-2.041,7.282-2.781v1.541L227.53,799.297z M232.011,794.556
		c-0.64-1.021-2.06-2.46-3.201-3.081l1.121-1c1.3,0.762,2.66,1.961,3.38,3.062L232.011,794.556z"/>
	<path fill="#FFFFFF" d="M243.669,797.116c0.36-0.141,1.041-0.34,1.801-0.62l0.04,1.521c-1.781,0.641-3.441,1.221-5.221,1.881
		l-1.061-1.359c1.181-0.28,2.101-0.562,2.901-0.84v-5.482l-2.261-0.02l0.02-1.42h2.241v-4.923h1.52v4.923h1.521v1.438h-1.5
		L243.669,797.116L243.669,797.116z M245.35,794.236v-6.502h2.96c-0.3-0.48-1.08-1.142-1.92-1.86l1.541-0.601
		c0.9,0.761,1.58,1.641,2.081,2.44l1.8,0.021c0.76-0.74,1.3-1.66,1.74-2.802c0.56,0.222,0.94,0.5,1.42,0.78
		c-0.46,0.86-0.92,1.602-1.3,1.98h2.82v6.542L245.35,794.236L245.35,794.236z M248.03,803.277h-1.541v-8.002l8.882-0.021v8.002
		l-1.5-0.02l0.02-1.142l-5.881,0.021L248.03,803.277z M250.17,792.815v-3.661l-3.301-0.021v3.682H250.17z M248.09,789.375
		c0.84,0.8,1.28,1.721,1.78,2.721c-0.48,0.221-0.84,0.42-1.38,0.619c-0.28-1.08-0.88-1.84-1.581-2.74L248.09,789.375z
		 M247.99,796.676v1.222h5.881l0.02-1.222H247.99z M248.01,799.316v1.36h5.881l-0.02-1.36H248.01z M254.972,792.775v-3.642h-3.341
		v3.642H254.972z M254.711,789.734c-0.44,1.101-0.9,2.061-1.68,3.021l-1.28-0.681c0.72-0.86,1.38-2.102,1.72-2.921L254.711,789.734z
		"/>
	<path fill="#FFFFFF" d="M276.232,802.178c-5.521-2.061-7.762-4.661-8.802-7.922h-2.461v6.541l3.901-1.641v1.501l-4.761,2.221
		l-0.9-1.341c0.2-0.18,0.24-0.58,0.24-0.859v-6.422h-4.141v-1.461h4.341v-7.461h1.521v5.682c2.38-1.061,5.021-2.461,7.282-4.32
		l1.04,1.14c-2.5,1.98-5.321,3.521-8.322,4.642v0.319h11.143v1.461h-7.402c1.081,3.461,4.921,5.603,8.342,6.582L276.232,802.178z"/>
	<path fill="#FFFFFF" d="M290.95,791.516c-0.18-0.939-0.9-1.739-1.88-1.739c-2.061,0-2.601,2.699-2.681,4.26l0.04,0.041
		c0.78-1.102,1.8-1.562,3.161-1.562c1.2,0,2.42,0.562,3.221,1.439c0.74,0.861,1.08,2.021,1.08,3.121c0,2.861-1.98,5.121-4.901,5.121
		c-4.241,0-5.381-3.701-5.381-7.241c0-3.421,1.521-7.321,5.501-7.321c2.42,0,4.221,1.42,4.541,3.881H290.95z M286.649,797.256
		c0,1.301,0.84,2.603,2.26,2.603c1.36,0,2.141-1.302,2.141-2.562c0-1.32-0.68-2.641-2.141-2.641
		C287.389,794.656,286.649,795.876,286.649,797.256z"/>
	<path fill="#FFFFFF" d="M304.31,790.255h-5.78l-0.561,3.181l0.04,0.04c0.76-0.779,1.642-1.079,2.741-1.079
		c2.761,0,4.321,2.141,4.321,4.761c0,2.881-2.38,5.102-5.201,5.041c-2.72,0-5.161-1.5-5.201-4.44h2.841
		c0.141,1.24,1.061,2.102,2.3,2.102c1.48,0,2.422-1.302,2.422-2.701c0-1.46-0.9-2.62-2.422-2.62c-1.02,0-1.579,0.36-2.14,1.12
		h-2.561l1.38-7.742h7.82V790.255L304.31,790.255z"/>
	<path fill="#FFFFFF" d="M310.329,787.635c2.479,0,3.281,1.84,3.281,4.041c0,2.181-1.04,3.76-3.38,3.76
		c-2.462,0-3.302-1.64-3.302-3.84C306.929,789.415,307.989,787.635,310.329,787.635z M310.249,793.936
		c1.241,0,1.32-1.438,1.32-2.279c0-0.78-0.061-2.521-1.24-2.521c-1.28,0-1.36,1.58-1.36,2.5
		C308.969,792.496,308.969,793.936,310.249,793.936z M318.791,787.475h1.7l-8.242,14.884h-1.74L318.791,787.475z M320.651,794.396
		c2.479,0,3.28,1.739,3.28,3.939c0,2.181-1.04,3.86-3.381,3.86c-2.46,0-3.3-1.74-3.3-3.94
		C317.251,796.076,318.311,794.396,320.651,794.396z M320.571,800.697c1.239,0,1.319-1.562,1.319-2.4c0-0.78-0.06-2.4-1.239-2.4
		c-1.28,0-1.36,1.461-1.36,2.382C319.291,799.137,319.291,800.697,320.571,800.697z"/>
</g>
</svg>
