<?xml version="1.0" encoding="utf-8"?>
<!-- Generator: Adobe Illustrator 16.0.0, SVG Export Plug-In . SVG Version: 6.00 Build 0)  -->
<!DOCTYPE svg PUBLIC "-//W3C//DTD SVG 1.1//EN" "http://www.w3.org/Graphics/SVG/1.1/DTD/svg11.dtd">
<svg version="1.1" id="Layer_1" xmlns="http://www.w3.org/2000/svg" xmlns:xlink="http://www.w3.org/1999/xlink" x="0px" y="0px"
	 width="768px" height="1024px" viewBox="0 0 768 1024" enable-background="new 0 0 768 1024" xml:space="preserve">
<g>
	<path fill="#FFFFFF" d="M490.65,770.096c2.101-2.221,3.721-5.881,4.582-8.642l1.459,0.521c-0.439,1.381-0.92,2.761-1.5,3.961
		v13.384h-1.5v-10.684c-0.222,0.399-0.882,1.399-1.7,2.36L490.65,770.096z M500.854,761.134c0.96,0.561,1.961,1.581,2.62,2.581
		l-0.439,0.5h5.741v1.439l-12.743-0.021v-1.399l6.021-0.021c-0.358-0.601-1.278-1.44-2.301-2.101L500.854,761.134z M497.133,768.655
		v-1.44h10.103v1.44H497.133z M497.133,771.557v-1.44l10.121-0.021l-0.02,1.461H497.133z M498.813,779.277h-1.42l-0.021-6.142h9.582
		v6.103l-1.421,0.02l0.021-1.16h-6.722L498.813,779.277z M498.832,776.838l6.722-0.041v-2.359h-6.761L498.832,776.838z"/>
	<path fill="#FFFFFF" d="M527.274,762.154v14.981c0,0.58-0.46,1.501-1.24,1.621l-2.28,0.04l-0.479-1.561
		c0.819,0.04,1.521,0.101,2.12,0.021c0.22-0.021,0.319-0.181,0.319-0.42v-4.281h-4.36v4.762h-1.561v-4.762h-4.381
		c-0.28,2.58-0.701,4.222-2.921,6.821l-1.28-0.96c0.82-1,1.42-1.82,1.86-2.801c0.601-1.36,0.859-3.021,0.859-4.562v-8.901
		L527.274,762.154L527.274,762.154z M515.492,763.635v2.9h4.301v-2.9H515.492z M515.492,771.076h4.301v-3.081h-4.301V771.076z
		 M521.373,766.535l4.301-0.021v-2.881h-4.32L521.373,766.535z M521.373,767.995l-0.021,3.081h4.302l0.02-3.081H521.373z"/>
	<path fill="#FFFFFF" d="M548.354,770.256l-8.682,0.021v9.002h-1.54v-9.002l-6.781-0.021v-1.439h6.781v-7.463l1.54,0.021l0.021,2.98
		h7.221v1.46h-7.221l-0.021,2.979l8.682,0.021V770.256z M545.454,775.357c-1.36-1.201-3.181-2.501-5.161-2.861l0.98-1.28
		c1.938,0.64,3.619,1.602,5.221,3.041L545.454,775.357z"/>
	<path fill="#FFFFFF" d="M559.633,777.018c1.62,0.08,3.301,0.16,4.961,0.061l4.262-0.239l-0.602,1.64h-8.141
		c-3.661,0-4.521-1.021-5.521-2.08c-0.979,0.721-1.939,1.641-3.021,2.58l-1.141-1.199c1.24-0.9,2.36-1.84,3.381-2.682v-6.201h-2.681
		v-1.38h4.16v7.562c0.521,0.561,1.161,1.041,1.842,1.381l-0.381-0.84c1.561-0.42,3.141-1.381,3.101-4.562h-1.54v-1.341
		c-0.479,0.239-1.061,0.44-1.561,0.602l-1.2-1.281c1.96-0.479,3.661-1.359,4.563-2.54h-3.361v-1.46h4.821v-1.221
		c-1.142,0.039-2.602,0.119-4.182,0.199l-0.701-1.439c3.582-0.04,6.843-0.26,9.884-1.28l0.88,1.12c-1.7,0.68-2.98,0.979-4.341,1.18
		v1.421h4.801v1.46h-3.34c0.778,1.302,2.479,2.041,4.319,2.562l-1,1.301c-2.041-0.641-4.24-1.979-4.762-3.341l-0.039,2.601h2.66
		l-0.66,2.24h2.301c-0.199,1.5-0.5,3.001-1.181,4.041c-0.44,0.66-1.181,0.881-2.261,0.62l-1.699-0.399l-0.16-1.561
		c0.939,0.34,1.641,0.539,2.42,0.64c0.359,0.04,0.5-0.101,0.66-0.318c0.301-0.562,0.359-1.081,0.48-1.581h-2.521l0.66-2.22h-2.6
		c0,3.26-1.08,4.68-3.201,5.7C558.572,776.957,558.973,776.957,559.633,777.018z M554.012,765.975c-0.541-1.18-1.5-2.619-2.641-3.58
		l1.12-0.819c1.2,0.96,2.24,2.42,2.819,3.541L554.012,765.975z M561.573,766.995c-0.44,0.96-1.7,1.96-3.063,2.561l3.063,0.04
		V766.995z"/>
	<path fill="#FFFFFF" d="M571.371,777.817c2.74-0.479,5.581-1.842,7.4-2.86c-1.601-1.26-2.859-2.941-3.859-4.661h-1.341l-0.021-1.46
		l5.662,0.021v-2.82h-7.342v-1.44l7.321,0.021v-3.301h1.601l0.04,3.279h7.321v1.46h-7.361l0.04,2.781h5.021v1.34
		c-0.52,1.062-2.739,3.781-4.461,4.843c2.021,1.318,4.481,2.239,7.322,2.739l-0.68,1.46c-2.041-0.3-6.342-1.96-7.902-3.32
		c-2.521,1.44-5.081,2.682-7.981,3.32L571.371,777.817z M576.611,770.296c0.761,1.341,1.961,2.581,3.461,3.78
		c1.061-0.58,3.081-2.521,3.922-3.78H576.611z"/>
	<path fill="#FFFFFF" d="M599.473,761.314h1.5v6.899h5.781v10.902h-1.438v-1.141h-13.044v-1.359h13.044v-2.961h-11.925v-1.38h11.903
		v-2.7h-12.883v-1.361h7.062V761.314z M593.731,762.414c1.761,1.32,3.261,2.82,4.439,4.262l-1.358,1.021
		c-1.121-1.602-2.683-3.182-4.161-4.261L593.731,762.414z M607.375,763.174c-1.102,1.761-2.321,3.201-3.781,4.481l-1.319-1.08
		c1.561-1.2,2.779-2.62,3.819-4.201L607.375,763.174z"/>
	<path fill="#FFFFFF" d="M612.751,762.395c5.682,0.221,10.923-0.301,13.163-1.239l0.939,1.278c-2.119,0.682-4.2,1.041-6.16,1.222
		l0.02,1.381l7.121-0.021v1.48l-5.381-0.021c1.4,1.281,4.479,3.001,6.541,3.121l-0.779,1.4c-3.161-0.801-5.422-2-7.521-4.183v3.142
		h-1.541v-3.18c-1.82,2.04-4.58,3.561-7.521,4.421l-0.819-1.32c2.561-0.74,4.82-1.86,6.4-3.401h-5.221v-1.46l7.161,0.021v-1.221
		c-1.7,0.141-3.66,0.18-5.683,0.141L612.751,762.395z M620.934,777.717c0,0.602-0.44,1.301-1.001,1.381
		c-0.939,0.24-1.899,0.101-2.96,0.16c-0.181-0.54-0.319-1-0.541-1.621l2.48,0.102c0.32,0.021,0.479-0.239,0.479-0.479v-2.061h-7.981
		v-1.44h8.002l-0.021-0.96c1.101-0.399,2.041-0.841,2.521-1.141l-7.321-0.04l-0.02-1.46l10.082,0.02l0.02,1.28
		c-1.18,0.98-2.521,1.761-3.761,2.261l7.501,0.04l0.021,1.44h-7.501V777.717L620.934,777.717z"/>
	<path fill="#FFFFFF" d="M634.771,773.336c-0.841,1.721-1.78,2.961-3.382,3.881l-0.899-1.18c1.58-0.881,2.541-2.041,3.201-3.521
		L634.771,773.336z M636.712,777.797c0,0.781-0.601,1.641-1.521,1.641h-1.62l-0.521-1.6l1.602,0.119
		c0.199,0.021,0.501-0.22,0.501-0.479v-5.441h-3.222v-1.46h3.222v-1.42h-3.922v-1.48h2.881c-0.142-0.58-0.62-1.319-1.54-2.021
		l1.319-0.539c0.841,0.66,1.44,1.561,1.721,2.561h0.841c0.66-0.66,1.16-1.66,1.398-2.521l1.342,0.541
		c-0.221,0.699-0.682,1.52-1.12,1.979h2.381v1.48h-3.741v1.42h3.181v1.46h-3.181v1.421l0.58-0.74c0.94,0.58,1.841,1.521,2.501,2.642
		l-1.021,1.159c-0.5-1.2-1.399-2.061-2.061-2.561L636.712,777.797L636.712,777.797z M635.012,763.334c-0.18-0.32-0.6-0.88-1.26-1.54
		l1.46-0.681c0.64,0.761,1.181,1.521,1.42,2.221h3.381v1.461h-8.281v-1.461H635.012z M648.015,762.594
		c-1.801,1.041-3.642,1.541-5.421,1.861v2.86h5.74v1.46h-2.24v10.422h-1.54v-10.422h-1.96v2.58c0,2.66-0.881,5.401-2.421,7.781
		l-1.36-0.96c1.841-2.521,2.24-5.241,2.24-8.342l-0.02-6.602c2.221-0.261,4.141-0.86,6.021-1.882L648.015,762.594z"/>
	<path fill="#FFFFFF" d="M655.291,773.116c0.361-0.141,1.041-0.34,1.801-0.62l0.041,1.521c-1.781,0.641-3.44,1.221-5.222,1.881
		l-1.062-1.359c1.182-0.28,2.102-0.562,2.901-0.84v-5.482l-2.262-0.02l0.021-1.42h2.241v-4.923h1.521v4.923h1.521v1.438h-1.501
		V773.116L655.291,773.116z M656.973,770.236v-6.502h2.96c-0.3-0.48-1.079-1.142-1.921-1.86l1.541-0.601
		c0.9,0.761,1.58,1.641,2.08,2.44l1.801,0.021c0.761-0.74,1.302-1.66,1.74-2.802c0.562,0.222,0.94,0.5,1.42,0.78
		c-0.459,0.86-0.92,1.602-1.3,1.98h2.82v6.542L656.973,770.236L656.973,770.236z M659.652,779.277h-1.54v-8.002l8.882-0.021v8.002
		l-1.5-0.02l0.02-1.142l-5.881,0.021L659.652,779.277z M661.793,768.815v-3.661l-3.301-0.021v3.682H661.793z M659.713,765.375
		c0.84,0.8,1.28,1.721,1.78,2.721c-0.479,0.221-0.841,0.42-1.38,0.619c-0.281-1.08-0.881-1.84-1.581-2.74L659.713,765.375z
		 M659.613,772.676v1.222h5.881l0.02-1.222H659.613z M659.633,775.316v1.36h5.881l-0.02-1.36H659.633z M666.594,768.775v-3.642
		h-3.34v3.642H666.594z M666.334,765.734c-0.439,1.101-0.9,2.061-1.68,3.021l-1.281-0.681c0.721-0.86,1.381-2.102,1.721-2.921
		L666.334,765.734z"/>
	<path fill="#FFFFFF" d="M500.693,794.396h1.5v6.421h6.041v1.42h-17.363v-1.42h6.061v-6.421h1.501v6.399h2.262L500.693,794.396
		L500.693,794.396z M492.871,794.816c1.4,1.479,2.66,2.899,3.261,4.819l-1.399,0.78c-0.7-1.96-1.66-3.501-3.04-4.78L492.871,794.816
		z M494.252,793.535v-7.281h10.762v7.281H494.252z M503.514,787.694h-7.741v1.359h7.762L503.514,787.694z M503.494,792.055v-1.56
		h-7.723v1.56H503.494z M502.613,799.557c1.739-1.68,2.66-3.5,3.141-4.78l1.24,0.601c-0.66,2.021-1.54,3.401-3.021,4.981
		L502.613,799.557z"/>
	<path fill="#FFFFFF" d="M521.913,794.516c-0.7,0.381-1.38,0.761-2.101,1.041h5.62l-0.02,7.642l-1.562-0.021v-1.12h-7.422v1.16
		h-1.54v-5.841c-0.841,0.22-2.22,0.58-3.381,0.8c-0.28-0.42-0.479-0.74-0.84-1.28c3.101-0.6,6.563-1.84,8.001-2.359l-7.4-0.021
		l-0.021-1.399h7.081v-1.24h-5.181l-0.021-1.4h5.201v-1.62h1.58v1.642h3.801v1.2c0.861-0.62,1.861-1.461,2.581-2.222l1.101,0.961
		c-1.2,1.101-2.021,1.82-3.319,2.681h4.561v1.399L521.913,794.516L521.913,794.516z M524.154,788.494v1.621h-1.562v-1.621h-5.642
		v1.641h-1.562v-1.641h-4.12l-0.021-1.46h4.12v-1.58l1.581,0.021v1.561h5.621v-1.641h1.581v1.641h4.119v1.46L524.154,788.494
		L524.154,788.494z M523.854,796.957h-7.422v1.16h7.422V796.957z M523.854,799.497h-7.422v1.181h7.422V799.497z M519.912,791.875
		v1.221l1.581-0.02c0.479-0.261,1.56-0.9,2.021-1.201H519.912z"/>
	<path fill="#FFFFFF" d="M539.053,797.496l-0.58-0.74c0.939-0.42,1.2-1.18,1.2-1.979h-1.081v-2.199h2.201v2.1
		C540.793,795.355,540.553,796.797,539.053,797.496z"/>
	<path fill="#FFFFFF" d="M551.711,793.736c0.84-1.461,1.28-2.701,1.621-4.162h-2.281v-1.439h2.602
		c0.181-0.68,0.279-1.601,0.398-2.681l1.421,0.42c-0.04,0.921-0.22,1.681-0.34,2.261h2.661v1.439h-2.981
		c-0.359,1.741-0.979,3.201-1.46,4.201h1.5v-2.601h1.521v2.601h1.8v1.439h-1.8v1.801l2.74-0.739v1.5l-2.74,0.739v4.781h-1.521
		v-4.461l-3.159,0.78l-0.802-1.301c1.602-0.381,2.9-0.641,3.961-0.939v-2.161h-3.141V793.736L551.711,793.736z M556.552,801.877
		c2.28-0.76,4.063-1.779,5.441-3.5c-0.9-1.36-1.562-2.781-1.921-4.641l1.421-0.541c0.3,1.641,0.818,2.721,1.46,3.762
		c0.621-1.041,1.121-2.241,1.439-3.941l1.381,0.66c-0.16,1.26-1,3.262-1.881,4.701c1.262,1.54,2.9,2.62,4.882,3.561l-1.102,1.28
		c-1.858-0.899-3.561-2.2-4.74-3.601c-1.461,1.6-3.161,2.82-5.342,3.601L556.552,801.877z M557.692,793.035
		c1.3-0.641,2.581-1.939,3.279-3.521l1.201,0.721c-0.74,1.801-1.561,2.801-3.36,4.002L557.692,793.035z M562.533,787.875
		c-0.58-0.701-1.44-1.381-2.34-1.74l1.119-0.921c1,0.44,1.819,1.021,2.74,2.021l-0.681,0.641h4.781v1.46h-10.002v-1.46
		L562.533,787.875L562.533,787.875z M567.114,794.256c-0.921-1.541-2.04-2.801-3.321-3.781l1.061-0.8
		c1.541,0.96,2.802,2.32,3.462,3.642L567.114,794.256z"/>
	<path fill="#FFFFFF" d="M571.331,789.515v-1.46h4.881c-0.399-0.68-0.9-1.479-2.04-2.181l1.48-0.841
		c0.5,0.281,0.879,0.781,1.18,1.081c0.5,0.601,0.939,1.341,1.301,1.939h3.142c0.858-0.881,1.399-1.819,1.92-3.141l1.439,0.779
		c-0.46,1.021-1.021,1.841-1.479,2.36h5.142v1.46h-16.965V789.515z M573.092,802.638v-11.583h6.761v10.104
		c0,0.66-0.398,1.24-0.979,1.479c-0.74,0.3-1.641,0.12-2.501,0.141l-0.5-1.46l2.04,0.06c0.141-0.02,0.381-0.1,0.381-0.38v-2.32
		h-3.642v3.961L573.092,802.638L573.092,802.638z M574.651,792.535v1.58h3.642v-1.58H574.651z M574.651,797.236h3.642v-1.74h-3.642
		V797.236z M581.652,791.676h1.541v7.861h-1.541V791.676z M586.594,790.355v11.161c0,0.58-0.52,1.261-1.08,1.46
		c-0.72,0.24-1.58,0.102-2.479,0.141l-0.48-1.48c0.861,0.021,1.461-0.039,2.062-0.059c0.181-0.062,0.399-0.261,0.399-0.541v-10.682
		H586.594z"/>
	<path fill="#FFFFFF" d="M608.015,799.736v1.561h-16.224l-0.02-1.561H608.015z M592.871,787.654l13.981,0.02v1.562l-14.002,0.021
		L592.871,787.654z M605.693,793.455v1.561l-11.702,0.021v-1.581L605.693,793.455L605.693,793.455z"/>
	<path fill="#FFFFFF" d="M612.751,786.395c5.682,0.221,10.923-0.301,13.163-1.239l0.939,1.278c-2.119,0.682-4.2,1.041-6.16,1.222
		l0.02,1.381l7.121-0.021v1.48l-5.381-0.021c1.4,1.281,4.479,3.001,6.541,3.121l-0.779,1.4c-3.161-0.801-5.422-2-7.521-4.183v3.142
		h-1.541v-3.18c-1.82,2.04-4.58,3.561-7.521,4.421l-0.819-1.32c2.561-0.74,4.82-1.86,6.4-3.401h-5.221v-1.46l7.161,0.021v-1.221
		c-1.7,0.141-3.66,0.18-5.683,0.141L612.751,786.395z M620.934,801.717c0,0.602-0.44,1.301-1.001,1.381
		c-0.939,0.24-1.899,0.101-2.96,0.16c-0.181-0.54-0.319-1-0.541-1.621l2.48,0.102c0.32,0.021,0.479-0.239,0.479-0.479v-2.061h-7.981
		v-1.44h8.002l-0.021-0.96c1.101-0.399,2.041-0.841,2.521-1.141l-7.321-0.04l-0.02-1.46l10.082,0.02l0.02,1.28
		c-1.18,0.98-2.521,1.761-3.761,2.261l7.501,0.04l0.021,1.44h-7.501V801.717L620.934,801.717z"/>
	<path fill="#FFFFFF" d="M634.092,795.036c0,2.74-0.16,5.921-2.08,8.342l-1.281-1.001c0.9-1.32,1.462-2.52,1.621-3.939
		c0.119-1.182,0.181-2.4,0.181-3.62v-7.361h7.28c-0.26-0.381-0.6-0.701-1.619-1.341l1.479-0.82c0.601,0.602,1.64,1.602,1.979,2.161
		h6.621l0.021,1.42h-14.184L634.092,795.036z M645.934,797.297c-0.698,1.18-2.68,2.68-3.479,3.141
		c0.479,0.221,1.28,0.461,2.08,0.641c1.341,0.32,2.682,0.54,4.281,0.66c-0.24,0.62-0.562,0.96-0.82,1.421
		c-2.562-0.36-5.021-0.82-7.141-1.861c-0.58,0.24-1.182,0.521-1.82,0.761c-1.461,0.561-3.103,0.94-4.822,1.141
		c-0.34-0.439-0.6-0.82-1.06-1.4c2.46-0.199,4.461-0.8,6.142-1.4c-0.979-0.698-2.102-1.84-2.881-3.02h-1.521v-1.421l11.082,0.04
		L645.934,797.297z M644.613,794.956h-7.541l0.02-2.741h-2.68v-1.38l2.66-0.021v-1.539h1.58v1.539h4.399v-1.561h1.562v1.561h3.262
		v1.421h-3.262V794.956z M638.252,797.377c1,1.119,1.58,1.641,2.602,2.3c1.221-0.659,2.359-1.359,3.24-2.28L638.252,797.377z
		 M638.713,793.576l4.32-0.021l0.02-1.319h-4.381L638.713,793.576z"/>
	<path fill="#FFFFFF" d="M658.973,803.318v-7.263h-7.741v-1.461h7.741v-6.961h-6.48v-1.461h14.361v1.461h-6.36v6.961h7.723v1.461
		h-7.723v7.263H658.973z M654.271,788.215c1.641,1.46,2.641,3.16,3.44,5.102l-1.4,0.761c-0.7-1.98-1.66-3.762-3.521-5.143
		L654.271,788.215z M661.373,793.156c1.641-1.501,2.92-3.081,3.5-5.063l1.32,0.7c-0.66,2.021-1.9,3.641-3.46,5.24L661.373,793.156z"
		/>
	<path fill="#FFFFFF" d="M497.473,815.936c1.46-1.819,2.439-4.721,2.601-6.642l1.44,0.34c-0.101,0.78-0.221,1.4-0.341,1.821h6.762
		c-0.06,5.92-0.159,12.822-1.421,14.683c-1.119,1.66-3.319,0.86-4.899,0.74l-0.5-1.741c1.239,0.261,2.221,0.5,3.279,0.521
		c0.4,0.021,0.74-0.181,0.9-0.521c0.92-2.779,1.04-6.961,1.181-12.223h-5.722c-0.54,1.521-1.3,3.241-2.7,4.642l-1.501-0.7
		c0.261-0.26,0.48-0.46,0.7-0.721h-1.68v5.082c0.58-0.26,1.54-0.621,2.54-1.021v1.579l-5.602,2.44l-1.399-1.1
		c1.14-0.42,2.141-0.82,2.938-1.142v-5.842h-2.52v-1.438h2.5v-4.281h1.541v4.281h1.899v1.241H497.473z M499.152,823.297l-1.101-1.26
		c1.54-0.44,5.642-2.041,7.281-2.781v1.541L499.152,823.297z M503.633,818.556c-0.64-1.021-2.06-2.46-3.2-3.081l1.12-1
		c1.301,0.762,2.66,1.961,3.381,3.062L503.633,818.556z"/>
	<path fill="#FFFFFF" d="M515.291,821.116c0.361-0.141,1.041-0.34,1.801-0.62l0.041,1.521c-1.781,0.641-3.44,1.221-5.222,1.881
		l-1.062-1.359c1.182-0.28,2.102-0.562,2.901-0.84v-5.482l-2.262-0.02l0.021-1.42h2.241v-4.923h1.521v4.923h1.521v1.438h-1.501
		V821.116L515.291,821.116z M516.973,818.236v-6.502h2.96c-0.3-0.48-1.079-1.142-1.921-1.86l1.541-0.601
		c0.9,0.761,1.58,1.641,2.08,2.44l1.801,0.021c0.761-0.74,1.302-1.66,1.74-2.802c0.562,0.222,0.94,0.5,1.42,0.78
		c-0.459,0.86-0.92,1.602-1.3,1.98h2.82v6.542L516.973,818.236L516.973,818.236z M519.652,827.277h-1.54v-8.002l8.882-0.021v8.002
		l-1.5-0.02l0.02-1.142l-5.881,0.021L519.652,827.277z M521.793,816.815v-3.661l-3.301-0.021v3.682H521.793z M519.713,813.375
		c0.84,0.8,1.28,1.721,1.78,2.721c-0.479,0.221-0.841,0.42-1.38,0.619c-0.281-1.08-0.881-1.84-1.581-2.74L519.713,813.375z
		 M519.613,820.676v1.222h5.881l0.02-1.222H519.613z M519.633,823.316v1.36h5.881l-0.02-1.36H519.633z M526.594,816.775v-3.642
		h-3.34v3.642H526.594z M526.334,813.734c-0.439,1.101-0.9,2.061-1.68,3.021l-1.281-0.681c0.721-0.86,1.381-2.102,1.721-2.921
		L526.334,813.734z"/>
	<path fill="#FFFFFF" d="M547.854,826.178c-5.521-2.061-7.762-4.661-8.802-7.922h-2.461v6.541l3.9-1.641v1.501l-4.76,2.221
		l-0.9-1.341c0.199-0.18,0.24-0.58,0.24-0.859v-6.422h-4.143v-1.461h4.341v-7.461h1.521v5.682c2.38-1.061,5.021-2.461,7.282-4.32
		l1.039,1.14c-2.5,1.98-5.32,3.521-8.321,4.642v0.319h11.143v1.461h-7.4c1.08,3.461,4.921,5.603,8.342,6.582L547.854,826.178z"/>
	<path fill="#FFFFFF" d="M556.052,822.677h-5.921v-2.601l6.081-8.162h2.54v8.422h1.861v2.341h-1.861v3.241h-2.7V822.677
		L556.052,822.677z M556.052,815.475h-0.06l-3.621,4.861h3.681V815.475L556.052,815.475z"/>
	<path fill="#FFFFFF" d="M564.291,822.316c0.18,0.939,0.9,1.739,1.881,1.739c2.062,0,2.602-2.7,2.682-4.26l-0.04-0.041
		c-0.78,1.101-1.802,1.562-3.16,1.562c-1.201,0-2.422-0.562-3.222-1.44c-0.739-0.86-1.08-2.021-1.08-3.12
		c0-2.861,1.979-5.121,4.9-5.121c4.24,0,5.381,3.701,5.381,7.241c0,3.421-1.52,7.321-5.501,7.321c-2.421,0-4.222-1.42-4.541-3.881
		H564.291z M568.592,816.576c0-1.301-0.84-2.603-2.26-2.603c-1.36,0-2.141,1.302-2.141,2.562c0,1.32,0.68,2.641,2.141,2.641
		C567.852,819.176,568.592,817.955,568.592,816.576z"/>
	<path fill="#FFFFFF" d="M576.951,811.635c2.479,0,3.281,1.84,3.281,4.041c0,2.181-1.041,3.76-3.382,3.76
		c-2.461,0-3.301-1.64-3.301-3.84C573.551,813.415,574.611,811.635,576.951,811.635z M576.871,817.936c1.24,0,1.32-1.438,1.32-2.279
		c0-0.78-0.062-2.521-1.24-2.521c-1.28,0-1.36,1.58-1.36,2.5C575.591,816.496,575.591,817.936,576.871,817.936z M585.413,811.475
		h1.7l-8.242,14.884h-1.74L585.413,811.475z M587.273,818.396c2.479,0,3.28,1.739,3.28,3.939c0,2.181-1.041,3.86-3.381,3.86
		c-2.461,0-3.301-1.74-3.301-3.94C583.873,820.076,584.934,818.396,587.273,818.396z M587.193,824.697
		c1.239,0,1.319-1.562,1.319-2.4c0-0.78-0.061-2.4-1.239-2.4c-1.28,0-1.36,1.461-1.36,2.382
		C585.913,823.137,585.913,824.697,587.193,824.697z"/>
</g>
<g>
	<path fill="#58B5E1" d="M585.152,729.208h-4.972v-15.892h-6.159v-3.745c3.465,0.068,6.649-1.12,7.176-4.866h3.955V729.208
		L585.152,729.208z"/>
	<path fill="#58B5E1" d="M600.588,704.216c4.9,0,9.029,3.08,9.029,12.636c0,9.768-4.129,12.848-9.029,12.848
		c-4.832,0-8.961-3.08-8.961-12.848C591.627,707.296,595.756,704.216,600.588,704.216z M600.588,725.604
		c4.062,0,4.062-5.985,4.062-8.752c0-2.555,0-8.541-4.062-8.541c-3.99,0-3.99,5.986-3.99,8.541
		C596.598,719.617,596.598,725.604,600.588,725.604z"/>
	<path fill="#58B5E1" d="M620.117,704.216c6.09,0,8.19,4.2,8.19,6.58c0,2.415-1.262,4.376-3.569,5.146v0.069
		c2.903,0.665,4.584,2.905,4.584,5.985c0,5.146-4.619,7.701-9.17,7.701c-4.728,0-9.312-2.381-9.312-7.666
		c0-3.115,1.75-5.32,4.619-6.021v-0.069c-2.379-0.665-3.604-2.625-3.604-5.04C611.855,706.49,616.127,704.216,620.117,704.216z
		 M620.152,725.953c2.381,0,4.2-1.682,4.2-4.131c0-2.347-1.891-3.921-4.2-3.921c-2.416,0-4.341,1.364-4.341,3.886
		C615.812,724.308,617.771,725.953,620.152,725.953z M620.117,714.576c2.029,0,3.676-1.12,3.676-3.22
		c0-1.262-0.596-3.396-3.676-3.396c-1.996,0-3.746,1.225-3.746,3.396C616.371,713.491,618.121,714.576,620.117,714.576z"/>
	<path fill="#58B5E1" d="M634.992,719.126v11.362h-1.5v-8.803c-0.601,1-1.221,1.58-2.021,2.28l-0.979-1.2
		c2.281-2.04,3.502-4.521,4.262-7.16c0.221-0.78,0.461-1.722,0.68-2.981l1.302,0.561
		C636.393,715.385,635.771,717.325,634.992,719.126z M646.875,729.428h-9.182c-0.261,0-0.781-0.26-1.103-0.74
		c-0.358-0.579-0.52-1.479-0.18-2.079c2.361-3.222,6.422-8.401,8.602-10.822h-7.721v-1.46h9.982l-0.041,1.42
		c-3.341,3.561-6.382,7.502-9.041,11.021c-0.16,0.28-0.4,0.521-0.32,0.84c0.02,0.182,0.279,0.28,0.42,0.36h8.041
		c0.24,0,0.42-0.16,0.541-0.34c0.18-0.46,0.18-1.04,0.299-1.82l1.502,0.66C648.275,728.308,647.936,729.428,646.875,729.428z"/>
	<path fill="#58B5E1" d="M662.814,727.268c0,0.562,0.399,0.801,0.76,0.801h2.358c0.58,0,0.781-1.4,1.121-3l1.541,0.5
		c-0.159,0.979-0.381,1.88-0.7,2.659c-0.3,0.722-1.039,1.382-1.82,1.382h-2.801c-1.66,0-2.062-1.461-2.062-2.562v-6.722
		l-2.539-0.021c0.06,5.821-2.701,8.264-6.242,10.242l-1.1-1.52c3.521-1.842,5.74-3.821,5.721-8.724h-4.582v-1.52l15.064,0.02v1.521
		l-4.721-0.021L662.814,727.268L662.814,727.268z M654.172,713.864h11.703v1.521h-11.703V713.864z"/>
</g>
</svg>
