<?xml version="1.0" encoding="utf-8"?>
<!-- Generator: Adobe Illustrator 16.0.0, SVG Export Plug-In . SVG Version: 6.00 Build 0)  -->
<!DOCTYPE svg PUBLIC "-//W3C//DTD SVG 1.1//EN" "http://www.w3.org/Graphics/SVG/1.1/DTD/svg11.dtd">
<svg version="1.1" id="Layer_1" xmlns="http://www.w3.org/2000/svg" xmlns:xlink="http://www.w3.org/1999/xlink" x="0px" y="0px"
	 width="768px" height="1024px" viewBox="0 0 768 1024" enable-background="new 0 0 768 1024" xml:space="preserve">
<g>
	<path fill="#FFFFFF" d="M403.998,694.063c-38.203,0-38.203,0-38.203,0c-4.375,0-7.942-3.606-7.942-7.981
		c0-38.316,0-38.316,0-38.316c0-4.395,3.567-7.982,7.942-7.982c6.371,0,6.371,0,6.371,0c0.806,0,1.591,0.807,1.591,1.595
		c0,1.207-0.785,1.61-1.591,1.61c-6.371,0-6.371,0-6.371,0c-2.782,0-4.757,2.379-4.757,4.777c0,38.316,0,38.316,0,38.316
		c0,2.782,1.975,4.779,4.757,4.779c38.203,0,38.203,0,38.203,0c2.379,0,4.757-1.997,4.757-4.779c0-38.316,0-38.316,0-38.316
		c0-2.398-1.974-4.777-3.969-4.777c-5.565,0-5.565,0-5.565,0c-1.188,0-1.594-0.403-1.594-1.61c0-0.788,0.404-1.595,1.594-1.595
		c5.565,0,5.565,0,5.565,0c3.969,0,7.155,3.589,7.155,7.982c0,38.316,0,38.316,0,38.316
		C411.941,690.456,408.374,694.063,403.998,694.063z"/>
	<path fill="#FFFFFF" d="M394.021,642.986c-17.059,0-17.059,0-17.059,0c-0.787,0-1.593-0.403-1.593-1.592
		c0-0.808,0.806-1.613,1.593-1.613c17.059,0,17.059,0,17.059,0c0.785,0,1.574,0.807,1.574,1.613
		C395.596,642.583,394.807,642.986,394.021,642.986z"/>
	<path fill="#FFFFFF" d="M410.349,656.648c-50.902,0-50.902,0-50.902,0c-1.21,0-1.594-0.808-1.594-1.612
		c0-0.808,0.383-1.593,1.594-1.593c50.902,0,50.902,0,50.902,0c0.807,0,1.594,0.784,1.594,1.593
		C411.941,655.842,411.154,656.648,410.349,656.648z"/>
	<path fill="#FFFFFF" d="M373.72,639.091c0,4.759,0,4.759,0,4.759c1.612,0,1.612,0,1.612,0c0-4.759,0-4.759,0-4.759H373.72z
		 M375.332,643.85c0,1.595,0,1.595,0,1.595C375.332,643.85,375.332,643.85,375.332,643.85L375.332,643.85z M375.332,647.033
		c-1.612,0-1.612,0-1.612,0c-2.014,0-3.242-1.188-3.242-3.185c0-4.759,0-4.759,0-4.759c0-1.593,1.229-3.186,3.242-3.186
		c1.612,0,1.612,0,1.612,0c2.034,0,3.243,1.593,3.243,3.186c0,4.759,0,4.759,0,4.759
		C378.575,645.846,377.366,647.033,375.332,647.033z"/>
	<path fill="#FFFFFF" d="M395.613,639.091c0,4.759,0,4.759,0,4.759c1.995,0,1.995,0,1.995,0c0-4.759,0-4.759,0-4.759H395.613z
		 M397.608,643.85c0,1.595,0,1.595,0,1.595C397.608,643.85,397.608,643.85,397.608,643.85L397.608,643.85z M397.608,647.033
		c-1.995,0-1.995,0-1.995,0c-1.61,0-3.224-1.188-3.224-3.185c0-4.759,0-4.759,0-4.759c0-1.593,1.612-3.186,3.224-3.186
		c1.995,0,1.995,0,1.995,0c1.611,0,3.224,1.593,3.224,3.186c0,4.759,0,4.759,0,4.759
		C400.832,645.846,399.221,647.033,397.608,647.033z"/>
	<rect x="381.607" y="662.204" fill="#FFFFFF" width="6.066" height="3.537"/>
	<path fill="#FFFFFF" d="M383.258,664.169c2.762,0,2.762,0,2.762,0c0-0.402,0-0.402,0-0.402c-2.762,0-2.762,0-2.762,0V664.169z
		 M387.612,667.432c-5.93,0-5.93,0-5.93,0c-0.805,0-1.593-0.826-1.593-1.632c0-3.665,0-3.665,0-3.665c0-1.209,0.788-1.61,1.593-1.61
		c5.93,0,5.93,0,5.93,0c1.189,0,1.573,0.401,1.573,1.61c0,3.665,0,3.665,0,3.665C389.188,666.604,388.803,667.432,387.612,667.432z"
		/>
	<rect x="396.112" y="662.204" fill="#FFFFFF" width="5.897" height="3.537"/>
	<path fill="#FFFFFF" d="M397.646,664.169c2.821,0,2.821,0,2.821,0c0-0.402,0-0.402,0-0.402c-2.821,0-2.821,0-2.821,0V664.169z
		 M402.08,667.432c-6.046,0-6.046,0-6.046,0c-0.804,0-1.61-0.826-1.61-1.632c0-3.665,0-3.665,0-3.665c0-1.209,0.808-1.61,1.61-1.61
		c6.046,0,6.046,0,6.046,0c1.208,0,1.611,0.401,1.611,1.61c0,3.665,0,3.665,0,3.665C403.691,666.604,403.288,667.432,402.08,667.432
		z"/>
	<rect x="367.292" y="662.204" fill="#FFFFFF" width="6.067" height="3.537"/>
	<path fill="#FFFFFF" d="M368.941,664.169c2.765,0,2.765,0,2.765,0c0-0.402,0-0.402,0-0.402c-2.765,0-2.765,0-2.765,0V664.169z
		 M373.277,667.432c-5.929,0-5.929,0-5.929,0c-0.786,0-1.571-0.826-1.571-1.632c0-3.665,0-3.665,0-3.665
		c0-1.209,0.785-1.61,1.571-1.61c5.929,0,5.929,0,5.929,0c1.191,0,1.593,0.401,1.593,1.61c0,3.665,0,3.665,0,3.665
		C374.87,666.604,374.47,667.432,373.277,667.432z"/>
	<rect x="381.607" y="672.472" fill="#FFFFFF" width="6.066" height="3.708"/>
	<path fill="#FFFFFF" d="M383.258,674.529c2.762,0,2.762,0,2.762,0c0-0.383,0-0.383,0-0.383c-2.762,0-2.762,0-2.762,0V674.529z
		 M387.612,677.715c-5.93,0-5.93,0-5.93,0c-0.805,0-1.593-0.806-1.593-1.593c0-3.567,0-3.567,0-3.567
		c0-0.787,0.788-1.593,1.593-1.593c5.93,0,5.93,0,5.93,0c1.189,0,1.573,0.806,1.573,1.593c0,3.567,0,3.567,0,3.567
		C389.188,676.909,388.803,677.715,387.612,677.715z"/>
	<rect x="396.112" y="672.472" fill="#FFFFFF" width="5.897" height="3.708"/>
	<path fill="#FFFFFF" d="M397.646,674.529c2.821,0,2.821,0,2.821,0c0-0.383,0-0.383,0-0.383c-2.821,0-2.821,0-2.821,0V674.529z
		 M402.08,677.715c-6.046,0-6.046,0-6.046,0c-0.804,0-1.61-0.806-1.61-1.593c0-3.567,0-3.567,0-3.567
		c0-0.787,0.808-1.593,1.61-1.593c6.046,0,6.046,0,6.046,0c1.208,0,1.611,0.806,1.611,1.593c0,3.567,0,3.567,0,3.567
		C403.691,676.909,403.288,677.715,402.08,677.715z"/>
	<rect x="367.292" y="672.472" fill="#FFFFFF" width="6.067" height="3.708"/>
	<path fill="#FFFFFF" d="M368.941,674.529c2.765,0,2.765,0,2.765,0c0-0.383,0-0.383,0-0.383c-2.765,0-2.765,0-2.765,0V674.529z
		 M373.277,677.715c-5.929,0-5.929,0-5.929,0c-0.786,0-1.571-0.806-1.571-1.593c0-3.567,0-3.567,0-3.567
		c0-0.787,0.785-1.593,1.571-1.593c5.929,0,5.929,0,5.929,0c1.191,0,1.593,0.806,1.593,1.593c0,3.567,0,3.567,0,3.567
		C374.87,676.909,374.47,677.715,373.277,677.715z"/>
	<rect x="381.607" y="681.755" fill="#FFFFFF" width="6.066" height="3.539"/>
	<path fill="#FFFFFF" d="M383.258,683.721c2.762,0,2.762,0,2.762,0c0-0.401,0-0.401,0-0.401c-2.762,0-2.762,0-2.762,0V683.721z
		 M387.612,686.982c-5.93,0-5.93,0-5.93,0c-0.805,0-1.593-0.825-1.593-1.631c0-3.666,0-3.666,0-3.666
		c0-0.804,0.788-1.609,1.593-1.609c5.93,0,5.93,0,5.93,0c1.189,0,1.573,0.807,1.573,1.609c0,3.666,0,3.666,0,3.666
		C389.188,686.157,388.803,686.982,387.612,686.982z"/>
	<rect x="367.292" y="681.755" fill="#FFFFFF" width="6.067" height="3.539"/>
	<path fill="#FFFFFF" d="M368.941,683.721c2.765,0,2.765,0,2.765,0c0-0.401,0-0.401,0-0.401c-2.765,0-2.765,0-2.765,0V683.721z
		 M373.277,686.982c-5.929,0-5.929,0-5.929,0c-0.786,0-1.571-0.825-1.571-1.631c0-3.666,0-3.666,0-3.666
		c0-0.804,0.785-1.609,1.571-1.609c5.929,0,5.929,0,5.929,0c1.191,0,1.593,0.807,1.593,1.609c0,3.666,0,3.666,0,3.666
		C374.87,686.157,374.47,686.982,373.277,686.982z"/>
</g>
<g>
	<path fill="#FFFFFF" d="M348.08,589.134c0.116-0.948,0.23-1.342,0.555-1.989c0.625-1.249,1.688-2.451,3.354-3.816l0.764-0.624
		c3.053-2.498,4.21-4.071,4.21-5.646c0-1.665-1.318-2.867-3.123-2.867c-1.989,0-3.215,1.248-3.238,3.33l-2.082-0.23
		c0.277-3.1,2.175-4.788,5.367-4.788c3.077,0,5.183,1.873,5.183,4.604c0,1.967-1.157,3.725-4.071,6.177l-1.666,1.411
		c-1.365,1.155-1.92,1.758-2.383,2.497h8.143v1.943L348.08,589.134L348.08,589.134z"/>
	<path fill="#FFFFFF" d="M366.68,589.411c-2.15,0-3.794-1.133-4.626-3.215c-0.532-1.343-0.763-2.984-0.763-5.274
		c0-5.575,1.804-8.42,5.39-8.42s5.391,2.845,5.391,8.466S370.265,589.411,366.68,589.411z M369.386,576.249
		c-0.463-1.272-1.504-2.059-2.729-2.059c-2.268,0-3.285,2.128-3.285,6.755c0,2.059,0.208,3.632,0.602,4.719
		c0.462,1.295,1.503,2.082,2.707,2.082c1.203,0,2.244-0.787,2.707-2.082c0.394-1.064,0.602-2.66,0.602-4.696
		C369.987,578.933,369.803,577.383,369.386,576.249z"/>
	<path fill="#FFFFFF" d="M379.774,589.134V576.18c-0.672,0.647-1.319,1.087-2.521,1.735c-0.74,0.393-0.949,0.485-1.55,0.717v-1.967
		c2.197-1.019,4.024-2.637,4.788-4.163h1.318v16.632H379.774z"/>
	<path fill="#FFFFFF" d="M392.66,589.411c-2.105,0-3.979-1.133-4.857-2.961c-0.625-1.295-0.88-2.845-0.88-5.065
		c0-5.807,2.036-8.883,5.922-8.883c2.639,0,4.372,1.526,4.721,4.117l-2.036,0.186c-0.231-1.712-1.156-2.613-2.685-2.613
		c-1.503,0-2.637,0.81-3.215,2.267c-0.416,1.064-0.694,2.591-0.694,3.817v0.322c0.37-0.578,0.557-0.785,0.973-1.133
		c0.855-0.671,1.942-1.063,3.054-1.063c2.799,0,4.881,2.29,4.881,5.344C397.842,587.052,395.69,589.411,392.66,589.411z
		 M392.545,580.182c-1.896,0-3.285,1.526-3.285,3.563c0,2.267,1.457,4.002,3.354,4.002c1.827,0,3.146-1.619,3.146-3.863
		C395.76,581.686,394.465,580.182,392.545,580.182z"/>
	<path fill="#FFFFFF" d="M406.61,570.396c-0.093,0.81-0.323,1.41-0.439,1.805h12.954v1.688l-7.055,0.046l0.021,2.962h5.899v1.712
		h-5.899v3.747h7.98v1.712l-7.98-0.022v6.662h-1.827v-6.64h-9.021v-1.734l2.868,0.022v-5.46l6.152-0.021v-2.961H405.5
		c-0.74,1.503-1.619,3.169-3.192,4.626l-1.457-1.18c2.105-1.874,3.425-4.396,4.279-7.681L406.61,570.396z M405.894,578.608v3.747
		h4.35l0.022-3.747H405.894z"/>
	<path fill="#FFFFFF" d="M349.444,612.547c-1.296,2.452-5.089,4.21-8.698,4.857l-0.879-1.758c3.054-0.439,5.714-1.228,7.449-3.077
		h-5.391l1.087-5.183h6.546v-1.758h-7.447v-1.643h16.1v5.021l-6.824,0.022l-0.022,1.874l7.795,0.022
		c-0.162,1.734-0.231,3.284-0.948,4.649c-0.394,0.786-1.271,1.109-2.151,1.041c-0.879-0.047-1.712-0.187-2.659-0.463l-0.208-1.806
		c1.18,0.395,2.035,0.694,3.007,0.671c0.324,0,0.532-0.438,0.647-0.785c0.208-0.625,0.439-1.389,0.439-1.688l-5.899,0.022v5.761
		h-1.828v-5.783h-0.114V612.547z M339.914,603.433c1.874-1.688,3.239-3.563,3.863-5.829l1.642,0.439
		c-0.116,0.717-0.532,1.411-0.625,1.643h5.76l-0.022,1.643h-3.169c0.254,0.278,0.833,1.019,1.226,1.735l-1.55,0.879
		c-0.509-1.087-1.019-1.896-1.711-2.614h-1.365c-0.602,0.995-1.458,1.989-2.521,2.984L339.914,603.433z M349.537,609.03h-5.043
		l-0.417,1.874h5.459L349.537,609.03L349.537,609.03z M355.852,603.756c-0.23-0.786-0.879-1.827-1.525-2.498h-1.411
		c-0.486,0.833-1.203,1.688-2.036,2.614l-1.55-0.926c1.596-1.643,2.799-3.216,3.285-5.344l1.643,0.578
		c-0.139,0.578-0.324,1.249-0.417,1.435l6.153-0.022v1.665h-3.631c0.23,0.301,0.786,0.856,1.18,1.712L355.852,603.756z
		 M351.387,605.63v1.735l5.066,0.021v-1.758L351.387,605.63L351.387,605.63z"/>
	<path fill="#FFFFFF" d="M382.109,617.474l-1.874,0.023l-0.023-1.781h-13.717v1.827l-1.897,0.023v-17.881h17.512V617.474
		L382.109,617.474z M366.495,613.98l13.717-0.022v-12.515h-3.585l0.023,6.754c0,0.485,0.162,0.647,0.578,0.647h2.914v1.759h-3.47
		c-1.318,0-1.851-0.973-1.851-1.781v-7.402l-2.938,0.023l0.023,2.753c0.115,3.909-1.134,6.962-4.188,8.42l-1.226-1.064
		L366.495,613.98L366.495,613.98z M366.495,611.089c2.429-1.226,3.539-2.729,3.539-5.667v-4.002h-3.539V611.089z"/>
	<path fill="#FFFFFF" d="M388.104,598.945c6.569,0.254,12.631-0.349,15.222-1.436l1.087,1.48c-2.452,0.786-4.857,1.203-7.125,1.411
		l0.022,1.596l8.235-0.022v1.711l-6.223-0.021c1.619,1.48,5.182,3.47,7.563,3.608l-0.901,1.618c-3.655-0.925-6.27-2.313-8.698-4.835
		v3.633h-1.78v-3.679c-2.104,2.359-5.298,4.117-8.698,5.112l-0.947-1.526c2.961-0.855,5.574-2.15,7.401-3.933h-6.038v-1.688
		l8.282,0.022v-1.411c-1.967,0.162-4.232,0.208-6.57,0.162L388.104,598.945z M397.564,616.664c0,0.694-0.51,1.504-1.157,1.597
		c-1.087,0.277-2.197,0.115-3.423,0.186c-0.209-0.625-0.37-1.156-0.625-1.874l2.867,0.115c0.37,0.023,0.557-0.276,0.557-0.556
		v-2.382h-9.229v-1.666h9.252l-0.021-1.11c1.271-0.463,2.358-0.972,2.914-1.317l-8.466-0.047l-0.023-1.688l11.659,0.023l0.021,1.479
		c-1.363,1.134-2.914,2.035-4.349,2.614l8.675,0.046l0.023,1.666h-8.675V616.664z"/>
	<path fill="#FFFFFF" d="M412.788,608.938c0,3.171-0.186,6.849-2.405,9.646l-1.479-1.156c1.041-1.526,1.688-2.915,1.873-4.558
		c0.139-1.364,0.208-2.775,0.208-4.188v-8.513h8.421c-0.302-0.439-0.694-0.81-1.874-1.55l1.712-0.948
		c0.693,0.693,1.896,1.852,2.29,2.498h7.657l0.021,1.643h-16.399L412.788,608.938z M426.482,611.552
		c-0.811,1.365-3.101,3.101-4.024,3.632c0.555,0.256,1.48,0.532,2.405,0.74c1.55,0.37,3.1,0.625,4.95,0.764
		c-0.277,0.718-0.647,1.11-0.948,1.644c-2.961-0.417-5.808-0.949-8.259-2.151c-0.671,0.277-1.364,0.603-2.104,0.879
		c-1.688,0.647-3.586,1.088-5.575,1.318c-0.393-0.509-0.692-0.948-1.226-1.619c2.845-0.23,5.158-0.926,7.102-1.619
		c-1.134-0.81-2.429-2.128-3.331-3.492h-1.758v-1.644l12.814,0.047L426.482,611.552z M424.956,608.846h-8.721l0.021-3.169h-3.1
		v-1.597l3.077-0.023v-1.78h1.826v1.78h5.09v-1.804h1.805v1.804h3.771v1.644h-3.771L424.956,608.846L424.956,608.846z
		 M417.6,611.645c1.157,1.296,1.827,1.896,3.008,2.66c1.41-0.764,2.729-1.572,3.748-2.637L417.6,611.645z M418.132,607.249
		l4.996-0.022l0.023-1.526h-5.065L418.132,607.249z"/>
</g>
</svg>
