<?xml version="1.0" encoding="utf-8"?>
<!-- Generator: Adobe Illustrator 16.0.0, SVG Export Plug-In . SVG Version: 6.00 Build 0)  -->
<!DOCTYPE svg PUBLIC "-//W3C//DTD SVG 1.1//EN" "http://www.w3.org/Graphics/SVG/1.1/DTD/svg11.dtd">
<svg version="1.1" id="Layer_1" xmlns="http://www.w3.org/2000/svg" xmlns:xlink="http://www.w3.org/1999/xlink" x="0px" y="0px"
	 width="768px" height="1024px" viewBox="0 0 768 1024" enable-background="new 0 0 768 1024" xml:space="preserve">
<g>
	<polygon opacity="0.2" fill-rule="evenodd" clip-rule="evenodd" fill="#FFFFFF" points="383.993,506.469 503.065,625.542 
		383.993,744.615 264.933,625.542 	"/>
</g>
<g>
	<g opacity="0.549">
		<g>
			<polyline fill="none" stroke="#FFFFFF" stroke-miterlimit="10" points="382.933,502.577 383.993,501.516 385.054,502.577 			"/>
			
				<line fill="none" stroke="#FFFFFF" stroke-miterlimit="10" stroke-dasharray="3.0247,3.0247" x1="387.192" y1="504.715" x2="505.902" y2="623.412"/>
			<polyline fill="none" stroke="#FFFFFF" stroke-miterlimit="10" points="506.972,624.481 508.032,625.542 506.972,626.603 			"/>
			
				<line fill="none" stroke="#FFFFFF" stroke-miterlimit="10" stroke-dasharray="3.0247,3.0247" x1="504.833" y1="628.741" x2="386.123" y2="747.438"/>
			<polyline fill="none" stroke="#FFFFFF" stroke-miterlimit="10" points="385.054,748.508 383.993,749.568 382.933,748.508 			"/>
			
				<line fill="none" stroke="#FFFFFF" stroke-miterlimit="10" stroke-dasharray="3.0246,3.0246" x1="380.794" y1="746.369" x2="262.096" y2="627.672"/>
			<polyline fill="none" stroke="#FFFFFF" stroke-miterlimit="10" points="261.026,626.603 259.966,625.542 261.026,624.481 			"/>
			
				<line fill="none" stroke="#FFFFFF" stroke-miterlimit="10" stroke-dasharray="3.0246,3.0246" x1="263.165" y1="622.343" x2="381.863" y2="503.646"/>
		</g>
	</g>
</g>
<g>
	<path fill-rule="evenodd" clip-rule="evenodd" fill="#FFFFFF" d="M403.101,694.063c-38.203,0-38.203,0-38.203,0
		c-4.375,0-7.941-3.607-7.941-7.982c0-38.316,0-38.316,0-38.316c0-4.395,3.566-7.983,7.941-7.983c6.371,0,6.371,0,6.371,0
		c0.807,0,1.592,0.807,1.592,1.595c0,1.207-0.785,1.61-1.592,1.61c-6.371,0-6.371,0-6.371,0c-2.781,0-4.756,2.379-4.756,4.778
		c0,38.316,0,38.316,0,38.316c0,2.782,1.975,4.779,4.756,4.779c38.203,0,38.203,0,38.203,0c2.379,0,4.756-1.997,4.756-4.779
		c0-38.316,0-38.316,0-38.316c0-2.399-1.973-4.778-3.969-4.778c-5.564,0-5.564,0-5.564,0c-1.189,0-1.594-0.403-1.594-1.61
		c0-0.788,0.404-1.595,1.594-1.595c5.564,0,5.564,0,5.564,0c3.969,0,7.156,3.589,7.156,7.983c0,38.316,0,38.316,0,38.316
		C411.044,690.456,407.476,694.063,403.101,694.063z"/>
	<path fill-rule="evenodd" clip-rule="evenodd" fill="#FFFFFF" d="M393.122,642.986c-17.057,0-17.057,0-17.057,0
		c-0.787,0-1.594-0.403-1.594-1.592c0-0.807,0.807-1.613,1.594-1.613c17.057,0,17.057,0,17.057,0c0.787,0,1.576,0.807,1.576,1.613
		C394.698,642.583,393.909,642.986,393.122,642.986z"/>
	<path fill-rule="evenodd" clip-rule="evenodd" fill="#FFFFFF" d="M409.45,656.648c-50.902,0-50.902,0-50.902,0
		c-1.211,0-1.592-0.807-1.592-1.612c0-0.808,0.381-1.593,1.592-1.593c50.902,0,50.902,0,50.902,0c0.807,0,1.594,0.785,1.594,1.593
		C411.044,655.842,410.257,656.648,409.45,656.648z"/>
	<path fill-rule="evenodd" clip-rule="evenodd" fill="#FFFFFF" d="M372.821,639.091c0,4.759,0,4.759,0,4.759
		c1.613,0,1.613,0,1.613,0c0-4.759,0-4.759,0-4.759H372.821z M374.435,643.85c0,1.594,0,1.594,0,1.594
		C374.435,643.85,374.435,643.85,374.435,643.85L374.435,643.85z M374.435,647.033c-1.613,0-1.613,0-1.613,0
		c-2.014,0-3.24-1.188-3.24-3.184c0-4.759,0-4.759,0-4.759c0-1.593,1.227-3.186,3.24-3.186c1.613,0,1.613,0,1.613,0
		c2.033,0,3.242,1.593,3.242,3.186c0,4.759,0,4.759,0,4.759C377.677,645.846,376.468,647.033,374.435,647.033z"/>
	<path fill-rule="evenodd" clip-rule="evenodd" fill="#FFFFFF" d="M394.716,639.091c0,4.759,0,4.759,0,4.759
		c1.994,0,1.994,0,1.994,0c0-4.759,0-4.759,0-4.759H394.716z M396.71,643.85c0,1.594,0,1.594,0,1.594
		C396.71,643.85,396.71,643.85,396.71,643.85L396.71,643.85z M396.71,647.033c-1.994,0-1.994,0-1.994,0
		c-1.611,0-3.223-1.188-3.223-3.184c0-4.759,0-4.759,0-4.759c0-1.593,1.611-3.186,3.223-3.186c1.994,0,1.994,0,1.994,0
		c1.613,0,3.225,1.593,3.225,3.186c0,4.759,0,4.759,0,4.759C399.935,645.846,398.323,647.033,396.71,647.033z"/>
	<rect x="380.71" y="662.204" fill-rule="evenodd" clip-rule="evenodd" fill="#FFFFFF" width="6.066" height="3.537"/>
	<path fill-rule="evenodd" clip-rule="evenodd" fill="#FFFFFF" d="M382.36,664.169c2.762,0,2.762,0,2.762,0c0-0.402,0-0.402,0-0.402
		c-2.762,0-2.762,0-2.762,0V664.169z M386.714,667.432c-5.928,0-5.928,0-5.928,0c-0.805,0-1.594-0.827-1.594-1.632
		c0-3.665,0-3.665,0-3.665c0-1.209,0.789-1.611,1.594-1.611c5.928,0,5.928,0,5.928,0c1.191,0,1.574,0.402,1.574,1.611
		c0,3.665,0,3.665,0,3.665C388.288,666.604,387.905,667.432,386.714,667.432z"/>
	<rect x="395.214" y="662.204" fill-rule="evenodd" clip-rule="evenodd" fill="#FFFFFF" width="5.898" height="3.537"/>
	<path fill-rule="evenodd" clip-rule="evenodd" fill="#FFFFFF" d="M396.749,664.169c2.822,0,2.822,0,2.822,0
		c0-0.402,0-0.402,0-0.402c-2.822,0-2.822,0-2.822,0V664.169z M401.183,667.432c-6.047,0-6.047,0-6.047,0
		c-0.803,0-1.609-0.827-1.609-1.632c0-3.665,0-3.665,0-3.665c0-1.209,0.807-1.611,1.609-1.611c6.047,0,6.047,0,6.047,0
		c1.207,0,1.611,0.402,1.611,1.611c0,3.665,0,3.665,0,3.665C402.794,666.604,402.39,667.432,401.183,667.432z"/>
	<rect x="366.396" y="662.204" fill-rule="evenodd" clip-rule="evenodd" fill="#FFFFFF" width="6.066" height="3.537"/>
	<path fill-rule="evenodd" clip-rule="evenodd" fill="#FFFFFF" d="M368.044,664.169c2.764,0,2.764,0,2.764,0
		c0-0.402,0-0.402,0-0.402c-2.764,0-2.764,0-2.764,0V664.169z M372.38,667.432c-5.928,0-5.928,0-5.928,0
		c-0.787,0-1.572-0.827-1.572-1.632c0-3.665,0-3.665,0-3.665c0-1.209,0.785-1.611,1.572-1.611c5.928,0,5.928,0,5.928,0
		c1.191,0,1.592,0.402,1.592,1.611c0,3.665,0,3.665,0,3.665C373.972,666.604,373.571,667.432,372.38,667.432z"/>
	<rect x="380.71" y="672.472" fill-rule="evenodd" clip-rule="evenodd" fill="#FFFFFF" width="6.066" height="3.708"/>
	<path fill-rule="evenodd" clip-rule="evenodd" fill="#FFFFFF" d="M382.36,674.529c2.762,0,2.762,0,2.762,0c0-0.383,0-0.383,0-0.383
		c-2.762,0-2.762,0-2.762,0V674.529z M386.714,677.715c-5.928,0-5.928,0-5.928,0c-0.805,0-1.594-0.806-1.594-1.593
		c0-3.567,0-3.567,0-3.567c0-0.787,0.789-1.593,1.594-1.593c5.928,0,5.928,0,5.928,0c1.191,0,1.574,0.806,1.574,1.593
		c0,3.567,0,3.567,0,3.567C388.288,676.909,387.905,677.715,386.714,677.715z"/>
	<rect x="395.214" y="672.472" fill-rule="evenodd" clip-rule="evenodd" fill="#FFFFFF" width="5.898" height="3.708"/>
	<path fill-rule="evenodd" clip-rule="evenodd" fill="#FFFFFF" d="M396.749,674.529c2.822,0,2.822,0,2.822,0
		c0-0.383,0-0.383,0-0.383c-2.822,0-2.822,0-2.822,0V674.529z M401.183,677.715c-6.047,0-6.047,0-6.047,0
		c-0.803,0-1.609-0.806-1.609-1.593c0-3.567,0-3.567,0-3.567c0-0.787,0.807-1.593,1.609-1.593c6.047,0,6.047,0,6.047,0
		c1.207,0,1.611,0.806,1.611,1.593c0,3.567,0,3.567,0,3.567C402.794,676.909,402.39,677.715,401.183,677.715z"/>
	<rect x="366.396" y="672.472" fill-rule="evenodd" clip-rule="evenodd" fill="#FFFFFF" width="6.066" height="3.708"/>
	<path fill-rule="evenodd" clip-rule="evenodd" fill="#FFFFFF" d="M368.044,674.529c2.764,0,2.764,0,2.764,0
		c0-0.383,0-0.383,0-0.383c-2.764,0-2.764,0-2.764,0V674.529z M372.38,677.715c-5.928,0-5.928,0-5.928,0
		c-0.787,0-1.572-0.806-1.572-1.593c0-3.567,0-3.567,0-3.567c0-0.787,0.785-1.593,1.572-1.593c5.928,0,5.928,0,5.928,0
		c1.191,0,1.592,0.806,1.592,1.593c0,3.567,0,3.567,0,3.567C373.972,676.909,373.571,677.715,372.38,677.715z"/>
	<rect x="380.71" y="681.755" fill-rule="evenodd" clip-rule="evenodd" fill="#FFFFFF" width="6.066" height="3.539"/>
	<path fill-rule="evenodd" clip-rule="evenodd" fill="#FFFFFF" d="M382.36,683.721c2.762,0,2.762,0,2.762,0c0-0.402,0-0.402,0-0.402
		c-2.762,0-2.762,0-2.762,0V683.721z M386.714,686.982c-5.928,0-5.928,0-5.928,0c-0.805,0-1.594-0.825-1.594-1.63
		c0-3.666,0-3.666,0-3.666c0-0.804,0.789-1.61,1.594-1.61c5.928,0,5.928,0,5.928,0c1.191,0,1.574,0.807,1.574,1.61
		c0,3.666,0,3.666,0,3.666C388.288,686.157,387.905,686.982,386.714,686.982z"/>
	<rect x="366.396" y="681.755" fill-rule="evenodd" clip-rule="evenodd" fill="#FFFFFF" width="6.066" height="3.539"/>
	<path fill-rule="evenodd" clip-rule="evenodd" fill="#FFFFFF" d="M368.044,683.721c2.764,0,2.764,0,2.764,0
		c0-0.402,0-0.402,0-0.402c-2.764,0-2.764,0-2.764,0V683.721z M372.38,686.982c-5.928,0-5.928,0-5.928,0
		c-0.787,0-1.572-0.825-1.572-1.63c0-3.666,0-3.666,0-3.666c0-0.804,0.785-1.61,1.572-1.61c5.928,0,5.928,0,5.928,0
		c1.191,0,1.592,0.807,1.592,1.61c0,3.666,0,3.666,0,3.666C373.972,686.157,373.571,686.982,372.38,686.982z"/>
</g>
<g>
	<path fill="#FFFFFF" d="M347.182,589.134c0.116-0.948,0.231-1.342,0.555-1.989c0.625-1.249,1.688-2.452,3.354-3.817l0.764-0.624
		c3.053-2.498,4.21-4.071,4.21-5.645c0-1.665-1.318-2.868-3.123-2.868c-1.989,0-3.215,1.249-3.238,3.331l-2.082-0.231
		c0.277-3.1,2.174-4.788,5.367-4.788c3.077,0,5.182,1.873,5.182,4.604c0,1.966-1.157,3.724-4.071,6.176l-1.666,1.411
		c-1.365,1.156-1.92,1.758-2.383,2.498h8.143v1.943H347.182z"/>
	<path fill="#FFFFFF" d="M365.782,589.411c-2.151,0-3.794-1.133-4.626-3.215c-0.532-1.342-0.763-2.984-0.763-5.274
		c0-5.575,1.804-8.42,5.39-8.42s5.39,2.845,5.39,8.466S369.367,589.411,365.782,589.411z M368.488,576.249
		c-0.463-1.272-1.504-2.059-2.73-2.059c-2.267,0-3.285,2.128-3.285,6.755c0,2.059,0.208,3.632,0.602,4.719
		c0.462,1.295,1.503,2.082,2.707,2.082c1.203,0,2.244-0.787,2.707-2.082c0.393-1.064,0.601-2.66,0.601-4.696
		C369.089,578.933,368.905,577.383,368.488,576.249z"/>
	<path fill="#FFFFFF" d="M378.876,589.134V576.18c-0.671,0.647-1.319,1.087-2.521,1.735c-0.74,0.393-0.949,0.485-1.55,0.717v-1.967
		c2.197-1.018,4.025-2.637,4.788-4.163h1.319v16.632H378.876z"/>
	<path fill="#FFFFFF" d="M391.762,589.411c-2.105,0-3.979-1.133-4.857-2.961c-0.625-1.295-0.879-2.845-0.879-5.065
		c0-5.807,2.035-8.883,5.922-8.883c2.637,0,4.371,1.526,4.719,4.117l-2.035,0.186c-0.232-1.712-1.156-2.614-2.684-2.614
		c-1.504,0-2.637,0.81-3.215,2.267c-0.416,1.064-0.695,2.591-0.695,3.817v0.323c0.371-0.578,0.557-0.786,0.973-1.133
		c0.855-0.671,1.943-1.064,3.053-1.064c2.799,0,4.881,2.29,4.881,5.344C396.943,587.052,394.793,589.411,391.762,589.411z
		 M391.646,580.182c-1.896,0-3.285,1.526-3.285,3.563c0,2.267,1.457,4.002,3.355,4.002c1.826,0,3.145-1.619,3.145-3.863
		C394.861,581.686,393.566,580.182,391.646,580.182z"/>
	<path fill="#FFFFFF" d="M405.713,570.396c-0.092,0.81-0.324,1.411-0.439,1.805h12.953v1.688l-7.055,0.046l0.023,2.961h5.898v1.712
		h-5.898v3.748h7.98v1.711l-7.98-0.022v6.662h-1.828v-6.64h-9.021v-1.734l2.869,0.023v-5.46l6.152-0.022v-2.961h-4.766
		c-0.74,1.503-1.619,3.169-3.191,4.626l-1.457-1.18c2.105-1.874,3.424-4.396,4.279-7.68L405.713,570.396z M404.996,578.608v3.748
		h4.348l0.023-3.748H404.996z"/>
	<path fill="#FFFFFF" d="M348.546,612.547c-1.296,2.452-5.089,4.21-8.698,4.857l-0.879-1.758c3.054-0.439,5.714-1.227,7.449-3.077
		h-5.39l1.087-5.182h6.546v-1.758h-7.448v-1.643h16.1v5.021l-6.824,0.022l-0.023,1.874l7.795,0.023
		c-0.162,1.734-0.231,3.284-0.948,4.649c-0.394,0.786-1.272,1.11-2.151,1.041c-0.879-0.047-1.712-0.186-2.66-0.463l-0.208-1.805
		c1.18,0.394,2.036,0.694,3.007,0.671c0.324,0,0.532-0.439,0.648-0.786c0.208-0.625,0.439-1.388,0.439-1.688l-5.899,0.022v5.761
		h-1.828v-5.783H348.546z M339.016,603.433c1.874-1.688,3.239-3.563,3.863-5.829l1.642,0.439c-0.116,0.717-0.532,1.411-0.625,1.643
		h5.76l-0.023,1.642h-3.169c0.254,0.278,0.833,1.019,1.226,1.735l-1.55,0.879c-0.509-1.087-1.018-1.896-1.711-2.614h-1.365
		c-0.602,0.995-1.458,1.989-2.521,2.984L339.016,603.433z M348.639,609.03h-5.043l-0.417,1.874h5.459V609.03z M354.954,603.756
		c-0.231-0.786-0.879-1.827-1.526-2.498h-1.411c-0.486,0.833-1.203,1.688-2.036,2.614l-1.55-0.926
		c1.596-1.642,2.799-3.215,3.285-5.343l1.643,0.578c-0.139,0.578-0.324,1.249-0.417,1.434l6.153-0.022v1.665h-3.631
		c0.231,0.301,0.786,0.856,1.18,1.712L354.954,603.756z M350.489,605.63v1.735l5.066,0.022v-1.758H350.489z"/>
	<path fill="#FFFFFF" d="M381.211,617.474l-1.874,0.023l-0.023-1.781h-13.717v1.827l-1.897,0.023v-17.881h17.511V617.474z
		 M365.597,613.98l13.717-0.022v-12.515h-3.585l0.023,6.754c0,0.486,0.162,0.648,0.578,0.648h2.915v1.758h-3.47
		c-1.319,0-1.851-0.972-1.851-1.781v-7.402l-2.938,0.023l0.023,2.753c0.115,3.909-1.134,6.962-4.187,8.42l-1.226-1.064V613.98z
		 M365.597,611.089c2.429-1.226,3.539-2.729,3.539-5.667v-4.002h-3.539V611.089z"/>
	<path fill="#FFFFFF" d="M387.205,598.945c6.57,0.254,12.631-0.348,15.221-1.435l1.088,1.48c-2.453,0.786-4.857,1.203-7.125,1.411
		l0.023,1.596l8.234-0.022v1.711l-6.223-0.022c1.619,1.48,5.182,3.47,7.564,3.608l-0.902,1.619
		c-3.654-0.925-6.268-2.313-8.697-4.835v3.632h-1.781v-3.678c-2.105,2.359-5.297,4.117-8.697,5.112l-0.949-1.526
		c2.96-0.856,5.576-2.151,7.402-3.933h-6.037v-1.688l8.281,0.022v-1.411c-1.967,0.162-4.232,0.208-6.57,0.162L387.205,598.945z
		 M396.666,616.664c0,0.694-0.508,1.504-1.156,1.597c-1.088,0.277-2.197,0.115-3.424,0.185c-0.209-0.625-0.369-1.156-0.625-1.874
		l2.869,0.116c0.369,0.023,0.555-0.277,0.555-0.556v-2.382h-9.229v-1.666h9.252l-0.023-1.11c1.273-0.463,2.359-0.972,2.914-1.318
		l-8.465-0.047l-0.023-1.688l11.658,0.023l0.023,1.48c-1.365,1.134-2.914,2.035-4.35,2.614l8.676,0.046l0.023,1.666h-8.676V616.664z
		"/>
	<path fill="#FFFFFF" d="M411.891,608.938c0,3.17-0.186,6.848-2.406,9.646l-1.48-1.156c1.041-1.527,1.689-2.915,1.873-4.558
		c0.139-1.364,0.209-2.775,0.209-4.187v-8.513h8.42c-0.301-0.439-0.693-0.81-1.873-1.55l1.711-0.948
		c0.695,0.693,1.896,1.851,2.291,2.498h7.656l0.023,1.643h-16.4L411.891,608.938z M425.584,611.552
		c-0.809,1.365-3.1,3.1-4.023,3.632c0.555,0.255,1.48,0.532,2.404,0.74c1.551,0.37,3.1,0.625,4.951,0.764
		c-0.277,0.717-0.648,1.11-0.949,1.643c-2.961-0.417-5.807-0.949-8.258-2.151c-0.67,0.277-1.365,0.602-2.105,0.879
		c-1.688,0.647-3.586,1.087-5.574,1.318c-0.393-0.509-0.693-0.948-1.227-1.619c2.846-0.231,5.158-0.926,7.102-1.619
		c-1.133-0.81-2.428-2.128-3.33-3.493h-1.758v-1.643l12.814,0.047L425.584,611.552z M424.059,608.846h-8.721l0.021-3.169h-3.1
		v-1.597l3.078-0.023v-1.781h1.826v1.781h5.09v-1.804h1.805v1.804h3.77v1.643h-3.77V608.846z M416.701,611.645
		c1.158,1.295,1.828,1.896,3.008,2.66c1.41-0.764,2.73-1.573,3.748-2.637L416.701,611.645z M417.234,607.249l4.996-0.022
		l0.023-1.527h-5.066L417.234,607.249z"/>
</g>
</svg>
