<?xml version="1.0" encoding="utf-8"?>
<!-- Generator: Adobe Illustrator 16.0.0, SVG Export Plug-In . SVG Version: 6.00 Build 0)  -->
<!DOCTYPE svg PUBLIC "-//W3C//DTD SVG 1.1//EN" "http://www.w3.org/Graphics/SVG/1.1/DTD/svg11.dtd">
<svg version="1.1" id="Layer_1" xmlns="http://www.w3.org/2000/svg" xmlns:xlink="http://www.w3.org/1999/xlink" x="0px" y="0px"
	 width="768px" height="1024px" viewBox="0 0 768 1024" enable-background="new 0 0 768 1024" xml:space="preserve">
<g>
	<line fill="none" stroke="#2A79BE" stroke-miterlimit="10" x1="100.973" y1="19.996" x2="60.621" y2="79.871"/>
	<g>
		<g>
			<path fill="#58B5E1" d="M102.281,52.351v19.688c0,0.723-1.032,1.703-2.193,1.703h-2.297c-0.206-0.671-0.438-1.187-0.748-1.987
				c1.161,0,1.987,0.103,2.813-0.026c0.206-0.052,0.438-0.232,0.49-0.748v-4.877l-3.509,0.026c-0.155,2.193-0.284,5.393-2.58,8.283
				L92.656,73.2c1.987-2.684,2.22-5.521,2.22-8.928V52.376L102.281,52.351z M96.862,54.286v3.948h3.432V54.26L96.862,54.286z
				 M100.345,60.092l-3.483,0.025v4.103h3.432L100.345,60.092z M105.918,62.853v11.482l-1.986,0.052v-22.01h10.347
				c-0.155,2.013-0.284,3.793-0.774,5.599c-0.232,0.903-1.187,1.548-2.038,1.6c-0.903,0.077-1.909-0.026-2.916-0.181l-0.567-2.064
				c1.213,0.181,2.167,0.413,3.147,0.439c0.207,0.026,0.31-0.104,0.413-0.387c0.207-0.645,0.465-2.348,0.517-3.096h-6.142
				l-0.025,6.657h8.411c-0.154,1.729-0.438,3.2-0.902,4.593c-0.465,1.393-0.955,2.761-1.626,3.948
				c1.006,1.238,2.426,2.167,4.025,3.225l-1.161,1.471c-1.703-1.006-2.71-1.78-3.87-2.967c-0.594,0.774-2.064,2.193-3.406,3.303
				c-0.49-0.464-0.826-0.877-1.342-1.419c1.548-1.213,2.528-2.142,3.432-3.406c-1.265-1.832-2.167-4.129-2.606-6.838L105.918,62.853
				L105.918,62.853z M108.783,62.827c0.181,1.548,1.006,3.716,1.703,4.928c0.825-1.651,1.367-3.483,1.729-4.928H108.783z"/>
			<path fill="#58B5E1" d="M127.623,52.145c-0.284,0.645-0.542,1.083-0.619,1.238h9.65l0.025,1.755
				c-1.522,1.883-3.07,3.096-4.67,4.257c0.335,0.258,1.135,0.516,1.857,0.877c2.426,0.903,4.98,1.6,7.947,2.167l-1.265,1.729
				c-3.715-0.8-7.225-1.806-10.269-3.612c-2.942,1.961-7.509,3.277-11.482,3.896l-0.8-1.858c3.096-0.516,5.806-1.212,8.463-2.193
				c0.697-0.335,1.522-0.749,2.038-1.032c-1.109-0.852-2.58-1.729-3.482-2.967c-1.136,1.342-2.787,2.735-4.723,3.509l-1.471-1.78
				c3.974-1.471,5.883-3.768,7.096-6.941L127.623,52.145z M130.306,62.62c-0.025,0.98,0.052,1.419-0.025,1.987h7.327
				c-0.051,2.864-0.335,5.496-1.109,7.87c-0.232,0.8-0.929,1.497-1.677,1.703c-1.136,0.335-2.297-0.026-3.483-0.206l-0.49-2.245
				c1.367,0.387,2.348,0.774,3.406,0.619c0.593-0.387,0.645-1.109,0.773-1.857c0.232-1.394,0.517-3.174,0.567-4h-5.573
				c-0.412,2.219-2.142,4.335-4.231,5.702c-1.548,1.032-4.335,1.858-6.012,2.167c-0.361-0.645-0.697-1.161-1.032-1.935
				c3.277-0.516,6.321-1.29,8.282-3.871c0.542-0.696,0.826-1.497,0.98-2.09h-7.379v-1.858l7.689,0.026
				c0.077-0.619,0-1.109,0.077-2.271L130.306,62.62z M126.358,55.318c1.032,1.238,2.426,2.038,3.871,2.967
				c1.394-0.903,2.786-1.936,3.767-2.967H126.358z"/>
			<path fill="#58B5E1" d="M161.143,73.948l-0.723-1.91l2.735,0.104c0.155-0.026,0.284-0.129,0.361-0.232V54.441h-15.843v19.842
				h-1.961V52.557h19.713v19.636c0,0.826-0.852,1.781-1.703,1.781L161.143,73.948z M149.662,56.608
				c1.187,1.161,1.548,1.703,2.554,2.813c0.438-1.213,0.8-2.658,0.98-4.128l1.807,0.464c-0.387,2.116-0.903,3.793-1.394,5.418
				c0.929,1.316,1.6,2.296,2.245,4l-1.651,1.316c-0.542-1.497-0.903-2.271-1.368-2.916c-0.748,2.167-2.09,3.664-3.122,5.212
				c-0.696-0.387-1.109-0.774-1.78-1.187c2.013-2.167,2.71-3.741,3.535-6.038c-0.955-1.419-1.884-2.477-3.38-3.871L149.662,56.608z
				 M161.272,68.709c-0.438-1.677-1.444-3.689-2.115-4.876c-0.929,2.039-1.936,3.793-3.587,5.651l-1.857-1.239
				c2.013-1.935,3.276-3.974,4.206-6.063c-0.93-1.316-1.832-2.529-3.148-4.051l1.548-1.058c0.852,1.032,1.832,2.142,2.4,2.941
				c0.361-1.264,0.954-2.967,1.29-4.902l1.78,0.516c-0.517,2.322-1.084,4.334-1.755,6.244c1.188,1.677,2.219,3.432,2.993,5.521
				L161.272,68.709z"/>
			<path fill="#58B5E1" d="M171.572,72.271l-0.955-1.625c3.045-0.955,4.98-1.651,8.283-2.864v1.935L171.572,72.271z M178.487,64.091
				v1.858c-2.864,0.671-4.825,1.032-6.683,1.625l-1.084-1.832c1.522-1.522,2.967-3.844,3.818-5.16c-0.283,0-2.063,0.335-2.941,0.567
				l-0.825-1.548c1.315-2.09,2.941-5.135,3.999-8.36l1.678,0.929c-0.878,2.838-2.168,5.212-3.277,6.889
				c0.387-0.026,1.445-0.181,2.297-0.335c0.516-0.903,0.825-1.522,1.444-2.735l1.626,0.903c-1.239,2.451-2.684,5.47-4.954,8.154
				L178.487,64.091z M178.41,58.105c1.986-1.522,4.024-4.799,4.283-7.38l1.883,0.671c-0.181,0.877-0.412,1.497-0.541,1.858h6.656
				v1.78c-0.722,1.91-2.09,3.587-3.38,4.903c1.188,1.316,3.664,2.58,6.348,2.967l-1.136,1.883c-2.632-0.722-4.902-1.78-6.683-3.483
				c-1.961,1.574-4.489,2.941-6.373,3.483l-1.187-1.78c2.477-0.8,4.593-1.806,6.218-3.225c-0.8-0.903-1.548-2.219-2.038-3.097
				c-0.826,1.213-1.755,2.167-2.606,2.787L178.41,58.105z M190.459,64.297v9.908h-1.987v-1.677h-5.212v1.677h-1.987v-9.908H190.459z
				 M188.472,70.645v-4.464h-5.212v4.464H188.472z M183.905,55.138c0.465,1.058,1.394,2.245,2.168,3.277
				c0.903-0.826,1.909-2.193,2.426-3.277H183.905z"/>
			<path fill="#58B5E1" d="M229.194,53.306v19.997l-2.063-0.026l-0.026-2.451h-10.089v2.58l-2.038-0.026l0.025-20.074H229.194z
				 M217.042,60.969l10.089-0.026v-5.728h-10.115L217.042,60.969z M227.156,62.853h-10.141l0.026,6.063h10.089L227.156,62.853z"/>
			<path fill="#58B5E1" d="M239.493,64.065c-0.748,0.361-1.6,0.722-2.374,0.955l-1.29-1.651c3.277-1.058,5.909-2.451,8.205-4.748
				l1.548,1.393c-1.6,1.522-3.638,2.916-5.599,3.845l15.688,0.051v7.276h3.122v1.858h-22.499v-1.858h3.199V64.065L239.493,64.065z
				 M257.606,58.44H237.48v-1.858h20.126V58.44z M240.292,50.958c2.013,1.238,3.303,2.219,4.748,4.206l-1.549,1.291
				c-1.109-1.625-2.967-3.071-4.696-4.258L240.292,50.958z M241.531,65.794v5.393h2.606v-5.393H241.531z M246.15,65.717v5.393h2.813
				v-5.393H246.15z M257.683,65.407c-1.857-2.038-6.708-4.077-8.799-4.851l1.316-1.471c3.045,0.852,6.786,2.89,8.902,4.825
				L257.683,65.407z M256.058,52.041c-1.497,1.961-2.813,3.097-4.619,4.413l-1.471-1.368c1.78-1.213,3.277-2.632,4.593-4.283
				L256.058,52.041z M250.975,65.717v5.393h2.58v-5.393H250.975z"/>
			<path fill="#58B5E1" d="M276.73,73.122c-1.6,0-1.884-1.058-1.884-2.116v-6.193h-3.097c-0.31,3.2-1.238,8.128-8.54,9.521
				l-1.188-1.883c3.02-0.387,7.586-1.651,7.664-7.638h-5.857v-1.909h19.3l-0.025,1.909h-6.296l-0.025,5.522
				c0,0.516,0.206,0.929,0.8,0.929h3.251c0.671,0,1.058-0.129,1.187-0.645c0.258-0.903,0.361-1.884,0.465-3.148l1.935,0.723
				c-0.438,2.116-0.825,4.928-2.709,4.928H276.73z M281.348,56.118h-16.049v3.096h-1.961l-0.026-5.006h9.289
				c-0.593-0.671-1.986-1.6-3.303-1.832l1.626-1.471c1.522,0.464,2.761,1.497,3.947,2.838l-0.516,0.464h8.953v4.851l-1.961-0.026
				L281.348,56.118L281.348,56.118z M279.929,60.298h-13.211v-1.935l13.237,0.026L279.929,60.298z"/>
			<path fill="#58B5E1" d="M308.522,53.641v1.857h-8.773v1.368H307v1.806h-7.251v1.522h9.521v1.858h-5.187l0.979,0.516
				c-0.489,0.774-0.953,1.316-1.16,1.497h5.779v1.857h-21.958v-1.857h6.037c-0.206-0.31-0.877-0.955-1.651-1.368l1.007-0.594
				l-4.902-0.051v-1.858h9.572v-1.522h-7.457v-1.806h7.457v-1.368h-8.799v-1.857h5.986c-0.335-0.387-1.135-0.903-2.296-1.574
				l1.78-1.032c1.161,0.671,2.219,1.6,2.838,2.606h2.993c0.773-0.594,1.548-1.497,2.09-2.606l1.884,0.877
				c-0.566,0.8-1.084,1.394-1.677,1.703L308.522,53.641z M291.053,74.386v-7.379h15.43v7.276h-1.961v-1.497h-11.508v1.6H291.053z
				 M293.014,70.929h11.508v-2.064h-11.508V70.929z M294.227,62.053c0.877,0.619,1.342,1.445,1.703,2.013h1.857v-2.013H294.227z
				 M301.607,64.065c0.722-0.62,1.108-1.419,1.314-2.013h-3.174v2.013H301.607z"/>
		</g>
	</g>
	<g>
		<g>
			<path fill="#58B5E1" d="M65.197,38.049c-0.129-1.471-1.11-2.477-2.632-2.477c-3.2,0-3.562,3.819-3.742,6.192l0.052,0.052
				c0.8-1.419,2.297-2.142,3.896-2.142c3.587,0,5.702,2.606,5.702,6.063c0,3.509-2.399,6.167-6.012,6.167
				c-5.315,0-6.58-4.18-6.58-9.444c0-4.309,1.703-9.34,6.813-9.34c2.864,0,5.289,1.987,5.444,4.928L65.197,38.049L65.197,38.049z
				 M65.532,45.687c0-1.935-1.058-3.689-3.174-3.689c-2.142,0-3.251,1.703-3.251,3.689c0,1.961,1.109,3.768,3.251,3.768
				C64.474,49.454,65.532,47.622,65.532,45.687z"/>
		</g>
	</g>
</g>
<line fill="none" stroke="#58B5E1" stroke-width="1.5" stroke-miterlimit="10" stroke-dasharray="1.5,1.5" x1="0" y1="933.521" x2="768" y2="933.521"/>
<line fill="none" stroke="#58B5E1" stroke-width="1.5" stroke-miterlimit="10" stroke-dasharray="1.5,1.5" x1="0" y1="90.479" x2="768" y2="90.479"/>
</svg>
