<?xml version="1.0" encoding="utf-8"?>
<!-- Generator: Adobe Illustrator 16.0.0, SVG Export Plug-In . SVG Version: 6.00 Build 0)  -->
<!DOCTYPE svg PUBLIC "-//W3C//DTD SVG 1.1//EN" "http://www.w3.org/Graphics/SVG/1.1/DTD/svg11.dtd">
<svg version="1.1" id="Layer_1" xmlns="http://www.w3.org/2000/svg" xmlns:xlink="http://www.w3.org/1999/xlink" x="0px" y="0px"
	 width="768px" height="1024px" viewBox="0 0 768 1024" enable-background="new 0 0 768 1024" xml:space="preserve">
<polyline opacity="0.298" fill="#FFFFFF" enable-background="new    " points="467.604,386.868 469.834,387.386 472.076,385.919 
	473.086,388.506 470.746,389.468 467.703,389.296 467.197,387.386 467.604,386.868 "/>
<polyline fill="none" stroke="#9B9B9B" stroke-width="2" stroke-linejoin="round" stroke-miterlimit="10" points="467.604,386.868 
	469.834,387.386 472.076,385.919 473.086,388.506 470.746,389.468 467.703,389.296 467.197,387.386 467.604,386.868 "/>
<polyline fill="none" stroke="#9B9B9B" stroke-width="2" stroke-linejoin="round" stroke-miterlimit="10" points="445.732,411.707 
	442.32,415.798 442.32,417.672 435.617,421.479 428.508,419.828 427.055,416.304 427.473,414.788 431.291,412.065 432.623,411.339 
	438.82,410.476 441.703,410.341 442.738,409.613 444.699,409.971 445.732,411.707 "/>
<polyline opacity="0.298" fill="#FFFFFF" enable-background="new    " points="512.342,308.134 509.928,305.67 510.988,303.993 
	511.961,300.976 514.658,302.208 515.816,304.216 514.955,305.782 512.342,308.134 "/>
<polyline fill="none" stroke="#9B9B9B" stroke-width="2" stroke-linejoin="round" stroke-miterlimit="10" points="512.342,308.134 
	509.928,305.67 510.988,303.993 511.961,300.976 514.658,302.208 515.816,304.216 514.955,305.782 512.342,308.134 "/>
<polyline fill="none" stroke="#9B9B9B" stroke-width="2" stroke-linejoin="round" stroke-miterlimit="10" points="435.666,297.896 
	442.012,303.551 447.322,304.708 452.115,303.97 453.568,304.708 455.232,303.661 456.379,304.918 457.105,306.901 459.398,308.159 
	462.416,308.159 464.707,310.044 466.791,309.096 468.355,310.044 469.711,307.419 471.682,306.483 471.99,304.29 471.373,300.409 
	470.955,299.989 468.971,301.987 466.064,299.681 463.869,296.96 466.064,295.382 466.691,292.77 467.936,291.723 467.727,288.063 
	468.662,287.435 470.438,288.481 471.682,289.937 473.875,288.481 474.701,287.533 474.281,285.759 471.682,284.181 
	471.164,282.407 466.273,283.035 463.254,280.411 461.898,279.894 461.898,278.218 468.564,270.579 466.064,271.207 
	464.609,272.353 463.869,271.417 463.869,270.259 462.725,269.839 459.705,271.097 452.115,270.05 451.586,276.432 447.951,279.364 
	442.947,280.411 436.074,285.229 430.455,286.696 430.455,287.743 435.666,295.591 435.666,297.896 "/>
<polyline fill="none" stroke="#9B9B9B" stroke-width="2" stroke-linejoin="round" stroke-miterlimit="10" points="515.547,358.085 
	515.547,358.184 515.633,357.974 515.83,357.765 516.027,357.667 516.113,357.457 516.211,357.347 516.309,357.149 516.408,357.149 
	516.594,356.939 516.594,356.729 516.594,356.41 516.791,356.2 516.791,356.103 516.988,355.893 516.988,355.683 517.074,355.474 
	517.369,355.263 517.369,355.054 517.566,354.858 517.75,354.647 517.85,354.438 518.047,354.229 518.133,354.229 518.33,354.229 
	518.527,354.229 518.811,354.019 518.91,354.019 519.193,354.019 519.391,353.909 519.488,353.909 519.488,354.019 519.771,354.019 
	519.871,354.019 520.154,354.019 520.352,354.019 520.549,353.909 520.549,354.229 520.635,354.229 520.832,354.229 
	520.832,354.438 521.115,354.438 521.213,354.438 521.412,354.438 521.412,354.647 521.51,354.647 521.693,354.647 521.693,354.858 
	521.693,354.956 521.99,354.956 521.99,355.263 522.176,355.263 522.371,355.263 522.371,355.474 522.568,355.474 522.568,355.683 
	522.656,355.683 522.951,355.683 522.951,356.003 522.951,356.2 522.951,356.41 522.951,356.521 523.135,356.521 522.951,356.729 
	522.951,356.939 522.754,357.247 522.568,357.457 522.273,357.667 522.076,357.876 522.076,357.974 521.99,358.184 521.99,358.491 
	521.99,358.701 521.99,358.911 522.076,358.911 522.076,359.12 522.076,359.329 522.076,359.538 522.273,359.538 522.273,359.748 
	522.273,359.958 522.273,360.265 522.568,360.265 522.568,360.475 522.568,360.685 522.754,360.685 522.754,360.993 
	522.854,360.993 522.854,361.202 522.951,361.202 522.951,361.412 523.051,361.412 523.051,361.522 523.234,361.522 523.051,361.72 
	522.951,361.72 522.754,361.93 522.568,362.139 522.471,362.251 522.176,362.46 522.176,362.769 522.076,362.978 522.076,363.187 
	522.076,363.396 522.076,363.605 522.076,363.815 522.176,363.815 522.176,364.013 522.176,364.123 522.176,364.333 
	522.471,364.333 522.471,364.542 522.568,364.542 522.568,364.751 522.568,364.948 522.568,365.269 522.754,365.269 
	522.656,365.478 522.656,365.687 522.656,365.896 522.656,365.995 522.568,366.204 522.568,366.513 522.568,366.722 
	522.568,366.932 522.568,367.141 522.568,367.351 522.568,367.56 522.656,367.56 522.656,367.771 522.656,367.979 522.656,368.188 
	522.951,368.188 522.951,368.386 522.951,368.596 523.135,368.596 523.135,368.805 523.135,369.015 523.135,369.224 
	523.135,369.532 523.135,369.741 523.135,369.952 523.135,370.161 523.135,370.271 523.332,370.271 523.332,370.481 
	523.332,370.679 523.332,370.888 523.432,370.888 523.332,371.097 523.332,371.307 523.332,371.516 523.332,371.726 
	523.234,371.935 523.234,372.144 523.234,372.354 523.234,372.452 523.135,372.661 523.135,372.76 522.951,372.97 522.951,373.179 
	522.951,373.388 522.951,373.598 522.656,373.807 522.656,373.905 522.568,374.017 522.568,374.226 522.568,374.324 
	522.568,374.534 522.568,374.743 522.568,375.051 522.568,375.261 522.471,375.471 522.471,375.581 522.471,375.791 522.273,375.89 
	522.076,376.099 521.99,376.309 521.693,376.518 521.596,376.729 521.596,376.825 521.596,377.036 521.51,377.245 521.51,377.554 
	521.313,377.554 521.115,377.763 520.93,377.874 520.832,378.083 520.832,378.28 520.832,378.489 520.832,378.699 520.832,379.02 
	520.832,379.229 520.832,379.427 520.832,379.636 520.832,379.845 520.635,380.054 520.635,380.264 520.352,380.473 
	520.352,380.571 520.252,380.78 520.154,380.99 520.068,381.2 520.068,381.311 520.068,381.52 520.068,381.718 520.068,382.037 
	520.068,382.136 520.154,382.136 520.154,382.345 520.154,382.556 520.252,382.556 520.252,382.765 520.352,382.765 
	520.352,383.073 520.449,383.073 520.635,383.073 520.635,383.282 520.635,383.491 520.449,383.491 520.352,383.491 
	520.352,383.394 520.252,383.394 520.252,383.185 520.068,383.185 520.068,383.073 519.871,383.185 519.771,383.185 
	519.574,383.185 519.574,383.394 519.391,383.603 519.291,383.701 519.008,383.911 518.91,383.911 518.91,383.813 518.811,383.813 
	518.811,383.701 518.811,383.603 518.811,383.282 518.811,383.185 518.811,382.975 518.613,382.975 518.527,382.975 
	518.527,382.864 518.527,382.667 518.33,382.667 518.33,382.457 518.33,382.247 518.33,382.037 518.33,381.827 518.33,381.618 
	518.33,381.409 518.232,381.409 518.232,381.2 518.232,380.99 518.047,380.99 517.947,380.99 517.947,380.78 517.75,380.78 
	517.75,380.571 517.566,380.571 517.469,380.571 517.172,380.571 517.172,380.374 516.988,380.374 516.791,380.374 516.791,380.165 
	516.594,380.165 516.594,380.054 516.506,380.054 516.506,379.956 516.309,379.956 516.309,379.746 516.113,379.746 
	516.113,379.536 516.027,379.536 516.027,379.229 516.027,379.118 516.027,378.909 516.211,378.699 516.027,378.699 
	515.928,378.699 515.928,378.489 515.73,378.489 515.73,378.28 515.73,378.083 515.547,378.083 515.35,378.083 515.35,377.874 
	515.152,377.874 515.152,377.763 515.152,377.554 515.152,377.345 515.152,377.147 514.967,377.147 514.967,376.938 514.77,376.938 
	514.77,376.729 514.77,376.518 514.572,376.518 514.572,376.309 514.572,376.099 514.572,375.89 514.389,375.89 514.289,375.89 
	514.289,375.681 514.092,375.681 514.092,375.471 514.092,375.261 513.908,375.261 513.908,375.051 513.908,374.854 
	513.809,374.854 513.809,374.645 513.809,374.435 513.809,374.226 513.809,374.017 514.092,373.807 514.006,373.807 
	514.006,373.708 514.006,373.499 514.006,373.179 514.189,372.97 514.189,372.87 514.189,372.661 514.189,372.452 514.189,372.243 
	514.006,372.243 513.908,372.243 513.908,372.033 513.809,372.033 513.809,371.935 513.809,371.726 513.711,371.726 
	513.525,371.726 513.525,371.516 513.426,371.516 513.426,371.208 513.426,370.999 513.328,370.999 513.328,370.789 
	513.328,370.579 513.328,370.37 513.328,370.271 513.426,370.161 513.711,369.952 513.711,369.853 513.809,369.644 513.809,369.433 
	513.908,369.224 513.908,369.015 513.908,368.805 513.908,368.596 513.908,368.497 513.908,368.288 513.809,368.288 
	513.809,368.188 513.809,367.979 513.809,367.771 514.006,367.448 513.908,367.448 513.908,367.239 513.908,367.042 
	513.908,366.722 513.908,366.513 513.908,366.304 513.908,366.094 514.006,365.896 514.006,365.687 514.006,365.478 
	514.006,365.269 514.006,364.948 513.809,364.751 513.809,364.542 513.809,364.333 513.809,364.123 513.809,364.013 
	513.908,363.815 514.092,363.815 514.189,363.704 514.189,363.495 514.289,363.286 514.289,363.076 514.289,362.978 
	514.289,362.769 514.289,362.559 514.572,362.349 514.572,362.139 514.67,361.93 514.67,361.72 514.77,361.522 514.77,361.412 
	514.867,361.202 514.867,360.993 515.152,360.685 515.152,360.475 515.25,360.265 515.25,360.056 515.547,359.847 515.547,359.638 
	515.633,359.428 515.633,359.23 515.633,359.021 515.73,358.812 515.633,358.812 515.633,358.603 515.633,358.394 515.633,358.184 
	515.73,358.085 515.547,358.085 "/>
<polyline fill="none" stroke="#9B9B9B" stroke-width="2" stroke-linejoin="round" stroke-miterlimit="10" points="449.848,369.964 
	451.412,368.706 451.412,366.401 452.152,365.675 454.135,365.885 457.475,367.338 458.006,366.192 457.166,364.838 
	457.475,363.888 459.471,362.114 463.229,363.161 465.324,361.904 466.889,363.371 470.549,362.323 471.176,363.791 
	470.129,365.257 468.256,368.176 468.256,368.915 469.291,369.644 477.029,366.611 479.85,368.176 480.59,367.338 479.85,365.675 
	480.061,364.628 485.088,365.675 486.023,366.401 487.49,366.192 489.475,368.915 491.779,373.931 490.213,375.188 488.957,377.59 
	487.588,378.009 486.555,380.411 482.684,382.297 481.219,381.46 480.17,383.134 480.17,383.554 479.123,383.554 476.93,383.554 
	474.947,385.007 473.58,384.181 472.016,385.328 467.727,387.103 464.178,384.28 463.857,386.585 465.213,389.825 461.973,391.082 
	460.311,393.485 456.957,394.212 455.283,394.95 451.832,394.95 449.43,397.243 443.256,399.437 440.225,401.641 438.771,403.095 
	441.594,407.702 439.598,409.38 437.307,409.269 434.582,404.353 435.111,400.804 435.111,399.128 437.096,395.887 439.598,395.259 
	439.387,393.583 442.012,392.536 442.32,389.615 446.818,386.055 446.607,381.46 449.959,376.962 449.848,375.286 450.994,373.622 
	449.848,369.964 "/>
<polyline fill="none" stroke="#9B9B9B" stroke-width="2" stroke-linejoin="round" stroke-miterlimit="10" points="392.109,373.55 
	394.6,373.759 397.285,371.294 398.432,371.911 403.717,374.067 404.555,373.55 404.766,371.812 405.799,370.888 413.057,366.169 
	414.301,367.61 418.762,368.94 421.25,365.762 422.396,366.477 424.158,366.477 424.158,365.552 426.537,364.739 426.537,364.123 
	427.373,363.089 427.891,363.198 430.27,361.042 432.24,361.449 434.113,358.997 434.939,361.042 435.777,360.833 438.783,358.073 
	439.398,358.172 440.854,357.457 443.244,358.172 443.244,360.833 445.217,361.252 444.699,363.913 442.936,366.687 
	442.098,369.138 442.936,369.138 444.895,367.191 446.768,371.085 448.111,370.173 449.564,370.173 450.711,373.759 
	449.564,375.397 449.676,377.036 446.35,381.446 446.559,385.956 442.098,389.443 441.791,392.313 439.189,393.337 439.398,394.975 
	436.91,395.591 434.939,398.77 430.072,399.386 427.373,397.438 424.773,396.417 421.879,399.077 419.279,399.287 416.371,399.386 
	410.359,395.997 409.225,393.028 410.777,389.96 408.904,388.618 406.625,388.618 406.107,388.112 403.717,388.618 401.129,386.979 
	402.066,384.219 404.037,384.108 404.766,383.491 405.381,381.138 404.555,379.809 397.914,378.577 396.879,376.729 
	394.908,376.729 393.244,376.729 391.9,374.572 392.109,373.55 "/>
<polyline fill="none" stroke="#9B9B9B" stroke-width="2" stroke-linejoin="round" stroke-miterlimit="10" points="479.174,363.827 
	480.332,356.915 481.477,355.067 481.896,353.095 483.473,350.31 482.635,349.177 482.846,346.811 486.086,343.09 485.777,340.725 
	488.082,337.114 490.176,337.62 494.477,334.638 495.203,332.987 497.717,333.505 499.084,336.794 500.23,339.271 502.855,339.271 
	504.74,337.114 507.143,339.591 511.443,337.94 508.721,344.532 507.143,343.706 505.998,344.224 505.885,344.852 507.352,346.503 
	507.045,352.479 507.352,354.438 507.045,354.956 505.258,354.55 504.111,355.683 504.838,357.224 502.744,359.293 503.162,360.118 
	500.971,361.153 501.277,362.804 500.648,363.519 497.717,363.519 496.152,364.862 495.943,365.38 497.297,366.304 495.832,368.57 
	493.848,371.159 493.01,370.851 490.916,373.019 488.6,368.065 486.615,365.38 485.148,365.589 484.201,364.862 479.174,363.827 "/>
<polyline fill="none" stroke="#9B9B9B" stroke-width="2" stroke-linejoin="round" stroke-miterlimit="10" points="460.162,330.917 
	462.49,335.401 462.799,337.693 461.541,339.985 459.742,341.341 459.436,345.505 459.953,346.134 460.9,345.714 461.541,346.134 
	461.541,348.845 462.799,351.974 464.166,352.491 464.277,357.074 463.439,360.205 464.277,361.671 465.854,363.124 
	469.551,362.077 470.18,363.543 469.119,364.997 467.221,367.918 467.221,368.646 468.281,369.384 476.08,366.353 478.926,367.918 
	479.666,367.081 478.926,365.417 479.137,364.382 480.295,357.395 481.451,355.511 481.871,353.539 483.449,350.716 
	482.611,349.571 482.82,347.181 486.086,343.422 485.777,341.032 488.094,337.386 490.201,337.903 494.514,334.872 495.252,333.209 
	492.518,328.206 490.83,325.705 491.889,324.46 490.41,323.104 486.197,323.104 484.508,321.22 481.242,324.349 479.975,323.832 
	481.451,321.33 481.242,320.493 479.975,320.185 476.08,322.267 473.123,323.302 470.598,323.104 465.016,327.996 462.17,328.933 
	460.162,330.917 "/>
<polyline fill="none" stroke="#9B9B9B" stroke-width="2" stroke-linejoin="round" stroke-miterlimit="10" points="460.555,331.385 
	458.781,331.064 458.055,329.919 458.055,327.109 457.006,325.864 455.123,327.737 454.283,329.094 452.83,329.094 452.51,326.912 
	450.734,327.43 448.443,329.094 446.768,328.156 443.736,326.073 434.854,325.445 433.918,326.382 435.801,328.464 433.609,329.919 
	430.258,328.464 426.818,331.385 425.662,334.194 425.982,340.429 427.547,347.292 423.789,351.357 424.207,351.974 
	427.547,350.938 428.803,352.505 427.854,357.284 429.74,360.821 431.725,361.239 433.609,358.738 434.447,360.821 435.271,360.612 
	438.303,357.802 438.932,357.913 440.398,357.173 442.801,357.913 442.801,360.612 444.783,361.03 444.254,363.729 442.48,366.538 
	441.654,369.04 442.48,369.04 444.465,367.067 446.35,371.011 447.705,370.074 449.172,370.074 450.734,368.83 450.734,366.538 
	451.463,365.81 453.459,366.02 456.797,367.474 457.314,366.327 456.477,364.984 456.797,364.048 458.781,362.274 462.539,363.321 
	464.635,362.065 463.797,360.612 464.635,357.493 464.523,352.911 463.168,352.394 461.912,349.274 461.912,346.565 
	461.283,346.158 460.346,346.565 459.828,345.948 460.137,341.783 461.912,340.429 463.168,338.138 462.859,335.857 
	460.555,331.385 "/>
<polyline fill="none" stroke="#9B9B9B" stroke-width="2" stroke-linejoin="round" stroke-miterlimit="10" points="396.779,347.698 
	395.744,350.778 393.787,351.396 389.572,350.778 388.746,351.802 386.381,350.976 384.324,353.958 385.26,354.771 385.26,356.718 
	386.283,358.356 390.398,357.137 391.729,358.159 389.781,366.157 392.246,368.62 391.531,373.228 393.996,373.438 396.67,370.974 
	397.803,371.589 403.051,373.745 403.877,373.228 404.074,371.491 405.109,370.567 412.305,365.849 413.537,367.276 417.961,368.62 
	420.438,365.442 421.57,366.157 423.309,366.157 423.309,365.232 425.674,364.407 425.674,363.791 426.5,362.769 427.018,362.879 
	429.383,360.723 427.533,357.235 428.459,352.517 427.227,350.976 423.936,351.999 423.518,351.396 427.227,347.391 
	425.674,340.626 423.111,342.573 420.844,340.22 418.688,337.349 418.576,335.599 417.037,335.39 415.287,335.907 412.516,334.575 
	411.074,337.755 408.609,338.063 406.957,340.626 405.725,340.22 404.074,340.626 401.4,339.085 399.244,341.648 399.244,342.671 
	403.457,344.927 404.492,346.676 401.4,347.798 396.779,347.698 "/>
<polyline fill="none" stroke="#9B9B9B" stroke-width="2" stroke-linejoin="round" stroke-miterlimit="10" points="511.406,337.632 
	507.191,339.282 504.826,336.807 502.979,338.976 500.404,338.976 499.27,336.486 497.939,333.184 495.475,332.666 492.801,327.712 
	491.148,325.235 492.184,324.004 492.801,323.486 495.572,319.557 495.475,316.255 496.398,314.911 498.555,314.505 499.27,313.567 
	498.457,312.016 499.576,310.574 499.576,307.481 501.131,306.754 503.791,308.405 507.082,308.923 509.25,306.347 511.813,308.614 
	510.68,309.439 509.348,311.511 507.191,312.016 506.465,312.644 508.424,313.876 512.33,312.016 518.602,314.702 519.217,320.074 
	516.742,320.074 516.545,321.626 517.875,323.894 516.742,325.235 517.986,327.404 515.928,329.882 515.004,328.538 
	511.912,336.486 511.406,337.632 "/>
<polyline fill="none" stroke="#9B9B9B" stroke-width="2" stroke-linejoin="round" stroke-miterlimit="10" points="471.127,282.087 
	472.385,281.779 476.686,283.454 478.68,285.464 482.031,286.399 483.498,287.558 485.383,287.249 485.803,287.976 485.174,292.189 
	486.947,293.14 487.996,294.716 490.83,295.345 491.875,293.447 493.65,293.558 494.908,295.136 494.697,296.601 491.137,297.021 
	491.137,298.499 491.137,299.657 489.783,301.122 490.83,302.812 493.65,304.905 493.859,307.224 499.627,307.753 499.627,310.906 
	498.48,312.373 499.318,313.949 498.58,314.899 496.373,315.317 495.438,316.686 495.537,320.049 492.715,324.054 492.086,324.571 
	490.619,323.204 486.43,323.204 484.756,321.318 481.502,324.474 480.246,323.942 481.711,321.417 481.502,320.579 480.246,320.259 
	476.377,322.365 472.705,315.317 473.863,313.223 473.541,312.373 471.658,311.856 468.305,309.847 469.662,307.224 
	471.658,306.274 471.965,304.068 471.336,300.175 470.918,299.756 468.936,301.752 466.002,299.448 463.797,296.713 
	466.002,295.136 466.631,292.497 467.887,291.45 467.678,287.767 468.613,287.138 470.4,288.185 471.658,289.665 473.863,288.185 
	474.701,287.249 474.281,285.464 471.658,283.886 471.127,282.087 "/>
<polyline fill="none" stroke="#9B9B9B" stroke-width="2" stroke-linejoin="round" stroke-miterlimit="10" points="511.135,302.196 
	510.113,304.942 508.967,306.458 506.797,309.009 503.496,308.503 500.797,306.864 499.256,307.579 493.564,307.074 
	493.355,304.833 490.57,302.799 489.535,301.173 490.879,299.743 490.879,298.634 490.879,297.205 494.389,296.798 494.6,295.368 
	493.355,293.842 491.605,293.743 490.57,295.578 487.773,294.962 486.752,293.435 484.988,292.522 485.605,288.457 485.197,287.743 
	483.338,288.05 481.885,286.929 478.582,286.005 476.609,284.083 472.385,282.444 472.691,280.51 474.441,279.808 477.547,282.444 
	478.582,282.444 481.367,282.038 483.029,280.817 485.297,282.556 486.234,280.917 486.639,279.907 488.5,278.884 489.018,276.653 
	490.879,276.247 495.734,279.401 499.047,280.817 505.664,291.5 505.355,292.622 509.791,294.653 511.037,296.392 512.996,297.402 
	514.031,299.337 512.59,299.854 510.42,299.238 507.314,299.238 504.531,298.216 503.176,299.238 505.973,299.854 508.449,300.964 
	511.135,302.196 "/>
<polyline fill="none" stroke="#9B9B9B" stroke-width="2" stroke-linejoin="round" stroke-miterlimit="10" points="430.184,286.671 
	429.248,284.415 431.01,278.551 428.52,267.252 430.184,264.479 431.01,261.917 428.729,257.296 430.799,254.007 431.119,251.024 
	432.254,248.771 432.154,245.997 431.119,245.271 429.666,247.021 425.613,247.119 423.541,250.31 423.752,251.949 423.332,253.083 
	421.67,253.601 415.336,262.632 414.609,262.126 412.748,261.511 409.113,261.917 407.869,263.457 407.758,267.153 408.275,268.287 
	414.609,271.367 417.824,273.425 418.244,275.372 416.691,277.737 417.627,280.608 417,281.938 412.428,282.247 411.504,282.974 
	411.813,283.688 411.813,284.921 408.178,285.438 406.207,284.415 403.717,284.415 403.408,284.921 403.717,286.264 402.57,287.692 
	402.264,289.135 404.543,290.983 402.781,294.47 403.508,296.12 403.408,297.045 400.711,297.045 398.727,297.87 400.293,300.026 
	399.256,302.688 400.908,302.996 401.117,304.745 402.473,304.845 407.352,303.921 408.275,304.339 408.596,305.67 410.666,306.187 
	415.029,308.442 417.627,307.419 422.914,309.366 424.158,310.906 426.758,310.192 426.449,307.419 425.92,306.594 426.449,304.339 
	429.248,302.996 430.072,301.874 428.52,301.259 426.758,300.84 424.996,299.201 425.92,298.486 431.637,298.486 432.881,298.486 
	433.707,299.103 435.371,297.661 435.371,295.394 430.184,287.692 430.184,286.671 "/>
<polyline fill="none" stroke="#9B9B9B" stroke-width="2" stroke-linejoin="round" stroke-miterlimit="10" points="430.344,286.179 
	435.975,284.737 442.85,280.005 447.852,278.983 451.5,276.112 452.018,269.839 450.145,267.683 450.76,265.737 452.018,263.986 
	452.324,261.425 453.471,259.465 451.5,255.669 448.789,252.589 450.354,247.759 453.68,245.505 454.309,242.424 452.854,239.541 
	452.854,236.054 450.76,234.206 445.867,236.67 445.031,235.956 442.32,237.692 440.238,237.595 435.975,243.656 434.508,243.656 
	432.328,245.505 432.426,248.276 431.279,250.532 430.973,253.513 428.891,256.804 431.182,261.425 430.344,263.986 
	428.682,266.759 431.182,278.059 429.408,283.911 430.344,286.179 "/>
<polyline fill="none" stroke="#9B9B9B" stroke-width="2" stroke-linejoin="round" stroke-miterlimit="10" points="471.879,282.469 
	472.199,280.484 473.998,279.758 477.164,282.469 478.225,282.469 481.082,282.05 482.771,280.806 485.1,282.567 486.049,280.904 
	486.467,279.868 488.365,278.821 488.895,276.542 490.805,276.124 496.301,267.067 495.24,265.515 496.301,264.579 497.457,264.997 
	499.146,264.062 500.207,261.978 504.752,257.813 508.238,256.669 509.828,255.214 509.398,251.888 507.082,251.679 
	501.795,252.307 498.1,250.644 495.869,250.952 490.484,257.813 488.895,258.75 485.406,257.296 485.1,255.521 484.348,252.516 
	482.451,251.26 479.283,251.986 477.275,250.741 474.416,254.277 471.25,255.214 467.023,259.058 462.268,267.388 463.537,269.778 
	463.217,270.714 463.217,271.859 463.957,272.797 465.434,271.649 467.973,271.022 461.209,278.612 461.209,280.288 
	462.588,280.806 465.645,283.405 470.609,282.776 471.879,282.469 "/>
<polyline opacity="0.298" fill="#FFFFFF" enable-background="new    " points="475.305,246.849 473.369,247.772 470.068,246.75 
	469.883,245.825 469.783,239.812 471.902,238.69 471.533,237.57 472.088,235.327 472.273,234.206 473.469,234.821 474.01,236.855 
	473.738,238.187 476.215,240.021 476.5,241.45 475.119,242.671 474.65,245.123 475.305,246.849 "/>
<polyline fill="none" stroke="#9B9B9B" stroke-width="2" stroke-linejoin="round" stroke-miterlimit="10" points="475.305,246.849 
	473.369,247.772 470.068,246.75 469.883,245.825 469.783,239.812 471.902,238.69 471.533,237.57 472.088,235.327 472.273,234.206 
	473.469,234.821 474.01,236.855 473.738,238.187 476.215,240.021 476.5,241.45 475.119,242.671 474.65,245.123 475.305,246.849 "/>
<polyline opacity="0.298" fill="#FFFFFF" enable-background="new    " points="469.6,239.665 470.523,237.864 471.447,237.864 
	472.385,235.155 472.385,234.255 471.447,231.546 470.523,231.546 465.904,228.847 463.131,231.546 462.207,234.255 
	459.436,236.966 459.436,239.665 460.359,241.476 463.131,240.563 465.904,241.476 466.828,240.563 469.6,239.665 "/>
<polyline fill="none" stroke="#9B9B9B" stroke-width="2" stroke-linejoin="round" stroke-miterlimit="10" points="469.6,239.665 
	470.523,237.864 471.447,237.864 472.385,235.155 472.385,234.255 471.447,231.546 470.523,231.546 465.904,228.847 
	463.131,231.546 462.207,234.255 459.436,236.966 459.436,239.665 460.359,241.476 463.131,240.563 465.904,241.476 
	466.828,240.563 469.6,239.665 "/>
<polyline fill="none" stroke="#9B9B9B" stroke-width="2" stroke-linejoin="round" stroke-miterlimit="10" points="407.672,267.277 
	407.77,263.542 408.99,261.99 408.484,260.217 402.473,257.839 402.781,255.35 404.715,252.749 403.496,248.499 403.088,247.871 
	399.01,250.667 397.188,256.692 396.473,261.054 393.318,263.542 391.482,264.369 389.35,264.997 394.328,271.33 395.449,276.099 
	394.846,278.391 398.406,280.251 398.406,281.815 401.561,282.543 402.584,282.543 402.584,279.845 405.123,279.524 
	405.627,276.308 403.902,274.965 402.584,273.61 403.188,267.388 404.506,266.759 406.748,267.696 407.672,267.277 "/>
<polyline fill="none" stroke="#9B9B9B" stroke-width="2" stroke-linejoin="round" stroke-miterlimit="10" points="288.809,340.491 
	293.367,341.009 294.92,343.165 295.744,343.473 302.582,342.339 303.1,341.009 304.234,340.38 307.549,337.706 310.445,337.397 
	313.043,335.647 318.219,332.863 318.736,333.788 322.668,334.921 328.162,332.038 330.023,333.282 328.371,335.647 
	328.986,336.165 331.268,336.165 331.477,337.089 329.617,340.491 330.133,341.009 331.268,341.009 336.861,342.548 
	339.238,340.491 342.973,343.374 344.105,342.031 345.043,342.955 346.287,342.955 346.805,342.031 346.596,337.706 
	347.422,337.089 349.91,334.306 349.393,323.289 347.322,317.721 348.875,316.587 344.428,308.554 339.141,304.327 337.588,305.362 
	337.797,307.728 333.129,313.704 325.574,312.163 325.057,309.268 320.191,305.46 309.619,303.81 305.17,303.095 303.297,302.786 
	299.367,299.694 291.086,297.734 285.285,286.72 285.076,283.628 287.564,282.493 287.564,279.093 289.215,274.866 287.256,272.907 
	289.732,270.851 288.18,269.926 284.459,269.926 277.619,266.931 273.16,266.931 269.746,267.757 265.914,267.757 259.902,271.06 
	255.035,270.542 250.28,272.192 246.446,270.851 243.958,268.792 237.537,267.757 233.393,270.641 231.116,269.815 229.148,268.274 
	224.487,267.142 221.276,269.408 220.035,272.907 217.34,274.349 216.823,276.407 215.166,276.924 213.301,276.827 212.473,278.269 
	212.163,280.325 211.23,280.325 211.126,282.493 213.405,284.761 213.611,288.05 212.784,289.294 209.469,289.701 207.605,287.952 
	205.948,288.05 205.637,289.492 206.673,291.968 206.984,293.718 206.984,295.985 206.362,297.637 206.673,298.771 208.746,299.078 
	210.09,301.136 215.166,305.152 215.166,306.385 219.1,310.612 220.241,312.163 221.483,312.57 223.762,310.205 225.834,312.163 
	234.637,319.581 236.19,323.486 238.158,323.486 239.298,322.255 240.23,323.289 240.23,326.579 245.409,329.573 246.546,329.153 
	247.272,332.038 251.722,334.724 251.831,336.362 252.656,336.88 256.488,336.671 258.559,336.671 261.664,338.938 268.502,338.841 
	272.234,338.532 273.16,340.072 272.334,343.374 273.369,344.507 277.102,341.316 281.871,337.916 285.285,338.434 288.809,340.491 
	"/>
<polyline fill="none" stroke="#9B9B9B" stroke-width="2" stroke-linejoin="round" stroke-miterlimit="10" points="396.645,346.798 
	396.127,344.815 394.365,344.188 391.58,345.961 389.609,345.024 389.398,342.523 388.574,341.364 388.574,340.01 385.777,339.492 
	385.051,340.12 385.568,342.104 383.287,343.04 382.77,344.507 383.287,346.171 378.631,351.715 379.357,358.394 377.078,360.278 
	375.945,359.021 371.287,361.731 369.623,360.796 362.896,347.845 360.309,345.961 358.139,345.333 357.105,343.67 358.35,341.685 
	356.379,340.12 354.1,342.104 351.721,342.523 350.268,335.413 349.959,333.849 347.469,336.671 346.645,337.3 346.854,341.685 
	346.336,342.622 345.092,342.622 344.168,341.685 343.021,343.04 344.168,347.944 345.51,347.944 346.645,348.894 346.951,351.925 
	346.434,362.571 339.191,369.052 338.883,371.552 337.539,372.81 337.23,374.067 338.477,377.306 337.539,379.599 338.057,379.919 
	341.68,378.872 346.854,378.552 346.336,380.646 347.16,382.629 347.469,385.45 348.197,386.499 351.203,386.708 352.658,387.645 
	351.105,389.528 350.896,391.933 349.65,394.544 350.477,395.479 352.447,395.689 355.65,396.946 355.244,398.093 357.412,401.333 
	360.42,401.333 364.252,399.14 365.484,399.769 365.484,401.123 365.902,402.997 366.938,404.045 369.008,403.737 369.734,404.155 
	370.561,403.527 370.561,400.495 369.217,394.643 370.252,392.968 373.357,392.968 374.184,392.968 375.945,390.983 380.504,392.45 
	382.363,390.675 383.287,391.724 385.26,390.466 387.021,392.241 387.748,392.241 388.365,391.304 389.916,389.837 390.545,390.257 
	392.715,389.948 394.883,388.161 396.547,385.55 399.023,385.143 400.377,386.499 401.301,383.676 403.273,383.565 404,382.949 
	404.617,380.548 403.791,379.179 397.162,377.935 396.127,376.05 394.168,376.05 392.504,376.05 391.162,373.857 391.371,372.81 
	392.098,368.115 389.609,365.601 391.58,357.457 390.225,356.41 386.086,357.667 385.051,355.991 385.051,354.006 384.127,353.169 
	386.195,350.139 388.574,350.976 389.398,349.929 393.65,350.558 395.609,349.929 396.645,346.798 "/>
<polyline fill="none" stroke="#9B9B9B" stroke-width="2" stroke-linejoin="round" stroke-miterlimit="10" points="289.029,270.05 
	292.086,271.207 297.445,269.531 296.607,268.583 295.338,268.583 294.6,266.907 295.129,265.54 297.543,264.491 299.441,261.658 
	293.969,257.148 293.662,252.429 296.189,250.446 314.055,247.082 315.322,246.146 317.949,246.354 326.992,248.448 
	329.518,250.125 333.621,252.429 336.035,252.331 339.93,250.027 344.969,250.655 348.334,248.968 355.17,253.267 358.744,251.911 
	360.754,256.521 365.484,259.465 368.848,262.495 371.361,261.658 376.314,267.954 377.25,272.144 379.037,274.558 378.41,279.388 
	374.527,282.419 375.254,284.415 373.789,285.882 371.791,287.78 371.791,291.021 370.105,292.485 367.996,291.759 366.113,289.974 
	365.164,291.968 366.322,293.755 369.477,293.964 372.309,296.995 374.207,296.995 375.465,298.474 374.307,301.197 
	374.307,301.407 371.791,301.087 370.105,302.454 368.848,300.458 365.902,301.616 364.953,303.083 364.953,305.497 
	361.898,306.126 358.018,302.244 356.859,300.36 353.803,301.197 348.555,299.731 340.656,300.878 339.93,301.616 339.191,304.13 
	337.611,305.178 337.822,307.591 333.09,313.679 325.414,312.101 324.885,309.17 319.943,305.288 309.225,303.612 304.703,302.874 
	302.805,302.565 298.813,299.411 290.396,297.427 284.508,286.202 284.299,283.061 286.824,281.901 286.824,278.44 288.512,274.14 
	286.504,272.144 289.029,270.05 "/>
<polyline fill="none" stroke="#9B9B9B" stroke-width="2" stroke-linejoin="round" stroke-miterlimit="10" points="373.801,300.755 
	374.688,298.019 373.801,297.106 373.801,294.359 378.248,292.536 380.035,292.536 380.035,294.359 380.934,296.183 
	382.709,298.019 386.283,300.755 388.068,299.843 388.957,300.755 388.957,304.4 391.631,305.313 396.09,306.225 396.988,305.313 
	396.988,303.489 399.662,302.577 401.449,303.489 401.449,305.313 403.225,305.313 407.686,304.4 408.584,304.4 409.471,306.225 
	411.258,306.225 415.719,308.973 418.393,308.061 421.064,309.884 419.291,309.884 420.178,309.884 419.291,310.796 
	419.291,312.618 418.393,314.442 417.504,316.267 417.504,318.09 414.832,319.002 413.932,319.927 413.045,320.837 412.145,322.661 
	410.371,324.485 409.471,325.397 406.797,325.397 405.01,323.573 403.225,324.485 401.449,322.661 398.775,323.573 398.775,325.397 
	398.775,327.22 398.775,328.131 397.877,329.043 396.09,330.867 398.775,332.704 401.449,335.438 402.336,335.438 402.336,337.261 
	401.449,338.173 399.662,340.909 399.662,341.821 404.123,344.569 405.01,346.392 401.449,347.304 396.988,347.304 396.988,344.569 
	395.203,344.569 391.631,346.392 389.855,345.479 389.855,342.746 388.957,341.821 388.957,339.997 386.283,339.997 
	385.395,339.997 386.283,342.746 383.607,343.657 382.709,344.569 383.607,346.392 379.148,351.862 380.035,358.259 
	377.361,360.081 376.475,359.171 371.115,361.904 370.227,360.993 363.094,348.216 360.42,346.392 357.732,345.479 356.848,343.657 
	358.633,341.821 355.959,339.997 354.172,342.746 351.498,342.746 350.6,335.438 349.713,334.528 349.713,322.661 347.039,317.179 
	348.824,316.267 344.365,308.061 339.006,303.489 339.906,301.665 340.791,300.755 347.926,299.843 353.273,300.755 
	356.848,299.843 357.732,301.665 361.307,306.225 364.881,305.313 364.881,302.577 365.768,301.665 368.441,300.755 
	370.227,302.577 371.115,300.755 373.801,301.665 373.801,300.755 "/>
<polyline fill="none" stroke="#9B9B9B" stroke-width="2" stroke-linejoin="round" stroke-miterlimit="10" points="318.576,246.86 
	317.641,235.819 318.158,233.43 321.471,231.964 326.031,228.106 333.066,225.199 336.17,223.942 336.17,221.132 337.316,219.679 
	338.549,219.777 343.318,220.614 343.01,222.698 344.045,225.927 343.416,231.335 347.457,237.274 349.527,238.63 352.939,236.128 
	359.68,236.128 361.43,236.757 362.465,238.322 361.639,239.985 357.807,243.212 358.227,244.679 362.674,248.006 364.338,248.006 
	364.855,248.634 364.535,250.087 367.234,252.171 373.555,253.218 376.549,252.38 380.381,248.523 385.037,248.843 386.898,251.752 
	385.863,254.364 386.074,256.026 383.596,257.593 382.451,258.947 382.967,262.176 387.318,265.194 389.289,264.887 
	394.354,271.231 395.498,276.024 394.871,278.315 398.494,280.189 398.494,281.755 401.709,282.481 402.744,282.481 
	402.744,279.782 405.332,279.463 405.85,276.234 404.086,274.88 402.744,273.523 403.359,267.277 404.715,266.647 406.982,267.598 
	407.918,267.179 408.436,268.324 414.756,271.44 417.961,273.523 418.379,275.508 416.828,277.909 417.752,280.817 417.135,282.174 
	412.576,282.481 411.652,283.221 411.961,283.947 411.961,285.191 408.338,285.722 406.367,284.675 403.877,284.675 
	403.568,285.191 403.877,286.548 402.744,288.013 402.436,289.468 404.715,291.341 402.953,294.889 403.68,296.553 403.568,297.489 
	400.883,297.489 398.912,298.326 400.465,300.507 399.43,303.219 396.533,303.847 396.842,305.3 396.016,306.236 391.148,305.817 
	389.289,304.463 388.869,301.345 387.625,300.198 385.975,301.345 382.967,298.326 380.59,296.651 380.381,294.47 379.654,292.794 
	378.41,292.794 373.652,294.889 373.961,297.181 372.1,297.181 369.303,294.149 366.199,293.94 365.066,292.178 365.99,290.194 
	367.85,291.968 369.92,292.694 371.582,291.241 371.582,288.013 373.555,286.128 374.996,284.675 374.268,282.69 378.102,279.673 
	378.73,274.88 376.967,272.489 376.031,268.324 371.164,262.065 368.688,262.902 365.373,259.885 360.715,256.963 358.744,252.38 
	355.221,253.735 348.492,249.46 345.178,251.136 340.213,250.507 336.379,252.8 334.002,252.897 329.961,250.604 327.473,248.942 
	318.576,246.86 "/>
<polyline fill="none" stroke="#9B9B9B" stroke-width="2" stroke-linejoin="round" stroke-miterlimit="10" points="463.992,269.778 
	464.314,268.866 463.057,266.5 467.764,258.306 471.939,254.513 475.082,253.588 477.904,250.112 476.857,249.386 475.811,246.725 
	473.617,247.648 469.859,246.626 469.648,245.702 469.537,239.651 467.555,240.479 466.408,241.5 463.992,240.884 460.543,241.29 
	460.025,239.862 460.346,236.991 462.848,234.12 463.377,231.052 465.988,228.588 470.475,230.941 471.521,230.941 472.359,234.021 
	473.715,234.638 474.344,236.683 474.035,238.015 476.857,239.862 477.164,241.29 479.58,242.424 485.113,239.344 485.113,237.509 
	488.463,232.888 486.061,229.61 484.273,229.512 481.145,227.355 482.191,224.078 477.164,223.561 475.082,220.394 475.291,218.755 
	471.104,214.134 468.281,215.465 465.988,217.72 466.828,219.47 466.199,220.591 462.848,220.702 461.283,222.131 460.025,221.614 
	458.67,222.956 455.527,225.101 454.174,224.177 454.174,221.108 453.027,220.591 451.352,221.207 449.158,225.717 448.42,229.919 
	450.932,234.021 453.027,235.858 453.027,239.344 454.48,242.215 453.865,245.295 450.514,247.55 448.949,252.368 451.66,255.437 
	453.656,259.229 452.496,261.177 452.189,263.739 450.932,265.478 450.305,267.425 452.189,269.581 459.816,270.603 
	462.848,269.371 463.992,269.778 "/>
<polyline fill="none" stroke="#9B9B9B" stroke-width="2" stroke-linejoin="round" stroke-miterlimit="10" points="389.338,264.924 
	391.494,264.308 393.354,263.47 396.559,260.968 397.273,256.606 399.133,250.569 403.26,247.759 403.668,248.376 404.912,252.65 
	402.953,255.251 402.645,257.753 408.732,260.142 409.25,261.905 412.859,261.498 414.707,262.114 415.436,262.632 421.73,253.476 
	423.381,252.958 423.789,251.813 423.578,250.15 425.648,246.922 429.666,246.823 431.119,245.048 432.143,245.774 434.311,243.903 
	435.752,243.903 439.992,237.767 442.049,237.864 444.734,236.104 445.561,236.83 450.402,234.329 447.926,230.164 448.654,225.901 
	450.822,221.329 452.473,220.702 453.605,221.22 453.605,224.337 454.949,225.286 458.041,223.093 459.385,221.736 460.617,222.266 
	462.17,220.8 465.471,220.702 466.088,219.556 465.262,217.781 467.529,215.503 470.314,214.146 474.441,218.829 474.244,220.492 
	476.303,223.721 481.256,224.237 482.389,221.847 481.047,215.083 482.291,213.826 484.559,215.503 486.518,218.62 489.918,213.629 
	491.471,213.1 493.947,210.71 495.08,210.71 497.039,208.627 498.271,208.627 499.416,206.655 502.398,206.655 505.086,203.944 
	506.428,202.591 506.428,201.136 504.359,199.892 504.359,197.081 500.342,192.079 496.521,195.727 495.389,194.79 495.18,192.807 
	493.738,190.415 493.221,187.816 493.221,185.118 490.533,183.134 490.225,182.099 490.951,180.424 495.906,181.89 496.213,179.599 
	497.865,177.417 496.73,176.271 496.941,174.077 499.416,173.043 499.922,172.315 499.516,171.479 496.941,172.315 492.184,168.878 
	491.988,167.94 494.254,165.022 498.998,157.851 499.416,157.013 500.131,157.013 501.686,158.996 501.992,159.304 502.301,150.358 
	503.854,149.521 503.854,146.084 503.336,140.464 505.295,132.764 499.516,128.401 495.18,132.037 492.912,132.456 491.779,133.603 
	487.959,132.974 486.098,130.793 484.965,127.466 485.074,126.11 482.082,124.127 480.332,126.937 477.029,124.966 476.512,124.446 
	478.471,119.347 476.918,117.265 475.576,117.265 472.076,119.765 469.291,123.917 470.523,124.657 472.594,124.966 
	474.244,129.338 473.209,131.101 471.559,133.603 468.564,145.146 469.697,147.131 468.773,148.795 461.652,153.994 
	457.832,153.267 455.664,152.44 455.467,153.574 452.361,166.069 450.822,167.633 451.646,169.814 453.396,171.479 456.6,169.814 
	461.861,170.122 463.303,167.633 466.088,167.005 471.141,168.878 477.535,175.544 477.535,176.888 476.094,177.823 
	468.871,178.144 466.506,180.116 464.646,179.906 463.303,182.099 459.693,182.825 457.523,186.251 457.117,188.753 
	452.164,192.079 448.961,192.289 445.658,197.081 442.357,199.053 436.172,197.599 434.102,196.663 431.625,199.163 
	430.393,203.637 433.793,208.627 431.625,210.919 428.533,212.792 423.998,218.62 417.912,221.22 408.313,222.266 406.871,222.057 
	395.523,226.839 390.361,230.164 388.92,229.339 388.402,227.774 381.49,227.355 373.443,224.965 371.273,222.464 359.717,221.12 
	357.561,222.057 343.527,220.702 343.219,222.784 344.242,226.013 343.625,231.421 347.654,237.348 349.713,238.704 
	353.125,236.202 359.828,236.202 361.578,236.83 362.613,238.396 361.787,240.059 357.967,243.286 358.387,244.74 362.822,248.067 
	364.473,248.067 364.979,248.696 364.67,250.15 367.357,252.231 373.652,253.267 376.646,252.441 380.453,248.585 385.1,248.906 
	386.961,251.813 385.926,254.413 386.135,256.076 383.658,257.642 382.525,258.997 383.043,262.226 387.367,265.243 
	389.338,264.924 "/>
<polyline fill="none" stroke="#9B9B9B" stroke-width="2" stroke-linejoin="round" stroke-miterlimit="10" points="516.039,228.798 
	520.572,222.254 523.42,218.878 523.1,215.811 520.043,212.335 519.625,209.576 514.043,202.108 513.82,202.923 512.662,204.056 
	510.248,201.493 506.969,200.47 506.76,201.493 506.76,202.923 505.393,204.253 502.645,206.915 499.59,206.915 498.432,208.861 
	497.176,208.861 495.166,210.907 494.008,210.907 491.482,213.247 489.893,213.765 486.418,218.668 484.41,215.601 482.094,213.962 
	480.824,215.194 482.205,221.835 481.033,224.188 479.986,227.466 483.154,229.61 484.939,229.709 487.367,232.987 489.055,232.063 
	491.791,228.798 494.537,224.3 499.172,223.276 502.127,226.234 500.021,230.634 497.176,234.821 499.701,236.56 499.59,238.604 
	497.594,240.552 498.012,241.364 501.389,239.528 506.23,233.295 513.611,229.303 516.039,228.798 "/>
<polyline fill="none" stroke="#9B9B9B" stroke-width="2" stroke-linejoin="round" stroke-miterlimit="10" points="552.842,188.48 
	551.488,188.271 549.713,188.271 546.682,187.335 545.746,185.585 544.811,187.027 543.344,186.103 540.313,189.503 
	539.695,190.343 538.439,190.538 536.455,188.579 534.682,187.754 532.797,184.033 531.342,184.97 531.859,188.271 530.813,188.888 
	528.422,186.202 527.375,184.97 525.488,184.97 524.344,182.075 521.842,180.731 518.184,182.075 516.826,181.865 514.744,179.796 
	511.924,181.249 510.26,181.249 508.375,182.284 505.455,180.116 503.471,176.604 498.875,177.429 497.211,179.599 496.891,181.865 
	491.889,180.424 491.148,182.075 491.471,183.109 494.18,185.068 494.18,187.754 494.697,190.343 496.164,192.708 496.373,194.679 
	497.52,195.603 501.389,191.993 505.455,196.946 505.455,199.731 507.537,200.976 507.746,199.94 510.988,200.976 513.391,203.55 
	514.535,202.417 514.744,201.591 520.277,209.132 520.697,211.917 523.715,215.429 524.035,218.533 526.857,216.981 
	529.246,209.858 530.504,209.44 533.215,210.993 537.602,210.476 539.166,209.132 537.084,205.928 537.602,205.103 541.68,203.76 
	543.344,200.458 545.635,199.534 545.746,196.331 546.373,194.26 547.619,193.853 548.666,194.987 549.813,196.022 552.633,192.19 
	553.359,189.195 552.842,188.48 "/>
<polyline fill="none" stroke="#9B9B9B" stroke-width="2" stroke-linejoin="round" stroke-miterlimit="10" points="498.209,177.208 
	502.805,176.382 504.789,179.894 507.723,182.063 509.596,181.028 511.27,181.028 514.092,179.585 516.188,181.655 517.541,181.853 
	521.201,180.509 523.703,181.853 524.85,184.748 526.732,184.748 527.781,185.992 530.184,188.679 531.23,188.062 530.701,184.748 
	532.168,183.824 534.053,187.544 535.828,188.37 537.811,190.329 539.068,190.133 539.684,189.306 542.715,185.894 544.18,186.817 
	545.117,185.376 546.066,187.126 549.098,188.062 550.871,188.062 552.227,188.271 551.5,186.817 551.18,182.063 547.631,176.899 
	549.516,174.927 551.291,171.626 557.76,171.626 559.016,170.591 558.598,168.114 560.064,165.527 559.547,164.282 560.064,161.904 
	560.064,150.014 561.947,146.293 559.742,143.915 560.064,142.264 559.225,140.921 556.725,141.956 553.791,145.159 
	550.871,146.503 548.051,150.532 540.842,153.021 537.602,150.532 538.02,148.979 536.246,146.503 535.506,144.024 532.684,143.915 
	527.99,141.339 526.006,142.054 523.703,140.921 520.363,141.536 517.541,140.502 515.867,138.025 514.092,136.067 513.463,134.206 
	511.27,131.927 509.805,129.855 506.676,125.618 505.738,123.142 502.287,118.805 501.352,116.524 496.854,114.356 494.031,115.392 
	491.422,114.762 485.777,113.628 478.262,116.315 477.004,117.46 478.568,119.519 476.586,124.583 477.104,125.101 480.455,127.071 
	482.229,124.274 485.26,126.245 485.148,127.589 486.307,130.892 488.18,133.06 492.049,133.688 493.195,132.542 495.498,132.136 
	499.885,128.513 505.738,132.862 503.754,140.502 504.271,146.096 504.271,149.496 502.707,150.335 502.387,159.218 
	502.078,158.909 500.514,156.938 499.773,156.938 499.367,157.776 494.551,164.911 492.258,167.794 492.469,168.73 497.273,172.144 
	499.885,171.317 500.305,172.144 499.773,172.87 497.273,173.893 497.064,176.073 498.209,177.208 "/>
<polyline fill="none" stroke="#9B9B9B" stroke-width="2" stroke-linejoin="round" stroke-miterlimit="10" points="290.039,159.354 
	290.939,159.354 290.039,162.089 291.826,163.913 291.826,164.837 294.5,167.571 295.387,170.319 299.836,170.319 301.623,172.144 
	302.51,172.144 304.283,176.716 306.957,183.109 306.07,186.769 306.07,187.681 304.283,191.327 304.283,194.075 312.305,197.735 
	320.314,198.646 328.322,205.041 330.996,205.953 330.996,206.864 332.77,210.524 334.557,216.008 337.23,219.655 336.332,221.491 
	336.332,224.226 332.77,225.137 325.648,227.886 321.201,231.546 317.641,233.368 317.641,236.104 318.527,247.069 315.865,246.157 
	314.078,247.069 297.162,250.729 294.5,252.552 294.5,257.124 299.836,261.694 298.061,264.442 295.387,266.267 295.387,267.179 
	296.275,269.001 297.162,269.001 298.061,269.926 292.713,271.749 290.039,269.926 288.266,269.001 284.705,269.001 
	277.584,266.267 273.135,266.267 269.574,267.179 266.014,267.179 259.777,270.838 254.43,269.926 249.983,271.749 246.421,269.926 
	243.755,268.089 237.522,267.179 233.073,269.926 230.402,269.001 228.621,268.089 223.278,268.089 223.278,265.354 
	216.159,278.144 209.927,272.661 207.255,269.001 208.146,262.606 205.476,261.694 199.245,257.124 197.463,257.124 
	195.682,254.388 196.573,250.729 196.573,249.817 193.902,247.994 193.012,246.157 188.562,243.423 188.562,242.511 
	191.233,241.587 192.123,242.511 193.902,241.587 193.012,237.027 193.902,232.456 190.341,229.709 188.562,230.621 
	187.671,227.886 188.562,226.062 188.562,223.313 190.341,221.491 191.233,220.579 191.233,219.655 193.902,217.831 
	196.573,216.919 199.245,216.008 201.916,216.919 202.805,216.008 203.695,216.919 203.695,218.743 205.476,219.655 
	208.146,218.743 211.707,215.096 219.719,216.919 223.278,214.171 234.852,211.437 235.742,209.612 236.633,205.953 
	239.303,203.218 240.194,203.218 240.194,201.382 240.194,191.327 241.084,189.503 238.413,187.681 237.522,186.769 
	241.084,185.845 249.095,185.845 250.87,186.769 253.543,187.681 254.43,187.681 255.33,186.769 254.43,184.934 259.777,172.144 
	260.666,172.144 266.9,174.879 269.574,174.879 270.461,175.804 275.795,173.967 276.695,165.749 279.357,163.913 282.031,163.913 
	283.818,161.178 284.705,159.354 286.479,158.429 290.039,159.354 "/>
<polygon fill="none" stroke="#9B9B9B" stroke-width="2" stroke-linejoin="round" stroke-miterlimit="10" points="402.35,335.599 
	402.35,335.599 400.551,334.687 398.752,333.774 397.852,331.952 396.064,331.04 396.965,330.128 398.752,328.304 398.752,323.745 
	399.65,323.745 401.449,322.835 403.248,324.657 405.047,323.745 406.846,325.569 409.533,325.569 409.533,324.657 412.23,322.835 
	413.131,320.099 414.93,319.187 416.729,318.275 417.615,316.451 418.516,314.628 419.414,312.804 419.414,310.069 418.516,308.246 
	423.912,310.069 424.811,310.979 427.496,310.979 429.297,310.979 431.096,312.804 431.994,317.363 431.096,319.187 
	430.195,319.187 426.598,321.011 421.213,321.923 419.414,323.745 421.213,325.569 421.213,328.304 422.113,329.216 
	426.598,333.774 426.598,340.157 423.912,341.98 422.113,339.245 419.414,336.511 419.414,334.687 417.615,334.687 415.828,335.599 
	413.131,333.774 411.332,337.423 409.533,337.423 407.734,340.157 405.947,339.245 404.148,340.157 401.449,338.335 "/>
</svg>
