<?xml version="1.0" encoding="utf-8"?>
<!-- Generator: Adobe Illustrator 16.0.0, SVG Export Plug-In . SVG Version: 6.00 Build 0)  -->
<!DOCTYPE svg PUBLIC "-//W3C//DTD SVG 1.1//EN" "http://www.w3.org/Graphics/SVG/1.1/DTD/svg11.dtd">
<svg version="1.1" id="Layer_1" xmlns="http://www.w3.org/2000/svg" xmlns:xlink="http://www.w3.org/1999/xlink" x="0px" y="0px"
	 width="768px" height="1024px" viewBox="0 0 768 1024" enable-background="new 0 0 768 1024" xml:space="preserve">
<polyline opacity="0.298" fill="#FFFFFF" enable-background="new    " points="460.555,331.385 458.781,331.064 458.055,329.919 
	458.055,327.109 457.006,325.864 455.123,327.737 454.283,329.094 452.83,329.094 452.51,326.912 450.734,327.43 448.443,329.094 
	446.768,328.156 443.736,326.073 434.854,325.445 433.918,326.382 435.801,328.464 433.609,329.919 430.258,328.464 
	426.818,331.385 425.662,334.194 425.982,340.429 427.547,347.292 423.789,351.357 424.207,351.974 427.547,350.938 
	428.803,352.505 427.854,357.284 429.74,360.821 431.725,361.239 433.609,358.738 434.447,360.821 435.271,360.612 438.303,357.802 
	438.932,357.913 440.398,357.173 442.801,357.913 442.801,360.612 444.783,361.03 444.254,363.729 442.48,366.538 441.654,369.04 
	442.48,369.04 444.465,367.067 446.35,371.011 447.705,370.074 449.172,370.074 450.734,368.83 450.734,366.538 451.463,365.81 
	453.459,366.02 456.797,367.474 457.314,366.327 456.477,364.984 456.797,364.048 458.781,362.274 462.539,363.321 464.635,362.065 
	463.797,360.612 464.635,357.493 464.523,352.911 463.168,352.394 461.912,349.274 461.912,346.565 461.283,346.158 
	460.346,346.565 459.828,345.948 460.137,341.783 461.912,340.429 463.168,338.138 462.859,335.857 460.555,331.385 "/>
</svg>
