<?xml version="1.0" encoding="utf-8"?>
<!-- Generator: Adobe Illustrator 16.0.0, SVG Export Plug-In . SVG Version: 6.00 Build 0)  -->
<!DOCTYPE svg PUBLIC "-//W3C//DTD SVG 1.1//EN" "http://www.w3.org/Graphics/SVG/1.1/DTD/svg11.dtd">
<svg version="1.1" id="Layer_1" xmlns="http://www.w3.org/2000/svg" xmlns:xlink="http://www.w3.org/1999/xlink" x="0px" y="0px"
	 width="768px" height="1024px" viewBox="0 0 768 1024" enable-background="new 0 0 768 1024" xml:space="preserve">
<polyline opacity="0.298" fill="#FFFFFF" enable-background="new    " points="373.801,300.755 374.688,298.019 373.801,297.106 
	373.801,294.359 378.248,292.536 380.035,292.536 380.035,294.359 380.934,296.183 382.709,298.019 386.283,300.755 
	388.068,299.843 388.957,300.755 388.957,304.4 391.631,305.313 396.09,306.225 396.988,305.313 396.988,303.489 399.662,302.577 
	401.449,303.489 401.449,305.313 403.225,305.313 407.686,304.4 408.584,304.4 409.471,306.225 411.258,306.225 415.719,308.973 
	418.393,308.061 421.064,309.884 419.291,309.884 420.178,309.884 419.291,310.796 419.291,312.618 418.393,314.442 
	417.504,316.267 417.504,318.09 414.832,319.002 413.932,319.927 413.045,320.837 412.145,322.661 410.371,324.485 409.471,325.397 
	406.797,325.397 405.01,323.573 403.225,324.485 401.449,322.661 398.775,323.573 398.775,325.397 398.775,327.22 398.775,328.131 
	397.877,329.043 396.09,330.867 398.775,332.704 401.449,335.438 402.336,335.438 402.336,337.261 401.449,338.173 399.662,340.909 
	399.662,341.821 404.123,344.569 405.01,346.392 401.449,347.304 396.988,347.304 396.988,344.569 395.203,344.569 391.631,346.392 
	389.855,345.479 389.855,342.746 388.957,341.821 388.957,339.997 386.283,339.997 385.395,339.997 386.283,342.746 
	383.607,343.657 382.709,344.569 383.607,346.392 379.148,351.862 380.035,358.259 377.361,360.081 376.475,359.171 
	371.115,361.904 370.227,360.993 363.094,348.216 360.42,346.392 357.732,345.479 356.848,343.657 358.633,341.821 355.959,339.997 
	354.172,342.746 351.498,342.746 350.6,335.438 349.713,334.528 349.713,322.661 347.039,317.179 348.824,316.267 344.365,308.061 
	339.006,303.489 339.906,301.665 340.791,300.755 347.926,299.843 353.273,300.755 356.848,299.843 357.732,301.665 
	361.307,306.225 364.881,305.313 364.881,302.577 365.768,301.665 368.441,300.755 370.227,302.577 371.115,300.755 
	373.801,301.665 373.801,300.755 "/>
</svg>
