<?xml version="1.0" encoding="utf-8"?>
<!-- Generator: Adobe Illustrator 16.0.0, SVG Export Plug-In . SVG Version: 6.00 Build 0)  -->
<!DOCTYPE svg PUBLIC "-//W3C//DTD SVG 1.1//EN" "http://www.w3.org/Graphics/SVG/1.1/DTD/svg11.dtd">
<svg version="1.1" id="Layer_1" xmlns="http://www.w3.org/2000/svg" xmlns:xlink="http://www.w3.org/1999/xlink" x="0px" y="0px"
	 width="768px" height="1024px" viewBox="0 0 768 1024" enable-background="new 0 0 768 1024" xml:space="preserve">
<polyline opacity="0.298" fill="#FFFFFF" enable-background="new    " points="471.879,282.469 472.199,280.484 473.998,279.758 
	477.164,282.469 478.225,282.469 481.082,282.05 482.771,280.806 485.1,282.567 486.049,280.904 486.467,279.868 488.365,278.821 
	488.895,276.542 490.805,276.124 496.301,267.067 495.24,265.515 496.301,264.579 497.457,264.997 499.146,264.062 500.207,261.978 
	504.752,257.813 508.238,256.669 509.828,255.214 509.398,251.888 507.082,251.679 501.795,252.307 498.1,250.644 495.869,250.952 
	490.484,257.813 488.895,258.75 485.406,257.296 485.1,255.521 484.348,252.516 482.451,251.26 479.283,251.986 477.275,250.741 
	474.416,254.277 471.25,255.214 467.023,259.058 462.268,267.388 463.537,269.778 463.217,270.714 463.217,271.859 463.957,272.797 
	465.434,271.649 467.973,271.022 461.209,278.612 461.209,280.288 462.588,280.806 465.645,283.405 470.609,282.776 
	471.879,282.469 "/>
</svg>
