<?xml version="1.0" encoding="utf-8"?>
<!-- Generator: Adobe Illustrator 16.0.0, SVG Export Plug-In . SVG Version: 6.00 Build 0)  -->
<!DOCTYPE svg PUBLIC "-//W3C//DTD SVG 1.1//EN" "http://www.w3.org/Graphics/SVG/1.1/DTD/svg11.dtd">
<svg version="1.1" id="Layer_1" xmlns="http://www.w3.org/2000/svg" xmlns:xlink="http://www.w3.org/1999/xlink" x="0px" y="0px"
	 width="768px" height="1024px" viewBox="0 0 768 1024" enable-background="new 0 0 768 1024" xml:space="preserve">
<polyline opacity="0.298" fill="#FFFFFF" enable-background="new    " points="460.162,330.917 462.49,335.401 462.799,337.693 
	461.541,339.985 459.742,341.341 459.436,345.505 459.953,346.134 460.9,345.714 461.541,346.134 461.541,348.845 462.799,351.974 
	464.166,352.491 464.277,357.074 463.439,360.205 464.277,361.671 465.854,363.124 469.551,362.077 470.18,363.543 469.119,364.997 
	467.221,367.918 467.221,368.646 468.281,369.384 476.08,366.353 478.926,367.918 479.666,367.081 478.926,365.417 479.137,364.382 
	480.295,357.395 481.451,355.511 481.871,353.539 483.449,350.716 482.611,349.571 482.82,347.181 486.086,343.422 485.777,341.032 
	488.094,337.386 490.201,337.903 494.514,334.872 495.252,333.209 492.518,328.206 490.83,325.705 491.889,324.46 490.41,323.104 
	486.197,323.104 484.508,321.22 481.242,324.349 479.975,323.832 481.451,321.33 481.242,320.493 479.975,320.185 476.08,322.267 
	473.123,323.302 470.598,323.104 465.016,327.996 462.17,328.933 460.162,330.917 "/>
</svg>
