<?xml version="1.0" encoding="utf-8"?>
<!-- Generator: Adobe Illustrator 16.0.0, SVG Export Plug-In . SVG Version: 6.00 Build 0)  -->
<!DOCTYPE svg PUBLIC "-//W3C//DTD SVG 1.1//EN" "http://www.w3.org/Graphics/SVG/1.1/DTD/svg11.dtd">
<svg version="1.1" id="Layer_1" xmlns="http://www.w3.org/2000/svg" xmlns:xlink="http://www.w3.org/1999/xlink" x="0px" y="0px"
	 width="768px" height="1024px" viewBox="0 0 768 1024" enable-background="new 0 0 768 1024" xml:space="preserve">
<polyline opacity="0.298" fill="#FFFFFF" enable-background="new    " points="430.184,286.671 429.248,284.415 431.01,278.551 
	428.52,267.252 430.184,264.479 431.01,261.917 428.729,257.296 430.799,254.007 431.119,251.024 432.254,248.771 432.154,245.997 
	431.119,245.271 429.666,247.021 425.613,247.119 423.541,250.31 423.752,251.949 423.332,253.083 421.67,253.601 415.336,262.632 
	414.609,262.126 412.748,261.511 409.113,261.917 407.869,263.457 407.758,267.153 408.275,268.287 414.609,271.367 
	417.824,273.425 418.244,275.372 416.691,277.737 417.627,280.608 417,281.938 412.428,282.247 411.504,282.974 411.813,283.688 
	411.813,284.921 408.178,285.438 406.207,284.415 403.717,284.415 403.408,284.921 403.717,286.264 402.57,287.692 402.264,289.135 
	404.543,290.983 402.781,294.47 403.508,296.12 403.408,297.045 400.711,297.045 398.727,297.87 400.293,300.026 399.256,302.688 
	400.908,302.996 401.117,304.745 402.473,304.845 407.352,303.921 408.275,304.339 408.596,305.67 410.666,306.187 415.029,308.442 
	417.627,307.419 422.914,309.366 424.158,310.906 426.758,310.192 426.449,307.419 425.92,306.594 426.449,304.339 429.248,302.996 
	430.072,301.874 428.52,301.259 426.758,300.84 424.996,299.201 425.92,298.486 431.637,298.486 432.881,298.486 433.707,299.103 
	435.371,297.661 435.371,295.394 430.184,287.692 430.184,286.671 "/>
</svg>
