<?xml version="1.0" encoding="utf-8"?>
<!-- Generator: Adobe Illustrator 16.0.0, SVG Export Plug-In . SVG Version: 6.00 Build 0)  -->
<!DOCTYPE svg PUBLIC "-//W3C//DTD SVG 1.1//EN" "http://www.w3.org/Graphics/SVG/1.1/DTD/svg11.dtd">
<svg version="1.1" id="Layer_1" xmlns="http://www.w3.org/2000/svg" xmlns:xlink="http://www.w3.org/1999/xlink" x="0px" y="0px"
	 width="768px" height="1024px" viewBox="0 0 768 1024" enable-background="new 0 0 768 1024" xml:space="preserve">
<polyline opacity="0.298" fill="#FFFFFF" enable-background="new    " points="511.406,337.632 507.191,339.282 504.826,336.807 
	502.979,338.976 500.404,338.976 499.27,336.486 497.939,333.184 495.475,332.666 492.801,327.712 491.148,325.235 492.184,324.004 
	492.801,323.486 495.572,319.557 495.475,316.255 496.398,314.911 498.555,314.505 499.27,313.567 498.457,312.016 499.576,310.574 
	499.576,307.481 501.131,306.754 503.791,308.405 507.082,308.923 509.25,306.347 511.813,308.614 510.68,309.439 509.348,311.511 
	507.191,312.016 506.465,312.644 508.424,313.876 512.33,312.016 518.602,314.702 519.217,320.074 516.742,320.074 516.545,321.626 
	517.875,323.894 516.742,325.235 517.986,327.404 515.928,329.882 515.004,328.538 511.912,336.486 511.406,337.632 "/>
</svg>
