<?xml version="1.0" encoding="utf-8"?>
<!-- Generator: Adobe Illustrator 16.0.0, SVG Export Plug-In . SVG Version: 6.00 Build 0)  -->
<!DOCTYPE svg PUBLIC "-//W3C//DTD SVG 1.1//EN" "http://www.w3.org/Graphics/SVG/1.1/DTD/svg11.dtd">
<svg version="1.1" id="Layer_1" xmlns="http://www.w3.org/2000/svg" xmlns:xlink="http://www.w3.org/1999/xlink" x="0px" y="0px"
	 width="768px" height="1024px" viewBox="0 0 768 1024" enable-background="new 0 0 768 1024" xml:space="preserve">
<polyline opacity="0.298" fill="#FFFFFF" enable-background="new    " points="396.645,346.798 396.127,344.815 394.365,344.188 
	391.58,345.961 389.609,345.024 389.398,342.523 388.574,341.364 388.574,340.01 385.777,339.492 385.051,340.12 385.568,342.104 
	383.287,343.04 382.77,344.507 383.287,346.171 378.631,351.715 379.357,358.394 377.078,360.278 375.945,359.021 371.287,361.731 
	369.623,360.796 362.896,347.845 360.309,345.961 358.139,345.333 357.105,343.67 358.35,341.685 356.379,340.12 354.1,342.104 
	351.721,342.523 350.268,335.413 349.959,333.849 347.469,336.671 346.645,337.3 346.854,341.685 346.336,342.622 345.092,342.622 
	344.168,341.685 343.021,343.04 344.168,347.944 345.51,347.944 346.645,348.894 346.951,351.925 346.434,362.571 339.191,369.052 
	338.883,371.552 337.539,372.81 337.23,374.067 338.477,377.306 337.539,379.599 338.057,379.919 341.68,378.872 346.854,378.552 
	346.336,380.646 347.16,382.629 347.469,385.45 348.197,386.499 351.203,386.708 352.658,387.645 351.105,389.528 350.896,391.933 
	349.65,394.544 350.477,395.479 352.447,395.689 355.65,396.946 355.244,398.093 357.412,401.333 360.42,401.333 364.252,399.14 
	365.484,399.769 365.484,401.123 365.902,402.997 366.938,404.045 369.008,403.737 369.734,404.155 370.561,403.527 
	370.561,400.495 369.217,394.643 370.252,392.968 373.357,392.968 374.184,392.968 375.945,390.983 380.504,392.45 382.363,390.675 
	383.287,391.724 385.26,390.466 387.021,392.241 387.748,392.241 388.365,391.304 389.916,389.837 390.545,390.257 392.715,389.948 
	394.883,388.161 396.547,385.55 399.023,385.143 400.377,386.499 401.301,383.676 403.273,383.565 404,382.949 404.617,380.548 
	403.791,379.179 397.162,377.935 396.127,376.05 394.168,376.05 392.504,376.05 391.162,373.857 391.371,372.81 392.098,368.115 
	389.609,365.601 391.58,357.457 390.225,356.41 386.086,357.667 385.051,355.991 385.051,354.006 384.127,353.169 386.195,350.139 
	388.574,350.976 389.398,349.929 393.65,350.558 395.609,349.929 396.645,346.798 "/>
</svg>
