<?xml version="1.0" encoding="utf-8"?>
<!-- Generator: Adobe Illustrator 16.0.0, SVG Export Plug-In . SVG Version: 6.00 Build 0)  -->
<!DOCTYPE svg PUBLIC "-//W3C//DTD SVG 1.1//EN" "http://www.w3.org/Graphics/SVG/1.1/DTD/svg11.dtd">
<svg version="1.1" id="Layer_1" xmlns="http://www.w3.org/2000/svg" xmlns:xlink="http://www.w3.org/1999/xlink" x="0px" y="0px"
	 width="768px" height="1024px" viewBox="0 0 768 1024" enable-background="new 0 0 768 1024" xml:space="preserve">
<polyline opacity="0.298" fill="#FFFFFF" enable-background="new    " points="435.666,297.896 442.012,303.551 447.322,304.708 
	452.115,303.97 453.568,304.708 455.232,303.661 456.379,304.918 457.105,306.901 459.398,308.159 462.416,308.159 464.707,310.044 
	466.791,309.096 468.355,310.044 469.711,307.419 471.682,306.483 471.99,304.29 471.373,300.409 470.955,299.989 468.971,301.987 
	466.064,299.681 463.869,296.96 466.064,295.382 466.691,292.77 467.936,291.723 467.727,288.063 468.662,287.435 470.438,288.481 
	471.682,289.937 473.875,288.481 474.701,287.533 474.281,285.759 471.682,284.181 471.164,282.407 466.273,283.035 
	463.254,280.411 461.898,279.894 461.898,278.218 468.564,270.579 466.064,271.207 464.609,272.353 463.869,271.417 
	463.869,270.259 462.725,269.839 459.705,271.097 452.115,270.05 451.586,276.432 447.951,279.364 442.947,280.411 436.074,285.229 
	430.455,286.696 430.455,287.743 435.666,295.591 435.666,297.896 "/>
</svg>
