<?xml version="1.0" encoding="utf-8"?>
<!-- Generator: Adobe Illustrator 16.0.0, SVG Export Plug-In . SVG Version: 6.00 Build 0)  -->
<!DOCTYPE svg PUBLIC "-//W3C//DTD SVG 1.1//EN" "http://www.w3.org/Graphics/SVG/1.1/DTD/svg11.dtd">
<svg version="1.1" id="Layer_1" xmlns="http://www.w3.org/2000/svg" xmlns:xlink="http://www.w3.org/1999/xlink" x="0px" y="0px"
	 width="768px" height="1024px" viewBox="0 0 768 1024" enable-background="new 0 0 768 1024" xml:space="preserve">
<polyline opacity="0.298" fill="#FFFFFF" enable-background="new    " points="426.055,333.738 427.227,330.892 430.701,327.935 
	434.078,329.413 436.295,327.935 434.396,325.828 435.346,324.88 444.305,325.508 447.359,327.627 449.047,328.576 451.377,326.887 
	453.162,326.357 453.484,328.576 454.961,328.576 455.799,327.194 457.697,325.299 458.756,326.567 458.756,329.413 
	459.496,330.571 461.283,330.892 463.291,328.884 466.137,327.935 471.719,322.981 474.256,323.19 477.215,322.132 473.518,315.071 
	474.676,312.964 474.355,312.114 472.457,311.584 469.082,309.589 467.506,308.64 465.398,309.589 463.082,307.679 460.014,307.679 
	457.697,306.422 456.957,304.413 455.799,303.144 454.111,304.203 452.633,303.464 447.791,304.203 442.406,303.046 
	435.975,297.341 434.287,298.819 433.447,298.191 432.18,298.191 426.377,298.191 425.428,298.931 427.227,300.618 429.014,301.037 
	430.59,301.665 429.752,302.836 426.906,304.203 426.377,306.521 426.906,307.37 427.227,310.217 429.014,310.537 430.701,312.743 
	431.551,317.29 430.91,318.755 429.752,318.447 426.486,321.085 420.684,321.923 419.205,323.512 420.475,325.089 420.572,328.464 
	422.162,328.786 426.055,333.738 "/>
</svg>
