<?xml version="1.0" encoding="utf-8"?>
<!-- Generator: Adobe Illustrator 16.0.0, SVG Export Plug-In . SVG Version: 6.00 Build 0)  -->
<!DOCTYPE svg PUBLIC "-//W3C//DTD SVG 1.1//EN" "http://www.w3.org/Graphics/SVG/1.1/DTD/svg11.dtd">
<svg version="1.1" id="Layer_1" xmlns="http://www.w3.org/2000/svg" xmlns:xlink="http://www.w3.org/1999/xlink" x="0px" y="0px"
	 width="768px" height="1024px" viewBox="0 0 768 1024" enable-background="new 0 0 768 1024" xml:space="preserve">
<polyline opacity="0.6" fill-rule="evenodd" clip-rule="evenodd" fill="#2A79BE" points="392.109,373.55 394.6,373.759 
	397.285,371.294 398.432,371.911 403.717,374.067 404.555,373.55 404.766,371.812 405.799,370.888 413.057,366.169 414.301,367.61 
	418.762,368.94 421.25,365.762 422.396,366.477 424.158,366.477 424.158,365.552 426.537,364.739 426.537,364.123 427.373,363.089 
	427.891,363.198 430.27,361.042 432.24,361.449 434.113,358.997 434.939,361.042 435.777,360.833 438.783,358.073 439.398,358.172 
	440.854,357.457 443.244,358.172 443.244,360.833 445.217,361.252 444.699,363.913 442.936,366.687 442.098,369.138 
	442.936,369.138 444.895,367.191 446.768,371.085 448.111,370.173 449.564,370.173 450.711,373.759 449.564,375.397 
	449.676,377.036 446.35,381.446 446.559,385.956 442.098,389.443 441.791,392.313 439.189,393.337 439.398,394.975 436.91,395.591 
	434.939,398.77 430.072,399.386 427.373,397.438 424.773,396.417 421.879,399.077 419.279,399.287 416.371,399.386 410.359,395.997 
	409.225,393.028 410.777,389.96 408.904,388.618 406.625,388.618 406.107,388.112 403.717,388.618 401.129,386.979 402.066,384.219 
	404.037,384.108 404.766,383.491 405.381,381.138 404.555,379.809 397.914,378.577 396.879,376.729 394.908,376.729 
	393.244,376.729 391.9,374.572 392.109,373.55 "/>
<polyline opacity="0.6" fill-rule="evenodd" clip-rule="evenodd" fill="#2A79BE" points="460.162,330.917 462.49,335.401 
	462.799,337.693 461.541,339.985 459.742,341.341 459.436,345.505 459.953,346.134 460.9,345.714 461.541,346.134 461.541,348.845 
	462.799,351.974 464.166,352.491 464.277,357.074 463.439,360.205 464.277,361.671 465.854,363.124 469.551,362.077 470.18,363.543 
	469.119,364.997 467.221,367.918 467.221,368.646 468.281,369.384 476.08,366.353 478.926,367.918 479.666,367.081 478.926,365.417 
	479.137,364.382 480.295,357.395 481.451,355.511 481.871,353.539 483.449,350.716 482.611,349.571 482.82,347.181 486.086,343.422 
	485.777,341.032 488.094,337.386 490.201,337.903 494.514,334.872 495.252,333.209 492.518,328.206 490.83,325.705 491.889,324.46 
	490.41,323.104 486.197,323.104 484.508,321.22 481.242,324.349 479.975,323.832 481.451,321.33 481.242,320.493 479.975,320.185 
	476.08,322.267 473.123,323.302 470.598,323.104 465.016,327.996 462.17,328.933 460.162,330.917 "/>
</svg>
