<?xml version="1.0" encoding="utf-8"?>
<!-- Generator: Adobe Illustrator 16.0.0, SVG Export Plug-In . SVG Version: 6.00 Build 0)  -->
<!DOCTYPE svg PUBLIC "-//W3C//DTD SVG 1.1//EN" "http://www.w3.org/Graphics/SVG/1.1/DTD/svg11.dtd">
<svg version="1.1" id="Layer_1" xmlns="http://www.w3.org/2000/svg" xmlns:xlink="http://www.w3.org/1999/xlink" x="0px" y="0px"
	 width="768px" height="1024px" viewBox="0 0 768 1024" enable-background="new 0 0 768 1024" xml:space="preserve">
<polyline opacity="0.298" fill="#FFFFFF" enable-background="new    " points="449.848,369.964 451.412,368.706 451.412,366.401 
	452.152,365.675 454.135,365.885 457.475,367.338 458.006,366.192 457.166,364.838 457.475,363.888 459.471,362.114 
	463.229,363.161 465.324,361.904 466.889,363.371 470.549,362.323 471.176,363.791 470.129,365.257 468.256,368.176 
	468.256,368.915 469.291,369.644 477.029,366.611 479.85,368.176 480.59,367.338 479.85,365.675 480.061,364.628 485.088,365.675 
	486.023,366.401 487.49,366.192 489.475,368.915 491.779,373.931 490.213,375.188 488.957,377.59 487.588,378.009 486.555,380.411 
	482.684,382.297 481.219,381.46 480.17,383.134 480.17,383.554 479.123,383.554 476.93,383.554 474.947,385.007 473.58,384.181 
	472.016,385.328 467.727,387.103 464.178,384.28 463.857,386.585 465.213,389.825 461.973,391.082 460.311,393.485 456.957,394.212 
	455.283,394.95 451.832,394.95 449.43,397.243 443.256,399.437 440.225,401.641 438.771,403.095 441.594,407.702 439.598,409.38 
	437.307,409.269 434.582,404.353 435.111,400.804 435.111,399.128 437.096,395.887 439.598,395.259 439.387,393.583 
	442.012,392.536 442.32,389.615 446.818,386.055 446.607,381.46 449.959,376.962 449.848,375.286 450.994,373.622 449.848,369.964 
	"/>
</svg>
