<?xml version="1.0" encoding="utf-8"?>
<!-- Generator: Adobe Illustrator 16.0.0, SVG Export Plug-In . SVG Version: 6.00 Build 0)  -->
<!DOCTYPE svg PUBLIC "-//W3C//DTD SVG 1.1//EN" "http://www.w3.org/Graphics/SVG/1.1/DTD/svg11.dtd">
<svg version="1.1" id="Layer_1" xmlns="http://www.w3.org/2000/svg" xmlns:xlink="http://www.w3.org/1999/xlink" x="0px" y="0px"
	 width="768px" height="1024px" viewBox="0 0 768 1024" enable-background="new 0 0 768 1024" xml:space="preserve">
<polyline opacity="0.298" fill="#FFFFFF" enable-background="new    " points="498.209,177.208 502.805,176.382 504.789,179.894 
	507.723,182.063 509.596,181.028 511.27,181.028 514.092,179.585 516.188,181.655 517.541,181.853 521.201,180.509 523.703,181.853 
	524.85,184.748 526.732,184.748 527.781,185.992 530.184,188.679 531.23,188.062 530.701,184.748 532.168,183.824 534.053,187.544 
	535.828,188.37 537.811,190.329 539.068,190.133 539.684,189.306 542.715,185.894 544.18,186.817 545.117,185.376 546.066,187.126 
	549.098,188.062 550.871,188.062 552.227,188.271 551.5,186.817 551.18,182.063 547.631,176.899 549.516,174.927 551.291,171.626 
	557.76,171.626 559.016,170.591 558.598,168.114 560.064,165.527 559.547,164.282 560.064,161.904 560.064,150.014 561.947,146.293 
	559.742,143.915 560.064,142.264 559.225,140.921 556.725,141.956 553.791,145.159 550.871,146.503 548.051,150.532 
	540.842,153.021 537.602,150.532 538.02,148.979 536.246,146.503 535.506,144.024 532.684,143.915 527.99,141.339 526.006,142.054 
	523.703,140.921 520.363,141.536 517.541,140.502 515.867,138.025 514.092,136.067 513.463,134.206 511.27,131.927 509.805,129.855 
	506.676,125.618 505.738,123.142 502.287,118.805 501.352,116.524 496.854,114.356 494.031,115.392 491.422,114.762 
	485.777,113.628 478.262,116.315 477.004,117.46 478.568,119.519 476.586,124.583 477.104,125.101 480.455,127.071 482.229,124.274 
	485.26,126.245 485.148,127.589 486.307,130.892 488.18,133.06 492.049,133.688 493.195,132.542 495.498,132.136 499.885,128.513 
	505.738,132.862 503.754,140.502 504.271,146.096 504.271,149.496 502.707,150.335 502.387,159.218 502.078,158.909 
	500.514,156.938 499.773,156.938 499.367,157.776 494.551,164.911 492.258,167.794 492.469,168.73 497.273,172.144 499.885,171.317 
	500.305,172.144 499.773,172.87 497.273,173.893 497.064,176.073 498.209,177.208 "/>
</svg>
