<?xml version="1.0" encoding="utf-8"?>
<!-- Generator: Adobe Illustrator 16.0.0, SVG Export Plug-In . SVG Version: 6.00 Build 0)  -->
<!DOCTYPE svg PUBLIC "-//W3C//DTD SVG 1.1//EN" "http://www.w3.org/Graphics/SVG/1.1/DTD/svg11.dtd">
<svg version="1.1" id="Layer_1" xmlns="http://www.w3.org/2000/svg" xmlns:xlink="http://www.w3.org/1999/xlink" x="0px" y="0px"
	 width="768px" height="1024px" viewBox="0 0 768 1024" enable-background="new 0 0 768 1024" xml:space="preserve">
<polyline opacity="0.298" fill="#FFFFFF" enable-background="new    " points="471.127,282.087 472.385,281.779 476.686,283.454 
	478.68,285.464 482.031,286.399 483.498,287.558 485.383,287.249 485.803,287.976 485.174,292.189 486.947,293.14 487.996,294.716 
	490.83,295.345 491.875,293.447 493.65,293.558 494.908,295.136 494.697,296.601 491.137,297.021 491.137,298.499 491.137,299.657 
	489.783,301.122 490.83,302.812 493.65,304.905 493.859,307.224 499.627,307.753 499.627,310.906 498.48,312.373 499.318,313.949 
	498.58,314.899 496.373,315.317 495.438,316.686 495.537,320.049 492.715,324.054 492.086,324.571 490.619,323.204 486.43,323.204 
	484.756,321.318 481.502,324.474 480.246,323.942 481.711,321.417 481.502,320.579 480.246,320.259 476.377,322.365 
	472.705,315.317 473.863,313.223 473.541,312.373 471.658,311.856 468.305,309.847 469.662,307.224 471.658,306.274 
	471.965,304.068 471.336,300.175 470.918,299.756 468.936,301.752 466.002,299.448 463.797,296.713 466.002,295.136 
	466.631,292.497 467.887,291.45 467.678,287.767 468.613,287.138 470.4,288.185 471.658,289.665 473.863,288.185 474.701,287.249 
	474.281,285.464 471.658,283.886 471.127,282.087 "/>
</svg>
