<?xml version="1.0" encoding="utf-8"?>
<!-- Generator: Adobe Illustrator 16.0.0, SVG Export Plug-In . SVG Version: 6.00 Build 0)  -->
<!DOCTYPE svg PUBLIC "-//W3C//DTD SVG 1.1//EN" "http://www.w3.org/Graphics/SVG/1.1/DTD/svg11.dtd">
<svg version="1.1" id="Layer_1" xmlns="http://www.w3.org/2000/svg" xmlns:xlink="http://www.w3.org/1999/xlink" x="0px" y="0px"
	 width="768px" height="1024px" viewBox="0 0 768 1024" enable-background="new 0 0 768 1024" xml:space="preserve">
<polyline opacity="0.298" fill="#FFFFFF" enable-background="new    " points="463.992,269.778 464.314,268.866 463.057,266.5 
	467.764,258.306 471.939,254.513 475.082,253.588 477.904,250.112 476.857,249.386 475.811,246.725 473.617,247.648 
	469.859,246.626 469.648,245.702 469.537,239.651 467.555,240.479 466.408,241.5 463.992,240.884 460.543,241.29 460.025,239.862 
	460.346,236.991 462.848,234.12 463.377,231.052 465.988,228.588 470.475,230.941 471.521,230.941 472.359,234.021 473.715,234.638 
	474.344,236.683 474.035,238.015 476.857,239.862 477.164,241.29 479.58,242.424 485.113,239.344 485.113,237.509 488.463,232.888 
	486.061,229.61 484.273,229.512 481.145,227.355 482.191,224.078 477.164,223.561 475.082,220.394 475.291,218.755 471.104,214.134 
	468.281,215.465 465.988,217.72 466.828,219.47 466.199,220.591 462.848,220.702 461.283,222.131 460.025,221.614 458.67,222.956 
	455.527,225.101 454.174,224.177 454.174,221.108 453.027,220.591 451.352,221.207 449.158,225.717 448.42,229.919 450.932,234.021 
	453.027,235.858 453.027,239.344 454.48,242.215 453.865,245.295 450.514,247.55 448.949,252.368 451.66,255.437 453.656,259.229 
	452.496,261.177 452.189,263.739 450.932,265.478 450.305,267.425 452.189,269.581 459.816,270.603 462.848,269.371 
	463.992,269.778 "/>
</svg>
