<?xml version="1.0" encoding="utf-8"?>
<!-- Generator: Adobe Illustrator 16.0.0, SVG Export Plug-In . SVG Version: 6.00 Build 0)  -->
<!DOCTYPE svg PUBLIC "-//W3C//DTD SVG 1.1//EN" "http://www.w3.org/Graphics/SVG/1.1/DTD/svg11.dtd">
<svg version="1.1" id="Layer_1" xmlns="http://www.w3.org/2000/svg" xmlns:xlink="http://www.w3.org/1999/xlink" x="0px" y="0px"
	 width="768px" height="1024px" viewBox="0 0 768 1024" enable-background="new 0 0 768 1024" xml:space="preserve">
<polyline opacity="0.298" fill="#FFFFFF" enable-background="new    " points="392.109,373.55 394.6,373.759 397.285,371.294 
	398.432,371.911 403.717,374.067 404.555,373.55 404.766,371.812 405.799,370.888 413.057,366.169 414.301,367.61 418.762,368.94 
	421.25,365.762 422.396,366.477 424.158,366.477 424.158,365.552 426.537,364.739 426.537,364.123 427.373,363.089 427.891,363.198 
	430.27,361.042 432.24,361.449 434.113,358.997 434.939,361.042 435.777,360.833 438.783,358.073 439.398,358.172 440.854,357.457 
	443.244,358.172 443.244,360.833 445.217,361.252 444.699,363.913 442.936,366.687 442.098,369.138 442.936,369.138 
	444.895,367.191 446.768,371.085 448.111,370.173 449.564,370.173 450.711,373.759 449.564,375.397 449.676,377.036 446.35,381.446 
	446.559,385.956 442.098,389.443 441.791,392.313 439.189,393.337 439.398,394.975 436.91,395.591 434.939,398.77 430.072,399.386 
	427.373,397.438 424.773,396.417 421.879,399.077 419.279,399.287 416.371,399.386 410.359,395.997 409.225,393.028 410.777,389.96 
	408.904,388.618 406.625,388.618 406.107,388.112 403.717,388.618 401.129,386.979 402.066,384.219 404.037,384.108 
	404.766,383.491 405.381,381.138 404.555,379.809 397.914,378.577 396.879,376.729 394.908,376.729 393.244,376.729 391.9,374.572 
	392.109,373.55 "/>
</svg>
