<?xml version="1.0" encoding="utf-8"?>
<!-- Generator: Adobe Illustrator 16.0.0, SVG Export Plug-In . SVG Version: 6.00 Build 0)  -->
<!DOCTYPE svg PUBLIC "-//W3C//DTD SVG 1.1//EN" "http://www.w3.org/Graphics/SVG/1.1/DTD/svg11.dtd">
<svg version="1.1" id="Layer_1" xmlns="http://www.w3.org/2000/svg" xmlns:xlink="http://www.w3.org/1999/xlink" x="0px" y="0px"
	 width="768px" height="1024px" viewBox="0 0 768 1024" enable-background="new 0 0 768 1024" xml:space="preserve">
<polyline opacity="0.298" fill="#FFFFFF" enable-background="new    " points="290.039,159.354 290.939,159.354 290.039,162.089 
	291.826,163.913 291.826,164.837 294.5,167.571 295.387,170.319 299.836,170.319 301.623,172.144 302.51,172.144 304.283,176.716 
	306.957,183.109 306.07,186.769 306.07,187.681 304.283,191.327 304.283,194.075 312.305,197.735 320.314,198.646 328.322,205.041 
	330.996,205.953 330.996,206.864 332.77,210.524 334.557,216.008 337.23,219.655 336.332,221.491 336.332,224.226 332.77,225.137 
	325.648,227.886 321.201,231.546 317.641,233.368 317.641,236.104 318.527,247.069 315.865,246.157 314.078,247.069 
	297.162,250.729 294.5,252.552 294.5,257.124 299.836,261.694 298.061,264.442 295.387,266.267 295.387,267.179 296.275,269.001 
	297.162,269.001 298.061,269.926 292.713,271.749 290.039,269.926 288.266,269.001 284.705,269.001 277.584,266.267 
	273.135,266.267 269.574,267.179 266.014,267.179 259.777,270.838 254.43,269.926 249.983,271.749 246.421,269.926 243.755,268.089 
	237.522,267.179 233.073,269.926 230.402,269.001 228.621,268.089 223.278,268.089 223.278,265.354 216.159,278.144 
	209.927,272.661 207.255,269.001 208.146,262.606 205.476,261.694 199.245,257.124 197.463,257.124 195.682,254.388 
	196.573,250.729 196.573,249.817 193.902,247.994 193.012,246.157 188.562,243.423 188.562,242.511 191.233,241.587 
	192.123,242.511 193.902,241.587 193.012,237.027 193.902,232.456 190.341,229.709 188.562,230.621 187.671,227.886 
	188.562,226.062 188.562,223.313 190.341,221.491 191.233,220.579 191.233,219.655 193.902,217.831 196.573,216.919 
	199.245,216.008 201.916,216.919 202.805,216.008 203.695,216.919 203.695,218.743 205.476,219.655 208.146,218.743 
	211.707,215.096 219.719,216.919 223.278,214.171 234.852,211.437 235.742,209.612 236.633,205.953 239.303,203.218 
	240.194,203.218 240.194,201.382 240.194,191.327 241.084,189.503 238.413,187.681 237.522,186.769 241.084,185.845 
	249.095,185.845 250.87,186.769 253.543,187.681 254.43,187.681 255.33,186.769 254.43,184.934 259.777,172.144 260.666,172.144 
	266.9,174.879 269.574,174.879 270.461,175.804 275.795,173.967 276.695,165.749 279.357,163.913 282.031,163.913 283.818,161.178 
	284.705,159.354 286.479,158.429 290.039,159.354 "/>
</svg>
