<?xml version="1.0" encoding="utf-8"?>
<!-- Generator: Adobe Illustrator 16.0.0, SVG Export Plug-In . SVG Version: 6.00 Build 0)  -->
<!DOCTYPE svg PUBLIC "-//W3C//DTD SVG 1.1//EN" "http://www.w3.org/Graphics/SVG/1.1/DTD/svg11.dtd">
<svg version="1.1" id="Layer_1" xmlns="http://www.w3.org/2000/svg" xmlns:xlink="http://www.w3.org/1999/xlink" x="0px" y="0px"
	 width="768px" height="1024px" viewBox="0 0 768 1024" enable-background="new 0 0 768 1024" xml:space="preserve">
<polyline opacity="0.298" fill="#FFFFFF" enable-background="new    " points="479.174,363.827 480.332,356.915 481.477,355.067 
	481.896,353.095 483.473,350.31 482.635,349.177 482.846,346.811 486.086,343.09 485.777,340.725 488.082,337.114 490.176,337.62 
	494.477,334.638 495.203,332.987 497.717,333.505 499.084,336.794 500.23,339.271 502.855,339.271 504.74,337.114 507.143,339.591 
	511.443,337.94 508.721,344.532 507.143,343.706 505.998,344.224 505.885,344.852 507.352,346.503 507.045,352.479 507.352,354.438 
	507.045,354.956 505.258,354.55 504.111,355.683 504.838,357.224 502.744,359.293 503.162,360.118 500.971,361.153 501.277,362.804 
	500.648,363.519 497.717,363.519 496.152,364.862 495.943,365.38 497.297,366.304 495.832,368.57 493.848,371.159 493.01,370.851 
	490.916,373.019 488.6,368.065 486.615,365.38 485.148,365.589 484.201,364.862 479.174,363.827 "/>
</svg>
