<?xml version="1.0" encoding="utf-8"?>
<!-- Generator: Adobe Illustrator 16.0.0, SVG Export Plug-In . SVG Version: 6.00 Build 0)  -->
<!DOCTYPE svg PUBLIC "-//W3C//DTD SVG 1.1//EN" "http://www.w3.org/Graphics/SVG/1.1/DTD/svg11.dtd">
<svg version="1.1" id="Layer_1" xmlns="http://www.w3.org/2000/svg" xmlns:xlink="http://www.w3.org/1999/xlink" x="0px" y="0px"
	 width="768px" height="1024px" viewBox="0 0 768 1024" enable-background="new 0 0 768 1024" xml:space="preserve">
<polygon opacity="0.298" fill="#FFFFFF" enable-background="new    " points="402.35,335.599 402.35,335.599 400.551,334.687 
	398.752,333.774 397.852,331.952 396.064,331.04 396.965,330.128 398.752,328.304 398.752,323.745 399.65,323.745 401.449,322.835 
	403.248,324.657 405.047,323.745 406.846,325.569 409.533,325.569 409.533,324.657 412.23,322.835 413.131,320.099 414.93,319.187 
	416.729,318.275 417.615,316.451 418.516,314.628 419.414,312.804 419.414,310.069 418.516,308.246 423.912,310.069 
	424.811,310.979 427.496,310.979 429.297,310.979 431.096,312.804 431.994,317.363 431.096,319.187 430.195,319.187 
	426.598,321.011 421.213,321.923 419.414,323.745 421.213,325.569 421.213,328.304 422.113,329.216 426.598,333.774 
	426.598,340.157 423.912,341.98 422.113,339.245 419.414,336.511 419.414,334.687 417.615,334.687 415.828,335.599 413.131,333.774 
	411.332,337.423 409.533,337.423 407.734,340.157 405.947,339.245 404.148,340.157 401.449,338.335 "/>
</svg>
