<?xml version="1.0" encoding="utf-8"?>
<!-- Generator: Adobe Illustrator 16.0.0, SVG Export Plug-In . SVG Version: 6.00 Build 0)  -->
<!DOCTYPE svg PUBLIC "-//W3C//DTD SVG 1.1//EN" "http://www.w3.org/Graphics/SVG/1.1/DTD/svg11.dtd">
<svg version="1.1" id="Layer_1" xmlns="http://www.w3.org/2000/svg" xmlns:xlink="http://www.w3.org/1999/xlink" x="0px" y="0px"
	 width="768px" height="1024px" viewBox="0 0 768 1024" enable-background="new 0 0 768 1024" xml:space="preserve">
<polyline opacity="0.298" fill="#FFFFFF" enable-background="new    " points="516.039,228.798 520.572,222.254 523.42,218.878 
	523.1,215.811 520.043,212.335 519.625,209.576 514.043,202.108 513.82,202.923 512.662,204.056 510.248,201.493 506.969,200.47 
	506.76,201.493 506.76,202.923 505.393,204.253 502.645,206.915 499.59,206.915 498.432,208.861 497.176,208.861 495.166,210.907 
	494.008,210.907 491.482,213.247 489.893,213.765 486.418,218.668 484.41,215.601 482.094,213.962 480.824,215.194 482.205,221.835 
	481.033,224.188 479.986,227.466 483.154,229.61 484.939,229.709 487.367,232.987 489.055,232.063 491.791,228.798 494.537,224.3 
	499.172,223.276 502.127,226.234 500.021,230.634 497.176,234.821 499.701,236.56 499.59,238.604 497.594,240.552 498.012,241.364 
	501.389,239.528 506.23,233.295 513.611,229.303 516.039,228.798 "/>
</svg>
