<?xml version="1.0" encoding="utf-8"?>
<!-- Generator: Adobe Illustrator 16.0.0, SVG Export Plug-In . SVG Version: 6.00 Build 0)  -->
<!DOCTYPE svg PUBLIC "-//W3C//DTD SVG 1.1//EN" "http://www.w3.org/Graphics/SVG/1.1/DTD/svg11.dtd">
<svg version="1.1" id="Layer_1" xmlns="http://www.w3.org/2000/svg" xmlns:xlink="http://www.w3.org/1999/xlink" x="0px" y="0px"
	 width="768px" height="1024px" viewBox="0 0 768 1024" enable-background="new 0 0 768 1024" xml:space="preserve">
<polyline opacity="0.298" fill="#FFFFFF" enable-background="new    " points="511.135,302.196 510.113,304.942 508.967,306.458 
	506.797,309.009 503.496,308.503 500.797,306.864 499.256,307.579 493.564,307.074 493.355,304.833 490.57,302.799 489.535,301.173 
	490.879,299.743 490.879,298.634 490.879,297.205 494.389,296.798 494.6,295.368 493.355,293.842 491.605,293.743 490.57,295.578 
	487.773,294.962 486.752,293.435 484.988,292.522 485.605,288.457 485.197,287.743 483.338,288.05 481.885,286.929 478.582,286.005 
	476.609,284.083 472.385,282.444 472.691,280.51 474.441,279.808 477.547,282.444 478.582,282.444 481.367,282.038 483.029,280.817 
	485.297,282.556 486.234,280.917 486.639,279.907 488.5,278.884 489.018,276.653 490.879,276.247 495.734,279.401 499.047,280.817 
	505.664,291.5 505.355,292.622 509.791,294.653 511.037,296.392 512.996,297.402 514.031,299.337 512.59,299.854 510.42,299.238 
	507.314,299.238 504.531,298.216 503.176,299.238 505.973,299.854 508.449,300.964 511.135,302.196 "/>
</svg>
