<?xml version="1.0" encoding="utf-8"?>
<!-- Generator: Adobe Illustrator 16.0.0, SVG Export Plug-In . SVG Version: 6.00 Build 0)  -->
<!DOCTYPE svg PUBLIC "-//W3C//DTD SVG 1.1//EN" "http://www.w3.org/Graphics/SVG/1.1/DTD/svg11.dtd">
<svg version="1.1" id="Layer_1" xmlns="http://www.w3.org/2000/svg" xmlns:xlink="http://www.w3.org/1999/xlink" x="0px" y="0px"
	 width="768px" height="1024px" viewBox="0 0 768 1024" enable-background="new 0 0 768 1024" xml:space="preserve">
<g>
	
		<rect x="55.004" y="440.23" opacity="0.302" fill-rule="evenodd" clip-rule="evenodd" fill="#D9D9D9" width="657.99" height="69.264"/>
	<rect x="61.286" y="445.336" fill="none" stroke="#C1DBF2" stroke-miterlimit="10" width="645.423" height="59.066"/>
</g>
<g>
	<path fill="#C1DBF2" d="M76.337,461.668h-2.791v-1.333h2.791v-3.313h1.44v3.313h2.448v1.333h-2.448v3.295l2.322-0.81v1.368
		l-2.322,0.829v4.825c0,0.667-0.054,1.099-0.648,1.458c-0.648,0.396-1.836,0.108-2.683-0.036l-0.45-1.404
		c0.918,0.162,1.387,0.252,1.999,0.288c0.27,0.036,0.342-0.198,0.342-0.504v-4.124l-2.521,0.918l-0.667-1.387l3.188-1.026V461.668z
		 M88.347,472.921c-1.171-0.648-2.269-1.639-2.81-2.305c-0.521,0.864-1.368,1.566-2.376,2.359l-0.721-0.738l-0.018,0.792h-1.44
		v-15.358h6.733c-0.054,1.44-0.233,2.989-0.63,3.835c-0.198,0.432-0.666,0.829-1.152,0.9c-0.702,0.09-1.368,0.054-2.196-0.162
		l-0.343-1.386c0.883,0.216,1.333,0.27,1.927,0.27c0.396,0,0.522-0.162,0.666-0.612c0.162-0.54,0.234-1.062,0.253-1.53h-3.817v4.249
		h5.438c-0.054,2.359-0.648,4.321-1.585,6.122c0.702,1.008,2.017,1.891,3.025,2.521L88.347,472.921z M82.423,471.697
		c0.828-0.522,1.692-1.279,2.286-2.323c-0.773-1.458-1.278-3.097-1.53-4.808h-0.756V471.697z M84.512,464.549
		c0.144,1.17,0.576,2.611,1.008,3.529c0.432-0.846,0.882-2.485,0.918-3.511L84.512,464.549z"/>
	<path fill="#C1DBF2" d="M98.659,463.577v-2.737h-3.655c-0.433,0.774-0.973,1.603-1.891,2.305l-1.135-0.918
		c1.621-1.242,2.323-2.845,2.773-4.681l1.332,0.324c-0.162,0.702-0.414,1.332-0.522,1.674h3.098v-2.737h1.35v2.737h5.114v1.296
		h-5.114v2.737h6.824v1.296H91.528v-1.296H98.659z M95.292,472.994h-1.351v-7.112h10.551v7.112h-1.368v-1.278h-7.832V472.994z
		 M95.292,470.418h7.832v-3.241h-7.832V470.418z"/>
	<path fill="#C1DBF2" d="M113.814,469.158c-0.792,1.513-1.963,2.737-3.331,3.817c-0.378-0.306-0.666-0.594-1.026-0.955
		c1.368-1.008,2.377-1.836,3.386-3.745L113.814,469.158z M111.437,458.859l-0.018-1.927h1.332l0.019,1.927h3.313l0.019-1.999h1.351
		v1.98h1.422v1.296h-1.44l0.019,6.752h1.458v1.278h-9.129l0.019-1.278h1.62v-6.77l-1.549,0.018v-1.278H111.437z M116.101,461.416
		v-1.278l-3.35-0.018v1.296H116.101z M116.101,462.694h-3.331l-0.019,1.351l3.331-0.018L116.101,462.694z M112.77,465.305v1.584
		h3.331v-1.584H112.77z M117.235,471.787c-0.558-0.864-1.512-1.836-2.61-2.395l0.918-0.918c0.99,0.396,2.125,1.495,2.665,2.287
		L117.235,471.787z M117.613,472.219c0.811-1.351,1.603-2.611,1.603-6.014v-8.463h5.348l-0.018,13.018
		c0.054,0.576-0.019,0.99-0.469,1.495c-0.666,0.576-1.674,0.378-2.484,0.414l-0.45-1.387c0.685,0.018,1.188,0.09,1.692,0.054
		c0.181,0.018,0.36-0.18,0.36-0.396v-4.105h-2.629c-0.09,2.107-0.648,4.412-1.729,6.212L117.613,472.219z M120.584,459.021v2.413
		h2.593v-2.413H120.584z M120.584,462.73v2.827h2.61v-2.845L120.584,462.73z"/>
	<path fill="#C1DBF2" d="M134.893,460.012v-3.061h1.296v3.061h5.815v11.542c0,0.684-0.432,0.936-0.936,1.098
		c-0.469,0.144-1.188,0.09-2.035,0.072l-0.521-1.332c0.773,0.054,1.188,0.108,1.729,0.072c0.323-0.072,0.449-0.162,0.449-0.468
		v-9.687h-4.555c0,0.702-0.036,1.494-0.108,2.214c1.656,1.279,2.755,2.593,3.961,4.609l-1.098,0.829
		c-0.864-1.513-2.143-2.953-3.277-3.961c-0.612,1.422-1.944,3.133-4.195,4.339l-0.828-1.152c3.457-1.909,4.213-3.781,4.213-6.878
		h-4.663v11.631h-1.332v-12.928H134.893z"/>
	<path fill="#C1DBF2" d="M152.802,467.808l-0.522-0.667c0.847-0.378,1.081-1.062,1.081-1.782h-0.973v-1.981h1.98v1.891
		C154.369,465.881,154.153,467.178,152.802,467.808z"/>
	<path fill="#C1DBF2" d="M163.276,468.618c2.989-1.909,5.132-4.627,6.067-7.562h-5.005v-1.369l6.5,0.018v-2.809h1.404l-0.019,2.809
		l6.429-0.018v1.369h-4.808c0.792,3.169,3.313,5.888,5.888,7.4l-0.973,1.152c-4.646-3.511-5.275-5.438-6.5-8.769l-0.036,6.392h3.476
		v1.35l-3.457-0.018l-0.019,4.43h-1.368l-0.018-4.43l-3.565,0.018v-1.35l3.565,0.018v-6.41c-1.242,3.925-3.35,6.626-6.446,8.859
		L163.276,468.618z"/>
	<path fill="#C1DBF2" d="M181.51,466.35c2.269-1.296,4.069-3.313,5.546-5.42l1.099,0.738c-0.504,0.918-1.53,2.125-2.197,2.935v8.3
		h-1.386v-6.878c-0.307,0.288-1.314,0.954-1.999,1.44L181.51,466.35z M181.745,461.398c1.891-1.314,3.349-2.935,4.556-4.825
		l1.062,0.828c-1.206,1.818-2.7,3.727-4.411,4.934L181.745,461.398z M189.991,471.427c0.919,0.072,1.711,0.072,2.485,0.054
		c0.198-0.054,0.396-0.18,0.396-0.432v-7.382h-4.609v-1.332l9.273,0.018v1.314l-3.205,0.018l-0.019,7.526
		c0,0.63-0.323,1.098-0.773,1.369c-0.486,0.27-2.197,0.252-3.115,0.216L189.991,471.427z M196.437,459.31h-7.742l-0.019-1.333
		l7.761-0.018V459.31z"/>
	<path fill="#C1DBF2" d="M203.112,467.664c-0.757,1.548-1.603,2.665-3.043,3.493l-0.811-1.062c1.422-0.792,2.286-1.836,2.881-3.169
		L203.112,467.664z M204.858,471.679c0,0.702-0.54,1.477-1.368,1.477h-1.459l-0.468-1.44l1.44,0.108
		c0.18,0.018,0.45-0.198,0.45-0.432v-4.897h-2.899v-1.314h2.899v-1.278h-3.529v-1.333h2.593c-0.126-0.522-0.558-1.188-1.387-1.818
		l1.188-0.486c0.757,0.594,1.297,1.404,1.549,2.305h0.756c0.595-0.594,1.045-1.495,1.261-2.269l1.206,0.486
		c-0.198,0.63-0.612,1.369-1.008,1.783h2.143v1.333h-3.367v1.278h2.863v1.314h-2.863v1.278l0.522-0.666
		c0.846,0.522,1.656,1.368,2.25,2.376l-0.918,1.044c-0.45-1.081-1.261-1.854-1.854-2.305V471.679z M203.328,458.661
		c-0.162-0.288-0.54-0.792-1.135-1.386l1.314-0.612c0.576,0.684,1.063,1.368,1.278,1.999h3.043v1.314h-7.454v-1.314H203.328z
		 M215.031,457.995c-1.62,0.936-3.276,1.386-4.879,1.674v2.575h5.167v1.314h-2.017v9.381h-1.387v-9.381h-1.764v2.323
		c0,2.395-0.793,4.861-2.179,7.004l-1.225-0.864c1.656-2.269,2.017-4.717,2.017-7.508l-0.019-5.942
		c1.999-0.234,3.728-0.774,5.42-1.693L215.031,457.995z"/>
	<path fill="#C1DBF2" d="M220.553,471.805l-0.793-1.152c0.343-0.288,0.469-0.486,0.469-0.864v-5.816h-2.557v-1.314h3.925v7.094
		l2.539-1.368v1.476L220.553,471.805z M221.687,461.182c-0.522-1.081-1.296-1.927-2.286-2.737l0.954-0.811
		c1.008,0.667,1.872,1.639,2.467,2.665L221.687,461.182z M232.508,472.903c-1.477-0.558-3.205-1.422-4.339-2.358
		c-1.099,0.81-2.755,1.89-4.357,2.431l-0.9-1.134c1.675-0.594,3.097-1.314,4.231-2.215c-0.99-1.044-1.621-2.431-2.179-3.727h-0.847
		v-1.314h7.742c-0.359,2.341-1.368,3.763-2.719,5.005c1.261,0.99,2.737,1.639,4.592,2.197L232.508,472.903z M230.87,463.433
		c-0.864,0-1.332-0.648-1.332-1.351v-2.935h-2.881v1.674c0,0.918-0.396,1.854-1.314,2.719c-0.36,0.342-0.864,0.685-1.44,0.918
		l-0.973-1.134c1.026-0.342,1.566-0.882,1.981-1.495c0.396-0.612,0.378-1.026,0.378-1.674v-2.323h5.617v4.069
		c0,0.144,0.145,0.234,0.288,0.216h1.944v1.314H230.87z M226.441,465.899c0.396,0.9,0.918,2.017,1.71,2.809
		c0.811-0.81,1.477-1.71,1.927-2.809H226.441z"/>
	<path fill="#C1DBF2" d="M251.175,471.571h-14.71v-1.332h7.111c1.801-2.395,2.899-5.33,3.313-8.606l1.368,0.576
		c-0.45,3.024-1.53,5.833-3.079,8.03h5.996V471.571z M243.793,459.994c-0.702-1.026-1.657-1.98-2.936-2.413l1.152-0.937
		c1.225,0.468,2.251,1.513,3.043,2.647l-0.954,0.684l6.212,0.018v1.333h-13.036v-1.314L243.793,459.994z M241.579,469.554
		c-0.234-2.413-1.152-5.563-2.845-7.346l1.26-0.612c1.711,1.836,2.791,5.023,2.953,7.544L241.579,469.554z"/>
	<path fill="#C1DBF2" d="M253.331,471.787c0.09-0.738,0.18-1.044,0.432-1.548c0.486-0.973,1.314-1.909,2.611-2.971l0.594-0.486
		c2.377-1.945,3.277-3.169,3.277-4.394c0-1.296-1.026-2.232-2.431-2.232c-1.549,0-2.503,0.972-2.521,2.593l-1.62-0.18
		c0.216-2.413,1.692-3.727,4.178-3.727c2.395,0,4.033,1.458,4.033,3.583c0,1.53-0.9,2.899-3.17,4.808l-1.296,1.098
		c-1.063,0.9-1.494,1.369-1.854,1.945h6.338v1.512H253.331z"/>
	<path fill="#C1DBF2" d="M279.092,471.571c-1.891-0.792-3.385-2.881-4.033-4.807l-0.864,0.36c0.288,1.243,0.36,2.539,0.271,3.547
		c-0.09,0.99-0.288,1.854-1.225,2.179c-0.792,0.288-2.179,0.054-3.151-0.126l-0.558-1.602c1.17,0.378,2.07,0.612,3.024,0.576
		c0.217-0.09,0.469-0.36,0.522-0.594c0.09-0.702,0.108-1.458,0.072-2.413c-2.161,1.873-5.6,2.773-7.94,3.205l-0.99-1.242
		c3.349-0.486,6.302-1.351,8.643-3.367c-0.145-0.378-0.271-0.702-0.486-1.044c-1.891,1.296-3.961,2.305-6.842,2.61l-0.954-1.17
		c2.79-0.396,5.131-1.063,7.058-2.467c-0.288-0.234-0.576-0.432-0.9-0.612c-1.494,0.738-3.043,1.17-4.879,1.422l-0.937-1.188
		c2.971-0.468,5.006-1.098,6.554-2.035l-4.537-0.018l0.018-1.297h10.155v1.279h-3.313c-0.576,0.504-1.243,0.864-1.729,1.152
		c0.647,0.414,1.35,1.242,1.692,2.017c1.206-0.396,2.322-1.387,3.331-2.593l1.044,0.918c-0.702,0.811-1.368,1.333-1.999,1.801
		c0.505,1.638,2.017,3.745,3.854,4.447L279.092,471.571z M279.128,462.208h-1.387v-1.999h-11.541l0.018,2.071h-1.386v-3.349h6.5
		c-0.288-0.45-0.667-0.738-1.711-1.512c0.45-0.324,0.756-0.558,1.135-0.846c1.116,0.648,1.944,1.764,2.286,2.358h6.086V462.208z"/>
	<path fill="#C1DBF2" d="M283.103,463.883h13.954v1.495l-13.954,0.018V463.883z"/>
	<path fill="#C1DBF2" d="M306.252,465.377v1.368c-1.404,0.342-3.638,0.9-5.438,1.458l-0.648-1.207
		c1.08-1.08,2.053-2.179,2.574-2.989c-0.162,0.036-1.224,0.306-1.962,0.54l-0.685-1.224c0.883-1.422,2.161-4.213,3.025-6.446
		l1.224,0.576c-0.54,1.261-1.926,4.268-2.61,5.474c0.288-0.036,1.314-0.27,1.891-0.396c0.396-0.594,0.792-1.314,1.206-2.161
		l1.261,0.576c-1.063,2.125-2.089,3.889-3.728,5.438L306.252,465.377z M300.203,470.347c2.179-0.702,3.817-1.26,6.05-1.962v1.332
		l-5.366,1.873L300.203,470.347z M313.941,457.743c-0.288,2.053-0.793,3.061-1.513,4.538l2.322,0.018
		c-0.468,2.719-0.972,5.023-2.358,6.968c0.811,1.152,2.07,2.017,3.529,2.737l-1.045,1.062c-1.458-0.63-2.557-1.621-3.385-2.701
		c-0.973,1.008-1.746,1.873-3.133,2.646l-0.937-1.152c1.423-0.774,2.215-1.548,3.169-2.628c-1.008-1.458-1.656-2.629-2.053-3.799
		c-0.036,2.863-0.414,4.97-1.872,7.112l-0.396,0.468l-1.296-0.846c0.756-0.864,0.972-1.224,1.332-2.017
		c0.9-1.98,0.828-4.429,0.828-6.806v-4.303h-1.477v-1.314L313.941,457.743z M310.772,462.424c0.81-1.17,1.188-2.305,1.512-3.385
		h-3.763v2.395c0.36,1.854,1.782,5.005,2.989,6.698c0.828-1.26,1.332-2.953,1.674-4.555h-2.412V462.424z"/>
	<path fill="#C1DBF2" d="M318.202,463.577c2.611-1.639,4.142-3.511,4.988-5.672l1.188,0.667c-0.828,2.358-2.881,4.555-5.095,6.05
		L318.202,463.577z M330.266,469.284c-0.234,1.909-0.703,2.773-1.566,3.007c-0.937,0.252-2.611-0.072-3.529-0.288l-0.414-1.567
		c1.224,0.342,2.053,0.522,3.024,0.594c0.522,0.036,0.864-0.774,1.026-1.729c0.198-1.206,0.342-3.061,0.433-4.429h-3.386
		c-0.359,2.197-0.936,6.212-6.481,8.156l-0.864-1.152c2.053-0.576,5.275-2.017,5.924-7.004h-3.025v-1.333h9.327
		C330.68,465.503,330.5,467.448,330.266,469.284z M327.673,458.193l1.512-0.432c0.198,2.683,2.575,4.736,4.7,5.582l-0.865,1.26
		C329.833,462.658,328.753,461.344,327.673,458.193z"/>
	<path fill="#C1DBF2" d="M336.003,466.35c2.269-1.296,4.069-3.313,5.546-5.42l1.099,0.738c-0.505,0.918-1.53,2.125-2.197,2.935v8.3
		h-1.386v-6.878c-0.307,0.288-1.314,0.954-1.999,1.44L336.003,466.35z M336.238,461.398c1.891-1.314,3.349-2.935,4.556-4.825
		l1.063,0.828c-1.207,1.818-2.701,3.727-4.412,4.934L336.238,461.398z M344.484,471.427c0.919,0.072,1.711,0.072,2.485,0.054
		c0.198-0.054,0.396-0.18,0.396-0.432v-7.382h-4.609v-1.332l9.273,0.018v1.314l-3.205,0.018l-0.019,7.526
		c0,0.63-0.324,1.098-0.773,1.369c-0.486,0.27-2.197,0.252-3.115,0.216L344.484,471.427z M350.93,459.31h-7.742l-0.019-1.333
		l7.761-0.018V459.31z"/>
	<path fill="#C1DBF2" d="M361.153,462.046v-1.945h1.944v1.945H361.153z M361.567,472.021l-0.414-0.63
		c0.846-0.378,0.936-1.063,0.954-1.819h-0.954v-1.944h1.944v1.944C363.097,470.185,363.043,471.391,361.567,472.021z"/>
	<path fill="#C1DBF2" d="M376.379,472.003c-1.639,0-3.097-0.882-3.781-2.305c-0.486-1.009-0.684-2.215-0.684-3.943
		c0-4.52,1.584-6.914,4.609-6.914c2.052,0,3.402,1.188,3.673,3.205l-1.585,0.144c-0.18-1.333-0.9-2.035-2.088-2.035
		c-1.171,0-2.053,0.63-2.503,1.765c-0.324,0.828-0.54,2.017-0.54,2.971v0.252c0.288-0.45,0.432-0.612,0.756-0.882
		c0.666-0.522,1.513-0.828,2.377-0.828c2.179,0,3.799,1.783,3.799,4.159C380.413,470.167,378.738,472.003,376.379,472.003z
		 M376.29,464.819c-1.477,0-2.557,1.188-2.557,2.773c0,1.765,1.134,3.115,2.61,3.115c1.423,0,2.449-1.26,2.449-3.007
		C378.792,465.989,377.784,464.819,376.29,464.819z"/>
	<path fill="#C1DBF2" d="M397.479,471.571c-1.891-0.792-3.385-2.881-4.033-4.807l-0.865,0.36c0.289,1.243,0.361,2.539,0.271,3.547
		c-0.09,0.99-0.289,1.854-1.225,2.179c-0.793,0.288-2.18,0.054-3.152-0.126l-0.557-1.602c1.17,0.378,2.07,0.612,3.023,0.576
		c0.217-0.09,0.469-0.36,0.523-0.594c0.09-0.702,0.107-1.458,0.072-2.413c-2.162,1.873-5.6,2.773-7.941,3.205l-0.99-1.242
		c3.349-0.486,6.302-1.351,8.642-3.367c-0.145-0.378-0.27-0.702-0.486-1.044c-1.891,1.296-3.961,2.305-6.841,2.61l-0.954-1.17
		c2.79-0.396,5.131-1.063,7.057-2.467c-0.287-0.234-0.576-0.432-0.9-0.612c-1.494,0.738-3.043,1.17-4.878,1.422l-0.937-1.188
		c2.971-0.468,5.004-1.098,6.553-2.035l-4.537-0.018l0.018-1.297h10.156v1.279h-3.313c-0.576,0.504-1.244,0.864-1.729,1.152
		c0.646,0.414,1.35,1.242,1.691,2.017c1.207-0.396,2.322-1.387,3.332-2.593l1.043,0.918c-0.701,0.811-1.367,1.333-1.998,1.801
		c0.504,1.638,2.016,3.745,3.854,4.447L397.479,471.571z M397.514,462.208h-1.387v-1.999h-11.541l0.018,2.071h-1.386v-3.349h6.5
		c-0.289-0.45-0.668-0.738-1.711-1.512c0.449-0.324,0.756-0.558,1.135-0.846c1.115,0.648,1.943,1.764,2.285,2.358h6.086V462.208z"/>
	<path fill="#C1DBF2" d="M401.111,469.951v-1.458l14.691,0.018v1.422L401.111,469.951z M414.615,461.398h-12.281v-1.44l12.281,0.018
		V461.398z"/>
	<path fill="#C1DBF2" d="M424.639,465.377v1.368c-1.404,0.342-3.639,0.9-5.438,1.458l-0.648-1.207
		c1.08-1.08,2.053-2.179,2.574-2.989c-0.162,0.036-1.225,0.306-1.963,0.54l-0.684-1.224c0.883-1.422,2.16-4.213,3.025-6.446
		l1.223,0.576c-0.539,1.261-1.926,4.268-2.609,5.474c0.287-0.036,1.314-0.27,1.891-0.396c0.395-0.594,0.791-1.314,1.205-2.161
		l1.262,0.576c-1.063,2.125-2.09,3.889-3.729,5.438L424.639,465.377z M418.588,470.347c2.18-0.702,3.816-1.26,6.051-1.962v1.332
		l-5.367,1.873L418.588,470.347z M432.326,457.743c-0.287,2.053-0.793,3.061-1.512,4.538l2.322,0.018
		c-0.469,2.719-0.973,5.023-2.359,6.968c0.811,1.152,2.07,2.017,3.529,2.737l-1.045,1.062c-1.457-0.63-2.557-1.621-3.385-2.701
		c-0.973,1.008-1.746,1.873-3.133,2.646l-0.936-1.152c1.422-0.774,2.215-1.548,3.168-2.628c-1.008-1.458-1.656-2.629-2.053-3.799
		c-0.035,2.863-0.414,4.97-1.871,7.112l-0.396,0.468l-1.297-0.846c0.756-0.864,0.973-1.224,1.332-2.017
		c0.9-1.98,0.828-4.429,0.828-6.806v-4.303h-1.477v-1.314L432.326,457.743z M429.158,462.424c0.809-1.17,1.188-2.305,1.512-3.385
		h-3.764v2.395c0.361,1.854,1.783,5.005,2.988,6.698c0.83-1.26,1.334-2.953,1.676-4.555h-2.412V462.424z"/>
	<path fill="#C1DBF2" d="M436.588,463.577c2.611-1.639,4.141-3.511,4.988-5.672l1.188,0.667c-0.828,2.358-2.881,4.555-5.096,6.05
		L436.588,463.577z M448.652,469.284c-0.234,1.909-0.703,2.773-1.568,3.007c-0.936,0.252-2.609-0.072-3.527-0.288l-0.414-1.567
		c1.223,0.342,2.053,0.522,3.023,0.594c0.523,0.036,0.865-0.774,1.027-1.729c0.197-1.206,0.342-3.061,0.432-4.429h-3.385
		c-0.359,2.197-0.936,6.212-6.482,8.156l-0.863-1.152c2.053-0.576,5.275-2.017,5.924-7.004h-3.025v-1.333h9.326
		C449.066,465.503,448.885,467.448,448.652,469.284z M446.059,458.193l1.512-0.432c0.199,2.683,2.576,4.736,4.699,5.582l-0.863,1.26
		C448.219,462.658,447.139,461.344,446.059,458.193z"/>
	<path fill="#C1DBF2" d="M454.391,466.35c2.268-1.296,4.068-3.313,5.545-5.42l1.1,0.738c-0.506,0.918-1.531,2.125-2.197,2.935v8.3
		h-1.387v-6.878c-0.307,0.288-1.314,0.954-1.998,1.44L454.391,466.35z M454.625,461.398c1.891-1.314,3.348-2.935,4.555-4.825
		l1.063,0.828c-1.207,1.818-2.701,3.727-4.412,4.934L454.625,461.398z M462.871,471.427c0.918,0.072,1.711,0.072,2.484,0.054
		c0.199-0.054,0.396-0.18,0.396-0.432v-7.382h-4.609v-1.332l9.273,0.018v1.314l-3.205,0.018l-0.02,7.526
		c0,0.63-0.324,1.098-0.773,1.369c-0.486,0.27-2.197,0.252-3.115,0.216L462.871,471.427z M469.316,459.31h-7.742l-0.018-1.333
		l7.76-0.018V459.31z"/>
	<path fill="#C1DBF2" d="M480.762,467.178c-0.791,0.054-1.512-0.252-2.016-0.828s-0.648-1.477-0.414-2.215
		c0.27-0.864,1.098-1.53,1.98-1.584c0.828-0.054,1.584,0.252,2.07,0.937c0.432,0.594,0.594,1.35,0.342,2.088
		C482.438,466.403,481.645,467.106,480.762,467.178z M480.799,463.721c-0.414-0.108-0.846,0.018-1.117,0.324
		c-0.252,0.27-0.377,0.666-0.305,1.044c0.07,0.342,0.324,0.684,0.646,0.828c0.451,0.198,0.973,0.09,1.314-0.252
		c0.324-0.324,0.414-0.847,0.254-1.261C481.447,464.063,481.141,463.811,480.799,463.721z"/>
	<path fill="#C1DBF2" d="M495.375,468.618c2.99-1.909,5.133-4.627,6.068-7.562h-5.006v-1.369l6.5,0.018v-2.809h1.404l-0.018,2.809
		l6.428-0.018v1.369h-4.807c0.791,3.169,3.313,5.888,5.887,7.4l-0.973,1.152c-4.645-3.511-5.275-5.438-6.5-8.769l-0.035,6.392h3.475
		v1.35l-3.457-0.018l-0.018,4.43h-1.369l-0.018-4.43l-3.564,0.018v-1.35l3.564,0.018v-6.41c-1.242,3.925-3.35,6.626-6.445,8.859
		L495.375,468.618z"/>
	<path fill="#C1DBF2" d="M513.609,466.35c2.27-1.296,4.07-3.313,5.547-5.42l1.098,0.738c-0.504,0.918-1.529,2.125-2.197,2.935v8.3
		h-1.385v-6.878c-0.307,0.288-1.314,0.954-2,1.44L513.609,466.35z M513.844,461.398c1.891-1.314,3.35-2.935,4.557-4.825l1.061,0.828
		c-1.205,1.818-2.699,3.727-4.41,4.934L513.844,461.398z M522.09,471.427c0.92,0.072,1.711,0.072,2.486,0.054
		c0.197-0.054,0.395-0.18,0.395-0.432v-7.382h-4.609v-1.332l9.273,0.018v1.314l-3.205,0.018l-0.018,7.526
		c0,0.63-0.324,1.098-0.773,1.369c-0.486,0.27-2.197,0.252-3.115,0.216L522.09,471.427z M528.537,459.31h-7.742l-0.02-1.333
		l7.762-0.018V459.31z"/>
	<path fill="#C1DBF2" d="M547.131,468.456c-0.289,0.972-0.576,1.873-1.008,2.665c-0.396,0.702-1.189,1.062-2,0.99h-8.695
		c-1.152-0.18-1.963-0.955-1.963-2.017l0.018-8.354h1.439v1.729l8.355-0.018l0.018-4.105H532.51l0.037-1.332l12.17,0.018l0.02,7.923
		l-1.404-0.018v-1.152h-8.428l0.018,5.221c0,0.396,0.254,0.72,0.596,0.72h8.588c0.451,0,0.684-0.18,0.865-0.414
		c0.342-0.774,0.646-1.584,0.881-2.611L547.131,468.456z"/>
	<path fill="#C1DBF2" d="M553.246,465.125c-0.521,0.612-1.457,1.548-2.467,2.521l-1.043-1.044c1.943-1.783,3.689-3.745,4.627-5.78
		l-3.691,0.018v-1.333h4.357c0.324-0.774,0.648-1.638,0.846-2.719l1.314,0.432c-0.145,0.882-0.414,1.71-0.629,2.287h8.443v1.333
		h-9.057c-0.379,0.738-0.828,1.657-1.332,2.413l0.018,9.759h-1.404L553.246,465.125z M555.137,470.635h4.07l-0.02-4.393h-3.527
		v-1.333l3.547-0.018v-2.989l1.367-0.018l0.02,3.007h3.906l-0.018,1.351h-3.889v4.393l4.842,0.018v1.333l-10.299-0.018V470.635z"/>
	<path fill="#C1DBF2" d="M568.547,472.201v-1.314h6.391v-2.646h-3.709v-1.314h3.709v-2.485h-4.303v-0.648
		c-0.414,0.271-1.35,0.63-2.25,0.991l-0.811-1.225c4.016-1.35,6.535-3.907,7.904-6.23l1.314,0.594l-0.324,0.541
		c1.332,2.214,4.303,4.051,7.221,4.987l-0.793,1.242c-0.936-0.342-1.729-0.702-2.34-0.972v0.72h-4.213v2.485h3.709v1.314h-3.709
		v2.646h6.48v1.314H568.547z M579.656,463.126c-1.584-0.774-2.898-1.836-4.088-3.475c-1.115,1.531-2.305,2.539-3.854,3.439
		L579.656,463.126z"/>
	<path fill="#C1DBF2" d="M599.078,472.85v-1.261h-10.965v1.261h-1.369v-15.269h13.611v15.269H599.078z M599.078,458.895h-10.965
		v11.452h10.965V458.895z M588.473,469.05v-1.242h4.357v-3.061h-3.584v-1.243h3.584v-2.287h-4.195v-1.242h9.813v1.242h-4.338v2.287
		h3.762v1.243h-3.762v3.061h4.518v1.242H588.473z M596.953,467.682c-0.701-0.918-1.332-1.549-2.232-2.071l0.883-0.702
		c0.756,0.45,1.729,1.152,2.305,2.088L596.953,467.682z"/>
	<path fill="#C1DBF2" d="M603.484,471.787c0.09-0.738,0.18-1.044,0.432-1.548c0.486-0.973,1.314-1.909,2.611-2.971l0.594-0.486
		c2.377-1.945,3.277-3.169,3.277-4.394c0-1.296-1.027-2.232-2.432-2.232c-1.549,0-2.502,0.972-2.521,2.593l-1.619-0.18
		c0.215-2.413,1.691-3.727,4.176-3.727c2.396,0,4.033,1.458,4.033,3.583c0,1.53-0.898,2.899-3.168,4.808l-1.297,1.098
		c-1.063,0.9-1.494,1.369-1.854,1.945h6.338v1.512H603.484z"/>
	<path fill="#C1DBF2" d="M613.545,471.787c0.09-0.738,0.18-1.044,0.432-1.548c0.486-0.973,1.314-1.909,2.611-2.971l0.594-0.486
		c2.377-1.945,3.277-3.169,3.277-4.394c0-1.296-1.025-2.232-2.43-2.232c-1.549,0-2.504,0.972-2.521,2.593l-1.621-0.18
		c0.217-2.413,1.693-3.727,4.178-3.727c2.395,0,4.033,1.458,4.033,3.583c0,1.53-0.9,2.899-3.17,4.808l-1.295,1.098
		c-1.063,0.9-1.494,1.369-1.855,1.945h6.338v1.512H613.545z"/>
	<path fill="#C1DBF2" d="M639.201,465.701c-2.701-1.512-5.457-3.619-7.113-6.482c-1.225,2.215-4.23,5.258-7.291,6.5l-1.172-0.936
		c3.871-1.873,6.393-4.286,8.229-7.977l1.207,0.558l-0.234,0.504c1.441,2.935,4.52,5.149,7.455,6.878L639.201,465.701z
		 M631.295,473.047v-11.199h1.369v11.199H631.295z"/>
	<path fill="#C1DBF2" d="M655.346,463.649v9.435h-1.352v-1.063h-6.914v1.063h-1.367v-8.229c-0.865,0.144-1.963,0.27-3.26,0.378
		l-0.701-1.368c1.512-0.108,2.791-0.216,4.014-0.432c2.738-0.504,5.023-1.314,7.113-3.457l1.008,0.918
		c-1.08,1.062-2.377,1.962-4.051,2.719L655.346,463.649z M642.363,461.2c1.818-0.792,3.385-1.926,4.717-3.439l0.955,0.918
		c-1.369,1.639-2.826,2.737-4.555,3.565L642.363,461.2z M647.063,469.572v1.134h6.932v-1.134H647.063z M647.08,465.971h6.914v-1.008
		h-6.914V465.971z M647.08,468.312h6.914v-1.08h-6.914V468.312z M649.115,461.416v-4.501h1.369v4.501H649.115z M656.588,462.244
		c-1.297-1.566-2.773-2.827-4.682-3.493l1.063-0.937c1.873,0.63,3.385,1.909,4.789,3.475L656.588,462.244z"/>
	<path fill="#C1DBF2" d="M667.512,467.808l-0.523-0.667c0.848-0.378,1.082-1.062,1.082-1.782h-0.973v-1.981h1.98v1.891
		C669.078,465.881,668.861,467.178,667.512,467.808z"/>
	<path fill="#C1DBF2" d="M80.55,491.533c-0.774,1.351-2.053,2.07-3.637,2.07c-2.053,0-3.367-1.152-3.619-3.205l1.513-0.126
		c0.252,1.386,0.936,2.035,2.143,2.035c0.972,0,1.818-0.522,2.269-1.405s0.738-2.106,0.738-3.259v-0.324
		c-0.666,1.044-1.854,1.692-3.079,1.692c-2.215,0-3.817-1.764-3.817-4.213c0-2.557,1.675-4.357,4.052-4.357
		c1.278,0,2.448,0.558,3.223,1.548c0.847,1.063,1.188,2.413,1.188,4.682C81.523,488.94,81.252,490.308,80.55,491.533z
		 M77.148,481.756c-1.44,0-2.467,1.26-2.467,2.989c0,1.71,1.008,2.881,2.521,2.881c1.494,0,2.574-1.17,2.574-2.773
		C79.776,483.106,78.624,481.756,77.148,481.756z"/>
	<path fill="#C1DBF2" d="M87.498,493.387v-10.083c-0.522,0.504-1.026,0.846-1.963,1.351c-0.576,0.306-0.738,0.378-1.206,0.558
		v-1.531c1.71-0.792,3.133-2.052,3.727-3.241h1.026v12.946H87.498z"/>
	<path fill="#C1DBF2" d="M108.507,487.301c-2.701-1.512-5.456-3.619-7.112-6.482c-1.225,2.215-4.231,5.258-7.292,6.5l-1.171-0.936
		c3.871-1.873,6.392-4.286,8.229-7.977l1.206,0.558l-0.233,0.504c1.44,2.935,4.52,5.149,7.454,6.878L108.507,487.301z
		 M100.602,494.647v-11.199h1.369v11.199H100.602z"/>
	<path fill="#C1DBF2" d="M111.454,491.064l2.449-0.792v-5.456h-2.017l0.018-1.314l2.017-0.018l-0.018-3.817h1.368v3.817h1.891
		l-0.018,1.333l-1.891-0.018l0.018,4.916l2.053-0.685v1.369l-5.077,1.8L111.454,491.064z M127.281,490.308
		c-0.54,2.863-0.9,3.565-1.963,3.565h-6.014c-0.846,0-1.404-0.612-1.404-1.477v-5.978l-0.954,0.324l-0.468-1.314l1.422-0.414
		l0.019-3.637h1.35v3.223l1.909-0.594v-5.618h1.368v5.312l3.799-1.044c-0.162,2.449-0.432,5.24-0.864,6.536
		c-0.198,0.432-0.485,0.828-1.08,0.811c-0.486,0-0.954-0.108-1.477-0.234l-0.233-1.548c0.647,0.234,0.846,0.414,1.26,0.486
		c0.252,0.054,0.324-0.162,0.36-0.306c0.306-1.405,0.45-2.647,0.558-3.943l-2.34,0.612l0.018,5.762h-1.368v-5.348l-1.909,0.594
		l-0.018,5.996c0,0.306,0.216,0.486,0.45,0.486l5.438-0.018c0.522,0,0.648-1.44,0.864-2.665L127.281,490.308z"/>
	<path fill="#C1DBF2" d="M135.774,486.977v1.369c-1.404,0.342-3.638,0.9-5.438,1.458l-0.648-1.207
		c1.08-1.08,2.053-2.179,2.574-2.989c-0.162,0.036-1.224,0.306-1.962,0.54l-0.685-1.224c0.883-1.422,2.161-4.213,3.025-6.446
		l1.224,0.576c-0.54,1.26-1.926,4.267-2.61,5.474c0.288-0.036,1.314-0.271,1.891-0.396c0.396-0.594,0.792-1.314,1.206-2.161
		l1.261,0.576c-1.063,2.125-2.089,3.889-3.728,5.438L135.774,486.977z M129.724,491.947c2.179-0.702,3.817-1.26,6.05-1.962v1.332
		l-5.366,1.873L129.724,491.947z M143.462,479.343c-0.288,2.052-0.793,3.061-1.513,4.537l2.322,0.018
		c-0.468,2.719-0.972,5.023-2.358,6.968c0.811,1.152,2.07,2.017,3.529,2.736l-1.045,1.063c-1.458-0.63-2.557-1.621-3.385-2.701
		c-0.973,1.008-1.746,1.873-3.133,2.647l-0.937-1.152c1.423-0.774,2.215-1.549,3.169-2.629c-1.008-1.458-1.656-2.629-2.053-3.799
		c-0.036,2.863-0.414,4.97-1.872,7.112l-0.396,0.468l-1.296-0.847c0.756-0.864,0.972-1.224,1.332-2.017
		c0.9-1.98,0.828-4.429,0.828-6.806v-4.304h-1.477v-1.314L143.462,479.343z M140.293,484.024c0.81-1.17,1.188-2.305,1.512-3.385
		h-3.763v2.395c0.36,1.854,1.782,5.005,2.989,6.698c0.828-1.26,1.332-2.953,1.674-4.555h-2.412V484.024z"/>
	<path fill="#C1DBF2" d="M150.838,493.369c2.035-0.558,3.728-1.386,5.149-2.557c-1.566-1.584-2.521-3.205-3.313-5.33
		c-0.162,2.575-0.505,4.483-1.026,5.636c-0.576,1.242-1.278,2.395-2.287,3.511c-0.504-0.252-0.9-0.522-1.458-0.846
		c1.458-1.404,2.431-2.827,2.772-4.501c0.324-1.53,0.414-2.809,0.504-4.447c0.072-1.35,0.108-2.719,0.072-3.889h-2.412v-1.368
		h11.469v1.188c-0.792,1.188-1.656,2.323-2.341,3.223h3.565c-0.162,1.422-0.504,2.665-1.135,3.745
		c-0.647,1.134-1.422,2.143-2.286,3.025c1.477,1.134,3.241,1.963,5.329,2.521l-0.846,1.296c-2.07-0.594-3.817-1.477-5.563-2.827
		c-1.387,1.225-2.972,2.161-5.312,2.827L150.838,493.369z M152.783,481.774c0.631,2.25,1.243,3.493,1.837,4.717
		c0.63,1.314,1.188,2.017,2.467,3.349c1.116-1.117,2.341-2.917,2.791-4.501h-3.835v-1.207c0.918-1.152,1.944-2.539,2.376-3.187
		h-5.636V481.774z"/>
	<path fill="#C1DBF2" d="M166.283,490.813c0.738-0.414,1.314-0.667,1.765-0.955v-10.317l1.458,0.018v9.489
		c1.261-0.648,2.683-1.53,4.339-2.485v1.584c-1.512,0.864-2.971,1.693-4.393,2.557c-0.576,0.342-1.171,0.738-1.854,1.134
		L166.283,490.813z M170.423,493.045c2.269-1.152,4.285-2.935,5.51-5.042c0.666-1.44,1.152-2.863,1.261-4.519
		c0.09-1.26,0.126-2.755,0.162-4.538h1.477c-0.145,3.511,0.071,6.536-1.459,9.507c1.063,0.63,3.385,2.791,4.249,4.447l-1.17,0.973
		c-1.135-1.963-2.503-3.259-3.799-4.195c-1.188,1.62-3.007,3.277-5.366,4.646L170.423,493.045z M174.313,484.853
		c-1.045-1.35-2.287-2.197-3.799-2.845l0.954-0.99c0.774,0.252,1.422,0.702,2.017,1.062c0.576,0.36,1.242,1.063,1.8,1.585
		L174.313,484.853z"/>
	<path fill="#C1DBF2" d="M190.206,491.893v-13.162h1.387l0.018,5.222l6.158,0.018v1.296h-6.158l-0.018,6.626h7.761v1.333
		l-15.035-0.018v-1.314H190.206z"/>
	<path fill="#C1DBF2" d="M201.454,489.984c1.026-0.36,1.765-0.685,2.467-0.973v-4.555h-1.891l0.018-1.314h1.891v-3.799l1.351-0.018
		v3.835h1.566l0.019,1.296h-1.603v3.925l1.872-0.738v1.404l-4.555,1.999L201.454,489.984z M216.812,484.493
		c-0.36,2.035-1.008,4.249-2.143,5.924c0.288,0.846,0.648,1.782,1.332,2.431c0.271,0.09,0.433-1.549,0.505-2.521l1.332,0.504
		c-0.162,1.152-0.378,2.088-0.756,2.953c-0.162,0.378-0.559,0.594-0.955,0.576c-0.972,0.054-1.926-1.512-2.376-2.683
		c-0.847,0.972-1.783,1.747-2.899,2.485l-1.098-0.918c1.404-0.882,2.683-1.962,3.528-3.079c-0.576-2.287-0.773-4.753-0.936-7.04
		h-3.493v2.071h3.313c-0.036,1.639-0.144,3.475-0.432,5.078c-0.09,0.504-0.378,1.044-0.883,1.17
		c-0.647,0.162-1.278-0.072-1.872-0.271l-0.271-1.512c0.702,0.27,0.99,0.432,1.423,0.504c0.252,0.072,0.342-0.198,0.378-0.54
		c0.108-1.026,0.306-2.25,0.306-3.133h-1.944c-0.126,2.863-0.144,5.24-2.521,8.121l-1.206-0.882
		c1.278-1.477,2.358-3.277,2.358-6.716v-5.204h4.771c-0.036-0.882-0.036-2.413-0.054-3.439h1.278
		c0.036,1.099-0.019,2.035,0.071,3.439h3.655v1.314l-3.601-0.018c0.054,1.314,0.359,4.124,0.576,5.456
		c0.846-1.477,1.08-2.719,1.458-4.574L216.812,484.493z M216.074,481.666c-0.666-0.882-1.404-1.53-2.467-1.873l0.937-0.882
		c1.152,0.396,1.908,1.026,2.484,1.819L216.074,481.666z"/>
	<path fill="#C1DBF2" d="M235.461,480.784v1.332h-15.377l-0.018-1.332h7.058c-0.396-0.559-1.044-1.17-1.818-1.549l1.008-0.936
		c0.99,0.468,1.711,1.296,2.359,2.232l-0.288,0.252H235.461z M228.42,486.059l0.019,8.553h-1.387v-8.553h-3.511l-0.018,6.698
		l-1.387,0.018v-8.048l4.915-0.018v-2.017l1.387-0.018v2.053h5.023l0.018,6.176c0,1.026-0.378,1.566-1.458,1.566h-1.62l-0.45-1.386
		l1.603,0.072c0.342,0.018,0.54-0.18,0.54-0.45l-0.019-4.646H228.42z"/>
	<path fill="#C1DBF2" d="M245.989,489.948c-0.595-1.278-1.351-2.449-2.215-3.043v7.742h-1.368v-7.094
		c-0.522,1.117-1.837,2.701-3.367,4.051l-1.261-0.918c2.161-1.693,3.871-3.889,4.556-6.014h-3.439v-1.314l3.512,0.018v-2.287
		c-0.9,0.126-2.017,0.342-3.241,0.396l-0.559-1.243c2.647-0.198,5.006-0.522,7.166-1.638l0.829,1.026
		c-0.612,0.396-2.161,0.954-2.827,1.152v2.593l3.061-0.018l-0.018,1.314l-3.043-0.018v1.314l0.486-0.342
		c1.026,0.63,2.395,2.269,2.862,3.493L245.989,489.948z M252.92,493.549l-1.368,0.018v-1.783h-2.881v1.801h-1.351l-0.018-13.522
		h5.617V493.549z M248.671,490.452h2.881v-9.075h-2.881V490.452z"/>
	<path fill="#C1DBF2" d="M257.974,485.861c-0.612-0.954-1.692-1.98-2.665-2.539l0.919-0.955c1.008,0.504,2.232,1.585,2.862,2.467
		L257.974,485.861z M255.49,493.639c1.351-1.98,2.089-4.177,2.358-6.788l1.333,0.414c-0.324,2.845-1.063,5.258-2.251,7.004
		L255.49,493.639z M258.802,482.35c-0.504-0.792-1.548-1.693-2.646-2.377l0.954-0.972c0.919,0.504,2.106,1.44,2.755,2.341
		L258.802,482.35z M266.815,490.632c0.792,1.44,2.575,2.251,4.285,2.503l1.116,0.162l-0.882,1.296
		c-3.133-0.63-5.06-1.747-5.906-3.745c-0.99,2.214-3.673,3.385-6.212,3.763l-0.864-1.387c2.341-0.324,4.609-0.774,5.618-2.593
		h-4.897v-1.314h5.474c0.108-0.306,0.198-0.738,0.252-1.296l1.387,0.252c-0.019,0.45-0.145,0.9-0.198,1.044h5.455v1.314H266.815z
		 M269.534,488.778c-0.594,0.18-1.152,0.09-1.818-0.018v-1.296l0.864,0.108c0.306,0,0.432-0.198,0.432-0.468v-6.086h-7.58v7.904
		h-1.422v-9.201h3.601c0.522-0.342,0.864-0.972,1.188-1.657l1.297,0.504c-0.181,0.486-0.505,0.828-0.738,1.152h5.06v7.778
		C270.417,488.058,270.038,488.634,269.534,488.778z M264.6,485.537c-0.342,1.117-0.972,1.927-1.98,2.719l-1.008-1.081
		c1.08-0.432,1.764-1.621,2.07-2.287h-1.963v-1.278h1.278c-0.107-0.324-0.468-0.774-0.936-1.369l1.116-0.522
		c0.432,0.486,1.008,1.333,1.152,1.891h0.27v-2.323h1.351v2.323h0.378c0.181-0.36,0.576-1.044,0.738-1.945l1.207,0.468
		c-0.181,0.594-0.433,1.26-0.576,1.477h1.044v1.278h-2.791v0.63l0.45-0.522c0.811,0.342,1.513,0.99,1.963,1.639l-0.919,0.9
		c-0.468-0.738-1.008-1.243-1.494-1.477v1.818H264.6V485.537z"/>
	<path fill="#C1DBF2" d="M275.021,494.414V481.45h1.368v12.964H275.021z M278.154,482.314c-0.486-1.26-1.368-2.395-2.305-3.025
		l1.08-0.72c0.973,0.594,1.873,1.674,2.467,2.899L278.154,482.314z M287.552,494.144c-0.558,0.108-0.99,0.126-1.891,0.054
		l-0.54-1.404l1.891,0.108c0.18,0.018,0.288-0.162,0.288-0.396v-11.757h-7.166v-1.314h8.534v13.54
		C288.668,493.621,288.075,494.036,287.552,494.144z"/>
	<path fill="#C1DBF2" d="M295.559,488.76l-2.215,0.955l-1.008-1.117l3.205-1.333v-3.637l-1.242-0.018
		c-0.234,0.882-0.576,1.638-1.152,2.773l-1.261-0.667c1.063-1.747,1.477-3.259,1.675-5.293l1.314,0.36
		c-0.019,0.522-0.127,1.098-0.198,1.53l0.882-0.018v-3.745l1.351-0.018l0.018,3.763h1.621v1.314h-1.621v2.989l1.765-0.684v1.44
		l-1.765,0.774v6.482h-1.368V488.76z M298.422,488.922v-1.296l6.104-0.018v-1.621h1.351l0.018,1.639h2.089v1.296h-2.089v3.925
		c0,0.648-0.252,1.386-1.063,1.53c-0.737,0.216-1.692,0.108-2.286,0.144l-0.595-1.386c0.864,0.054,1.459,0.09,2.089,0.072
		c0.252-0.018,0.486-0.144,0.486-0.468v-3.817H298.422z M307.623,484.475v1.314h-8.841v-1.314h3.638l0.018-2.413h-2.988v-1.314
		h2.971v-2.305l1.368-0.018v2.323h3.169l0.019,1.314h-3.188v2.413H307.623z M301.969,492.325c-0.792-1.008-1.656-1.782-2.863-2.269
		l0.937-0.882c1.188,0.432,2.106,1.225,2.971,2.269L301.969,492.325z"/>
	<path fill="#C1DBF2" d="M315.269,485.177c-0.036,0.81-0.054,1.224-0.126,1.71h4.123c-0.018,1.71-0.287,4.357-0.504,5.348
		c-0.144,0.666-0.342,1.333-1.386,1.818c-0.307,0.144-0.9,0.234-1.423,0.18c-0.486-0.054-0.918-0.126-1.404-0.27l-0.324-1.53
		c0.576,0.198,1.278,0.324,1.566,0.396c0.576,0.144,1.063,0.036,1.297-0.36c0.485-0.774,0.63-2.809,0.666-4.231l-2.737,0.018
		c-0.09,1.332-1.116,5.077-3.601,6.392l-1.116-1.044c1.872-1.008,2.952-2.971,3.276-5.365h-2.898v-1.387l3.115,0.018
		c0.09-0.522,0.107-1.206,0.09-1.873L315.269,485.177z M311.506,479.289h7.238v5.563h-7.238V479.289z M312.893,480.639v2.881h4.465
		v-2.881H312.893z M322.021,480.333v10.497h-1.422v-10.497H322.021z M320.815,493.135c1.099,0.054,1.675,0.108,2.305,0.018
		c0.271-0.018,0.433-0.108,0.433-0.594v-13.954h1.386v14.458c0,0.72-0.45,1.477-1.368,1.477h-2.125L320.815,493.135z"/>
	<path fill="#C1DBF2" d="M328.011,487.95c2.269-1.296,4.069-3.313,5.546-5.42l1.099,0.738c-0.505,0.918-1.53,2.125-2.197,2.935v8.3
		h-1.386v-6.878c-0.307,0.288-1.314,0.954-1.999,1.44L328.011,487.95z M328.246,482.998c1.891-1.314,3.349-2.935,4.556-4.825
		l1.063,0.828c-1.207,1.818-2.701,3.727-4.412,4.934L328.246,482.998z M336.492,493.027c0.919,0.072,1.711,0.072,2.485,0.054
		c0.198-0.054,0.396-0.18,0.396-0.432v-7.382h-4.609v-1.332l9.273,0.018v1.314l-3.205,0.018l-0.019,7.526
		c0,0.63-0.324,1.098-0.773,1.368c-0.486,0.271-2.197,0.252-3.115,0.216L336.492,493.027z M342.938,480.91h-7.742l-0.019-1.333
		l7.761-0.018V480.91z"/>
	<path fill="#C1DBF2" d="M345.833,492.487l1.729-0.54v-8.229h1.422v7.796l1.603-0.576l-0.018-9.993h-3.817v-1.332h8.318v1.332
		h-3.079v3.943l2.395,0.018v1.314l-2.376,0.018v4.195l3.438-1.278v1.531l-8.624,3.061L345.833,492.487z M360.722,483.142
		c-0.107,2.395-0.954,5.078-2.088,6.896c0.864,1.296,2.124,2.665,3.727,3.403l-0.918,1.206c-1.278-0.828-2.772-2.179-3.728-3.547
		c-0.018-0.072,0.234-0.054-0.071,0.36c-0.774,1.063-2.125,2.251-3.745,3.259l-0.9-1.081c1.674-0.99,3.043-2.232,4.051-3.637
		c-0.576-1.152-0.99-2.017-1.242-3.421c-0.18,0.486-0.504,1.225-0.99,1.981l-1.387-0.594c1.278-1.819,2.197-4.465,2.287-6.752
		c0.018-0.684,0.107-2.214,0.072-2.917l1.44,0.162c-0.019,1.152-0.126,2.484-0.234,3.403l5.041-0.018v1.314L360.722,483.142z
		 M356.887,483.178c-0.072,0.18-0.18,0.612-0.288,0.918c0.145,1.261,0.702,3.493,1.297,4.609c0.846-1.71,1.386-3.583,1.44-5.527
		H356.887z"/>
	<path fill="#C1DBF2" d="M379.298,479.541v1.296h-12.441v11.523h13.036v1.296h-13.036v1.026h-1.368v-15.143H379.298z
		 M376.832,491.965l-0.288-0.504c-0.811-1.404-1.927-2.827-2.935-3.961c-1.261,1.747-2.827,3.151-4.79,4.573l-1.062-1.152
		c2.143-1.351,3.637-2.701,4.934-4.483c-1.171-1.278-2.881-2.845-4.628-4.177l1.026-0.846c1.62,1.26,3.025,2.449,4.357,3.853
		c0.774-1.098,1.603-2.358,2.448-3.907l1.152,0.63c-0.611,1.188-1.116,1.963-1.764,2.989c-0.307,0.468-0.612,0.937-0.864,1.333
		c0.99,1.044,2.538,2.899,3.601,4.861L376.832,491.965z"/>
	<path fill="#C1DBF2" d="M385.109,493.405l-0.793-1.152c0.343-0.288,0.469-0.486,0.469-0.864v-5.816h-2.557v-1.314h3.924v7.094
		l2.539-1.368v1.476L385.109,493.405z M386.242,482.782c-0.521-1.081-1.295-1.927-2.286-2.737l0.954-0.811
		c1.007,0.667,1.873,1.639,2.466,2.665L386.242,482.782z M397.064,494.503c-1.477-0.558-3.205-1.422-4.34-2.358
		c-1.098,0.81-2.754,1.891-4.357,2.431l-0.9-1.134c1.676-0.594,3.098-1.314,4.232-2.215c-0.99-1.044-1.621-2.431-2.18-3.727h-0.846
		v-1.314h7.742c-0.359,2.341-1.369,3.763-2.719,5.005c1.26,0.99,2.736,1.639,4.592,2.197L397.064,494.503z M395.426,485.033
		c-0.865,0-1.332-0.648-1.332-1.351v-2.935h-2.881v1.674c0,0.918-0.396,1.854-1.314,2.719c-0.361,0.342-0.865,0.684-1.441,0.918
		l-0.973-1.134c1.027-0.342,1.566-0.882,1.98-1.495c0.396-0.612,0.379-1.026,0.379-1.674v-2.323h5.617v4.069
		c0,0.144,0.145,0.234,0.289,0.216h1.943v1.314H395.426z M390.996,487.5c0.396,0.9,0.918,2.017,1.711,2.809
		c0.811-0.81,1.477-1.71,1.926-2.809H390.996z"/>
	<path fill="#C1DBF2" d="M415.73,493.171h-14.709v-1.333h7.111c1.801-2.395,2.898-5.33,3.313-8.607l1.369,0.576
		c-0.451,3.025-1.531,5.834-3.08,8.031h5.996V493.171z M408.35,481.594c-0.703-1.026-1.658-1.98-2.936-2.413l1.152-0.937
		c1.225,0.468,2.25,1.513,3.043,2.647l-0.955,0.684l6.213,0.018v1.333H401.83v-1.314L408.35,481.594z M406.135,491.155
		c-0.234-2.413-1.152-5.564-2.846-7.347l1.26-0.612c1.711,1.836,2.791,5.023,2.953,7.544L406.135,491.155z"/>
	<path fill="#C1DBF2" d="M425.609,492.685c0.162-0.018,0.289-0.252,0.289-0.54v-8.175c1.691-0.918,3.26-1.926,4.357-3.151
		l-9.795-0.018v-1.35h11.83v1.206c-1.404,1.783-3.17,3.061-4.916,4.015l-0.018,8.013c0,0.54-0.361,1.386-1.314,1.404l-2.646,0.036
		l-0.648-1.44H425.609z"/>
	<path fill="#C1DBF2" d="M442.854,490.308v3.079h-1.584v-3.079h-5.582v-1.458l5.869-8.354h1.297v8.354h1.746v1.458H442.854z
		 M441.27,483.034l-4.033,5.816h4.033V483.034z"/>
	<path fill="#C1DBF2" d="M446.002,493.387c0.09-0.738,0.18-1.044,0.432-1.548c0.486-0.972,1.314-1.909,2.611-2.971l0.594-0.486
		c2.377-1.945,3.277-3.169,3.277-4.394c0-1.296-1.025-2.232-2.43-2.232c-1.549,0-2.504,0.972-2.521,2.593l-1.621-0.18
		c0.217-2.413,1.693-3.727,4.178-3.727c2.395,0,4.033,1.458,4.033,3.583c0,1.53-0.9,2.899-3.17,4.808l-1.295,1.098
		c-1.063,0.9-1.494,1.368-1.855,1.944h6.338v1.513H446.002z"/>
	<path fill="#C1DBF2" d="M471.764,493.171c-1.891-0.792-3.385-2.881-4.033-4.808l-0.863,0.36c0.287,1.243,0.359,2.539,0.27,3.547
		c-0.09,0.99-0.287,1.854-1.225,2.179c-0.791,0.288-2.178,0.054-3.15-0.126l-0.559-1.603c1.17,0.378,2.07,0.612,3.025,0.576
		c0.217-0.09,0.469-0.36,0.521-0.594c0.09-0.702,0.109-1.458,0.072-2.413c-2.16,1.872-5.6,2.772-7.939,3.205l-0.99-1.242
		c3.348-0.486,6.301-1.351,8.643-3.367c-0.145-0.378-0.271-0.702-0.486-1.044c-1.891,1.297-3.961,2.305-6.842,2.611l-0.955-1.17
		c2.791-0.396,5.131-1.062,7.059-2.466c-0.289-0.234-0.576-0.432-0.9-0.612c-1.494,0.738-3.043,1.17-4.879,1.422l-0.938-1.188
		c2.971-0.468,5.006-1.098,6.555-2.035l-4.537-0.018l0.018-1.296h10.154v1.278h-3.313c-0.576,0.504-1.242,0.864-1.729,1.152
		c0.648,0.414,1.35,1.242,1.693,2.017c1.205-0.396,2.322-1.387,3.33-2.593l1.045,0.918c-0.703,0.811-1.369,1.333-2,1.801
		c0.506,1.638,2.018,3.745,3.854,4.447L471.764,493.171z M471.801,483.808h-1.387v-1.999h-11.541l0.018,2.071h-1.387v-3.349h6.5
		c-0.287-0.45-0.666-0.738-1.711-1.512c0.451-0.324,0.756-0.558,1.135-0.846c1.117,0.648,1.945,1.764,2.287,2.358h6.086V483.808z"/>
	<path fill="#C1DBF2" d="M475.773,485.483h13.955v1.494l-13.955,0.018V485.483z"/>
	<path fill="#C1DBF2" d="M498.924,486.977v1.369c-1.404,0.342-3.639,0.9-5.438,1.458l-0.648-1.207
		c1.08-1.08,2.053-2.179,2.574-2.989c-0.162,0.036-1.225,0.306-1.963,0.54l-0.684-1.224c0.883-1.422,2.16-4.213,3.025-6.446
		l1.223,0.576c-0.539,1.26-1.926,4.267-2.609,5.474c0.287-0.036,1.314-0.271,1.891-0.396c0.395-0.594,0.791-1.314,1.205-2.161
		l1.262,0.576c-1.063,2.125-2.09,3.889-3.729,5.438L498.924,486.977z M492.873,491.947c2.18-0.702,3.816-1.26,6.051-1.962v1.332
		l-5.367,1.873L492.873,491.947z M506.611,479.343c-0.287,2.052-0.793,3.061-1.512,4.537l2.322,0.018
		c-0.469,2.719-0.973,5.023-2.359,6.968c0.811,1.152,2.07,2.017,3.529,2.736l-1.045,1.063c-1.457-0.63-2.557-1.621-3.385-2.701
		c-0.973,1.008-1.746,1.873-3.133,2.647l-0.936-1.152c1.422-0.774,2.215-1.549,3.168-2.629c-1.008-1.458-1.656-2.629-2.053-3.799
		c-0.035,2.863-0.414,4.97-1.871,7.112l-0.396,0.468l-1.297-0.847c0.756-0.864,0.973-1.224,1.332-2.017
		c0.9-1.98,0.828-4.429,0.828-6.806v-4.304h-1.477v-1.314L506.611,479.343z M503.443,484.024c0.809-1.17,1.188-2.305,1.512-3.385
		h-3.764v2.395c0.361,1.854,1.783,5.005,2.988,6.698c0.83-1.26,1.334-2.953,1.676-4.555h-2.412V484.024z"/>
	<path fill="#C1DBF2" d="M510.873,485.177c2.611-1.639,4.143-3.511,4.988-5.672l1.188,0.667c-0.828,2.358-2.881,4.555-5.094,6.05
		L510.873,485.177z M522.938,490.884c-0.234,1.909-0.703,2.773-1.566,3.007c-0.936,0.252-2.611-0.072-3.529-0.288l-0.414-1.566
		c1.225,0.342,2.053,0.522,3.025,0.594c0.521,0.036,0.863-0.774,1.025-1.729c0.199-1.206,0.342-3.061,0.434-4.429h-3.387
		c-0.359,2.197-0.936,6.212-6.48,8.156l-0.865-1.152c2.053-0.576,5.275-2.017,5.924-7.004h-3.025v-1.333h9.328
		C523.352,487.104,523.172,489.048,522.938,490.884z M520.346,479.793l1.512-0.432c0.197,2.683,2.574,4.735,4.699,5.582l-0.865,1.26
		C522.506,484.258,521.426,482.944,520.346,479.793z"/>
	<path fill="#C1DBF2" d="M528.676,487.95c2.268-1.296,4.068-3.313,5.545-5.42l1.1,0.738c-0.506,0.918-1.531,2.125-2.197,2.935v8.3
		h-1.387v-6.878c-0.307,0.288-1.314,0.954-1.998,1.44L528.676,487.95z M528.91,482.998c1.891-1.314,3.348-2.935,4.555-4.825
		l1.063,0.828c-1.207,1.818-2.701,3.727-4.412,4.934L528.91,482.998z M537.156,493.027c0.918,0.072,1.711,0.072,2.484,0.054
		c0.199-0.054,0.396-0.18,0.396-0.432v-7.382h-4.609v-1.332l9.273,0.018v1.314l-3.205,0.018l-0.02,7.526
		c0,0.63-0.324,1.098-0.773,1.368c-0.486,0.271-2.197,0.252-3.115,0.216L537.156,493.027z M543.602,480.91h-7.742l-0.018-1.333
		l7.76-0.018V480.91z"/>
</g>
</svg>
