<?xml version="1.0" encoding="utf-8"?>
<!-- Generator: Adobe Illustrator 16.0.0, SVG Export Plug-In . SVG Version: 6.00 Build 0)  -->
<!DOCTYPE svg PUBLIC "-//W3C//DTD SVG 1.1//EN" "http://www.w3.org/Graphics/SVG/1.1/DTD/svg11.dtd">
<svg version="1.1" id="Layer_1" xmlns="http://www.w3.org/2000/svg" xmlns:xlink="http://www.w3.org/1999/xlink" x="0px" y="0px"
	 width="768px" height="1024px" viewBox="0 0 768 1024" enable-background="new 0 0 768 1024" xml:space="preserve">
<line fill="none" stroke="#58B5E1" stroke-width="1.5" stroke-miterlimit="10" stroke-dasharray="1.5,1.5" x1="0" y1="532.109" x2="768" y2="532.109"/>
<g>
	<line fill="none" stroke="#58B5E1" stroke-miterlimit="10" x1="188.251" y1="548.168" x2="156.779" y2="593.125"/>
	<g>
		<path fill="#58B5E1" d="M182.903,574.791c3.154-2.015,5.414-4.883,6.402-7.979h-5.281v-1.444l6.858,0.02v-2.963h1.481
			l-0.019,2.963l6.782-0.02v1.444h-5.072c0.836,3.343,3.496,6.212,6.212,7.808l-1.025,1.216c-4.901-3.704-5.566-5.737-6.858-9.251
			l-0.038,6.744h3.666v1.424l-3.647-0.019l-0.019,4.673h-1.444l-0.019-4.673l-3.762,0.019v-1.424l3.762,0.019v-6.763
			c-1.311,4.141-3.534,6.99-6.801,9.346L182.903,574.791z"/>
		<path fill="#58B5E1" d="M202.093,572.396c2.394-1.367,4.293-3.495,5.851-5.718l1.159,0.778c-0.532,0.969-1.615,2.242-2.318,3.097
			v8.758h-1.463v-7.257c-0.323,0.305-1.387,1.007-2.108,1.52L202.093,572.396z M202.34,567.172c1.995-1.387,3.534-3.096,4.806-5.091
			l1.121,0.874c-1.273,1.918-2.85,3.932-4.654,5.205L202.34,567.172z M211.041,577.754c0.969,0.076,1.805,0.076,2.622,0.057
			c0.209-0.057,0.418-0.189,0.418-0.455v-7.789h-4.863v-1.406l9.784,0.02v1.387l-3.382,0.019l-0.019,7.94
			c0,0.666-0.342,1.159-0.817,1.444c-0.513,0.284-2.318,0.267-3.287,0.228L211.041,577.754z M217.842,564.969h-8.168l-0.019-1.406
			l8.188-0.019V564.969z"/>
		<path fill="#58B5E1" d="M224.038,571.447c-0.494,1.234-1.121,2.336-2.375,3.646l-1.083-1.025c1.862-2.07,2.679-3.724,3.268-5.643
			l-2.698,0.02v-1.406l2.869-0.019v-2.052c-0.646,0.133-1.159,0.189-2.261,0.322l-0.722-1.424c2.223-0.057,4.084-0.608,6.003-1.501
			l0.76,1.102c-0.76,0.38-1.634,0.817-2.355,1.063v2.508h2.564v1.426l-2.564-0.02v1.102l0.76-0.322
			c0.874,0.854,1.748,2.545,2.166,3.704l-1.272,0.684c-0.38-1.14-1.045-2.47-1.653-3.153v8.853h-1.406V571.447z M226.812,578.152
			c1.672-1.481,2.545-3.001,3.458-5.072l1.178,0.627c-0.228,0.741-0.532,1.33-0.76,1.786c-0.703,1.368-1.406,2.508-2.755,3.647
			L226.812,578.152z M228.483,572.396v-8.929h8.207v8.929H228.483z M235.284,564.873h-5.376v6.137h5.376V564.873z M236.728,579.084
			c-0.722-1.938-2.109-3.8-3.381-5.148l1.102-0.779c1.558,1.52,2.698,3.173,3.515,5.072L236.728,579.084z"/>
		<path fill="#58B5E1" d="M244.748,579.33l-1.425,0.02v-7.656c-0.228,0.646-0.95,1.957-2.146,3.324l-1.197-0.949
			c1.748-1.881,2.622-3.799,3.04-6.079l0.095-0.532h-2.469v-1.387h2.678v-3.686h1.444l-0.019,3.686h2.356v1.387h-2.337v1.938
			l0.399-0.284c1.083,1.044,1.919,1.919,2.299,3.173l-1.292,0.854c-0.323-1.33-0.779-1.729-1.425-2.394v7.313
			c1.558-1.634,2.679-3.097,3.001-5.054c0.19-1.196,0.304-2.374,0.304-3.628v-4.749h-1.577v-1.406l8.929-0.019v1.462
			c-0.456,1.235-0.893,2.318-1.463,3.383h2.204c-0.019,3.059-0.969,5.49-2.736,7.579c1.064,1.196,2.47,2.032,4.18,2.774l-1.254,1.12
			c-1.444-0.817-2.963-1.71-3.933-2.792c-0.608,0.551-1.406,1.215-2.204,1.766c-0.513,0.343-0.988,0.703-1.653,0.988l-1.025-1.082
			c1.52-0.894,2.906-1.653,3.932-2.831c-0.969-1.272-1.709-2.774-1.976-3.534c0.038-0.151-0.228,1.463-0.437,2.053
			c-0.551,1.596-1.368,3.172-2.564,4.426l-0.646,0.684l-1.083-0.893V579.33z M249.535,567.686c0.532,2.488,1.272,4.654,2.831,6.744
			c0.551-0.608,0.988-1.064,1.462-2.033c0.494-0.988,0.76-2.127,0.893-2.982h-2.508l-0.019-1.292
			c0.703-1.178,1.292-2.432,1.672-3.515l-4.331,0.02V567.686z"/>
		<path fill="#58B5E1" d="M263.368,572.738v5.396c0,0.665-0.627,1.254-1.33,1.254h-1.919l-0.437-1.481l1.843,0.095
			c0.171,0,0.399-0.152,0.399-0.343v-4.369l-2.146,0.666c-0.361-0.399-0.551-0.836-0.893-1.369c1.178-0.266,2.204-0.531,3.04-0.816
			v-4.256h-2.432v-1.387h2.432v-3.646h1.444v3.646h2.09v1.387h-2.09v3.725l2.09-0.685v1.388L263.368,572.738z M273.854,579.273
			h-1.729l-0.437-1.387l1.539,0.057c0.266,0.02,0.418-0.133,0.418-0.36v-4.236h-2.564v5.034h-1.368v-5.034h-2.261
			c0,0.399,0,1.026-0.038,1.368c-0.228,1.805-0.817,3.305-2.299,4.787l-1.197-1.064c1.349-1.063,1.919-2.584,2.09-4.027v-10.715
			h9.081v14.287C275.089,578.646,274.519,579.273,273.854,579.273z M269.789,565.082h-2.336v2.756h2.336V565.082z M269.713,569.225
			h-2.261v2.734h2.261V569.225z M273.645,565.082h-2.488v2.756h2.488V565.082z M273.645,569.225h-2.488v2.734h2.488V569.225z"/>
		<path fill="#58B5E1" d="M292.797,577.298c0.893-0.228,0.798-1.272,1.083-2.032l0.095-0.684c0.532,0.209,0.874,0.36,1.292,0.626
			c-0.152,0.874-0.323,1.69-0.703,2.375c-0.437,0.76-1.254,1.083-2.128,1.083h-5.376c-0.684,0-1.387-0.57-1.653-1.178l-0.152-0.646
			v-8.662c-0.342,0.455-0.912,0.969-1.197,1.272l-1.159-0.931c0.304-0.323,0.665-0.741,1.026-1.102h-1.652v3.514
			c0.475-0.152,1.159-0.418,2.033-0.684v1.425c-0.741,0.304-1.463,0.569-2.033,0.778l-0.019,5.148c0,0.665-0.399,1.35-1.064,1.577
			c-0.494,0.171-1.064,0.095-1.71,0.114c-0.114-0.494-0.285-0.836-0.399-1.406c0.741-0.057,1.368,0.229,1.71-0.133l0.095-0.229
			v-4.597c-0.532,0.151-1.197,0.475-2.033,0.741l-0.779-1.217c1.045-0.418,2.033-0.684,2.812-0.987v-4.046h-2.317l0.019-1.368h2.298
			v-3.667h1.387v3.648h2.033v0.969c0.684-0.799,1.709-2.755,2.014-4.826l1.349,0.438c-0.171,0.798-0.323,1.5-0.494,1.994h6.763
			l-0.114,3.268c-0.076,2.033-0.247,4.104-0.646,6.099c-0.114,0.493-0.475,1.007-0.969,1.272c-0.741,0.418-1.634,0.096-2.489,0.133
			l-0.399-1.5c0.817,0.113,1.425,0.228,2.014,0.209c0.304-0.114,0.38-0.494,0.475-0.855c0.38-2.508,0.551-4.883,0.589-7.257h-5.756
			c-0.304,0.627-0.855,1.501-1.159,1.862l5.205,0.019v5.243h-4.027v3.571c0.114,0.323,0.437,0.569,0.779,0.627H292.797z
			 M289.34,571.826v-2.678h-2.679v2.659L289.34,571.826z"/>
		<path fill="#58B5E1" d="M309.081,564.798h0.874v1.938h-1.786v-1.52c0-0.931,0-2.241,1.52-2.926l0.418,0.646
			C309.138,563.335,309.1,564.266,309.081,564.798z M311.968,564.798h0.874v1.938h-1.786v-1.52c0-0.931,0-2.241,1.52-2.926
			l0.418,0.646C312.025,563.335,311.987,564.266,311.968,564.798z"/>
		<path fill="#58B5E1" d="M332.792,576.88l0.038,1.368h-16.224v-1.368h10.277c0.19-1.026,0.418-2.185,0.589-3.173h-8.112
			l1.938-8.947h-3.933v-1.33l14.742-0.037v1.387h-9.194l-0.608,2.754h7.884l-1.71,9.347H332.792z M322.001,568.92
			c-0.247,1.234-0.494,2.375-0.722,3.42h6.402l0.665-3.42H322.001z"/>
		<path fill="#58B5E1" d="M341.324,574.639v4.635h-1.443v-4.217l-4.142,1.196l-0.912-1.444c0.665-0.057,1.121-0.17,1.462-0.246
			v-10.05h-1.026v-1.387h7.124v1.387h-1.064v8.72c0.399-0.095,1.007-0.229,1.349-0.38v1.387L341.324,574.639z M339.881,564.513
			h-2.147v2.052h2.147V564.513z M339.881,567.951h-2.147v2.07h2.147V567.951z M339.881,571.408h-2.147v2.831
			c0.798-0.19,1.254-0.284,2.147-0.551V571.408z M350.956,579.236c-0.722-0.457-1.159-0.817-1.71-1.463
			c-1.272-1.539-2.146-3.572-2.469-6.099c-0.437,2.564-0.703,4.294-3.116,6.649c-0.342,0.322-0.684,0.646-1.14,0.893l-0.95-1.121
			c2.508-1.672,3.249-3.248,3.781-6.421h-3.496v-1.387h3.609c0.057-0.627,0.057-1.444,0.057-2.299v-0.304h-3.306v-1.387h4.313
			c0.969-1.368,1.406-2.395,1.957-3.933l1.311,0.702c-0.437,0.875-1.121,2.318-1.71,3.23h3.021v1.387h-4.179
			c0,1.272,0,1.824-0.076,2.603h4.73v1.387h-3.534c0.114,0.551,0.19,1.216,0.437,1.919c0.627,1.767,1.729,3.381,3.496,4.691
			L350.956,579.236z M344.782,566.127c-0.285-1.045-0.969-2.298-1.748-2.925l1.178-0.665c0.798,0.779,1.406,1.748,1.786,2.906
			L344.782,566.127z"/>
		<path fill="#58B5E1" d="M358.102,565.33c1.007,1.272,1.919,2.735,2.337,3.457c0.285-0.949,0.513-2.242,0.722-3.762l1.349,0.514
			c-0.361,2.165-0.703,4.084-1.159,5.224c0.608,1.312,1.121,2.812,1.368,4.464l-1.368,1.064c-0.171-1.482-0.456-2.641-0.741-3.4
			c-0.494,1.14-1.273,2.66-2.47,4.065l-0.874-0.418v2.812h-1.501v-15.977l14.096-0.02l-0.019,14.4c0,0.589-0.323,1.387-1.197,1.387
			h-1.786l-0.551-1.576c0.798,0.151,1.387,0.209,1.691,0.189c0.247,0,0.361-0.189,0.361-0.438v-12.537l-11.094-0.02v1.425
			L358.102,565.33z M357.266,575.664c0.95-1.007,1.899-2.793,2.507-4.807c-0.703-1.539-1.52-2.906-2.47-4.388L357.266,575.664z
			 M367.847,565.748c-0.247,1.52-0.532,2.811-1.102,4.502c0.722,1.596,1.292,3.4,1.444,5.414l-1.444,1.083
			c-0.057-1.843-0.342-3.306-0.722-4.313c-0.532,1.387-1.349,3.153-2.66,4.749l-1.424-0.76c1.633-1.918,2.583-3.913,3.248-6.003
			c-0.551-1.405-1.425-2.717-2.298-4.218l1.083-0.836c0.76,1.084,1.596,2.242,1.9,2.869c0.247-0.703,0.437-1.881,0.665-3.059
			L367.847,565.748z"/>
		<path fill="#58B5E1" d="M378.47,572.207v3.723h-1.596v-3.723h-3.686v-1.559h3.686v-3.704h1.596v3.704h3.686v1.559H378.47z"/>
		<path fill="#58B5E1" d="M385.766,566.83l-0.417-0.646c0.969-0.399,1.007-1.329,1.025-1.862H385.5v-1.938h1.786v1.52
			C387.286,564.836,387.286,566.146,385.766,566.83z M388.654,566.83l-0.418-0.646c0.969-0.399,1.006-1.329,1.025-1.862h-0.874
			v-1.938h1.786v1.52C390.174,564.836,390.174,566.146,388.654,566.83z"/>
		<path fill="#58B5E1" d="M410.998,573.936l-0.552-0.703c0.894-0.398,1.14-1.121,1.14-1.881h-1.025v-2.09h2.09v1.995
			C412.65,571.902,412.422,573.271,410.998,573.936z"/>
		<path fill="#58B5E1" d="M429.826,568.749c-1.443,1.843-3.875,3.495-6.307,4.845l-0.95-1.234c2.698-1.35,5.13-2.965,6.935-5.51
			c0.494-0.684,0.949-1.35,1.272-1.881h-7.922v-1.443h15.882v1.443H432.6c-0.342,0.57-0.778,1.234-1.215,1.843v12.558h-1.559
			V568.749z M432.904,567.989c2.26,1.026,4.217,2.698,5.945,4.692l-1.158,0.988c-1.539-1.92-3.724-3.818-5.795-4.674
			L432.904,567.989z"/>
		<path fill="#58B5E1" d="M442.006,563.848h1.387v9.594c0.761-0.646,1.729-1.938,2.299-3.4l-2.014-0.02v-1.348h2.982l0.02-5.89
			l1.367-0.019v5.908h2.813v1.367h-2.793v6.479h-1.406v-5.719c-0.493,1.938-1.88,3.381-2.773,4.351l-0.494-0.494v2.108h7.162
			c0.59-0.836,0.817-3.059,0.817-4.313l0.019-8.51c1.9-0.152,3.477-0.608,5.13-1.35l0.893,1.121
			c-1.634,0.665-3.153,1.102-4.616,1.311l-0.02,3.097h4.845v1.349h-1.747v9.766l-1.368-0.02v-9.727h-1.729
			c-0.076,3.211,0.532,6.706-1.861,9.783l-1.254-0.798c0.114-0.095,0.189-0.209,0.305-0.36h-7.961V563.848z M445.16,568.217
			c-0.229-0.93-0.855-2.508-1.368-3.135l1.103-0.645c0.493,0.627,1.234,2.107,1.52,3.115L445.16,568.217z M449.795,574.334
			c-0.17-0.893-1.025-2.564-1.5-3.153l0.987-0.608c0.569,0.666,1.387,2.014,1.843,3.135L449.795,574.334z M448.428,567.514
			c0.664-0.74,1.254-2.279,1.406-3.096l1.158,0.513c-0.229,1.14-0.76,2.622-1.425,3.325L448.428,567.514z"/>
		<path fill="#58B5E1" d="M460.74,578.191c3.42-1.502,4.769-4.541,4.674-7.049h-4.16v-1.367h4.217l0.02-4.256
			c-0.912,0.247-2.109,0.438-3.382,0.532l-0.76-1.444c2.925-0.133,5.433-0.76,7.694-2.166l1.025,1.084
			c-1.121,0.722-2.166,1.178-3.135,1.576v4.674h4.502v-7.352h1.426v7.352h4.027v1.367h-4.009l-0.019,8.34h-1.444l0.019-8.34h-4.559
			c-0.209,3.021-0.59,5.623-5.168,8.34L460.74,578.191z"/>
		<path fill="#58B5E1" d="M485.896,571.371v1.443c-1.481,0.361-3.837,0.95-5.737,1.539l-0.684-1.273
			c1.14-1.139,2.166-2.299,2.717-3.152c-0.172,0.037-1.292,0.322-2.07,0.569l-0.723-1.292c0.932-1.501,2.279-4.445,3.191-6.801
			l1.292,0.607c-0.569,1.33-2.032,4.502-2.755,5.775c0.305-0.038,1.387-0.285,1.995-0.418c0.418-0.627,0.836-1.387,1.272-2.279
			l1.33,0.607c-1.121,2.242-2.203,4.104-3.933,5.737L485.896,571.371z M479.513,576.613c2.298-0.74,4.027-1.329,6.383-2.07v1.406
			l-5.661,1.976L479.513,576.613z M494.008,563.316c-0.305,2.165-0.836,3.229-1.596,4.787l2.45,0.019
			c-0.494,2.868-1.026,5.3-2.489,7.353c0.855,1.215,2.186,2.127,3.725,2.887l-1.103,1.121c-1.538-0.664-2.697-1.709-3.571-2.85
			c-1.025,1.064-1.843,1.977-3.306,2.793l-0.987-1.216c1.5-0.817,2.336-1.634,3.344-2.774c-1.064-1.538-1.748-2.773-2.166-4.008
			c-0.039,3.021-0.438,5.243-1.977,7.504l-0.418,0.494l-1.367-0.893c0.798-0.912,1.025-1.293,1.406-2.128
			c0.949-2.09,0.873-4.673,0.873-7.181v-4.541h-1.558v-1.387L494.008,563.316z M490.664,568.256
			c0.854-1.235,1.254-2.432,1.596-3.572h-3.971v2.527c0.38,1.956,1.881,5.281,3.154,7.066c0.873-1.33,1.405-3.115,1.766-4.807
			h-2.545V568.256z"/>
		<path fill="#58B5E1" d="M504.857,575.551l-6.061,2.184c-0.246-0.494-0.512-0.836-0.74-1.387c2.394-0.778,4.465-1.481,6.82-2.279
			L504.857,575.551z M500.602,572.359l0.494-0.058l3.382-0.532l0.038,1.292c-1.691,0.285-3.629,0.665-5.585,1.178l-0.703-1.368
			c1.387-1.063,2.413-2.432,2.982-3.4c-0.778,0.133-1.538,0.381-2.317,0.57l-0.646-1.425c1.064-1.329,2.471-4.142,2.907-6.269
			c0.551,0.228,0.874,0.475,1.387,0.646c-0.665,2.165-1.425,3.913-2.47,5.3c0.475-0.057,1.33-0.095,2.052-0.246
			c0.399-0.742,0.817-1.482,1.216-2.451l1.311,0.722C503.585,568.674,502.464,570.668,500.602,572.359z M514.432,578.685
			c-0.17,0.399-0.664,0.703-1.158,0.552c-1.652-0.533-3.097-1.748-4.084-3.078c-0.779,0.931-3.325,2.336-4.883,2.982l-0.893-1.216
			c1.938-0.76,3.59-1.729,4.977-3.021c-0.646-1.158-0.912-2.641-1.063-3.951l-2.659,0.646l-0.305-1.558l2.888-0.514v-1.48
			l-2.298,0.36l-0.248-1.349l2.564-0.475v-3.914c0.476-0.095,0.855-0.209,1.406-0.246l-0.019,3.912
			c1.083-0.151,2.394-0.455,4.616-0.76l0.038,0.133l0.228,1.197c-1.805,0.305-3.951,0.703-4.863,0.893l-0.019,1.444
			c1.083-0.171,3.267-0.589,5.698-1.026c0.134,0.494,0.19,0.894,0.248,1.387l-5.852,1.064c0.189,1.234,0.342,2.166,0.779,3.115
			c0.949-0.854,1.957-1.881,2.754-3.021l1.121,0.779c-1.102,1.311-2.108,2.526-3.211,3.552c0.685,1.045,1.844,2.033,3.059,2.584
			c0.209-0.531,0.285-1.045,0.323-1.767l1.444,0.798C514.889,577.507,514.717,578.02,514.432,578.685z M511.563,565.596
			c-0.551-0.684-1.444-1.463-2.413-1.881l0.855-0.949c0.969,0.455,1.748,1.025,2.545,1.881L511.563,565.596z"/>
		<path fill="#58B5E1" d="M524.181,576.557V562.67h1.463l0.019,5.51l6.497,0.019v1.368h-6.497l-0.019,6.99h8.188v1.406l-15.862-0.02
			v-1.387H524.181z"/>
		<path fill="#58B5E1" d="M543.313,563.24v14.494c0,0.532-0.76,1.254-1.614,1.254h-1.691c-0.151-0.494-0.323-0.873-0.551-1.463
			c0.854,0,1.463,0.076,2.07-0.019c0.152-0.038,0.323-0.171,0.361-0.551v-3.591l-2.584,0.02c-0.113,1.614-0.209,3.971-1.899,6.098
			l-1.178-0.893c1.463-1.977,1.634-4.065,1.634-6.573v-8.758L543.313,563.24z M539.324,564.664v2.907h2.526v-2.925L539.324,564.664z
			 M541.889,568.939l-2.564,0.019v3.021h2.526L541.889,568.939z M545.992,570.972v8.454l-1.463,0.037v-16.204h7.618
			c-0.114,1.481-0.209,2.793-0.57,4.122c-0.171,0.666-0.874,1.141-1.501,1.178c-0.665,0.058-1.405-0.019-2.146-0.133l-0.418-1.52
			c0.893,0.133,1.596,0.305,2.317,0.323c0.152,0.019,0.229-0.076,0.305-0.285c0.151-0.475,0.342-1.729,0.38-2.28h-4.521l-0.02,4.902
			h6.193c-0.114,1.272-0.323,2.355-0.665,3.381c-0.342,1.026-0.702,2.033-1.196,2.906c0.74,0.912,1.785,1.596,2.963,2.375
			l-0.854,1.083c-1.254-0.741-1.995-1.311-2.85-2.185c-0.437,0.57-1.52,1.615-2.508,2.432c-0.36-0.342-0.607-0.646-0.987-1.045
			c1.14-0.893,1.861-1.576,2.526-2.508c-0.931-1.349-1.596-3.039-1.919-5.034H545.992z M548.101,570.953
			c0.133,1.14,0.741,2.735,1.254,3.629c0.608-1.217,1.007-2.565,1.272-3.629H548.101z"/>
		<path fill="#58B5E1" d="M571.489,571.941c-2.735-0.59-5.319-1.33-7.561-2.66c-2.166,1.443-5.528,2.412-8.454,2.869l-0.589-1.369
			c2.279-0.379,4.274-0.893,6.23-1.614c0.514-0.247,1.121-0.551,1.501-0.76c-0.816-0.627-1.899-1.272-2.564-2.185
			c-0.836,0.988-2.052,2.014-3.477,2.584l-1.083-1.311c2.926-1.084,4.332-2.774,5.225-5.111l1.254,0.703
			c-0.209,0.475-0.399,0.816-0.456,0.932h7.124v1.271c-1.121,1.388-2.261,2.28-3.438,3.135c0.247,0.19,0.836,0.381,1.368,0.646
			c1.785,0.664,3.666,1.178,5.851,1.596L571.489,571.941z M568.507,578.058c-0.19,0.589-0.685,1.103-1.235,1.254
			c-0.836,0.247-1.69-0.019-2.564-0.151l-0.36-1.653c1.007,0.285,1.729,0.569,2.507,0.456c0.438-0.285,0.476-0.816,0.57-1.367
			c0.171-1.026,0.38-2.338,0.418-2.945h-4.104c-0.304,1.634-1.577,3.191-3.115,4.198c-1.14,0.761-3.191,1.368-4.427,1.597
			c-0.266-0.476-0.513-0.855-0.76-1.426c2.413-0.38,4.654-0.949,6.098-2.85c0.399-0.513,0.608-1.082,0.723-1.52h-5.434v-1.387h5.661
			c0.057-0.456,0-0.798,0.057-1.652l1.406,0.189c-0.019,0.723,0.038,1.045-0.019,1.463h5.395
			C569.285,574.373,569.058,576.311,568.507,578.058z M561.041,565.406c0.76,0.911,1.785,1.52,2.85,2.203
			c1.025-0.665,2.052-1.443,2.773-2.203H561.041z"/>
		<path fill="#58B5E1" d="M579.318,562.766c-0.816,1.538-1.805,3.001-2.735,3.779l4.047-0.342c-0.229-0.304-0.627-0.74-1.178-1.254
			l1.272-0.702c1.197,1.025,1.957,2.165,2.546,3.609l-1.368,0.569c-0.114-0.304-0.228-0.607-0.342-0.912
			c-2.108,0.134-4.142,0.438-6.364,0.723l-0.969-1.273c0.38-0.322,0.589-0.475,0.741-0.684c1.272-1.158,2.108-2.603,3.039-4.18
			L579.318,562.766z M582.168,577.393c0,0.95-0.646,1.52-1.178,1.596c-0.627,0.096-1.311,0.076-2.052,0.057l-0.531-1.462
			c0.836,0.075,1.387,0.171,1.994,0.075c0.19-0.019,0.305-0.266,0.305-0.475v-1.785h-3.952v3.78h-1.443v-10.202h6.857V577.393z
			 M576.754,574.03h3.952v-1.159h-3.952V574.03z M580.706,571.504v-1.159h-3.933v1.159H580.706z M584.979,571.238v2.641
			c1.312-0.305,3.097-0.894,4.617-1.995l0.969,1.007c-1.767,1.349-3.856,2.07-5.586,2.412v1.768c0,0.228,0.134,0.494,0.665,0.494
			h2.926c0.209-0.02,0.456-0.248,0.589-0.627c0.209-0.57,0.304-1.008,0.438-1.9l1.349,0.514c-0.247,1.196-0.456,1.956-0.969,2.734
			c-0.285,0.438-0.723,0.646-1.254,0.646h-3.42c-0.969,0-1.767-0.816-1.767-1.615v-6.078H584.979z M590.755,567.305
			c-0.209,0.836-0.38,1.502-0.627,2.166c-0.209,0.551-0.76,1.235-1.405,1.235h-3.382c-1.025,0-1.69-0.722-1.767-1.425v-6.573h1.443
			v3.268c1.159-0.323,3.135-1.235,4.483-2.337l0.874,1.083c-1.672,1.405-3.59,2.128-5.357,2.679v1.387
			c0,0.305,0.456,0.551,0.95,0.551h2.508c0.418,0,0.722-1.52,0.893-2.564L590.755,567.305z"/>
		<path fill="#58B5E1" d="M608.615,566.717c-0.095,3.951-0.304,6.572-1.045,10.125c-0.209,1.025-1.14,1.596-1.881,1.691
			c-1.387,0.189-2.545-0.209-3.837-0.57l-0.323-1.652c1.292,0.418,2.355,0.76,3.477,0.854c0.398,0.038,0.741-0.267,0.931-0.513
			c0.513-0.723,1.083-5.928,1.14-8.53l-4.768,0.019c-0.323,7.258-3.629,9.348-7.675,11.057l-1.083-1.387
			c3.324-1.234,6.972-2.697,7.237-9.67h-4.692v-1.405h4.75v-4.255h1.463l-0.02,4.255L608.615,566.717z"/>
	</g>
</g>
</svg>
