<?xml version="1.0" encoding="utf-8"?>
<!-- Generator: Adobe Illustrator 16.0.0, SVG Export Plug-In . SVG Version: 6.00 Build 0)  -->
<!DOCTYPE svg PUBLIC "-//W3C//DTD SVG 1.1//EN" "http://www.w3.org/Graphics/SVG/1.1/DTD/svg11.dtd">
<svg version="1.1" id="Layer_1" xmlns="http://www.w3.org/2000/svg" xmlns:xlink="http://www.w3.org/1999/xlink" x="0px" y="0px"
	 width="768px" height="1024px" viewBox="0 0 768 1024" enable-background="new 0 0 768 1024" xml:space="preserve">
<g>
	<path opacity="0.298" fill="#FFFFFF" enable-background="new    " d="M123.438,685.659c0-27.119,21.955-49.088,49.04-49.088
		c27.084,0,49.048,21.969,49.048,49.088c0,27.106-21.964,49.076-49.048,49.076C145.393,734.735,123.438,712.767,123.438,685.659z"/>
	<path fill="#FFFFFF" d="M156.561,657.073c0-0.974,0.404-1.91,1.125-2.601c0.721-0.678,1.697-1.071,2.716-1.071h24.153
		c1.018,0,1.994,0.395,2.714,1.071c0.723,0.689,1.127,1.627,1.127,2.601v57.172c0,0.973-0.404,1.896-1.127,2.586
		c-0.72,0.69-1.696,1.072-2.714,1.072h-24.153c-1.019,0-1.995-0.381-2.716-1.072c-0.721-0.689-1.125-1.613-1.125-2.586V657.073z"/>
	<path fill="#FFFFFF" d="M169.675,713.233c0-0.753,0.289-1.466,0.803-1.996c0.528-0.541,1.248-0.851,2-0.851
		c0.753,0,1.473,0.31,1.999,0.851c0.516,0.53,0.803,1.244,0.803,1.996s-0.287,1.467-0.803,1.995
		c-0.526,0.556-1.246,0.863-1.999,0.863c-0.752,0-1.472-0.309-2-0.863C169.964,714.7,169.675,713.985,169.675,713.233z"/>
	<rect x="158.775" y="662.556" opacity="0.698" fill="#777272" enable-background="new    " width="27.405" height="46.515"/>
	<path fill="#777272" d="M169.468,659.118c0-0.099,0.036-0.187,0.102-0.246c0.067-0.074,0.156-0.111,0.247-0.111h5.321
		c0.094,0,0.183,0.037,0.248,0.111c0.065,0.061,0.104,0.147,0.104,0.246c0,0.088-0.038,0.172-0.104,0.233
		c-0.065,0.074-0.154,0.111-0.248,0.111h-5.321c-0.091,0-0.18-0.037-0.247-0.111C169.504,659.29,169.468,659.206,169.468,659.118z"
		/>
	<path fill="#777272" d="M171.959,656.642c0-0.135,0.053-0.271,0.148-0.368c0.098-0.099,0.231-0.148,0.37-0.148
		c0.14,0,0.272,0.051,0.371,0.148c0.095,0.098,0.148,0.233,0.148,0.368c0,0.136-0.054,0.271-0.148,0.371
		c-0.099,0.099-0.231,0.146-0.371,0.146c-0.139,0-0.272-0.049-0.37-0.146C172.012,656.913,171.959,656.776,171.959,656.642z"/>
	
		<path opacity="0.298" fill="none" stroke="#FFFFFF" stroke-miterlimit="10" stroke-dasharray="2,2" enable-background="new    " d="
		M120.089,685.659c0-28.943,23.453-52.392,52.389-52.392c28.935,0,52.386,23.447,52.386,52.392c0,28.93-23.451,52.391-52.386,52.391
		C143.542,738.05,120.089,714.589,120.089,685.659z"/>
</g>
<g>
	<g>
		<g>
			<path fill="#FFFFFF" d="M549.252,761.139h-6.826c0.015-1.643,0.857-2.885,2.199-3.785c1.299-0.941,2.984-1.728,3.014-3.284
				c0.015-0.713-0.285-1.771-1.686-1.771c-1.285,0-1.67,1.101-1.713,2.499h-1.629c0-2.213,1.215-3.854,3.44-3.854
				c2.443,0,3.215,1.784,3.215,3.069c0,1.586-1.086,2.57-2.229,3.371c-1.156,0.799-2.371,1.414-2.656,2.299h4.869L549.252,761.139
				L549.252,761.139z"/>
			<path fill="#FFFFFF" d="M557.262,756.14c0,2.271-0.586,5.199-3.455,5.199c-2.871,0-3.457-2.929-3.457-5.199
				c0-2.27,0.586-5.197,3.457-5.197C556.676,750.941,557.262,753.869,557.262,756.14z M555.635,756.14
				c0-2.085-0.399-3.842-1.828-3.842c-1.43,0-1.828,1.757-1.828,3.842s0.398,3.844,1.828,3.844
				C555.234,759.982,555.635,758.225,555.635,756.14z"/>
			<path fill="#FFFFFF" d="M558.402,752.798c1.371,0.015,2.67-0.457,2.914-1.657h1.327v9.998h-1.784v-7.056h-2.457V752.798
				L558.402,752.798z"/>
			<path fill="#FFFFFF" d="M567.367,751.141h5.17v1.457h-3.955l-0.516,2.543l0.028,0.028c0.443-0.485,1.172-0.757,1.842-0.757
				c1.986,0,3.13,1.428,3.13,3.342c0,1.6-1,3.585-3.457,3.585c-1.929,0-3.429-1.043-3.498-3.042h1.627
				c0.1,1.07,0.785,1.687,1.844,1.687c1.385,0,1.855-0.986,1.855-2.2c0-1.101-0.587-2.085-1.898-2.085
				c-0.686,0-1.357,0.214-1.615,0.914h-1.627L567.367,751.141z"/>
		</g>
	</g>
	<g>
		<g>
			<path fill="#FFFFFF" d="M609.787,761.139h-6.828c0.016-1.643,0.857-2.885,2.201-3.785c1.299-0.941,2.983-1.728,3.012-3.284
				c0.016-0.713-0.285-1.771-1.684-1.771c-1.287,0-1.672,1.101-1.715,2.499h-1.63c0-2.213,1.216-3.854,3.443-3.854
				c2.441,0,3.213,1.784,3.213,3.069c0,1.586-1.086,2.57-2.229,3.371c-1.156,0.799-2.371,1.414-2.656,2.299h4.871L609.787,761.139
				L609.787,761.139z"/>
			<path fill="#FFFFFF" d="M617.797,756.14c0,2.271-0.586,5.199-3.457,5.199s-3.457-2.929-3.457-5.199
				c0-2.27,0.586-5.197,3.457-5.197S617.797,753.869,617.797,756.14z M616.168,756.14c0-2.085-0.4-3.842-1.828-3.842
				s-1.828,1.757-1.828,3.842s0.4,3.844,1.828,3.844S616.168,758.225,616.168,756.14z"/>
			<path fill="#FFFFFF" d="M618.936,752.798c1.371,0.015,2.673-0.457,2.914-1.657h1.328v9.998h-1.785v-7.056h-2.457V752.798
				L618.936,752.798z"/>
			<path fill="#FFFFFF" d="M631.787,753.669c-0.072-0.813-0.615-1.371-1.457-1.371c-1.771,0-1.971,2.114-2.072,3.428l0.029,0.028
				c0.443-0.785,1.271-1.186,2.156-1.186c1.985,0,3.155,1.442,3.155,3.356c0,1.941-1.327,3.413-3.325,3.413
				c-2.943,0-3.644-2.313-3.644-5.228c0-2.386,0.941-5.17,3.771-5.17c1.586,0,2.928,1.1,3.014,2.728L631.787,753.669
				L631.787,753.669z M631.973,757.896c0-1.071-0.586-2.043-1.758-2.043c-1.186,0-1.799,0.942-1.799,2.043
				c0,1.086,0.613,2.086,1.799,2.086C631.387,759.982,631.973,758.968,631.973,757.896z"/>
		</g>
	</g>
	<g>
		<g>
			<path fill="#FFFFFF" d="M546.828,655.725c0.078,0.9,0.678,1.517,1.609,1.517c1.959,0,2.18-2.338,2.291-3.79l-0.031-0.032
				c-0.476,0.854-1.375,1.327-2.385,1.327c-2.087,0-3.49-1.469-3.49-3.729c0-2.146,1.389-3.772,3.805-3.772
				c3.127,0,3.902,2.558,3.902,5.779c0,2.638-1.043,5.717-4.17,5.717c-1.754,0-3.238-1.216-3.332-3.017H546.828z M546.621,651.002
				c0,1.2,0.617,2.322,1.928,2.322c1.342,0,2.006-1.105,2.006-2.322c0-1.184-0.664-2.258-2.006-2.258
				C547.238,648.744,546.621,649.802,546.621,651.002z"/>
			<path fill="#FFFFFF" d="M553.543,655.266c0-1.389,0.789-2.385,2.021-2.699v-0.031c-0.996-0.38-1.564-1.2-1.564-2.274
				c0-1.879,1.248-3.016,3.443-3.016c2.194,0,3.442,1.137,3.442,3.016c0,1.074-0.567,1.896-1.563,2.274v0.031
				c1.231,0.314,2.021,1.312,2.021,2.699c0,2.164-1.658,3.476-3.899,3.476C555.201,658.741,553.543,657.43,553.543,655.266z
				 M559.545,655.266c0-1.215-0.9-1.94-2.102-1.94c-1.199,0-2.101,0.727-2.101,1.94c0,1.295,0.9,2.055,2.101,2.055
				C558.645,657.319,559.545,656.561,559.545,655.266z M555.707,650.354c0,1.043,0.742,1.628,1.736,1.628
				c0.996,0,1.737-0.585,1.737-1.628c0-1.089-0.774-1.688-1.737-1.688S555.707,649.266,555.707,650.354z"/>
			<path fill="#FFFFFF" d="M562.66,649.297c1.516,0.016,2.953-0.506,3.221-1.832h1.469v11.055h-1.973v-7.802h-2.717V649.297z"/>
		</g>
	</g>
	<rect x="596.678" y="629.925" opacity="0.698" fill="#328EC0" enable-background="new    " width="42.873" height="109.592"/>
	<rect x="536.244" y="667.384" opacity="0.698" fill="#797979" enable-background="new    " width="42.793" height="72.133"/>
	<g>
		<g>
			<path fill="#FFFFFF" d="M600.723,610.916c1.517,0.016,2.953-0.506,3.222-1.832h1.469v11.055h-1.973v-7.803h-2.718V610.916z"/>
			<path fill="#FFFFFF" d="M610.596,609.084h5.717v1.609h-4.372l-0.568,2.813l0.031,0.031c0.487-0.537,1.295-0.838,2.037-0.838
				c2.194,0,3.459,1.58,3.459,3.694c0,1.771-1.105,3.966-3.822,3.966c-2.133,0-3.791-1.152-3.869-3.363h1.801
				c0.109,1.184,0.867,1.863,2.037,1.863c1.531,0,2.053-1.091,2.053-2.433c0-1.217-0.647-2.307-2.102-2.307
				c-0.758,0-1.5,0.236-1.783,1.012h-1.801L610.596,609.084z"/>
			<path fill="#FFFFFF" d="M621.023,613.664c1.2,0.047,2.448-0.381,2.448-1.738c0-0.932-0.727-1.563-1.723-1.563
				c-1.246,0-1.863,1.121-1.832,2.258h-1.799c0.094-2.148,1.436-3.76,3.662-3.76c1.723,0,3.489,0.996,3.489,2.953
				c0,1.104-0.504,1.989-1.563,2.368v0.033c1.248,0.252,2.006,1.342,2.006,2.765c0,2.084-1.801,3.379-3.916,3.379
				c-2.559,0-3.838-1.547-3.887-3.854h1.801c-0.047,1.342,0.68,2.354,2.086,2.354c1.199,0,2.115-0.711,2.115-1.976
				c0-1.721-1.469-1.942-2.892-1.879v-1.341H621.023z"/>
			<path fill="#FFFFFF" d="M628.734,617.344c0.08,0.898,0.68,1.517,1.61,1.517c1.959,0,2.181-2.339,2.289-3.791l-0.03-0.031
				c-0.474,0.854-1.373,1.326-2.386,1.326c-2.084,0-3.489-1.47-3.489-3.728c0-2.147,1.391-3.774,3.807-3.774
				c3.127,0,3.9,2.559,3.9,5.78c0,2.638-1.044,5.718-4.171,5.718c-1.752,0-3.235-1.218-3.331-3.017H628.734L628.734,617.344z
				 M628.529,612.621c0,1.199,0.614,2.32,1.926,2.32c1.344,0,2.006-1.105,2.006-2.32c0-1.187-0.662-2.258-2.006-2.258
				C629.145,610.363,628.529,611.42,628.529,612.621z"/>
		</g>
	</g>
</g>
<g>
	<g>
		<path fill="#FFFFFF" d="M261.14,666.254c3.321-2.121,5.701-5.141,6.741-8.402h-5.561v-1.52l7.222,0.02v-3.12h1.56l-0.02,3.12
			l7.142-0.02v1.52h-5.341c0.88,3.521,3.681,6.541,6.542,8.224l-1.08,1.279c-5.161-3.9-5.861-6.041-7.222-9.742l-0.04,7.102h3.861
			v1.501l-3.841-0.021l-0.02,4.922h-1.52l-0.02-4.922l-3.961,0.021v-1.501l3.961,0.021v-7.122c-1.38,4.36-3.721,7.36-7.162,9.843
			L261.14,666.254z"/>
		<path fill="#FFFFFF" d="M281.34,663.732c2.521-1.439,4.521-3.681,6.162-6.021l1.22,0.82c-0.56,1.021-1.7,2.359-2.44,3.261v9.222
			h-1.541v-7.642c-0.34,0.32-1.46,1.061-2.22,1.6L281.34,663.732z M281.6,658.232c2.101-1.461,3.721-3.263,5.061-5.361l1.18,0.92
			c-1.34,2.021-3,4.141-4.901,5.479L281.6,658.232z M290.762,669.375c1.02,0.08,1.9,0.08,2.76,0.06c0.22-0.06,0.44-0.199,0.44-0.479
			v-8.202h-5.121v-1.479l10.302,0.021v1.46l-3.561,0.021l-0.02,8.361c0,0.699-0.36,1.221-0.86,1.521
			c-0.541,0.301-2.441,0.28-3.461,0.24L290.762,669.375z M297.924,655.912h-8.602l-0.02-1.48l8.622-0.021V655.912L297.924,655.912z"
			/>
		<path fill="#FFFFFF" d="M309.662,656.012c-1.68,0.199-4.021,0.261-6.201,0.32l-0.9-1.48c4.722,0.101,10.643-0.439,14.283-1.739
			l0.84,1.14c-2.2,0.88-4.381,1.3-6.461,1.581v2.96h5.701v1.46h-5.701v3.062l7.342-0.021v1.461h-7.361v4.78
			c0,0.939-0.32,1.601-1.42,1.601h-2.76l-0.562-1.641c1.141,0.1,1.88,0.18,2.521,0.16c0.439-0.021,0.68-0.199,0.68-0.7v-4.2h-7.643
			l-0.02-1.44h7.662l0.02-3.062h-6.001l-0.02-1.46h6.001L309.662,656.012L309.662,656.012z"/>
		<path fill="#FFFFFF" d="M328.001,664.493c-0.32-1.261-0.92-2.24-1.34-2.8l-0.04,9.36h-1.6v-8.36
			c-0.341,0.76-1.161,2.199-2.441,3.5l-1.18-1.021c1.859-1.861,3.041-4.502,3.48-6.682h-2.9l0.02-1.48h3.001v-3.78h1.62v3.78h2.741
			v1.48h-2.741v1.961l0.6-0.381c1.062,1.061,1.78,2.2,2.222,3.521L328.001,664.493z M327.221,670.114
			c1.801-1.641,3.021-3.4,3.021-5.661v-10.322h6.221l-0.02,14.504c0,0.199,0.08,0.239,0.34,0.239h0.64c0.62,0,0.8-1.86,1-3.081
			l1.4,0.941c-0.2,0.959-0.42,1.819-0.7,2.641c-0.18,0.539-0.7,0.979-1.38,0.979h-1.36c-0.6,0-1.5-0.279-1.5-1.239v-13.522h-3.081
			l0.021,9.063c0,2.359-1.221,4.701-3.241,6.581L327.221,670.114z"/>
		<path fill="#FFFFFF" d="M346.101,663.993v4.359l2.44-1.198v1.54l-3.381,1.779l-0.88-1.399c0.18-0.222,0.26-0.46,0.26-1v-4.081
			h-2.82v-1.46h2.82v-2.08h-0.9c-0.439,0.6-0.88,1-1.661,1.68l-1.119-1.2c1.819-1.479,3.101-4.222,3.32-7.581l1.44,0.379
			c0.06,1.08-0.101,2.103-0.18,2.281h3.021v1.46h-3.38c-0.18,0.561-0.44,1.12-0.62,1.521h3.801v1.461h-2.161v2.08h2.5v1.46
			L346.101,663.993L346.101,663.993z M358.284,670.875c-1.181-0.301-2.161-0.92-3.021-1.641c-1.7-1.74-2.581-4.021-2.761-6.263
			h-1.66v6.143l3.021-1.021v1.5l-4.062,1.48l-0.76-1.4c0.22-0.219,0.24-0.438,0.24-0.858V654.17h7.48v8.802h-2.819
			c0.08,0.92,0.38,2.08,0.739,2.781c0.841-0.42,1.601-1.221,2.36-2.4l1.16,0.921c-0.86,1.26-1.9,2.119-2.9,2.68
			c0.7,1.221,2.26,2.141,4.041,2.602L358.284,670.875z M355.263,655.631h-4.421v2.182h4.421V655.631z M355.263,659.192h-4.421v2.319
			h4.421V659.192z"/>
		<path fill="#FFFFFF" d="M361.34,663.732c2.521-1.439,4.521-3.681,6.162-6.021l1.22,0.82c-0.56,1.021-1.7,2.359-2.439,3.261v9.222
			h-1.541v-7.642c-0.34,0.32-1.46,1.061-2.22,1.6L361.34,663.732z M361.6,658.232c2.102-1.461,3.722-3.263,5.062-5.361l1.18,0.92
			c-1.34,2.021-3,4.141-4.9,5.479L361.6,658.232z M370.762,669.375c1.021,0.08,1.9,0.08,2.761,0.06
			c0.22-0.06,0.439-0.199,0.439-0.479v-8.202h-5.121v-1.479l10.302,0.021v1.46l-3.561,0.021l-0.02,8.361
			c0,0.699-0.36,1.221-0.86,1.521c-0.541,0.301-2.441,0.28-3.461,0.24L370.762,669.375z M377.924,655.912h-8.602l-0.021-1.48
			l8.622-0.021V655.912L377.924,655.912z"/>
		<path fill="#FFFFFF" d="M395.203,671.035l-1.5,0.02v-1.12h-6.722l-0.021,1.16l-1.5,0.021v-6.361c-1.08,0.279-2.5,0.5-3.581,0.64
			l-0.76-1.439c2.979-0.32,5.601-0.881,7.782-1.84c-0.941-0.682-1.581-1.281-2.142-1.881c-0.681,0.779-1.701,1.479-2.661,2.18
			l-1.319-0.959c2.279-1.32,3.841-2.941,4.621-4.781l1.279,0.5c-0.1,0.439-0.319,0.82-0.359,0.92h6.861l-0.021,1.32
			c-0.921,1.2-2.2,2.201-3.141,2.781c1.979,1,4.58,1.34,7.462,1.539l-0.66,1.561c-3.183-0.479-6.502-1.24-8.303-2.26
			c-1.421,0.699-3.36,1.38-4.762,1.62l9.442,0.04v6.34H395.203z M389.701,655.131c-0.26-0.22-0.879-0.859-1.84-1.199l1.521-0.979
			c1.78,0.84,2.2,2.08,2.261,2.16l6.422,0.02v3.961l-1.54-0.02l0.02-2.48h-12.482v2.541l-1.5-0.021v-3.981L389.701,655.131
			L389.701,655.131z M393.683,666.154h-6.7v2.319h6.722L393.683,666.154z M388.201,659.553c0.561,0.619,1.281,1.32,2.261,1.8
			c0.98-0.521,1.86-1.159,2.48-1.8H388.201z"/>
		<path fill="#FFFFFF" d="M415.783,662.613v-0.82h-10.202c0.06,4.461-0.521,6.901-2.821,9.302l-1.38-1.08
			c2.062-1.779,2.661-4.001,2.661-6.501v-7.303h6.421c-0.239-0.58-1.22-1.46-2.46-2.3l1.119-0.98c0.921,0.7,2.141,1.581,2.98,2.762
			l-0.659,0.46l5.859,0.06v6.402L415.783,662.613L415.783,662.613z M415.783,657.652H405.56v2.699h10.224V657.652z"/>
		<path fill="#FFFFFF" d="M366.563,703.232v6.821h-1.521v-0.881h-3.781v0.92l-1.52,0.021v-6.321l-0.48,0.32l-1.399-1.021l0.319-0.16
			l-1.8-0.039v2.279h2.642v1.46l-2.642,0.021v3.581c0.82,0.38,1.86,0.561,2.92,0.561l5.841-0.021c1.041,0,2.041-0.08,3.321-0.182
			l-0.72,1.602h-8.702c-2.841,0-5.041-1.561-6.042-2.501c-0.34,1.301-0.78,2.301-1.72,3.44l-1.34-0.84
			c1.979-2.181,2.101-5.062,2.061-8.082l1.46,0.16c0.101,1.4-0.02,2.541-0.16,3.701c0.5,0.52,1.141,1.08,1.58,1.34v-6.502h-4.28
			v-1.439l3.541-0.021v-2.602h-2.739v-1.461l2.739,0.021v-2.3h1.541v2.3h2.94v1.439h-2.96v2.621l3.661-0.021v0.78
			c1.121-0.66,2.341-2.4,2.161-4.763h-2.28v-1.459l7.94-0.021c-0.06,2.001-0.26,3.801-0.779,5.48c-0.101,0.479-0.5,0.84-1,0.9
			c-0.74,0.08-1.44,0.02-2.201-0.061l-0.62-1.602c0.96,0.16,1.721,0.36,2.121,0.28c0.22,0.02,0.36-0.142,0.42-0.42
			c0.26-1.062,0.46-2.142,0.5-3.103h-2.541c-0.12,2.161-0.541,4.263-2.601,5.723L366.563,703.232z M361.262,707.713h3.781
			l-0.02-3.02h-3.762V707.713L361.262,707.713z"/>
		<path fill="#58B5E1" d="M383.001,711.774h-4.97v-15.893h-6.161v-3.746c3.465,0.07,6.649-1.119,7.176-4.864h3.955V711.774
			L383.001,711.774z"/>
		<path fill="#58B5E1" d="M406.242,691.367h-10.117l-0.979,5.565l0.068,0.069c1.33-1.365,2.871-1.89,4.796-1.89
			c4.831,0,7.563,3.743,7.563,8.33c0,5.041-4.166,8.926-9.103,8.82c-4.76,0-9.03-2.626-9.102-7.771h4.971
			c0.246,2.17,1.855,3.675,4.025,3.675c2.591,0,4.235-2.274,4.235-4.726c0-2.556-1.575-4.587-4.235-4.587
			c-1.785,0-2.766,0.632-3.745,1.962h-4.48l2.415-13.548h13.688L406.242,691.367L406.242,691.367z"/>
		<path fill="#58B5E1" d="M417.896,686.781c4.9,0,9.03,3.081,9.03,12.637c0,9.766-4.13,12.847-9.03,12.847
			c-4.83,0-8.962-3.081-8.962-12.847C408.935,689.862,413.065,686.781,417.896,686.781z M417.896,708.169
			c4.061,0,4.061-5.985,4.061-8.751c0-2.555,0-8.541-4.061-8.541c-3.99,0-3.99,5.986-3.99,8.541
			C413.905,702.184,413.905,708.169,417.896,708.169z"/>
		<path fill="#58B5E1" d="M437.355,686.781c4.899,0,9.03,3.081,9.03,12.637c0,9.766-4.131,12.847-9.03,12.847
			c-4.83,0-8.961-3.081-8.961-12.847C428.395,689.862,432.525,686.781,437.355,686.781z M437.355,708.169
			c4.061,0,4.061-5.985,4.061-8.751c0-2.555,0-8.541-4.061-8.541c-3.99,0-3.99,5.986-3.99,8.541
			C433.365,702.184,433.365,708.169,437.355,708.169z"/>
		<path fill="#58B5E1" d="M450.095,688.566v-2.625h30.593v2.659h-18.166c0,1.996-0.034,3.677-0.141,5.111h12.951
			c-0.455,7.035-1.365,13.195-3.01,17.957c-0.386,1.084-1.506,2.064-2.695,2.24c-1.61,0.278-2.87-0.525-4.271-1.017l-0.56-3.256
			c0.979,0.281,1.47,0.771,1.925,0.98c0.91,0.279,2.205,1.26,2.66,0.141c1.995-4.9,2.521-9.065,2.977-14.387h-10.116
			c-0.104,1.015-0.245,1.96-0.455,3.045c-1.19,5.775-4.517,11.69-10.151,15.052l-2.311-2.274c4.271-2.311,7.246-6.301,8.855-10.223
			c1.436-3.57,1.4-8.75,1.505-13.406h-9.59V688.566z"/>
		<path fill="#FFFFFF" d="M497.583,704.613v-0.82h-10.202c0.062,4.461-0.52,6.901-2.82,9.302l-1.381-1.08
			c2.062-1.779,2.66-4.001,2.66-6.501v-7.303h6.422c-0.24-0.58-1.221-1.46-2.461-2.3l1.121-0.98c0.92,0.7,2.141,1.581,2.98,2.762
			l-0.66,0.46l5.861,0.06v6.402L497.583,704.613L497.583,704.613z M497.583,699.652h-10.222v2.699h10.222V699.652z"/>
	</g>
</g>
</svg>
