<?xml version="1.0" encoding="utf-8"?>
<!-- Generator: Adobe Illustrator 16.0.0, SVG Export Plug-In . SVG Version: 6.00 Build 0)  -->
<!DOCTYPE svg PUBLIC "-//W3C//DTD SVG 1.1//EN" "http://www.w3.org/Graphics/SVG/1.1/DTD/svg11.dtd">
<svg version="1.1" id="Layer_1" xmlns="http://www.w3.org/2000/svg" xmlns:xlink="http://www.w3.org/1999/xlink" x="0px" y="0px"
	 width="768px" height="1024px" viewBox="0 0 768 1024" enable-background="new 0 0 768 1024" xml:space="preserve">
<g>
	<path opacity="0.298" fill="#FFFFFF" enable-background="new    " d="M123.438,685.659c0-27.119,21.955-49.088,49.04-49.088
		c27.084,0,49.048,21.969,49.048,49.088c0,27.105-21.964,49.076-49.048,49.076C145.393,734.735,123.438,712.767,123.438,685.659z"/>
	<path fill="#FFFFFF" d="M156.561,657.073c0-0.975,0.404-1.91,1.125-2.602c0.721-0.678,1.697-1.07,2.716-1.07h24.153
		c1.018,0,1.994,0.395,2.714,1.07c0.723,0.689,1.127,1.627,1.127,2.602v57.172c0,0.973-0.404,1.896-1.127,2.586
		c-0.72,0.69-1.696,1.072-2.714,1.072h-24.153c-1.019,0-1.995-0.381-2.716-1.072c-0.721-0.689-1.125-1.613-1.125-2.586V657.073z"/>
	<path fill="#FFFFFF" d="M169.675,713.233c0-0.753,0.289-1.467,0.803-1.996c0.528-0.541,1.248-0.852,2-0.852
		c0.753,0,1.473,0.311,1.999,0.852c0.516,0.529,0.803,1.244,0.803,1.996s-0.287,1.467-0.803,1.994
		c-0.526,0.557-1.246,0.863-1.999,0.863c-0.752,0-1.472-0.309-2-0.863C169.964,714.7,169.675,713.985,169.675,713.233z"/>
	<rect x="158.775" y="662.556" opacity="0.698" fill="#777272" enable-background="new    " width="27.405" height="46.516"/>
	<path fill="#777272" d="M169.468,659.118c0-0.1,0.036-0.188,0.102-0.246c0.067-0.074,0.156-0.111,0.247-0.111h5.321
		c0.094,0,0.183,0.037,0.248,0.111c0.065,0.061,0.104,0.146,0.104,0.246c0,0.088-0.038,0.172-0.104,0.232
		c-0.065,0.074-0.154,0.111-0.248,0.111h-5.321c-0.091,0-0.18-0.037-0.247-0.111C169.504,659.29,169.468,659.206,169.468,659.118z"
		/>
	<path fill="#777272" d="M171.959,656.642c0-0.135,0.053-0.271,0.148-0.367c0.098-0.1,0.231-0.148,0.37-0.148
		c0.14,0,0.272,0.051,0.371,0.148c0.095,0.098,0.148,0.232,0.148,0.367c0,0.137-0.054,0.271-0.148,0.371
		c-0.099,0.1-0.231,0.146-0.371,0.146c-0.139,0-0.272-0.049-0.37-0.146C172.012,656.913,171.959,656.776,171.959,656.642z"/>
	
		<path opacity="0.298" fill="none" stroke="#FFFFFF" stroke-miterlimit="10" stroke-dasharray="2,2" enable-background="new    " d="
		M120.089,685.659c0-28.943,23.453-52.393,52.389-52.393c28.935,0,52.386,23.447,52.386,52.393c0,28.93-23.451,52.391-52.386,52.391
		C143.542,738.05,120.089,714.589,120.089,685.659z"/>
</g>
</svg>
