<?xml version="1.0" encoding="utf-8"?>
<!-- Generator: Adobe Illustrator 16.0.0, SVG Export Plug-In . SVG Version: 6.00 Build 0)  -->
<!DOCTYPE svg PUBLIC "-//W3C//DTD SVG 1.1//EN" "http://www.w3.org/Graphics/SVG/1.1/DTD/svg11.dtd">
<svg version="1.1" id="Layer_1" xmlns="http://www.w3.org/2000/svg" xmlns:xlink="http://www.w3.org/1999/xlink" x="0px" y="0px"
	 width="768px" height="1024px" viewBox="0 0 768 1024" enable-background="new 0 0 768 1024" xml:space="preserve">
<g>
	<g>
		<path fill="#FFFFFF" d="M261.14,666.254c3.321-2.121,5.701-5.141,6.741-8.402h-5.561v-1.52l7.222,0.02v-3.119h1.56l-0.02,3.119
			l7.142-0.02v1.52h-5.341c0.88,3.521,3.681,6.541,6.542,8.225l-1.08,1.279c-5.161-3.9-5.861-6.041-7.222-9.742l-0.04,7.102h3.861
			v1.501l-3.841-0.021l-0.02,4.922h-1.52l-0.02-4.922l-3.961,0.021v-1.501l3.961,0.021v-7.122c-1.38,4.359-3.721,7.359-7.162,9.843
			L261.14,666.254z"/>
		<path fill="#FFFFFF" d="M281.34,663.732c2.521-1.439,4.521-3.682,6.162-6.021l1.22,0.82c-0.56,1.021-1.7,2.358-2.44,3.261v9.222
			h-1.541v-7.642c-0.34,0.32-1.46,1.061-2.22,1.6L281.34,663.732z M281.6,658.232c2.101-1.461,3.721-3.264,5.061-5.361l1.18,0.92
			c-1.34,2.021-3,4.141-4.901,5.479L281.6,658.232z M290.762,669.375c1.02,0.08,1.9,0.08,2.76,0.06c0.22-0.06,0.44-0.198,0.44-0.479
			v-8.202h-5.121v-1.479l10.302,0.021v1.46l-3.561,0.021l-0.02,8.36c0,0.699-0.36,1.222-0.86,1.521
			c-0.541,0.301-2.441,0.28-3.461,0.24L290.762,669.375z M297.924,655.912h-8.602l-0.02-1.48l8.622-0.021V655.912L297.924,655.912z"
			/>
		<path fill="#FFFFFF" d="M309.662,656.012c-1.68,0.199-4.021,0.262-6.201,0.32l-0.9-1.48c4.723,0.102,10.644-0.438,14.283-1.738
			l0.84,1.14c-2.199,0.88-4.381,1.3-6.461,1.581v2.96h5.701v1.46h-5.701v3.063l7.343-0.021v1.461h-7.361v4.78
			c0,0.939-0.32,1.601-1.42,1.601h-2.76l-0.563-1.641c1.141,0.1,1.88,0.18,2.521,0.16c0.438-0.021,0.68-0.199,0.68-0.7v-4.2h-7.644
			l-0.02-1.439h7.662l0.02-3.063h-6.001l-0.02-1.46h6.001V656.012L309.662,656.012z"/>
		<path fill="#FFFFFF" d="M328.001,664.493c-0.32-1.261-0.92-2.24-1.34-2.8l-0.04,9.359h-1.6v-8.359
			c-0.342,0.76-1.161,2.198-2.441,3.5l-1.18-1.021c1.858-1.861,3.041-4.502,3.479-6.682h-2.899l0.02-1.48h3.001v-3.779h1.62v3.779
			h2.741v1.48h-2.741v1.961l0.6-0.381c1.063,1.061,1.78,2.199,2.223,3.521L328.001,664.493z M327.221,670.114
			c1.802-1.642,3.021-3.4,3.021-5.661v-10.322h6.221l-0.02,14.504c0,0.199,0.08,0.239,0.34,0.239h0.64c0.62,0,0.8-1.86,1-3.081
			l1.4,0.941c-0.2,0.959-0.42,1.818-0.7,2.641c-0.18,0.539-0.7,0.979-1.38,0.979h-1.36c-0.6,0-1.5-0.278-1.5-1.238v-13.522h-3.081
			l0.021,9.063c0,2.358-1.222,4.701-3.241,6.581L327.221,670.114z"/>
		<path fill="#FFFFFF" d="M346.101,663.993v4.358l2.44-1.197v1.54l-3.381,1.778l-0.88-1.398c0.18-0.223,0.26-0.46,0.26-1v-4.081
			h-2.82v-1.46h2.82v-2.08h-0.9c-0.438,0.6-0.88,1-1.661,1.68l-1.118-1.2c1.818-1.479,3.101-4.222,3.319-7.581l1.44,0.379
			c0.06,1.08-0.102,2.104-0.18,2.281h3.021v1.46h-3.38c-0.18,0.562-0.44,1.12-0.62,1.521h3.801v1.461h-2.161v2.08h2.5v1.46
			L346.101,663.993L346.101,663.993z M358.284,670.875c-1.182-0.301-2.161-0.92-3.021-1.641c-1.7-1.74-2.581-4.021-2.761-6.264
			h-1.66v6.144l3.021-1.021v1.5l-4.063,1.48l-0.76-1.4c0.22-0.219,0.24-0.438,0.24-0.857V654.17h7.479v8.802h-2.818
			c0.079,0.92,0.38,2.08,0.738,2.781c0.842-0.42,1.602-1.221,2.36-2.4l1.16,0.922c-0.86,1.26-1.9,2.118-2.9,2.68
			c0.7,1.221,2.26,2.141,4.041,2.602L358.284,670.875z M355.263,655.631h-4.421v2.182h4.421V655.631z M355.263,659.192h-4.421v2.318
			h4.421V659.192z"/>
		<path fill="#FFFFFF" d="M361.34,663.732c2.521-1.439,4.521-3.682,6.162-6.021l1.22,0.82c-0.56,1.021-1.7,2.358-2.438,3.261v9.222
			h-1.541v-7.642c-0.34,0.32-1.46,1.061-2.22,1.6L361.34,663.732z M361.6,658.232c2.103-1.461,3.723-3.264,5.063-5.361l1.18,0.92
			c-1.34,2.021-3,4.141-4.899,5.479L361.6,658.232z M370.762,669.375c1.021,0.08,1.9,0.08,2.762,0.06
			c0.22-0.06,0.438-0.198,0.438-0.479v-8.202h-5.121v-1.479l10.302,0.021v1.46l-3.561,0.021l-0.021,8.36
			c0,0.699-0.359,1.222-0.859,1.521c-0.541,0.301-2.441,0.28-3.461,0.24L370.762,669.375z M377.924,655.912h-8.602l-0.021-1.48
			l8.622-0.021L377.924,655.912L377.924,655.912z"/>
		<path fill="#FFFFFF" d="M395.203,671.035l-1.5,0.02v-1.12h-6.722l-0.021,1.16l-1.5,0.021v-6.361c-1.08,0.279-2.5,0.5-3.581,0.64
			l-0.76-1.438c2.979-0.32,5.601-0.881,7.782-1.84c-0.941-0.683-1.581-1.281-2.143-1.881c-0.681,0.778-1.701,1.479-2.661,2.18
			l-1.318-0.959c2.278-1.32,3.841-2.941,4.621-4.781l1.278,0.5c-0.1,0.439-0.318,0.82-0.358,0.92h6.86l-0.021,1.32
			c-0.921,1.2-2.2,2.201-3.142,2.781c1.979,1,4.58,1.34,7.463,1.539l-0.66,1.561c-3.184-0.479-6.502-1.24-8.304-2.26
			c-1.421,0.698-3.359,1.38-4.762,1.62l9.442,0.04v6.34L395.203,671.035L395.203,671.035z M389.701,655.131
			c-0.26-0.22-0.879-0.859-1.84-1.199l1.521-0.979c1.78,0.84,2.2,2.08,2.261,2.16l6.423,0.02v3.961l-1.54-0.02l0.02-2.48h-12.482
			v2.541l-1.5-0.021v-3.981L389.701,655.131L389.701,655.131z M393.683,666.154h-6.699v2.318h6.722L393.683,666.154z
			 M388.201,659.553c0.561,0.619,1.281,1.32,2.261,1.8c0.98-0.521,1.86-1.158,2.48-1.8H388.201z"/>
		<path fill="#FFFFFF" d="M415.783,662.613v-0.82h-10.202c0.06,4.461-0.521,6.901-2.821,9.302l-1.38-1.08
			c2.063-1.778,2.661-4.001,2.661-6.501v-7.303h6.421c-0.239-0.58-1.22-1.46-2.46-2.3l1.119-0.98c0.921,0.7,2.141,1.581,2.979,2.763
			l-0.658,0.46l5.858,0.06v6.402L415.783,662.613L415.783,662.613z M415.783,657.652H405.56v2.698h10.225L415.783,657.652
			L415.783,657.652z"/>
		<path fill="#FFFFFF" d="M366.563,703.232v6.82h-1.521v-0.881h-3.781v0.92l-1.52,0.021v-6.321l-0.48,0.32l-1.398-1.021l0.318-0.16
			l-1.8-0.039v2.279h2.643v1.46l-2.643,0.021v3.581c0.82,0.38,1.86,0.561,2.92,0.561l5.841-0.021c1.041,0,2.041-0.08,3.321-0.183
			l-0.72,1.603h-8.702c-2.841,0-5.041-1.562-6.042-2.501c-0.34,1.301-0.78,2.301-1.72,3.439l-1.34-0.84
			c1.979-2.181,2.101-5.062,2.061-8.082l1.46,0.16c0.102,1.399-0.02,2.541-0.16,3.701c0.5,0.52,1.142,1.08,1.58,1.34v-6.502h-4.28
			v-1.439l3.541-0.021v-2.603h-2.738v-1.461l2.738,0.021v-2.3h1.541v2.3h2.94v1.438h-2.96v2.621l3.661-0.021v0.779
			c1.121-0.659,2.341-2.399,2.161-4.763h-2.28v-1.459l7.94-0.021c-0.061,2.001-0.261,3.801-0.779,5.479c-0.102,0.479-0.5,0.84-1,0.9
			c-0.74,0.08-1.44,0.02-2.201-0.062l-0.62-1.602c0.96,0.16,1.721,0.36,2.121,0.28c0.22,0.02,0.36-0.143,0.42-0.42
			c0.26-1.063,0.46-2.143,0.5-3.104h-2.541c-0.12,2.161-0.541,4.263-2.601,5.723L366.563,703.232z M361.262,707.713h3.781
			l-0.02-3.02h-3.763L361.262,707.713L361.262,707.713z"/>
		<path fill="#58B5E1" d="M383.001,711.774h-4.97v-15.894h-6.161v-3.746c3.465,0.07,6.648-1.119,7.176-4.863h3.955V711.774
			L383.001,711.774z"/>
		<path fill="#58B5E1" d="M406.242,691.367h-10.117l-0.979,5.564l0.067,0.069c1.33-1.365,2.871-1.89,4.796-1.89
			c4.831,0,7.563,3.742,7.563,8.33c0,5.041-4.166,8.926-9.104,8.819c-4.76,0-9.029-2.626-9.102-7.771h4.971
			c0.246,2.17,1.855,3.675,4.025,3.675c2.591,0,4.234-2.274,4.234-4.726c0-2.557-1.574-4.588-4.234-4.588
			c-1.785,0-2.767,0.633-3.745,1.963h-4.48l2.415-13.549h13.688V691.367L406.242,691.367z"/>
		<path fill="#58B5E1" d="M417.896,686.781c4.899,0,9.029,3.081,9.029,12.637c0,9.766-4.13,12.847-9.029,12.847
			c-4.83,0-8.963-3.081-8.963-12.847C408.935,689.862,413.065,686.781,417.896,686.781z M417.896,708.169
			c4.061,0,4.061-5.985,4.061-8.751c0-2.555,0-8.541-4.061-8.541c-3.99,0-3.99,5.986-3.99,8.541
			C413.905,702.184,413.905,708.169,417.896,708.169z"/>
		<path fill="#58B5E1" d="M437.355,686.781c4.898,0,9.029,3.081,9.029,12.637c0,9.766-4.131,12.847-9.029,12.847
			c-4.83,0-8.962-3.081-8.962-12.847C428.395,689.862,432.525,686.781,437.355,686.781z M437.355,708.169
			c4.061,0,4.061-5.985,4.061-8.751c0-2.555,0-8.541-4.061-8.541c-3.99,0-3.99,5.986-3.99,8.541
			C433.365,702.184,433.365,708.169,437.355,708.169z"/>
		<path fill="#58B5E1" d="M450.095,688.566v-2.625h30.593v2.658h-18.166c0,1.996-0.033,3.678-0.141,5.111h12.951
			c-0.455,7.035-1.365,13.195-3.01,17.957c-0.387,1.084-1.506,2.064-2.695,2.24c-1.61,0.277-2.87-0.525-4.271-1.018l-0.56-3.256
			c0.979,0.281,1.47,0.771,1.925,0.98c0.91,0.278,2.205,1.26,2.66,0.141c1.995-4.9,2.521-9.064,2.978-14.387h-10.116
			c-0.104,1.015-0.245,1.96-0.455,3.045c-1.19,5.774-4.518,11.689-10.151,15.052l-2.311-2.274c4.271-2.311,7.246-6.301,8.854-10.223
			c1.437-3.57,1.4-8.75,1.505-13.406h-9.59V688.566L450.095,688.566z"/>
		<path fill="#FFFFFF" d="M497.583,704.613v-0.82h-10.202c0.063,4.461-0.52,6.901-2.82,9.302l-1.381-1.08
			c2.063-1.778,2.66-4.001,2.66-6.501v-7.303h6.422c-0.239-0.58-1.221-1.46-2.461-2.3l1.121-0.98c0.92,0.7,2.141,1.581,2.98,2.763
			l-0.66,0.46l5.86,0.06v6.402L497.583,704.613L497.583,704.613z M497.583,699.652h-10.222v2.698h10.222V699.652z"/>
	</g>
</g>
</svg>
