<?xml version="1.0" encoding="utf-8"?>
<!-- Generator: Adobe Illustrator 16.0.0, SVG Export Plug-In . SVG Version: 6.00 Build 0)  -->
<!DOCTYPE svg PUBLIC "-//W3C//DTD SVG 1.1//EN" "http://www.w3.org/Graphics/SVG/1.1/DTD/svg11.dtd">
<svg version="1.1" id="Layer_1" xmlns="http://www.w3.org/2000/svg" xmlns:xlink="http://www.w3.org/1999/xlink" x="0px" y="0px"
	 width="768px" height="1024px" viewBox="0 0 768 1024" enable-background="new 0 0 768 1024" xml:space="preserve">
<g>
	<g>
		<g>
			<path fill="#FFFFFF" d="M549.252,761.139h-6.826c0.016-1.643,0.857-2.885,2.199-3.785c1.299-0.94,2.984-1.728,3.014-3.283
				c0.016-0.713-0.285-1.771-1.686-1.771c-1.285,0-1.67,1.102-1.713,2.499h-1.629c0-2.213,1.215-3.854,3.439-3.854
				c2.443,0,3.215,1.784,3.215,3.068c0,1.586-1.086,2.57-2.229,3.371c-1.156,0.799-2.371,1.414-2.656,2.299h4.869L549.252,761.139
				L549.252,761.139z"/>
			<path fill="#FFFFFF" d="M557.262,756.14c0,2.271-0.586,5.199-3.455,5.199c-2.871,0-3.457-2.929-3.457-5.199
				c0-2.27,0.586-5.196,3.457-5.196C556.676,750.941,557.262,753.869,557.262,756.14z M555.635,756.14
				c0-2.085-0.398-3.842-1.828-3.842s-1.828,1.757-1.828,3.842s0.398,3.845,1.828,3.845
				C555.234,759.982,555.635,758.225,555.635,756.14z"/>
			<path fill="#FFFFFF" d="M558.402,752.798c1.371,0.015,2.67-0.457,2.914-1.657h1.326v9.998h-1.783v-7.056h-2.457V752.798
				L558.402,752.798z"/>
			<path fill="#FFFFFF" d="M567.367,751.141h5.17v1.457h-3.955l-0.516,2.543l0.027,0.028c0.443-0.485,1.172-0.757,1.842-0.757
				c1.986,0,3.131,1.428,3.131,3.342c0,1.6-1,3.585-3.457,3.585c-1.93,0-3.43-1.043-3.498-3.042h1.627
				c0.1,1.07,0.785,1.688,1.844,1.688c1.385,0,1.855-0.986,1.855-2.2c0-1.102-0.588-2.085-1.898-2.085
				c-0.686,0-1.357,0.214-1.615,0.914h-1.627L567.367,751.141z"/>
		</g>
	</g>
	<g>
		<g>
			<path fill="#FFFFFF" d="M609.787,761.139h-6.828c0.016-1.643,0.857-2.885,2.201-3.785c1.299-0.94,2.982-1.728,3.012-3.283
				c0.016-0.713-0.285-1.771-1.684-1.771c-1.287,0-1.672,1.102-1.715,2.499h-1.631c0-2.213,1.217-3.854,3.443-3.854
				c2.441,0,3.213,1.784,3.213,3.068c0,1.586-1.086,2.57-2.229,3.371c-1.156,0.799-2.371,1.414-2.656,2.299h4.871L609.787,761.139
				L609.787,761.139z"/>
			<path fill="#FFFFFF" d="M617.797,756.14c0,2.271-0.586,5.199-3.457,5.199s-3.457-2.929-3.457-5.199
				c0-2.27,0.586-5.196,3.457-5.196S617.797,753.869,617.797,756.14z M616.168,756.14c0-2.085-0.4-3.842-1.828-3.842
				s-1.828,1.757-1.828,3.842s0.4,3.845,1.828,3.845S616.168,758.225,616.168,756.14z"/>
			<path fill="#FFFFFF" d="M618.936,752.798c1.371,0.015,2.674-0.457,2.914-1.657h1.328v9.998h-1.785v-7.056h-2.457V752.798
				L618.936,752.798z"/>
			<path fill="#FFFFFF" d="M631.787,753.669c-0.072-0.813-0.615-1.371-1.457-1.371c-1.771,0-1.971,2.114-2.072,3.428l0.029,0.028
				c0.443-0.785,1.271-1.186,2.156-1.186c1.984,0,3.154,1.441,3.154,3.355c0,1.941-1.326,3.413-3.324,3.413
				c-2.943,0-3.645-2.313-3.645-5.228c0-2.387,0.941-5.17,3.771-5.17c1.586,0,2.928,1.1,3.014,2.728L631.787,753.669
				L631.787,753.669z M631.973,757.896c0-1.071-0.586-2.044-1.758-2.044c-1.186,0-1.799,0.942-1.799,2.044
				c0,1.086,0.613,2.086,1.799,2.086C631.387,759.982,631.973,758.968,631.973,757.896z"/>
		</g>
	</g>
	<g>
		<g>
			<path fill="#FFFFFF" d="M546.828,655.725c0.078,0.9,0.678,1.518,1.609,1.518c1.959,0,2.18-2.338,2.291-3.79l-0.031-0.032
				c-0.477,0.854-1.375,1.327-2.385,1.327c-2.088,0-3.49-1.469-3.49-3.729c0-2.146,1.389-3.771,3.805-3.771
				c3.127,0,3.902,2.558,3.902,5.779c0,2.638-1.043,5.717-4.17,5.717c-1.754,0-3.238-1.216-3.332-3.018H546.828L546.828,655.725z
				 M546.621,651.002c0,1.2,0.617,2.322,1.928,2.322c1.342,0,2.006-1.105,2.006-2.322c0-1.184-0.664-2.258-2.006-2.258
				C547.238,648.744,546.621,649.802,546.621,651.002z"/>
			<path fill="#FFFFFF" d="M553.543,655.266c0-1.389,0.789-2.385,2.021-2.698v-0.031c-0.996-0.38-1.564-1.2-1.564-2.274
				c0-1.879,1.248-3.016,3.443-3.016c2.193,0,3.441,1.137,3.441,3.016c0,1.074-0.566,1.896-1.563,2.274v0.031
				c1.23,0.313,2.021,1.312,2.021,2.698c0,2.164-1.658,3.477-3.898,3.477C555.201,658.741,553.543,657.43,553.543,655.266z
				 M559.545,655.266c0-1.215-0.9-1.939-2.102-1.939c-1.199,0-2.102,0.727-2.102,1.939c0,1.295,0.9,2.056,2.102,2.056
				C558.645,657.319,559.545,656.561,559.545,655.266z M555.707,650.354c0,1.044,0.742,1.629,1.736,1.629
				c0.996,0,1.736-0.586,1.736-1.629c0-1.089-0.773-1.688-1.736-1.688S555.707,649.266,555.707,650.354z"/>
			<path fill="#FFFFFF" d="M562.66,649.297c1.516,0.016,2.953-0.506,3.221-1.832h1.469v11.055h-1.973v-7.802h-2.717V649.297z"/>
		</g>
	</g>
	<rect x="596.678" y="629.925" opacity="0.698" fill="#328EC0" enable-background="new    " width="42.873" height="109.592"/>
	<rect x="536.244" y="667.384" opacity="0.698" fill="#797979" enable-background="new    " width="42.793" height="72.133"/>
	<g>
		<g>
			<path fill="#FFFFFF" d="M600.723,610.916c1.518,0.016,2.953-0.506,3.223-1.832h1.469v11.055h-1.973v-7.803h-2.719V610.916
				L600.723,610.916z"/>
			<path fill="#FFFFFF" d="M610.596,609.084h5.717v1.609h-4.371l-0.568,2.813l0.031,0.031c0.486-0.537,1.295-0.838,2.037-0.838
				c2.193,0,3.459,1.58,3.459,3.693c0,1.771-1.105,3.967-3.822,3.967c-2.133,0-3.791-1.152-3.869-3.363h1.801
				c0.109,1.184,0.867,1.863,2.037,1.863c1.531,0,2.053-1.092,2.053-2.434c0-1.217-0.646-2.307-2.102-2.307
				c-0.758,0-1.5,0.236-1.783,1.012h-1.801L610.596,609.084z"/>
			<path fill="#FFFFFF" d="M621.023,613.664c1.199,0.047,2.447-0.381,2.447-1.738c0-0.932-0.727-1.563-1.723-1.563
				c-1.246,0-1.863,1.121-1.832,2.258h-1.799c0.094-2.148,1.436-3.76,3.662-3.76c1.723,0,3.488,0.996,3.488,2.953
				c0,1.104-0.504,1.988-1.563,2.367v0.033c1.248,0.252,2.006,1.342,2.006,2.766c0,2.084-1.801,3.379-3.916,3.379
				c-2.559,0-3.838-1.547-3.887-3.854h1.801c-0.047,1.342,0.68,2.354,2.086,2.354c1.199,0,2.115-0.711,2.115-1.977
				c0-1.721-1.469-1.941-2.893-1.879v-1.341L621.023,613.664L621.023,613.664z"/>
			<path fill="#FFFFFF" d="M628.734,617.344c0.08,0.898,0.68,1.518,1.609,1.518c1.959,0,2.182-2.339,2.289-3.791l-0.03-0.031
				c-0.474,0.854-1.372,1.326-2.386,1.326c-2.084,0-3.489-1.471-3.489-3.729c0-2.146,1.392-3.773,3.808-3.773
				c3.127,0,3.899,2.559,3.899,5.779c0,2.639-1.044,5.719-4.171,5.719c-1.752,0-3.234-1.219-3.331-3.018H628.734L628.734,617.344z
				 M628.529,612.621c0,1.199,0.613,2.32,1.926,2.32c1.344,0,2.006-1.105,2.006-2.32c0-1.188-0.662-2.258-2.006-2.258
				C629.145,610.363,628.529,611.42,628.529,612.621z"/>
		</g>
	</g>
</g>
</svg>
