<?xml version="1.0" encoding="utf-8"?>
<!-- Generator: Adobe Illustrator 16.0.0, SVG Export Plug-In . SVG Version: 6.00 Build 0)  -->
<!DOCTYPE svg PUBLIC "-//W3C//DTD SVG 1.1//EN" "http://www.w3.org/Graphics/SVG/1.1/DTD/svg11.dtd">
<svg version="1.1" id="Layer_1" xmlns="http://www.w3.org/2000/svg" xmlns:xlink="http://www.w3.org/1999/xlink" x="0px" y="0px"
	 width="768px" height="1024px" viewBox="0 0 768 1024" enable-background="new 0 0 768 1024" xml:space="preserve">
<g>
	<path opacity="0.298" fill="#FFFFFF" enable-background="new    " d="M538.859,842.913c0-27.107,21.957-49.089,49.039-49.089
		s49.039,21.98,49.039,49.089c0,27.11-21.957,49.087-49.039,49.087S538.859,870.023,538.859,842.913z"/>
	
		<path opacity="0.298" fill="none" stroke="#FFFFFF" stroke-miterlimit="10" stroke-dasharray="2,2" enable-background="new    " d="
		M535.508,842.913c0-28.931,23.459-52.39,52.392-52.39c28.93,0,52.391,23.459,52.391,52.39c0,28.937-23.461,52.392-52.391,52.392
		C558.967,895.305,535.508,871.85,535.508,842.913z"/>
	<path fill="#FFFFFF" d="M578.879,849.469c27.256,0,27.256,0,27.256,0c5.148-17.3,5.148-17.3,5.148-17.3
		c-36.088,0-36.088,0-36.088,0L578.879,849.469z M607.23,852.412c-29.459,0-29.459,0-29.459,0c-0.74,0-1.479-0.728-1.479-1.096
		c-6.629-30.558-6.629-30.558-6.629-30.558c-7,0-7,0-7,0c-0.738,0-1.465-0.74-1.465-1.479c0-0.739,0.727-1.468,1.465-1.468
		c8.106,0,8.106,0,8.106,0c0.74,0,1.468,0.37,1.468,1.099c2.217,10.313,2.217,10.313,2.217,10.313l0,0c38.678,0,38.678,0,38.678,0
		c0.74,0,1.098,0.369,1.098,0.738c0.369,0.37,0.369,0.729,0.369,1.097c-5.891,20.258-5.891,20.258-5.891,20.258
		C608.709,852.043,607.971,852.412,607.23,852.412z"/>
	<path fill="#FFFFFF" d="M583.303,858.376c-1.86,0-3.34,1.491-3.34,3.339c0,1.857,1.479,3.338,3.34,3.338
		c1.849,0,3.326-1.479,3.326-3.338C586.629,859.867,585.15,858.376,583.303,858.376z M583.303,868.02
		c-3.34,0-6.309-2.595-6.309-6.305c0-3.339,2.969-6.295,6.309-6.295c3.695,0,6.297,2.956,6.297,6.295
		C589.6,865.425,586.998,868.02,583.303,868.02z"/>
	<path fill="#FFFFFF" d="M601.699,858.376c-1.849,0-3.34,1.491-3.34,3.339c0,1.857,1.491,3.338,3.34,3.338
		c1.858,0,3.338-1.479,3.338-3.338C605.037,859.867,603.559,858.376,601.699,858.376z M601.699,868.02
		c-3.711,0-6.297-2.595-6.297-6.305c0-3.339,2.586-6.295,6.297-6.295c3.338,0,6.309,2.956,6.309,6.295
		C608.008,865.425,605.037,868.02,601.699,868.02z"/>
	<path fill="#FFFFFF" d="M586.9,851.822c-1.136,0-1.504-0.369-1.504-1.479c0-18.852,0-18.852,0-18.852
		c0-0.74,0.368-1.479,1.504-1.479c0.752,0,1.504,0.739,1.504,1.479c0,18.852,0,18.852,0,18.852
		C588.404,851.453,587.652,851.822,586.9,851.822z"/>
	<path fill="#FFFFFF" d="M598.703,851.822c-0.75,0-1.502-0.752-1.502-1.491c0-18.235,0-18.235,0-18.235
		c0-1.108,0.752-1.479,1.502-1.479c0.752,0,1.492,0.369,1.492,1.479c0,18.235,0,18.235,0,18.235
		C600.195,851.07,599.455,851.822,598.703,851.822z"/>
	<path fill="#FFFFFF" d="M609.127,842.421c-32.859,0-32.859,0-32.859,0c-0.729,0-1.467-0.356-1.467-1.405
		c0-0.7,0.738-1.403,1.467-1.403c32.859,0,32.859,0,32.859,0c0.74,0,1.48,0.703,1.48,1.403
		C610.607,842.063,609.867,842.421,609.127,842.421z"/>
</g>
<g>
	<g>
		<g>
			<path fill="#FFFFFF" d="M133.832,916.807h-6.827c0.015-1.643,0.857-2.885,2.2-3.784c1.299-0.942,2.984-1.729,3.014-3.285
				c0.014-0.713-0.286-1.771-1.686-1.771c-1.285,0-1.671,1.101-1.714,2.499h-1.628c0-2.213,1.214-3.854,3.441-3.854
				c2.442,0,3.214,1.785,3.214,3.069c0,1.586-1.086,2.57-2.229,3.371c-1.156,0.799-2.37,1.414-2.656,2.299h4.87L133.832,916.807
				L133.832,916.807z"/>
			<path fill="#FFFFFF" d="M141.841,911.808c0,2.271-0.586,5.199-3.456,5.199c-2.871,0-3.456-2.929-3.456-5.199
				c0-2.27,0.585-5.197,3.456-5.197C141.255,906.609,141.841,909.537,141.841,911.808z M140.213,911.808
				c0-2.085-0.4-3.842-1.828-3.842c-1.429,0-1.828,1.757-1.828,3.842s0.399,3.844,1.828,3.844
				C139.813,915.65,140.213,913.893,140.213,911.808z"/>
			<path fill="#FFFFFF" d="M142.981,908.466c1.371,0.016,2.671-0.457,2.914-1.657h1.328v9.998h-1.785v-7.056h-2.457V908.466z"/>
			<path fill="#FFFFFF" d="M151.947,906.809h5.17v1.457h-3.956l-0.515,2.543l0.029,0.028c0.442-0.485,1.171-0.757,1.842-0.757
				c1.985,0,3.128,1.428,3.128,3.342c0,1.6-0.999,3.585-3.456,3.585c-1.928,0-3.428-1.043-3.499-3.042h1.628
				c0.1,1.07,0.785,1.687,1.843,1.687c1.385,0,1.856-0.986,1.856-2.2c0-1.101-0.586-2.085-1.899-2.085
				c-0.686,0-1.356,0.214-1.614,0.914h-1.628L151.947,906.809z"/>
		</g>
	</g>
	<g>
		<g>
			<path fill="#FFFFFF" d="M194.366,916.807h-6.827c0.015-1.643,0.857-2.885,2.2-3.784c1.3-0.942,2.984-1.729,3.013-3.285
				c0.015-0.713-0.285-1.771-1.685-1.771c-1.286,0-1.671,1.101-1.714,2.499h-1.629c0-2.213,1.215-3.854,3.442-3.854
				c2.442,0,3.214,1.785,3.214,3.069c0,1.586-1.086,2.57-2.229,3.371c-1.156,0.799-2.371,1.414-2.656,2.299h4.87L194.366,916.807
				L194.366,916.807z"/>
			<path fill="#FFFFFF" d="M202.375,911.808c0,2.271-0.586,5.199-3.456,5.199c-2.871,0-3.457-2.929-3.457-5.199
				c0-2.27,0.586-5.197,3.457-5.197C201.79,906.609,202.375,909.537,202.375,911.808z M200.748,911.808
				c0-2.085-0.4-3.842-1.828-3.842c-1.429,0-1.828,1.757-1.828,3.842s0.399,3.844,1.828,3.844
				C200.347,915.65,200.748,913.893,200.748,911.808z"/>
			<path fill="#FFFFFF" d="M203.515,908.466c1.371,0.016,2.671-0.457,2.914-1.657h1.328v9.998h-1.785v-7.056h-2.457V908.466z"/>
			<path fill="#FFFFFF" d="M216.366,909.337c-0.071-0.813-0.614-1.371-1.457-1.371c-1.771,0-1.971,2.114-2.071,3.428l0.029,0.028
				c0.442-0.785,1.271-1.186,2.156-1.186c1.985,0,3.156,1.442,3.156,3.356c0,1.941-1.328,3.413-3.327,3.413
				c-2.942,0-3.643-2.313-3.643-5.228c0-2.386,0.942-5.17,3.771-5.17c1.586,0,2.928,1.1,3.014,2.728L216.366,909.337
				L216.366,909.337z M216.551,913.564c0-1.071-0.586-2.042-1.757-2.042c-1.186,0-1.8,0.941-1.8,2.042
				c0,1.086,0.614,2.086,1.8,2.086C215.965,915.65,216.551,914.636,216.551,913.564z"/>
		</g>
	</g>
	<g>
		<g>
			<path fill="#FFFFFF" d="M133.459,788.789h-1.422v2.621h-1.705v-2.621h-4.738v-1.785l4.738-6.647h1.705v7.012h1.422V788.789z
				 M126.984,787.367h3.349v-4.864H130.3L126.984,787.367z"/>
			<path fill="#FFFFFF" d="M140.222,783.15c-0.079-0.9-0.68-1.517-1.611-1.517c-1.958,0-2.179,2.337-2.29,3.79l0.032,0.031
				c0.489-0.868,1.405-1.311,2.385-1.311c2.195,0,3.49,1.595,3.49,3.712c0,2.146-1.469,3.772-3.68,3.772
				c-3.254,0-4.027-2.559-4.027-5.779c0-2.638,1.042-5.717,4.169-5.717c1.753,0,3.237,1.215,3.332,3.017L140.222,783.15
				L140.222,783.15z M140.427,787.825c0-1.186-0.647-2.259-1.942-2.259c-1.311,0-1.99,1.043-1.99,2.259c0,1.2,0.68,2.306,1.99,2.306
				C139.78,790.131,140.427,789.01,140.427,787.825z"/>
			<path fill="#FFFFFF" d="M143.243,788.156c0-1.39,0.79-2.385,2.021-2.7v-0.031c-0.995-0.38-1.563-1.2-1.563-2.273
				c0-1.88,1.248-3.017,3.443-3.017s3.442,1.138,3.442,3.017c0,1.073-0.568,1.895-1.563,2.273v0.031
				c1.232,0.315,2.021,1.312,2.021,2.7c0,2.164-1.658,3.475-3.9,3.475C144.901,791.631,143.243,790.32,143.243,788.156z
				 M149.245,788.156c0-1.215-0.9-1.941-2.101-1.941s-2.101,0.728-2.101,1.941c0,1.295,0.9,2.054,2.101,2.054
				S149.245,789.451,149.245,788.156z M145.407,783.245c0,1.042,0.742,1.627,1.737,1.627s1.737-0.585,1.737-1.627
				c0-1.089-0.774-1.689-1.737-1.689C146.18,781.556,145.407,782.156,145.407,783.245z"/>
			<path fill="#FFFFFF" d="M157.76,783.15c-0.079-0.9-0.679-1.517-1.611-1.517c-1.958,0-2.179,2.337-2.29,3.79l0.032,0.031
				c0.489-0.868,1.405-1.311,2.385-1.311c2.195,0,3.49,1.595,3.49,3.712c0,2.146-1.469,3.772-3.68,3.772
				c-3.254,0-4.027-2.559-4.027-5.779c0-2.638,1.042-5.717,4.169-5.717c1.753,0,3.237,1.215,3.332,3.017L157.76,783.15
				L157.76,783.15z M157.965,787.825c0-1.186-0.647-2.259-1.942-2.259c-1.311,0-1.99,1.043-1.99,2.259c0,1.2,0.68,2.306,1.99,2.306
				C157.318,790.131,157.965,789.01,157.965,787.825z"/>
		</g>
	</g>
	<rect x="181.257" y="788.769" opacity="0.698" fill="#328EC0" enable-background="new    " width="42.873" height="106.416"/>
	<rect x="120.823" y="800.275" opacity="0.698" fill="#797979" enable-background="new    " width="42.794" height="94.908"/>
	<g>
		<g>
			<path fill="#FFFFFF" d="M186.407,767.926h5.717v1.611h-4.374l-0.568,2.811l0.031,0.031c0.489-0.537,1.295-0.836,2.037-0.836
				c2.195,0,3.459,1.578,3.459,3.695c0,1.77-1.105,3.963-3.822,3.963c-2.132,0-3.79-1.152-3.869-3.363h1.801
				c0.11,1.187,0.868,1.863,2.037,1.863c1.531,0,2.053-1.09,2.053-2.432c0-1.218-0.647-2.306-2.101-2.306
				c-0.758,0-1.5,0.236-1.784,1.01h-1.801L186.407,767.926z"/>
			<path fill="#FFFFFF" d="M194.07,769.758c1.517,0.017,2.953-0.506,3.222-1.832h1.469v11.056h-1.974v-7.802h-2.717V769.758z"/>
			<path fill="#FFFFFF" d="M210.167,778.98h-7.549c0.016-1.816,0.947-3.189,2.432-4.187c1.438-1.041,3.301-1.91,3.332-3.631
				c0.017-0.791-0.315-1.959-1.863-1.959c-1.421,0-1.848,1.217-1.895,2.764h-1.801c0-2.446,1.343-4.264,3.806-4.264
				c2.701,0,3.554,1.975,3.554,3.395c0,1.755-1.2,2.845-2.464,3.729c-1.279,0.883-2.621,1.563-2.938,2.541h5.386V778.98z"/>
			<path fill="#FFFFFF" d="M212.713,767.926h5.717v1.611h-4.374l-0.568,2.811l0.031,0.031c0.489-0.537,1.295-0.836,2.037-0.836
				c2.195,0,3.459,1.578,3.459,3.695c0,1.77-1.105,3.963-3.822,3.963c-2.132,0-3.79-1.152-3.869-3.363h1.801
				c0.11,1.187,0.868,1.863,2.037,1.863c1.531,0,2.053-1.09,2.053-2.432c0-1.218-0.647-2.306-2.101-2.306
				c-0.758,0-1.5,0.236-1.784,1.01h-1.801L212.713,767.926z"/>
		</g>
	</g>
</g>
<g>
	<g>
		<path fill="#FFFFFF" d="M332.243,827.589l-0.58,0.061h-6.562c-1.24,0-1.641-0.841-1.641-1.98v-2.3h-5.921v-9.763h5.921v-3.062
			h1.521v3.062h6.061v9.763h-6.061v2.421c0,0.319,0.14,0.479,0.56,0.479h6.021c0.46-0.141,0.58-0.801,0.601-1.381l0.08-1.561
			l1.42,0.68C333.663,825.528,333.483,827.469,332.243,827.589z M323.461,815.086h-4.48v2.602h4.48V815.086z M323.461,819.146h-4.48
			v2.78h4.48V819.146z M329.522,815.086h-4.541v2.602h4.541V815.086z M329.522,819.146h-4.541v2.78h4.541V819.146z"/>
		<path fill="#FFFFFF" d="M343.401,826.748c0.54,0,0.8-0.439,0.8-0.939v-5.86h-7.662v-1.48h7.662l0.02-2
			c1.601-1.021,3.222-2.479,4.121-3.541H339v-1.479l11.522,0.02v1.121c-1.301,1.76-3.102,3.48-4.802,4.621v1.26h7.281v1.48h-7.281
			l-0.02,6.662c0,0.64-0.5,1.18-0.92,1.38c-0.54,0.34-2.722,0.2-3.182,0.2l-1.14-1.441h2.941V826.748z"/>
		<path fill="#FFFFFF" d="M355.639,826.449c2.642-0.74,5.062-1.921,6.643-3.603h-5.741v-1.438l7.381-0.021v-1.2h1.541v1.222h7.401
			v1.438h-5.701c1.46,1.5,4.48,2.66,6.722,3.341l-1,1.32c-3.541-0.72-6.32-2.979-7.381-4.381l-0.04,5.261h-1.541v-5.239
			c-1.359,2.1-4.701,3.721-7.381,4.601L355.639,826.449z M356.8,813.586c1.26,0.301,2.38,0.9,3.34,1.961l-1.14,1.16
			c-0.8-1.121-1.82-1.66-3.221-1.941L356.8,813.586z M357.6,820.908c-0.439-0.381-0.699-0.721-1.199-1.161
			c1.96-1,3.681-2.32,4.761-4.241c0.479,0.281,0.8,0.562,1.2,0.881C361.261,818.247,359.42,819.867,357.6,820.908z M360.76,814.126
			c-0.76-1.08-1.74-1.761-3-2.101c0.42-0.5,0.681-0.801,1.04-1.142c1.22,0.381,2.301,1.102,3.142,2.222L360.76,814.126z
			 M371.283,813.706v3.801h-6.921l-0.021,1l8.603,0.021v1.46h-10.103v-8.522l9.782-0.02v1.461h-8.282l0.021,0.8L371.283,813.706
			L371.283,813.706z M369.762,816.047v-0.881h-5.421v0.881H369.762z"/>
		<path fill="#FFFFFF" d="M378.58,818.307h-2.681v-1.38h4.221v7.261c1.061,1.142,2.541,1.861,4.281,1.922
			c1.62,0.06,3.3,0.181,4.961,0.08l4.261-0.239l-0.6,1.64h-8.143c-3.661,0-4.521-1.021-5.521-2.081
			c-0.98,0.722-1.94,1.642-3.021,2.581l-1.14-1.2c1.24-0.899,2.359-1.84,3.381-2.681V818.307z M378.78,815.086
			c-0.54-1.18-1.5-2.62-2.641-3.58l1.12-0.82c1.2,0.961,2.24,2.42,2.82,3.541L378.78,815.086z M391.022,810.705
			c-0.36,0.66-0.561,1.021-0.881,1.5h3.021v1.441h-5.063c-0.18,0.6-0.358,1.1-0.579,1.64h4.301v9.742h-9.763v-9.742h3.701
			c0.3-0.54,0.5-1.061,0.681-1.62h-5.701v-1.461h2.9c-0.22-0.239-0.699-0.74-1.38-1.199l1.32-0.841c0.8,0.72,1.501,1.341,1.88,2.04
			h2.921c0.501-0.6,0.94-1.3,1.261-2.12L391.022,810.705z M390.223,817.927v-1.181h-6.602v1.181H390.223z M383.621,819.387v1.342
			h6.621v-1.342H383.621z M390.242,823.588v-1.4h-6.621v1.4H390.242z"/>
		<path fill="#FFFFFF" d="M398.32,826.629c0.6-0.301,0.778-0.801,0.778-1.34v-4.201h-2.84v-1.4h2.84v-2.021h-0.899
			c-0.439,0.601-0.699,0.96-1.479,1.64l-1.12-1.198c1.939-1.682,2.92-4.183,3.121-7.521l1.439,0.359
			c0.061,1.08-0.101,2.141-0.18,2.319h2.961v1.44h-3.302c-0.181,0.56-0.461,1.12-0.621,1.521h3.701v1.44h-2.08v2h2.44v1.421h-2.44
			v4.48l2.562-1.2v1.54l-3.961,2.021L398.32,826.629z M405.281,815.866c-0.42-1.561-1.301-2.74-2.461-3.921l1.341-0.681
			c1.16,1.142,1.979,2.32,2.501,3.842L405.281,815.866z M408.122,826.449c1.08,0.08,1.54,0.14,2.061,0.1
			c0.44-0.02,0.561-0.28,0.561-0.641v-1.76h-5.4v4.261h-1.521v-12.063h3.421v-5.94h1.54v5.94h3.501v9.962
			c0,0.94-0.78,1.74-1.881,1.74h-1.78L408.122,826.449z M405.342,817.787v1.7h5.4v-1.7H405.342z M405.342,820.928v1.78h5.4v-1.78
			H405.342z M413.043,811.945c-0.561,1.479-1.34,2.739-2.601,3.881l-1.24-0.96c1.28-1.04,2.061-2.28,2.7-3.802L413.043,811.945z"/>
		<path fill="#FFFFFF" d="M424.901,812.746c-0.342-0.48-1.141-1.16-1.78-1.562l1.58-0.819c0.899,0.66,1.641,1.541,1.979,2.359
			l6.121,0.021v1.46l-6.479-0.021v1.021l5.359-0.021v1.319h-5.359v1.041l5.359-0.02v1.3h-5.359v1.12h7.141v1.461l-13.703-0.021
			l-0.02,0.74h-1.5v-6.021c-0.26,0.28-0.82,0.98-1.48,1.54l-1.34-0.938c2.1-1.761,3.5-3.922,4.42-6.302l1.341,0.619
			c-0.3,0.761-0.62,1.36-0.779,1.722L424.901,812.746L424.901,812.746z M431.543,828.309h-1.5v-1.1h-9.863v1.16h-1.52l-0.021-6.021
			h12.923L431.543,828.309z M419.76,814.186v1.001h5.082v-0.979L419.76,814.186z M424.842,817.527v-1.041l-5.082,0.02v1.021H424.842
			z M424.821,819.947l0.021-1.12h-5.082v1.12H424.821z M430.043,823.788l-9.883,0.021l0.02,1.961l9.883-0.021L430.043,823.788z"/>
		<path fill="#FFFFFF" d="M436.6,825.748c-0.42-0.379-0.801-0.68-1.319-1.199c1.239-0.361,2.16-0.74,3.021-1.061v-4.621h-2.04
			l0.021-1.42l1.979,0.02l0.021-3.961l-2.4,0.021v-1.46l6.201,0.021v1.42h-2.22l-0.021,3.961l1.961-0.02v1.42h-1.961v4.041
			c0.58-0.221,1.441-0.621,2.421-0.98v1.5L436.6,825.748z M452.283,811.545l-0.041,8.703h-4.062v1.92h3.941v1.439h-3.98v2.301h5.341
			v1.421H441.34v-1.421h5.262l0.021-2.301h-4v-1.439h3.979l0.021-1.92h-4.142v-8.723L452.283,811.545z M446.602,815.106l0.021-2.12
			l-2.62-0.021v2.142H446.602z M444.001,816.526v2.301h2.601l0.021-2.321L444.001,816.526z M448.162,816.547v2.26l2.58,0.021v-2.261
			L448.162,816.547z M448.202,815.127h2.561l0.04-2.141l-2.621-0.021L448.202,815.127z"/>
		<path fill="#FFFFFF" d="M455.42,827.089c2.699-1.36,3.84-3.761,3.84-6.921v-5.822h1.5v5.861c0,3.182-0.92,6.162-4.381,8.223
			L455.42,827.089z M456.699,811.686h6.701v11.242h-1.5v-9.822h-3.701v9.782h-1.5V811.686z M461.201,823.488
			c1.06,0.739,2.358,2.061,3.2,3.541l-1.28,1c-0.721-1.48-1.34-2.302-2.861-3.581L461.201,823.488z M467.063,828.329l-0.58-1.602
			c1.061,0.04,1.74,0.062,2.461,0.062c0.22-0.041,0.3-0.141,0.3-0.521v-10.042l-0.26,0.021c-0.222,3.682-1.36,6.822-4.521,9.842
			l-1.24-1.16c1.461-1.38,2.4-2.58,3.302-4.399c0.659-1.341,0.899-2.86,0.979-4.302h-3.721v-1.479h5.461v-4.24h1.561v4.24h2.222
			v1.479h-2.222v10.603c0,0.74-0.461,1.501-1.34,1.501L467.063,828.329L467.063,828.329z"/>
		<path fill="#FFFFFF" d="M477.8,817.688h3.901c-0.24-0.601-1.24-1.7-1.841-2.16l0.96-0.801c0.619,0.359,1.899,1.562,2.521,2.5
			l-0.681,0.461l2.581,0.039c0.54-0.52,1.581-1.859,2.021-2.979l1.32,0.721c-0.42,0.84-1.1,1.779-1.5,2.222h5.281v1.379H479.28
			l0.021,3.662c0.021,2.84-1.581,4.641-3.102,5.561l-1.12-1.141c1.32-0.721,2.721-2.28,2.721-4.861V817.688L477.8,817.688z
			 M485.241,813.126l7.102,0.04v1.38H476.08v-1.36h8.041c-0.32-0.58-1.141-1.6-1.94-2.18l1.04-0.841
			c0.82,0.681,1.74,1.44,2.541,2.641L485.241,813.126z"/>
		<path fill="#FFFFFF" d="M502.041,828.35v-1.381h-3.721v1.461l-1.5-0.041v-8.98h6.721l-0.02,8.941H502.041z M498.32,825.549
			l3.699-0.021v-4.7h-3.699V825.549z M510.123,811.285l-0.021,6.541H498.76v-6.562L510.123,811.285z M508.803,812.566l-8.683-0.041
			l0.021,4.041h8.643L508.803,812.566z M506.861,828.289h-1.521v-8.941h6.842v8.901h-1.521v-1.38l-3.801,0.02V828.289z
			 M510.683,820.768h-3.82v4.701l3.82-0.021V820.768z"/>
		<path fill="#FFFFFF" d="M270.703,860.486v6.821h-1.521v-0.881h-3.781v0.921l-1.52,0.021v-6.322l-0.48,0.32l-1.4-1.021l0.32-0.159
			l-1.8-0.041v2.28h2.641v1.46l-2.641,0.021v3.58c0.82,0.381,1.86,0.561,2.92,0.561l5.841-0.02c1.041,0,2.041-0.08,3.321-0.182
			l-0.72,1.602h-8.702c-2.841,0-5.041-1.562-6.042-2.501c-0.34,1.3-0.78,2.301-1.72,3.439l-1.34-0.84
			c1.98-2.18,2.101-5.061,2.061-8.082l1.46,0.16c0.1,1.4-0.02,2.541-0.16,3.701c0.5,0.52,1.14,1.08,1.58,1.34v-6.501h-4.281v-1.439
			l3.541-0.021v-2.602h-2.74v-1.46l2.74,0.021v-2.301h1.541v2.301h2.94v1.439h-2.96v2.62l3.661-0.02v0.779
			c1.121-0.66,2.341-2.4,2.161-4.762h-2.28v-1.46l7.941-0.02c-0.06,2-0.26,3.801-0.78,5.479c-0.1,0.48-0.5,0.84-1,0.9
			c-0.74,0.08-1.44,0.02-2.201-0.061l-0.62-1.601c0.96,0.16,1.721,0.359,2.121,0.279c0.22,0.021,0.36-0.141,0.42-0.42
			c0.26-1.062,0.46-2.142,0.5-3.102h-2.541c-0.12,2.161-0.541,4.262-2.601,5.723L270.703,860.486z M265.401,864.968h3.781
			l-0.02-3.021h-3.761V864.968L265.401,864.968z"/>
		<path fill="#58B5E1" d="M290.921,848.621h-10.116l-0.98,5.565l0.07,0.07c1.33-1.365,2.871-1.891,4.795-1.891
			c4.831,0,7.561,3.745,7.561,8.33c0,5.041-4.166,8.927-9.101,8.821c-4.76,0-9.031-2.626-9.101-7.771h4.971
			c0.245,2.17,1.855,3.676,4.025,3.676c2.59,0,4.235-2.274,4.235-4.727c0-2.556-1.575-4.585-4.235-4.585
			c-1.785,0-2.765,0.63-3.746,1.96h-4.48l2.416-13.546h13.687L290.921,848.621L290.921,848.621z"/>
		<path fill="#58B5E1" d="M302.575,844.036c4.9,0,9.031,3.081,9.031,12.636c0,9.768-4.131,12.848-9.031,12.848
			c-4.83,0-8.961-3.08-8.961-12.848C293.614,847.117,297.745,844.036,302.575,844.036z M302.575,865.424
			c4.061,0,4.061-5.986,4.061-8.752c0-2.555,0-8.54-4.061-8.54c-3.99,0-3.99,5.985-3.99,8.54
			C298.584,859.438,298.584,865.424,302.575,865.424z"/>
		<path fill="#58B5E1" d="M322.035,844.036c4.9,0,9.031,3.081,9.031,12.636c0,9.768-4.131,12.848-9.031,12.848
			c-4.83,0-8.961-3.08-8.961-12.848C313.074,847.117,317.205,844.036,322.035,844.036z M322.035,865.424
			c4.061,0,4.061-5.986,4.061-8.752c0-2.555,0-8.54-4.061-8.54c-3.99,0-3.99,5.985-3.99,8.54
			C318.044,859.438,318.044,865.424,322.035,865.424z"/>
		<path fill="#58B5E1" d="M341.495,844.036c4.901,0,9.031,3.081,9.031,12.636c0,9.768-4.13,12.848-9.031,12.848
			c-4.83,0-8.961-3.08-8.961-12.848C332.534,847.117,336.665,844.036,341.495,844.036z M341.495,865.424
			c4.061,0,4.061-5.986,4.061-8.752c0-2.555,0-8.54-4.061-8.54c-3.99,0-3.99,5.985-3.99,8.54
			C337.504,859.438,337.504,865.424,341.495,865.424z"/>
		<path fill="#58B5E1" d="M360.325,851.387v19.883H357.7v-15.401c-1.05,1.75-2.135,2.766-3.536,3.99l-1.715-2.101
			c3.991-3.569,6.126-7.911,7.456-12.531c0.385-1.364,0.805-3.011,1.189-5.216l2.275,0.979
			C362.775,844.842,361.69,848.236,360.325,851.387z M381.117,869.414H365.05c-0.455,0-1.365-0.455-1.925-1.295
			c-0.63-1.016-0.91-2.591-0.315-3.641c4.131-5.637,11.236-14.701,15.053-18.938H364.35v-2.555h17.468l-0.07,2.483
			c-5.846,6.231-11.167,13.127-15.822,19.287c-0.28,0.49-0.7,0.91-0.56,1.471c0.035,0.314,0.49,0.49,0.734,0.631h14.072
			c0.42,0,0.735-0.28,0.945-0.596c0.314-0.805,0.314-1.819,0.524-3.186l2.625,1.155
			C383.567,867.453,382.972,869.414,381.117,869.414z"/>
		<path fill="#FFFFFF" d="M399.262,867.088c0,0.562,0.4,0.801,0.761,0.801h2.36c0.58,0,0.779-1.399,1.119-3.001l1.541,0.501
			c-0.16,0.979-0.381,1.881-0.7,2.66c-0.3,0.72-1.04,1.38-1.819,1.38h-2.802c-1.66,0-2.061-1.46-2.061-2.561v-6.722l-2.54-0.021
			c0.06,5.821-2.701,8.262-6.242,10.242l-1.1-1.521c3.521-1.841,5.74-3.82,5.721-8.722h-4.58v-1.521l15.063,0.021v1.521
			l-4.722-0.021V867.088L399.262,867.088z M390.619,853.686h11.703v1.521h-11.703V853.686z"/>
	</g>
</g>
</svg>
