<?xml version="1.0" encoding="utf-8"?>
<!-- Generator: Adobe Illustrator 16.0.0, SVG Export Plug-In . SVG Version: 6.00 Build 0)  -->
<!DOCTYPE svg PUBLIC "-//W3C//DTD SVG 1.1//EN" "http://www.w3.org/Graphics/SVG/1.1/DTD/svg11.dtd">
<svg version="1.1" id="Layer_1" xmlns="http://www.w3.org/2000/svg" xmlns:xlink="http://www.w3.org/1999/xlink" x="0px" y="0px"
	 width="768px" height="1024px" viewBox="0 0 768 1024" enable-background="new 0 0 768 1024" xml:space="preserve">
<g>
	<g>
		<g>
			<path fill="#FFFFFF" d="M133.832,916.807h-6.827c0.015-1.643,0.857-2.885,2.2-3.783c1.299-0.942,2.984-1.729,3.014-3.285
				c0.014-0.713-0.286-1.771-1.686-1.771c-1.285,0-1.671,1.102-1.714,2.499h-1.628c0-2.213,1.214-3.854,3.441-3.854
				c2.442,0,3.214,1.785,3.214,3.068c0,1.586-1.086,2.57-2.229,3.371c-1.156,0.799-2.37,1.414-2.656,2.299h4.87L133.832,916.807
				L133.832,916.807z"/>
			<path fill="#FFFFFF" d="M141.841,911.808c0,2.271-0.586,5.199-3.456,5.199c-2.871,0-3.456-2.929-3.456-5.199
				c0-2.27,0.585-5.196,3.456-5.196C141.255,906.609,141.841,909.537,141.841,911.808z M140.213,911.808
				c0-2.085-0.4-3.842-1.828-3.842c-1.429,0-1.828,1.757-1.828,3.842s0.399,3.845,1.828,3.845
				C139.813,915.65,140.213,913.893,140.213,911.808z"/>
			<path fill="#FFFFFF" d="M142.981,908.466c1.371,0.017,2.671-0.457,2.914-1.657h1.328v9.998h-1.785v-7.056h-2.457V908.466z"/>
			<path fill="#FFFFFF" d="M151.947,906.809h5.17v1.457h-3.956l-0.515,2.543l0.029,0.028c0.442-0.485,1.171-0.757,1.842-0.757
				c1.985,0,3.128,1.428,3.128,3.342c0,1.6-0.999,3.585-3.456,3.585c-1.928,0-3.428-1.043-3.499-3.042h1.628
				c0.1,1.07,0.785,1.688,1.843,1.688c1.385,0,1.856-0.986,1.856-2.2c0-1.102-0.586-2.085-1.899-2.085
				c-0.686,0-1.356,0.214-1.614,0.914h-1.628L151.947,906.809z"/>
		</g>
	</g>
	<g>
		<g>
			<path fill="#FFFFFF" d="M194.366,916.807h-6.827c0.015-1.643,0.857-2.885,2.2-3.783c1.3-0.942,2.984-1.729,3.013-3.285
				c0.015-0.713-0.285-1.771-1.685-1.771c-1.286,0-1.671,1.102-1.714,2.499h-1.629c0-2.213,1.215-3.854,3.442-3.854
				c2.442,0,3.214,1.785,3.214,3.068c0,1.586-1.086,2.57-2.229,3.371c-1.156,0.799-2.371,1.414-2.656,2.299h4.87L194.366,916.807
				L194.366,916.807z"/>
			<path fill="#FFFFFF" d="M202.375,911.808c0,2.271-0.586,5.199-3.456,5.199c-2.871,0-3.457-2.929-3.457-5.199
				c0-2.27,0.586-5.196,3.457-5.196C201.79,906.609,202.375,909.537,202.375,911.808z M200.748,911.808
				c0-2.085-0.4-3.842-1.828-3.842c-1.429,0-1.828,1.757-1.828,3.842s0.399,3.845,1.828,3.845
				C200.347,915.65,200.748,913.893,200.748,911.808z"/>
			<path fill="#FFFFFF" d="M203.515,908.466c1.371,0.017,2.671-0.457,2.914-1.657h1.328v9.998h-1.785v-7.056h-2.457V908.466z"/>
			<path fill="#FFFFFF" d="M216.366,909.337c-0.071-0.813-0.614-1.371-1.457-1.371c-1.771,0-1.971,2.114-2.071,3.428l0.029,0.028
				c0.442-0.785,1.271-1.186,2.156-1.186c1.985,0,3.156,1.441,3.156,3.355c0,1.941-1.328,3.413-3.327,3.413
				c-2.942,0-3.643-2.313-3.643-5.228c0-2.387,0.942-5.17,3.771-5.17c1.586,0,2.928,1.1,3.014,2.728L216.366,909.337
				L216.366,909.337z M216.551,913.564c0-1.071-0.586-2.042-1.757-2.042c-1.186,0-1.8,0.94-1.8,2.042c0,1.086,0.614,2.086,1.8,2.086
				C215.965,915.65,216.551,914.636,216.551,913.564z"/>
		</g>
	</g>
	<g>
		<g>
			<path fill="#FFFFFF" d="M133.459,788.789h-1.422v2.621h-1.705v-2.621h-4.738v-1.785l4.738-6.646h1.705v7.012h1.422V788.789z
				 M126.984,787.367h3.349v-4.864H130.3L126.984,787.367z"/>
			<path fill="#FFFFFF" d="M140.222,783.15c-0.079-0.9-0.68-1.518-1.611-1.518c-1.958,0-2.179,2.337-2.29,3.79l0.032,0.031
				c0.489-0.868,1.405-1.312,2.385-1.312c2.195,0,3.49,1.596,3.49,3.713c0,2.146-1.469,3.771-3.68,3.771
				c-3.254,0-4.027-2.559-4.027-5.779c0-2.638,1.042-5.717,4.169-5.717c1.753,0,3.237,1.215,3.332,3.018L140.222,783.15
				L140.222,783.15z M140.427,787.825c0-1.187-0.647-2.259-1.942-2.259c-1.311,0-1.99,1.043-1.99,2.259c0,1.2,0.68,2.306,1.99,2.306
				C139.78,790.131,140.427,789.01,140.427,787.825z"/>
			<path fill="#FFFFFF" d="M143.243,788.156c0-1.391,0.79-2.385,2.021-2.7v-0.031c-0.995-0.38-1.563-1.2-1.563-2.272
				c0-1.881,1.248-3.018,3.443-3.018s3.442,1.139,3.442,3.018c0,1.072-0.568,1.895-1.563,2.272v0.031
				c1.232,0.315,2.021,1.312,2.021,2.7c0,2.164-1.658,3.475-3.9,3.475C144.901,791.631,143.243,790.32,143.243,788.156z
				 M149.245,788.156c0-1.215-0.9-1.941-2.101-1.941s-2.101,0.729-2.101,1.941c0,1.295,0.9,2.054,2.101,2.054
				S149.245,789.451,149.245,788.156z M145.407,783.245c0,1.042,0.742,1.627,1.737,1.627s1.737-0.585,1.737-1.627
				c0-1.089-0.774-1.689-1.737-1.689C146.18,781.556,145.407,782.156,145.407,783.245z"/>
			<path fill="#FFFFFF" d="M157.76,783.15c-0.079-0.9-0.679-1.518-1.611-1.518c-1.958,0-2.179,2.337-2.29,3.79l0.032,0.031
				c0.489-0.868,1.405-1.312,2.385-1.312c2.195,0,3.49,1.596,3.49,3.713c0,2.146-1.469,3.771-3.68,3.771
				c-3.254,0-4.027-2.559-4.027-5.779c0-2.638,1.042-5.717,4.169-5.717c1.753,0,3.237,1.215,3.332,3.018L157.76,783.15
				L157.76,783.15z M157.965,787.825c0-1.187-0.647-2.259-1.942-2.259c-1.311,0-1.99,1.043-1.99,2.259c0,1.2,0.68,2.306,1.99,2.306
				C157.318,790.131,157.965,789.01,157.965,787.825z"/>
		</g>
	</g>
	<rect x="181.257" y="788.769" opacity="0.698" fill="#328EC0" enable-background="new    " width="42.873" height="106.416"/>
	<rect x="120.823" y="800.275" opacity="0.698" fill="#797979" enable-background="new    " width="42.794" height="94.907"/>
	<g>
		<g>
			<path fill="#FFFFFF" d="M186.407,767.926h5.717v1.611h-4.374l-0.568,2.811l0.031,0.031c0.489-0.537,1.295-0.836,2.037-0.836
				c2.195,0,3.459,1.578,3.459,3.695c0,1.77-1.105,3.963-3.822,3.963c-2.132,0-3.79-1.152-3.869-3.363h1.801
				c0.11,1.188,0.868,1.863,2.037,1.863c1.531,0,2.053-1.09,2.053-2.432c0-1.219-0.647-2.307-2.101-2.307
				c-0.758,0-1.5,0.236-1.784,1.01h-1.801L186.407,767.926z"/>
			<path fill="#FFFFFF" d="M194.07,769.758c1.517,0.018,2.953-0.506,3.222-1.832h1.469v11.057h-1.974v-7.803h-2.717V769.758z"/>
			<path fill="#FFFFFF" d="M210.167,778.98h-7.549c0.016-1.816,0.947-3.189,2.432-4.188c1.438-1.041,3.301-1.91,3.332-3.631
				c0.017-0.791-0.315-1.959-1.863-1.959c-1.421,0-1.848,1.217-1.895,2.764h-1.801c0-2.445,1.343-4.264,3.806-4.264
				c2.701,0,3.554,1.975,3.554,3.395c0,1.756-1.2,2.846-2.464,3.729c-1.279,0.883-2.621,1.563-2.938,2.541h5.386V778.98z"/>
			<path fill="#FFFFFF" d="M212.713,767.926h5.717v1.611h-4.374l-0.568,2.811l0.031,0.031c0.489-0.537,1.295-0.836,2.037-0.836
				c2.195,0,3.459,1.578,3.459,3.695c0,1.77-1.105,3.963-3.822,3.963c-2.132,0-3.79-1.152-3.869-3.363h1.801
				c0.11,1.188,0.868,1.863,2.037,1.863c1.531,0,2.053-1.09,2.053-2.432c0-1.219-0.647-2.307-2.101-2.307
				c-0.758,0-1.5,0.236-1.784,1.01h-1.801L212.713,767.926z"/>
		</g>
	</g>
</g>
</svg>
