<?xml version="1.0" encoding="utf-8"?>
<!-- Generator: Adobe Illustrator 16.0.0, SVG Export Plug-In . SVG Version: 6.00 Build 0)  -->
<!DOCTYPE svg PUBLIC "-//W3C//DTD SVG 1.1//EN" "http://www.w3.org/Graphics/SVG/1.1/DTD/svg11.dtd">
<svg version="1.1" id="Layer_1" xmlns="http://www.w3.org/2000/svg" xmlns:xlink="http://www.w3.org/1999/xlink" x="0px" y="0px"
	 width="768px" height="1024px" viewBox="0 0 768 1024" enable-background="new 0 0 768 1024" xml:space="preserve">
<g>
	<g>
		<path fill="#FFFFFF" d="M332.243,827.589l-0.58,0.062h-6.563c-1.239,0-1.641-0.842-1.641-1.98v-2.3h-5.921v-9.763h5.921v-3.063
			h1.521v3.063h6.061v9.763h-6.061v2.421c0,0.319,0.14,0.479,0.56,0.479h6.021c0.46-0.141,0.579-0.801,0.601-1.381l0.08-1.561
			l1.42,0.68C333.663,825.528,333.483,827.469,332.243,827.589z M323.461,815.086h-4.479v2.602h4.479V815.086z M323.461,819.146
			h-4.479v2.779h4.479V819.146z M329.522,815.086h-4.541v2.602h4.541V815.086z M329.522,819.146h-4.541v2.779h4.541V819.146z"/>
		<path fill="#FFFFFF" d="M343.401,826.748c0.54,0,0.8-0.439,0.8-0.939v-5.859h-7.662v-1.48h7.662l0.02-2
			c1.602-1.021,3.223-2.479,4.121-3.541H339v-1.479l11.522,0.02v1.121c-1.302,1.76-3.103,3.48-4.803,4.621v1.26h7.281v1.48h-7.281
			l-0.02,6.662c0,0.64-0.5,1.18-0.92,1.38c-0.54,0.34-2.723,0.2-3.183,0.2l-1.14-1.441h2.941v-0.004H343.401z"/>
		<path fill="#FFFFFF" d="M355.639,826.449c2.643-0.74,5.063-1.921,6.644-3.604h-5.741v-1.438l7.381-0.021v-1.2h1.541v1.223h7.401
			v1.438h-5.701c1.46,1.5,4.479,2.66,6.722,3.341l-1,1.32c-3.541-0.72-6.319-2.979-7.381-4.381l-0.04,5.261h-1.541v-5.239
			c-1.358,2.101-4.701,3.722-7.381,4.602L355.639,826.449z M356.8,813.586c1.26,0.301,2.38,0.9,3.34,1.961l-1.14,1.16
			c-0.8-1.121-1.82-1.66-3.221-1.941L356.8,813.586z M357.6,820.908c-0.438-0.381-0.698-0.721-1.198-1.161
			c1.96-1,3.681-2.32,4.761-4.241c0.479,0.281,0.8,0.563,1.2,0.881C361.261,818.247,359.42,819.867,357.6,820.908z M360.76,814.126
			c-0.76-1.08-1.74-1.761-3-2.101c0.42-0.5,0.682-0.802,1.04-1.143c1.22,0.381,2.301,1.103,3.143,2.222L360.76,814.126z
			 M371.283,813.706v3.801h-6.921l-0.021,1l8.604,0.021v1.46h-10.104v-8.522l9.782-0.02v1.461h-8.282l0.021,0.8L371.283,813.706
			L371.283,813.706z M369.762,816.047v-0.881h-5.421v0.881H369.762z"/>
		<path fill="#FFFFFF" d="M378.58,818.307h-2.681v-1.38h4.221v7.261c1.061,1.143,2.541,1.861,4.281,1.923
			c1.62,0.06,3.3,0.181,4.961,0.08l4.261-0.239l-0.6,1.64h-8.144c-3.661,0-4.521-1.021-5.521-2.081
			c-0.98,0.723-1.94,1.643-3.021,2.581l-1.14-1.2c1.239-0.898,2.358-1.84,3.381-2.681L378.58,818.307L378.58,818.307z
			 M378.78,815.086c-0.54-1.18-1.5-2.62-2.642-3.58l1.12-0.82c1.2,0.961,2.24,2.42,2.82,3.541L378.78,815.086z M391.022,810.705
			c-0.36,0.66-0.562,1.021-0.882,1.5h3.021v1.441h-5.063c-0.18,0.6-0.357,1.1-0.579,1.64h4.302v9.742h-9.764v-9.742h3.701
			c0.3-0.54,0.5-1.062,0.682-1.62h-5.701v-1.461h2.899c-0.22-0.239-0.698-0.74-1.38-1.199l1.32-0.841
			c0.8,0.72,1.501,1.341,1.88,2.04h2.921c0.501-0.6,0.94-1.3,1.261-2.12L391.022,810.705z M390.223,817.927v-1.181h-6.602v1.181
			H390.223z M383.621,819.387v1.342h6.621v-1.342H383.621z M390.242,823.588v-1.4h-6.621v1.4H390.242z"/>
		<path fill="#FFFFFF" d="M398.32,826.629c0.6-0.301,0.777-0.801,0.777-1.34v-4.201h-2.84v-1.4h2.84v-2.021h-0.898
			c-0.439,0.601-0.699,0.96-1.479,1.64l-1.12-1.197c1.939-1.683,2.921-4.184,3.121-7.521l1.439,0.359
			c0.061,1.08-0.102,2.141-0.18,2.318h2.961v1.44h-3.303c-0.181,0.56-0.461,1.12-0.621,1.521h3.701v1.44h-2.08v2h2.44v1.421h-2.44
			v4.48l2.563-1.2v1.54l-3.961,2.021L398.32,826.629z M405.281,815.866c-0.42-1.562-1.301-2.74-2.461-3.921l1.341-0.682
			c1.16,1.143,1.979,2.32,2.501,3.842L405.281,815.866z M408.122,826.449c1.08,0.08,1.54,0.14,2.061,0.1
			c0.44-0.02,0.562-0.28,0.562-0.641v-1.76h-5.4v4.261h-1.521v-12.063h3.421v-5.939h1.54v5.939h3.501v9.962
			c0,0.94-0.78,1.74-1.881,1.74h-1.78L408.122,826.449z M405.342,817.787v1.7h5.4v-1.7H405.342z M405.342,820.928v1.78h5.4v-1.78
			H405.342z M413.043,811.945c-0.561,1.479-1.34,2.738-2.601,3.881l-1.24-0.96c1.28-1.04,2.061-2.28,2.7-3.802L413.043,811.945z"/>
		<path fill="#FFFFFF" d="M424.901,812.746c-0.343-0.48-1.142-1.16-1.78-1.563l1.58-0.818c0.898,0.66,1.641,1.541,1.979,2.358
			l6.121,0.021v1.46l-6.479-0.021v1.021l5.358-0.021v1.319h-5.358v1.041l5.358-0.02v1.3h-5.358v1.12h7.141v1.461l-13.703-0.021
			l-0.02,0.74h-1.5v-6.021c-0.26,0.28-0.82,0.98-1.48,1.54l-1.34-0.938c2.1-1.761,3.5-3.922,4.42-6.302l1.341,0.618
			c-0.3,0.762-0.62,1.36-0.778,1.723L424.901,812.746L424.901,812.746z M431.543,828.309h-1.5v-1.1h-9.863v1.16h-1.52l-0.021-6.021
			h12.924L431.543,828.309z M419.76,814.186v1.001h5.082v-0.979L419.76,814.186z M424.842,817.527v-1.041l-5.082,0.02v1.021H424.842
			z M424.821,819.947l0.021-1.12h-5.082v1.12H424.821z M430.043,823.788l-9.883,0.021l0.02,1.961l9.883-0.021L430.043,823.788z"/>
		<path fill="#FFFFFF" d="M436.6,825.748c-0.42-0.379-0.801-0.68-1.318-1.199c1.238-0.361,2.16-0.74,3.021-1.061v-4.621h-2.04
			l0.021-1.42l1.979,0.02l0.021-3.961l-2.4,0.021v-1.46l6.201,0.021v1.42h-2.22l-0.021,3.961l1.961-0.02v1.42h-1.961v4.041
			c0.58-0.221,1.441-0.621,2.421-0.98v1.5L436.6,825.748z M452.283,811.545l-0.041,8.703h-4.063v1.92h3.941v1.439h-3.98v2.301h5.342
			v1.421H441.34v-1.421h5.262l0.021-2.301h-4v-1.439h3.979l0.021-1.92h-4.142v-8.723L452.283,811.545z M446.602,815.106l0.021-2.12
			l-2.62-0.021v2.143L446.602,815.106L446.602,815.106z M444.001,816.526v2.301h2.601l0.021-2.321L444.001,816.526z
			 M448.162,816.547v2.26l2.58,0.021v-2.261L448.162,816.547z M448.202,815.127h2.561l0.04-2.141l-2.621-0.021L448.202,815.127z"/>
		<path fill="#FFFFFF" d="M455.42,827.089c2.699-1.36,3.84-3.761,3.84-6.921v-5.822h1.5v5.861c0,3.182-0.92,6.162-4.381,8.223
			L455.42,827.089z M456.699,811.686h6.701v11.242h-1.5v-9.822h-3.701v9.782h-1.5V811.686z M461.201,823.488
			c1.06,0.738,2.357,2.061,3.2,3.541l-1.28,1c-0.721-1.48-1.34-2.303-2.861-3.581L461.201,823.488z M467.063,828.329l-0.579-1.603
			c1.061,0.04,1.739,0.063,2.461,0.063c0.22-0.041,0.3-0.141,0.3-0.521v-10.042l-0.26,0.021c-0.223,3.682-1.36,6.822-4.521,9.842
			l-1.24-1.16c1.461-1.38,2.4-2.58,3.303-4.398c0.658-1.341,0.898-2.86,0.979-4.302h-3.721v-1.479h5.461v-4.24h1.561v4.24h2.223
			v1.479h-2.223v10.603c0,0.74-0.461,1.501-1.34,1.501L467.063,828.329L467.063,828.329z"/>
		<path fill="#FFFFFF" d="M477.8,817.688h3.901c-0.24-0.601-1.24-1.699-1.841-2.159l0.96-0.802c0.619,0.359,1.898,1.563,2.521,2.5
			l-0.681,0.461l2.581,0.039c0.54-0.52,1.581-1.858,2.021-2.979l1.32,0.721c-0.42,0.84-1.1,1.779-1.5,2.223h5.281v1.379H479.28
			l0.021,3.662c0.021,2.84-1.581,4.641-3.102,5.561l-1.12-1.141c1.32-0.722,2.721-2.28,2.721-4.861V817.688L477.8,817.688z
			 M485.241,813.126l7.102,0.04v1.38H476.08v-1.36h8.041c-0.32-0.58-1.141-1.6-1.94-2.18l1.04-0.841
			c0.82,0.681,1.74,1.44,2.541,2.641L485.241,813.126z"/>
		<path fill="#FFFFFF" d="M502.041,828.35v-1.381h-3.721v1.461l-1.5-0.041v-8.979h6.721l-0.02,8.94H502.041z M498.32,825.549
			l3.698-0.021v-4.7h-3.698V825.549z M510.123,811.285l-0.021,6.541H498.76v-6.563L510.123,811.285z M508.803,812.566l-8.683-0.041
			l0.021,4.041h8.644L508.803,812.566z M506.861,828.289h-1.521v-8.941h6.842v8.901h-1.521v-1.38l-3.801,0.02L506.861,828.289
			L506.861,828.289z M510.683,820.768h-3.819v4.701l3.819-0.021V820.768z"/>
		<path fill="#FFFFFF" d="M270.703,860.486v6.82h-1.521v-0.881h-3.781v0.921l-1.52,0.021v-6.322l-0.48,0.32l-1.4-1.021l0.32-0.159
			l-1.8-0.041v2.28h2.641v1.46l-2.641,0.021v3.58c0.82,0.381,1.86,0.561,2.92,0.561l5.841-0.02c1.041,0,2.041-0.08,3.321-0.183
			l-0.72,1.603h-8.702c-2.841,0-5.041-1.563-6.042-2.501c-0.34,1.3-0.78,2.301-1.72,3.438l-1.34-0.84
			c1.98-2.18,2.101-5.061,2.061-8.082l1.46,0.16c0.1,1.4-0.02,2.541-0.16,3.701c0.5,0.52,1.14,1.08,1.58,1.34v-6.501h-4.281v-1.439
			l3.541-0.021v-2.602h-2.74v-1.461l2.74,0.021v-2.301h1.541v2.301h2.94v1.439h-2.96v2.619l3.661-0.02v0.779
			c1.121-0.66,2.341-2.4,2.161-4.763h-2.28v-1.46l7.941-0.02c-0.06,2-0.26,3.801-0.78,5.479c-0.1,0.48-0.5,0.84-1,0.9
			c-0.74,0.08-1.44,0.02-2.201-0.062l-0.62-1.601c0.96,0.16,1.721,0.359,2.121,0.279c0.22,0.021,0.36-0.142,0.42-0.42
			c0.26-1.063,0.46-2.143,0.5-3.103h-2.541c-0.12,2.161-0.541,4.262-2.601,5.724L270.703,860.486z M265.401,864.968h3.781
			l-0.02-3.021h-3.761V864.968L265.401,864.968z"/>
		<path fill="#58B5E1" d="M290.921,848.621h-10.116l-0.98,5.564l0.07,0.07c1.33-1.365,2.871-1.891,4.795-1.891
			c4.831,0,7.561,3.745,7.561,8.33c0,5.041-4.166,8.927-9.101,8.82c-4.76,0-9.031-2.626-9.101-7.771h4.971
			c0.245,2.17,1.855,3.676,4.025,3.676c2.59,0,4.235-2.273,4.235-4.727c0-2.557-1.575-4.585-4.235-4.585
			c-1.785,0-2.765,0.63-3.746,1.96h-4.48l2.416-13.546h13.687L290.921,848.621L290.921,848.621z"/>
		<path fill="#58B5E1" d="M302.575,844.036c4.899,0,9.031,3.081,9.031,12.636c0,9.769-4.132,12.848-9.031,12.848
			c-4.83,0-8.961-3.079-8.961-12.848C293.614,847.117,297.745,844.036,302.575,844.036z M302.575,865.424
			c4.061,0,4.061-5.986,4.061-8.752c0-2.555,0-8.54-4.061-8.54c-3.99,0-3.99,5.985-3.99,8.54
			C298.584,859.438,298.584,865.424,302.575,865.424z"/>
		<path fill="#58B5E1" d="M322.035,844.036c4.899,0,9.031,3.081,9.031,12.636c0,9.769-4.132,12.848-9.031,12.848
			c-4.83,0-8.961-3.079-8.961-12.848C313.074,847.117,317.205,844.036,322.035,844.036z M322.035,865.424
			c4.061,0,4.061-5.986,4.061-8.752c0-2.555,0-8.54-4.061-8.54c-3.99,0-3.99,5.985-3.99,8.54
			C318.044,859.438,318.044,865.424,322.035,865.424z"/>
		<path fill="#58B5E1" d="M341.495,844.036c4.901,0,9.031,3.081,9.031,12.636c0,9.769-4.13,12.848-9.031,12.848
			c-4.83,0-8.961-3.079-8.961-12.848C332.534,847.117,336.665,844.036,341.495,844.036z M341.495,865.424
			c4.061,0,4.061-5.986,4.061-8.752c0-2.555,0-8.54-4.061-8.54c-3.99,0-3.99,5.985-3.99,8.54
			C337.504,859.438,337.504,865.424,341.495,865.424z"/>
		<path fill="#58B5E1" d="M360.325,851.387v19.883H357.7v-15.4c-1.05,1.75-2.135,2.766-3.536,3.99l-1.715-2.102
			c3.991-3.568,6.126-7.911,7.456-12.531c0.385-1.363,0.805-3.011,1.188-5.216l2.275,0.979
			C362.775,844.842,361.69,848.236,360.325,851.387z M381.117,869.414H365.05c-0.455,0-1.365-0.455-1.925-1.295
			c-0.63-1.016-0.91-2.591-0.315-3.641c4.132-5.638,11.236-14.701,15.054-18.938H364.35v-2.555h17.469l-0.07,2.482
			c-5.846,6.231-11.167,13.127-15.822,19.287c-0.279,0.49-0.7,0.91-0.56,1.471c0.035,0.314,0.49,0.49,0.733,0.632h14.072
			c0.42,0,0.735-0.28,0.945-0.597c0.313-0.805,0.313-1.818,0.523-3.186l2.625,1.155
			C383.567,867.453,382.972,869.414,381.117,869.414z"/>
		<path fill="#FFFFFF" d="M399.262,867.088c0,0.563,0.4,0.801,0.762,0.801h2.359c0.58,0,0.779-1.398,1.119-3.001l1.541,0.501
			c-0.16,0.979-0.381,1.881-0.7,2.66c-0.3,0.72-1.04,1.38-1.819,1.38h-2.802c-1.66,0-2.061-1.46-2.061-2.561v-6.722l-2.54-0.021
			c0.06,5.821-2.701,8.262-6.242,10.242l-1.1-1.521c3.521-1.841,5.739-3.819,5.721-8.722h-4.58v-1.521l15.063,0.021v1.521
			l-4.722-0.021L399.262,867.088L399.262,867.088z M390.619,853.686h11.703v1.521h-11.703V853.686z"/>
	</g>
</g>
</svg>
