<?xml version="1.0" encoding="utf-8"?>
<!-- Generator: Adobe Illustrator 16.0.0, SVG Export Plug-In . SVG Version: 6.00 Build 0)  -->
<!DOCTYPE svg PUBLIC "-//W3C//DTD SVG 1.1//EN" "http://www.w3.org/Graphics/SVG/1.1/DTD/svg11.dtd">
<svg version="1.1" id="Layer_1" xmlns="http://www.w3.org/2000/svg" xmlns:xlink="http://www.w3.org/1999/xlink" x="0px" y="0px"
	 width="768px" height="1024px" viewBox="0 0 768 1024" enable-background="new 0 0 768 1024" xml:space="preserve">
<g>
	<path opacity="0.298" fill="#FFFFFF" enable-background="new    " d="M538.859,842.913c0-27.107,21.957-49.089,49.039-49.089
		s49.039,21.979,49.039,49.089c0,27.11-21.957,49.087-49.039,49.087S538.859,870.023,538.859,842.913z"/>
	
		<path opacity="0.298" fill="none" stroke="#FFFFFF" stroke-miterlimit="10" stroke-dasharray="2,2" enable-background="new    " d="
		M535.508,842.913c0-28.931,23.459-52.39,52.393-52.39c28.93,0,52.391,23.459,52.391,52.39c0,28.937-23.461,52.392-52.391,52.392
		C558.967,895.305,535.508,871.85,535.508,842.913z"/>
	<path fill="#FFFFFF" d="M578.879,849.469c27.256,0,27.256,0,27.256,0c5.148-17.3,5.148-17.3,5.148-17.3
		c-36.088,0-36.088,0-36.088,0L578.879,849.469z M607.23,852.412c-29.459,0-29.459,0-29.459,0c-0.74,0-1.479-0.729-1.479-1.096
		c-6.629-30.559-6.629-30.559-6.629-30.559c-7,0-7,0-7,0c-0.738,0-1.465-0.74-1.465-1.479c0-0.739,0.727-1.469,1.465-1.469
		c8.105,0,8.105,0,8.105,0c0.74,0,1.469,0.37,1.469,1.1c2.217,10.313,2.217,10.313,2.217,10.313l0,0c38.678,0,38.678,0,38.678,0
		c0.74,0,1.099,0.369,1.099,0.738c0.368,0.37,0.368,0.729,0.368,1.097c-5.891,20.259-5.891,20.259-5.891,20.259
		C608.709,852.043,607.971,852.412,607.23,852.412z"/>
	<path fill="#FFFFFF" d="M583.303,858.376c-1.859,0-3.34,1.491-3.34,3.339c0,1.857,1.479,3.338,3.34,3.338
		c1.85,0,3.326-1.479,3.326-3.338C586.629,859.867,585.15,858.376,583.303,858.376z M583.303,868.02
		c-3.34,0-6.309-2.595-6.309-6.305c0-3.339,2.969-6.295,6.309-6.295c3.695,0,6.297,2.956,6.297,6.295
		C589.6,865.425,586.998,868.02,583.303,868.02z"/>
	<path fill="#FFFFFF" d="M601.699,858.376c-1.85,0-3.34,1.491-3.34,3.339c0,1.857,1.49,3.338,3.34,3.338
		c1.857,0,3.338-1.479,3.338-3.338C605.037,859.867,603.559,858.376,601.699,858.376z M601.699,868.02
		c-3.711,0-6.297-2.595-6.297-6.305c0-3.339,2.586-6.295,6.297-6.295c3.338,0,6.309,2.956,6.309,6.295
		C608.008,865.425,605.037,868.02,601.699,868.02z"/>
	<path fill="#FFFFFF" d="M586.9,851.822c-1.137,0-1.504-0.369-1.504-1.479c0-18.852,0-18.852,0-18.852
		c0-0.74,0.367-1.479,1.504-1.479c0.752,0,1.504,0.739,1.504,1.479c0,18.852,0,18.852,0,18.852
		C588.404,851.453,587.652,851.822,586.9,851.822z"/>
	<path fill="#FFFFFF" d="M598.703,851.822c-0.75,0-1.502-0.752-1.502-1.491c0-18.235,0-18.235,0-18.235
		c0-1.107,0.752-1.479,1.502-1.479c0.752,0,1.492,0.369,1.492,1.479c0,18.235,0,18.235,0,18.235
		C600.195,851.07,599.455,851.822,598.703,851.822z"/>
	<path fill="#FFFFFF" d="M609.127,842.421c-32.859,0-32.859,0-32.859,0c-0.729,0-1.467-0.355-1.467-1.405
		c0-0.699,0.738-1.402,1.467-1.402c32.859,0,32.859,0,32.859,0c0.74,0,1.48,0.703,1.48,1.402
		C610.607,842.063,609.867,842.421,609.127,842.421z"/>
</g>
</svg>
