<?xml version="1.0" encoding="utf-8"?>
<!-- Generator: Adobe Illustrator 16.0.0, SVG Export Plug-In . SVG Version: 6.00 Build 0)  -->
<!DOCTYPE svg PUBLIC "-//W3C//DTD SVG 1.1//EN" "http://www.w3.org/Graphics/SVG/1.1/DTD/svg11.dtd">
<svg version="1.1" id="Layer_1" xmlns="http://www.w3.org/2000/svg" xmlns:xlink="http://www.w3.org/1999/xlink" x="0px" y="0px"
	 width="768px" height="1024px" viewBox="0 0 768 1024" enable-background="new 0 0 768 1024" xml:space="preserve">
<g>
	
		<rect x="109.863" y="121.42" opacity="0.302" fill-rule="evenodd" clip-rule="evenodd" fill="#D9D9D9" width="289.905" height="58.468"/>
	<rect x="113.354" y="125.54" fill="none" stroke="#C1DBF2" stroke-miterlimit="10" width="282.924" height="50.227"/>
	<g>
		<path fill="#FFFFFF" d="M145.252,144.755h5.278v1.898h-5.278v4.524h3.9v9.308h-6.813v1.456h-1.898v-10.738h2.86v-10.92h1.95
			V144.755z M142.366,158.562h4.888v-5.486h-4.888V158.562z M153.677,140.231c0.156,2.314,0.13,5.2,0.182,6.708l7.333-1.014
			l0.286,1.794l-7.488,1.092c0.13,2.054,0.754,4.732,1.248,6.422c1.014-1.664,2.002-3.77,2.86-6.188l1.716,0.858
			c-1.04,2.704-2.106,5.252-3.64,7.41c0.91,1.43,2.21,2.938,3.666,4.004c0.338-0.962,0.416-1.69,0.468-2.678l1.872,1.3
			c-0.156,1.222-0.468,2.288-0.806,2.886c-0.156,0.156-0.364,0.442-0.702,0.52c-1.144,0.468-2.054-0.364-2.73-0.962
			c-1.066-0.936-2.34-2.21-3.094-3.38c-1.664,1.664-3.718,3.146-5.928,4.576l-1.456-1.508c2.106-1.092,4.628-2.938,6.344-4.992
			c-0.65-1.69-1.404-5.148-1.742-7.957l-3.432,0.494l-0.234-1.846l3.536-0.546c-0.234-1.898-0.182-3.692-0.208-6.37L153.677,140.231
			z M157.94,145.717c-0.936-1.352-1.924-2.236-3.198-3.172l1.04-1.3c1.378,0.858,2.756,2.054,3.51,3.042L157.94,145.717z"/>
		<path fill="#FFFFFF" d="M175.386,152.4c1.95-0.884,3.875-1.976,5.2-3.172c-0.598-0.806-1.196-1.768-1.586-2.626
			c-0.624,1.014-1.04,1.664-2.054,2.652l-1.482-1.118c2.184-2.288,3.614-5.07,4.524-8.165l1.716,0.65
			c-0.26,0.91-0.572,1.768-0.754,2.288h5.798c-0.468,2.834-2.47,5.226-3.536,6.37c1.482,1.222,2.912,2.236,5.616,3.224l-1.353,1.508
			c-2.678-1.118-4.082-2.132-5.564-3.432c-1.612,1.482-3.25,2.444-5.408,3.458l-1.092-1.404l-0.052,7.904h-1.924l0.026-2.002H168.6
			l0.026,2.028h-1.924v-17.499h8.684V152.4z M168.6,144.938v4.68h1.508v-4.654L168.6,144.938z M168.6,156.638h1.508l-0.026-5.123
			H168.6V156.638z M173.437,144.963h-1.534v4.68h1.534V144.963z M171.902,156.638h1.56v-5.123h-1.56V156.638z M184.148,163.502
			l-0.026-1.664l-4.446-0.026v1.716h-1.898v-9.907h8.32v9.881H184.148z M179.65,159.966l4.498-0.026v-4.472l-4.472,0.026
			L179.65,159.966z M180.301,144.808c0.442,0.884,1.092,2.47,1.69,3.094c0.91-0.937,1.456-1.69,2.106-3.094H180.301z"/>
		<path fill="#FFFFFF" d="M205.833,153.674c-0.13,2.912-0.572,5.642-1.326,8.008c-0.468,0.884-1.378,1.482-2.314,1.586
			c-1.872-0.052-3.666-0.338-5.512-0.78c-0.13-0.728-0.208-1.378-0.364-2.21c1.898,0.521,3.536,0.91,5.304,0.988
			c0.39,0.052,0.729-0.13,0.937-0.468c0.858-1.3,0.91-3.302,1.144-5.227h-10.816l1.716-8.242l8.658,0.026l0.026-3.926h-9.88
			l0.026-1.846l11.908-0.052v7.722h-8.918l-0.884,4.42H205.833z M211.761,140.309v23.063h-2.132l0.026-23.063H211.761z"/>
		<path fill="#FFFFFF" d="M216.752,149.253c2.002-1.742,4.108-4.55,5.278-9.048l1.742,0.546c-0.208,0.65-0.26,1.17-0.39,1.508
			c1.404,0.858,2.782,2.236,3.926,3.874l-1.482,1.222c-0.936-1.352-1.95-2.652-2.938-3.302c-1.17,2.522-2.262,4.238-4.628,6.553
			L216.752,149.253z M224.214,161.864c-1.378-2.418-3.744-4.238-5.772-5.226l1.248-1.326c0.858,0.364,1.846,1.04,2.548,1.508
			c1.092-1.508,1.69-2.548,2.548-3.874l-6.994-0.026v-1.794h9.36l-0.026,1.69c-1.196,2.002-2.626,3.952-3.562,5.122
			c0.65,0.676,1.3,1.222,2.132,2.626L224.214,161.864z M224.214,150.709c-0.624-1.014-1.976-2.444-2.834-2.912l1.3-1.066
			c0.962,0.598,2.262,1.638,2.912,2.912L224.214,150.709z M234.095,154.324c0,2.392-0.962,4.811-2.808,6.396
			c-1.482,1.274-2.704,1.976-4.732,2.626l-1.248-1.482c1.95-0.806,5.252-2.236,6.318-4.81c0.286-0.91,0.52-1.977,0.52-3.017
			l0.026-5.434h1.924V154.324z M239.581,141.271v1.872h-5.174c-0.208,0.754-0.858,2.028-1.118,2.6l5.304-0.026v11.623h-1.976v-9.802
			h-6.968l-0.026,10.141h-1.846l-0.026-11.935h3.562c0.364-0.702,0.962-1.976,1.144-2.626h-5.642v-1.846H239.581z M238.775,163.034
			c-1.196-1.872-3.094-3.692-4.94-4.732l1.508-1.274c2.106,1.43,3.614,2.73,4.914,4.654L238.775,163.034z"/>
		<path fill="#FFFFFF" d="M253.828,156.04l-0.754-0.962c1.222-0.546,1.56-1.534,1.56-2.574h-1.404v-2.86h2.86v2.73
			C256.09,153.258,255.778,155.13,253.828,156.04z"/>
		<path fill="#FFFFFF" d="M273.536,162.592l-1.274-1.716c0.39-0.234,0.806-0.598,0.806-1.274v-10.296h-3.38v-1.846h5.304v11.57
			l3.406-2.132v2.184L273.536,162.592z M274.29,145.275c-0.754-1.56-2.158-3.172-3.328-4.03l1.43-1.092
			c1.456,0.988,2.704,2.366,3.562,3.874L274.29,145.275z M287.057,142.675v-2.47h1.924v2.47h2.314v1.846h-2.314v7.696h-3.744v1.69
			h7.15v1.82h-5.512c1.066,2.47,3.016,3.744,5.72,5.07l-1.378,1.43c-2.652-1.352-5.512-4.082-5.928-6.032l-0.052,7.333h-1.872
			v-7.384c-0.728,2.938-3.094,5.096-5.512,6.396l-1.508-1.456c2.678-1.248,4.602-3.172,5.408-5.356h-5.46v-1.82h7.021v-1.69h-3.874
			v-7.696h-2.34v-1.846h2.34v-2.418h1.924v2.418H287.057z M287.057,146.472v-1.95h-5.694v1.95H287.057z M287.057,148.24h-5.694
			v2.132h5.694V148.24z"/>
		<path fill="#FFFFFF" d="M296.26,163.06l-1.456-1.612c1.118-0.832,2.522-1.82,3.718-2.938v-7.462h-3.12v-1.924h5.07v9.413
			c1.612,1.742,3.744,2.002,6.214,2.002l9.126-0.026c0.729,0,1.404-0.13,2.47-0.208l-0.858,2.08h-12.559
			c-1.872,0-3.926-0.806-5.226-2.288L296.26,163.06z M300.03,146.368c-0.806-1.664-1.768-3.198-3.38-4.576l1.612-1.04
			c1.404,1.43,2.6,2.86,3.484,4.576L300.03,146.368z M317.841,155.208c-0.312,2.704-0.78,3.718-1.95,3.718h-3.926
			c-1.04,0-1.742-0.806-1.742-1.82v-7.072h-2.08c0.26,3.614-0.676,7.41-3.979,9.36l-0.572,0.338l-1.508-1.612
			c1.769-0.832,2.886-2.08,3.51-3.562c0.572-1.404,0.702-3.017,0.572-4.499l-4.342-0.026v-1.872h14.717v1.898h-4.368v6.63
			c0.052,0.26,0.364,0.416,0.546,0.416l2.652-0.026c0.338,0,0.52-0.728,0.572-2.028l0.026-0.624L317.841,155.208z M302.786,142.312
			h12.767v1.846h-12.767V142.312z"/>
		<path fill="#FFFFFF" d="M324.678,153.206c-0.754,0.364-1.612,0.729-2.392,0.962l-1.3-1.664c3.302-1.066,5.955-2.47,8.269-4.784
			l1.56,1.404c-1.612,1.534-3.666,2.938-5.643,3.874l15.809,0.052v7.333h3.146v1.872h-22.673v-1.872h3.224V153.206z
			 M342.931,147.538H322.65v-1.872h20.281V147.538z M325.484,139.998c2.028,1.248,3.328,2.236,4.784,4.238l-1.561,1.3
			c-1.118-1.638-2.99-3.094-4.732-4.29L325.484,139.998z M326.732,154.948v5.435h2.626v-5.435H326.732z M331.386,154.87v5.435h2.834
			v-5.435H331.386z M343.009,154.558c-1.872-2.054-6.76-4.108-8.866-4.889l1.326-1.482c3.068,0.858,6.838,2.912,8.97,4.862
			L343.009,154.558z M341.371,141.089c-1.508,1.976-2.834,3.12-4.654,4.446l-1.482-1.378c1.794-1.222,3.302-2.652,4.628-4.316
			L341.371,141.089z M336.249,154.87v5.435h2.6v-5.435H336.249z"/>
		<path fill="#FFFFFF" d="M351.016,150.06h-3.484v-1.794h5.408v9.829c1.378,1.482,3.38,2.418,5.642,2.496
			c2.106,0.078,4.29,0.234,6.448,0.104l5.538-0.312l-0.78,2.132h-10.583c-4.758,0-5.876-1.326-7.176-2.704
			c-1.274,0.936-2.522,2.132-3.926,3.354l-1.482-1.56c1.612-1.17,3.068-2.392,4.394-3.484V150.06z M351.276,146.264
			c-0.702-1.534-1.95-3.406-3.433-4.654l1.456-1.066c1.561,1.248,2.912,3.146,3.667,4.602L351.276,146.264z M369.243,146.939v1.95
			h-4.42v10.634h-2.106V148.89h-4.395c-0.052,3.016-0.13,7.15-2.236,10.375l-1.794-0.962c1.456-2.886,2.002-3.875,2.002-7.645
			v-7.774c3.874-0.39,7.28-0.936,10.556-2.626l1.508,1.586c-3.276,1.69-6.76,2.392-10.088,2.756v2.34H369.243z"/>
	</g>
</g>
<g>
	<path fill="#FFFFFF" d="M122.412,194.046h9.022c3.328,0,5.512,1.508,5.512,4.603c0,1.872-0.962,3.224-2.652,3.952v0.052
		c2.262,0.494,3.484,2.262,3.484,4.784c0,2.912-2.028,5.174-6.838,5.174h-8.528V194.046z M125.662,201.821h5.304
		c1.56,0,2.73-0.91,2.73-2.574c0-1.872-0.962-2.548-2.73-2.548h-5.304V201.821z M125.662,209.959h5.746
		c1.977,0,3.12-1.066,3.12-2.938c0-1.82-1.144-2.86-3.12-2.86h-5.746V209.959z"/>
	<path fill="#FFFFFF" d="M142.613,206.657c0,2.106,1.144,3.978,3.614,3.978c1.716,0,2.756-0.754,3.276-2.236h2.809
		c-0.65,2.938-3.146,4.576-6.084,4.576c-4.212,0-6.578-2.938-6.578-7.072c0-3.822,2.496-7.098,6.5-7.098
		c4.238,0,6.838,3.822,6.344,7.853H142.613z M149.53,204.707c-0.104-1.872-1.378-3.562-3.38-3.562c-2.054,0-3.458,1.56-3.536,3.562
		H149.53z"/>
	<path fill="#FFFFFF" d="M162.399,194.046h9.022c3.328,0,5.512,1.508,5.512,4.603c0,1.872-0.962,3.224-2.652,3.952v0.052
		c2.262,0.494,3.484,2.262,3.484,4.784c0,2.912-2.028,5.174-6.838,5.174h-8.528V194.046z M165.649,201.821h5.304
		c1.56,0,2.73-0.91,2.73-2.574c0-1.872-0.962-2.548-2.73-2.548h-5.304V201.821z M165.649,209.959h5.747
		c1.976,0,3.12-1.066,3.12-2.938c0-1.82-1.145-2.86-3.12-2.86h-5.747V209.959z"/>
	<path fill="#FFFFFF" d="M191.545,209.621c0,0.728,0.156,1.014,0.702,1.014c0.182,0,0.416,0,0.728-0.052v2.054
		c-0.442,0.156-1.378,0.338-1.872,0.338c-1.196,0-2.054-0.416-2.288-1.638c-1.17,1.144-3.068,1.638-4.654,1.638
		c-2.418,0-4.602-1.3-4.602-3.926c0-3.354,2.678-3.9,5.174-4.187c2.132-0.39,4.03-0.156,4.03-1.898c0-1.534-1.586-1.82-2.782-1.82
		c-1.664,0-2.834,0.676-2.964,2.132h-2.964c0.208-3.458,3.146-4.472,6.11-4.472c2.626,0,5.382,1.066,5.382,3.9V209.621z
		 M188.582,205.877c-0.91,0.598-2.34,0.572-3.64,0.806c-1.274,0.208-2.418,0.676-2.418,2.236c0,1.326,1.69,1.716,2.73,1.716
		c1.3,0,3.328-0.676,3.328-2.548V205.877z"/>
	<path fill="#FFFFFF" d="M194.743,199.169h2.808v1.976l0.052,0.052c0.884-1.482,2.418-2.392,4.187-2.392
		c2.912,0,4.758,1.56,4.758,4.576v9.23h-2.964v-8.45c-0.052-2.106-0.884-3.016-2.626-3.016c-1.976,0-3.25,1.56-3.25,3.536v7.93
		h-2.964V199.169z"/>
	<path fill="#FFFFFF" d="M209.745,194.046h2.964v10.557l5.356-5.434h3.64l-5.148,4.94l5.643,8.502h-3.614l-4.108-6.526l-1.768,1.716
		v4.81h-2.964V194.046z"/>
	<path fill="#FFFFFF" d="M225.842,196.286h1.545v3.061h3.045v1.545h-3.045v3.061h-1.545v-3.061h-3.045v-1.545h3.045V196.286z"/>
	<path fill="#FFFFFF" d="M243.175,206.865l-0.754-0.962c1.222-0.546,1.56-1.534,1.56-2.574h-1.404v-2.86h2.86v2.73
		C245.438,204.083,245.125,205.955,243.175,206.865z"/>
	<path fill="#FFFFFF" d="M259.139,194.046h9.022c3.328,0,5.512,1.508,5.512,4.603c0,1.872-0.962,3.224-2.652,3.952v0.052
		c2.262,0.494,3.484,2.262,3.484,4.784c0,2.912-2.028,5.174-6.838,5.174h-8.528V194.046z M262.389,201.821h5.304
		c1.56,0,2.73-0.91,2.73-2.574c0-1.872-0.962-2.548-2.73-2.548h-5.304V201.821z M262.389,209.959h5.746
		c1.977,0,3.12-1.066,3.12-2.938c0-1.82-1.144-2.86-3.12-2.86h-5.746V209.959z"/>
	<path fill="#FFFFFF" d="M279.341,206.657c0,2.106,1.144,3.978,3.614,3.978c1.716,0,2.756-0.754,3.276-2.236h2.808
		c-0.65,2.938-3.146,4.576-6.084,4.576c-4.212,0-6.578-2.938-6.578-7.072c0-3.822,2.496-7.098,6.5-7.098
		c4.238,0,6.838,3.822,6.344,7.853H279.341z M286.258,204.707c-0.104-1.872-1.378-3.562-3.38-3.562c-2.054,0-3.458,1.56-3.536,3.562
		H286.258z"/>
	<path fill="#FFFFFF" d="M299.127,194.046h9.022c3.328,0,5.512,1.508,5.512,4.603c0,1.872-0.962,3.224-2.652,3.952v0.052
		c2.262,0.494,3.484,2.262,3.484,4.784c0,2.912-2.028,5.174-6.838,5.174h-8.528V194.046z M302.377,201.821h5.304
		c1.56,0,2.73-0.91,2.73-2.574c0-1.872-0.962-2.548-2.73-2.548h-5.304V201.821z M302.377,209.959h5.746
		c1.977,0,3.12-1.066,3.12-2.938c0-1.82-1.144-2.86-3.12-2.86h-5.746V209.959z"/>
	<path fill="#FFFFFF" d="M328.273,209.621c0,0.728,0.156,1.014,0.702,1.014c0.182,0,0.416,0,0.728-0.052v2.054
		c-0.442,0.156-1.378,0.338-1.872,0.338c-1.196,0-2.054-0.416-2.288-1.638c-1.17,1.144-3.068,1.638-4.654,1.638
		c-2.418,0-4.602-1.3-4.602-3.926c0-3.354,2.678-3.9,5.174-4.187c2.132-0.39,4.03-0.156,4.03-1.898c0-1.534-1.586-1.82-2.782-1.82
		c-1.664,0-2.834,0.676-2.964,2.132h-2.964c0.208-3.458,3.146-4.472,6.11-4.472c2.626,0,5.382,1.066,5.382,3.9V209.621z
		 M325.31,205.877c-0.91,0.598-2.34,0.572-3.64,0.806c-1.274,0.208-2.418,0.676-2.418,2.236c0,1.326,1.69,1.716,2.73,1.716
		c1.3,0,3.328-0.676,3.328-2.548V205.877z"/>
	<path fill="#FFFFFF" d="M331.471,199.169h2.808v1.976l0.052,0.052c0.884-1.482,2.418-2.392,4.186-2.392
		c2.912,0,4.758,1.56,4.758,4.576v9.23h-2.964v-8.45c-0.052-2.106-0.884-3.016-2.626-3.016c-1.976,0-3.25,1.56-3.25,3.536v7.93
		h-2.964V199.169z"/>
	<path fill="#FFFFFF" d="M346.473,194.046h2.964v10.557l5.356-5.434h3.64l-5.148,4.94l5.642,8.502h-3.614l-4.108-6.526l-1.768,1.716
		v4.81h-2.964V194.046z"/>
	<path fill="#FFFFFF" d="M362.67,206.657c0,2.106,1.144,3.978,3.614,3.978c1.716,0,2.756-0.754,3.276-2.236h2.808
		c-0.65,2.938-3.146,4.576-6.084,4.576c-4.212,0-6.578-2.938-6.578-7.072c0-3.822,2.496-7.098,6.5-7.098
		c4.238,0,6.838,3.822,6.344,7.853H362.67z M369.587,204.707c-0.104-1.872-1.378-3.562-3.38-3.562c-2.054,0-3.458,1.56-3.536,3.562
		H369.587z"/>
	<path fill="#FFFFFF" d="M374.813,199.169h2.782v2.6h0.052c0.338-1.43,2.106-2.964,3.926-2.964c0.676,0,0.858,0.052,1.118,0.078
		v2.86c-0.416-0.052-0.858-0.13-1.274-0.13c-2.028,0-3.64,1.638-3.64,4.603v6.396h-2.964V199.169z"/>
</g>
</svg>
