<?xml version="1.0" encoding="utf-8"?>
<!-- Generator: Adobe Illustrator 16.0.0, SVG Export Plug-In . SVG Version: 6.00 Build 0)  -->
<!DOCTYPE svg PUBLIC "-//W3C//DTD SVG 1.1//EN" "http://www.w3.org/Graphics/SVG/1.1/DTD/svg11.dtd">
<svg version="1.1" id="Layer_1" xmlns="http://www.w3.org/2000/svg" xmlns:xlink="http://www.w3.org/1999/xlink" x="0px" y="0px"
	 width="768px" height="1024px" viewBox="0 0 768 1024" enable-background="new 0 0 768 1024" xml:space="preserve">
<g>
	<path fill="#58B5E1" d="M124.562,274.656l5.148,0.025c0.25-0.775,0.601-1.6,0.7-2.375l-8.473-0.025l-0.025-1.825h8.673
		c0.101-0.65,0.15-1.649,0.175-2.299h-6.198l0.025-1.8h15.521l0.025,4.099h3.524l0.024,1.825l-3.549-0.025v4.274l-9.048-0.025
		c-0.375,0.825-0.925,1.6-1.375,2.175h10.873v8.923h-1.899v-1.625h-8.998v1.7h-1.899l0.024-6.998
		c-1.225,1.049-2.924,2.224-4.749,3.024l-0.55,0.175c-0.499-0.55-0.749-1-1.35-1.625c3.024-1.274,5.824-3.149,7.698-5.749h-4.324
		L124.562,274.656z M129.686,284.154h8.998v-3.649l-8.998-0.025V284.154z M132.385,272.282c-0.15,0.825-0.375,1.725-0.575,2.399
		l6.299-0.025v-2.374H132.385z M132.71,268.183l-0.125,2.274h5.523v-2.299L132.71,268.183z"/>
	<path fill="#58B5E1" d="M156.036,285.578c0.675,0,1-0.55,1-1.174v-7.323h-9.573v-1.85h9.573l0.024-2.5
		c2-1.275,4.024-3.099,5.148-4.424h-11.672v-1.85l14.396,0.025v1.4c-1.624,2.199-3.874,4.349-5.998,5.773v1.575h9.098v1.85h-9.098
		l-0.025,8.323c0,0.8-0.625,1.475-1.149,1.725c-0.675,0.425-3.399,0.25-3.975,0.25l-1.424-1.8H156.036z"/>
	<path fill="#58B5E1" d="M192.733,277.78c-3.6-0.775-6.999-1.75-9.948-3.499c-2.849,1.899-7.272,3.174-11.122,3.774l-0.774-1.8
		c2.999-0.5,5.623-1.174,8.198-2.124c0.675-0.325,1.475-0.725,1.974-1c-1.074-0.825-2.499-1.675-3.374-2.875
		c-1.1,1.3-2.699,2.649-4.573,3.399l-1.425-1.725c3.849-1.425,5.698-3.649,6.873-6.723l1.649,0.925
		c-0.274,0.625-0.524,1.075-0.6,1.225h9.373v1.674c-1.475,1.825-2.975,3-4.524,4.124c0.325,0.25,1.1,0.5,1.8,0.85
		c2.35,0.875,4.824,1.549,7.698,2.099L192.733,277.78z M188.808,285.828c-0.249,0.775-0.899,1.45-1.624,1.65
		c-1.1,0.325-2.225-0.025-3.374-0.2l-0.476-2.174c1.325,0.375,2.274,0.75,3.3,0.6c0.574-0.375,0.625-1.075,0.75-1.799
		c0.225-1.35,0.5-3.074,0.55-3.874h-5.399c-0.399,2.149-2.074,4.199-4.099,5.523c-1.5,1-4.199,1.8-5.823,2.1
		c-0.351-0.625-0.675-1.125-1-1.875c3.174-0.5,6.123-1.25,8.023-3.749c0.524-0.675,0.8-1.425,0.949-2h-7.148v-1.825h7.448
		c0.075-0.6,0-1.05,0.075-2.174l1.85,0.25c-0.025,0.95,0.05,1.375-0.025,1.924h7.099
		C189.833,280.979,189.534,283.529,188.808,285.828z M178.986,269.182c1,1.2,2.35,2,3.749,2.899c1.35-0.875,2.699-1.899,3.649-2.899
		H178.986z"/>
	<path fill="#58B5E1" d="M196.038,281.529c4.149-2.649,7.124-6.423,8.423-10.498h-6.948v-1.899l9.023,0.025v-3.899h1.949
		l-0.025,3.899l8.923-0.025v1.899h-6.673c1.1,4.399,4.599,8.173,8.173,10.272l-1.35,1.6c-6.448-4.874-7.323-7.548-9.022-12.172
		l-0.051,8.873h4.824v1.875l-4.799-0.025l-0.025,6.149h-1.899l-0.024-6.149l-4.949,0.025v-1.875l4.949,0.025v-8.898
		c-1.725,5.449-4.649,9.198-8.948,12.297L196.038,281.529z"/>
	<path fill="#58B5E1" d="M231.56,280.405l-0.725-0.925c1.175-0.525,1.5-1.475,1.5-2.475h-1.35v-2.75h2.749v2.625
		C233.735,277.73,233.435,279.53,231.56,280.405z"/>
	<path fill="#58B5E1" d="M267.808,285.628h-20.421v-1.85h9.873c2.499-3.324,4.024-7.398,4.599-11.947l1.899,0.8
		c-0.625,4.199-2.124,8.098-4.273,11.147h8.323V285.628L267.808,285.628z M257.56,269.557c-0.975-1.425-2.3-2.749-4.074-3.349
		l1.6-1.3c1.7,0.65,3.125,2.1,4.225,3.674l-1.325,0.95l8.623,0.025v1.85h-18.096v-1.825L257.56,269.557z M254.486,282.829
		c-0.325-3.349-1.6-7.723-3.949-10.198l1.75-0.85c2.374,2.549,3.874,6.973,4.099,10.472L254.486,282.829z"/>
	<path fill="#58B5E1" d="M279.136,285.229l0.024-11.097l-3.224-0.025v13.522h-2v-15.396h6.724c0.625-1.1,0.899-2.424,1.05-3.649
		h-9.473v-1.875l20.845,0.025v1.85h-9.348c-0.175,1.274-0.375,2.5-0.899,3.649h8.572l0.025,12.922
		c-0.075,0.8-0.675,1.625-1.45,1.825c-0.85,0.2-1.824,0.125-2.799,0.1l-0.625-1.85c1.024-0.025,1.725,0.1,2.449-0.025
		c0.25-0.075,0.476-0.3,0.476-0.625l0.024-10.447l-3.349-0.025v11.072h-1.925l-0.025-11.072h-3.074v11.147L279.136,285.229z"/>
	<path fill="#58B5E1" d="M300.012,275.031h-3.35v-1.725h5.272v9.073c1.325,1.425,3.176,2.325,5.351,2.399
		c2.023,0.075,4.124,0.225,6.198,0.1l5.322-0.3l-0.75,2.049h-10.172c-4.574,0-5.647-1.274-6.897-2.599
		c-1.226,0.899-2.426,2.049-3.774,3.224l-1.425-1.5c1.55-1.125,2.949-2.3,4.225-3.349V275.031L300.012,275.031z M300.262,271.007
		c-0.675-1.475-1.875-3.274-3.3-4.474l1.4-1.024c1.499,1.2,2.799,3.024,3.522,4.424L300.262,271.007z M315.558,265.533
		c-0.449,0.825-0.699,1.275-1.1,1.875h3.774v1.8h-6.324c-0.226,0.75-0.449,1.375-0.726,2.049h5.374v12.172H304.36v-12.172h4.624
		c0.375-0.675,0.625-1.325,0.85-2.024h-7.123v-1.825h3.624c-0.275-0.3-0.875-0.925-1.725-1.5l1.648-1.05
		c1,0.9,1.875,1.674,2.351,2.549h3.648c0.625-0.75,1.175-1.625,1.574-2.649L315.558,265.533z M314.558,274.556v-1.475h-8.248v1.475
		H314.558z M306.31,276.38v1.675h8.273v-1.675H306.31z M314.583,281.629v-1.75h-8.273v1.75H314.583z"/>
	<path fill="#58B5E1" d="M327.986,267.633c-0.024,1.25-0.351,2.25-0.524,3.024h4.199l-0.025-5.323h1.949v5.323h8.174v1.85
		l-8.147-0.025v4.674h6.974v1.825l-6.974-0.025l-0.025,5.349h9.773v1.85h-20.62v-1.85h8.923l-0.025-5.324h-6.447v-1.825h6.447
		l0.025-4.649h-4.874c-0.6,1.7-1.975,3.375-3.374,4.874l-1.899-1.025c2.274-2.149,4.175-4.499,4.573-9.298L327.986,267.633z"/>
	<path fill="#58B5E1" d="M357.835,279.53c-1.101,0.075-2.1-0.35-2.8-1.15c-0.7-0.8-0.899-2.049-0.575-3.074
		c0.375-1.2,1.525-2.125,2.75-2.199c1.149-0.075,2.199,0.35,2.874,1.3c0.6,0.825,0.825,1.875,0.475,2.899
		C360.16,278.455,359.06,279.43,357.835,279.53z M357.885,274.731c-0.575-0.15-1.175,0.025-1.55,0.45
		c-0.35,0.375-0.525,0.925-0.425,1.45c0.1,0.475,0.45,0.95,0.898,1.15c0.625,0.275,1.351,0.125,1.825-0.35
		c0.449-0.45,0.574-1.175,0.351-1.75C358.785,275.206,358.36,274.856,357.885,274.731z"/>
</g>
</svg>
