<?xml version="1.0" encoding="utf-8"?>
<!-- Generator: Adobe Illustrator 16.0.0, SVG Export Plug-In . SVG Version: 6.00 Build 0)  -->
<!DOCTYPE svg PUBLIC "-//W3C//DTD SVG 1.1//EN" "http://www.w3.org/Graphics/SVG/1.1/DTD/svg11.dtd">
<svg version="1.1" id="Layer_1" xmlns="http://www.w3.org/2000/svg" xmlns:xlink="http://www.w3.org/1999/xlink" x="0px" y="0px"
	 width="768px" height="1024px" viewBox="0 0 768 1024" enable-background="new 0 0 768 1024" xml:space="preserve">
<g>
	<path fill="#FFFFFF" d="M128.546,320.982v5.389h-4.232v1.156h-1.343v-5.932c-0.153,0.136-0.544,0.527-1.021,0.884l-1.139-0.765
		c2.04-1.598,3.654-3.553,4.487-5.796l1.088,0.459c-0.067,0.391-0.204,0.697-0.271,0.833c1.207,0.714,2.651,1.649,3.604,3.111
		l-0.935,0.884c-0.544-0.884-1.989-2.108-3.196-2.856c-0.51,0.799-1.155,1.785-2.006,2.635h4.964V320.982z M124.977,313.351
		c-0.442,1.75-1.343,3.008-2.448,4.385l-1.139-0.731c1.173-1.309,2.022-2.601,2.431-4.232L124.977,313.351z M124.314,325.113
		l2.89-0.017v-2.839h-2.907L124.314,325.113z M128.241,317.107c-0.442-1.36-1.7-2.822-2.771-3.569l0.97-0.85
		c1.155,0.782,2.516,2.396,2.906,3.586L128.241,317.107z M135.499,327.748c-1.547-0.986-2.839-3.23-3.161-4.726
		c-0.527,1.87-1.53,3.586-3.502,4.811l-0.969-1.037c1.563-0.68,2.617-2.227,3.076-3.723c0.459-1.563,0.477-3.247,0.477-5.133
		l1.343,0.119c0,0.816-0.018,1.445-0.052,2.125c0.562,2.482,1.411,4.98,3.774,6.612L135.499,327.748z M135.549,315.407
		c-0.136,1.36-0.374,2.618-1.07,3.756l-1.207-0.442c0.459-0.782,0.73-1.496,0.833-2.057l-2.855,0.017
		c-0.323,0.816-0.782,1.785-1.53,2.635l-1.207-0.595c1.53-1.802,2.074-3.875,2.244-6.221l1.224,0.204
		c-0.085,1.054-0.204,1.972-0.408,2.703H135.549L135.549,315.407z"/>
	<path fill="#FFFFFF" d="M151.36,324.943c-0.136,1.02-0.255,1.989-1.377,2.448c-0.629,0.272-1.377,0.085-2.091,0.017
		c-0.136-0.425-0.221-0.765-0.408-1.309c0.799,0.085,1.36,0.272,1.904,0.17c0.441-0.153,0.391-0.714,0.561-1.173
		c0.408-2.363,0.663-5.372,0.765-7.377h-2.124c0.017,3.978-0.596,7.887-4.862,10.029l-0.985-1.088
		c1.088-0.527,1.903-1.19,2.261-1.615c-0.221-0.493-0.493-0.85-0.765-1.173c-1.411,0.391-3.502,0.986-5.202,1.598l-0.884-1.292
		c0.918-0.748,2.396-3.586,2.855-5.167h-3.06v-1.241h7.411v1.241h-2.923c-0.851,2.057-1.7,3.808-2.431,4.726l3.501-0.952
		c-0.102-0.153-0.408-0.442-0.85-0.833l0.935-0.663c0.782,0.663,1.938,1.887,2.346,2.788c0.357-0.306,1.343-2.481,1.343-5.014
		v-1.343h-1.784v-1.173h1.784v-3.943c0.459,0.017,0.799-0.034,1.292-0.017v3.96h3.519
		C151.938,319.47,151.649,322.835,151.36,324.943z M138.611,315.526v-1.173h6.052v1.173H138.611z"/>
	<path fill="#FFFFFF" d="M168.989,327.595c-2.924-1.275-5.405-3.536-6.086-7.53c-0.646,2.991-3.229,6.204-6.476,7.462l-1.207-1.071
		c3.11-1.275,5.626-3.451,6.272-6.646h-5.439v-1.292l5.694,0.017c0.204-1.173,0.204-2.481,0.238-3.739h-4.811v-1.292l10.946,0.017
		l0.018,1.292l-4.76-0.017c-0.068,1.224-0.018,2.635-0.153,3.739l6.018-0.017l-0.017,1.292h-5.049
		c0.663,3.162,2.431,5.134,5.66,6.697L168.989,327.595z"/>
	<path fill="#FFFFFF" d="M178.084,327.323v-12.868h-5.712v-1.258h14.143v1.258h-7.104v12.868H178.084z M184.339,322.938
		c-1.309-1.819-3.025-2.873-4.198-3.536l0.578-0.969c1.071,0.408,1.955,1.002,2.788,1.683c0.629,0.51,1.206,1.139,1.784,1.819
		L184.339,322.938z"/>
	<path fill="#FFFFFF" d="M199.81,315.628c0.493-0.544,1.377-1.581,1.836-2.159l1.122,0.714c-1.021,1.309-2.108,2.567-3.23,3.519
		h4.267l-0.017,1.241h-5.933c-0.815,0.561-1.802,1.122-2.261,1.326l6.001,0.034v7.513l-1.31-0.017v-0.986h-5.762l0.017,1.003h-1.309
		v-6.255l-3.332,1.411l-0.833-1.122c1.921-0.646,5.27-2.159,6.392-2.873l-5.474-0.034v-1.241h5.32l-0.017-1.836h-3.672v-1.241h3.654
		v-2.108h1.344l0.017,2.091h3.179L199.81,315.628L199.81,315.628z M200.251,321.543l-5.728-0.017v1.36l5.745,0.017L200.251,321.543z
		 M194.524,324.127v1.445h5.779v-1.445H194.524z M196.648,315.849v1.853h0.833c0.918-0.714,1.275-1.071,2.074-1.853H196.648z"/>
	<path fill="#FFFFFF" d="M212.867,322.971l-0.493-0.629c0.799-0.357,1.02-1.003,1.02-1.683h-0.918v-1.87h1.87v1.785
		C214.345,321.153,214.141,322.376,212.867,322.971z"/>
	<path fill="#FFFFFF" d="M230.223,312.62h1.275v5.864h4.912v9.264h-1.224v-0.969h-11.083v-1.156h11.083v-2.516h-10.131v-1.173
		h10.113v-2.295h-10.946v-1.156h6L230.223,312.62L230.223,312.62z M225.345,313.554c1.495,1.122,2.771,2.397,3.773,3.621
		l-1.156,0.867c-0.952-1.36-2.277-2.703-3.535-3.621L225.345,313.554z M236.938,314.2c-0.936,1.496-1.972,2.72-3.213,3.808
		l-1.122-0.918c1.326-1.02,2.363-2.227,3.247-3.569L236.938,314.2z"/>
	<path fill="#FFFFFF" d="M253.36,324.943c-0.136,1.02-0.255,1.989-1.377,2.448c-0.629,0.272-1.377,0.085-2.091,0.017
		c-0.136-0.425-0.221-0.765-0.408-1.309c0.799,0.085,1.36,0.272,1.904,0.17c0.441-0.153,0.391-0.714,0.561-1.173
		c0.408-2.363,0.663-5.372,0.765-7.377h-2.124c0.017,3.978-0.596,7.887-4.862,10.029l-0.985-1.088
		c1.088-0.527,1.903-1.19,2.261-1.615c-0.221-0.493-0.493-0.85-0.765-1.173c-1.411,0.391-3.502,0.986-5.202,1.598l-0.884-1.292
		c0.918-0.748,2.396-3.586,2.855-5.167h-3.06v-1.241h7.411v1.241h-2.923c-0.851,2.057-1.7,3.808-2.431,4.726l3.501-0.952
		c-0.102-0.153-0.408-0.442-0.85-0.833l0.935-0.663c0.782,0.663,1.938,1.887,2.346,2.788c0.357-0.306,1.343-2.481,1.343-5.014
		v-1.343h-1.784v-1.173h1.784v-3.943c0.459,0.017,0.799-0.034,1.292-0.017v3.96h3.519
		C253.938,319.47,253.649,322.835,253.36,324.943z M240.611,315.526v-1.173h6.052v1.173H240.611z"/>
	<path fill="#FFFFFF" d="M270.989,327.595c-2.924-1.275-5.405-3.536-6.086-7.53c-0.646,2.991-3.229,6.204-6.476,7.462l-1.207-1.071
		c3.11-1.275,5.626-3.451,6.272-6.646h-5.439v-1.292l5.694,0.017c0.204-1.173,0.204-2.481,0.238-3.739h-4.811v-1.292l10.946,0.017
		l0.018,1.292l-4.76-0.017c-0.068,1.224-0.018,2.635-0.153,3.739l6.018-0.017l-0.017,1.292h-5.049
		c0.663,3.162,2.431,5.134,5.66,6.697L270.989,327.595z"/>
	<path fill="#FFFFFF" d="M280.084,327.323v-12.868h-5.712v-1.258h14.143v1.258h-7.104v12.868H280.084z M286.339,322.938
		c-1.309-1.819-3.025-2.873-4.198-3.536l0.578-0.969c1.071,0.408,1.955,1.002,2.788,1.683c0.629,0.51,1.206,1.139,1.784,1.819
		L286.339,322.938z"/>
	<path fill="#FFFFFF" d="M304.411,317.107c-1.563,3.553-5.983,6.562-8.448,7.649c0.731,0.578,1.904,0.765,3.146,0.748l7.104-0.068
		l-0.663,1.292l-6.9,0.017c-1.31,0-3.265-0.561-4.183-1.53c-0.425,0.765-1.07,1.666-1.92,2.55l-1.071-0.884
		c1.479-1.241,2.192-2.72,2.55-4.572l1.224,0.34c-0.051,0.561-0.119,0.85-0.271,1.19c1.359-0.714,3.909-2.295,4.521-2.856
		c1.309-1.156,2.465-2.431,3.264-3.706l-10.08-0.017v-1.275h6.068c-0.595-1.156-1.411-2.125-2.686-2.72
		c0.476-0.323,0.815-0.527,1.173-0.765c1.173,0.578,2.125,1.717,2.753,2.855l-0.969,0.595l5.389,0.034L304.411,317.107
		L304.411,317.107z"/>
	<path fill="#FFFFFF" d="M307.71,323.702c1.104-1.853,2.039-3.621,2.447-5.779l1.189,0.493c-0.407,2.176-1.14,3.756-2.465,5.915
		L307.71,323.702z M313.694,316.699l0.017,8.295c0.051,0.187,0.34,0.51,0.629,0.561h2.651c0.271-0.034,0.526-0.17,0.646-0.442
		c0.289-0.918,0.511-1.853,0.697-2.975l1.325,0.476c-0.322,1.207-0.51,2.312-1.021,3.315c-0.306,0.612-0.935,0.935-1.598,0.935
		l-2.72-0.017c-0.884,0-1.955-0.476-1.955-1.717v-8.415L313.694,316.699z M316.533,317.991c-1.003-1.563-2.414-3.094-4.08-4.096
		c0.493-0.289,0.748-0.561,1.173-0.782c1.581,1.071,3.025,2.55,4.046,4.182L316.533,317.991z M322.057,324.042
		c-0.851-2.04-1.869-3.893-3.484-5.576c0.459-0.238,0.73-0.425,1.156-0.595c1.613,1.632,2.616,3.536,3.568,5.542L322.057,324.042z"
		/>
	<path fill="#FFFFFF" d="M331.578,317.532v-1.835h1.836v1.835H331.578z M331.968,326.949l-0.391-0.595
		c0.799-0.357,0.884-1.003,0.899-1.717h-0.899v-1.836h1.836v1.836C333.414,325.215,333.362,326.354,331.968,326.949z"/>
	<path fill="#FFFFFF" d="M355.36,324.943c-0.137,1.02-0.255,1.989-1.377,2.448c-0.63,0.272-1.378,0.085-2.092,0.017
		c-0.136-0.425-0.221-0.765-0.407-1.309c0.799,0.085,1.359,0.272,1.903,0.17c0.441-0.153,0.392-0.714,0.562-1.173
		c0.408-2.363,0.663-5.372,0.765-7.377h-2.124c0.018,3.978-0.596,7.887-4.862,10.029l-0.984-1.088
		c1.088-0.527,1.903-1.19,2.261-1.615c-0.221-0.493-0.493-0.85-0.765-1.173c-1.411,0.391-3.502,0.986-5.202,1.598l-0.884-1.292
		c0.918-0.748,2.396-3.586,2.854-5.167h-3.06v-1.241h7.411v1.241h-2.924c-0.851,2.057-1.699,3.808-2.431,4.726l3.501-0.952
		c-0.102-0.153-0.408-0.442-0.85-0.833l0.935-0.663c0.782,0.663,1.938,1.887,2.347,2.788c0.356-0.306,1.343-2.481,1.343-5.014
		v-1.343h-1.784v-1.173h1.784v-3.943c0.459,0.017,0.799-0.034,1.292-0.017v3.96h3.519
		C355.938,319.47,355.649,322.835,355.36,324.943z M342.611,315.526v-1.173h6.052v1.173H342.611z"/>
	<path fill="#FFFFFF" d="M365.578,325.011c-1.684,1.445-3.672,2.227-5.712,2.822c-0.255-0.391-0.441-0.731-0.781-1.173
		c2.107-0.527,4.045-1.207,5.541-2.55L365.578,325.011z M359.917,315.9v-1.258h2.362v-2.04l1.343-0.017l-0.034,2.04l5.797,0.017
		v-2.074l1.325,0.017l-0.017,2.057h2.38l0.017,1.258h-2.413l-0.018,6.816l2.924,0.017l0.018,1.241h-14.177v-1.258h2.855V315.9
		H359.917z M363.606,315.9l0.017,1.377l5.729-0.017l-0.033-1.376L363.606,315.9z M369.351,319.946l-0.033-1.445l-5.711,0.017
		l0.017,1.428H369.351z M363.623,322.716h5.729l-0.033-1.547h-5.694L363.623,322.716L363.623,322.716z M368.247,324.195
		c2.091,0.391,3.909,1.275,5.677,2.516l-0.899,1.02c-1.429-1.173-3.485-2.108-5.542-2.465L368.247,324.195z"/>
	<path fill="#FFFFFF" d="M375.71,323.702c1.104-1.853,2.039-3.621,2.447-5.779l1.189,0.493c-0.407,2.176-1.14,3.756-2.465,5.915
		L375.71,323.702z M381.694,316.699l0.017,8.295c0.051,0.187,0.34,0.51,0.629,0.561h2.651c0.272-0.034,0.526-0.17,0.646-0.442
		c0.289-0.918,0.511-1.853,0.697-2.975l1.326,0.476c-0.322,1.207-0.51,2.312-1.021,3.315c-0.307,0.612-0.936,0.935-1.598,0.935
		l-2.72-0.017c-0.885,0-1.955-0.476-1.955-1.717v-8.415L381.694,316.699z M384.533,317.991c-1.003-1.563-2.414-3.094-4.08-4.096
		c0.493-0.289,0.748-0.561,1.173-0.782c1.581,1.071,3.025,2.55,4.046,4.182L384.533,317.991z M390.057,324.042
		c-0.85-2.04-1.868-3.893-3.483-5.576c0.459-0.238,0.729-0.425,1.155-0.595c1.613,1.632,2.617,3.536,3.568,5.542L390.057,324.042z"
		/>
	<path fill="#FFFFFF" d="M403.811,315.628c0.492-0.544,1.378-1.581,1.837-2.159l1.12,0.714c-1.02,1.309-2.106,2.567-3.229,3.519
		h4.268l-0.018,1.241h-5.932c-0.816,0.561-1.804,1.122-2.263,1.326l6.002,0.034v7.513l-1.311-0.017v-0.986h-5.762l0.018,1.003
		h-1.309v-6.255l-3.332,1.411l-0.834-1.122c1.922-0.646,5.27-2.159,6.393-2.873l-5.475-0.034v-1.241h5.319l-0.016-1.836h-3.672
		v-1.241h3.653v-2.108h1.345l0.016,2.091h3.18L403.811,315.628L403.811,315.628z M404.252,321.543l-5.729-0.017v1.36l5.745,0.017
		L404.252,321.543z M398.523,324.127v1.445h5.778v-1.445H398.523z M400.648,315.849v1.853h0.832
		c0.918-0.714,1.274-1.071,2.073-1.853H400.648z"/>
	<path fill="#FFFFFF" d="M416.867,322.971l-0.494-0.629c0.799-0.357,1.02-1.003,1.02-1.683h-0.918v-1.87h1.871v1.785
		C418.346,321.153,418.141,322.376,416.867,322.971z"/>
	<path fill="#FFFFFF" d="M434.223,312.62h1.275v5.864h4.912v9.264h-1.224v-0.969h-11.084v-1.156h11.084v-2.516h-10.131v-1.173
		h10.113v-2.295h-10.947v-1.156h6L434.223,312.62L434.223,312.62z M429.346,313.554c1.494,1.122,2.771,2.397,3.773,3.621
		l-1.156,0.867c-0.953-1.36-2.277-2.703-3.535-3.621L429.346,313.554z M440.938,314.2c-0.936,1.496-1.971,2.72-3.213,3.808
		l-1.121-0.918c1.326-1.02,2.363-2.227,3.246-3.569L440.938,314.2z"/>
	<path fill="#FFFFFF" d="M450.441,325.198c-1.685,1.292-3.451,2.125-5.439,2.583l-0.816-1.139c2.074-0.391,3.929-1.224,5.406-2.329
		L450.441,325.198z M456.203,313.384v9.587h2.397v1.241h-13.786l-0.017-1.241h2.277v-9.587H456.203z M454.844,319.3l-6.426-0.034
		l0.018,1.207h6.408V319.3z M454.844,321.73h-6.426v1.241h6.426V321.73z M448.453,314.608v1.105h6.356v-1.105H448.453z
		 M448.453,316.937v1.139h6.391v-1.139H448.453z M458.313,327.816c-1.479-1.139-3.35-2.023-5.491-2.312l0.852-1.105
		c1.154,0.17,2.142,0.544,3.094,0.969c0.765,0.34,1.461,0.765,2.277,1.326L458.313,327.816z"/>
	<path fill="#FFFFFF" d="M462.291,318.093v-1.309h5.303c0.138-1.224,0.154-2.686,0.119-4.284c0.527,0.119,0.867,0.119,1.377,0.204
		c0.035,1.496,0.019,2.873-0.084,4.08h6.084l0.019,1.309h-4.998c0.682,3.604,1.989,6.137,5.764,8.346l-0.918,1.02
		c-3.705-2.244-5.406-4.708-6.086-9.366c-0.918,4.675-2.687,7.19-6.441,9.281l-0.969-1.173c3.688-1.734,5.439-4.878,6.016-8.108
		H462.291z"/>
	<path fill="#FFFFFF" d="M477.711,323.736c2.82-1.802,4.844-4.369,5.729-7.139h-4.728v-1.292l6.137,0.017v-2.652h1.326l-0.018,2.652
		l6.067-0.017v1.292h-4.539c0.748,2.992,3.13,5.558,5.56,6.986l-0.918,1.088c-4.385-3.315-4.98-5.134-6.137-8.278l-0.033,6.034
		h3.281v1.275l-3.265-0.017l-0.018,4.181h-1.291l-0.019-4.181l-3.364,0.017v-1.275l3.364,0.017v-6.051
		c-1.174,3.706-3.162,6.255-6.086,8.363L477.711,323.736z"/>
	<path fill="#FFFFFF" d="M496.291,318.093v-1.309h5.303c0.138-1.224,0.154-2.686,0.119-4.284c0.527,0.119,0.867,0.119,1.377,0.204
		c0.035,1.496,0.019,2.873-0.084,4.08h6.084l0.019,1.309h-4.998c0.682,3.604,1.989,6.137,5.764,8.346l-0.918,1.02
		c-3.705-2.244-5.406-4.708-6.086-9.366c-0.918,4.675-2.687,7.19-6.441,9.281l-0.969-1.173c3.688-1.734,5.439-4.878,6.016-8.108
		H496.291z"/>
	<path fill="#FFFFFF" d="M514.227,319.589c-0.545-0.952-1.344-1.785-2.396-2.244l0.9-0.867c1.002,0.476,1.801,1.309,2.446,2.261
		L514.227,319.589z M515.568,320.949c-0.476,2.601-1.189,4.624-2.584,6.476l-1.154-0.714c1.461-1.683,2.293-4.3,2.479-6.272
		L515.568,320.949z M513.563,313.146c1.123,0.476,1.955,1.547,2.414,2.244l-1.002,0.816c-0.459-1.02-1.325-1.734-2.33-2.227
		L513.563,313.146z M525.717,315.798v6h-2.873v4.59c0,0.884-0.373,1.496-1.172,1.496h-1.633l-0.441-1.275l1.31,0.068
		c0.391,0.017,0.596-0.187,0.596-0.51v-4.369h-2.959v-6h2.603c0.202-0.374,0.356-0.816,0.424-1.173h-3.994v7.037
		c0,2.278-0.629,4.334-1.92,6.255l-1.242-0.731c1.258-1.853,1.871-3.858,1.871-6.068v-7.734l10.352-0.017l0.019,1.258h-3.826
		c-0.084,0.323-0.221,0.815-0.34,1.173H525.717z M516.98,325.606c1.291-0.918,2.241-2.057,2.668-3.467l1.155,0.578
		c-0.526,1.326-1.647,2.788-2.754,3.74L516.98,325.606z M524.441,317.039h-4.623l0.018,0.969h4.605V317.039z M524.441,319.249
		h-4.605v1.309h4.605V319.249z M524.662,322.139c1.207,1.037,1.785,2.278,2.381,3.621l-1.156,0.697
		c-0.237-0.952-1.121-2.788-2.396-3.757L524.662,322.139z"/>
	<path fill="#FFFFFF" d="M536.732,322.376c-0.746,0.051-1.429-0.238-1.902-0.782c-0.477-0.544-0.613-1.394-0.391-2.091
		c0.254-0.816,1.034-1.445,1.868-1.496c0.781-0.051,1.496,0.238,1.955,0.884c0.408,0.561,0.562,1.275,0.322,1.972
		C538.314,321.646,537.566,322.309,536.732,322.376z M536.768,319.113c-0.391-0.102-0.799,0.017-1.055,0.306
		c-0.238,0.255-0.354,0.629-0.289,0.986c0.068,0.323,0.308,0.646,0.613,0.782c0.424,0.187,0.918,0.085,1.24-0.238
		c0.307-0.306,0.391-0.799,0.237-1.19C537.379,319.436,537.09,319.198,536.768,319.113z"/>
</g>
</svg>
