<?xml version="1.0" encoding="utf-8"?>
<!-- Generator: Adobe Illustrator 16.0.0, SVG Export Plug-In . SVG Version: 6.00 Build 0)  -->
<!DOCTYPE svg PUBLIC "-//W3C//DTD SVG 1.1//EN" "http://www.w3.org/Graphics/SVG/1.1/DTD/svg11.dtd">
<svg version="1.1" id="Layer_1" xmlns="http://www.w3.org/2000/svg" xmlns:xlink="http://www.w3.org/1999/xlink" x="0px" y="0px"
	 width="768px" height="1024px" viewBox="0 0 768 1024" enable-background="new 0 0 768 1024" xml:space="preserve">
<g>
	<path fill="#FFFFFF" d="M120.506,347.128c0.085-0.697,0.17-0.986,0.408-1.462c0.458-0.918,1.24-1.802,2.464-2.805l0.562-0.459
		c2.243-1.836,3.094-2.992,3.094-4.147c0-1.224-0.969-2.108-2.295-2.108c-1.462,0-2.363,0.918-2.38,2.448l-1.529-0.17
		c0.203-2.278,1.598-3.519,3.943-3.519c2.261,0,3.808,1.377,3.808,3.383c0,1.445-0.851,2.736-2.992,4.538l-1.224,1.037
		c-1.003,0.85-1.411,1.292-1.751,1.836h5.983v1.428H120.506L120.506,347.128z"/>
	<path fill="#FFFFFF" d="M134.631,347.333c-1.581,0-2.788-0.833-3.4-2.363c-0.391-0.985-0.561-2.192-0.561-3.875
		c0-4.097,1.326-6.188,3.961-6.188c2.634,0,3.96,2.091,3.96,6.221S137.265,347.333,134.631,347.333z M136.62,337.66
		c-0.34-0.935-1.104-1.513-2.006-1.513c-1.666,0-2.414,1.564-2.414,4.963c0,1.513,0.153,2.669,0.442,3.468
		c0.34,0.952,1.104,1.53,1.989,1.53c0.884,0,1.648-0.578,1.988-1.53c0.289-0.782,0.442-1.955,0.442-3.451
		C137.062,339.632,136.925,338.493,136.62,337.66z"/>
	<path fill="#FFFFFF" d="M144.71,347.128v-9.519c-0.493,0.476-0.97,0.799-1.854,1.275c-0.544,0.289-0.696,0.357-1.139,0.527v-1.445
		c1.615-0.748,2.958-1.938,3.519-3.06h0.969v12.222H144.71z"/>
	<path fill="#FFFFFF" d="M154.636,347.333c-1.547,0-2.924-0.833-3.569-2.176c-0.459-0.952-0.646-2.091-0.646-3.723
		c0-4.267,1.496-6.527,4.352-6.527c1.938,0,3.213,1.122,3.468,3.025l-1.496,0.136c-0.17-1.258-0.85-1.921-1.972-1.921
		c-1.104,0-1.938,0.595-2.362,1.666c-0.307,0.782-0.51,1.904-0.51,2.805v0.238c0.271-0.425,0.407-0.578,0.714-0.833
		c0.629-0.493,1.428-0.782,2.243-0.782c2.057,0,3.587,1.683,3.587,3.927C158.444,345.598,156.863,347.333,154.636,347.333z
		 M154.551,340.55c-1.394,0-2.414,1.122-2.414,2.618c0,1.666,1.071,2.941,2.465,2.941c1.343,0,2.312-1.19,2.312-2.839
		C156.914,341.655,155.962,340.55,154.551,340.55z"/>
	<path fill="#FFFFFF" d="M165.344,333.36c-0.068,0.595-0.238,1.037-0.323,1.326h9.52v1.241l-5.185,0.034l0.017,2.176h4.335v1.258
		h-4.335v2.754h5.865v1.258l-5.865-0.017v4.896h-1.343v-4.879h-6.629v-1.275l2.107,0.017v-4.012l4.521-0.017v-2.176h-3.501
		c-0.544,1.105-1.19,2.329-2.346,3.4l-1.071-0.867c1.547-1.376,2.516-3.229,3.145-5.643L165.344,333.36z M164.818,339.394v2.754
		h3.195l0.017-2.754H164.818z"/>
	<path fill="#FFFFFF" d="M184.96,343.372l-0.493-0.629c0.799-0.357,1.02-1.003,1.02-1.683h-0.918v-1.87h1.87v1.785
		C186.439,341.553,186.235,342.777,184.96,343.372z"/>
	<path fill="#FFFFFF" d="M195.261,344.137c2.821-1.802,4.844-4.369,5.729-7.14h-4.726v-1.292l6.136,0.017v-2.652h1.326l-0.017,2.652
		l6.068-0.017v1.292h-4.539c0.748,2.992,3.128,5.558,5.559,6.986l-0.918,1.088c-4.386-3.315-4.98-5.134-6.137-8.278l-0.033,6.034
		h3.28v1.275l-3.264-0.018l-0.017,4.182h-1.292l-0.018-4.182l-3.365,0.018v-1.275l3.365,0.017v-6.051
		c-1.173,3.706-3.161,6.255-6.085,8.363L195.261,344.137z"/>
	<path fill="#FFFFFF" d="M212.887,341.995c2.142-1.224,3.842-3.128,5.235-5.117l1.037,0.697c-0.477,0.867-1.445,2.006-2.074,2.771
		v7.836h-1.309v-6.493c-0.289,0.272-1.241,0.901-1.887,1.36L212.887,341.995z M213.108,337.32c1.785-1.241,3.162-2.771,4.301-4.556
		l1.003,0.782c-1.139,1.717-2.55,3.519-4.165,4.657L213.108,337.32z M220.893,346.789c0.867,0.067,1.615,0.067,2.346,0.051
		c0.188-0.051,0.374-0.17,0.374-0.408v-6.969h-4.352v-1.258l8.754,0.017v1.241l-3.025,0.017l-0.017,7.105
		c0,0.595-0.307,1.037-0.731,1.292c-0.459,0.255-2.073,0.238-2.94,0.204L220.893,346.789z M226.978,335.349h-7.309l-0.018-1.258
		l7.326-0.017L226.978,335.349L226.978,335.349z"/>
	<path fill="#FFFFFF" d="M231.058,344.698c0.696-0.391,1.24-0.629,1.666-0.901v-9.74l1.377,0.017v8.958
		c1.189-0.612,2.532-1.445,4.096-2.346v1.496c-1.428,0.816-2.805,1.598-4.147,2.413c-0.544,0.323-1.104,0.697-1.751,1.071
		L231.058,344.698z M234.967,346.805c2.142-1.088,4.046-2.771,5.202-4.759c0.629-1.36,1.088-2.703,1.189-4.267
		c0.085-1.19,0.119-2.601,0.153-4.284h1.394c-0.136,3.315,0.068,6.17-1.377,8.975c1.003,0.595,3.195,2.635,4.012,4.199l-1.105,0.918
		c-1.07-1.853-2.362-3.077-3.586-3.96c-1.122,1.53-2.839,3.093-5.065,4.385L234.967,346.805z M238.639,339.071
		c-0.986-1.275-2.159-2.074-3.587-2.686l0.901-0.935c0.73,0.238,1.343,0.663,1.903,1.003c0.544,0.34,1.173,1.003,1.7,1.496
		L238.639,339.071z"/>
	<path fill="#FFFFFF" d="M250.283,339.462h-2.277v-1.173h3.586v6.562c0.766,0.9,2.176,1.41,3.688,1.495
		c1.377,0.085,2.806,0.153,4.216,0.068l3.757-0.204l-0.51,1.394h-7.207c-1.785,0-3.196-0.391-4.624-1.683
		c-0.748,0.595-1.563,1.309-2.481,2.108l-0.969-1.021c1.054-0.765,1.954-1.394,2.821-2.107V339.462L250.283,339.462z
		 M250.503,336.98c-0.459-1.003-1.274-2.227-2.243-3.042l0.951-0.697c1.021,0.816,1.904,2.057,2.397,3.009L250.503,336.98z
		 M253.87,344.783c1.224-0.289,3.009-1.428,3.723-2.125c-0.748-0.782-1.769-2.618-1.989-4.3h-0.765
		c0.017,2.958-0.612,5.457-1.717,7.02l-1.156-0.544c0.969-1.632,1.564-3.314,1.564-6.272v-3.909
		c2.617-0.136,5.592-0.493,7.717-1.292l0.85,1.122c-2.38,0.748-4.776,1.02-7.258,1.139v1.496h6.493
		c-0.068,2.176-0.765,4.063-1.988,5.525c0.9,0.884,2.107,1.581,3.501,2.158l-0.969,1.021c-1.326-0.629-2.346-1.275-3.417-2.295
		c-1.104,0.952-2.039,1.648-3.909,2.346L253.87,344.783z M256.81,338.357c0.289,1.173,0.697,2.329,1.648,3.451
		c0.833-0.986,1.207-2.21,1.547-3.451H256.81z"/>
	<path fill="#FFFFFF" d="M265.088,344.137c2.821-1.802,4.844-4.369,5.729-7.14h-4.726v-1.292l6.136,0.017v-2.652h1.326l-0.017,2.652
		l6.068-0.017v1.292h-4.539c0.748,2.992,3.128,5.558,5.559,6.986l-0.918,1.088c-4.386-3.315-4.98-5.134-6.137-8.278l-0.033,6.034
		h3.28v1.275l-3.264-0.018l-0.017,4.182h-1.292l-0.018-4.182l-3.365,0.018v-1.275l3.365,0.017v-6.051
		c-1.173,3.706-3.161,6.255-6.085,8.363L265.088,344.137z"/>
	<path fill="#FFFFFF" d="M282.307,347.315c2.006-1.24,3.723-2.872,4.437-4.929c0.187-0.527,0.357-1.309,0.357-2.091v-7.309h1.258
		c0.051,2.992,0.033,5.218,0,7.292c-0.052,4.13-3.094,6.833-5.065,7.904L282.307,347.315z M283.854,344.239v-9.757h1.207v9.757
		H283.854z M295.26,339.666v-4.402h-6.46v-1.224h7.7v13.734h-1.24v-1.139h-8.041v-1.24l8.041,0.017v-4.539h-6.12v-1.207H295.26z"/>
	<path fill="#FFFFFF" d="M302.518,339.989c-0.544-0.952-1.343-1.785-2.396-2.244l0.901-0.867c1.003,0.476,1.802,1.309,2.447,2.261
		L302.518,339.989z M303.861,341.349c-0.478,2.601-1.19,4.623-2.584,6.477l-1.156-0.714c1.462-1.684,2.295-4.301,2.481-6.273
		L303.861,341.349z M301.855,333.547c1.121,0.476,1.954,1.547,2.413,2.244l-1.003,0.816c-0.459-1.02-1.325-1.734-2.328-2.227
		L301.855,333.547z M314.008,336.199v6h-2.872v4.59c0,0.884-0.374,1.496-1.173,1.496h-1.632l-0.442-1.275l1.31,0.068
		c0.392,0.017,0.596-0.188,0.596-0.51v-4.369h-2.958v-6h2.602c0.203-0.374,0.356-0.816,0.425-1.173h-3.994v7.037
		c0,2.277-0.629,4.335-1.921,6.255l-1.241-0.73c1.258-1.853,1.87-3.858,1.87-6.068v-7.734l10.352-0.017l0.019,1.258h-3.825
		c-0.085,0.323-0.221,0.815-0.34,1.173L314.008,336.199L314.008,336.199z M305.272,346.006c1.29-0.918,2.242-2.057,2.668-3.467
		l1.155,0.578c-0.526,1.326-1.647,2.788-2.754,3.739L305.272,346.006z M312.734,337.439h-4.624l0.018,0.969h4.606V337.439z
		 M312.734,339.649h-4.606v1.309h4.606V339.649z M312.955,342.539c1.207,1.037,1.785,2.278,2.38,3.621l-1.156,0.696
		c-0.236-0.951-1.121-2.787-2.396-3.756L312.955,342.539z"/>
	<path fill="#FFFFFF" d="M325.823,342.352c-0.393-0.646-1.311-1.734-2.074-2.397l0.952-0.952c0.884,0.663,1.768,1.496,2.328,2.176
		L325.823,342.352z"/>
	<path fill="#FFFFFF" d="M339.914,337.694c-0.527,1.003-0.969,1.683-1.581,2.499v8.074h-1.24v-6.714
		c-0.119,0.17-0.629,0.578-1.122,1.002l-1.07-0.799c1.921-1.547,2.873-2.583,4.012-4.844L339.914,337.694z M339.794,333.53
		c-0.781,1.717-1.887,3.349-3.383,4.606l-1.104-0.731c1.615-1.309,2.602-2.805,3.417-4.487L339.794,333.53z M341.359,340.788
		c0,2.839,0.187,5.167-1.311,7.479l-1.121-0.833c0.951-1.513,1.121-3.009,1.121-4.827v-8.414c3.196,0.017,6.223-0.204,8.907-1.343
		l0.884,1.037c-1.784,0.884-3.654,1.19-5.523,1.36c-1.036,0.102-2.007,0.187-2.957,0.17V340.788L341.359,340.788z M345.268,339.36
		v-1.377h-3.638v-1.207h3.638v-1.309h1.292v1.309h3.654v1.207h-3.654v1.377h2.703v8.873h-1.31v-1.02h-4.13v1.054h-1.326v-8.907
		H345.268L345.268,339.36z M343.806,343.678h4.165v-0.901h-4.165V343.678z M343.824,340.601v0.935h4.146v-0.935H343.824z
		 M343.824,345.99h4.146v-1.054h-4.146V345.99z"/>
	<path fill="#FFFFFF" d="M353.393,346.041c-0.355-0.323-0.68-0.578-1.121-1.02c1.054-0.307,1.836-0.629,2.566-0.901v-3.927h-1.734
		l0.019-1.207l1.683,0.017l0.018-3.366l-2.04,0.017v-1.241l5.27,0.017v1.207h-1.887l-0.017,3.366l1.666-0.017v1.207h-1.666v3.434
		c0.492-0.187,1.224-0.527,2.057-0.833v1.275L353.393,346.041z M366.72,333.972l-0.034,7.395h-3.45v1.632h3.349v1.224h-3.383v1.954
		h4.539v1.207h-10.318v-1.207h4.471l0.019-1.954h-3.4v-1.224h3.384l0.018-1.632h-3.521v-7.412L366.72,333.972z M361.892,336.998
		l0.019-1.802l-2.229-0.017v1.819H361.892z M359.682,338.204v1.955h2.21l0.019-1.972L359.682,338.204z M363.218,338.221v1.921
		l2.192,0.017v-1.921L363.218,338.221z M363.252,337.015h2.176l0.033-1.819l-2.227-0.017L363.252,337.015z"/>
	<path fill="#FFFFFF" d="M376.103,342.998c-1.189,0.714-3.264,1.87-4.827,2.737l-1.104-0.918c1.988-1.037,3.894-2.091,5.933-3.23
		L376.103,342.998L376.103,342.998z M384.21,346.279c-2.396-1.003-4.691-2.771-5.813-4.59l-0.033,5.116
		c0,0.493-0.393,1.173-0.886,1.326c-0.714,0.102-1.835,0.102-2.634,0.102l-0.459-1.377c0.9,0.034,1.359,0.086,2.039-0.017
		c0.272-0.034,0.544-0.306,0.544-0.526l0.019-9.078h-6.171l-0.018-1.292l6.204,0.017v-3.025l1.36,0.017v2.992l5.966-0.017v1.309
		h-5.983l0.019,2.125c1.563,3.042,3.875,4.759,6.714,5.95L384.21,346.279z M375.252,341.264c-1.24-1.122-2.447-2.023-3.994-2.465
		l0.936-0.969c1.258,0.374,3.313,1.835,3.876,2.533L375.252,341.264z M382.563,335.893c-0.748-0.68-2.244-1.496-3.451-1.734
		l0.918-0.952c1.292,0.255,2.313,0.917,3.383,1.768L382.563,335.893z M379.452,340.414c1.41-0.68,2.686-1.462,3.671-2.737
		l0.901,0.833c-1.037,1.36-2.278,2.176-3.758,2.958L379.452,340.414z"/>
	<path fill="#FFFFFF" d="M389.99,339.717h-2.277v-1.173h3.586v6.17c0.9,0.969,2.158,1.581,3.637,1.632
		c1.377,0.052,2.808,0.153,4.218,0.068l3.621-0.204l-0.511,1.394h-6.92c-3.108,0-3.842-0.866-4.69-1.768
		c-0.832,0.612-1.648,1.394-2.566,2.193l-0.969-1.021c1.055-0.765,2.006-1.563,2.873-2.277L389.99,339.717L389.99,339.717z
		 M390.16,336.98c-0.459-1.003-1.275-2.227-2.244-3.042l0.951-0.697c1.021,0.816,1.904,2.057,2.397,3.009L390.16,336.98z
		 M400.563,333.258c-0.305,0.561-0.475,0.867-0.747,1.275h2.565v1.224h-4.299c-0.154,0.51-0.307,0.935-0.494,1.394h3.654v8.278
		h-8.295v-8.278h3.145c0.256-0.459,0.426-0.901,0.578-1.377h-4.844v-1.241h2.465c-0.188-0.204-0.596-0.629-1.174-1.02l1.123-0.714
		c0.68,0.612,1.272,1.139,1.598,1.734h2.48c0.426-0.51,0.799-1.105,1.071-1.802L400.563,333.258z M399.883,339.394v-1.003h-5.608
		v1.003H399.883z M394.273,340.635v1.139h5.627v-1.139H394.273z M399.9,344.205v-1.19h-5.627v1.19H399.9z"/>
	<path fill="#FFFFFF" d="M415.182,333.19c-0.153,0.884-0.477,1.7-0.729,2.566h4.588c-0.084,3.621,0.053,7.497-1.07,10.845
		c-0.188,0.562-0.629,1.292-1.309,1.411c-0.748,0.136-2.158-0.289-3.025-0.526l-0.221-1.429c0.951,0.357,1.732,0.596,2.566,0.714
		c0.288,0.034,0.477-0.067,0.646-0.306c0.289-0.68,0.459-1.462,0.562-2.006c0.44-2.396,0.51-5.405,0.561-7.513h-3.621
		c-0.424,1.173-1.053,2.329-1.971,3.553l-0.885-0.561v7.581h-1.343v-1.104h-2.821v1.377h-1.345v-11.763h1.564
		c0.44-0.782,0.781-1.75,1.037-3.008l1.223,0.493c-0.305,1.122-0.576,1.955-0.916,2.516h2.601v3.4
		c1.377-1.921,2.125-4.114,2.551-6.544L415.182,333.19z M407.09,337.235v3.298h2.805v-3.298H407.09z M409.93,345.173v-3.399h-2.821
		v3.399H409.93z M415.504,344.035c-0.543-1.479-1.342-2.771-2.311-3.995l1.053-0.697c1.24,1.445,1.922,2.601,2.481,4.147
		L415.504,344.035z"/>
	<path fill="#FFFFFF" d="M434.898,342.284c-1.121,1.19-2.312,2.396-3.109,3.213c0.713,0.425,1.461,0.969,2.311,1.768l-0.832,1.021
		c-0.51-0.408-0.866-0.748-1.258-1.055c-1.615-1.274-3.451-2.005-5.559-2.72l0.832-1.002c1.19,0.425,2.33,0.833,3.299,1.326
		c0.662-0.68,1.785-1.853,2.361-2.448h-6.681v-1.156c0.545-0.663,0.886-1.224,1.175-1.955h-4.691v-1.224h5.201
		c0.17-0.527,0.373-1.156,0.475-1.649h-4.725v-1.224h4.93c0.102-0.561,0.188-1.258,0.254-2.125l1.258,0.34
		c-0.016,0.748-0.116,1.343-0.203,1.785h5.593v1.224h-5.813c-0.102,0.476-0.238,1.139-0.391,1.666h7.836v1.207h-8.346
		c-0.289,0.629-0.613,1.428-0.918,1.87h7.002V342.284L434.898,342.284z"/>
	<path fill="#FFFFFF" d="M440.1,347.333v-1.241h4.964v-12.544h1.325v12.544h1.974v-12.544h1.272v12.544h4.931v1.241H440.1z
		 M442.768,344.358c-0.084-2.312-0.866-4.675-1.717-6.596l1.105-0.527c0.867,1.904,1.666,4.284,1.903,6.562L442.768,344.358z
		 M451.387,344.562l-1.088-0.663c1.172-1.547,1.988-4.59,2.107-6.629l1.172,0.425C453.238,340.363,452.508,342.828,451.387,344.562z
		"/>
	<path fill="#FFFFFF" d="M469.813,342.284c-1.122,1.19-2.313,2.396-3.11,3.213c0.715,0.425,1.463,0.969,2.313,1.768l-0.834,1.021
		c-0.51-0.408-0.866-0.748-1.258-1.055c-1.615-1.274-3.449-2.005-5.559-2.72l0.834-1.002c1.188,0.425,2.328,0.833,3.297,1.326
		c0.664-0.68,1.785-1.853,2.363-2.448h-6.681v-1.156c0.543-0.663,0.883-1.224,1.172-1.955h-4.69v-1.224h5.201
		c0.17-0.527,0.375-1.156,0.477-1.649h-4.727v-1.224h4.93c0.104-0.561,0.188-1.258,0.256-2.125l1.258,0.34
		c-0.018,0.748-0.119,1.343-0.203,1.785h5.593v1.224h-5.814c-0.102,0.476-0.236,1.139-0.391,1.666h7.836v1.207h-8.347
		c-0.288,0.629-0.61,1.428-0.918,1.87h7.005v1.138H469.813z"/>
	<path fill="#FFFFFF" d="M478.039,340.057c-0.832-0.986-1.854-1.836-3.146-2.261l0.867-1.054c1.258,0.561,2.347,1.343,3.179,2.448
		L478.039,340.057z M474.895,347.213c1.734-1.818,2.755-3.808,3.332-6.153l1.24,0.578c-0.408,1.648-1.377,4.386-3.297,6.272
		L474.895,347.213z M478.924,336.556c-0.852-1.037-1.77-1.751-3.01-2.227l0.9-1.071c1.19,0.612,1.819,1.139,3.026,2.346
		L478.924,336.556z M479.109,347.23l0.018-1.258h4.59l0.019-3.705h-3.486v-1.241l3.469,0.017l0.019-3.229h-4.183v-1.258h9.756v1.258
		h-4.301v3.212h3.621v1.241h-3.621v3.705h4.828v1.258H479.109z M484.057,336.454c-0.662-1.156-1.784-2.21-2.668-2.652l0.935-0.867
		c1.174,0.612,2.074,1.547,2.789,2.703L484.057,336.454z"/>
	<path fill="#FFFFFF" d="M492.113,347.23c1.479-1.291,2.039-3.008,2.158-4.725c0.137-1.802,0.153-4.521,0.137-7.021h6.205
		c-0.222-0.51-0.886-1.139-1.666-1.683l0.899-0.85c0.886,0.476,1.666,1.241,2.177,2.074l-0.441,0.458h5.473v1.19h-11.371
		c-0.034,1.955,0,4.896-0.221,6.579c-0.273,2.142-1.004,3.348-2.346,4.878L492.113,347.23z M507.105,347.434h-12.019l0.019-1.207
		h7.174c1.258-2.057,2.242-5.303,2.516-8.159l1.223,0.425c-0.305,3.4-1.358,6.29-2.295,7.734h3.384L507.105,347.434L507.105,347.434
		z M498.539,345.513c-0.664-3.229-1.496-4.232-2.652-5.881l1.156-0.544c1.377,1.734,2.295,3.586,2.736,5.694L498.539,345.513z
		 M499.984,337.66c1.172,1.53,2.057,3.706,2.311,5.661l-1.258,0.612c-0.238-1.955-1.002-3.96-2.125-5.711L499.984,337.66z"/>
	<path fill="#FFFFFF" d="M516.404,335.026c-0.052,2.499-0.629,4.725-1.429,6.714c0.851,1.275,1.683,2.855,2.244,4.42l-1.274,0.561
		c-0.392-1.325-1.004-2.838-1.582-3.671c-0.562,1.411-1.869,3.552-4.183,5.099l-0.983-0.985c1.768-1.105,3.518-3.094,4.401-5.304
		c-0.68-1.003-1.989-2.465-3.145-3.383l0.951-0.748c1.139,1.003,2.276,2.091,2.721,2.771c0.459-1.258,0.9-2.805,0.984-4.3h-5.371
		v-1.173L516.404,335.026L516.404,335.026z M519.684,348.148l-0.424-1.292c0.767,0.034,1.359,0.137,1.955,0.103
		c0.103,0,0.17-0.085,0.238-0.188l-0.019-9.264h-4.709V336.3h4.691v-3.264h1.309v3.264h1.615v1.19h-1.631v9.537
		c-0.086,0.425-0.393,0.799-0.766,0.985l-0.392,0.136H519.684L519.684,348.148z M517.934,339.292
		c0.816,0.748,2.007,2.329,2.652,3.978l-1.207,0.73c-0.527-1.461-1.326-2.89-2.381-4.045L517.934,339.292z"/>
	<path fill="#FFFFFF" d="M537.838,335.196h0.783v1.733h-1.598v-1.359c0-0.833,0-2.006,1.358-2.618l0.373,0.578
		C537.889,333.887,537.855,334.72,537.838,335.196z M540.422,335.196h0.783v1.733h-1.6v-1.359c0-0.833,0-2.006,1.36-2.618
		l0.373,0.578C540.473,333.887,540.439,334.72,540.422,335.196z"/>
	<path fill="#FFFFFF" d="M544.756,347.333c1.207-1.105,2.363-2.771,2.346-5.678l-0.016-3.264c-0.221,0.204-0.563,0.527-1.242,0.986
		l-0.969-0.918c2.041-1.462,3.502-3.383,4.453-5.542l1.141,0.459c-0.17,0.493-0.393,0.833-0.459,1.003h6.222l-0.019,1.104
		c-0.271,0.697-0.697,1.241-1.002,1.632h3.961v1.275h-10.693c-0.051,1.037,0.052,2.21,0,3.332c-0.151,2.94-0.407,4.147-2.6,6.544
		L544.756,347.333z M549.328,335.638c-0.355,0.561-0.781,1.139-1.07,1.479h5.305c0.492-0.493,0.97-1.054,1.189-1.496
		L549.328,335.638z M559.477,344.103c-0.135,0.985-0.373,1.903-0.78,2.702c-0.427,0.612-1.121,0.766-1.818,0.766h-4.998
		c-1.174-0.119-1.699-0.867-1.699-1.769v-6.085l6.884,0.017c-0.084,1.376-0.187,2.72-0.476,3.96
		c-0.137,0.578-0.51,1.071-1.037,1.189c-0.85,0.17-1.666-0.102-2.5-0.255l-0.235-1.343c0.813,0.187,1.377,0.408,2.039,0.459
		c0.188,0.017,0.391-0.034,0.44-0.238c0.256-0.867,0.392-1.734,0.478-2.533h-4.216l-0.018,4.471c0,0.561,0.44,0.884,0.951,0.884
		h4.571c0.308,0,0.527-0.306,0.646-0.544c0.205-0.459,0.494-1.717,0.578-2.125L559.477,344.103z"/>
	<path fill="#FFFFFF" d="M563.438,337.015l-0.372-0.578c0.864-0.357,0.899-1.19,0.916-1.666H563.2v-1.734h1.598v1.36
		C564.797,335.229,564.797,336.402,563.438,337.015z M566.021,337.015l-0.375-0.578c0.866-0.357,0.901-1.19,0.918-1.666h-0.781
		v-1.734h1.598v1.36C567.381,335.229,567.381,336.402,566.021,337.015z"/>
	<path fill="#FFFFFF" d="M590.209,335.196h0.783v1.733h-1.599v-1.359c0-0.833,0-2.006,1.359-2.618l0.373,0.578
		C590.26,333.887,590.227,334.72,590.209,335.196z M592.793,335.196h0.783v1.733h-1.6v-1.359c0-0.833,0-2.006,1.36-2.618
		l0.373,0.578C592.844,333.887,592.811,334.72,592.793,335.196z"/>
	<path fill="#FFFFFF" d="M602.602,342.641c-0.271-1.071-0.782-1.904-1.139-2.38l-0.035,7.955h-1.358v-7.105
		c-0.289,0.646-0.986,1.87-2.074,2.975l-1.002-0.867c1.58-1.581,2.584-3.825,2.957-5.677h-2.465l0.018-1.258h2.549v-3.213h1.377
		v3.213h2.33v1.258h-2.33v1.666l0.511-0.323c0.901,0.901,1.514,1.87,1.887,2.992L602.602,342.641z M601.938,347.417
		c1.531-1.394,2.568-2.89,2.568-4.811v-8.771h5.285l-0.018,12.324c0,0.17,0.067,0.204,0.288,0.204h0.546
		c0.526,0,0.68-1.581,0.85-2.618l1.188,0.799c-0.17,0.816-0.354,1.547-0.594,2.244c-0.153,0.459-0.596,0.833-1.174,0.833h-1.156
		c-0.51,0-1.272-0.238-1.272-1.054v-11.491h-2.619l0.018,7.7c0,2.006-1.037,3.994-2.754,5.593L601.938,347.417z"/>
	<path fill="#FFFFFF" d="M615.809,337.015l-0.373-0.578c0.865-0.357,0.9-1.19,0.916-1.666h-0.78v-1.734h1.598v1.36
		C617.168,335.229,617.168,336.402,615.809,337.015z M618.393,337.015l-0.375-0.578c0.867-0.357,0.902-1.19,0.918-1.666h-0.78
		v-1.734h1.598v1.36C619.752,335.229,619.752,336.402,618.393,337.015z"/>
	<path fill="#FFFFFF" d="M638.365,343.967c-1.515,1.734-3.297,3.281-5.371,4.351l-0.732-1.088c1.547-0.696,3.945-2.702,4.998-4.113
		L638.365,343.967z M642.92,333.037v3.264h2.465v1.292l-2.465-0.034v3.943l3.502,0.017l-0.033,1.258h-13.854v-1.309l3.467,0.017
		l-0.033-3.926l-2.447,0.034v-1.275l2.498,0.017v-3.298h1.326v3.264l4.232,0.034v-3.298H642.92z M641.578,337.592l-4.269,0.017
		l0.019,3.875h4.25V337.592z M645.725,348.216c-1.239-1.615-3.229-3.094-5.047-4.147l0.918-0.952
		c1.888,1.139,3.688,2.431,5.115,4.301L645.725,348.216z"/>
</g>
</svg>
