<?xml version="1.0" encoding="utf-8"?>
<!-- Generator: Adobe Illustrator 16.0.0, SVG Export Plug-In . SVG Version: 6.00 Build 0)  -->
<!DOCTYPE svg PUBLIC "-//W3C//DTD SVG 1.1//EN" "http://www.w3.org/Graphics/SVG/1.1/DTD/svg11.dtd">
<svg version="1.1" id="Layer_1" xmlns="http://www.w3.org/2000/svg" xmlns:xlink="http://www.w3.org/1999/xlink" x="0px" y="0px"
	 width="768px" height="1024px" viewBox="0 0 768 1024" enable-background="new 0 0 768 1024" xml:space="preserve">
<g>
	<path fill="#FFFFFF" d="M125.436,355.085c-0.018,0.85-0.238,1.529-0.357,2.057h2.855l-0.017-3.621h1.326v3.621h5.558v1.258
		l-5.541-0.018v3.179h4.742v1.241l-4.742-0.017l-0.017,3.638h6.646v1.258h-14.023v-1.258h6.068l-0.017-3.621h-4.386v-1.241h4.386
		l0.017-3.161h-3.314c-0.408,1.155-1.343,2.295-2.295,3.314l-1.292-0.697c1.547-1.462,2.839-3.06,3.111-6.323L125.436,355.085z"/>
	<path fill="#FFFFFF" d="M146.106,362.751c-0.392-0.646-1.31-1.734-2.074-2.396l0.952-0.952c0.884,0.663,1.768,1.496,2.328,2.176
		L146.106,362.751z"/>
	<path fill="#FFFFFF" d="M169.92,365.505c-0.119,0.833-0.272,1.699-1.055,2.158l-0.492,0.153h-3.791
		c-0.884,0-1.326-0.493-1.462-1.071v-2.668l-1.598,0.017c-0.17,1.444-1.189,2.924-2.736,3.569c-0.986,0.425-2.074,0.714-3.264,0.851
		l-0.782-1.344c2.532-0.221,3.043-0.34,4.437-1.274c0.697-0.459,0.985-1.189,1.104-1.818h-2.617v-4.114h9.281v4.114h-2.533v2.243
		c0.017,0.136,0.153,0.238,0.289,0.289h3.553c0.323-0.119,0.271-0.51,0.356-0.884c0.034-0.188,0.052-0.408,0.085-0.799
		L169.92,365.505z M160.248,358.315c-0.391-0.68-0.969-1.241-1.614-1.581l0.544-0.493h-3.195v-1.189h5.677
		c-0.391-0.408-0.799-0.816-1.274-1.088l1.122-0.68c0.544,0.459,1.139,1.02,1.428,1.75h5.592v1.241h-3.434l0.595,0.357
		c-0.306,0.611-0.662,1.24-1.036,1.699h4.861v1.156H155.03v-1.173L160.248,358.315L160.248,358.315z M165.636,362.905v-1.684h-6.714
		v1.684H165.636z M163.291,358.349c0.459-0.714,1.003-1.599,1.173-2.058h-4.487c0.578,0.307,0.969,0.697,1.445,1.547l-0.612,0.477
		L163.291,358.349z"/>
	<path fill="#FFFFFF" d="M180.8,353.674c-0.188,0.187-0.374,0.374-0.527,0.527c1.988,2.516,5.559,4.98,7.088,5.456
		c-0.289,0.476-0.577,0.765-0.85,1.139c-0.629-0.255-1.189-0.476-3.45-2.125c-1.14-0.85-2.533-2.532-3.451-3.62
		c-1.581,1.887-3.246,3.468-6.901,5.949l-0.918-1.02c3.791-2.448,6.731-5.542,7.752-7.156L180.8,353.674z M183.197,368.582
		l-0.018-1.054h-7.189v1.139h-1.36v-6.323h9.944v6.238H183.197L183.197,368.582z M183.808,360.542h-8.532v-1.309h8.516
		L183.808,360.542z M176.006,366.236h7.173l0.018-2.617h-7.19L176.006,366.236L176.006,366.236z"/>
	<path fill="#FFFFFF" d="M191.882,368.055l-0.833-1.122c0.256-0.153,0.527-0.392,0.527-0.833v-6.731h-2.21v-1.207h3.468v7.564
		l2.227-1.394v1.428L191.882,368.055z M192.375,356.734c-0.493-1.02-1.411-2.074-2.176-2.635l0.935-0.714
		c0.952,0.646,1.769,1.547,2.329,2.533L192.375,356.734z M200.722,355.034v-1.614h1.258v1.614h1.513v1.207h-1.513v5.031h-2.448
		v1.105h4.675v1.189h-3.604c0.696,1.615,1.972,2.448,3.739,3.315l-0.9,0.935c-1.734-0.884-3.604-2.669-3.876-3.943l-0.034,4.793
		h-1.224v-4.827c-0.476,1.921-2.022,3.331-3.604,4.182l-0.986-0.952c1.751-0.815,3.009-2.074,3.536-3.502h-3.57v-1.189h4.59v-1.105
		h-2.532v-5.031h-1.53v-1.207h1.53v-1.58H197v1.58L200.722,355.034L200.722,355.034z M200.722,357.516v-1.275H197v1.275H200.722z
		 M200.722,358.671H197v1.395h3.723L200.722,358.671L200.722,358.671z"/>
	<path fill="#FFFFFF" d="M220.287,368.497c-3.399-0.459-4.93-1.359-6.646-2.243c-1.988,1.155-4.368,1.887-7.088,2.277
		c-0.221-0.408-0.425-0.714-0.731-1.173c2.635-0.255,5.304-1.104,6.664-1.887c-0.782-0.493-1.836-1.717-2.482-2.686h-1.24v-1.241
		h8.635v1.224c-0.73,0.918-1.802,2.091-2.669,2.703c1.598,0.918,3.842,1.547,6.323,1.853L220.287,368.497z M215.629,356.768v4.521
		h-1.241l0.034-4.521H212.4v4.521h-1.207v-4.521h-5.031v-1.173h7.003c-0.272-0.459-0.85-0.952-1.615-1.428l0.782-0.799
		c0.73,0.407,1.615,1.104,2.176,1.853l-0.459,0.323l6.562,0.051v1.173H215.629L215.629,356.768z M207.232,362.054l-0.952-0.969
		c1.31-1.122,2.313-2.447,3.128-3.672l0.936,0.766C209.357,359.811,208.337,360.899,207.232,362.054z M211.583,362.786
		c0.408,0.662,1.292,1.444,2.057,1.972c0.782-0.595,1.666-1.36,2.091-1.972H211.583z M219.539,361.664
		c-0.663-1.343-1.683-2.414-2.924-3.399l0.918-0.714c1.037,0.832,2.431,2.005,3.145,3.382L219.539,361.664z"/>
	<path fill="#FFFFFF" d="M233.341,353.589c-0.153,0.884-0.476,1.7-0.73,2.566h4.589c-0.085,3.621,0.052,7.496-1.07,10.845
		c-0.188,0.562-0.629,1.292-1.31,1.411c-0.747,0.136-2.158-0.289-3.025-0.526l-0.221-1.429c0.952,0.357,1.733,0.596,2.566,0.714
		c0.289,0.034,0.477-0.067,0.646-0.306c0.289-0.68,0.459-1.462,0.561-2.006c0.442-2.396,0.51-5.405,0.561-7.513h-3.62
		c-0.425,1.173-1.054,2.328-1.972,3.553l-0.884-0.562v7.581h-1.343v-1.104h-2.822v1.377h-1.343v-11.763h1.563
		c0.442-0.782,0.782-1.751,1.037-3.009l1.224,0.493c-0.306,1.121-0.577,1.954-0.917,2.516h2.601v3.399
		c1.377-1.921,2.124-4.113,2.55-6.544L233.341,353.589z M225.25,357.635v3.297h2.805v-3.297H225.25z M228.089,365.573v-3.399h-2.822
		v3.399H228.089z M233.665,364.434c-0.544-1.479-1.343-2.771-2.312-3.994l1.054-0.697c1.24,1.444,1.921,2.601,2.481,4.147
		L233.665,364.434z"/>
	<path fill="#FFFFFF" d="M254.386,368.701c-1.598-0.085-3.383-0.425-4.657-0.867l-1.241-0.425c-2.142,0.833-4.556,1.173-7.088,1.275
		l-1.055-1.36c2.567,0.018,4.777-0.153,6.545-0.714c-0.562-0.356-1.445-0.9-2.125-1.581c-0.391,0.307-1.104,0.851-1.581,1.122
		l-1.173-0.952c1.122-0.561,3.06-1.733,3.484-2.89h-1.887v-4.301c-0.391,0.374-1.274,1.36-2.176,1.888l-1.173-0.918
		c0.527-0.222,0.952-0.527,1.258-0.782c1.445-1.189,2.482-2.821,3.094-4.691l1.071,0.646c-0.085,0.527-0.306,0.901-0.408,1.105
		h9.485l-0.017,1.24h-10.08c-0.17,0.222-0.256,0.442-0.442,0.697h8.602v5.116h-6.357l0.441,0.307l-0.425,0.595h6.357v1.173
		c-0.663,0.815-1.921,1.751-2.703,2.227c1.377,0.493,3.196,0.663,5.27,0.782L254.386,368.701z M244.918,358.434v0.662h6.578
		l0.017-0.68L244.918,358.434z M244.918,360.337v0.714h6.578l0.017-0.714H244.918z M246.091,364.451
		c0.204,0.204,1.359,1.088,2.465,1.496c1.173-0.595,2.091-1.224,2.346-1.496H246.091z"/>
	<path fill="#FFFFFF" d="M263.31,364.315c-1.632,1.581-3.399,2.618-5.439,3.229l-0.884-1.104c1.904-0.561,3.893-1.428,5.524-3.025
		L263.31,364.315z M265.316,361.884h6.477v1.241h-6.459v4.402c0,0.493-0.612,1.088-1.207,1.088h-1.53l-0.493-1.343l1.615,0.085
		c0.136,0,0.34-0.085,0.34-0.221v-4.012h-6.714v-1.241h6.73v-1.921h1.241V361.884L265.316,361.884z M270.381,359.318
		c0.238,0,0.374-0.527,0.392-1.513l1.24,0.459c-0.204,1.41-0.271,2.312-1.139,2.312h-2.958c-0.663,0-1.258-0.459-1.258-1.054v-3.043
		l-2.651,0.136c-0.238,1.377-0.527,2.584-1.87,3.569c-1.088,0.8-2.431,1.174-3.994,1.445l-0.697-1.241
		c1.989-0.271,4.097-0.73,4.93-2.55c0.187-0.391,0.289-0.832,0.356-1.139l-4.929,0.272l-0.085-1.241l5.014-0.271
		c0.018-0.341,0-1.19,0-1.938l1.31,0.272l-0.018,1.598l3.927-0.204v3.876c0,0.119,0.255,0.255,0.357,0.255H270.381L270.381,359.318z
		 M266.761,363.516c1.954,0.731,3.808,1.598,5.473,3.06l-0.765,1.139c-1.648-1.513-3.349-2.396-5.371-3.179L266.761,363.516z"/>
	<path fill="#FFFFFF" d="M274.308,367.749c2.192-1.666,2.821-4.063,2.703-6.51h-2.21l-0.018-1.258h2.228v-4.488h-1.769l0.018-1.258
		l8.313-0.017v1.274h-1.733v4.488l2.04-0.018v1.258h-2.023l-0.017,7.445h-1.309l0.017-7.445h-2.227
		c-0.085,2.55-0.188,5.202-2.958,7.445L274.308,367.749z M280.53,355.493h-2.21v4.471h2.21V355.493z M289.539,363.38
		c-1.377,2.362-3.621,4.113-5.949,5.27l-0.986-0.952c2.414-1.088,4.641-2.805,5.933-5.049L289.539,363.38z M282.91,357.583
		c2.005-1.003,3.705-2.227,4.896-4.13l0.985,0.73c-1.037,1.819-3.06,3.502-4.912,4.352L282.91,357.583z M282.91,362.224
		c2.022-0.935,3.96-2.261,5.116-4.198l0.985,0.73c-0.714,1.36-2.753,3.349-5.116,4.42L282.91,362.224z"/>
	<path fill="#FFFFFF" d="M293.176,361.987l-0.408-1.258l1.36,0.067c0.118,0,0.34-0.153,0.322-0.289v-1.377l-2.396,0.562l-0.73-1.19
		c1.121-0.187,2.328-0.441,3.145-0.646l-0.018-1.581h-2.516l0.018-1.241h2.498v-1.648h1.292l-0.017,1.632h1.666v1.258h-1.666
		l0.017,1.343l1.751-0.441v1.189l-1.768,0.459l0.017,1.887c0,0.612-0.356,1.275-1.088,1.275L293.176,361.987L293.176,361.987z
		 M301.574,367.17c0.459,0.018,0.935,0.272,1.24-0.017c0.237-0.306,0.356-0.68,0.441-1.411l0.204-1.818l-3.961-0.018
		c-0.493,1.684-1.648,2.891-3.213,3.57c-1.189,0.51-2.55,0.9-3.875,1.02l-0.562-1.274c2.363-0.153,4.402-0.714,5.831-2.533
		c0.17-0.221,0.373-0.493,0.492-0.765h-5.898v-1.241h6.137l0.102-0.952l1.258,0.222l-0.117,0.73h5.115
		c0,1.479-0.152,2.482-0.374,3.773c-0.152,0.867-0.526,2.125-1.988,1.973c-0.492-0.052-1.07-0.119-1.633-0.204l-0.425-1.36
		L301.574,367.17z M304.327,355.306c0.034,1.903-0.067,3.79,0.714,5.27c0.137-0.357,0.271-0.833,0.357-1.241l1.104,0.833
		c-0.255,0.646-0.51,1.224-0.951,1.7c-0.152,0.152-0.459,0.221-0.697,0.204c-0.544-0.119-0.815-0.629-1.02-1.037
		c-0.307-0.646-0.459-1.326-0.562-1.938c-0.119-0.73-0.171-1.768-0.171-2.549l-1.58,0.017c-0.052,0.782-0.152,1.717-0.492,2.414
		c0.44,0.34,0.899,0.748,1.428,1.24l-0.884,0.851c-0.478-0.442-0.833-0.851-1.156-1.055c-0.731,0.867-1.87,1.445-3.128,1.938
		l-0.782-1.054c1.055-0.323,2.193-0.748,2.839-1.632c-0.34-0.256-0.799-0.596-1.479-0.833l0.68-0.969
		c0.646,0.255,1.054,0.595,1.428,0.765c0.223-0.442,0.289-1.139,0.323-1.683h-2.346v-1.241h2.329v-1.955h1.239v1.955H304.327
		L304.327,355.306z"/>
	<path fill="#FFFFFF" d="M315.224,363.771l-0.492-0.629c0.799-0.356,1.02-1.003,1.02-1.683h-0.918v-1.87h1.87v1.785
		C316.703,361.953,316.499,363.176,315.224,363.771z"/>
	<path fill="#FFFFFF" d="M334.584,354.831c0.563-0.408,1.055-1.021,1.496-1.734l1.088,0.612c-0.355,0.578-0.748,0.969-0.918,1.088
		l3.706,0.034v1.224h-4.776v0.952h3.501v6.663h-2.106l0.017,0.748h3.554v1.224l-3.554,0.017c-0.066,0.562,0.104,1.292-0.102,1.989
		c-0.119,0.441-0.595,0.85-1.003,0.918c-0.392,0.051-1.14,0.067-1.836,0.034l-0.527-1.31c0.697,0.034,1.241,0.034,1.734,0.085
		c0.237,0.018,0.44-0.17,0.44-0.441v-1.275h-9.398v-1.24h9.417l-0.019-0.748h-7.802l-0.017-6.663l3.704,0.017v-0.969h-5.03v-1.224
		l4.267-0.018c-0.221-0.255-0.748-0.578-1.479-0.935l1.104-0.731c0.73,0.323,1.444,1.14,1.836,1.684L334.584,354.831
		L334.584,354.831z M332.324,368.021c-1.155-0.833-2.687-1.173-4.079-1.326l0.714-0.969c1.479,0.153,2.805,0.459,4.063,1.292
		L332.324,368.021z M335.18,358.553c0,0.237,0.067,0.441,0.356,0.441h1.547l-0.017,1.189l-1.377-0.017
		c-0.493,0-0.901-0.034-1.207-0.204c-0.563-0.306-0.545-1.02-0.545-1.717h-1.751c-0.17,1.122-1.443,1.836-2.516,2.278l-0.816-1.037
		c0.952-0.306,1.649-0.629,1.922-1.241h-2.007v4.25l8.603-0.018l0.017-4.232h-2.209V358.553L335.18,358.553z M329.519,361.698
		v-1.105l7.071-0.017v1.122H329.519z M333.939,357.023v-0.969h-1.548l0.018,0.969H333.939z"/>
	<path fill="#FFFFFF" d="M343.611,354.269c3.738,0.17,9.417-0.289,11.746-0.969l0.748,1.071c-1.888,0.459-3.689,0.646-5.354,0.85
		l-0.018,0.833h6.237v1.207h-6.237v0.85h4.675v5.66h-4.675v0.816h4.912v1.207l-4.879,0.017l0.034,0.952l6.714,0.017l0.019,1.207
		h-14.925l-0.018-1.207h6.867v-0.985h-5.117v-1.19h5.101l0.018-0.833h-4.691l0.018-5.66h4.675l-0.018-0.833h-6.289v-1.224h6.256
		v-0.714l-5.049,0.136L343.611,354.269z M346.076,362.582l3.365-0.018l0.018-1.054l-3.383,0.018V362.582z M349.458,360.337
		l-0.018-1.02h-3.35v1.02H349.458z M350.733,360.321h3.365v-0.986h-3.365V360.321z M350.733,361.528v1.054h3.383l0.017-1.071
		L350.733,361.528z"/>
	<path fill="#FFFFFF" d="M358.892,367.749c0.937-1.054,1.275-2.312,1.275-3.62l0.017-10.573h1.274l0.018,10.98
		c0,1.105-0.561,2.891-1.495,4.029L358.892,367.749z M362.428,366.202v-11.235h1.24v11.235H362.428z M364.706,367.188v-13.616h1.224
		v13.616H364.706z M366.236,366.95c1.732-0.646,2.872-1.513,3.194-4.249c0.137-0.646,0.137-2.21,0.085-3.689l1.241,0.018
		l-0.018,3.553c-0.018,2.107-1.14,4.113-3.11,5.235c-0.323,0.187-0.102,0.102-0.561,0.271L366.236,366.95z M372.27,364.961v-6.782
		h-4.097v6.765h-1.241v-8.006h2.074c0.255-0.476,0.391-1.173,0.477-1.648h-2.976v-1.225h7.633v1.241l-3.399,0.017
		c-0.067,0.544-0.204,1.207-0.392,1.615h3.146v8.023H372.27L372.27,364.961z M373.477,368.531c-0.851-1.377-1.887-2.159-3.179-2.992
		l0.799-0.884c1.274,0.714,2.228,1.514,3.35,2.89L373.477,368.531z"/>
	<path fill="#FFFFFF" d="M376.282,367.629c1.479-1.291,2.039-3.008,2.158-4.725c0.137-1.803,0.152-4.522,0.137-7.021h6.204
		c-0.222-0.51-0.884-1.14-1.666-1.683l0.9-0.851c0.885,0.477,1.666,1.241,2.176,2.074l-0.441,0.459h5.473v1.189h-11.372
		c-0.033,1.955,0,4.896-0.221,6.578c-0.271,2.143-1.003,3.349-2.346,4.879L376.282,367.629z M391.273,367.833h-12.018l0.018-1.207
		h7.174c1.258-2.057,2.242-5.303,2.516-8.159l1.223,0.426c-0.305,3.399-1.358,6.289-2.295,7.733h3.384L391.273,367.833
		L391.273,367.833z M382.707,365.913c-0.663-3.229-1.496-4.232-2.651-5.881l1.155-0.544c1.377,1.733,2.295,3.587,2.737,5.694
		L382.707,365.913z M384.152,358.06c1.172,1.529,2.057,3.705,2.311,5.66l-1.258,0.612c-0.238-1.955-1.002-3.961-2.125-5.712
		L384.152,358.06z"/>
	<path fill="#FFFFFF" d="M408.291,355.629v1.258h-14.518l-0.019-1.258h6.664c-0.373-0.527-0.986-1.105-1.717-1.462l0.951-0.884
		c0.936,0.441,1.614,1.224,2.227,2.107l-0.271,0.238L408.291,355.629L408.291,355.629z M401.645,360.61l0.017,8.074h-1.31v-8.074
		h-3.313l-0.019,6.323l-1.309,0.017v-7.598l4.641-0.018v-1.903l1.31-0.018v1.938h4.744l0.016,5.83c0,0.969-0.356,1.479-1.377,1.479
		h-1.529l-0.426-1.309l1.514,0.068c0.322,0.017,0.511-0.17,0.511-0.426l-0.019-4.385h-3.45V360.61z"/>
	<path fill="#FFFFFF" d="M412.574,353.793h1.258v4.182h2.125v1.224h-2.143v4.028l2.157-0.748v1.225l-5.166,1.869l-0.748-1.155
		c1.021-0.238,2.007-0.578,2.531-0.748v-4.487h-2.072v-1.19h2.058V353.793L412.574,353.793z M423.486,354.439v1.054
		c-1.615,1.395-3.179,2.72-4.761,3.808l6.086,0.034c-0.17,2.669-0.68,6.493-1.12,8.278c-0.324,0.663-1.089,0.952-1.752,0.884
		l-1.529-0.425l-0.221-1.377c0.85,0.255,1.409,0.51,2.057,0.562c0.102-0.018,0.221-0.119,0.271-0.256
		c0.322-0.765,0.886-4.742,1.004-6.527h-1.088c-0.748,3.502-3.01,6.392-5.438,8.126l-0.902-0.952
		c2.244-1.666,4.539-4.317,5.101-7.174h-1.378c-0.61,2.567-2.854,4.93-4.69,5.916l-0.851-0.952c1.769-0.986,3.757-2.89,4.269-4.946
		h-1.871v-1.173c1.514-1.003,3.553-2.635,4.76-3.672h-5.592v-1.189L423.486,354.439z"/>
	<path fill="#FFFFFF" d="M427.039,367.409c1.275-1.292,2.975-3.705,3.313-6.646h-2.956v-1.189h2.975c0.051-0.714,0-1.547,0-2.295
		h-2.5v-1.224h2.481v-2.567h1.294v2.55h2.106v1.225h-2.074c-0.018,1.036,0.019,1.614,0,2.328h2.244v1.173l-2.33,0.018
		c-0.321,3.671-2.209,6.221-3.619,7.581L427.039,367.409z M430.762,367.358c2.209-0.85,4.215-1.819,5.185-4.368
		c0.731-1.938,0.918-4.301,1.174-6.919l1.188,0.17c-0.102,1.989-0.271,3.314-0.561,4.98c-0.578,3.213-1.803,5.49-6.205,7.259
		L430.762,367.358z M433.346,365.709c-0.526-1.105-1.239-2.228-1.973-2.822l0.936-0.68c0.697,0.526,1.58,1.683,2.058,2.754
		L433.346,365.709z M441.012,354.133v9.536h-1.239v-8.363h-4.337v8.363h-1.239v-9.536H441.012z M437.561,362.309h1.259v4.199
		c0.034,0.051,0.067,0.067,0.137,0.102h1.836c0.322-0.153,0.459-0.935,0.51-1.258l0.051-0.391l1.089,0.441
		c-0.203,0.901-0.254,2.193-1.429,2.396h-1.973c-0.969,0-1.461-0.662-1.461-1.173L437.561,362.309z"/>
	<path fill="#FFFFFF" d="M449.393,358.501c-0.442,0.833-1.055,1.615-1.633,2.295v7.87h-1.274l-0.017-6.646
		c-0.237,0.188-0.68,0.629-1.258,1.055l-0.969-0.851c1.682-1.224,3.16-2.736,4.129-4.487l0.766,0.527l-0.018-0.952l4.08-0.018
		v-1.121h-3.314v-1.225h3.281v-1.479h1.359l0.018,1.496l3.637,0.017v2.295l1.666,0.017l-0.018,1.19l-1.666,0.017l0.018,2.448
		l-3.672-0.018v1.207l4.232-0.017v1.139h-4.215l-0.019,1.326l5.117,0.017v1.173l-5.117,0.018v2.805l-1.326,0.017l0.019-2.839h-4.59
		l-0.017-1.173l4.572-0.017l0.033-1.275l-3.773,0.018v-1.207h3.74v-1.19h-3.314v-1.206h3.314v-1.225L449.393,358.501
		L449.393,358.501z M449.408,353.98c-0.697,1.564-2.312,3.57-3.724,4.828l-0.95-0.816c1.514-1.309,2.719-2.855,3.569-4.572
		L449.408,353.98z M456.871,359.726l0.018-1.19l-2.396-0.017v1.207H456.871z M454.508,356.173l0.019,1.121l2.379-0.017l-0.017-1.122
		L454.508,356.173z"/>
	<path fill="#FFFFFF" d="M468.516,363.771l-0.491-0.629c0.799-0.356,1.02-1.003,1.02-1.683h-0.918v-1.87h1.869v1.785
		C469.994,361.953,469.791,363.176,468.516,363.771z"/>
	<path fill="#FFFFFF" d="M481.162,360.865c-0.73-1.054-1.92-1.972-2.822-2.278l0.834-0.9c1.172,0.391,2.107,1.24,2.906,2.192
		L481.162,360.865z M478.459,367.851c1.207-1.411,2.143-3.791,2.551-5.694l1.105,0.34c-0.394,2.277-1.515,4.726-2.398,5.915
		L478.459,367.851z M481.621,357.176c-0.799-1.003-1.682-1.769-2.889-2.159l0.813-0.969c1.174,0.408,2.125,1.173,2.992,2.176
		L481.621,357.176z M486.857,362.547c-0.562,2.142-2.007,4.216-4.218,5.049l-0.799-1.021c2.058-0.833,3.248-2.176,3.928-4.063
		h-3.077v-1.224h4.522v-1.292h1.258v1.292h4.47v1.224h-2.976c0.527,1.496,1.939,3.247,3.91,4.08l-0.85,0.985
		c-2.144-0.9-3.554-2.686-4.183-5.031l-0.373-0.017v6.187h-1.258l0.016-6.17L486.857,362.547L486.857,362.547z M482.896,360.014
		c1.598-0.884,2.771-2.464,3.145-4.13l1.225,0.407c-0.477,1.599-1.684,3.655-3.196,4.573L482.896,360.014z M492.654,354.235v3.688
		h-1.293v-2.431h-7.14v2.431h-1.293v-3.688H492.654z M489.236,355.884c1.188,0.85,2.414,2.686,3.01,4.164l-1.123,0.766
		c-0.578-1.7-1.58-3.111-2.975-4.454L489.236,355.884z"/>
	<path fill="#FFFFFF" d="M496.258,355.034h2.65v-1.598h1.293v1.598h2.36v1.225h-2.36v1.173h2.072v1.224h-2.072v1.207h2.549v1.24
		h-2.549v0.885l0.254-0.188c0.986,0.561,1.955,1.598,2.465,2.584l-1.02,0.9c-0.478-0.985-1.089-1.802-1.699-2.176v5.661h-1.293
		v-4.624c-0.271,0.765-1.41,2.023-2.566,3.06l-1.088-0.833c1.818-1.547,3.162-3.314,3.57-5.27h-2.789v-1.24h2.873v-1.207h-2.363
		v-1.224h2.363v-1.173h-2.65V355.034L496.258,355.034z M505.641,362.497c-0.153,3.434-2.143,4.946-3.723,6.204l-1.156-0.986
		c1.479-0.884,2.754-2.142,3.179-3.62c0.17-0.561,0.288-1.139,0.356-1.598h-2.057v-1.241h2.125v-3.094h-1.717v-1.241h1.717v-3.519
		h1.326v3.519h1.631v-3.552h1.293v3.569h1.699v1.241h-1.699v3.076h2.328v1.241h-2.328v6.136h-1.293v-6.136L505.641,362.497
		L505.641,362.497z M505.707,358.162v3.077h1.615v-3.077H505.707z"/>
	<path fill="#FFFFFF" d="M512.779,366.865c2.057-0.646,3.434-1.189,5.692-1.955v1.259l-5.063,1.869L512.779,366.865z
		 M518.525,362.258v1.189c-1.326,0.323-3.162,0.816-4.861,1.344l-0.613-1.14c1.021-1.02,1.922-2.057,2.414-2.821
		c-0.151,0.034-1.139,0.271-1.836,0.51l-0.646-1.173c0.834-1.326,1.955-3.842,2.771-5.949l1.156,0.526
		c-0.51,1.207-1.734,3.927-2.381,5.049c0.272-0.034,1.242-0.238,1.785-0.356c0.375-0.562,0.729-1.241,1.139-2.04l1.19,0.544
		c-1.004,2.006-2.059,3.739-3.588,5.167L518.525,362.258z M526.99,368.497h-1.326v-1.155h-5.236v1.155h-1.324v-13.904h7.888
		L526.99,368.497L526.99,368.497z M520.428,360.218h1.974v-4.386h-1.974V360.218z M520.428,361.459v4.641h1.974v-4.641H520.428z
		 M523.691,355.833v4.386h1.973v-4.386H523.691z M523.691,361.459v4.641h1.973v-4.641H523.691z"/>
	<path fill="#FFFFFF" d="M532.396,359.504c-0.441,0.766-1.056,1.7-1.785,2.482l-1.189-0.681c2.158-2.362,3.451-5.015,4.353-7.921
		l1.155,0.527c-0.356,1.054-0.815,2.431-1.258,3.331l0.033,11.44h-1.309V359.504z M544.328,359.658v1.258h-5.49l0.019,2.125
		l5.797-0.018l0.032,1.207h-5.813l-0.018,4.42h-1.326v-10.964l-0.238-0.018c-0.629,1.241-1.393,2.533-2.346,3.808l-1.172-0.629
		c1.682-2.176,3.043-4.521,3.553-7.717l1.272,0.459c-0.151,1.003-0.543,2.176-0.799,2.855h7.209v1.241l-6.188,0.017v1.972
		L544.328,359.658z"/>
	<path fill="#FFFFFF" d="M558.471,368.599l-1.272,0.017v-0.952h-5.713l-0.017,0.986l-1.274,0.017v-5.405
		c-0.918,0.238-2.125,0.425-3.043,0.544l-0.646-1.224c2.533-0.272,4.76-0.748,6.613-1.564c-0.799-0.577-1.345-1.088-1.818-1.598
		c-0.578,0.663-1.445,1.258-2.262,1.853l-1.121-0.815c1.938-1.122,3.264-2.499,3.926-4.063l1.088,0.425
		c-0.084,0.374-0.271,0.697-0.305,0.782h5.83l-0.019,1.122c-0.78,1.02-1.868,1.869-2.668,2.362c1.683,0.85,3.894,1.139,6.341,1.309
		l-0.562,1.326c-2.703-0.408-5.524-1.054-7.055-1.921c-1.207,0.595-2.855,1.173-4.045,1.377l8.021,0.034L558.471,368.599
		L558.471,368.599z M553.797,355.085c-0.221-0.188-0.748-0.731-1.563-1.021l1.293-0.833c1.512,0.714,1.868,1.769,1.92,1.836
		l5.457,0.018v3.365l-1.31-0.017l0.017-2.108h-10.605v2.159l-1.275-0.018v-3.382L553.797,355.085L553.797,355.085z M557.18,364.451
		h-5.694v1.973h5.713L557.18,364.451z M552.521,358.841c0.477,0.527,1.088,1.122,1.922,1.53c0.832-0.442,1.58-0.986,2.106-1.53
		H552.521z"/>
	<path fill="#FFFFFF" d="M575.996,361.443v-0.697h-8.668c0.051,3.79-0.443,5.864-2.396,7.904l-1.174-0.918
		c1.75-1.513,2.262-3.399,2.262-5.524v-6.204h5.455c-0.203-0.493-1.037-1.241-2.09-1.955l0.951-0.833
		c0.781,0.595,1.818,1.343,2.533,2.346l-0.562,0.391l4.98,0.052v5.439L575.996,361.443L575.996,361.443z M575.996,357.227h-8.687
		v2.295h8.687V357.227z"/>
	<path fill="#FFFFFF" d="M592.469,365.556h-3.434v1.224h6.356v1.241h-13.735v-1.241h6.104v-1.224h-3.195v-0.969
		c-0.969,0.663-2.125,1.122-3.229,1.444c-0.289-0.356-0.543-0.68-0.832-1.173c1.75-0.374,3.365-1.037,4.334-2.057h-3.35
		l-0.017-1.207h2.701l0.019-5.575h-2.38v-1.189h2.361v-1.395h1.293v1.395h5.898v-1.429l1.258-0.017v1.445H595v1.173h-2.346
		l-0.017,5.575l2.72,0.017l0.018,1.207h-3.195c1.021,1.003,2.754,1.648,4.367,1.904l-0.764,1.173
		c-1.088-0.323-2.346-0.833-3.314-1.429V365.556z M592.35,364.4c-0.664-0.459-1.19-0.918-1.649-1.598h-4.402
		c-0.408,0.663-0.867,1.139-1.479,1.563l2.94,0.034v-1.258l1.291,0.018l-0.016,1.224L592.35,364.4z M585.465,357.04h5.881
		l0.019-1.036h-5.898L585.465,357.04L585.465,357.04z M591.363,359.267v-1.071l-5.898,0.017v1.071L591.363,359.267z
		 M591.363,361.595l-0.019-1.155h-5.881v1.139L591.363,361.595z"/>
	<path fill="#FFFFFF" d="M604.197,355.119v1.173h-2.517c-0.018,0.97-0.391,2.159-0.526,2.618h2.449v7.7h-1.207v-0.969h-1.531v1.428
		h-1.224v-4.709c-0.356,0.562-0.561,0.867-1.071,1.462l-1.054-0.9c1.599-1.802,2.498-3.519,2.957-6.612h-2.516v-1.19
		L604.197,355.119L604.197,355.119z M602.396,360.117h-1.548v4.317h1.548V360.117z M607.75,360.473h-2.992v-4.759h1.207v3.519h1.785
		v-5.813h1.225v5.83h1.769v-3.553h1.172v4.76h-2.939v5.779h2.107v-4.76h1.207v7.071h-1.207v-1.121h-5.303v1.07h-1.207v-7.003h1.223
		v4.742h1.955L607.75,360.473L607.75,360.473z"/>
	<path fill="#FFFFFF" d="M621.809,363.771l-0.493-0.629c0.799-0.356,1.02-1.003,1.02-1.683h-0.918v-1.87h1.871v1.785
		C623.287,361.953,623.082,363.176,621.809,363.771z"/>
	<path fill="#FFFFFF" d="M634.488,361.544c-0.441,1.104-1.002,2.091-2.125,3.264l-0.97-0.918c1.666-1.853,2.396-3.332,2.925-5.049
		l-2.414,0.018v-1.258l2.565-0.018v-1.836c-0.578,0.119-1.035,0.171-2.021,0.289l-0.646-1.274c1.988-0.051,3.654-0.544,5.371-1.343
		l0.68,0.985c-0.68,0.34-1.461,0.731-2.106,0.952v2.244h2.295v1.274l-2.295-0.017v0.985l0.68-0.289
		c0.783,0.766,1.564,2.278,1.938,3.315l-1.14,0.611c-0.34-1.02-0.934-2.21-1.479-2.821v7.921h-1.258L634.488,361.544
		L634.488,361.544z M636.971,367.544c1.496-1.325,2.277-2.686,3.095-4.538l1.053,0.561c-0.203,0.663-0.476,1.19-0.681,1.599
		c-0.629,1.224-1.258,2.243-2.465,3.264L636.971,367.544z M638.467,362.394v-7.989h7.342v7.989H638.467z M644.551,355.663h-4.811
		v5.491h4.811V355.663z M645.844,368.377c-0.646-1.733-1.887-3.399-3.024-4.606l0.983-0.696c1.396,1.359,2.414,2.838,3.146,4.538
		L645.844,368.377z"/>
</g>
</svg>
