<?xml version="1.0" encoding="utf-8"?>
<!-- Generator: Adobe Illustrator 16.0.0, SVG Export Plug-In . SVG Version: 6.00 Build 0)  -->
<!DOCTYPE svg PUBLIC "-//W3C//DTD SVG 1.1//EN" "http://www.w3.org/Graphics/SVG/1.1/DTD/svg11.dtd">
<svg version="1.1" id="Layer_1" xmlns="http://www.w3.org/2000/svg" xmlns:xlink="http://www.w3.org/1999/xlink" x="0px" y="0px"
	 width="768px" height="1024px" viewBox="0 0 768 1024" enable-background="new 0 0 768 1024" xml:space="preserve">
<g>
	<path fill="#FFFFFF" d="M125.044,389l-1.274,0.017v-6.851c-0.204,0.578-0.851,1.751-1.921,2.975l-1.071-0.85
		c1.564-1.683,2.346-3.399,2.72-5.439l0.085-0.476h-2.21v-1.241h2.397v-3.298h1.292l-0.018,3.298h2.108v1.241h-2.091v1.733
		l0.356-0.255c0.969,0.935,1.717,1.717,2.057,2.839l-1.155,0.765c-0.289-1.189-0.697-1.547-1.275-2.142v6.544
		c1.395-1.462,2.397-2.771,2.686-4.521c0.17-1.07,0.272-2.124,0.272-3.246v-4.25h-1.411v-1.258l7.989-0.017v1.309
		c-0.408,1.104-0.799,2.074-1.309,3.025h1.972c-0.017,2.737-0.867,4.913-2.447,6.782c0.951,1.071,2.209,1.819,3.739,2.482
		l-1.122,1.003c-1.292-0.731-2.651-1.53-3.519-2.499c-0.544,0.493-1.258,1.088-1.972,1.581c-0.459,0.306-0.884,0.629-1.479,0.884
		l-0.918-0.969c1.359-0.799,2.601-1.479,3.519-2.533c-0.867-1.139-1.53-2.481-1.769-3.161c0.034-0.137-0.203,1.309-0.391,1.835
		c-0.493,1.429-1.224,2.839-2.295,3.961l-0.578,0.612l-0.969-0.799V389H125.044z M129.329,378.58
		c0.476,2.227,1.139,4.164,2.532,6.034c0.493-0.544,0.884-0.952,1.309-1.819c0.442-0.884,0.681-1.903,0.8-2.668h-2.244l-0.017-1.156
		c0.629-1.054,1.155-2.176,1.495-3.145l-3.875,0.017V378.58z"/>
	<path fill="#FFFFFF" d="M138.441,387.708c0.646,0,1.275-0.051,1.717-0.034c0.17-0.068,0.255-0.289,0.289-0.493v-3.943
		c-0.51,0.153-1.139,0.425-1.87,0.68l-0.884-1.02c1.054-0.357,1.989-0.646,2.788-0.969v-3.587h-2.312v-1.224h2.294v-3.349h1.259
		v3.349h1.853v1.24h-1.853v3.179c0.459-0.136,0.985-0.391,1.768-0.696v1.274c-0.697,0.238-1.224,0.51-1.768,0.697v4.93
		c-0.153,0.917-0.544,1.224-1.122,1.224l-1.785,0.017L138.441,387.708z M153.008,385.039c-0.237,1.496-0.34,3.553-2.107,3.553
		h-5.031c-0.918,0-1.717-0.731-1.802-1.377V374.84h7.818v7.564h-6.544v4.402c0,0.34,0.323,0.562,0.697,0.562h4.556
		c0.765,0,0.969-1.292,1.206-2.635L153.008,385.039z M145.342,381.163h1.972v-5.116h-1.972V381.163z M150.595,376.046h-1.973v5.116
		h1.973V376.046z"/>
	<path fill="#FFFFFF" d="M157.362,377.185l-0.017-3.365l1.291,0.017l-0.017,3.314h1.53v1.241h-1.53v3.11
		c0.272-0.118,0.918-0.441,1.547-0.696l-0.017,1.343l-1.53,0.748v4.896c0,0.356-0.425,1.02-0.815,1.104
		c-0.544,0.103-1.36,0.068-1.989,0.085l-0.391-1.189c0.663-0.051,1.189,0.034,1.547-0.018c0.187-0.017,0.391-0.136,0.391-0.306
		l-0.017-4.079c-0.357,0.17-0.986,0.492-1.666,0.765l-0.748-1.088c0.918-0.374,1.733-0.68,2.414-1.003v-3.672l-1.938,0.017v-1.24
		L157.362,377.185z M158.807,388.268c0.85-1.563,1.376-3.145,1.495-4.878c0.052-0.8,0.068-1.769,0.068-2.584v-6.256h8.856
		l-0.018,3.638h-7.53l-0.051,4.335c-0.017,2.142-0.629,4.556-1.751,6.459L158.807,388.268z M164.943,383.542h1.224v1.173h2.907
		v1.207l-2.89,0.017l-0.018,1.156h3.876v1.241h-8.788l-0.017-1.225l3.705-0.017v-1.139l-2.855,0.017l-0.017-1.258l2.89,0.034
		L164.943,383.542z M161.679,376.981l6.29-0.033v-1.173l-6.29,0.017V376.981z M167.119,381.894c-0.17-0.136-0.408-0.272-0.918-0.629
		l0.969-0.646c0.442,0.17,0.748,0.442,1.055,0.681c0.662,0.51,1.258,1.155,1.717,1.988l-1.071,0.612
		c-0.17-0.374-0.425-0.646-0.663-0.952l-3.824,0.425c-0.544,0.068-1.071,0.17-1.7,0.272c-0.255-0.392-0.459-0.663-0.73-1.105
		c1.088-0.663,1.954-1.529,2.465-2.277h-2.38v-1.224l7.513-0.018v1.241l-3.671,0.017c-0.527,0.782-1.055,1.462-1.564,1.887
		L167.119,381.894z"/>
	<path fill="#FFFFFF" d="M186.108,388.948c-2.601-0.611-3.57-1.444-5.202-2.635c-1.444,1.411-3.365,2.228-5.371,2.602l-0.748-1.071
		c2.261-0.493,3.91-1.156,5.219-2.362c-0.595-0.578-1.853-2.397-2.295-3.35c-0.918,2.687-2.873,4.76-5.116,6.392l-0.936-1.088
		c2.907-1.802,4.964-4.811,5.729-8.21h-3.893v-1.139l1.564-3.893l1.139,0.595l-1.275,3.195h2.788c0.323-1.224,0.493-2.55,0.663-4.13
		l1.241,0.322c-0.204,1.462-0.374,2.703-0.612,3.808h7.326v1.241h-7.615c-0.153,0.425-0.306,0.952-0.442,1.326h5.813v1.054
		c-0.577,1.359-1.41,2.771-2.379,3.842c1.428,1.173,3.161,1.938,5.286,2.465L186.108,388.948z M178.917,381.792
		c0.374,0.731,1.241,2.159,1.921,2.771c0.765-0.851,1.394-1.819,1.802-2.771H178.917z M183.099,377.662
		c-0.646-1.071-1.615-1.819-2.703-2.448l0.884-0.833c1.122,0.595,2.091,1.411,2.856,2.465L183.099,377.662z"/>
	<path fill="#FFFFFF" d="M191.719,382.642c0.017,2.906-0.578,4.334-1.769,6.527l-1.155-0.748c1.139-1.785,1.614-3.995,1.614-6.001
		v-7.733h12.001v3.926h-10.709L191.719,382.642z M201.119,375.927l-9.399-0.017v1.479h9.399V375.927z M198.399,384.019
		c0.222,0.611,0.663,1.41,1.258,1.938c0.578-0.374,1.14-1.054,1.598-1.785l1.037,0.782c-0.578,0.748-1.088,1.274-1.717,1.733
		c0.851,0.596,2.023,0.918,3.468,1.14l-0.85,1.206c-2.482-0.51-5.049-1.75-6.137-5.014h-1.87v3.365l2.771-0.986l0.017,1.292
		l-3.927,1.479l-1.104-0.901c0.611-0.17,1.037-0.441,0.952-1.003v-3.246h-1.904l0.017-1.225l2.72-0.017v-1.581h-2.362v-1.241
		l2.362,0.018v-1.122l1.292-0.017v1.139h2.856l0.017-1.122h1.274v1.122l2.432-0.018l-0.018,1.241h-2.414v1.598h3.094v1.225H198.399z
		 M198.875,382.794v-1.598h-2.873l0.017,1.581L198.875,382.794z"/>
	<path fill="#FFFFFF" d="M209.229,384.036c-0.714,1.462-1.513,2.516-2.873,3.298l-0.765-1.003c1.343-0.748,2.158-1.734,2.72-2.992
		L209.229,384.036z M210.877,387.827c0,0.662-0.51,1.394-1.292,1.394h-1.377l-0.441-1.36l1.359,0.103
		c0.17,0.017,0.425-0.188,0.425-0.408v-4.623h-2.736v-1.241h2.736v-1.207h-3.331v-1.258h2.447c-0.119-0.493-0.526-1.122-1.309-1.717
		l1.122-0.459c0.714,0.561,1.224,1.326,1.462,2.176h0.714c0.561-0.561,0.985-1.411,1.189-2.142l1.14,0.459
		c-0.188,0.595-0.578,1.292-0.952,1.683h2.022v1.258h-3.179v1.207h2.703v1.241h-2.703v1.206l0.493-0.629
		c0.799,0.493,1.563,1.292,2.125,2.244l-0.867,0.986c-0.425-1.021-1.189-1.751-1.751-2.176L210.877,387.827L210.877,387.827z
		 M209.433,375.537c-0.153-0.272-0.511-0.748-1.071-1.309l1.241-0.578c0.544,0.646,1.003,1.292,1.207,1.887h2.872v1.241h-7.037
		v-1.241H209.433z M220.482,374.908c-1.53,0.884-3.094,1.309-4.606,1.581v2.431h4.878v1.24h-1.903v8.856h-1.31v-8.856h-1.665v2.193
		c0,2.261-0.748,4.589-2.058,6.612l-1.155-0.816c1.563-2.142,1.903-4.453,1.903-7.088l-0.017-5.609
		c1.887-0.221,3.519-0.731,5.116-1.598L220.482,374.908z"/>
	<path fill="#FFFFFF" d="M225.702,373.99h1.326v2.329h2.38v1.274l-2.38,0.017v1.955l2.686-0.017v1.258l-2.192,0.017v1.955h2.209
		v1.258h-2.209v2.703c0.51,0.271,1.58,0.577,2.617,0.577h4.487l3.332-0.136l-0.459,1.275l-2.584,0.051h-4.674
		c-2.058,0-3.383-0.442-4.573-1.53c-0.289-0.271-0.492-0.459-0.696-0.696c-0.238,0.781-0.799,1.988-1.428,2.872l-1.088-0.9
		c1.683-2.313,1.632-3.961,1.717-6.596l1.206,0.204c0,1.02-0.067,2.022-0.152,2.906c0.34,0.442,0.73,0.936,0.969,1.14l0.017-5.065
		h-3.161v-1.292h2.669l-0.018-1.938l-2.312-0.017v-1.274h2.329L225.702,373.99z M235.561,381.961v-1.479h-5.423v-1.258h3.399
		c0.374-0.51,0.867-1.394,1.122-1.938h-2.584c-0.306,0.544-1.02,1.325-1.699,1.751l-0.935-0.952
		c1.189-0.851,2.227-2.244,2.601-4.165l1.139,0.544c-0.119,0.646-0.357,1.207-0.442,1.564h3.468v1.003
		c-0.356,0.68-0.833,1.632-1.189,2.192h1.836v7.581h-1.31v-0.68h-5.881v-1.258h5.898v-1.632h-5.1v-1.275h5.1V381.961z"/>
	<path fill="#FFFFFF" d="M250.81,388.846c-0.102-0.459-0.289-0.867-0.374-1.377c0.765,0.017,1.104,0.17,1.666,0.051
		c0.289-0.067,0.459-0.237,0.459-0.544v-9.383l-9.859-0.017l0.018,11.626h-1.326l0.017-12.867h4.675
		c0.646-0.697,1.104-1.598,1.36-2.686l1.309,0.595c-0.323,0.833-0.748,1.632-1.088,2.074l6.204,0.017v11.083
		c0,0.815-0.527,1.428-1.309,1.428H250.81z M250.623,379.599l0.018,5.967h-6.034l0.017-5.967H250.623z M249.348,380.84l-3.45-0.018
		v3.502l3.467,0.017L249.348,380.84z"/>
	<path fill="#FFFFFF" d="M263.867,384.171l-0.493-0.629c0.799-0.356,1.02-1.003,1.02-1.683h-0.918v-1.87h1.87v1.785
		C265.345,382.353,265.141,383.577,263.867,384.171z"/>
	<path fill="#FFFFFF" d="M280.713,379.531c-1.292,1.649-3.468,3.128-5.644,4.335l-0.85-1.105c2.414-1.206,4.59-2.651,6.204-4.929
		c0.442-0.612,0.85-1.207,1.139-1.684h-7.088v-1.291h14.211v1.291h-5.491c-0.306,0.511-0.696,1.105-1.088,1.649v11.235h-1.394
		L280.713,379.531L280.713,379.531z M283.467,378.851c2.022,0.918,3.773,2.414,5.32,4.198l-1.037,0.885
		c-1.377-1.717-3.331-3.417-5.185-4.182L283.467,378.851z"/>
	<path fill="#FFFFFF" d="M291.611,375.145h1.241v8.585c0.68-0.578,1.547-1.734,2.057-3.043l-1.802-0.017v-1.207h2.669l0.017-5.27
		l1.224-0.018v5.287h2.517v1.224h-2.499v5.796h-1.258v-5.116c-0.442,1.734-1.683,3.026-2.482,3.893l-0.441-0.441v1.887h6.408
		c0.527-0.748,0.73-2.737,0.73-3.858l0.018-7.615c1.7-0.137,3.11-0.544,4.59-1.207l0.8,1.003c-1.462,0.595-2.822,0.985-4.132,1.173
		l-0.017,2.771h4.334v1.207h-1.563v8.737l-1.225-0.018v-8.703h-1.547c-0.068,2.873,0.476,6.001-1.666,8.754l-1.122-0.714
		c0.103-0.085,0.17-0.187,0.271-0.322h-7.123L291.611,375.145L291.611,375.145z M294.433,379.055
		c-0.204-0.833-0.766-2.244-1.225-2.805l0.986-0.578c0.441,0.561,1.104,1.887,1.359,2.788L294.433,379.055z M298.581,384.529
		c-0.153-0.799-0.918-2.295-1.343-2.822l0.884-0.544c0.51,0.596,1.24,1.802,1.647,2.805L298.581,384.529z M297.357,378.426
		c0.595-0.663,1.121-2.04,1.258-2.771l1.036,0.459c-0.204,1.02-0.681,2.346-1.274,2.975L297.357,378.426z"/>
	<path fill="#FFFFFF" d="M308.186,377.134h2.177l-0.018-3.247h1.325v3.247h1.802l0.019,1.224h-1.836v3.043l1.598-0.714l-0.034,1.377
		c-0.61,0.271-1.104,0.476-1.547,0.696l-0.017,4.93c0,0.477-0.374,1.037-0.97,1.207c-0.595,0.17-1.225,0.136-1.938,0.103
		c-0.118-0.426-0.237-0.731-0.407-1.241c0.73-0.017,1.24,0.136,1.699,0.017c0.238-0.017,0.374-0.356,0.323-0.68v-3.893
		c-0.374,0.153-1.021,0.459-1.684,0.663l-0.85-1.088c0.985-0.323,1.835-0.544,2.516-0.85l0.018-3.57h-2.159L308.186,377.134z
		 M311.858,388.2c1.613-1.02,2.346-2.838,2.176-5.048l1.273,0.17c0,0.73-0.051,1.428-0.151,2.022
		c0.44,0.629,1.632,1.173,2.091,1.343l-0.019-4.182l-3.875-0.017v-1.207l9.469-0.017v1.24h-4.317v1.479h3.365v1.258h-3.35v1.733
		c1.479,0.204,3.129,0.068,4.965,0c-0.171,0.544-0.374,0.884-0.512,1.326l-3.519-0.034c-1.75-0.017-3.501-0.544-4.674-1.581
		c-0.34,0.748-0.799,1.7-2.04,2.465L311.858,388.2z M314.068,374.534l7.41-0.018v5.95l-7.429-0.034L314.068,374.534z
		 M315.326,375.757v1.071l4.878-0.018v-1.036L315.326,375.757z M315.342,378.069l-0.017,1.14h4.878v-1.156L315.342,378.069z"/>
	<path fill="#FFFFFF" d="M325.373,387.979c3.061-1.343,4.267-4.063,4.182-6.307h-3.723v-1.224h3.774l0.017-3.808
		c-0.815,0.222-1.887,0.392-3.025,0.477l-0.68-1.292c2.617-0.119,4.861-0.681,6.884-1.938l0.918,0.97
		c-1.003,0.646-1.938,1.054-2.805,1.41v4.182h4.028v-6.578h1.274v6.578h3.604v1.224h-3.587l-0.018,7.463h-1.292l0.018-7.463h-4.079
		c-0.188,2.703-0.527,5.032-4.624,7.463L325.373,387.979z"/>
	<path fill="#FFFFFF" d="M347.302,383.475c-0.34-1.055-0.951-1.836-1.377-2.313v7.904h-1.291v-7.003
		c-0.271,0.696-1.037,1.903-2.058,3.161l-1.036-0.765c1.462-1.972,2.821-3.824,3.094-6.018h-2.329v-1.207h2.329l0.018-3.331
		l1.273,0.017v3.314l2.023-0.017v1.224h-2.04v1.684l0.51-0.238c0.936,0.782,1.581,1.733,2.057,2.855L347.302,383.475z
		 M346.469,387.962c4.335-1.751,6.442-3.688,8.5-7.275l1.104,0.493c-0.731,1.359-1.563,2.635-2.481,3.638
		c1.173,0.629,2.635,1.699,3.45,3.212l-1.037,0.885c-0.578-1.53-2.65-2.856-3.331-3.162c-1.462,1.359-3.247,2.362-5.117,3.213
		L346.469,387.962z M347.183,384.648c2.278-0.986,3.502-2.38,4.642-3.655c-0.936,0.068-1.954,0.272-3.094,0.459l-0.681-1.207
		c1.173-0.969,2.228-2.057,2.687-3.094h-2.957v-1.24h3.705c-0.322-0.408-0.985-0.986-1.769-1.496l1.037-0.867
		c0.85,0.612,1.479,1.207,2.21,2.143l-0.289,0.203l3.979,0.034v1.224h-4.402c-0.563,1.037-1.19,2.125-1.989,2.72l2.448-0.221
		c0.306-0.476,0.629-1.037,0.935-1.717l1.14,0.562c-1.326,2.787-3.468,5.626-6.308,7.054L347.183,384.648z"/>
	<path fill="#FFFFFF" d="M358.71,384.903c1.104-1.854,2.039-3.621,2.447-5.779l1.189,0.492c-0.407,2.176-1.14,3.757-2.465,5.916
		L358.71,384.903z M364.694,377.899l0.017,8.296c0.051,0.187,0.34,0.51,0.629,0.561h2.651c0.271-0.034,0.526-0.17,0.646-0.442
		c0.289-0.918,0.511-1.853,0.697-2.975l1.325,0.477c-0.322,1.207-0.51,2.312-1.021,3.314c-0.306,0.612-0.935,0.935-1.598,0.935
		l-2.72-0.017c-0.884,0-1.955-0.477-1.955-1.717v-8.414L364.694,377.899z M367.533,379.191c-1.003-1.563-2.414-3.094-4.08-4.097
		c0.493-0.289,0.748-0.561,1.173-0.781c1.581,1.07,3.025,2.55,4.046,4.182L367.533,379.191z M373.057,385.243
		c-0.851-2.04-1.869-3.893-3.484-5.575c0.459-0.238,0.73-0.426,1.156-0.596c1.613,1.632,2.616,3.536,3.568,5.542L373.057,385.243z"
		/>
	<path fill="#FFFFFF" d="M390.855,385.906c-0.119,0.833-0.271,1.699-1.056,2.158l-0.492,0.153h-3.791
		c-0.883,0-1.325-0.493-1.461-1.071v-2.668l-1.598,0.017c-0.17,1.444-1.188,2.924-2.736,3.569c-0.985,0.425-2.073,0.714-3.264,0.851
		l-0.782-1.344c2.532-0.221,3.043-0.34,4.438-1.274c0.696-0.459,0.984-1.189,1.104-1.818H378.6v-4.114h9.281v4.114h-2.533v2.243
		c0.019,0.136,0.154,0.238,0.289,0.289h3.554c0.323-0.119,0.271-0.51,0.356-0.884c0.033-0.188,0.051-0.408,0.084-0.799
		L390.855,385.906z M381.183,378.715c-0.391-0.68-0.969-1.241-1.613-1.581l0.544-0.493h-3.195v-1.189h5.677
		c-0.391-0.408-0.799-0.816-1.273-1.088l1.122-0.68c0.544,0.459,1.139,1.02,1.428,1.75h5.591v1.241h-3.434l0.596,0.357
		c-0.307,0.611-0.662,1.24-1.037,1.699h4.861v1.156h-14.482v-1.173L381.183,378.715L381.183,378.715z M386.572,383.305v-1.684
		h-6.714v1.684H386.572z M384.226,378.75c0.459-0.714,1.003-1.599,1.173-2.058h-4.487c0.578,0.307,0.969,0.697,1.445,1.547
		l-0.612,0.477L384.226,378.75z"/>
	<path fill="#FFFFFF" d="M405.918,381.961v2.89h-5.117v3.026c0,0.611-0.373,1.24-0.934,1.24h-1.904l-0.44-1.394l1.682,0.068
		c0.17-0.034,0.307-0.153,0.307-0.34v-2.602h-5.168v-1.24h5.168v-1.649h-6.459v-1.24h6.459v-1.31h-3.91
		c-0.391,0.307-1.069,0.731-1.614,0.936l-0.918-1.037c2.448-0.969,3.688-3.11,4.352-5.474l1.139,0.477
		c-0.051,0.356-0.151,0.696-0.286,0.985h5.354v1.105c-0.373,0.696-0.766,1.343-1.037,1.768h3.332v2.55h1.785v1.24L405.918,381.961
		L405.918,381.961z M397.742,376.54c-0.289,0.595-0.732,1.258-1.021,1.632h4.353c0.406-0.544,0.729-1.021,1.069-1.632H397.742z
		 M404.625,379.412h-3.824v1.31h3.824V379.412z M404.625,381.961h-3.824v1.649h3.824V381.961z"/>
	<path fill="#FFFFFF" d="M423.684,377.712c-0.086,3.535-0.272,5.881-0.936,9.06c-0.188,0.918-1.021,1.428-1.684,1.514
		c-1.24,0.17-2.277-0.188-3.435-0.511l-0.289-1.479c1.156,0.374,2.107,0.68,3.111,0.765c0.356,0.034,0.662-0.237,0.832-0.459
		c0.459-0.646,0.969-5.303,1.021-7.632l-4.268,0.017c-0.289,6.494-3.246,8.363-6.867,9.894l-0.969-1.241
		c2.975-1.104,6.238-2.414,6.477-8.652h-4.199v-1.258h4.25v-3.808h1.31l-0.019,3.808L423.684,377.712z"/>
	<path fill="#FFFFFF" d="M434.732,383.577c-0.746,0.051-1.429-0.238-1.902-0.782c-0.478-0.544-0.613-1.394-0.391-2.091
		c0.254-0.815,1.034-1.444,1.868-1.495c0.781-0.052,1.496,0.237,1.955,0.884c0.408,0.561,0.562,1.274,0.322,1.972
		C436.314,382.846,435.566,383.508,434.732,383.577z M434.768,380.313c-0.391-0.102-0.799,0.017-1.055,0.306
		c-0.238,0.255-0.354,0.629-0.289,0.986c0.068,0.323,0.308,0.646,0.613,0.782c0.424,0.187,0.918,0.085,1.24-0.238
		c0.307-0.306,0.391-0.799,0.237-1.19C435.379,380.636,435.09,380.398,434.768,380.313z"/>
</g>
</svg>
