<?xml version="1.0" encoding="utf-8"?>
<!-- Generator: Adobe Illustrator 16.0.0, SVG Export Plug-In . SVG Version: 6.00 Build 0)  -->
<!DOCTYPE svg PUBLIC "-//W3C//DTD SVG 1.1//EN" "http://www.w3.org/Graphics/SVG/1.1/DTD/svg11.dtd">
<svg version="1.1" id="Layer_1" xmlns="http://www.w3.org/2000/svg" xmlns:xlink="http://www.w3.org/1999/xlink" x="0px" y="0px"
	 width="768px" height="1024px" viewBox="0 0 768 1024" enable-background="new 0 0 768 1024" xml:space="preserve">
<g>
	<path fill="#85D4F2" d="M136.034,459.184c1.2,0,2.949-0.073,3.324-0.198c0.25-0.125,0.425-0.649,0.425-1.124l0.025-15.696
		l-15.146-0.025v19.723h-1.975v-21.57h19.096l0.024,17.971c0,1.149-0.449,2.324-1.124,2.675c-0.675,0.25-3.149,0.352-3.975,0.302
		L136.034,459.184z M139.008,444.862l0.024,1.85h-13.196l0.024-1.85H139.008z M136.984,449.411v7.548h-9.498v-7.523L136.984,449.411
		z M129.385,455.109h5.724v-3.824l-5.724,0.023V455.109z"/>
	<path fill="#85D4F2" d="M145.762,455.534c1.625-2.726,3-5.323,3.6-8.498l1.749,0.726c-0.6,3.199-1.674,5.523-3.624,8.697
		L145.762,455.534z M154.56,445.237l0.025,12.194c0.075,0.275,0.5,0.75,0.925,0.825h3.899c0.399-0.05,0.774-0.25,0.949-0.647
		c0.425-1.352,0.75-2.727,1.024-4.374l1.95,0.697c-0.476,1.774-0.75,3.399-1.5,4.874c-0.45,0.899-1.375,1.375-2.35,1.375
		l-3.999-0.023c-1.3,0-2.874-0.699-2.874-2.524v-12.372L154.56,445.237z M158.734,447.137c-1.475-2.3-3.549-4.549-5.998-6.021
		c0.725-0.425,1.1-0.825,1.725-1.15c2.324,1.575,4.449,3.749,5.948,6.148L158.734,447.137z M166.857,456.034
		c-1.249-2.999-2.749-5.726-5.123-8.198c0.675-0.35,1.074-0.624,1.699-0.874c2.375,2.399,3.85,5.198,5.249,8.147L166.857,456.034z"
		/>
	<path fill="#85D4F2" d="M175.287,444.887h3.074v1.875h-3.05v14.724h-1.899v-14.696h-2.399v-1.9h2.375v-5.673h1.899V444.887z
		 M181.385,449.036c-0.45,2.124-1.4,3.897-2.8,5.624c-0.6-0.375-1.05-0.603-1.624-1.05c1.324-1.677,2.274-3.274,2.774-5.324
		L181.385,449.036z M190.933,448.461c1.35,1.625,2.224,3.399,2.499,5.499c-0.6,0.325-1.05,0.475-1.725,0.8
		c-0.425-1.85-0.95-3.324-1.625-4.397c-0.25,3.147-0.625,6.447-1.175,9.123c-0.175,0.85-1.074,1.647-1.924,1.772
		c-1.1,0.15-2.125-0.125-3.199-0.375l-0.15-1.975c1.175,0.2,2.024,0.648,2.824,0.426c0.4-0.351,0.55-0.875,0.675-1.425
		c0.7-2.852,1.05-8.698,1.1-12.122h-3.249c-0.05,0.25-0.024,0.725-0.024,1.272c-0.051,1.727-0.125,3.726-0.525,5.374
		c-0.899,3.601-2.374,6.35-5.773,9.1l-1.375-1.5c2.35-1.824,4.05-4.101,4.849-6.601c0.75-2.397,0.976-5.123,0.9-7.598h-4.224v-1.925
		h4.224l0.024-4.749l1.85-0.024c0.101,1.499,0.025,4.049,0.025,4.773h5.224c0.1,1.975,0.05,3.725-0.05,4.924L190.933,448.461z"/>
	<path fill="#85D4F2" d="M203.21,446.712c-0.649,1.227-1.55,2.374-2.399,3.374v11.572h-1.874l-0.025-9.772
		c-0.35,0.274-1,0.925-1.85,1.549l-1.425-1.249c2.475-1.8,4.649-4.022,6.074-6.599l1.124,0.774l-0.024-1.399l5.998-0.022v-1.65
		h-4.874v-1.799h4.824v-2.175h2l0.024,2.197l5.349,0.025v3.374l2.449,0.024l-0.024,1.748l-2.449,0.025l0.024,3.599l-5.398-0.022
		v1.772l6.224-0.023v1.675h-6.198l-0.025,1.949l7.523,0.023v1.727l-7.523,0.022v4.124l-1.949,0.025l0.024-4.174h-6.748l-0.025-1.727
		l6.724-0.023l0.05-1.874l-5.549,0.022v-1.772h5.499v-1.749h-4.874v-1.775h4.874v-1.799L203.21,446.712L203.21,446.712z
		 M203.236,440.063c-1.024,2.301-3.399,5.248-5.474,7.1l-1.399-1.199c2.224-1.925,3.999-4.199,5.248-6.724L203.236,440.063z
		 M214.208,448.511l0.024-1.749l-3.524-0.023v1.772H214.208L214.208,448.511z M210.734,443.287l0.025,1.648l3.499-0.023
		l-0.025-1.649L210.734,443.287z"/>
	<path fill="#85D4F2" d="M231.285,454.46l-0.725-0.925c1.175-0.525,1.5-1.477,1.5-2.477h-1.35v-2.749h2.749v2.624
		C233.459,451.785,233.16,453.585,231.285,454.46z"/>
	<path fill="#85D4F2" d="M245.813,456.185c2.324-2.925,3.898-7.196,4.623-10.271h-3.674v-1.852h3.899v-4.772h1.899v4.799h3.424
		v1.825h-3.399v2.749l0.476-0.3c1.425,1.375,2.549,2.897,3.424,4.624l-1.725,1.124c-0.75-1.449-1.574-2.699-2.149-3.448
		l-0.05,10.972h-1.899v-9.771c-0.351,1.022-1.625,3.35-3.35,5.474L245.813,456.185z M266.958,440.588v21.021h-2v-1.775h-5.923v1.775
		h-2v-21.021H266.958z M264.933,442.413h-5.898v3.724h5.898V442.413z M264.983,447.961h-5.948v3.999h5.948V447.961z
		 M264.983,458.034v-4.274h-5.948v4.274H264.983z"/>
	<path fill="#85D4F2" d="M270.887,460.134c2.175-1.898,3-4.425,3.175-6.948c0.199-2.647,0.225-6.646,0.199-10.321h9.123
		c-0.325-0.75-1.3-1.675-2.449-2.476l1.324-1.25c1.3,0.699,2.45,1.824,3.199,3.051l-0.649,0.675h8.048v1.75h-16.721
		c-0.05,2.874,0,7.196-0.325,9.673c-0.399,3.146-1.475,4.924-3.449,7.173L270.887,460.134z M292.932,460.434h-17.671l0.025-1.772
		h10.547c1.85-3.024,3.3-7.799,3.699-11.997l1.8,0.624c-0.45,4.999-1.999,9.248-3.374,11.373h4.974V460.434z M280.335,457.609
		c-0.975-4.749-2.199-6.226-3.899-8.648l1.7-0.8c2.024,2.55,3.374,5.271,4.023,8.373L280.335,457.609z M282.459,446.063
		c1.725,2.25,3.024,5.448,3.399,8.322l-1.85,0.899c-0.35-2.874-1.475-5.823-3.124-8.397L282.459,446.063z"/>
	<path fill="#85D4F2" d="M295.813,456.185c2.324-2.925,3.898-7.196,4.623-10.271h-3.674v-1.852h3.899v-4.772h1.897v4.799h3.426
		v1.825h-3.399v2.749l0.476-0.3c1.427,1.375,2.551,2.897,3.426,4.624l-1.727,1.124c-0.75-1.449-1.574-2.699-2.147-3.448
		l-0.052,10.972h-1.897v-9.771c-0.353,1.022-1.625,3.35-3.35,5.474L295.813,456.185z M316.958,440.588v21.021h-2v-1.775h-5.923
		v1.775h-2v-21.021H316.958z M314.933,442.413h-5.896v3.724h5.896V442.413z M314.983,447.961h-5.948v3.999h5.948V447.961z
		 M314.983,458.034v-4.274h-5.948v4.274H314.983z"/>
	<path fill="#85D4F2" d="M329.985,453.91c-1.749,1.05-4.801,2.749-7.1,4.021l-1.625-1.35c2.925-1.524,5.726-3.074,8.725-4.749
		V453.91z M341.908,458.733c-3.524-1.477-6.898-4.073-8.548-6.748l-0.053,7.521c0,0.727-0.572,1.727-1.299,1.949
		c-1.05,0.15-2.7,0.15-3.874,0.15l-0.676-2.024c1.325,0.05,2,0.124,3-0.025c0.399-0.05,0.8-0.448,0.8-0.773l0.024-13.348h-9.072
		l-0.025-1.898l9.123,0.025v-4.449l1.999,0.023v4.398l8.773-0.024v1.925h-8.798l0.022,3.125c2.302,4.475,5.699,6.997,9.873,8.746
		L341.908,458.733z M328.736,451.36c-1.825-1.649-3.602-2.976-5.874-3.624l1.375-1.427c1.85,0.552,4.874,2.699,5.696,3.727
		L328.736,451.36z M339.483,443.463c-1.102-1-3.301-2.2-5.073-2.55l1.35-1.399c1.899,0.375,3.398,1.352,4.976,2.601L339.483,443.463
		z M334.909,450.11c2.075-0.999,3.949-2.149,5.397-4.023l1.324,1.225c-1.522,1.999-3.349,3.199-5.521,4.351L334.909,450.11z"/>
	<path fill="#85D4F2" d="M357.56,453.585c-1.101,0.075-2.1-0.35-2.8-1.149c-0.7-0.799-0.897-2.05-0.575-3.072
		c0.375-1.2,1.525-2.125,2.75-2.2c1.149-0.074,2.199,0.351,2.874,1.3c0.602,0.825,0.825,1.875,0.477,2.899
		C359.884,452.51,358.785,453.485,357.56,453.585z M357.61,448.786c-0.575-0.15-1.177,0.023-1.552,0.45
		c-0.35,0.375-0.523,0.925-0.425,1.447c0.102,0.477,0.45,0.95,0.899,1.149c0.625,0.275,1.35,0.125,1.825-0.35
		c0.447-0.45,0.572-1.177,0.35-1.749C358.509,449.261,358.084,448.911,357.61,448.786z"/>
</g>
</svg>
