<?xml version="1.0" encoding="utf-8"?>
<!-- Generator: Adobe Illustrator 16.0.0, SVG Export Plug-In . SVG Version: 6.00 Build 0)  -->
<!DOCTYPE svg PUBLIC "-//W3C//DTD SVG 1.1//EN" "http://www.w3.org/Graphics/SVG/1.1/DTD/svg11.dtd">
<svg version="1.1" id="Layer_1" xmlns="http://www.w3.org/2000/svg" xmlns:xlink="http://www.w3.org/1999/xlink" x="0px" y="0px"
	 width="768px" height="1024px" viewBox="0 0 768 1024" enable-background="new 0 0 768 1024" xml:space="preserve">
<g>
	<path fill="#FFFFFF" d="M120.394,495.566c2.657-1.696,4.562-4.113,5.395-6.724h-4.45v-1.217l5.778,0.017v-2.496h1.249l-0.017,2.496
		l5.715-0.017v1.217h-4.274c0.704,2.817,2.945,5.234,5.234,6.579l-0.864,1.024c-4.13-3.121-4.689-4.834-5.778-7.795l-0.032,5.682
		h3.09v1.2l-3.073-0.017l-0.017,3.938h-1.217l-0.016-3.938l-3.169,0.017v-1.2l3.169,0.017v-5.697
		c-1.104,3.488-2.978,5.89-5.73,7.875L120.394,495.566z"/>
	<path fill="#FFFFFF" d="M137.07,493.55c2.017-1.151,3.617-2.944,4.93-4.817l0.977,0.655c-0.448,0.816-1.36,1.891-1.953,2.609v7.379
		h-1.232v-6.114c-0.271,0.256-1.168,0.85-1.776,1.28L137.07,493.55z M137.278,489.148c1.681-1.17,2.978-2.609,4.05-4.29l0.944,0.735
		c-1.072,1.616-2.401,3.313-3.922,4.387L137.278,489.148z M144.609,498.063c0.816,0.064,1.521,0.064,2.209,0.049
		c0.176-0.049,0.352-0.16,0.352-0.385v-6.563h-4.098v-1.186l8.244,0.017v1.169l-2.85,0.016l-0.016,6.69
		c0,0.561-0.288,0.977-0.688,1.217c-0.433,0.24-1.953,0.226-2.77,0.192L144.609,498.063z M150.339,487.291h-6.883l-0.017-1.185
		l6.899-0.017L150.339,487.291L150.339,487.291z"/>
	<path fill="#FFFFFF" d="M154.241,494.046h10.9v1.297l-10.9-0.017V494.046z M162.308,498.928c-0.064-0.479-0.128-0.88-0.208-1.424
		c0.848,0.239,1.584,0.527,2.337,0.624c0.208,0,0.592-0.145,0.752-0.448c0.32-0.943,0.385-2.656,0.513-4.13
		c0.031-0.479,0.016-1.057,0.031-1.439l-10.34,0.016l1.265-6.946l1.28,0.385l-0.336,1.793l10.052-0.018v1.313h-10.275l-0.4,2.128
		h10.116l-0.064,2.577c-0.032,1.072-0.112,2.257-0.288,3.378c-0.16,1.04-0.272,2.209-1.536,2.593
		c-0.769,0.225-1.505-0.08-2.161-0.192L162.308,498.928z"/>
	<path fill="#FFFFFF" d="M171.38,495.183v-7.091h5.234l-0.016-2.93h1.28l-0.032,2.913l5.218,0.017v7.026H181.8v-1.088h-3.953
		l0.032,5.394h-1.265l-0.016-5.394h-3.922l-0.032,1.151L171.38,495.183L171.38,495.183z M176.599,489.26h-3.954v3.618h3.97
		L176.599,489.26z M181.769,489.26h-3.89v3.603h3.905L181.769,489.26z"/>
	<path fill="#FFFFFF" d="M198.396,499.328v-1.12h-9.747v1.12h-1.217v-13.573h12.101v13.573H198.396z M198.396,486.923h-9.747v10.181
		h9.747V486.923z M188.968,495.951v-1.104h3.874v-2.722h-3.186v-1.104h3.186v-2.032h-3.729v-1.104h8.724v1.104h-3.857v2.032h3.345
		v1.104h-3.345v2.722h4.018v1.104H188.968z M196.507,494.734c-0.624-0.816-1.185-1.377-1.984-1.842l0.784-0.624
		c0.672,0.4,1.537,1.024,2.049,1.856L196.507,494.734z"/>
	<path fill="#FFFFFF" d="M211.118,485.482c0.016,1.809-0.064,3.44-0.24,5.059c-0.048,0.384,0.096,0.527,0.192,0.752
		c1.296,3.201,3.009,5.395,6.338,6.818l-0.928,1.041c-2.962-1.537-4.771-3.281-6.131-6.451c-0.624,1.841-2.849,4.723-5.938,6.402
		l-0.96-0.943c1.12-0.673,2.049-1.345,2.913-2.178c1.057-0.992,1.824-1.824,2.625-3.489c0.929-1.89,0.816-4.689,0.849-7.011H211.118
		z"/>
	<path fill="#FFFFFF" d="M230.962,494.479v3.649c0,0.608-0.4,1.216-1.072,1.216h-1.633l-0.384-1.279l1.488,0.111
		c0.208,0.017,0.384-0.176,0.384-0.464v-3.233h-5.202v-0.415c-1.056,1.712-2.305,3.009-3.985,4.177l-0.88-0.992
		c2.112-1.248,4.001-3.553,4.674-5.186h-4.306v-1.17h4.817c0.177-0.367,0.368-0.72,0.416-1.008h-4.033v-1.104h4.354
		c0.112-0.306,0.192-0.722,0.24-0.978h-4.994v-1.169h5.234l0.304-1.567l1.104,0.288c-0.096,0.607-0.144,0.881-0.208,1.279h5.778
		v1.169h-5.986c-0.08,0.368-0.16,0.721-0.224,0.978h5.602v1.104h-5.89c-0.128,0.353-0.24,0.752-0.337,1.008h7.443v1.17h-7.923
		c-0.225,0.447-0.48,0.96-0.656,1.247h4.657v-0.943h1.217v0.943h2.705v1.169H230.962z M227.041,497.632
		c-0.479-0.961-1.056-1.537-1.937-2.033l0.801-0.815c0.832,0.479,1.553,1.231,2.097,1.984L227.041,497.632z"/>
	<path fill="#FFFFFF" d="M243.876,499.504h-1.216v-4.417c-1.185,1.681-3.538,2.929-5.778,3.569l-0.865-1.138
		c2.178-0.464,4.146-1.279,5.347-2.642h-2.945v-1.168h4.226l0.017-0.864h-6.051v-1.169l6.051-0.016v-0.77l-4.258,0.018v-1.169h4.241
		v-0.816h-5.922v-1.168l5.922-0.017l0.017-0.544c-1.921,0.111-2.449,0.128-4.738,0.176l-0.544-1.088
		c2.929,0.063,7.459-0.146,10.788-1.072l0.849,0.848c-1.009,0.386-3.698,0.85-5.139,0.992l-0.016,0.705h5.891v1.168h-5.875
		l-0.016,0.832l4.706-0.016v1.921h1.36v1.185h-1.36v2.642h-1.217v-0.608h-2.161c1.201,1.329,3.714,2.354,5.362,2.497l-0.672,1.121
		c-1.457-0.177-4.514-1.297-5.971-3.361L243.876,499.504z M247.35,490.893l-3.489,0.018v0.768l3.489-0.016V490.893z M243.861,493.71
		h3.489v-0.864h-3.474L243.861,493.71z"/>
	<path fill="#FFFFFF" d="M253.861,485.803h4.306v12.068c0,0.688-0.416,1.217-1.12,1.217h-1.169l-0.4-1.231
		c0.673,0.111,0.929,0.145,1.201,0.111c0.176-0.017,0.304-0.128,0.304-0.319v-4.113h-1.937c0.016,1.712-0.177,4.209-1.329,5.81
		l-0.928-0.814c0.864-1.617,1.072-3.122,1.072-4.963V485.803z M256.982,486.971h-1.937v2.099h1.937V486.971z M255.045,492.35h1.937
		v-2.097h-1.937V492.35z M259.943,488.54v-2.689h4.851v3.361c0,0.192,0.016,0.433,0.304,0.433h1.408v1.12h-1.856
		c-0.624,0-1.072-0.512-1.072-1.359v-2.401h-2.385c0.144,3.361-0.816,3.762-2.306,4.658l-0.656-1.072
		C259.191,490.221,259.943,489.468,259.943,488.54z M258.247,498.288c1.376-0.496,2.48-1.137,3.394-1.969
		c-0.784-1.024-1.313-2.387-1.633-3.618h-0.688v-1.168h5.826c-0.224,1.921-0.864,3.521-1.872,4.816
		c0.944,0.93,2.08,1.634,3.569,2.001l-0.721,1.072c-1.648-0.432-2.657-1.231-3.649-2.177c-1.265,0.913-2.001,1.505-3.762,2.129
		L258.247,498.288z M261.208,492.701c0.24,0.721,0.816,2.033,1.36,2.85c0.593-0.977,0.944-1.761,1.201-2.85H261.208z"/>
	<path fill="#FFFFFF" d="M271.737,492.478c-0.368,1.169-1.2,2.466-1.856,3.041L269,494.767c1.265-1.345,2.321-3.745,2.657-5.201
		h-1.953l-0.016-1.186l2.033,0.017l0.016-3.395h1.2v3.378h1.841v1.186h-1.841l-0.031,1.455l0.672-0.464
		c0.672,0.513,1.377,1.44,1.824,2.465l-1.072,0.642c-0.384-1.009-0.944-1.81-1.393-2.129v7.715h-1.2V492.478z M282.061,486.571
		v1.136c-0.576,2.626-1.328,4.866-2.609,6.915c0.977,1.473,2.434,2.93,4.194,3.842l-0.913,0.96
		c-1.616-1.008-3.121-2.433-4.001-3.776c-1.024,1.345-2.577,2.753-4.29,3.665l-0.912-1.023c1.793-0.881,3.441-2.193,4.546-3.714
		c-1.072-1.89-1.969-3.729-2.385-5.892l-0.177-0.928h-1.296l0.016-1.185H282.061z M276.683,487.771
		c0.336,1.809,1.088,4.032,2.112,5.697c1.009-1.745,1.697-4.033,2.033-5.714L276.683,487.771z"/>
	<path fill="#FFFFFF" d="M299.12,499.296c-3.201-0.432-4.642-1.28-6.258-2.112c-1.873,1.089-4.114,1.776-6.675,2.146
		c-0.208-0.384-0.4-0.672-0.688-1.104c2.48-0.239,4.994-1.04,6.274-1.775c-0.736-0.465-1.729-1.617-2.337-2.529h-1.169v-1.168h8.132
		v1.152c-0.688,0.863-1.697,1.969-2.513,2.545c1.504,0.864,3.617,1.456,5.954,1.744L299.12,499.296z M294.734,488.252v4.258h-1.168
		l0.031-4.258h-1.904v4.258h-1.137v-4.258h-4.737v-1.104h6.595c-0.257-0.434-0.801-0.896-1.521-1.346l0.736-0.752
		c0.688,0.384,1.521,1.04,2.049,1.744l-0.432,0.305l6.179,0.049v1.104H294.734L294.734,488.252z M286.827,493.229l-0.896-0.911
		c1.232-1.058,2.178-2.306,2.945-3.457l0.881,0.72C288.828,491.117,287.868,492.142,286.827,493.229z M290.924,493.918
		c0.385,0.624,1.217,1.36,1.938,1.856c0.735-0.561,1.568-1.28,1.969-1.856H290.924z M298.416,492.861
		c-0.624-1.266-1.585-2.272-2.753-3.201l0.864-0.672c0.977,0.784,2.29,1.889,2.961,3.185L298.416,492.861z"/>
	<path fill="#FFFFFF" d="M316.051,499.393c-2.913-0.177-5.714-0.527-8.065-1.713c-0.129,0.063-0.306,0.208-0.497,0.336
		c-1.36,0.832-2.896,1.313-4.595,1.521l-0.72-1.072c1.921-0.304,3.569-0.881,4.657-1.408c-0.704-0.447-1.521-1.137-2.32-2.049
		l0.929-0.625c0.688,0.608,1.648,1.394,2.337,1.825c0.479-0.608,0.753-1.313,0.881-2.017h-4.354l0.017-5.924h4.594v-1.185
		l-6.274,0.017v-1.137h13.653v1.137l-6.194-0.017v1.185h4.45v5.924h-4.674c-0.128,0.943-0.48,1.903-1.041,2.625
		c1.601,0.863,5.458,1.296,7.972,1.345L316.051,499.393z M305.503,490.637h3.409v-1.217l-3.409-0.016V490.637z M305.503,493.021
		l3.313,0.017l0.063-1.265h-3.377L305.503,493.021L305.503,493.021z M310.082,491.773l-0.08,1.265h3.395v-1.265H310.082z
		 M313.378,489.404h-3.249l-0.017,1.231h3.266V489.404z"/>
	<path fill="#FFFFFF" d="M331.879,499.424c-2.337-0.448-6.131-1.553-7.251-5.729h-2.417l-0.017,4.018l3.458-1.231l-0.018,1.296
		l-4.577,1.681l-0.961-0.977c0.736-0.257,0.912-0.784,0.912-1.36l-0.016-10.18l3.697-0.018c-0.191-0.271-0.721-0.672-1.248-1.136
		l1.104-0.769c0.656,0.655,1.232,1.247,1.584,1.903l3.729,0.018l-0.017,6.737l-3.874,0.018c0.192,0.688,0.4,1.408,1.186,2.177
		c1.072-0.385,2.081-1.249,3.104-2.257l0.944,0.912c-1.04,1.008-2.064,1.841-3.041,2.209c0.864,0.688,3.138,1.456,4.53,1.504
		L331.879,499.424z M322.211,488.092v1.602h6.436v-1.602H322.211z M322.211,490.845v1.682h6.436v-1.696L322.211,490.845z"/>
	<path fill="#FFFFFF" d="M340.583,494.158c-0.256-1.009-0.736-1.793-1.072-2.241l-0.032,7.491h-1.279v-6.69
		c-0.272,0.608-0.93,1.761-1.953,2.801l-0.944-0.815c1.488-1.488,2.434-3.603,2.785-5.346h-2.321l0.018-1.186h2.399v-3.025h1.298
		v3.025h2.192v1.186h-2.192v1.567l0.479-0.304c0.848,0.848,1.425,1.761,1.776,2.815L340.583,494.158z M339.958,498.656
		c1.44-1.313,2.417-2.723,2.417-4.53v-8.259h4.978l-0.016,11.604c0,0.16,0.063,0.191,0.271,0.191h0.513
		c0.496,0,0.641-1.488,0.801-2.465l1.12,0.753c-0.16,0.768-0.336,1.456-0.561,2.112c-0.145,0.433-0.561,0.783-1.104,0.783h-1.088
		c-0.48,0-1.201-0.224-1.201-0.992v-10.819h-2.465l0.017,7.251c0,1.889-0.977,3.762-2.594,5.267L339.958,498.656z"/>
	<path fill="#FFFFFF" d="M359.483,493.886c-0.368-0.607-1.232-1.633-1.952-2.257l0.896-0.896c0.833,0.625,1.665,1.408,2.193,2.049
		L359.483,493.886z"/>
	<path fill="#FFFFFF" d="M382.065,498.191h-13.077v-1.186h6.321c1.602-2.129,2.577-4.737,2.945-7.649l1.217,0.512
		c-0.399,2.688-1.359,5.187-2.736,7.139h5.33V498.191z M375.502,487.899c-0.624-0.912-1.473-1.762-2.609-2.146l1.024-0.833
		c1.089,0.417,2.001,1.345,2.705,2.354l-0.848,0.607l5.521,0.017v1.185h-11.588v-1.168L375.502,487.899z M373.534,496.399
		c-0.208-2.146-1.024-4.946-2.529-6.531l1.121-0.544c1.521,1.633,2.48,4.466,2.625,6.707L373.534,496.399z"/>
	<path fill="#FFFFFF" d="M384.83,497.295c1.904-0.592,2.865-1.04,4.85-1.761v1.201l-4.239,1.567L384.83,497.295z M389.424,493.229
		v1.058c-1.264,0.271-2.385,0.544-4.063,1.057l-0.449-1.089c0.945-0.944,1.842-2.399,2.354-3.201
		c-0.159-0.016-1.28,0.208-1.823,0.354l-0.498-0.961c0.815-1.313,1.811-3.186,2.481-5.187l1.039,0.576
		c-0.543,1.761-1.344,3.233-2.031,4.273c0.24-0.032,0.88-0.128,1.425-0.208c0.319-0.562,0.625-1.2,0.784-1.81l1.009,0.562
		c-0.736,1.84-1.537,3.681-2.931,5.201L389.424,493.229z M392.705,494.479c-0.383,1.394-1.297,2.882-2.289,3.811l-1.072-0.673
		c0.881-0.816,2.033-2.785,2.354-3.763L392.705,494.479z M389.936,486.892h3.396c-0.176-0.257-0.609-0.735-1.187-1.185l1.058-0.833
		c0.705,0.688,1.248,1.393,1.617,2.018h3.33v3.152h-1.232v-1.969h-5.73v1.969h-1.25L389.936,486.892L389.936,486.892z
		 M393.234,498.288c0.159,0.016,0.303-0.08,0.303-0.32v-4.802h-3.504v-1.185h8.418v1.185h-3.648l0.017,4.978
		c0,0.674-0.4,1.313-1.345,1.313h-1.44l-0.496-1.28L393.234,498.288z M396.402,490.604h-4.595v-1.168h4.595V490.604z
		 M396.42,493.806c1.055,1.138,1.809,2.369,2.512,3.666l-1.088,0.608c-0.608-1.313-1.328-2.449-2.354-3.603L396.42,493.806z"/>
	<path fill="#FFFFFF" d="M409.621,485.339c-0.176,0.176-0.353,0.353-0.496,0.496c1.873,2.369,5.234,4.689,6.674,5.138
		c-0.271,0.448-0.543,0.722-0.799,1.072c-0.594-0.24-1.121-0.448-3.25-2.001c-1.072-0.8-2.385-2.385-3.25-3.409
		c-1.488,1.777-3.057,3.267-6.498,5.604l-0.863-0.96c3.568-2.307,6.338-5.22,7.3-6.739L409.621,485.339z M411.879,499.376
		l-0.018-0.992h-6.771v1.072h-1.281v-5.954h9.363v5.874H411.879L411.879,499.376z M412.455,491.805h-8.035v-1.231h8.018
		L412.455,491.805z M405.107,497.167h6.754l0.018-2.465h-6.771L405.107,497.167L405.107,497.167z"/>
	<path fill="#FFFFFF" d="M419.83,494.318l3.475-0.688v1.072c-1.696,0.399-3.521,0.769-4.817,1.089l-0.562-1.072
		c0.912-0.833,1.969-2.192,2.832-3.152c-0.479,0.063-1.295,0.224-2.287,0.432l-0.545-1.072c0.943-1.297,2.369-3.776,3.347-5.649
		l0.991,0.688c-0.85,1.536-2.241,3.873-2.801,4.689c0.336-0.017,1.328-0.24,2.256-0.305c0.433-0.593,0.851-1.231,1.361-1.969
		l1.008,0.72C422.455,491.229,421.111,493.102,419.83,494.318z M418.629,498.704l-0.688-1.186c2.239-0.672,3.713-1.279,5.811-2.001
		v1.218C421.543,497.6,420.311,498.031,418.629,498.704z M422.439,498.912v-1.104h4.065v-3.28h-2.865v-1.169h6.931v1.169h-2.851
		v3.28h4.275v1.104H422.439z M431.195,493.406c-1.313-1.104-3.025-2.065-3.938-2.417c-1.346,1.279-2.608,1.761-3.985,2.239
		l-0.769-1.023c3.584-1.2,5.266-3.395,6.162-5.074h-5.379v-1.104h6.947v1.023c-0.863,1.553-1.617,2.435-2.146,3.025
		c1.248,0.625,3.01,1.537,3.938,2.48L431.195,493.406z"/>
	<path fill="#FFFFFF" d="M443.051,488.508v-1.151h-3.328v1.119h-1.217v-1.119h-3.922v-1.17h3.971v-0.928h1.168v0.912h3.328v-0.896
		h1.201v0.896h3.938v1.168h-3.953v1.169H443.051L443.051,488.508z M436.057,491.485h-1.184v-2.529h12.996l-0.016,2.561h-1.185
		v-1.393h-10.613L436.057,491.485L436.057,491.485z M445.117,499.536v-0.944h-7.558v0.93h-1.215l0.017-4.835h9.955v4.851
		L445.117,499.536L445.117,499.536z M445.117,495.871h-7.558v1.536h7.558V495.871z M445.133,494.014h-7.539v-3.265h7.523
		L445.133,494.014z M438.826,491.934v0.896h5.074v-0.896H438.826z"/>
	<path fill="#FFFFFF" d="M453.164,492.014c-0.383-0.815-1.279-1.841-2.191-2.369l0.863-0.721c0.912,0.528,1.713,1.345,2.258,2.289
		L453.164,492.014z M451.164,498.672c1.088-1.855,1.52-3.81,1.84-6.019l1.025,0.447c-0.191,1.89-0.816,4.481-1.777,6.083
		L451.164,498.672z M460.4,496.127c0.19-0.736,0.256-1.729,0.256-2.369l-0.017-7.858h3.904v11.877c0,0.447-0.287,1.009-0.703,1.137
		c-0.528,0.16-1.137,0.112-1.746,0.112l-0.367-1.09c0.544,0.032,0.978,0.064,1.313,0c0.24,0.017,0.336-0.176,0.336-0.384
		l0.016-3.218h-1.6c0,1.633-0.594,3.714-1.553,5.314l-0.992-0.802c0.432-0.704,0.863-1.695,1.055-2.367l-2.465-0.018v2.913h-1.184
		v-2.896l-2.722-0.018v-1.12h2.722v-1.265h-2.033v-5.442l1.969-0.016l-0.016-1.009h-2.226c0.031,0.063,0.08,0.16,0.146,0.288
		l-0.945,0.769c-0.432-0.944-1.457-1.729-2.305-2.225l0.832-0.802c0.848,0.448,1.762,1.218,2.129,1.793l0.016-0.961h2.354v-1.407
		l1.231,0.016l-0.016,1.393h2.416v1.121l-2.416,0.017v1.009h2.016v5.458h-1.969v1.248l2.578,0.017L460.4,496.127z M455.807,492.941
		h2.816v-1.072h-2.834L455.807,492.941z M455.807,489.756v0.993l2.802,0.016v-1.009H455.807z M461.793,487.035v2.465h1.584
		l0.016-2.48L461.793,487.035z M461.793,490.637v2.577h1.6l-0.016-2.577H461.793z"/>
	<path fill="#FFFFFF" d="M475.635,493.822l-0.11,0.304c1.854,1.009,3.889,2.354,5.426,4.386c-0.385,0.256-0.656,0.514-1.072,0.77
		c-1.328-1.905-3.17-3.201-4.883-4.162c-1.457,2.272-3.953,3.568-6.578,4.21l-0.609-1.152c1.843-0.433,3.441-1.089,4.818-2.209
		c0.785-0.641,1.393-1.457,1.666-2.145h-6.74v-1.169h7.14c0.272-0.832,0.399-1.744,0.399-2.817v-4.754h1.217v5.442
		c0,1.345-0.239,1.809-0.319,2.129h5.188v1.169L475.635,493.822L475.635,493.822z M471.105,492.237
		c-0.562-1.12-1.488-1.984-2.546-2.625l0.769-0.864c1.121,0.576,2.209,1.633,2.736,2.593L471.105,492.237z M472.529,489.372
		c-0.593-1.072-1.537-1.938-2.576-2.577l0.783-0.849c1.071,0.513,2.018,1.425,2.674,2.48L472.529,489.372z"/>
	<path fill="#FFFFFF" d="M490.469,494.847l-0.465-0.593c0.754-0.336,0.961-0.944,0.961-1.584H490.1v-1.761h1.763v1.681
		C491.861,493.134,491.67,494.286,490.469,494.847z"/>
	<path fill="#FFFFFF" d="M501.078,496.095c0.656-0.368,1.168-0.592,1.568-0.849v-9.171l1.297,0.016v8.437
		c1.121-0.576,2.385-1.36,3.856-2.209v1.407c-1.344,0.77-2.641,1.506-3.906,2.273c-0.512,0.304-1.038,0.656-1.647,1.008
		L501.078,496.095z M504.76,498.08c2.017-1.024,3.81-2.609,4.898-4.482c0.592-1.279,1.022-2.545,1.119-4.018
		c0.08-1.12,0.112-2.449,0.145-4.033h1.313c-0.13,3.121,0.063,5.812-1.298,8.451c0.945,0.561,3.011,2.48,3.777,3.953l-1.039,0.865
		c-1.01-1.745-2.227-2.897-3.379-3.729c-1.055,1.44-2.672,2.913-4.77,4.129L504.76,498.08z M508.217,490.797
		c-0.928-1.2-2.033-1.953-3.377-2.529l0.848-0.88c0.689,0.225,1.267,0.624,1.794,0.944c0.512,0.32,1.104,0.944,1.602,1.408
		L508.217,490.797z"/>
	<path fill="#FFFFFF" d="M520.617,489.164c-0.433,1.297-1.535,2.417-2.433,3.297l-0.944-0.864c0.944-0.784,1.824-1.729,2.498-3.023
		L520.617,489.164z M519.625,487.947c-0.688-0.992-1.264-1.424-2.033-1.921l0.736-0.736c0.721,0.305,1.713,1.009,2.193,1.713
		L519.625,487.947z M517.592,498.176c2.338-0.145,3.906-0.096,5.314-1.633c0.561-0.752,0.576-1.585,0.672-2.913l1.154-0.016
		c-0.05,1.601-0.179,3.249-1.49,4.272c-1.439,1.138-3.232,1.328-5.09,1.456L517.592,498.176z M528.125,491.965v4.994h-1.201v-3.842
		h-5.521v3.826h-1.218v-4.979h0.705l-0.495-0.704c1.534-0.432,2.655-0.815,3.567-1.585c0.576-0.479,0.928-1.04,1.248-1.92
		l1.121,0.256l-0.207,0.624c1.264,1.745,2.912,2.241,5.01,2.801l-0.834,1.024c-1.711-0.432-3.567-1.408-4.721-2.785
		c-0.641,1.041-2.4,2.033-3.922,2.258L528.125,491.965z M527.854,488.731c0.447-0.513,0.673-0.992,0.783-1.328h-4.674
		c-0.465,0.863-1.377,1.695-2.354,2.368l-0.816-0.943c1.393-0.816,2.338-2.209,2.818-3.714l1.071,0.385
		c-0.063,0.224-0.209,0.512-0.271,0.704h5.506c0.096,1.521-0.496,2.337-0.977,3.121L527.854,488.731z M529.262,499.504
		c-1.36-0.896-3.217-1.521-4.979-1.889l0.561-1.04c1.664,0.336,3.457,0.849,5.025,1.809L529.262,499.504z"/>
	<path fill="#FFFFFF" d="M533.275,495.566c2.657-1.696,4.563-4.113,5.395-6.724h-4.449v-1.217l5.777,0.017v-2.496h1.25l-0.018,2.496
		l5.715-0.017v1.217h-4.273c0.705,2.817,2.945,5.234,5.234,6.579l-0.865,1.024c-4.129-3.121-4.689-4.834-5.777-7.795l-0.032,5.682
		h3.09v1.2l-3.072-0.017l-0.018,3.938h-1.218l-0.016-3.938l-3.168,0.017v-1.2l3.168,0.017v-5.697
		c-1.104,3.488-2.977,5.89-5.729,7.875L533.275,495.566z"/>
	<path fill="#FFFFFF" d="M558.195,497.823c0.752,0.128,1.328,0.368,1.969,0.353c0.191-0.048,0.385-0.128,0.432-0.305
		c0.416-1.344,0.642-4.609,0.705-7.906h-4.211c-0.031,2.417-0.543,4.817-2.016,6.771c-0.832,1.12-2.435,2.177-3.555,2.688
		l-0.832-1.072c2.112-0.735,4.032-2.561,4.594-4.577c0.354-1.248,0.641-2.562,0.592-3.825h-5.426v-1.12h5.426v-3.683
		c0.449-0.016,0.736-0.031,1.217-0.031v3.696l5.428,0.018c-0.145,3.041-0.098,6.45-0.705,9.283
		c-0.079,0.399-0.385,0.815-0.801,1.041c-0.479,0.319-1.231,0.224-2.625-0.08L558.195,497.823z M553.809,488.62
		c-0.383-0.978-1.104-1.553-2.032-2.193l0.993-0.752c0.832,0.624,1.554,1.248,2.08,2.129L553.809,488.62z M559.299,495.679
		c-0.352-1.313-1.151-2.305-2.113-3.346l1.011-0.592c1.008,0.992,1.696,2.001,2.192,3.266L559.299,495.679z"/>
	<path fill="#FFFFFF" d="M572.293,492.941v1.089c-1.248,0.304-3.217,0.8-4.818,1.296l-0.575-1.072
		c0.961-0.96,1.809-1.937,2.272-2.657c-0.145,0.032-1.072,0.257-1.729,0.48l-0.609-1.104c0.785-1.248,1.922-3.729,2.689-5.714
		l1.088,0.496c-0.513,1.376-1.713,3.811-2.32,4.866c0.256-0.032,1.168-0.225,1.68-0.337c0.354-0.528,0.689-1.186,1.074-1.921
		l1.119,0.513c-0.721,1.36-1.873,3.457-3.313,4.834L572.293,492.941z M566.93,497.231c1.922-0.624,3.826-1.232,5.699-1.873v1.185
		l-5.104,1.793L566.93,497.231z M571.492,498.752V497.6l2.434-0.017l0.353-5.025h-2.354v-1.151l2.418-0.018l0.24-4.258h-2.258
		v-1.152l7.219,0.018l-0.688,11.604h1.424v1.152H571.492z M575.158,497.6l2.432-0.017l0.32-5.025l-2.432,0.017L575.158,497.6z
		 M578.246,487.131h-2.447l-0.272,4.274l2.465-0.018L578.246,487.131z"/>
	<path fill="#FFFFFF" d="M587.352,489.725h-1.137v-1.568h-3.01v-1.12h2.994v-1.616h1.151v1.602h2.019v-1.89h1.168v1.904h2.049
		v-1.602l1.121-0.016v1.601h3.072v1.12h-3.072v1.568h-1.105v-1.568h-2.049v1.648h-1.184v-1.648h-2.019L587.352,489.725
		L587.352,489.725z M583.463,490.028h12.98v3.232h-1.138v-2.112h-10.659v2.129h-1.185L583.463,490.028L583.463,490.028z
		 M585.494,492.558h3.795v-1.12h1.217v1.12l3.904,0.017v4.29c0,0.416-0.256,0.815-0.656,0.943c-0.592,0.208-1.248,0.128-1.904,0.112
		l-0.319-1.152c0.655,0.063,1.008,0.097,1.457,0.111c0.19,0,0.271-0.063,0.271-0.191v-3.01h-2.77l-0.017,5.65
		c-0.416-0.048-0.735,0.016-1.168-0.017v-5.617l-2.688-0.018v4.45h-1.121V492.558L585.494,492.558z"/>
	<path fill="#FFFFFF" d="M599.002,492.621c1.984-2.465,3.041-5.298,3.633-7.684l1.217,0.48c-0.352,1.473-0.721,2.656-1.2,3.761
		v10.324h-1.232v-8.099c-0.352,0.64-0.752,1.151-1.424,1.969L599.002,492.621z M602.764,498.607
		c1.008-1.072,1.554-2.178,1.648-3.602c0.063-0.896,0.143-1.856,0.111-2.865l1.264,0.16c0,1.12-0.08,2.098-0.158,3.041
		c0.607,0.77,1.424,1.328,2.08,1.633v-6.051h-3.41v-5.09h8.021v5.09h-3.347v2.465h4.002v1.2h-4.002v2.754
		c1.41,0.191,3.396,0.225,5.091,0.08l-0.433,1.216c-1.776,0.08-3.983,0.178-5.57-0.288c-1.071-0.319-1.84-0.8-2.672-1.713
		c-0.258,1.009-0.864,2.019-1.633,2.737L602.764,498.607z M611.086,489.74v-2.722h-5.555v2.722H611.086z"/>
	<path fill="#FFFFFF" d="M629.713,498.688h-6.563c-1.729,0-3.218-0.672-4.259-1.84c-0.495,0.688-1.553,1.553-2.465,2.128
		l-0.848-0.848c0.912-0.545,1.938-1.329,2.834-2.369v-4.321h-2.402v-1.137h3.57v5.714c0.463,0.514,1.953,1.505,3.393,1.568
		c3.041,0.129,5.41-0.048,7.188-0.128L629.713,498.688z M618.957,488.972c-0.561-1.088-1.713-2.337-2.48-2.801l0.863-0.752
		c0.93,0.64,1.73,1.393,2.609,2.753L618.957,488.972z M625.809,487.899v-2.594h1.199v2.594h1.969v1.137h-1.969v2.465h2.609v1.152
		h-2.625v4.546h-1.168v-4.578l-2.289,0.017c-0.017,1.856-0.176,3.121-1.729,4.466l-0.977-0.863c1.104-0.881,1.457-1.762,1.521-3.603
		h-2.467v-1.137h2.482v-2.481h-2.129v-1.136h2.096v-2.577h1.232v2.594L625.809,487.899L625.809,487.899z M623.566,491.501h2.258
		v-2.465h-2.258V491.501z"/>
	<path fill="#FFFFFF" d="M636.225,489.164c-0.432,1.297-1.534,2.417-2.432,3.297l-0.945-0.864c0.945-0.784,1.824-1.729,2.498-3.023
		L636.225,489.164z M635.232,487.947c-0.688-0.992-1.265-1.424-2.033-1.921l0.735-0.736c0.722,0.305,1.714,1.009,2.193,1.713
		L635.232,487.947z M633.199,498.176c2.338-0.145,3.906-0.096,5.313-1.633c0.562-0.752,0.576-1.585,0.672-2.913l1.154-0.016
		c-0.049,1.601-0.178,3.249-1.49,4.272c-1.438,1.138-3.231,1.328-5.09,1.456L633.199,498.176z M643.732,491.965v4.994h-1.201v-3.842
		h-5.521v3.826h-1.217v-4.979h0.705l-0.496-0.704c1.535-0.432,2.656-0.815,3.568-1.585c0.576-0.479,0.928-1.04,1.248-1.92
		l1.121,0.256l-0.207,0.624c1.264,1.745,2.912,2.241,5.01,2.801l-0.834,1.024c-1.711-0.432-3.568-1.408-4.721-2.785
		c-0.642,1.041-2.4,2.033-3.923,2.258L643.732,491.965z M643.461,488.731c0.447-0.513,0.672-0.992,0.783-1.328h-4.674
		c-0.465,0.863-1.377,1.695-2.354,2.368l-0.815-0.943c1.393-0.816,2.338-2.209,2.817-3.714l1.072,0.385
		c-0.064,0.224-0.209,0.512-0.271,0.704h5.506c0.096,1.521-0.496,2.337-0.978,3.121L643.461,488.731z M644.869,499.504
		c-1.361-0.896-3.217-1.521-4.979-1.889l0.562-1.04c1.664,0.336,3.457,0.849,5.024,1.809L644.869,499.504z"/>
</g>
</svg>
