<?xml version="1.0" encoding="utf-8"?>
<!-- Generator: Adobe Illustrator 16.0.0, SVG Export Plug-In . SVG Version: 6.00 Build 0)  -->
<!DOCTYPE svg PUBLIC "-//W3C//DTD SVG 1.1//EN" "http://www.w3.org/Graphics/SVG/1.1/DTD/svg11.dtd">
<svg version="1.1" id="Layer_1" xmlns="http://www.w3.org/2000/svg" xmlns:xlink="http://www.w3.org/1999/xlink" x="0px" y="0px"
	 width="768px" height="1024px" viewBox="0 0 768 1024" enable-background="new 0 0 768 1024" xml:space="preserve">
<g>
	<path fill="#FFFFFF" d="M122.763,510.861c-0.513-0.896-1.265-1.682-2.257-2.113l0.848-0.816c0.944,0.448,1.697,1.233,2.306,2.129
		L122.763,510.861z M124.028,512.142c-0.448,2.45-1.121,4.354-2.434,6.1l-1.088-0.672c1.376-1.584,2.16-4.05,2.337-5.907
		L124.028,512.142z M122.139,504.795c1.056,0.448,1.841,1.456,2.272,2.112l-0.944,0.769c-0.433-0.96-1.248-1.633-2.192-2.097
		L122.139,504.795z M133.583,507.292v5.65h-2.705v4.32c0,0.832-0.353,1.41-1.104,1.41h-1.537l-0.416-1.201l1.232,0.064
		c0.368,0.016,0.561-0.176,0.561-0.48v-4.113h-2.785v-5.65h2.449c0.192-0.353,0.336-0.769,0.4-1.104h-3.762v6.627
		c0,2.145-0.593,4.081-1.809,5.891l-1.169-0.688c1.185-1.745,1.761-3.635,1.761-5.716v-7.283l9.748-0.016l0.016,1.186h-3.602
		c-0.079,0.304-0.208,0.769-0.319,1.104H133.583L133.583,507.292z M125.356,516.527c1.217-0.863,2.113-1.937,2.513-3.265
		l1.089,0.543c-0.496,1.248-1.553,2.625-2.593,3.521L125.356,516.527z M132.383,508.46h-4.354l0.017,0.913h4.338L132.383,508.46
		L132.383,508.46z M132.383,510.541h-4.338v1.232h4.338V510.541z M132.591,513.264c1.136,0.976,1.681,2.146,2.24,3.408l-1.088,0.656
		c-0.225-0.896-1.057-2.625-2.257-3.537L132.591,513.264z"/>
	<path fill="#FFFFFF" d="M139.679,516.752l0.016-2.145l1.2-0.017v2.176h2.625v-2.864h-5.49l0.017-1.138h12.421v1.138h-5.746v0.785
		h4.994v1.12h-4.994v0.959h6.658v1.105h-14.31v-1.121L139.679,516.752L139.679,516.752z M150.74,512.83
		c-1.249-0.4-2.241-0.896-3.042-1.633c-0.736,0.527-1.616,1.057-2.641,1.505l-0.608-0.912c1.024-0.417,1.761-0.864,2.481-1.457
		c-0.353-0.528-0.561-0.96-0.769-1.488l-0.593,0.912l-0.88-0.479l0.016,0.801h-2.017c0.769,0.271,1.393,0.656,2.081,1.216
		l-0.753,0.896c-0.527-0.528-1.393-0.96-1.937-1.186v1.633l-1.185-0.016v-2.273c-0.384,0.865-1.696,1.905-3.121,2.449l-0.561-0.992
		c1.297-0.464,2.098-1.071,2.594-1.745h-1.633l-0.017-3.023h2.77v-0.513h-3.457v-1.138h3.441l0.016-1.136h1.185l-0.016,1.136h3.377
		v1.138h-3.377v0.513h2.593v1.937c1.12-1.616,1.505-2.978,1.841-4.834l1.232,0.353c-0.176,0.656-0.353,1.297-0.48,1.697l3.666-0.018
		v1.137h-0.913c-0.096,0.272-0.191,0.674-0.319,1.09c-0.257,0.769-0.688,1.473-1.169,2.001c0.353,0.495,1.984,1.313,2.785,1.504
		L150.74,512.83z M139.294,508.141l0.017,0.832h1.601l-0.017-0.832H139.294z M142.08,510.333l0.208-0.256h-0.208V510.333z
		 M143.537,508.141h-1.44v0.832h1.44V508.141z M146.898,507.308c-0.032,0.049-0.048,0.178-0.08,0.288
		c0.32,0.833,0.608,1.521,0.928,1.938c0.4-0.465,0.929-1.474,1.089-2.227H146.898L146.898,507.308z"/>
	<path fill="#FFFFFF" d="M161.892,504.539c-0.177,0.176-0.353,0.352-0.496,0.496c1.872,2.369,5.233,4.688,6.674,5.138
		c-0.271,0.448-0.544,0.721-0.8,1.072c-0.593-0.24-1.12-0.448-3.249-2.001c-1.073-0.8-2.386-2.385-3.25-3.409
		c-1.488,1.777-3.057,3.266-6.498,5.603l-0.864-0.96c3.569-2.306,6.338-5.219,7.299-6.738L161.892,504.539z M164.149,518.576
		l-0.017-0.992h-6.771v1.072h-1.28v-5.954h9.363v5.874H164.149L164.149,518.576z M164.725,511.005h-8.035v-1.231h8.019
		L164.725,511.005z M157.378,516.367h6.754l0.017-2.465h-6.771V516.367z"/>
	<path fill="#FFFFFF" d="M176.678,514.047l-0.464-0.592c0.752-0.337,0.961-0.945,0.961-1.585h-0.865v-1.761h1.761v1.681
		C178.071,512.334,177.879,513.486,176.678,514.047z"/>
	<path fill="#FFFFFF" d="M187.288,515.295c0.656-0.367,1.169-0.592,1.569-0.848v-9.172l1.296,0.016v8.436
		c1.121-0.575,2.385-1.359,3.857-2.209v1.408c-1.344,0.771-2.641,1.506-3.905,2.273c-0.512,0.305-1.04,0.655-1.648,1.008
		L187.288,515.295z M190.969,517.281c2.017-1.025,3.81-2.609,4.898-4.483c0.592-1.28,1.024-2.545,1.12-4.018
		c0.08-1.12,0.112-2.449,0.145-4.033h1.313c-0.129,3.121,0.063,5.811-1.297,8.451c0.944,0.562,3.009,2.48,3.777,3.954l-1.04,0.864
		c-1.009-1.745-2.226-2.897-3.378-3.729c-1.056,1.441-2.673,2.914-4.77,4.129L190.969,517.281z M194.427,509.997
		c-0.929-1.2-2.033-1.953-3.378-2.529l0.849-0.88c0.688,0.225,1.265,0.624,1.793,0.944c0.512,0.318,1.104,0.943,1.601,1.408
		L194.427,509.997z"/>
	<path fill="#FFFFFF" d="M214.223,518.594l-1.201,0.017v-0.896h-5.378l-0.016,0.928l-1.201,0.017v-5.09
		c-0.864,0.225-2,0.399-2.865,0.512l-0.607-1.152c2.385-0.256,4.481-0.704,6.227-1.473c-0.753-0.544-1.265-1.024-1.713-1.504
		c-0.545,0.624-1.36,1.185-2.129,1.744l-1.057-0.769c1.825-1.057,3.073-2.354,3.697-3.826l1.024,0.4
		c-0.08,0.352-0.256,0.656-0.288,0.736h5.49l-0.016,1.057c-0.736,0.96-1.761,1.761-2.513,2.225c1.584,0.801,3.665,1.072,5.97,1.232
		l-0.528,1.248c-2.545-0.383-5.202-0.992-6.643-1.81c-1.137,0.562-2.688,1.105-3.81,1.298l7.556,0.032L214.223,518.594
		L214.223,518.594z M209.821,505.867c-0.208-0.176-0.704-0.688-1.473-0.96l1.217-0.785c1.425,0.673,1.761,1.665,1.809,1.729
		l5.138,0.017v3.169l-1.232-0.017l0.017-1.983h-9.988v2.032l-1.2-0.017v-3.186L209.821,505.867L209.821,505.867z M213.006,514.688
		h-5.362v1.857h5.378L213.006,514.688z M208.621,509.404c0.448,0.496,1.024,1.057,1.809,1.44c0.784-0.417,1.488-0.929,1.984-1.44
		H208.621z"/>
	<path fill="#FFFFFF" d="M231.203,511.854v-0.655h-8.163c0.048,3.569-0.416,5.522-2.257,7.442l-1.104-0.862
		c1.648-1.427,2.129-3.201,2.129-5.203v-5.843h5.138c-0.192-0.465-0.977-1.168-1.969-1.842l0.896-0.783
		c0.736,0.561,1.713,1.265,2.385,2.209l-0.528,0.367l4.69,0.049v5.122L231.203,511.854L231.203,511.854z M231.203,507.884h-8.18
		v2.161h8.18V507.884z"/>
	<path fill="#FFFFFF" d="M244.405,517.023c0.752,0.129,1.329,0.368,1.969,0.354c0.192-0.049,0.385-0.129,0.433-0.305
		c0.416-1.344,0.64-4.61,0.704-7.907h-4.21c-0.032,2.417-0.544,4.817-2.017,6.771c-0.832,1.121-2.433,2.179-3.554,2.689
		l-0.832-1.072c2.112-0.735,4.033-2.561,4.594-4.578c0.353-1.249,0.641-2.562,0.592-3.825h-5.426v-1.12h5.426v-3.683
		c0.448-0.016,0.736-0.031,1.217-0.031v3.696l5.427,0.018c-0.145,3.041-0.097,6.449-0.705,9.284c-0.08,0.399-0.384,0.815-0.8,1.041
		c-0.48,0.319-1.232,0.223-2.625-0.08L244.405,517.023z M240.019,507.82c-0.384-0.978-1.104-1.554-2.033-2.193l0.993-0.752
		c0.832,0.624,1.553,1.248,2.08,2.129L240.019,507.82z M245.509,514.879c-0.353-1.313-1.152-2.305-2.113-3.346l1.009-0.592
		c1.009,0.991,1.696,2.001,2.193,3.266L245.509,514.879z"/>
	<path fill="#FFFFFF" d="M253.957,514.383v-7.091h5.234l-0.016-2.93h1.28l-0.032,2.913l5.218,0.017v7.026h-1.265v-1.088h-3.953
		l0.032,5.395h-1.265l-0.016-5.395h-3.922l-0.032,1.151L253.957,514.383L253.957,514.383z M259.175,508.46h-3.954v3.618h3.97
		L259.175,508.46z M264.345,508.46h-3.89v3.603h3.905L264.345,508.46z"/>
	<path fill="#FFFFFF" d="M269.032,514.734c1.04-1.744,1.921-3.409,2.305-5.441l1.121,0.464c-0.385,2.049-1.073,3.538-2.321,5.571
		L269.032,514.734z M274.667,508.141l0.016,7.812c0.048,0.176,0.32,0.479,0.592,0.528h2.497c0.257-0.032,0.496-0.159,0.608-0.416
		c0.272-0.864,0.48-1.745,0.656-2.801l1.249,0.447c-0.305,1.137-0.48,2.178-0.961,3.121c-0.288,0.576-0.88,0.881-1.505,0.881
		l-2.561-0.016c-0.832,0-1.841-0.449-1.841-1.617v-7.924L274.667,508.141z M277.339,509.356c-0.944-1.474-2.273-2.913-3.842-3.857
		c0.464-0.272,0.704-0.528,1.104-0.736c1.488,1.01,2.849,2.401,3.81,3.938L277.339,509.356z M282.542,515.055
		c-0.801-1.921-1.761-3.665-3.281-5.25c0.432-0.224,0.688-0.399,1.088-0.561c1.521,1.537,2.465,3.33,3.361,5.219L282.542,515.055z"
		/>
	<path fill="#FFFFFF" d="M288.459,516.592c0.769,0.209,1.521,0.512,1.953,0.48c0.144-0.031,0.288-0.146,0.368-0.271
		c0.288-0.496,0.528-2.658,0.56-4.931h-2.08c-0.257,2.368-0.929,4.737-2.594,6.739l-1.04-0.882c1.345-1.424,1.921-3.137,2.272-4.865
		c0.305-1.505,0.209-3.011,0.24-4.53h-1.776v-1.152h6.946v1.152h-3.985v2.321l3.298,0.016c-0.08,2.193-0.192,3.522-0.48,5.556
		c-0.128,0.8-0.288,1.695-1.12,1.937c-0.785,0.225-1.537-0.127-2.337-0.224L288.459,516.592z M288.62,504.122
		c0.896,0.465,2.033,1.697,2.497,2.354l-1.089,0.642c-0.607-0.945-1.393-1.713-2.48-2.193L288.62,504.122z M299.28,518.625
		c-0.8-0.529-2.385-1.744-3.009-2.785c-0.801,0.978-1.857,1.938-3.121,2.721l-0.913-0.896c1.409-0.816,2.497-1.824,3.361-2.93
		c-0.64-1.455-1.072-2.642-1.152-3.585c-0.144,0.239-0.48,0.96-0.784,1.359l-1.04-0.607c1.568-2.272,2.017-4.897,2.032-7.795
		l1.232,0.288c-0.048,1.089-0.144,2.177-0.24,3.024h4.019l-0.017,1.137h-0.929c-0.111,2.112-0.625,4.354-1.697,6.162
		c0.625,1.152,1.793,2.273,3.169,2.898L299.28,518.625z M295.407,508.557l-0.208,0.721c0.256,1.521,0.496,2.85,1.136,4.21
		c0.704-1.616,1.121-3.281,1.185-4.931H295.407z"/>
	<path fill="#FFFFFF" d="M303.55,509.453v-1.233h4.994c0.128-1.151,0.146-2.527,0.112-4.032c0.496,0.111,0.815,0.111,1.297,0.191
		c0.031,1.408,0.016,2.705-0.08,3.841h5.729l0.018,1.233h-4.706c0.641,3.393,1.873,5.779,5.426,7.859l-0.864,0.961
		c-3.488-2.113-5.09-4.435-5.729-8.82c-0.865,4.402-2.529,6.771-6.067,8.74l-0.912-1.105c3.475-1.633,5.122-4.594,5.666-7.635
		H303.55z"/>
	<path fill="#FFFFFF" d="M321.475,507.916h1.97v1.2h-1.953v9.429h-1.217v-9.412h-1.536v-1.217h1.521v-3.634h1.217L321.475,507.916
		L321.475,507.916z M325.38,510.573c-0.288,1.359-0.896,2.497-1.793,3.603c-0.384-0.24-0.672-0.385-1.04-0.674
		c0.85-1.072,1.456-2.097,1.776-3.409L325.38,510.573z M331.495,510.205c0.864,1.04,1.425,2.177,1.601,3.521
		c-0.384,0.209-0.672,0.306-1.104,0.513c-0.271-1.186-0.607-2.129-1.04-2.816c-0.16,2.019-0.4,4.129-0.752,5.842
		c-0.112,0.545-0.688,1.058-1.232,1.138c-0.705,0.096-1.36-0.08-2.049-0.24l-0.097-1.264c0.753,0.127,1.297,0.416,1.809,0.271
		c0.257-0.225,0.354-0.561,0.434-0.912c0.447-1.824,0.672-5.569,0.703-7.764h-2.08c-0.031,0.16-0.017,0.464-0.017,0.816
		c-0.032,1.104-0.08,2.385-0.336,3.44c-0.576,2.305-1.521,4.066-3.698,5.826l-0.88-0.959c1.505-1.17,2.593-2.625,3.105-4.228
		c0.479-1.536,0.624-3.28,0.576-4.865h-2.705v-1.232h2.705l0.016-3.041l1.185-0.017c0.064,0.961,0.018,2.594,0.018,3.058h3.345
		c0.064,1.266,0.032,2.385-0.032,3.153L331.495,510.205z"/>
	<path fill="#FFFFFF" d="M344.873,517.072c0.768,0,1.889-0.049,2.129-0.129c0.16-0.08,0.271-0.416,0.271-0.72l0.017-10.054
		l-9.7-0.016v12.63h-1.265V504.97h12.229l0.017,11.511c0,0.735-0.288,1.487-0.722,1.713c-0.432,0.159-2.017,0.223-2.545,0.19
		L344.873,517.072z M346.777,507.9l0.017,1.185h-8.452l0.018-1.185H346.777z M345.481,510.813v4.836h-6.083v-4.819L345.481,510.813z
		 M340.615,514.463h3.665v-2.449l-3.665,0.017V514.463z"/>
	<path fill="#FFFFFF" d="M352.056,517.6c1.554-0.912,2.961-2.063,3.649-3.487c-0.544-0.545-1.345-1.105-2.161-1.537l0.896-0.736
		c0.703,0.353,1.425,0.832,1.793,1.152c0.208-0.464,0.432-1.12,0.641-1.905l1.072,0.354c-0.146,0.801-0.48,1.842-0.77,2.385
		c0.736,0.736,1.408,1.729,2.081,2.754l-1.089,0.768c-0.4-0.896-1.04-1.76-1.553-2.352c-0.864,1.473-2.209,2.672-3.811,3.633
		L352.056,517.6z M352.072,511.357c1.345-1.09,1.841-2.033,2.289-3.218l1.057,0.399c-0.561,1.569-1.104,2.465-2.321,3.648
		L352.072,511.357z M359.355,506.716v1.186h-6.979v-1.186l3.345-0.017c-0.336-0.576-1.008-1.265-1.889-1.856l0.993-0.688
		c0.832,0.576,1.601,1.425,2.128,2.226l-0.447,0.304L359.355,506.716z M358.378,511.197c-0.464-1.008-1.024-1.776-2.049-2.48
		l1.023-0.625c0.944,0.736,1.634,1.537,2.113,2.643L358.378,511.197z M365.326,518.609c-1.041-0.752-2.193-1.938-2.851-2.914
		c-0.624,0.815-1.823,2.033-3.057,2.897l-0.944-0.85c1.36-0.928,2.594-1.984,3.329-3.152c-0.641-1.217-0.943-2.29-1.185-3.347
		c-0.272,0.528-0.544,1.023-1.04,1.713c-0.385-0.192-0.688-0.368-1.073-0.576c1.313-1.775,1.969-3.682,2.129-5.777
		c0.064-0.736,0.112-1.474,0.112-2.369c0.433,0.063,0.736,0.063,1.12,0.191c0.049,1.024-0.048,2.129-0.145,2.993h4.113v1.152h-0.96
		c-0.112,2.145-0.673,4.272-1.713,6.051c0.688,1.152,1.729,2.24,3.089,3.057L365.326,518.609z M361.372,509.276
		c0.225,1.169,0.736,3.218,1.152,4.019c0.625-1.137,1.057-3.026,1.089-4.723h-2.081L361.372,509.276z"/>
	<path fill="#FFFFFF" d="M368.204,517.68c1.393-1.215,1.921-2.832,2.033-4.448c0.128-1.697,0.144-4.259,0.128-6.611h5.842
		c-0.208-0.479-0.832-1.072-1.568-1.584l0.85-0.801c0.832,0.447,1.567,1.169,2.049,1.953l-0.416,0.432h5.153v1.121h-10.708
		c-0.032,1.841,0,4.608-0.208,6.194c-0.257,2.017-0.944,3.152-2.209,4.595L368.204,517.68z M382.322,517.873h-11.317l0.018-1.137
		h6.755c1.184-1.938,2.111-4.995,2.367-7.685l1.152,0.4c-0.288,3.201-1.28,5.922-2.16,7.283h3.187L382.322,517.873L382.322,517.873z
		 M374.254,516.064c-0.625-3.042-1.409-3.986-2.497-5.539l1.088-0.514c1.297,1.633,2.161,3.378,2.577,5.362L374.254,516.064z
		 M375.615,508.668c1.104,1.441,1.937,3.49,2.177,5.33l-1.185,0.578c-0.225-1.842-0.944-3.73-2.001-5.38L375.615,508.668z"/>
	<path fill="#FFFFFF" d="M391.377,514.047l-0.465-0.592c0.754-0.337,0.961-0.945,0.961-1.585h-0.865v-1.761h1.762v1.681
		C392.77,512.334,392.578,513.486,391.377,514.047z"/>
	<path fill="#FFFFFF" d="M410.934,517.072c0.769,0,1.89-0.049,2.129-0.129c0.16-0.08,0.271-0.416,0.271-0.72l0.018-10.054
		l-9.7-0.016v12.63h-1.265V504.97h12.229l0.016,11.511c0,0.735-0.287,1.487-0.721,1.713c-0.433,0.159-2.017,0.223-2.545,0.19
		L410.934,517.072z M412.838,507.9l0.019,1.185h-8.453l0.018-1.185H412.838z M411.543,510.813v4.836h-6.084v-4.819L411.543,510.813z
		 M406.676,514.463h3.666v-2.449l-3.666,0.017V514.463z"/>
	<path fill="#FFFFFF" d="M417.67,514.734c1.039-1.744,1.92-3.409,2.305-5.441l1.121,0.464c-0.385,2.049-1.073,3.538-2.321,5.571
		L417.67,514.734z M423.305,508.141l0.017,7.812c0.047,0.176,0.319,0.479,0.592,0.528h2.496c0.258-0.032,0.496-0.159,0.608-0.416
		c0.271-0.864,0.48-1.745,0.656-2.801l1.248,0.447c-0.305,1.137-0.479,2.178-0.961,3.121c-0.287,0.576-0.879,0.881-1.504,0.881
		l-2.561-0.016c-0.832,0-1.843-0.449-1.843-1.617v-7.924L423.305,508.141z M425.977,509.356c-0.942-1.474-2.272-2.913-3.842-3.857
		c0.465-0.272,0.705-0.528,1.105-0.736c1.487,1.01,2.848,2.401,3.809,3.938L425.977,509.356z M431.18,515.055
		c-0.801-1.921-1.762-3.665-3.28-5.25c0.432-0.224,0.688-0.399,1.088-0.561c1.52,1.537,2.465,3.33,3.36,5.219L431.18,515.055z"/>
	<path fill="#FFFFFF" d="M443.965,517.072c0.769,0,1.889-0.049,2.129-0.129c0.16-0.08,0.271-0.416,0.271-0.72l0.016-10.054
		l-9.699-0.016v12.63h-1.266V504.97h12.23l0.016,11.511c0,0.735-0.289,1.487-0.721,1.713c-0.433,0.159-2.019,0.223-2.546,0.19
		L443.965,517.072z M445.869,507.9l0.016,1.185h-8.451l0.017-1.185H445.869z M444.572,510.813v4.836h-6.082v-4.819L444.572,510.813z
		 M439.707,514.463h3.664v-2.449l-3.664,0.017V514.463z"/>
	<path fill="#FFFFFF" d="M450.604,512.396c1.603-1.327,2.705-2.881,3.57-4.608l1.104,0.624c-0.386,0.784-0.783,1.457-1.201,2.064
		v8.229h-1.199v-6.835c-0.289,0.336-0.736,0.848-1.328,1.313L450.604,512.396z M450.988,508.3c1.328-1.231,2.319-2.721,3.024-4.129
		l1.058,0.544c-0.576,1.345-2.002,3.377-3.043,4.321L450.988,508.3z M454.156,516.721c0.944-0.608,1.633-1.473,2.129-2.465
		l0.93,0.703c-0.512,0.977-1.201,1.984-2.225,2.609L454.156,516.721z M459.551,513.551c0.576,0.385,1.347,1.072,1.826,1.873
		l-0.93,0.607c-0.496-0.769-1.279-1.504-1.89-1.89l0.771-0.575l-4.517-0.031v-1.153h10.037v1.169H459.551z M464.178,511.646
		l-8.725,0.016l0.016-4.049l3.396,0.016c0.096-0.208,0.256-0.721,0.305-0.96h-4.162l0.017-1.185l4.387,0.016
		c0.063-0.304,0.078-0.752,0.078-1.297l1.186,0.08c0.031,0.479-0.049,0.961-0.08,1.231h4.082v1.169l-4.272-0.016
		c-0.064,0.432-0.226,0.864-0.259,0.96h4.035v4.019H464.178z M456.623,508.797v1.712l1.344-0.016l0.017-1.696H456.623z
		 M462.832,515.984c-0.191,1.039-0.832,1.983-1.393,1.983h-2.736c-0.769-0.096-1.248-0.641-1.248-1.057v-2.385h1.232v1.92
		c0,0.272,0.11,0.354,0.271,0.369h2.113c0.385-0.226,0.512-0.705,0.703-1.248L462.832,515.984z M459.15,508.797v1.696h1.297v-1.696
		H459.15z M461.664,510.461l1.328,0.017v-1.681h-1.344L461.664,510.461z M464.338,517.537c-0.479-1.072-1.217-1.922-2.193-2.705
		l1.104-0.561c0.914,0.735,1.65,1.647,2.162,2.704L464.338,517.537z"/>
	<path fill="#FFFFFF" d="M475.09,513.086c-0.367-0.607-1.231-1.633-1.951-2.257l0.896-0.896c0.834,0.625,1.666,1.409,2.192,2.05
		L475.09,513.086z"/>
	<path fill="#FFFFFF" d="M493.51,517.072c0.769,0,1.89-0.049,2.129-0.129c0.16-0.08,0.271-0.416,0.271-0.72l0.018-10.054
		l-9.701-0.016v12.63h-1.264V504.97h12.229l0.016,11.511c0,0.735-0.287,1.487-0.721,1.713c-0.433,0.159-2.017,0.223-2.545,0.19
		L493.51,517.072z M495.414,507.9l0.018,1.185h-8.453l0.019-1.185H495.414z M494.119,510.813v4.836h-6.084v-4.819L494.119,510.813z
		 M489.252,514.463h3.666v-2.449l-3.666,0.017V514.463z"/>
	<path fill="#FFFFFF" d="M510.697,518.449c-0.097-0.433-0.271-0.816-0.353-1.297c0.722,0.016,1.041,0.159,1.568,0.049
		c0.271-0.064,0.432-0.226,0.432-0.514v-8.837l-9.283-0.016l0.017,10.949h-1.248l0.016-12.117h4.402
		c0.607-0.656,1.041-1.505,1.281-2.529l1.231,0.562c-0.305,0.784-0.705,1.536-1.024,1.952l5.842,0.017v10.436
		c0,0.771-0.496,1.347-1.232,1.347L510.697,518.449L510.697,518.449z M510.521,509.741l0.016,5.618h-5.682l0.016-5.618H510.521z
		 M509.322,510.909l-3.25-0.017v3.299l3.266,0.016L509.322,510.909z"/>
	<path fill="#FFFFFF" d="M526.541,517.072c0.768,0,1.889-0.049,2.129-0.129c0.16-0.08,0.271-0.416,0.271-0.72l0.016-10.054
		l-9.699-0.016v12.63h-1.266V504.97h12.229l0.017,11.511c0,0.735-0.289,1.487-0.722,1.713c-0.432,0.159-2.018,0.223-2.545,0.19
		L526.541,517.072z M528.445,507.9l0.016,1.185h-8.451l0.017-1.185H528.445z M527.148,510.813v4.836h-6.082v-4.819L527.148,510.813z
		 M522.283,514.463h3.664v-2.449l-3.664,0.017V514.463z"/>
	<path fill="#FFFFFF" d="M533.436,512.75c2.019-1.152,3.617-2.945,4.931-4.818l0.977,0.656c-0.447,0.816-1.358,1.891-1.953,2.609
		v7.379h-1.231v-6.114c-0.271,0.256-1.168,0.849-1.775,1.28L533.436,512.75z M533.645,508.349c1.681-1.169,2.978-2.608,4.05-4.29
		l0.944,0.736c-1.071,1.616-2.401,3.313-3.922,4.386L533.645,508.349z M540.975,517.264c0.816,0.064,1.521,0.064,2.209,0.049
		c0.177-0.049,0.353-0.159,0.353-0.385v-6.563h-4.099v-1.186l8.244,0.017v1.169l-2.85,0.016l-0.016,6.691
		c0,0.561-0.287,0.977-0.688,1.217c-0.434,0.24-1.953,0.225-2.77,0.19L540.975,517.264z M546.705,506.491h-6.883l-0.017-1.186
		l6.898-0.016L546.705,506.491L546.705,506.491z"/>
	<path fill="#FFFFFF" d="M556.529,514.047l-0.463-0.592c0.752-0.337,0.961-0.945,0.961-1.585h-0.865v-1.761h1.76v1.681
		C557.922,512.334,557.73,513.486,556.529,514.047z"/>
	<path fill="#FFFFFF" d="M579.463,507.964c-0.08,3.329-0.256,5.538-0.879,8.532c-0.178,0.865-0.961,1.344-1.586,1.424
		c-1.168,0.16-2.146-0.176-3.232-0.479l-0.272-1.394c1.09,0.354,1.985,0.641,2.93,0.721c0.336,0.033,0.625-0.223,0.785-0.432
		c0.432-0.607,0.912-4.994,0.959-7.188l-4.019,0.017c-0.271,6.114-3.057,7.876-6.465,9.315l-0.914-1.169
		c2.804-1.041,5.875-2.272,6.101-8.146h-3.953v-1.186h4v-3.586h1.231l-0.016,3.586L579.463,507.964z"/>
	<path fill="#FFFFFF" d="M595.26,511.966v2.722h-4.817v2.851c0,0.576-0.354,1.168-0.882,1.168h-1.793l-0.416-1.313l1.584,0.064
		c0.16-0.033,0.289-0.145,0.289-0.32v-2.448h-4.864v-1.169h4.864v-1.554h-6.082v-1.169h6.082v-1.231h-3.682
		c-0.369,0.288-1.008,0.688-1.521,0.881l-0.862-0.978c2.305-0.912,3.473-2.93,4.098-5.153l1.072,0.447
		c-0.049,0.336-0.146,0.656-0.271,0.93h5.041v1.04c-0.352,0.655-0.721,1.265-0.977,1.665h3.139v2.399h1.681v1.169H595.26
		L595.26,511.966z M587.561,506.859c-0.272,0.561-0.688,1.185-0.961,1.537h4.099c0.385-0.514,0.688-0.962,1.008-1.537H587.561z
		 M594.043,509.564h-3.602v1.231h3.602V509.564z M594.043,511.966h-3.602v1.554h3.602V511.966z"/>
	<path fill="#FFFFFF" d="M604.795,504.667l-0.127,0.352c1.297,2.258,2.512,3.954,4.193,5.202l-0.881,1.01
		c-0.562-0.48-0.929-0.882-1.152-1.138c-0.146,1.682-0.432,3.778-0.848,4.835c-0.209,0.527-0.753,0.642-1.201,0.642
		c-0.496-0.064-0.961-0.193-1.474-0.354c-0.096-0.416-0.145-0.752-0.239-1.313c0.641,0.272,1.071,0.448,1.553,0.496
		c0.369-0.063,0.354-0.496,0.496-0.849c0.272-0.977,0.416-1.953,0.448-2.865h-3.329v5.746c0,0.273,0.159,0.416,0.319,0.416h4.338
		c0.24-0.063,0.336-0.319,0.367-0.592l0.258-1.072l1.072,0.527c-0.24,0.865-0.354,2.129-1.568,2.242h-4.563
		c-0.912,0-1.426-0.625-1.426-1.281v-6.083c-0.127,0.097-0.607,0.416-1.216,0.784l-0.77-1.072c1.473-0.672,2.402-1.647,3.17-2.801
		c0.625-0.944,1.184-2.161,1.537-3.313L604.795,504.667z M606.316,509.549c-0.545-0.704-1.568-2.063-2.179-3.201
		c-0.416,1.04-1.215,2.337-2.03,3.187L606.316,509.549z M609.053,515.072v-8.31h1.187v8.31H609.053z M611.455,504.314h1.184v13.143
		c0,0.527-0.305,1.039-0.991,1.104l-1.729-0.016l-0.369-1.184l1.633,0.078c0.146,0,0.273-0.158,0.273-0.527V504.314z"/>
	<path fill="#FFFFFF" d="M617.293,514.383v-7.091h5.234l-0.017-2.93h1.279l-0.031,2.913l5.217,0.017v7.026h-1.264v-1.088h-3.953
		l0.031,5.395h-1.264l-0.017-5.395h-3.922l-0.033,1.151L617.293,514.383L617.293,514.383z M622.512,508.46h-3.955v3.618h3.972
		L622.512,508.46z M627.682,508.46h-3.891v3.603h3.906L627.682,508.46z"/>
	<path fill="#FFFFFF" d="M644.309,518.529v-1.121h-9.748v1.121h-1.217v-13.574h12.103v13.574H644.309z M644.309,506.123h-9.748
		v10.182h9.748V506.123z M634.881,515.152v-1.105h3.873v-2.722h-3.186v-1.104h3.186v-2.031h-3.729v-1.104h8.723v1.104h-3.857v2.031
		h3.347v1.104h-3.347v2.722h4.019v1.105H634.881z M642.42,513.936c-0.625-0.816-1.186-1.378-1.984-1.842l0.783-0.624
		c0.672,0.4,1.537,1.024,2.049,1.856L642.42,513.936z"/>
</g>
</svg>
