<?xml version="1.0" encoding="utf-8"?>
<!-- Generator: Adobe Illustrator 16.0.0, SVG Export Plug-In . SVG Version: 6.00 Build 0)  -->
<!DOCTYPE svg PUBLIC "-//W3C//DTD SVG 1.1//EN" "http://www.w3.org/Graphics/SVG/1.1/DTD/svg11.dtd">
<svg version="1.1" id="Layer_1" xmlns="http://www.w3.org/2000/svg" xmlns:xlink="http://www.w3.org/1999/xlink" x="0px" y="0px"
	 width="768px" height="1024px" viewBox="0 0 768 1024" enable-background="new 0 0 768 1024" xml:space="preserve">
<path fill="#FFFFFF" d="M128.574,524.17c1.648,2.049,3.793,3.906,6.53,4.707l-0.977,0.992c-1.104-0.369-2.064-0.928-2.785-1.408
	l0.017,0.656l-2.914-0.019l0.017,1.857h4.338l0.016,1.151l-4.37,0.017l0.017,3.842l5.73-0.016v1.168h-12.678l-0.016-1.168
	l5.746,0.016v-3.856l-4.418,0.016l-0.016-1.168h4.434V529.1l-2.913,0.019v-0.689c-0.784,0.515-1.793,1.09-2.913,1.603l-0.816-1.008
	c2.385-1.074,5.41-2.865,7.203-5.939l0.992,0.672L128.574,524.17z M125.18,535.711c-0.433-1.057-0.929-1.936-1.841-2.785
	l1.088-0.512c0.673,0.527,1.617,1.969,1.921,2.801L125.18,535.711z M130.606,527.947c-0.88-0.736-2.049-1.791-2.753-2.785
	c-0.688,0.865-1.824,2.082-2.833,2.754L130.606,527.947z M129.005,535.135c1.057-0.752,1.793-1.76,2.321-2.865l0.977,0.705
	c-0.513,1.104-1.201,2.13-2.209,2.912L129.005,535.135z"/>
<path fill="#FFFFFF" d="M145.31,524.059v1.152h-8.771v-1.152H145.31z M143.453,530.797h-4.962v6.916h-1.152v-8.115h7.267v6.609
	c-0.048,0.529-0.399,0.992-0.848,1.168c-0.513,0.209-0.864,0.178-1.489,0.178l-0.416-1.137c0.673-0.033,0.977,0.16,1.377-0.033
	c0.336-0.16,0.224-0.639,0.224-1.295L143.453,530.797L143.453,530.797z M138.059,528.973v-3.104h5.794v3.104H138.059z
	 M143.069,533.07v1.151H141.5v2.576h-1.121v-2.561h-1.473v-1.199h1.089c-0.256-0.562-0.784-1.187-1.329-1.426l0.833-0.543
	c0.544,0.317,1.2,0.959,1.44,1.534l-0.672,0.449l0.88,0.017c0.624-0.688,0.849-1.425,1.089-2.05l1.04,0.416
	c-0.288,0.496-0.608,1.265-0.977,1.648L143.069,533.07z M142.668,526.988h-3.441v0.896h3.441V526.988z M146.35,536.912
	c-0.384,0.111-0.496,0.145-0.944,0.305l-0.561-1.17c0.961-0.207,1.425-0.287,2.097-0.463v-2.93h-1.809v-5.939h1.809v-3.201h1.137
	v3.201h1.841v5.939h-1.841l0.017,2.625l0.928-0.226c-0.112-0.225-0.368-0.655-0.736-1.104l1.009-0.369
	c0.64,0.736,1.072,1.586,1.345,2.418l0.352,1.057l-1.2,0.416c-0.112-0.561-0.24-1.12-0.368-1.457L146.35,536.912z M146.942,527.867
	h-0.688v3.619h0.688V527.867z M148.079,531.486h0.784v-3.619h-0.784V531.486z"/>
<path fill="#FFFFFF" d="M155.803,532.67l-1.969,0.848l-0.896-0.991l2.85-1.185v-3.233l-1.104-0.017
	c-0.208,0.785-0.513,1.457-1.024,2.465l-1.12-0.592c0.944-1.553,1.313-2.896,1.488-4.705l1.168,0.32
	c-0.016,0.463-0.111,0.975-0.176,1.359l0.784-0.017v-3.33l1.201-0.016l0.016,3.346h1.44v1.168h-1.44v2.658l1.568-0.609v1.281
	l-1.568,0.688v5.764h-1.217L155.803,532.67L155.803,532.67z M158.348,532.814v-1.152l5.427-0.016v-1.441h1.2l0.016,1.457h1.857
	v1.152h-1.857v3.487c0,0.576-0.224,1.232-0.944,1.361c-0.656,0.19-1.504,0.096-2.032,0.129l-0.528-1.231
	c0.769,0.047,1.297,0.077,1.856,0.063c0.225-0.016,0.433-0.127,0.433-0.416v-3.393H158.348z M166.528,528.861v1.168h-7.859v-1.168
	h3.233l0.016-2.146h-2.656v-1.168h2.641v-2.049l1.217-0.016v2.063h2.816l0.017,1.168h-2.833v2.146L166.528,528.861L166.528,528.861z
	 M161.501,535.84c-0.704-0.896-1.473-1.586-2.545-2.018l0.832-0.783c1.057,0.383,1.873,1.088,2.642,2.016L161.501,535.84z"/>
<path fill="#FFFFFF" d="M183.072,533.662c-0.224,0.85-0.432,1.568-0.752,2.289c-0.336,0.752-0.688,1.104-1.665,1.104h-8.467
	c-0.753,0-1.553-0.705-1.553-1.633v-6.401c-0.225,0.19-0.673,0.526-1.169,0.928l-0.992-0.881c2.113-1.297,3.857-3.091,5.074-5.697
	l1.12,0.496c-0.224,0.479-0.496,0.928-0.608,1.119l5.091,0.016l-0.017,1.09c-0.368,0.769-0.769,1.408-1.137,1.76h3.346v5.234
	l-9.396,0.016v2.289c0,0.24,0.176,0.496,0.496,0.496h8.195c0.208,0,0.352-0.11,0.448-0.319c0.32-0.72,0.592-1.505,0.769-2.433
	L183.072,533.662z M175.421,531.934l-0.017-2.911l-3.457-0.019v2.93H175.421z M173.373,526.156
	c-0.417,0.639-1.009,1.344-1.377,1.694h4.241c0.673-0.479,1.201-1.168,1.521-1.713L173.373,526.156z M176.637,529.021l-0.016,2.911
	h3.457v-2.911H176.637z"/>
<path fill="#FFFFFF" d="M191.132,533.246l-0.464-0.592c0.753-0.336,0.961-0.945,0.961-1.584h-0.865v-1.763h1.761v1.683
	C192.525,531.533,192.333,532.686,191.132,533.246z"/>
<path fill="#FFFFFF" d="M205.068,523.93c-0.272,1.152-0.656,2.369-1.152,3.476l-0.016,10.5h-1.169v-8.068
	c-0.16,0.24-0.721,0.961-1.217,1.506l-0.96-0.721c1.841-2.209,2.545-4.099,3.394-7.107L205.068,523.93z M207.725,527.709v2.721
	h1.793v5.873h-1.217l0.016-0.896l-2.288-0.031v1.361h-1.201l-0.032-6.291h1.697v-2.754h-2.146l-0.016-1.185l2.145,0.016
	l-0.016-2.961l1.217-0.016l0.016,2.961l2.129,0.016v1.187L207.725,527.709L207.725,527.709z M206.029,531.613v2.608l2.272-0.016
	v-2.594L206.029,531.613L206.029,531.613z M208.717,537.119c0.528-0.463,0.961-0.928,1.329-1.328
	c0.527-0.561,0.928-1.152,1.313-1.729c-0.064-0.257-0.272-0.546-0.337-0.912c-0.448-1.232-0.544-2.24-0.688-3.586
	c-0.16,0.225-0.4,0.592-0.625,0.881l-1.136-0.562c1.521-1.903,2.225-4.033,2.448-6.467l1.137,0.305
	c-0.16,1.232-0.368,2.336-0.688,3.218l3.33,0.016v1.17h-0.705c-0.191,2.191-0.56,4.273-1.44,5.986
	c0.48,1.057,1.457,1.969,2.497,2.864l-0.816,0.929c-0.848-0.736-1.744-1.633-2.369-2.578c-0.432,0.656-1.648,2.098-2.368,2.643
	L208.717,537.119z M211.279,528.125c0.128,1.535,0.544,3.602,0.832,4.465c0.416-0.977,0.721-2.93,0.8-4.481L211.279,528.125z"/>
<path fill="#FFFFFF" d="M220.364,532.158v3.488l1.953-0.959v1.231l-2.705,1.424l-0.705-1.121c0.145-0.176,0.208-0.366,0.208-0.799
	v-3.266h-2.257v-1.168h2.257v-1.666h-0.72c-0.353,0.479-0.704,0.801-1.329,1.346l-0.896-0.961c1.456-1.186,2.48-3.377,2.656-6.066
	l1.153,0.306c0.048,0.862-0.08,1.68-0.145,1.824h2.417v1.168h-2.705c-0.145,0.448-0.353,0.896-0.496,1.217h3.041v1.168h-1.729v1.666
	h2.001v1.168H220.364L220.364,532.158z M230.112,537.664c-0.944-0.24-1.729-0.736-2.417-1.313c-1.36-1.393-2.065-3.217-2.209-5.01
	h-1.329v4.914l2.417-0.815v1.198l-3.249,1.187l-0.608-1.121c0.177-0.176,0.192-0.353,0.192-0.688v-11.717h5.986v7.043h-2.257
	c0.064,0.736,0.304,1.664,0.592,2.226c0.673-0.336,1.281-0.978,1.89-1.92l0.928,0.735c-0.688,1.008-1.521,1.695-2.32,2.146
	c0.56,0.977,1.809,1.713,3.232,2.08L230.112,537.664z M227.695,525.467h-3.538v1.744h3.538V525.467z M227.695,528.316h-3.538v1.856
	h3.538V528.316z"/>
<path fill="#FFFFFF" d="M237.052,523.963c-0.208,1.297-0.576,2.562-1.057,3.682v10.31h-1.2v-8.195
	c-0.528,0.672-0.896,1.215-1.601,1.89l-0.896-0.865c1.44-1.474,3.137-3.713,3.649-7.314L237.052,523.963z M243.182,531.854
	c0.736,1.938,1.985,2.978,4.002,4.019l-0.944,0.896c-1.761-0.848-3.201-2.209-4.162-4.563l-0.031,5.699h-1.217v-5.49
	c-0.433,1.264-1.905,3.361-3.842,4.402l-0.896-0.931c1.489-0.688,2.817-2.145,3.729-4.033h-3.265v-1.168h4.289v-1.297l-3.169,0.017
	v-5.154h7.379v5.154h-3.009v1.28h4.193v1.168L243.182,531.854L243.182,531.854z M243.838,525.402h-4.945v2.834h4.945V525.402z"/>
<path fill="#FFFFFF" d="M251.292,527.115h1.969v1.201h-1.953v9.428h-1.217v-9.412h-1.536v-1.217h1.521v-3.633h1.217L251.292,527.115
	L251.292,527.115z M255.197,529.773c-0.288,1.358-0.896,2.495-1.793,3.602c-0.384-0.24-0.672-0.385-1.04-0.674
	c0.849-1.072,1.456-2.096,1.776-3.408L255.197,529.773z M261.311,529.404c0.864,1.041,1.425,2.178,1.601,3.521
	c-0.384,0.209-0.672,0.306-1.104,0.513c-0.271-1.185-0.607-2.13-1.04-2.816c-0.16,2.018-0.4,4.129-0.752,5.842
	c-0.112,0.545-0.688,1.057-1.232,1.137c-0.705,0.097-1.361-0.08-2.049-0.239l-0.097-1.265c0.753,0.127,1.297,0.416,1.809,0.271
	c0.257-0.225,0.353-0.562,0.433-0.912c0.448-1.824,0.672-5.57,0.704-7.764h-2.081c-0.031,0.16-0.016,0.465-0.016,0.815
	c-0.032,1.105-0.08,2.386-0.336,3.441c-0.576,2.305-1.521,4.065-3.698,5.826l-0.88-0.959c1.505-1.17,2.593-2.625,3.105-4.228
	c0.479-1.537,0.624-3.281,0.576-4.865h-2.705v-1.231h2.705l0.016-3.041l1.185-0.019c0.064,0.961,0.017,2.595,0.017,3.06h3.345
	c0.064,1.264,0.032,2.385-0.032,3.151L261.311,529.404z"/>
<path fill="#FFFFFF" d="M274.174,536.271c0.768,0,1.889-0.05,2.129-0.13c0.16-0.08,0.271-0.416,0.271-0.719l0.017-10.053l-9.7-0.017
	v12.63h-1.265V524.17h12.229l0.016,11.51c0,0.736-0.288,1.488-0.721,1.713c-0.432,0.16-2.017,0.224-2.545,0.191L274.174,536.271z
	 M276.079,527.1l0.017,1.187h-8.452l0.017-1.187H276.079z M274.783,530.014v4.834H268.7v-4.817L274.783,530.014z M269.917,533.662
	h3.665v-2.449l-3.665,0.016V533.662z"/>
<path fill="#FFFFFF" d="M286.668,534.67c-1.425,1.666-3.233,2.625-5.154,3.25l-0.944-1.008c1.617-0.32,4.258-1.586,5.267-3.057
	L286.668,534.67z M282.378,525.482h3.202l0.016-1.984l1.217-0.016v2h1.952v-2.031h1.217v2.016h3.281v6.883h1.393v1.025v0.143
	h-13.653v-1.168h1.36L282.378,525.482z M285.596,528.813v-2.178l-2.001,0.019v2.159H285.596z M283.612,532.35h1.969l0.016-2.369
	h-1.984L283.612,532.35L283.612,532.35z M288.765,526.635h-1.952v2.178h1.952V526.635z M286.813,529.98v2.368h1.952v-2.368H286.813z
	 M294,537.873c-1.568-1.506-3.233-2.514-5.314-3.105l0.849-0.864c2.001,0.479,3.682,1.616,5.298,3.057L294,537.873z
	 M289.982,528.828l2.049-0.016v-2.179h-2.049V528.828z M289.982,529.965v2.385h2.049v-2.368L289.982,529.965z"/>
<path fill="#FFFFFF" d="M298.971,533.422c-0.513-1.199-1.521-2.033-2.497-2.656l0.656-0.881c0.978,0.449,2.321,1.504,2.753,2.562
	L298.971,533.422z M296.539,536.992c1.648-0.865,2.961-2.594,3.745-4.051l1.009,0.705c-0.785,1.713-2.434,3.36-3.794,4.241
	L296.539,536.992z M301.292,526.523v1.553h-1.249v-1.553h-3.394v-1.168h3.394v-1.554h1.249v1.554h4.609v-1.554h1.231v1.554h3.441
	v1.168h-3.441v1.553h-1.231v-1.553H301.292z M300.412,531.133c-0.592-1.168-1.568-1.969-2.673-2.561l0.735-0.881
	c1.088,0.528,2.178,1.407,2.817,2.514L300.412,531.133z M303.357,529.74v6.211c0,0.145,0.159,0.271,0.336,0.305h5.233
	c0.176-0.049,0.272-0.113,0.433-0.32c0.225-0.479,0.319-1.248,0.433-2.018l1.12,0.496c-0.08,0.77-0.176,1.537-0.464,2.193
	c-0.368,0.608-0.896,0.831-1.776,0.831h-5.299c-0.432,0-0.896-0.446-1.12-0.815c-0.192-0.303-0.176-0.752-0.176-1.104v-6.963h6.803
	c-0.032,1.713-0.08,3.394-0.32,4.914c-0.079,0.463-0.479,0.896-0.929,1.023c-0.752,0.192-1.584,0.063-2.399,0l-0.4-1.313
	c0.849,0.129,1.536,0.226,2.177,0.193c0.24-0.098,0.336-0.256,0.384-0.529c0.112-0.641,0.226-2.129,0.192-3.104L303.357,529.74
	L303.357,529.74z"/>
<path fill="#FFFFFF" d="M319.949,532.686c-0.704,0.05-1.344-0.223-1.792-0.735s-0.576-1.313-0.368-1.97
	c0.24-0.768,0.976-1.358,1.761-1.407c0.736-0.05,1.408,0.225,1.841,0.832c0.385,0.528,0.527,1.2,0.305,1.856
	C321.438,531.998,320.734,532.621,319.949,532.686z M319.981,529.613c-0.368-0.097-0.753,0.016-0.992,0.287
	c-0.226,0.239-0.336,0.592-0.272,0.93c0.064,0.303,0.288,0.606,0.576,0.736c0.4,0.176,0.864,0.08,1.169-0.226
	c0.288-0.289,0.368-0.752,0.224-1.121C320.557,529.916,320.286,529.693,319.981,529.613z"/>
</svg>
