<?xml version="1.0" encoding="utf-8"?>
<!-- Generator: Adobe Illustrator 16.0.0, SVG Export Plug-In . SVG Version: 6.00 Build 0)  -->
<!DOCTYPE svg PUBLIC "-//W3C//DTD SVG 1.1//EN" "http://www.w3.org/Graphics/SVG/1.1/DTD/svg11.dtd">
<svg version="1.1" id="Layer_1" xmlns="http://www.w3.org/2000/svg" xmlns:xlink="http://www.w3.org/1999/xlink" x="0px" y="0px"
	 width="768px" height="1024px" viewBox="0 0 768 1024" enable-background="new 0 0 768 1024" xml:space="preserve">
<g>
	<path fill="#58B5E1" d="M142.882,604.629l-6.898-0.076c-1.999-0.024-3.773-1.147-4.823-2.573c-0.475,0.725-2.324,2.274-3.35,2.975
		l-1.249-1.574c1.274-0.975,2.374-1.875,3.324-2.899v-6.322l-1.351,0.049c0.65,1.574,0.875,3.25,0,4.35
		c-0.774,1-1.6,1.125-2.949,0.875l-0.624-2.073c1.199,0.125,1.749,0.573,2.224-0.302c0.325-0.549,0.125-1.274-0.175-1.85
		c-0.675-1.35-1.324-2.475-2.299-4.023c0.774-1.649,1.399-3.299,2.124-5.049h-2.449v19.396h-1.899v-21.22h6.423v1.623
		c-0.699,2.101-1.225,3.552-1.924,5.15c0.5,0.824,0.925,1.648,1.175,2.373l0.05-1.049h3.474v7.572
		c1.325,1.85,3.249,2.823,5.549,2.823h3.824l2.499-0.198C143.283,603.453,143.057,603.953,142.882,604.629z M131.085,591.182
		c-0.475-1.399-1.024-2.674-2.199-3.674l1.374-1.051c1.226,1.025,1.925,2.225,2.475,3.6L131.085,591.182z M136.934,587.633
		c-0.175,0.549-0.425,1.074-0.6,1.424h5.523v10.599c0,0.823-0.55,1.6-1.475,1.6h-2.225c-0.225-0.625-0.425-1.149-0.675-1.924
		l2.024,0.199c0.325,0,0.45-0.351,0.45-0.601v-1.426h-4.225v4h-1.899v-8.398l-0.574,0.65l-1.425-1.449
		c1.499-1.325,2.449-3.073,3.099-4.674h-2.974v-1.824h3.574c0.225-0.875,0.375-1.45,0.574-2.5c0.675,0.25,1.125,0.476,1.675,0.675
		c-0.05,0.801-0.175,1.325-0.325,1.825h5.374v1.824H136.934z M139.958,590.881h-4.225v1.525h4.225V590.881z M139.958,594.23h-4.225
		v1.549h4.225V594.23z"/>
	<path fill="#58B5E1" d="M149.187,595.779l-0.6-1.851l1.999,0.103c0.176,0,0.5-0.226,0.476-0.426v-2.023l-3.524,0.824l-1.075-1.75
		c1.65-0.275,3.425-0.65,4.624-0.949l-0.024-2.324h-3.699l0.024-1.824h3.675v-2.426h1.899l-0.025,2.4h2.449v1.85h-2.449l0.025,1.976
		l2.574-0.65v1.75l-2.6,0.674l0.025,2.775c0,0.897-0.525,1.873-1.6,1.873L149.187,595.779L149.187,595.779z M161.534,603.404
		c0.675,0.022,1.375,0.397,1.825-0.025c0.35-0.451,0.524-1,0.649-2.074l0.3-2.676l-5.823-0.023
		c-0.725,2.474-2.425,4.248-4.724,5.248c-1.75,0.75-3.749,1.324-5.699,1.5l-0.824-1.875c3.474-0.225,6.474-1.051,8.572-3.725
		c0.25-0.324,0.551-0.725,0.726-1.125h-8.673v-1.824h9.022l0.15-1.397l1.85,0.323l-0.176,1.074h7.523
		c0,2.174-0.225,3.648-0.55,5.549c-0.225,1.275-0.774,3.125-2.924,2.898c-0.726-0.074-1.575-0.174-2.399-0.299l-0.625-2
		L161.534,603.404z M165.583,585.957c0.05,2.801-0.101,5.574,1.05,7.748c0.199-0.523,0.399-1.225,0.524-1.824l1.625,1.225
		c-0.375,0.949-0.75,1.802-1.4,2.5c-0.225,0.226-0.675,0.324-1.024,0.3c-0.8-0.175-1.199-0.925-1.5-1.523
		c-0.449-0.949-0.675-1.949-0.824-2.85c-0.175-1.074-0.25-2.601-0.25-3.75l-2.324,0.024c-0.075,1.15-0.226,2.525-0.726,3.55
		c0.65,0.5,1.325,1.1,2.1,1.825l-1.3,1.248c-0.699-0.647-1.225-1.248-1.699-1.549c-1.074,1.275-2.749,2.125-4.599,2.85l-1.149-1.551
		c1.549-0.475,3.224-1.1,4.174-2.397c-0.5-0.375-1.175-0.875-2.175-1.226l1-1.426c0.949,0.375,1.55,0.875,2.1,1.125
		c0.324-0.648,0.425-1.674,0.475-2.475h-3.449v-1.824h3.424v-2.873h1.825v2.873H165.583z"/>
	<path fill="#58B5E1" d="M189.234,602.729c0.475,0,0.949-0.25,1.1-0.698c0.375-1.125,0.6-2,0.8-3.449l1.874,0.699
		c-0.274,1.625-0.5,3.125-1.425,4.397c-0.499,0.576-1.024,0.802-1.999,0.927h-4.674c-1.5,0-2.874-1.101-2.874-2.574v-4.674
		c-1.075,0.674-2.125,1.225-3.899,1.924l-0.899-0.976l-0.025,7.425h-1.925V592.98l-0.024,0.35c-0.675,0.926-1.525,1.926-2.475,2.65
		l-1.725-1.302c3.574-3.098,5.323-6.946,6.773-11.271l1.675,0.801c-0.65,2.148-1.4,4.223-2.3,6.023l0.025,7.223
		c1.949-0.801,3.374-1.4,4.799-2.275v-11.297h1.924v10.248c2.75-1.924,4.35-3.625,6.023-5.725l1.65,1.125
		c-2.524,3.125-5.1,5.35-7.674,6.873v5.299c0,0.625,0.425,1.025,1.375,1.025H189.234L189.234,602.729z"/>
	<path fill="#58B5E1" d="M205.835,582.857c1.25,0.875,2.199,1.875,2.649,2.625h9.198v1.774h-10.498
		c-1.425,1.449-3.174,2.726-4.224,3.199l8.923-0.725c-0.45-0.326-0.8-0.552-1.7-0.976l1.175-1.201
		c2.175,1.052,4.174,2.4,5.999,4.275l-1.35,1.324c-0.575-0.601-1.35-1.351-2.05-1.976l-14.371,1.449l-0.975-1.699
		c2.624-1.024,4.424-2.399,5.898-3.674h-7.198v-1.774h8.772c-0.399-0.5-1.074-1.05-1.875-1.601L205.835,582.857z M214.609,592.881
		v10.398c-0.075,0.6-0.476,1.198-0.976,1.522c-0.975,0.625-2.349,0.25-3.549,0.351l-0.725-1.998l2.674,0.147
		c0.226-0.022,0.625-0.125,0.625-0.625v-1.623H202.61v3.998h-1.949V592.88L214.609,592.881L214.609,592.881z M202.611,594.68v1.302
		h9.998v-1.302H202.611z M202.611,597.754v1.576h9.998v-1.576H202.611z"/>
	<path fill="#58B5E1" d="M231.56,598.404l-0.725-0.924c1.175-0.525,1.5-1.476,1.5-2.476h-1.35v-2.75h2.749v2.625
		C233.735,595.73,233.435,597.529,231.56,598.404z"/>
	<path fill="#58B5E1" d="M247.587,605.527l-0.699-1.976l2.274,0.076c0.199,0,0.374-0.125,0.425-0.326v-5.571l-2.574,1.1l-1.25-1.576
		c1.475-0.523,2.725-1.074,3.824-1.574v-5.299h-3.074v-1.85h3.074v-5.248h1.899v5.248h3.099v1.875h-3.099v4.324l2.1-0.851v2
		l-2.1,0.924v7.074c0,0.898-0.75,1.648-1.575,1.648L247.587,605.527L247.587,605.527z M261.484,593.256v2.225h4.899v1.824h-4.899
		v1.726h6.474v1.823h-6.474v4.699h-1.85v-4.674h-6.498v-1.85h6.498v-1.726h-4.924v-1.85h4.924v-2.199L261.484,593.256
		L261.484,593.256z M267.783,594.555c-2.774-0.397-5.299-1.6-6.849-2.772c-2.399,1.5-4.049,2.147-6.198,2.674l-1.149-1.725
		c2.774-0.55,4.349-1.523,5.724-2.175c-1.375-1.149-2.575-2.875-3.399-4.522h-1.5v-1.775h12.272v1.574
		c-1.075,1.926-2.475,3.674-4.024,4.824c0.975,0.573,3.475,1.674,6.198,2.149L267.783,594.555z M257.61,586.133
		c0.65,1.101,1.725,2.625,3.05,3.498c1.449-0.85,2.599-2.324,3.424-3.498H257.61z"/>
	<path fill="#58B5E1" d="M292.733,595.779c-3.6-0.773-6.999-1.748-9.948-3.498c-2.849,1.897-7.272,3.174-11.122,3.772l-0.774-1.799
		c2.999-0.5,5.623-1.176,8.198-2.125c0.675-0.324,1.475-0.725,1.974-1c-1.074-0.824-2.499-1.674-3.374-2.873
		c-1.1,1.299-2.699,2.648-4.573,3.398l-1.425-1.726c3.849-1.424,5.698-3.647,6.873-6.723l1.649,0.924
		c-0.274,0.625-0.524,1.074-0.6,1.226h9.373v1.676c-1.475,1.824-2.975,2.998-4.524,4.123c0.325,0.25,1.1,0.5,1.8,0.85
		c2.35,0.875,4.824,1.551,7.698,2.101L292.733,595.779z M288.808,603.828c-0.249,0.775-0.899,1.449-1.624,1.65
		c-1.1,0.323-2.225-0.025-3.374-0.201l-0.476-2.174c1.325,0.375,2.274,0.75,3.3,0.6c0.574-0.375,0.625-1.074,0.75-1.799
		c0.225-1.351,0.5-3.074,0.55-3.875h-5.399c-0.399,2.149-2.074,4.198-4.099,5.522c-1.5,1-4.199,1.802-5.823,2.101
		c-0.351-0.625-0.675-1.125-1-1.875c3.174-0.498,6.123-1.248,8.023-3.748c0.524-0.677,0.8-1.424,0.949-2h-7.148v-1.824h7.448
		c0.075-0.6,0-1.049,0.075-2.174l1.85,0.25c-0.025,0.949,0.05,1.373-0.025,1.924h7.099
		C289.833,598.979,289.534,601.529,288.808,603.828z M278.986,587.182c1,1.201,2.35,2,3.749,2.9c1.35-0.875,2.699-1.9,3.649-2.9
		H278.986z"/>
	<path fill="#58B5E1" d="M305.835,600.029c-0.524-2.226-1.8-4.174-3.074-5.824c-0.575,4.35-2.374,7.998-5.724,11.273l-1.574-1.4
		c3.224-3.398,5.023-6.748,5.573-12.598c0.25-2.55,0.2-5.447,0.149-8.373h1.976c0.023,2.975,0.05,5.899-0.102,8.6
		c2.199,2.748,3.449,4.398,4.475,6.973L305.835,600.029z M317.608,605.527c-2.999-2.851-4.774-6.322-5.773-11.297
		c-0.875,4.397-3.475,8.272-7.023,11.497l-1.523-1.426c1.299-1.174,2.522-2.25,3.374-3.498c2.023-2.975,3.299-5.274,3.599-10.049
		c0.15-2.324,0.2-4.324,0.2-7.723h1.975c0,2.299,0,4.475-0.074,6.848c1.05,4.424,2.225,8.824,5.174,12.422
		c0.5,0.625,0.925,1.176,1.574,1.826L317.608,605.527z"/>
	<path fill="#58B5E1" d="M323.862,600.379h7.674l0.05-1.449l-10.072-0.024v-1.699l10.072-0.051v-1.25l-7.748-0.023l0.024-1.701
		l7.724-0.049v-1.051l-7.123-0.049l-0.024-4.949h7.122l0.025-1.1l-9.923,0.024v-1.75h9.896l-0.023-1.975h1.999l-0.024,1.975h9.974
		l0.023,1.726h-9.997l0.024,1.149l7.049-0.051v4.998h-7.049v1.1l7.923-0.022v2.998h2.274l0.024,1.774l-2.35-0.024v3.225
		l-7.897-0.025c0,0.949,0.25,2.55-0.875,3.05c-1.175,0.551-2.8,0.325-4.199,0.399c-0.3-0.625-0.398-1.174-0.725-1.924
		c1.324,0.1,2.399,0.199,3.424,0.1c0.575-0.075,0.375-0.676,0.4-1.6h-7.648L323.862,600.379z M326.287,591.332l5.224-0.025
		l0.025-1.475l-5.249,0.025V591.332z M339.484,597.18v-1.299l-6.024,0.023v1.301L339.484,597.18z M339.433,600.379l0.025-1.5
		l-5.999-0.025l0.051,1.525H339.433z M338.684,591.381v-1.549h-5.148v1.523L338.684,591.381z"/>
	<path fill="#58B5E1" d="M357.835,597.529c-1.101,0.076-2.1-0.351-2.8-1.148c-0.7-0.801-0.899-2.051-0.575-3.074
		c0.375-1.2,1.525-2.125,2.75-2.2c1.149-0.074,2.199,0.352,2.874,1.301c0.6,0.824,0.825,1.875,0.475,2.897
		C360.16,596.455,359.06,597.43,357.835,597.529z M357.885,592.73c-0.575-0.15-1.175,0.024-1.55,0.45
		c-0.35,0.375-0.525,0.925-0.425,1.449c0.1,0.475,0.45,0.949,0.898,1.148c0.625,0.274,1.351,0.125,1.825-0.351
		c0.449-0.449,0.574-1.174,0.351-1.748C358.785,593.205,358.36,592.855,357.885,592.73z"/>
</g>
</svg>
