<?xml version="1.0" encoding="utf-8"?>
<!-- Generator: Adobe Illustrator 16.0.0, SVG Export Plug-In . SVG Version: 6.00 Build 0)  -->
<!DOCTYPE svg PUBLIC "-//W3C//DTD SVG 1.1//EN" "http://www.w3.org/Graphics/SVG/1.1/DTD/svg11.dtd">
<svg version="1.1" id="Layer_1" xmlns="http://www.w3.org/2000/svg" xmlns:xlink="http://www.w3.org/1999/xlink" x="0px" y="0px"
	 width="768px" height="1024px" viewBox="0 0 768 1024" enable-background="new 0 0 768 1024" xml:space="preserve">
<g>
	<path fill="#FFFFFF" d="M134.115,643.145c-2.753-1.198-5.09-3.327-5.73-7.09c-0.608,2.816-3.041,5.842-6.099,7.025l-1.136-1.008
		c2.929-1.201,5.298-3.25,5.906-6.258h-5.122v-1.218l5.362,0.017c0.191-1.104,0.191-2.336,0.224-3.521h-4.529v-1.217l10.308,0.016
		l0.017,1.218l-4.482-0.017c-0.063,1.152-0.016,2.48-0.144,3.521l5.666-0.017l-0.016,1.218h-4.754
		c0.624,2.977,2.288,4.834,5.33,6.307L134.115,643.145z"/>
	<path fill="#FFFFFF" d="M137.604,640.264l2.177-0.705v-4.85h-1.793l0.017-1.168l1.792-0.016l-0.016-3.396h1.217v3.396h1.681
		l-0.017,1.184l-1.681-0.016l0.017,4.369l1.824-0.607v1.217l-4.514,1.6L137.604,640.264z M151.673,639.592
		c-0.479,2.545-0.8,3.17-1.744,3.17h-5.347c-0.752,0-1.248-0.545-1.248-1.313v-5.314l-0.849,0.287l-0.416-1.168l1.265-0.369
		l0.016-3.231h1.2v2.864l1.697-0.528v-4.992h1.217v4.721l3.377-0.928c-0.145,2.176-0.384,4.658-0.769,5.811
		c-0.176,0.384-0.432,0.736-0.96,0.722c-0.433,0-0.849-0.099-1.313-0.209l-0.208-1.377c0.576,0.209,0.752,0.368,1.12,0.432
		c0.224,0.049,0.288-0.143,0.32-0.271c0.271-1.248,0.4-2.354,0.496-3.506l-2.081,0.545l0.017,5.123h-1.217v-4.754l-1.697,0.527
		l-0.016,5.33c0,0.271,0.192,0.432,0.4,0.432l4.834-0.016c0.464,0,0.576-1.281,0.768-2.369L151.673,639.592z"/>
	<path fill="#FFFFFF" d="M165.71,641.561c0.305,0,0.608-0.159,0.705-0.448c0.239-0.72,0.384-1.279,0.512-2.209l1.2,0.448
		c-0.176,1.041-0.319,2-0.912,2.816c-0.32,0.369-0.656,0.514-1.28,0.594h-2.993c-0.961,0-1.841-0.705-1.841-1.649v-2.992
		c-0.688,0.432-1.36,0.783-2.497,1.231l-0.576-0.625l-0.017,4.754h-1.232v-8.161l-0.016,0.223c-0.433,0.594-0.977,1.232-1.585,1.697
		l-1.104-0.832c2.289-1.984,3.41-4.449,4.338-7.219l1.072,0.512c-0.416,1.377-0.896,2.705-1.473,3.856l0.017,4.627
		c1.248-0.514,2.161-0.896,3.073-1.456v-7.234h1.232v6.563c1.761-1.231,2.785-2.321,3.857-3.666l1.057,0.722
		c-1.617,2-3.266,3.426-4.914,4.399v3.396c0,0.4,0.272,0.656,0.88,0.656h2.497V641.561z"/>
	<path fill="#FFFFFF" d="M177.027,628.836c0.801,0.559,1.409,1.199,1.697,1.68h5.89v1.138h-6.723
		c-0.912,0.928-2.032,1.744-2.705,2.049l5.715-0.465c-0.288-0.207-0.513-0.353-1.089-0.623l0.752-0.771
		c1.393,0.674,2.674,1.537,3.842,2.738l-0.864,0.848c-0.368-0.385-0.864-0.862-1.313-1.264l-9.204,0.928l-0.624-1.088
		c1.681-0.656,2.833-1.537,3.777-2.354h-4.609v-1.138h5.618c-0.256-0.319-0.688-0.672-1.2-1.022L177.027,628.836z M182.645,635.254
		v6.658c-0.048,0.385-0.304,0.77-0.624,0.977c-0.624,0.4-1.505,0.16-2.272,0.226l-0.465-1.281l1.713,0.096
		c0.145-0.016,0.4-0.08,0.4-0.399v-1.039h-6.435v2.561h-1.249v-7.795h8.932V635.254z M174.962,636.406v0.832h6.402v-0.832H174.962z
		 M174.962,638.375v1.008h6.402v-1.008H174.962z"/>
	<path fill="#FFFFFF" d="M187.656,640.184c1.713-0.545,3.409-1.487,4.37-2.625h-3.618v-1.137h3.954v-1.041h-1.681v-1.104
		l1.681-0.017v-0.944l-2.113,0.016v-1.135l2.098-0.019v-0.752h1.216v0.752h2.673v-0.783l1.249-0.016v0.799h2.113v1.152h-2.113v0.945
		h1.681v1.104h-1.681l0.016,1.025l3.938,0.016l0.017,1.137h-3.538c0.625,1.025,2.722,2.13,4.194,2.449l-0.736,1.088
		c-2.113-0.672-3.97-1.823-4.882-3.537h-2.962c-1.264,1.857-2.944,2.771-5.09,3.683L187.656,640.184z M189.785,631.221v2.129
		l-1.217,0.017v-3.281h5.618c-0.111-0.129-0.447-0.305-1.056-0.592l1.12-0.721c0.592,0.385,1.04,0.815,1.36,1.297l5.618,0.016v3.201
		h-1.216v-2.064L189.785,631.221L189.785,631.221z M192.058,639.816c2.049,0.096,4.802,1.52,6.322,2.848l-0.816,0.992
		c-1.713-1.488-3.794-2.592-6.227-2.816L192.058,639.816z M197.372,640.68c-1.313-0.752-2.657-1.52-4.434-1.76l0.688-1.01
		c1.601,0.256,2.961,0.881,4.369,1.713L197.372,640.68z M193.562,636.422h2.673v-1.041h-2.673V636.422z M193.579,634.262h2.656
		v-0.944h-2.656V634.262z"/>
	<path fill="#FFFFFF" d="M206.992,636.037c-0.753-1.055-1.713-1.648-2.93-2.16l0.816-0.848c1.185,0.352,2.225,1.104,3.058,2.112
		L206.992,636.037z M205.279,643.305l-1.185-0.641c1.345-1.408,2.4-4.209,2.737-6.033l1.04,0.512
		C207.456,639.447,206.447,642.025,205.279,643.305z M207.872,632.934c-0.608-1.071-1.585-1.776-2.705-2.321l0.864-0.783
		c0.977,0.416,2.257,1.217,2.801,2.209L207.872,632.934z M207.311,643.018v-1.17h1.041v-4.674h9.155v4.674h1.072v1.17H207.311z
		 M209.168,636.215v-6.164h7.522v6.164H209.168z M210.993,638.344h-1.425v3.504h1.425V638.344z M215.475,631.221h-5.091v1.279h5.091
		V631.221z M215.475,633.67h-5.091v1.375h5.091V633.67z M213.634,638.344h-1.425v3.504h1.425V638.344z M216.291,638.344h-1.44v3.504
		h1.44V638.344z"/>
	<path fill="#FFFFFF" d="M220.756,642.137c1.024-1.137,2.289-4.307,2.577-5.985l1.04,0.641c-0.208,1.584-1.393,4.754-2.513,6.018
		L220.756,642.137z M224.262,632.885c-0.785-1.168-1.825-1.873-2.993-2.528l0.768-0.929c1.024,0.463,2.481,1.554,3.138,2.48
		L224.262,632.885z M234.49,635.414c-2.097-1.186-4.178-2.785-5.346-4.707c-0.944,1.617-2.93,3.762-5.139,4.852l-1.008-0.944
		c2.225-0.849,4.354-3.232,5.938-5.938l1.04,0.623l-0.192,0.24c1.232,2.064,3.474,3.793,5.827,4.979L234.49,635.414z
		 M233.337,636.375c-0.256,1.984-1.616,3.553-2.978,4.641c0.545,0.336,1.249,0.851,1.953,1.521l-0.896,0.928
		c-1.553-1.553-3.953-2.656-5.474-3.041l0.672-1.008c0.992,0.271,1.841,0.641,2.609,0.977c0.896-0.608,2.129-1.889,2.513-2.817
		h-6.643v-1.199L233.337,636.375L233.337,636.375z M229.816,636.135c-0.416-1.121-1.137-2.192-2.129-2.944l0.864-0.689
		c1.024,0.771,1.938,1.889,2.386,2.979L229.816,636.135z"/>
	<path fill="#FFFFFF" d="M239.515,640.057v1.439h-1.216v-11.107h3.857l-0.016,9.668H239.515L239.515,640.057z M240.94,631.557
		h-1.425l-0.016,3.011h1.44L240.94,631.557L240.94,631.557z M240.924,635.654h-1.409v3.248h1.409V635.654z M251.088,643.338
		c-1.488-0.272-2.833-0.77-3.985-1.537c-1.121,0.703-2.273,1.265-4.13,1.601l-0.656-1.119c1.505-0.256,2.785-0.674,3.825-1.25
		c-0.48-0.479-1.137-1.345-1.584-2.191c-0.545,0.943-1.089,1.729-1.921,2.562l-1.169-0.625c1.232-1.009,2.289-2.625,2.642-3.984
		h-1.553v-1.137h1.841c0.144-0.353,0.208-0.609,0.224-0.736h-1.473v-1.152h1.104c-0.336-0.735-0.784-1.407-1.488-1.938l1.008-0.512
		c0.576,0.352,1.313,1.2,1.633,2l-0.832,0.416l6.146,0.032v1.152h-4.914c-0.064,0.24-0.192,0.527-0.24,0.736h5.746v1.137h-5.89
		c-0.08,0.223-0.145,0.512-0.225,0.672h5.059v1.104c-0.513,1.01-1.329,1.938-2.081,2.514c0.88,0.641,2.593,1.025,3.649,1.121
		L251.088,643.338z M251.056,629.924c-1.856,0.928-7.043,1.394-8.355,1.344l-0.544-1.151c2.913-0.08,5.603-0.24,8.1-1.072
		L251.056,629.924z M246.846,633.59c-0.224-0.865-0.607-1.41-1.216-2.146l1.168-0.336c0.528,0.594,0.944,1.266,1.2,2.049
		L246.846,633.59z M245.791,638.631c0.319,0.529,1.008,1.473,1.376,1.744c0.688-0.432,1.329-1.199,1.713-1.744H245.791z
		 M248.543,633.125c0.464-0.752,0.704-1.553,0.896-2.434l1.056,0.305c-0.08,0.943-0.399,1.777-0.832,2.625L248.543,633.125z"/>
	<path fill="#FFFFFF" d="M260.269,638.791l-0.464-0.592c0.753-0.336,0.961-0.945,0.961-1.584h-0.865v-1.762h1.761v1.682
		C261.662,637.078,261.47,638.23,260.269,638.791z"/>
	<path fill="#FFFFFF" d="M269.691,637.494c2.017-1.152,3.617-2.945,4.93-4.818l0.977,0.656c-0.448,0.816-1.36,1.891-1.953,2.609
		v7.379h-1.232v-6.113c-0.271,0.256-1.168,0.848-1.776,1.279L269.691,637.494z M269.899,633.094c1.681-1.17,2.978-2.608,4.05-4.291
		l0.944,0.736c-1.072,1.617-2.401,3.314-3.922,4.387L269.899,633.094z M277.23,642.008c0.816,0.064,1.521,0.064,2.209,0.049
		c0.176-0.049,0.352-0.159,0.352-0.385v-6.563h-4.098v-1.185l8.244,0.017v1.168l-2.85,0.016l-0.016,6.691
		c0,0.561-0.288,0.977-0.688,1.217c-0.433,0.24-1.953,0.225-2.77,0.19L277.23,642.008z M282.96,631.236h-6.883l-0.017-1.187
		l6.899-0.016L282.96,631.236L282.96,631.236z"/>
	<path fill="#FFFFFF" d="M286.641,642.521v-1.171h4.674v-11.813h1.249v11.813h1.856v-11.813h1.2v11.813h4.643v1.171H286.641z
		 M289.154,639.719c-0.079-2.176-0.815-4.399-1.616-6.209l1.04-0.496c0.816,1.791,1.569,4.033,1.793,6.179L289.154,639.719z
		 M297.27,639.912l-1.024-0.625c1.104-1.457,1.872-4.322,1.984-6.242l1.104,0.4C299.014,635.959,298.326,638.279,297.27,639.912z"/>
	<path fill="#FFFFFF" d="M308.81,641.865l-0.641-0.515v0.625c0,0.705-0.432,1.218-1.137,1.218h-1.168l-0.4-1.232
		c0.673,0.111,0.929,0.146,1.2,0.111c0.177-0.017,0.305-0.127,0.305-0.32v-4.305h-1.745c0.018,1.713-0.176,4.399-1.327,6.002
		l-0.93-0.816c0.864-1.617,1.072-3.297,1.072-5.139v-7.762h4.13v10.916c0.961-0.931,2.449-2.193,2.913-4.947h-2.577v-1.168h3.874
		C312.188,639.111,309.947,640.695,308.81,641.865z M306.969,630.9h-1.729v2.096h1.729V630.9z M306.969,634.166h-1.729v2.111h1.729
		V634.166z M316.813,641.816c-1.535-1.328-2.608-3.011-3.009-4.13l-0.032,4.273c0,0.512-0.225,0.863-0.641,1.119
		c-0.496,0.305-1.136,0.225-1.664,0.225h-0.545l-0.368-1.168h1.729c0.11-0.016,0.256-0.08,0.288-0.19v-9.156h-3.313v-1.168h4.514
		v2.928c0.209,0.576,0.385,1.121,0.593,1.602c0.943-0.432,1.681-1.377,2.192-2.239l0.96,0.832c-0.752,1.104-1.681,2.016-2.625,2.561
		c0.608,1.297,1.634,2.562,2.931,3.683L316.813,641.816z M314.14,631.621c-1.329-1.025-2.816-1.41-3.954-1.713l0.705-1.025
		c1.425,0.353,2.736,0.85,3.985,1.744L314.14,631.621z"/>
	<path fill="#FFFFFF" d="M332.468,640.648c-0.128,0.959-0.24,1.873-1.297,2.305c-0.592,0.256-1.297,0.08-1.969,0.016
		c-0.128-0.399-0.208-0.721-0.384-1.231c0.752,0.08,1.279,0.256,1.792,0.159c0.417-0.145,0.367-0.672,0.527-1.104
		c0.386-2.225,0.624-5.057,0.722-6.945h-2.001c0.016,3.744-0.562,7.427-4.578,9.443l-0.929-1.025c1.024-0.496,1.792-1.119,2.13-1.52
		c-0.208-0.465-0.466-0.801-0.722-1.105c-1.328,0.369-3.297,0.931-4.897,1.506l-0.832-1.217c0.863-0.705,2.257-3.377,2.688-4.864
		h-2.882v-1.171h6.979v1.171h-2.754c-0.801,1.936-1.601,3.584-2.288,4.448l3.297-0.896c-0.097-0.146-0.385-0.416-0.8-0.785
		l0.88-0.623c0.735,0.623,1.824,1.775,2.209,2.625c0.336-0.289,1.265-2.338,1.265-4.723v-1.265h-1.681v-1.104h1.681v-3.713
		c0.432,0.016,0.752-0.031,1.217-0.017v3.729h3.313C333.012,635.494,332.74,638.664,332.468,640.648z M320.463,631.781v-1.105h5.698
		v1.105H320.463z"/>
	<path fill="#FFFFFF" d="M350.17,642.633h-6.563c-1.729,0-3.218-0.672-4.259-1.842c-0.495,0.689-1.553,1.553-2.465,2.129
		l-0.849-0.848c0.913-0.545,1.938-1.328,2.834-2.369v-4.322h-2.401v-1.135h3.569v5.713c0.464,0.514,1.953,1.506,3.394,1.568
		c3.041,0.129,5.41-0.047,7.188-0.127L350.17,642.633z M339.415,632.916c-0.562-1.088-1.713-2.336-2.481-2.801l0.864-0.752
		c0.929,0.641,1.729,1.393,2.609,2.754L339.415,632.916z M346.265,631.844v-2.592h1.2v2.592h1.969v1.138h-1.969v2.465h2.609v1.151
		h-2.625v4.547h-1.169v-4.577l-2.288,0.016c-0.018,1.857-0.177,3.121-1.729,4.467l-0.977-0.865c1.104-0.881,1.457-1.76,1.521-3.602
		h-2.466v-1.137h2.481v-2.48h-2.129v-1.137h2.097v-2.576h1.232v2.592L346.265,631.844L346.265,631.844z M344.024,635.445h2.257
		v-2.465h-2.257V635.445z"/>
	<path fill="#FFFFFF" d="M355.548,635.109h-2.145v-1.104h3.329v6.051c0.849,0.912,2.081,1.488,3.474,1.535
		c1.296,0.049,2.641,0.146,3.97,0.064l3.409-0.191l-0.479,1.313h-6.516c-2.929,0-3.617-0.816-4.418-1.666
		c-0.784,0.576-1.553,1.313-2.417,2.065l-0.912-0.961c0.992-0.721,1.89-1.473,2.705-2.145V635.109z M355.708,632.773
		c-0.433-0.945-1.2-2.099-2.113-2.865l0.896-0.656c0.961,0.768,1.793,1.936,2.257,2.832L355.708,632.773z M366.737,641.111
		c-3.649-1.039-4.481-2.785-5.139-5.313h-1.681v3.744l2.561-0.912v1.217l-3.762,1.265l-0.576-0.992
		c0.434-0.176,0.576-0.447,0.576-0.736v-9.619h6.787v6.035h-2.769c0.158,0.639,0.432,1.344,0.88,2
		c0.863-0.416,1.567-1.184,2.225-1.938l0.833,0.784c-0.769,0.832-1.617,1.568-2.354,1.97c0.863,0.881,2.146,1.231,2.978,1.393
		L366.737,641.111z M359.918,630.932v1.248h4.369v-1.248H359.918z M359.918,633.35v1.279h4.369v-1.279H359.918z"/>
	<path fill="#FFFFFF" d="M369.986,642.953v-1.187h1.809v-3.584h10.709l0.016,3.603h1.762l-0.018,1.152L369.986,642.953z
		 M378.837,632.98c0.32-0.576,0.672-1.697,0.77-1.984h-4.626c-0.257,3.121-0.753,5.299-3.905,7.428l-0.993-0.961
		c1.745-1.088,3.538-2.225,3.634-6.467h-2.4v-1.217h9.699c-0.096,0.848-0.304,1.567-0.479,2.082l2.642-0.019
		c-0.08,1.506-0.145,2.914-0.384,4.258c-0.08,0.435-0.465,0.961-0.865,1.091c-0.526,0.176-1.2,0.143-1.824,0.03l-0.287-1.231
		c0.688,0,1.473,0.416,1.729-0.111c0.16-0.977,0.336-1.922,0.384-2.818h-2.353c-0.096,1.121-0.592,2.002-1.186,2.705
		c0.385,0.226,0.864,0.593,1.426,1.041l-0.85,0.943c-0.576-0.527-1.008-0.863-1.488-1.152c-0.735,0.48-1.729,0.992-3.313,1.281
		l-0.721-1.121c1.185-0.19,2.161-0.399,2.816-0.799c-0.399-0.209-1.057-0.369-1.952-0.449l0.784-0.992
		c0.88,0.08,1.616,0.386,2.257,0.656c0.353-0.352,0.608-0.705,0.736-1.024h-3.233v-1.168L378.837,632.98L378.837,632.98z
		 M374.996,639.352h-1.969l0.017,2.416h1.952V639.352z M378.149,639.352l-1.97-0.016l0.018,2.432h1.952V639.352z M381.254,639.336
		l-1.904,0.016v2.416h1.92L381.254,639.336z"/>
	<path fill="#FFFFFF" d="M386.393,641.816c1.904-0.576,3.152-0.992,5.138-1.761v1.199l-4.545,1.584L386.393,641.816z
		 M391.498,637.607v1.071c-1.281,0.256-2.674,0.607-4.354,1.119l-0.448-1.088c0.944-0.943,1.922-2.449,2.401-3.281
		c-0.176,0-1.328,0.289-1.873,0.433l-0.496-0.959c0.816-1.313,1.81-3.187,2.48-5.188l1.041,0.576
		c-0.545,1.762-1.346,3.234-2.049,4.275c0.256-0.033,0.896-0.113,1.424-0.209c0.336-0.562,0.609-0.992,0.85-1.568l1.009,0.576
		c-0.593,1.393-1.521,3.186-2.978,4.897L391.498,637.607z M392.539,636.742c-0.129,0.271-0.273,0.529-0.562,0.785l-1.04-0.642
		c1.313-1.313,2.225-3.521,2.434-4.963l1.022,0.496c-0.206,0.93-0.397,1.602-0.672,2.354v8.61h-1.198L392.539,636.742z
		 M392.746,631.508v1.537h-1.199v-2.705h3.697c-0.08-0.111-0.465-0.496-1.187-0.912l1.298-0.561
		c0.575,0.447,1.024,1.008,1.297,1.473h3.457v2.209h-1.218v-1.041H392.746z M398.51,643.369v-0.912h-2.434v0.928h-1.201v-8.18h1.633
		c0.273-0.416,0.433-0.848,0.496-1.264h-2.529v-1.138h5.939v1.138l-2.273,0.016c-0.047,0.432-0.239,0.945-0.366,1.248h1.936v8.164
		H398.51z M398.51,638.15v-1.81h-2.434v1.81H398.51z M396.076,639.271v2.049h2.434v-2.049H396.076z"/>
	<path fill="#FFFFFF" d="M409.947,638.23c-0.705,0.049-1.345-0.224-1.793-0.736c-0.447-0.512-0.576-1.313-0.367-1.969
		c0.24-0.769,0.975-1.359,1.76-1.408c0.736-0.049,1.408,0.225,1.842,0.832c0.384,0.528,0.527,1.201,0.304,1.856
		C411.436,637.543,410.732,638.166,409.947,638.23z M409.979,635.158c-0.366-0.096-0.752,0.016-0.991,0.287
		c-0.226,0.239-0.336,0.592-0.271,0.93c0.064,0.303,0.287,0.607,0.576,0.736c0.4,0.176,0.863,0.08,1.168-0.226
		c0.289-0.289,0.369-0.752,0.225-1.121C410.555,635.461,410.283,635.238,409.979,635.158z"/>
	<path fill="#FFFFFF" d="M418.393,639.512c2.656-1.696,4.562-4.112,5.396-6.723h-4.451v-1.217l5.779,0.016v-2.496h1.248
		l-0.017,2.496l5.715-0.016v1.217h-4.274c0.705,2.816,2.945,5.234,5.234,6.578l-0.863,1.024c-4.131-3.12-4.689-4.834-5.779-7.797
		l-0.031,5.685h3.091v1.199l-3.074-0.017l-0.017,3.938h-1.217l-0.016-3.938l-3.17,0.017v-1.199l3.17,0.016v-5.699
		c-1.105,3.49-2.979,5.892-5.73,7.877L418.393,639.512z"/>
	<path fill="#FFFFFF" d="M435.246,637.494c2.018-1.152,3.617-2.945,4.93-4.818l0.978,0.656c-0.447,0.816-1.359,1.891-1.953,2.609
		v7.379h-1.232v-6.113c-0.271,0.256-1.168,0.848-1.774,1.279L435.246,637.494z M435.455,633.094c1.68-1.17,2.977-2.608,4.049-4.291
		l0.945,0.736c-1.072,1.617-2.402,3.314-3.922,4.387L435.455,633.094z M442.785,642.008c0.815,0.064,1.521,0.064,2.209,0.049
		c0.176-0.049,0.352-0.159,0.352-0.385v-6.563h-4.098v-1.185l8.244,0.017v1.168l-2.851,0.016l-0.016,6.691
		c0,0.561-0.287,0.977-0.688,1.217c-0.435,0.24-1.953,0.225-2.771,0.19L442.785,642.008z M448.516,631.236h-6.883l-0.016-1.187
		l6.897-0.016L448.516,631.236L448.516,631.236z"/>
	<path fill="#FFFFFF" d="M465.723,642.137h-13.075v-1.186h6.321c1.601-2.129,2.576-4.736,2.945-7.65l1.217,0.513
		c-0.399,2.688-1.361,5.188-2.738,7.139h5.33V642.137z M459.16,631.844c-0.623-0.912-1.473-1.76-2.609-2.145l1.025-0.832
		c1.088,0.416,2,1.344,2.705,2.354l-0.849,0.607l5.521,0.016v1.187h-11.588v-1.168L459.16,631.844z M457.191,640.344
		c-0.207-2.145-1.023-4.944-2.529-6.531l1.121-0.543c1.521,1.634,2.479,4.466,2.625,6.707L457.191,640.344z"/>
	<path fill="#FFFFFF" d="M470.492,637.111l-0.383-1.187l1.278,0.064c0.113,0,0.32-0.146,0.306-0.271v-1.297l-2.259,0.527
		l-0.688-1.119c1.057-0.178,2.193-0.418,2.961-0.609l-0.016-1.487h-2.369l0.016-1.168h2.354v-1.554h1.217l-0.016,1.535h1.567v1.187
		h-1.567l0.016,1.264l1.647-0.416v1.121l-1.663,0.432l0.016,1.777c0,0.576-0.336,1.201-1.025,1.201H470.492L470.492,637.111z
		 M478.4,641.992c0.432,0.016,0.881,0.256,1.168-0.017c0.225-0.288,0.336-0.641,0.416-1.327l0.192-1.714l-3.729-0.016
		c-0.465,1.584-1.554,2.721-3.025,3.361c-1.121,0.479-2.4,0.848-3.647,0.959l-0.529-1.199c2.225-0.146,4.146-0.672,5.49-2.385
		c0.159-0.209,0.352-0.465,0.465-0.722h-5.556v-1.168h5.779l0.096-0.896l1.185,0.207l-0.111,0.688h4.818
		c0,1.394-0.146,2.336-0.354,3.554c-0.143,0.815-0.496,2-1.873,1.856c-0.463-0.049-1.008-0.113-1.534-0.192l-0.4-1.279
		L478.4,641.992z M480.992,630.82c0.033,1.793-0.063,3.567,0.674,4.961c0.127-0.336,0.256-0.783,0.336-1.168l1.039,0.785
		c-0.238,0.606-0.479,1.151-0.895,1.6c-0.146,0.145-0.435,0.209-0.656,0.193c-0.515-0.113-0.771-0.595-0.961-0.978
		c-0.289-0.609-0.433-1.25-0.529-1.826c-0.111-0.688-0.16-1.664-0.16-2.399l-1.488,0.016c-0.047,0.736-0.143,1.617-0.463,2.273
		c0.416,0.319,0.849,0.705,1.345,1.168l-0.832,0.801c-0.449-0.416-0.785-0.801-1.089-0.992c-0.688,0.816-1.762,1.361-2.944,1.824
		l-0.736-0.992c0.992-0.305,2.064-0.705,2.672-1.537c-0.319-0.24-0.752-0.561-1.393-0.783l0.641-0.912
		c0.609,0.24,0.992,0.56,1.344,0.72c0.21-0.416,0.273-1.072,0.306-1.584h-2.209v-1.168h2.192v-1.843h1.168v1.843L480.992,630.82
		L480.992,630.82z"/>
	<path fill="#FFFFFF" d="M494.967,634.246l0.017,1.168l-3.843-0.016v1.438l3.347,0.017l-0.017,3.538
		c-0.049,0.464-0.369,0.816-0.832,1.009c-0.465,0.19-0.896,0.11-1.616,0.11l-0.4-1.198l1.313,0.063
		c0.191-0.047,0.289-0.111,0.32-0.271l0.017-2.13h-2.13v5.443h-1.248v-5.443h-2.032v3.697h-1.201v-4.834h3.219l0.016-1.438
		l-4.146,0.016v-1.152l4.146,0.017v-1.683l-1.809-0.016c-0.272,0.465-0.576,1.057-1.057,1.617l-1.072-0.642
		c1.023-1.151,1.473-2.416,1.855-3.856c0.434,0.113,0.721,0.271,1.057,0.416c-0.063,0.576-0.256,1.072-0.336,1.346h1.346
		l0.017-2.514h1.2v2.514h3.023v1.119h-2.992v1.682L494.967,634.246z M495.463,640.057v-9.012h1.199v9.012H495.463z M499.145,629.059
		v12.742c0,0.703-0.096,0.896-0.448,1.279c-0.623,0.418-1.744,0.209-2.545,0.273c-0.191-0.4-0.24-0.753-0.416-1.232
		c0.735,0.063,1.297,0.143,1.842,0.096c0.176-0.08,0.336-0.256,0.336-0.465l0.016-12.693H499.145z"/>
	<path fill="#FFFFFF" d="M503.674,640.057h4.914l0.031-0.93l-6.451-0.016v-1.088l6.451-0.033v-0.799l-4.961-0.019l0.016-1.088
		l4.945-0.031v-0.674l-4.562-0.031l-0.018-3.17h4.563l0.017-0.703l-6.354,0.017v-1.121h6.338l-0.016-1.264h1.279l-0.017,1.264h6.388
		l0.016,1.104h-6.402l0.017,0.736l4.514-0.033v3.201h-4.514v0.705l5.074-0.016v1.92h1.457l0.016,1.137l-1.504-0.016v2.063
		l-5.06-0.016c0,0.606,0.16,1.633-0.561,1.953c-0.752,0.352-1.791,0.207-2.688,0.256c-0.192-0.4-0.258-0.752-0.465-1.232
		c0.849,0.064,1.537,0.127,2.193,0.064c0.367-0.049,0.24-0.435,0.256-1.025h-4.898L503.674,640.057z M505.227,634.262l3.347-0.016
		l0.016-0.945l-3.361,0.017L505.227,634.262L505.227,634.262z M513.678,638.008v-0.834l-3.856,0.019v0.832L513.678,638.008z
		 M513.646,640.057l0.016-0.961l-3.842-0.016l0.03,0.977H513.646z M513.166,634.293v-0.992h-3.299v0.978L513.166,634.293z"/>
	<path fill="#FFFFFF" d="M525.74,637.83c-0.369-0.607-1.232-1.633-1.953-2.256l0.896-0.896c0.832,0.625,1.664,1.408,2.193,2.049
		L525.74,637.83z"/>
	<path fill="#FFFFFF" d="M534.793,640.279l-0.561-1.039c2.129-0.594,2.881-0.881,4.688-1.377v1.151L534.793,640.279z
		 M540.764,635.75c-0.049,2.449-0.319,4.803-0.752,6.371c-0.145,0.543-0.705,1.039-1.281,1.104
		c-0.592,0.064-1.168-0.096-1.776-0.256l-0.256-1.231c0.641,0.159,1.09,0.271,1.537,0.385c0.19,0.047,0.305-0.033,0.448-0.146
		c0.287-0.399,0.336-0.928,0.447-1.473c0.24-1.184,0.336-2.465,0.4-3.602h-4.449v-0.943c0.32-1.457,0.527-3.025,0.752-4.803
		l1.152,0.127c-0.177,1.537-0.496,3.475-0.705,4.467l1.953-0.016c0.209-1.474,0.432-3.396,0.448-4.867h-4.161v-1.152h5.409
		c-0.063,2.099-0.272,4.291-0.479,6.035H540.764z M540.314,642.441c1.521-0.882,2.674-2.162,3.459-3.49
		c-1.507-2.129-1.746-5.281-1.953-7.764h-1.041v-1.169l6.516,0.017c-0.273,3.266-0.609,6.387-2.129,8.965
		c0.592,1.119,1.936,2.705,3.168,3.393l-0.848,0.961c-1.297-0.784-2.48-2.209-3.058-3.186c-0.77,1.104-1.842,2.305-3.186,3.281
		L540.314,642.441z M543.068,631.188c0.049,1.953,0.705,5.074,1.44,6.468c0.879-1.81,1.295-4.435,1.455-6.468H543.068z"/>
	<path fill="#FFFFFF" d="M552.576,637.111l-0.385-1.187l1.28,0.064c0.111,0,0.32-0.146,0.306-0.271v-1.297l-2.259,0.527
		l-0.688-1.119c1.055-0.178,2.19-0.418,2.961-0.609l-0.016-1.487h-2.369l0.016-1.168h2.354v-1.554h1.215l-0.017,1.535h1.568v1.187
		h-1.568l0.017,1.264l1.647-0.416v1.121l-1.664,0.432l0.017,1.777c0,0.576-0.336,1.201-1.023,1.201H552.576L552.576,637.111z
		 M560.482,641.992c0.434,0.016,0.881,0.256,1.17-0.017c0.223-0.288,0.336-0.641,0.416-1.327l0.19-1.714l-3.729-0.016
		c-0.466,1.584-1.554,2.721-3.025,3.361c-1.121,0.479-2.402,0.848-3.65,0.959l-0.526-1.199c2.225-0.146,4.145-0.672,5.49-2.385
		c0.159-0.209,0.352-0.465,0.463-0.722h-5.554v-1.168h5.777l0.096-0.896l1.187,0.207l-0.113,0.688h4.818
		c0,1.394-0.146,2.336-0.353,3.554c-0.145,0.815-0.496,2-1.873,1.856c-0.465-0.049-1.008-0.113-1.536-0.192l-0.4-1.279
		L560.482,641.992z M563.076,630.82c0.031,1.793-0.064,3.567,0.672,4.961c0.129-0.336,0.256-0.783,0.336-1.168l1.041,0.785
		c-0.24,0.606-0.48,1.151-0.896,1.6c-0.145,0.145-0.432,0.209-0.655,0.193c-0.513-0.113-0.769-0.595-0.961-0.978
		c-0.287-0.609-0.433-1.25-0.527-1.826c-0.111-0.688-0.16-1.664-0.16-2.399l-1.487,0.016c-0.05,0.736-0.146,1.617-0.466,2.273
		c0.416,0.319,0.849,0.705,1.347,1.168l-0.834,0.801c-0.447-0.416-0.783-0.801-1.088-0.992c-0.688,0.816-1.761,1.361-2.945,1.824
		l-0.736-0.992c0.992-0.305,2.064-0.705,2.674-1.537c-0.319-0.24-0.752-0.561-1.393-0.783l0.641-0.912
		c0.607,0.24,0.992,0.56,1.345,0.72c0.209-0.416,0.271-1.072,0.305-1.584h-2.209v-1.168h2.192v-1.843h1.169v1.843L563.076,630.82
		L563.076,630.82z"/>
	<path fill="#FFFFFF" d="M567.814,632.404v-1.168h3.903c-0.319-0.545-0.721-1.187-1.633-1.744l1.187-0.674
		c0.399,0.225,0.702,0.625,0.942,0.864c0.4,0.48,0.752,1.072,1.041,1.554h2.514c0.688-0.705,1.119-1.457,1.535-2.515l1.152,0.625
		c-0.367,0.816-0.814,1.474-1.185,1.89h4.113v1.168H567.814L567.814,632.404z M569.223,642.904v-9.269h5.41v8.084
		c0,0.527-0.32,0.992-0.785,1.185c-0.592,0.239-1.313,0.096-2,0.112l-0.399-1.17l1.633,0.05c0.111-0.017,0.305-0.08,0.305-0.306
		v-1.854h-2.914v3.168H569.223L569.223,642.904z M570.471,634.822v1.264h2.914v-1.264H570.471z M570.471,638.584h2.914v-1.393
		h-2.914V638.584z M576.072,634.133h1.231v6.291h-1.231V634.133z M580.027,633.076v8.932c0,0.465-0.416,1.01-0.865,1.17
		c-0.576,0.191-1.264,0.08-1.984,0.111l-0.385-1.184c0.689,0.016,1.168-0.033,1.648-0.05c0.145-0.049,0.319-0.209,0.319-0.432
		v-8.549L580.027,633.076L580.027,633.076z"/>
	<path fill="#FFFFFF" d="M584.109,637.494c2.016-1.152,3.616-2.945,4.93-4.818l0.977,0.656c-0.448,0.816-1.36,1.891-1.953,2.609
		v7.379h-1.231v-6.113c-0.271,0.256-1.168,0.848-1.777,1.279L584.109,637.494z M584.316,633.094c1.682-1.17,2.979-2.608,4.051-4.291
		l0.942,0.736c-1.071,1.617-2.399,3.314-3.922,4.387L584.316,633.094z M591.648,642.008c0.815,0.064,1.52,0.064,2.209,0.049
		c0.176-0.049,0.352-0.159,0.352-0.385v-6.563h-4.098v-1.185l8.244,0.017v1.168l-2.851,0.016l-0.016,6.691
		c0,0.561-0.289,0.977-0.689,1.217c-0.432,0.24-1.953,0.225-2.77,0.19L591.648,642.008z M597.379,631.236h-6.883l-0.018-1.187
		l6.899-0.016L597.379,631.236L597.379,631.236z"/>
	<path fill="#FFFFFF" d="M606.688,638.791l-0.465-0.592c0.754-0.336,0.961-0.945,0.961-1.584h-0.864v-1.762h1.762v1.682
		C608.08,637.078,607.889,638.23,606.688,638.791z"/>
	<path fill="#FFFFFF" d="M616.029,642.424c1.393-1.215,1.92-2.832,2.033-4.449c0.127-1.696,0.143-4.258,0.127-6.61h5.842
		c-0.207-0.479-0.832-1.072-1.568-1.584l0.85-0.802c0.832,0.449,1.568,1.171,2.05,1.953l-0.416,0.433h5.151v1.121h-10.707
		c-0.032,1.842,0,4.608-0.209,6.194c-0.256,2.017-0.942,3.152-2.209,4.595L616.029,642.424z M630.146,642.617H618.83l0.016-1.137
		h6.756c1.185-1.938,2.111-4.994,2.367-7.685l1.154,0.4c-0.289,3.2-1.281,5.922-2.162,7.282h3.186V642.617L630.146,642.617z
		 M622.08,640.809c-0.625-3.041-1.41-3.985-2.498-5.539l1.088-0.512c1.297,1.633,2.162,3.377,2.578,5.361L622.08,640.809z
		 M623.439,633.412c1.104,1.44,1.938,3.49,2.178,5.33l-1.187,0.578c-0.223-1.842-0.942-3.73-2-5.379L623.439,633.412z"/>
	<path fill="#FFFFFF" d="M638.148,631.523l0.018,10.563h-1.25v-1.184h-2.064v1.184h-1.217V631.54L638.148,631.523z M636.916,635.639
		v-2.914h-2.064l0.017,2.931L636.916,635.639z M636.916,639.736v-2.931h-2.064l0.017,2.945L636.916,639.736z M642.695,643.32
		l-0.465-1.295l1.44,0.11c0.146,0.017,0.271-0.145,0.256-0.289l0.017-8.211h-4.994l-0.017-1.184h5.011v-3.396h1.2v3.379h1.681v1.199
		l-1.681-0.016v8.531c0,0.655-0.465,1.168-0.991,1.168h-1.457V643.32z M641.75,639.08c-0.352-1.041-1.535-2.738-2.545-3.57
		l0.961-0.672c0.945,0.752,2.193,2.4,2.594,3.553L641.75,639.08z"/>
</g>
</svg>
