<?xml version="1.0" encoding="utf-8"?>
<!-- Generator: Adobe Illustrator 16.0.0, SVG Export Plug-In . SVG Version: 6.00 Build 0)  -->
<!DOCTYPE svg PUBLIC "-//W3C//DTD SVG 1.1//EN" "http://www.w3.org/Graphics/SVG/1.1/DTD/svg11.dtd">
<svg version="1.1" id="Layer_1" xmlns="http://www.w3.org/2000/svg" xmlns:xlink="http://www.w3.org/1999/xlink" x="0px" y="0px"
	 width="768px" height="1024px" viewBox="0 0 768 1024" enable-background="new 0 0 768 1024" xml:space="preserve">
<path fill="#FFFFFF" d="M121.23,651.604v-1.168h3.905c-0.32-0.545-0.721-1.186-1.633-1.743l1.185-0.675
	c0.4,0.226,0.704,0.625,0.944,0.865c0.4,0.48,0.752,1.072,1.04,1.553h2.514c0.688-0.705,1.12-1.457,1.536-2.514l1.152,0.625
	c-0.368,0.816-0.815,1.473-1.184,1.889h4.113v1.168H121.23L121.23,651.604z M122.638,662.104v-9.268h5.41v8.084
	c0,0.527-0.32,0.992-0.784,1.184c-0.593,0.24-1.313,0.097-2.001,0.113l-0.4-1.17l1.633,0.049c0.112-0.016,0.305-0.08,0.305-0.305
	v-1.855h-2.913v3.169L122.638,662.104L122.638,662.104z M123.887,654.021v1.264h2.913v-1.264H123.887z M123.887,657.783h2.913
	v-1.394h-2.913V657.783z M129.489,653.332h1.232v6.291h-1.232V653.332z M133.443,652.275v8.932c0,0.465-0.416,1.01-0.864,1.17
	c-0.576,0.191-1.265,0.08-1.985,0.111l-0.384-1.185c0.688,0.017,1.168-0.032,1.648-0.049c0.145-0.049,0.32-0.209,0.32-0.432v-8.549
	L133.443,652.275L133.443,652.275z"/>
<path fill="#FFFFFF" d="M142.896,657.686c0,2.002-0.561,3.586-1.745,5.043l-1.04-0.735c0.992-1.058,1.585-2.785,1.585-4.578v-4.93
	c0-0.017-0.208,0.127-0.513,0.286l-0.288-0.463l-0.032,8.322h-1.2v-0.592h-1.36v1.041h-1.2v-11.701h3.761v2.193
	c1.152-0.656,2.369-1.842,2.802-3.457l0.977,0.416c-0.017,0.383-0.129,0.639-0.177,0.736h3.922v0.896
	c-0.16,0.303-0.336,0.639-0.4,0.768h2.609v1.121h-2.785c0.624,0.32,1.36,1.009,1.696,1.681l-0.672,0.528l1.408,0.031v1.072h-7.026
	v-1.072h0.432l-0.736-0.625L142.896,657.686z M138.302,650.5v2h1.36v-2H138.302z M138.302,653.605v2.016h1.36v-2.016H138.302z
	 M138.302,656.709v2.193h1.36v-2.193H138.302z M142.912,653.365c1.104-0.385,1.393-0.496,1.921-1.297l-1.937-0.017L142.912,653.365z
	 M146.641,650.932c0.177-0.225,0.272-0.416,0.337-0.592h-3.073c-0.145,0.24-0.337,0.527-0.4,0.592H146.641z M149.619,655.846v1.058
	h-6.002v-1.058H149.619z M149.603,658.486h-5.986v-1.041h5.986V658.486z M148.338,662.633v-0.85h-3.474v0.785h-1.185v-3.554h5.843
	v3.617L148.338,662.633L148.338,662.633z M146.082,654.293c-0.032-0.209-0.288-0.561-0.576-0.816l1.088-0.592
	c0.385,0.447,0.528,0.881,0.624,1.408h1.313c-0.432-0.785-1.088-1.457-1.824-1.856l0.544-0.337l-1.889-0.03l0.576,0.287
	c-0.384,0.754-1.104,1.521-1.969,1.905L146.082,654.293z M144.865,660.744h3.474v-0.689h-3.474V660.744z"/>
<path fill="#FFFFFF" d="M152.685,655.797c1.713-1.824,3.298-4.994,3.858-7.715l1.136,0.479c-0.399,1.521-0.608,2.209-1.168,3.587
	v10.323l-1.249,0.017v-7.892c-0.031,0.047-1.04,1.504-1.536,1.97L152.685,655.797z M161.874,652.195h5.073v1.151h-5.122
	l-0.048,0.642h1.009v6.58c0,0.157,0.08,0.317,0.272,0.317h2.288c0.32,0,0.353-0.16,0.448-0.416c0.097-0.416,0.145-0.992,0.16-1.694
	l1.185,0.911c-0.144,0.863-0.4,2.353-1.232,2.353h-3.297c-0.816,0-1.104-0.447-1.104-1.039v-5.203
	c-0.24,1.568-0.785,3.57-2.226,5.203c-0.479,0.527-1.136,1.137-1.921,1.553l-0.815-0.961c2.305-1.393,3.217-3.457,3.729-5.746
	c0.176-0.752,0.288-1.824,0.304-2.479h-3.457v-1.17h3.489l0.016-3.97l1.249,0.017V652.195z M164.739,652.1
	c-0.561-0.961-1.393-1.647-2.306-2.319l0.913-0.785c0.896,0.608,1.696,1.44,2.385,2.354L164.739,652.1z"/>
<path fill="#FFFFFF" d="M180.322,660.76c0.305,0,0.608-0.16,0.705-0.449c0.239-0.719,0.384-1.278,0.512-2.209l1.2,0.449
	c-0.176,1.041-0.319,2-0.912,2.816c-0.32,0.369-0.656,0.514-1.28,0.594h-2.993c-0.961,0-1.841-0.705-1.841-1.65v-2.991
	c-0.688,0.432-1.36,0.782-2.497,1.231l-0.576-0.625l-0.017,4.754h-1.232v-8.162l-0.016,0.224c-0.433,0.594-0.977,1.231-1.585,1.697
	l-1.104-0.832c2.289-1.984,3.41-4.449,4.338-7.22l1.072,0.513c-0.416,1.377-0.896,2.705-1.473,3.856l0.017,4.627
	c1.248-0.514,2.161-0.896,3.073-1.457v-7.233h1.232v6.563c1.761-1.231,2.785-2.321,3.857-3.666l1.057,0.722
	c-1.617,2-3.266,3.426-4.914,4.399v3.396c0,0.399,0.272,0.655,0.88,0.655L180.322,660.76L180.322,660.76z"/>
<path fill="#FFFFFF" d="M189.872,649.203v1.152h-1.633v10.26c0,0.656-0.336,1.088-0.624,1.281c-0.544,0.366-1.28,0.256-2.033,0.256
	c-0.144-0.416-0.271-0.736-0.479-1.232c0.672,0.08,1.216,0.08,1.712,0.08c0.08-0.033,0.112-0.08,0.16-0.145V650.34h-2.209v-1.137
	H189.872z M188.431,661.32c2.049-0.226,4.033-1.025,4.722-2.961c0.528-1.49,0.336-3.14,0.368-4.947c0.448-0.016,0.784,0,1.217,0
	c0.016,1.488,0.063,2.994-0.16,4.307c-0.593,2.978-2.401,4.226-5.427,4.771L188.431,661.32z M193.249,651.619
	c0.24-0.447,0.465-1.008,0.545-1.473h-3.618v-1.136h8.372v1.136h-3.538c-0.128,0.528-0.271,1.104-0.479,1.456h3.393v7.556h-1.168
	v-6.388h-5.058l0.016,6.66h-1.232v-7.813L193.249,651.619L193.249,651.619z M197.971,662.488c-0.929-1.232-2.226-2.273-3.586-2.994
	l0.576-0.863c1.665,0.703,3.121,1.904,3.938,2.992L197.971,662.488z"/>
<path fill="#FFFFFF" d="M202.382,648.914h11.221v3.555H203.55c0,3.873,0.177,7.01-2.145,9.939c-0.368-0.271-0.624-0.512-0.944-0.816
	c1.04-1.313,1.921-3.186,1.921-6.227V648.914z M203.55,650.066v1.25h8.884v-1.25H203.55z M212.707,662.537
	c-0.24-0.562-0.608-1.17-0.896-1.553c-2.722,0.319-4.546,0.672-6.898,0.977l-0.593-1.186c1.265-1.185,2.562-2.881,3.138-4.082
	h-3.618v-1.104h10.853v1.138h-6.435l0.528,0.383c-0.88,1.41-1.761,2.498-2.641,3.36l4.834-0.543
	c-0.305-0.354-0.593-0.801-1.281-1.346l0.961-0.703c1.185,1.088,2.369,2.592,3.153,3.922L212.707,662.537z M204.912,654.293v-1.137
	h7.938v1.137H204.912z"/>
<path fill="#FFFFFF" d="M219.439,661.543l-0.705-1.023c0.305-0.256,0.417-0.432,0.417-0.768v-5.172h-2.273v-1.168h3.489v6.307
	l2.257-1.217v1.313L219.439,661.543z M220.447,652.1c-0.464-0.961-1.152-1.713-2.032-2.432l0.848-0.721
	c0.896,0.592,1.665,1.457,2.193,2.369L220.447,652.1z M230.067,662.52c-1.313-0.495-2.85-1.264-3.857-2.096
	c-0.977,0.721-2.449,1.68-3.874,2.16l-0.8-1.008c1.488-0.529,2.753-1.168,3.762-1.969c-0.881-0.931-1.441-2.179-1.938-3.33h-0.752
	v-1.152h6.883c-0.32,2.082-1.217,3.346-2.417,4.449c1.12,0.881,2.433,1.457,4.082,1.953L230.067,662.52z M228.61,654.084
	c-0.768,0-1.168-0.559-1.168-1.184l-0.016-2.609h-2.577v1.488c0,0.815-0.337,1.647-1.152,2.418c-0.32,0.305-0.769,0.606-1.281,0.815
	l-0.864-1.01c0.912-0.303,1.393-0.783,1.761-1.328c0.353-0.543,0.353-0.912,0.353-1.488v-2.063h4.945l0.017,3.617
	c0.016,0.129,0.144,0.225,0.271,0.209h1.729v1.135H228.61L228.61,654.084z M224.672,656.277c0.353,0.801,0.816,1.809,1.521,2.514
	c0.721-0.721,1.313-1.537,1.713-2.514H224.672z"/>
<path fill="#FFFFFF" d="M235.838,662.377l-0.72-1.025c0.304-0.256,0.416-0.399,0.416-0.752v-6.883h-2.337v-1.137h3.554v7.971
	l2.4-1.313v1.33L235.838,662.377z M236.191,651.236c-0.464-0.961-1.152-1.697-2.033-2.418l0.864-0.736
	c0.896,0.609,1.665,1.473,2.178,2.385L236.191,651.236z M242.065,652.965v-4.754h1.201v4.754h3.745v1.168h-3.745v8.451h-1.201
	v-8.451h-3.729v-1.168H242.065z"/>
<path fill="#FFFFFF" d="M255.408,657.99l-0.464-0.592c0.753-0.336,0.961-0.945,0.961-1.584h-0.865v-1.763h1.761v1.683
	C256.8,656.277,256.609,657.43,255.408,657.99z"/>
<path fill="#FFFFFF" d="M265.358,661.32c0.608,0,1.2-0.049,1.616-0.033c0.16-0.063,0.24-0.271,0.272-0.463v-3.715
	c-0.48,0.145-1.072,0.399-1.761,0.641l-0.832-0.961c0.992-0.336,1.872-0.607,2.625-0.912V652.5h-2.177v-1.152h2.16v-3.151h1.185
	v3.151h1.745v1.168h-1.745v2.994c0.433-0.129,0.929-0.369,1.665-0.655v1.198c-0.656,0.226-1.152,0.48-1.665,0.656v4.643
	c-0.144,0.865-0.512,1.152-1.057,1.152l-1.681,0.016L265.358,661.32z M279.076,658.807c-0.225,1.408-0.32,3.347-1.985,3.347h-4.737
	c-0.865,0-1.617-0.689-1.697-1.297v-11.652h7.363v7.123h-6.163v4.145c0,0.32,0.305,0.529,0.656,0.529h4.29
	c0.721,0,0.912-1.217,1.137-2.479L279.076,658.807z M271.856,655.158h1.857v-4.818h-1.857V655.158z M276.802,650.34h-1.856v4.818
	h1.856V650.34z"/>
<path fill="#FFFFFF" d="M286.56,661.064l-0.641-0.515v0.625c0,0.705-0.432,1.217-1.137,1.217h-1.168l-0.4-1.231
	c0.673,0.111,0.929,0.145,1.2,0.111c0.177-0.017,0.305-0.127,0.305-0.32v-4.305h-1.745c0.017,1.713-0.176,4.399-1.328,6.002
	l-0.929-0.816c0.864-1.617,1.072-3.297,1.072-5.139v-7.763h4.13v10.916c0.961-0.93,2.449-2.192,2.913-4.946h-2.577v-1.168h3.874
	C289.937,658.311,287.697,659.895,286.56,661.064z M284.719,650.1h-1.729v2.097h1.729V650.1z M284.719,653.365h-1.729v2.11h1.729
	V653.365z M294.563,661.016c-1.536-1.328-2.609-3.01-3.009-4.129l-0.032,4.273c0,0.512-0.225,0.863-0.641,1.119
	c-0.496,0.305-1.136,0.225-1.664,0.225h-0.545l-0.368-1.168h1.729c0.111-0.016,0.256-0.08,0.288-0.191v-9.155h-3.313v-1.168h4.514
	v2.928c0.208,0.576,0.384,1.121,0.592,1.602c0.944-0.432,1.681-1.377,2.193-2.239l0.96,0.832c-0.752,1.104-1.681,2.016-2.625,2.561
	c0.608,1.297,1.633,2.561,2.93,3.682L294.563,661.016z M291.89,650.82c-1.329-1.025-2.817-1.41-3.954-1.713l0.705-1.025
	c1.424,0.352,2.736,0.85,3.985,1.744L291.89,650.82z"/>
<path fill="#FFFFFF" d="M304.922,650.291h0.736v1.633h-1.504v-1.281c0-0.782,0-1.889,1.279-2.465l0.353,0.545
	C304.971,649.059,304.939,649.844,304.922,650.291z M307.356,650.291h0.735v1.633h-1.505v-1.281c0-0.782,0-1.889,1.28-2.465
	l0.353,0.545C307.404,649.059,307.372,649.844,307.356,650.291z"/>
<path fill="#FFFFFF" d="M317.392,661.816c1.457-1.634,2.161-3.507,2.064-5.38l-1.776,1.089l-0.896-0.88
	c0.448-0.272,1.377-0.721,2.737-1.633l-0.017-1.28l-0.993,0.721c-0.288-1.008-0.863-1.777-1.712-2.435l0.864-0.688
	c0.752,0.416,1.536,1.377,1.809,2.192l0.032-3.985h5.138c-0.159-0.146-0.593-0.4-1.249-0.656l0.962-0.768
	c0.607,0.271,1.119,0.752,1.633,1.438l5.232-0.016v1.151l-10.5,0.017v3.891c0,2.865,0.048,5.267-2.239,8.021L317.392,661.816z
	 M327.172,661.127c0.736,0,1.344,0.098,1.744,0.018c0.208-0.032,0.305-0.239,0.305-0.465v-0.944h-2.674l-0.016,2.161l-1.2-0.016
	l-0.017-2.146l-2.674,0.018l-0.016,2.881h-1.217l0.016-8.531h3.554c-0.191-0.129-0.977-0.434-1.855-0.594l0.736-0.977
	c0.655,0.178,1.057,0.369,1.601,0.655c0.832-0.143,1.616-0.446,2.017-0.702l-6.131-0.031v-1.17h8.195l-0.016,1.01
	c-0.85,0.912-1.922,1.439-2.802,1.68l0.111,0.13h3.602v7.073c0,0.816-0.352,1.201-1.088,1.201h-1.729L327.172,661.127z
	 M322.642,656.357l2.674-0.017v-1.088h-2.688L322.642,656.357z M322.626,657.51l0.016,1.072h2.689v-1.057L322.626,657.51z
	 M326.532,655.254l0.016,1.088h2.674v-1.088H326.532z M326.547,658.582h2.674l-0.017-1.057l-2.673-0.017L326.547,658.582z"/>
<path fill="#FFFFFF" d="M333.584,662.664l-1.089-0.912c1.377-0.848,2.225-1.984,2.817-3.346l1.008,0.512
	C335.761,660.6,334.56,661.943,333.584,662.664z M339.731,650.963v1.568h4.386v5.348h-9.076v-5.348h3.474v-4.289h1.218v1.617h5.762
	v1.104H339.731z M342.964,653.637h-6.707v3.138h6.707V653.637z M338.434,662.217c-0.304-1.186-0.783-2.192-1.615-3.219l1.04-0.432
	c0.641,0.801,1.359,2.002,1.841,3.297L338.434,662.217z M341.86,662.248c-0.448-1.137-1.201-2.385-1.985-3.217l1.024-0.496
	c0.815,0.815,1.647,2.049,2.146,3.266L341.86,662.248z M345.733,662.344c-0.624-1.248-1.664-2.576-2.674-3.393l0.944-0.642
	c1.12,0.978,2.192,2.16,2.881,3.361L345.733,662.344z"/>
<path fill="#FFFFFF" d="M356.138,652.004l-0.352-0.545c0.815-0.336,0.848-1.119,0.864-1.568h-0.736v-1.633h1.505v1.281
	C357.419,650.324,357.419,651.428,356.138,652.004z M358.572,652.004l-0.354-0.545c0.816-0.336,0.85-1.119,0.864-1.568h-0.736
	v-1.633h1.505v1.281C359.852,650.324,359.852,651.428,358.572,652.004z"/>
<path fill="#FFFFFF" d="M374.021,656.582c-0.641,0.207-1.186,0.432-1.682,0.592v3.73c0,0.575-0.016,0.959-0.432,1.344
	c-0.354,0.305-1.313,0.369-2.129,0.352l-0.465-1.231c0.655,0.049,1.072,0.112,1.521,0.033c0.208-0.019,0.304-0.209,0.304-0.369
	v-3.441c-0.368,0.146-0.977,0.385-1.601,0.576c-0.256-0.32-0.434-0.592-0.721-1.008c0.929-0.256,1.665-0.496,2.306-0.736v-3.873
	h-1.905v-1.137h1.905l0.016-3.105h1.2v3.105h1.602v1.137h-1.602v3.394c0.433-0.127,1.28-0.466,1.648-0.642L374.021,656.582z
	 M372.565,654.357c1.743-1.826,2.721-3.843,3.265-6.181l1.089,0.386c-0.256,0.977-0.448,1.842-0.721,2.514h6.61v1.151h-3.152
	l-0.018,1.775h2.337v1.17h-2.337l0.018,1.889h2.319v1.152h-2.337l0.018,2.049h3.617v1.152h-7.252v1.151h-1.231v-9.122
	c-0.145,0.206-0.576,0.928-1.089,1.504L372.565,654.357z M376.022,652.229v1.775h2.417l0.016-1.76L376.022,652.229z
	 M376.022,657.047h2.417l0.016-1.873l-2.434-0.016L376.022,657.047L376.022,657.047z M376.022,660.264h2.417v-2.049l-2.417-0.016
	V660.264z M378.695,651.027c-0.305-0.961-0.752-1.617-1.584-2.4l1.12-0.592c0.575,0.688,1.327,1.711,1.601,2.576L378.695,651.027z"
	/>
<path fill="#FFFFFF" d="M398.504,661.832h-6.563c-1.729,0-3.218-0.672-4.259-1.842c-0.495,0.688-1.553,1.553-2.465,2.129
	l-0.848-0.848c0.913-0.546,1.938-1.328,2.834-2.369v-4.322h-2.402v-1.135h3.57v5.713c0.463,0.514,1.953,1.506,3.393,1.567
	c3.041,0.13,5.41-0.047,7.188-0.127L398.504,661.832z M387.748,652.115c-0.562-1.088-1.713-2.336-2.48-2.801l0.863-0.753
	c0.93,0.642,1.73,1.394,2.609,2.755L387.748,652.115z M394.6,651.043v-2.592h1.199v2.592h1.969v1.137h-1.969v2.466h2.609v1.151
	h-2.625v4.547h-1.168v-4.578l-2.289,0.017c-0.017,1.856-0.176,3.121-1.729,4.467l-0.977-0.865c1.104-0.881,1.457-1.76,1.521-3.602
	h-2.467v-1.138h2.482v-2.479h-2.129v-1.137h2.096v-2.576h1.232v2.592L394.6,651.043L394.6,651.043z M392.357,654.645h2.258v-2.465
	h-2.258V654.645z"/>
<path fill="#FFFFFF" d="M407.654,659.654l-5.49,2.129l-1.137-0.799c0.801-0.416,0.785-0.834,0.785-1.474l0.016-5.539h4.145v-3.44
	l-4.448,0.016l0.016-1.199h5.65v6.435l-1.232,0.016l-0.016-0.639h-2.882l0.017,4.93l4.578-1.682L407.654,659.654L407.654,659.654z
	 M414.201,662.52c-1.201-0.672-2.273-1.647-3.17-2.801c-1.072,1.267-2.289,2.146-3.713,2.865l-0.802-0.943
	c1.521-0.77,2.882-1.762,3.793-2.979c-0.623-1.039-1.022-2.049-1.327-3.328c-0.386,0.816-0.705,1.473-1.058,1.889l-1.121-0.545
	c1.73-2.434,2.273-5.201,2.338-8.291l1.152,0.271c0.016,1.057-0.111,1.824-0.191,2.594l4.386,0.016v1.187h-0.943
	c-0.336,2.977-0.77,4.399-1.809,6.225c0.782,1.154,1.969,2.146,3.344,2.963L414.201,662.52z M409.67,653.477
	c0.258,1.425,0.576,2.705,1.33,4.033c0.736-1.408,1.168-3.297,1.344-5.057h-2.416L409.67,653.477z"/>
<path fill="#FFFFFF" d="M424.598,659.623l0.019,2.994l-1.217,0.016v-2.994h-6.181v-1.151l6.181-0.017v-0.961h-4.308v-3.873h4.308
	v-0.848h-2.689v-2.082l-3.25,0.016v-1.168l3.234-0.016l0.016-1.232h1.201l0.016,1.232h4.082l0.017-1.281h1.198v1.297l3.22-0.016
	v1.168l-3.22-0.016v2.098h-2.625v0.848l4.242-0.016v3.889h-4.225l-0.019,0.978l6.275-0.017v1.168L424.598,659.623z M420.293,656.357
	h3.105v-1.554h-3.105V656.357z M421.926,650.707v0.912l4.082,0.018v-0.93H421.926z M424.615,654.805v1.537h3.008v-1.537H424.615z"/>
<path fill="#FFFFFF" d="M438.102,648.611l-0.129,0.352c1.297,2.256,2.515,3.953,4.193,5.201l-0.879,1.01
	c-0.562-0.479-0.93-0.881-1.152-1.137c-0.145,1.68-0.434,3.777-0.85,4.834c-0.207,0.527-0.752,0.641-1.199,0.641
	c-0.496-0.063-0.961-0.192-1.473-0.354c-0.097-0.416-0.146-0.752-0.24-1.313c0.641,0.273,1.072,0.449,1.553,0.496
	c0.367-0.063,0.353-0.496,0.496-0.848c0.271-0.978,0.416-1.953,0.447-2.865h-3.328v5.746c0,0.272,0.16,0.416,0.32,0.416h4.336
	c0.239-0.064,0.338-0.32,0.369-0.592l0.256-1.072l1.071,0.527c-0.239,0.864-0.352,2.129-1.567,2.241h-4.563
	c-0.912,0-1.424-0.625-1.424-1.28v-6.082c-0.129,0.096-0.606,0.416-1.217,0.782l-0.769-1.071c1.474-0.672,2.4-1.648,3.168-2.802
	c0.625-0.942,1.187-2.159,1.537-3.313L438.102,648.611z M439.621,653.492c-0.543-0.703-1.568-2.064-2.176-3.201
	c-0.416,1.041-1.218,2.338-2.033,3.186L439.621,653.492z M442.359,659.016v-8.309h1.184v8.309H442.359z M444.76,648.258h1.187V661.4
	c0,0.526-0.306,1.039-0.994,1.104l-1.729-0.016l-0.366-1.185l1.633,0.078c0.145,0,0.271-0.158,0.271-0.526V648.258z"/>
<path fill="#FFFFFF" d="M451.957,657.863c-0.674,1.375-1.426,2.367-2.705,3.104l-0.721-0.942c1.264-0.705,2.033-1.634,2.561-2.816
	L451.957,657.863z M453.51,661.432c0,0.625-0.479,1.313-1.217,1.313h-1.297l-0.416-1.281l1.281,0.099
	c0.157,0.016,0.397-0.179,0.397-0.386v-4.354h-2.576v-1.168h2.576v-1.138h-3.137v-1.186h2.305c-0.11-0.463-0.496-1.057-1.231-1.615
	l1.057-0.434c0.672,0.528,1.152,1.248,1.377,2.049h0.672c0.529-0.527,0.929-1.328,1.121-2.016l1.072,0.432
	c-0.176,0.561-0.545,1.217-0.896,1.584h1.904v1.186h-2.992v1.138h2.545v1.168h-2.545v1.137l0.463-0.594
	c0.752,0.465,1.474,1.217,2.002,2.112l-0.815,0.931c-0.4-0.961-1.121-1.65-1.648-2.049L453.51,661.432L453.51,661.432z
	 M452.148,649.859c-0.146-0.256-0.48-0.705-1.009-1.232l1.168-0.545c0.513,0.609,0.945,1.217,1.138,1.777h2.705v1.168h-6.627v-1.168
	H452.148z M462.553,649.268c-1.44,0.832-2.914,1.232-4.338,1.488v2.289h4.594v1.168h-1.793v8.34h-1.231v-8.34h-1.568v2.064
	c0,2.129-0.705,4.321-1.938,6.227l-1.088-0.768c1.473-2.019,1.793-4.193,1.793-6.677l-0.017-5.28
	c1.777-0.209,3.313-0.689,4.818-1.504L462.553,649.268z"/>
<path fill="#FFFFFF" d="M471.381,657.99l-0.463-0.592c0.752-0.336,0.961-0.945,0.961-1.584h-0.865v-1.763h1.761v1.683
	C472.773,656.277,472.582,657.43,471.381,657.99z"/>
<path fill="#FFFFFF" d="M494.633,661.977l-4.418-0.049c-1.281-0.016-2.416-0.735-3.09-1.647c-0.303,0.465-1.488,1.457-2.145,1.903
	l-0.802-1.008c0.816-0.625,1.521-1.201,2.129-1.856v-4.05l-0.862,0.031c0.416,1.01,0.561,2.082,0,2.785
	c-0.496,0.641-1.025,0.721-1.89,0.561l-0.399-1.327c0.768,0.079,1.121,0.366,1.424-0.191c0.209-0.354,0.08-0.816-0.111-1.186
	c-0.432-0.863-0.848-1.584-1.473-2.576c0.496-1.058,0.896-2.113,1.361-3.234h-1.57v12.422h-1.215v-13.59h4.112v1.041
	c-0.448,1.344-0.784,2.271-1.231,3.297c0.32,0.527,0.592,1.058,0.752,1.521l0.031-0.672h2.225V659
	c0.851,1.186,2.082,1.809,3.555,1.809h2.449l1.601-0.127C494.889,661.225,494.744,661.543,494.633,661.977z M487.078,653.365
	c-0.305-0.896-0.656-1.713-1.408-2.354l0.879-0.672c0.785,0.656,1.232,1.424,1.586,2.305L487.078,653.365z M490.822,651.092
	c-0.111,0.353-0.271,0.688-0.383,0.912h3.536v6.787c0,0.527-0.352,1.023-0.944,1.023h-1.424c-0.146-0.4-0.271-0.736-0.433-1.232
	l1.297,0.129c0.207,0,0.287-0.225,0.287-0.385v-0.912h-2.705v2.561h-1.217v-5.377l-0.367,0.416l-0.912-0.93
	c0.959-0.848,1.568-1.969,1.984-2.992h-1.904v-1.168h2.289c0.144-0.561,0.238-0.93,0.367-1.602c0.432,0.16,0.721,0.305,1.072,0.432
	c-0.031,0.514-0.111,0.85-0.207,1.17h3.44v1.168H490.822z M492.76,653.172h-2.705v0.978h2.705V653.172z M492.76,655.316h-2.705
	v0.993h2.705V655.316z"/>
<path fill="#FFFFFF" d="M510.824,650.324v1.184h-13.668l-0.019-1.184h6.275c-0.353-0.498-0.928-1.041-1.617-1.377l0.896-0.832
	c0.881,0.416,1.521,1.151,2.098,1.983l-0.256,0.226H510.824z M504.566,655.014l0.016,7.604h-1.232v-7.604h-3.121l-0.016,5.953
	l-1.231,0.019v-7.156l4.368-0.017v-1.793l1.232-0.016v1.824h4.467l0.017,5.49c0,0.911-0.337,1.393-1.298,1.393h-1.44l-0.398-1.232
	l1.424,0.064c0.306,0.016,0.48-0.16,0.48-0.4l-0.016-4.129H504.566L504.566,655.014z"/>
<path fill="#FFFFFF" d="M517.83,661.08l0.016-7.107l-2.063-0.016v8.66H514.5v-9.861h4.305c0.4-0.703,0.576-1.553,0.674-2.336h-6.065
	v-1.201l13.35,0.017v1.186h-5.987c-0.111,0.816-0.238,1.6-0.576,2.336h5.49l0.018,8.275c-0.049,0.512-0.434,1.041-0.93,1.168
	c-0.543,0.129-1.168,0.08-1.793,0.063l-0.398-1.184c0.656-0.016,1.104,0.064,1.568-0.016c0.16-0.05,0.303-0.193,0.303-0.4
	l0.018-6.691l-2.146-0.016v7.09h-1.232l-0.016-7.09h-1.969v7.139L517.83,661.08z"/>
<path fill="#FFFFFF" d="M541.496,659.848c-0.127,0.959-0.24,1.873-1.297,2.306c-0.592,0.256-1.297,0.08-1.969,0.016
	c-0.128-0.4-0.207-0.721-0.384-1.231c0.752,0.079,1.279,0.256,1.791,0.159c0.418-0.145,0.369-0.672,0.529-1.104
	c0.385-2.226,0.625-5.058,0.721-6.945h-2.002c0.017,3.744-0.561,7.426-4.578,9.443l-0.928-1.025c1.025-0.496,1.793-1.119,2.129-1.52
	c-0.207-0.466-0.465-0.802-0.721-1.105c-1.328,0.369-3.297,0.93-4.898,1.506l-0.832-1.217c0.865-0.705,2.259-3.377,2.689-4.865
	h-2.881v-1.17h6.979v1.17h-2.752c-0.801,1.937-1.602,3.584-2.289,4.449l3.298-0.896c-0.097-0.146-0.386-0.416-0.802-0.785
	l0.881-0.623c0.736,0.623,1.824,1.774,2.209,2.625c0.336-0.289,1.265-2.338,1.265-4.724v-1.264h-1.681v-1.104h1.681v-3.714
	c0.432,0.017,0.752-0.03,1.217-0.016v3.729h3.313C542.041,654.693,541.768,657.863,541.496,659.848z M529.492,650.98v-1.105h5.697
	v1.105H529.492z"/>
<path fill="#FFFFFF" d="M547.348,660.904l-0.703-1.025c0.384-0.305,0.562-0.512,0.562-0.752v-5.105h-2.066v-1.151h3.267v6.065
	l1.553-0.834v1.298L547.348,660.904z M548.004,651.588c-0.463-0.961-1.072-1.568-1.92-2.305l0.816-0.721
	c0.896,0.606,1.567,1.264,2.063,2.192L548.004,651.588z M550.309,649.027h8.035v11.764c0,0.881-0.543,1.602-1.487,1.602h-1.505
	l-0.416-1.186c0.722,0.033,1.232,0.064,1.824,0.049c0.256-0.016,0.369-0.209,0.369-0.449V650.18h-5.619v4.193
	c0,1.777,0.146,3.426-0.145,5.121c-0.207,1.217-0.752,2.387-1.584,3.395l-1.041-0.77c0.832-1.072,1.266-1.791,1.457-3.328
	c0.176-1.346,0.11-3.057,0.11-4.609L550.309,649.027L550.309,649.027z M554.902,651.955h1.762v1.104h-1.762v1.201h1.891v1.119
	h-4.898v-1.119h1.855v-1.201h-1.744v-1.12h1.744v-1.377h1.152V651.955L554.902,651.955z M556.184,655.957v4.211h-3.745v-4.211
	H556.184z M555.047,657.078h-1.473v1.969h1.473V657.078z"/>
<path fill="#FFFFFF" d="M563.412,660.695l0.016-2.146l1.201-0.016v2.176h2.625v-2.865h-5.49l0.017-1.137h12.422v1.137h-5.746v0.785
	h4.994v1.121h-4.994v0.959h6.658v1.104h-14.312v-1.12L563.412,660.695L563.412,660.695z M574.473,656.773
	c-1.248-0.4-2.239-0.896-3.041-1.634c-0.735,0.529-1.616,1.058-2.641,1.507l-0.609-0.912c1.025-0.418,1.763-0.865,2.482-1.457
	c-0.354-0.529-0.561-0.961-0.771-1.488l-0.592,0.912l-0.881-0.48l0.017,0.802h-2.017c0.769,0.271,1.394,0.655,2.08,1.215
	l-0.752,0.896c-0.527-0.526-1.393-0.959-1.938-1.184v1.633l-1.184-0.016v-2.273c-0.385,0.865-1.697,1.904-3.121,2.449l-0.561-0.992
	c1.297-0.465,2.098-1.072,2.594-1.746h-1.633l-0.019-3.022h2.771v-0.515h-3.457v-1.137h3.441l0.016-1.135h1.186l-0.016,1.135h3.377
	v1.137h-3.377v0.515h2.592v1.936c1.121-1.617,1.506-2.977,1.842-4.834l1.232,0.353c-0.176,0.655-0.354,1.297-0.48,1.696l3.666-0.016
	v1.137h-0.914c-0.096,0.271-0.19,0.672-0.317,1.088c-0.258,0.771-0.689,1.474-1.17,2.002c0.354,0.496,1.983,1.313,2.785,1.505
	L574.473,656.773z M563.027,652.084l0.018,0.832h1.6l-0.016-0.832H563.027z M565.813,654.277l0.209-0.256h-0.209V654.277z
	 M567.27,652.084h-1.438v0.832h1.438V652.084z M570.631,651.252c-0.031,0.047-0.047,0.176-0.08,0.287
	c0.32,0.834,0.609,1.521,0.928,1.938c0.4-0.465,0.931-1.473,1.091-2.225H570.631z"/>
<path fill="#FFFFFF" d="M578.805,657.463l3.474-0.688v1.071c-1.697,0.4-3.521,0.771-4.818,1.09l-0.561-1.071
	c0.914-0.834,1.969-2.193,2.834-3.154c-0.48,0.064-1.298,0.225-2.289,0.432l-0.545-1.071c0.944-1.297,2.368-3.777,3.346-5.65
	l0.992,0.689c-0.849,1.534-2.24,3.873-2.802,4.688c0.337-0.016,1.328-0.24,2.259-0.305c0.432-0.592,0.848-1.232,1.358-1.969
	l1.011,0.721C581.43,654.373,580.084,656.246,578.805,657.463z M577.604,661.848l-0.688-1.184c2.24-0.674,3.713-1.281,5.809-2.002
	v1.217C580.518,660.744,579.283,661.176,577.604,661.848z M581.412,662.057v-1.104h4.065v-3.281h-2.864v-1.168h6.932v1.168h-2.85
	v3.281h4.272v1.104H581.412z M590.168,656.551c-1.313-1.104-3.025-2.065-3.938-2.418c-1.345,1.281-2.609,1.76-3.984,2.24
	l-0.771-1.023c3.587-1.2,5.269-3.395,6.162-5.073h-5.377v-1.105h6.947v1.025c-0.865,1.553-1.617,2.434-2.146,3.024
	c1.25,0.623,3.01,1.537,3.938,2.48L590.168,656.551z"/>
<path fill="#FFFFFF" d="M601.51,651.652V650.5h-3.328v1.119h-1.217V650.5h-3.922v-1.17h3.971v-0.928h1.168v0.912h3.328v-0.896h1.201
	v0.896h3.938v1.168h-3.953v1.17H601.51L601.51,651.652z M594.516,654.629h-1.184V652.1h12.996l-0.017,2.562h-1.184v-1.394h-10.613
	L594.516,654.629L594.516,654.629z M603.576,662.68v-0.942h-7.558v0.928h-1.215l0.017-4.834h9.955v4.85L603.576,662.68
	L603.576,662.68z M603.576,659.016h-7.558v1.535h7.558V659.016z M603.592,657.158h-7.539v-3.267h7.523L603.592,657.158z
	 M597.285,655.078v0.895h5.074v-0.895H597.285z"/>
<path fill="#FFFFFF" d="M608.723,660.744c2.675-0.656,5.043-1.826,6.738-3.986l0.033-0.752l-3.41,0.016l0.016,2.609h-1.231v-3.762
	h4.594l0.033-0.992l-5.762-0.016l0.016-1.17h5.713l0.033-0.896h1.201l0.016,0.896h5.746l0.016,1.17h-5.762v1.008h4.48l-0.017,2.479
	c-0.047,0.48-0.432,0.992-0.912,1.121c-0.352,0.129-0.768,0.049-1.217,0.08l-0.352-1.201c0.545-0.016,0.961,0.193,1.137-0.047
	c0.096-0.08,0.111-0.225,0.111-0.369v-0.912l-3.201-0.016l-0.016,0.769c1.696,2.338,4.145,3.25,6.577,3.905l-0.655,1.072
	c-2.354-0.576-4.545-1.664-5.922-3.266v4.082h-1.267v-4.099c-1.504,1.584-3.633,2.656-6.002,3.346L608.723,660.744z
	 M613.605,652.453c-0.24-0.674-0.546-1.314-0.882-1.746h-1.264c-0.416,0.529-0.801,1.057-1.617,1.602l-1.008-0.784
	c1.344-0.816,2.24-2.13,2.785-3.488l1.088,0.397c-0.146,0.498-0.432,0.931-0.512,1.105h4.192v1.168h-2.354l0.625,1.168
	L613.605,652.453z M620.375,652.404c-0.223-0.609-0.688-1.313-1.184-1.729h-1.138c-0.256,0.367-0.641,0.816-1.137,1.199
	l-0.992-0.752c1.137-0.799,1.729-1.873,2.129-3.105l1.168,0.354c-0.176,0.512-0.432,0.959-0.496,1.137l4.371,0.017l-0.018,1.151
	h-2.385c0.063,0.096,0.545,0.752,0.754,1.185L620.375,652.404z"/>
<path fill="#FFFFFF" d="M631.109,655.75c1.2-0.545,2.385-1.217,3.2-1.953c-0.366-0.496-0.735-1.088-0.977-1.617
	c-0.383,0.625-0.639,1.025-1.264,1.633l-0.912-0.688c1.344-1.408,2.225-3.121,2.785-5.027l1.057,0.4
	c-0.16,0.561-0.354,1.09-0.465,1.408h3.569c-0.288,1.746-1.521,3.219-2.178,3.922c0.912,0.752,1.793,1.377,3.457,1.986l-0.832,0.928
	c-1.647-0.689-2.514-1.313-3.426-2.113c-0.992,0.912-2,1.504-3.328,2.129l-0.674-0.864l-0.031,4.866h-1.184l0.016-1.231h-2.994
	l0.017,1.248h-1.185v-10.771h5.346v5.745H631.109z M626.932,651.156v2.881h0.931v-2.865L626.932,651.156z M626.932,658.359h0.931
	l-0.019-3.154h-0.912V658.359z M629.91,651.172h-0.945v2.881h0.945V651.172z M628.965,658.359h0.961v-3.154h-0.961V658.359z
	 M636.504,662.584l-0.016-1.023l-2.738-0.018v1.057h-1.168v-6.098h5.123v6.082H636.504L636.504,662.584z M633.734,660.408
	l2.77-0.019v-2.752l-2.754,0.017L633.734,660.408z M634.135,651.076c0.271,0.543,0.672,1.52,1.041,1.904
	c0.562-0.576,0.896-1.041,1.297-1.904H634.135z"/>
<path fill="#FFFFFF" d="M647.381,657.99l-0.463-0.592c0.752-0.336,0.961-0.945,0.961-1.584h-0.865v-1.763h1.761v1.683
	C648.773,656.277,648.582,657.43,647.381,657.99z"/>
</svg>
