<?xml version="1.0" encoding="utf-8"?>
<!-- Generator: Adobe Illustrator 16.0.0, SVG Export Plug-In . SVG Version: 6.00 Build 0)  -->
<!DOCTYPE svg PUBLIC "-//W3C//DTD SVG 1.1//EN" "http://www.w3.org/Graphics/SVG/1.1/DTD/svg11.dtd">
<svg version="1.1" id="Layer_1" xmlns="http://www.w3.org/2000/svg" xmlns:xlink="http://www.w3.org/1999/xlink" x="0px" y="0px"
	 width="768px" height="1024px" viewBox="0 0 768 1024" enable-background="new 0 0 768 1024" xml:space="preserve">
<path fill="#FFFFFF" d="M567.814,632.404v-1.168h3.903c-0.319-0.545-0.721-1.187-1.633-1.744l1.187-0.674
	c0.399,0.225,0.702,0.625,0.942,0.864c0.4,0.48,0.752,1.072,1.041,1.554h2.514c0.688-0.705,1.119-1.457,1.535-2.515l1.152,0.625
	c-0.367,0.816-0.814,1.474-1.185,1.89h4.113v1.168H567.814L567.814,632.404z M569.223,642.904v-9.269h5.41v8.084
	c0,0.527-0.32,0.992-0.785,1.185c-0.592,0.239-1.313,0.096-2,0.112l-0.399-1.17l1.633,0.05c0.111-0.017,0.305-0.08,0.305-0.306
	v-1.854h-2.914v3.168H569.223L569.223,642.904z M570.471,634.822v1.264h2.914v-1.264H570.471z M570.471,638.584h2.914v-1.393h-2.914
	V638.584z M576.072,634.133h1.231v6.291h-1.231V634.133z M580.027,633.076v8.932c0,0.465-0.416,1.01-0.865,1.17
	c-0.576,0.191-1.264,0.08-1.984,0.111l-0.385-1.184c0.689,0.016,1.168-0.033,1.648-0.05c0.145-0.049,0.319-0.209,0.319-0.432v-8.549
	L580.027,633.076L580.027,633.076z"/>
<path fill="#FFFFFF" d="M584.109,637.494c2.016-1.152,3.616-2.945,4.93-4.818l0.977,0.656c-0.448,0.816-1.36,1.891-1.953,2.609
	v7.379h-1.231v-6.113c-0.271,0.256-1.168,0.848-1.777,1.279L584.109,637.494z M584.316,633.094c1.682-1.17,2.979-2.608,4.051-4.291
	l0.942,0.736c-1.071,1.617-2.399,3.314-3.922,4.387L584.316,633.094z M591.648,642.008c0.815,0.064,1.52,0.064,2.209,0.049
	c0.176-0.049,0.352-0.159,0.352-0.385v-6.563h-4.098v-1.185l8.244,0.017v1.168l-2.851,0.016l-0.016,6.691
	c0,0.561-0.289,0.977-0.689,1.217c-0.432,0.24-1.953,0.225-2.77,0.19L591.648,642.008z M597.379,631.236h-6.883l-0.018-1.187
	l6.899-0.016L597.379,631.236L597.379,631.236z"/>
<path fill="#FFFFFF" d="M606.688,638.791l-0.465-0.592c0.754-0.336,0.961-0.945,0.961-1.584h-0.864v-1.762h1.762v1.682
	C608.08,637.078,607.889,638.23,606.688,638.791z"/>
<path fill="#FFFFFF" d="M616.029,642.424c1.393-1.215,1.92-2.832,2.033-4.449c0.127-1.696,0.143-4.258,0.127-6.61h5.842
	c-0.207-0.479-0.832-1.072-1.568-1.584l0.85-0.802c0.832,0.449,1.568,1.171,2.05,1.953l-0.416,0.433h5.151v1.121h-10.707
	c-0.032,1.842,0,4.608-0.209,6.194c-0.256,2.017-0.942,3.152-2.209,4.595L616.029,642.424z M630.146,642.617H618.83l0.016-1.137
	h6.756c1.185-1.938,2.111-4.994,2.367-7.685l1.154,0.4c-0.289,3.2-1.281,5.922-2.162,7.282h3.186V642.617L630.146,642.617z
	 M622.08,640.809c-0.625-3.041-1.41-3.985-2.498-5.539l1.088-0.512c1.297,1.633,2.162,3.377,2.578,5.361L622.08,640.809z
	 M623.439,633.412c1.104,1.44,1.938,3.49,2.178,5.33l-1.187,0.578c-0.223-1.842-0.942-3.73-2-5.379L623.439,633.412z"/>
<path fill="#FFFFFF" d="M638.148,631.523l0.018,10.563h-1.25v-1.184h-2.064v1.184h-1.217V631.54L638.148,631.523z M636.916,635.639
	v-2.914h-2.064l0.017,2.931L636.916,635.639z M636.916,639.736v-2.931h-2.064l0.017,2.945L636.916,639.736z M642.695,643.32
	l-0.465-1.295l1.44,0.11c0.146,0.017,0.271-0.145,0.256-0.289l0.017-8.211h-4.994l-0.017-1.184h5.011v-3.396h1.2v3.379h1.681v1.199
	l-1.681-0.016v8.531c0,0.655-0.465,1.168-0.991,1.168h-1.457V643.32z M641.75,639.08c-0.352-1.041-1.535-2.738-2.545-3.57
	l0.961-0.672c0.945,0.752,2.193,2.4,2.594,3.553L641.75,639.08z"/>
<path fill="#FFFFFF" d="M563.412,660.695l0.016-2.146l1.201-0.016v2.176h2.625v-2.865h-5.49l0.017-1.137h12.422v1.137h-5.746v0.785
	h4.994v1.121h-4.994v0.959h6.658v1.104h-14.312v-1.12L563.412,660.695L563.412,660.695z M574.473,656.773
	c-1.248-0.4-2.239-0.896-3.041-1.634c-0.735,0.529-1.616,1.058-2.641,1.507l-0.609-0.912c1.025-0.418,1.763-0.865,2.482-1.457
	c-0.354-0.529-0.561-0.961-0.771-1.488l-0.592,0.912l-0.881-0.48l0.017,0.802h-2.017c0.769,0.271,1.394,0.655,2.08,1.215
	l-0.752,0.896c-0.527-0.526-1.393-0.959-1.938-1.184v1.633l-1.184-0.016v-2.273c-0.385,0.865-1.697,1.904-3.121,2.449l-0.561-0.992
	c1.297-0.465,2.098-1.072,2.594-1.746h-1.633l-0.019-3.022h2.771v-0.515h-3.457v-1.137h3.441l0.016-1.135h1.186l-0.016,1.135h3.377
	v1.137h-3.377v0.515h2.592v1.936c1.121-1.617,1.506-2.977,1.842-4.834l1.232,0.353c-0.176,0.655-0.354,1.297-0.48,1.696l3.666-0.016
	v1.137h-0.914c-0.096,0.271-0.19,0.672-0.317,1.088c-0.258,0.771-0.689,1.474-1.17,2.002c0.354,0.496,1.983,1.313,2.785,1.505
	L574.473,656.773z M563.027,652.084l0.018,0.832h1.6l-0.016-0.832H563.027z M565.813,654.277l0.209-0.256h-0.209V654.277z
	 M567.27,652.084h-1.438v0.832h1.438V652.084z M570.631,651.252c-0.031,0.047-0.047,0.176-0.08,0.287
	c0.32,0.834,0.609,1.521,0.928,1.938c0.4-0.465,0.931-1.473,1.091-2.225H570.631z"/>
<path fill="#FFFFFF" d="M578.805,657.463l3.474-0.688v1.071c-1.697,0.4-3.521,0.771-4.818,1.09l-0.561-1.071
	c0.914-0.834,1.969-2.193,2.834-3.154c-0.48,0.064-1.298,0.225-2.289,0.432l-0.545-1.071c0.944-1.297,2.368-3.777,3.346-5.65
	l0.992,0.689c-0.849,1.534-2.24,3.873-2.802,4.688c0.337-0.016,1.328-0.24,2.259-0.305c0.432-0.592,0.848-1.232,1.358-1.969
	l1.011,0.721C581.43,654.373,580.084,656.246,578.805,657.463z M577.604,661.848l-0.688-1.184c2.24-0.674,3.713-1.281,5.809-2.002
	v1.217C580.518,660.744,579.283,661.176,577.604,661.848z M581.412,662.057v-1.104h4.065v-3.281h-2.864v-1.168h6.932v1.168h-2.85
	v3.281h4.272v1.104H581.412z M590.168,656.551c-1.313-1.104-3.025-2.065-3.938-2.418c-1.345,1.281-2.609,1.76-3.984,2.24
	l-0.771-1.023c3.587-1.2,5.269-3.395,6.162-5.073h-5.377v-1.105h6.947v1.025c-0.865,1.553-1.617,2.434-2.146,3.024
	c1.25,0.623,3.01,1.537,3.938,2.48L590.168,656.551z"/>
<path fill="#FFFFFF" d="M601.51,651.652V650.5h-3.328v1.119h-1.217V650.5h-3.922v-1.17h3.971v-0.928h1.168v0.912h3.328v-0.896h1.201
	v0.896h3.938v1.168h-3.953v1.17H601.51L601.51,651.652z M594.516,654.629h-1.184V652.1h12.996l-0.017,2.562h-1.184v-1.394h-10.613
	L594.516,654.629L594.516,654.629z M603.576,662.68v-0.942h-7.558v0.928h-1.215l0.017-4.834h9.955v4.85L603.576,662.68
	L603.576,662.68z M603.576,659.016h-7.558v1.535h7.558V659.016z M603.592,657.158h-7.539v-3.267h7.523L603.592,657.158z
	 M597.285,655.078v0.895h5.074v-0.895H597.285z"/>
<path fill="#FFFFFF" d="M608.723,660.744c2.675-0.656,5.043-1.826,6.738-3.986l0.033-0.752l-3.41,0.016l0.016,2.609h-1.231v-3.762
	h4.594l0.033-0.992l-5.762-0.016l0.016-1.17h5.713l0.033-0.896h1.201l0.016,0.896h5.746l0.016,1.17h-5.762v1.008h4.48l-0.017,2.479
	c-0.047,0.48-0.432,0.992-0.912,1.121c-0.352,0.129-0.768,0.049-1.217,0.08l-0.352-1.201c0.545-0.016,0.961,0.193,1.137-0.047
	c0.096-0.08,0.111-0.225,0.111-0.369v-0.912l-3.201-0.016l-0.016,0.769c1.696,2.338,4.145,3.25,6.577,3.905l-0.655,1.072
	c-2.354-0.576-4.545-1.664-5.922-3.266v4.082h-1.267v-4.099c-1.504,1.584-3.633,2.656-6.002,3.346L608.723,660.744z
	 M613.605,652.453c-0.24-0.674-0.546-1.314-0.882-1.746h-1.264c-0.416,0.529-0.801,1.057-1.617,1.602l-1.008-0.784
	c1.344-0.816,2.24-2.13,2.785-3.488l1.088,0.397c-0.146,0.498-0.432,0.931-0.512,1.105h4.192v1.168h-2.354l0.625,1.168
	L613.605,652.453z M620.375,652.404c-0.223-0.609-0.688-1.313-1.184-1.729h-1.138c-0.256,0.367-0.641,0.816-1.137,1.199
	l-0.992-0.752c1.137-0.799,1.729-1.873,2.129-3.105l1.168,0.354c-0.176,0.512-0.432,0.959-0.496,1.137l4.371,0.017l-0.018,1.151
	h-2.385c0.063,0.096,0.545,0.752,0.754,1.185L620.375,652.404z"/>
<path fill="#FFFFFF" d="M631.109,655.75c1.2-0.545,2.385-1.217,3.2-1.953c-0.366-0.496-0.735-1.088-0.977-1.617
	c-0.383,0.625-0.639,1.025-1.264,1.633l-0.912-0.688c1.344-1.408,2.225-3.121,2.785-5.027l1.057,0.4
	c-0.16,0.561-0.354,1.09-0.465,1.408h3.569c-0.288,1.746-1.521,3.219-2.178,3.922c0.912,0.752,1.793,1.377,3.457,1.986l-0.832,0.928
	c-1.647-0.689-2.514-1.313-3.426-2.113c-0.992,0.912-2,1.504-3.328,2.129l-0.674-0.864l-0.031,4.866h-1.184l0.016-1.231h-2.994
	l0.017,1.248h-1.185v-10.771h5.346v5.745H631.109z M626.932,651.156v2.881h0.931v-2.865L626.932,651.156z M626.932,658.359h0.931
	l-0.019-3.154h-0.912V658.359z M629.91,651.172h-0.945v2.881h0.945V651.172z M628.965,658.359h0.961v-3.154h-0.961V658.359z
	 M636.504,662.584l-0.016-1.023l-2.738-0.018v1.057h-1.168v-6.098h5.123v6.082H636.504L636.504,662.584z M633.734,660.408
	l2.77-0.019v-2.752l-2.754,0.017L633.734,660.408z M634.135,651.076c0.271,0.543,0.672,1.52,1.041,1.904
	c0.562-0.576,0.896-1.041,1.297-1.904H634.135z"/>
<path fill="#FFFFFF" d="M647.381,657.99l-0.463-0.592c0.752-0.336,0.961-0.945,0.961-1.584h-0.865v-1.763h1.761v1.683
	C648.773,656.277,648.582,657.43,647.381,657.99z"/>
<path fill="#FFFFFF" d="M127.537,670.26v-2.721h1.152v2.721h5.17v10.26c0,0.609-0.384,0.832-0.832,0.978
	c-0.417,0.129-1.057,0.08-1.81,0.063l-0.464-1.186c0.688,0.049,1.057,0.098,1.537,0.064c0.288-0.064,0.399-0.146,0.399-0.416v-8.611
	h-4.049c0,0.625-0.032,1.328-0.097,1.969c1.473,1.137,2.449,2.305,3.521,4.099l-0.977,0.735c-0.768-1.344-1.904-2.625-2.913-3.521
	c-0.544,1.266-1.729,2.785-3.729,3.856l-0.736-1.022c3.073-1.697,3.746-3.361,3.746-6.115h-4.146v10.34h-1.184V670.26H127.537z"/>
<path fill="#FFFFFF" d="M148.322,679.959c0.305,0,0.608-0.16,0.705-0.447c0.239-0.721,0.384-1.281,0.512-2.209l1.2,0.447
	c-0.176,1.041-0.319,2.002-0.912,2.818c-0.32,0.366-0.656,0.512-1.28,0.592h-2.993c-0.961,0-1.841-0.705-1.841-1.648v-2.994
	c-0.688,0.435-1.36,0.785-2.497,1.232l-0.576-0.623l-0.017,4.754h-1.232v-8.164l-0.016,0.226c-0.433,0.592-0.977,1.231-1.585,1.696
	l-1.104-0.834c2.289-1.983,3.41-4.448,4.338-7.219l1.072,0.514c-0.416,1.375-0.896,2.705-1.473,3.857l0.017,4.625
	c1.248-0.512,2.161-0.896,3.073-1.457v-7.234h1.232v6.563c1.761-1.232,2.785-2.32,3.857-3.666l1.057,0.721
	c-1.617,2.002-3.266,3.426-4.914,4.402v3.393c0,0.4,0.272,0.656,0.88,0.656L148.322,679.959L148.322,679.959z"/>
<path fill="#FFFFFF" d="M161.073,680.168c0.752,0.127,1.329,0.367,1.969,0.352c0.192-0.047,0.385-0.127,0.433-0.305
	c0.416-1.344,0.64-4.608,0.704-7.906h-4.21c-0.032,2.418-0.544,4.818-2.017,6.771c-0.832,1.119-2.433,2.176-3.554,2.688
	l-0.832-1.071c2.112-0.736,4.033-2.562,4.594-4.578c0.353-1.248,0.641-2.562,0.592-3.824h-5.426v-1.121h5.426v-3.682
	c0.448-0.017,0.736-0.031,1.217-0.031v3.697l5.427,0.016c-0.145,3.041-0.097,6.451-0.705,9.283c-0.08,0.4-0.384,0.816-0.8,1.041
	c-0.48,0.32-1.232,0.225-2.625-0.08L161.073,680.168z M156.687,670.965c-0.384-0.977-1.104-1.553-2.033-2.192l0.993-0.753
	c0.832,0.623,1.553,1.248,2.08,2.13L156.687,670.965z M162.177,678.023c-0.353-1.313-1.152-2.306-2.113-3.347l1.009-0.592
	c1.009,0.992,1.696,2,2.193,3.266L162.177,678.023z"/>
<path fill="#FFFFFF" d="M169.182,677.83l2.833-1.104v-6.178h-2.401v-1.153l5.938,0.018l-0.016,1.152l-2.321-0.017v5.697l2.545-1.057
	v1.266l-5.65,2.336L169.182,677.83z M177.601,679.656c0.912,0.223,1.521,0.432,2.289,0.512c0.288,0.031,0.496-0.096,0.561-0.24
	c0.288-1.344,0.496-5.299,0.576-7.539l-2.289,0.017c-0.513,5.489-1.089,7.268-5.25,9.541l-0.881-1.121
	c3.634-1.457,4.53-3.41,4.771-8.467h-2.321v-1.17h2.337l0.016-3.634h1.265l-0.016,3.634l3.633,0.018
	c-0.128,3.313-0.096,5.377-0.512,8.258c-0.112,0.771-0.192,1.394-0.881,1.729c-0.815,0.399-2.24-0.097-3.169-0.176L177.601,679.656z
	"/>
<path fill="#FFFFFF" d="M196.947,675.223c0,1.439-0.177,3.584-0.368,4.771c-0.112,0.623-0.433,1.217-1.024,1.393
	c-0.721,0.127-1.457-0.016-2.209-0.112l-0.448-1.408c0.96,0.289,1.345,0.432,1.872,0.432c0.305,0.049,0.528-0.143,0.593-0.512
	c0.16-0.848,0.353-2.225,0.353-3.361h-3.33c-0.304,1.762-1.809,3.555-3.553,4.371c-0.961,0.447-1.985,0.783-3.138,0.992l-0.752-1.17
	c2.608-0.383,5.41-1.394,6.114-3.938c0.048-0.159,0.08-0.256,0.096-0.287l-4.081,0.031v-1.217l4.241,0.018
	c0.096-0.674,0.128-1.456,0.176-2.354l1.185,0.287c-0.031,0.801-0.111,1.473-0.16,2.049L196.947,675.223z M185.07,674.229
	c2.225-0.752,4.193-1.889,5.25-3.713h-4.706v-1.217l5.33-0.016c0.256-0.527,0.433-1.152,0.624-1.92l1.104,0.432
	c-0.08,0.641-0.288,1.152-0.399,1.488l6.37,0.016v1.217h-4.626c1.104,1.744,3.121,2.865,5.314,3.634l-0.784,1.104
	c-2.369-0.945-4.706-2.479-5.971-4.738h-0.816c-1.12,2.32-3.489,3.826-5.858,4.787L185.07,674.229z"/>
<path fill="#FFFFFF" d="M209.105,676.518c-0.513,1.474-1.825,3.011-3.313,3.777c-1.232,0.625-2.321,1.057-3.697,1.346l-0.912-1.088
	c2.833-0.449,5.506-1.586,6.61-4.035h-6.61v-1.168h6.979c0.16-0.465,0.271-1.487,0.271-2.176v-2.209h1.201
	c0,2.129,0.048,3.041-0.225,4.385h5.347v1.168H209.105z M213.283,671.941v-1.474H202.67v1.474h-1.217v-2.644h6.419
	c-0.256-0.432-0.961-1.022-1.489-1.313l0.913-0.576c0.576,0.305,1.345,0.961,1.696,1.647l-0.512,0.209l6.019,0.031v2.644
	L213.283,671.941L213.283,671.941z M205.263,675.254c-0.544-0.881-1.328-1.647-2.272-2.24l0.784-0.721
	c0.912,0.512,1.793,1.313,2.369,2.24L205.263,675.254z M206.864,673.717c-0.528-0.961-1.265-1.68-2.209-2.32l0.816-0.688
	c0.944,0.545,1.793,1.41,2.354,2.354L206.864,673.717z M214.051,681.705c-1.521-1.697-3.122-2.594-5.122-3.49l0.624-0.896
	c1.601,0.592,3.97,2.018,5.33,3.44L214.051,681.705z"/>
<path fill="#FFFFFF" d="M217.005,670.564c1.297-0.832,2.017-2.002,2.609-3.281c0.384,0.176,0.656,0.32,1.04,0.496
	c-0.176,0.399-0.352,0.752-0.399,0.879h4.146v1.137l-2.417,0.019c0.063,0.079,0.288,0.559,0.544,0.942l-1.089,0.592
	c-0.271-0.641-0.544-1.119-0.912-1.534h-0.928c-0.385,0.526-0.865,1.055-1.682,1.614L217.005,670.564z M217.662,671.461h5.875
	c-0.112-0.225-0.433-0.625-0.913-1.09l1.152-0.367c0.513,0.512,0.896,1.168,1.089,1.457h5.73v3.008l-1.217-0.016v-1.855h-10.5
	l-0.016,1.937l-1.201-0.017L217.662,671.461L217.662,671.461z M221.023,681.816h-1.265l0.017-8.404h8.611l0.016,3.266l-7.411,0.019
	v0.799h8.116v4.272h-1.233v-0.942h-6.866L221.023,681.816z M220.991,675.541h6.195l-0.017-0.992h-6.179L220.991,675.541
	L220.991,675.541z M221.007,678.664l0.016,1.055l6.851-0.016v-1.072L221.007,678.664z M228.482,669.732
	c0.097,0.096,0.465,0.479,0.736,0.975c-0.352,0.225-0.672,0.385-1.088,0.561c-0.305-0.639-0.625-1.137-1.041-1.52h-1.056
	c-0.209,0.352-0.513,0.848-0.961,1.231c-0.336-0.256-0.592-0.416-0.944-0.688c0.864-0.928,1.313-1.855,1.585-3.041l1.072,0.4
	c-0.064,0.416-0.16,0.77-0.225,0.944h4.37v1.138H228.482L228.482,669.732z"/>
<path fill="#FFFFFF" d="M233.629,679.703c-0.336-0.303-0.64-0.543-1.056-0.959c0.992-0.289,1.729-0.594,2.417-0.85v-3.697h-1.633
	l0.016-1.138l1.585,0.017l0.016-3.168l-1.921,0.016v-1.168l4.962,0.016v1.138h-1.776l-0.016,3.168l1.568-0.017v1.138h-1.568v3.233
	c0.464-0.178,1.152-0.498,1.937-0.784v1.2L233.629,679.703z M246.179,668.34l-0.032,6.963h-3.249v1.535h3.153v1.152h-3.186v1.842
	h4.273v1.137h-9.716v-1.137h4.21l0.016-1.842h-3.201v-1.152h3.186l0.016-1.535h-3.313v-6.979L246.179,668.34z M241.633,671.188
	l0.016-1.694l-2.097-0.019v1.713H241.633z M239.552,672.324v1.842h2.081l0.016-1.857L239.552,672.324z M242.881,672.34v1.81
	l2.065,0.018v-1.809L242.881,672.34z M242.914,671.205h2.049l0.032-1.713l-2.097-0.019L242.914,671.205z"/>
<path fill="#FFFFFF" d="M259.858,678.871h-3.233v1.152h5.986v1.168h-12.933v-1.168h5.746v-1.152h-3.01v-0.912
	c-0.912,0.625-2,1.057-3.041,1.361c-0.271-0.338-0.512-0.642-0.784-1.105c1.648-0.352,3.169-0.977,4.082-1.938h-3.153l-0.017-1.136
	h2.545l0.017-5.25h-2.241v-1.12h2.225v-1.313h1.217v1.313h5.555v-1.347l1.185-0.016v1.361h2.24v1.104h-2.209l-0.016,5.25
	l2.561,0.019l0.017,1.135h-3.01c0.961,0.944,2.594,1.553,4.114,1.793l-0.721,1.104c-1.024-0.305-2.209-0.784-3.121-1.346
	L259.858,678.871L259.858,678.871z M259.746,677.783c-0.624-0.433-1.12-0.865-1.553-1.506h-4.146
	c-0.384,0.625-0.816,1.073-1.393,1.473l2.77,0.033v-1.187l1.217,0.019l-0.017,1.152L259.746,677.783z M253.263,670.852h5.538
	l0.017-0.977h-5.555V670.852z M258.818,672.949v-1.008l-5.555,0.016v1.008L258.818,672.949z M258.818,675.143l-0.017-1.09h-5.538
	v1.072L258.818,675.143z"/>
<path fill="#FFFFFF" d="M270.864,669.043v1.105h-2.369c-0.016,0.911-0.368,2.03-0.496,2.465h2.306v7.25h-1.137v-0.912h-1.44v1.344
	h-1.153v-4.434c-0.336,0.528-0.527,0.815-1.008,1.377l-0.992-0.849c1.504-1.696,2.353-3.313,2.785-6.227h-2.369v-1.121
	L270.864,669.043L270.864,669.043z M269.167,673.75h-1.457v4.064h1.457V673.75z M274.209,674.086h-2.817v-4.482h1.137v3.313h1.681
	v-5.473h1.152v5.489h1.665v-3.346h1.104v4.48h-2.77v5.442h1.984v-4.481h1.137v6.657h-1.137v-1.055h-4.993v1.008h-1.137v-6.596h1.152
	v4.467h1.841L274.209,674.086L274.209,674.086z"/>
<path fill="#FFFFFF" d="M287.408,677.191l-0.464-0.595c0.753-0.336,0.961-0.942,0.961-1.584h-0.865v-1.76h1.761v1.68
	C288.8,675.479,288.609,676.631,287.408,677.191z"/>
<path fill="#FFFFFF" d="M310.899,679.639v1.187l-13.589,0.016v-1.184l6.162,0.016l-0.016-3.586h-4.658l0.017-1.217l4.643,0.016
	l0.016-2.928l-5.729-0.016v-1.187h12.646l0.032,1.187h-5.699v2.928h4.706l-0.031,1.201l-4.643,0.016l0.017,3.586L310.899,679.639z
	 M302.448,667.266c1.279,0.642,2.192,1.554,2.864,2.724l-1.104,0.623c-0.721-1.279-1.537-1.873-2.817-2.672L302.448,667.266z"/>
<path fill="#FFFFFF" d="M325.523,679.047c-0.129,0.961-0.24,1.873-1.298,2.305c-0.592,0.257-1.297,0.08-1.969,0.019
	c-0.128-0.4-0.208-0.721-0.384-1.232c0.752,0.078,1.28,0.256,1.792,0.158c0.417-0.143,0.368-0.672,0.528-1.104
	c0.385-2.226,0.624-5.06,0.721-6.947h-2.001c0.016,3.746-0.562,7.428-4.578,9.442l-0.928-1.022c1.023-0.496,1.792-1.121,2.129-1.521
	c-0.208-0.463-0.465-0.799-0.721-1.104c-1.328,0.367-3.298,0.928-4.898,1.504l-0.832-1.217c0.864-0.703,2.257-3.377,2.689-4.865
	h-2.883v-1.168h6.979v1.168h-2.753c-0.801,1.938-1.602,3.586-2.289,4.449l3.297-0.896c-0.096-0.143-0.384-0.416-0.8-0.782
	l0.88-0.625c0.736,0.625,1.825,1.776,2.209,2.625c0.336-0.287,1.265-2.336,1.265-4.722v-1.266H320v-1.104h1.681v-3.715
	c0.433,0.019,0.752-0.031,1.218-0.016v3.729h3.313C326.067,673.893,325.794,677.063,325.523,679.047z M313.518,670.18v-1.104h5.698
	v1.104H313.518z"/>
<path fill="#FFFFFF" d="M331.214,673.51h-2.145v-1.104h3.329v6.051c0.849,0.912,2.08,1.488,3.474,1.537
	c1.296,0.047,2.641,0.145,3.97,0.063l3.409-0.192l-0.479,1.313h-6.516c-2.929,0-3.617-0.815-4.418-1.664
	c-0.784,0.576-1.553,1.313-2.417,2.064l-0.912-0.961c0.992-0.719,1.89-1.474,2.705-2.146V673.51z M331.375,671.172
	c-0.433-0.943-1.2-2.096-2.113-2.865l0.896-0.655c0.961,0.77,1.793,1.938,2.257,2.834L331.375,671.172z M342.5,668.02
	c-1.361,0.562-2.689,0.896-3.922,1.072v1.81h4.4v1.184h-4.4v1.906h3.009v5.567h-1.28v-0.911h-4.688v0.93h-1.266v-5.586h2.913V672.1
	h-4.321v-1.215h4.321v-1.633c-1.089,0.143-2.337,0.176-3.682,0.176l-0.641-1.217c2.802,0.049,6.322-0.111,8.852-1.232L342.5,668.02z
	 M335.6,675.205v2.258h4.706v-2.258H335.6z"/>
<path fill="#FFFFFF" d="M344.75,680.824c1.393-1.217,1.921-2.834,2.033-4.449c0.128-1.697,0.144-4.258,0.128-6.611h5.842
	c-0.208-0.479-0.832-1.071-1.568-1.584l0.85-0.801c0.832,0.447,1.567,1.168,2.049,1.953l-0.416,0.432h5.153v1.121h-10.708
	c-0.032,1.84,0,4.609-0.208,6.193c-0.256,2.018-0.944,3.154-2.209,4.594L344.75,680.824z M358.867,681.016H347.55l0.018-1.137h6.755
	c1.184-1.936,2.111-4.994,2.368-7.682l1.152,0.399c-0.289,3.201-1.28,5.922-2.161,7.281h3.186V681.016z M350.8,679.207
	c-0.625-3.041-1.409-3.984-2.497-5.537l1.088-0.514c1.297,1.633,2.161,3.379,2.577,5.362L350.8,679.207z M352.161,671.813
	c1.104,1.441,1.937,3.49,2.177,5.33l-1.185,0.576c-0.225-1.84-0.944-3.729-2.001-5.379L352.161,671.813z"/>
<path fill="#FFFFFF" d="M363.983,677.063c-0.674,1.378-1.426,2.369-2.705,3.105l-0.722-0.945c1.266-0.703,2.033-1.633,2.563-2.815
	L363.983,677.063z M365.536,680.633c0,0.623-0.48,1.313-1.217,1.313h-1.297l-0.416-1.281l1.28,0.096
	c0.159,0.017,0.399-0.176,0.399-0.385v-4.354h-2.577v-1.168h2.577v-1.137h-3.137v-1.184h2.305c-0.112-0.465-0.496-1.058-1.232-1.617
	l1.058-0.432c0.672,0.526,1.151,1.247,1.376,2.049h0.673c0.528-0.529,0.928-1.328,1.12-2.019l1.071,0.433
	c-0.176,0.561-0.544,1.217-0.896,1.586h1.905v1.184h-2.993v1.137h2.545v1.168h-2.545v1.138l0.464-0.592
	c0.752,0.465,1.473,1.217,2.001,2.112l-0.816,0.929c-0.399-0.962-1.119-1.648-1.647-2.05L365.536,680.633L365.536,680.633z
	 M364.175,669.059c-0.145-0.256-0.479-0.702-1.009-1.231l1.168-0.543c0.513,0.606,0.945,1.217,1.137,1.774h2.705v1.17h-6.626v-1.17
	H364.175z M374.579,668.467c-1.44,0.832-2.913,1.232-4.337,1.488v2.289h4.594v1.168h-1.793v8.34h-1.232v-8.34h-1.567v2.065
	c0,2.13-0.705,4.32-1.938,6.228l-1.088-0.771c1.474-2.016,1.793-4.192,1.793-6.674l-0.017-5.283
	c1.775-0.207,3.313-0.688,4.817-1.504L374.579,668.467z"/>
<path fill="#FFFFFF" d="M378.75,671.092v1.873h-1.249v-3.041h3.187c-0.337-0.4-0.978-0.945-1.745-1.408
	c0.399-0.319,0.705-0.514,1.057-0.735c0.465,0.286,1.665,1.393,2.241,2.145h1.231v-2.561h1.248l0.018,2.561h1.505
	c0.559-0.625,1.135-1.361,1.6-2.192c0.4,0.225,0.688,0.416,1.058,0.672c-0.386,0.655-0.865,1.231-1.138,1.521l2.945,0.017v2.961
	h-1.232v-1.81L378.75,671.092L378.75,671.092z M378.654,680.615l0.017-4.193h4.817v-0.977h-3.457v-3.554l8.131-0.016v3.568
	l-3.442-0.017v0.992h4.851v2.945c0,0.32-0.367,0.785-1.041,0.881c-0.527,0.08-1.088,0.031-1.695,0.047
	c-0.16-0.416-0.193-0.752-0.4-1.199c0.722,0.031,1.265,0.08,1.729,0.031c0.111,0,0.176-0.096,0.176-0.24v-1.297l-3.618-0.016
	l0.018,4.227h-1.266l0.017-4.211l-3.569-0.016v3.041h-1.266V680.615z M386.93,673.061h-5.667v1.201h5.667V673.061z"/>
<path fill="#FFFFFF" d="M392.59,675.383c2.496-0.815,4.945-1.57,5.953-4.563h-5.553v-1.121h5.873
	c0.112-0.463,0.16-1.152,0.239-1.889l1.138,0.159c-0.017,0.722-0.097,1.313-0.191,1.729h6.547v1.121h-5.299
	c1.041,1.983,3.377,3.729,5.666,4.721l-0.768,1.057c-2.818-1.328-5.234-3.537-6.146-5.776h-0.24
	c-0.16,0.561-0.416,1.184-0.688,1.633c0.834,0.479,1.842,1.137,2.627,2.209l-0.961,0.736c-0.609-0.931-1.488-1.714-2.242-2.082
	c-1.313,1.647-3.121,2.578-5.121,3.2L392.59,675.383z M396.559,677.254c-0.592,1.346-1.793,2.609-2.881,3.426l-0.961-0.881
	c1.058-0.768,2.273-1.983,2.945-3.168L396.559,677.254z M404.113,678.887c-0.336,1.603-0.398,2.529-1.488,2.529l-4.578,0.016
	c-0.606,0-1.104-0.479-1.104-1.008l-0.017-4.434h1.217v4.018c0,0.111,0.191,0.226,0.271,0.256h3.969
	c0.209,0,0.416-0.367,0.465-0.832l0.097-1.024L404.113,678.887z M400.609,678.775c-0.386-1.105-1.011-1.984-1.938-2.736l0.978-0.705
	c0.881,0.752,1.616,1.648,1.983,2.689L400.609,678.775z M406.131,680.744c-0.688-1.201-1.68-2.24-2.896-3.09l0.832-0.816
	c1.151,0.771,2.192,1.826,2.944,2.994L406.131,680.744z"/>
<path fill="#FFFFFF" d="M415.408,677.191l-0.465-0.595c0.754-0.336,0.961-0.942,0.961-1.584h-0.865v-1.76h1.762v1.68
	C416.801,675.479,416.609,676.631,415.408,677.191z"/>
<path fill="#FFFFFF" d="M438.547,669.268v1.138h-4.754c1.041,1.936,3.025,3.617,5.219,4.93l-0.944,0.943
	c-0.656-0.447-1.488-1.009-1.744-1.295l0.016,6.657h-1.231v-1.104h-6.658l-0.017,1.137h-1.2v-6.528
	c-0.32,0.176-1.474,0.911-2.129,1.118l-0.753-1.104c1.824-0.625,4.529-2.385,5.636-4.738h-5.074v-1.137h5.729
	c0.144-0.4,0.464-1.217,0.656-1.92c0.447,0.16,0.719,0.352,1.088,0.496c-0.16,0.641-0.352,1.104-0.465,1.408L438.547,669.268
	L438.547,669.268z M428.447,675.189v1.457h2.672v-1.457H428.447z M431.168,677.783h-2.721v1.633h2.721V677.783z M435.234,674.102
	c-0.931-0.721-2.113-2.289-2.785-3.682h-1.072c-0.674,1.313-1.602,2.754-2.803,3.648L435.234,674.102z M435.09,675.189h-2.77v1.457
	h2.77V675.189z M432.336,679.416h2.771v-1.633h-2.771V679.416z"/>
<path fill="#FFFFFF" d="M453.826,671.107c-0.08,3.33-0.256,5.539-0.879,8.53c-0.179,0.865-0.961,1.347-1.586,1.427
	c-1.168,0.159-2.146-0.177-3.232-0.48l-0.272-1.393c1.09,0.352,1.985,0.641,2.93,0.721c0.336,0.031,0.625-0.225,0.785-0.432
	c0.432-0.609,0.912-4.994,0.959-7.188l-4.019,0.016c-0.271,6.115-3.057,7.875-6.465,9.316l-0.914-1.17
	c2.803-1.039,5.875-2.271,6.101-8.146h-3.953v-1.184h4v-3.586h1.231l-0.016,3.586L453.826,671.107z"/>
<path fill="#FFFFFF" d="M469.859,668.26v1.135h-3.011v3.826h3.666l-0.016,1.138h-3.635v7.282h-1.232v-7.282h-3.617
	c0.017,2.289-0.606,4.545-2.434,6.082c-0.656,0.545-1.248,0.881-2,1.2l-0.992-0.961c1.713-0.576,3.121-1.776,3.713-3.36
	c0.353-0.943,0.529-1.953,0.513-2.961h-3.904v-1.138h3.889v-3.826h-3.281v-1.135H469.859L469.859,668.26z M462.016,669.395v3.812
	h3.617v-3.812H462.016z"/>
<path fill="#FFFFFF" d="M476.191,673.67c0,2.031-0.08,4.258-0.802,5.666c-0.368,0.721-1.024,1.729-1.696,2.32l-0.929-0.896
	c1.857-1.713,2.193-3.682,2.193-4.865v-6.69h5.395c-0.399-0.545-1.28-1.088-1.985-1.394l0.881-0.801
	c0.848,0.385,1.713,0.865,2.32,1.666l-0.593,0.527h4.609v4.467H476.191z M484.371,670.371h-8.195v2.129h8.195V670.371z
	 M484.082,681.607v-1.104h-6.066v1.104h-1.217v-6.306h8.5v6.306H484.082z M484.082,676.471h-6.066v2.865h6.066V676.471z"/>
<path fill="#FFFFFF" d="M491.982,677.063c-0.673,1.378-1.425,2.369-2.705,3.105l-0.722-0.945c1.267-0.703,2.033-1.633,2.563-2.815
	L491.982,677.063z M493.535,680.633c0,0.623-0.48,1.313-1.217,1.313h-1.297l-0.416-1.281l1.28,0.096c0.16,0.017,0.4-0.176,0.4-0.385
	v-4.354h-2.578v-1.168h2.578v-1.137h-3.137v-1.184h2.305c-0.113-0.465-0.496-1.058-1.232-1.617l1.058-0.432
	c0.672,0.526,1.151,1.247,1.375,2.049h0.674c0.527-0.529,0.928-1.328,1.119-2.019l1.071,0.433c-0.176,0.561-0.543,1.217-0.896,1.586
	h1.906v1.184h-2.994v1.137h2.545v1.168h-2.545v1.138l0.465-0.592c0.752,0.465,1.473,1.217,2,2.112l-0.816,0.929
	c-0.399-0.962-1.118-1.648-1.647-2.05L493.535,680.633L493.535,680.633z M492.176,669.059c-0.145-0.256-0.479-0.702-1.01-1.231
	l1.168-0.543c0.514,0.606,0.945,1.217,1.137,1.774h2.705v1.17h-6.625v-1.17H492.176z M502.578,668.467
	c-1.439,0.832-2.912,1.232-4.336,1.488v2.289h4.594v1.168h-1.793v8.34h-1.232v-8.34h-1.567v2.065c0,2.13-0.705,4.32-1.938,6.228
	l-1.088-0.771c1.474-2.016,1.793-4.192,1.793-6.674l-0.018-5.283c1.776-0.207,3.313-0.688,4.817-1.504L502.578,668.467z"/>
<path fill="#FFFFFF" d="M506.926,681.848v-6.85c-0.271,0.191-0.942,0.768-1.52,1.137l-0.865-0.85c1.713-1.168,3.25-2.545,4.322-4.24
	l1.071,0.769c-0.545,0.815-1.184,1.553-1.776,2.145v7.892h-1.232V681.848z M504.926,671.188c1.457-1.057,2.515-2.319,3.377-3.842
	l1.105,0.656c-0.881,1.57-2.019,2.898-3.603,4.082L504.926,671.188z M518.787,670.115h-3.633v4.146h2.848v1.185h-2.848v4.643h4.129
	v1.185h-10.451v-1.185h1.871v-6.947h1.266v6.947h1.873v-9.973h-4.131v-1.185h9.076V670.115L518.787,670.115z"/>
<path fill="#FFFFFF" d="M523.262,671.557l0.019-1.823c-0.515,0.127-1.232,0.352-1.986,0.432l-0.559-1.137
	c1.664-0.209,3.823-0.672,5.25-1.361l0.768,0.865c-0.801,0.432-1.633,0.721-2.305,0.928v2.098h1.969v1.138h-1.969v1.313l0.432-0.354
	c0.832,0.815,1.281,1.393,1.969,2.448l-1.041,0.771c-0.383-0.865-0.991-1.682-1.358-2.018v6.993h-1.187v-6.209
	c-0.352,1.168-1.039,2.289-1.936,3.474l-0.896-0.865c1.152-1.393,2.257-3.377,2.785-5.553h-2.258v-1.138L523.262,671.557
	L523.262,671.557z M526.271,674.902v-1.121h8.02v1.121h-3.41v1.84h3.426v1.137h-3.426v2h4.066V681h-9.252v-1.121h3.953v-2h-3.298
	v-1.137h3.298v-1.84H526.271z M526.961,668.162h6.723v4.883h-6.723V668.162z M532.482,671.908v-2.625h-4.322v2.625H532.482z"/>
<path fill="#FFFFFF" d="M544.225,676.631c-0.705,0.047-1.344-0.225-1.793-0.736c-0.446-0.512-0.576-1.313-0.367-1.969
	c0.24-0.77,0.976-1.361,1.761-1.408c0.735-0.049,1.408,0.224,1.842,0.832c0.383,0.527,0.527,1.199,0.303,1.855
	C545.713,675.941,545.01,676.566,544.225,676.631z M544.256,673.557c-0.367-0.096-0.752,0.017-0.992,0.289
	c-0.225,0.24-0.336,0.592-0.271,0.929c0.063,0.305,0.287,0.608,0.576,0.735c0.399,0.176,0.862,0.08,1.168-0.225
	c0.289-0.287,0.369-0.752,0.225-1.119C544.832,673.861,544.561,673.637,544.256,673.557z"/>
</svg>
