<?xml version="1.0" encoding="utf-8"?>
<!-- Generator: Adobe Illustrator 16.0.0, SVG Export Plug-In . SVG Version: 6.00 Build 0)  -->
<!DOCTYPE svg PUBLIC "-//W3C//DTD SVG 1.1//EN" "http://www.w3.org/Graphics/SVG/1.1/DTD/svg11.dtd">
<svg version="1.1" id="Layer_1" xmlns="http://www.w3.org/2000/svg" xmlns:xlink="http://www.w3.org/1999/xlink" x="0px" y="0px"
	 width="768px" height="1024px" viewBox="0 0 768 1024" enable-background="new 0 0 768 1024" xml:space="preserve">
<g>
	<path fill="#58B5E1" d="M141.558,730.783v1.799h-8.498v1.324h7.023v1.75h-7.023v1.475h9.223v1.801h-5.023l0.949,0.5
		c-0.475,0.748-0.925,1.273-1.124,1.449h5.599v1.799h-21.271v-1.799h5.849c-0.2-0.301-0.85-0.926-1.6-1.324l0.975-0.575l-4.748-0.05
		v-1.801h9.272v-1.475h-7.224v-1.75h7.224v-1.324h-8.523v-1.799h5.799c-0.325-0.375-1.1-0.875-2.225-1.525l1.725-1
		c1.125,0.65,2.149,1.551,2.75,2.525h2.898c0.75-0.574,1.5-1.449,2.024-2.525l1.825,0.851c-0.55,0.774-1.05,1.35-1.625,1.649
		L141.558,730.783z M124.637,750.879v-7.147h14.946v7.047h-1.899v-1.449h-11.147v1.551L124.637,750.879L124.637,750.879z
		 M126.537,747.529h11.147v-2h-11.147V747.529z M127.711,738.932c0.85,0.601,1.3,1.398,1.649,1.949h1.8v-1.949H127.711z
		 M134.86,740.881c0.699-0.6,1.074-1.375,1.274-1.949h-3.074v1.949H134.86z"/>
	<path fill="#58B5E1" d="M146.363,747.504c1.824-1.275,3.199-2.875,3.949-4.824l1.574,1.025c-0.85,2.049-2.324,3.674-3.999,5.123
		L146.363,747.504z M149.787,740.631v-10.998h15.222v10.974L149.787,740.631z M151.687,731.457l0.024,2.699h4.724v-2.674
		L151.687,731.457z M156.435,738.781v-2.799h-4.724v2.799H156.435z M154.835,749.703c-1.549,0-2.274-0.65-2.274-2.074l0.025-4.699
		h1.925v4.125c0,0.574,0.324,0.824,0.899,0.824h4.474c1.375,0,1.525-1.426,1.6-3.025l1.875,0.353
		c-0.125,2.424-0.95,4.498-3.225,4.498L154.835,749.703L154.835,749.703z M158.435,745.729c-0.9-1.549-1.975-2.723-3.699-3.573
		l1.425-1.074c1.699,0.6,2.949,2,3.949,3.549L158.435,745.729z M163.083,734.156v-2.699l-4.773,0.025v2.649L163.083,734.156z
		 M163.083,738.756v-2.772h-4.749l-0.024,2.799L163.083,738.756z M164.034,742.555c1.999,1.177,3.424,3.174,4.349,4.898
		l-1.699,1.051c-0.975-2-2.175-3.625-4.124-4.824L164.034,742.555z"/>
	<path fill="#58B5E1" d="M174.187,737.957c-0.325,0.398-0.899,1.225-1.675,2.098l-1.424-1.272c2.749-3.125,4.148-6.623,5.273-10.498
		l1.699,0.625c-0.675,2.149-1.225,3.85-1.999,5.574v16.396h-1.899L174.187,737.957z M185.66,749.754
		c-2.55,0-4.124-0.801-5.549-2.125c-0.725,1.225-1.5,2.1-2.574,3.324l-1.3-1.5c1.125-1.174,2.05-2.324,2.6-3.498
		c-0.925-1.475-1.45-3.176-1.95-5.074l1.7-0.5c0.3,1.273,0.725,2.324,1.074,3.449c0.525-1.525,0.65-2.75,0.8-4.199h-3.449
		l-0.024-1.625c1.175-1.397,2.599-3.272,3.349-5.022h-2.924v-1.8h4.974v1.574c-0.875,2-1.925,3.773-2.975,5.074h2.975
		c-0.15,2.898-0.525,5.598-1.45,7.947c0.976,1.424,2.7,2.174,4.574,2.147l5.749-0.049l2.899-0.15l-0.601,2L185.66,749.754z
		 M186.084,747.703v-2.648h-3.975v-1.75l3.975,0.025v-1.574l-3.1,0.023v-1.748h3.1v-1.451h-2.824l-0.025-1.748h2.85v-1.551h-3.949
		v-1.726h3.949v-1.573l-2.85-0.025v-1.725l2.85-0.023v-1.826h1.874v1.851h3.975v3.299h1.499v1.774h-1.499v3.273h-3.975v1.451
		l4.399-0.025v1.75h-4.399v1.574l5.424-0.025v1.75h-5.398v2.648H186.084L186.084,747.703z M187.984,731.982v1.549h2.074v-1.574
		L187.984,731.982z M190.058,736.832v-1.551h-2.074v1.551H190.058z"/>
	<path fill="#58B5E1" d="M196.288,741.58c3.149-1.799,5.648-4.6,7.698-7.523l1.524,1.025c-0.699,1.275-2.124,2.949-3.049,4.074
		v11.521h-1.925v-9.547c-0.425,0.398-1.824,1.324-2.774,1.998L196.288,741.58z M196.613,734.707
		c2.624-1.824,4.648-4.074,6.323-6.699l1.475,1.15c-1.675,2.524-3.749,5.174-6.123,6.848L196.613,734.707z M208.06,748.629
		c1.274,0.1,2.374,0.1,3.449,0.074c0.274-0.074,0.55-0.25,0.55-0.6v-10.248h-6.398v-1.851l12.872,0.025v1.824l-4.449,0.024
		l-0.025,10.447c0,0.875-0.449,1.525-1.074,1.9c-0.675,0.375-3.05,0.35-4.324,0.299L208.06,748.629z M217.007,731.809H206.26
		l-0.024-1.85l10.771-0.025V731.809L217.007,731.809z"/>
	<path fill="#58B5E1" d="M231.56,743.605l-0.725-0.927c1.175-0.524,1.5-1.475,1.5-2.475h-1.35v-2.748h2.749v2.623
		C233.735,740.93,233.435,742.73,231.56,743.605z"/>
	<path fill="#58B5E1" d="M249.288,734.082v2.924h-1.95v-4.748h4.974c-0.524-0.625-1.524-1.475-2.724-2.199
		c0.625-0.5,1.1-0.801,1.649-1.149c0.725,0.449,2.6,2.174,3.499,3.35h1.925v-4h1.949l0.025,4h2.349
		c0.875-0.975,1.775-2.125,2.5-3.424c0.625,0.35,1.074,0.648,1.649,1.049c-0.6,1.025-1.35,1.926-1.774,2.375l4.599,0.025v4.623
		h-1.925v-2.824L249.288,734.082L249.288,734.082z M249.137,748.953l0.025-6.549h7.522v-1.523h-5.398v-5.549l12.697-0.025v5.574
		l-5.374-0.025v1.55h7.573v4.6c0,0.5-0.575,1.225-1.625,1.375c-0.824,0.125-1.699,0.049-2.649,0.074
		c-0.25-0.648-0.3-1.174-0.624-1.875c1.124,0.051,1.974,0.125,2.699,0.051c0.175,0,0.274-0.15,0.274-0.375v-2.023l-5.648-0.024
		l0.025,6.598h-1.975l0.024-6.572l-5.573-0.024v4.748h-1.973V748.953z M262.059,737.156h-8.848v1.875h8.848V737.156z"/>
	<path fill="#58B5E1" d="M292.882,733.781c0.075,4.85,0.101,10.998-0.875,14.797c-0.225,0.85-0.799,1.574-1.6,1.676
		c-0.999,0.148-1.849-0.125-2.799-0.352l-0.425-2.148c1.024,0.449,1.399,0.475,2.175,0.625c0.425,0.074,0.8-0.275,0.899-0.676
		c0.45-1.623,0.925-7.723,0.85-12.096h-1.85c-0.524,5.821,0.101,10.196-4.523,15.221l-1.85-0.975
		c0.625-0.525,0.975-0.949,1.024-0.949l-11.272,1.174l-0.999-1.725c2.424-0.15,4.523-0.302,6.423-0.55l0.025-1.5h-4.374v-1.676
		h4.374v-1.199h-5.349v-1.75h5.323v-1.125h-4.924v-4.723l4.924-0.025v-1.073h-3.024v-2.552h-3.049v-1.647h3.024l0.024-1.976
		l1.85,0.025l0.025,1.949h4.273l-0.024-1.976h1.85v1.976l2.874-0.025l0.025,1.699h-2.875v2.5l-3.074,0.025v1.1h4.949v4.723h-4.949
		l-0.024,1.125h5.648v1.75h-5.648l0.024,1.199h4.674v1.676l-4.698-0.024v1.299l5.373-0.6c1.375-2.148,2.05-6.322,2.125-11.371
		l-2.6-0.025v-1.775l2.6-0.024v-5.322h1.899l0.025,5.322L292.882,733.781L292.882,733.781z M278.061,738.855v-1.3h-3.049v1.3
		H278.061z M276.886,733.133h4.274v-0.951h-4.274V733.133z M283.06,737.557h-3.1v1.273l3.1,0.025V737.557z"/>
	<path fill="#58B5E1" d="M305.861,731.283c-0.477,1.397-0.95,3.022-1.926,4.324l-1.375-0.65l0.025,1.424h2.524v1.85h-2.524
		l-0.025,1.552l0.575-0.476c1.324,1.226,2.449,2.648,3.124,4.224l-1.6,0.774c-0.425-1.299-1.374-2.475-2.101-3.198l0.025,9.696
		h-1.925v-8.248c-0.649,0.976-1.374,2.726-3.224,4.425l-1.3-1.324c1.673-1.775,3.648-4.998,4.398-7.447h-3.424v-1.801l3.524-0.025
		l0.024-8.071h1.898v6.198c0.801-1.25,1.45-2.774,1.875-4.399l1.426,0.649v-0.799h4.897l0.025-1.725l1.898-0.025v1.75h5.198
		l0.025,1.799l-5.175,0.025v1.1h4.324v1.726h-4.324l0.025,1.225h6.098v1.799H305.18v-1.799l5.573-0.025l0.025-1.174h-4.199v-1.774
		l4.174,0.024l0.025-1.125l-4.925,0.025v-0.502H305.861z M298.637,735.707c-0.075-1.949-0.75-3.375-1.8-4.875l1.65-0.648
		c1.023,1.449,1.674,3.023,1.898,4.824L298.637,735.707z M314.633,748.504c0.351,0,0.601-0.25,0.601-0.625v-1.176h-6.823v4.051
		h-1.924V738.83h10.696l-0.024,9.473c0,0.875-0.7,1.775-1.55,1.875c-0.899,0.101-1.949,0.101-2.949,0.15l-0.5-1.875L314.633,748.504
		z M315.233,741.805l0.024-1.125l-6.873-0.022v1.123L315.233,741.805z M308.41,744.854h6.849v-1.198h-6.849V744.854z"/>
	<path fill="#58B5E1" d="M342.683,749.604h-10.248c-2.698,0-5.022-1.051-6.647-2.875c-0.774,1.076-2.424,2.427-3.849,3.324
		l-1.325-1.324c1.425-0.85,3.023-2.073,4.424-3.698v-6.748h-3.749v-1.775h5.574v8.924c0.725,0.8,3.049,2.351,5.299,2.449
		c4.748,0.199,8.447-0.074,11.222-0.199L342.683,749.604z M325.887,734.432c-0.875-1.698-2.675-3.647-3.874-4.373l1.351-1.176
		c1.449,1,2.699,2.176,4.072,4.299L325.887,734.432z M336.584,732.758v-4.049h1.874v4.049h3.074v1.773h-3.074v3.85h4.074v1.799h-4.1
		v7.101h-1.824v-7.148l-3.574,0.025c-0.024,2.897-0.274,4.873-2.699,6.973l-1.524-1.35c1.726-1.375,2.274-2.75,2.374-5.623h-3.849
		v-1.775h3.874v-3.873h-3.324v-1.774h3.274v-4.023h1.925v4.049h3.499V732.758z M333.085,738.381h3.523v-3.85h-3.523V738.381z"/>
	<path fill="#58B5E1" d="M357.835,742.73c-1.101,0.073-2.1-0.351-2.8-1.15c-0.7-0.799-0.899-2.049-0.575-3.074
		c0.375-1.199,1.525-2.125,2.75-2.199c1.149-0.073,2.199,0.351,2.874,1.3c0.6,0.825,0.825,1.875,0.475,2.899
		C360.16,741.654,359.06,742.631,357.835,742.73z M357.885,737.932c-0.575-0.149-1.175,0.025-1.55,0.449
		c-0.35,0.375-0.525,0.926-0.425,1.449c0.1,0.475,0.45,0.951,0.898,1.15c0.625,0.274,1.351,0.125,1.825-0.351
		c0.449-0.451,0.574-1.176,0.351-1.75C358.785,738.406,358.36,738.057,357.885,737.932z"/>
</g>
</svg>
