<?xml version="1.0" encoding="utf-8"?>
<!-- Generator: Adobe Illustrator 16.0.0, SVG Export Plug-In . SVG Version: 6.00 Build 0)  -->
<!DOCTYPE svg PUBLIC "-//W3C//DTD SVG 1.1//EN" "http://www.w3.org/Graphics/SVG/1.1/DTD/svg11.dtd">
<svg version="1.1" id="Layer_1" xmlns="http://www.w3.org/2000/svg" xmlns:xlink="http://www.w3.org/1999/xlink" x="0px" y="0px"
	 width="768px" height="1024px" viewBox="0 0 768 1024" enable-background="new 0 0 768 1024" xml:space="preserve">
<g>
	<path fill="#FFFFFF" d="M127.104,777.795c0.288-0.479,0.448-1.135,0.544-1.648h-6.53v-1.151h13.686v1.151h-5.906
		c-0.097,0.529-0.256,1.232-0.448,1.648h5.506l0.017,10.838h-1.232l0.016-1.072h-9.444v1.199h-1.216v-10.965H127.104
		L127.104,777.795z M123.31,786.391h2.209v-7.426l-2.209-0.016V786.391z M129.425,778.965h-2.705v1.521h2.721L129.425,778.965z
		 M126.72,781.637v1.648h2.705v-1.648H126.72z M126.72,786.391h2.705v-1.936h-2.705V786.391z M132.754,778.949h-2.113v7.459
		l2.113-0.033V778.949z"/>
	<path fill="#FFFFFF" d="M147.501,788.393c-0.096-0.432-0.272-0.815-0.352-1.297c0.72,0.017,1.04,0.16,1.568,0.049
		c0.271-0.063,0.432-0.225,0.432-0.514v-8.836l-9.283-0.016l0.016,10.949h-1.248l0.016-12.117h4.402
		c0.607-0.656,1.04-1.504,1.28-2.529l1.232,0.561c-0.305,0.785-0.704,1.537-1.024,1.953l5.842,0.017v10.436
		c0,0.771-0.496,1.346-1.232,1.346L147.501,788.393L147.501,788.393z M147.326,779.686l0.016,5.617h-5.682l0.016-5.617H147.326z
		 M146.125,780.854l-3.249-0.016v3.297l3.266,0.017L146.125,780.854z"/>
	<path fill="#FFFFFF" d="M153.813,786.104c2.306-1.327,4.098-2.977,5.187-4.803h-4.29v-1.184h5.57v-2.4l-4.529-0.018v-1.185h4.514
		l0.016-2.385l1.313-0.016l-0.016,2.385l4.466-0.019l-0.017,1.218h-4.466v2.418h5.587v1.217l-4.402-0.019
		c0.257,0.498,0.48,0.931,0.944,1.49c1.361,1.648,2.562,2.513,4.258,3.328l-0.72,1.01c-2.465-1.137-4.626-3.123-5.635-5.715v7.17
		l-1.265-0.031v-7.073c-0.528,0.928-1.521,2.256-2.688,3.36c-0.896,0.849-1.777,1.488-3.025,2.24L153.813,786.104z"/>
	<path fill="#FFFFFF" d="M176.292,774.242h1.232v1.776h5.667v1.199h-5.667v3.635h6.259v1.199h-4.93
		c0.624,1.281,1.536,2.162,2.721,3.06c0.608,0.463,1.761,1.198,2.642,1.504l-0.785,0.961c-2.433-0.881-4.737-3.074-5.826-5.523
		h-0.08v6.388h-1.185v-6.339h-0.096c-0.721,2-2.257,3.586-3.729,4.468c-0.561,0.336-1.057,0.592-1.921,0.942l-0.816-0.912
		l0.912-0.416c1.841-0.832,3.57-2.399,4.402-4.131h-4.898v-1.199h6.099l0.017-3.635h-5.507v-1.184h5.49L176.292,774.242
		L176.292,774.242z M174.291,780.709c-0.479-1.121-1.36-2.225-2.24-2.736l0.96-0.641c1.024,0.656,1.953,1.68,2.321,2.689
		L174.291,780.709z M181.894,777.988c-0.528,0.961-1.185,1.969-2.305,2.721l-1.009-0.705c1.12-0.783,1.681-1.535,2.337-2.576
		L181.894,777.988z"/>
	<path fill="#FFFFFF" d="M192.546,783.99l-0.464-0.592c0.753-0.336,0.961-0.945,0.961-1.584h-0.865v-1.763h1.761v1.683
		C193.939,782.277,193.748,783.43,192.546,783.99z"/>
	<path fill="#FFFFFF" d="M201.808,784.711c2.657-1.697,4.562-4.113,5.395-6.723h-4.45v-1.217l5.778,0.016v-2.496h1.249l-0.017,2.496
		l5.715-0.016v1.217h-4.274c0.704,2.815,2.945,5.233,5.234,6.578l-0.864,1.024c-4.13-3.121-4.689-4.834-5.778-7.797l-0.032,5.685
		h3.09v1.198l-3.073-0.016l-0.017,3.938h-1.217l-0.016-3.938l-3.169,0.016v-1.198l3.169,0.016v-5.699
		c-1.104,3.49-2.978,5.891-5.73,7.877L201.808,784.711z"/>
	<path fill="#FFFFFF" d="M218.348,782.693c2.017-1.152,3.617-2.945,4.93-4.818l0.977,0.656c-0.448,0.815-1.36,1.891-1.953,2.608
		v7.38h-1.232v-6.113c-0.271,0.256-1.168,0.848-1.776,1.279L218.348,782.693z M218.556,778.293c1.681-1.17,2.978-2.609,4.05-4.291
		l0.944,0.736c-1.072,1.617-2.401,3.313-3.922,4.387L218.556,778.293z M225.887,787.207c0.816,0.064,1.521,0.064,2.209,0.049
		c0.176-0.049,0.352-0.16,0.352-0.385v-6.563h-4.098v-1.184l8.244,0.016v1.168l-2.85,0.017l-0.016,6.69
		c0,0.562-0.288,0.978-0.688,1.218c-0.433,0.239-1.953,0.225-2.77,0.19L225.887,787.207z M231.618,776.436h-6.883l-0.017-1.186
		l6.899-0.016L231.618,776.436L231.618,776.436z"/>
	<path fill="#FFFFFF" d="M237.433,788.023l-0.784-1.058c0.24-0.143,0.496-0.367,0.496-0.783v-6.34h-2.081v-1.135h3.266v7.123
		l2.097-1.313v1.345L237.433,788.023z M237.897,777.363c-0.464-0.959-1.328-1.953-2.049-2.48l0.881-0.672
		c0.896,0.607,1.664,1.457,2.192,2.385L237.897,777.363z M245.756,775.764v-1.521h1.185v1.521h1.425v1.138h-1.425v4.735h-2.305
		v1.041h4.401v1.121h-3.394c0.656,1.521,1.857,2.305,3.521,3.121l-0.848,0.881c-1.633-0.834-3.394-2.514-3.65-3.715l-0.031,4.514
		h-1.152v-4.545c-0.448,1.81-1.905,3.138-3.394,3.938l-0.929-0.896c1.648-0.768,2.833-1.953,3.329-3.297h-3.361v-1.121h4.322v-1.041
		h-2.385V776.9h-1.441v-1.138h1.441v-1.487h1.185v1.487L245.756,775.764L245.756,775.764z M245.756,778.1V776.9h-3.505v1.198
		L245.756,778.1L245.756,778.1z M245.756,779.188h-3.505v1.314h3.505V779.188z"/>
	<path fill="#FFFFFF" d="M264.521,788.439c-3.201-0.433-4.642-1.279-6.258-2.111c-1.873,1.088-4.114,1.775-6.675,2.145
		c-0.208-0.385-0.4-0.672-0.688-1.104c2.48-0.24,4.994-1.039,6.274-1.775c-0.736-0.465-1.729-1.617-2.337-2.528h-1.169v-1.17h8.132
		v1.153c-0.688,0.863-1.697,1.969-2.513,2.545c1.504,0.863,3.617,1.455,5.954,1.744L264.521,788.439z M260.135,777.396v4.258h-1.168
		l0.032-4.258h-1.905v4.258h-1.137v-4.258h-4.737v-1.105h6.595c-0.257-0.432-0.801-0.896-1.521-1.344l0.736-0.752
		c0.688,0.383,1.521,1.039,2.049,1.744l-0.432,0.305l6.179,0.047v1.105H260.135z M252.228,782.373l-0.896-0.912
		c1.232-1.057,2.178-2.305,2.945-3.457l0.881,0.721C254.229,780.262,253.269,781.285,252.228,782.373z M256.326,783.063
		c0.385,0.623,1.217,1.359,1.938,1.855c0.736-0.559,1.568-1.279,1.969-1.855H256.326z M263.817,782.006
		c-0.624-1.266-1.585-2.272-2.753-3.201l0.864-0.672c0.977,0.783,2.289,1.889,2.961,3.185L263.817,782.006z"/>
	<path fill="#FFFFFF" d="M275.283,785.623l0.017,2.994l-1.217,0.016v-2.994h-6.179v-1.151l6.179-0.017v-0.961h-4.306v-3.873h4.306
		v-0.848h-2.689v-2.082l-3.249,0.016v-1.168l3.233-0.016l0.016-1.232h1.201l0.016,1.232h4.082l0.016-1.281h1.2v1.297l3.218-0.016
		v1.168l-3.218-0.016v2.098h-2.625v0.848l4.242-0.016v3.889H275.3l-0.017,0.978l6.274-0.017v1.168L275.283,785.623z
		 M270.977,782.357h3.105v-1.554h-3.105V782.357z M272.61,776.707v0.912l4.082,0.018v-0.93H272.61z M275.299,780.805v1.537h3.009
		v-1.537H275.299z"/>
	<path fill="#FFFFFF" d="M296.609,778.469c-1.473,3.347-5.635,6.178-7.955,7.203c0.688,0.543,1.792,0.719,2.961,0.703l6.689-0.064
		l-0.624,1.218l-6.499,0.016c-1.232,0-3.073-0.527-3.938-1.439c-0.399,0.722-1.008,1.568-1.809,2.4l-1.008-0.832
		c1.393-1.168,2.064-2.561,2.4-4.307l1.152,0.319c-0.048,0.529-0.111,0.802-0.256,1.121c1.28-0.672,3.682-2.16,4.258-2.688
		c1.232-1.088,2.321-2.289,3.073-3.488l-9.492-0.018v-1.199h5.715c-0.561-1.088-1.329-2.002-2.529-2.562
		c0.448-0.305,0.769-0.495,1.104-0.721c1.104,0.543,2.001,1.615,2.593,2.689l-0.912,0.559l5.074,0.033v1.057H296.609z"/>
	<path fill="#FFFFFF" d="M302.631,780.549h-2.145v-1.104h3.377v5.811c0.849,0.912,2.033,1.488,3.426,1.535
		c1.296,0.049,2.641,0.145,3.97,0.064l3.409-0.191l-0.479,1.313h-6.516c-2.929,0-3.617-0.815-4.418-1.666
		c-0.784,0.576-1.553,1.313-2.417,2.066l-0.912-0.961c0.992-0.721,1.89-1.473,2.705-2.146V780.549z M302.792,777.973
		c-0.433-0.944-1.2-2.098-2.113-2.864l0.896-0.656c0.961,0.768,1.793,1.936,2.257,2.832L302.792,777.973z M312.587,774.467
		c-0.288,0.527-0.448,0.816-0.704,1.201h2.417v1.152h-4.05c-0.144,0.479-0.288,0.879-0.464,1.313h3.44v7.795h-7.812v-7.795h2.961
		c0.24-0.434,0.4-0.85,0.545-1.297h-4.563v-1.168h2.32c-0.176-0.193-0.561-0.594-1.104-0.961l1.057-0.672
		c0.641,0.576,1.2,1.072,1.505,1.633h2.337c0.399-0.48,0.753-1.041,1.009-1.697L312.587,774.467z M311.947,780.244v-0.943h-5.281
		v0.943H311.947z M306.666,781.414v1.072h5.298v-1.072H306.666z M311.963,784.775v-1.121h-5.298v1.121H311.963z"/>
	<path fill="#FFFFFF" d="M323.961,783.029c-0.368-0.607-1.232-1.633-1.952-2.256l0.896-0.896c0.833,0.625,1.665,1.408,2.192,2.049
		L323.961,783.029z"/>
	<path fill="#FFFFFF" d="M331.943,778.5c1.601-0.961,2.305-2.594,2.607-4.305l1.058,0.416c-0.049,0.526-0.177,0.992-0.257,1.231
		h3.825l0.017,1.152h-1.938c0.288,0.287,0.673,0.977,0.961,1.68l-1.057,0.609c-0.32-0.832-0.978-1.89-1.409-2.289h-0.832
		c-0.336,0.896-1.393,2.033-2.192,2.465L331.943,778.5z M337.945,784.07v1.217l-5.139,1.76l-0.753-1.088l2.386-0.721v-4.16h-2.032
		v-1.17h5.233v1.186h-1.984v3.729L337.945,784.07z M344.715,786.76c0.368,0,0.354-0.641,0.368-1.647l1.249,0.496
		c-0.064,1.151-0.16,2.319-0.896,2.319l-1.664-0.016c-0.576,0-1.04-0.353-1.04-0.912v-6.066h-3.091l-0.016,3.201
		c0,1.537-0.656,3.488-2.305,4.369l-0.896-1.008c1.345-0.689,2.018-2.146,2.018-3.602v-4.13h5.489l0.017,6.771
		c0,0.129,0.209,0.256,0.337,0.225H344.715z M341.93,774.691c-0.063,0.526-0.144,0.942-0.224,1.168h4.338v1.168h-2.434
		c0.353,0.319,0.913,0.928,1.313,1.696l-0.977,0.736c-0.433-0.85-1.376-1.904-1.92-2.449h-0.753
		c-0.416,0.802-0.832,1.777-1.81,2.449l-0.96-0.896c1.488-0.978,2-2.595,2.354-4.289L341.93,774.691z M340.65,781.814
		c0.783,0.526,1.457,1.889,1.809,3.008l-1.12,0.815c-0.191-1.088-0.815-2.399-1.489-3.01L340.65,781.814z"/>
	<path fill="#FFFFFF" d="M354.438,779.957c-0.416-0.721-0.882-1.361-1.313-1.633v3.49h-1.217v-3.796
		c-0.208,0.931-0.528,1.378-1.169,2.193c-0.368,0.465-0.832,0.912-1.393,1.297l-0.753-0.912c1.377-0.864,2.129-2.162,2.481-3.33
		h-2.257V776.1h3.089v-1.823h1.217v1.823h1.952v1.168h-1.952v0.705l0.56-0.354c0.608,0.369,1.313,1.137,1.634,1.682L354.438,779.957
		z M359.527,784.182c-2.354,2.771-5.618,3.972-9.188,4.291c-0.225-0.399-0.368-0.705-0.673-1.186
		c2.146-0.096,3.874-0.592,5.395-1.313c-0.287-0.543-1.057-1.137-1.615-1.473l0.976-0.672c0.784,0.4,1.265,1.088,1.617,1.602
		c1.2-0.832,1.969-1.313,2.657-2.178h-4.482c-0.88,0.832-2.353,1.938-3.665,2.354l-0.801-0.978c1.585-0.576,2.993-1.424,3.986-2.561
		c0.288-0.32,0.526-0.689,0.8-1.152l1.04,0.479c-0.208,0.399-0.384,0.641-0.447,0.754h5.187v1.057
		C360.039,783.525,359.799,783.863,359.527,784.182z M362.136,781.061c-1.505-0.977-2.545-2.512-2.864-3.393l-0.049,4.146h-1.217
		v-4.099c-0.528,1.264-1.231,2.48-2.625,3.344l-0.815-0.832c1.231-0.768,2.063-1.889,2.513-2.961h-1.664V776.1h2.593v-1.823h1.217
		v1.823h3.169v1.168h-2.225c0.176,0.433,0.576,0.978,1.024,1.521c0.464,0.543,1.023,1.008,1.775,1.424L362.136,781.061z"/>
	<path fill="#FFFFFF" d="M370.849,781.334c-0.527-0.785-1.041-1.473-1.568-1.777v3.506h-1.216v-2.93
		c-0.338,0.642-1.233,1.521-2.113,2.4l-1.072-0.799c1.296-1.121,2.705-2.435,3.153-4.019h-2.515v-1.153h2.547v-2.24h1.216v2.24
		h2.146v1.17h-2.146v0.928l0.288-0.287c0.913,0.543,1.681,1.344,2.257,2.287L370.849,781.334z M364.911,787
		c1.152-0.689,2.097-1.617,2.673-2.754l0.96,0.641c-0.56,1.217-1.521,2.24-2.657,2.994L364.911,787z M370.705,788.279
		c-0.944,0-1.616-0.703-1.616-1.455v-2.465h1.28v2.239c0,0.306,0.208,0.513,0.56,0.513h2.705c0.272,0,0.577-0.226,0.673-0.447
		c0.177-0.465,0.272-0.771,0.336-1.488l1.266,0.433c-0.368,1.729-0.736,2.672-2.257,2.672L370.705,788.279L370.705,788.279z
		 M372.769,786.135c-0.447-0.977-1.231-1.774-2.225-2.225l0.896-0.801c1.023,0.496,1.713,1.231,2.353,2.209L372.769,786.135z
		 M377.843,774.914v8.084h-5.729v-8.084H377.843z M376.643,777.092v-1.008h-3.328v1.008H376.643z M376.643,779.428v-1.168h-3.313
		v1.168H376.643z M373.33,781.83h3.313v-1.232h-3.313V781.83z M378.436,787.607c-0.545-1.152-1.297-2.193-2.466-2.882l0.978-0.688
		c1.151,0.656,2.033,1.809,2.545,2.928L378.436,787.607z"/>
	<path fill="#FFFFFF" d="M394.127,778.469c-1.473,3.347-5.635,6.178-7.955,7.203c0.689,0.543,1.793,0.719,2.961,0.703l6.691-0.064
		l-0.625,1.218l-6.498,0.016c-1.232,0-3.074-0.527-3.938-1.439c-0.398,0.722-1.008,1.568-1.809,2.4l-1.008-0.832
		c1.393-1.168,2.063-2.561,2.399-4.307l1.153,0.319c-0.049,0.529-0.111,0.802-0.256,1.121c1.279-0.672,3.682-2.16,4.258-2.688
		c1.232-1.088,2.32-2.289,3.072-3.488l-9.492-0.018v-1.199h5.714c-0.561-1.088-1.328-2.002-2.529-2.562
		c0.449-0.305,0.771-0.495,1.105-0.721c1.104,0.543,2,1.615,2.592,2.689l-0.912,0.559l5.074,0.033v1.057H394.127z"/>
	<path fill="#FFFFFF" d="M408.795,785.672h-3.234v1.152h5.986v1.168h-12.932v-1.168h5.746v-1.152h-3.011v-0.914
		c-0.911,0.625-2,1.058-3.041,1.361c-0.271-0.336-0.512-0.641-0.784-1.104c1.647-0.354,3.17-0.977,4.082-1.938h-3.152l-0.019-1.137
		h2.546l0.018-5.25h-2.242v-1.121h2.226v-1.313h1.217v1.313h5.555v-1.345l1.187-0.016v1.359h2.239v1.104h-2.209l-0.016,5.25
		l2.561,0.017l0.017,1.137h-3.01c0.961,0.943,2.594,1.553,4.114,1.793l-0.721,1.104c-1.025-0.303-2.209-0.782-3.121-1.344
		L408.795,785.672L408.795,785.672z M408.682,784.582c-0.623-0.432-1.118-0.863-1.553-1.504h-4.145
		c-0.386,0.625-0.816,1.072-1.394,1.473l2.771,0.031v-1.184l1.217,0.016l-0.019,1.152L408.682,784.582z M402.199,777.652h5.539
		l0.016-0.978h-5.555V777.652z M407.754,779.748v-1.008l-5.555,0.016v1.01L407.754,779.748z M407.754,781.941l-0.016-1.089h-5.539
		v1.072L407.754,781.941z"/>
	<path fill="#FFFFFF" d="M420.344,783.99l-0.463-0.592c0.752-0.336,0.961-0.945,0.961-1.584h-0.865v-1.763h1.761v1.683
		C421.736,782.277,421.545,783.43,420.344,783.99z"/>
	<path fill="#FFFFFF" d="M435.896,776.1c-0.306,0.896-0.607,1.937-1.232,2.771l-0.881-0.416l0.016,0.912h1.617v1.184h-1.617
		l-0.016,0.992l0.369-0.305c0.848,0.784,1.567,1.696,2,2.705l-1.023,0.498c-0.273-0.834-0.881-1.587-1.346-2.05l0.016,6.209h-1.231
		v-5.28c-0.416,0.623-0.88,1.743-2.064,2.832l-0.832-0.849c1.072-1.137,2.338-3.201,2.816-4.77h-2.191v-1.152l2.256-0.016
		l0.017-5.17h1.217v3.969c0.512-0.801,0.93-1.777,1.201-2.816l0.912,0.416v-0.514h3.137l0.016-1.104l1.217-0.017v1.119h3.33
		l0.017,1.154l-3.313,0.016v0.703h2.771v1.104h-2.771l0.017,0.783h3.905v1.152h-8.756v-1.152l3.568-0.016l0.016-0.752h-2.688v-1.137
		l2.672,0.016l0.016-0.719l-3.152,0.016V776.1H435.896z M431.271,778.932c-0.05-1.248-0.48-2.159-1.152-3.121l1.055-0.416
		c0.656,0.931,1.072,1.938,1.217,3.091L431.271,778.932z M441.516,787.127c0.224,0,0.384-0.16,0.384-0.4v-0.752h-4.369v2.595h-1.232
		v-7.636h6.851L443.131,787c0,0.561-0.447,1.137-0.992,1.199c-0.575,0.063-1.248,0.063-1.889,0.098l-0.32-1.201L441.516,787.127z
		 M441.898,782.838l0.016-0.721l-4.4-0.017v0.722L441.898,782.838z M437.529,784.791h4.385v-0.77h-4.385V784.791z"/>
	<path fill="#FFFFFF" d="M445.986,784.678c1.039-1.744,1.92-3.408,2.305-5.44l1.121,0.465c-0.385,2.049-1.074,3.537-2.322,5.57
		L445.986,784.678z M451.621,778.084l0.016,7.811c0.047,0.177,0.32,0.48,0.592,0.529h2.496c0.259-0.033,0.496-0.16,0.609-0.416
		c0.271-0.865,0.48-1.746,0.656-2.801l1.248,0.447c-0.306,1.137-0.48,2.178-0.961,3.121c-0.287,0.575-0.879,0.881-1.504,0.881
		l-2.562-0.017c-0.832,0-1.842-0.448-1.842-1.617V778.1L451.621,778.084z M454.293,779.301c-0.943-1.473-2.273-2.914-3.842-3.856
		c0.465-0.273,0.705-0.529,1.104-0.736c1.488,1.008,2.849,2.4,3.81,3.938L454.293,779.301z M459.496,784.998
		c-0.801-1.92-1.762-3.664-3.281-5.25c0.433-0.223,0.688-0.4,1.088-0.561c1.521,1.536,2.465,3.329,3.361,5.219L459.496,784.998z"/>
	<path fill="#FFFFFF" d="M468.543,778.5c0.049-0.111,0.129-0.367,0.209-0.705l0.719,0.146l-0.397-0.4
		c1.231-0.912,1.854-2.049,2.385-3.328l1.023,0.416c-0.111,0.32-0.306,0.672-0.4,0.881h4.211v1.119h-2.688
		c0.336,0.289,0.768,0.672,1.104,1.168l-0.992,0.625c-0.383-0.526-0.928-1.231-1.6-1.776l-0.625-0.017
		c-0.4,0.705-0.816,1.201-1.488,1.729l-0.16-0.144l-0.08,0.271h6.099v1.121h-6.435c-0.049,0.143-0.16,0.446-0.19,0.512h5.231v1.119
		h-5.617c-0.112,0.209-0.209,0.514-0.271,0.641h7.729v1.072h-2.688v0.785h2.369v1.121h-2.386v2.592
		c-0.096,0.385-0.368,0.801-0.784,0.944c-0.543,0.177-1.199,0.064-1.855,0.097l-0.369-1.201l1.441,0.096
		c0.19,0.033,0.32-0.063,0.352-0.19v-2.336h-5.17v-0.576c-1.008,1.744-2.705,3.184-4.129,3.983l-0.914-0.881
		c1.553-0.832,2.724-1.889,3.683-3.2c0.319-0.447,0.721-0.943,0.864-1.232h-4.002v-1.072h4.595c0.129-0.207,0.225-0.512,0.288-0.656
		h-4.002v-1.088h4.418l0.191-0.526h-4.883v-0.675c0.018,0-0.063,0.179-0.353,0.289l-0.703-0.911
		c1.681-0.962,2.722-2.546,3.505-4.113l0.944,0.463c-0.16,0.432-0.319,0.736-0.385,0.832h3.41v1.17h-2.226
		c0.24,0.223,0.607,0.703,0.929,1.152l-0.978,0.575c-0.432-0.752-0.768-1.17-1.231-1.745h-0.545
		c-0.479,0.784-1.215,1.489-1.664,1.825L468.543,778.5z M468.047,782.949c-0.16,0.305-0.385,0.641-0.479,0.785h4.817v-0.785H468.047
		z M470.031,787.496c-0.447-0.801-1.119-1.328-1.824-1.777l0.705-0.641c0.592,0.272,1.424,0.815,2,1.666L470.031,787.496z"/>
	<path fill="#FFFFFF" d="M481.609,788.023l-0.783-1.058c0.24-0.143,0.496-0.367,0.496-0.783v-6.34h-2.082v-1.135h3.266v7.123
		l2.098-1.313v1.345L481.609,788.023z M482.074,777.363c-0.465-0.959-1.328-1.953-2.049-2.48l0.881-0.672
		c0.896,0.607,1.664,1.457,2.19,2.385L482.074,777.363z M489.934,775.764v-1.521h1.185v1.521h1.426v1.138h-1.426v4.735h-2.306v1.041
		h4.402v1.121h-3.395c0.655,1.521,1.856,2.305,3.521,3.121l-0.848,0.881c-1.633-0.834-3.394-2.514-3.648-3.715l-0.032,4.514h-1.152
		v-4.545c-0.447,1.81-1.904,3.138-3.394,3.938l-0.93-0.896c1.648-0.768,2.834-1.953,3.33-3.297h-3.361v-1.121h4.322v-1.041h-2.385
		V776.9h-1.441v-1.138h1.441v-1.487h1.184v1.487L489.934,775.764L489.934,775.764z M489.934,778.1V776.9h-3.506v1.198L489.934,778.1
		L489.934,778.1z M489.934,779.188h-3.506v1.314h3.506V779.188z"/>
	<path fill="#FFFFFF" d="M505.004,776.291h0.736v1.633h-1.504v-1.281c0-0.782,0-1.889,1.28-2.465l0.353,0.545
		C505.053,775.059,505.021,775.844,505.004,776.291z M507.438,776.291h0.736v1.633h-1.504v-1.281c0-0.782,0-1.889,1.279-2.465
		l0.354,0.545C507.486,775.059,507.453,775.844,507.438,776.291z"/>
	<path fill="#FFFFFF" d="M519.258,784.631l2.832-1.104v-6.179h-2.4v-1.151l5.938,0.016l-0.016,1.152l-2.32-0.017v5.699l2.545-1.057
		v1.264l-5.65,2.338L519.258,784.631z M527.676,786.455c0.912,0.225,1.521,0.432,2.289,0.512c0.289,0.033,0.496-0.096,0.562-0.24
		c0.289-1.344,0.495-5.297,0.575-7.538l-2.289,0.018c-0.512,5.49-1.088,7.266-5.25,9.539l-0.881-1.121
		c3.636-1.455,4.531-3.408,4.771-8.467h-2.322v-1.168h2.338l0.017-3.633h1.264l-0.016,3.633l3.633,0.016
		c-0.127,3.313-0.097,5.379-0.513,8.26c-0.11,0.769-0.19,1.394-0.881,1.729c-0.813,0.4-2.239-0.096-3.168-0.176L527.676,786.455z"/>
	<path fill="#FFFFFF" d="M539.605,774.578c-0.688,1.297-1.521,2.529-2.306,3.186l3.41-0.287c-0.191-0.258-0.529-0.625-0.992-1.057
		l1.072-0.594c1.008,0.865,1.647,1.826,2.145,3.043l-1.151,0.479c-0.096-0.256-0.191-0.512-0.289-0.768
		c-1.775,0.111-3.488,0.369-5.361,0.607l-0.815-1.072c0.319-0.271,0.495-0.398,0.625-0.576c1.071-0.977,1.774-2.191,2.561-3.521
		L539.605,774.578z M542.008,786.904c0,0.799-0.545,1.278-0.992,1.344c-0.528,0.08-1.104,0.064-1.729,0.049l-0.449-1.231
		c0.705,0.063,1.168,0.143,1.682,0.063c0.16-0.016,0.257-0.223,0.257-0.4v-1.504h-3.33v3.187h-1.218v-8.597h5.779V786.904z
		 M537.445,784.07h3.33v-0.978h-3.33V784.07z M540.775,781.941v-0.978h-3.314v0.978H540.775z M544.377,781.717v2.226
		c1.104-0.257,2.607-0.753,3.889-1.681l0.816,0.849c-1.488,1.137-3.25,1.745-4.705,2.032v1.488c0,0.193,0.111,0.416,0.559,0.416
		h2.468c0.176-0.016,0.383-0.207,0.495-0.527c0.177-0.479,0.257-0.848,0.367-1.602l1.138,0.434
		c-0.209,1.009-0.386,1.648-0.816,2.306c-0.24,0.367-0.606,0.543-1.057,0.543h-2.881c-0.816,0-1.488-0.688-1.488-1.359v-5.123
		L544.377,781.717L544.377,781.717z M549.242,778.404c-0.176,0.705-0.32,1.264-0.527,1.823c-0.178,0.466-0.641,1.041-1.186,1.041
		h-2.851c-0.862,0-1.424-0.608-1.487-1.2v-5.537h1.217v2.752c0.977-0.271,2.641-1.039,3.777-1.969l0.735,0.911
		c-1.408,1.187-3.024,1.794-4.514,2.259v1.168c0,0.256,0.385,0.465,0.801,0.465h2.113c0.352,0,0.606-1.281,0.752-2.162
		L549.242,778.404z"/>
	<path fill="#FFFFFF" d="M560.932,787.863c-0.991,0-1.168-0.656-1.168-1.313v-3.842h-1.92c-0.192,1.986-0.77,5.043-5.299,5.908
		l-0.736-1.17c1.873-0.24,4.705-1.023,4.754-4.738h-3.633v-1.184h11.974l-0.017,1.184h-3.905l-0.017,3.426
		c0,0.32,0.127,0.576,0.496,0.576h2.016c0.416,0,0.656-0.08,0.736-0.399c0.16-0.56,0.225-1.169,0.289-1.951l1.201,0.446
		c-0.273,1.313-0.514,3.058-1.682,3.058H560.932L560.932,787.863z M563.797,777.316h-9.955v1.92h-1.217l-0.016-3.105h5.762
		c-0.367-0.416-1.232-0.992-2.049-1.137l1.008-0.912c0.945,0.289,1.713,0.93,2.449,1.762l-0.32,0.287h5.555v3.01l-1.217-0.016
		V777.316z M562.918,779.908h-8.195v-1.199l8.211,0.016L562.918,779.908z"/>
	<path fill="#FFFFFF" d="M581.537,782.838c-0.959-0.176-1.664-0.336-2.129-0.496v6.195h-1.215v-0.896h-6.371v0.896h-1.217v-6.1
		c-0.562,0.145-1.298,0.319-2.08,0.465l-0.609-1.121c2.418-0.385,4.547-0.896,6.307-1.92c-0.862-0.562-1.809-1.553-2.272-2.385
		c-0.4,0.512-1.584,1.6-2.849,2.399l-0.784-0.992c1.663-1.01,3.137-2.305,4.209-4.594l0.961,0.527
		c-0.127,0.336-0.271,0.545-0.271,0.561h6.113v1.058c-0.992,1.616-2.24,2.85-3.121,3.473c0.93,0.434,3.57,1.682,5.906,1.826
		L581.537,782.838z M574.414,783.047h-2.592v1.055h2.592V783.047z M574.414,785.271h-2.592v1.198h2.592V785.271z M575.199,780.598
		c-1.058,0.656-1.697,0.959-2.865,1.232l5.602,0.047C576.992,781.605,576.16,781.205,575.199,780.598z M572.639,776.547
		c0.642,1.152,1.713,2.113,2.562,2.674c0.928-0.465,1.92-1.617,2.625-2.674H572.639z M578.193,783.047h-2.563v1.055h2.563V783.047z
		 M578.193,785.271h-2.563v1.198h2.563V785.271z"/>
	<path fill="#FFFFFF" d="M591.758,783.029c-0.367-0.607-1.231-1.633-1.951-2.256l0.896-0.896c0.834,0.625,1.666,1.408,2.192,2.049
		L591.758,783.029z"/>
	<path fill="#FFFFFF" d="M600.299,787.721v-1.17h4.674v-11.813h1.25v11.813h1.855v-11.813h1.201v11.813h4.643v1.17H600.299z
		 M602.813,784.918c-0.079-2.176-0.815-4.4-1.616-6.209l1.041-0.496c0.815,1.791,1.567,4.033,1.793,6.178L602.813,784.918z
		 M610.928,785.111l-1.022-0.625c1.104-1.457,1.871-4.322,1.983-6.242l1.104,0.4C612.672,781.158,611.984,783.479,610.928,785.111z"
		/>
	<path fill="#FFFFFF" d="M630.156,782.311c-2.306-0.495-4.48-1.12-6.369-2.241c-1.826,1.217-4.658,2.032-7.123,2.418l-0.496-1.152
		c1.92-0.32,3.602-0.754,5.25-1.361c0.432-0.207,0.943-0.465,1.264-0.641c-0.688-0.527-1.6-1.072-2.159-1.84
		c-0.705,0.832-1.729,1.694-2.931,2.176l-0.912-1.104c2.466-0.912,3.648-2.339,4.402-4.308l1.055,0.594
		c-0.176,0.398-0.336,0.688-0.383,0.783h6.002v1.072c-0.945,1.168-1.904,1.922-2.896,2.641c0.207,0.16,0.703,0.32,1.151,0.545
		c1.504,0.562,3.088,0.992,4.931,1.345L630.156,782.311z M627.645,787.463c-0.159,0.498-0.575,0.93-1.041,1.057
		c-0.704,0.209-1.424-0.016-2.159-0.127L624.139,787c0.849,0.24,1.457,0.48,2.113,0.383c0.367-0.238,0.4-0.688,0.479-1.151
		c0.146-0.863,0.32-1.97,0.354-2.48h-3.457c-0.258,1.377-1.33,2.689-2.625,3.537c-0.961,0.641-2.688,1.152-3.729,1.346
		c-0.226-0.399-0.433-0.721-0.642-1.201c2.033-0.319,3.922-0.801,5.14-2.399c0.336-0.433,0.512-0.912,0.606-1.281h-4.576v-1.168
		h4.771c0.047-0.385,0-0.672,0.047-1.393l1.186,0.159c-0.016,0.607,0.031,0.882-0.016,1.232h4.545
		C628.301,784.359,628.107,785.99,627.645,787.463z M621.354,776.803c0.642,0.771,1.505,1.281,2.4,1.857
		c0.865-0.562,1.729-1.217,2.338-1.857H621.354z"/>
	<path fill="#FFFFFF" d="M635.012,783.895c2.978-1.088,5.234-2.368,6.883-4.514c-2.209,1.408-5.12,2.305-7.698,2.912l-0.769-1.072
		c1.439-0.319,3.904-0.959,4.994-1.438c-0.354-0.465-0.977-0.896-1.793-1.347l1.121-0.719c0.496,0.256,1.408,1.072,1.791,1.584
		c1.393-0.736,2.129-1.281,3.186-2.272h-4.399c-1.041,0.705-2.162,1.266-3.506,1.776l-1.058-0.992
		c2.435-0.735,4.529-1.873,6.179-3.875l1.12,0.595c-0.271,0.399-1.137,1.248-1.168,1.278h4.515v1.072
		c-0.513,0.689-1.457,1.682-2.259,2.273l0.945,0.512c-0.336,0.561-0.672,0.945-0.85,1.137l4.322,0.017l-0.017,1.071
		c-2.608,5.027-8.803,6.068-12.342,6.726l-0.799-1.105c2.656-0.446,5.057-0.977,7.17-1.889c-0.32-0.512-0.978-1.088-1.76-1.602
		l1.151-0.656c0.879,0.625,1.394,1.233,1.648,1.746c1.408-0.771,2.688-1.666,3.473-3.074h-4.098
		c-1.474,1.297-3.168,2.063-5.06,2.881L635.012,783.895z"/>
</g>
</svg>
