<?xml version="1.0" encoding="utf-8"?>
<!-- Generator: Adobe Illustrator 16.0.0, SVG Export Plug-In . SVG Version: 6.00 Build 0)  -->
<!DOCTYPE svg PUBLIC "-//W3C//DTD SVG 1.1//EN" "http://www.w3.org/Graphics/SVG/1.1/DTD/svg11.dtd">
<svg version="1.1" id="Layer_1" xmlns="http://www.w3.org/2000/svg" xmlns:xlink="http://www.w3.org/1999/xlink" x="0px" y="0px"
	 width="768px" height="1024px" viewBox="0 0 768 1024" enable-background="new 0 0 768 1024" xml:space="preserve">
<g>
	<path fill="#FFFFFF" d="M130.417,805.176c0,0.447,0.32,0.642,0.608,0.642h1.889c0.464,0,0.624-1.121,0.896-2.402l1.232,0.4
		c-0.128,0.784-0.305,1.506-0.561,2.129c-0.24,0.576-0.832,1.104-1.456,1.104h-2.241c-1.329,0-1.648-1.17-1.648-2.049v-5.379
		l-2.033-0.016c0.048,4.657-2.161,6.608-4.994,8.194l-0.88-1.217c2.816-1.473,4.594-3.057,4.577-6.979h-3.665v-1.218l12.053,0.017
		v1.217l-3.777-0.016V805.176L130.417,805.176z M123.502,794.451h9.364v1.217h-9.364V794.451z"/>
	<path fill="#FFFFFF" d="M144.544,802.23c-0.368-0.609-1.232-1.634-1.952-2.259l0.896-0.896c0.833,0.625,1.665,1.41,2.193,2.049
		L144.544,802.23z"/>
	<path fill="#FFFFFF" d="M156.079,802.615l-1.969,0.848l-0.896-0.992l2.85-1.186v-3.232l-1.104-0.016
		c-0.208,0.783-0.513,1.455-1.024,2.465l-1.12-0.592c0.944-1.553,1.313-2.898,1.488-4.707l1.168,0.32
		c-0.016,0.465-0.111,0.977-0.176,1.36l0.784-0.018v-3.328l1.201-0.016l0.016,3.344h1.44v1.17h-1.44v2.656l1.568-0.607v1.279
		l-1.568,0.688v5.763h-1.217L156.079,802.615L156.079,802.615z M158.624,802.758v-1.151l5.427-0.017v-1.44h1.2l0.016,1.457h1.857
		v1.151h-1.857v3.49c0,0.576-0.224,1.232-0.944,1.359c-0.656,0.192-1.504,0.098-2.032,0.129l-0.528-1.232
		c0.769,0.049,1.297,0.08,1.856,0.064c0.225-0.017,0.433-0.129,0.433-0.416v-3.396L158.624,802.758L158.624,802.758z
		 M166.803,798.805v1.168h-7.859v-1.168h3.233l0.016-2.145h-2.656v-1.168h2.641v-2.049l1.217-0.019v2.066h2.816l0.017,1.168h-2.833
		v2.145L166.803,798.805L166.803,798.805z M161.777,805.783c-0.704-0.896-1.473-1.584-2.545-2.017l0.832-0.784
		c1.057,0.385,1.873,1.088,2.642,2.018L161.777,805.783z"/>
	<path fill="#FFFFFF" d="M183.347,803.607c-0.224,0.848-0.432,1.567-0.752,2.289c-0.336,0.752-0.688,1.104-1.665,1.104h-8.467
		c-0.753,0-1.553-0.705-1.553-1.633v-6.402c-0.225,0.191-0.673,0.527-1.169,0.928l-0.992-0.879c2.113-1.297,3.857-3.09,5.074-5.698
		l1.12,0.495c-0.224,0.48-0.496,0.929-0.608,1.121l5.091,0.017l-0.017,1.088c-0.368,0.77-0.769,1.408-1.137,1.762h3.346v5.234
		l-9.396,0.016v2.289c0,0.24,0.176,0.496,0.496,0.496h8.195c0.208,0,0.352-0.113,0.448-0.32c0.32-0.721,0.592-1.504,0.769-2.434
		L183.347,803.607z M175.697,801.879l-0.017-2.914l-3.457-0.016v2.93H175.697z M173.648,796.1c-0.417,0.642-1.009,1.345-1.377,1.697
		h4.241c0.673-0.479,1.201-1.168,1.521-1.713L173.648,796.1z M176.913,798.965l-0.016,2.914h3.457v-2.914H176.913z"/>
	<path fill="#FFFFFF" d="M185.998,799.061c-0.128,0.193-0.256,0.336-0.607,0.656l-0.944-0.912c1.696-1.584,2.625-3.457,3.137-5.617
		l1.057,0.527c-0.145,0.641-0.305,1.121-0.416,1.473h2.561v0.992c-0.288,0.562-0.592,1.138-0.784,1.441h1.681v6.514H186v-5.074
		H185.998z M191.552,805.959c-1.856,0.465-3.186,0.77-5.282,1.346l-0.561-1.151c2.193-0.529,3.602-0.832,5.843-1.394V805.959z
		 M187.743,796.309c-0.24,0.447-0.561,1.119-0.704,1.313h1.648c0.272-0.4,0.544-1.041,0.672-1.313H187.743z M188.271,798.756h-1.089
		v1.521h1.089V798.756z M188.271,802.998v-1.615h-1.089v1.615H188.271z M190.496,798.756h-1.072v1.521h1.072V798.756z
		 M190.496,801.383h-1.072v1.615h1.072V801.383z M194.866,804.119h-2.722v-1.137h2.722v-2.336h-1.921v-1.138h1.921v-2.049h-2.497
		v-1.137h2.961c0.704-0.771,1.313-1.777,1.568-3.06l1.104,0.609c-0.336,1.264-1.056,2.256-1.248,2.449h1.856v1.137h-2.513v2.049
		h1.969v1.137h-1.969v2.336h2.929v1.138h-2.929v3.586h-1.232L194.866,804.119L194.866,804.119z M194.065,796.1
		c-0.319-1.057-1.04-1.633-1.872-2.159l0.976-0.595c0.769,0.449,1.553,1.154,1.953,2.082L194.065,796.1z"/>
	<path fill="#FFFFFF" d="M206.624,795.107v8.786h-1.2v-0.575h-2.449v1.008h-1.2v-9.219H206.624z M202.958,798.5h2.4v-2.225h-2.4
		V798.5z M202.974,799.686v2.48h2.449v-2.48H202.974z M204.927,806.873c2.48-1.793,3.041-3.186,3.041-6.676v-6.066h5.971v12.053
		c0,0.48-0.704,1.168-1.232,1.218c-0.576-0.017-1.057-0.05-1.729-0.017l-0.4-1.248c0.704,0.063,1.408,0.144,1.761,0.063
		c0.176-0.031,0.352-0.207,0.352-0.383v-3.22h-3.569c-0.16,1.89-1.216,3.746-3.297,5.17L204.927,806.873z M212.722,795.299h-3.537
		v2.402h3.537V795.299z M209.201,798.869v2.545h3.506v-2.545H209.201z"/>
	<path fill="#FFFFFF" d="M224.544,802.23c-0.368-0.609-1.232-1.634-1.952-2.259l0.896-0.896c0.833,0.625,1.665,1.41,2.193,2.049
		L224.544,802.23z"/>
	<path fill="#FFFFFF" d="M242.45,806.215c0.768,0,1.889-0.047,2.129-0.127c0.16-0.08,0.271-0.416,0.271-0.721l0.017-10.053
		l-9.7-0.017v12.629h-1.265v-13.813h12.229l0.016,11.508c0,0.736-0.288,1.488-0.721,1.713c-0.432,0.16-2.017,0.226-2.545,0.193
		L242.45,806.215z M244.354,797.045l0.017,1.184h-8.452l0.017-1.184H244.354z M243.058,799.957v4.834h-6.083v-4.818L243.058,799.957
		z M238.192,803.607h3.665v-2.449l-3.665,0.016V803.607z"/>
	<path fill="#FFFFFF" d="M249.085,806.92v-1.168h4.674v-11.813h1.249v11.813h1.856v-11.813h1.2v11.813h4.643v1.168H249.085z
		 M251.599,804.119c-0.08-2.178-0.816-4.402-1.617-6.211l1.04-0.496c0.816,1.793,1.569,4.033,1.793,6.178L251.599,804.119z
		 M259.714,804.311l-1.024-0.623c1.104-1.456,1.872-4.321,1.984-6.243l1.104,0.399C261.458,800.357,260.77,802.678,259.714,804.311z
		"/>
	<path fill="#FFFFFF" d="M265.95,799.701h12.405v1.328l-12.405,0.016V799.701z"/>
	<path fill="#FFFFFF" d="M283.327,800.678c-0.528-1.121-1.473-1.922-2.673-2.319l0.928-0.882c1.152,0.386,2.113,1.359,2.737,2.449
		L283.327,800.678z M284.767,801.67c-0.416,2.146-1.072,4.242-2.77,5.891l-1.056-0.784c1.632-1.408,2.417-3.441,2.721-5.57
		L284.767,801.67z M283.966,796.996c-0.527-1.025-1.393-1.633-2.496-1.969l0.896-0.865c1.024,0.272,1.857,1.041,2.546,1.953
		L283.966,796.996z M283.567,806.809c3.394-1.266,2.673-4.082,2.769-5.905l1.201-0.019c0,2.388,0.399,5.476-3.09,6.963
		L283.567,806.809z M293.443,800.773c-0.192-0.447-0.416-0.783-0.576-1.009c-2.465,0.207-5.538,0.576-7.14,0.896l-0.8-1.072
		c1.2-0.496,2.657-1.602,3.346-3.219h-3.298v-1.168h4.098c-0.304-0.416-0.88-0.863-1.744-1.217l1.024-0.736
		c0.848,0.289,1.536,0.977,2.032,1.777l-0.256,0.145l4.481,0.031v1.168h-4.994c-0.448,0.881-1.008,2.002-2.017,2.803l4.402-0.434
		c-0.192-0.191-0.656-0.463-1.377-0.722l1.185-0.799c1.04,0.576,2.129,1.633,2.705,2.832L293.443,800.773z M288.8,807.529v-6.691
		h1.217v6.691H288.8z M292.818,805.672c-0.063,0.527,0.896,0.527,1.009,0.256c0.16-0.24,0.288-1.313,0.305-2.063l1.152,0.416
		c-0.049,0.721-0.16,1.344-0.337,1.936c-0.144,0.449-0.56,0.914-1.056,0.961c-0.673,0.064-2.289,0.193-2.289-1.313v-5.025h1.216
		V805.672z"/>
	<path fill="#FFFFFF" d="M306.144,797.205l-0.352-0.545c0.816-0.336,0.848-1.121,0.864-1.568h-0.736v-1.633h1.505v1.279
		C307.425,795.523,307.425,796.629,306.144,797.205z M308.578,797.205l-0.354-0.545c0.816-0.336,0.85-1.121,0.864-1.568h-0.735
		v-1.633h1.505v1.279C309.858,795.523,309.858,796.629,308.578,797.205z"/>
	<path fill="#FFFFFF" d="M330.47,793.604c-0.145,0.832-0.447,1.601-0.688,2.416h4.321c-0.079,3.41,0.049,7.06-1.009,10.214
		c-0.176,0.526-0.593,1.217-1.231,1.327c-0.704,0.128-2.033-0.271-2.851-0.495l-0.208-1.347c0.896,0.338,1.633,0.562,2.417,0.674
		c0.272,0.031,0.448-0.063,0.608-0.288c0.271-0.642,0.433-1.378,0.528-1.89c0.416-2.256,0.479-5.09,0.527-7.074h-3.409
		c-0.399,1.104-0.992,2.193-1.856,3.347l-0.832-0.529v7.139h-1.265v-1.038h-2.657v1.295h-1.266v-11.076h1.474
		c0.417-0.736,0.735-1.648,0.977-2.832l1.152,0.463c-0.288,1.057-0.544,1.842-0.864,2.369h2.449v3.201
		c1.297-1.81,2.001-3.873,2.401-6.162L330.47,793.604z M322.851,797.412v3.104h2.642v-3.104H322.851z M325.524,804.887v-3.201
		h-2.657v3.201H325.524z M330.774,803.814c-0.513-1.394-1.266-2.609-2.178-3.763l0.992-0.655c1.169,1.36,1.811,2.448,2.337,3.905
		L330.774,803.814z"/>
	<path fill="#FFFFFF" d="M340.565,796.244h3.249v1.168h-3.249v2.785h2.399v5.729h-4.192v0.896h-1.17v-6.611h1.762v-6.723h1.201
		V796.244L340.565,796.244z M338.788,804.744h3.01v-3.379h-3.01V804.744z M345.75,793.459c0.097,1.424,0.08,3.201,0.112,4.129
		l4.514-0.623l0.176,1.104l-4.608,0.672c0.08,1.266,0.464,2.914,0.769,3.955c0.624-1.025,1.232-2.322,1.761-3.812l1.057,0.527
		c-0.641,1.666-1.296,3.234-2.24,4.563c0.56,0.882,1.36,1.81,2.257,2.466c0.208-0.593,0.256-1.039,0.288-1.648l1.152,0.801
		c-0.097,0.752-0.288,1.408-0.496,1.777c-0.097,0.096-0.226,0.271-0.434,0.318c-0.704,0.288-1.264-0.224-1.681-0.593
		c-0.656-0.575-1.44-1.358-1.904-2.08c-1.023,1.023-2.289,1.937-3.648,2.816l-0.896-0.928c1.297-0.672,2.85-1.81,3.905-3.074
		c-0.4-1.039-0.864-3.168-1.072-4.896l-2.111,0.304l-0.146-1.138l2.177-0.336c-0.144-1.168-0.111-2.271-0.128-3.92L345.75,793.459z
		 M348.375,796.836c-0.576-0.832-1.185-1.377-1.969-1.953l0.641-0.801c0.85,0.529,1.696,1.266,2.161,1.873L348.375,796.836z"/>
	<path fill="#FFFFFF" d="M359.11,800.949c1.199-0.543,2.385-1.217,3.2-1.953c-0.367-0.496-0.735-1.088-0.977-1.615
		c-0.384,0.623-0.64,1.023-1.265,1.633l-0.912-0.688c1.345-1.408,2.225-3.121,2.785-5.025l1.057,0.4
		c-0.16,0.561-0.353,1.088-0.465,1.408h3.569c-0.288,1.743-1.521,3.217-2.178,3.922c0.913,0.752,1.793,1.377,3.458,1.983
		l-0.833,0.929c-1.647-0.688-2.513-1.313-3.425-2.111c-0.992,0.912-2.001,1.504-3.329,2.129l-0.673-0.865l-0.032,4.865h-1.184
		l0.016-1.232h-2.993l0.017,1.25h-1.186v-10.772h5.348L359.11,800.949L359.11,800.949z M354.932,796.355v2.881h0.93v-2.865
		L354.932,796.355z M354.932,803.559h0.93l-0.018-3.151h-0.912V803.559z M357.91,796.371h-0.945v2.883h0.945V796.371z
		 M356.964,803.559h0.961v-3.151h-0.961V803.559z M364.503,807.785l-0.016-1.025l-2.737-0.016v1.057h-1.168v-6.1h5.122v6.084
		H364.503z M361.735,805.607l2.769-0.017v-2.754l-2.753,0.016L361.735,805.607z M362.135,796.275
		c0.271,0.545,0.672,1.521,1.04,1.903c0.562-0.575,0.896-1.039,1.297-1.903H362.135z"/>
	<path fill="#FFFFFF" d="M377.351,794.963c-0.129,0.24-0.225,0.529-0.353,0.736h4.48v4.563h-3.713v1.793
		c0,0.576-0.271,0.879-0.655,1.009c0.624,0.399,1.231,0.977,1.553,1.536l-0.993,0.736c-0.336-0.625-0.976-1.266-1.712-1.793
		l0.592-0.385h-0.08h-1.265l-0.4-1.152l1.409,0.064c0.208,0.016,0.32-0.097,0.32-0.271v-1.537h-3.762v-4.563h2.784
		c0.145-0.16,0.191-0.447,0.368-0.736h-4.514v5.604c0,2.049-0.32,4.801-1.89,6.914l-0.929-0.832c1.394-1.793,1.585-4.451,1.585-6.58
		v-6.273h12.74v1.168L377.351,794.963L377.351,794.963z M371.764,807.049l-0.943-0.865c0.783-0.672,1.505-1.438,1.873-2.705
		l1.04,0.593C373.349,805.336,372.756,806.248,371.764,807.049z M372.229,803.334l-0.864-0.928c0.929-0.433,2.018-0.978,2.802-2.064
		l0.992,0.623C374.261,802.197,373.061,802.838,372.229,803.334z M380.264,796.805h-6.274v0.672h6.274V796.805z M380.264,798.533
		h-6.274v0.688h6.274V798.533z M379.832,806.936c-0.272,0.24-0.592,0.449-0.864,0.449h-3.249c-0.784,0-1.313-0.529-1.313-1.281
		v-2.514h1.216v2.289c0,0.209,0.225,0.336,0.353,0.336h2.674c0.447,0,0.624-0.576,0.753-1.615l1.199,0.48
		C380.408,805.879,380.087,806.729,379.832,806.936z M381.833,803.398c-0.881-0.943-2.001-1.664-3.586-2.177l0.801-0.834
		c1.488,0.466,2.642,1.138,3.617,2.146L381.833,803.398z M382.201,806.809c-0.48-0.944-0.929-1.983-2.146-2.85l1.104-0.561
		c1.073,0.768,1.648,1.682,2.146,2.737L382.201,806.809z"/>
	<path fill="#FFFFFF" d="M390.148,805.223c-1.425,1.072-2.992,1.537-4.722,1.826l-0.512-1.104c1.856-0.207,3.362-0.722,4.561-1.634
		L390.148,805.223z M385.348,799.365l6.082,0.016c-0.03-0.127-0.207-0.592-0.305-0.688h-4.033l-0.016-4.563l9.893,0.017v4.547
		h-4.578c0.048-0.017,0.207,0.479,0.287,0.688l6.115-0.016l0.016,1.121l-13.461-0.019V799.365z M392.695,806.455
		c0,0.465-0.306,0.945-0.689,1.104c-0.625,0.271-1.281,0.16-2.033,0.146c-0.159-0.369-0.239-0.674-0.383-1.121
		c0.656,0.016,1.119,0.111,1.584,0.049c0.191-0.018,0.306-0.178,0.306-0.418v-2.016l-4.035-0.017v-3.01l9.221,0.017l-0.016,3.01
		h-3.953L392.695,806.455L392.695,806.455z M395.783,795.908v-0.672h-7.459v0.672H395.783z M388.324,796.965v0.607h7.459v-0.607
		H388.324z M388.645,802.295l-0.016,0.768h6.85l-0.016-0.768H388.645z M398.361,807.16c-1.457-0.928-2.931-1.474-4.738-1.713
		l0.592-1.023c1.762,0.223,3.281,0.816,4.818,1.695L398.361,807.16z"/>
	<path fill="#FFFFFF" d="M408.518,802.23c-0.366-0.609-1.231-1.634-1.95-2.259l0.895-0.896c0.834,0.625,1.666,1.41,2.193,2.049
		L408.518,802.23z"/>
	<path fill="#FFFFFF" d="M425.078,802.518c-0.512,1.474-1.824,3.011-3.313,3.777c-1.231,0.625-2.321,1.057-3.696,1.346l-0.912-1.088
		c2.832-0.449,5.506-1.586,6.608-4.035h-6.608v-1.168h6.979c0.16-0.465,0.271-1.487,0.271-2.176v-2.209h1.201
		c0,2.129,0.047,3.041-0.226,4.385h5.347v1.168H425.078z M429.256,797.941v-1.474h-10.611v1.474h-1.217v-2.644h6.418
		c-0.256-0.432-0.961-1.022-1.487-1.313l0.911-0.576c0.576,0.305,1.347,0.961,1.697,1.647l-0.512,0.209l6.018,0.031v2.644
		L429.256,797.941L429.256,797.941z M421.236,801.254c-0.543-0.881-1.328-1.647-2.271-2.24l0.783-0.721
		c0.912,0.512,1.793,1.313,2.369,2.24L421.236,801.254z M422.838,799.717c-0.529-0.961-1.266-1.68-2.209-2.32l0.816-0.688
		c0.942,0.545,1.793,1.41,2.354,2.354L422.838,799.717z M430.025,807.705c-1.521-1.697-3.123-2.594-5.123-3.49l0.625-0.896
		c1.6,0.592,3.969,2.018,5.33,3.44L430.025,807.705z"/>
	<path fill="#FFFFFF" d="M434.885,806.072c1.554,0.432,1.535,0.223,1.729-0.705c0.239-1.168,0.336-2.801,0.416-4.354h-1.361
		c0,2.32-0.512,4.754-1.84,6.867l-1.01-0.832c1.25-1.856,1.616-4.018,1.616-6.26v-3.232h-1.151l-0.017-1.168h5.187v1.168h-2.816
		v2.289h2.625c-0.063,2.256-0.209,4.466-0.655,6.482c-0.13,0.592-0.433,0.863-0.785,1.022c-0.543,0.257-1.185,0.033-1.793-0.03
		L434.885,806.072z M436.004,796.309c-0.352-0.93-1.088-1.586-1.969-2.178l0.945-0.641c0.881,0.529,1.6,1.186,2.016,2.145
		L436.004,796.309z M441.287,793.811c-0.064,0.562-0.226,1.041-0.32,1.313h5.795v1.168l-6.211,0.018
		c-0.479,1.119-1.137,2.386-2.289,3.232l-0.93-0.768c1.234-0.816,2.369-2.851,2.865-5.349L441.287,793.811z M447.08,804.535
		c-0.127,0.768-0.287,1.457-0.672,2.033c-0.271,0.416-0.736,0.623-1.217,0.623l-4.354-0.017c-0.688,0-1.344-0.432-1.344-1.328
		v-4.401l-0.928,0.239l-0.273-1.137l1.186-0.256v-1.695h1.218v1.394l1.375-0.289v-2.785l1.2-0.016v2.528l3.025-0.674
		c-0.096,1.713-0.289,3.267-0.641,4.754c-0.08,0.338-0.4,0.771-0.752,0.865c-0.449,0.111-0.912,0-1.377-0.049l-0.191-1.248
		c0.512,0.063,0.799,0.256,1.057,0.096c0.207-0.143,0.144-0.447,0.257-0.703c0.159-0.77,0.256-1.586,0.352-2.225l-1.729,0.352v4.435
		h-1.217v-4.129l-1.358,0.303v4.307c0,0.287,0.143,0.513,0.463,0.513h3.905c0.306,0,0.496-0.191,0.576-0.466
		c0.16-0.397,0.226-0.832,0.306-1.471L447.08,804.535z"/>
	<path fill="#FFFFFF" d="M457.895,793.715c-0.11,0.527-0.286,0.912-0.399,1.185h4.227v0.977c-0.625,1.793-1.44,2.529-2.209,3.314
		c0.849,0.801,2.48,1.614,3.97,2.129l-0.912,0.977c-0.992-0.289-2.961-1.377-3.938-2.289c-0.783,0.642-1.713,1.248-2.865,1.761
		l5.49,0.032v5.953h-1.231v-0.832H457l-0.031,0.881h-1.266v-5.985c-0.303,0.145-1.008,0.416-1.328,0.526l-0.305-0.446h-1.359v2.688
		c0.512-0.209,1.297-0.529,2.146-0.834v1.232c-0.785,0.338-1.505,0.625-2.193,0.93l-3.361,1.439l-0.063-0.144l-0.783-0.93
		c0.465-0.191,0.783-0.256,1.008-0.367v-5.635l1.187,0.016l-0.033,5.299l0.033-0.176l0.832-0.336v-6.115h-1.81v-4.737l4.578-0.017
		l0.016,4.033c1.359-1.359,1.92-3.041,2.513-4.93L457.895,793.715z M453.029,797.797v-2.418h-2.179v2.418H453.029z M454.262,798.66
		v0.289h-1.553l0.016,1.776h1.537v0.384c1.168-0.433,2.545-1.119,3.586-1.984c-0.545-0.672-0.977-1.361-1.313-1.938
		c-0.16,0.289-0.771,1.33-1.49,1.97L454.262,798.66z M456.951,802.967v2.785l3.041,0.016v-2.815L456.951,802.967z M457.271,796.051
		c0.303,0.736,0.782,1.441,1.438,2.273c0.705-0.752,1.072-1.279,1.553-2.273H457.271z"/>
	<path fill="#FFFFFF" d="M467.061,801.254c-0.735,0.801-1.346,1.297-1.889,1.664l-0.801-0.912c2.801-2.16,3.346-3.682,4.258-5.426
		l0.992,0.607c-0.336,0.641-0.705,1.521-1.394,2.545v7.955h-1.168L467.061,801.254L467.061,801.254z M469.174,793.844
		c-0.674,2.031-2.498,4.24-3.875,5.217l-0.768-0.911c1.264-0.962,2.93-2.785,3.696-4.834L469.174,793.844z M476.904,795.219
		c-0.625,1.041-1.394,2.113-2.338,3.01c1.377,0.449,2.961,1.394,4.098,2.435l-0.896,0.783c-1.264-1.119-2.512-1.84-4.018-2.4
		c-1.344,0.961-2.672,1.873-4.545,2.609l-0.736-0.992c3.586-1.648,5.715-3.266,7.043-5.459h-5.49v-1.137h6.884L476.904,795.219
		L476.904,795.219z M478.713,805.879v1.105H468.58v-1.105h4.498v-3.121h-3.313v-1.151h7.843v1.151h-3.313v3.121H478.713z"/>
	<path fill="#FFFFFF" d="M488.135,803.67c-0.528-1.135-1.201-2.176-1.969-2.705v6.883h-1.217v-6.307
		c-0.465,0.994-1.633,2.402-2.994,3.602l-1.119-0.815c1.92-1.504,3.441-3.457,4.049-5.347h-3.057v-1.168l3.121,0.017v-2.033
		c-0.801,0.113-1.793,0.305-2.881,0.354l-0.496-1.105c2.352-0.176,4.449-0.463,6.369-1.457l0.735,0.914
		c-0.543,0.352-1.92,0.848-2.512,1.023v2.305l2.721-0.016l-0.016,1.168l-2.705-0.017v1.168l0.432-0.303
		c0.912,0.559,2.129,2.016,2.545,3.104L488.135,803.67z M494.297,806.873l-1.217,0.016v-1.586h-2.562v1.603h-1.2l-0.017-12.021
		h4.994L494.297,806.873L494.297,806.873z M490.52,804.119h2.562v-8.068h-2.562V804.119z"/>
	<path fill="#FFFFFF" d="M498.035,794.242c3.521,0.16,8.867-0.271,11.061-0.912l0.705,1.01c-1.776,0.433-3.475,0.607-5.043,0.799
		l-0.016,0.785h5.875v1.137h-5.875v0.802h4.401v5.33h-4.401v0.768h4.627v1.137l-4.596,0.017l0.032,0.896l6.322,0.017l0.016,1.137
		h-14.053l-0.016-1.137h6.465v-0.929h-4.816v-1.12h4.802l0.016-0.783h-4.416l0.016-5.33h4.4l-0.016-0.785h-5.923v-1.152h5.892
		v-0.672l-4.754,0.127L498.035,794.242z M500.357,802.07l3.168-0.017l0.016-0.991l-3.184,0.016V802.07z M503.541,799.957
		l-0.016-0.961h-3.152v0.961H503.541z M504.742,799.941h3.17v-0.929h-3.17V799.941z M504.742,801.078v0.992h3.186l0.017-1.008
		L504.742,801.078z"/>
	<path fill="#FFFFFF" d="M513.572,807.865l-1.09-0.914c1.377-0.849,2.225-1.984,2.817-3.344l1.008,0.512
		C515.748,805.799,514.549,807.145,513.572,807.865z M519.719,796.164v1.568h4.385v5.346h-9.075v-5.346h3.475v-4.289h1.217v1.614
		h5.763v1.105L519.719,796.164L519.719,796.164z M522.951,798.836h-6.707v3.139h6.707V798.836z M518.422,807.416
		c-0.305-1.184-0.785-2.193-1.617-3.217l1.041-0.433c0.642,0.8,1.359,2,1.84,3.298L518.422,807.416z M521.848,807.449
		c-0.448-1.138-1.2-2.388-1.985-3.219l1.024-0.496c0.816,0.815,1.648,2.049,2.146,3.266L521.848,807.449z M525.721,807.545
		c-0.625-1.25-1.664-2.578-2.674-3.395l0.945-0.642c1.119,0.978,2.19,2.162,2.881,3.363L525.721,807.545z"/>
	<path fill="#FFFFFF" d="M536.277,805.352v2.689h-1.199v-2.689h-4.627v-1.12h4.627v-1.345h-3.154v-0.641
		c-0.815,0.545-1.584,1.072-2.896,1.713l-0.752-0.992c2.85-1.281,4.098-2.449,4.993-3.811h-4.497v-1.137h9.155
		c1.088-1.408,2.049-3.265,2.48-4.369l1.137,0.528c-0.688,1.455-1.488,2.816-2.242,3.857h3.361v1.119h-4.514
		c0.912,1.457,2.914,2.961,5.043,3.811l-0.896,0.978c-1.151-0.593-2.145-1.232-2.77-1.763v0.705h-3.25v1.345h4.737v1.12
		L536.277,805.352L536.277,805.352z M531.813,797.924c-0.465-1.057-1.903-2.672-2.528-3.121l0.896-0.641
		c0.816,0.594,1.777,1.553,2.609,3.043L531.813,797.924z M534.629,799.156c-0.527,0.944-1.473,2.018-2.129,2.608h2.578v-2.129h1.199
		v2.129h2.754c-0.576-0.495-1.584-1.664-2.178-2.608H534.629z M534.598,793.586c0.849,0.914,1.617,2.354,2.064,3.811l-1.137,0.416
		c-0.416-1.521-1.345-3.024-1.953-3.762L534.598,793.586z"/>
	<path fill="#FFFFFF" d="M548.469,806.664c0,0.672-0.209,1.184-1.088,1.201l-1.49,0.016l-0.463-1.217
		c0.607,0.049,1.138,0.049,1.474,0.016c0.271,0,0.352-0.176,0.352-0.465l-0.016-3.361l-1.697,0.675l-0.769-1.041l2.48-0.929
		l-0.016-3.649h-2.08l-0.019-1.152l2.099-0.016v-3.187l1.217-0.016l0.016,3.217h1.568v1.152h-1.568v3.153l1.568-0.561v1.232
		l-1.568,0.622V806.664L548.469,806.664z M556.648,798.82h2.512v1.151h-9.73v-1.168h2.226v-2.176l-1.617,0.016v-1.17l1.617-0.016
		v-1.937l1.217,0.017v1.936h2.561v-1.95l1.218,0.016v1.936l1.647-0.016v1.17h-1.647v2.191H556.648z M557.785,800.869v6.916h-1.217
		l0.016-0.961h-4.723v0.992l-1.216,0.016v-6.963H557.785z M551.846,802.039l0.017,1.184h4.723v-1.184H551.846z M556.568,805.656
		l0.016-1.281l-4.723,0.016v1.281L556.568,805.656z M552.871,796.629v2.176h2.561v-2.159L552.871,796.629z"/>
	<path fill="#FFFFFF" d="M567.109,798.068v-1.729h1.729v1.729H567.109z M567.479,806.936l-0.368-0.561
		c0.752-0.336,0.832-0.943,0.85-1.615h-0.85v-1.729h1.729v1.729C568.838,805.303,568.791,806.375,567.479,806.936z"/>
	<path fill="#FFFFFF" d="M590.584,806.535h-13.076v-1.185h6.322c1.6-2.129,2.576-4.737,2.945-7.649l1.217,0.512
		c-0.4,2.689-1.361,5.186-2.738,7.139h5.33V806.535L590.584,806.535z M584.021,796.244c-0.623-0.912-1.474-1.762-2.609-2.146
		l1.025-0.834c1.088,0.418,2,1.347,2.704,2.354l-0.848,0.609l5.521,0.016v1.184h-11.589v-1.168L584.021,796.244z M582.053,804.744
		c-0.207-2.146-1.022-4.947-2.528-6.531l1.12-0.545c1.521,1.633,2.48,4.467,2.625,6.707L582.053,804.744z"/>
	<path fill="#FFFFFF" d="M603,806.936c-1.713,0.16-4.258-0.127-5.795-1.248c-0.432-0.319-0.848-0.721-1.121-0.911
		c-0.447,1.057-1.359,2.112-2.449,3.024c-0.399-0.319-0.606-0.641-0.992-1.008c1.298-0.785,2.242-1.986,2.578-3.283
		c0.224-0.848,0.271-1.791,0.304-2.832h1.25c-0.019,0.863-0.13,2.064-0.273,2.832c0.625,0.722,1.906,1.746,2.865,1.938l0.033-6.035
		h-4.099l0.031-1.152l9.363-0.03v1.184l-4.099,0.018l-0.047,2.369l4.994-0.018v1.17l-4.947,0.016v2.689l2.05,0.063h4.594
		l-0.623,1.218H603V806.936z M598.998,793.219c0.881,0.465,1.824,1.265,2.305,1.744l-0.385,0.256l5.506,0.033l-0.016,3.186h-1.232
		l0.033-1.969l-10.309-0.033v1.904h-1.232l0.016-3.088h6.179c-0.4-0.4-1.058-0.961-1.951-1.408L598.998,793.219z"/>
	<path fill="#FFFFFF" d="M621.832,794.26v1.135h-3.01v3.826h3.666l-0.017,1.138h-3.633v7.282h-1.231v-7.282h-3.619
		c0.018,2.289-0.607,4.545-2.433,6.082c-0.655,0.545-1.248,0.881-2.002,1.2l-0.992-0.961c1.714-0.576,3.121-1.776,3.716-3.36
		c0.352-0.943,0.526-1.953,0.512-2.961h-3.906v-1.138h3.892v-3.826h-3.281v-1.135H621.832L621.832,794.26z M613.988,795.395v3.812
		h3.619v-3.812H613.988z"/>
	<path fill="#FFFFFF" d="M627.443,801.799c-0.72,0.367-1.295,0.623-1.744,0.799l-0.863-0.959c0.992-0.399,1.855-0.77,2.607-1.104
		v-2.865h-2.226v-1.184h2.226v-2.979h1.231v2.979h2.129l-0.016,1.198l-2.113-0.016v2.289c0.578-0.24,1.313-0.592,2.242-0.977v1.297
		c-0.832,0.336-1.553,0.688-2.242,1.008v5.01c0,0.48-0.271,0.93-0.655,1.187c-0.513,0.336-1.169,0.19-1.791,0.239
		c-0.193-0.385-0.306-0.735-0.496-1.231c0.639,0.016,1.135,0.08,1.534,0.016c0.209-0.096,0.177-0.447,0.177-0.705V801.799
		L627.443,801.799z M629.941,795.572v-1.201l9.026,0.016v1.201h-4.754c-0.207,1.359-0.592,2.816-1.121,3.953h4.914v8.211h-1.264
		v-1.264h-3.633v1.231h-1.25l0.018-6.211c-0.385,0.449-1.074,1.168-1.938,1.777l-0.849-0.945c1.744-1.487,3.281-2.881,3.857-6.77
		L629.941,795.572L629.941,795.572z M636.744,800.742h-3.633v4.561h3.633V800.742z"/>
	<path fill="#FFFFFF" d="M647.381,803.191l-0.463-0.595c0.752-0.336,0.961-0.942,0.961-1.584h-0.865v-1.76h1.761v1.68
		C648.773,801.479,648.582,802.631,647.381,803.191z"/>
</g>
</svg>
