<?xml version="1.0" encoding="utf-8"?>
<!-- Generator: Adobe Illustrator 16.0.0, SVG Export Plug-In . SVG Version: 6.00 Build 0)  -->
<!DOCTYPE svg PUBLIC "-//W3C//DTD SVG 1.1//EN" "http://www.w3.org/Graphics/SVG/1.1/DTD/svg11.dtd">
<svg version="1.1" id="Layer_1" xmlns="http://www.w3.org/2000/svg" xmlns:xlink="http://www.w3.org/1999/xlink" x="0px" y="0px"
	 width="768px" height="1024px" viewBox="0 0 768 1024" enable-background="new 0 0 768 1024" xml:space="preserve">
<g>
	<path fill="#FFFFFF" d="M120.669,823.111c2.657-1.697,4.562-4.113,5.395-6.724h-4.45v-1.217l5.778,0.017v-2.496h1.249l-0.017,2.496
		l5.715-0.017v1.217h-4.274c0.704,2.816,2.945,5.234,5.234,6.578l-0.864,1.025c-4.13-3.121-4.689-4.834-5.778-7.797l-0.032,5.684
		h3.09v1.199l-3.073-0.017L128.625,827h-1.217l-0.016-3.938l-3.169,0.016v-1.199l3.169,0.016v-5.698
		c-1.104,3.489-2.978,5.891-5.73,7.877L120.669,823.111z"/>
	<path fill="#FFFFFF" d="M137.524,821.094c2.017-1.151,3.617-2.944,4.93-4.817l0.977,0.655c-0.448,0.816-1.36,1.892-1.953,2.609
		v7.379h-1.232v-6.113c-0.271,0.257-1.168,0.849-1.776,1.279L137.524,821.094z M137.732,816.693c1.681-1.17,2.978-2.609,4.05-4.291
		l0.944,0.735c-1.072,1.617-2.401,3.314-3.922,4.388L137.732,816.693z M145.063,825.607c0.816,0.063,1.521,0.063,2.209,0.049
		c0.176-0.049,0.352-0.16,0.352-0.385v-6.563h-4.098v-1.184l8.244,0.016v1.168l-2.85,0.016l-0.016,6.691
		c0,0.561-0.288,0.977-0.688,1.217c-0.433,0.24-1.953,0.226-2.77,0.191L145.063,825.607z M150.793,814.836h-6.883l-0.017-1.186
		l6.899-0.017L150.793,814.836L150.793,814.836z"/>
	<path fill="#FFFFFF" d="M158.604,818.102c-0.433,1.554-1.696,4.146-3.218,5.234l-0.896-0.914c1.472-1.264,2.593-2.977,2.961-4.85
		L158.604,818.102z M155.291,815.043h5.938c-0.096-0.383-1.104-1.455-1.984-1.854l1.008-0.851c0.992,0.545,1.761,1.41,2.337,2.354
		l-0.464,0.352l5.506,0.033v1.168h-4.018v9.381c0,0.479-0.416,0.863-0.8,1.039c-0.576,0.193-1.265,0.08-1.889,0.096
		c-0.145-0.432-0.257-0.782-0.433-1.295c0.656,0.031,1.137,0.127,1.616,0.063c0.145-0.017,0.257-0.16,0.257-0.416v-8.867h-1.521
		c-0.017,1.025,0.031,1.904-0.032,3.01c-0.145,2.32-0.576,4.48-1.856,5.746c-0.833,0.801-1.81,1.617-2.994,2.019
		c-0.224-0.419-0.399-0.722-0.607-1.154c0.736-0.353,1.36-0.656,1.937-1.088c2.401-1.775,2.209-4.945,2.337-8.531h-4.338V815.043z
		 M166.927,823.367c-0.336-1.824-1.585-3.889-2.657-5.09l1.024-0.576c1.521,1.664,2.257,3.186,2.817,5.09L166.927,823.367z"/>
	<path fill="#FFFFFF" d="M173.074,816.275c-0.177,1.233-0.513,2.448-1.201,3.506c-0.416-0.146-0.768-0.32-1.12-0.513
		c0.832-1.104,1.104-2.319,1.28-3.682l1.024,0.32v-3.474h1.217v3.297l0.448-0.209c0.769,0.722,1.36,1.857,1.681,2.834l0.032-2.864
		h2.48c0.128-0.256,0.272-0.592,0.32-0.802h-4.018v-1.151h4.29c0.08-0.256,0.128-0.625,0.144-1.152
		c0.48,0.08,0.833,0.129,1.265,0.226c0,0.432-0.063,0.735-0.128,0.928h4.098v1.152h-4.37c-0.096,0.319-0.24,0.625-0.32,0.801h3.521
		v7.442h1.681v1.152h-10.644l0.016-1.152h1.665v-4.354c-0.32,0.19-0.608,0.383-0.993,0.543c-0.304-1.119-0.208-1.119-1.136-2.209
		v9.908h-1.249L173.074,816.275z M179.604,824.904c-1.217,1.008-2.609,1.694-4.241,2.016l-0.673-1.119
		c1.633-0.209,2.93-0.785,4.162-1.713L179.604,824.904z M177.651,817.285h4.834v-0.625h-4.85L177.651,817.285z M177.651,818.438
		l-0.016,0.642h4.85v-0.642H177.651z M182.501,820.246h-4.851v0.721h4.834L182.501,820.246z M177.651,822.119v0.815h4.851v-0.815
		H177.651z M184.934,826.969c-1.696-1.217-3.186-1.567-4.674-1.762l0.896-0.959c1.696,0.143,3.137,0.832,4.514,1.76L184.934,826.969
		z"/>
	<path fill="#FFFFFF" d="M187.656,824.889c1.169-0.815,2.049-1.842,2.529-3.09l1.008,0.656c-0.544,1.313-1.488,2.354-2.561,3.281
		L187.656,824.889z M189.849,820.486v-7.043h9.748v7.026L189.849,820.486z M191.065,814.611l0.017,1.729h3.025v-1.713
		L191.065,814.611z M194.107,819.301v-1.791h-3.025v1.791H194.107z M193.083,826.297c-0.993,0-1.457-0.416-1.457-1.328l0.016-3.01
		h1.232v2.641c0,0.369,0.209,0.527,0.577,0.527h2.864c0.881,0,0.977-0.912,1.024-1.936l1.201,0.225
		c-0.08,1.553-0.608,2.881-2.065,2.881H193.083L193.083,826.297z M195.387,823.752c-0.576-0.992-1.265-1.746-2.369-2.289
		l0.912-0.688c1.089,0.385,1.889,1.28,2.529,2.272L195.387,823.752z M198.364,816.34v-1.729l-3.057,0.016v1.697L198.364,816.34z
		 M198.364,819.285v-1.775h-3.041l-0.016,1.791L198.364,819.285z M198.972,821.719c1.281,0.752,2.193,2.033,2.785,3.138
		l-1.088,0.672c-0.625-1.279-1.393-2.32-2.642-3.088L198.972,821.719z"/>
	<path fill="#FFFFFF" d="M210.096,814.307v8.789h-1.2v-0.576h-2.449v1.009h-1.2v-9.222H210.096z M206.431,817.701h2.4v-2.226h-2.4
		V817.701z M206.447,818.885v2.482h2.449v-2.482H206.447z M208.4,826.072c2.48-1.793,3.041-3.187,3.041-6.674v-6.066h5.971v12.053
		c0,0.479-0.704,1.168-1.232,1.215c-0.576-0.016-1.057-0.047-1.729-0.016l-0.4-1.248c0.704,0.064,1.408,0.146,1.761,0.064
		c0.176-0.033,0.352-0.209,0.352-0.386v-3.217h-3.569c-0.16,1.89-1.216,3.746-3.297,5.17L208.4,826.072z M216.195,814.5h-3.537v2.4
		h3.537V814.5z M212.673,818.068v2.545h3.506v-2.545H212.673z"/>
	<path fill="#FFFFFF" d="M220.869,825.992c1.2-0.527,2.529-1.474,2.753-2.851l-2.001-0.016v-1.137l2.065-0.017v-1.424h-2.466v-1.151
		h2.754c0.704-0.851,0.928-1.873,1.136-3.267l1.104,0.416c-0.128,1.185-0.576,2.129-1.04,2.851h1.729v1.151h-2.001v1.424
		l1.745,0.017v1.151l-1.777,0.017c-0.096,1.217-0.96,2.897-3.232,3.891L220.869,825.992z M223.253,812.611
		c0.624,0.432,1.36,1.278,1.665,2.112l-0.32,0.144l2.017,0.016v1.17h-5.09l-0.017-1.17l2.209,0.019
		c-0.208-0.545-0.64-1.058-1.424-1.603L223.253,812.611z M223.125,819.35c-0.16-1.024-0.688-2.239-1.2-2.655l1.04-0.435
		c0.688,0.865,0.977,1.648,1.185,2.738L223.125,819.35z M224.486,826.393c3.073-2.354,3.874-3.856,3.857-7.858l-0.016-5.906
		l1.217,0.016v5.716c0,3.647-0.24,5.856-3.906,8.707L224.486,826.393z M226.023,819.158c0.656-1.152,0.88-2.435,1.024-3.715
		l1.04,0.256c0.064,1.377-0.32,2.528-0.849,3.666L226.023,819.158z M231.897,826.984l-0.016-3.906h-2.001l0.016-1.152l2.001-0.016
		v-1.359l-2.337,0.017l0.016-1.168h2.497c0.608-0.945,1.152-1.986,1.232-3.347l1.265,0.4c-0.271,1.184-0.704,2.209-1.2,2.945
		l1.937-0.019v1.17h-2.192l-0.017,1.359h1.761v1.168h-1.744V827L231.897,826.984z M231.321,812.467
		c0.849,0.48,1.713,1.424,2.064,2.226l-0.24,0.112l1.681,0.031l0.017,1.168h-5.074v-1.168h2.385c-0.24-0.48-0.864-1.105-1.681-1.568
		L231.321,812.467z M231.336,819.318c-0.256-1.138-0.8-1.793-1.28-2.498l0.881-0.642c0.784,0.802,1.072,1.666,1.392,2.625
		L231.336,819.318z"/>
	<path fill="#FFFFFF" d="M244.711,821.43c-0.368-0.606-1.232-1.633-1.952-2.256l0.896-0.896c0.833,0.625,1.665,1.407,2.193,2.049
		L244.711,821.43z"/>
	<path fill="#FFFFFF" d="M260.295,823.799c-0.688,0.978-1.761,2.801-6.675,3.314l-0.512-1.232c2.385-0.113,4.577-0.77,5.778-2.082
		h-4.803v-1.168h5.282c0.08-0.16,0.208-0.512,0.24-0.752l1.152,0.287l-0.144,0.465h5.506c-0.16,1.281-0.464,2.289-0.912,3.33
		c-0.528,1.215-2.449,0.527-3.762,0.4l-0.224-1.217c1.04,0.271,1.744,0.383,2.48,0.432c0.496,0.031,0.736-1.137,0.881-1.777H260.295
		L260.295,823.799z M265.61,815.908v6.131h-1.217v-1.361h-3.617v1.105h-1.217v-1.105h-3.409v1.361h-1.217v-6.131h4.578
		c-0.368-0.111-1.089-0.32-2.161-0.385l0.561-0.943c0.912,0.096,1.633,0.256,2.32,0.479c1.313-0.159,1.81-0.385,2.306-0.495
		l-8.308-0.033v-1.168h11.141v0.992c-1.2,0.815-2.433,1.247-3.777,1.521L265.61,815.908z M259.559,817.061h-3.409v0.673h3.409
		V817.061z M256.15,819.605h3.409v-0.753h-3.409V819.605z M260.776,817.748h3.617v-0.688h-3.617V817.748z M260.776,819.605h3.617
		v-0.753h-3.617V819.605z"/>
	<path fill="#FFFFFF" d="M276.238,825.977c1.313-0.545,2.448-1.104,3.313-1.922c-1.024-1.455-1.153-2.465-1.489-3.938h-0.416
		l-0.016-1.168l-0.561-0.48h-1.793c-0.32,0.385-0.72,0.722-1.024,0.961c0.305,0.287,0.784,0.863,0.944,1.265
		c0.688-0.353,1.089-0.656,1.617-1.279l0.896,0.801c-0.385,0.672-1.553,1.295-2.226,1.568c-0.016,0.063,0.064,0.19,0.08,0.256
		c0.961,0.352,1.969,1.264,2.609,2.32l-1.024,0.801c-0.544-0.785-1.04-1.328-1.345-1.603c0.017,1.361,0.208,2.595-0.912,3.22
		c-0.544,0.303-1.265,0.096-1.889,0.063l-0.385-1.375c0.656,0.127,1.121,0.24,1.569,0.24c0.096-0.019,0.144-0.049,0.208-0.113
		c0.048-0.271,0.096-1.184,0.096-1.537c-1.057,0.816-2.529,1.377-4.113,1.746l-0.881-1.09c1.953-0.367,3.586-0.959,4.931-2.063
		c-0.08-0.32-0.129-0.607-0.192-0.816c-0.849,0.705-2.097,1.297-3.426,1.682c-0.352-0.289-0.608-0.592-1.024-1.01
		c1.633-0.398,2.93-0.912,4.002-1.791c-0.096-0.193-0.353-0.385-0.544-0.561c-0.688,0.399-1.553,0.735-2.529,0.977
		c-0.225-0.354-0.448-0.625-0.704-1.072c1.761-0.369,2.865-0.961,3.617-1.553l-3.474-0.033v-1.199h2.369
		c-0.112-0.448-0.48-1.01-1.12-1.602l0.977-0.4l-1.761-0.03v-1.168h2.688c-0.224-0.339-0.56-0.689-0.912-1.025l1.152-0.656
		c0.561,0.576,0.832,1.168,1.009,1.683h2.721v1.151h-1.937c0.336,0.097,0.624,0.191,0.977,0.318
		c-0.208,0.736-0.465,1.393-0.721,1.729h1.921v0.496c1.104-1.121,0.576-2.77,0.721-4.434h4.193v3.553
		c0.144,0.385,0.849,0.256,1.536,0.24l-0.016,1.279c-1.024,0-2.064,0.159-2.593-0.736c-0.16-0.336-0.225-0.656-0.225-1.008
		l0.017-2.129l-1.729-0.017c0.129,3.01-0.527,3.633-1.328,4.435h4.594c-0.112,1.922-0.432,3.776-1.521,5.104
		c0.784,0.816,1.873,1.361,3.121,1.81l-0.672,1.12c-1.409-0.479-2.562-1.297-3.281-2.016c-1.089,0.992-2.161,1.521-3.25,2.064
		L276.238,825.977z M272.716,815.236c0.528,0.672,0.864,1.344,0.977,2.016l0.544,0.018c0.432-0.545,0.688-1.231,0.849-2.032
		L272.716,815.236L272.716,815.236z M279.342,820.117c0.16,0.992,0.368,1.938,1.024,2.914c0.289-0.465,0.896-1.633,1.009-2.914
		H279.342z"/>
	<path fill="#FFFFFF" d="M291.523,817.236c-0.368-0.832-0.896-1.601-1.536-2.049l-0.48,0.016c-0.432,0.93-1.168,2.129-2.289,2.883
		l-0.944-0.93c1.729-0.943,2.481-2.609,2.833-4.385l1.089,0.366l-0.208,0.881h3.938v1.185h-2.449c0.496,0.4,0.896,0.977,1.152,1.506
		L291.523,817.236z M287.297,824.889v-1.186h8.708v1.186H287.297z M295.557,825.465c0.72,0.224,1.232,0.398,1.744,0.433
		c0.177-0.033,0.32-0.146,0.4-0.306c0.191-0.512,0.225-1.104,0.305-1.68c0.048-0.4,0.063-0.865,0.096-1.17h-8.69v-0.992
		c0.368-0.928,0.544-1.68,0.688-2.816l1.152,0.226c-0.145,1.057-0.305,1.729-0.545,2.449h4.53c0.16-0.625,0.288-2.162,0.432-3.074
		h-7.267v-1.152h8.516c-0.096,1.584-0.288,2.931-0.496,4.209h2.833c0.032,1.457-0.112,2.914-0.353,4.193
		c-0.08,0.449-0.448,0.881-0.849,1.09c-0.705,0.367-1.505,0.031-2.241-0.08L295.557,825.465z M296.069,813.154
		c-0.048,0.448-0.111,0.735-0.16,0.896h4.37v1.187h-2.369c0.305,0.271,0.769,0.848,1.152,1.537l-1.12,0.559
		c-0.336-0.879-0.912-1.584-1.585-2.111h-0.8c-0.368,0.799-0.753,1.394-1.665,2.017l-0.977-0.832
		c1.473-0.865,1.873-2.05,2.081-3.617L296.069,813.154z"/>
	<path fill="#FFFFFF" d="M303.08,821.094c2.017-1.151,3.617-2.944,4.93-4.817l0.978,0.655c-0.448,0.816-1.36,1.892-1.953,2.609
		v7.379H305.8v-6.113c-0.271,0.257-1.168,0.849-1.775,1.279L303.08,821.094z M303.288,816.693c1.681-1.17,2.978-2.609,4.05-4.291
		l0.944,0.735c-1.072,1.617-2.401,3.314-3.922,4.388L303.288,816.693z M310.619,825.607c0.815,0.063,1.521,0.063,2.209,0.049
		c0.176-0.049,0.352-0.16,0.352-0.385v-6.563h-4.098v-1.184l8.244,0.016v1.168l-2.851,0.016l-0.016,6.691
		c0,0.561-0.288,0.977-0.688,1.217c-0.434,0.24-1.953,0.226-2.771,0.191L310.619,825.607z M316.349,814.836h-6.883l-0.017-1.186
		l6.898-0.017L316.349,814.836L316.349,814.836z"/>
	<path fill="#FFFFFF" d="M325.659,822.391l-0.464-0.592c0.752-0.336,0.961-0.945,0.961-1.584h-0.865v-1.762h1.761v1.682
		C327.051,820.678,326.86,821.83,325.659,822.391z"/>
	<path fill="#FFFFFF" d="M334.985,821.607c2.031-1.793,3.616-3.73,4.337-5.765l-3.361-0.016v-1.168h3.811
		c0.239-0.609,0.416-1.394,0.625-2.242l1.231,0.273c-0.16,0.702-0.4,1.534-0.528,1.983h8.147v1.152l-8.612,0.016
		c-0.224,0.656-0.384,1.105-0.576,1.488h7.251v8.18c-0.048,0.48-0.398,0.851-0.832,1.008c-0.655,0.146-1.407,0.05-2.129,0.08
		c-0.191-0.397-0.353-0.703-0.561-1.231c0.785,0.098,1.409,0.112,2.018,0.08c0.177,0,0.305-0.127,0.305-0.271v-1.584l-6.034-0.016
		v3.393h-1.266v-7.635c-0.544,0.816-1.681,1.953-2.704,3.008L334.985,821.607z M340.042,822.422h6.051v-1.438l-6.051-0.017V822.422z
		 M340.075,818.502v1.295l6.002,0.019v-1.313H340.075z"/>
	<path fill="#FFFFFF" d="M364.772,816.309c-0.08,3.328-0.257,5.537-0.881,8.531c-0.177,0.865-0.961,1.344-1.585,1.424
		c-1.169,0.16-2.145-0.176-3.232-0.479l-0.272-1.394c1.089,0.354,1.985,0.642,2.931,0.722c0.336,0.033,0.624-0.224,0.783-0.433
		c0.434-0.606,0.912-4.994,0.96-7.188l-4.018,0.018c-0.271,6.113-3.057,7.875-6.466,9.314l-0.913-1.168
		c2.802-1.041,5.875-2.273,6.099-8.146h-3.953v-1.186h4.001v-3.586h1.232l-0.016,3.586L364.772,816.309z"/>
	<path fill="#FFFFFF" d="M381.499,813.459v1.137h-3.01v3.826h3.666l-0.017,1.137h-3.634v7.281h-1.231v-7.281h-3.618
		c0.017,2.287-0.607,4.545-2.434,6.082c-0.655,0.543-1.248,0.879-2.001,1.199l-0.992-0.959c1.714-0.576,3.121-1.777,3.715-3.361
		c0.352-0.944,0.527-1.952,0.512-2.961h-3.905v-1.137h3.89v-3.826h-3.28v-1.137H381.499L381.499,813.459z M373.655,814.596v3.81
		h3.618v-3.81H373.655z"/>
	<path fill="#FFFFFF" d="M390.461,813.012l-0.127,0.353c1.297,2.256,2.512,3.953,4.193,5.201l-0.882,1.01
		c-0.561-0.48-0.928-0.881-1.151-1.138c-0.146,1.681-0.433,3.777-0.849,4.834c-0.209,0.527-0.752,0.642-1.2,0.642
		c-0.496-0.064-0.961-0.193-1.474-0.354c-0.096-0.416-0.145-0.752-0.239-1.313c0.641,0.272,1.071,0.449,1.553,0.496
		c0.369-0.063,0.354-0.496,0.496-0.849c0.272-0.977,0.416-1.952,0.449-2.864h-3.33v5.746c0,0.272,0.159,0.416,0.319,0.416h4.338
		c0.24-0.064,0.337-0.32,0.367-0.593l0.258-1.071l1.072,0.526c-0.24,0.865-0.354,2.129-1.567,2.242h-4.563
		c-0.912,0-1.426-0.625-1.426-1.281v-6.082c-0.127,0.097-0.607,0.416-1.215,0.783l-0.77-1.072c1.472-0.672,2.402-1.647,3.169-2.801
		c0.625-0.942,1.185-2.16,1.537-3.313L390.461,813.012z M391.982,817.893c-0.546-0.702-1.568-2.063-2.179-3.2
		c-0.416,1.041-1.215,2.338-2.03,3.186L391.982,817.893z M394.719,823.416v-8.309h1.187v8.309H394.719z M397.121,812.658h1.184
		v13.143c0,0.527-0.305,1.039-0.992,1.104l-1.729-0.017l-0.369-1.184l1.633,0.078c0.146,0,0.273-0.158,0.273-0.527V812.658z"/>
	<path fill="#FFFFFF" d="M408.709,824.055l-5.49,2.129l-1.137-0.799c0.801-0.416,0.785-0.834,0.785-1.473l0.016-5.539h4.146v-3.441
		l-4.449,0.017l0.016-1.199h5.65v6.434l-1.232,0.017l-0.016-0.639h-2.881l0.016,4.93l4.578-1.683L408.709,824.055L408.709,824.055z
		 M415.256,826.92c-1.201-0.672-2.272-1.648-3.17-2.801c-1.072,1.266-2.289,2.145-3.713,2.865l-0.801-0.943
		c1.52-0.771,2.881-1.762,3.793-2.979c-0.623-1.038-1.023-2.049-1.328-3.327c-0.385,0.815-0.705,1.473-1.057,1.889l-1.121-0.545
		c1.729-2.435,2.272-5.201,2.338-8.291l1.151,0.271c0.017,1.058-0.11,1.824-0.19,2.595l4.385,0.016v1.186H414.6
		c-0.336,2.978-0.77,4.4-1.809,6.226c0.783,1.153,1.969,2.146,3.344,2.963L415.256,826.92z M410.725,817.877
		c0.259,1.424,0.576,2.705,1.33,4.033c0.736-1.408,1.168-3.297,1.345-5.057h-2.416L410.725,817.877z"/>
	<path fill="#FFFFFF" d="M426.348,824.023l0.017,2.993l-1.218,0.017v-2.994h-6.178v-1.152l6.178-0.016v-0.961h-4.305v-3.873h4.305
		v-0.848h-2.688v-2.082l-3.248,0.016v-1.168l3.232-0.016l0.016-1.232h1.201l0.016,1.232h4.082l0.017-1.281h1.2v1.297l3.218-0.016
		v1.168l-3.218-0.017v2.099h-2.625v0.848l4.242-0.016v3.889h-4.227l-0.017,0.977l6.273-0.016v1.168L426.348,824.023z
		 M422.041,820.758h3.105v-1.553h-3.105V820.758z M423.674,815.107v0.911l4.082,0.019v-0.93H423.674z M426.363,819.205v1.537h3.01
		v-1.537H426.363z"/>
	<path fill="#FFFFFF" d="M435.535,815.764h2.049l-0.016-3.057h1.248v3.057h1.694l0.019,1.152H438.8v2.865l1.504-0.672l-0.03,1.297
		c-0.576,0.256-1.041,0.446-1.457,0.655l-0.017,4.644c0,0.447-0.354,0.975-0.914,1.135c-0.559,0.16-1.151,0.129-1.823,0.098
		c-0.111-0.399-0.226-0.688-0.386-1.17c0.689-0.016,1.17,0.13,1.603,0.017c0.225-0.017,0.352-0.336,0.305-0.64v-3.666
		c-0.354,0.146-0.961,0.433-1.586,0.625l-0.799-1.024c0.928-0.305,1.729-0.512,2.369-0.801l0.016-3.361h-2.033L435.535,815.764z
		 M438.992,826.184c1.52-0.959,2.209-2.672,2.049-4.754l1.201,0.16c0,0.689-0.049,1.346-0.146,1.906
		c0.416,0.592,1.537,1.104,1.97,1.264l-0.017-3.938l-3.649-0.017v-1.137l8.916-0.016v1.168h-4.066v1.393h3.17v1.185h-3.154v1.633
		c1.394,0.192,2.945,0.063,4.677,0c-0.16,0.514-0.354,0.832-0.48,1.25l-3.313-0.033c-1.648-0.016-3.298-0.512-4.4-1.488
		c-0.32,0.705-0.754,1.603-1.922,2.32L438.992,826.184z M441.072,813.314l6.979-0.017v5.604l-6.994-0.033L441.072,813.314z
		 M442.258,814.467v1.01l4.594-0.016v-0.977L442.258,814.467z M442.273,816.645l-0.017,1.072h4.594v-1.088L442.273,816.645z"/>
	<path fill="#FFFFFF" d="M454.326,818.709h-2.146v-1.104h3.33v6.051c0.849,0.912,2.08,1.487,3.474,1.535
		c1.297,0.049,2.641,0.145,3.971,0.063l3.408-0.19l-0.48,1.313h-6.514c-2.93,0-3.617-0.816-4.418-1.666
		c-0.785,0.576-1.553,1.313-2.418,2.066l-0.912-0.961c0.992-0.722,1.889-1.474,2.705-2.146V818.709L454.326,818.709z
		 M454.486,816.373c-0.433-0.945-1.199-2.098-2.113-2.865l0.896-0.656c0.962,0.769,1.793,1.937,2.259,2.832L454.486,816.373z
		 M460.506,824.84v-4.272c-0.32,0.815-1.777,2.336-3.697,3.567l-0.735-0.942c1.567-0.992,2.561-1.843,3.264-3.074h-2.129v-3.744
		h3.266v-0.992h-4.129v-1.137h4.129v-1.697h1.201v1.664h4.082v1.152h-4.082v1.01h3.297v3.744h-3.297v1.09l0.625-0.736
		c1.408,0.48,2.625,1.474,3.664,2.576l-0.815,0.896c-0.943-1.009-2.031-2.033-3.474-2.515v3.41H460.506L460.506,824.84z
		 M458.361,818.98h2.11v-1.472h-2.11V818.98z M463.787,818.98v-1.472h-2.113v1.472H463.787z"/>
	<path fill="#FFFFFF" d="M475.656,821.43c-0.367-0.606-1.232-1.633-1.951-2.256l0.895-0.896c0.834,0.625,1.666,1.407,2.193,2.049
		L475.656,821.43z"/>
	<path fill="#FFFFFF" d="M484.197,826.121v-1.17h4.674v-11.813h1.25v11.813h1.854v-11.813h1.201v11.813h4.644v1.17H484.197z
		 M486.711,823.318c-0.08-2.177-0.816-4.4-1.617-6.209l1.041-0.496c0.816,1.791,1.568,4.033,1.793,6.178L486.711,823.318z
		 M494.826,823.512l-1.023-0.625c1.104-1.457,1.871-4.321,1.984-6.242l1.104,0.4C496.57,819.559,495.883,821.879,494.826,823.512z"
		/>
	<path fill="#FFFFFF" d="M500.477,823.768c1.761-0.432,3.089-0.832,4.386-1.313c0.239-0.08,0.575-0.24,1.01-0.4v1.185
		c-1.506,0.641-3.09,1.17-4.674,1.682L500.477,823.768z M505.566,820.055v1.136c-1.763,0.338-3.281,0.608-4.273,1.057l-0.594-1.119
		c0.896-0.801,1.746-1.809,2.401-2.834c-0.528,0.096-1.137,0.191-1.983,0.4c-0.226-0.4-0.369-0.722-0.562-1.088
		c1.168-1.41,2.05-3.041,3.025-4.898l1.022,0.545c-1.12,1.904-1.52,2.801-2.495,4.064c0.399-0.064,1.008-0.127,1.68-0.24
		c0.272-0.416,0.561-0.863,0.865-1.488l1.039,0.625c-1.136,2.031-1.81,3.121-3.104,4.449L505.566,820.055z M503.182,825.801
		c1.89-0.24,3.81-0.496,5.105-1.487c0.992-0.771,0.928-1.763,0.992-3.779h1.217c0,2.498-0.287,3.201-0.688,3.811
		c-0.721,1.088-2.704,2.256-5.905,2.576L503.182,825.801z M505.295,818.645v-1.104h3.889v-0.736l-3.01-0.016v-1.105h3.01v-0.702
		l-3.329-0.019v-1.072l3.329-0.016v-1.279h1.201v1.279l3.328,0.016v1.072l-3.328,0.019v0.702h3.072v1.105l-3.072,0.016v0.736h3.953
		v1.104H505.295z M506.334,819.045h6.898v4.93h-1.185v-3.84h-4.529v4h-1.186L506.334,819.045L506.334,819.045z M513.986,826.84
		c-1.041-0.815-2.049-1.455-3.074-1.871l-0.832-0.338l0.688-0.879c1.171,0.336,2.705,1.104,3.955,2.209L513.986,826.84z"/>
	<path fill="#FFFFFF" d="M517.619,815.764h2.049l-0.016-3.057h1.248v3.057h1.694l0.019,1.152h-1.729v2.865l1.504-0.672l-0.03,1.297
		c-0.576,0.256-1.041,0.446-1.457,0.655l-0.017,4.644c0,0.447-0.354,0.975-0.914,1.135c-0.559,0.16-1.151,0.129-1.823,0.098
		c-0.111-0.399-0.226-0.688-0.386-1.17c0.689-0.016,1.17,0.13,1.603,0.017c0.225-0.017,0.352-0.336,0.305-0.64v-3.666
		c-0.354,0.146-0.961,0.433-1.586,0.625l-0.799-1.024c0.928-0.305,1.729-0.512,2.369-0.801l0.016-3.361h-2.033L517.619,815.764z
		 M521.076,826.184c1.52-0.959,2.209-2.672,2.049-4.754l1.201,0.16c0,0.689-0.049,1.346-0.146,1.906
		c0.416,0.592,1.537,1.104,1.97,1.264l-0.017-3.938l-3.649-0.017v-1.137l8.916-0.016v1.168h-4.066v1.393h3.17v1.185h-3.154v1.633
		c1.394,0.192,2.945,0.063,4.677,0c-0.16,0.514-0.354,0.832-0.48,1.25l-3.313-0.033c-1.648-0.016-3.298-0.512-4.4-1.488
		c-0.32,0.705-0.754,1.603-1.922,2.32L521.076,826.184z M523.156,813.314l6.979-0.017v5.604l-6.994-0.033L523.156,813.314z
		 M524.342,814.467v1.01l4.594-0.016v-0.977L524.342,814.467z M524.357,816.645l-0.017,1.072h4.594v-1.088L524.357,816.645z"/>
	<path fill="#FFFFFF" d="M534.488,825.977c2.883-1.266,4.018-3.825,3.938-5.938h-3.504v-1.152h3.553l0.017-3.584
		c-0.769,0.207-1.775,0.367-2.851,0.447l-0.639-1.217c2.465-0.111,4.576-0.642,6.482-1.824l0.862,0.912
		c-0.942,0.606-1.823,0.992-2.641,1.328v3.938h3.793v-6.192h1.201v6.192h3.393v1.152h-3.377l-0.016,7.027h-1.217l0.016-7.027h-3.842
		c-0.177,2.545-0.496,4.738-4.354,7.027L534.488,825.977z"/>
	<path fill="#FFFFFF" d="M557.74,821.43c-0.369-0.606-1.232-1.633-1.953-2.256l0.896-0.896c0.832,0.625,1.664,1.407,2.193,2.049
		L557.74,821.43z"/>
	<path fill="#FFFFFF" d="M572.588,818.918l-5.729-0.016v-1.201h5.729v-4.514l1.248,0.016l0.016,4.498h5.666v1.201h-5.666v5.346
		l4.931,0.016l0.018,1.201l-11.205,0.017l0.017-1.218h4.979v-5.346H572.588z"/>
	<path fill="#FFFFFF" d="M586.625,812.818c-0.016,0.561-0.096,0.977-0.16,1.297h10.596v1.151h-10.885
		c-0.512,1.648-1.313,3.361-2.721,4.834c-0.367-0.225-0.623-0.495-0.977-0.768c1.137-1.426,2.577-3.154,2.993-7.06L586.625,812.818z
		 M594.115,818.645c-0.031,2.435-0.127,4.994,1.537,6.771c0.049,0.049,0.129,0.096,0.159-0.049c0.111-0.576,0.32-1.328,0.337-2.111
		l1.168,0.479c-0.16,1.01-0.367,2.049-0.896,2.723c-0.24,0.32-0.463,0.383-0.752,0.367c-0.607-0.031-0.992-0.496-1.297-0.928
		c-1.248-1.777-1.504-4.113-1.535-6.101h-8.195v-1.151L594.115,818.645L594.115,818.645z M585.793,817.588
		c-0.016-0.432,0-0.734,0-1.168h9.939v1.152L585.793,817.588z"/>
	<path fill="#FFFFFF" d="M599.701,815.764h2.049l-0.016-3.057h1.248v3.057h1.696l0.017,1.152h-1.729v2.865l1.504-0.672l-0.03,1.297
		c-0.576,0.256-1.041,0.446-1.457,0.655l-0.017,4.644c0,0.447-0.352,0.975-0.912,1.135c-0.56,0.16-1.151,0.129-1.823,0.098
		c-0.113-0.399-0.226-0.688-0.386-1.17c0.688-0.016,1.168,0.13,1.603,0.017c0.223-0.017,0.352-0.336,0.303-0.64v-3.666
		c-0.352,0.146-0.959,0.433-1.584,0.625l-0.801-1.024c0.928-0.305,1.729-0.512,2.369-0.801l0.016-3.361h-2.033L599.701,815.764z
		 M603.158,826.184c1.521-0.959,2.209-2.672,2.049-4.754l1.201,0.16c0,0.689-0.049,1.346-0.146,1.906
		c0.416,0.592,1.537,1.104,1.97,1.264l-0.017-3.938l-3.647-0.017v-1.137l8.914-0.016v1.168h-4.064v1.393h3.168v1.185h-3.152v1.633
		c1.394,0.192,2.945,0.063,4.675,0c-0.16,0.514-0.353,0.832-0.48,1.25l-3.313-0.033c-1.648-0.016-3.3-0.512-4.402-1.488
		c-0.32,0.705-0.752,1.603-1.92,2.32L603.158,826.184z M605.24,813.314l6.979-0.017v5.604l-6.994-0.033L605.24,813.314z
		 M606.424,814.467v1.01l4.594-0.016v-0.977L606.424,814.467z M606.439,816.645l-0.017,1.072h4.594v-1.088L606.439,816.645z"/>
	<path fill="#FFFFFF" d="M616.572,825.783c0.656,0.033,1.072,0.049,1.553,0.033c0.24,0,0.336-0.209,0.336-0.416v-3.73l-1.568,0.514
		l-0.879-0.977l2.447-0.816v-3.346h-1.904v-1.168h1.904v-3.09h1.217l-0.016,3.09h1.713v1.168h-1.697l-0.016,2.865l1.713-0.576v1.217
		l-1.697,0.607v4.643c0,0.353-0.336,0.896-0.721,1.104c-0.559,0.289-1.199,0.16-1.809,0.129L616.572,825.783z M620.031,826.264
		c1.264-1.647,1.615-3.584,1.615-5.553l0.016-7.443h8.389l0.017,1.168h-7.188l-0.016,4.003l6.979-0.017v1.152l-2.672,0.016
		c0.08,1.008,0.271,1.84,0.447,2.609c0.561-0.32,1.008-0.785,1.729-1.697l0.881,0.832c-0.672,0.865-1.424,1.521-2.209,1.953
		c0.416,1.041,1.328,2.354,2.625,2.865L629.715,827c-2.369-1.455-3.219-3.281-3.649-7.41h-0.992v5.49l1.842-0.865l-0.019,1.313
		l-2.641,1.346l-1.088-0.771c0.592-0.352,0.703-0.639,0.703-1.247l-0.016-5.281h-0.943c-0.113,2.896-0.289,4.977-1.762,7.475
		L620.031,826.264z M629.09,816.916l-5.586,0.016v-1.168h5.603L629.09,816.916z"/>
	<path fill="#FFFFFF" d="M642.471,812.803c-0.145,0.832-0.446,1.603-0.688,2.418h4.322c-0.08,3.408,0.047,7.06-1.011,10.211
		c-0.176,0.529-0.592,1.218-1.231,1.328c-0.703,0.129-2.033-0.271-2.851-0.496l-0.207-1.344c0.896,0.336,1.634,0.562,2.416,0.672
		c0.273,0.033,0.449-0.063,0.609-0.287c0.271-0.641,0.432-1.377,0.527-1.889c0.416-2.258,0.479-5.092,0.528-7.076h-3.409
		c-0.4,1.105-0.992,2.193-1.857,3.347l-0.832-0.527v7.139h-1.264v-1.041h-2.658v1.297h-1.264v-11.075h1.473
		c0.416-0.736,0.736-1.648,0.977-2.834l1.152,0.465c-0.289,1.057-0.545,1.84-0.865,2.369h2.449v3.2
		c1.297-1.809,2.002-3.872,2.402-6.161L642.471,812.803z M634.852,816.613v3.104h2.642v-3.104H634.852z M637.525,824.088v-3.201
		h-2.658v3.201H637.525z M642.775,823.016c-0.513-1.393-1.267-2.608-2.179-3.762l0.992-0.656c1.17,1.359,1.812,2.449,2.338,3.904
		L642.775,823.016z"/>
</g>
</svg>
