<?xml version="1.0" encoding="utf-8"?>
<!-- Generator: Adobe Illustrator 16.0.0, SVG Export Plug-In . SVG Version: 6.00 Build 0)  -->
<!DOCTYPE svg PUBLIC "-//W3C//DTD SVG 1.1//EN" "http://www.w3.org/Graphics/SVG/1.1/DTD/svg11.dtd">
<svg version="1.1" id="Layer_1" xmlns="http://www.w3.org/2000/svg" xmlns:xlink="http://www.w3.org/1999/xlink" x="0px" y="0px"
	 width="768px" height="1024px" viewBox="0 0 768 1024" enable-background="new 0 0 768 1024" xml:space="preserve">
<path fill="#FFFFFF" d="M134.227,846.088c-2.449-0.576-3.361-1.359-4.898-2.479c-1.36,1.327-3.169,2.098-5.058,2.448l-0.704-1.008
	c2.129-0.465,3.682-1.09,4.914-2.225c-0.561-0.545-1.745-2.258-2.161-3.154c-0.864,2.529-2.705,4.482-4.818,6.021l-0.88-1.025
	c2.737-1.697,4.674-4.529,5.394-7.729h-3.665v-1.072l1.473-3.666l1.072,0.561l-1.2,3.008h2.625c0.304-1.151,0.464-2.399,0.624-3.889
	l1.169,0.305c-0.192,1.377-0.353,2.545-0.576,3.584h6.898v1.17h-7.171c-0.145,0.4-0.288,0.896-0.416,1.248h5.474v0.992
	c-0.544,1.281-1.328,2.609-2.24,3.617c1.345,1.105,2.977,1.824,4.978,2.322L134.227,846.088z M127.457,839.35
	c0.352,0.689,1.168,2.033,1.809,2.609c0.72-0.801,1.313-1.713,1.696-2.609H127.457z M131.394,835.461
	c-0.608-1.01-1.521-1.713-2.545-2.305l0.832-0.785c1.057,0.561,1.969,1.328,2.689,2.32L131.394,835.461z"/>
<path fill="#FFFFFF" d="M139.502,840.15c0.017,2.735-0.544,4.082-1.664,6.146l-1.089-0.705c1.072-1.68,1.521-3.76,1.521-5.649
	v-7.281h11.301v3.697h-10.084L139.502,840.15z M148.354,833.828l-8.852-0.016v1.393h8.852V833.828z M145.793,841.447
	c0.208,0.576,0.624,1.328,1.185,1.824c0.544-0.353,1.072-0.992,1.504-1.681l0.977,0.736c-0.544,0.703-1.024,1.199-1.616,1.631
	c0.8,0.561,1.904,0.865,3.265,1.074l-0.8,1.135c-2.337-0.479-4.754-1.648-5.778-4.721h-1.761v3.168l2.609-0.929l0.016,1.218
	l-3.697,1.393l-1.041-0.848c0.576-0.16,0.977-0.416,0.896-0.945v-3.057h-1.793l0.017-1.152l2.561-0.016v-1.49h-2.225v-1.168
	l2.225,0.016v-1.057l1.217-0.017v1.072h2.689l0.016-1.057h1.2v1.057l2.289-0.016l-0.016,1.168h-2.273v1.506h2.913v1.152h-4.579
	V841.447z M146.242,840.295v-1.506h-2.705l0.016,1.49L146.242,840.295z"/>
<path fill="#FFFFFF" d="M155.983,841.463c-0.673,1.377-1.425,2.369-2.705,3.105l-0.721-0.945c1.265-0.703,2.033-1.633,2.562-2.816
	L155.983,841.463z M157.536,845.033c0,0.623-0.48,1.313-1.217,1.313h-1.297l-0.416-1.28l1.281,0.096
	c0.159,0.016,0.399-0.176,0.399-0.385v-4.354h-2.577v-1.168h2.577v-1.137h-3.137v-1.185h2.305c-0.112-0.465-0.496-1.057-1.232-1.616
	l1.057-0.433c0.672,0.527,1.152,1.248,1.376,2.049h0.673c0.528-0.528,0.928-1.328,1.12-2.018l1.072,0.432
	c-0.176,0.562-0.544,1.217-0.896,1.586h1.905v1.185h-2.993v1.137h2.545v1.168h-2.545v1.137l0.464-0.592
	c0.752,0.465,1.473,1.217,2.001,2.113l-0.816,0.928c-0.4-0.961-1.12-1.647-1.648-2.049L157.536,845.033L157.536,845.033z
	 M156.175,833.459c-0.145-0.256-0.48-0.703-1.009-1.232l1.168-0.543c0.513,0.607,0.945,1.218,1.137,1.775h2.705v1.17h-6.626v-1.17
	H156.175z M166.579,832.867c-1.44,0.832-2.913,1.231-4.337,1.488v2.288h4.594v1.169h-1.793v8.34h-1.232v-8.34h-1.568v2.065
	c0,2.129-0.705,4.32-1.938,6.228l-1.088-0.771c1.473-2.016,1.793-4.193,1.793-6.674l-0.017-5.283
	c1.776-0.207,3.313-0.688,4.818-1.504L166.579,832.867z"/>
<path fill="#FFFFFF" d="M182.339,838.887c0,2.48-0.32,4.129-0.769,5.873c-0.128,0.545-0.576,0.945-0.912,1.058
	c-0.656,0.209-1.921,0.063-2.529-0.048l-0.336-1.297l2.192,0.32c0.305-0.049,0.416-0.273,0.48-0.514
	c0.432-1.824,0.608-3.713,0.688-5.586h-8.979l-0.145,2.258c-0.112,1.775-0.672,3.328-1.984,5.217l-0.944-0.895
	c1.232-1.41,1.809-4.259,1.809-6.084v-6.627h10.308v4.018h-9.107l0.016,0.945h10.213L182.339,838.887L182.339,838.887z
	 M180.002,835.412v-1.68h-7.876v1.68H180.002z M173.248,844.504l-0.017-4.77h6.083v4.563l-1.201,0.016v-0.641h-3.665v0.832H173.248
	L173.248,844.504z M174.448,842.504l3.665,0.016v-1.633h-3.665V842.504z"/>
<path fill="#FFFFFF" d="M192.224,841.031c-0.704,0.047-1.344-0.226-1.792-0.736c-0.448-0.511-0.576-1.313-0.368-1.969
	c0.24-0.771,0.976-1.361,1.761-1.408c0.736-0.049,1.408,0.223,1.841,0.832c0.384,0.527,0.527,1.199,0.304,1.854
	C193.713,840.342,193.009,840.967,192.224,841.031z M192.256,837.957c-0.368-0.096-0.752,0.016-0.992,0.289
	c-0.225,0.24-0.336,0.592-0.272,0.928c0.064,0.305,0.288,0.609,0.576,0.736c0.4,0.176,0.864,0.08,1.169-0.226
	c0.288-0.286,0.368-0.752,0.224-1.118C192.833,838.262,192.561,838.037,192.256,837.957z"/>
</svg>
