<?xml version="1.0" encoding="utf-8"?>
<!-- Generator: Adobe Illustrator 16.0.0, SVG Export Plug-In . SVG Version: 6.00 Build 0)  -->
<!DOCTYPE svg PUBLIC "-//W3C//DTD SVG 1.1//EN" "http://www.w3.org/Graphics/SVG/1.1/DTD/svg11.dtd">
<svg version="1.1" id="Layer_1" xmlns="http://www.w3.org/2000/svg" xmlns:xlink="http://www.w3.org/1999/xlink" x="0px" y="0px"
	 width="768px" height="1024px" viewBox="0 0 768 1024" enable-background="new 0 0 768 1024" xml:space="preserve">
<line fill="none" stroke="#2A79BE" stroke-miterlimit="10" x1="100.974" y1="19.997" x2="60.621" y2="79.871"/>
<g>
	<path fill="#58B5E1" d="M95.83,66.026l5.6-1.11v1.729c-2.735,0.645-5.677,1.238-7.767,1.754l-0.903-1.729
		c1.471-1.342,3.174-3.535,4.567-5.083c-0.774,0.103-2.09,0.361-3.69,0.696l-0.877-1.729c1.522-2.09,3.818-6.089,5.393-9.108
		l1.6,1.109c-1.367,2.477-3.612,6.244-4.515,7.56c0.541-0.025,2.142-0.387,3.638-0.49c0.696-0.955,1.367-1.987,2.193-3.173
		l1.625,1.161C100.062,61.046,97.895,64.065,95.83,66.026z M93.896,73.096l-1.11-1.91c3.613-1.083,5.986-2.064,9.367-3.225v1.961
		C98.591,71.316,96.604,72.012,93.896,73.096z M100.036,73.432v-1.78h6.554v-5.29h-4.618v-1.884h11.172v1.884h-4.593v5.29h6.89v1.78
		H100.036z M114.15,64.556c-2.116-1.781-4.877-3.329-6.348-3.896c-2.167,2.064-4.206,2.838-6.425,3.612l-1.238-1.651
		c5.779-1.935,8.488-5.47,9.934-8.179h-8.67v-1.78h11.198v1.651c-1.393,2.502-2.605,3.922-3.457,4.876
		c2.013,1.006,4.851,2.477,6.348,4L114.15,64.556z"/>
	<path fill="#58B5E1" d="M132.448,56.66v-1.857h-5.367v1.806h-1.961v-1.806h-6.321v-1.884h6.398v-1.497h1.884v1.471h5.367v-1.445
		h1.936v1.445h6.347v1.884h-6.373v1.883H132.448z M121.173,61.459h-1.91v-4.077h20.952l-0.025,4.128h-1.91v-2.245h-17.106V61.459z
		 M135.776,74.438v-1.522h-12.179v1.497h-1.961l0.026-7.792h16.049v7.818H135.776z M135.776,68.529h-12.179v2.477h12.179V68.529z
		 M135.803,65.536h-12.153v-5.264h12.127L135.803,65.536z M125.637,62.182v1.445h8.179v-1.445H125.637z"/>
	<path fill="#58B5E1" d="M144.63,72.89v-1.883h7.534V51.964h2.013v19.042h2.993V51.964h1.936v19.042h7.482v1.883H144.63z
		 M148.681,68.374c-0.129-3.509-1.315-7.096-2.605-10.011l1.677-0.8c1.316,2.89,2.529,6.502,2.891,9.96L148.681,68.374z
		 M161.763,68.684l-1.651-1.006c1.78-2.348,3.02-6.967,3.2-10.063l1.78,0.645C164.575,62.311,163.466,66.052,161.763,68.684z"/>
	<path fill="#58B5E1" d="M169.766,69.097c2.839-0.697,4.98-1.342,7.07-2.116c0.387-0.129,0.929-0.387,1.625-0.645v1.909
		c-2.425,1.032-4.979,1.884-7.534,2.709L169.766,69.097z M177.971,63.11v1.832c-2.838,0.542-5.289,0.98-6.889,1.703l-0.955-1.806
		c1.445-1.29,2.813-2.916,3.87-4.567c-0.851,0.155-1.831,0.31-3.199,0.645c-0.361-0.645-0.594-1.161-0.903-1.755
		c1.884-2.271,3.303-4.902,4.877-7.896l1.651,0.877c-1.806,3.07-2.451,4.515-4.025,6.554c0.646-0.103,1.626-0.207,2.71-0.387
		c0.438-0.671,0.902-1.393,1.393-2.399l1.678,1.006c-1.832,3.277-2.916,5.031-5.006,7.173L177.971,63.11z M174.127,72.374
		c3.044-0.387,6.141-0.8,8.23-2.399c1.6-1.239,1.497-2.838,1.6-6.089h1.961c0,4.025-0.464,5.16-1.109,6.141
		c-1.161,1.755-4.36,3.638-9.521,4.154L174.127,72.374z M177.532,60.84v-1.78h6.271v-1.187l-4.852-0.026v-1.78h4.852v-1.135
		l-5.367-0.026v-1.729l5.367-0.026v-2.064h1.935v2.064l5.367,0.026v1.729l-5.367,0.026v1.135h4.954v1.78l-4.954,0.026v1.187h6.374
		v1.78H177.532z M179.21,61.485h11.121v7.947h-1.91V63.24h-7.302v6.451h-1.909V61.485z M191.543,74.051
		c-1.677-1.316-3.303-2.348-4.954-3.019l-1.342-0.542l1.11-1.419c1.883,0.542,4.36,1.78,6.373,3.561L191.543,74.051z"/>
	<path fill="#58B5E1" d="M220.732,63.472c-0.646,1.884-1.394,3.303-2.735,4.851l-1.471-1.342c2.09-2.425,3.277-5.006,3.845-7.56
		h-2.735v-1.91h3.07l0.026-2.658c-0.774,0.104-1.858,0.284-3.07,0.284l-1.11-1.987c3.2,0.129,5.651-0.542,8.283-1.368
		c0.31,0.542,0.516,0.98,0.98,1.471c-1.265,0.568-2.245,0.903-3.122,1.161v3.096h2.605v1.91h-2.58v1.342l0.749-0.49
		c1.315,1.29,2.271,2.528,2.838,4.231c-0.542,0.387-1.007,0.671-1.703,1.032c-0.49-1.548-1.213-2.735-1.884-3.458v12.075h-2.013
		L220.732,63.472z M227.596,67.858c-0.438,1.574-1.342,3.612-2.993,4.928l-1.6-1.368c1.651-1.342,2.555-2.993,2.993-4.49
		L227.596,67.858z M231.621,51.68c-0.181,0.49-0.31,0.98-0.517,1.522h5.522v1.574c-0.388,0.955-0.749,1.729-1.084,2.271h3.045v8.67
		h-11.688v-1.858h9.753v-1.6h-10.243v-1.883h10.243v-1.445h-9.263v-1.006c-0.259,0.129-0.594,0.232-0.98,0.413l-1.11-1.625
		c2.452-1.006,4.025-3.174,4.49-5.651L231.621,51.68z M230.15,73.173c-1.213,0-2.245-0.645-2.245-1.754v-5.006h1.909v4.464
		c0.052,0.181,0.388,0.413,0.542,0.413h3.974c0.181,0,0.31-0.104,0.387-0.181c0.155-0.31,0.232-0.774,0.388-1.935l1.806,1.032
		c-0.361,1.187-0.438,2.348-1.832,2.864l-0.773,0.103H230.15z M230.228,55.086c-0.542,0.826-1.032,1.342-1.78,1.987l4.851-0.026
		c0.438-0.516,1.059-1.6,1.213-1.961H230.228z M232.163,66.026c0.8,0.852,1.703,2.09,1.986,3.148l-1.651,0.929
		c-0.464-1.368-0.929-2.039-1.884-3.251L232.163,66.026z M239,72.632c-1.083-2.374-2.244-3.406-3.896-4.542l1.213-1.316
		c1.393,0.955,3.122,2.503,4.154,4.412L239,72.632z"/>
	<path fill="#58B5E1" d="M245.222,67.419V55.989h8.438l-0.025-4.722h2.064l-0.052,4.696l8.411,0.025v11.328h-2.038v-1.755h-6.373
		l0.052,8.696h-2.039l-0.025-8.696h-6.322l-0.051,1.858H245.222z M253.634,57.873h-6.373v5.832h6.398L253.634,57.873z
		 M261.968,57.873h-6.27v5.806h6.295L261.968,57.873z"/>
	<path fill="#58B5E1" d="M268.81,65.613c3.277-2.89,5.831-6.012,6.992-9.289l-5.418-0.025v-1.884h6.141
		c0.387-0.98,0.671-2.245,1.007-3.612l1.986,0.438c-0.258,1.135-0.645,2.477-0.852,3.2H291.8v1.858l-13.882,0.025
		c-0.361,1.058-0.619,1.781-0.929,2.4h11.688v13.185c-0.077,0.774-0.646,1.368-1.342,1.625c-1.058,0.232-2.271,0.078-3.432,0.129
		c-0.31-0.645-0.567-1.135-0.903-1.987c1.265,0.155,2.271,0.181,3.251,0.129c0.284,0,0.49-0.207,0.49-0.439v-2.554l-9.728-0.026
		v5.47h-2.038V61.949c-0.878,1.316-2.709,3.148-4.36,4.851L268.81,65.613z M276.963,66.929h9.754v-2.322l-9.754-0.026V66.929z
		 M277.015,60.607v2.09l9.676,0.026v-2.116H277.015z"/>
	<path fill="#58B5E1" d="M316.857,73.07h-10.579c-2.787,0-5.187-1.083-6.864-2.967c-0.8,1.109-2.502,2.503-3.974,3.432l-1.367-1.368
		c1.471-0.877,3.122-2.142,4.567-3.818v-6.967h-3.87V59.55h5.754v9.211c0.748,0.826,3.147,2.425,5.47,2.529
		c4.902,0.207,8.722-0.078,11.585-0.207L316.857,73.07z M299.518,57.408c-0.903-1.755-2.761-3.767-3.999-4.516l1.394-1.212
		c1.496,1.032,2.786,2.245,4.205,4.438L299.518,57.408z M310.562,55.679V51.5h1.935v4.18h3.174v1.832h-3.174v3.974h4.206v1.858
		h-4.231v7.328h-1.884v-7.38l-3.689,0.026c-0.026,2.993-0.284,5.032-2.787,7.199l-1.574-1.393c1.781-1.419,2.349-2.838,2.452-5.806
		h-3.974v-1.832h3.999v-4h-3.432v-1.832h3.38V51.5h1.987v4.18H310.562z M306.949,61.485h3.638v-3.974h-3.638V61.485z"/>
</g>
<g>
	<path fill="#58B5E1" d="M60.888,40.965c1.961,0.078,4-0.619,4-2.838c0-1.522-1.188-2.554-2.813-2.554
		c-2.039,0-3.045,1.832-2.993,3.689h-2.941c0.154-3.509,2.348-6.141,5.985-6.141c2.813,0,5.703,1.625,5.703,4.825
		c0,1.806-0.826,3.251-2.555,3.871v0.052c2.038,0.413,3.276,2.193,3.276,4.515c0,3.406-2.941,5.522-6.398,5.522
		c-4.18,0-6.271-2.529-6.348-6.296h2.941c-0.077,2.193,1.109,3.845,3.406,3.845c1.961,0,3.457-1.161,3.457-3.226
		c0-2.813-2.399-3.174-4.722-3.07V40.965z"/>
</g>
<line fill="none" stroke="#58B5E1" stroke-width="1.5" stroke-miterlimit="10" stroke-dasharray="1.5,1.5" x1="0" y1="933.521" x2="768" y2="933.521"/>
<line fill="none" stroke="#58B5E1" stroke-width="1.5" stroke-miterlimit="10" stroke-dasharray="1.5,1.5" x1="0" y1="90.479" x2="768" y2="90.479"/>
</svg>
