<?xml version="1.0" encoding="utf-8"?>
<!-- Generator: Adobe Illustrator 16.0.0, SVG Export Plug-In . SVG Version: 6.00 Build 0)  -->
<!DOCTYPE svg PUBLIC "-//W3C//DTD SVG 1.1//EN" "http://www.w3.org/Graphics/SVG/1.1/DTD/svg11.dtd">
<svg version="1.1" xmlns="http://www.w3.org/2000/svg" xmlns:xlink="http://www.w3.org/1999/xlink" x="0px" y="0px" width="768px"
	 height="1024px" viewBox="0 0 768 1024" enable-background="new 0 0 768 1024" xml:space="preserve">
<g id="圖層_1">
	
		<rect x="55.005" y="122.246" opacity="0.302" fill-rule="evenodd" clip-rule="evenodd" fill="#FFFFFF" width="339.694" height="44.455"/>
	<g>
		<path fill="#F2F2F2" d="M127.902,153.704l-1.325-1.3c1.674-1.2,2.899-2.649,4.124-4.549l1.25,1
			C131.101,150.904,129.401,152.654,127.902,153.704z M130.776,146.555v-8.873h3.674c-0.9-1.6-1.825-2.575-3.399-3.774l1.5-1.024
			c1.5,1.125,2.674,2.374,3.549,3.999l-1.149,0.774l4.648,0.025l-1.299-0.8c1.575-1.1,2.375-2.475,3.174-3.999l1.424,0.975
			c-0.625,1.55-1.299,2.699-2.674,3.799l3.399,0.025v8.873H130.776z M141.723,139.507h-9.047v5.224h9.047V139.507z M142.223,153.954
			l-0.725,0.2H134.5c-0.975,0-1.824-0.875-1.824-1.75v-4.874h1.899v4.424c0.05,0.2,0.275,0.375,0.525,0.375h6.223
			c0.475,0,0.95-1.399,1.05-2.499l1.775,1C143.773,152.154,143.623,153.304,142.223,153.954z M138.824,151.504
			c-0.55-1.45-1.4-2.549-2.649-3.599l1.375-1c1.375,1.274,2.075,2.224,2.875,3.474L138.824,151.504z M146.947,153.204
			c-1.025-1.825-2.35-3.374-3.774-4.374l1.425-1.075c1.5,1,2.899,2.574,3.849,4.249L146.947,153.204z"/>
		<path fill="#F2F2F2" d="M158.65,133.633c-0.4,2.45-0.95,4.224-1.875,6.224v15.246h-1.924v-11.872
			c-0.05,0.075-1.5,1.95-2.274,2.674c-0.7-0.4-0.925-0.725-1.675-1.125c2.949-2.575,5.124-7.648,6.099-11.947L158.65,133.633z
			 M170.323,148.58v1.825h-4.024l-0.025,4.799l-1.875-0.025v-4.774h-3.974l-0.025-1.825h3.974v-7.798
			c-0.525,2.424-2.524,6.823-6.273,9.772l-1.375-1.399c2.199-2,3.899-4.099,4.773-6.474c0.4-1.125,0.725-2.225,0.975-3.124
			l-4.699-0.025v-1.799l6.624-0.025v-4.824h1.875v4.849h6.798l0.025,1.825h-4.949c0.45,1.674,1,3.649,2,5.398
			c0.9,1.55,2.375,2.899,3.974,4.124c-0.5,0.55-0.9,0.975-1.425,1.475c-2.774-2.125-4.773-4.899-5.673-8.223l-0.7-2.574l-0.05,8.823
			H170.323z"/>
		<path fill="#F2F2F2" d="M189.149,147.03c-0.8,2.299-2.85,4.699-5.174,5.898c-1.925,0.975-3.624,1.649-5.774,2.1l-1.424-1.7
			c4.424-0.7,8.598-2.475,10.322-6.298h-10.322v-1.825h10.897c0.25-0.725,0.425-2.324,0.425-3.399v-3.449h1.875
			c0,3.324,0.075,4.749-0.35,6.848h8.348v1.825H189.149z M195.672,139.882v-2.299h-16.571v2.299h-1.899v-4.124h10.022
			c-0.4-0.675-1.5-1.6-2.324-2.049l1.424-0.9c0.9,0.475,2.1,1.5,2.649,2.574l-0.8,0.325l9.398,0.05v4.124H195.672z M183.15,145.056
			c-0.85-1.375-2.074-2.574-3.549-3.499l1.225-1.125c1.425,0.8,2.799,2.05,3.699,3.499L183.15,145.056z M185.65,142.656
			c-0.825-1.5-1.975-2.625-3.449-3.624l1.275-1.075c1.475,0.85,2.799,2.199,3.674,3.674L185.65,142.656z M196.872,155.128
			c-2.374-2.649-4.874-4.049-7.998-5.448l0.975-1.4c2.5,0.925,6.198,3.149,8.323,5.374L196.872,155.128z"/>
		<path fill="#F2F2F2" d="M221.497,138.582c-0.125,5.199-0.4,8.648-1.375,13.322c-0.275,1.35-1.5,2.1-2.474,2.225
			c-1.825,0.25-3.349-0.275-5.049-0.75l-0.425-2.174c1.7,0.55,3.099,1,4.574,1.125c0.525,0.05,0.975-0.35,1.225-0.675
			c0.675-0.95,1.425-7.798,1.5-11.222l-6.273,0.025c-0.425,9.548-4.774,12.297-10.098,14.546l-1.425-1.824
			c4.374-1.625,9.173-3.549,9.523-12.722h-6.174v-1.849h6.249v-5.599h1.925l-0.025,5.599L221.497,138.582z"/>
		<path fill="#F2F2F2" d="M229.451,144.781c-0.625,1.825-1.35,3.199-2.649,4.699l-1.424-1.3c2.024-2.349,3.174-4.849,3.724-7.323
			h-2.649v-1.85h2.974l0.025-2.574c-0.75,0.1-1.799,0.275-2.974,0.275l-1.075-1.924c3.099,0.125,5.474-0.525,8.023-1.325
			c0.3,0.525,0.5,0.95,0.95,1.425c-1.225,0.55-2.174,0.875-3.024,1.125v2.999h2.524v1.85h-2.499v1.3l0.725-0.475
			c1.275,1.25,2.199,2.449,2.75,4.099c-0.525,0.375-0.975,0.65-1.65,1c-0.475-1.5-1.175-2.649-1.824-3.349v11.697h-1.95
			L229.451,144.781z M236.1,149.03c-0.425,1.524-1.3,3.499-2.899,4.774l-1.549-1.325c1.6-1.3,2.474-2.899,2.899-4.349L236.1,149.03z
			 M239.999,133.358c-0.175,0.475-0.3,0.95-0.5,1.475h5.349v1.525c-0.375,0.925-0.725,1.674-1.05,2.199h2.949v8.398h-11.322v-1.799
			h9.448v-1.55h-9.923v-1.825h9.923v-1.399h-8.973v-0.975c-0.25,0.125-0.575,0.225-0.95,0.399l-1.075-1.574
			c2.375-0.975,3.899-3.074,4.349-5.474L239.999,133.358z M238.574,154.178c-1.175,0-2.175-0.625-2.175-1.699v-4.849h1.85v4.324
			c0.05,0.175,0.375,0.4,0.525,0.4h3.849c0.175,0,0.3-0.1,0.375-0.175c0.15-0.3,0.225-0.75,0.375-1.875l1.75,1
			c-0.35,1.149-0.425,2.274-1.775,2.774l-0.75,0.1H238.574z M238.649,136.658c-0.525,0.8-1,1.3-1.725,1.924l4.699-0.025
			c0.425-0.5,1.025-1.549,1.175-1.899H238.649z M240.523,147.255c0.775,0.825,1.65,2.025,1.925,3.049l-1.6,0.9
			c-0.45-1.325-0.9-1.975-1.825-3.149L240.523,147.255z M247.147,153.653c-1.05-2.299-2.174-3.299-3.774-4.399l1.174-1.274
			c1.35,0.925,3.024,2.424,4.024,4.274L247.147,153.653z"/>
		<path fill="#F2F2F2" d="M271.697,144.506c-1.125,2.375-2.524,4.849-4.749,6.298c-4.349,2.849-9.498,3.724-14.946,4.299l-0.7-1.924
			c5.773-0.65,11.622-1.125,15.746-4.999c1.325-1.25,2.149-2.924,2.999-4.674L271.697,144.506z M260.175,144.855
			c-1.924,2.375-4.424,4.374-7.148,5.599c-0.475-0.475-0.85-1-1.4-1.549c2.699-1.125,5.024-2.899,6.999-5.199L260.175,144.855z
			 M252.327,142.731v-1.875h3.549v-5.798l2-0.025l0.025,5.823H262v-8.123h2.024l-0.025,3.174h7.923v1.85l-7.873,0.025v3.074h9.123
			v1.85h-8.898v6.698h-2.024l0.025-6.698L252.327,142.731z"/>
		<path fill="#F2F2F2" d="M276.577,137.732h3.199l-0.025-4.774h1.949v4.774h2.649l0.025,1.799h-2.699v4.474l2.35-1.05l-0.05,2.024
			c-0.899,0.4-1.625,0.7-2.274,1.025l-0.025,7.248c0,0.7-0.55,1.525-1.425,1.775c-0.875,0.25-1.799,0.2-2.849,0.15
			c-0.175-0.625-0.35-1.075-0.6-1.825c1.075-0.025,1.824,0.2,2.499,0.025c0.35-0.025,0.55-0.525,0.475-1v-5.724
			c-0.55,0.225-1.5,0.675-2.475,0.975l-1.25-1.6c1.45-0.475,2.699-0.8,3.699-1.25l0.025-5.249h-3.174L276.577,137.732z
			 M281.976,154.003c2.375-1.5,3.449-4.174,3.199-7.423l1.875,0.25c0,1.075-0.075,2.1-0.225,2.975
			c0.65,0.924,2.399,1.724,3.074,1.974l-0.025-6.148l-5.699-0.025v-1.774l13.921-0.025v1.825h-6.348v2.174h4.949v1.85h-4.924v2.55
			c2.174,0.3,4.599,0.1,7.298,0c-0.25,0.8-0.55,1.299-0.75,1.949l-5.174-0.05c-2.574-0.025-5.148-0.8-6.873-2.325
			c-0.5,1.1-1.175,2.5-3,3.625L281.976,154.003z M285.225,133.908l10.897-0.025v8.748l-10.922-0.05L285.225,133.908z
			 M287.075,135.708v1.575l7.173-0.025v-1.524L287.075,135.708z M287.1,139.107l-0.025,1.675h7.173v-1.7L287.1,139.107z"/>
		<path fill="#F2F2F2" d="M301.827,153.679c4.499-1.975,6.273-5.974,6.148-9.273h-5.474v-1.799h5.549l0.025-5.599
			c-1.2,0.325-2.774,0.575-4.449,0.7l-1-1.9c3.849-0.175,7.148-1,10.123-2.849l1.35,1.425c-1.475,0.95-2.849,1.549-4.124,2.074
			v6.149h5.924v-9.673h1.875v9.673h5.298v1.799h-5.273l-0.025,10.972h-1.9l0.025-10.972H309.9
			c-0.275,3.974-0.775,7.398-6.798,10.972L301.827,153.679z"/>
	</g>
</g>
<g id="圖層_2">
</g>
</svg>
