<?xml version="1.0" encoding="utf-8"?>
<!-- Generator: Adobe Illustrator 16.0.0, SVG Export Plug-In . SVG Version: 6.00 Build 0)  -->
<!DOCTYPE svg PUBLIC "-//W3C//DTD SVG 1.1//EN" "http://www.w3.org/Graphics/SVG/1.1/DTD/svg11.dtd">
<svg version="1.1" id="Layer_1" xmlns="http://www.w3.org/2000/svg" xmlns:xlink="http://www.w3.org/1999/xlink" x="0px" y="0px"
	 width="768px" height="1024px" viewBox="0 0 768 1024" enable-background="new 0 0 768 1024" xml:space="preserve">
<rect x="244.395" y="622.657" opacity="0.698" fill="#797979" width="31.051" height="161.463"/>
<rect x="198.145" y="639.325" opacity="0.698" fill="#797979" width="30.889" height="144.795"/>
<rect x="151.729" y="662.694" opacity="0.698" fill="#797979" width="30.89" height="121.426"/>
<rect x="105.317" y="679.036" opacity="0.698" fill="#797979" width="30.889" height="105.084"/>
<path fill="#FFFFFF" d="M114.762,662.887c-0.068-0.773-0.583-1.302-1.384-1.302c-1.682,0-1.872,2.008-1.967,3.255l0.027,0.027
	c0.42-0.746,1.207-1.126,2.048-1.126c1.886,0,2.998,1.37,2.998,3.188c0,1.845-1.262,3.241-3.161,3.241
	c-2.794,0-3.459-2.197-3.459-4.964c0-2.266,0.896-4.911,3.581-4.911c1.506,0,2.781,1.045,2.862,2.591H114.762z M114.938,666.902
	c0-1.018-0.556-1.94-1.668-1.94c-1.126,0-1.709,0.896-1.709,1.94c0,1.031,0.583,1.98,1.709,1.98
	C114.382,668.883,114.938,667.92,114.938,666.902z"/>
<path fill="#FFFFFF" d="M120.024,664.42c1.031,0.041,2.103-0.326,2.103-1.492c0-0.801-0.624-1.343-1.479-1.343
	c-1.071,0-1.601,0.963-1.573,1.939h-1.547c0.082-1.845,1.234-3.229,3.147-3.229c1.479,0,2.998,0.854,2.998,2.537
	c0,0.949-0.435,1.709-1.344,2.034v0.027c1.072,0.217,1.724,1.153,1.724,2.374c0,1.79-1.547,2.902-3.364,2.902
	c-2.198,0-3.297-1.329-3.337-3.31h1.546c-0.041,1.153,0.583,2.021,1.791,2.021c1.03,0,1.817-0.61,1.817-1.695
	c0-1.479-1.262-1.669-2.482-1.614V664.42z"/>
<path fill="#FFFFFF" d="M126.129,660.486h4.91v1.383h-3.758l-0.488,2.415l0.027,0.027c0.421-0.462,1.112-0.719,1.75-0.719
	c1.886,0,2.971,1.356,2.971,3.174c0,1.52-0.949,3.404-3.283,3.404c-1.831,0-3.255-0.99-3.323-2.889h1.547
	c0.095,1.018,0.746,1.601,1.75,1.601c1.315,0,1.763-0.937,1.763-2.089c0-1.045-0.556-1.98-1.804-1.98
	c-0.651,0-1.289,0.203-1.533,0.868h-1.546L126.129,660.486z"/>
<path fill="#FFFFFF" d="M156.259,644.241h6.498v1.288c-1.98,2.238-3.297,4.775-3.541,8.207h-1.695
	c0.203-2.998,1.709-5.914,3.662-8.112h-4.924V644.241z"/>
<path fill="#FFFFFF" d="M166.405,648.175c1.031,0.041,2.103-0.326,2.103-1.492c0-0.801-0.624-1.343-1.479-1.343
	c-1.071,0-1.601,0.963-1.573,1.939h-1.547c0.082-1.845,1.234-3.229,3.147-3.229c1.479,0,2.998,0.854,2.998,2.537
	c0,0.949-0.435,1.709-1.344,2.034v0.027c1.072,0.217,1.724,1.153,1.724,2.374c0,1.79-1.547,2.902-3.364,2.902
	c-2.198,0-3.297-1.329-3.337-3.31h1.546c-0.041,1.153,0.583,2.021,1.791,2.021c1.03,0,1.817-0.61,1.817-1.695
	c0-1.479-1.262-1.669-2.482-1.614V648.175z"/>
<path fill="#FFFFFF" d="M173.934,648.175c1.031,0.041,2.103-0.326,2.103-1.492c0-0.801-0.624-1.343-1.479-1.343
	c-1.071,0-1.601,0.963-1.573,1.939h-1.547c0.082-1.845,1.234-3.229,3.147-3.229c1.479,0,2.998,0.854,2.998,2.537
	c0,0.949-0.435,1.709-1.344,2.034v0.027c1.072,0.217,1.724,1.153,1.724,2.374c0,1.79-1.547,2.902-3.364,2.902
	c-2.198,0-3.297-1.329-3.337-3.31h1.546c-0.041,1.153,0.583,2.021,1.791,2.021c1.03,0,1.817-0.61,1.817-1.695
	c0-1.479-1.262-1.669-2.482-1.614V648.175z"/>
<path fill="#FFFFFF" d="M202.62,627.57c0-1.194,0.678-2.049,1.736-2.32v-0.027c-0.855-0.325-1.344-1.03-1.344-1.953
	c0-1.614,1.072-2.591,2.958-2.591c1.885,0,2.957,0.977,2.957,2.591c0,0.923-0.488,1.628-1.343,1.953v0.027
	c1.058,0.271,1.736,1.126,1.736,2.32c0,1.858-1.425,2.983-3.351,2.983C204.044,630.554,202.62,629.429,202.62,627.57z
	 M207.774,627.57c0-1.045-0.773-1.669-1.804-1.669c-1.031,0-1.805,0.624-1.805,1.669c0,1.112,0.773,1.763,1.805,1.763
	C207.001,629.333,207.774,628.683,207.774,627.57z M204.479,623.352c0,0.895,0.637,1.396,1.492,1.396
	c0.854,0,1.492-0.502,1.492-1.396c0-0.937-0.665-1.452-1.492-1.452C205.143,621.899,204.479,622.415,204.479,623.352z"/>
<path fill="#FFFFFF" d="M210.202,620.869h6.498v1.288c-1.98,2.238-3.297,4.775-3.541,8.207h-1.695
	c0.203-2.998,1.709-5.914,3.662-8.112h-4.924V620.869z"/>
<path fill="#FFFFFF" d="M224.337,628.112h-1.221v2.252h-1.465v-2.252h-4.07v-1.532l4.07-5.711h1.465v6.022h1.221V628.112z
	 M218.775,626.892h2.876v-4.178h-0.027L218.775,626.892z"/>
<path fill="#FFFFFF" d="M250.76,611.24c0.068,0.773,0.584,1.303,1.384,1.303c1.683,0,1.872-2.008,1.967-3.256l-0.026-0.027
	c-0.407,0.732-1.181,1.14-2.049,1.14c-1.79,0-2.998-1.262-2.998-3.201c0-1.845,1.194-3.242,3.27-3.242
	c2.686,0,3.351,2.197,3.351,4.965c0,2.266-0.896,4.91-3.581,4.91c-1.506,0-2.781-1.044-2.862-2.591H250.76z M250.584,607.185
	c0,1.031,0.529,1.994,1.654,1.994c1.153,0,1.724-0.949,1.724-1.994c0-1.018-0.57-1.939-1.724-1.939
	C251.113,605.245,250.584,606.153,250.584,607.185z"/>
<path fill="#FFFFFF" d="M256.579,604.146h6.498v1.288c-1.98,2.238-3.297,4.775-3.541,8.207h-1.695
	c0.203-2.998,1.709-5.914,3.662-8.112h-4.924V604.146z"/>
<path fill="#FFFFFF" d="M265.302,604.146h4.91v1.383h-3.758l-0.488,2.415l0.027,0.027c0.421-0.462,1.112-0.719,1.75-0.719
	c1.886,0,2.971,1.356,2.971,3.174c0,1.52-0.949,3.404-3.283,3.404c-1.831,0-3.255-0.99-3.323-2.889h1.547
	c0.095,1.018,0.746,1.601,1.75,1.601c1.315,0,1.763-0.937,1.763-2.089c0-1.045-0.556-1.98-1.804-1.98
	c-0.651,0-1.289,0.203-1.533,0.868h-1.546L265.302,604.146z"/>
<path fill="#FFFFFF" d="M113.417,802.782h-5.857c0.013-1.409,0.735-2.475,1.888-3.247c1.114-0.809,2.561-1.482,2.585-2.818
	c0.012-0.612-0.245-1.52-1.446-1.52c-1.103,0-1.434,0.944-1.47,2.145h-1.397c0-1.899,1.042-3.308,2.953-3.308
	c2.096,0,2.757,1.531,2.757,2.634c0,1.36-0.931,2.206-1.911,2.892c-0.992,0.687-2.034,1.213-2.279,1.973h4.179V802.782z"/>
<path fill="#FFFFFF" d="M120.293,798.494c0,1.948-0.502,4.46-2.965,4.46s-2.965-2.512-2.965-4.46s0.502-4.46,2.965-4.46
	S120.293,796.546,120.293,798.494z M118.896,798.494c0-1.789-0.343-3.297-1.568-3.297s-1.568,1.508-1.568,3.297
	c0,1.788,0.343,3.296,1.568,3.296S118.896,800.282,118.896,798.494z"/>
<path fill="#FFFFFF" d="M121.275,795.627c1.176,0.012,2.291-0.393,2.5-1.422h1.139v8.577h-1.531v-6.053h-2.107V795.627z"/>
<path fill="#FFFFFF" d="M133.801,802.782h-5.857c0.013-1.409,0.735-2.475,1.888-3.247c1.114-0.809,2.561-1.482,2.585-2.818
	c0.012-0.612-0.245-1.52-1.446-1.52c-1.103,0-1.434,0.944-1.47,2.145h-1.397c0-1.899,1.042-3.308,2.953-3.308
	c2.096,0,2.757,1.531,2.757,2.634c0,1.36-0.931,2.206-1.911,2.892c-0.992,0.687-2.034,1.213-2.279,1.973h4.179V802.782z"/>
<path fill="#FFFFFF" d="M159.8,802.782h-5.857c0.013-1.409,0.735-2.475,1.888-3.247c1.114-0.809,2.561-1.482,2.585-2.818
	c0.012-0.612-0.245-1.52-1.446-1.52c-1.103,0-1.434,0.944-1.47,2.145h-1.397c0-1.899,1.042-3.308,2.953-3.308
	c2.096,0,2.757,1.531,2.757,2.634c0,1.36-0.931,2.206-1.911,2.892c-0.992,0.687-2.034,1.213-2.279,1.973h4.179V802.782z"/>
<path fill="#FFFFFF" d="M166.676,798.494c0,1.948-0.502,4.46-2.965,4.46s-2.965-2.512-2.965-4.46s0.502-4.46,2.965-4.46
	S166.676,796.546,166.676,798.494z M165.279,798.494c0-1.789-0.343-3.297-1.568-3.297s-1.568,1.508-1.568,3.297
	c0,1.788,0.343,3.296,1.568,3.296S165.279,800.282,165.279,798.494z"/>
<path fill="#FFFFFF" d="M167.658,795.627c1.176,0.012,2.291-0.393,2.5-1.422h1.139v8.577h-1.531v-6.053h-2.107V795.627z"/>
<path fill="#FFFFFF" d="M176.643,797.759c0.931,0.036,1.898-0.294,1.898-1.348c0-0.724-0.563-1.214-1.335-1.214
	c-0.968,0-1.446,0.87-1.422,1.753h-1.396c0.073-1.667,1.115-2.916,2.843-2.916c1.336,0,2.708,0.771,2.708,2.291
	c0,0.857-0.393,1.544-1.213,1.838v0.024c0.968,0.196,1.556,1.041,1.556,2.145c0,1.617-1.396,2.622-3.039,2.622
	c-1.984,0-2.977-1.201-3.014-2.99h1.396c-0.036,1.042,0.527,1.826,1.617,1.826c0.932,0,1.643-0.552,1.643-1.532
	c0-1.335-1.14-1.507-2.242-1.458V797.759z"/>
<path fill="#FFFFFF" d="M206.213,802.782h-5.857c0.013-1.409,0.735-2.475,1.888-3.247c1.114-0.809,2.561-1.482,2.585-2.818
	c0.012-0.612-0.245-1.52-1.446-1.52c-1.103,0-1.434,0.944-1.47,2.145h-1.397c0-1.899,1.042-3.308,2.953-3.308
	c2.096,0,2.757,1.531,2.757,2.634c0,1.36-0.931,2.206-1.911,2.892c-0.992,0.687-2.034,1.213-2.279,1.973h4.179V802.782z"/>
<path fill="#FFFFFF" d="M213.089,798.494c0,1.948-0.502,4.46-2.965,4.46s-2.965-2.512-2.965-4.46s0.502-4.46,2.965-4.46
	S213.089,796.546,213.089,798.494z M211.692,798.494c0-1.789-0.343-3.297-1.568-3.297s-1.568,1.508-1.568,3.297
	c0,1.788,0.343,3.296,1.568,3.296S211.692,800.282,211.692,798.494z"/>
<path fill="#FFFFFF" d="M214.071,795.627c1.176,0.012,2.291-0.393,2.5-1.422h1.139v8.577h-1.531v-6.053h-2.107V795.627z"/>
<path fill="#FFFFFF" d="M226.657,800.748h-1.103v2.034h-1.323v-2.034h-3.676v-1.385l3.676-5.158h1.323v5.44h1.103V800.748z
	 M221.634,799.646h2.598v-3.773h-0.024L221.634,799.646z"/>
<path fill="#FFFFFF" d="M252.596,802.782h-5.857c0.013-1.409,0.735-2.475,1.888-3.247c1.114-0.809,2.561-1.482,2.585-2.818
	c0.012-0.612-0.245-1.52-1.446-1.52c-1.103,0-1.434,0.944-1.47,2.145h-1.397c0-1.899,1.042-3.308,2.953-3.308
	c2.096,0,2.757,1.531,2.757,2.634c0,1.36-0.931,2.206-1.911,2.892c-0.992,0.687-2.034,1.213-2.279,1.973h4.179V802.782z"/>
<path fill="#FFFFFF" d="M259.472,798.494c0,1.948-0.502,4.46-2.965,4.46s-2.965-2.512-2.965-4.46s0.502-4.46,2.965-4.46
	S259.472,796.546,259.472,798.494z M258.075,798.494c0-1.789-0.343-3.297-1.568-3.297s-1.568,1.508-1.568,3.297
	c0,1.788,0.343,3.296,1.568,3.296S258.075,800.282,258.075,798.494z"/>
<path fill="#FFFFFF" d="M260.454,795.627c1.176,0.012,2.291-0.393,2.5-1.422h1.139v8.577h-1.531v-6.053h-2.107V795.627z"/>
<path fill="#FFFFFF" d="M268.151,794.205h4.436v1.25h-3.394l-0.441,2.181l0.024,0.024c0.38-0.416,1.005-0.649,1.581-0.649
	c1.703,0,2.683,1.226,2.683,2.867c0,1.373-0.857,3.076-2.965,3.076c-1.654,0-2.94-0.895-3.002-2.61h1.396
	c0.086,0.919,0.675,1.446,1.581,1.446c1.188,0,1.593-0.846,1.593-1.888c0-0.943-0.502-1.788-1.63-1.788
	c-0.588,0-1.164,0.184-1.384,0.784h-1.397L268.151,794.205z"/>
<path fill="#FFFFFF" d="M299.01,802.782h-5.857c0.013-1.409,0.735-2.475,1.888-3.247c1.114-0.809,2.561-1.482,2.585-2.818
	c0.012-0.612-0.245-1.52-1.446-1.52c-1.103,0-1.434,0.944-1.47,2.145h-1.397c0-1.899,1.042-3.308,2.953-3.308
	c2.096,0,2.757,1.531,2.757,2.634c0,1.36-0.931,2.206-1.911,2.892c-0.992,0.687-2.034,1.213-2.279,1.973h4.179V802.782z"/>
<path fill="#FFFFFF" d="M305.886,798.494c0,1.948-0.502,4.46-2.965,4.46s-2.965-2.512-2.965-4.46s0.502-4.46,2.965-4.46
	S305.886,796.546,305.886,798.494z M304.489,798.494c0-1.789-0.343-3.297-1.568-3.297s-1.568,1.508-1.568,3.297
	c0,1.788,0.343,3.296,1.568,3.296S304.489,800.282,304.489,798.494z"/>
<path fill="#FFFFFF" d="M306.868,795.627c1.176,0.012,2.291-0.393,2.5-1.422h1.139v8.577h-1.531v-6.053h-2.107V795.627z"/>
<path fill="#FFFFFF" d="M317.898,796.374c-0.062-0.698-0.526-1.177-1.25-1.177c-1.52,0-1.69,1.813-1.776,2.941l0.024,0.024
	c0.38-0.674,1.091-1.018,1.851-1.018c1.703,0,2.707,1.238,2.707,2.88c0,1.666-1.139,2.929-2.854,2.929
	c-2.524,0-3.124-1.985-3.124-4.485c0-2.046,0.809-4.435,3.234-4.435c1.36,0,2.512,0.943,2.585,2.34H317.898z M318.058,800.001
	c0-0.919-0.502-1.752-1.507-1.752c-1.018,0-1.544,0.809-1.544,1.752c0,0.931,0.526,1.789,1.544,1.789
	C317.556,801.79,318.058,800.92,318.058,800.001z"/>
<line fill="none" stroke="#F2F2F2" stroke-miterlimit="10" x1="105.317" y1="814.071" x2="321.696" y2="814.071"/>
<rect x="573.599" y="617.678" opacity="0.698" fill="#797979" width="31.868" height="166.439"/>
<rect x="528.819" y="667.688" opacity="0.698" fill="#797979" width="31.868" height="116.43"/>
<rect x="483.877" y="712.139" opacity="0.698" fill="#797979" width="31.868" height="71.979"/>
<rect x="439.097" y="737.473" opacity="0.698" fill="#797979" width="31.705" height="46.645"/>
<path fill="#FFFFFF" d="M447.721,802.762h-5.857c0.013-1.409,0.735-2.475,1.888-3.247c1.114-0.809,2.561-1.482,2.585-2.818
	c0.012-0.612-0.245-1.52-1.446-1.52c-1.103,0-1.434,0.944-1.47,2.145h-1.397c0-1.899,1.042-3.308,2.953-3.308
	c2.096,0,2.757,1.531,2.757,2.634c0,1.36-0.931,2.206-1.911,2.892c-0.992,0.687-2.034,1.213-2.279,1.973h4.179V802.762z"/>
<path fill="#FFFFFF" d="M454.597,798.474c0,1.948-0.502,4.46-2.965,4.46s-2.965-2.512-2.965-4.46s0.502-4.46,2.965-4.46
	S454.597,796.525,454.597,798.474z M453.2,798.474c0-1.789-0.343-3.297-1.568-3.297s-1.568,1.508-1.568,3.297
	c0,1.788,0.343,3.296,1.568,3.296S453.2,800.262,453.2,798.474z"/>
<path fill="#FFFFFF" d="M455.579,795.606c1.176,0.012,2.291-0.393,2.5-1.422h1.139v8.577h-1.531v-6.053h-2.107V795.606z"/>
<path fill="#FFFFFF" d="M468.104,802.762h-5.857c0.013-1.409,0.735-2.475,1.888-3.247c1.114-0.809,2.561-1.482,2.585-2.818
	c0.012-0.612-0.245-1.52-1.446-1.52c-1.103,0-1.434,0.944-1.47,2.145h-1.397c0-1.899,1.042-3.308,2.953-3.308
	c2.096,0,2.757,1.531,2.757,2.634c0,1.36-0.931,2.206-1.911,2.892c-0.992,0.687-2.034,1.213-2.279,1.973h4.179V802.762z"/>
<path fill="#FFFFFF" d="M492.637,802.762h-5.857c0.013-1.409,0.735-2.475,1.888-3.247c1.114-0.809,2.561-1.482,2.585-2.818
	c0.012-0.612-0.245-1.52-1.446-1.52c-1.103,0-1.434,0.944-1.47,2.145h-1.397c0-1.899,1.042-3.308,2.953-3.308
	c2.096,0,2.757,1.531,2.757,2.634c0,1.36-0.931,2.206-1.911,2.892c-0.992,0.687-2.034,1.213-2.279,1.973h4.179V802.762z"/>
<path fill="#FFFFFF" d="M499.513,798.474c0,1.948-0.502,4.46-2.965,4.46s-2.965-2.512-2.965-4.46s0.502-4.46,2.965-4.46
	S499.513,796.525,499.513,798.474z M498.116,798.474c0-1.789-0.343-3.297-1.568-3.297s-1.568,1.508-1.568,3.297
	c0,1.788,0.343,3.296,1.568,3.296S498.116,800.262,498.116,798.474z"/>
<path fill="#FFFFFF" d="M500.495,795.606c1.176,0.012,2.291-0.393,2.5-1.422h1.139v8.577h-1.531v-6.053h-2.107V795.606z"/>
<path fill="#FFFFFF" d="M509.479,797.738c0.931,0.036,1.898-0.294,1.898-1.348c0-0.724-0.563-1.214-1.335-1.214
	c-0.968,0-1.446,0.87-1.422,1.753h-1.396c0.073-1.667,1.115-2.916,2.843-2.916c1.336,0,2.708,0.771,2.708,2.291
	c0,0.857-0.393,1.544-1.213,1.838v0.024c0.968,0.196,1.556,1.041,1.556,2.145c0,1.617-1.396,2.622-3.039,2.622
	c-1.984,0-2.977-1.201-3.014-2.99h1.396c-0.036,1.042,0.527,1.826,1.617,1.826c0.932,0,1.643-0.552,1.643-1.532
	c0-1.335-1.14-1.507-2.242-1.458V797.738z"/>
<path fill="#FFFFFF" d="M537.511,802.762h-5.857c0.013-1.409,0.735-2.475,1.888-3.247c1.114-0.809,2.561-1.482,2.585-2.818
	c0.012-0.612-0.245-1.52-1.446-1.52c-1.103,0-1.434,0.944-1.47,2.145h-1.397c0-1.899,1.042-3.308,2.953-3.308
	c2.096,0,2.757,1.531,2.757,2.634c0,1.36-0.931,2.206-1.911,2.892c-0.992,0.687-2.034,1.213-2.279,1.973h4.179V802.762z"/>
<path fill="#FFFFFF" d="M544.387,798.474c0,1.948-0.502,4.46-2.965,4.46s-2.965-2.512-2.965-4.46s0.502-4.46,2.965-4.46
	S544.387,796.525,544.387,798.474z M542.99,798.474c0-1.789-0.343-3.297-1.568-3.297s-1.568,1.508-1.568,3.297
	c0,1.788,0.343,3.296,1.568,3.296S542.99,800.262,542.99,798.474z"/>
<path fill="#FFFFFF" d="M545.369,795.606c1.176,0.012,2.291-0.393,2.5-1.422h1.139v8.577h-1.531v-6.053h-2.107V795.606z"/>
<path fill="#FFFFFF" d="M557.955,800.728h-1.103v2.034h-1.323v-2.034h-3.676v-1.385l3.676-5.158h1.323v5.44h1.103V800.728z
	 M552.932,799.625h2.598v-3.773h-0.024L552.932,799.625z"/>
<path fill="#FFFFFF" d="M582.426,802.762h-5.857c0.013-1.409,0.735-2.475,1.888-3.247c1.114-0.809,2.561-1.482,2.585-2.818
	c0.012-0.612-0.245-1.52-1.446-1.52c-1.103,0-1.434,0.944-1.47,2.145h-1.397c0-1.899,1.042-3.308,2.953-3.308
	c2.096,0,2.757,1.531,2.757,2.634c0,1.36-0.931,2.206-1.911,2.892c-0.992,0.687-2.034,1.213-2.279,1.973h4.179V802.762z"/>
<path fill="#FFFFFF" d="M589.302,798.474c0,1.948-0.502,4.46-2.965,4.46s-2.965-2.512-2.965-4.46s0.502-4.46,2.965-4.46
	S589.302,796.525,589.302,798.474z M587.905,798.474c0-1.789-0.343-3.297-1.568-3.297s-1.568,1.508-1.568,3.297
	c0,1.788,0.343,3.296,1.568,3.296S587.905,800.262,587.905,798.474z"/>
<path fill="#FFFFFF" d="M590.284,795.606c1.176,0.012,2.291-0.393,2.5-1.422h1.139v8.577h-1.531v-6.053h-2.107V795.606z"/>
<path fill="#FFFFFF" d="M597.981,794.185h4.436v1.25h-3.394l-0.441,2.181l0.024,0.024c0.38-0.416,1.005-0.649,1.581-0.649
	c1.703,0,2.683,1.226,2.683,2.867c0,1.373-0.857,3.076-2.965,3.076c-1.654,0-2.94-0.895-3.002-2.61h1.396
	c0.086,0.919,0.675,1.446,1.581,1.446c1.188,0,1.593-0.846,1.593-1.888c0-0.943-0.502-1.788-1.63-1.788
	c-0.588,0-1.164,0.184-1.384,0.784h-1.397L597.981,794.185z"/>
<path fill="#FFFFFF" d="M627.301,802.762h-5.857c0.013-1.409,0.735-2.475,1.888-3.247c1.114-0.809,2.561-1.482,2.585-2.818
	c0.012-0.612-0.245-1.52-1.446-1.52c-1.103,0-1.434,0.944-1.47,2.145h-1.397c0-1.899,1.042-3.308,2.953-3.308
	c2.096,0,2.757,1.531,2.757,2.634c0,1.36-0.931,2.206-1.911,2.892c-0.992,0.687-2.034,1.213-2.279,1.973h4.179V802.762z"/>
<path fill="#FFFFFF" d="M634.177,798.474c0,1.948-0.502,4.46-2.965,4.46s-2.965-2.512-2.965-4.46s0.502-4.46,2.965-4.46
	S634.177,796.525,634.177,798.474z M632.78,798.474c0-1.789-0.343-3.297-1.568-3.297s-1.568,1.508-1.568,3.297
	c0,1.788,0.343,3.296,1.568,3.296S632.78,800.262,632.78,798.474z"/>
<path fill="#FFFFFF" d="M635.159,795.606c1.176,0.012,2.291-0.393,2.5-1.422h1.139v8.577h-1.531v-6.053h-2.107V795.606z"/>
<path fill="#FFFFFF" d="M646.189,796.354c-0.062-0.698-0.526-1.177-1.25-1.177c-1.52,0-1.69,1.813-1.776,2.941l0.024,0.024
	c0.38-0.674,1.091-1.018,1.851-1.018c1.703,0,2.707,1.238,2.707,2.88c0,1.666-1.139,2.929-2.854,2.929
	c-2.524,0-3.124-1.985-3.124-4.485c0-2.046,0.809-4.435,3.234-4.435c1.36,0,2.512,0.943,2.585,2.34H646.189z M646.349,799.98
	c0-0.919-0.502-1.752-1.507-1.752c-1.018,0-1.544,0.809-1.544,1.752c0,0.931,0.526,1.789,1.544,1.789
	C645.847,801.77,646.349,800.899,646.349,799.98z"/>
<line fill="none" stroke="#F2F2F2" stroke-miterlimit="10" x1="439.097" y1="814.051" x2="650.386" y2="814.051"/>
<path fill="#FFFFFF" d="M448.093,718.552h4.91v1.383h-3.758l-0.488,2.415l0.027,0.027c0.421-0.462,1.112-0.719,1.75-0.719
	c1.886,0,2.971,1.356,2.971,3.174c0,1.52-0.949,3.404-3.283,3.404c-1.831,0-3.255-0.99-3.323-2.889h1.547
	c0.095,1.018,0.746,1.601,1.75,1.601c1.315,0,1.763-0.937,1.763-2.089c0-1.045-0.556-1.98-1.804-1.98
	c-0.651,0-1.289,0.203-1.533,0.868h-1.546L448.093,718.552z"/>
<path fill="#FFFFFF" d="M456.136,725.646c0.068,0.773,0.584,1.303,1.384,1.303c1.683,0,1.872-2.008,1.967-3.256l-0.026-0.027
	c-0.407,0.732-1.181,1.14-2.049,1.14c-1.79,0-2.998-1.262-2.998-3.201c0-1.845,1.194-3.242,3.27-3.242
	c2.686,0,3.351,2.197,3.351,4.965c0,2.266-0.896,4.91-3.581,4.91c-1.506,0-2.781-1.044-2.862-2.591H456.136z M455.96,721.59
	c0,1.031,0.529,1.994,1.654,1.994c1.153,0,1.724-0.949,1.724-1.994c0-1.018-0.57-1.939-1.724-1.939
	C456.489,719.65,455.96,720.559,455.96,721.59z"/>
<path fill="#FFFFFF" d="M493.946,700.874c0.068,0.773,0.584,1.303,1.384,1.303c1.683,0,1.872-2.008,1.967-3.256l-0.026-0.027
	c-0.407,0.732-1.181,1.14-2.049,1.14c-1.79,0-2.998-1.262-2.998-3.201c0-1.845,1.194-3.242,3.27-3.242
	c2.686,0,3.351,2.197,3.351,4.965c0,2.266-0.896,4.91-3.581,4.91c-1.506,0-2.781-1.044-2.862-2.591H493.946z M493.771,696.818
	c0,1.031,0.529,1.994,1.654,1.994c1.153,0,1.724-0.949,1.724-1.994c0-1.018-0.57-1.939-1.724-1.939
	C494.3,694.879,493.771,695.787,493.771,696.818z"/>
<path fill="#FFFFFF" d="M500.01,695.354c1.303,0.014,2.537-0.435,2.768-1.573h1.262v9.495h-1.696v-6.701h-2.333V695.354z"/>
<path fill="#FFFFFF" d="M532.412,650.506c1.303,0.014,2.537-0.435,2.768-1.573h1.262v9.495h-1.696v-6.701h-2.333V650.506z"/>
<path fill="#FFFFFF" d="M546.303,656.176h-1.221v2.252h-1.465v-2.252h-4.07v-1.532l4.07-5.711h1.465v6.022h1.221V656.176z
	 M540.741,654.955h2.876v-4.178h-0.027L540.741,654.955z"/>
<path fill="#FFFFFF" d="M552.108,651.333c-0.068-0.773-0.584-1.302-1.384-1.302c-1.682,0-1.872,2.008-1.967,3.255l0.027,0.027
	c0.42-0.746,1.207-1.126,2.048-1.126c1.886,0,2.998,1.37,2.998,3.188c0,1.845-1.262,3.241-3.161,3.241
	c-2.794,0-3.459-2.197-3.459-4.964c0-2.266,0.896-4.911,3.581-4.911c1.506,0,2.781,1.045,2.862,2.591H552.108z M552.284,655.349
	c0-1.018-0.556-1.94-1.668-1.94c-1.126,0-1.709,0.896-1.709,1.94c0,1.031,0.583,1.98,1.709,1.98
	C551.729,657.329,552.284,656.366,552.284,655.349z"/>
<path fill="#FFFFFF" d="M584.671,609.003h-6.483c0.014-1.56,0.813-2.74,2.089-3.595c1.234-0.896,2.835-1.642,2.862-3.12
	c0.014-0.678-0.271-1.682-1.601-1.682c-1.221,0-1.587,1.044-1.628,2.374h-1.547c0-2.103,1.153-3.663,3.27-3.663
	c2.319,0,3.052,1.695,3.052,2.917c0,1.505-1.03,2.441-2.116,3.201c-1.099,0.76-2.251,1.343-2.522,2.184h4.625V609.003z"/>
<path fill="#FFFFFF" d="M592.24,604.255c0,2.157-0.556,4.938-3.282,4.938s-3.283-2.78-3.283-4.938c0-2.156,0.557-4.938,3.283-4.938
	S592.24,602.099,592.24,604.255z M590.694,604.255c0-1.98-0.38-3.648-1.736-3.648s-1.736,1.668-1.736,3.648s0.38,3.649,1.736,3.649
	S590.694,606.235,590.694,604.255z"/>
<path fill="#FFFFFF" d="M594.898,606.602c0.068,0.773,0.584,1.303,1.384,1.303c1.683,0,1.872-2.008,1.967-3.256l-0.026-0.027
	c-0.407,0.732-1.181,1.14-2.049,1.14c-1.79,0-2.998-1.262-2.998-3.201c0-1.845,1.194-3.242,3.27-3.242
	c2.686,0,3.351,2.197,3.351,4.965c0,2.266-0.896,4.91-3.581,4.91c-1.506,0-2.781-1.044-2.862-2.591H594.898z M594.723,602.546
	c0,1.031,0.529,1.994,1.654,1.994c1.153,0,1.724-0.949,1.724-1.994c0-1.018-0.57-1.939-1.724-1.939
	C595.252,600.606,594.723,601.515,594.723,602.546z"/>
<path fill="#FFFFFF" d="M105.322,309.304c1.303,0.014,2.537-0.434,2.768-1.574h1.262v9.496h-1.696v-6.701h-2.333V309.304z"/>
<path fill="#FFFFFF" d="M112.85,309.304c1.303,0.014,2.537-0.434,2.768-1.574h1.262v9.496h-1.696v-6.701h-2.333V309.304z"/>
<path fill="#FFFFFF" d="M120.595,315.395h1.886v1.831c-0.014,1.112-0.76,1.926-1.831,2.143v-0.827
	c0.597-0.149,0.896-0.732,0.882-1.316h-0.937V315.395z"/>
<path fill="#FFFFFF" d="M128.776,310.131c-0.068-0.773-0.584-1.302-1.384-1.302c-1.682,0-1.872,2.008-1.967,3.256l0.027,0.027
	c0.42-0.746,1.207-1.125,2.048-1.125c1.886,0,2.998,1.37,2.998,3.188c0,1.845-1.262,3.242-3.161,3.242
	c-2.794,0-3.459-2.198-3.459-4.965c0-2.265,0.896-4.911,3.581-4.911c1.506,0,2.781,1.044,2.862,2.591H128.776z M128.952,314.147
	c0-1.018-0.556-1.94-1.668-1.94c-1.126,0-1.709,0.896-1.709,1.94c0,1.031,0.583,1.98,1.709,1.98
	C128.396,316.127,128.952,315.164,128.952,314.147z"/>
<path fill="#FFFFFF" d="M131.367,314.432c0-1.194,0.678-2.048,1.736-2.32v-0.027c-0.854-0.326-1.344-1.031-1.344-1.954
	c0-1.614,1.072-2.591,2.958-2.591c1.885,0,2.957,0.977,2.957,2.591c0,0.923-0.488,1.628-1.343,1.954v0.027
	c1.058,0.271,1.736,1.126,1.736,2.32c0,1.858-1.425,2.984-3.351,2.984C132.791,317.416,131.367,316.29,131.367,314.432z
	 M136.521,314.432c0-1.044-0.773-1.668-1.804-1.668c-1.031,0-1.805,0.624-1.805,1.668c0,1.112,0.773,1.764,1.805,1.764
	C135.748,316.195,136.521,315.544,136.521,314.432z M133.225,310.213c0,0.896,0.637,1.397,1.492,1.397
	c0.854,0,1.492-0.502,1.492-1.397c0-0.936-0.665-1.451-1.492-1.451C133.889,308.762,133.225,309.277,133.225,310.213z"/>
<path fill="#FFFFFF" d="M139.192,309.304c1.303,0.014,2.537-0.434,2.768-1.574h1.262v9.496h-1.696v-6.701h-2.333V309.304z"/>
<path fill="#FFFFFF" d="M150.427,285.28c1.303,0.014,2.537-0.434,2.768-1.574h1.262v9.496h-1.696v-6.701h-2.333V285.28z"/>
<path fill="#FFFFFF" d="M164.318,290.95h-1.221v2.252h-1.465v-2.252h-4.07v-1.533l4.07-5.711h1.465v6.023h1.221V290.95z
	 M158.756,289.729h2.876v-4.178h-0.027L158.756,289.729z"/>
<path fill="#FFFFFF" d="M165.701,291.371h1.886v1.831c-0.014,1.112-0.76,1.926-1.831,2.143v-0.827
	c0.597-0.149,0.896-0.732,0.882-1.316h-0.937V291.371z"/>
<path fill="#FFFFFF" d="M173.881,286.107c-0.068-0.773-0.584-1.302-1.384-1.302c-1.682,0-1.872,2.008-1.967,3.256l0.027,0.027
	c0.42-0.746,1.207-1.125,2.048-1.125c1.886,0,2.998,1.37,2.998,3.188c0,1.845-1.262,3.242-3.161,3.242
	c-2.794,0-3.459-2.198-3.459-4.965c0-2.265,0.896-4.911,3.581-4.911c1.506,0,2.781,1.044,2.862,2.591H173.881z M174.057,290.123
	c0-1.018-0.556-1.94-1.668-1.94c-1.126,0-1.709,0.895-1.709,1.94c0,1.031,0.583,1.98,1.709,1.98
	C173.501,292.104,174.057,291.14,174.057,290.123z"/>
<path fill="#FFFFFF" d="M178.235,290.801c0.068,0.773,0.584,1.302,1.384,1.302c1.683,0,1.872-2.008,1.967-3.256l-0.026-0.027
	c-0.407,0.732-1.181,1.139-2.049,1.139c-1.79,0-2.998-1.261-2.998-3.201c0-1.845,1.194-3.242,3.27-3.242
	c2.686,0,3.351,2.198,3.351,4.965c0,2.266-0.896,4.911-3.581,4.911c-1.506,0-2.781-1.044-2.862-2.591H178.235z M178.059,286.745
	c0,1.031,0.529,1.994,1.654,1.994c1.153,0,1.724-0.95,1.724-1.994c0-1.017-0.57-1.94-1.724-1.94
	C178.588,284.805,178.059,285.714,178.059,286.745z"/>
<path fill="#FFFFFF" d="M184,290.408c0-1.194,0.678-2.048,1.736-2.32v-0.027c-0.854-0.326-1.344-1.031-1.344-1.954
	c0-1.614,1.072-2.591,2.958-2.591c1.885,0,2.957,0.977,2.957,2.591c0,0.923-0.488,1.628-1.343,1.954v0.027
	c1.058,0.271,1.736,1.126,1.736,2.32c0,1.858-1.425,2.984-3.351,2.984C185.423,293.392,184,292.266,184,290.408z M189.154,290.408
	c0-1.044-0.773-1.668-1.804-1.668c-1.031,0-1.805,0.624-1.805,1.668c0,1.112,0.773,1.764,1.805,1.764
	C188.38,292.171,189.154,291.52,189.154,290.408z M185.858,286.189c0,0.896,0.637,1.397,1.492,1.397
	c0.854,0,1.492-0.502,1.492-1.397c0-0.936-0.665-1.452-1.492-1.452C186.522,284.737,185.858,285.253,185.858,286.189z"/>
<path fill="#FFFFFF" d="M195.533,271.089c1.303,0.014,2.537-0.434,2.768-1.574h1.262v9.496h-1.696v-6.701h-2.333V271.089z"/>
<path fill="#FFFFFF" d="M207.701,271.916c-0.068-0.773-0.583-1.302-1.384-1.302c-1.682,0-1.872,2.008-1.967,3.256l0.027,0.027
	c0.42-0.746,1.207-1.125,2.048-1.125c1.886,0,2.998,1.37,2.998,3.188c0,1.845-1.262,3.242-3.161,3.242
	c-2.794,0-3.459-2.198-3.459-4.965c0-2.265,0.896-4.911,3.581-4.911c1.506,0,2.781,1.044,2.862,2.591H207.701z M207.876,275.932
	c0-1.018-0.556-1.94-1.668-1.94c-1.126,0-1.709,0.895-1.709,1.94c0,1.031,0.583,1.98,1.709,1.98
	C207.321,277.912,207.876,276.949,207.876,275.932z"/>
<path fill="#FFFFFF" d="M210.806,277.18h1.886v1.831c-0.014,1.112-0.76,1.926-1.831,2.143v-0.827
	c0.597-0.149,0.896-0.732,0.882-1.316h-0.937V277.18z"/>
<path fill="#FFFFFF" d="M220.709,276.759h-1.221v2.252h-1.465v-2.252h-4.07v-1.533l4.07-5.711h1.465v6.023h1.221V276.759z
	 M215.148,275.538h2.876v-4.178h-0.027L215.148,275.538z"/>
<path fill="#FFFFFF" d="M221.578,276.216c0-1.194,0.678-2.048,1.736-2.32v-0.027c-0.854-0.326-1.344-1.031-1.344-1.954
	c0-1.614,1.072-2.591,2.958-2.591c1.885,0,2.957,0.977,2.957,2.591c0,0.923-0.488,1.628-1.343,1.954v0.027
	c1.058,0.271,1.736,1.126,1.736,2.32c0,1.858-1.425,2.984-3.351,2.984C223.001,279.201,221.578,278.075,221.578,276.216z
	 M226.732,276.216c0-1.044-0.773-1.668-1.804-1.668c-1.031,0-1.805,0.624-1.805,1.668c0,1.112,0.773,1.764,1.805,1.764
	C225.958,277.98,226.732,277.329,226.732,276.216z M223.436,271.998c0,0.896,0.637,1.397,1.492,1.397
	c0.854,0,1.492-0.502,1.492-1.397c0-0.936-0.665-1.452-1.492-1.452C224.1,270.546,223.436,271.062,223.436,271.998z"/>
<path fill="#FFFFFF" d="M229.403,271.089c1.303,0.014,2.537-0.434,2.768-1.574h1.262v9.496h-1.696v-6.701h-2.333V271.089z"/>
<path fill="#FFFFFF" d="M240.604,256.122c1.303,0.014,2.537-0.434,2.768-1.574h1.262v9.496h-1.696v-6.701h-2.333V256.122z"/>
<path fill="#FFFFFF" d="M247.834,261.249c0-1.194,0.678-2.048,1.736-2.32v-0.027c-0.855-0.326-1.344-1.031-1.344-1.954
	c0-1.614,1.072-2.591,2.958-2.591c1.885,0,2.957,0.977,2.957,2.591c0,0.923-0.488,1.628-1.343,1.954v0.027
	c1.058,0.271,1.736,1.126,1.736,2.32c0,1.858-1.425,2.984-3.351,2.984C249.258,264.233,247.834,263.107,247.834,261.249z
	 M252.989,261.249c0-1.044-0.773-1.668-1.804-1.668c-1.031,0-1.805,0.624-1.805,1.668c0,1.112,0.773,1.764,1.805,1.764
	C252.215,263.013,252.989,262.361,252.989,261.249z M249.693,257.03c0,0.896,0.637,1.397,1.492,1.397
	c0.854,0,1.492-0.502,1.492-1.397c0-0.936-0.665-1.451-1.492-1.451C250.357,255.579,249.693,256.094,249.693,257.03z"/>
<path fill="#FFFFFF" d="M255.877,262.212h1.886v1.831c-0.014,1.112-0.76,1.926-1.831,2.143v-0.827
	c0.597-0.149,0.896-0.732,0.882-1.316h-0.937V262.212z"/>
<path fill="#FFFFFF" d="M261.792,258.482c1.031,0.041,2.103-0.326,2.103-1.492c0-0.8-0.624-1.343-1.479-1.343
	c-1.071,0-1.601,0.963-1.573,1.94h-1.547c0.082-1.845,1.234-3.229,3.147-3.229c1.479,0,2.998,0.854,2.998,2.537
	c0,0.95-0.435,1.709-1.344,2.035v0.027c1.072,0.217,1.724,1.153,1.724,2.374c0,1.791-1.547,2.903-3.364,2.903
	c-2.198,0-3.297-1.33-3.337-3.31h1.546c-0.041,1.153,0.583,2.021,1.791,2.021c1.03,0,1.817-0.61,1.817-1.696
	c0-1.479-1.262-1.668-2.482-1.614V258.482z"/>
<path fill="#FFFFFF" d="M271.586,256.949c-0.068-0.773-0.584-1.302-1.384-1.302c-1.682,0-1.872,2.008-1.967,3.256l0.027,0.027
	c0.42-0.746,1.207-1.125,2.048-1.125c1.886,0,2.998,1.37,2.998,3.188c0,1.845-1.262,3.242-3.161,3.242
	c-2.794,0-3.459-2.198-3.459-4.965c0-2.265,0.896-4.911,3.581-4.911c1.506,0,2.781,1.044,2.862,2.591H271.586z M271.762,260.964
	c0-1.018-0.556-1.94-1.668-1.94c-1.126,0-1.709,0.896-1.709,1.94c0,1.031,0.583,1.98,1.709,1.98
	C271.207,262.945,271.762,261.981,271.762,260.964z"/>
<path fill="#FFFFFF" d="M279.114,256.949c-0.068-0.773-0.584-1.302-1.384-1.302c-1.682,0-1.872,2.008-1.967,3.256l0.027,0.027
	c0.42-0.746,1.207-1.125,2.048-1.125c1.886,0,2.998,1.37,2.998,3.188c0,1.845-1.262,3.242-3.161,3.242
	c-2.794,0-3.459-2.198-3.459-4.965c0-2.265,0.896-4.911,3.581-4.911c1.506,0,2.781,1.044,2.862,2.591H279.114z M279.29,260.964
	c0-1.018-0.556-1.94-1.668-1.94c-1.126,0-1.709,0.896-1.709,1.94c0,1.031,0.583,1.98,1.709,1.98
	C278.734,262.945,279.29,261.981,279.29,260.964z"/>
<path fill="#FFFFFF" d="M118.583,437.672h-5.857c0.013-1.409,0.735-2.475,1.888-3.247c1.114-0.809,2.561-1.482,2.585-2.818
	c0.012-0.613-0.245-1.52-1.446-1.52c-1.103,0-1.434,0.943-1.47,2.144h-1.397c0-1.899,1.042-3.308,2.953-3.308
	c2.096,0,2.757,1.532,2.757,2.634c0,1.36-0.931,2.206-1.911,2.892c-0.992,0.687-2.034,1.213-2.279,1.973h4.179V437.672z"/>
<path fill="#FFFFFF" d="M125.459,433.383c0,1.948-0.502,4.46-2.965,4.46s-2.965-2.512-2.965-4.46s0.502-4.46,2.965-4.46
	S125.459,431.435,125.459,433.383z M124.063,433.383c0-1.789-0.343-3.296-1.568-3.296s-1.568,1.507-1.568,3.296
	c0,1.789,0.343,3.296,1.568,3.296S124.063,435.172,124.063,433.383z"/>
<path fill="#FFFFFF" d="M126.442,430.516c1.176,0.012,2.291-0.392,2.5-1.421h1.139v8.577h-1.531v-6.053h-2.107V430.516z"/>
<path fill="#FFFFFF" d="M138.967,437.672h-5.857c0.013-1.409,0.735-2.475,1.888-3.247c1.114-0.809,2.561-1.482,2.585-2.818
	c0.012-0.613-0.245-1.52-1.446-1.52c-1.103,0-1.434,0.943-1.47,2.144h-1.397c0-1.899,1.042-3.308,2.953-3.308
	c2.096,0,2.757,1.532,2.757,2.634c0,1.36-0.931,2.206-1.911,2.892c-0.992,0.687-2.034,1.213-2.279,1.973h4.179V437.672z"/>
<path fill="#FFFFFF" d="M163.658,437.672H157.8c0.013-1.409,0.735-2.475,1.888-3.247c1.114-0.809,2.561-1.482,2.585-2.818
	c0.012-0.613-0.245-1.52-1.446-1.52c-1.103,0-1.434,0.943-1.47,2.144h-1.397c0-1.899,1.042-3.308,2.953-3.308
	c2.096,0,2.757,1.532,2.757,2.634c0,1.36-0.931,2.206-1.911,2.892c-0.992,0.687-2.034,1.213-2.279,1.973h4.179V437.672z"/>
<path fill="#FFFFFF" d="M170.534,433.383c0,1.948-0.502,4.46-2.965,4.46s-2.965-2.512-2.965-4.46s0.502-4.46,2.965-4.46
	S170.534,431.435,170.534,433.383z M169.137,433.383c0-1.789-0.343-3.296-1.568-3.296S166,431.595,166,433.383
	c0,1.789,0.343,3.296,1.568,3.296S169.137,435.172,169.137,433.383z"/>
<path fill="#FFFFFF" d="M171.516,430.516c1.176,0.012,2.291-0.392,2.5-1.421h1.139v8.577h-1.531v-6.053h-2.107V430.516z"/>
<path fill="#FFFFFF" d="M180.5,432.648c0.931,0.037,1.898-0.294,1.898-1.348c0-0.723-0.563-1.213-1.335-1.213
	c-0.968,0-1.446,0.87-1.422,1.752h-1.396c0.073-1.666,1.115-2.916,2.843-2.916c1.336,0,2.708,0.772,2.708,2.292
	c0,0.857-0.393,1.543-1.213,1.838v0.024c0.968,0.196,1.556,1.042,1.556,2.144c0,1.618-1.396,2.622-3.039,2.622
	c-1.984,0-2.977-1.201-3.014-2.99h1.396c-0.036,1.042,0.527,1.826,1.617,1.826c0.932,0,1.643-0.551,1.643-1.531
	c0-1.336-1.14-1.507-2.242-1.458V432.648z"/>
<path fill="#FFFFFF" d="M208.764,437.672h-5.857c0.013-1.409,0.735-2.475,1.888-3.247c1.114-0.809,2.561-1.482,2.585-2.818
	c0.012-0.613-0.245-1.52-1.446-1.52c-1.103,0-1.434,0.943-1.47,2.144h-1.397c0-1.899,1.042-3.308,2.953-3.308
	c2.096,0,2.757,1.532,2.757,2.634c0,1.36-0.931,2.206-1.911,2.892c-0.992,0.687-2.034,1.213-2.279,1.973h4.179V437.672z"/>
<path fill="#FFFFFF" d="M215.64,433.383c0,1.948-0.502,4.46-2.965,4.46s-2.965-2.512-2.965-4.46s0.502-4.46,2.965-4.46
	S215.64,431.435,215.64,433.383z M214.244,433.383c0-1.789-0.343-3.296-1.568-3.296s-1.568,1.507-1.568,3.296
	c0,1.789,0.343,3.296,1.568,3.296S214.244,435.172,214.244,433.383z"/>
<path fill="#FFFFFF" d="M216.623,430.516c1.176,0.012,2.291-0.392,2.5-1.421h1.139v8.577h-1.531v-6.053h-2.107V430.516z"/>
<path fill="#FFFFFF" d="M229.208,435.638h-1.103v2.034h-1.323v-2.034h-3.676v-1.384l3.676-5.159h1.323v5.44h1.103V435.638z
	 M224.185,434.535h2.598v-3.774h-0.024L224.185,434.535z"/>
<path fill="#FFFFFF" d="M253.868,437.672h-5.857c0.013-1.409,0.735-2.475,1.888-3.247c1.114-0.809,2.561-1.482,2.585-2.818
	c0.012-0.613-0.245-1.52-1.446-1.52c-1.103,0-1.434,0.943-1.47,2.144h-1.397c0-1.899,1.042-3.308,2.953-3.308
	c2.096,0,2.757,1.532,2.757,2.634c0,1.36-0.931,2.206-1.911,2.892c-0.992,0.687-2.034,1.213-2.279,1.973h4.179V437.672z"/>
<path fill="#FFFFFF" d="M260.744,433.383c0,1.948-0.502,4.46-2.965,4.46s-2.965-2.512-2.965-4.46s0.502-4.46,2.965-4.46
	S260.744,431.435,260.744,433.383z M259.347,433.383c0-1.789-0.343-3.296-1.568-3.296s-1.568,1.507-1.568,3.296
	c0,1.789,0.343,3.296,1.568,3.296S259.347,435.172,259.347,433.383z"/>
<path fill="#FFFFFF" d="M261.726,430.516c1.176,0.012,2.291-0.392,2.5-1.421h1.139v8.577h-1.531v-6.053h-2.107V430.516z"/>
<path fill="#FFFFFF" d="M269.423,429.095h4.436v1.25h-3.394l-0.441,2.181l0.024,0.024c0.38-0.417,1.005-0.649,1.581-0.649
	c1.703,0,2.683,1.225,2.683,2.867c0,1.372-0.857,3.075-2.965,3.075c-1.654,0-2.94-0.895-3.002-2.61h1.396
	c0.086,0.919,0.675,1.446,1.581,1.446c1.188,0,1.593-0.845,1.593-1.887c0-0.943-0.502-1.789-1.63-1.789
	c-0.588,0-1.164,0.184-1.384,0.784h-1.397L269.423,429.095z"/>
<path fill="#FFFFFF" d="M298.946,437.672h-5.857c0.013-1.409,0.735-2.475,1.888-3.247c1.114-0.809,2.561-1.482,2.585-2.818
	c0.012-0.613-0.245-1.52-1.446-1.52c-1.103,0-1.434,0.943-1.47,2.144h-1.397c0-1.899,1.042-3.308,2.953-3.308
	c2.096,0,2.757,1.532,2.757,2.634c0,1.36-0.931,2.206-1.911,2.892c-0.992,0.687-2.034,1.213-2.279,1.973h4.179V437.672z"/>
<path fill="#FFFFFF" d="M305.822,433.383c0,1.948-0.502,4.46-2.965,4.46s-2.965-2.512-2.965-4.46s0.502-4.46,2.965-4.46
	S305.822,431.435,305.822,433.383z M304.425,433.383c0-1.789-0.343-3.296-1.568-3.296s-1.568,1.507-1.568,3.296
	c0,1.789,0.343,3.296,1.568,3.296S304.425,435.172,304.425,433.383z"/>
<path fill="#FFFFFF" d="M306.804,430.516c1.176,0.012,2.291-0.392,2.5-1.421h1.139v8.577h-1.531v-6.053h-2.107V430.516z"/>
<path fill="#FFFFFF" d="M317.834,431.264c-0.062-0.698-0.526-1.176-1.25-1.176c-1.52,0-1.69,1.813-1.776,2.94l0.024,0.025
	c0.38-0.674,1.091-1.017,1.851-1.017c1.703,0,2.707,1.237,2.707,2.879c0,1.667-1.139,2.928-2.854,2.928
	c-2.524,0-3.124-1.985-3.124-4.484c0-2.046,0.809-4.436,3.234-4.436c1.36,0,2.512,0.943,2.585,2.34H317.834z M317.994,434.891
	c0-0.919-0.502-1.752-1.507-1.752c-1.018,0-1.544,0.809-1.544,1.752c0,0.931,0.526,1.789,1.544,1.789
	C317.492,436.679,317.994,435.81,317.994,434.891z"/>
<line fill="none" stroke="#F2F2F2" stroke-miterlimit="10" x1="111.756" y1="449.043" x2="320.223" y2="449.043"/>
<line fill="none" stroke="#F2F2F2" stroke-miterlimit="10" x1="441.919" y1="449.043" x2="650.386" y2="449.043"/>
<rect x="442.558" y="316.081" opacity="0.698" fill-rule="evenodd" clip-rule="evenodd" fill="#797979" width="30.07" height="102.96"/>
<rect x="110.842" y="325.397" opacity="0.698" fill-rule="evenodd" clip-rule="evenodd" fill="#797979" width="30.07" height="93.644"/>
<rect x="155.842" y="301.373" opacity="0.698" fill-rule="evenodd" clip-rule="evenodd" fill="#797979" width="30.07" height="117.668"/>
<rect x="200.994" y="287.155" opacity="0.698" fill-rule="evenodd" clip-rule="evenodd" fill="#797979" width="30.07" height="131.886"/>
<rect x="246.098" y="272.119" opacity="0.698" fill-rule="evenodd" clip-rule="evenodd" fill="#797979" width="30.07" height="146.922"/>
<rect x="487.499" y="304.968" opacity="0.698" fill-rule="evenodd" clip-rule="evenodd" fill="#797979" width="29.908" height="114.073"/>
<rect x="532.442" y="271.138" opacity="0.698" fill-rule="evenodd" clip-rule="evenodd" fill="#797979" width="29.91" height="147.903"/>
<rect x="577.224" y="237.636" opacity="0.698" fill-rule="evenodd" clip-rule="evenodd" fill="#797979" width="29.908" height="181.405"/>
<path fill="#FFFFFF" d="M449.414,437.672h-5.857c0.012-1.409,0.734-2.475,1.887-3.247c1.115-0.809,2.561-1.482,2.586-2.818
	c0.012-0.613-0.246-1.52-1.447-1.52c-1.102,0-1.434,0.943-1.469,2.144h-1.398c0-1.899,1.043-3.308,2.953-3.308
	c2.096,0,2.758,1.532,2.758,2.634c0,1.36-0.932,2.206-1.912,2.892c-0.992,0.687-2.033,1.213-2.279,1.973h4.18V437.672z"/>
<path fill="#FFFFFF" d="M456.266,433.383c0,1.948-0.502,4.46-2.965,4.46s-2.965-2.512-2.965-4.46s0.502-4.46,2.965-4.46
	S456.266,431.435,456.266,433.383z M454.869,433.383c0-1.789-0.344-3.296-1.568-3.296c-1.227,0-1.568,1.507-1.568,3.296
	c0,1.789,0.342,3.296,1.568,3.296C454.525,436.679,454.869,435.172,454.869,433.383z"/>
<path fill="#FFFFFF" d="M457.357,430.516c1.176,0.012,2.291-0.392,2.5-1.421h1.139v8.577h-1.531v-6.053h-2.107V430.516z"/>
<path fill="#FFFFFF" d="M469.859,437.672h-5.857c0.012-1.409,0.734-2.475,1.887-3.247c1.115-0.809,2.561-1.482,2.586-2.818
	c0.012-0.613-0.246-1.52-1.447-1.52c-1.102,0-1.434,0.943-1.469,2.144h-1.398c0-1.899,1.043-3.308,2.953-3.308
	c2.096,0,2.758,1.532,2.758,2.634c0,1.36-0.932,2.206-1.912,2.892c-0.992,0.687-2.033,1.213-2.279,1.973h4.18V437.672z"/>
<path fill="#FFFFFF" d="M494.33,437.672h-5.857c0.012-1.409,0.734-2.475,1.887-3.247c1.115-0.809,2.561-1.482,2.586-2.818
	c0.012-0.613-0.246-1.52-1.447-1.52c-1.102,0-1.434,0.943-1.469,2.144h-1.398c0-1.899,1.043-3.308,2.953-3.308
	c2.096,0,2.758,1.532,2.758,2.634c0,1.36-0.932,2.206-1.912,2.892c-0.992,0.687-2.033,1.213-2.279,1.973h4.18V437.672z"/>
<path fill="#FFFFFF" d="M501.182,433.383c0,1.948-0.502,4.46-2.965,4.46s-2.965-2.512-2.965-4.46s0.502-4.46,2.965-4.46
	S501.182,431.435,501.182,433.383z M499.785,433.383c0-1.789-0.344-3.296-1.568-3.296c-1.227,0-1.568,1.507-1.568,3.296
	c0,1.789,0.342,3.296,1.568,3.296C499.441,436.679,499.785,435.172,499.785,433.383z"/>
<path fill="#FFFFFF" d="M502.273,430.516c1.176,0.012,2.291-0.392,2.5-1.421h1.139v8.577h-1.531v-6.053h-2.107V430.516z"/>
<path fill="#FFFFFF" d="M511.234,432.648c0.93,0.037,1.898-0.294,1.898-1.348c0-0.723-0.564-1.213-1.336-1.213
	c-0.967,0-1.445,0.87-1.422,1.752h-1.396c0.074-1.666,1.115-2.916,2.844-2.916c1.336,0,2.707,0.772,2.707,2.292
	c0,0.857-0.393,1.543-1.213,1.838v0.024c0.969,0.196,1.557,1.042,1.557,2.144c0,1.618-1.396,2.622-3.039,2.622
	c-1.984,0-2.977-1.201-3.014-2.99h1.396c-0.037,1.042,0.527,1.826,1.617,1.826c0.932,0,1.643-0.551,1.643-1.531
	c0-1.336-1.141-1.507-2.242-1.458V432.648z"/>
<path fill="#FFFFFF" d="M539.203,437.672h-5.857c0.014-1.409,0.736-2.475,1.889-3.247c1.113-0.809,2.561-1.482,2.584-2.818
	c0.012-0.613-0.244-1.52-1.445-1.52c-1.104,0-1.434,0.943-1.471,2.144h-1.396c0-1.899,1.041-3.308,2.953-3.308
	c2.096,0,2.756,1.532,2.756,2.634c0,1.36-0.93,2.206-1.91,2.892c-0.992,0.687-2.035,1.213-2.279,1.973h4.178V437.672z"/>
<path fill="#FFFFFF" d="M546.055,433.383c0,1.948-0.502,4.46-2.965,4.46s-2.965-2.512-2.965-4.46s0.502-4.46,2.965-4.46
	S546.055,431.435,546.055,433.383z M544.658,433.383c0-1.789-0.342-3.296-1.568-3.296c-1.225,0-1.568,1.507-1.568,3.296
	c0,1.789,0.344,3.296,1.568,3.296C544.316,436.679,544.658,435.172,544.658,433.383z"/>
<path fill="#FFFFFF" d="M547.148,430.516c1.176,0.012,2.291-0.392,2.5-1.421h1.139v8.577h-1.531v-6.053h-2.107V430.516z"/>
<path fill="#FFFFFF" d="M559.709,435.638h-1.102v2.034h-1.324v-2.034h-3.676v-1.384l3.676-5.159h1.324v5.44h1.102V435.638z
	 M554.686,434.535h2.598v-3.774h-0.023L554.686,434.535z"/>
<path fill="#FFFFFF" d="M584.119,437.672h-5.857c0.012-1.409,0.734-2.475,1.887-3.247c1.115-0.809,2.561-1.482,2.586-2.818
	c0.012-0.613-0.246-1.52-1.447-1.52c-1.102,0-1.434,0.943-1.469,2.144h-1.398c0-1.899,1.043-3.308,2.953-3.308
	c2.096,0,2.758,1.532,2.758,2.634c0,1.36-0.932,2.206-1.912,2.892c-0.992,0.687-2.033,1.213-2.279,1.973h4.18V437.672z"/>
<path fill="#FFFFFF" d="M590.971,433.383c0,1.948-0.502,4.46-2.965,4.46s-2.965-2.512-2.965-4.46s0.502-4.46,2.965-4.46
	S590.971,431.435,590.971,433.383z M589.574,433.383c0-1.789-0.344-3.296-1.568-3.296c-1.227,0-1.568,1.507-1.568,3.296
	c0,1.789,0.342,3.296,1.568,3.296C589.23,436.679,589.574,435.172,589.574,433.383z"/>
<path fill="#FFFFFF" d="M592.063,430.516c1.176,0.012,2.291-0.392,2.5-1.421h1.139v8.577h-1.531v-6.053h-2.107V430.516z"/>
<path fill="#FFFFFF" d="M599.736,429.095h4.436v1.25h-3.395l-0.441,2.181l0.025,0.024c0.379-0.417,1.004-0.649,1.58-0.649
	c1.703,0,2.684,1.225,2.684,2.867c0,1.372-0.857,3.075-2.965,3.075c-1.654,0-2.941-0.895-3.002-2.61h1.396
	c0.086,0.919,0.674,1.446,1.58,1.446c1.189,0,1.594-0.845,1.594-1.887c0-0.943-0.502-1.789-1.631-1.789
	c-0.588,0-1.164,0.184-1.383,0.784h-1.398L599.736,429.095z"/>
<path fill="#FFFFFF" d="M628.994,437.672h-5.857c0.012-1.409,0.734-2.475,1.887-3.247c1.115-0.809,2.561-1.482,2.586-2.818
	c0.012-0.613-0.246-1.52-1.447-1.52c-1.102,0-1.434,0.943-1.469,2.144h-1.398c0-1.899,1.043-3.308,2.953-3.308
	c2.096,0,2.758,1.532,2.758,2.634c0,1.36-0.932,2.206-1.912,2.892c-0.992,0.687-2.033,1.213-2.279,1.973h4.18V437.672z"/>
<path fill="#FFFFFF" d="M635.846,433.383c0,1.948-0.502,4.46-2.965,4.46s-2.965-2.512-2.965-4.46s0.502-4.46,2.965-4.46
	S635.846,431.435,635.846,433.383z M634.449,433.383c0-1.789-0.344-3.296-1.568-3.296c-1.227,0-1.568,1.507-1.568,3.296
	c0,1.789,0.342,3.296,1.568,3.296C634.105,436.679,634.449,435.172,634.449,433.383z"/>
<path fill="#FFFFFF" d="M636.938,430.516c1.176,0.012,2.291-0.392,2.5-1.421h1.139v8.577h-1.531v-6.053h-2.107V430.516z"/>
<path fill="#FFFFFF" d="M647.943,431.264c-0.061-0.698-0.525-1.176-1.25-1.176c-1.52,0-1.689,1.813-1.775,2.94l0.023,0.025
	c0.381-0.674,1.092-1.017,1.852-1.017c1.703,0,2.707,1.237,2.707,2.879c0,1.667-1.139,2.928-2.855,2.928
	c-2.523,0-3.123-1.985-3.123-4.484c0-2.046,0.809-4.436,3.234-4.436c1.359,0,2.512,0.943,2.584,2.34H647.943z M648.104,434.891
	c0-0.919-0.502-1.752-1.508-1.752c-1.018,0-1.543,0.809-1.543,1.752c0,0.931,0.525,1.789,1.543,1.789
	C647.602,436.679,648.104,435.81,648.104,434.891z"/>
<path fill="#FFFFFF" d="M449.264,301.79c1.031,0.041,2.102-0.326,2.102-1.492c0-0.8-0.623-1.343-1.479-1.343
	c-1.07,0-1.6,0.963-1.572,1.94h-1.547c0.082-1.845,1.234-3.229,3.146-3.229c1.479,0,2.998,0.854,2.998,2.537
	c0,0.95-0.434,1.709-1.344,2.035v0.027c1.072,0.217,1.725,1.153,1.725,2.374c0,1.791-1.547,2.903-3.365,2.903
	c-2.197,0-3.297-1.33-3.336-3.31h1.545c-0.041,1.153,0.584,2.021,1.791,2.021c1.031,0,1.818-0.61,1.818-1.696
	c0-1.479-1.262-1.668-2.482-1.614V301.79z"/>
<path fill="#FFFFFF" d="M454.418,299.43c1.303,0.014,2.537-0.434,2.768-1.574h1.262v9.496h-1.697v-6.701h-2.332V299.43z"/>
<path fill="#FFFFFF" d="M461.945,299.43c1.303,0.014,2.537-0.434,2.768-1.574h1.262v9.496h-1.695v-6.701h-2.334V299.43z"/>
<path fill="#FFFFFF" d="M494.723,290.229c1.031,0.041,2.102-0.326,2.102-1.492c0-0.8-0.623-1.343-1.479-1.343
	c-1.07,0-1.6,0.963-1.572,1.94h-1.547c0.082-1.845,1.234-3.229,3.146-3.229c1.479,0,2.998,0.854,2.998,2.537
	c0,0.95-0.434,1.709-1.344,2.035v0.027c1.072,0.217,1.725,1.153,1.725,2.374c0,1.791-1.547,2.903-3.365,2.903
	c-2.197,0-3.297-1.33-3.336-3.31h1.545c-0.041,1.153,0.584,2.021,1.791,2.021c1.031,0,1.818-0.61,1.818-1.696
	c0-1.479-1.262-1.668-2.482-1.614V290.229z"/>
<path fill="#FFFFFF" d="M506.238,293.538h-1.221v2.252h-1.465v-2.252h-4.07v-1.533l4.07-5.711h1.465v6.023h1.221V293.538z
	 M500.678,292.317h2.875v-4.178h-0.027L500.678,292.317z"/>
<path fill="#FFFFFF" d="M513.768,293.538h-1.221v2.252h-1.465v-2.252h-4.07v-1.533l4.07-5.711h1.465v6.023h1.221V293.538z
	 M508.205,292.317h2.877v-4.178h-0.027L508.205,292.317z"/>
<path fill="#FFFFFF" d="M542.492,260.457h-1.221v2.252h-1.465v-2.252h-4.07v-1.533l4.07-5.711h1.465v6.023h1.221V260.457z
	 M536.93,259.236h2.877v-4.178h-0.027L536.93,259.236z"/>
<path fill="#FFFFFF" d="M550.02,260.457h-1.221v2.252h-1.465v-2.252h-4.07v-1.533l4.07-5.711h1.465v6.023h1.221V260.457z
	 M544.459,259.236h2.875v-4.178h-0.027L544.459,259.236z"/>
<path fill="#FFFFFF" d="M555.826,255.614c-0.068-0.773-0.584-1.302-1.385-1.302c-1.682,0-1.871,2.008-1.967,3.256l0.027,0.027
	c0.42-0.746,1.207-1.125,2.049-1.125c1.885,0,2.998,1.37,2.998,3.188c0,1.845-1.262,3.242-3.162,3.242
	c-2.793,0-3.459-2.198-3.459-4.965c0-2.265,0.896-4.911,3.582-4.911c1.506,0,2.781,1.044,2.861,2.591H555.826z M556.002,259.629
	c0-1.018-0.557-1.94-1.668-1.94c-1.127,0-1.709,0.896-1.709,1.94c0,1.031,0.582,1.98,1.709,1.98
	C555.445,261.61,556.002,260.646,556.002,259.629z"/>
<path fill="#FFFFFF" d="M583.041,219.506h4.91v1.384h-3.758l-0.488,2.415l0.027,0.027c0.422-0.461,1.113-0.719,1.75-0.719
	c1.887,0,2.971,1.356,2.971,3.174c0,1.519-0.949,3.405-3.283,3.405c-1.83,0-3.254-0.99-3.322-2.889h1.547
	c0.094,1.017,0.746,1.601,1.75,1.601c1.314,0,1.762-0.936,1.762-2.089c0-1.044-0.555-1.98-1.803-1.98
	c-0.652,0-1.289,0.204-1.533,0.868h-1.547L583.041,219.506z"/>
<path fill="#FFFFFF" d="M595.982,226.75h-1.221v2.252h-1.465v-2.252h-4.07v-1.533l4.07-5.711h1.465v6.023h1.221V226.75z
	 M590.42,225.529h2.877v-4.178h-0.027L590.42,225.529z"/>
<path fill="#FFFFFF" d="M596.904,219.506h6.498v1.289c-1.98,2.238-3.297,4.775-3.541,8.207h-1.695
	c0.203-2.998,1.709-5.915,3.662-8.112h-4.924V219.506z"/>
<g>
	<path fill="#F2F2F2" d="M124.737,485.373l-0.822-0.822c1.186-0.841,2.18-2.026,3.04-3.384c0.248,0.191,0.516,0.439,0.784,0.631
		C127.127,483.271,125.808,484.628,124.737,485.373z M127.146,479.79v-6.711h9.808v6.711H127.146z M130.052,472.965
		c-0.649-1.147-1.491-2.18-2.581-3.002l0.918-0.631c1.09,0.803,1.988,1.778,2.619,2.926
		C130.702,472.506,130.377,472.755,130.052,472.965z M135.788,474.188h-7.457v4.455h7.457V474.188z M135.979,485.622l-0.555,0.134
		l-3.881,0.019c-0.746,0-1.683,0.153-2.275-0.401c-0.612-0.439-0.612-1.128-0.612-1.835v-3.04l1.167,0.019v3.671
		c0.057,0.173,0.229,0.345,0.401,0.421l0.554,0.038h4.57c0.765-0.286,0.631-1.204,0.898-1.835l0.058-0.287l1.051,0.612
		C137.088,484.073,136.992,485.144,135.979,485.622z M133.149,483.175c-0.382-0.976-1.07-1.874-1.912-2.601l0.822-0.593
		c0.976,0.898,1.511,1.645,2.065,2.505L133.149,483.175z M134.239,472.965l-1.032-0.669c1.07-0.765,1.739-1.874,2.275-2.944
		c0.306,0.19,0.593,0.42,0.879,0.611C135.922,471.072,135.215,472.143,134.239,472.965z M139.803,484.952
		c-0.745-1.318-1.777-2.408-2.772-3.23l0.861-0.65c1.146,0.86,2.16,1.931,2.849,3.116
		C140.434,484.455,140.147,484.762,139.803,484.952z"/>
	<path fill="#F2F2F2" d="M146.726,474.169c-0.497,1.453-1.721,2.85-2.715,3.824l-0.937-0.822c1.052-0.879,2.16-2.064,2.887-3.518
		L146.726,474.169z M143.514,470.288c0.211-0.268,0.479-0.439,0.727-0.707c0.918,0.401,1.74,1.09,2.391,1.931
		c-0.249,0.306-0.593,0.555-0.86,0.841C145.158,471.531,144.336,470.785,143.514,470.288z M151.907,479.79
		c0.076,1.912-0.21,3.748-1.778,4.972c-1.721,1.357-3.881,1.605-6.061,1.739l-0.535-1.128c2.619-0.172,4.569-0.172,6.386-2.026
		c0.88-0.918,0.822-2.333,0.88-3.557H151.907z M147.815,483.557h-1.185v-5.793h0.994l-0.65-0.937
		c1.683-0.479,3.136-0.898,4.244-1.932c0.804-0.745,1.339-1.683,1.683-2.619l1.014,0.363l-0.211,0.593
		c1.263,2.352,3.652,3.365,5.984,3.996l-0.803,0.994c-3.154-0.86-4.741-2.523-5.717-3.843c-1.051,1.873-3.097,2.867-5.009,3.346
		l7.915,0.038v5.813h-1.166v-4.703h-7.094V483.557z M151.697,469.829c-0.077,0.287-0.115,0.669-0.229,0.86h6.825
		c0.153,1.262-0.401,2.199-0.956,3.136c-0.152,0.096-0.229,0.535-0.459,0.306l-0.86-0.535c0.459-0.535,0.842-1.128,1.052-1.778
		h-6.176c-0.611,1.128-1.567,2.142-2.657,2.868l-0.784-0.898c1.587-0.918,2.772-2.677,3.308-4.397L151.697,469.829z M152.48,483.137
		c1.894,0.573,3.729,1.146,5.679,2.428c-0.172,0.344-0.459,0.707-0.688,1.014c-1.663-1.186-3.575-1.894-5.525-2.429L152.48,483.137z
		"/>
	<path fill="#F2F2F2" d="M167.95,476.426c-0.439-0.899-1.128-1.798-1.74-2.563l0.899-0.535c0.821,0.822,1.548,1.797,2.007,2.715
		c-0.229,0.076-0.401,0.287-0.611,0.383l2.772,0.038c0.459-0.688,1.146-1.606,1.625-3.116c0.382,0.134,0.765,0.286,1.146,0.478
		c-0.42,1.052-0.955,1.97-1.472,2.601h5.487v1.07h-12.905l-0.02,3.729c-0.363,2.753-1.587,4.072-2.887,5.22
		c-0.306-0.249-0.593-0.555-0.86-0.822c0.937-0.784,2.064-2.065,2.505-3.633c0.095-0.956,0.134-3.519,0.114-5.563H167.95z
		 M171.048,471.933l6.997,0.038v1.052h-15.734v-1.033h8.049c-0.459-0.803-1.109-1.529-1.912-2.256l0.956-0.516
		c0.765,0.765,1.434,1.434,2.142,2.447L171.048,471.933z"/>
	<path fill="#F2F2F2" d="M193.954,485.584h-8.871v1.108h-1.166v-11.624h4.588c0.363-0.708,0.517-1.243,0.67-2.065h-7.667v-1.108
		h4.913c-0.382-0.688-1.318-1.74-2.045-2.123l1.204-0.631c0.956,0.784,1.74,1.74,2.18,2.754h3.518
		c0.976-1.09,1.645-2.199,1.854-2.734l1.128,0.535c-0.42,0.803-0.917,1.511-1.587,2.199h4.876v1.108h-7.17
		c-0.134,0.803-0.325,1.529-0.593,2.065h5.334v11.586h-1.166V485.584z M185.083,476.157v1.97h8.871v-1.97H185.083z M193.954,481.263
		v-2.084h-8.871v2.084H193.954z M185.083,482.314v2.18h8.871v-2.18H185.083z"/>
	<path fill="#F2F2F2" d="M203.975,479.484c-0.573,2.39-1.529,4.551-3.098,6.481l-0.076,0.076c-0.363-0.268-0.669-0.535-1.014-0.803
		c1.319-1.549,2.18-3.308,2.792-5.143c0.268-0.822,0.459-1.664,0.593-2.524c0.382,0.153,0.727,0.363,1.09,0.555L203.975,479.484z
		 M201.088,470.346c0.611,0.325,1.204,0.822,1.739,1.28c0.67,0.593,1.167,1.319,1.549,2.027c-0.325,0.268-0.688,0.516-1.032,0.765
		c-0.688-1.357-1.912-2.543-3.212-3.327L201.088,470.346z M210.934,475.909c-0.038,0.86-0.076,1.797-0.21,2.657
		c0.707,2.18,1.854,4.531,4.015,5.755c0.784,0.459,1.587,0.88,2.447,1.147c-0.268,0.363-0.535,0.727-0.803,1.109
		c-2.007-0.727-4.092-2.123-5.143-4.13c-0.383-0.574-0.67-1.224-0.918-1.816c-1.014,2.715-3.671,4.817-6.156,6.022
		c-0.363-0.268-0.555-0.612-0.88-0.898c1.549-0.727,2.944-1.74,4.226-3.002c0.727-0.937,1.415-1.874,1.721-3.021
		c0.344-1.319,0.439-2.715,0.517-4.092L210.934,475.909z M213.61,476.56c0.479-0.994,0.842-2.027,1.033-3.174l-6.387,0.019
		c-0.535,1.549-1.318,2.964-2.352,4.302c-0.382-0.229-0.765-0.439-1.146-0.631c0.497-0.707,1.032-1.415,1.453-2.198
		c0.86-1.664,1.472-3.479,1.759-5.373l1.204,0.191c-0.114,0.842-0.363,1.683-0.555,2.505l7.553,0.019
		c-0.211,1.702-0.574,3.308-1.377,4.78L213.61,476.56z"/>
	<path fill="#F2F2F2" d="M220.591,479.81h5.927c0.229-0.88,0.269-1.97,0.307-2.849l1.186,0.21c-0.039,0.898-0.096,1.797-0.269,2.639
		h7.094v1.147h-5.507c1.224,2.657,4.437,4.015,6.902,4.531l-0.707,1.108c-4.551-1.281-6.73-3.556-7.419-5.64h-0.631
		c-1.128,3.135-4.512,4.761-7.438,5.525l-0.669-1.128c2.639-0.67,5.583-1.874,6.788-4.397h-5.564V479.81z M227.952,471.626
		c-0.746-0.86-1.759-1.472-2.772-1.835l0.976-0.727c0.937,0.249,2.198,1.09,2.887,1.816l-0.938,0.707l7.113,0.038v3.213h-1.205
		v-2.065h-12.542v2.065h-1.205v-3.213H227.952z M220.763,477.458c2.295-0.746,3.806-2.161,5.163-4.321l0.917,0.765
		c-1.338,2.084-2.772,3.633-5.354,4.608L220.763,477.458z M233.765,478.107c-1.147-1.815-3.04-2.944-5.182-4.187l0.707-0.822
		c2.295,1.147,4.283,2.543,5.335,4.13L233.765,478.107z M230.284,477.075c1.224,0.191,2.218,0.88,3.078,1.645l-0.707,0.88
		c-0.688-0.766-1.95-1.549-3.059-1.664L230.284,477.075z"/>
	<path fill="#F2F2F2" d="M240.037,478.069c-0.325,0.574-0.727,1.071-1.128,1.587l-0.937-0.745c1.224-1.606,2.294-3.289,2.695-5.277
		c0.115-0.611,0.287-1.262,0.363-1.931l-2.447,0.019v-1.146h6.367v1.128h-2.734c-0.096,0.268-0.076,0.478-0.134,0.745
		c-0.172,0.956-0.383,1.95-0.707,2.83h2.944v7.59l-3.04,0.02v1.357h-1.243V478.069z M243.173,481.74l0.019-5.334h-1.969v5.334
		H243.173z M254.874,486.521c-0.345-0.038-0.67-0.211-0.994-0.345c-1.205-0.516-2.295-1.452-3.27-2.408
		c-1.243,1.262-2.792,2.198-4.321,2.944l-0.765-1.052c1.567-0.612,3.06-1.568,4.359-2.792c-1.032-1.453-1.798-3.192-2.16-4.933
		h-0.727c-0.077,0.956-0.096,1.95-0.249,2.888c-0.344,2.122-1.281,4.015-2.562,5.716c-0.383-0.21-0.727-0.497-1.071-0.765
		c0.842-1.032,1.549-2.122,1.988-3.346c0.287-0.765,0.421-1.605,0.517-2.466c0.134-1.186,0.191-2.353,0.191-3.595v-4.513h3.767
		v-2.619h1.146v2.601h3.938c-0.038,1.319-0.382,2.619-0.86,3.805l-1.09-0.249c0.307-0.783,0.574-1.587,0.727-2.428l-2.677-0.02
		v3.824h3.04c-0.057,2.333-0.994,4.397-2.428,6.156c1.108,1.262,2.543,2.199,4.11,2.601L254.874,486.521z M249.597,476.77
		l-0.019-3.785h-2.563v3.785H249.597z M248.908,477.897c0.325,1.606,0.804,3.04,1.74,4.034c1.243-1.242,1.549-2.601,1.835-4.034
		H248.908z"/>
	<path fill="#F2F2F2" d="M295.063,475.526v11.07h-1.186v-8.813h-0.038c-0.573,0.975-1.396,1.739-2.064,2.313l-0.784-0.938
		c2.16-1.931,3.422-4.416,4.13-7.035c0.248-0.918,0.421-1.874,0.611-2.792c0.345,0.134,0.688,0.306,1.033,0.459
		C296.459,471.817,295.848,473.71,295.063,475.526z M306.898,485.545h-9.158c-0.268-0.114-0.611-0.363-0.822-0.669
		c-0.401-0.478-0.478-1.319-0.172-1.854c2.313-3.174,6.31-8.278,8.699-10.917h-8.049v-1.109h9.77l-0.038,1.167
		c-3.25,3.479-6.252,7.36-8.891,10.84c-0.153,0.269-0.401,0.555-0.344,0.918c0.057,0.287,0.382,0.383,0.535,0.479h7.973
		c0.287,0,0.517-0.191,0.669-0.401c0.191-0.498,0.191-1.071,0.268-1.626l1.109,0.574h0.076
		C308.352,483.958,308.064,485.221,306.898,485.545z"/>
	<path fill="#F2F2F2" d="M134.2,854.877c0,0.65-0.383,1.357-1.224,1.357h-2.026l-0.383-1.186c0.593,0.096,1.549,0.134,1.912,0.096
		c0.249-0.038,0.459-0.229,0.517-0.535v-5.182h-2.62v1.319c0,2.122-0.631,4.168-1.739,5.966l-1.032-0.67
		c1.185-1.759,1.567-4.11,1.567-6.366v-9.407h5.028V854.877z M132.996,841.398h-2.62v2.887h2.62V841.398z M130.376,845.394v2.926
		h2.62v-2.926H130.376z M134.506,846.044c1.205-0.401,2.142-1.396,2.142-2.619v-3.174h5.659v4.168c0,0.287,0.191,0.497,0.479,0.497
		h1.644v1.07h-1.95c-0.649,0-1.357-0.42-1.357-1.166v-3.441h-3.288v2.046c0,0.841-0.172,1.376-0.535,1.931
		c-0.497,0.727-1.281,1.396-2.104,1.759L134.506,846.044z M134.544,855.412c1.549-0.516,2.983-1.28,4.245-2.409
		c-1.032-1.357-1.683-3.001-2.104-4.626h-0.822v-1.129h6.864c-0.249,2.18-1.032,4.092-2.352,5.813
		c1.281,1.224,2.715,2.122,4.359,2.505l-0.708,1.07c-1.663-0.439-3.116-1.472-4.436-2.733c-1.243,1.09-3.25,2.274-4.531,2.638
		L134.544,855.412z M139.688,852.258c0.707-0.803,1.491-2.811,1.701-3.881h-3.556C138.234,849.753,139.21,851.589,139.688,852.258z"
		/>
	<path fill="#F2F2F2" d="M149.574,847.325c1.032-1.415,2.007-3.174,2.695-4.475h-5.314v-1.089h5.945
		c0.363-0.65,0.593-1.396,1.128-2.257c0.383,0.096,0.727,0.287,1.09,0.44c-0.248,0.649-0.516,1.224-0.821,1.816h9.139l0.019,1.108
		h-9.56c-0.783,1.319-1.931,2.982-2.791,4.455h3.938v-2.639h1.205v2.619h6.156v1.09h-6.176v6.94
		c-0.058,0.535-0.479,1.07-1.014,1.204c-0.554,0.153-1.224,0.115-1.835,0.096c-0.153-0.382-0.325-0.765-0.459-1.166l1.74,0.096
		c0.19-0.038,0.324-0.153,0.401-0.344v-6.788h-5.487V847.325z M153.359,850.288c-1.204,1.932-3.479,3.614-5.583,4.799
		c-0.306-0.268-0.535-0.611-0.821-0.937c1.701-0.937,3.805-2.39,5.563-4.627L153.359,850.288z M162.575,855.011
		c-1.511-1.912-3.499-3.384-5.2-4.474l0.688-0.803c2.065,1.128,3.92,2.867,5.373,4.454L162.575,855.011z"/>
	<path fill="#F2F2F2" d="M172.232,849.485c-0.345-1.014-1.281-2.104-1.95-2.829v9.75h-1.186v-8.718
		c-0.459,1.396-1.224,2.982-2.295,4.206l-0.86-0.727c1.568-1.988,2.639-4.723,3.098-6.691h-2.447l-0.019-1.167l2.504,0.02
		l0.02-4.168h1.186v4.168l2.256-0.02v1.167h-2.256v2.045l0.803-0.439c0.727,0.688,1.778,1.97,2.18,2.849L172.232,849.485z
		 M171.62,855.546c2.065-1.013,3.9-2.771,5.315-4.741c-1.357-2.39-2.275-4.99-2.964-7.609l-0.248-0.956h-1.568l0.02-1.147h9.35
		v1.224c-0.708,2.944-1.625,5.946-3.251,8.547c1.263,1.912,3.078,3.728,5.105,4.761l-0.898,0.956
		c-1.874-1.167-3.71-2.906-4.914-4.723c-1.377,1.816-3.27,3.518-5.238,4.589L171.62,855.546z M174.87,842.259
		c0.44,2.428,1.377,5.2,2.772,7.476c1.396-2.391,2.122-4.895,2.696-7.495L174.87,842.259z"/>
	<path fill="#F2F2F2" d="M191.717,845.93c-1.721,1.644-3.862,2.982-6.1,3.613c-0.325-0.325-0.555-0.669-0.841-0.976
		c0.727-0.152,1.434-0.516,2.084-0.765c1.434-0.707,2.734-1.567,3.919-2.733L191.717,845.93z M185.006,854.571h2.428v-5.525
		l12.064-0.02l-0.02,5.545h2.391l0.019,1.147h-16.882V854.571z M185.942,843.482l15.009-0.02v1.147l-15.028-0.02L185.942,843.482z
		 M191.41,842.431l-0.917,0.841c-0.938-1.3-2.199-2.428-3.461-3.288l0.898-0.746C189.212,840.06,190.455,841.188,191.41,842.431z
		 M188.753,850.154l-0.02,4.417h2.275v-4.397L188.753,850.154z M194.661,854.571v-4.417c-0.784,0.038-1.587,0.02-2.409,0.02v4.397
		H194.661z M195.502,845.433c2.218,0.631,5.086,2.179,6.52,3.536c-0.248,0.287-0.573,0.593-0.822,0.899
		c-1.338-1.453-4.951-2.944-6.5-3.537L195.502,845.433z M195.388,842.411c0.917-0.573,1.434-1.108,2.236-1.893
		c0.325-0.383,0.88-0.976,1.205-1.396c0.286,0.172,0.573,0.535,0.879,0.765c-0.937,1.242-2.18,2.447-3.422,3.384L195.388,842.411z
		 M195.885,850.174v4.397h2.313v-4.417L195.885,850.174z"/>
	<path fill="#F2F2F2" d="M205.197,847.478c0.708-1.128,1.186-2.867,1.529-4.302h-2.294v-1.108h2.523
		c0.211-0.822,0.307-1.721,0.401-2.601l1.129,0.325c-0.039,0.765-0.229,1.511-0.345,2.275h2.926v1.108h-3.193
		c-0.401,1.568-0.688,2.983-1.472,4.436h1.777v-2.562h1.186v2.562h2.046v1.109h-2.046v2.142l2.696-0.727v1.146l-2.696,0.727v4.685
		h-1.186v-4.436l-3.192,0.784l-0.631-0.994c1.376-0.325,2.657-0.593,3.823-0.918v-2.409h-2.982V847.478z M209.652,855.527
		c2.064-0.688,4.148-1.721,5.602-3.519c-0.937-1.434-1.625-3.021-1.95-4.722l1.109-0.421c0.268,1.453,0.841,2.791,1.605,4.034
		c0.746-1.281,1.319-2.734,1.606-4.226l1.07,0.517c-0.286,1.759-1.032,3.308-1.95,4.817c1.319,1.626,2.982,2.715,4.761,3.557
		l-0.879,1.014c-1.721-0.822-3.365-2.084-4.646-3.576c-1.529,1.683-3.479,2.868-5.506,3.595L209.652,855.527z M210.818,847.02
		c1.357-0.784,2.639-2.18,3.289-3.537l0.937,0.573c-0.593,1.453-1.932,2.829-3.27,3.747L210.818,847.02z M211.431,841.8h4.244
		c-0.497-0.784-1.339-1.491-2.199-1.874l0.938-0.727c0.879,0.383,1.778,1.243,2.352,2.026l-0.88,0.536l5.086,0.038v1.128h-9.54
		V841.8z M220.148,847.707c-0.745-1.376-1.873-2.695-3.288-3.46l0.822-0.765c1.185,0.458,2.867,2.37,3.422,3.479L220.148,847.707z"
		/>
	<path fill="#F2F2F2" d="M230.265,854.036v-14.378l1.204-0.02l0.02,5.717l6.749,0.02v1.128h-6.749l-0.02,7.533l8.509,0.019v1.147
		l-16.175-0.02l0.019-1.146H230.265z"/>
	<path fill="#F2F2F2" d="M258.888,849.906v1.166l-6.749-0.019l-0.019,5.659l-1.224,0.019l-0.02-5.659l-7.725-0.019v-1.167
		l2.447,0.02v-4.665h5.239v-2.83h-4.302c-0.669,1.377-1.396,2.753-2.619,3.882l-1.033-0.804c1.511-1.396,2.543-3.059,3.078-4.895
		l0.421-1.415c0.363,0.153,0.708,0.307,1.052,0.498c-0.076,0.554-0.268,1.051-0.421,1.587h11.07v1.146l-6.004,0.02l0.02,2.811h5.009
		l0.02,1.166l-4.99,0.02v3.479H258.888z M246.823,846.427v3.479h4.034l0.02-3.499L246.823,846.427z"/>
	<path fill="#F2F2F2" d="M265.353,851.015c0.554-0.229,1.204-0.42,1.777-0.611l0.02,1.186c-1.645,0.593-3.27,1.166-4.933,1.777
		l-0.822-1.09c0.918-0.21,1.835-0.497,2.734-0.803v-5.659h-2.219v-1.108h2.219v-4.856h1.204v4.856h1.491v1.108h-1.491
		L265.353,851.015z M267.302,847.822v-6.118h3.04c-0.458-0.708-1.242-1.377-1.873-1.932l1.186-0.458
		c0.821,0.688,1.472,1.548,2.007,2.37l1.894,0.02c0.821-0.765,1.376-1.721,1.759-2.696c0.382,0.153,0.745,0.401,1.108,0.631
		c-0.382,0.727-0.822,1.415-1.434,2.046h2.982v6.138H267.302z M269.635,856.713h-1.224v-7.591h8.451v7.571l-1.167-0.02l0.02-1.108
		h-6.1L269.635,856.713z M272.063,842.813h-3.556v3.9h3.537L272.063,842.813z M271.394,845.776
		c-0.344,0.172-0.688,0.363-1.052,0.497c-0.229-0.937-0.86-1.701-1.434-2.485c0.287-0.153,0.593-0.306,0.918-0.439
		C270.553,844.056,270.974,844.935,271.394,845.776z M269.615,850.212v1.511l6.08-0.02l0.02-1.472L269.615,850.212z
		 M269.615,852.813v1.644h6.1l-0.02-1.644H269.615z M276.785,846.675v-3.9l-3.594,0.02v3.881H276.785z M274.663,846.331
		c-0.325-0.172-0.669-0.345-0.994-0.517c0.229-0.287,0.459-0.631,0.688-0.898c0.306-0.593,0.631-1.166,0.86-1.759
		c0.344,0.114,0.65,0.268,0.956,0.439C275.791,844.553,275.352,845.471,274.663,846.331z"/>
	<path fill="#F2F2F2" d="M297.034,856.406c-5.314-2.771-7.227-5.372-8.278-8.661h-2.887l-0.02,7.342
		c1.3-0.516,2.619-1.166,4.054-1.797v1.166c-1.052,0.479-3.385,1.587-4.838,2.313l-0.516-1.013c0.076-0.172,0.191-0.172,0.191-0.363
		v-7.648h-3.958v-1.089h4.895v-7.342l1.166-0.02v5.831c2.563-1.146,5.182-2.733,7.304-4.474l0.822,0.88
		c-2.409,1.777-5.162,3.479-8.145,4.703v0.421h10.382l0.019,1.089h-7.399c1.014,3.499,4.627,6.291,7.916,7.629L297.034,856.406z"/>
	<path fill="#F2F2F2" d="M457.365,855.412c0.881,0.077,1.396,0.191,2.295,0.153c0.248,0.038,0.879,0.02,0.783-0.937v-4.188h-7.533
		v-1.128h7.533l0.02-3.327h-5.908l-0.018-1.128h5.906v-3.021l-3.078,0.229l-3.096,0.076l-0.689-1.166
		c4.455,0.019,8.814-0.306,12.848-1.415c0.268-0.076,0.535-0.21,0.842-0.248l0.688,0.86c-1.969,0.783-4.109,1.204-6.289,1.491
		l0.02,3.192h5.621v1.128h-5.621v3.327l7.227-0.02v1.147l-7.246-0.02v4.856c0,1.109-0.555,1.435-1.205,1.435h-2.658L457.365,855.412
		z"/>
	<path fill="#F2F2F2" d="M471.344,853.863c2.18-0.631,3.861-1.032,6.119-1.777v1.146l-5.336,1.721L471.344,853.863z M477.5,850.116
		c-2.045,0.401-3.613,0.612-5.258,0.918l-0.516-1.09c1.242-0.976,2.008-2.16,3.154-3.729l-2.619,0.287
		c-0.172-0.401-0.344-0.822-0.535-1.186c1.49-1.874,2.504-3.862,3.25-6.061l1.281,0.535c-0.822,1.701-1.797,3.671-3.174,5.43
		c0.688-0.019,1.549-0.134,2.6-0.268c0.479-0.822,0.898-1.625,1.301-2.485c0.383,0.153,0.746,0.401,1.109,0.593
		c-1.168,2.275-2.543,4.493-4.322,6.462c1.225-0.152,2.506-0.268,3.729-0.497V850.116z M487.672,856.521
		c-1.129-1.568-2.887-2.485-4.531-3.231c-1.549,2.658-4.838,3.098-6.75,3.346c-0.172-0.439-0.344-0.822-0.516-1.242
		c0.402-0.115,0.957-0.096,1.414-0.153c2.123-0.306,4.303-1.472,5.258-3.537h-5.162v-1.09h5.469
		c0.191-1.453,0.211-3.021,0.248-4.531l1.166,0.038c-0.037,1.511-0.076,3.002-0.229,4.475h4.283v1.128h-4.475l-0.287,0.649
		c1.816,0.804,3.672,1.664,5.145,3.289L487.672,856.521z M480.291,850.384c-0.572-0.669-1.662-1.549-2.656-2.122
		c0.172-0.268,0.42-0.573,0.611-0.86c1.033,0.479,2.027,1.243,2.867,2.104L480.291,850.384z M487.979,845.433
		c-0.23,0.554-0.727,1.625-1.09,2.141L485.74,847c0.439-0.517,0.766-1.07,1.014-1.663h-8.947v-1.128h4.148v-1.798h-3.365v-1.128
		h3.346v-1.988h1.186v1.988h4.131v1.109h-4.131v1.854h4.857V845.433z M481.592,848.338c-0.688-0.879-1.529-1.548-2.371-2.179
		l0.766-0.746c1.014,0.707,1.834,1.434,2.467,2.122L481.592,848.338z"/>
	<path fill="#F2F2F2" d="M502.014,843.482v1.185h5.008c-0.018,0.784-0.172,1.415-0.285,2.123c-0.059,0.497-0.287,1.108-0.842,1.262
		c-0.555,0.152-1.07-0.096-1.605-0.191v4.875h-1.186v-3.977h-7.629v4.34h-1.166v-4.684c-0.842,0.593-2.352,1.013-3.174,1.242
		l-0.65-0.975c1.568-0.439,4.111-1.224,5.219-2.944h-3.537c0.268-1.109,0.518-2.142,0.67-3.289h3.67v-0.956h-4.264v-1.032h4.246
		l0.018-1.186c0.363-0.019,0.746,0,1.109,0l0.02,1.167h3.213v-1.167h1.166v1.167h3.67v3.04H502.014z M491.65,855.508
		c1.797-0.325,3.67-0.535,5.143-1.605c1.453-1.071,1.797-2.849,1.951-4.531c0.363,0.096,0.727,0.229,1.07,0.344
		c-0.135,1.549-0.574,3.078-1.473,4.264c-1.281,1.396-3.9,2.142-6.021,2.543L491.65,855.508z M493.695,843.482
		c-0.076,0.497-0.152,0.917-0.229,1.224h2.754c0.096-0.363,0.229-0.822,0.268-1.224H493.695z M500.848,847.306v-1.587h-3.805
		c-0.363,0.727-0.918,1.473-1.627,1.932l8.566,0.038c-0.057-0.345-0.096-0.746-0.152-1.032c0.4,0.114,0.764,0.286,1.146,0.401
		c0.191,0.038,0.479,0.134,0.611-0.058c0.135-0.401,0.191-0.822,0.23-1.262h-3.824v1.567H500.848z M497.596,843.501
		c-0.037,0.383-0.113,0.803-0.209,1.166h3.441v-1.166H497.596z M500.848,841.513h-3.174c-0.02,0.21,0,0.669-0.02,0.956h3.193
		V841.513z M505.799,856.464c-1.816-1.491-3.861-2.466-6.041-3.078l0.727-0.841c1.969,0.688,4.396,1.625,6.021,3.078
		L505.799,856.464z M504.557,842.469v-0.956h-2.543v0.956H504.557z"/>
	<path fill="#F2F2F2" d="M524.689,845.413c-0.172,1.377-0.535,2.677-1.203,3.862c-0.707,1.224-1.549,2.332-2.582,3.384
		c1.74,1.357,3.709,2.275,5.793,2.83l-0.744,1.166c-2.162-0.631-4.17-1.625-6.004-3.06c-0.498,0.325-0.938,0.708-1.377,1.014
		c-1.377,0.956-2.85,1.606-4.416,2.046c-0.268-0.325-0.498-0.707-0.766-1.07c2.047-0.555,3.92-1.453,5.602-2.85
		c-1.816-1.835-3.02-4.015-3.918-6.29c-0.23,2.256-0.346,4.436-1.09,6.424c-0.02,0.058-0.059,0.153-0.096,0.211
		c-0.594,1.3-1.377,2.485-2.391,3.633c-0.439-0.229-0.861-0.517-1.301-0.784c1.453-1.415,2.543-3.002,2.926-4.875
		c0.344-1.664,0.459-3.079,0.555-4.876c0.076-1.491,0.115-2.964,0.076-4.416h-2.639v-1.186h12.236v1.108
		c-0.822,1.262-1.777,2.485-2.695,3.709L524.689,845.413z M516.449,846.561c0.766,1.529,1.512,2.963,2.639,4.32l0.096,0.115
		c0.268,0.325,0.459,0.555,0.785,0.822c1.529-1.511,2.715-3.289,3.268-5.239h-4.244v-1.108c0.977-1.224,2.143-2.772,2.602-3.499
		l0.133-0.21l-6.596,0.019c-0.039,0.345,0.057,0.688,0,1.052c0.307,1.224,0.611,2.313,1.166,3.422L516.449,846.561z"/>
	<path fill="#F2F2F2" d="M531.154,847.134c-0.479,0.746-0.994,1.511-1.625,2.16l-0.994-0.765c2.391-2.657,3.441-5.851,4.225-9.215
		l1.053,0.497c-0.344,1.644-0.898,3.154-1.453,4.722v12.122h-1.205V847.134z M545.074,840.155v14.607
		c0,0.765-0.307,1.663-1.416,1.663h-1.645l-0.439-1.262c0.631,0.058,1.242,0.172,1.893,0.058c0.363-0.058,0.383-0.345,0.383-0.784
		v-4.072h-3.557v5.143h-1.203v-5.143h-3.404c-0.02,1.166-0.02,2.409-0.4,3.537c-0.346,0.994-0.996,1.854-1.76,2.677l-1.051-0.842
		c1.07-0.918,1.701-2.064,1.873-3.461c0.057-0.478,0.115-1.414,0.115-1.931v-10.19H545.074z M535.686,841.283v3.346h3.404v-3.346
		H535.686z M539.09,845.757h-3.404v3.48h3.404V845.757z M543.85,841.283h-3.557v3.346h3.557V841.283z M540.293,845.757v3.48h3.557
		v-3.48H540.293z"/>
	<path fill="#F2F2F2" d="M564.348,855.795h-15.314v-1.128h7.055v-5.048l-5.43,0.02l-0.02-1.147l5.469,0.02v-2.581h-3.596v-0.956
		c-1.203,0.783-2.428,1.472-3.689,2.064L548,846.024c2.563-1.224,5.125-2.733,7.094-4.989c0.592-0.688,1.109-1.396,1.568-2.123
		l0.975,0.631l-0.23,0.497c2.084,2.601,4.762,4.914,7.936,5.832l-0.957,0.975c-1.262-0.42-2.447-1.09-3.537-1.835v0.918h-3.574
		l0.02,2.562h5.334l0.02,1.147h-5.373l0.02,5.028l7.055-0.02V855.795z M553.488,854.017c-0.479-1.166-1.09-2.275-2.104-3.192
		l1.07-0.497c0.746,0.573,1.873,2.313,2.18,3.174L553.488,854.017z M554.291,843.559c-0.498,0.439-1.053,0.86-1.492,1.242h7.781
		c-1.414-1.013-2.811-2.466-3.881-3.747C555.936,841.952,555.131,842.813,554.291,843.559z M558.363,853.481
		c1.166-0.803,2.084-2.065,2.658-3.289l0.955,0.688c-0.574,1.243-1.396,2.485-2.543,3.365L558.363,853.481z"/>
	<path fill="#F2F2F2" d="M570.447,844.094c-0.859-1.281-2.064-2.198-2.943-2.887l0.803-0.784c1.205,0.937,2.563,1.912,3.154,2.849
		L570.447,844.094z M567.656,855.47c0.994-1.721,2.084-3.805,2.945-6.424c0.344,0.172,0.668,0.382,1.014,0.573
		c-0.574,1.721-1.74,4.34-3.021,6.386L567.656,855.47z M573.258,851.99c0-0.383-0.018-0.727,0-1.128h3.883v-2.391h-4.99v-1.146h4.99
		v-2.027h-3.174v-0.726c-0.459,0.458-0.977,0.821-1.473,1.185l-0.938-0.841c2.16-1.357,3.441-3.575,4.303-5.774l0.994,0.497
		c-0.172,0.536-0.363,0.994-0.611,1.53h4.512v1.051c-0.383,0.65-0.727,1.301-1.225,1.912h3.117v3.174h1.529v1.166h-1.529v3.499
		h-4.283v3.193c0,0.459-0.287,0.841-0.668,1.128c-0.537,0.401-1.32,0.172-1.99,0.229c-0.172-0.401-0.363-0.803-0.535-1.224
		l1.684,0.058c0.133-0.058,0.229-0.173,0.287-0.287v-3.078H573.258z M575.629,842.315c-0.344,0.631-0.822,1.224-1.318,1.816h3.766
		c0.479-0.573,0.861-1.224,1.281-1.816H575.629z M578.363,850.843h3.078v-2.371h-3.078V850.843z M581.461,845.298h-3.078v2.027
		h3.078V845.298z"/>
	<path fill="#F2F2F2" d="M592.457,856.693h-1.186v-5.43l-3.787,1.262l-0.916-0.956c0.631-0.401,0.592-0.688,0.592-1.396v-8.775
		h1.186v9.56l2.926-0.994v-10.459h1.186V856.693z M592.762,855.775c1.76-0.898,3.537-2.122,4.762-3.728
		c-1.07-1.626-1.607-3.537-2.084-5.392c-0.211,0.324-0.344,0.726-0.535,1.07c-0.287,0.517-0.594,1.052-0.957,1.529l-1.031-0.765
		c1.682-2.313,2.313-5.086,2.619-8.011l0.113-1.128l1.205,0.401c-0.02,1.013-0.152,2.142-0.307,3.097h6.387v1.129h-1.74
		c-0.096,2.905-0.803,5.64-2.256,8.011c0.994,1.453,2.715,2.944,4.379,3.613l-0.879,0.918c-1.627-0.727-3.156-2.065-4.246-3.461
		c-1.262,1.529-2.828,2.696-4.473,3.633L592.762,855.775z M596.279,843.979l-0.189,0.745c0.381,2.199,1.012,4.283,2.16,6.176
		c1.146-2.065,1.682-4.531,1.777-6.921H596.279z"/>
	<path fill="#F2F2F2" d="M615.02,840.499c-0.078,1.587,0.037,3.174,0.285,4.704c0.078,0.152,0.059,0.382,0.135,0.573
		c0.574,3.154,2.543,5.927,5.105,8.011c0.555,0.439,1.127,0.784,1.701,1.205c-0.23,0.306-0.498,0.631-0.746,0.956
		c-0.02,0.038-0.076,0.076-0.096,0.095c-0.783-0.458-1.549-1.128-2.275-1.739c-2.16-1.874-3.766-4.245-4.568-6.826
		c-0.938,2.352-2.447,4.589-4.514,6.348c-1.07,0.898-2.121,1.568-3.287,2.295c-0.248-0.363-0.535-0.746-0.803-1.109
		c2.676-1.319,5.43-3.785,6.748-6.443c-0.02-0.057,0.115-0.134,0.135-0.229c0.496-0.937,0.859-1.95,1.223-2.944
		c-0.172-1.242-0.324-2.408-0.324-3.709h-3.404v-1.166L615.02,840.499z"/>
	<path fill="#F2F2F2" d="M626.264,851.607c0.248,1.645,1.203,2.581,2.637,2.581c1.664,0,2.889-1.414,2.889-3.346
		c0-1.874-1.168-3.098-2.926-3.098c-1.053,0-1.969,0.479-2.486,1.319l-1.586-0.19l1.338-7.036h6.787v1.605h-5.449l-0.746,3.671
		c0.805-0.554,1.723-0.86,2.602-0.86c2.447,0,4.244,1.894,4.244,4.437c0,2.829-1.969,4.875-4.666,4.875
		c-2.484,0-4.186-1.473-4.396-3.824L626.264,851.607z"/>
	<path fill="#F2F2F2" d="M466.154,875.989v1.166l-6.75-0.02l-0.018,5.66l-1.225,0.019l-0.02-5.659l-7.725-0.02v-1.166l2.447,0.02
		v-4.665h5.24v-2.83h-4.303c-0.668,1.377-1.395,2.753-2.619,3.882l-1.033-0.804c1.512-1.396,2.543-3.059,3.078-4.895l0.422-1.415
		c0.363,0.153,0.707,0.307,1.051,0.498c-0.076,0.554-0.268,1.051-0.42,1.586h11.07v1.147l-6.004,0.02l0.02,2.811h5.008l0.02,1.166
		l-4.99,0.02v3.479H466.154z M454.09,872.51v3.479h4.033l0.02-3.499L454.09,872.51z"/>
	<path fill="#F2F2F2" d="M472.58,870.234c-0.707,0.688-1.721,1.816-2.658,2.352l-1.09-0.842c0.402-0.152,0.803-0.497,1.129-0.765
		l0.115-0.038c1.701-1.415,2.924-3.346,3.594-5.354l1.014,0.612c-0.115,0.478-0.344,0.898-0.535,1.338h11.051l-0.02,1.147h-11.662
		c-0.25,0.325-0.441,0.784-0.689,1.108h10.115v5.621l-7.553,0.02c0.172,0.172,0.479,0.249,0.65,0.439
		c-0.154,0.383-0.25,0.612-0.535,0.88h7.475l-0.02,1.166c-0.707,0.898-1.643,1.645-2.523,2.18l-0.783,0.479
		c1.893,0.688,4.033,0.879,6.156,0.994l-0.955,1.224c-1.816-0.173-3.807-0.459-5.297-0.976l-1.492-0.516
		c-2.504,0.994-5.275,1.376-8.125,1.491l-0.994-1.263c2.676,0,5.277-0.19,7.629-0.955c-0.918-0.574-1.932-1.186-2.773-2.027
		c-0.189,0.058-0.324,0.287-0.496,0.363c-0.459,0.345-0.898,0.65-1.357,0.918l-1.09-0.898c1.09-0.535,3.385-1.932,3.957-3.519
		h-2.236V870.234z M473.785,873.121l0.018,1.128h7.916l0.02-1.108L473.785,873.121z M473.803,871.993h7.916l0.02-1.09l-7.936,0.02
		V871.993z M474.951,877.901c0.496,0.497,1.854,1.529,3.23,2.045c1.396-0.726,2.486-1.491,3.059-2.064L474.951,877.901z"/>
	<path fill="#F2F2F2" d="M497.514,865.55c-0.096,0.191-0.459,0.459-0.574,0.631c2.352,2.982,6.539,5.908,8.145,6.405
		c-0.229,0.363-0.555,0.688-0.822,1.032c-0.611-0.248-1.242-0.478-3.842-2.39c-1.32-0.976-2.906-2.906-4.092-4.302
		c-1.932,2.332-3.863,4.13-7.936,6.901l-0.898-0.937c4.264-2.734,7.705-6.348,8.795-8.106L497.514,865.55z M500.629,882.681v-1.224
		h-8.641v1.319h-1.281v-7.017h11.223v6.921H500.629z M501.012,873.179h-9.559v-1.205h9.578L501.012,873.179z M492.008,880.271
		l8.621-0.019v-3.308l-8.621-0.02V880.271z"/>
	<path fill="#F2F2F2" d="M510.861,877.098c0.553-0.229,1.203-0.42,1.777-0.611l0.02,1.186c-1.645,0.593-3.27,1.166-4.934,1.777
		l-0.822-1.089c0.918-0.211,1.836-0.498,2.734-0.804v-5.659h-2.219v-1.108h2.219v-4.856h1.205v4.856h1.49v1.108h-1.49
		L510.861,877.098z M512.811,873.905v-6.118h3.039c-0.457-0.708-1.242-1.377-1.873-1.932l1.186-0.458
		c0.822,0.688,1.473,1.548,2.008,2.37l1.893,0.02c0.822-0.765,1.377-1.721,1.76-2.696c0.381,0.153,0.744,0.401,1.107,0.631
		c-0.381,0.727-0.822,1.415-1.434,2.046h2.982v6.138H512.811z M515.143,882.796h-1.223v-7.591h8.451v7.571l-1.168-0.02l0.02-1.108
		h-6.1L515.143,882.796z M517.57,868.896h-3.555v3.9h3.537L517.57,868.896z M516.902,871.859c-0.344,0.172-0.689,0.363-1.053,0.497
		c-0.229-0.937-0.859-1.701-1.434-2.485c0.287-0.153,0.594-0.306,0.918-0.439C516.061,870.139,516.48,871.019,516.902,871.859z
		 M515.123,876.295v1.511l6.08-0.02l0.02-1.472L515.123,876.295z M515.123,878.896v1.644h6.1l-0.02-1.644H515.123z M522.293,872.758
		v-3.9l-3.594,0.02v3.881H522.293z M520.172,872.414c-0.326-0.173-0.67-0.345-0.994-0.517c0.229-0.287,0.459-0.631,0.688-0.898
		c0.307-0.593,0.631-1.166,0.861-1.759c0.344,0.114,0.648,0.268,0.955,0.439C521.299,870.636,520.859,871.554,520.172,872.414z"/>
	<path fill="#F2F2F2" d="M542.543,882.489c-5.314-2.771-7.227-5.372-8.279-8.661h-2.887l-0.02,7.342
		c1.301-0.516,2.619-1.166,4.055-1.797v1.166c-1.053,0.479-3.385,1.587-4.838,2.313l-0.516-1.013
		c0.076-0.172,0.191-0.172,0.191-0.363v-7.648h-3.959v-1.089h4.895v-7.342l1.166-0.02v5.831c2.563-1.146,5.182-2.733,7.305-4.474
		l0.822,0.88c-2.41,1.777-5.162,3.479-8.145,4.703v0.421h10.381l0.02,1.089h-7.4c1.014,3.499,4.627,6.291,7.916,7.629
		L542.543,882.489z"/>
	<path fill="#F2F2F2" d="M553.309,878.628h-7.686v-1.109h7.686v-1.014h1.186v1.014h7.686v1.109h-7.686v4.129h-1.186V878.628z
		 M550.402,873.943c-1.186,0.975-2.447,1.797-3.861,2.275l-0.842-0.956c0.459-0.191,0.994-0.345,1.453-0.574
		c0.918-0.458,1.797-1.051,2.619-1.701L550.402,873.943z M547.02,870.54c-0.25-0.172-0.498-0.325-0.766-0.401l0.766-0.842
		c0.381,0.115,0.707,0.345,1.051,0.536c0.688,0.478,1.377,1.013,1.893,1.701l-0.879,0.86
		C548.566,871.61,547.764,871.037,547.02,870.54z M561.357,868.571h-6.385c-0.975,1.357-1.684,2.218-2.428,2.887
		c0.744-0.058,1.605-0.115,2.523-0.249c0.344-0.401,0.535-0.822,0.803-1.224l0.994,0.535c-0.535,0.899-1.186,1.778-1.951,2.563
		c-0.688,0.707-1.434,1.319-2.236,1.797c1.07-0.038,2.123-0.191,3.174-0.306c-0.191-0.268-0.402-0.497-0.65-0.707l0.975-0.497
		c0.861,0.745,1.531,1.739,2.047,2.695l-0.975,0.555c-0.154-0.363-0.363-0.765-0.613-1.109c-1.834,0.173-3.67,0.44-5.41,0.765
		l-0.707-1.128c0.439-0.152,0.783-0.42,1.166-0.649c0.861-0.535,1.76-1.377,2.467-2.142c-1.053,0.076-2.18,0.268-3.193,0.459
		l-0.592-1.032c1.262-0.67,2.465-1.95,3.191-3.212h-7.188v-1.109h7.188c-0.459-0.593-1.107-1.243-1.777-1.625l1.109-0.593
		c0.764,0.631,1.414,1.415,1.893,2.218h6.576V868.571z M558.223,872.185l-0.727-1.032c1.223-0.44,2.371-1.205,3.326-2.161l0.65,0.88
		C560.459,870.808,559.465,871.706,558.223,872.185z M557.516,874.058l0.611-0.917c1.434,0.363,2.791,0.994,3.881,2.046
		l-0.668,0.898C560.268,875.033,558.893,874.44,557.516,874.058z"/>
	<path fill="#F2F2F2" d="M466.512,471.356v-1.625h-4.397v1.587h-1.185v-1.587h-4.838v-1.128h4.895v-1.473h1.128v1.453h4.397v-1.434
		h1.186v1.434h4.837v1.128h-4.855v1.645H466.512z M457.603,474.492h-1.147V471.7h15.697l-0.02,2.849h-1.146v-1.721h-13.384V474.492z
		 M469.055,484.415v-1.166h-9.598v1.146h-1.204l0.019-5.64h11.969v5.659H469.055z M469.055,479.902h-9.598v2.199h9.598V479.902z
		 M468.769,473.746v3.862h-8.968v-3.862H468.769z M461.006,474.894v1.567h6.558v-1.567H461.006z"/>
	<path fill="#F2F2F2" d="M475.232,483.229v-1.147h5.755v-14.53h1.242v14.55h2.582V467.57h1.185v14.531h5.717v1.128H475.232z
		 M478.33,479.712c-0.058-2.696-0.899-5.086-1.932-7.381c0.287-0.19,0.65-0.324,0.994-0.458c0.938,2.064,1.854,4.799,2.122,7.322
		L478.33,479.712z M487.698,479.922l-0.938-0.573c1.225-1.511,2.295-3.633,2.467-7.399c0.363,0.096,0.688,0.287,1.052,0.401
		C489.992,475.907,488.922,478.048,487.698,479.922z"/>
	<path fill="#F2F2F2" d="M500.07,484.357h-1.186v-5.43l-3.786,1.262l-0.917-0.956c0.631-0.401,0.593-0.688,0.593-1.396v-8.775h1.185
		v9.56l2.926-0.994v-10.459h1.186V484.357z M500.376,483.439c1.759-0.898,3.537-2.122,4.761-3.728
		c-1.07-1.626-1.606-3.537-2.084-5.392c-0.21,0.324-0.344,0.726-0.535,1.07c-0.287,0.517-0.593,1.052-0.956,1.529l-1.032-0.765
		c1.683-2.313,2.313-5.086,2.619-8.011l0.114-1.128l1.205,0.401c-0.02,1.013-0.153,2.142-0.307,3.097h6.387v1.129h-1.74
		c-0.096,2.905-0.803,5.64-2.256,8.011c0.994,1.453,2.715,2.944,4.378,3.613l-0.879,0.918c-1.626-0.727-3.155-2.065-4.245-3.461
		c-1.262,1.529-2.829,2.696-4.474,3.633L500.376,483.439z M503.894,471.644l-0.19,0.745c0.382,2.199,1.013,4.283,2.16,6.176
		c1.147-2.065,1.683-4.531,1.778-6.921H503.894z"/>
	<path fill="#F2F2F2" d="M522.633,468.163c-0.077,1.587,0.038,3.174,0.286,4.704c0.077,0.152,0.058,0.382,0.135,0.573
		c0.573,3.154,2.542,5.927,5.104,8.011c0.555,0.439,1.128,0.784,1.701,1.205c-0.229,0.306-0.497,0.631-0.745,0.956
		c-0.02,0.038-0.077,0.076-0.096,0.095c-0.784-0.458-1.549-1.128-2.275-1.739c-2.16-1.874-3.767-4.245-4.569-6.826
		c-0.937,2.352-2.447,4.589-4.513,6.348c-1.07,0.898-2.122,1.568-3.288,2.295c-0.248-0.363-0.535-0.746-0.803-1.109
		c2.677-1.319,5.43-3.785,6.749-6.443c-0.02-0.057,0.114-0.134,0.134-0.229c0.497-0.937,0.86-1.95,1.224-2.944
		c-0.172-1.242-0.325-2.408-0.325-3.709h-3.403v-1.166L522.633,468.163z"/>
	<path fill="#F2F2F2" d="M533.877,479.271c0.248,1.645,1.204,2.581,2.638,2.581c1.664,0,2.888-1.414,2.888-3.346
		c0-1.874-1.167-3.098-2.926-3.098c-1.052,0-1.969,0.479-2.485,1.319l-1.587-0.19l1.339-7.036h6.787v1.605h-5.449l-0.746,3.671
		c0.804-0.554,1.722-0.86,2.601-0.86c2.447,0,4.244,1.894,4.244,4.437c0,2.829-1.969,4.875-4.665,4.875
		c-2.485,0-4.187-1.473-4.397-3.824L533.877,479.271z"/>
	<path fill="#F2F2F2" d="M559.344,477.57v1.166l-6.749-0.019l-0.019,5.659l-1.224,0.019l-0.02-5.659l-7.725-0.019v-1.167l2.447,0.02
		v-4.665h5.239v-2.83h-4.302c-0.669,1.377-1.396,2.753-2.619,3.882l-1.033-0.804c1.511-1.396,2.543-3.059,3.078-4.895l0.421-1.415
		c0.363,0.153,0.708,0.307,1.052,0.498c-0.076,0.554-0.268,1.051-0.421,1.587h11.07v1.146l-6.004,0.02l0.02,2.811h5.009l0.02,1.166
		l-4.99,0.02v3.479H559.344z M547.279,474.091v3.479h4.034l0.02-3.499L547.279,474.091z"/>
	<path fill="#F2F2F2" d="M565.77,471.815c-0.707,0.688-1.721,1.816-2.657,2.352l-1.09-0.842c0.401-0.152,0.803-0.497,1.128-0.765
		l0.115-0.038c1.701-1.415,2.925-3.346,3.594-5.354l1.014,0.612c-0.114,0.478-0.344,0.898-0.535,1.338h11.051l-0.02,1.147h-11.662
		c-0.249,0.325-0.44,0.784-0.688,1.109h10.114v5.62l-7.553,0.02c0.173,0.172,0.479,0.249,0.65,0.439
		c-0.153,0.383-0.249,0.612-0.535,0.88h7.476l-0.02,1.166c-0.707,0.898-1.644,1.645-2.523,2.18l-0.784,0.479
		c1.894,0.688,4.034,0.879,6.156,0.994l-0.955,1.224c-1.816-0.173-3.806-0.459-5.297-0.976l-1.491-0.516
		c-2.504,0.994-5.276,1.376-8.125,1.491l-0.994-1.263c2.676,0,5.276-0.19,7.628-0.955c-0.918-0.574-1.931-1.186-2.772-2.027
		c-0.19,0.058-0.324,0.287-0.497,0.363c-0.459,0.345-0.898,0.65-1.357,0.918l-1.09-0.898c1.09-0.535,3.385-1.932,3.958-3.519h-2.237
		V471.815z M566.975,474.702l0.019,1.128h7.916l0.019-1.108L566.975,474.702z M566.993,473.574h7.916l0.019-1.09l-7.935,0.02
		V473.574z M568.141,479.482c0.497,0.497,1.854,1.529,3.231,2.045c1.396-0.726,2.485-1.491,3.059-2.064L568.141,479.482z"/>
	<path fill="#F2F2F2" d="M590.703,467.131c-0.096,0.191-0.459,0.459-0.573,0.631c2.352,2.982,6.539,5.908,8.145,6.405
		c-0.229,0.363-0.555,0.688-0.822,1.032c-0.611-0.248-1.242-0.478-3.843-2.39c-1.319-0.976-2.906-2.906-4.092-4.302
		c-1.931,2.332-3.862,4.13-7.935,6.901l-0.898-0.937c4.264-2.734,7.705-6.348,8.795-8.106L590.703,467.131z M593.819,484.262v-1.224
		h-8.642v1.319h-1.281v-7.017h11.224v6.921H593.819z M594.202,474.76h-9.56v-1.205h9.579L594.202,474.76z M585.197,481.853
		l8.622-0.019v-3.308l-8.622-0.02V481.853z"/>
	<path fill="#F2F2F2" d="M604.051,478.679c0.554-0.229,1.204-0.42,1.777-0.611l0.02,1.186c-1.645,0.593-3.27,1.166-4.933,1.777
		l-0.822-1.09c0.918-0.21,1.835-0.497,2.734-0.803v-5.659h-2.219v-1.108h2.219v-4.856h1.204v4.856h1.491v1.108h-1.491
		L604.051,478.679z M606.001,475.486v-6.118h3.039c-0.458-0.708-1.242-1.377-1.873-1.932l1.186-0.458
		c0.821,0.688,1.472,1.548,2.007,2.37l1.894,0.02c0.821-0.765,1.376-1.721,1.759-2.696c0.382,0.153,0.745,0.401,1.108,0.631
		c-0.382,0.727-0.822,1.415-1.434,2.046h2.982v6.138H606.001z M608.333,484.377h-1.224v-7.591h8.451v7.571l-1.167-0.02l0.02-1.108
		h-6.1L608.333,484.377z M610.761,470.477h-3.556v3.9h3.537L610.761,470.477z M610.092,473.44c-0.344,0.172-0.688,0.363-1.052,0.497
		c-0.229-0.937-0.86-1.701-1.434-2.485c0.287-0.153,0.593-0.306,0.918-0.439C609.251,471.72,609.671,472.599,610.092,473.44z
		 M608.313,477.876v1.511l6.08-0.02l0.02-1.472L608.313,477.876z M608.313,480.477v1.644h6.1l-0.02-1.644H608.313z M615.483,474.339
		v-3.9l-3.594,0.02v3.881H615.483z M613.361,473.995c-0.325-0.172-0.669-0.345-0.994-0.517c0.229-0.287,0.459-0.631,0.688-0.898
		c0.306-0.593,0.631-1.166,0.86-1.759c0.344,0.114,0.649,0.268,0.956,0.439C614.489,472.217,614.05,473.135,613.361,473.995z"/>
	<path fill="#F2F2F2" d="M635.732,484.07c-5.314-2.771-7.227-5.372-8.278-8.661h-2.887l-0.02,7.342
		c1.3-0.516,2.619-1.166,4.054-1.797v1.166c-1.052,0.479-3.385,1.587-4.838,2.313l-0.516-1.013c0.076-0.172,0.191-0.172,0.191-0.363
		v-7.648h-3.958v-1.089h4.895v-7.342l1.166-0.02v5.831c2.563-1.146,5.182-2.733,7.304-4.474l0.822,0.88
		c-2.409,1.777-5.162,3.479-8.145,4.703v0.421h10.382l0.019,1.089h-7.399c1.014,3.499,4.627,6.291,7.916,7.629L635.732,484.07z"/>
	<path fill="#F2F2F2" d="M508.725,506.292h-7.687v-1.109h7.687v-1.014h1.186v1.014h7.686v1.109h-7.686v4.129h-1.186V506.292z
		 M505.818,501.607c-1.186,0.975-2.447,1.797-3.862,2.275l-0.841-0.956c0.458-0.191,0.994-0.345,1.453-0.574
		c0.917-0.458,1.797-1.051,2.619-1.701L505.818,501.607z M502.435,498.204c-0.249-0.172-0.498-0.325-0.766-0.401l0.766-0.842
		c0.382,0.115,0.707,0.345,1.051,0.536c0.688,0.478,1.377,1.013,1.894,1.701l-0.88,0.86
		C503.982,499.274,503.18,498.701,502.435,498.204z M516.773,496.235h-6.386c-0.975,1.357-1.683,2.218-2.428,2.887
		c0.745-0.058,1.605-0.115,2.523-0.249c0.344-0.401,0.535-0.822,0.803-1.224l0.994,0.535c-0.535,0.899-1.186,1.778-1.95,2.563
		c-0.688,0.707-1.434,1.319-2.236,1.797c1.07-0.038,2.122-0.191,3.174-0.306c-0.191-0.268-0.402-0.497-0.65-0.707l0.975-0.497
		c0.86,0.745,1.53,1.739,2.046,2.695l-0.975,0.555c-0.153-0.363-0.363-0.765-0.612-1.109c-1.835,0.173-3.671,0.44-5.41,0.765
		l-0.708-1.128c0.44-0.152,0.784-0.42,1.167-0.649c0.86-0.535,1.759-1.377,2.466-2.142c-1.052,0.076-2.18,0.268-3.192,0.459
		l-0.593-1.032c1.262-0.67,2.466-1.95,3.192-3.212h-7.188v-1.109h7.188c-0.459-0.593-1.108-1.243-1.778-1.625l1.109-0.593
		c0.765,0.631,1.415,1.415,1.893,2.218h6.577V496.235z M513.638,499.849l-0.727-1.032c1.224-0.44,2.371-1.205,3.327-2.161l0.65,0.88
		C515.875,498.472,514.881,499.37,513.638,499.849z M512.931,501.722l0.611-0.917c1.435,0.363,2.792,0.994,3.882,2.046l-0.669,0.898
		C515.684,502.697,514.308,502.104,512.931,501.722z"/>
</g>
</svg>
