<?xml version="1.0" encoding="utf-8"?>
<!-- Generator: Adobe Illustrator 16.0.0, SVG Export Plug-In . SVG Version: 6.00 Build 0)  -->
<!DOCTYPE svg PUBLIC "-//W3C//DTD SVG 1.1//EN" "http://www.w3.org/Graphics/SVG/1.1/DTD/svg11.dtd">
<svg version="1.1" id="Layer_1" xmlns="http://www.w3.org/2000/svg" xmlns:xlink="http://www.w3.org/1999/xlink" x="0px" y="0px"
	 width="768px" height="1024px" viewBox="0 0 768 1024" enable-background="new 0 0 768 1024" xml:space="preserve">
<g>
	<path fill="#57B4E1" d="M289.989,591.624c1.303,0.014,2.537-0.435,2.768-1.573h1.262v9.495h-1.696v-6.701h-2.333L289.989,591.624
		L289.989,591.624z"/>
	<path fill="#57B4E1" d="M297.734,597.715h1.886v1.831c-0.014,1.112-0.76,1.926-1.831,2.145v-0.828
		c0.597-0.148,0.896-0.732,0.882-1.315h-0.937V597.715L297.734,597.715z"/>
	<path fill="#57B4E1" d="M307.61,594.798c0,2.157-0.557,4.938-3.282,4.938c-2.727,0-3.283-2.78-3.283-4.938
		c0-2.156,0.557-4.938,3.283-4.938C307.054,589.86,307.61,592.642,307.61,594.798z M306.064,594.798
		c0-1.979-0.381-3.647-1.736-3.647c-1.356,0-1.736,1.668-1.736,3.647c0,1.98,0.38,3.649,1.736,3.649
		C305.684,598.447,306.064,596.778,306.064,594.798z"/>
	<path fill="#57B4E1" d="M313.443,592.451c-0.068-0.773-0.583-1.302-1.385-1.302c-1.682,0-1.872,2.008-1.967,3.255l0.027,0.026
		c0.42-0.746,1.207-1.126,2.048-1.126c1.886,0,2.998,1.37,2.998,3.188c0,1.845-1.262,3.241-3.161,3.241
		c-2.794,0-3.459-2.197-3.459-4.965c0-2.266,0.896-4.91,3.581-4.91c1.506,0,2.781,1.045,2.862,2.591L313.443,592.451
		L313.443,592.451z M313.619,596.467c0-1.018-0.557-1.939-1.668-1.939c-1.126,0-1.709,0.896-1.709,1.939
		c0,1.031,0.583,1.98,1.709,1.98C313.063,598.447,313.619,597.484,313.619,596.467z"/>
	<path fill="#57B4E1" d="M322.667,594.798c0,2.157-0.556,4.938-3.282,4.938c-2.726,0-3.283-2.78-3.283-4.938
		c0-2.156,0.558-4.938,3.283-4.938C322.111,589.86,322.667,592.642,322.667,594.798z M321.121,594.798
		c0-1.979-0.38-3.647-1.736-3.647c-1.355,0-1.735,1.668-1.735,3.647c0,1.98,0.38,3.649,1.735,3.649
		C320.741,598.447,321.121,596.778,321.121,594.798z"/>
</g>
<g>
	<path fill="#57B4E1" d="M632.776,588.314h-6.483c0.014-1.561,0.813-2.74,2.089-3.596c1.234-0.896,2.835-1.642,2.862-3.12
		c0.014-0.678-0.271-1.682-1.602-1.682c-1.221,0-1.587,1.044-1.628,2.374h-1.547c0-2.103,1.153-3.663,3.271-3.663
		c2.318,0,3.052,1.695,3.052,2.917c0,1.505-1.03,2.441-2.116,3.201c-1.099,0.76-2.251,1.343-2.521,2.184h4.625L632.776,588.314
		L632.776,588.314z"/>
	<path fill="#57B4E1" d="M636.385,582.753c1.031,0.041,2.104-0.326,2.104-1.492c0-0.801-0.624-1.343-1.479-1.343
		c-1.07,0-1.601,0.963-1.573,1.939h-1.547c0.082-1.846,1.234-3.229,3.147-3.229c1.479,0,2.998,0.854,2.998,2.537
		c0,0.949-0.436,1.709-1.344,2.034v0.026c1.071,0.218,1.724,1.153,1.724,2.374c0,1.79-1.547,2.902-3.364,2.902
		c-2.198,0-3.297-1.329-3.337-3.31h1.546c-0.041,1.152,0.583,2.021,1.791,2.021c1.03,0,1.817-0.61,1.817-1.695
		c0-1.479-1.262-1.669-2.482-1.613V582.753L636.385,582.753z"/>
	<path fill="#57B4E1" d="M642.489,578.819h4.91v1.383h-3.759l-0.487,2.415l0.026,0.026c0.421-0.462,1.112-0.719,1.75-0.719
		c1.887,0,2.972,1.356,2.972,3.174c0,1.521-0.949,3.404-3.283,3.404c-1.831,0-3.255-0.99-3.323-2.889h1.547
		c0.095,1.018,0.746,1.601,1.75,1.601c1.315,0,1.764-0.937,1.764-2.089c0-1.045-0.557-1.979-1.805-1.979
		c-0.65,0-1.289,0.202-1.533,0.867h-1.546L642.489,578.819z"/>
</g>
<g>
	<path fill="#57B4E1" d="M292.005,247.251h-6.483c0.014-1.56,0.813-2.74,2.089-3.595c1.234-0.896,2.835-1.642,2.862-3.12
		c0.014-0.678-0.271-1.682-1.601-1.682c-1.221,0-1.587,1.045-1.628,2.374h-1.547c0-2.103,1.153-3.663,3.27-3.663
		c2.319,0,3.052,1.696,3.052,2.917c0,1.506-1.03,2.442-2.116,3.202c-1.099,0.759-2.251,1.343-2.522,2.184h4.625L292.005,247.251
		L292.005,247.251z"/>
	<path fill="#57B4E1" d="M299.575,242.504c0,2.157-0.557,4.938-3.282,4.938c-2.726,0-3.283-2.781-3.283-4.938
		c0-2.157,0.557-4.938,3.283-4.938C299.019,237.566,299.575,240.347,299.575,242.504z M298.029,242.504
		c0-1.98-0.38-3.649-1.736-3.649c-1.356,0-1.736,1.669-1.736,3.649s0.38,3.649,1.736,3.649
		C297.649,246.153,298.029,244.484,298.029,242.504z"/>
	<path fill="#57B4E1" d="M300.985,245.42h1.886v1.831c-0.014,1.112-0.76,1.926-1.831,2.143v-0.827
		c0.597-0.149,0.896-0.732,0.882-1.316h-0.937V245.42L300.985,245.42z"/>
	<path fill="#57B4E1" d="M310.888,245h-1.221v2.252h-1.465V245h-4.07v-1.533l4.07-5.711h1.465v6.023h1.221V245z M305.327,243.779
		h2.876v-4.178h-0.027L305.327,243.779z"/>
	<path fill="#57B4E1" d="M311.81,237.756h6.498v1.289c-1.979,2.238-3.297,4.775-3.541,8.207h-1.694
		c0.203-2.998,1.709-5.915,3.662-8.112h-4.925V237.756L311.81,237.756z"/>
	<path fill="#57B4E1" d="M324.221,240.157c-0.067-0.773-0.584-1.302-1.384-1.302c-1.682,0-1.872,2.008-1.967,3.256l0.027,0.027
		c0.42-0.746,1.206-1.125,2.048-1.125c1.886,0,2.998,1.37,2.998,3.188c0,1.845-1.263,3.242-3.161,3.242
		c-2.794,0-3.459-2.198-3.459-4.965c0-2.265,0.896-4.911,3.581-4.911c1.506,0,2.78,1.044,2.861,2.591L324.221,240.157
		L324.221,240.157z M324.397,244.172c0-1.018-0.557-1.94-1.669-1.94c-1.126,0-1.709,0.896-1.709,1.94c0,1.031,0.583,1.98,1.709,1.98
		C323.841,246.153,324.397,245.189,324.397,244.172z"/>
</g>
<g>
	<path fill="#57B4E1" d="M627.49,217.872h4.91v1.384h-3.759l-0.487,2.415l0.026,0.027c0.422-0.461,1.113-0.719,1.75-0.719
		c1.888,0,2.972,1.356,2.972,3.174c0,1.519-0.949,3.405-3.283,3.405c-1.83,0-3.254-0.99-3.322-2.889h1.547
		c0.094,1.017,0.746,1.601,1.75,1.601c1.314,0,1.762-0.936,1.762-2.089c0-1.044-0.555-1.98-1.803-1.98
		c-0.651,0-1.289,0.204-1.533,0.868h-1.547L627.49,217.872z"/>
	<path fill="#57B4E1" d="M635.02,217.872h4.91v1.384h-3.758l-0.488,2.415l0.027,0.027c0.42-0.461,1.111-0.719,1.75-0.719
		c1.885,0,2.971,1.356,2.971,3.174c0,1.519-0.948,3.405-3.282,3.405c-1.832,0-3.257-0.99-3.324-2.889h1.547
		c0.096,1.017,0.746,1.601,1.75,1.601c1.315,0,1.764-0.936,1.764-2.089c0-1.044-0.557-1.98-1.805-1.98
		c-0.65,0-1.289,0.204-1.533,0.868h-1.545L635.02,217.872z"/>
	<path fill="#57B4E1" d="M643.971,221.806c1.031,0.041,2.104-0.326,2.104-1.492c0-0.8-0.625-1.343-1.479-1.343
		c-1.071,0-1.602,0.963-1.573,1.94h-1.548c0.082-1.845,1.234-3.229,3.148-3.229c1.479,0,2.998,0.854,2.998,2.537
		c0,0.95-0.436,1.709-1.344,2.035v0.027c1.071,0.217,1.723,1.153,1.723,2.374c0,1.791-1.547,2.903-3.363,2.903
		c-2.198,0-3.297-1.33-3.338-3.31h1.547c-0.041,1.153,0.582,2.021,1.791,2.021c1.029,0,1.816-0.61,1.816-1.696
		c0-1.479-1.262-1.668-2.482-1.614V221.806L643.971,221.806z"/>
</g>
</svg>
