<?xml version="1.0" encoding="utf-8"?>
<!-- Generator: Adobe Illustrator 16.0.0, SVG Export Plug-In . SVG Version: 6.00 Build 0)  -->
<!DOCTYPE svg PUBLIC "-//W3C//DTD SVG 1.1//EN" "http://www.w3.org/Graphics/SVG/1.1/DTD/svg11.dtd">
<svg version="1.1" id="Layer_1" xmlns="http://www.w3.org/2000/svg" xmlns:xlink="http://www.w3.org/1999/xlink" x="0px" y="0px"
	 width="768px" height="1024px" viewBox="0 0 768 1024" enable-background="new 0 0 768 1024" xml:space="preserve">
<g>
	<path fill="#57B4E1" d="M257.073,485.335c0.109-0.891,0.218-1.26,0.521-1.869c0.587-1.173,1.586-2.303,3.15-3.585l0.718-0.587
		c2.868-2.346,3.954-3.824,3.954-5.301c0-1.564-1.238-2.695-2.934-2.695c-1.868,0-3.02,1.174-3.041,3.129l-1.956-0.217
		c0.261-2.912,2.042-4.498,5.041-4.498c2.89,0,4.867,1.76,4.867,4.324c0,1.847-1.087,3.498-3.824,5.802l-1.564,1.325
		c-1.282,1.086-1.804,1.651-2.238,2.347h7.648v1.825H257.073z"/>
	<path fill="#57B4E1" d="M270.375,470.929V469.3h18.991v1.65h-11.277c0,1.239-0.021,2.282-0.087,3.173h8.04
		c-0.283,4.367-0.848,8.191-1.869,11.146c-0.239,0.674-0.935,1.282-1.673,1.391c-1,0.174-1.782-0.325-2.651-0.63l-0.348-2.021
		c0.608,0.174,0.913,0.478,1.195,0.608c0.564,0.174,1.369,0.782,1.651,0.087c1.238-3.042,1.564-5.628,1.847-8.931h-6.279
		c-0.065,0.63-0.152,1.217-0.282,1.891c-0.739,3.585-2.804,7.257-6.302,9.343l-1.434-1.412c2.65-1.435,4.498-3.911,5.497-6.345
		c0.891-2.217,0.869-5.432,0.935-8.322H270.375z"/>
	<path fill="#57B4E1" d="M188.021,881.68c-2.999,0-5.128-1.978-5.128-4.759c0-1.325,0.521-2.498,1.434-3.237
		c0.457-0.369,0.739-0.5,1.521-0.695c-0.631-0.239-0.869-0.348-1.195-0.63c-0.738-0.587-1.151-1.5-1.151-2.543
		c0-2.346,1.868-4.02,4.476-4.02c2.629,0,4.52,1.717,4.52,4.063c0,1.521-0.76,2.542-2.281,3.107c0.738,0.261,1,0.391,1.456,0.738
		c0.935,0.739,1.456,1.935,1.456,3.26C193.128,879.702,190.977,881.68,188.021,881.68z M187.978,873.813
		c-1.803,0-3.129,1.348-3.129,3.129c0,1.826,1.348,3.173,3.194,3.173c1.825,0,3.129-1.304,3.129-3.129
		S189.825,873.813,187.978,873.813z M187.999,867.382c-1.434,0-2.52,1.043-2.52,2.434s1.064,2.434,2.542,2.434
		c1.434,0,2.521-1.021,2.521-2.39C190.542,868.447,189.434,867.382,187.999,867.382z"/>
	<path fill="#57B4E1" d="M195.978,881.419v-2.173h2.173v2.173H195.978z"/>
	<path fill="#57B4E1" d="M206.345,881.68c-1.978,0-3.737-1.064-4.563-2.781c-0.587-1.217-0.826-2.673-0.826-4.759
		c0-5.453,1.912-8.344,5.563-8.344c2.477,0,4.106,1.435,4.433,3.868l-1.912,0.174c-0.218-1.608-1.087-2.456-2.521-2.456
		c-1.412,0-2.477,0.761-3.021,2.13c-0.391,0.999-0.651,2.434-0.651,3.585v0.305c0.348-0.543,0.521-0.739,0.912-1.064
		c0.805-0.631,1.825-1,2.868-1c2.63,0,4.585,2.151,4.585,5.02C211.212,879.464,209.191,881.68,206.345,881.68z M206.236,873.01
		c-1.782,0-3.086,1.435-3.086,3.347c0,2.129,1.369,3.759,3.151,3.759c1.716,0,2.955-1.521,2.955-3.629
		C209.257,874.423,208.04,873.01,206.236,873.01z"/>
	<path fill="#57B4E1" d="M218.126,881.68c-2.825,0-4.759-1.673-4.998-4.346l1.999-0.152c0.282,1.869,1.369,2.934,2.999,2.934
		c1.89,0,3.28-1.608,3.28-3.803c0-2.129-1.325-3.52-3.324-3.52c-1.195,0-2.238,0.543-2.825,1.499l-1.803-0.217l1.521-7.996h7.714
		v1.824h-6.192l-0.848,4.172c0.913-0.63,1.956-0.978,2.955-0.978c2.781,0,4.823,2.151,4.823,5.041
		C223.427,879.354,221.189,881.68,218.126,881.68z"/>
	<path fill="#57B4E1" d="M228.842,873.836c-1.978,0-3.281-1.608-3.281-4.085c0-2.564,1.261-4.15,3.281-4.15
		c2.063,0,3.368,1.586,3.368,4.129C232.21,872.206,230.884,873.836,228.842,873.836z M228.885,866.926
		c-1.13,0-1.651,0.913-1.651,2.868c0,1.782,0.565,2.717,1.651,2.717c1.13,0,1.673-0.913,1.673-2.869
		C230.558,867.839,229.972,866.926,228.885,866.926z M230.472,882.006h-1.587l8.518-16.405h1.543L230.472,882.006z M238.901,882.006
		c-1.977,0-3.28-1.608-3.28-4.085c0-2.564,1.26-4.15,3.28-4.15c2.064,0,3.368,1.586,3.368,4.106
		C242.27,880.376,240.944,882.006,238.901,882.006z M238.945,875.074c-1.13,0-1.651,0.935-1.651,2.89
		c0,1.782,0.564,2.717,1.651,2.717c1.13,0,1.673-0.913,1.673-2.869C240.618,876.009,240.054,875.074,238.945,875.074z"/>
	<path fill="#57B4E1" d="M572.418,877.703v3.716h-1.912v-3.716h-6.736v-1.76l7.084-10.082h1.564v10.082h2.107v1.76H572.418z
		 M570.506,868.925l-4.867,7.019h4.867V868.925z"/>
	<path fill="#57B4E1" d="M581.766,881.419v-12.168c-0.631,0.608-1.24,1.021-2.369,1.63c-0.695,0.369-0.891,0.456-1.455,0.673v-1.847
		c2.063-0.956,3.779-2.477,4.496-3.911h1.24v15.623H581.766z"/>
	<path fill="#57B4E1" d="M589.547,881.419v-2.173h2.174v2.173H589.547z"/>
	<path fill="#57B4E1" d="M602.631,877.703v3.716h-1.912v-3.716h-6.736v-1.76l7.084-10.082h1.564v10.082h2.107v1.76H602.631z
		 M600.719,868.925l-4.867,7.019h4.867V868.925z"/>
	<path fill="#57B4E1" d="M611.695,881.68c-2.824,0-4.758-1.673-4.998-4.346l2-0.152c0.281,1.869,1.369,2.934,2.998,2.934
		c1.891,0,3.281-1.608,3.281-3.803c0-2.129-1.326-3.52-3.324-3.52c-1.195,0-2.238,0.543-2.826,1.499l-1.803-0.217l1.521-7.996h7.713
		v1.824h-6.191l-0.848,4.172c0.912-0.63,1.955-0.978,2.955-0.978c2.781,0,4.822,2.151,4.822,5.041
		C616.996,879.354,614.76,881.68,611.695,881.68z"/>
	<path fill="#57B4E1" d="M622.412,873.836c-1.979,0-3.281-1.608-3.281-4.085c0-2.564,1.26-4.15,3.281-4.15
		c2.063,0,3.367,1.586,3.367,4.129C625.779,872.206,624.453,873.836,622.412,873.836z M622.455,866.926
		c-1.131,0-1.652,0.913-1.652,2.868c0,1.782,0.566,2.717,1.652,2.717c1.129,0,1.672-0.913,1.672-2.869
		C624.127,867.839,623.541,866.926,622.455,866.926z M624.041,882.006h-1.586l8.518-16.405h1.543L624.041,882.006z M632.471,882.006
		c-1.977,0-3.279-1.608-3.279-4.085c0-2.564,1.26-4.15,3.279-4.15c2.064,0,3.369,1.586,3.369,4.106
		C635.84,880.376,634.514,882.006,632.471,882.006z M632.516,875.074c-1.131,0-1.652,0.935-1.652,2.89
		c0,1.782,0.564,2.717,1.652,2.717c1.129,0,1.672-0.913,1.672-2.869C634.188,876.009,633.623,875.074,632.516,875.074z"/>
	<path fill="#57B4E1" d="M525.096,509.083v-12.168c-0.63,0.608-1.239,1.021-2.368,1.63c-0.695,0.369-0.892,0.456-1.456,0.673v-1.847
		c2.063-0.956,3.78-2.477,4.497-3.911h1.239v15.623H525.096z"/>
	<path fill="#57B4E1" d="M536.897,509.344c-2.824,0-4.758-1.673-4.997-4.346l1.999-0.152c0.282,1.869,1.369,2.934,2.998,2.934
		c1.891,0,3.281-1.608,3.281-3.803c0-2.129-1.325-3.52-3.324-3.52c-1.195,0-2.238,0.543-2.824,1.499l-1.804-0.217l1.521-7.996h7.714
		v1.824h-6.192l-0.848,4.172c0.912-0.63,1.955-0.978,2.955-0.978c2.781,0,4.824,2.151,4.824,5.041
		C542.2,507.019,539.962,509.344,536.897,509.344z"/>
	<path fill="#57B4E1" d="M544.963,509.083v-2.173h2.173v2.173H544.963z"/>
	<path fill="#57B4E1" d="M558.046,505.367v3.716h-1.912v-3.716h-6.735v-1.76l7.083-10.082h1.564v10.082h2.107v1.76H558.046z
		 M556.134,496.589l-4.867,7.019h4.867V496.589z"/>
	<path fill="#57B4E1" d="M567.22,509.344c-2.999,0-5.128-1.978-5.128-4.759c0-1.325,0.521-2.498,1.434-3.237
		c0.456-0.369,0.739-0.5,1.521-0.695c-0.63-0.239-0.869-0.348-1.195-0.63c-0.739-0.587-1.151-1.5-1.151-2.543
		c0-2.346,1.868-4.02,4.476-4.02c2.63,0,4.52,1.717,4.52,4.063c0,1.521-0.761,2.542-2.281,3.107
		c0.739,0.261,0.999,0.391,1.456,0.738c0.934,0.739,1.455,1.935,1.455,3.26C572.325,507.366,570.175,509.344,567.22,509.344z
		 M567.176,501.478c-1.804,0-3.129,1.348-3.129,3.129c0,1.826,1.348,3.173,3.194,3.173c1.825,0,3.129-1.304,3.129-3.129
		S569.022,501.478,567.176,501.478z M567.198,495.046c-1.435,0-2.521,1.043-2.521,2.434s1.065,2.434,2.543,2.434
		c1.434,0,2.521-1.021,2.521-2.39C569.74,496.111,568.632,495.046,567.198,495.046z"/>
	<path fill="#57B4E1" d="M577.827,501.5c-1.978,0-3.281-1.608-3.281-4.085c0-2.564,1.26-4.15,3.281-4.15
		c2.064,0,3.367,1.586,3.367,4.129C581.194,499.87,579.869,501.5,577.827,501.5z M577.87,494.59c-1.13,0-1.651,0.913-1.651,2.868
		c0,1.782,0.565,2.717,1.651,2.717c1.13,0,1.674-0.913,1.674-2.869C579.544,495.503,578.957,494.59,577.87,494.59z M579.456,509.67
		h-1.586l8.518-16.405h1.543L579.456,509.67z M587.888,509.67c-1.978,0-3.281-1.608-3.281-4.085c0-2.564,1.26-4.15,3.281-4.15
		c2.063,0,3.367,1.586,3.367,4.106C591.255,508.04,589.93,509.67,587.888,509.67z M587.931,502.738c-1.13,0-1.651,0.935-1.651,2.89
		c0,1.782,0.565,2.717,1.651,2.717c1.13,0,1.673-0.913,1.673-2.869C589.604,503.673,589.039,502.738,587.931,502.738z"/>
</g>
</svg>
