<?xml version="1.0" encoding="utf-8"?>
<!-- Generator: Adobe Illustrator 16.0.0, SVG Export Plug-In . SVG Version: 6.00 Build 0)  -->
<!DOCTYPE svg PUBLIC "-//W3C//DTD SVG 1.1//EN" "http://www.w3.org/Graphics/SVG/1.1/DTD/svg11.dtd">
<svg version="1.1" id="Layer_1" xmlns="http://www.w3.org/2000/svg" xmlns:xlink="http://www.w3.org/1999/xlink" x="0px" y="0px"
	 width="768px" height="1024px" viewBox="0 0 768 1024" enable-background="new 0 0 768 1024" xml:space="preserve">
<g>
	<line fill="none" stroke="#2A79BE" stroke-miterlimit="10" x1="99.974" y1="18.996" x2="59.621" y2="78.871"/>
	<g>
		<g>
			<path fill="#58B5E1" d="M97.746,64.123v5.625l3.147-1.548v1.987l-4.36,2.297l-1.135-1.807c0.231-0.284,0.335-0.593,0.335-1.29
				v-5.264h-3.638V62.24h3.638v-2.684h-1.161c-0.567,0.774-1.136,1.29-2.142,2.167l-1.445-1.548c2.349-1.909,4-5.444,4.283-9.779
				l1.858,0.49c0.077,1.394-0.129,2.709-0.232,2.942h3.896v1.883H96.43c-0.231,0.723-0.567,1.445-0.8,1.961h4.902v1.884h-2.786
				v2.684h3.226v1.883H97.746z M113.46,72.999c-1.522-0.387-2.787-1.187-3.896-2.116c-2.193-2.245-3.328-5.186-3.561-8.076h-2.142
				v7.921l3.896-1.316v1.935l-5.238,1.91l-0.98-1.806c0.284-0.284,0.31-0.568,0.31-1.109V51.454h9.65v11.353h-3.639
				c0.104,1.187,0.49,2.684,0.955,3.586c1.084-0.542,2.064-1.574,3.045-3.096l1.496,1.187c-1.109,1.625-2.451,2.735-3.741,3.458
				c0.903,1.574,2.916,2.761,5.212,3.354L113.46,72.999z M109.563,53.337h-5.702v2.813h5.702V53.337z M109.563,57.931h-5.702v2.993
				h5.702V57.931z"/>
			<path fill="#58B5E1" d="M124.662,50.912c-0.335,2.09-0.929,4.128-1.703,5.935v16.617h-1.935V60.253
				c-0.852,1.083-1.445,1.961-2.581,3.044l-1.444-1.393c2.322-2.374,5.057-5.986,5.883-11.792L124.662,50.912z M134.545,63.633
				c1.187,3.122,3.199,4.799,6.45,6.477l-1.522,1.445c-2.838-1.368-5.16-3.561-6.708-7.354l-0.052,9.186h-1.961v-8.85
				c-0.697,2.038-3.071,5.418-6.193,7.096l-1.444-1.497c2.399-1.11,4.541-3.458,6.012-6.502h-5.264V61.75h6.915v-2.09l-5.108,0.026
				v-8.309h11.895v8.309h-4.851v2.064h6.76v1.883H134.545z M135.603,53.234h-7.973v4.567h7.973V53.234z"/>
			<path fill="#58B5E1" d="M147.63,55.995h3.174v1.936h-3.148v15.198h-1.961V57.956h-2.477v-1.961h2.451v-5.857h1.961V55.995z
				 M153.926,60.278c-0.465,2.193-1.445,4.025-2.891,5.806c-0.619-0.387-1.083-0.619-1.677-1.083
				c1.367-1.729,2.348-3.38,2.864-5.496L153.926,60.278z M163.782,59.685c1.394,1.677,2.296,3.509,2.58,5.677
				c-0.619,0.335-1.084,0.49-1.78,0.826c-0.438-1.91-0.98-3.432-1.678-4.542c-0.258,3.251-0.645,6.657-1.212,9.418
				c-0.181,0.877-1.11,1.703-1.987,1.832c-1.135,0.155-2.193-0.129-3.303-0.387l-0.154-2.038c1.212,0.206,2.09,0.671,2.915,0.438
				c0.413-0.361,0.568-0.903,0.697-1.471c0.722-2.941,1.083-8.979,1.135-12.514h-3.354c-0.052,0.258-0.025,0.748-0.025,1.316
				c-0.052,1.78-0.129,3.845-0.542,5.547c-0.929,3.716-2.451,6.554-5.96,9.392l-1.42-1.548c2.426-1.884,4.181-4.232,5.006-6.812
				c0.774-2.477,1.007-5.29,0.929-7.844h-4.36v-1.987h4.36l0.026-4.902l1.909-0.026c0.104,1.548,0.025,4.18,0.025,4.928h5.394
				c0.103,2.039,0.052,3.845-0.052,5.083L163.782,59.685z"/>
			<path fill="#58B5E1" d="M184.531,70.754c1.238,0,3.045-0.078,3.432-0.207c0.258-0.129,0.438-0.671,0.438-1.161l0.026-16.204
				l-15.637-0.025v20.358h-2.038V51.248h19.713l0.026,18.552c0,1.187-0.465,2.399-1.161,2.761c-0.697,0.258-3.252,0.361-4.104,0.31
				L184.531,70.754z M187.602,55.97l0.026,1.909h-13.624l0.025-1.909H187.602z M185.512,60.666v7.792h-9.805v-7.767L185.512,60.666z
				 M177.668,66.548h5.908v-3.948l-5.908,0.026V66.548z"/>
			<path fill="#58B5E1" d="M214.597,60.201c0,3.277-0.129,6.863-1.29,9.134c-0.594,1.161-1.651,2.787-2.735,3.741l-1.496-1.445
				c2.993-2.761,3.535-5.935,3.535-7.844V53.002h8.695c-0.646-0.877-2.064-1.754-3.2-2.245l1.42-1.29
				c1.367,0.619,2.761,1.393,3.741,2.684l-0.955,0.851h7.432v7.199H214.597z M227.782,54.886h-13.211v3.432h13.211V54.886z
				 M227.317,72.999v-1.78h-9.779v1.78h-1.961V62.833h13.701v10.166H227.317z M227.317,64.717h-9.779v4.619h9.779V64.717z"/>
			<path fill="#58B5E1" d="M237.977,63.168l-0.619-1.91l2.064,0.104c0.181,0,0.517-0.232,0.49-0.438v-2.09l-3.638,0.852l-1.11-1.806
				c1.703-0.284,3.535-0.671,4.774-0.98l-0.026-2.4h-3.818l0.025-1.883h3.793v-2.503h1.961l-0.025,2.477h2.528v1.909h-2.528
				l0.025,2.039l2.658-0.671v1.806l-2.684,0.697l0.025,2.864c0,0.929-0.542,1.935-1.651,1.935H237.977z M250.724,71.038
				c0.696,0.026,1.419,0.413,1.884-0.026c0.361-0.464,0.542-1.032,0.671-2.142l0.31-2.761l-6.013-0.026
				c-0.748,2.555-2.503,4.387-4.876,5.418c-1.807,0.774-3.871,1.368-5.884,1.548l-0.851-1.935c3.586-0.232,6.683-1.084,8.85-3.845
				c0.258-0.335,0.568-0.748,0.748-1.161h-8.953v-1.883h9.314l0.155-1.445l1.909,0.335l-0.181,1.11h7.767
				c0,2.245-0.232,3.767-0.567,5.728c-0.232,1.316-0.8,3.225-3.019,2.993c-0.749-0.078-1.626-0.181-2.478-0.31l-0.646-2.064
				L250.724,71.038z M254.903,53.028c0.052,2.89-0.103,5.754,1.084,7.999c0.206-0.542,0.413-1.264,0.542-1.884l1.677,1.265
				c-0.387,0.98-0.773,1.857-1.444,2.58c-0.232,0.232-0.697,0.335-1.059,0.31c-0.825-0.181-1.238-0.955-1.548-1.574
				c-0.465-0.98-0.696-2.013-0.852-2.941c-0.181-1.11-0.258-2.684-0.258-3.871l-2.399,0.026c-0.078,1.187-0.232,2.606-0.749,3.664
				c0.671,0.516,1.368,1.135,2.168,1.883l-1.342,1.29c-0.723-0.671-1.265-1.29-1.755-1.6c-1.109,1.316-2.838,2.193-4.747,2.941
				l-1.188-1.6c1.6-0.49,3.329-1.135,4.31-2.477c-0.517-0.387-1.213-0.903-2.245-1.264l1.032-1.471
				c0.98,0.387,1.6,0.903,2.167,1.161c0.336-0.67,0.438-1.729,0.49-2.554h-3.561v-1.884h3.535v-2.967h1.884v2.967H254.903z"/>
			<path fill="#58B5E1" d="M281.794,51.48v1.832h-4.851v6.167h5.908l-0.025,1.832h-5.857v11.74h-1.986v-11.74h-5.832
				c0.026,3.69-0.98,7.328-3.922,9.805c-1.058,0.877-2.013,1.419-3.226,1.935l-1.6-1.548c2.761-0.929,5.031-2.864,5.986-5.418
				c0.567-1.522,0.852-3.148,0.826-4.773h-6.296v-1.832h6.27v-6.167H261.9V51.48H281.794z M269.15,53.312v6.141h5.832v-6.141H269.15
				z"/>
			<path fill="#58B5E1" d="M308.374,61.517c0,4-0.517,6.657-1.239,9.47c-0.206,0.877-0.929,1.522-1.471,1.703
				c-1.058,0.335-3.096,0.104-4.076-0.077l-0.542-2.09l3.535,0.516c0.49-0.077,0.671-0.438,0.773-0.826
				c0.697-2.941,0.98-5.986,1.109-9.005h-14.475l-0.232,3.638c-0.181,2.864-1.084,5.367-3.199,8.412l-1.522-1.445
				c1.986-2.271,2.915-6.864,2.915-9.805V51.325h16.617v6.476h-14.682l0.025,1.522h16.463V61.517z M304.606,55.918v-2.709h-12.695
				v2.709H304.606z M293.718,70.574l-0.025-7.689h9.805v7.354l-1.936,0.026v-1.032h-5.908v1.342H293.718z M295.653,67.349
				l5.908,0.025v-2.632h-5.908V67.349z"/>
		</g>
	</g>
	<g>
		<g>
			<path fill="#58B5E1" d="M57.179,32.482h9.341v2.632h-7.147l-0.929,4.593l0.051,0.051c0.8-0.877,2.116-1.367,3.329-1.367
				c3.586,0,5.65,2.58,5.65,6.038c0,2.89-1.806,6.477-6.244,6.477c-3.483,0-6.192-1.884-6.321-5.496h2.941
				c0.181,1.935,1.419,3.045,3.328,3.045c2.503,0,3.354-1.781,3.354-3.974c0-1.987-1.058-3.767-3.432-3.767
				c-1.238,0-2.451,0.387-2.916,1.651h-2.941L57.179,32.482z"/>
		</g>
	</g>
</g>
<line fill="none" stroke="#58B5E1" stroke-width="1.5" stroke-miterlimit="10" stroke-dasharray="1.5,1.5" x1="-1" y1="932.521" x2="767" y2="932.521"/>
<line fill="none" stroke="#58B5E1" stroke-width="1.5" stroke-miterlimit="10" stroke-dasharray="1.5,1.5" x1="-1" y1="89.479" x2="767" y2="89.479"/>
</svg>
