<?xml version="1.0" encoding="utf-8"?>
<!-- Generator: Adobe Illustrator 16.0.0, SVG Export Plug-In . SVG Version: 6.00 Build 0)  -->
<!DOCTYPE svg PUBLIC "-//W3C//DTD SVG 1.1//EN" "http://www.w3.org/Graphics/SVG/1.1/DTD/svg11.dtd">
<svg version="1.1" id="Layer_1" xmlns="http://www.w3.org/2000/svg" xmlns:xlink="http://www.w3.org/1999/xlink" x="0px" y="0px"
	 width="768px" height="1024px" viewBox="0 0 768 1024" enable-background="new 0 0 768 1024" xml:space="preserve">
<g>
	<path fill="#FFFFFF" d="M351.264,219.639h-10.361v-4.551l10.641-14.281h4.445v14.736h3.255v4.096h-3.255v5.67h-4.725V219.639z
		 M351.264,207.037h-0.105l-6.335,8.506h6.441V207.037z"/>
	<path fill="#FFFFFF" d="M369.498,200.316c4.901,0,9.031,3.081,9.031,12.636c0,9.766-4.13,12.847-9.031,12.847
		c-4.83,0-8.961-3.081-8.961-12.847C360.537,203.397,364.668,200.316,369.498,200.316z M369.498,221.704
		c4.061,0,4.061-5.985,4.061-8.751c0-2.555,0-8.541-4.061-8.541c-3.99,0-3.99,5.985-3.99,8.541
		C365.508,215.718,365.508,221.704,369.498,221.704z"/>
	<path fill="#FFFFFF" d="M396.764,204.902h-10.115l-0.98,5.566l0.07,0.07c1.33-1.365,2.87-1.89,4.795-1.89
		c4.83,0,7.561,3.745,7.561,8.331c0,5.041-4.165,8.926-9.101,8.821c-4.76,0-9.031-2.625-9.101-7.771h4.971
		c0.245,2.17,1.855,3.675,4.026,3.675c2.59,0,4.234-2.275,4.234-4.726c0-2.555-1.574-4.585-4.234-4.585
		c-1.785,0-2.766,0.63-3.746,1.96h-4.48l2.416-13.546h13.686V204.902z"/>
	<path fill="#FFFFFF" d="M408.418,200.316c4.9,0,9.031,3.081,9.031,12.636c0,9.766-4.131,12.847-9.031,12.847
		c-4.83,0-8.961-3.081-8.961-12.847C399.457,203.397,403.588,200.316,408.418,200.316z M408.418,221.704
		c4.061,0,4.061-5.985,4.061-8.751c0-2.555,0-8.541-4.061-8.541c-3.99,0-3.99,5.985-3.99,8.541
		C404.428,215.718,404.428,221.704,408.418,221.704z"/>
	<path fill="#FFFFFF" d="M360.962,236.046v-1.5h17.484v1.521h-10.382c0,1.14-0.02,2.1-0.08,2.92h7.402
		c-0.26,4.021-0.78,7.542-1.721,10.262c-0.22,0.62-0.86,1.18-1.54,1.28c-0.92,0.16-1.641-0.3-2.44-0.58l-0.32-1.86
		c0.56,0.16,0.84,0.44,1.101,0.56c0.52,0.16,1.26,0.72,1.52,0.08c1.14-2.801,1.44-5.181,1.7-8.222h-5.781
		c-0.06,0.58-0.14,1.12-0.26,1.74c-0.68,3.301-2.581,6.682-5.801,8.602l-1.32-1.3c2.44-1.32,4.141-3.601,5.061-5.841
		c0.82-2.041,0.8-5.001,0.86-7.662H360.962z"/>
	<path fill="#FFFFFF" d="M392.266,247.369c0,0.56,0.399,0.8,0.76,0.8h2.36c0.58,0,0.78-1.4,1.12-3.001l1.541,0.5
		c-0.16,0.98-0.381,1.88-0.701,2.661c-0.3,0.72-1.04,1.38-1.82,1.38h-2.801c-1.66,0-2.061-1.46-2.061-2.561v-6.721l-2.54-0.02
		c0.06,5.821-2.7,8.262-6.241,10.242l-1.1-1.521c3.521-1.84,5.741-3.821,5.721-8.722h-4.581v-1.521l15.063,0.02v1.521l-4.721-0.02
		V247.369z M383.623,233.966h11.703v1.521h-11.703V233.966z"/>
</g>
<g>
	<path fill="#FFFFFF" d="M302.62,314.7c-0.608,1.748-2.166,3.571-3.933,4.483c-1.463,0.741-2.754,1.253-4.388,1.596l-1.083-1.292
		c3.363-0.532,6.535-1.881,7.846-4.787h-7.846v-1.387h8.283c0.19-0.551,0.323-1.767,0.323-2.583v-2.622h1.425
		c0,2.527,0.057,3.609-0.266,5.205h6.345v1.387H302.62z M307.578,309.266v-1.748h-12.595v1.748h-1.443v-3.134h7.618
		c-0.304-0.513-1.14-1.216-1.767-1.558l1.083-0.684c0.684,0.361,1.596,1.14,2.014,1.957l-0.608,0.247l7.143,0.038v3.134H307.578z
		 M298.061,313.199c-0.646-1.045-1.577-1.957-2.697-2.66l0.931-0.855c1.083,0.608,2.127,1.558,2.812,2.66L298.061,313.199z
		 M299.96,311.375c-0.627-1.14-1.501-1.995-2.622-2.754l0.969-0.817c1.121,0.646,2.128,1.671,2.792,2.792L299.96,311.375z
		 M308.49,320.854c-1.805-2.014-3.705-3.078-6.079-4.141l0.741-1.064c1.9,0.703,4.711,2.394,6.326,4.084L308.49,320.854z"/>
	<path fill="#FFFFFF" d="M318.257,309.874v1.406h-2.317v4.046c0.494-0.095,1.539-0.437,2.488-0.665v1.406l-6.041,1.672
		c-0.304-0.494-0.551-0.874-0.931-1.482c1.197-0.152,2.204-0.342,3.059-0.57v-4.426h-2.28v-1.368h2.261v-3.115h-2.489v-1.368h6.44
		v1.349h-2.507v3.115H318.257z M323.843,307.101c0.095,3.477-0.342,6.706-1.862,9.442c-0.494,0.874-1.197,1.69-2.033,2.394
		c-0.874,0.741-1.805,1.33-2.888,1.88l-1.121-1.178c1.805-0.817,3.552-1.824,4.54-3.458c0.779-1.311,1.33-2.735,1.615-4.236
		c0.285-1.558,0.323-3.078,0.323-4.977L323.843,307.101z M327.091,304.726l0.019,10.354c-0.513,0.038-0.931,0.038-1.425,0.019
		v-8.986h-5.091v8.948h-1.425v-10.334H327.091z M328.497,317.644c-0.247,1.178-0.418,2.489-1.501,2.489h-2.317
		c-0.627,0-1.292-0.627-1.292-1.33v-5.091h1.444v4.844c0.038,0.095,0.228,0.228,0.361,0.228h1.425
		c0.38-0.057,0.266-0.513,0.418-0.893l0.076-0.931L328.497,317.644z"/>
	<path fill="#FFFFFF" d="M337.067,304.498c-0.494,1.52-1.063,3.04-1.69,4.351v12.139h-1.463v-9.784
		c-0.399,0.551-1.178,1.482-2.014,2.432l-1.197-0.893c3.04-3.305,3.723-5.167,5.034-8.814L337.067,304.498z M348.01,316.751
		c-0.228,1.216-0.57,2.317-1.045,3.381c-0.285,0.437-0.76,0.703-1.292,0.684c-1.045-0.171-1.919-0.798-2.66-1.539
		c-2.09-2.146-2.907-4.825-3.249-7.751l-3.287,0.285l-0.171-1.425c1.254-0.095,2.336-0.209,3.287-0.285
		c-0.152-1.88-0.323-3.97-0.304-6.136l1.52,0.019c0.057,2.298,0.133,4.388,0.342,5.984c1.767-0.133,3.705-0.304,5.775-0.513
		l0.152,1.406l-5.756,0.532c0.285,2.451,0.893,4.73,2.641,6.592c0.494,0.513,0.836,0.76,1.406,1.102
		c0.209,0.095,0.437,0.114,0.532-0.095c0.342-0.722,0.57-1.976,0.703-2.887L348.01,316.751z M345.008,308.734
		c-0.874-1.216-1.767-2.375-3.078-3.191l1.064-0.95c1.311,0.779,2.355,1.995,3.191,3.172L345.008,308.734z"/>
	<path fill="#FFFFFF" d="M352.382,319.316c0.57-0.285,0.741-0.76,0.741-1.273v-3.989h-2.698v-1.33h2.698v-1.918h-0.855
		c-0.418,0.57-0.665,0.912-1.406,1.558l-1.064-1.14c1.843-1.596,2.774-3.971,2.964-7.143l1.368,0.342
		c0.057,1.026-0.095,2.033-0.171,2.204h2.812v1.368h-3.135c-0.171,0.532-0.437,1.064-0.589,1.444h3.515v1.368h-1.976v1.9h2.317
		v1.349h-2.317v4.255l2.432-1.14v1.463l-3.762,1.919L352.382,319.316z M358.993,309.095c-0.399-1.481-1.235-2.603-2.337-3.723
		l1.273-0.646c1.102,1.083,1.881,2.204,2.375,3.647L358.993,309.095z M361.691,319.145c1.025,0.076,1.462,0.133,1.957,0.095
		c0.418-0.019,0.532-0.266,0.532-0.608v-1.672h-5.129v4.047h-1.444v-11.456h3.249v-5.642h1.462v5.642h3.325v9.46
		c0,0.893-0.741,1.653-1.786,1.653h-1.691L361.691,319.145z M359.05,310.919v1.615h5.129v-1.615H359.05z M359.05,313.902v1.69h5.129
		v-1.69H359.05z M366.364,305.372c-0.532,1.406-1.272,2.603-2.469,3.686l-1.178-0.912c1.216-0.988,1.957-2.166,2.565-3.609
		L366.364,305.372z"/>
	<path fill="#FFFFFF" d="M376.701,306.626c-1.596,0.19-3.818,0.247-5.889,0.304l-0.854-1.406c4.483,0.095,10.106-0.418,13.564-1.653
		l0.798,1.083c-2.09,0.836-4.161,1.235-6.136,1.5v2.812h5.414v1.387h-5.414v2.906l6.971-0.019v1.387h-6.99v4.54
		c0,0.893-0.304,1.52-1.349,1.52h-2.622l-0.532-1.558c1.083,0.095,1.786,0.171,2.394,0.152c0.418-0.019,0.646-0.19,0.646-0.665
		v-3.989h-7.257l-0.019-1.368h7.276l0.019-2.906h-5.699l-0.019-1.387h5.699V306.626z"/>
	<path fill="#FFFFFF" d="M387.361,318.043c2.318-0.665,3.914-1.045,6.288-1.824v1.406l-5.338,1.729L387.361,318.043z
		 M393.688,313.294v1.349c-2.108,0.418-3.609,0.608-5.301,0.931l-0.588-1.253c1.254-1.007,1.994-2.128,2.906-3.382l-2.318,0.266
		c-0.209-0.494-0.36-0.893-0.588-1.33c1.481-1.861,2.45-3.742,3.229-6.003l1.502,0.627c-0.855,1.786-1.805,3.686-2.945,5.148
		c0.342,0,1.178-0.114,2.109-0.228c0.418-0.741,0.816-1.501,1.272-2.451l1.349,0.684c-1.254,2.584-2.299,4.293-3.989,6.117
		L393.688,313.294z M403.301,320.893c-1.254-1.33-2.869-2.526-4.275-3.116c-1.463,2.489-4.691,2.926-6.648,3.192l-0.589-1.463
		c0.532,0,1.102-0.133,1.52-0.19c2.032-0.285,4.065-1.387,4.863-3.116h-4.331v-1.349l4.73-0.019c0.17-1.235,0.189-2.641,0.228-4.236
		l1.405,0.038c-0.037,1.596-0.076,2.944-0.209,4.198h4.123v1.387h-4.369l-0.172,0.399c1.615,0.722,3.42,1.558,4.959,3.268
		L403.301,320.893z M396.215,314.624c-0.646-0.76-1.672-1.577-2.756-2.223c0.267-0.38,0.494-0.665,0.723-1.064
		c1.14,0.532,2.127,1.292,3.039,2.223L396.215,314.624z M394.011,310.064v-1.387h3.666v-1.444h-3.229v-1.368h3.211v-1.918h1.443
		v1.918h3.971v1.368h-3.971v1.482h4.674v1.33c-0.229,0.551-0.723,1.596-1.121,2.223l-1.406-0.703c0.532-0.627,0.836-1.14,0.988-1.5
		h-5.928c0.76,0.456,1.482,1.14,2.204,1.976l-1.063,0.969c-0.741-0.95-1.52-1.672-2.47-2.299l0.627-0.627L394.011,310.064z"/>
	<path fill="#FFFFFF" d="M410.636,313.161c-0.608,0.418-2.071,0.836-2.982,1.083l-0.685-1.311c1.92-0.399,3.99-1.102,4.883-2.488
		h-3.324c0.304-1.254,0.551-2.223,0.684-3.458h3.533v-0.627h-4.104v-1.292h4.104v-1.14c0.514-0.019,0.875,0,1.368,0l-0.019,1.121
		h2.85v-1.121h1.405v1.121h3.553v3.229h-3.553v0.836h4.825c-0.02,0.931-0.133,1.577-0.246,2.223
		c-0.096,0.494-0.229,1.197-0.836,1.368c-0.59,0.171-1.217-0.133-1.539-0.19v4.673h-1.444v-3.837h-7.048v4.199h-1.425V313.161z
		 M416.202,314.244c-0.134,1.634-0.532,2.925-1.425,4.104c-1.121,1.481-3.686,2.279-6.098,2.545l-0.703-1.387
		c1.957-0.247,3.704-0.475,5.109-1.463c1.368-0.969,1.635-2.413,1.805-4.198L416.202,314.244z M410.161,309.152h2.355
		c0.058-0.247,0.114-0.665,0.151-0.874h-2.316L410.161,309.152z M421.084,311.432c0.209,0.038,0.381,0.095,0.438,0.019
		c0.113-0.342,0.171-0.722,0.209-1.007h-3.4v1.33h-1.387v-1.349h-3.439c-0.303,0.627-0.646,1.197-1.178,1.577l7.637,0.038
		l-0.151-1.045L421.084,311.432z M414.018,308.297c-0.038,0.228-0.038,0.665-0.076,0.817h2.982v-0.817H414.018z M414.112,307.006
		h2.831v-0.646h-2.831V307.006z M421.883,320.835c-1.862-1.5-3.725-2.394-6.041-3.04l0.854-1.102
		c1.996,0.684,4.428,1.463,6.117,2.963L421.883,320.835z M420.515,307.006v-0.646h-2.166v0.646H420.515z"/>
	<path fill="#FFFFFF" d="M432.504,319.867c1.805-0.931,3.477-2.108,4.561-3.514c-1.008-1.501-1.521-3.363-1.881-4.845
		c-0.267,0.722-0.932,1.805-1.368,2.356l-1.235-0.912c1.824-2.394,2.622-5.699,2.717-9.023l1.425,0.456
		c0,1.102-0.133,2.204-0.266,2.963h5.623v1.368h-1.159c-0.095,2.66-0.779,5.357-2.146,7.58c0.893,1.33,2.355,2.735,4.123,3.438
		l-1.064,1.121c-1.691-0.76-3.002-2.052-3.971-3.286c-1.102,1.349-2.621,2.488-4.313,3.457l-1.045-0.988v0.95h-1.443v-5.187
		l-3.553,1.197l-1.063-1.121c0.685-0.456,0.646-0.627,0.646-1.33v-8.625h1.444v9.176l2.526-0.855v-10.125h1.443V319.867z
		 M436,309.304c0.361,2.071,0.816,3.837,1.938,5.68c1.083-2.146,1.425-4.217,1.577-6.269h-3.362L436,309.304z"/>
	<path fill="#FFFFFF" d="M445.444,319.164c4.065-2.147,6.478-4.958,7.884-9.252c-0.171-1.178-0.304-2.298-0.304-3.419h-3.286v-1.425
		l4.806-0.019c-0.075,1.691,0.019,3.21,0.267,4.654c0.778,4.445,3.477,7.257,6.744,9.442l-0.912,1.254
		c-2.508-1.558-5.529-4.351-6.707-8.055c-1.254,2.964-3.361,5.832-7.598,8.074L445.444,319.164z"/>
</g>
<g>
	<path fill="#FFFFFF" d="M367.783,696.02c2.135,0.175,5.215-0.245,5.215-3.046c0-2.065-1.645-3.255-3.465-3.255
		c-2.485,0-3.815,1.855-3.78,4.375h-4.726c0.175-5.006,3.43-8.471,8.471-8.471c3.92,0,8.226,2.416,8.226,6.791
		c0,2.311-1.155,4.375-3.43,5.006v0.069c2.695,0.595,4.34,2.835,4.34,5.565c0,5.146-4.306,8.051-9.101,8.051
		c-5.496,0-9.206-3.29-9.101-8.926h4.726c0.105,2.66,1.435,4.83,4.306,4.83c2.24,0,3.99-1.539,3.99-3.85
		c0-3.711-3.255-3.641-5.67-3.641V696.02z"/>
	<path fill="#FFFFFF" d="M392.983,710.615h-4.97v-15.891h-6.161v-3.746c3.466,0.07,6.65-1.12,7.176-4.865h3.955V710.615z"/>
	<path fill="#FFFFFF" d="M387.286,734.375c-2.101-0.879-3.761-3.2-4.481-5.34l-0.96,0.399c0.32,1.38,0.4,2.821,0.3,3.94
		c-0.1,1.101-0.32,2.061-1.36,2.421c-0.88,0.32-2.42,0.06-3.501-0.14l-0.62-1.781c1.3,0.421,2.301,0.681,3.361,0.641
		c0.24-0.1,0.52-0.4,0.58-0.66c0.1-0.78,0.12-1.62,0.08-2.681c-2.4,2.081-6.221,3.081-8.822,3.562l-1.1-1.381
		c3.721-0.54,7.001-1.5,9.602-3.74c-0.16-0.421-0.3-0.781-0.541-1.16c-2.1,1.439-4.401,2.561-7.602,2.9l-1.06-1.301
		c3.101-0.439,5.701-1.18,7.842-2.74c-0.32-0.26-0.64-0.48-1-0.681c-1.66,0.82-3.38,1.3-5.421,1.581l-1.041-1.32
		c3.301-0.521,5.562-1.221,7.282-2.261l-5.041-0.021l0.02-1.439h11.283v1.42h-3.681c-0.64,0.561-1.38,0.96-1.92,1.28
		c0.72,0.46,1.5,1.38,1.88,2.24c1.34-0.44,2.581-1.54,3.701-2.88l1.16,1.02c-0.78,0.9-1.52,1.48-2.22,2
		c0.56,1.82,2.241,4.161,4.281,4.941L387.286,734.375z M387.326,723.974h-1.541v-2.221h-12.822l0.02,2.301h-1.54v-3.722h7.221
		c-0.32-0.5-0.74-0.819-1.9-1.68c0.5-0.36,0.84-0.62,1.26-0.94c1.24,0.72,2.161,1.96,2.541,2.62h6.762V723.974z"/>
</g>
<g>
	<path fill="#FFFFFF" d="M285.75,801.659c3.154-2.015,5.414-4.882,6.402-7.979h-5.281v-1.443l6.858,0.02v-2.964h1.481l-0.019,2.964
		l6.782-0.02v1.443h-5.072c0.836,3.344,3.496,6.213,6.212,7.809l-1.025,1.215c-4.901-3.703-5.566-5.736-6.858-9.251l-0.038,6.744
		h3.666v1.425l-3.647-0.02l-0.019,4.674h-1.444l-0.019-4.674l-3.762,0.02v-1.425l3.762,0.019v-6.763
		c-1.311,4.142-3.534,6.991-6.801,9.347L285.75,801.659z"/>
	<path fill="#FFFFFF" d="M304.939,799.266c2.394-1.368,4.293-3.496,5.851-5.719l1.159,0.779c-0.532,0.969-1.615,2.242-2.318,3.096
		v8.758h-1.463v-7.256c-0.323,0.304-1.387,1.006-2.108,1.52L304.939,799.266z M305.187,794.041c1.995-1.387,3.534-3.097,4.806-5.092
		l1.121,0.875c-1.273,1.918-2.85,3.932-4.654,5.205L305.187,794.041z M313.887,804.623c0.969,0.075,1.805,0.075,2.622,0.057
		c0.209-0.057,0.418-0.189,0.418-0.456v-7.789h-4.863v-1.405l9.784,0.019v1.387l-3.382,0.019l-0.019,7.941
		c0,0.665-0.342,1.158-0.817,1.443c-0.513,0.285-2.318,0.267-3.287,0.229L313.887,804.623z M320.688,791.838h-8.168l-0.019-1.406
		l8.188-0.02V791.838z"/>
	<path fill="#FFFFFF" d="M324.206,796.34c2.754-1.729,4.369-3.705,5.262-5.984l1.254,0.703c-0.874,2.488-3.04,4.807-5.376,6.383
		L324.206,796.34z M336.934,802.361c-0.247,2.014-0.741,2.926-1.653,3.173c-0.988,0.267-2.754-0.075-3.723-0.304l-0.437-1.652
		c1.292,0.36,2.166,0.551,3.191,0.627c0.551,0.037,0.912-0.817,1.083-1.824c0.209-1.273,0.361-3.229,0.456-4.674h-3.571
		c-0.38,2.318-0.988,6.555-6.839,8.606l-0.912-1.216c2.166-0.607,5.566-2.128,6.25-7.391h-3.191v-1.405h9.841
		C337.371,798.373,337.181,800.424,336.934,802.361z M334.198,790.66l1.596-0.457c0.209,2.831,2.716,4.996,4.958,5.89l-0.912,1.329
		C336.478,795.371,335.338,793.984,334.198,790.66z"/>
	<path fill="#FFFFFF" d="M342.939,799.266c2.394-1.368,4.293-3.496,5.851-5.719l1.159,0.779c-0.532,0.969-1.615,2.242-2.318,3.096
		v8.758h-1.463v-7.256c-0.323,0.304-1.387,1.006-2.108,1.52L342.939,799.266z M343.187,794.041c1.995-1.387,3.534-3.097,4.806-5.092
		l1.121,0.875c-1.273,1.918-2.85,3.932-4.654,5.205L343.187,794.041z M351.887,804.623c0.969,0.075,1.805,0.075,2.622,0.057
		c0.209-0.057,0.418-0.189,0.418-0.456v-7.789h-4.863v-1.405l9.784,0.019v1.387l-3.382,0.019l-0.019,7.941
		c0,0.665-0.342,1.158-0.817,1.443c-0.513,0.285-2.318,0.267-3.287,0.229L351.887,804.623z M358.688,791.838h-8.168l-0.019-1.406
		l8.188-0.02V791.838z"/>
	<path fill="#FFFFFF" d="M371.723,804.338c0.893,0.152,1.577,0.437,2.336,0.418c0.228-0.058,0.456-0.152,0.513-0.361
		c0.494-1.596,0.76-5.471,0.836-9.385h-4.997c-0.038,2.869-0.646,5.719-2.394,8.036c-0.988,1.329-2.888,2.583-4.217,3.191
		l-0.988-1.272c2.508-0.874,4.787-3.04,5.452-5.434c0.418-1.482,0.76-3.039,0.703-4.541h-6.44v-1.329h6.44v-4.369
		c0.532-0.019,0.874-0.038,1.443-0.038v4.389l6.44,0.019c-0.171,3.609-0.114,7.655-0.836,11.019
		c-0.095,0.475-0.456,0.969-0.95,1.234c-0.57,0.381-1.462,0.266-3.115-0.095L371.723,804.338z M366.518,793.414
		c-0.456-1.158-1.311-1.843-2.413-2.603l1.178-0.894c0.988,0.742,1.843,1.482,2.47,2.527L366.518,793.414z M373.034,801.792
		c-0.417-1.558-1.368-2.735-2.507-3.971l1.197-0.702c1.197,1.178,2.014,2.374,2.603,3.875L373.034,801.792z"/>
	<path fill="#FFFFFF" d="M390.419,789.691c0.019,2.146-0.075,4.084-0.284,6.002c-0.058,0.457,0.113,0.627,0.228,0.894
		c1.538,3.8,3.571,6.401,7.522,8.093l-1.102,1.234c-3.515-1.823-5.661-3.895-7.275-7.656c-0.741,2.186-3.382,5.605-7.048,7.6
		l-1.14-1.121c1.33-0.798,2.432-1.596,3.458-2.584c1.254-1.178,2.167-2.165,3.116-4.141c1.102-2.242,0.969-5.566,1.007-8.32H390.419
		z"/>
	<path fill="#FFFFFF" d="M413.371,800.367v4.331c0,0.722-0.476,1.444-1.273,1.444h-1.938l-0.456-1.52l1.767,0.133
		c0.247,0.019,0.456-0.209,0.456-0.551v-3.838h-6.174v-0.494c-1.254,2.033-2.735,3.572-4.73,4.959l-1.045-1.178
		c2.508-1.482,4.749-4.219,5.548-6.156h-5.111v-1.387h5.719c0.209-0.437,0.438-0.854,0.494-1.196h-4.787v-1.312h5.166
		c0.134-0.36,0.229-0.854,0.285-1.158h-5.927v-1.387h6.212l0.361-1.861l1.311,0.342c-0.113,0.722-0.171,1.045-0.246,1.52h6.857
		v1.387h-7.105c-0.095,0.438-0.189,0.855-0.266,1.158h6.648v1.312h-6.99c-0.152,0.418-0.285,0.893-0.398,1.196h8.833v1.387h-9.403
		c-0.266,0.532-0.57,1.141-0.779,1.482h5.528v-1.121h1.444v1.121h3.21v1.387H413.371z M408.717,804.109
		c-0.57-1.14-1.254-1.824-2.299-2.412l0.949-0.969c0.988,0.569,1.843,1.463,2.488,2.355L408.717,804.109z"/>
	<path fill="#FFFFFF" d="M426.899,806.237v-4.503c-1.634,1.977-4.274,3.098-7.067,3.686c-0.285-0.418-0.437-0.816-0.816-1.311
		c2.488-0.418,4.749-1.443,6.174-2.641h-5.3v-1.349l6.991-0.019v-1.026h1.5v1.045h7.067v1.33l-5.415,0.019
		c0.191,0.19,0.627,0.59,1.141,0.893c1.482,0.875,3.115,1.406,5.072,1.691c-0.323,0.551-0.532,0.873-0.741,1.311
		c-2.812-0.494-5.681-1.558-7.104-3.59l-0.038,4.502L426.899,806.237z M434.879,791.135v1.367h-6.061l0.019,0.836l4.845-0.019v1.329
		h-4.863v0.76h4.92l-0.02,1.369l-4.9-0.02l0.019,0.893l6.345-0.02v1.35l-12.043-0.02l-0.02,0.932h-1.406v-5.813
		c-0.209,0.228-0.684,0.702-1.463,1.292c-0.418-0.305-0.664-0.532-1.178-0.855c1.919-1.387,3.135-3.324,4.027-5.3l1.292,0.513
		c-0.284,0.723-0.665,1.311-0.722,1.425l4.123-0.019c-0.324-0.418-1.045-0.855-1.92-1.292l1.045-0.931
		c0.855,0.342,2.109,1.272,2.604,1.918l-0.381,0.267L434.879,791.135z M423.081,796.72l0.038,0.931l4.256-0.02v-0.873
		L423.081,796.72z M427.393,795.408v-0.74h-4.254v0.74H427.393z M427.393,792.54l-4.217-0.038l0.02,0.836l4.197-0.019V792.54z"/>
	<path fill="#FFFFFF" d="M451.959,806.219v-1.178h-11.474c-0.038,0.266,0,0.607,0,1.178h-1.444V790.09h14.362v16.129H451.959z
		 M451.959,791.477h-11.474v12.178h11.474V791.477z M448.578,795.751v6.022c0,0.607-0.589,1.178-1.178,1.178h-1.805l-0.475-1.426
		l1.766,0.096c0.19,0.02,0.323-0.229,0.323-0.418v-5.452h-0.475c-0.665,2.659-2.165,5.205-5.13,6.345l-0.76-1.197
		c2.907-1.178,3.933-3.115,4.712-5.147h-4.274v-1.387h5.927v-2.375h1.368v2.375h2.869v1.387H448.578z"/>
	<path fill="#FFFFFF" d="M457.281,792.939h2.432l-0.019-3.629h1.481v3.629h2.014l0.02,1.367h-2.053v3.4l1.787-0.797l-0.039,1.538
		c-0.684,0.304-1.234,0.532-1.729,0.779l-0.02,5.509c0,0.532-0.418,1.159-1.082,1.35c-0.665,0.189-1.367,0.151-2.166,0.113
		c-0.133-0.475-0.266-0.816-0.455-1.387c0.816-0.02,1.387,0.152,1.898,0.02c0.267-0.02,0.418-0.399,0.361-0.76v-4.352
		c-0.418,0.172-1.14,0.514-1.881,0.741l-0.949-1.216c1.102-0.361,2.051-0.607,2.812-0.949l0.019-3.99h-2.412L457.281,792.939z
		 M461.385,805.307c1.805-1.141,2.621-3.173,2.432-5.643l1.425,0.189c0,0.817-0.057,1.597-0.171,2.262
		c0.494,0.703,1.824,1.311,2.337,1.5l-0.019-4.673l-4.332-0.019v-1.35l10.582-0.019v1.387h-4.826v1.653h3.762v1.405h-3.742v1.938
		c1.652,0.228,3.495,0.076,5.547,0c-0.189,0.608-0.418,0.987-0.57,1.481l-3.932-0.037c-1.957-0.02-3.914-0.608-5.225-1.768
		c-0.38,0.836-0.893,1.9-2.279,2.755L461.385,805.307z M463.854,790.033l8.282-0.02v6.648l-8.301-0.037L463.854,790.033z
		 M465.26,791.4v1.197l5.453-0.02v-1.158L465.26,791.4z M465.279,793.984l-0.02,1.272h5.453v-1.292L465.279,793.984z"/>
	<path fill="#FFFFFF" d="M317.783,813.596c-0.494,1.52-1.216,3.135-1.862,4.465l-0.019,12.234l-1.444,0.019v-9.917
		c-0.228,0.342-0.684,0.988-1.558,1.938l-1.235-0.873c2.261-2.318,3.837-5.528,4.768-8.492L317.783,813.596z M316.586,829.269
		c1.748-1.312,3.021-2.888,4.103-4.673l1.235,0.797c-1.045,1.9-2.317,3.458-4.236,4.939L316.586,829.269z M320.993,813.197
		l-0.019,3.704l3.533,0.038l0.019-3.742h1.463l0.019,3.686l2.166,0.019l-0.019,1.444h-2.166l0.019,4.141h2.698v1.406l-11.854,0.019
		l-0.019-1.425h2.66l0.019-4.141l-2.09,0.019l0.019-1.463l2.071,0.038l-0.019-3.724L320.993,813.197z M320.993,818.307v4.18h3.477
		l0.019-4.141L320.993,818.307z M324.603,824.729c0.627,0.455,1.216,0.949,1.71,1.405c1.007,0.912,1.918,2.014,2.659,3.286
		c-0.456,0.285-0.703,0.57-1.197,0.855c-1.026-1.824-2.583-3.42-4.388-4.692L324.603,824.729z"/>
	<path fill="#FFFFFF" d="M337.257,819.181v1.406h-2.317v4.046c0.494-0.095,1.539-0.437,2.488-0.664v1.405l-6.041,1.672
		c-0.304-0.494-0.551-0.874-0.931-1.481c1.197-0.152,2.204-0.342,3.059-0.57v-4.426h-2.28v-1.369h2.261v-3.115h-2.489v-1.367h6.44
		v1.349h-2.507v3.115H337.257z M342.843,816.407c0.095,3.477-0.342,6.706-1.862,9.442c-0.494,0.873-1.197,1.689-2.033,2.393
		c-0.874,0.741-1.805,1.33-2.888,1.881l-1.121-1.178c1.805-0.816,3.552-1.824,4.54-3.457c0.779-1.311,1.33-2.736,1.615-4.236
		c0.285-1.559,0.323-3.078,0.323-4.978L342.843,816.407z M346.091,814.033l0.019,10.354c-0.513,0.037-0.931,0.037-1.425,0.019
		v-8.985h-5.091v8.947h-1.425v-10.334H346.091z M347.497,826.951c-0.247,1.178-0.418,2.488-1.501,2.488h-2.317
		c-0.627,0-1.292-0.627-1.292-1.33v-5.091h1.444v4.845c0.038,0.094,0.228,0.228,0.361,0.228h1.425
		c0.38-0.058,0.266-0.513,0.418-0.894l0.076-0.931L347.497,826.951z"/>
	<path fill="#FFFFFF" d="M359.316,814.033c1.957,2.432,4.502,4.635,7.751,5.584l-1.159,1.179c-1.311-0.437-2.451-1.103-3.306-1.672
		l0.019,0.778l-3.458-0.019l0.019,2.204h5.148l0.019,1.367l-5.186,0.02l0.019,4.559l6.801-0.019v1.387h-15.045l-0.019-1.387
		l6.82,0.019v-4.578l-5.243,0.02l-0.019-1.387h5.262v-2.204l-3.458,0.019v-0.816c-0.931,0.607-2.127,1.292-3.458,1.9l-0.969-1.197
		c2.831-1.273,6.421-3.4,8.549-7.049l1.178,0.799L359.316,814.033z M355.289,827.729c-0.513-1.254-1.102-2.298-2.185-3.306
		l1.292-0.607c0.798,0.627,1.918,2.336,2.279,3.324L355.289,827.729z M361.729,818.516c-1.044-0.873-2.432-2.127-3.268-3.305
		c-0.817,1.025-2.166,2.469-3.362,3.268L361.729,818.516z M359.829,827.046c1.254-0.894,2.127-2.09,2.754-3.401l1.159,0.836
		c-0.608,1.312-1.425,2.527-2.622,3.458L359.829,827.046z"/>
	<path fill="#FFFFFF" d="M369.007,816.939c1.539-0.988,2.394-2.375,3.097-3.895c0.456,0.209,0.779,0.38,1.235,0.589
		c-0.209,0.475-0.418,0.893-0.475,1.045h4.92v1.349l-2.869,0.02c0.076,0.094,0.342,0.664,0.646,1.12l-1.292,0.703
		c-0.323-0.76-0.646-1.33-1.083-1.823h-1.102c-0.456,0.627-1.026,1.254-1.995,1.918L369.007,816.939z M369.786,818.003h6.972
		c-0.133-0.266-0.513-0.741-1.083-1.292l1.368-0.437c0.608,0.608,1.063,1.387,1.292,1.729h6.802v3.571l-1.444-0.019v-2.204H371.23
		l-0.019,2.299l-1.425-0.02V818.003z M373.776,830.295h-1.501l0.019-9.975h10.221l0.019,3.876l-8.795,0.019v0.95h9.631v5.072h-1.462
		v-1.121h-8.15L373.776,830.295z M373.738,822.848h7.352l-0.019-1.178h-7.333V822.848z M373.757,826.552l0.019,1.254l8.131-0.019
		v-1.273L373.757,826.552z M382.628,815.951c0.114,0.114,0.551,0.57,0.874,1.159c-0.418,0.266-0.798,0.456-1.292,0.665
		c-0.361-0.76-0.741-1.35-1.235-1.805h-1.254c-0.247,0.418-0.608,1.006-1.14,1.463c-0.399-0.305-0.703-0.494-1.121-0.817
		c1.026-1.102,1.558-2.204,1.881-3.609l1.273,0.476c-0.076,0.493-0.19,0.911-0.266,1.12h5.187v1.349H382.628z"/>
	<path fill="#FFFFFF" d="M388.748,827.787c-0.398-0.361-0.76-0.646-1.254-1.141c1.178-0.342,2.053-0.703,2.869-1.006v-4.389h-1.938
		l0.019-1.35l1.881,0.02l0.019-3.762l-2.279,0.02v-1.387l5.889,0.019v1.349h-2.108l-0.019,3.762l1.861-0.02v1.35h-1.861v3.837
		c0.551-0.209,1.367-0.589,2.299-0.931v1.425L388.748,827.787z M403.643,814.299l-0.039,8.264h-3.855v1.824h3.742v1.367h-3.781
		v2.185h5.072v1.349H393.25v-1.349h4.997l0.019-2.185h-3.799v-1.367h3.78l0.019-1.824h-3.932v-8.283L403.643,814.299z
		 M398.247,817.68l0.019-2.014l-2.488-0.019v2.032H398.247z M395.777,819.029v2.184h2.47l0.019-2.203L395.777,819.029z
		 M399.729,819.048v2.147l2.451,0.018v-2.146L399.729,819.048z M399.767,817.699h2.432l0.038-2.033l-2.488-0.019L399.767,817.699z"
		/>
	<path fill="#FFFFFF" d="M413.922,814.108v14.495c0,0.531-0.76,1.254-1.614,1.254h-1.69c-0.152-0.494-0.323-0.874-0.551-1.463
		c0.854,0,1.463,0.076,2.07-0.02c0.152-0.037,0.322-0.17,0.361-0.551v-3.59l-2.584,0.019c-0.114,1.614-0.209,3.971-1.9,6.099
		l-1.178-0.893c1.463-1.977,1.635-4.066,1.635-6.574v-8.758L413.922,814.108z M409.934,815.533v2.906h2.525v-2.925L409.934,815.533z
		 M412.498,819.808l-2.564,0.019v3.021h2.525L412.498,819.808z M416.602,821.84v8.455l-1.463,0.037v-16.205h7.617
		c-0.113,1.482-0.209,2.793-0.57,4.123c-0.17,0.665-0.873,1.14-1.5,1.178c-0.665,0.057-1.406-0.02-2.146-0.133l-0.418-1.52
		c0.893,0.133,1.596,0.304,2.317,0.322c0.151,0.02,0.228-0.076,0.304-0.285c0.152-0.475,0.342-1.729,0.381-2.279h-4.521l-0.02,4.901
		h6.193c-0.114,1.272-0.323,2.356-0.665,3.382c-0.343,1.025-0.703,2.033-1.196,2.906c0.74,0.912,1.785,1.596,2.963,2.375
		l-0.855,1.082c-1.254-0.74-1.994-1.311-2.85-2.184c-0.437,0.569-1.52,1.614-2.507,2.432c-0.361-0.342-0.608-0.646-0.988-1.045
		c1.14-0.893,1.862-1.577,2.526-2.508c-0.93-1.35-1.596-3.04-1.918-5.035H416.602z M418.709,821.821
		c0.134,1.14,0.742,2.735,1.254,3.629c0.608-1.216,1.008-2.565,1.273-3.629H418.709z"/>
	<path fill="#FFFFFF" d="M442.098,822.81c-2.735-0.589-5.318-1.33-7.561-2.659c-2.166,1.443-5.528,2.412-8.453,2.868l-0.59-1.368
		c2.279-0.38,4.275-0.893,6.231-1.615c0.513-0.246,1.12-0.551,1.501-0.76c-0.816-0.627-1.9-1.272-2.564-2.184
		c-0.836,0.987-2.053,2.014-3.477,2.583l-1.083-1.311c2.925-1.083,4.331-2.774,5.224-5.11l1.254,0.703
		c-0.209,0.475-0.398,0.816-0.455,0.931h7.123v1.272c-1.121,1.387-2.26,2.279-3.438,3.135c0.246,0.189,0.836,0.38,1.367,0.646
		c1.785,0.664,3.666,1.178,5.852,1.596L442.098,822.81z M439.115,828.926c-0.189,0.59-0.684,1.103-1.234,1.254
		c-0.836,0.248-1.691-0.019-2.564-0.151l-0.361-1.653c1.007,0.285,1.729,0.57,2.508,0.457c0.438-0.285,0.475-0.817,0.57-1.368
		c0.17-1.026,0.379-2.337,0.418-2.944h-4.104c-0.305,1.633-1.577,3.191-3.116,4.197c-1.14,0.761-3.191,1.369-4.427,1.597
		c-0.266-0.476-0.512-0.854-0.76-1.425c2.413-0.381,4.654-0.95,6.099-2.85c0.399-0.514,0.608-1.083,0.722-1.52h-5.434v-1.387h5.662
		c0.057-0.457,0-0.799,0.057-1.653l1.406,0.19c-0.02,0.722,0.037,1.045-0.02,1.463h5.395
		C439.895,825.241,439.666,827.179,439.115,828.926z M431.649,816.274c0.761,0.911,1.786,1.52,2.85,2.204
		c1.026-0.666,2.052-1.444,2.774-2.204H431.649z"/>
</g>
<g>
	<path fill="#FFFFFF" d="M122.519,360.761c-0.315-1.646-1.575-3.045-3.291-3.045c-3.605,0-4.55,4.725-4.69,7.456l0.07,0.07
		c1.365-1.925,3.15-2.73,5.531-2.73c2.1,0,4.235,0.98,5.636,2.52c1.295,1.505,1.89,3.536,1.89,5.461
		c0,5.005-3.465,8.961-8.576,8.961c-7.42,0-9.416-6.476-9.416-12.671c0-5.986,2.661-12.812,9.626-12.812
		c4.236,0,7.386,2.485,7.946,6.791H122.519z M114.993,370.807c0,2.275,1.47,4.55,3.956,4.55c2.38,0,3.745-2.275,3.745-4.48
		c0-2.31-1.19-4.621-3.745-4.621C116.288,366.256,114.993,368.391,114.993,370.807z"/>
	<path fill="#FFFFFF" d="M130.497,373.572h5.496v5.391h-5.496V373.572z"/>
	<path fill="#FFFFFF" d="M151.708,360.761c-0.315-1.646-1.575-3.045-3.291-3.045c-3.605,0-4.55,4.725-4.69,7.456l0.07,0.07
		c1.365-1.925,3.15-2.73,5.531-2.73c2.1,0,4.235,0.98,5.636,2.52c1.295,1.505,1.89,3.536,1.89,5.461
		c0,5.005-3.465,8.961-8.576,8.961c-7.42,0-9.416-6.476-9.416-12.671c0-5.986,2.661-12.812,9.626-12.812
		c4.235,0,7.386,2.485,7.946,6.791H151.708z M144.183,370.807c0,2.275,1.47,4.55,3.956,4.55c2.38,0,3.745-2.275,3.745-4.48
		c0-2.31-1.19-4.621-3.745-4.621C145.478,366.256,144.183,368.391,144.183,370.807z"/>
	<path fill="#FFFFFF" d="M120.184,386.939c-0.34,2.201-0.96,4.141-1.74,5.941v11.362h-1.521l0.02-8.802c-0.6,1-1.22,1.58-2.021,2.28
		l-0.98-1.2c2.28-2.041,3.5-4.521,4.261-7.162c0.22-0.78,0.46-1.72,0.68-2.98L120.184,386.939z M132.126,400.222
		c-0.4,1.84-0.74,2.961-1.801,2.961l-9.182,0.02c-0.26,0-0.78-0.28-1.101-0.76c-0.36-0.58-0.52-1.48-0.18-2.081
		c2.36-3.221,6.421-8.402,8.602-10.822h-7.722v-1.44h9.982l-0.04,1.4c-3.341,3.561-6.381,7.501-9.042,11.022
		c-0.16,0.28-0.4,0.52-0.32,0.84c0.02,0.18,0.28,0.26,0.42,0.34h8.042c0.24,0,0.42-0.14,0.54-0.32c0.18-0.46,0.18-1.04,0.3-1.82
		L132.126,400.222z"/>
	<path fill="#FFFFFF" d="M146.265,401.022c0,0.56,0.4,0.8,0.76,0.8h2.36c0.58,0,0.78-1.4,1.12-3.001l1.541,0.5
		c-0.16,0.98-0.38,1.88-0.7,2.661c-0.3,0.72-1.041,1.38-1.82,1.38h-2.801c-1.66,0-2.061-1.46-2.061-2.561v-6.721l-2.541-0.02
		c0.06,5.821-2.701,8.262-6.241,10.242l-1.1-1.521c3.521-1.84,5.741-3.821,5.721-8.722h-4.581v-1.521l15.063,0.02v1.521l-4.721-0.02
		V401.022z M137.623,387.619h11.703v1.521h-11.703V387.619z"/>
</g>
<g>
	<path fill="#FFFFFF" d="M62.567,458.151c-0.494,1.52-1.063,3.04-1.69,4.351v12.139h-1.463v-9.784
		c-0.399,0.551-1.178,1.482-2.014,2.432l-1.197-0.893c3.04-3.305,3.723-5.167,5.034-8.814L62.567,458.151z M73.51,470.405
		c-0.228,1.216-0.57,2.317-1.045,3.381c-0.285,0.437-0.76,0.703-1.292,0.684c-1.045-0.171-1.919-0.798-2.66-1.539
		c-2.09-2.146-2.907-4.825-3.249-7.751l-3.287,0.285l-0.171-1.425c1.254-0.095,2.336-0.209,3.287-0.285
		c-0.152-1.88-0.323-3.97-0.304-6.136l1.52,0.019c0.057,2.298,0.133,4.388,0.342,5.984c1.767-0.133,3.705-0.304,5.775-0.513
		l0.152,1.406l-5.756,0.532c0.285,2.451,0.893,4.73,2.641,6.592c0.494,0.513,0.836,0.76,1.406,1.102
		c0.209,0.095,0.437,0.114,0.532-0.095c0.342-0.722,0.57-1.976,0.703-2.887L73.51,470.405z M70.508,462.388
		c-0.874-1.216-1.767-2.375-3.078-3.191l1.064-0.95c1.311,0.779,2.355,1.995,3.191,3.172L70.508,462.388z"/>
	<path fill="#FFFFFF" d="M77.882,472.969c0.57-0.285,0.741-0.76,0.741-1.273v-3.989h-2.698v-1.33h2.698v-1.918h-0.855
		c-0.418,0.57-0.665,0.912-1.406,1.558l-1.064-1.14c1.843-1.596,2.774-3.971,2.964-7.143l1.368,0.342
		c0.057,1.026-0.095,2.033-0.171,2.204h2.812v1.368h-3.135c-0.171,0.532-0.437,1.064-0.589,1.444h3.515v1.368h-1.976v1.9h2.317
		v1.349h-2.317v4.255l2.432-1.14v1.463l-3.762,1.919L77.882,472.969z M84.493,462.749c-0.399-1.481-1.235-2.603-2.337-3.723
		l1.273-0.646c1.102,1.083,1.881,2.204,2.375,3.647L84.493,462.749z M87.191,472.798c1.025,0.076,1.462,0.133,1.957,0.095
		c0.418-0.019,0.532-0.266,0.532-0.608v-1.672H84.55v4.047h-1.444v-11.456h3.249v-5.642h1.462v5.642h3.325v9.46
		c0,0.893-0.741,1.653-1.786,1.653h-1.691L87.191,472.798z M84.55,464.572v1.615h5.129v-1.615H84.55z M84.55,467.555v1.69h5.129
		v-1.69H84.55z M91.864,459.025c-0.532,1.406-1.272,2.603-2.469,3.686l-1.178-0.912c1.216-0.988,1.957-2.166,2.565-3.609
		L91.864,459.025z"/>
	<path fill="#FFFFFF" d="M103.778,458.038c0.019,2.146-0.076,4.084-0.285,6.003c-0.057,0.456,0.114,0.627,0.228,0.893
		c1.539,3.799,3.571,6.402,7.523,8.093l-1.102,1.234c-3.515-1.823-5.661-3.894-7.276-7.656c-0.741,2.185-3.381,5.604-7.048,7.599
		l-1.14-1.121c1.33-0.798,2.432-1.596,3.458-2.583c1.254-1.178,2.166-2.166,3.116-4.141c1.102-2.242,0.969-5.566,1.007-8.321
		H103.778z"/>
	<path fill="#FFFFFF" d="M126.729,468.714v4.331c0,0.722-0.475,1.444-1.273,1.444h-1.938l-0.456-1.52l1.767,0.133
		c0.247,0.019,0.456-0.209,0.456-0.551v-3.837h-6.174v-0.494c-1.254,2.033-2.736,3.572-4.73,4.958L113.336,472
		c2.508-1.482,4.75-4.218,5.547-6.155h-5.11v-1.387h5.718c0.209-0.437,0.437-0.855,0.494-1.197h-4.787v-1.311h5.167
		c0.133-0.361,0.228-0.855,0.285-1.159h-5.927v-1.387h6.212l0.361-1.862l1.311,0.342c-0.114,0.722-0.171,1.045-0.247,1.52h6.858
		v1.387h-7.105c-0.095,0.437-0.19,0.855-0.266,1.159h6.649v1.311h-6.991c-0.152,0.418-0.285,0.893-0.399,1.197h8.833v1.387h-9.403
		c-0.266,0.532-0.57,1.14-0.779,1.482h5.528v-1.121h1.444v1.121h3.21v1.387H126.729z M122.075,472.456
		c-0.57-1.14-1.254-1.824-2.299-2.413l0.95-0.969c0.988,0.57,1.842,1.463,2.488,2.355L122.075,472.456z"/>
	<path fill="#FFFFFF" d="M140.258,474.584v-4.502c-1.634,1.976-4.274,3.097-7.067,3.686c-0.285-0.418-0.437-0.817-0.817-1.311
		c2.489-0.418,4.749-1.443,6.174-2.641h-5.3v-1.349l6.991-0.019v-1.026h1.501v1.045h7.067v1.33l-5.415,0.019
		c0.19,0.19,0.627,0.589,1.14,0.893c1.482,0.874,3.115,1.406,5.072,1.691c-0.323,0.551-0.532,0.874-0.741,1.311
		c-2.812-0.494-5.68-1.558-7.104-3.59l-0.038,4.502L140.258,474.584z M148.237,459.481v1.368h-6.061l0.019,0.836l4.844-0.019v1.33
		h-4.863v0.76h4.92l-0.019,1.368l-4.901-0.019l0.019,0.893l6.345-0.019v1.349l-12.044-0.019l-0.019,0.931h-1.406v-5.813
		c-0.209,0.228-0.684,0.703-1.463,1.292c-0.418-0.304-0.665-0.532-1.178-0.855c1.918-1.387,3.134-3.325,4.027-5.3l1.292,0.513
		c-0.285,0.722-0.665,1.311-0.722,1.425l4.123-0.019c-0.323-0.417-1.045-0.854-1.919-1.292l1.045-0.931
		c0.855,0.342,2.108,1.273,2.603,1.919l-0.38,0.266L148.237,459.481z M136.44,465.066l0.038,0.931l4.255-0.019v-0.874
		L136.44,465.066z M140.752,463.755v-0.741h-4.256v0.741H140.752z M140.752,460.887l-4.218-0.038l0.019,0.836l4.199-0.019V460.887z"
		/>
	<path fill="#FFFFFF" d="M165.318,474.565v-1.178h-11.474c-0.038,0.266,0,0.608,0,1.178H152.4v-16.128h14.362v16.128H165.318z
		 M165.318,459.823h-11.474V472h11.474V459.823z M161.937,464.098v6.022c0,0.608-0.589,1.178-1.178,1.178h-1.805l-0.475-1.425
		l1.767,0.095c0.19,0.019,0.323-0.228,0.323-0.418v-5.452h-0.475c-0.665,2.66-2.166,5.205-5.129,6.345l-0.76-1.197
		c2.907-1.178,3.932-3.115,4.711-5.148h-4.274v-1.387h5.927v-2.375h1.368v2.375h2.869v1.387H161.937z"/>
	<path fill="#FFFFFF" d="M175.637,458.132c-0.247,1.539-0.684,3.04-1.254,4.37v12.234h-1.425v-9.727
		c-0.627,0.798-1.064,1.444-1.9,2.242l-1.063-1.026c1.709-1.748,3.723-4.407,4.331-8.682L175.637,458.132z M182.913,467.498
		c0.874,2.299,2.355,3.533,4.75,4.768l-1.121,1.064c-2.09-1.007-3.799-2.622-4.939-5.414l-0.038,6.763h-1.444v-6.516
		c-0.513,1.5-2.261,3.989-4.56,5.224l-1.064-1.102c1.767-0.817,3.344-2.545,4.427-4.787h-3.875v-1.387h5.091v-1.539l-3.762,0.019
		v-6.117h8.758v6.117h-3.571v1.52h4.977v1.387H182.913z M183.691,459.842h-5.87v3.362h5.87V459.842z"/>
	<path fill="#FFFFFF" d="M193.915,463.68c0.95,1.235,1.957,2.679,2.014,4.483c0.019,1.083-0.76,2.127-1.786,2.488
		c-0.513,0.171-0.969,0.171-1.615,0.076l-0.475-1.577c0.893,0.152,1.558,0.323,2.052-0.095c0.304-0.38,0.437-0.646,0.399-1.064
		c-0.171-1.558-1.254-2.944-2.318-4.274c0.817-1.406,1.539-2.717,2.127-3.875h-2.64v14.78h-1.444v-16.167h5.775v1.311
		C195.435,460.906,194.675,462.331,193.915,463.68z M205.408,465.37l-1.121-0.665v0.893h-7.618v-0.874
		c-0.133,0.076-0.475,0.361-0.969,0.551c-0.38-0.437-0.627-0.817-1.045-1.33c2.375-0.817,4.768-3.932,5.376-6.307l1.425,0.608
		c-0.114,0.323-0.247,0.626-0.38,0.969c1.102,1.976,3.021,3.837,5.187,4.901L205.408,465.37z M194.903,473.862v-1.387h6.459
		c1.045-1.69,1.824-4.35,2.185-6.383l1.368,0.551c-0.399,2.147-1.178,4.217-2.108,5.832h2.925v1.387H194.903z M197.866,471.792
		c-0.133-1.824-0.817-3.249-1.805-4.711l1.254-0.589c0.931,1.406,1.767,3.04,1.995,4.616L197.866,471.792z M200.374,460.602
		c-0.817,1.558-1.672,2.622-3.021,3.571l6.307,0.038C202.369,463.356,200.925,461.78,200.374,460.602z M200.374,470.785
		c-0.304-1.672-1.159-2.907-2.185-4.255l1.33-0.589c1.007,1.311,1.805,2.583,2.185,4.179L200.374,470.785z"/>
</g>
<g>
	<path fill="#FFFFFF" d="M623.305,358.555h-10.117l-0.979,5.566l0.069,0.07c1.33-1.365,2.871-1.89,4.796-1.89
		c4.831,0,7.562,3.745,7.562,8.331c0,5.041-4.166,8.926-9.102,8.821c-4.76,0-9.031-2.625-9.102-7.771h4.971
		c0.246,2.17,1.855,3.675,4.025,3.675c2.591,0,4.236-2.275,4.236-4.726c0-2.555-1.576-4.585-4.236-4.585
		c-1.785,0-2.765,0.63-3.745,1.96h-4.48l2.415-13.546h13.688V358.555z"/>
	<path fill="#FFFFFF" d="M638.844,360.761c-0.314-1.646-1.575-3.045-3.291-3.045c-3.605,0-4.55,4.725-4.689,7.456l0.069,0.07
		c1.365-1.925,3.15-2.73,5.53-2.73c2.101,0,4.236,0.98,5.637,2.52c1.295,1.505,1.89,3.536,1.89,5.461
		c0,5.005-3.466,8.961-8.576,8.961c-7.421,0-9.416-6.476-9.416-12.671c0-5.986,2.661-12.812,9.626-12.812
		c4.236,0,7.387,2.485,7.946,6.791H638.844z M631.318,370.807c0,2.275,1.47,4.55,3.955,4.55c2.38,0,3.745-2.275,3.745-4.48
		c0-2.31-1.19-4.621-3.745-4.621C632.613,366.256,631.318,368.391,631.318,370.807z"/>
	<path fill="#FFFFFF" d="M612.184,386.939c-0.34,2.201-0.96,4.141-1.74,5.941v11.362h-1.521l0.021-8.802
		c-0.601,1-1.221,1.58-2.021,2.28l-0.979-1.2c2.28-2.041,3.501-4.521,4.261-7.162c0.221-0.78,0.461-1.72,0.68-2.98L612.184,386.939z
		 M624.127,400.222c-0.4,1.84-0.74,2.961-1.801,2.961l-9.182,0.02c-0.261,0-0.781-0.28-1.102-0.76c-0.359-0.58-0.52-1.48-0.18-2.081
		c2.361-3.221,6.422-8.402,8.602-10.822h-7.721v-1.44h9.982l-0.041,1.4c-3.34,3.561-6.381,7.501-9.041,11.022
		c-0.16,0.28-0.4,0.52-0.32,0.84c0.02,0.18,0.279,0.26,0.42,0.34h8.041c0.24,0,0.421-0.14,0.541-0.32c0.18-0.46,0.18-1.04,0.3-1.82
		L624.127,400.222z"/>
	<path fill="#FFFFFF" d="M638.266,401.022c0,0.56,0.399,0.8,0.76,0.8h2.36c0.58,0,0.78-1.4,1.12-3.001l1.541,0.5
		c-0.16,0.98-0.381,1.88-0.701,2.661c-0.3,0.72-1.04,1.38-1.82,1.38h-2.801c-1.66,0-2.061-1.46-2.061-2.561v-6.721l-2.54-0.02
		c0.06,5.821-2.7,8.262-6.241,10.242l-1.1-1.521c3.52-1.84,5.74-3.821,5.721-8.722h-4.581v-1.521l15.063,0.02v1.521l-4.721-0.02
		V401.022z M629.623,387.619h11.703v1.521h-11.703V387.619z"/>
</g>
<g>
	<path fill="#FFFFFF" d="M541.933,468.03c-0.627-1.026-1.919-1.843-3.04-2.298l0.969-1.083c1.103,0.418,2.395,1.349,3.021,2.299
		L541.933,468.03z M544.648,460.716v1.482h-1.48v-1.501h-3.99v-1.368h3.99v-1.767h1.462v1.767h5.452v-1.843h1.482v1.843h4.046v1.406
		h-4.046v1.406h-1.501v-1.425H544.648z M539.216,473.463c1.235-1.311,2.432-3.286,2.926-4.901l1.254,0.608
		c-0.741,1.957-1.521,3.438-3.135,5.3L539.216,473.463z M543.377,464.876c-0.514-0.836-2.166-1.9-3.174-2.242l0.894-1.064
		c1.216,0.456,2.374,1.102,3.324,2.242L543.377,464.876z M552.191,474.584v-1.007h-5.13v1.064h-1.481v-5.68
		c-0.607,0.171-1.254,0.323-1.71,0.437l-0.817-1.311c2.014-0.475,3.781-0.95,5.188-1.634c-0.476-0.342-1.008-0.836-1.559-1.52
		c-0.607,0.722-1.33,1.406-2.108,2.032l-1.178-0.893c1.767-1.197,3.343-3.059,3.856-5.053l1.406,0.456
		c-0.229,0.608-0.457,1.159-0.608,1.425h5.774v1.272c-0.854,1.026-1.938,1.824-2.773,2.356c1.35,0.722,3.324,1.311,5.205,1.444
		l-0.893,1.349c-0.494-0.057-1.234-0.228-1.69-0.342v5.604H552.191z M553.236,468.866c-1.178-0.285-2.641-0.95-3.648-1.482
		c-1.12,0.57-2.432,1.159-3.779,1.444L553.236,468.866z M547.08,472.209h5.111v-1.957h-5.111V472.209z M547.955,464.288
		c0.36,0.475,1.006,1.007,1.69,1.425c0.778-0.38,1.596-0.988,2.07-1.425H547.955z"/>
	<path fill="#FFFFFF" d="M557.893,470.898l2.584-0.836v-5.756h-2.128l0.019-1.387l2.129-0.019l-0.02-4.028h1.443v4.028h1.995
		l-0.019,1.406l-1.995-0.019l0.019,5.186l2.166-0.722v1.444l-5.357,1.899L557.893,470.898z M574.592,470.101
		c-0.57,3.021-0.95,3.761-2.07,3.761h-6.346c-0.893,0-1.482-0.646-1.482-1.558v-6.307l-1.006,0.342l-0.494-1.387l1.5-0.437
		l0.02-3.837h1.425v3.4l2.014-0.627v-5.927h1.444v5.604l4.008-1.102c-0.171,2.583-0.456,5.528-0.912,6.896
		c-0.209,0.456-0.513,0.874-1.14,0.855c-0.513,0-1.007-0.114-1.558-0.247l-0.247-1.634c0.685,0.247,0.894,0.437,1.33,0.513
		c0.266,0.057,0.342-0.171,0.38-0.323c0.322-1.482,0.475-2.792,0.589-4.16l-2.47,0.646l0.02,6.079h-1.444v-5.642l-2.014,0.627
		l-0.019,6.326c0,0.323,0.228,0.513,0.475,0.513l5.737-0.019c0.551,0,0.684-1.52,0.911-2.812L574.592,470.101z"/>
	<path fill="#FFFFFF" d="M579.989,468.353c-0.532,0.171-1.349,0.494-2.204,0.722c-0.284-0.418-0.531-0.741-0.893-1.254
		c1.235-0.285,2.223-0.57,3.097-0.874v-4.293h-2.47v-1.368h2.47v-3.534h1.444v3.534h2.185v1.368h-2.185v3.799l2.127-0.703v1.387
		c-0.778,0.361-1.539,0.494-2.127,0.76v5.433c0,0.418-0.399,0.893-0.836,1.064c-0.76,0.285-1.672,0.152-2.564,0.152
		c-0.152-0.456-0.267-0.836-0.476-1.425c0.854,0.095,1.368,0.095,1.995,0.076c0.189,0.019,0.475-0.209,0.437-0.437V468.353z
		 M582.155,473.254c1.956-0.626,3.667-1.368,4.996-2.526c-0.987-1.14-1.747-2.527-2.261-3.952h-0.988v-1.387h7.979
		c-0.151,2.28-1.216,4.046-2.603,5.433c1.254,1.159,2.982,1.938,4.844,2.451l-0.931,1.33c-1.634-0.418-3.894-1.919-5.015-2.831
		c-1.293,1.083-2.982,2.089-5.054,2.754L582.155,473.254z M582.27,464.363c1.102-0.513,1.994-1.235,2.241-2.223
		c0.228-0.854,0.247-2.204,0.267-3.609h6.478l0.019,4.084c0,0.304,0.152,0.475,0.532,0.475h1.899v1.33h-2.336
		c-1.235-0.228-1.539-1.045-1.539-1.786v-2.717l-3.571-0.019c-0.058,1.064-0.076,2.337-0.627,3.363
		c-0.456,0.855-1.196,1.615-2.223,2.242L582.27,464.363z M586.43,466.776c0.285,0.836,1.234,2.546,1.824,2.964
		c0.873-0.874,1.52-1.71,1.918-2.964H586.43z"/>
	<path fill="#FFFFFF" d="M606.189,458.247v1.368h-10.41v-1.368H606.189z M603.986,466.244h-5.89v8.207h-1.368v-9.632h8.625v7.846
		c-0.057,0.627-0.475,1.178-1.007,1.387c-0.608,0.247-1.026,0.208-1.767,0.208l-0.494-1.349c0.798-0.038,1.158,0.19,1.634-0.038
		c0.399-0.19,0.267-0.76,0.267-1.539V466.244z M597.584,464.079v-3.686h6.877v3.686H597.584z M603.529,468.942v1.368h-1.861v3.059
		h-1.33v-3.04h-1.748v-1.425h1.293c-0.305-0.665-0.932-1.406-1.577-1.691l0.987-0.646c0.646,0.38,1.426,1.14,1.711,1.824
		l-0.799,0.532l1.045,0.019c0.741-0.817,1.007-1.691,1.292-2.432l1.235,0.494c-0.342,0.589-0.723,1.501-1.159,1.957L603.529,468.942
		z M603.055,461.723h-4.084v1.064h4.084V461.723z M607.424,473.501c-0.455,0.133-0.588,0.171-1.121,0.361l-0.664-1.387
		c1.14-0.247,1.69-0.342,2.488-0.551v-3.477h-2.146V461.4h2.146v-3.799h1.35v3.799h2.184v7.048h-2.184l0.019,3.116l1.102-0.266
		c-0.133-0.266-0.437-0.779-0.874-1.311l1.197-0.437c0.76,0.874,1.272,1.88,1.596,2.869l0.418,1.253l-1.425,0.494
		c-0.134-0.665-0.285-1.33-0.437-1.729L607.424,473.501z M608.127,462.768h-0.816v4.293h0.816V462.768z M609.477,467.061h0.93
		v-4.293h-0.93V467.061z"/>
	<path fill="#FFFFFF" d="M619.187,462.407c-0.513,1.539-1.823,2.869-2.888,3.914l-1.121-1.026c1.121-0.931,2.166-2.052,2.964-3.591
		L619.187,462.407z M618.008,460.963c-0.816-1.178-1.5-1.691-2.412-2.28l0.874-0.874c0.854,0.361,2.032,1.197,2.603,2.033
		L618.008,460.963z M615.596,473.102c2.773-0.171,4.635-0.114,6.307-1.938c0.666-0.893,0.685-1.881,0.799-3.458l1.367-0.019
		c-0.057,1.9-0.209,3.856-1.767,5.072c-1.71,1.349-3.837,1.577-6.041,1.729L615.596,473.102z M628.096,465.731v5.927h-1.424v-4.559
		h-6.555v4.54h-1.443v-5.908h0.836l-0.59-0.836c1.824-0.513,3.154-0.969,4.236-1.881c0.685-0.57,1.103-1.235,1.482-2.28l1.33,0.304
		l-0.248,0.741c1.502,2.071,3.458,2.66,5.947,3.325l-0.988,1.216c-2.033-0.513-4.236-1.672-5.604-3.306
		c-0.76,1.235-2.849,2.413-4.654,2.679L628.096,465.731z M627.773,461.894c0.531-0.608,0.797-1.178,0.931-1.577h-5.548
		c-0.551,1.026-1.633,2.014-2.792,2.812l-0.969-1.121c1.652-0.969,2.773-2.622,3.343-4.407l1.273,0.456
		c-0.076,0.266-0.247,0.608-0.323,0.836h6.535c0.114,1.805-0.589,2.774-1.159,3.705L627.773,461.894z M629.445,474.679
		c-1.615-1.063-3.818-1.805-5.908-2.241l0.664-1.235c1.977,0.399,4.104,1.007,5.965,2.146L629.445,474.679z"/>
	<path fill="#FFFFFF" d="M634.216,470.48c-0.284-0.456-0.456-0.836-0.684-1.387c1.044-0.323,1.938-0.551,2.716-0.817v-7.086h-2.412
		v-1.368h5.87v1.368h-2.032v6.554c0.455-0.152,1.538-0.57,2.223-0.76v1.539L634.216,470.48z M645.729,467.935
		c0,0.703-0.514,2.242-1.083,2.944c-1.786,2.223-3.667,3.097-7.029,3.609l-0.646-1.425c2.508-0.171,4.654-0.76,6.193-2.526
		c0.836-0.95,1.158-2.109,1.178-3.419l0.037-3.4l1.368,0.095L645.729,467.935z M650.078,459.861h-4.502
		c-0.171,0.608-0.456,1.272-0.627,1.748h4.065v8.948h-1.405v-7.58h-5.357v7.941h-1.443v-9.309h2.641
		c0.246-0.589,0.493-1.216,0.664-1.729h-4.084v-1.311h10.049V459.861z M645.842,470.101c1.691,0.665,3.477,1.691,4.787,3.362
		c-0.303,0.38-0.551,0.703-0.911,1.102c-1.463-1.786-2.85-2.622-4.579-3.343L645.842,470.101z"/>
	<path fill="#FFFFFF" d="M657.262,474.166h-1.52v-15.483H666.4v15.464h-1.52v-1.653h-7.638L657.262,474.166z M657.243,460.108
		l0.019,2.546h7.619v-2.546H657.243z M657.262,464.002l-0.019,2.736h7.638v-2.736H657.262z M657.243,468.125l0.019,2.925h7.619
		v-2.925H657.243z"/>
	<path fill="#FFFFFF" d="M681.315,458.379c1.957,2.432,4.503,4.635,7.751,5.585l-1.158,1.178c-1.312-0.437-2.451-1.102-3.307-1.672
		l0.02,0.779l-3.457-0.019l0.019,2.204h5.148l0.019,1.368l-5.186,0.019l0.019,4.56l6.801-0.019v1.387h-15.046l-0.019-1.387
		l6.819,0.019v-4.579l-5.242,0.019l-0.02-1.387h5.262v-2.204l-3.457,0.019v-0.817c-0.931,0.608-2.127,1.292-3.457,1.9l-0.969-1.197
		c2.83-1.272,6.42-3.4,8.549-7.048l1.178,0.798L681.315,458.379z M677.288,472.076c-0.513-1.254-1.102-2.298-2.185-3.305
		l1.292-0.608c0.798,0.627,1.919,2.336,2.279,3.324L677.288,472.076z M683.729,462.863c-1.045-0.874-2.432-2.128-3.268-3.306
		c-0.817,1.026-2.166,2.47-3.363,3.268L683.729,462.863z M681.828,471.393c1.254-0.893,2.128-2.09,2.755-3.401l1.159,0.836
		c-0.608,1.311-1.426,2.527-2.622,3.458L681.828,471.393z"/>
	<path fill="#FFFFFF" d="M690.514,468.106c1.443-0.532,2.659-1.273,3.457-1.919c-0.398-0.076-0.969-0.266-1.559-0.361l0.703-1.102
		c0.799,0.133,1.463,0.342,2.033,0.532c0.38-0.342,1.045-1.102,1.197-1.368h-2.68c-0.607,0.608-1.272,1.254-2.299,2.014
		l-0.949-1.083c1.443-0.969,2.812-2.146,3.571-3.571l0.988,0.684c-0.114,0.323-0.38,0.551-0.513,0.665h3.553v1.197
		c-0.457,0.665-0.97,1.501-1.559,2.014c0.76,0.266,1.52,0.57,2.412,1.121l-0.76,1.197c-1.082-0.798-1.805-0.874-2.716-1.311
		c-0.741,0.627-1.501,1.197-2.185,1.501l4.882,0.019v4.483h-4.351v1.253h-1.387v-5.243c-0.076,0.019-0.455,0.19-0.931,0.418
		L690.514,468.106z M694.236,457.43c0.627,0.513,1.292,1.443,1.748,2.336l2.754-0.038v2.583h-1.367v-1.253h-4.711v1.349h-1.406
		v-2.679h3.248c-0.17-0.38-0.74-0.969-1.348-1.577L694.236,457.43z M693.762,469.683v1.786h2.926v-1.786H693.762z M697.428,473.254
		c2.109-0.551,3.838-1.652,4.313-3.799c0.418-1.918,0.418-3.723,0.38-5.965l1.387-0.019c0,1.368-0.057,2.261-0.057,3.172
		c-0.134,4.027-1.045,5.357-1.957,6.174c-1.025,0.95-1.976,1.235-3.153,1.729L697.428,473.254z M699.214,461.533h2.279
		c0.343-0.532,0.646-1.178,0.779-1.729h-3.362v-1.368h8.131v1.368h-3.325c-0.151,0.551-0.493,1.311-0.665,1.709h3.249v8.948h-1.368
		v-7.58h-4.369v7.884h-1.349V461.533z M706.604,474.052c-1.064-1.197-2.355-2.204-3.666-2.774l0.797-1.045
		c1.273,0.608,2.85,1.596,3.971,2.717L706.604,474.052z"/>
</g>
<g>
	<path fill="#FFFFFF" d="M121.783,586.365c2.135,0.176,5.215-0.244,5.215-3.045c0-2.064-1.645-3.255-3.465-3.255
		c-2.485,0-3.815,1.854-3.78,4.375h-4.726c0.175-5.005,3.43-8.471,8.471-8.471c3.92,0,8.226,2.415,8.226,6.791
		c0,2.31-1.155,4.375-3.43,5.005v0.07c2.695,0.596,4.34,2.836,4.34,5.565c0,5.146-4.306,8.052-9.101,8.052
		c-5.496,0-9.206-3.291-9.101-8.927h4.726c0.105,2.661,1.435,4.831,4.306,4.831c2.24,0,3.99-1.541,3.99-3.851
		c0-3.71-3.255-3.641-5.67-3.641V586.365z"/>
	<path fill="#FFFFFF" d="M141.243,586.365c2.135,0.176,5.215-0.244,5.215-3.045c0-2.064-1.645-3.255-3.465-3.255
		c-2.485,0-3.815,1.854-3.78,4.375h-4.726c0.175-5.005,3.43-8.471,8.471-8.471c3.92,0,8.226,2.415,8.226,6.791
		c0,2.31-1.155,4.375-3.43,5.005v0.07c2.695,0.596,4.34,2.836,4.34,5.565c0,5.146-4.306,8.052-9.101,8.052
		c-5.496,0-9.206-3.291-9.101-8.927h4.726c0.105,2.661,1.435,4.831,4.306,4.831c2.24,0,3.99-1.541,3.99-3.851
		c0-3.71-3.255-3.641-5.67-3.641V586.365z"/>
	<path fill="#FFFFFF" d="M141.286,624.723c-2.101-0.881-3.761-3.201-4.481-5.342l-0.96,0.4c0.32,1.381,0.4,2.82,0.3,3.941
		c-0.1,1.1-0.32,2.061-1.36,2.42c-0.88,0.32-2.42,0.061-3.501-0.141l-0.62-1.779c1.3,0.42,2.301,0.68,3.361,0.64
		c0.24-0.101,0.52-0.399,0.58-0.66c0.1-0.78,0.12-1.62,0.08-2.681c-2.4,2.08-6.221,3.081-8.822,3.561l-1.1-1.38
		c3.721-0.54,7.001-1.501,9.602-3.741c-0.16-0.42-0.3-0.779-0.541-1.16c-2.1,1.44-4.401,2.561-7.602,2.9l-1.06-1.3
		c3.101-0.44,5.701-1.181,7.842-2.741c-0.32-0.26-0.64-0.479-1-0.68c-1.66,0.82-3.38,1.301-5.421,1.58l-1.041-1.32
		c3.301-0.52,5.562-1.22,7.282-2.26l-5.041-0.02l0.02-1.441h11.282v1.421h-3.681c-0.64,0.56-1.38,0.96-1.92,1.28
		c0.72,0.46,1.5,1.38,1.88,2.24c1.34-0.439,2.581-1.54,3.701-2.881l1.16,1.021c-0.78,0.9-1.52,1.48-2.22,2.001
		c0.56,1.82,2.24,4.16,4.281,4.94L141.286,624.723z M141.326,614.32h-1.541V612.1h-12.823l0.02,2.301h-1.54v-3.721h7.221
		c-0.32-0.5-0.74-0.82-1.9-1.681c0.5-0.36,0.84-0.62,1.26-0.94c1.24,0.721,2.161,1.961,2.541,2.621h6.762V614.32z"/>
</g>
<g>
	<path fill="#FFFFFF" d="M58.75,692.006c3.154-2.014,5.414-4.883,6.402-7.979h-5.281v-1.444l6.858,0.019v-2.963h1.481l-0.019,2.963
		l6.782-0.019v1.444h-5.072c0.836,3.343,3.496,6.211,6.212,7.807l-1.025,1.217c-4.901-3.705-5.566-5.737-6.858-9.252l-0.038,6.744
		h3.666v1.425l-3.647-0.019l-0.019,4.673h-1.444l-0.019-4.673l-3.762,0.019v-1.425l3.762,0.02v-6.764
		c-1.311,4.142-3.534,6.991-6.801,9.347L58.75,692.006z"/>
	<path fill="#FFFFFF" d="M77.939,689.611c2.394-1.367,4.293-3.494,5.851-5.717l1.159,0.778c-0.532,0.969-1.615,2.241-2.318,3.097
		v8.758h-1.463v-7.258c-0.323,0.305-1.387,1.008-2.108,1.521L77.939,689.611z M78.187,684.388c1.995-1.387,3.534-3.097,4.806-5.091
		l1.121,0.873c-1.273,1.919-2.85,3.933-4.654,5.205L78.187,684.388z M86.887,694.969c0.969,0.076,1.805,0.076,2.622,0.058
		c0.209-0.058,0.418-0.19,0.418-0.456v-7.789h-4.863v-1.406l9.784,0.02v1.387l-3.382,0.02l-0.019,7.94
		c0,0.665-0.342,1.159-0.817,1.444c-0.513,0.284-2.318,0.266-3.287,0.228L86.887,694.969z M93.688,682.184H85.52l-0.019-1.405
		l8.188-0.019V682.184z"/>
	<path fill="#FFFFFF" d="M97.206,686.687c2.754-1.729,4.369-3.704,5.262-5.984l1.254,0.703c-0.874,2.489-3.04,4.806-5.376,6.383
		L97.206,686.687z M109.934,692.709c-0.247,2.014-0.741,2.926-1.653,3.172c-0.988,0.266-2.754-0.076-3.723-0.304l-0.437-1.653
		c1.292,0.361,2.166,0.551,3.191,0.627c0.551,0.039,0.912-0.816,1.083-1.823c0.209-1.272,0.361-3.229,0.456-4.673h-3.571
		c-0.38,2.317-0.988,6.554-6.839,8.605l-0.912-1.216c2.166-0.608,5.566-2.128,6.25-7.39h-3.191v-1.406h9.841
		C110.371,688.719,110.181,690.771,109.934,692.709z M107.198,681.006l1.596-0.455c0.209,2.83,2.716,4.996,4.958,5.889l-0.912,1.33
		C109.478,685.718,108.338,684.33,107.198,681.006z"/>
	<path fill="#FFFFFF" d="M115.939,689.611c2.394-1.367,4.293-3.494,5.851-5.717l1.159,0.778c-0.532,0.969-1.615,2.241-2.318,3.097
		v8.758h-1.463v-7.258c-0.323,0.305-1.387,1.008-2.108,1.521L115.939,689.611z M116.187,684.388
		c1.995-1.387,3.534-3.097,4.806-5.091l1.121,0.873c-1.273,1.919-2.85,3.933-4.654,5.205L116.187,684.388z M124.887,694.969
		c0.969,0.076,1.805,0.076,2.622,0.058c0.209-0.058,0.418-0.19,0.418-0.456v-7.789h-4.863v-1.406l9.784,0.02v1.387l-3.382,0.02
		l-0.019,7.94c0,0.665-0.342,1.159-0.817,1.444c-0.513,0.284-2.318,0.266-3.287,0.228L124.887,694.969z M131.688,682.184h-8.168
		l-0.019-1.405l8.188-0.019V682.184z"/>
	<path fill="#FFFFFF" d="M144.723,694.684c0.893,0.152,1.577,0.438,2.336,0.418c0.228-0.057,0.456-0.151,0.513-0.36
		c0.494-1.596,0.76-5.472,0.836-9.385h-4.997c-0.038,2.868-0.646,5.718-2.394,8.036c-0.988,1.33-2.888,2.584-4.217,3.191
		l-0.988-1.273c2.508-0.873,4.787-3.039,5.452-5.433c0.418-1.481,0.76-3.04,0.703-4.54h-6.44v-1.33h6.44v-4.369
		c0.532-0.02,0.874-0.038,1.443-0.038v4.388l6.44,0.02c-0.171,3.609-0.114,7.656-0.836,11.019c-0.095,0.475-0.456,0.969-0.95,1.234
		c-0.57,0.38-1.462,0.267-3.115-0.095L144.723,694.684z M139.518,683.761c-0.456-1.159-1.311-1.843-2.413-2.603l1.178-0.893
		c0.988,0.74,1.843,1.481,2.47,2.526L139.518,683.761z M146.034,692.139c-0.417-1.558-1.368-2.736-2.507-3.971l1.197-0.703
		c1.197,1.178,2.014,2.375,2.603,3.876L146.034,692.139z"/>
	<path fill="#FFFFFF" d="M163.419,680.037c0.019,2.146-0.076,4.084-0.285,6.004c-0.057,0.455,0.114,0.627,0.228,0.893
		c1.539,3.799,3.571,6.402,7.523,8.093l-1.102,1.234c-3.515-1.823-5.661-3.894-7.276-7.655c-0.741,2.185-3.381,5.604-7.048,7.599
		l-1.14-1.121c1.33-0.798,2.432-1.596,3.458-2.583c1.254-1.178,2.166-2.166,3.116-4.142c1.102-2.241,0.969-5.566,1.007-8.321
		H163.419z"/>
	<path fill="#FFFFFF" d="M186.371,690.714v4.331c0,0.723-0.475,1.443-1.273,1.443h-1.938l-0.456-1.52l1.767,0.133
		c0.247,0.02,0.456-0.209,0.456-0.551v-3.837h-6.174v-0.494c-1.254,2.032-2.736,3.571-4.73,4.958L172.978,694
		c2.508-1.481,4.75-4.217,5.547-6.154h-5.11v-1.387h5.718c0.209-0.438,0.437-0.855,0.494-1.197h-4.787v-1.311h5.167
		c0.133-0.361,0.228-0.855,0.285-1.159h-5.927v-1.387h6.212l0.361-1.862l1.311,0.342c-0.114,0.723-0.171,1.045-0.247,1.521h6.858
		v1.387h-7.105c-0.095,0.437-0.19,0.854-0.266,1.159h6.649v1.311h-6.991c-0.152,0.418-0.285,0.893-0.399,1.197h8.833v1.387h-9.404
		c-0.266,0.531-0.57,1.139-0.779,1.481h5.528v-1.121h1.444v1.121h3.21v1.387H186.371z M181.716,694.456
		c-0.57-1.14-1.254-1.823-2.299-2.413l0.95-0.969c0.988,0.57,1.842,1.463,2.488,2.355L181.716,694.456z"/>
	<path fill="#FFFFFF" d="M199.899,696.584v-4.502c-1.634,1.975-4.274,3.096-7.067,3.686c-0.285-0.418-0.437-0.817-0.817-1.312
		c2.489-0.418,4.749-1.443,6.174-2.641h-5.3v-1.349l6.991-0.02v-1.025h1.501v1.045h7.067v1.33l-5.415,0.019
		c0.19,0.19,0.627,0.589,1.14,0.894c1.482,0.873,3.115,1.405,5.072,1.69c-0.323,0.551-0.532,0.874-0.741,1.311
		c-2.812-0.493-5.68-1.558-7.104-3.591l-0.038,4.503L199.899,696.584z M207.878,681.48v1.369h-6.061l0.019,0.836l4.844-0.02v1.33
		h-4.863v0.76h4.92l-0.019,1.367l-4.901-0.019l0.019,0.893l6.345-0.019v1.349l-12.044-0.019l-0.019,0.93h-1.406v-5.813
		c-0.209,0.229-0.684,0.703-1.463,1.292c-0.418-0.304-0.665-0.532-1.178-0.854c1.918-1.387,3.134-3.325,4.027-5.301l1.292,0.513
		c-0.285,0.722-0.665,1.312-0.722,1.425l4.123-0.02c-0.323-0.417-1.045-0.854-1.919-1.291l1.045-0.932
		c0.855,0.343,2.108,1.273,2.603,1.92l-0.38,0.266L207.878,681.48z M196.081,687.066l0.038,0.931l4.255-0.019v-0.874
		L196.081,687.066z M200.393,685.756v-0.741h-4.255v0.741H200.393z M200.393,682.887l-4.217-0.037l0.019,0.836l4.198-0.02V682.887z"
		/>
	<path fill="#FFFFFF" d="M108.318,720.564v-1.178H96.844c-0.038,0.267,0,0.608,0,1.178H95.4v-16.128h14.362v16.128H108.318z
		 M108.318,705.823H96.844V718h11.474V705.823z M104.937,710.098v6.021c0,0.608-0.589,1.178-1.178,1.178h-1.805l-0.475-1.424
		l1.767,0.095c0.19,0.019,0.323-0.228,0.323-0.418v-5.452h-0.475c-0.665,2.66-2.166,5.205-5.129,6.345l-0.76-1.196
		c2.907-1.178,3.932-3.115,4.711-5.148h-4.274v-1.387h5.927v-2.375h1.368v2.375h2.869v1.387H104.937z"/>
	<path fill="#FFFFFF" d="M119.567,704.151c-0.494,1.52-1.063,3.04-1.69,4.351v12.139h-1.463v-9.783
		c-0.399,0.551-1.178,1.482-2.014,2.432l-1.197-0.893c3.04-3.306,3.723-5.168,5.034-8.814L119.567,704.151z M130.51,716.404
		c-0.228,1.217-0.57,2.318-1.045,3.382c-0.285,0.437-0.76,0.702-1.292,0.684c-1.045-0.171-1.919-0.798-2.66-1.538
		c-2.09-2.146-2.907-4.826-3.249-7.752l-3.287,0.285l-0.171-1.424c1.254-0.096,2.336-0.209,3.287-0.285
		c-0.152-1.881-0.323-3.971-0.304-6.137l1.52,0.02c0.057,2.299,0.133,4.389,0.342,5.984c1.767-0.133,3.705-0.305,5.775-0.514
		l0.152,1.406l-5.756,0.531c0.285,2.451,0.893,4.73,2.641,6.592c0.494,0.514,0.836,0.761,1.406,1.103
		c0.209,0.095,0.437,0.114,0.532-0.095c0.342-0.723,0.57-1.977,0.703-2.888L130.51,716.404z M127.508,708.388
		c-0.874-1.216-1.767-2.374-3.078-3.191l1.064-0.95c1.311,0.779,2.355,1.995,3.191,3.173L127.508,708.388z"/>
	<path fill="#FFFFFF" d="M148.199,720.488c-2.907-0.684-3.99-1.614-5.813-2.943c-1.615,1.576-3.761,2.488-6.003,2.906l-0.836-1.197
		c2.527-0.551,4.37-1.291,5.832-2.641c-0.665-0.646-2.07-2.678-2.564-3.742c-1.026,3.002-3.21,5.319-5.718,7.143l-1.045-1.215
		c3.249-2.014,5.547-5.377,6.402-9.176h-4.351v-1.273l1.748-4.35l1.272,0.664l-1.425,3.572h3.116
		c0.361-1.368,0.551-2.85,0.741-4.617l1.387,0.361c-0.228,1.634-0.418,3.021-0.684,4.256h8.188v1.387h-8.511
		c-0.171,0.475-0.342,1.063-0.494,1.481h6.497v1.178c-0.646,1.52-1.577,3.097-2.66,4.294c1.596,1.311,3.534,2.165,5.908,2.754
		L148.199,720.488z M140.163,712.491c0.418,0.817,1.387,2.413,2.147,3.097c0.855-0.95,1.558-2.033,2.014-3.097H140.163z
		 M144.836,707.875c-0.722-1.197-1.805-2.033-3.021-2.736l0.988-0.93c1.254,0.664,2.337,1.576,3.192,2.754L144.836,707.875z"/>
	<path fill="#FFFFFF" d="M155.269,716.537c-0.798,1.35-1.786,2.262-3.401,3.078l-1.083-1.121c1.615-0.627,2.831-1.729,3.419-2.697
		L155.269,716.537z M156.789,719.064c0,0.816-0.608,1.443-1.292,1.443h-1.52l-0.456-1.463c0.798,0.076,1.083,0.076,1.501,0.096
		c0.247,0.019,0.304-0.058,0.304-0.305v-3.059h-3.419v-1.405h3.419v-1.083h-4.065v-1.406h3.078c-0.171-0.551-0.57-1.215-1.425-1.805
		l0.475-0.133l-1.482-0.037v-1.406h3.287c-0.019-0.19-0.589-0.684-1.292-1.197l1.406-0.607c0.285,0.209,0.475,0.38,0.399,0.322
		v-0.569h-4.084v-1.405h4.084v-1.597h1.482v1.597h4.92v-1.597h1.463v1.597h4.084v1.405h-4.084v1.52h-1.463v-1.52h-4.92v1.425h-0.779
		c0.038,0.057,0.152,0.398,0.247,0.627h3.496v1.406h-1.482l0.361,0.227c-0.266,0.855-0.703,1.482-0.969,1.748h2.85v1.406h-4.123
		v1.083h3.419v1.405h-3.419v0.779l0.779-0.703c0.969,0.342,1.824,0.95,2.508,1.824l-0.988,1.102
		c-0.646-1.141-1.425-1.539-2.299-1.919V719.064z M156.333,711.883c0.627-0.531,1.007-1.33,1.197-1.975h-2.831
		c0.456,0.418,0.722,0.969,1.083,1.785l-0.475,0.152L156.333,711.883z M158.518,719.559c1.178-0.855,1.918-1.711,2.413-3.04
		c0.437-1.216,0.361-2.944,0.361-4.388v-3.648c1.957-0.133,3.724-0.437,5.224-1.481l1.064,1.063c-1.52,1.026-3.249,1.426-4.806,1.71
		v1.976h5.357v1.387h-2.375v7.428h-1.463v-7.428h-1.52c0,2.204-0.133,4.692-1.938,6.498l-1.045,1.044L158.518,719.559z"/>
</g>
<g>
	<path fill="#FFFFFF" d="M597.367,585.876c-0.175-5.601,3.011-9.906,8.891-9.906c4.48,0,8.401,2.87,8.401,7.666
		c0,3.675-1.96,5.706-4.376,7.421c-2.414,1.715-5.285,3.115-7.07,5.635h11.586v4.271h-17.992c0.035-5.671,3.501-8.086,7.736-10.957
		c2.17-1.47,5.111-2.975,5.146-5.985c0-2.31-1.54-3.78-3.675-3.78c-2.94,0-3.886,3.045-3.886,5.636H597.367z"/>
	<path fill="#FFFFFF" d="M625.299,575.97c6.09,0,8.19,4.2,8.19,6.581c0,2.415-1.261,4.375-3.57,5.145v0.07
		c2.905,0.666,4.585,2.906,4.585,5.986c0,5.145-4.62,7.701-9.171,7.701c-4.726,0-9.311-2.381-9.311-7.666
		c0-3.115,1.75-5.32,4.62-6.021v-0.07c-2.38-0.664-3.605-2.625-3.605-5.04C617.037,578.245,621.308,575.97,625.299,575.97z
		 M625.333,597.707c2.38,0,4.2-1.68,4.2-4.131c0-2.345-1.89-3.92-4.2-3.92c-2.415,0-4.341,1.365-4.341,3.885
		C620.992,596.063,622.953,597.707,625.333,597.707z M625.299,586.331c2.029,0,3.675-1.12,3.675-3.221
		c0-1.26-0.595-3.396-3.675-3.396c-1.996,0-3.746,1.226-3.746,3.396C621.553,585.246,623.303,586.331,625.299,586.331z"/>
	<path fill="#FFFFFF" d="M653.089,580.73c-5.146,4.48-7.946,13.686-8.016,20.232h-5.32c0.56-7.246,3.57-14.282,8.226-19.883h-11.621
		v-4.62h16.731V580.73z"/>
	<path fill="#FFFFFF" d="M612.184,608.939c-0.34,2.2-0.96,4.141-1.74,5.941v11.361h-1.521l0.021-8.801
		c-0.601,1-1.221,1.58-2.021,2.279l-0.979-1.199c2.28-2.041,3.501-4.521,4.261-7.162c0.221-0.78,0.461-1.721,0.68-2.98
		L612.184,608.939z M624.127,622.222c-0.4,1.841-0.74,2.961-1.801,2.961l-9.182,0.021c-0.261,0-0.781-0.281-1.102-0.761
		c-0.359-0.58-0.52-1.48-0.18-2.081c2.361-3.221,6.422-8.401,8.602-10.822h-7.721V610.1h9.982l-0.041,1.4
		c-3.34,3.561-6.381,7.501-9.041,11.021c-0.16,0.28-0.4,0.521-0.32,0.841c0.02,0.18,0.279,0.26,0.42,0.34h8.041
		c0.24,0,0.421-0.14,0.541-0.32c0.18-0.46,0.18-1.04,0.3-1.82L624.127,622.222z"/>
	<path fill="#FFFFFF" d="M638.266,623.021c0,0.561,0.399,0.801,0.76,0.801h2.36c0.58,0,0.78-1.4,1.12-3.001l1.541,0.501
		c-0.16,0.979-0.381,1.88-0.701,2.66c-0.3,0.72-1.04,1.38-1.82,1.38h-2.801c-1.66,0-2.061-1.46-2.061-2.561v-6.722l-2.54-0.02
		c0.06,5.821-2.7,8.262-6.241,10.242l-1.1-1.521c3.52-1.841,5.74-3.821,5.721-8.722h-4.581v-1.521l15.063,0.021v1.52l-4.721-0.02
		V623.021z M629.623,609.619h11.703v1.521h-11.703V609.619z"/>
</g>
<g>
	<path fill="#FFFFFF" d="M541.418,680.037c0.02,2.146-0.075,4.084-0.284,6.004c-0.058,0.455,0.114,0.627,0.228,0.893
		c1.539,3.799,3.572,6.402,7.523,8.093l-1.102,1.234c-3.516-1.823-5.662-3.894-7.276-7.655c-0.741,2.185-3.382,5.604-7.048,7.599
		l-1.141-1.121c1.33-0.798,2.432-1.596,3.458-2.583c1.254-1.178,2.166-2.166,3.116-4.142c1.102-2.241,0.969-5.566,1.006-8.321
		H541.418z"/>
	<path fill="#FFFFFF" d="M564.37,690.714v4.331c0,0.723-0.476,1.443-1.272,1.443h-1.938l-0.457-1.52l1.768,0.133
		c0.246,0.02,0.455-0.209,0.455-0.551v-3.837h-6.174v-0.494c-1.254,2.032-2.735,3.571-4.73,4.958L550.977,694
		c2.508-1.481,4.75-4.217,5.548-6.154h-5.11v-1.387h5.719c0.209-0.438,0.437-0.855,0.493-1.197h-4.787v-1.311h5.167
		c0.133-0.361,0.229-0.855,0.285-1.159h-5.928v-1.387h6.213l0.361-1.862l1.311,0.342c-0.114,0.723-0.172,1.045-0.247,1.521h6.858
		v1.387h-7.105c-0.096,0.437-0.189,0.854-0.266,1.159h6.648v1.311h-6.99c-0.152,0.418-0.285,0.893-0.399,1.197h8.833v1.387h-9.403
		c-0.266,0.531-0.569,1.139-0.778,1.481h5.527v-1.121h1.444v1.121h3.21v1.387H564.37z M559.716,694.456
		c-0.569-1.14-1.254-1.823-2.299-2.413l0.95-0.969c0.988,0.57,1.842,1.463,2.488,2.355L559.716,694.456z"/>
	<path fill="#FFFFFF" d="M577.898,696.584v-4.502c-1.633,1.975-4.273,3.096-7.066,3.686c-0.285-0.418-0.438-0.817-0.816-1.312
		c2.488-0.418,4.748-1.443,6.174-2.641h-5.301v-1.349l6.991-0.02v-1.025h1.501v1.045h7.066v1.33l-5.414,0.019
		c0.19,0.19,0.627,0.589,1.141,0.894c1.481,0.873,3.115,1.405,5.072,1.69c-0.324,0.551-0.533,0.874-0.742,1.311
		c-2.811-0.493-5.68-1.558-7.104-3.591l-0.039,4.503L577.898,696.584z M585.878,681.48v1.369h-6.061l0.019,0.836l4.845-0.02v1.33
		h-4.863v0.76h4.921l-0.02,1.367l-4.901-0.019l0.019,0.893l6.346-0.019v1.349l-12.044-0.019l-0.019,0.93h-1.406v-5.813
		c-0.209,0.229-0.684,0.703-1.463,1.292c-0.418-0.304-0.665-0.532-1.178-0.854c1.918-1.387,3.135-3.325,4.027-5.301l1.291,0.513
		c-0.284,0.722-0.664,1.312-0.721,1.425l4.122-0.02c-0.323-0.417-1.045-0.854-1.919-1.291l1.045-0.932
		c0.855,0.343,2.108,1.273,2.603,1.92l-0.38,0.266L585.878,681.48z M574.08,687.066l0.039,0.931l4.255-0.019v-0.874L574.08,687.066z
		 M578.393,685.756v-0.741h-4.255v0.741H578.393z M578.393,682.887l-4.217-0.037l0.019,0.836l4.198-0.02V682.887z"/>
	<path fill="#FFFFFF" d="M602.959,696.564v-1.178h-11.475c-0.037,0.267,0,0.608,0,1.178h-1.443v-16.128h14.361v16.128H602.959z
		 M602.959,681.823h-11.475V694h11.475V681.823z M599.578,686.098v6.021c0,0.608-0.59,1.178-1.178,1.178h-1.806l-0.475-1.424
		l1.767,0.095c0.189,0.019,0.322-0.228,0.322-0.418v-5.452h-0.475c-0.664,2.66-2.165,5.205-5.129,6.345l-0.76-1.196
		c2.906-1.178,3.932-3.115,4.711-5.148h-4.273v-1.387h5.926v-2.375h1.369v2.375h2.868v1.387H599.578z"/>
	<path fill="#FFFFFF" d="M611.662,688.32c-0.551,0.646-1.539,1.634-2.602,2.66l-1.103-1.103c2.052-1.881,3.895-3.951,4.882-6.099
		l-3.895,0.02v-1.406h4.598c0.342-0.816,0.684-1.729,0.893-2.868l1.387,0.456c-0.151,0.931-0.437,1.805-0.664,2.412h8.91v1.406
		h-9.557c-0.398,0.779-0.873,1.748-1.405,2.545l0.019,10.297h-1.481L611.662,688.32z M613.657,694.133h4.294l-0.02-4.635h-3.724
		v-1.406l3.743-0.019v-3.153l1.443-0.02l0.02,3.173h4.121l-0.019,1.425h-4.103v4.635l5.109,0.02v1.406l-10.866-0.02V694.133z"/>
	<path fill="#FFFFFF" d="M626.749,692.006c3.153-2.014,5.414-4.883,6.402-7.979h-5.281v-1.444l6.858,0.019v-2.963h1.48l-0.018,2.963
		l6.781-0.019v1.444H637.9c0.836,3.343,3.496,6.211,6.212,7.807l-1.025,1.217c-4.901-3.705-5.566-5.737-6.858-9.252l-0.037,6.744
		h3.666v1.425l-3.648-0.019l-0.018,4.673h-1.444l-0.019-4.673l-3.762,0.019v-1.425l3.762,0.02v-6.764
		c-1.312,4.142-3.534,6.991-6.802,9.347L626.749,692.006z"/>
	<path fill="#FFFFFF" d="M645.939,689.611c2.393-1.367,4.293-3.494,5.851-5.717l1.159,0.778c-0.532,0.969-1.615,2.241-2.318,3.097
		v8.758h-1.463v-7.258c-0.322,0.305-1.387,1.008-2.107,1.521L645.939,689.611z M646.186,684.388
		c1.995-1.387,3.534-3.097,4.807-5.091l1.121,0.873c-1.273,1.919-2.85,3.933-4.654,5.205L646.186,684.388z M654.887,694.969
		c0.969,0.076,1.805,0.076,2.621,0.058c0.209-0.058,0.418-0.19,0.418-0.456v-7.789h-4.863v-1.406l9.784,0.02v1.387l-3.382,0.02
		l-0.019,7.94c0,0.665-0.343,1.159-0.817,1.444c-0.513,0.284-2.317,0.266-3.286,0.228L654.887,694.969z M661.688,682.184h-8.168
		l-0.02-1.405l8.188-0.019V682.184z"/>
	<path fill="#FFFFFF" d="M668.34,690.068c-0.59,0.209-1.197,0.531-2.166,0.969c-0.361-0.399-0.665-0.76-1.158-1.159
		c1.311-0.513,2.298-0.894,3.361-1.405l-0.019-3.725h-2.716v-1.387h2.659v-3.704h1.481l0.02,3.704l2.032,0.02v1.367h-2.032v3.135
		c0.398-0.17,1.025-0.475,2.127-0.987c0.02,0.627,0.02,1.063,0,1.558c-0.797,0.361-1.178,0.494-2.146,0.969l-0.02,5.377
		c0,0.512,0.039,1.045-0.702,1.5c-0.703,0.418-1.634,0.209-2.546,0.266c-0.133-0.512-0.304-0.873-0.398-1.443
		c0.836,0.057,1.5,0.057,1.938,0c0.342-0.038,0.285-0.722,0.285-1.387V690.068z M680.688,680.987
		c-1.063,0.684-3.191,1.481-4.313,1.823v4.521l4.978-1.063l0.267,1.405l-5.225,1.084v4.863c0,0.475,0.038,0.797,0.322,0.797
		l2.547,0.02c0.569,0,0.854-1.615,1.082-2.641l1.292,0.684c-0.171,0.816-0.38,1.539-0.608,2.242
		c-0.189,0.569-0.722,1.196-1.558,1.196h-2.792c-1.102,0-1.786-0.893-1.786-1.919v-4.92l-2.698,0.551
		c-0.075-0.551-0.17-0.931-0.246-1.425l2.926-0.589l-0.02-4.369c-0.57,0.171-1.805,0.418-2.412,0.494l-0.779-1.387
		c3.153-0.285,5.699-1.406,8.074-2.489L680.688,680.987z"/>
	<path fill="#FFFFFF" d="M684.148,683.286c1.539-0.988,2.393-2.375,3.096-3.895c0.457,0.209,0.779,0.38,1.235,0.589
		c-0.209,0.475-0.418,0.893-0.476,1.045h4.921v1.349l-2.868,0.019c0.076,0.096,0.342,0.666,0.646,1.121l-1.292,0.703
		c-0.322-0.76-0.646-1.33-1.082-1.824h-1.103c-0.456,0.627-1.026,1.254-1.995,1.919L684.148,683.286z M684.927,684.35h6.972
		c-0.133-0.266-0.513-0.74-1.082-1.291l1.367-0.438c0.608,0.607,1.064,1.387,1.292,1.729h6.802v3.572l-1.444-0.02v-2.203h-12.462
		l-0.02,2.298l-1.425-0.019V684.35z M688.916,696.641h-1.5l0.019-9.973h10.221l0.019,3.875l-8.795,0.02v0.949h9.631v5.072h-1.463
		v-1.121h-8.149L688.916,696.641z M688.879,689.193h7.352l-0.02-1.178h-7.332V689.193z M688.897,692.898l0.019,1.254l8.131-0.02
		v-1.272L688.897,692.898z M697.77,682.298c0.113,0.114,0.551,0.57,0.873,1.159c-0.418,0.266-0.797,0.455-1.291,0.664
		c-0.361-0.76-0.741-1.348-1.235-1.805h-1.254c-0.247,0.418-0.608,1.008-1.14,1.463c-0.398-0.303-0.703-0.493-1.121-0.816
		c1.025-1.102,1.559-2.203,1.881-3.609l1.273,0.475c-0.076,0.494-0.19,0.912-0.267,1.121h5.187v1.349H697.77z"/>
	<path fill="#FFFFFF" d="M707.328,684.406c-0.514,1.539-1.824,2.869-2.889,3.914l-1.121-1.025c1.121-0.932,2.166-2.053,2.965-3.592
		L707.328,684.406z M706.149,682.963c-0.817-1.178-1.501-1.691-2.413-2.279l0.875-0.874c0.854,0.36,2.032,1.196,2.602,2.032
		L706.149,682.963z M703.736,695.102c2.774-0.17,4.636-0.113,6.308-1.938c0.665-0.893,0.685-1.881,0.798-3.457l1.367-0.02
		c-0.057,1.9-0.208,3.857-1.766,5.072c-1.71,1.35-3.838,1.577-6.041,1.729L703.736,695.102z M716.237,687.731v5.927h-1.425V689.1
		h-6.555v4.539h-1.443v-5.907h0.836l-0.589-0.836c1.823-0.513,3.153-0.969,4.236-1.881c0.685-0.569,1.103-1.235,1.481-2.28
		l1.33,0.305l-0.247,0.74c1.501,2.071,3.458,2.66,5.946,3.325l-0.988,1.216c-2.032-0.514-4.236-1.672-5.604-3.306
		c-0.76,1.235-2.85,2.413-4.654,2.679L716.237,687.731z M715.914,683.895c0.532-0.608,0.798-1.179,0.932-1.578h-5.548
		c-0.551,1.026-1.634,2.014-2.792,2.813l-0.969-1.121c1.652-0.969,2.773-2.621,3.343-4.407l1.272,0.456
		c-0.076,0.266-0.246,0.607-0.322,0.836h6.535c0.113,1.805-0.59,2.773-1.159,3.704L715.914,683.895z M717.586,696.679
		c-1.615-1.063-3.818-1.805-5.908-2.241l0.665-1.234c1.976,0.398,4.104,1.006,5.965,2.146L717.586,696.679z"/>
	<path fill="#FFFFFF" d="M600.529,710.478h3.704c-0.228-0.569-1.179-1.614-1.748-2.052l0.912-0.76
		c0.589,0.342,1.805,1.481,2.394,2.375l-0.646,0.437l2.451,0.038c0.513-0.494,1.501-1.768,1.919-2.83l1.253,0.684
		c-0.398,0.797-1.044,1.69-1.424,2.108h5.016v1.311h-12.425l0.019,3.477c0.02,2.698-1.5,4.407-2.944,5.281l-1.063-1.083
		c1.254-0.684,2.584-2.166,2.584-4.616V710.478z M607.596,706.146l6.744,0.037v1.312h-15.445v-1.292h7.637
		c-0.303-0.551-1.082-1.52-1.842-2.07l0.987-0.799c0.779,0.646,1.653,1.368,2.413,2.508L607.596,706.146z"/>
	<path fill="#FFFFFF" d="M616.965,719.217c1.424-1.444,3.324-4.143,3.703-7.429h-3.305v-1.329h3.324c0.057-0.799,0-1.729,0-2.564
		h-2.793v-1.369h2.773v-2.868h1.444v2.85h2.356v1.368h-2.318c-0.02,1.158,0.02,1.805,0,2.603h2.508v1.311l-2.604,0.019
		c-0.36,4.104-2.469,6.953-4.046,8.473L616.965,719.217z M621.125,719.159c2.469-0.95,4.711-2.032,5.793-4.882
		c0.817-2.166,1.026-4.807,1.312-7.732l1.329,0.189c-0.113,2.223-0.303,3.705-0.626,5.566c-0.646,3.591-2.015,6.137-6.935,8.112
		L621.125,719.159z M624.012,717.316c-0.588-1.234-1.387-2.488-2.203-3.153l1.045-0.761c0.779,0.59,1.767,1.881,2.299,3.078
		L624.012,717.316z M632.58,704.379v10.658h-1.387v-9.348h-4.845v9.348h-1.387v-10.658H632.58z M628.724,713.518h1.405v4.691
		c0.038,0.057,0.076,0.076,0.152,0.114h2.052c0.36-0.171,0.513-1.045,0.569-1.405l0.058-0.438l1.216,0.494
		c-0.229,1.007-0.285,2.451-1.596,2.679h-2.204c-1.083,0-1.634-0.741-1.634-1.312L628.724,713.518z"/>
	<path fill="#FFFFFF" d="M639.137,713.193c-0.189,0.552-0.74,1.9-1.919,3.363l-1.159-1.007c0.894-1.121,1.482-2.147,2.033-3.268
		c0.551-1.14,0.798-2.432,0.988-3.534h-2.432v-1.387h2.412v-3.686h1.482v3.667h2.07v1.387h-2.033v2.014l0.399-0.209
		c0.836,1.007,1.444,1.881,1.919,3.04l-1.235,0.779c-0.36-0.951-0.798-1.787-1.083-2.109v8.416h-1.463L639.137,713.193z
		 M652.796,720.604c-2.413-0.399-4.54-1.691-5.376-3.743c-0.95,1.995-3.173,3.192-5.301,3.762l-0.798-1.254
		c1.938-0.437,3.667-1.216,4.56-2.564h-3.742v-1.368h4.331c0.114-0.342,0.171-0.76,0.247-1.102h-3.666v-5.889h8.719v5.908h-3.686
		c-0.037,0.36-0.113,0.836-0.209,1.082h4.787v1.35h-3.779c0.057,0.094,0.303,0.437,0.588,0.74c0.969,1.045,2.68,1.634,4.085,1.9
		L652.796,720.604z M645.748,706.85v1.196h-1.406v-1.196h-2.545v-1.387h2.525v-1.844h1.444v1.844h3.306v-1.862h1.406v1.843h2.525
		v1.367h-2.507v1.235h-1.405v-1.196H645.748z M650.27,709.832h-5.719v0.854h5.719V709.832z M644.57,712.055v0.911h5.699v-0.911
		H644.57z"/>
</g>
</svg>
