<?xml version="1.0" encoding="utf-8"?>
<!-- Generator: Adobe Illustrator 16.0.0, SVG Export Plug-In . SVG Version: 6.00 Build 0)  -->
<!DOCTYPE svg PUBLIC "-//W3C//DTD SVG 1.1//EN" "http://www.w3.org/Graphics/SVG/1.1/DTD/svg11.dtd">
<svg version="1.1" id="Layer_1" xmlns="http://www.w3.org/2000/svg" xmlns:xlink="http://www.w3.org/1999/xlink" x="0px" y="0px"
	 width="768px" height="1024px" viewBox="0 0 768 1024" enable-background="new 0 0 768 1024" xml:space="preserve">
<g>
	<g>
		<path fill="#FFFFFF" d="M182.168,880.063h-7.219c-2.223,0-4.293-0.53-5.889-1.805c-0.418,0.686-1.539,1.92-2.166,2.527
			l-1.083-1.045c0.912-0.894,1.671-1.691,2.204-2.527c-0.722-0.797-1.292-1.88-1.843-3.02l1.159-0.666
			c0.494,0.912,0.931,1.92,1.425,2.471c0.722-1.33,0.779-2.432,0.874-3.42h-3.23v-1.197c1.368-1.424,2.488-3.096,3.134-4.559h-3.458
			l0.019-1.388l4.978,0.02l0.019,1.254c-0.608,1.444-1.52,3.097-2.736,4.483l2.717,0.02c-0.019,1.12-0.152,3.457-1.33,5.813
			c1.805,1.691,4.464,1.748,7.2,1.691c1.5-0.02,3.723-0.076,5.794-0.189L182.168,880.063z M175.405,878.41v-1.785h-4.312v-1.387
			h4.293l0.019-1.121h-3.59v-1.368h3.571l0.019-1.12h-3.229v-1.387h3.229l-0.019-1.142l-4.464-0.02v-1.367l4.464-0.02v-1.025h-3.21
			v-1.367l3.21-0.02V863.8h1.444l0.019,1.482l4.123,0.02v2.412h1.235v1.367h-1.235v2.547l-4.142-0.021v1.141l4.37-0.02v1.388h-4.351
			l-0.019,1.121h5.396l0.019,1.387l-5.414-0.021l0.019,1.806L175.405,878.41L175.405,878.41z M176.83,866.67v1.045h2.698v-1.045
			H176.83z M179.527,870.242v-1.16l-2.698,0.02v1.159L179.527,870.242z"/>
		<path fill="#FFFFFF" d="M201.035,879.266h-15.521v-1.405h7.504c1.9-2.526,3.059-5.623,3.496-9.08l1.444,0.606
			c-0.475,3.191-1.615,6.154-3.249,8.474h6.326V879.266L201.035,879.266z M193.246,867.05c-0.741-1.083-1.748-2.089-3.097-2.546
			l1.216-0.987c1.292,0.493,2.375,1.597,3.21,2.792l-1.007,0.724l6.554,0.019v1.405h-13.754v-1.387L193.246,867.05z
			 M190.909,877.138c-0.247-2.546-1.216-5.87-3.001-7.751l1.33-0.646c1.805,1.938,2.944,5.301,3.115,7.961L190.909,877.138z"/>
		<path fill="#FFFFFF" d="M205.008,871.153h14.723v1.577l-14.723,0.019V871.153z"/>
		<path fill="#FFFFFF" d="M222.317,879.626c1.615-0.931,3.097-2.354,3.477-3.989c0.152-0.684,0.304-1.367,0.304-2.108v-6.061
			l1.406,0.171v6.611c0,2.621-1.709,5.016-4.141,6.535L222.317,879.626z M224.958,866.385v10.031h-1.349l0.019-11.418h6.269v11.398
			h-1.425l-0.019-10.013L224.958,866.385L224.958,866.385z M227.712,876.625c1.102,0.438,2.28,1.387,3.059,2.678l-1.102,1.142
			c-0.475-1.142-1.881-2.433-2.755-2.793L227.712,876.625z M231.702,880.785l-0.703-1.216c0.285-0.114,0.513-0.399,0.513-0.646
			v-6.439h-1.102v-1.389h1.102v-7.01h1.406v5.225c1.349-0.722,3.286-2.127,4.502-4.235l1.178,0.912
			c-1.216,2.202-3.952,4.121-5.661,4.768v0.342h6.174v1.389l-3.667-0.02c0.171,1.898,1.254,3.951,2.394,5.414
			c0.513,0.664,1.216,1.311,2.071,1.842l-1.064,1.142c-3.343-2.355-4.331-5.891-4.692-8.378h-1.216v6.496
			c0.722-0.305,1.615-0.551,2.545-0.987v1.481L231.702,880.785z"/>
		<path fill="#FFFFFF" d="M244.509,870.926h-2.545v-1.311h3.951v7.18c1.007,1.084,2.47,1.769,4.123,1.824
			c1.539,0.057,3.135,0.171,4.711,0.076l4.046-0.229l-0.57,1.56h-7.732c-3.477,0-4.293-0.97-5.243-1.978
			c-0.931,0.686-1.843,1.56-2.869,2.451l-1.083-1.14c1.178-0.854,2.242-1.748,3.21-2.547L244.509,870.926L244.509,870.926z
			 M244.699,868.152c-0.513-1.121-1.425-2.489-2.507-3.4l1.063-0.779c1.14,0.912,2.128,2.299,2.679,3.362L244.699,868.152z
			 M251.348,867.98c-0.646-0.246-1.234-0.476-2.394-0.816l1.083-1.121c0.798,0.209,1.463,0.551,2.052,0.855
			c1.083-0.268,2.014-0.817,2.545-1.045l-7.865-0.039v-1.329h10.524v1.195c-1.292,1.009-2.603,1.636-3.837,2.091l0.399,0.189h3.78
			v8.682c0,0.552-0.342,0.837-0.76,1.084c-0.646,0.38-1.539,0.188-2.375,0.245l-0.475-1.348c0.836,0.057,1.444,0.057,1.938-0.021
			c0.152-0.02,0.228-0.151,0.228-0.438v-1.538h-3.078v2.641h-1.387v-2.641h-3.078v3.06h-1.387v-9.709h4.087V867.98z M248.65,869.311
			v1.292h3.059v-1.292H248.65z M251.728,871.971h-3.078v1.33h3.078V871.971z M253.115,869.291v1.33h3.059v-1.33H253.115z
			 M253.134,871.971v1.33h3.021v-1.33H253.134z"/>
		<path fill="#FFFFFF" d="M268.41,880.822v-6.896h-7.352v-1.387h7.352v-6.61h-6.155v-1.387h13.64v1.387h-6.041v6.61h7.333v1.387
			h-7.333v6.896H268.41z M263.946,866.48c1.558,1.387,2.508,3,3.268,4.844l-1.33,0.723c-0.665-1.881-1.577-3.572-3.344-4.883
			L263.946,866.48z M270.69,871.172c1.558-1.424,2.773-2.926,3.324-4.806l1.254,0.665c-0.627,1.918-1.805,3.457-3.287,4.977
			L270.69,871.172z"/>
		<path fill="#FFFFFF" d="M295.009,873.129c-0.38-1.007-0.912-1.652-1.539-2.584c-3.742,0.285-7.694,0.305-11.474,0.875
			c-0.304-0.476-0.532-0.932-0.874-1.426c3.229-2.146,5.167-4.615,6.174-6.819l1.33,0.97c-1.634,2.943-3.419,4.427-4.863,5.527
			c2.337-0.114,6.269-0.381,8.53-0.456c-0.589-0.627-1.501-1.312-2.545-2.09l1.063-1.007c2.014,1.425,4.18,3.629,5.433,5.928
			L295.009,873.129z M284.029,880.48h-1.501v-7.884h11.17l-0.019,7.847h-1.444v-1.406h-8.226L284.029,880.48z M284.029,873.984
			v3.646h8.207v-3.666L284.029,873.984z"/>
	</g>
	<g>
		<path fill="#FFFFFF" d="M140.438,879.156c-42.043,0-42.043,0-42.043,0c0-23.59,0-23.59,0-23.59c42.043,0,42.043,0,42.043,0
			V879.156z M145.32,850.681c-51.538,0-51.538,0-51.538,0c-0.271,0-0.271,0-0.271,0.267c0,33.094,0,33.094,0,33.094
			s0,0.264,0.271,0.264c14.376,0,14.376,0,14.376,0c0,2.722,0,2.722,0,2.722c-9.221,0-9.221,0-9.221,0
			c-0.273,0-0.543,0.264-0.543,0.264c0,7.326,0,7.326,0,7.326c0,0.276,0.27,0.276,0.543,0.276c41.228,0,41.228,0,41.228,0
			s0.272,0,0.272-0.276c0-7.326,0-7.326,0-7.326l-0.272-0.264c-9.493,0-9.493,0-9.493,0c0-2.722,0-2.722,0-2.722
			c14.648,0,14.648,0,14.648,0l0.271-0.264c0-33.094,0-33.094,0-33.094C145.591,850.681,145.32,850.681,145.32,850.681z"/>
		<path fill="#FFFFFF" d="M104.108,877.019c0.53,0,1.06-0.264,1.06-1.081c0-4.345,0-4.345,0-4.345c0-0.805-0.529-1.082-1.06-1.082
			c-0.794,0-1.06,0.277-1.06,1.082c0,4.345,0,4.345,0,4.345C103.049,876.755,103.314,877.019,104.108,877.019z"/>
		<path fill="#FFFFFF" d="M109.786,877.019c0.566,0,1.136-0.264,1.136-1.081c0-1.915,0-1.915,0-1.915
			c0-0.54-0.569-1.083-1.136-1.083s-1.136,0.543-1.136,1.083c0,1.915,0,1.915,0,1.915
			C108.65,876.755,109.219,877.019,109.786,877.019z"/>
		<path fill="#FFFFFF" d="M115.766,877.019c0.53,0,1.059-0.264,1.059-1.081c0-8.729,0-8.729,0-8.729
			c0-0.541-0.528-1.081-1.059-1.081c-0.795,0-1.059,0.54-1.059,1.081c0,8.729,0,8.729,0,8.729
			C114.707,876.755,114.971,877.019,115.766,877.019z"/>
		<path fill="#FFFFFF" d="M121.443,877.019c0.568,0,1.135-0.264,1.135-1.081c0-14.028,0-14.028,0-14.028
			c0-0.542-0.566-1.083-1.135-1.083c-0.566,0-1.137,0.541-1.137,1.083c0,14.028,0,14.028,0,14.028
			C120.307,876.755,120.877,877.019,121.443,877.019z"/>
		<path fill="#FFFFFF" d="M127.423,877.019c0.53,0,1.062-0.264,1.062-1.066c0-6.175,0-6.175,0-6.175
			c0-0.806-0.531-1.083-1.062-1.083c-0.528,0-1.058,0.277-1.058,1.083c0,6.175,0,6.175,0,6.175
			C126.365,876.755,126.895,877.019,127.423,877.019z"/>
		<path fill="#FFFFFF" d="M133.101,877.019c0.853,0,1.136-0.264,1.136-1.081c0-17.359,0-17.359,0-17.359
			c0-0.54-0.283-1.082-1.136-1.082c-0.567,0-1.134,0.542-1.134,1.082c0,17.359,0,17.359,0,17.359
			C131.967,876.755,132.533,877.019,133.101,877.019z"/>
	</g>
</g>
</svg>
