<?xml version="1.0" encoding="utf-8"?>
<!-- Generator: Adobe Illustrator 16.0.0, SVG Export Plug-In . SVG Version: 6.00 Build 0)  -->
<!DOCTYPE svg PUBLIC "-//W3C//DTD SVG 1.1//EN" "http://www.w3.org/Graphics/SVG/1.1/DTD/svg11.dtd">
<svg version="1.1" id="Layer_1" xmlns="http://www.w3.org/2000/svg" xmlns:xlink="http://www.w3.org/1999/xlink" x="0px" y="0px"
	 width="768px" height="1024px" viewBox="0 0 768 1024" enable-background="new 0 0 768 1024" xml:space="preserve">
<g>
	<g>
		<path fill="#FFFFFF" d="M554.752,869.233c-2.906-0.685-3.99-1.614-5.813-2.944c-1.614,1.576-3.762,2.488-6.004,2.906l-0.836-1.197
			c2.527-0.551,4.369-1.291,5.832-2.641c-0.664-0.646-2.069-2.679-2.563-3.742c-1.025,3.002-3.211,5.319-5.719,7.144l-1.046-1.216
			c3.25-2.014,5.549-5.377,6.402-9.176h-4.35v-1.273l1.748-4.35l1.271,0.664l-1.424,3.572h3.115c0.36-1.367,0.551-2.851,0.739-4.616
			l1.389,0.359c-0.229,1.636-0.418,3.021-0.686,4.256h8.188v1.388h-8.511c-0.172,0.475-0.343,1.063-0.494,1.481h6.497v1.179
			c-0.646,1.52-1.577,3.096-2.659,4.293c1.596,1.311,3.533,2.166,5.908,2.754L554.752,869.233z M546.716,861.236
			c0.418,0.815,1.388,2.412,2.147,3.096c0.854-0.949,1.557-2.032,2.014-3.096H546.716z M551.389,856.619
			c-0.721-1.196-1.805-2.032-3.02-2.735l0.986-0.931c1.255,0.664,2.338,1.576,3.192,2.754L551.389,856.619z"/>
		<path fill="#FFFFFF" d="M562.334,860.57c-0.893,1.293-1.805,2.317-3.096,3.705l-1.254-0.874c2.202-2.186,4.217-4.54,5.108-7.011
			h-4.255v-1.367h4.77c0.304-0.799,0.569-1.748,0.854-2.793l1.348,0.418c-0.266,0.932-0.493,1.785-0.684,2.375h9.231v1.367h-9.764
			c-0.457,1.12-1.025,2.374-1.615,3.269h3.609v-2.413h1.443v2.413h4.692v5.642c0,1.045-0.476,1.824-1.368,1.824h-1.729l-0.455-1.463
			c0.703,0.076,1.311,0.171,1.672,0.113c0.267,0,0.438-0.209,0.438-0.476v-4.255h-3.249v8.321h-1.443v-8.321h-2.812v6.592h-1.444
			L562.334,860.57L562.334,860.57z"/>
		<path fill="#FFFFFF" d="M583.082,864.598v4.637h-1.443v-4.219l-4.142,1.197l-0.911-1.443c0.664-0.057,1.12-0.172,1.462-0.246
			v-10.051h-1.026v-1.387h7.125v1.387h-1.063v8.721c0.398-0.096,1.007-0.229,1.35-0.381v1.388L583.082,864.598z M581.639,854.473
			h-2.146v2.053h2.146V854.473z M581.639,857.911h-2.146v2.071h2.146V857.911z M581.639,861.369h-2.146v2.83
			c0.797-0.189,1.254-0.285,2.146-0.551V861.369z M592.714,869.195c-0.722-0.455-1.159-0.816-1.71-1.463
			c-1.271-1.539-2.146-3.571-2.469-6.099c-0.438,2.564-0.703,4.293-3.116,6.648c-0.342,0.323-0.685,0.646-1.14,0.894l-0.95-1.121
			c2.508-1.672,3.249-3.249,3.78-6.421h-3.495v-1.387h3.608c0.059-0.627,0.059-1.443,0.059-2.299v-0.305h-3.308v-1.388h4.313
			c0.969-1.367,1.406-2.393,1.957-3.932l1.311,0.703c-0.437,0.873-1.121,2.316-1.709,3.229h3.021v1.388h-4.18
			c0,1.272,0,1.823-0.075,2.604h4.729v1.387h-3.534c0.115,0.551,0.19,1.216,0.438,1.918c0.627,1.769,1.729,3.383,3.496,4.693
			L592.714,869.195z M586.539,856.088c-0.284-1.045-0.969-2.299-1.747-2.926l1.178-0.665c0.798,0.778,1.405,1.747,1.786,2.907
			L586.539,856.088z"/>
		<path fill="#FFFFFF" d="M611.238,869.367h-1.443v-1.064h-7.104l-0.019,1.064h-1.443l0.019-7.105
			c-0.949,0.247-2.07,0.589-3.344,0.798l-1.234-1.292c2.793-0.53,5.301-1.14,7.466-2.052c-0.418-0.551-1.14-1.007-2.165-1.387
			l1.349-1.045c0.854,0.456,1.69,1.14,2.108,1.786c1.521-0.703,3.098-1.957,4.065-3.191l-5.661,0.02
			c-1.463,1.271-3.229,2.261-5.034,3.001l-1.501-1.14c2.697-0.932,5.813-2.546,7.81-5.548l1.311,0.686
			c-0.418,0.721-0.932,1.311-1.178,1.596l6.117,0.019l-0.021,1.217c-1.254,2.261-4.18,4.691-8.416,5.983l8.32,0.037L611.238,869.367
			L611.238,869.367z M602.672,866.916h7.123v-3.799h-7.123V866.916z"/>
		<path fill="#FFFFFF" d="M617.435,869.367v-9.499c-0.247,0.342-0.835,1.083-1.576,1.823l-1.196-0.912
			c2.772-2.45,3.78-5.338,4.56-8.605l1.33,0.514c-0.476,1.652-1.008,3.742-1.672,5.148v11.531H617.435z M631.986,859.906h-12.312
			l-0.019-1.388l2.868,0.02v-2.526l-2.089,0.021v-1.369h2.089v-2.374h1.443v2.354h3.325v-2.354l1.443,0.019v2.337h2.052
			l-0.019,1.389h-2.033l-0.021,2.507l3.269-0.02v1.386H631.986z M628.549,869.367l-0.02-1.16h-5.813l-0.019,1.179h-1.425
			l-0.02-8.148h8.719v8.148L628.549,869.367z M628.529,863.896v-1.272l-5.832-0.021l0.019,1.293H628.529z M622.697,866.82
			l5.832,0.02v-1.689l-5.832,0.019V866.82z M627.295,856.031h-3.325v2.487h3.325V856.031z"/>
		<path fill="#FFFFFF" d="M637.441,868.74l-0.854-1.217c0.36-0.305,0.493-0.531,0.493-0.912v-7.713h-2.678v-1.349h4.122v9.023
			l2.413-1.388v1.576L637.441,868.74z M637.765,855.955c-0.551-1.141-1.367-2.033-2.394-2.869l1.045-0.836
			c1.063,0.723,1.938,1.71,2.545,2.793L637.765,855.955z M649.049,853.542v8.264h-1.539v-1.025h-4.615v5.813
			c0,0.38,0.228,0.627,0.627,0.627h4.539c0.285,0,0.627-0.398,0.686-0.646c0.189-0.741,0.247-1.254,0.284-2.187l1.463,0.591
			c-0.058,0.739-0.209,1.329-0.379,1.938c-0.172,0.665-0.779,1.709-1.957,1.709h-4.845c-0.911,0-1.956-0.721-1.956-1.823v-7.428
			h6.153v-4.407h-6.781v-1.425H649.049L649.049,853.542z"/>
		<path fill="#FFFFFF" d="M669.492,860.818l-8.244,0.019v8.549h-1.463v-8.549l-6.439-0.019v-1.368h6.439v-7.086l1.463,0.019
			l0.02,2.831h6.857v1.387h-6.857l-0.02,2.831l8.244,0.02V860.818z M666.738,865.662c-1.292-1.141-3.021-2.375-4.901-2.717
			l0.931-1.217c1.844,0.608,3.438,1.521,4.959,2.889L666.738,865.662z"/>
		<path fill="#FFFFFF" d="M681.008,862.756c-0.438-0.723-1.463-1.938-2.317-2.679l1.063-1.063c0.988,0.74,1.977,1.672,2.604,2.433
			L681.008,862.756z"/>
		<path fill="#FFFFFF" d="M538.68,883.466c1.995-2.107,3.534-5.585,4.353-8.207l1.387,0.494c-0.418,1.312-0.875,2.622-1.426,3.761
			v12.709h-1.424v-10.145c-0.209,0.381-0.836,1.33-1.615,2.242L538.68,883.466z M548.369,874.955c0.912,0.531,1.861,1.5,2.488,2.451
			l-0.418,0.475h5.451v1.367l-12.101-0.02v-1.329l5.718-0.02c-0.343-0.57-1.216-1.368-2.185-1.995L548.369,874.955z
			 M544.836,882.098v-1.366h9.593v1.366H544.836z M544.836,884.854v-1.368l9.611-0.02l-0.02,1.388H544.836L544.836,884.854z
			 M546.432,892.186h-1.35l-0.019-5.832h9.1v5.795l-1.349,0.019l0.019-1.102h-6.383L546.432,892.186z M546.45,889.867l6.383-0.037
			v-2.242h-6.421L546.45,889.867z"/>
		<path fill="#FFFFFF" d="M573.467,875.924v14.229c0,0.551-0.438,1.426-1.178,1.539l-2.166,0.038l-0.455-1.481
			c0.778,0.037,1.443,0.095,2.014,0.019c0.209-0.019,0.304-0.171,0.304-0.398v-4.064h-4.142v4.521h-1.481v-4.521h-4.16
			c-0.267,2.45-0.664,4.008-2.773,6.479l-1.216-0.911c0.779-0.951,1.349-1.729,1.768-2.66c0.569-1.292,0.816-2.869,0.816-4.332
			v-8.453h12.67V875.924z M562.277,877.33v2.754h4.084v-2.754H562.277z M562.277,884.396h4.084v-2.927h-4.084V884.396z
			 M567.863,880.084l4.084-0.02v-2.734h-4.104L567.863,880.084z M567.863,881.471l-0.021,2.927h4.084l0.021-2.927H567.863z"/>
		<path fill="#FFFFFF" d="M593.492,883.617l-8.244,0.02v8.549h-1.463v-8.549l-6.439-0.02v-1.367h6.439v-7.086l1.463,0.02l0.02,2.83
			h6.857v1.388h-6.857l-0.02,2.83l8.244,0.02V883.617z M590.738,888.462c-1.292-1.14-3.021-2.374-4.901-2.717l0.931-1.216
			c1.844,0.606,3.438,1.52,4.959,2.888L590.738,888.462z"/>
	</g>
	<g>
		<path fill="#FFFFFF" d="M510.776,865.771c0.305-2.164-0.943-3.386-3.121-3.386c-0.625,0-0.945,0.306-1.25,0.306
			c0,6.452,0,6.452,0,6.452c0.305,0,0.625,0,0.93,0C509.833,869.144,510.776,867.923,510.776,865.771z"/>
		<path fill="#FFFFFF" d="M494.86,864.245c-0.291-0.611-0.291-1.207-0.598-1.512l0,0c0,0.305-0.305,0.899-0.305,1.512
			c-0.916,2.123-0.916,2.123-0.916,2.123c2.429,0,2.429,0,2.429,0L494.86,864.245z"/>
		<path fill="#FFFFFF" d="M502.938,863.94c0-0.931-0.943-1.556-1.872-1.556c-0.625,0-0.945,0-1.25,0.306c0,2.816,0,2.816,0,2.816
			c1.25,0,1.25,0,1.25,0C501.993,865.508,502.938,864.884,502.938,863.94z"/>
		<path fill="#FFFFFF" d="M510.651,885.378c-8.049,0-8.049,0-8.049,0c-0.609,0-1.233-0.623-1.233-1.248s0.624-1.233,1.233-1.233
			c8.049,0,8.049,0,8.049,0c0.625,0,1.248,0.608,1.248,1.233S511.276,885.378,510.651,885.378z M499.828,866.424
			c0,3.413,0,3.413,0,3.413c-0.93,0-0.93,0-0.93,0c0-8.076,0-8.076,0-8.076c0.61,0,1.235,0,1.858,0c1.235,0,1.847,0,2.472,0.625
			c0.305,0.306,0.623,0.931,0.623,1.556c0,0.93-0.623,1.858-1.554,2.164l0,0c0.624,0,0.931,0.625,1.234,1.555
			c0.318,1.248,0.318,1.872,0.624,2.178c-1.234,0-1.234,0-1.234,0s-0.318-0.93-0.318-1.857c-0.306-1.249-0.61-1.556-1.539-1.556
			L499.828,866.424L499.828,866.424z M497.969,885.378c-8.048,0-8.048,0-8.048,0c-0.611,0-1.234-0.623-1.234-1.248
			s0.623-1.233,1.234-1.233c8.048,0,8.048,0,8.048,0c0.625,0,1.234,0.608,1.234,1.233S498.594,885.378,497.969,885.378z
			 M484.037,865.8c0-2.483,1.859-4.344,4.343-4.344c0.93,0,1.541,0.305,1.846,0.609c-0.305,0.625-0.305,0.625-0.305,0.625
			c-0.305,0-0.93-0.306-1.541-0.306c-1.857,0-3.094,1.234-3.094,3.414s1.235,3.413,3.094,3.413c0.611,0,1.236,0,1.541-0.306
			c0.305,0.93,0.305,0.93,0.305,0.93c-0.305,0-1.233,0.306-2.164,0.306C485.896,870.143,484.037,868.602,484.037,865.8z
			 M493.64,861.761c1.235,0,1.235,0,1.235,0c2.789,8.076,2.789,8.076,2.789,8.076c-0.93,0-0.93,0-0.93,0
			c-0.931-2.483-0.931-2.483-0.931-2.483c-2.79,0-2.79,0-2.79,0c-0.93,2.483-0.93,2.483-0.93,2.483c-0.93,0-0.93,0-0.93,0
			L493.64,861.761z M505.392,861.761c0.625,0,1.236,0,2.166,0c1.556,0,2.484,0.306,3.095,0.931c0.93,0.625,1.248,1.555,1.248,2.805
			c0,1.553-0.318,2.482-1.248,3.412c-0.609,0.624-1.847,1.234-3.398,1.234c-0.93,0-1.555,0-1.861-0.306L505.392,861.761
			L505.392,861.761z M510.042,854.921c-40.228,0-40.228,0-40.228,0c-4.023,0-7.119,3.107-7.119,7.465c0,20.814,0,20.814,0,20.814
			c0,4.344,3.096,7.451,7.119,7.451c40.228,0,40.228,0,40.228,0c4.021,0,7.117-3.107,7.117-7.451c0-20.814,0-20.814,0-20.814
			C517.159,858.028,514.063,854.921,510.042,854.921z"/>
	</g>
</g>
</svg>
