<?xml version="1.0" encoding="utf-8"?>
<!-- Generator: Adobe Illustrator 16.0.0, SVG Export Plug-In . SVG Version: 6.00 Build 0)  -->
<!DOCTYPE svg PUBLIC "-//W3C//DTD SVG 1.1//EN" "http://www.w3.org/Graphics/SVG/1.1/DTD/svg11.dtd">
<svg version="1.1" id="Layer_1" xmlns="http://www.w3.org/2000/svg" xmlns:xlink="http://www.w3.org/1999/xlink" x="0px" y="0px"
	 width="322px" height="90px" viewBox="0.054 0 322 90" enable-background="new 0.054 0 322 90" xml:space="preserve">
<g>
	<rect x="206.603" y="34.87" fill="#B72026" width="1.703" height="20.884"/>
	<g>
		<path fill="#FFFFFF" d="M173.974,39.814h-5.621v-1.79h5.621V39.814z M168.353,42.032h5.621v1.819h-5.621V42.032z M175.871,46.845
			c-0.015,0.015-1.252,0.985-2.981,2.023c-0.688-0.958-0.883-1.985-1.051-2.397h4.715V35.407h-10.984v18.95l0.035,0.025
			c0.008,0.003,0.629,0.51,1.36,1.303l0.03,0.032l0.047-0.005c1.338-0.328,3.331-0.492,3.786-0.501l-0.002-2.53
			c-0.851,0.002-2.136,0.172-2.476,0.224v-6.435h0.656c0.367,2.436,3.649,7.719,6.689,9.338l2.091-2.088
			c-1.777-1.121-2.966-2.474-3.131-2.684c1.595-1.068,2.768-1.895,2.782-1.906l0.056-0.051l-1.554-2.3L175.871,46.845z"/>
		<path fill="#FFFFFF" d="M161.111,34.867h-2.783c0,0-0.169,3.547-2.218,7.344l1.571,2.218h1.293v1.795h-2.549v2.774h2.549v5.433
			l1.288,1.317l0.044-0.007c0.595-0.135,2.563-0.428,4.253-0.491v-2.396c-1.32,0-2.559,0.125-2.812,0.162v-4.019h2.854v-2.774
			h-2.854v-1.795h2.481v-2.777h-4.752c0.24-0.551,0.441-1.093,0.617-1.614h4.541v-2.779h-3.823
			C161.077,35.863,161.111,34.867,161.111,34.867"/>
		<path fill="#FFFFFF" d="M123.105,34.874h-3.269c0,0,0.412,1.241,0.586,2.43h-8.514v9.198c-0.04,1.919-0.393,4.835-2.747,7.467
			l2.293,1.815c3.529-4.058,3.44-8.747,3.44-10.65c0-2.311-0.034-5.053-0.034-5.053h15.479v-2.777h-6.653
			C123.469,35.934,123.105,34.874,123.105,34.874"/>
		<path fill="#FFFFFF" d="M141.815,45.783h5.36c-0.436,0.896-2.031,2.736-2.795,3.322C143.621,48.385,142.315,46.711,141.815,45.783
			 M146.637,50.838c1.792-1.674,3.362-3.995,4.092-6.046l-1.656-1.779h-8.354c0.167-0.44,0.525-1.237,0.67-1.66h11.604V38.58h-2.051
			c-0.452-1.895-0.385-1.693-1.069-3.709h-3.055c0,0,0.84,2.286,1.143,3.709h-5.777c0.438-1.951,0.46-3.711,0.46-3.711h-2.813
			c0,0-0.005,1.782-0.504,3.711h-2.714c0.587-2.205,0.575-3.709,0.575-3.709h-2.777c0,0-0.008,1.837-0.989,4.64l-0.015,0.043
			l1.388,1.8h3.697c-0.867,2.343-2.595,6.121-6.554,9.984l1.921,1.971c2.533-2.488,4.103-4.684,5.255-6.722
			c0.431,0.881,1.123,2.065,2.188,3.306c0.244,0.284,0.495,0.561,0.747,0.824c-2.037,1.245-4.205,1.873-6.632,2.323l1.153,2.726
			c3.195-0.593,5.884-1.791,7.746-3.066c2.163,1.57,4.86,2.506,7.901,3.057l1.007-2.736
			C150.796,52.639,148.462,51.964,146.637,50.838"/>
		<path fill="#FFFFFF" d="M181.884,43.076c2.454-1.187,5.203-5.503,5.293-8.202h-2.779c-0.168,2.388-2.688,5.117-3.844,5.767
			L181.884,43.076z"/>
		<path fill="#FFFFFF" d="M185.812,40.182c-0.525,2.86-3.834,6.2-5.733,7.062l1.168,2.521c0.919-0.428,1.791-1.228,2.478-1.728
			v7.718h2.776V45.248c0.946-1.346,1.839-3.021,2.087-5.066H185.812z"/>
	</g>
	<rect x="189.876" y="35.562" fill="#FFFFFF" width="10.766" height="2.876"/>
	<g>
		<path fill="#FFFFFF" d="M201.308,41.882H189.12v2.78h7.167v8.215c0,0-2.534-0.258-4.609-0.16v2.628
			c2.615-0.021,7.485,0.411,7.485,0.411V44.662h2.146v-2.78H201.308z"/>
		<path fill="#FFFFFF" d="M222.772,55.736c-2.842,0-5.392-1.002-7.178-2.819c-1.83-1.881-2.797-4.494-2.794-7.566
			c-0.003-3.074,0.968-5.705,2.81-7.606c1.791-1.85,4.334-2.87,7.156-2.87c2.527,0.002,4.764,0.696,6.469,1.762l-1.01,2.895
			c-1.859-1.213-3.25-1.777-5.442-1.784c-2.023,0.002-3.728,0.689-4.925,1.982c-1.229,1.323-1.879,3.225-1.879,5.5
			c0,2.284,0.655,4.211,1.895,5.579c1.229,1.342,2.945,2.053,4.965,2.056c2.161,0,4.023-0.814,5.688-2.105l0.529,3.232
			c-1.779,1.112-3.957,1.747-6.271,1.747h-0.012V55.736z"/>
		<path fill="#FFFFFF" d="M241.162,55.736c-2.839,0-5.388-1.002-7.169-2.819c-1.832-1.875-2.799-4.491-2.799-7.566
			c0-3.075,0.971-5.707,2.809-7.606c1.79-1.85,4.33-2.87,7.153-2.87c2.671,0.003,5.094,0.759,6.788,1.826l-1.051,2.92
			c-1.771-1.138-3.676-1.874-5.719-1.874c-2.025,0.002-3.729,0.689-4.926,1.982c-1.229,1.323-1.876,3.226-1.876,5.5
			c0,2.287,0.655,4.214,1.897,5.578c1.225,1.342,2.938,2.055,4.965,2.057c1.656,0,3.097-0.502,3.965-0.899V47.78h-5.436v-2.965h8.5
			v8.943c-2.283,1.398-5.223,1.977-7.095,1.979H241.162L241.162,55.736z"/>
		<path fill="#FFFFFF" d="M255.72,43.841h3.405c1.334,0,2.397-0.284,3.108-0.819c0.676-0.515,1.013-1.204,1.023-2.108
			c-0.012-0.883-0.313-1.537-0.913-2.003c-0.63-0.484-1.604-0.739-2.81-0.739h-3.815L255.72,43.841L255.72,43.841z M255.72,52.477
			h4.037c1.387,0,2.477-0.252,3.152-0.729c0.664-0.483,0.968-1.134,0.98-2.106c-0.014-1.011-0.391-1.68-1.226-2.175
			c-0.757-0.437-1.894-0.665-3.291-0.665h-3.654L255.72,52.477L255.72,52.477z M252.506,55.468V35.179h6.808
			c2.354,0,4.172,0.511,5.403,1.521c1.151,0.939,1.757,2.318,1.752,3.989c0.015,1.799-0.934,3.288-2.663,4.189l-0.193,0.1
			l0.201,0.08c2.104,0.82,3.303,2.478,3.289,4.547c0.004,1.797-0.637,3.271-1.852,4.261c-1.303,1.063-3.236,1.603-5.749,1.603
			L252.506,55.468L252.506,55.468z"/>
		<path fill="#B72026" d="M78.407,41.262c-0.739-1.503-1.435-3.029-2.092-4.578c-1.217-2.879-2.275-5.805-3.174-8.769
			c-3.302,9.506-8.403,18.24-14.872,25.69c4.659-1.086,9.405-1.793,14.221-2.107C74.689,48.227,76.662,44.812,78.407,41.262"/>
		<path fill="#70161A" d="M78.407,51.303c-1.981,0-3.955,0.065-5.917,0.193c-2.659,3.964-5.649,7.711-8.951,11.224
			c4.811-0.927,9.794-1.374,14.868-1.374c5.072,0,10.06,0.447,14.866,1.374c-3.3-3.513-6.288-7.26-8.952-11.224
			C82.359,51.368,80.391,51.303,78.407,51.303"/>
		<path fill="#E42432" d="M58.27,53.605l5.27,9.113c3.302-3.515,6.292-7.26,8.951-11.224C67.676,51.813,62.929,52.52,58.27,53.605"
			/>
		<path fill="#FFFFFF" d="M72.49,51.498c2.199-3.271,4.171-6.685,5.917-10.236c1.745,3.552,3.718,6.966,5.914,10.236
			c-1.961-0.13-3.931-0.193-5.914-0.193C76.424,51.305,74.452,51.368,72.49,51.498"/>
		<path fill="#E42432" d="M83.673,27.915L83.673,27.915c-0.898,2.965-1.956,5.89-3.175,8.769c-0.654,1.549-1.353,3.075-2.091,4.576
			c1.745,3.552,3.718,6.969,5.914,10.236c4.819,0.314,9.564,1.023,14.225,2.109C92.075,46.155,86.973,37.421,83.673,27.915"/>
		<path fill="#70161A" d="M78.407,41.262c0.738-1.503,1.437-3.029,2.091-4.578c1.219-2.879,2.276-5.805,3.173-8.769H73.142
			c0.898,2.964,1.957,5.89,3.174,8.769C76.973,38.232,77.668,39.759,78.407,41.262"/>
		<path fill="#B72026" d="M93.273,62.72l5.271-9.114c-4.658-1.086-9.403-1.791-14.223-2.108
			C86.985,55.46,89.974,59.207,93.273,62.72"/>
	</g>
</g>
</svg>
