<?xml version="1.0" encoding="utf-8"?>
<!-- Generator: Adobe Illustrator 16.0.0, SVG Export Plug-In . SVG Version: 6.00 Build 0)  -->
<!DOCTYPE svg PUBLIC "-//W3C//DTD SVG 1.1//EN" "http://www.w3.org/Graphics/SVG/1.1/DTD/svg11.dtd">
<svg version="1.1" id="Layer_1" xmlns="http://www.w3.org/2000/svg" xmlns:xlink="http://www.w3.org/1999/xlink" x="0px" y="0px"
	 width="68px" height="90px" viewBox="0 0 68 90" enable-background="new 0 0 68 90" xml:space="preserve">
<g>
	<g>
		<g opacity="0.9">
			
				<image overflow="visible" opacity="0.7" enable-background="new    " width="317" height="317" xlink:href="A122A39B.png"  transform="matrix(0.237 0 0 0.237 -2.9873 7.7407)">
			</image>
			<g>
				<circle fill="#FFFFFF" cx="34.512" cy="45.239" r="25.499"/>
			</g>
		</g>
		<path fill="#FFFFFF" d="M45.555,50.116v0.958c0,1.125-0.515,2.146-1.339,2.886l-0.021,0.015c-0.812,0.719-1.926,1.159-3.154,1.159
			c-1.238,0-2.363-0.45-3.178-1.174l0,0c-0.828-0.739-1.336-1.761-1.336-2.886l0,0l0,0c0-1.133,0.513-2.15,1.336-2.889l0,0l0,0
			c0.813-0.729,1.938-1.18,3.178-1.18l0,0l0,0c0.41,0,0.805,0.055,1.178,0.145c0.217,0.055,0.42,0.117,0.613,0.188v-9.621
			L29.597,41.4v6.097v7.425v0.59c0,1.125-0.514,2.143-1.336,2.881l0,0l0,0c-0.82,0.729-1.94,1.178-3.178,1.178l0,0
			c-1.238,0-2.363-0.449-3.177-1.178l0,0c-0.829-0.734-1.337-1.756-1.337-2.881v-0.005l0,0c0-1.129,0.508-2.146,1.337-2.884l0,0l0,0
			c0.813-0.729,1.935-1.18,3.177-1.18l0,0c0.404,0,0.801,0.055,1.18,0.146c0.211,0.048,0.418,0.115,0.611,0.188V36.324
			c0-0.158,0.113-0.288,0.266-0.324l17.99-5.08c0.177-0.05,0.358,0.054,0.41,0.229c0.008,0.026,0.015,0.063,0.015,0.09l0,0V50.116
			L45.555,50.116z"/>
	</g>
	<path fill="#FFFFFF" d="M52.713,62.925l-8.863-8.863c-0.771,0.56-1.74,0.906-2.809,0.906c-0.199,0-0.389-0.03-0.581-0.053
		l10.027,10.027C51.269,64.313,52.012,63.641,52.713,62.925z"/>
	<path fill="#FFFFFF" d="M26.874,37.086L16.66,26.872c-0.715,0.702-1.388,1.445-2.017,2.226l12.23,12.231V37.086z"/>
	<path fill="#FFFFFF" d="M37.837,48.049l-7.125-7.125l-1.115,0.311v2.817l6.94,6.939c-0.001-0.028-0.01-0.055-0.01-0.083
		C36.527,49.789,37.03,48.784,37.837,48.049z"/>
	<path fill="#FFFFFF" d="M36.527,50.908c0,0.028,0.009,0.055,0.01,0.083l3.923,3.924c0.192,0.022,0.382,0.053,0.581,0.053
		c1.068,0,2.037-0.347,2.809-0.906l-6.013-6.013C37.03,48.784,36.527,49.789,36.527,50.908z"/>
	<polygon fill="#FFFFFF" points="30.712,40.924 26.874,37.086 26.874,41.329 29.597,44.052 29.597,41.234 	"/>
</g>
</svg>
