<?xml version="1.0" encoding="utf-8"?>
<!-- Generator: Adobe Illustrator 16.0.0, SVG Export Plug-In . SVG Version: 6.00 Build 0)  -->
<!DOCTYPE svg PUBLIC "-//W3C//DTD SVG 1.1//EN" "http://www.w3.org/Graphics/SVG/1.1/DTD/svg11.dtd">
<svg version="1.1" id="Layer_1" xmlns="http://www.w3.org/2000/svg" xmlns:xlink="http://www.w3.org/1999/xlink" x="0px" y="0px"
	 width="171px" height="90px" viewBox="0 0 171 90" enable-background="new 0 0 171 90" xml:space="preserve">
<g>
	<path fill-rule="evenodd" clip-rule="evenodd" fill="#113054" d="M10.502,45.719c0-4.318,3.492-7.811,7.811-7.811
		s7.811,3.492,7.811,7.811s-3.492,7.811-7.811,7.811S10.502,50.037,10.502,45.719z"/>
	<path fill-rule="evenodd" clip-rule="evenodd" fill="#144E82" d="M33.105,45.719c0-4.318,3.492-7.811,7.811-7.811
		c4.319,0,7.811,3.492,7.811,7.811s-3.491,7.811-7.811,7.811C36.598,53.529,33.105,50.037,33.105,45.719z"/>
	<path fill-rule="evenodd" clip-rule="evenodd" fill="#2478BC" d="M55.71,45.719c0-4.318,3.493-7.811,7.811-7.811
		c4.32,0,7.811,3.492,7.811,7.811s-3.49,7.811-7.811,7.811C59.203,53.529,55.71,50.037,55.71,45.719z"/>
	<path fill-rule="evenodd" clip-rule="evenodd" fill="#348CBE" d="M78.316,45.719c0-4.318,3.49-7.811,7.811-7.811
		c4.317,0,7.81,3.492,7.81,7.811s-3.492,7.811-7.81,7.811C81.807,53.529,78.316,50.037,78.316,45.719z"/>
	<path fill-rule="evenodd" clip-rule="evenodd" fill="#56B2E0" d="M100.92,45.719c0-4.318,3.511-7.811,7.811-7.811
		c4.318,0,7.828,3.492,7.828,7.811s-3.51,7.811-7.828,7.811C104.431,53.529,100.92,50.037,100.92,45.719z"/>
</g>
</svg>
