<?xml version="1.0" encoding="utf-8"?>
<!-- Generator: Adobe Illustrator 16.0.0, SVG Export Plug-In . SVG Version: 6.00 Build 0)  -->
<!DOCTYPE svg PUBLIC "-//W3C//DTD SVG 1.1//EN" "http://www.w3.org/Graphics/SVG/1.1/DTD/svg11.dtd">
<svg version="1.1" id="Layer_1" xmlns="http://www.w3.org/2000/svg" xmlns:xlink="http://www.w3.org/1999/xlink" x="0px" y="0px"
	 width="213px" height="90px" viewBox="0.454 0 213 90" enable-background="new 0.454 0 213 90" xml:space="preserve">
<g>
	<path fill="#123154" d="M161.633,45.239c0,4.317-3.491,7.811-7.811,7.811c-4.318,0-7.811-3.491-7.811-7.811
		s3.492-7.812,7.811-7.812C158.142,37.428,161.633,40.921,161.633,45.239z"/>
	<path fill="#144F84" d="M139.03,45.239c0,4.317-3.492,7.811-7.811,7.811c-4.319,0-7.811-3.491-7.811-7.811s3.49-7.812,7.811-7.812
		C135.538,37.429,139.03,40.921,139.03,45.239z"/>
	<path fill="#2479BE" d="M116.426,45.239c0,4.317-3.493,7.811-7.811,7.811c-4.321,0-7.812-3.491-7.812-7.811s3.49-7.812,7.812-7.812
		C112.933,37.429,116.426,40.921,116.426,45.239z"/>
	<path fill="#358FC1" d="M93.819,45.239c0,4.317-3.49,7.811-7.811,7.811c-4.317,0-7.81-3.491-7.81-7.811s3.492-7.812,7.81-7.812
		C90.329,37.429,93.819,40.921,93.819,45.239z"/>
	<path fill="#58B4E1" d="M71.216,45.239c0,4.317-3.511,7.811-7.811,7.811c-4.318,0-7.828-3.491-7.828-7.811s3.51-7.812,7.828-7.812
		C67.705,37.429,71.216,40.921,71.216,45.239z"/>
</g>
</svg>
