<?xml version="1.0" encoding="utf-8"?>
<!-- Generator: Adobe Illustrator 16.0.0, SVG Export Plug-In . SVG Version: 6.00 Build 0)  -->
<!DOCTYPE svg PUBLIC "-//W3C//DTD SVG 1.1//EN" "http://www.w3.org/Graphics/SVG/1.1/DTD/svg11.dtd">
<svg version="1.1" id="Layer_1" xmlns="http://www.w3.org/2000/svg" xmlns:xlink="http://www.w3.org/1999/xlink" x="0px" y="0px"
	 width="768px" height="1024px" viewBox="0 0 768 1024" enable-background="new 0 0 768 1024" xml:space="preserve">
<g>
	<path fill="#FFFFFF" d="M146.435,490.492c-0.638,0.748-1.782,1.892-3.015,3.081l-1.275-1.276c2.376-2.178,4.511-4.577,5.654-7.063
		l-4.511,0.022v-1.628h5.325c0.396-0.946,0.792-2.002,1.034-3.322l1.606,0.528c-0.177,1.078-0.507,2.09-0.771,2.794h10.319v1.628
		h-11.067c-0.462,0.902-1.013,2.024-1.628,2.948l0.021,11.926h-1.716L146.435,490.492z M148.745,497.225h4.973l-0.021-5.369h-4.313
		v-1.628l4.335-0.022v-3.652l1.672-0.022l0.022,3.674h4.774l-0.021,1.65h-4.753v5.369l5.919,0.022v1.628l-12.586-0.022V497.225z"/>
	<path fill="#FFFFFF" d="M165.883,494.233v-9.748h7.194l-0.021-4.027h1.76l-0.044,4.005l7.173,0.022v9.659h-1.738v-1.496h-5.435
		l0.044,7.415h-1.738l-0.021-7.415h-5.391l-0.044,1.584H165.883z M173.056,486.091h-5.435v4.973h5.456L173.056,486.091z
		 M180.162,486.091h-5.347v4.951h5.369L180.162,486.091z"/>
	<path fill="#FFFFFF" d="M202.316,499.932v-1.541h-13.399v1.541h-1.673v-18.659h16.635v18.659H202.316z M202.316,482.879h-13.399
		v13.994h13.399V482.879z M189.356,495.289v-1.518h5.325v-3.74h-4.379v-1.519h4.379v-2.794h-5.127v-1.518h11.992v1.518h-5.304v2.794
		h4.599v1.519h-4.599v3.74h5.523v1.518H189.356z M199.72,493.617c-0.857-1.122-1.628-1.893-2.728-2.53l1.078-0.858
		c0.924,0.55,2.112,1.408,2.816,2.552L199.72,493.617z"/>
	<path fill="#FFFFFF" d="M219.102,480.899c0.022,2.486-0.088,4.73-0.33,6.953c-0.065,0.528,0.132,0.726,0.265,1.034
		c1.782,4.401,4.136,7.415,8.713,9.374l-1.276,1.43c-4.07-2.112-6.557-4.511-8.427-8.867c-0.858,2.53-3.917,6.491-8.163,8.801
		l-1.32-1.298c1.54-0.924,2.816-1.848,4.004-2.992c1.452-1.364,2.509-2.508,3.609-4.797c1.275-2.596,1.122-6.447,1.166-9.637
		H219.102z"/>
	<path fill="#FFFFFF" d="M245.679,493.265v5.017c0,0.836-0.551,1.672-1.475,1.672h-2.244l-0.528-1.76l2.047,0.154
		c0.285,0.022,0.527-0.242,0.527-0.638v-4.444h-7.15v-0.572c-1.452,2.354-3.169,4.137-5.479,5.743l-1.21-1.364
		c2.904-1.716,5.501-4.885,6.425-7.129h-5.919v-1.606h6.623c0.242-0.506,0.506-0.99,0.572-1.386h-5.545v-1.519h5.985
		c0.153-0.418,0.264-0.99,0.33-1.342h-6.865v-1.606h7.195l0.418-2.156l1.518,0.396c-0.132,0.836-0.197,1.21-0.286,1.76h7.943v1.606
		h-8.229c-0.11,0.506-0.221,0.99-0.309,1.342h7.701v1.519h-8.097c-0.177,0.484-0.33,1.034-0.463,1.386h10.231v1.606h-10.891
		c-0.309,0.616-0.66,1.32-0.902,1.716h6.402v-1.298h1.673v1.298h3.718v1.606H245.679z M240.288,497.599
		c-0.66-1.32-1.453-2.112-2.663-2.794l1.101-1.122c1.144,0.66,2.134,1.694,2.882,2.729L240.288,497.599z"/>
	<path fill="#FFFFFF" d="M252.87,498.017c4.709-2.486,7.503-5.743,9.132-10.715c-0.198-1.364-0.353-2.663-0.353-3.96h-3.807v-1.65
		l5.567-0.022c-0.088,1.958,0.021,3.718,0.308,5.391c0.902,5.149,4.026,8.405,7.812,10.936l-1.057,1.452
		c-2.904-1.804-6.402-5.039-7.767-9.329c-1.452,3.433-3.895,6.755-8.802,9.351L252.87,498.017z"/>
	<path fill="#FFFFFF" d="M293.463,497.137v1.628l-18.681,0.022v-1.628l8.472,0.022l-0.022-4.929h-6.403l0.022-1.672l6.381,0.022
		l0.022-4.026l-7.878-0.022v-1.628h17.383l0.044,1.628h-7.833v4.026h6.469l-0.044,1.65l-6.381,0.022l0.022,4.929L293.463,497.137z
		 M281.846,480.128c1.76,0.88,3.014,2.135,3.938,3.741l-1.519,0.858c-0.99-1.76-2.112-2.574-3.873-3.674L281.846,480.128z"/>
	<path fill="#FFFFFF" d="M306.728,492.45c-0.506-0.836-1.694-2.244-2.685-3.102l1.232-1.232c1.145,0.858,2.288,1.937,3.015,2.816
		L306.728,492.45z"/>
	<path fill="#FFFFFF" d="M334.316,499.932v-1.541h-13.399v1.541h-1.673v-18.659h16.635v18.659H334.316z M334.316,482.879h-13.399
		v13.994h13.399V482.879z M321.356,495.289v-1.518h5.325v-3.74h-4.379v-1.519h4.379v-2.794h-5.127v-1.518h11.992v1.518h-5.304v2.794
		h4.599v1.519h-4.599v3.74h5.523v1.518H321.356z M331.72,493.617c-0.857-1.122-1.628-1.893-2.728-2.53l1.078-0.858
		c0.924,0.55,2.112,1.408,2.816,2.552L331.72,493.617z"/>
	<path fill="#FFFFFF" d="M339.99,492.692c2.794-2.464,4.973-5.126,5.963-7.921l-4.621-0.022v-1.606h5.237
		c0.33-0.836,0.572-1.914,0.857-3.081l1.694,0.374c-0.22,0.968-0.55,2.112-0.726,2.729h11.199v1.584l-11.838,0.022
		c-0.308,0.902-0.527,1.518-0.792,2.046h9.968v11.244c-0.066,0.66-0.55,1.167-1.145,1.386c-0.901,0.198-1.936,0.066-2.926,0.11
		c-0.265-0.55-0.484-0.968-0.771-1.694c1.078,0.132,1.937,0.154,2.772,0.11c0.242,0,0.418-0.176,0.418-0.374v-2.178l-8.295-0.022
		v4.665h-1.738v-10.496c-0.748,1.122-2.311,2.685-3.719,4.137L339.99,492.692z M346.943,493.814h8.317v-1.98l-8.317-0.022V493.814z
		 M346.987,488.424v1.782l8.251,0.022v-1.804H346.987z"/>
	<path fill="#FFFFFF" d="M367.205,485.959c-0.595,1.782-2.112,3.322-3.345,4.533l-1.298-1.188c1.298-1.079,2.508-2.376,3.433-4.159
		L367.205,485.959z M365.841,484.287c-0.946-1.364-1.738-1.958-2.795-2.64l1.013-1.012c0.99,0.418,2.354,1.386,3.015,2.354
		L365.841,484.287z M363.046,498.347c3.213-0.198,5.369-0.132,7.306-2.244c0.77-1.034,0.792-2.178,0.924-4.005l1.584-0.022
		c-0.065,2.201-0.242,4.467-2.046,5.875c-1.98,1.562-4.444,1.826-6.997,2.002L363.046,498.347z M377.524,489.81v6.865h-1.65v-5.281
		h-7.591v5.259h-1.673v-6.843h0.969l-0.683-0.968c2.112-0.594,3.653-1.122,4.907-2.178c0.792-0.66,1.276-1.43,1.716-2.641
		l1.54,0.353l-0.285,0.858c1.738,2.398,4.004,3.081,6.887,3.851l-1.145,1.408c-2.354-0.594-4.906-1.937-6.491-3.829
		c-0.88,1.43-3.3,2.794-5.391,3.103L377.524,489.81z M377.15,485.365c0.616-0.704,0.924-1.364,1.078-1.826h-6.425
		c-0.639,1.188-1.893,2.333-3.234,3.256l-1.122-1.298c1.914-1.122,3.212-3.037,3.872-5.105l1.475,0.528
		c-0.088,0.308-0.286,0.704-0.374,0.968h7.568c0.133,2.09-0.682,3.213-1.342,4.291L377.15,485.365z M379.087,500.173
		c-1.87-1.232-4.423-2.09-6.844-2.596l0.771-1.43c2.288,0.462,4.753,1.166,6.909,2.486L379.087,500.173z"/>
	<path fill="#FFFFFF" d="M383.902,494.761c3.652-2.333,6.271-5.655,7.415-9.241H385.2v-1.672l7.943,0.022v-3.433h1.716l-0.021,3.433
		l7.854-0.022v1.672h-5.874c0.968,3.873,4.048,7.195,7.194,9.043l-1.188,1.408c-5.677-4.291-6.447-6.645-7.943-10.715l-0.044,7.811
		h4.246v1.65l-4.225-0.022l-0.021,5.413h-1.673l-0.021-5.413l-4.356,0.022v-1.65l4.356,0.022v-7.833
		c-1.519,4.797-4.093,8.097-7.877,10.826L383.902,494.761z"/>
	<path fill="#FFFFFF" d="M425.463,497.137v1.628l-18.681,0.022v-1.628l8.472,0.022l-0.022-4.929h-6.403l0.022-1.672l6.381,0.022
		l0.022-4.026l-7.878-0.022v-1.628h17.383l0.044,1.628h-7.833v4.026h6.469l-0.044,1.65l-6.381,0.022l0.022,4.929L425.463,497.137z
		 M413.846,480.128c1.76,0.88,3.014,2.135,3.938,3.741l-1.519,0.858c-0.99-1.76-2.112-2.574-3.873-3.674L413.846,480.128z"/>
	<path fill="#FFFFFF" d="M442.292,498.347c0,0.616-0.418,1.122-0.968,1.386c-0.727,0.33-1.805,0.176-2.772,0.176
		c-0.132-0.506-0.33-0.968-0.594-1.628c1.056,0.132,1.605,0.132,2.354,0.132c0.265,0,0.374-0.132,0.374-0.44v-5.039h-12.585v-1.541
		h12.563v-1.188h1.628v1.188h4.863v1.541h-4.863V498.347z M431.379,481.339h11.573v5.259h-9.923v1.518
		c0.065,0.286,0.264,0.286,0.682,0.242h9.857c0.396-0.11,0.33-0.638,0.484-1.078c0.132-0.44,0.197-0.99,0.22-1.606l1.496,0.638
		c-0.286,1.21-0.242,2.685-1.474,3.367c-0.419,0.176-0.902,0.198-1.343,0.198h-9.659c-1.87,0-1.914-1.408-1.914-2.134V481.339z
		 M436.461,497.775c-1.319-1.408-2.574-2.311-4.29-3.103l0.836-1.167c1.475,0.594,3.366,1.827,4.687,2.949L436.461,497.775z
		 M441.302,482.879h-8.295v2.156h8.295V482.879z"/>
	<path fill="#FFFFFF" d="M463.412,480.591c-0.198,1.144-0.616,2.2-0.946,3.322h5.941c-0.11,4.687,0.065,9.704-1.387,14.038
		c-0.242,0.726-0.814,1.672-1.694,1.826c-0.968,0.176-2.794-0.374-3.916-0.682l-0.286-1.848c1.231,0.462,2.244,0.77,3.322,0.924
		c0.374,0.044,0.616-0.088,0.836-0.396c0.374-0.88,0.594-1.893,0.727-2.597c0.571-3.103,0.66-6.997,0.726-9.725h-4.687
		c-0.55,1.518-1.364,3.014-2.553,4.599l-1.144-0.726v9.813h-1.738v-1.43h-3.652v1.782h-1.738v-15.226h2.024
		c0.571-1.012,1.012-2.266,1.342-3.895l1.584,0.638c-0.396,1.452-0.748,2.53-1.188,3.256h3.367v4.401
		c1.782-2.486,2.75-5.325,3.3-8.471L463.412,480.591z M452.938,485.828v4.269h3.631v-4.269H452.938z M456.613,496.103v-4.401h-3.652
		v4.401H456.613z M463.83,494.629c-0.704-1.915-1.738-3.587-2.992-5.171l1.364-0.902c1.606,1.871,2.486,3.367,3.212,5.369
		L463.83,494.629z"/>
	<path fill="#FFFFFF" d="M476.457,493.595c-0.925,1.892-1.959,3.256-3.719,4.269l-0.99-1.298c1.738-0.968,2.795-2.244,3.521-3.873
		L476.457,493.595z M478.591,498.501c0,0.858-0.66,1.804-1.672,1.804h-1.782l-0.572-1.76l1.761,0.132
		c0.22,0.022,0.55-0.242,0.55-0.528v-5.985h-3.543v-1.606h3.543v-1.562h-4.313v-1.628h3.168c-0.154-0.638-0.682-1.452-1.694-2.222
		l1.452-0.594c0.925,0.726,1.585,1.716,1.893,2.816h0.924c0.727-0.726,1.276-1.826,1.541-2.772l1.474,0.594
		c-0.242,0.77-0.748,1.672-1.232,2.178h2.619v1.628h-4.115v1.562h3.499v1.606h-3.499v1.562l0.639-0.814
		c1.034,0.638,2.024,1.672,2.75,2.904l-1.122,1.276c-0.55-1.32-1.54-2.267-2.267-2.816V498.501z M476.721,482.593
		c-0.198-0.352-0.66-0.968-1.386-1.694l1.605-0.748c0.704,0.836,1.299,1.672,1.563,2.442h3.719v1.606h-9.109v-1.606H476.721z
		 M491.022,481.779c-1.979,1.144-4.004,1.694-5.963,2.046v3.146h6.315v1.606h-2.465v11.464h-1.693v-11.464h-2.157v2.839
		c0,2.926-0.968,5.94-2.662,8.559l-1.496-1.056c2.024-2.772,2.465-5.765,2.465-9.175l-0.022-7.261
		c2.442-0.286,4.555-0.946,6.623-2.068L491.022,481.779z"/>
	<path fill="#FFFFFF" d="M494.298,498.919c2.839-2.156,3.653-5.259,3.499-8.427h-2.86l-0.022-1.628h2.883v-5.809h-2.288l0.021-1.628
		l10.76-0.022v1.65h-2.244v5.809l2.64-0.022v1.628h-2.618l-0.021,9.637h-1.694l0.021-9.637h-2.882
		c-0.11,3.3-0.242,6.733-3.829,9.637L494.298,498.919z M502.352,483.055h-2.86v5.787h2.86V483.055z M514.013,493.265
		c-1.782,3.058-4.687,5.325-7.701,6.821l-1.275-1.232c3.124-1.408,6.007-3.631,7.679-6.535L514.013,493.265z M505.432,485.761
		c2.597-1.298,4.797-2.882,6.337-5.347l1.276,0.946c-1.342,2.354-3.961,4.533-6.359,5.633L505.432,485.761z M505.432,491.768
		c2.618-1.21,5.127-2.926,6.623-5.435l1.276,0.946c-0.924,1.76-3.564,4.334-6.623,5.721L505.432,491.768z"/>
	<path fill="#FFFFFF" d="M518.675,491.46l-0.528-1.628l1.76,0.088c0.154,0,0.44-0.198,0.419-0.374v-1.782l-3.103,0.726l-0.946-1.54
		c1.452-0.242,3.015-0.572,4.07-0.836l-0.021-2.046h-3.257l0.021-1.606h3.235v-2.134h1.672l-0.022,2.112h2.156v1.628h-2.156
		l0.022,1.738l2.267-0.572v1.54l-2.289,0.594l0.022,2.442c0,0.792-0.462,1.65-1.408,1.65H518.675z M529.544,498.171
		c0.595,0.022,1.21,0.352,1.606-0.022c0.308-0.396,0.462-0.88,0.572-1.827l0.264-2.354l-5.127-0.022
		c-0.638,2.178-2.134,3.74-4.158,4.621c-1.54,0.66-3.301,1.166-5.017,1.32l-0.727-1.65c3.059-0.198,5.699-0.924,7.548-3.278
		c0.22-0.286,0.483-0.638,0.638-0.99h-7.635v-1.606h7.942l0.133-1.232l1.628,0.286l-0.154,0.946h6.623
		c0,1.915-0.198,3.212-0.484,4.885c-0.197,1.122-0.682,2.75-2.574,2.552c-0.638-0.066-1.386-0.154-2.112-0.264l-0.55-1.76
		L529.544,498.171z M533.108,482.813c0.044,2.464-0.088,4.907,0.925,6.821c0.176-0.462,0.352-1.078,0.462-1.606l1.43,1.078
		c-0.33,0.836-0.66,1.584-1.232,2.2c-0.197,0.198-0.594,0.286-0.901,0.264c-0.704-0.154-1.057-0.814-1.32-1.342
		c-0.396-0.836-0.595-1.716-0.727-2.508c-0.153-0.946-0.22-2.289-0.22-3.3l-2.046,0.022c-0.066,1.012-0.198,2.222-0.639,3.125
		c0.572,0.44,1.166,0.968,1.849,1.606l-1.145,1.1c-0.616-0.572-1.078-1.1-1.496-1.364c-0.946,1.123-2.42,1.871-4.049,2.509
		l-1.012-1.364c1.364-0.418,2.838-0.968,3.675-2.112c-0.44-0.33-1.034-0.771-1.915-1.078l0.881-1.254
		c0.836,0.33,1.364,0.77,1.848,0.99c0.286-0.572,0.374-1.474,0.418-2.178h-3.036v-1.606h3.015v-2.53h1.606v2.53H533.108z"/>
	<path fill="#FFFFFF" d="M546.153,499.403v-16.656h-7.394v-1.628h18.307v1.628h-9.197v16.656H546.153z M554.25,493.727
		c-1.693-2.354-3.916-3.718-5.435-4.577l0.748-1.254c1.387,0.528,2.53,1.298,3.608,2.178c0.814,0.66,1.563,1.474,2.311,2.354
		L554.25,493.727z"/>
	<path fill="#FFFFFF" d="M569.165,493.771l-0.638-0.814c1.034-0.462,1.32-1.298,1.32-2.178h-1.188v-2.42h2.421v2.31
		C571.08,491.417,570.815,493,569.165,493.771z"/>
	<path fill="#FFFFFF" d="M581.902,494.761c3.652-2.333,6.271-5.655,7.415-9.241H583.2v-1.672l7.943,0.022v-3.433h1.716l-0.021,3.433
		l7.854-0.022v1.672h-5.874c0.968,3.873,4.048,7.195,7.194,9.043l-1.188,1.408c-5.677-4.291-6.447-6.645-7.943-10.715l-0.044,7.811
		h4.246v1.65l-4.225-0.022l-0.021,5.413h-1.673l-0.021-5.413l-4.356,0.022v-1.65l4.356,0.022v-7.833
		c-1.519,4.797-4.093,8.097-7.877,10.826L581.902,494.761z"/>
	<path fill="#FFFFFF" d="M604.122,491.988c2.772-1.584,4.973-4.048,6.777-6.623l1.342,0.902c-0.616,1.122-1.87,2.596-2.685,3.586
		v10.144h-1.694v-8.405c-0.374,0.352-1.605,1.166-2.442,1.76L604.122,491.988z M604.408,485.938
		c2.311-1.606,4.093-3.586,5.566-5.897l1.299,1.012c-1.475,2.222-3.301,4.555-5.391,6.029L604.408,485.938z M614.485,498.193
		c1.122,0.088,2.091,0.088,3.037,0.066c0.241-0.066,0.483-0.22,0.483-0.528v-9.021h-5.633v-1.628l11.332,0.022v1.606l-3.917,0.022
		l-0.021,9.197c0,0.77-0.396,1.342-0.946,1.672c-0.594,0.33-2.685,0.308-3.807,0.264L614.485,498.193z M622.363,483.385h-9.462
		l-0.021-1.628l9.483-0.022V483.385z"/>
	<path fill="#FFFFFF" d="M132.024,518.67h14.984v1.783l-14.984-0.022V518.67z M143.114,525.381c-0.089-0.66-0.177-1.209-0.286-1.957
		c1.166,0.33,2.178,0.726,3.212,0.857c0.286,0,0.814-0.198,1.034-0.616c0.44-1.298,0.528-3.652,0.704-5.677
		c0.044-0.66,0.022-1.452,0.044-1.98l-14.214,0.022l1.738-9.55l1.761,0.528l-0.463,2.464l13.818-0.022v1.804h-14.126l-0.55,2.926
		h13.905l-0.088,3.543c-0.044,1.475-0.153,3.102-0.396,4.643c-0.221,1.43-0.374,3.036-2.112,3.564
		c-1.057,0.309-2.068-0.11-2.971-0.264L143.114,525.381z"/>
	<path fill="#FFFFFF" d="M154.883,520.232v-9.747h7.194l-0.021-4.027h1.76l-0.044,4.005l7.173,0.022v9.659h-1.738v-1.496h-5.435
		l0.044,7.415h-1.738l-0.021-7.415h-5.391l-0.044,1.584H154.883z M162.056,512.091h-5.435v4.973h5.456L162.056,512.091z
		 M169.162,512.091h-5.347v4.951h5.369L169.162,512.091z"/>
	<path fill="#FFFFFF" d="M191.316,525.932v-1.541h-13.399v1.541h-1.673v-18.659h16.635v18.659H191.316z M191.316,508.879h-13.399
		v13.994h13.399V508.879z M178.356,521.289v-1.519h5.325v-3.74h-4.379v-1.519h4.379v-2.794h-5.127v-1.518h11.992v1.518h-5.304v2.794
		h4.599v1.519h-4.599v3.74h5.523v1.519H178.356z M188.72,519.617c-0.857-1.123-1.628-1.893-2.728-2.531l1.078-0.857
		c0.924,0.55,2.112,1.408,2.816,2.552L188.72,519.617z"/>
	<path fill="#FFFFFF" d="M208.102,506.899c0.022,2.486-0.088,4.73-0.33,6.953c-0.065,0.528,0.132,0.727,0.265,1.034
		c1.782,4.401,4.136,7.415,8.713,9.374l-1.276,1.43c-4.07-2.112-6.557-4.511-8.427-8.867c-0.858,2.53-3.917,6.49-8.163,8.801
		l-1.32-1.298c1.54-0.925,2.816-1.849,4.004-2.992c1.452-1.364,2.509-2.509,3.609-4.797c1.275-2.597,1.122-6.447,1.166-9.637
		H208.102z"/>
	<path fill="#FFFFFF" d="M234.679,519.265v5.017c0,0.836-0.551,1.672-1.475,1.672h-2.244l-0.528-1.76l2.047,0.154
		c0.285,0.021,0.527-0.242,0.527-0.639v-4.444h-7.15v-0.572c-1.452,2.354-3.169,4.137-5.479,5.743l-1.21-1.364
		c2.904-1.716,5.501-4.885,6.425-7.13h-5.919v-1.605h6.623c0.242-0.506,0.506-0.99,0.572-1.386h-5.545v-1.519h5.985
		c0.153-0.418,0.264-0.99,0.33-1.342h-6.865v-1.606h7.195l0.418-2.156l1.518,0.396c-0.132,0.836-0.197,1.21-0.286,1.76h7.943v1.606
		h-8.229c-0.11,0.506-0.221,0.99-0.309,1.342h7.701v1.519h-8.097c-0.177,0.484-0.33,1.035-0.463,1.386h10.231v1.605h-10.891
		c-0.309,0.617-0.66,1.32-0.902,1.717h6.402v-1.299h1.673v1.299h3.718v1.606H234.679z M229.288,523.6
		c-0.66-1.32-1.453-2.113-2.663-2.795l1.101-1.122c1.144,0.66,2.134,1.694,2.882,2.729L229.288,523.6z"/>
	<path fill="#FFFFFF" d="M250.342,526.063v-5.215c-1.893,2.288-4.951,3.587-8.186,4.269c-0.33-0.484-0.506-0.945-0.946-1.518
		c2.883-0.484,5.501-1.673,7.151-3.059h-6.139v-1.563l8.097-0.021v-1.189h1.738v1.211h8.186v1.54l-6.271,0.022
		c0.221,0.22,0.727,0.682,1.32,1.033c1.717,1.013,3.608,1.629,5.875,1.959c-0.374,0.639-0.616,1.012-0.858,1.518
		c-3.256-0.571-6.578-1.804-8.229-4.158l-0.044,5.215L250.342,526.063z M259.583,508.571v1.584h-7.02l0.022,0.968l5.61-0.022v1.54
		h-5.633v0.88h5.699l-0.022,1.584l-5.677-0.021l0.022,1.034l7.349-0.022v1.563l-13.95-0.021l-0.021,1.078h-1.628v-6.733
		c-0.242,0.264-0.792,0.814-1.694,1.496c-0.484-0.353-0.771-0.616-1.364-0.99c2.222-1.606,3.63-3.851,4.664-6.139l1.497,0.594
		c-0.33,0.836-0.771,1.518-0.837,1.65l4.775-0.022c-0.374-0.484-1.211-0.99-2.223-1.496l1.21-1.078
		c0.99,0.396,2.442,1.474,3.015,2.222l-0.44,0.308L259.583,508.571z M245.919,515.04l0.044,1.078l4.929-0.022v-1.012L245.919,515.04
		z M250.914,513.521v-0.858h-4.93v0.858H250.914z M250.914,510.199l-4.885-0.044l0.021,0.968l4.863-0.022V510.199z"/>
	<path fill="#FFFFFF" d="M279.36,526.041v-1.363h-13.29c-0.044,0.308,0,0.703,0,1.363h-1.672v-18.68h16.635v18.68H279.36z
		 M279.36,508.967h-13.29v14.104h13.29V508.967z M275.444,513.918v6.975c0,0.704-0.683,1.364-1.364,1.364h-2.091l-0.55-1.649
		l2.046,0.109c0.221,0.021,0.374-0.264,0.374-0.484v-6.314h-0.55c-0.771,3.08-2.509,6.029-5.94,7.349l-0.881-1.386
		c3.367-1.364,4.555-3.609,5.457-5.963h-4.95v-1.606h6.864v-2.75h1.585v2.75h3.322v1.606H275.444z"/>
	<path fill="#FFFFFF" d="M293.55,508.923c-0.419,1.232-0.837,2.663-1.694,3.807l-1.211-0.572l0.022,1.254h2.223v1.628h-2.223
		l-0.022,1.364l0.507-0.418c1.166,1.078,2.156,2.332,2.75,3.719l-1.408,0.682c-0.374-1.145-1.21-2.178-1.849-2.816l0.022,8.537
		h-1.694v-7.261c-0.572,0.858-1.21,2.397-2.838,3.895l-1.145-1.167c1.475-1.562,3.212-4.4,3.872-6.557h-3.014v-1.584l3.103-0.021
		l0.021-7.107h1.672v5.457c0.704-1.1,1.276-2.442,1.65-3.873l1.255,0.572v-0.704h4.313l0.021-1.518l1.673-0.022v1.54h4.576
		l0.022,1.584l-4.555,0.022v0.968h3.807v1.519h-3.807l0.021,1.078h5.369v1.584h-12.036v-1.584l4.907-0.022l0.021-1.034h-3.696
		v-1.563l3.675,0.022l0.021-0.99l-4.334,0.022V508.923z M287.19,512.817c-0.066-1.716-0.66-2.97-1.584-4.291l1.452-0.572
		c0.902,1.276,1.474,2.662,1.672,4.247L287.19,512.817z M301.272,524.083c0.308,0,0.528-0.22,0.528-0.55v-1.034h-6.007v3.564H294.1
		v-10.495h9.417l-0.021,8.339c0,0.771-0.616,1.562-1.364,1.65c-0.792,0.088-1.717,0.088-2.597,0.132l-0.44-1.65L301.272,524.083z
		 M301.801,518.187l0.021-0.99l-6.051-0.022v0.99L301.801,518.187z M295.794,520.871h6.028v-1.057h-6.028V520.871z"/>
	<path fill="#FFFFFF" d="M306.902,520.717c1.43-2.398,2.641-4.687,3.168-7.48l1.54,0.637c-0.527,2.816-1.474,4.863-3.19,7.658
		L306.902,520.717z M314.647,511.651l0.021,10.737c0.066,0.242,0.44,0.66,0.814,0.727h3.433c0.352-0.044,0.682-0.221,0.836-0.572
		c0.374-1.188,0.66-2.398,0.902-3.851l1.716,0.616c-0.418,1.563-0.66,2.992-1.32,4.291c-0.396,0.791-1.21,1.209-2.068,1.209
		l-3.521-0.021c-1.144,0-2.53-0.615-2.53-2.223v-10.891L314.647,511.651z M318.322,513.324c-1.299-2.025-3.125-4.005-5.281-5.303
		c0.638-0.374,0.968-0.726,1.519-1.012c2.046,1.386,3.916,3.3,5.236,5.413L318.322,513.324z M325.473,521.156
		c-1.1-2.64-2.42-5.038-4.511-7.217c0.595-0.308,0.946-0.55,1.496-0.77c2.091,2.111,3.389,4.576,4.621,7.173L325.473,521.156z"/>
	<path fill="#FFFFFF" d="M332.709,524.655l-0.969-1.408c0.418-0.353,0.572-0.595,0.572-1.056v-7.107h-3.124v-1.606h4.796v8.669
		l3.103-1.672v1.805L332.709,524.655z M334.095,511.673c-0.638-1.32-1.584-2.354-2.794-3.344l1.166-0.99
		c1.232,0.814,2.288,2.002,3.015,3.256L334.095,511.673z M347.318,525.998c-1.804-0.683-3.916-1.738-5.303-2.883
		c-1.342,0.99-3.366,2.311-5.324,2.971l-1.101-1.387c2.047-0.727,3.785-1.605,5.171-2.707c-1.21-1.275-1.98-2.97-2.662-4.554h-1.034
		v-1.606h9.461c-0.439,2.86-1.672,4.599-3.322,6.117c1.54,1.21,3.345,2.002,5.611,2.684L347.318,525.998z M345.316,514.424
		c-1.056,0-1.628-0.792-1.628-1.65v-3.586h-3.521v2.046c0,1.122-0.484,2.267-1.606,3.322c-0.44,0.419-1.056,0.837-1.761,1.122
		l-1.188-1.386c1.254-0.419,1.914-1.078,2.42-1.827c0.484-0.748,0.462-1.254,0.462-2.046v-2.838h6.865v4.973
		c0,0.176,0.176,0.286,0.353,0.264h2.376v1.606H345.316z M339.903,517.438c0.484,1.101,1.122,2.464,2.091,3.433
		c0.99-0.99,1.804-2.091,2.354-3.433H339.903z"/>
	<path fill="#FFFFFF" d="M355.259,525.799l-0.99-1.408c0.418-0.352,0.572-0.549,0.572-1.033v-9.461h-3.213v-1.563h4.885v10.958
		l3.301-1.805v1.826L355.259,525.799z M355.743,510.485c-0.639-1.32-1.585-2.333-2.795-3.323l1.188-1.012
		c1.232,0.836,2.288,2.024,2.992,3.278L355.743,510.485z M363.818,512.862v-6.535h1.649v6.535h5.149v1.606h-5.149v11.618h-1.649
		v-11.618h-5.127v-1.606H363.818z"/>
	<path fill="#FFFFFF" d="M378.359,518.274v4.797l2.684-1.32v1.694l-3.718,1.958l-0.969-1.54c0.198-0.242,0.286-0.506,0.286-1.1
		v-4.489h-3.103v-1.606h3.103v-2.288h-0.99c-0.484,0.66-0.968,1.101-1.826,1.849l-1.232-1.32c2.003-1.629,3.411-4.643,3.653-8.339
		l1.584,0.418c0.065,1.188-0.11,2.31-0.198,2.508h3.322v1.606h-3.719c-0.197,0.616-0.483,1.232-0.682,1.672h4.181v1.606h-2.376
		v2.288h2.75v1.606H378.359z M391.759,525.844c-1.298-0.33-2.376-1.012-3.322-1.805c-1.87-1.914-2.839-4.422-3.036-6.887h-1.827
		v6.755l3.323-1.122v1.65l-4.467,1.628l-0.836-1.54c0.241-0.242,0.264-0.484,0.264-0.946v-16.106h8.229v9.682h-3.103
		c0.088,1.012,0.418,2.288,0.813,3.059c0.925-0.463,1.761-1.342,2.597-2.641l1.276,1.012c-0.946,1.387-2.091,2.332-3.19,2.949
		c0.77,1.342,2.486,2.354,4.444,2.859L391.759,525.844z M388.437,509.077h-4.863v2.398h4.863V509.077z M388.437,512.994h-4.863
		v2.552h4.863V512.994z"/>
	<path fill="#FFFFFF" d="M401.305,507.009c-0.286,1.782-0.792,3.521-1.452,5.061v14.171h-1.65v-11.266
		c-0.726,0.924-1.231,1.672-2.2,2.596l-1.231-1.188c1.979-2.025,4.313-5.105,5.017-10.056L401.305,507.009z M409.732,517.856
		c1.012,2.662,2.729,4.093,5.501,5.522l-1.299,1.232c-2.42-1.166-4.4-3.037-5.721-6.271l-0.044,7.834h-1.672v-7.547
		c-0.595,1.738-2.618,4.62-5.281,6.051l-1.232-1.277c2.047-0.945,3.873-2.947,5.127-5.544h-4.488v-1.606h5.896v-1.782l-4.356,0.022
		v-7.085h10.144v7.085h-4.137v1.76h5.765v1.606H409.732z M410.635,508.989h-6.8v3.895h6.8V508.989z"/>
	<path fill="#FFFFFF" d="M420.885,511.343h2.706v1.65h-2.685v12.959h-1.672v-12.938h-2.112v-1.672h2.091v-4.995h1.672V511.343z
		 M426.254,514.996c-0.396,1.87-1.232,3.432-2.465,4.951c-0.528-0.33-0.924-0.529-1.43-0.925c1.166-1.474,2.002-2.882,2.441-4.687
		L426.254,514.996z M434.658,514.49c1.188,1.43,1.959,2.992,2.201,4.84c-0.528,0.287-0.925,0.418-1.519,0.705
		c-0.374-1.629-0.836-2.927-1.431-3.873c-0.22,2.772-0.55,5.677-1.034,8.031c-0.153,0.748-0.945,1.452-1.693,1.563
		c-0.969,0.132-1.871-0.11-2.816-0.33l-0.133-1.738c1.034,0.176,1.782,0.572,2.486,0.373c0.353-0.307,0.484-0.77,0.595-1.254
		c0.616-2.508,0.924-7.656,0.968-10.671h-2.86c-0.044,0.22-0.021,0.638-0.021,1.123c-0.045,1.518-0.11,3.278-0.463,4.73
		c-0.792,3.168-2.09,5.589-5.082,8.01l-1.211-1.32c2.068-1.606,3.564-3.609,4.27-5.809c0.659-2.113,0.857-4.512,0.792-6.689h-3.719
		v-1.694h3.719l0.021-4.181l1.628-0.022c0.089,1.32,0.022,3.564,0.022,4.203h4.599c0.088,1.738,0.044,3.278-0.044,4.335
		L434.658,514.49z"/>
	<path fill="#FFFFFF" d="M452.346,523.93c1.057,0,2.597-0.066,2.927-0.176c0.22-0.111,0.374-0.572,0.374-0.99l0.022-13.819
		l-13.334-0.022v17.36h-1.738v-18.988h16.811l0.021,15.82c0,1.012-0.396,2.047-0.99,2.354c-0.594,0.221-2.772,0.309-3.498,0.265
		L452.346,523.93z M454.965,511.321l0.021,1.628h-11.617l0.021-1.628H454.965z M453.183,515.326v6.645h-8.361v-6.623
		L453.183,515.326z M446.493,520.343h5.039v-3.366l-5.039,0.021V520.343z"/>
	<path fill="#FFFFFF" d="M468.053,507.691v1.584h-2.244v14.104c0,0.902-0.462,1.496-0.857,1.76
		c-0.749,0.507-1.761,0.353-2.795,0.353c-0.198-0.571-0.374-1.012-0.66-1.694c0.924,0.11,1.672,0.11,2.354,0.11
		c0.11-0.044,0.154-0.11,0.22-0.198v-14.456h-3.036v-1.562H468.053z M466.073,524.348c2.816-0.309,5.544-1.408,6.49-4.07
		c0.727-2.047,0.462-4.313,0.507-6.8c0.615-0.022,1.078,0,1.672,0c0.021,2.046,0.088,4.114-0.22,5.919
		c-0.814,4.093-3.301,5.809-7.459,6.557L466.073,524.348z M472.696,511.013c0.329-0.616,0.638-1.386,0.748-2.024h-4.973v-1.563
		h11.507v1.563h-4.862c-0.176,0.726-0.374,1.518-0.66,2.002h4.665v10.386h-1.606v-8.779h-6.953l0.022,9.153h-1.694v-10.738H472.696z
		 M479.187,525.953c-1.276-1.693-3.059-3.124-4.929-4.114l0.792-1.188c2.289,0.969,4.291,2.619,5.413,4.115L479.187,525.953z"/>
	<path fill="#FFFFFF" d="M485.257,507.295h15.424v4.885h-13.818c0,5.324,0.242,9.637-2.948,13.664
		c-0.506-0.375-0.857-0.705-1.298-1.123c1.43-1.804,2.641-4.378,2.641-8.559V507.295z M486.862,508.879v1.716h12.212v-1.716H486.862
		z M499.448,526.02c-0.33-0.77-0.836-1.606-1.231-2.135c-3.741,0.44-6.249,0.924-9.483,1.343l-0.814-1.628
		c1.738-1.629,3.521-3.961,4.313-5.611h-4.973v-1.518h14.918v1.562h-8.845l0.726,0.528c-1.21,1.936-2.42,3.432-3.631,4.621
		l6.646-0.748c-0.418-0.484-0.814-1.101-1.761-1.85l1.32-0.967c1.629,1.496,3.257,3.564,4.335,5.391L499.448,526.02z
		 M488.733,514.688v-1.563h10.913v1.563H488.733z"/>
	<path fill="#FFFFFF" d="M514.144,519.793c-1.628,2.529-4.885,4.246-8.119,5.258c-0.33-0.461-0.639-0.879-0.99-1.496
		c2.904-0.857,5.566-2.09,7.195-4.137h-6.228v-1.65h8.186v-2.045h1.76v2.045h7.922v1.65h-5.985c0.286,0.353,0.969,0.837,1.606,1.343
		c1.716,1.122,3.521,2.003,5.721,2.552c-0.418,0.639-0.704,1.035-1.1,1.52c-3.235-0.947-6.447-2.663-8.119-5.105l-0.045,6.359
		h-1.804V519.793z M511.041,510.551c-0.154,3.037-2.179,5.302-4.488,6.645l-1.299-1.298c1.585-1.057,3.631-2.465,4.093-5.347h-2.992
		v-1.65h3.103c0.021-0.748,0.088-1.562,0.109-2.464h1.65c0.022,1.012-0.065,1.804-0.088,2.464h3.829
		c-0.022,1.849-0.089,3.433-0.242,5.105c-0.11,0.439-0.11,1.057-0.507,1.496c-0.792,1.122-2.332,0.748-3.498,0.66l-0.66-1.826
		c1.013,0.154,1.717,0.33,2.442,0.33c0.154-0.021,0.308-0.154,0.396-0.264c0.153-0.836,0.33-2.663,0.396-3.851H511.041z
		 M523.121,507.691l-0.022,8.515h-1.65v-1.255h-3.564l-0.021,1.32h-1.673v-8.581H523.121z M517.884,509.341v4.004h3.543l0.021-3.982
		L517.884,509.341z"/>
	<path fill="#FFFFFF" d="M532.953,513.918c1.254,1.21,2.178,2.09,2.597,3.543l-1.408,0.857c-0.528-1.408-1.188-2.2-1.761-2.662
		v10.275h-1.65v-8.867c-0.242,0.748-1.012,2.42-2.376,4.004l-1.364-1.033c2.002-2.179,2.927-4.621,3.41-7.262l0.11-0.616h-2.685
		v-1.606h2.883v-4.269h1.672v4.269h2.509v1.584h-2.509v2.113L532.953,513.918z M544.087,519.925c0.153-1.034,0.242-2.134,0.286-3.19
		l0.153-3.719l0.066-2.552h-7.173c-0.418,1.474-1.122,3.014-2.2,4.533l-1.452-0.969c1.716-2.332,2.508-4.884,2.75-7.921l1.584,0.528
		c-0.021,0.968-0.22,1.65-0.33,2.244h8.449l-0.044,5.347c-0.044,2.772-0.308,5.501-0.726,8.163c-0.133,0.858-0.33,1.826-0.748,2.662
		c-0.507,0.748-1.364,1.057-2.223,0.859c-0.44-0.089-0.858-0.199-1.408-0.375l-0.55-1.958c1.034,0.286,1.672,0.726,2.42,0.748
		c0.154-0.022,0.484-0.11,0.616-0.946L544.087,519.925z M540.346,512.642c-0.594,2.244-1.188,4.356-2.398,6.183l-0.682,1.034
		c1.166-0.198,2.706-0.418,4.114-0.704c-0.132-0.374-0.55-0.836-0.99-1.54l1.364-0.748c1.211,1.408,1.826,2.816,2.047,4.753
		l-1.606,0.836c-0.088-0.836-0.154-1.43-0.286-1.738c-1.76,0.264-3.564,0.572-5.369,1.232l-1.474-1.584
		c1.782-2.641,3.146-5.26,3.631-8.516L540.346,512.642z"/>
	<path fill="#FFFFFF" d="M550.024,518.67h14.984v1.783l-14.984-0.022V518.67z M561.114,525.381c-0.089-0.66-0.177-1.209-0.286-1.957
		c1.166,0.33,2.178,0.726,3.212,0.857c0.286,0,0.814-0.198,1.034-0.616c0.44-1.298,0.528-3.652,0.704-5.677
		c0.044-0.66,0.022-1.452,0.044-1.98l-14.214,0.022l1.738-9.55l1.761,0.528l-0.463,2.464l13.818-0.022v1.804h-14.126l-0.55,2.926
		h13.905l-0.088,3.543c-0.044,1.475-0.153,3.102-0.396,4.643c-0.221,1.43-0.374,3.036-2.112,3.564
		c-1.057,0.309-2.068-0.11-2.971-0.264L561.114,525.381z"/>
	<path fill="#FFFFFF" d="M578.449,518.824c-0.352-1.386-1.012-2.465-1.475-3.08l-0.044,10.297h-1.76v-9.197
		c-0.374,0.836-1.276,2.421-2.685,3.852l-1.298-1.123c2.046-2.046,3.344-4.95,3.828-7.349h-3.19l0.022-1.628h3.3v-4.159h1.782v4.159
		h3.015v1.628h-3.015v2.156l0.66-0.418c1.166,1.166,1.959,2.421,2.442,3.872L578.449,518.824z M577.591,525.008
		c1.98-1.805,3.323-3.741,3.323-6.228v-11.354h6.843l-0.022,15.952c0,0.221,0.088,0.264,0.374,0.264h0.704
		c0.683,0,0.88-2.046,1.101-3.388l1.54,1.034c-0.22,1.057-0.462,2.002-0.771,2.904c-0.197,0.594-0.77,1.078-1.518,1.078h-1.496
		c-0.66,0-1.65-0.309-1.65-1.364v-14.874h-3.389l0.021,9.967c0,2.597-1.342,5.172-3.564,7.24L577.591,525.008z"/>
	<path fill="#FFFFFF" d="M606.368,513.521l0.021,1.606l-5.28-0.022v1.98l4.599,0.022l-0.022,4.862
		c-0.065,0.639-0.506,1.123-1.144,1.387c-0.639,0.264-1.232,0.154-2.223,0.154l-0.55-1.65l1.804,0.088
		c0.265-0.066,0.396-0.154,0.44-0.375l0.022-2.926h-2.927v7.48h-1.717v-7.48h-2.794v5.082h-1.65v-6.645h4.423l0.021-1.98
		l-5.698,0.022v-1.585l5.698,0.023v-2.311l-2.486-0.022c-0.374,0.638-0.792,1.452-1.452,2.222l-1.474-0.879
		c1.408-1.584,2.024-3.323,2.552-5.303c0.595,0.154,0.99,0.374,1.452,0.572c-0.088,0.792-0.352,1.474-0.462,1.849h1.849l0.021-3.455
		h1.65v3.455h4.159v1.54h-4.115v2.31L606.368,513.521z M607.05,521.509v-12.388h1.65v12.388H607.05z M612.111,506.393v17.515
		c0,0.968-0.133,1.231-0.616,1.761c-0.858,0.572-2.398,0.285-3.499,0.373c-0.264-0.55-0.33-1.033-0.572-1.693
		c1.013,0.088,1.782,0.197,2.531,0.132c0.241-0.11,0.462-0.353,0.462-0.638l0.021-17.449H612.111z"/>
	<path fill="#FFFFFF" d="M624.165,519.771l-0.638-0.813c1.034-0.463,1.32-1.299,1.32-2.179h-1.188v-2.421h2.421v2.311
		C626.08,517.416,625.815,519,624.165,519.771z"/>
	<path fill="#FFFFFF" d="M147.359,544.274v4.797l2.684-1.32v1.694l-3.718,1.958l-0.969-1.54c0.198-0.242,0.286-0.506,0.286-1.1
		v-4.489h-3.103v-1.606h3.103v-2.288h-0.99c-0.484,0.66-0.968,1.101-1.826,1.849l-1.232-1.32c2.003-1.629,3.411-4.643,3.653-8.34
		l1.584,0.418c0.065,1.188-0.11,2.311-0.198,2.509h3.322v1.606h-3.719c-0.197,0.615-0.483,1.232-0.682,1.672h4.181v1.606h-2.376
		v2.288h2.75v1.606H147.359z M160.759,551.844c-1.298-0.33-2.376-1.012-3.322-1.805c-1.87-1.914-2.839-4.422-3.036-6.887h-1.827
		v6.755l3.323-1.122v1.65l-4.467,1.628l-0.836-1.54c0.241-0.242,0.264-0.484,0.264-0.946v-16.106h8.229v9.682h-3.103
		c0.088,1.012,0.418,2.288,0.813,3.059c0.925-0.463,1.761-1.342,2.597-2.641l1.276,1.012c-0.946,1.387-2.091,2.332-3.19,2.949
		c0.77,1.342,2.486,2.354,4.444,2.859L160.759,551.844z M157.437,535.077h-4.863v2.398h4.863V535.077z M157.437,538.994h-4.863
		v2.552h4.863V538.994z"/>
	<path fill="#FFFFFF" d="M170.305,533.009c-0.286,1.782-0.792,3.521-1.452,5.061v14.171h-1.65v-11.266
		c-0.726,0.924-1.231,1.672-2.2,2.596l-1.231-1.188c1.979-2.025,4.313-5.105,5.017-10.057L170.305,533.009z M178.732,543.856
		c1.012,2.662,2.729,4.093,5.501,5.522l-1.299,1.232c-2.42-1.166-4.4-3.037-5.721-6.271l-0.044,7.834h-1.672v-7.547
		c-0.595,1.738-2.618,4.62-5.281,6.051l-1.232-1.277c2.047-0.945,3.873-2.947,5.127-5.544h-4.488v-1.606h5.896v-1.782l-4.356,0.022
		v-7.086h10.144v7.086h-4.137v1.76h5.765v1.606H178.732z M179.635,534.989h-6.8v3.895h6.8V534.989z"/>
	<path fill="#FFFFFF" d="M189.885,537.344h2.706v1.65h-2.685v12.959h-1.672v-12.938h-2.112v-1.672h2.091v-4.995h1.672V537.344z
		 M195.254,540.996c-0.396,1.87-1.232,3.432-2.465,4.951c-0.528-0.33-0.924-0.529-1.43-0.925c1.166-1.474,2.002-2.882,2.441-4.687
		L195.254,540.996z M203.658,540.49c1.188,1.43,1.959,2.992,2.201,4.84c-0.528,0.287-0.925,0.418-1.519,0.705
		c-0.374-1.629-0.836-2.927-1.431-3.873c-0.22,2.772-0.55,5.677-1.034,8.031c-0.153,0.748-0.945,1.452-1.693,1.563
		c-0.969,0.132-1.871-0.11-2.816-0.33l-0.133-1.738c1.034,0.176,1.782,0.572,2.486,0.373c0.353-0.307,0.484-0.77,0.595-1.254
		c0.616-2.508,0.924-7.656,0.968-10.672h-2.86c-0.044,0.221-0.021,0.639-0.021,1.123c-0.045,1.518-0.11,3.278-0.463,4.73
		c-0.792,3.168-2.09,5.589-5.082,8.01l-1.211-1.32c2.068-1.606,3.564-3.609,4.27-5.809c0.659-2.113,0.857-4.512,0.792-6.689h-3.719
		v-1.694h3.719l0.021-4.181l1.628-0.021c0.089,1.32,0.022,3.564,0.022,4.202h4.599c0.088,1.738,0.044,3.278-0.044,4.335
		L203.658,540.49z"/>
	<path fill="#FFFFFF" d="M221.346,549.93c1.057,0,2.597-0.066,2.927-0.176c0.22-0.111,0.374-0.572,0.374-0.99l0.022-13.818
		l-13.334-0.022v17.36h-1.738v-18.988h16.811l0.021,15.82c0,1.012-0.396,2.047-0.99,2.354c-0.594,0.221-2.772,0.309-3.498,0.265
		L221.346,549.93z M223.965,537.321l0.021,1.628h-11.617l0.021-1.628H223.965z M222.183,541.326v6.645h-8.361v-6.623
		L222.183,541.326z M215.493,546.343h5.039v-3.366l-5.039,0.021V546.343z"/>
	<path fill="#FFFFFF" d="M248.209,542.624c-0.99,2.091-2.223,4.269-4.181,5.545c-3.829,2.509-8.361,3.278-13.158,3.784l-0.616-1.693
		c5.083-0.572,10.231-0.99,13.862-4.401c1.166-1.101,1.893-2.574,2.641-4.114L248.209,542.624z M238.065,542.932
		c-1.694,2.091-3.895,3.852-6.293,4.93c-0.418-0.418-0.748-0.881-1.232-1.365c2.377-0.99,4.423-2.552,6.161-4.576L238.065,542.932z
		 M231.156,541.063v-1.65h3.125v-5.105l1.76-0.021l0.022,5.127h3.608v-7.151h1.782l-0.022,2.794h6.976v1.629l-6.932,0.021v2.707
		h8.031v1.628h-7.833v5.897h-1.782l0.022-5.897L231.156,541.063z"/>
	<path fill="#FFFFFF" d="M252.87,550.018c4.709-2.486,7.503-5.743,9.132-10.716c-0.198-1.364-0.353-2.663-0.353-3.96h-3.807v-1.65
		l5.567-0.022c-0.088,1.958,0.021,3.718,0.308,5.391c0.902,5.149,4.026,8.405,7.812,10.936l-1.057,1.452
		c-2.904-1.805-6.402-5.039-7.767-9.329c-1.452,3.433-3.895,6.755-8.802,9.351L252.87,550.018z"/>
	<path fill="#FFFFFF" d="M288.006,535.188h1.013v2.244h-2.068v-1.76c0-1.079,0-2.598,1.76-3.389l0.484,0.748
		C288.072,533.492,288.028,534.57,288.006,535.188z M291.351,535.188h1.013v2.244h-2.068v-1.76c0-1.079,0-2.598,1.76-3.389
		l0.484,0.748C291.417,533.492,291.373,534.57,291.351,535.188z"/>
	<path fill="#FFFFFF" d="M297.223,534.131h8.053c-0.198-0.221-0.792-0.77-1.496-1.299l1.694-0.703
		c0.682,0.66,1.21,1.363,1.563,2.002h8.097l0.022,1.606l-17.911-0.022L297.223,534.131z M309.896,549.973
		c0.968,0,1.584,0.154,2.288,0.022c0.286-0.065,0.462-0.396,0.462-0.792v-5.611l-12.828,0.022v8.472l-1.738,0.021l0.022-10.077
		l16.261-0.022v7.701c0,0.924-0.616,1.694-1.387,1.849c-0.836,0.153-1.672,0.065-2.618,0.11L309.896,549.973z M311.568,536.705
		v4.423h-10.76l-0.021-4.423H311.568z M301.843,549.203l0.022-4.687l8.647-0.022v4.709H301.843z M302.438,539.521h7.503v-1.232
		h-7.525L302.438,539.521z M303.493,547.597l5.391,0.022l-0.021-1.496h-5.369V547.597z"/>
	<path fill="#FFFFFF" d="M320.257,533.295h15.424v4.885h-13.818c0,5.324,0.242,9.637-2.948,13.664
		c-0.506-0.375-0.857-0.705-1.298-1.123c1.43-1.804,2.641-4.378,2.641-8.559V533.295z M321.862,534.879v1.717h12.212v-1.717H321.862
		z M334.448,552.02c-0.33-0.77-0.836-1.606-1.231-2.135c-3.741,0.44-6.249,0.924-9.483,1.343l-0.814-1.628
		c1.738-1.629,3.521-3.961,4.313-5.611h-4.973v-1.518h14.918v1.562h-8.845l0.726,0.528c-1.21,1.936-2.42,3.432-3.631,4.621
		l6.646-0.748c-0.418-0.484-0.814-1.101-1.761-1.85l1.32-0.967c1.629,1.496,3.257,3.564,4.335,5.391L334.448,552.02z
		 M323.733,540.688v-1.563h10.913v1.563H323.733z"/>
	<path fill="#FFFFFF" d="M347.295,543.834c-0.88,0.287-1.628,0.594-2.311,0.814v5.127c0,0.792-0.021,1.32-0.594,1.848
		c-0.484,0.418-1.804,0.506-2.926,0.484l-0.639-1.694c0.902,0.066,1.475,0.154,2.091,0.044c0.285-0.021,0.418-0.285,0.418-0.506
		v-4.73c-0.507,0.197-1.343,0.527-2.2,0.792c-0.353-0.44-0.595-0.813-0.99-1.386c1.275-0.353,2.288-0.683,3.168-1.013v-5.325h-2.618
		v-1.563h2.618l0.022-4.268h1.649v4.268h2.201v1.563h-2.201v4.665c0.595-0.176,1.761-0.638,2.267-0.88L347.295,543.834z
		 M345.293,540.775c2.398-2.508,3.74-5.28,4.488-8.492l1.496,0.527c-0.352,1.342-0.615,2.531-0.989,3.455h9.087v1.584h-4.335
		l-0.021,2.442h3.212v1.606h-3.212l0.021,2.596h3.19v1.584h-3.212l0.021,2.816h4.973v1.585h-9.967v1.584h-1.694v-12.542
		c-0.198,0.286-0.792,1.276-1.496,2.068L345.293,540.775z M350.046,537.85v2.442h3.322l0.021-2.421L350.046,537.85z
		 M350.046,544.473h3.322l0.021-2.574l-3.344-0.022V544.473z M350.046,548.895h3.322v-2.816l-3.322-0.021V548.895z M353.72,536.199
		c-0.418-1.32-1.034-2.223-2.178-3.301l1.54-0.814c0.792,0.947,1.826,2.355,2.2,3.543L353.72,536.199z"/>
	<path fill="#FFFFFF" d="M379.57,548.322c-0.176,1.32-0.33,2.575-1.782,3.169c-0.813,0.353-1.782,0.11-2.706,0.022
		c-0.176-0.551-0.286-0.99-0.528-1.694c1.034,0.11,1.761,0.353,2.465,0.22c0.572-0.197,0.506-0.924,0.726-1.518
		c0.528-3.059,0.858-6.953,0.99-9.55h-2.75c0.021,5.149-0.771,10.21-6.293,12.981l-1.276-1.408c1.408-0.682,2.465-1.54,2.927-2.09
		c-0.286-0.639-0.639-1.1-0.99-1.518c-1.826,0.506-4.533,1.275-6.733,2.067l-1.144-1.672c1.188-0.968,3.102-4.644,3.696-6.688
		h-3.961v-1.607h9.594v1.607h-3.785c-1.1,2.662-2.2,4.928-3.146,6.116l4.532-1.231c-0.132-0.199-0.528-0.572-1.101-1.079
		l1.211-0.858c1.012,0.858,2.508,2.443,3.036,3.609c0.462-0.396,1.738-3.213,1.738-6.491v-1.738h-2.311v-1.519h2.311v-5.104
		c0.594,0.022,1.034-0.044,1.672-0.022v5.127h4.555C380.318,541.238,379.944,545.595,379.57,548.322z M363.068,536.133v-1.518h7.833
		v1.518H363.068z"/>
	<path fill="#FFFFFF" d="M394.728,544.45c-0.506-0.836-1.694-2.244-2.685-3.103l1.232-1.232c1.145,0.859,2.288,1.938,3.015,2.816
		L394.728,544.45z"/>
	<path fill="#FFFFFF" d="M409.709,549.489l0.021-2.948l1.65-0.022v2.993h3.608v-3.939h-7.547l0.022-1.563h17.074v1.563h-7.899v1.078
		h6.865v1.541h-6.865v1.32h9.153v1.518h-19.671v-1.54H409.709z M424.913,544.098c-1.717-0.549-3.081-1.231-4.181-2.244
		c-1.013,0.727-2.223,1.453-3.631,2.068l-0.836-1.254c1.408-0.572,2.42-1.188,3.41-2.002c-0.483-0.727-0.77-1.32-1.056-2.047
		l-0.814,1.254l-1.21-0.659l0.021,1.101h-2.771c1.056,0.373,1.914,0.901,2.86,1.672l-1.034,1.232
		c-0.727-0.727-1.915-1.32-2.663-1.629v2.244l-1.628-0.021v-3.125c-0.528,1.188-2.332,2.619-4.291,3.367l-0.77-1.365
		c1.782-0.637,2.882-1.474,3.564-2.397h-2.244l-0.022-4.159h3.807v-0.703h-4.753v-1.563h4.731l0.021-1.563h1.628l-0.021,1.563h4.643
		v1.563h-4.643v0.703h3.564v2.662c1.54-2.222,2.068-4.092,2.53-6.645l1.694,0.484c-0.242,0.902-0.484,1.782-0.66,2.332l5.039-0.021
		v1.563h-1.255c-0.132,0.373-0.264,0.924-0.439,1.496c-0.353,1.056-0.946,2.023-1.606,2.75c0.484,0.682,2.729,1.805,3.828,2.068
		L424.913,544.098z M409.181,537.651l0.021,1.144h2.201l-0.022-1.144H409.181z M413.009,540.666l0.286-0.352h-0.286V540.666z
		 M415.012,537.651h-1.98v1.144h1.98V537.651z M419.632,536.508c-0.044,0.065-0.065,0.242-0.109,0.396
		c0.439,1.144,0.836,2.091,1.275,2.663c0.551-0.639,1.276-2.025,1.497-3.059H419.632z"/>
	<path fill="#FFFFFF" d="M434.635,533.053c-0.352,2.156-0.836,3.719-1.65,5.479v13.422h-1.693v-10.451
		c-0.044,0.066-1.32,1.717-2.003,2.354c-0.616-0.353-0.813-0.638-1.474-0.99c2.596-2.267,4.511-6.733,5.368-10.518L434.635,533.053z
		 M444.91,546.211v1.605h-3.542l-0.022,4.225l-1.649-0.021v-4.203h-3.499l-0.021-1.605h3.498v-6.865
		c-0.462,2.135-2.223,6.007-5.522,8.604l-1.211-1.232c1.937-1.76,3.433-3.608,4.203-5.699c0.352-0.99,0.638-1.958,0.858-2.75
		l-4.137-0.021v-1.585l5.831-0.022v-4.246h1.649v4.269h5.985l0.021,1.606h-4.356c0.396,1.475,0.88,3.213,1.761,4.752
		c0.792,1.365,2.09,2.553,3.498,3.631c-0.439,0.484-0.792,0.858-1.254,1.299c-2.442-1.871-4.203-4.313-4.995-7.239l-0.616-2.267
		l-0.044,7.768H444.91z"/>
	<path fill="#FFFFFF" d="M449.572,550.479c1.65-1.673,3.851-4.797,4.29-8.604h-3.828v-1.54h3.851c0.066-0.924,0-2.002,0-2.971
		h-3.234v-1.584h3.212v-3.322h1.673v3.301h2.729v1.584h-2.685c-0.022,1.342,0.021,2.09,0,3.014h2.904v1.519l-3.015,0.022
		c-0.418,4.752-2.86,8.053-4.687,9.813L449.572,550.479z M454.391,550.413c2.86-1.101,5.457-2.354,6.711-5.655
		c0.946-2.508,1.188-5.566,1.519-8.955l1.54,0.221c-0.132,2.574-0.352,4.291-0.727,6.447c-0.748,4.158-2.332,7.106-8.03,9.395
		L454.391,550.413z M457.735,548.279c-0.683-1.431-1.606-2.883-2.553-3.652l1.21-0.881c0.902,0.682,2.047,2.179,2.663,3.564
		L457.735,548.279z M467.658,533.295v12.344h-1.605v-10.826h-5.611v10.826h-1.606v-12.344H467.658z M463.192,543.879h1.628v5.434
		c0.044,0.066,0.088,0.088,0.176,0.133h2.377c0.418-0.198,0.594-1.211,0.66-1.629l0.065-0.506l1.408,0.572
		c-0.264,1.166-0.33,2.838-1.849,3.103h-2.552c-1.254,0-1.893-0.858-1.893-1.519L463.192,543.879z"/>
	<path fill="#FFFFFF" d="M483.344,540.975c-0.968,2.023-2.442,3.828-3.917,5.28c0.595,1.431,1.431,2.706,2.816,3.806
		c0.286,0.154,0.309,0.066,0.396-0.088c0.33-1.209,0.55-2.023,0.704-2.816l1.584,0.617c-0.22,1.363-0.616,2.508-1.276,3.607
		c-0.352,0.572-0.748,0.748-1.518,0.572c-0.925-0.197-1.54-0.748-2.2-1.628c-0.748-1.013-1.475-1.979-1.915-2.927
		c-1.298,0.902-2.771,1.98-4.73,2.729l-1.298-1.386c2.09-0.771,3.851-1.782,5.369-2.971c-0.66-1.826-1.145-3.917-1.387-5.897
		l-3.103,0.441l-0.22-1.585l3.103-0.462c-0.088-1.848-0.198-3.719-0.177-5.941h1.717l0.021,2.531l0.198,3.168l6.491-0.99l0.22,1.629
		l-6.534,0.968c0.241,1.782,0.506,3.278,1.078,4.95c1.319-1.386,2.376-2.926,3.256-4.576L483.344,540.975z M480.835,537.256
		c-0.77-1.343-1.76-2.421-3.19-3.191c0.528-0.418,0.858-0.66,1.232-1.033c1.364,0.682,2.442,1.869,3.301,3.146
		C481.716,536.508,481.386,536.926,480.835,537.256z M486.666,534.923v12.454h-1.65v-12.454H486.666z M488.559,550.348
		c0.22-0.045,0.528-0.088,0.528-0.572l-0.022-17.515l1.673,0.022v17.822c0,0.836-0.396,1.386-1.057,1.672
		c-0.814,0.33-1.672,0.198-2.816,0.198l-0.594-1.694L488.559,550.348z"/>
	<path fill="#FFFFFF" d="M503.165,545.771l-0.638-0.813c1.034-0.463,1.32-1.299,1.32-2.179h-1.188v-2.421h2.421v2.311
		C505.08,543.416,504.815,545,503.165,545.771z"/>
	<path fill="#FFFFFF" d="M517.068,551.139v-1.605h7.812v-3.234h-4.533v-1.606h4.533v-3.036h-5.259v-0.793
		c-0.507,0.33-1.65,0.771-2.751,1.211l-0.99-1.496c4.907-1.65,7.987-4.775,9.659-7.613l1.606,0.727l-0.396,0.66
		c1.628,2.705,5.259,4.95,8.823,6.094l-0.969,1.519c-1.144-0.418-2.112-0.858-2.86-1.188v0.881h-5.148v3.036h4.532v1.606h-4.532
		v3.234h7.921v1.605H517.068z M530.645,540.05c-1.937-0.946-3.543-2.244-4.995-4.247c-1.364,1.871-2.816,3.104-4.709,4.203
		L530.645,540.05z"/>
	<path fill="#FFFFFF" d="M546.747,537.256c0.396-0.66,0.616-1.563,0.748-2.267h-8.977v-1.585h18.813v1.585h-8.119
		c-0.132,0.726-0.353,1.694-0.616,2.267h7.569l0.021,14.896h-1.694l0.022-1.474h-12.982v1.65h-1.672v-15.072H546.747z
		 M541.532,549.071h3.037v-10.21l-3.037-0.021V549.071z M549.938,538.861h-3.718v2.09h3.74L549.938,538.861z M546.22,542.536v2.267
		h3.718v-2.267H546.22z M546.22,549.071h3.718v-2.663h-3.718V549.071z M554.515,538.84h-2.904v10.254l2.904-0.045V538.84z"/>
	<path fill="#FFFFFF" d="M571.542,532.701c-0.242,0.242-0.484,0.483-0.683,0.682c2.574,3.256,7.195,6.447,9.176,7.063
		c-0.374,0.617-0.748,0.99-1.101,1.475c-0.813-0.33-1.54-0.615-4.467-2.75c-1.474-1.101-3.278-3.279-4.466-4.688
		c-2.047,2.443-4.203,4.489-8.934,7.701l-1.188-1.32c4.907-3.168,8.714-7.172,10.034-9.263L571.542,532.701z M574.645,551.998
		l-0.022-1.365h-9.308v1.475h-1.76v-8.186h12.872v8.076H574.645z M575.437,541.59h-11.046v-1.693h11.023L575.437,541.59z
		 M565.337,548.961h9.285l0.022-3.389h-9.308V548.961z"/>
	<path fill="#FFFFFF" d="M585.665,540.248c-0.572,0.99-1.364,2.2-2.311,3.213l-1.54-0.881c2.794-3.059,4.467-6.49,5.633-10.254
		l1.496,0.683c-0.462,1.364-1.057,3.146-1.629,4.313l0.045,14.808h-1.694V540.248z M601.111,540.445v1.629h-7.107l0.021,2.75
		l7.504-0.021l0.044,1.563h-7.525l-0.022,5.721h-1.716v-14.192l-0.308-0.022c-0.814,1.606-1.805,3.279-3.037,4.93l-1.518-0.814
		c2.178-2.816,3.938-5.854,4.599-9.99l1.65,0.595c-0.198,1.298-0.704,2.816-1.034,3.696h9.329v1.606l-8.01,0.022v2.552
		L601.111,540.445z"/>
	<path fill="#FFFFFF" d="M614.728,544.45c-0.506-0.836-1.694-2.244-2.685-3.103l1.232-1.232c1.145,0.859,2.288,1.938,3.015,2.816
		L614.728,544.45z"/>
	<path fill="#FFFFFF" d="M277.488,568.008c-0.945-1.363-2.486-2.553-3.652-2.948l1.078-1.166c1.519,0.506,2.729,1.606,3.763,2.839
		L277.488,568.008z M273.99,577.051c1.563-1.826,2.772-4.906,3.301-7.371l1.43,0.441c-0.506,2.947-1.958,6.116-3.103,7.656
		L273.99,577.051z M278.083,563.233c-1.034-1.298-2.179-2.288-3.741-2.794l1.057-1.255c1.519,0.528,2.75,1.519,3.872,2.816
		L278.083,563.233z M284.859,570.187c-0.726,2.772-2.596,5.456-5.456,6.534l-1.034-1.32c2.662-1.078,4.202-2.816,5.082-5.258h-3.982
		v-1.584h5.854v-1.673h1.628v1.673h5.787v1.584h-3.851c0.682,1.936,2.508,4.203,5.061,5.281l-1.101,1.275
		c-2.772-1.166-4.599-3.477-5.413-6.513l-0.483-0.022v8.01h-1.628l0.021-7.987H284.859z M279.733,566.908
		c2.067-1.145,3.586-3.191,4.07-5.348l1.584,0.529c-0.616,2.068-2.179,4.73-4.137,5.918L279.733,566.908z M292.363,559.427v4.774
		h-1.673v-3.146h-9.241v3.146h-1.672v-4.774H292.363z M287.94,561.561c1.54,1.101,3.124,3.477,3.895,5.391l-1.452,0.99
		c-0.748-2.199-2.047-4.025-3.851-5.764L287.94,561.561z"/>
	<path fill="#FFFFFF" d="M299.709,569.064c0,3.014-0.177,6.513-2.289,9.176l-1.408-1.102c0.99-1.451,1.606-2.771,1.782-4.334
		c0.133-1.299,0.198-2.641,0.198-3.982v-8.098h8.01c-0.286-0.418-0.66-0.77-1.782-1.474l1.628-0.902
		c0.66,0.66,1.804,1.761,2.178,2.376h7.283l0.022,1.563H299.73L299.709,569.064z M312.734,571.551
		c-0.77,1.298-2.948,2.948-3.828,3.454c0.527,0.242,1.408,0.507,2.288,0.704c1.475,0.352,2.948,0.594,4.709,0.727
		c-0.265,0.682-0.616,1.056-0.902,1.563c-2.816-0.396-5.522-0.902-7.855-2.047c-0.638,0.264-1.298,0.572-2.002,0.836
		c-1.606,0.616-3.41,1.034-5.303,1.254c-0.374-0.483-0.66-0.902-1.166-1.539c2.706-0.221,4.906-0.881,6.755-1.541
		c-1.078-0.77-2.311-2.023-3.169-3.322h-1.672v-1.563l12.189,0.045L312.734,571.551z M311.282,568.977h-8.295l0.021-3.015h-2.948
		v-1.519l2.927-0.021v-1.695h1.738v1.695h4.841v-1.717h1.716v1.717h3.587v1.563h-3.587V568.977z M304.285,571.639
		c1.101,1.232,1.738,1.805,2.86,2.53c1.343-0.726,2.597-1.496,3.564-2.509L304.285,571.639z M304.791,567.458l4.753-0.022
		l0.022-1.451h-4.819L304.791,567.458z"/>
	<path fill="#FFFFFF" d="M321.885,563.344h2.706v1.65h-2.685v12.959h-1.672v-12.938h-2.112v-1.672h2.091v-4.995h1.672V563.344z
		 M327.254,566.996c-0.396,1.87-1.232,3.432-2.465,4.951c-0.528-0.33-0.924-0.529-1.43-0.925c1.166-1.474,2.002-2.882,2.441-4.687
		L327.254,566.996z M335.658,566.49c1.188,1.43,1.959,2.992,2.201,4.84c-0.528,0.287-0.925,0.418-1.519,0.705
		c-0.374-1.629-0.836-2.927-1.431-3.873c-0.22,2.772-0.55,5.677-1.034,8.031c-0.153,0.748-0.945,1.452-1.693,1.563
		c-0.969,0.132-1.871-0.11-2.816-0.33l-0.133-1.738c1.034,0.176,1.782,0.572,2.486,0.373c0.353-0.307,0.484-0.77,0.595-1.254
		c0.616-2.508,0.924-7.656,0.968-10.672h-2.86c-0.044,0.221-0.021,0.639-0.021,1.123c-0.045,1.518-0.11,3.278-0.463,4.73
		c-0.792,3.168-2.09,5.589-5.082,8.01l-1.211-1.32c2.068-1.606,3.564-3.609,4.27-5.809c0.659-2.113,0.857-4.512,0.792-6.689h-3.719
		v-1.694h3.719l0.021-4.181l1.628-0.021c0.089,1.32,0.022,3.564,0.022,4.202h4.599c0.088,1.738,0.044,3.278-0.044,4.335
		L335.658,566.49z"/>
	<path fill="#FFFFFF" d="M353.346,575.93c1.057,0,2.597-0.066,2.927-0.176c0.22-0.111,0.374-0.572,0.374-0.99l0.022-13.818
		l-13.334-0.022v17.36h-1.738v-18.988h16.811l0.021,15.82c0,1.012-0.396,2.047-0.99,2.354c-0.594,0.221-2.772,0.309-3.498,0.265
		L353.346,575.93z M355.965,563.321l0.021,1.628h-11.617l0.021-1.628H355.965z M354.183,567.326v6.645h-8.361v-6.623
		L354.183,567.326z M347.493,572.343h5.039v-3.366l-5.039,0.021V572.343z"/>
	<path fill="#FFFFFF" d="M363.948,563.541l-0.483-0.748c1.122-0.462,1.166-1.54,1.188-2.156h-1.012v-2.244h2.068v1.76
		C365.709,561.23,365.709,562.75,363.948,563.541z M367.293,563.541l-0.484-0.748c1.122-0.462,1.166-1.54,1.188-2.156h-1.013v-2.244
		h2.068v1.76C369.053,561.23,369.053,562.75,367.293,563.541z"/>
	<path fill="#FFFFFF" d="M397.412,558.591c-0.198,1.144-0.616,2.2-0.946,3.322h5.941c-0.11,4.687,0.065,9.704-1.387,14.038
		c-0.242,0.727-0.814,1.672-1.694,1.826c-0.968,0.176-2.794-0.374-3.916-0.682l-0.286-1.849c1.231,0.462,2.244,0.771,3.322,0.925
		c0.374,0.043,0.616-0.089,0.836-0.396c0.374-0.881,0.594-1.893,0.727-2.597c0.571-3.103,0.66-6.997,0.726-9.726h-4.687
		c-0.55,1.519-1.364,3.015-2.553,4.6l-1.144-0.727v9.813h-1.738v-1.43h-3.652v1.782h-1.738v-15.226h2.024
		c0.571-1.013,1.012-2.267,1.342-3.895l1.584,0.638c-0.396,1.452-0.748,2.53-1.188,3.257h3.367v4.4
		c1.782-2.486,2.75-5.324,3.3-8.471L397.412,558.591z M386.938,563.828v4.268h3.631v-4.268H386.938z M390.613,574.104v-4.401h-3.652
		v4.401H390.613z M397.83,572.629c-0.704-1.914-1.738-3.587-2.992-5.171l1.364-0.902c1.606,1.87,2.486,3.366,3.212,5.369
		L397.83,572.629z"/>
	<path fill="#FFFFFF" d="M410.457,571.595c-0.925,1.892-1.959,3.257-3.719,4.269l-0.99-1.299c1.738-0.968,2.795-2.244,3.521-3.872
		L410.457,571.595z M412.591,576.502c0,0.857-0.66,1.804-1.672,1.804h-1.782l-0.572-1.761l1.761,0.133
		c0.22,0.021,0.55-0.242,0.55-0.528v-5.985h-3.543v-1.605h3.543v-1.563h-4.313v-1.629h3.168c-0.154-0.638-0.682-1.451-1.694-2.222
		l1.452-0.595c0.925,0.727,1.585,1.717,1.893,2.816h0.924c0.727-0.726,1.276-1.826,1.541-2.771l1.474,0.594
		c-0.242,0.77-0.748,1.672-1.232,2.178h2.619v1.629h-4.115v1.563h3.499v1.605h-3.499v1.563l0.639-0.814
		c1.034,0.639,2.024,1.672,2.75,2.904l-1.122,1.277c-0.55-1.32-1.54-2.268-2.267-2.816V576.502z M410.721,560.593
		c-0.198-0.353-0.66-0.968-1.386-1.694l1.605-0.748c0.704,0.836,1.299,1.672,1.563,2.442h3.719v1.606h-9.109v-1.606H410.721z
		 M425.022,559.779c-1.979,1.144-4.004,1.693-5.963,2.046v3.146h6.315v1.606h-2.465v11.463h-1.693v-11.463h-2.157v2.838
		c0,2.927-0.968,5.941-2.662,8.56l-1.496-1.056c2.024-2.773,2.465-5.766,2.465-9.176l-0.022-7.262
		c2.442-0.285,4.555-0.945,6.623-2.068L425.022,559.779z"/>
	<path fill="#FFFFFF" d="M435.472,559.251v1.386c-0.749,1.871-1.585,3.807-2.267,4.93c0.638,0.594,2.288,2.75,2.508,3.828
		c0.286,0.857-0.109,2.244-0.682,2.771c-0.968,0.881-2.024,1.013-3.322,0.925l-0.528-1.782c1.034,0.132,1.826-0.044,2.311-0.154
		c0.33-0.109,0.594-0.77,0.572-1.1c-0.045-0.771-0.572-1.365-1.013-2.091c-0.594-0.726-1.298-1.672-1.804-2.179
		c0.989-1.826,1.693-3.102,2.288-4.95h-2.751v17.185l-1.694-0.044v-18.725H435.472z M439.08,565.984v5.721
		c0,2.706-2.112,5.215-4.665,6.314l-1.078-1.496c1.628-0.66,3.124-1.782,3.652-3.279c0.22-0.615,0.353-1.231,0.418-1.914v-5.324
		L439.08,565.984z M441.918,558.832l-0.264,1.013c1.54,2.882,3.498,4.356,6.161,5.897l-1.299,1.275
		c-2.464-1.738-4.225-3.189-5.501-5.039l-0.197-0.285c-0.969,1.914-4.379,4.929-5.567,5.281l-1.1-1.365
		c1.782-0.836,5.303-3.498,6.249-7.393L441.918,558.832z M442.248,577.953v-12.146h1.65v12.146H442.248z"/>
	<path fill="#FFFFFF" d="M452.301,560.879c2.398-0.439,4.467-1.078,6.425-2.553l1.078,1.211c-1.893,1.43-3.873,2.244-5.853,2.706
		v1.606h4.687l0.021,1.605h-4.708v2.553l4.708,0.022v1.584h-4.708l0.021,2.904l5.896-1.078v1.474l-5.896,1.232l-0.021,4.094h-1.65
		v-3.785l-1.496,0.264l-0.902-1.518l2.376-0.396L452.301,560.879z M469.001,577.998c-2.398-0.66-3.696-1.629-5.017-2.861
		c-1.276,1.101-3.19,2.289-5.149,3.037l-1.144-1.387c2.09-0.727,3.872-1.65,5.148-2.904c-1.012-1.43-1.672-3.213-2.112-4.885
		l-0.858-0.021l0.022-1.584l7.789-0.022c-0.11,2.574-1.034,4.841-2.574,6.534c1.188,1.232,2.816,2.223,4.818,2.707L469.001,577.998z
		 M467.064,559.427l0.022,5.062c0,0.329,0.22,0.506,0.462,0.483h1.826v1.54h-2.376c-1.101,0-1.563-0.99-1.563-1.936v-3.543h-3.411
		c0.089,3.125-0.044,4.709-2.662,6.689l-1.386-1.057c1.43-0.858,2.398-2.156,2.398-3.631v-3.608H467.064z M462.334,568.977
		c0.352,1.21,0.748,2.464,1.672,3.74c0.836-0.969,1.541-2.267,1.893-3.719L462.334,568.977z"/>
	<path fill="#FFFFFF" d="M482.288,571c-0.969,0.066-1.849-0.308-2.465-1.012s-0.792-1.805-0.506-2.707
		c0.33-1.056,1.342-1.869,2.42-1.936c1.013-0.066,1.937,0.309,2.53,1.145c0.528,0.726,0.727,1.65,0.418,2.552
		C484.334,570.055,483.366,570.912,482.288,571z M482.332,566.775c-0.507-0.131-1.034,0.022-1.364,0.396
		c-0.309,0.33-0.462,0.814-0.374,1.276c0.088,0.418,0.396,0.836,0.792,1.013c0.55,0.241,1.188,0.109,1.606-0.309
		c0.396-0.396,0.506-1.034,0.308-1.541C483.124,567.193,482.75,566.886,482.332,566.775z"/>
</g>
</svg>
