<?xml version="1.0" encoding="utf-8"?>
<!-- Generator: Adobe Illustrator 16.0.0, SVG Export Plug-In . SVG Version: 6.00 Build 0)  -->
<!DOCTYPE svg PUBLIC "-//W3C//DTD SVG 1.1//EN" "http://www.w3.org/Graphics/SVG/1.1/DTD/svg11.dtd">
<svg version="1.1" id="Layer_1" xmlns="http://www.w3.org/2000/svg" xmlns:xlink="http://www.w3.org/1999/xlink" x="0px" y="0px"
	 width="768px" height="1024px" viewBox="0 0 768 1024" enable-background="new 0 0 768 1024" xml:space="preserve">
<path opacity="0.2" fill-rule="evenodd" clip-rule="evenodd" fill="#FFFFFF" d="M336.89,693.617
	c0-25.47,20.646-46.116,46.116-46.116c25.481,0,46.129,20.646,46.129,46.116c0,25.469-20.647,46.114-46.129,46.114
	C357.536,739.731,336.89,719.086,336.89,693.617z"/>
<path fill-rule="evenodd" clip-rule="evenodd" fill="#FFFFFF" d="M374.915,681.282c-15.516-10.22-15.516-10.22-15.516-10.22
	c-4.969,0-4.969,0-4.969,0c0,32.553,0,32.553,0,32.553c3.729-2.692,3.729-2.692,3.729-2.692c0-0.267,0.62-0.267,0.932-0.267
	c15.514-16.949,15.514-16.949,15.514-16.949L374.915,681.282z"/>
<path fill-rule="evenodd" clip-rule="evenodd" fill="#FFFFFF" d="M367.091,710.078c-0.621,0-1.229,0.266-1.537,0.533
	c-0.621,0.798-0.621,2.144,0.309,2.677c0.607,0.532,1.834,0.266,2.456-0.266c0.919-0.8,0.62-1.879,0-2.679
	C367.696,710.344,367.401,710.078,367.091,710.078z"/>
<path fill-rule="evenodd" clip-rule="evenodd" fill="#FFFFFF" d="M362.181,706.617c-0.637,0-1.272,0.266-1.597,0.548
	c-0.638,0.8-0.638,1.862,0.324,2.676c0.636,0.534,1.909,0.267,2.56-0.548c0.946-0.531,0.635-1.862-0.327-2.41
	C362.817,706.617,362.507,706.617,362.181,706.617z"/>
<polygon fill-rule="evenodd" clip-rule="evenodd" fill="#FFFFFF" points="403.845,671.063 394.541,680.217 411.594,698.823 
	411.594,671.063 "/>
<path fill-rule="evenodd" clip-rule="evenodd" fill="#FFFFFF" d="M372.076,713.671c-0.606,0-1.228,0.269-1.54,0.814
	c-0.607,0.798-0.607,1.864,0.313,2.411c0.621,0.531,1.849,0.531,2.764-0.281c0.621-0.799,0.313-1.863-0.294-2.41
	C372.697,713.939,372.386,713.671,372.076,713.671z"/>
<path fill-rule="evenodd" clip-rule="evenodd" fill="#FFFFFF" d="M374.812,693.38c0,0.548-0.918,2.174-0.311,2.707
	c1.553,1.079,2.78,0.813,3.713,0c1.227-1.08,5.234-4.586,7.408-4.866l0,0c0.297,0,0.297,0,0.297,0c0.311,0,0.311,0,0.311,0
	s0,0,0.31,0c0,0,0,0,0.312,0.28l0,0c8.947,6.479,8.947,6.479,8.947,6.479l0,0c6.183,4.584,6.183,4.584,6.183,4.584
	c6.167-4.053,6.167-4.053,6.167-4.053c-15.13-16.195-15.13-16.195-15.13-16.195C389.94,683.115,378.819,687.45,374.812,693.38z"/>
<path fill-rule="evenodd" clip-rule="evenodd" fill="#FFFFFF" d="M385.726,693.336c-0.932,0.547-3.4,2.439-5.561,4.318
	c-1.863,1.628-4.941,1.628-7.112,0c-1.849-1.347-0.919-4.037-0.298-5.397c2.16-2.958,5.547-5.651,9.26-7.545
	c-5.871,0.814-5.871,0.814-5.871,0.814c-14.82,16.181-14.82,16.181-14.82,16.181c25.941,18.605,25.941,18.605,25.941,18.605
	c0.311,0.266,0.621,0.266,0.621,0.266c0.31,0,0.31,0,0.31,0c0.608,0,0.918-0.266,1.228-0.547c0.312-0.531,0.623-0.799,0.623-1.346
	c0-0.267-0.312-0.798-0.623-1.079c-8.34-6.197-8.34-6.197-8.34-6.197c-0.607-0.266-0.607-1.08-0.297-1.346
	c0.297-0.548,1.229-0.548,1.849-0.268c1.539,1.082,1.539,1.082,1.539,1.082l0,0c6.804,5.116,6.804,5.116,6.804,5.116l0,0
	c1.537,1.078,1.537,1.078,1.537,1.078c0.311,0.269,0.933,0.269,1.242,0.269c0.296,0,0.917-0.269,1.227-0.814
	c0.623-0.532,0.623-1.612,0-2.145c-8.65-6.212-8.65-6.212-8.65-6.212c-0.607-0.266-0.607-1.08,0-1.611
	c0.311-0.268,1.242-0.547,1.553,0c0.918,0.531,0.918,0.531,0.918,0.531c8.34,6.213,8.34,6.213,8.34,6.213l0,0h0.311
	c0,0.267,0,0.267,0.311,0.267l0,0c0.311,0,0.311,0,0.621,0c0.313,0,0.934-0.267,1.228-0.814c0.621-0.532,0.621-1.611,0-2.159
	c-8.636-6.196-8.636-6.196-8.636-6.196l0,0c-0.622-0.547-0.622-0.547-0.622-0.547c-0.621-0.267-0.621-1.065-0.31-1.612
	c0.619-0.268,1.241-0.533,1.848,0c8.653,6.196,8.653,6.196,8.653,6.196l0,0c0.312,0.281,0.312,0.281,0.621,0.281s0.31,0,0.31,0
	c0.605,0,0.917-0.281,1.229-0.813c0.621-0.533,0.621-1.613,0-2.159L385.726,693.336z"/>
<path fill-rule="evenodd" clip-rule="evenodd" fill="#FFFFFF" d="M377.073,717.133c-0.621,0-1.227,0.267-1.536,0.798
	c-0.622,0.799-0.622,1.88,0.31,2.411c0.918,0.532,1.834,0.532,2.767-0.267c0.605-0.813,0.31-1.878-0.312-2.41
	C377.992,717.399,377.386,717.133,377.073,717.133z"/>
</svg>
