<?xml version="1.0" encoding="utf-8"?>
<!-- Generator: Adobe Illustrator 16.0.0, SVG Export Plug-In . SVG Version: 6.00 Build 0)  -->
<!DOCTYPE svg PUBLIC "-//W3C//DTD SVG 1.1//EN" "http://www.w3.org/Graphics/SVG/1.1/DTD/svg11.dtd">
<svg version="1.1" id="Layer_1" xmlns="http://www.w3.org/2000/svg" xmlns:xlink="http://www.w3.org/1999/xlink" x="0px" y="0px"
	 width="768px" height="1024px" viewBox="0 0 768 1024" enable-background="new 0 0 768 1024" xml:space="preserve">
<g>
	<rect x="125.309" y="781.712" opacity="0.2" fill="#FFFFFF" enable-background="new    " width="122.648" height="71.355"/>
	<g>
		<g>
			<path fill="#FFFFFF" d="M139.363,797.699c-0.103,2.261,0.017,5.201-2.074,7.684l-1.088-0.815
				c2.023-2.262,1.904-5.575,1.887-8.396l-0.017-3.247l6.289-0.017c-0.033-0.782-0.085-1.752-0.085-2.873h1.275
				c0.017,1.173,0.034,1.955,0.102,2.89h4.964v1.241l-4.879-0.018c0.153,1.598,0.357,3.45,1.003,5.134
				c1.021-1.326,1.581-2.635,2.176-4.233l1.173,0.393c-0.85,2.261-1.479,3.536-2.787,5.202c0.561,1.154,1.155,2.242,2.277,3.108
				c0.085,0.068,0.136,0.119,0.221,0.019c0.204-0.766,0.323-1.496,0.357-2.481l1.258,0.731c-0.085,0.934-0.425,1.664-0.663,2.412
				c-0.119,0.341-0.306,0.63-0.612,0.748c-0.781,0.289-1.444-0.374-1.938-0.918c-0.884-0.969-1.309-1.513-1.818-2.617
				c-1.055,1.121-2.125,2.057-3.434,2.854l-1.173-0.9c1.563-0.833,2.957-1.938,3.994-3.179c-0.782-1.954-1.071-4.165-1.292-6.255
				h-5.1v2.312h4.539c-0.051,1.259-0.17,2.84-0.374,3.894c-0.119,0.696-0.425,1.649-1.122,1.903c-0.697,0.237-1.513,0.103-2.244,0
				l-0.561-1.41c0.867,0.255,1.496,0.34,2.159,0.306c0.152,0,0.306-0.017,0.407-0.237c0.272-0.577,0.392-2.277,0.408-3.229h-3.228
				V797.699z M149.443,792.583c-0.952-0.8-2.295-1.429-3.298-1.513l1.02-0.918c1.173,0.255,2.244,0.765,3.196,1.631L149.443,792.583
				z"/>
			<path fill="#FFFFFF" d="M167.905,803.955h-13.888v-1.258h6.714c1.7-2.263,2.736-5.031,3.128-8.125l1.292,0.543
				c-0.425,2.854-1.445,5.508-2.907,7.582h5.661V803.955L167.905,803.955z M160.936,793.025c-0.663-0.97-1.563-1.871-2.771-2.278
				l1.088-0.884c1.155,0.44,2.125,1.428,2.872,2.498l-0.9,0.646l5.864,0.019v1.258h-12.307v-1.241L160.936,793.025z
				 M158.845,802.051c-0.221-2.276-1.088-5.252-2.686-6.936l1.189-0.578c1.615,1.734,2.635,4.743,2.788,7.123L158.845,802.051z"/>
			<path fill="#FFFFFF" d="M181.046,792.227h0.782v1.732h-1.598V792.6c0-0.832,0-2.006,1.359-2.616l0.374,0.577
				C181.097,790.917,181.063,791.75,181.046,792.227z M183.63,792.227h0.781v1.732h-1.598V792.6c0-0.832,0-2.006,1.36-2.616
				l0.374,0.577C183.681,790.917,183.646,791.75,183.63,792.227z"/>
			<path fill="#FFFFFF" d="M191.299,794.367c-0.459,1.377-1.632,2.566-2.584,3.502l-1.003-0.918
				c1.003-0.832,1.938-1.836,2.651-3.213L191.299,794.367z M190.244,793.076c-0.73-1.055-1.343-1.514-2.158-2.04l0.781-0.782
				c0.766,0.323,1.819,1.071,2.329,1.818L190.244,793.076z M188.086,803.938c2.481-0.151,4.147-0.102,5.644-1.732
				c0.595-0.8,0.611-1.683,0.714-3.094l1.224-0.018c-0.051,1.699-0.188,3.45-1.581,4.538c-1.529,1.206-3.434,1.411-5.405,1.547
				L188.086,803.938z M199.271,797.342v5.305h-1.274v-4.079h-5.865v4.063h-1.291v-5.287h0.747l-0.526-0.748
				c1.632-0.459,2.821-0.866,3.79-1.682c0.612-0.51,0.986-1.105,1.326-2.041l1.19,0.272l-0.222,0.662
				c1.343,1.854,3.094,2.38,5.32,2.976l-0.884,1.088c-1.818-0.459-3.79-1.496-5.015-2.957c-0.68,1.104-2.549,2.158-4.164,2.396
				L199.271,797.342z M198.981,793.908c0.477-0.543,0.714-1.053,0.833-1.41h-4.964c-0.492,0.918-1.461,1.802-2.498,2.516
				l-0.867-1.003c1.479-0.866,2.481-2.346,2.992-3.943l1.139,0.407c-0.068,0.238-0.222,0.546-0.289,0.748h5.848
				c0.102,1.615-0.527,2.482-1.037,3.314L198.981,793.908z M200.478,805.349c-1.445-0.952-3.417-1.613-5.286-2.006l0.595-1.104
				c1.768,0.355,3.672,0.899,5.337,1.92L200.478,805.349z"/>
			<path fill="#FFFFFF" d="M206.769,797.02c-0.544-0.951-1.343-1.784-2.396-2.243l0.9-0.867c1.003,0.477,1.802,1.31,2.448,2.262
				L206.769,797.02z M208.111,798.379c-0.476,2.603-1.19,4.624-2.584,6.478l-1.155-0.715c1.461-1.683,2.294-4.3,2.481-6.271
				L208.111,798.379z M206.105,790.577c1.122,0.476,1.955,1.547,2.414,2.243l-1.003,0.815c-0.459-1.02-1.326-1.733-2.329-2.227
				L206.105,790.577z M218.259,793.229v6h-2.872v4.591c0,0.885-0.374,1.496-1.173,1.496h-1.632l-0.442-1.275l1.309,0.068
				c0.392,0.018,0.596-0.188,0.596-0.511v-4.369h-2.958v-6h2.601c0.204-0.373,0.357-0.814,0.425-1.172h-3.994v7.037
				c0,2.277-0.629,4.334-1.921,6.255l-1.241-0.73c1.258-1.854,1.87-3.857,1.87-6.068v-7.733l10.352-0.018l0.018,1.259h-3.825
				c-0.085,0.322-0.221,0.814-0.34,1.172L218.259,793.229L218.259,793.229z M209.522,803.037c1.291-0.918,2.243-2.057,2.668-3.468
				l1.156,0.577c-0.527,1.325-1.648,2.788-2.754,3.739L209.522,803.037z M216.984,794.47h-4.624l0.018,0.97h4.606V794.47
				L216.984,794.47z M216.984,796.68h-4.606v1.31h4.606V796.68z M217.205,799.569c1.207,1.036,1.785,2.277,2.38,3.62l-1.156,0.696
				c-0.237-0.951-1.121-2.787-2.396-3.757L217.205,799.569z"/>
			<path fill="#FFFFFF" d="M224.244,803.275l0.017-2.278l1.275-0.017v2.312h2.787v-3.043h-5.83l0.018-1.207h13.19v1.207h-6.103
				v0.833h5.304v1.189h-5.304v1.021h7.071v1.173h-15.196v-1.188L224.244,803.275L224.244,803.275z M235.99,799.11
				c-1.326-0.426-2.38-0.952-3.23-1.733c-0.781,0.561-1.717,1.121-2.805,1.598l-0.646-0.969c1.088-0.441,1.87-0.918,2.635-1.547
				c-0.374-0.562-0.595-1.021-0.816-1.582l-0.629,0.97l-0.935-0.511l0.017,0.852h-2.142c0.816,0.289,1.479,0.695,2.21,1.292
				l-0.799,0.95c-0.561-0.561-1.479-1.02-2.057-1.258v1.734l-1.258-0.019v-2.413c-0.408,0.918-1.802,2.022-3.314,2.602l-0.596-1.054
				c1.377-0.493,2.228-1.141,2.754-1.854h-1.733l-0.018-3.213h2.941v-0.544h-3.672v-1.207h3.654l0.018-1.207h1.258l-0.018,1.207
				h3.587v1.207h-3.587v0.544h2.754v2.057c1.19-1.717,1.598-3.162,1.955-5.133l1.309,0.373c-0.187,0.697-0.374,1.377-0.51,1.803
				l3.893-0.018v1.207h-0.969c-0.103,0.289-0.204,0.713-0.34,1.156c-0.272,0.814-0.731,1.563-1.241,2.124
				c0.374,0.525,2.107,1.394,2.958,1.599L235.99,799.11z M223.836,794.13l0.018,0.884h1.699l-0.017-0.884H223.836z M226.794,796.459
				l0.221-0.271h-0.221V796.459z M228.341,794.13h-1.53v0.884h1.53V794.13z M231.91,793.246c-0.034,0.051-0.051,0.187-0.085,0.306
				c0.34,0.884,0.646,1.614,0.986,2.058c0.425-0.493,0.985-1.563,1.155-2.362L231.91,793.246L231.91,793.246z"/>
			<path fill="#FFFFFF" d="M145.041,810.705c-0.188,0.188-0.374,0.374-0.527,0.527c1.989,2.516,5.559,4.979,7.088,5.455
				c-0.289,0.477-0.577,0.766-0.85,1.14c-0.629-0.255-1.189-0.477-3.45-2.124c-1.14-0.852-2.533-2.533-3.451-3.621
				c-1.581,1.887-3.246,3.467-6.901,5.949l-0.918-1.021c3.791-2.448,6.731-5.542,7.751-7.156L145.041,810.705z M147.438,825.612
				l-0.018-1.055h-7.189v1.14h-1.36v-6.323h9.944v6.238H147.438L147.438,825.612z M148.049,817.572h-8.532v-1.31h8.516
				L148.049,817.572z M140.247,823.267h7.173l0.018-2.617h-7.19L140.247,823.267L140.247,823.267z"/>
			<path fill="#FFFFFF" d="M153.966,819.952h11.576v1.377l-11.576-0.017V819.952z M162.533,825.137
				c-0.067-0.51-0.136-0.936-0.221-1.514c0.9,0.256,1.683,0.563,2.481,0.664c0.221,0,0.629-0.153,0.799-0.477
				c0.34-1.004,0.408-2.822,0.544-4.386c0.034-0.511,0.018-1.123,0.034-1.53l-10.98,0.018l1.343-7.377l1.359,0.408l-0.356,1.902
				l10.675-0.017v1.394h-10.913l-0.425,2.262h10.743l-0.068,2.735c-0.034,1.14-0.119,2.396-0.306,3.587
				c-0.17,1.104-0.289,2.347-1.632,2.754c-0.816,0.237-1.599-0.085-2.295-0.203L162.533,825.137z"/>
			<path fill="#FFFFFF" d="M170.592,824.763v-1.241h4.964v-12.545h1.326v12.545h1.972v-12.545h1.274v12.545h4.93v1.241H170.592z
				 M173.261,821.788c-0.085-2.313-0.867-4.675-1.717-6.596l1.104-0.526c0.867,1.903,1.666,4.283,1.904,6.561L173.261,821.788z
				 M181.879,821.992l-1.088-0.663c1.173-1.547,1.989-4.59,2.107-6.63l1.173,0.426C183.731,817.793,183.001,820.258,181.879,821.992
				z"/>
			<path fill="#FFFFFF" d="M201.956,819.018c-2.447-0.526-4.759-1.189-6.765-2.381c-1.938,1.293-4.947,2.16-7.564,2.567
				l-0.527-1.224c2.04-0.341,3.825-0.8,5.575-1.445c0.459-0.221,1.003-0.492,1.344-0.68c-0.731-0.562-1.7-1.14-2.295-1.955
				c-0.748,0.885-1.836,1.803-3.111,2.313l-0.969-1.174c2.618-0.969,3.876-2.481,4.675-4.572l1.122,0.629
				c-0.188,0.427-0.357,0.73-0.408,0.833h6.374v1.141c-1.003,1.239-2.022,2.039-3.076,2.805c0.221,0.17,0.748,0.34,1.224,0.577
				c1.598,0.595,3.28,1.054,5.235,1.429L201.956,819.018z M199.288,824.49c-0.171,0.526-0.612,0.985-1.105,1.122
				c-0.748,0.222-1.513-0.018-2.295-0.137l-0.322-1.479c0.9,0.254,1.547,0.51,2.243,0.408c0.392-0.256,0.425-0.731,0.51-1.226
				c0.153-0.918,0.34-2.091,0.374-2.635h-3.671c-0.272,1.462-1.411,2.855-2.788,3.757c-1.02,0.681-2.855,1.225-3.961,1.429
				c-0.237-0.426-0.459-0.766-0.68-1.274c2.159-0.34,4.165-0.85,5.456-2.551c0.357-0.459,0.544-0.97,0.646-1.359h-4.861v-1.24h5.065
				c0.051-0.407,0-0.715,0.051-1.479l1.258,0.17c-0.017,0.646,0.034,0.935-0.017,1.31h4.827
				C199.984,821.193,199.78,822.927,199.288,824.49z M192.607,813.17c0.68,0.816,1.598,1.359,2.55,1.972
				c0.918-0.595,1.836-1.292,2.481-1.972H192.607z"/>
			<path fill="#FFFFFF" d="M207.329,814.291h2.091v1.275h-2.073v10.012h-1.292v-9.994h-1.632v-1.293h1.614v-3.857h1.292V814.291z
				 M211.477,817.113c-0.306,1.444-0.951,2.651-1.903,3.823c-0.408-0.254-0.714-0.407-1.105-0.713
				c0.901-1.14,1.547-2.228,1.887-3.621L211.477,817.113z M217.97,816.723c0.918,1.104,1.514,2.313,1.7,3.739
				c-0.408,0.222-0.714,0.323-1.173,0.544c-0.289-1.258-0.646-2.261-1.104-2.992c-0.17,2.144-0.425,4.388-0.799,6.205
				c-0.119,0.578-0.731,1.121-1.31,1.207c-0.748,0.103-1.444-0.086-2.176-0.256l-0.102-1.342c0.799,0.136,1.377,0.441,1.921,0.289
				c0.271-0.238,0.374-0.596,0.459-0.969c0.476-1.938,0.714-5.916,0.748-8.244h-2.21c-0.034,0.17-0.018,0.492-0.018,0.866
				c-0.033,1.173-0.085,2.531-0.356,3.654c-0.612,2.447-1.615,4.316-3.927,6.188l-0.935-1.021c1.598-1.24,2.753-2.788,3.298-4.486
				c0.51-1.634,0.662-3.484,0.611-5.168h-2.873v-1.31h2.873l0.018-3.229l1.258-0.018c0.067,1.021,0.017,2.754,0.017,3.247h3.553
				c0.068,1.343,0.034,2.533-0.034,3.349L217.97,816.723z"/>
			<path fill="#FFFFFF" d="M231.689,824.015c0.815,0,2.006-0.051,2.261-0.136c0.17-0.086,0.289-0.441,0.289-0.766l0.017-10.674
				l-10.301-0.019v13.412h-1.343v-14.67h12.986l0.018,12.222c0,0.782-0.307,1.581-0.766,1.819c-0.459,0.17-2.142,0.237-2.702,0.203
				L231.689,824.015z M233.712,814.274l0.018,1.259h-8.976l0.018-1.259H233.712z M232.335,817.368v5.134h-6.459v-5.117
				L232.335,817.368z M227.168,821.244h3.893v-2.603l-3.893,0.019V821.244z"/>
			<path fill="#FFFFFF" d="M144.489,836.766c1.309-1.139,2.686-2.975,3.45-5.916l1.139,0.357c-0.136,0.425-0.17,0.765-0.255,0.986
				c0.918,0.561,1.819,1.461,2.567,2.531l-0.97,0.8c-0.611-0.885-1.274-1.733-1.92-2.159c-0.766,1.648-1.479,2.771-3.026,4.284
				L144.489,836.766z M149.367,845.01c-0.9-1.581-2.447-2.771-3.773-3.417l0.816-0.866c0.561,0.237,1.206,0.681,1.665,0.985
				c0.714-0.985,1.105-1.666,1.666-2.532l-4.572-0.018v-1.173h6.119l-0.017,1.104c-0.782,1.31-1.717,2.584-2.329,3.351
				c0.425,0.44,0.85,0.799,1.394,1.717L149.367,845.01z M149.367,837.717c-0.408-0.662-1.292-1.598-1.853-1.902l0.85-0.696
				c0.629,0.391,1.479,1.069,1.904,1.903L149.367,837.717z M155.827,840.08c0,1.564-0.629,3.145-1.836,4.182
				c-0.969,0.832-1.769,1.291-3.094,1.717l-0.816-0.969c1.275-0.526,3.434-1.462,4.131-3.145c0.187-0.597,0.34-1.293,0.34-1.974
				l0.018-3.553h1.258L155.827,840.08L155.827,840.08z M159.413,831.547v1.225h-3.383c-0.136,0.492-0.561,1.325-0.73,1.699
				l3.468-0.018v7.599h-1.292v-6.408h-4.556l-0.017,6.631h-1.207l-0.018-7.804h2.329c0.238-0.459,0.629-1.292,0.748-1.717h-3.688
				v-1.207H159.413L159.413,831.547z M158.887,845.774c-0.782-1.225-2.023-2.413-3.229-3.095l0.985-0.833
				c1.377,0.937,2.363,1.785,3.213,3.043L158.887,845.774z"/>
			<path fill="#FFFFFF" d="M172.741,844.737c0,0.476-0.322,0.866-0.748,1.07c-0.561,0.255-1.394,0.137-2.142,0.137
				c-0.102-0.393-0.255-0.748-0.459-1.259c0.816,0.104,1.241,0.104,1.819,0.104c0.204,0,0.289-0.104,0.289-0.34v-3.894h-9.724
				v-1.189h9.706v-0.918h1.258v0.918h3.757v1.189h-3.757L172.741,844.737L172.741,844.737z M164.311,831.598h8.941v4.063h-7.667
				v1.174c0.052,0.221,0.204,0.221,0.527,0.188h7.615c0.306-0.085,0.255-0.493,0.374-0.833c0.102-0.341,0.153-0.767,0.17-1.241
				l1.156,0.493c-0.222,0.936-0.188,2.073-1.14,2.601c-0.322,0.136-0.696,0.153-1.036,0.153h-7.463
				c-1.444,0-1.479-1.088-1.479-1.648v-4.949H164.311z M168.237,844.295c-1.021-1.088-1.989-1.784-3.315-2.396l0.646-0.9
				c1.139,0.459,2.601,1.41,3.62,2.277L168.237,844.295z M171.977,832.787h-6.408v1.666h6.408V832.787z"/>
			<path fill="#FFFFFF" d="M179.186,840.199c1.648-1.615,2.821-3.621,3.45-5.66l1.14,0.578c-0.697,2.243-1.769,4.215-3.536,5.966
				L179.186,840.199z M187.226,831.054v12.749c0,0.697-0.153,1.189-0.646,1.479c-0.986,0.578-2.091,0.289-3.111,0.356l-0.561-1.395
				c0.985,0.068,1.733,0.068,2.499,0.051c0.237,0,0.441-0.254,0.441-0.492v-12.749H187.226z M192.512,841.016
				c-0.714-2.244-1.988-4.131-3.858-5.848l1.207-0.646c1.903,1.718,3.28,3.773,3.876,5.898L192.512,841.016z"/>
			<path fill="#FFFFFF" d="M201.693,839.502v1.156c-1.309,0.322-3.314,0.729-5.015,1.258l-0.611-1.139
				c1.02-1.021,1.938-2.058,2.431-2.788c-0.153,0.017-1.156,0.255-1.853,0.493l-0.646-1.175c0.85-1.342,2.04-3.96,2.855-6.067
				l1.156,0.526c-0.51,1.189-1.818,4.046-2.465,5.168c0.272-0.033,1.241-0.256,1.785-0.374c0.374-0.544,0.748-1.24,1.139-2.021
				l1.207,0.543c-1.003,2.006-2.04,3.74-3.587,5.168L201.693,839.502z M196.118,843.734c2.057-0.646,3.587-1.07,5.949-1.888v1.275
				l-5.32,1.785L196.118,843.734z M200.741,845.18v-1.207h1.938v-12.119h6.103v12.119h1.972v1.207H200.741z M203.954,833.06v2.688
				h3.553v-2.688H203.954z M203.954,839.74h3.553v-2.822h-3.553V839.74z M207.507,843.973v-3.075h-3.553v3.075H207.507z"/>
			<path fill="#FFFFFF" d="M214.358,834.845l-0.373-0.578c0.866-0.355,0.9-1.189,0.917-1.666h-0.781v-1.732h1.598v1.358
				C215.719,833.06,215.719,834.232,214.358,834.845z M216.942,834.845l-0.374-0.578c0.867-0.355,0.901-1.189,0.918-1.666h-0.782
				v-1.732h1.599v1.358C218.303,833.06,218.303,834.232,216.942,834.845z"/>
		</g>
	</g>
</g>
</svg>
