<?xml version="1.0" encoding="utf-8"?>
<!-- Generator: Adobe Illustrator 16.0.0, SVG Export Plug-In . SVG Version: 6.00 Build 0)  -->
<!DOCTYPE svg PUBLIC "-//W3C//DTD SVG 1.1//EN" "http://www.w3.org/Graphics/SVG/1.1/DTD/svg11.dtd">
<svg version="1.1" id="Layer_1" xmlns="http://www.w3.org/2000/svg" xmlns:xlink="http://www.w3.org/1999/xlink" x="0px" y="0px"
	 width="768px" height="1024px" viewBox="0 0 768 1024" enable-background="new 0 0 768 1024" xml:space="preserve">
<g>
	<rect x="256.662" y="781.712" opacity="0.2" fill="#FFFFFF" enable-background="new    " width="122.647" height="71.355"/>
	<g>
		<g>
			<path fill="#FFFFFF" d="M275.86,802.68c2.074-0.595,3.502-0.935,5.627-1.632v1.258l-4.776,1.547L275.86,802.68z M281.521,798.43
				v1.207c-1.887,0.375-3.23,0.545-4.743,0.834l-0.526-1.123c1.122-0.899,1.784-1.902,2.601-3.024l-2.074,0.237
				c-0.187-0.44-0.322-0.799-0.526-1.188c1.325-1.666,2.192-3.351,2.89-5.372l1.343,0.562c-0.765,1.599-1.615,3.298-2.635,4.605
				c0.306,0,1.054-0.103,1.887-0.203c0.374-0.663,0.73-1.344,1.139-2.193l1.207,0.612c-1.122,2.313-2.057,3.841-3.569,5.474
				L281.521,798.43z M290.122,805.229c-1.122-1.189-2.566-2.261-3.824-2.787c-1.309,2.227-4.199,2.617-5.949,2.854l-0.527-1.309
				c0.476,0,0.986-0.119,1.36-0.17c1.818-0.255,3.637-1.24,4.352-2.787h-3.876v-1.207l4.232-0.019
				c0.153-1.104,0.17-2.361,0.204-3.79l1.258,0.034c-0.034,1.428-0.068,2.635-0.187,3.756h3.688v1.241h-3.91l-0.152,0.356
				c1.444,0.646,3.06,1.395,4.437,2.924L290.122,805.229z M283.782,799.62c-0.578-0.68-1.496-1.411-2.465-1.989
				c0.237-0.34,0.441-0.594,0.646-0.951c1.021,0.477,1.904,1.156,2.72,1.988L283.782,799.62z M281.811,795.541V794.3h3.28v-1.292
				h-2.89v-1.225h2.873v-1.717h1.291v1.717h3.553v1.225h-3.553v1.326h4.182v1.189c-0.204,0.492-0.646,1.428-1.003,1.987
				l-1.258-0.629c0.477-0.561,0.748-1.02,0.884-1.342h-5.303c0.68,0.408,1.325,1.02,1.972,1.768l-0.952,0.867
				c-0.663-0.851-1.359-1.496-2.21-2.057l0.562-0.563L281.811,795.541z"/>
			<path fill="#FFFFFF" d="M293.218,799.145c3.994-1.155,5.796-2.565,7.479-4.505l-0.747-0.459c1.02-0.765,2.057-2.499,2.617-4.079
				l0.985,0.562c-0.137,0.51-0.34,1.02-0.441,1.24h5.1v1.14h-2.771c0.34,0.356,0.61,0.782,1.088,1.614l-1.173,0.545
				c-0.545-0.986-0.885-1.633-1.53-2.144h-1.258c-0.238,0.408-0.663,0.986-0.985,1.345l0.646,0.391l-0.408,0.425
				c1.769,2.124,4.165,3.298,6.885,4.198l-1.037,1.104c-1.411-0.51-2.669-1.155-3.672-1.784l0.018,0.646l-6.222-0.018v-0.714
				c-0.969,0.611-2.533,1.324-3.842,1.632L293.218,799.145z M298.538,795.269c-0.374-0.918-0.867-1.613-1.479-2.295h-0.596
				c-0.476,0.833-1.258,1.751-2.227,2.362l-0.918-0.85c1.564-1.189,2.431-2.465,3.314-4.642l1.055,0.597
				c-0.307,0.729-0.526,1.104-0.646,1.377l3.757,0.033l0.018,1.104l-2.262,0.033c0.308,0.34,0.767,0.936,1.122,1.684
				L298.538,795.269z M293.558,804.481l0.017-1.206h8.771c0.918-1.311,1.563-2.482,1.921-3.554l1.259,0.696
				c-0.374,0.799-1.292,2.278-1.734,2.856h4.233v1.223L293.558,804.481z M297.671,803.054c-0.476-1.241-1.054-2.021-1.955-2.65
				l1.071-0.612c0.986,0.612,1.581,1.496,2.021,2.55L297.671,803.054z M303.314,798.209c-0.936-0.611-1.633-1.207-2.262-2.074
				c-0.765,0.731-1.802,1.633-2.618,2.041L303.314,798.209z M300.765,802.951c-0.407-1.342-0.866-2.039-1.768-2.702l1.054-0.595
				c0.782,0.561,1.547,1.496,1.921,2.635L300.765,802.951z"/>
			<path fill="#FFFFFF" d="M322.456,805.332l-4.453-7.684l4.402-7.718h0.918l-4.353,7.718l4.402,7.684H322.456z M324.717,805.332
				l-4.352-7.684l4.301-7.718h0.969l-4.368,7.718l4.368,7.684H324.717z"/>
			<path fill="#FFFFFF" d="M339.933,791.461v13.174l-1.358-0.018l-0.019-1.614h-6.646v1.7l-1.343-0.019l0.018-13.225
				L339.933,791.461L339.933,791.461z M331.927,796.51l6.646-0.018v-3.773h-6.664L331.927,796.51z M338.59,797.75h-6.681
				l0.018,3.995h6.646L338.59,797.75z"/>
			<path fill="#FFFFFF" d="M346.495,793.926v1.988h-1.325v-3.229h3.383c-0.356-0.426-1.037-1.004-1.854-1.495
				c0.425-0.341,0.748-0.545,1.122-0.782c0.493,0.306,1.768,1.479,2.38,2.278h1.309v-2.722h1.326l0.017,2.722h1.6
				c0.595-0.664,1.206-1.445,1.699-2.33c0.425,0.237,0.73,0.441,1.122,0.715c-0.408,0.697-0.918,1.309-1.207,1.615l3.128,0.016
				v3.146h-1.31v-1.921H346.495z M346.394,804.039l0.018-4.453h5.117v-1.037h-3.672v-3.772l8.635-0.018v3.79l-3.654-0.017v1.054
				h5.15v3.128c0,0.34-0.392,0.833-1.104,0.935c-0.562,0.087-1.156,0.034-1.802,0.052c-0.17-0.441-0.204-0.799-0.426-1.274
				c0.766,0.034,1.344,0.085,1.836,0.034c0.119,0,0.188-0.102,0.188-0.255v-1.377l-3.842-0.018l0.017,4.486h-1.343l0.019-4.47
				l-3.791-0.018v3.229H346.394L346.394,804.039z M355.182,796.017h-6.018v1.274h6.018V796.017z"/>
			<path fill="#FFFFFF" d="M282.711,818.184c0.103-0.984,0.068-2.09,0.068-2.975h-5.439v-1.189h3.943
				c-0.459-0.884-1.122-1.972-2.074-3.024l1.055-0.527c1.02,1.021,1.784,2.21,2.413,3.535h1.684c0.73-1.053,1.139-1.852,1.835-3.568
				l1.19,0.526c-0.646,1.444-1.105,2.243-1.632,3.042h4.079v1.19h-5.762c-0.018,0.97,0.017,2.058-0.103,2.99h6.851l0.017,1.19
				h-5.405c0.612,1.496,1.734,3.587,5.575,5.286l-0.969,0.952c-3.723-1.53-5.015-3.654-6.034-6.223h-0.238
				c-0.951,2.892-4.079,5.594-6.85,6.223l-0.885-1.021c3.23-1.037,5.627-3.179,6.375-5.202h-6.052v-1.207L282.711,818.184
				L282.711,818.184z"/>
			<path fill="#FFFFFF" d="M298.878,821.432v4.146h-1.292v-3.773l-3.705,1.071l-0.816-1.292c0.595-0.051,1.003-0.152,1.309-0.221
				v-8.992h-0.918v-1.241h6.375v1.241h-0.952v7.802c0.357-0.085,0.9-0.204,1.207-0.34v1.241L298.878,821.432z M297.586,812.371
				h-1.921v1.836h1.921V812.371z M297.586,815.447h-1.921v1.854h1.921V815.447z M297.586,818.541h-1.921v2.533
				c0.714-0.17,1.122-0.256,1.921-0.493V818.541z M307.496,825.545c-0.646-0.408-1.037-0.73-1.53-1.309
				c-1.139-1.377-1.921-3.196-2.209-5.457c-0.392,2.295-0.629,3.842-2.788,5.948c-0.306,0.289-0.611,0.578-1.02,0.8l-0.852-1.003
				c2.244-1.495,2.907-2.907,3.384-5.745h-3.129v-1.241h3.23c0.051-0.562,0.051-1.292,0.051-2.058v-0.271h-2.958v-1.24h3.858
				c0.867-1.225,1.258-2.143,1.751-3.519l1.173,0.629c-0.391,0.782-1.003,2.073-1.529,2.89h2.702v1.24h-3.739
				c0,1.14,0,1.633-0.067,2.329h4.231v1.241h-3.161c0.103,0.492,0.171,1.088,0.392,1.717c0.562,1.58,1.547,3.025,3.128,4.199
				L307.496,825.545z M301.972,813.816c-0.255-0.937-0.866-2.059-1.563-2.619l1.054-0.595c0.714,0.696,1.258,1.563,1.598,2.601
				L301.972,813.816z"/>
			<path fill="#FFFFFF" d="M324.7,825.578c-2.567-0.662-4.794-1.785-6.579-3.28c-1.921,1.769-4.198,2.618-6.612,3.366l-0.833-1.275
				c2.414-0.459,5.39-1.836,6.442-3.06c-0.951-1.021-1.684-2.362-2.277-3.825l1.173-0.51c0.493,1.07,0.901,2.091,2.04,3.451
				c0.918-1.156,1.563-2.244,2.073-3.654l1.173,0.611c-0.595,1.513-1.358,2.873-2.295,3.942c1.785,1.496,4.029,2.38,6.563,2.992
				L324.7,825.578z M311.169,817.76c1.734-0.834,3.298-1.768,4.402-3.399l0.936,0.766c-0.697,1.258-2.499,2.702-4.42,3.654
				L311.169,817.76z M316.847,810.45c0.815,0.374,1.684,1.224,2.262,2.073l-0.442,0.271l6.12,0.034v1.273l-13.48-0.017v-1.258h6.393
				c-0.493-0.715-1.343-1.36-1.938-1.615L316.847,810.45z M323.578,818.898c-0.986-1.7-2.72-2.873-4.521-3.706l1.207-0.833
				c1.648,0.833,3.383,1.955,4.419,3.688L323.578,818.898z"/>
			<path fill="#FFFFFF" d="M336.278,823.572c0.884,0.205,1.428,0.441,2.142,0.526c0.459,0.052,0.612-0.407,0.867-1.377
				c0.271-0.985,0.425-2.006,0.561-2.957l-1.394,0.018c-0.782,2.48-3.162,4.64-5.56,5.915l-0.935-0.986
				c2.277-1.172,4.283-2.889,5.116-4.945l-1.854,0.018c-1.274,2.38-3.943,3.942-6.562,4.742l-0.852-1.055
				c2.433-0.714,4.709-1.921,5.916-3.705l-1.632,0.018c-0.918,0.695-2.107,1.376-3.313,1.802l-0.886-1.07
				c1.974-0.629,3.758-1.666,4.743-2.976h-2.091v-6.272l9.451,0.019l-0.018,6.255h-5.813c-0.356,0.544-0.73,0.918-0.833,0.97
				l7.922,0.033c-0.204,1.955-0.459,3.672-0.918,5.389c-0.119,0.459-0.391,0.918-0.833,1.174c-0.935,0.51-1.972,0-2.939-0.137
				L336.278,823.572z M338.691,813.73l0.018-1.225l-6.885-0.017v1.239h6.867V813.73z M331.824,816.297l6.867,0.019v-1.429h-6.867
				V816.297z"/>
			<path fill="#FFFFFF" d="M349.267,819.952c-0.103-1.122-0.374-1.563-0.851-2.346l-0.033,8.125h-1.225v-6.986
				c-0.425,0.985-1.104,1.955-1.869,2.907l-1.021-0.782c1.496-1.77,2.482-3.757,2.822-5.831h-2.244v-1.24h2.277v-3.281h1.259v3.281
				h1.699v1.24h-1.683v1.445l0.492-0.188c0.766,0.969,1.225,1.582,1.463,2.788l0.032-7.819h8.807v1.259h-7.496v11.084h7.887v1.258
				l-9.196-0.019v-5.523L349.267,819.952z M358.888,820.887v1.241h-6.936v-1.241h2.873v-2.346h-2.108v-1.24h2.125v-2.244h-2.72
				v-1.258h6.356v1.258h-2.396v2.244h1.988v1.24h-1.988v2.346H358.888z"/>
			<path fill="#FFFFFF" d="M291.746,841.219c-1.258,1.955-3.773,3.281-6.272,4.063c-0.255-0.357-0.492-0.681-0.765-1.156
				c2.244-0.662,4.301-1.614,5.559-3.195h-4.811v-1.274h6.323v-1.58h1.36v1.58h6.119v1.274h-4.624
				c0.222,0.271,0.748,0.646,1.241,1.037c1.326,0.867,2.72,1.547,4.42,1.972c-0.323,0.493-0.544,0.8-0.851,1.174
				c-2.499-0.73-4.98-2.058-6.272-3.943l-0.033,4.912h-1.395L291.746,841.219L291.746,841.219z M289.35,834.08
				c-0.119,2.346-1.683,4.096-3.468,5.133l-1.003-1.003c1.224-0.815,2.805-1.903,3.162-4.13h-2.313v-1.275h2.397
				c0.017-0.578,0.067-1.207,0.085-1.903h1.274c0.018,0.781-0.051,1.395-0.067,1.903h2.957c-0.017,1.429-0.067,2.652-0.187,3.943
				c-0.085,0.34-0.085,0.816-0.391,1.156c-0.612,0.867-1.803,0.578-2.703,0.51l-0.51-1.41c0.781,0.118,1.325,0.254,1.887,0.254
				c0.119-0.017,0.238-0.119,0.306-0.203c0.119-0.646,0.255-2.057,0.306-2.975H289.35L289.35,834.08z M298.682,831.869l-0.017,6.579
				h-1.275v-0.97h-2.754l-0.017,1.021h-1.292v-6.63H298.682z M294.636,833.145v3.095h2.737l0.017-3.076L294.636,833.145z"/>
			<path fill="#FFFFFF" d="M304.734,834.691h2.091v1.274h-2.073v10.013h-1.292v-9.995h-1.632v-1.292h1.614v-3.858h1.292V834.691
				L304.734,834.691z M308.882,837.514c-0.306,1.444-0.951,2.651-1.903,3.824c-0.407-0.255-0.714-0.408-1.104-0.714
				c0.901-1.14,1.547-2.229,1.888-3.62L308.882,837.514z M315.376,837.122c0.917,1.104,1.513,2.312,1.699,3.739
				c-0.408,0.222-0.714,0.323-1.173,0.545c-0.289-1.258-0.646-2.263-1.104-2.992c-0.17,2.143-0.425,4.386-0.799,6.205
				c-0.119,0.577-0.731,1.121-1.31,1.206c-0.748,0.103-1.444-0.085-2.177-0.255l-0.102-1.344c0.799,0.137,1.377,0.442,1.921,0.289
				c0.271-0.236,0.374-0.595,0.459-0.969c0.476-1.938,0.714-5.915,0.748-8.245h-2.21c-0.034,0.171-0.019,0.494-0.019,0.867
				c-0.032,1.174-0.085,2.533-0.355,3.655c-0.612,2.448-1.615,4.316-3.927,6.187l-0.936-1.02c1.599-1.24,2.754-2.787,3.297-4.487
				c0.512-1.632,0.663-3.484,0.612-5.167h-2.873v-1.309h2.873l0.018-3.23l1.259-0.018c0.066,1.021,0.017,2.754,0.017,3.248h3.553
				c0.068,1.342,0.034,2.531-0.033,3.348L315.376,837.122z"/>
			<path fill="#FFFFFF" d="M320.918,844.551l-0.714-1.003c0.341-0.136,0.596-0.493,0.596-0.884v-5.083h-1.7v-1.241h3.043v6.308
				l2.755-1.344v1.36L320.918,844.551z M322.602,835.746c-0.596-0.953-1.717-2.059-2.651-2.584l0.766-0.918
				c1.054,0.51,2.143,1.479,2.805,2.447L322.602,835.746z M333.276,846.199c-1.938-0.799-3.688-1.818-5.05-3.246
				c-0.984,1.479-3.468,2.702-5.474,3.213l-0.765-1.207c2.125-0.629,3.893-1.344,5.338-3.01c-1.819-2.228-2.669-5.048-3.35-7.988
				l1.155-0.51c0.697,3.076,1.513,5.847,3.009,7.445c1.496-2.007,2.092-4.607,2.636-7.345l1.139,0.341
				c-0.51,2.905-1.258,5.711-2.906,8.006c1.14,1.139,3.025,2.396,5.201,3.213L333.276,846.199z M327.089,831.513
				c0.884,0.682,1.802,1.803,2.143,3.043l-1.055,0.766c-0.408-1.14-1.155-2.295-2.176-3.162L327.089,831.513z"/>
			<path fill="#FFFFFF" d="M336.831,846.131h-0.918l4.369-7.683l-4.369-7.718h0.969l4.301,7.718L336.831,846.131z M339.092,846.131
				h-0.918l4.403-7.683l-4.353-7.718h0.918l4.402,7.718L339.092,846.131z"/>
		</g>
	</g>
</g>
</svg>
