<?xml version="1.0" encoding="utf-8"?>
<!-- Generator: Adobe Illustrator 16.0.0, SVG Export Plug-In . SVG Version: 6.00 Build 0)  -->
<!DOCTYPE svg PUBLIC "-//W3C//DTD SVG 1.1//EN" "http://www.w3.org/Graphics/SVG/1.1/DTD/svg11.dtd">
<svg version="1.1" id="Layer_1" xmlns="http://www.w3.org/2000/svg" xmlns:xlink="http://www.w3.org/1999/xlink" x="0px" y="0px"
	 width="768px" height="1024px" viewBox="0 0 768 1024" enable-background="new 0 0 768 1024" xml:space="preserve">
<rect x="387.127" y="781.712" opacity="0.2" fill="#FFFFFF" enable-background="new    " width="122.648" height="71.355"/>
<g>
	<g>
		<path fill="#FFFFFF" d="M408.399,795.574l0.018,1.241l-4.08-0.018v1.529l3.553,0.018l-0.017,3.756
			c-0.052,0.493-0.392,0.867-0.884,1.071c-0.493,0.204-0.952,0.119-1.717,0.119l-0.427-1.274l1.396,0.067
			c0.204-0.052,0.306-0.119,0.34-0.289l0.017-2.261h-2.261v5.778h-1.325v-5.778h-2.159v3.927h-1.274v-5.134h3.417l0.018-1.529
			l-4.402,0.018v-1.225l4.402,0.018v-1.784l-1.921-0.019c-0.289,0.493-0.611,1.122-1.122,1.718l-1.139-0.681
			c1.088-1.225,1.563-2.565,1.972-4.097c0.459,0.119,0.766,0.289,1.122,0.442c-0.067,0.61-0.271,1.139-0.356,1.428h1.428
			l0.018-2.669h1.274v2.669h3.213v1.188h-3.179v1.785L408.399,795.574z M408.927,801.745v-9.57h1.274v9.57H408.927z
			 M412.836,790.066v13.53c0,0.748-0.102,0.952-0.476,1.359c-0.663,0.442-1.854,0.222-2.703,0.289
			c-0.204-0.424-0.255-0.799-0.441-1.31c0.781,0.068,1.377,0.153,1.954,0.103c0.188-0.084,0.357-0.271,0.357-0.492l0.017-13.479
			H412.836z"/>
		<path fill="#FFFFFF" d="M426.045,804.38c-1.818,0.17-4.521-0.136-6.153-1.326c-0.459-0.34-0.899-0.765-1.188-0.969
			c-0.477,1.122-1.445,2.243-2.602,3.212c-0.425-0.34-0.646-0.68-1.054-1.07c1.377-0.833,2.38-2.106,2.736-3.483
			c0.238-0.9,0.289-1.904,0.323-3.009h1.324c-0.017,0.918-0.136,2.191-0.287,3.009c0.661,0.765,2.021,1.853,3.041,2.057l0.034-6.408
			h-4.352l0.034-1.225l9.943-0.033v1.258l-4.352,0.019l-0.052,2.516l5.304-0.018v1.24l-5.252,0.018v2.854l2.176,0.068h4.878
			l-0.663,1.292L426.045,804.38L426.045,804.38z M421.796,789.813c0.936,0.492,1.938,1.343,2.447,1.854l-0.407,0.271l5.847,0.033
			l-0.017,3.383h-1.309l0.033-2.091l-10.946-0.034v2.023h-1.31l0.018-3.281h6.562c-0.425-0.425-1.122-1.02-2.074-1.496
			L421.796,789.813z"/>
		<path fill="#FFFFFF" d="M444.371,805.332l-4.453-7.684l4.402-7.718h0.918l-4.353,7.718l4.402,7.684H444.371z M446.632,805.332
			l-4.352-7.684l4.301-7.718h0.969l-4.368,7.718l4.368,7.684H446.632z"/>
		<path fill="#FFFFFF" d="M449.592,804.363v-1.242h4.964v-12.544h1.326v12.544h1.972v-12.544h1.274v12.544h4.93v1.242H449.592z
			 M452.261,801.389c-0.085-2.313-0.867-4.676-1.717-6.596l1.104-0.527c0.866,1.904,1.666,4.283,1.903,6.563L452.261,801.389z
			 M460.879,801.592l-1.088-0.662c1.173-1.547,1.988-4.59,2.107-6.63l1.173,0.425C462.731,797.394,462.001,799.857,460.879,801.592z
			"/>
		<path fill="#FFFFFF" d="M480.955,798.617c-2.447-0.527-4.759-1.189-6.765-2.38c-1.938,1.292-4.947,2.159-7.564,2.566l-0.527-1.225
			c2.04-0.34,3.825-0.799,5.575-1.445c0.459-0.221,1.003-0.492,1.344-0.68c-0.73-0.562-1.699-1.139-2.295-1.954
			c-0.748,0.884-1.836,1.802-3.11,2.313l-0.97-1.174c2.618-0.969,3.876-2.48,4.676-4.572l1.122,0.629
			c-0.188,0.426-0.357,0.73-0.408,0.834h6.374v1.139c-1.003,1.24-2.022,2.039-3.076,2.805c0.221,0.17,0.748,0.341,1.224,0.578
			c1.599,0.596,3.28,1.055,5.235,1.429L480.955,798.617z M478.287,804.091c-0.171,0.526-0.612,0.985-1.105,1.122
			c-0.748,0.221-1.513-0.018-2.295-0.137l-0.321-1.479c0.899,0.255,1.547,0.511,2.242,0.408c0.393-0.256,0.426-0.729,0.511-1.225
			c0.152-0.918,0.34-2.09,0.374-2.636h-3.671c-0.272,1.464-1.411,2.856-2.788,3.759c-1.021,0.68-2.855,1.223-3.961,1.428
			c-0.237-0.426-0.46-0.766-0.681-1.275c2.159-0.34,4.165-0.85,5.456-2.55c0.357-0.459,0.544-0.969,0.646-1.359h-4.861v-1.24h5.065
			c0.051-0.408,0-0.714,0.051-1.479l1.258,0.17c-0.017,0.646,0.034,0.936-0.017,1.31h4.826
			C478.983,800.793,478.779,802.527,478.287,804.091z M471.606,792.77c0.68,0.816,1.598,1.36,2.55,1.974
			c0.918-0.596,1.836-1.293,2.48-1.974H471.606z"/>
		<path fill="#FFFFFF" d="M486.328,793.892h2.091v1.274h-2.073v10.013h-1.292v-9.995h-1.632v-1.292h1.614v-3.857h1.292V793.892
			L486.328,793.892z M490.476,796.713c-0.306,1.445-0.95,2.652-1.902,3.825c-0.408-0.255-0.714-0.408-1.105-0.714
			c0.901-1.139,1.547-2.228,1.888-3.621L490.476,796.713z M496.969,796.322c0.918,1.104,1.515,2.313,1.7,3.74
			c-0.408,0.221-0.714,0.321-1.173,0.543c-0.289-1.259-0.646-2.261-1.104-2.991c-0.17,2.142-0.425,4.386-0.799,6.204
			c-0.119,0.578-0.73,1.122-1.31,1.207c-0.748,0.102-1.444-0.086-2.176-0.256l-0.103-1.343c0.799,0.138,1.377,0.441,1.921,0.289
			c0.271-0.238,0.374-0.596,0.459-0.969c0.477-1.938,0.714-5.916,0.748-8.244h-2.21c-0.034,0.17-0.018,0.492-0.018,0.867
			c-0.033,1.172-0.085,2.532-0.356,3.653c-0.611,2.447-1.615,4.317-3.927,6.188l-0.935-1.021c1.598-1.241,2.753-2.788,3.298-4.487
			c0.51-1.632,0.662-3.484,0.61-5.168h-2.873v-1.31h2.873l0.019-3.229l1.258-0.018c0.067,1.021,0.017,2.754,0.017,3.246h3.554
			c0.067,1.344,0.033,2.533-0.034,3.351L496.969,796.322z"/>
		<path fill="#FFFFFF" d="M408.383,824.015c0.815,0,2.006-0.051,2.261-0.136c0.171-0.086,0.289-0.441,0.289-0.766l0.018-10.674
			l-10.301-0.019v13.412h-1.344v-14.67h12.986l0.018,12.222c0,0.782-0.307,1.581-0.766,1.819c-0.459,0.17-2.142,0.237-2.702,0.203
			L408.383,824.015z M410.405,814.274l0.018,1.259h-8.976l0.018-1.259H410.405z M409.028,817.368v5.134h-6.459v-5.117
			L409.028,817.368z M403.861,821.244h3.893v-2.603l-3.893,0.019V821.244z"/>
		<path fill="#FFFFFF" d="M415.966,822.383h6.188v-8.396l-5.286,0.032v-1.309h12.018v1.275h-5.286v8.414l6.204-0.019v1.275h-13.836
			L415.966,822.383L415.966,822.383z"/>
		<path fill="#FFFFFF" d="M435.005,816.535c-0.44,0.766-1.054,1.7-1.785,2.481l-1.188-0.68c2.159-2.363,3.45-5.016,4.352-7.922
			l1.156,0.527c-0.357,1.054-0.816,2.43-1.258,3.331l0.033,11.439h-1.31V816.535z M446.938,816.688v1.259h-5.489l0.018,2.124
			l5.796-0.017l0.034,1.206h-5.813l-0.018,4.42h-1.326v-10.964l-0.237-0.018c-0.629,1.241-1.395,2.533-2.347,3.809l-1.173-0.629
			c1.684-2.176,3.043-4.521,3.553-7.718l1.274,0.459c-0.152,1.003-0.544,2.176-0.799,2.854h7.208v1.241l-6.188,0.018v1.972
			L446.938,816.688z"/>
		<path fill="#FFFFFF" d="M458.108,820.088c-0.544,1.564-1.938,3.195-3.52,4.012c-1.31,0.663-2.465,1.122-3.927,1.429l-0.969-1.156
			c3.009-0.476,5.847-1.682,7.02-4.283h-7.02v-1.24h7.41c0.171-0.493,0.289-1.582,0.289-2.313v-2.346h1.274
			c0,2.261,0.051,3.229-0.238,4.657h5.679v1.24H458.108z M462.545,815.227v-1.563h-11.271v1.563h-1.291v-2.805h6.814
			c-0.271-0.459-1.02-1.088-1.58-1.395l0.97-0.611c0.61,0.322,1.428,1.02,1.802,1.751l-0.544,0.221l6.392,0.034v2.805H462.545
			L462.545,815.227z M454.028,818.745c-0.578-0.936-1.41-1.751-2.413-2.38l0.832-0.766c0.97,0.544,1.903,1.395,2.517,2.381
			L454.028,818.745z M455.729,817.113c-0.562-1.021-1.343-1.785-2.346-2.465l0.867-0.73c1.002,0.578,1.903,1.496,2.498,2.498
			L455.729,817.113z M463.36,825.596c-1.614-1.803-3.314-2.754-5.439-3.706l0.663-0.952c1.7,0.63,4.216,2.144,5.66,3.655
			L463.36,825.596z"/>
		<path fill="#FFFFFF" d="M468.581,823.861c1.647,0.459,1.632,0.237,1.835-0.748c0.256-1.24,0.357-2.976,0.442-4.623h-1.445
			c0,2.465-0.544,5.049-1.954,7.293l-1.071-0.885c1.326-1.973,1.717-4.268,1.717-6.646v-3.434h-1.224l-0.018-1.24h5.508v1.24h-2.991
			v2.432h2.787c-0.067,2.396-0.221,4.742-0.696,6.884c-0.137,0.629-0.459,0.918-0.833,1.088c-0.578,0.272-1.258,0.034-1.903-0.033
			L468.581,823.861z M469.771,813.492c-0.374-0.985-1.156-1.683-2.092-2.312l1.003-0.681c0.936,0.563,1.7,1.258,2.143,2.278
			L469.771,813.492z M475.38,810.841c-0.067,0.595-0.238,1.104-0.34,1.395h6.153v1.24l-6.597,0.018
			c-0.51,1.189-1.207,2.533-2.431,3.434l-0.985-0.814c1.31-0.866,2.517-3.025,3.042-5.677L475.38,810.841z M481.533,822.23
			c-0.136,0.814-0.307,1.547-0.714,2.157c-0.289,0.441-0.782,0.663-1.292,0.663l-4.623-0.017c-0.731,0-1.429-0.459-1.429-1.412
			v-4.674l-0.985,0.255l-0.289-1.207l1.258-0.272v-1.801h1.292v1.479l1.462-0.308v-2.957l1.274-0.018v2.686l3.213-0.713
			c-0.103,1.818-0.307,3.467-0.681,5.049c-0.085,0.356-0.425,0.815-0.799,0.919c-0.477,0.117-0.969,0-1.462-0.053l-0.204-1.325
			c0.544,0.067,0.851,0.271,1.122,0.103c0.222-0.153,0.152-0.478,0.271-0.748c0.17-0.816,0.271-1.684,0.374-2.363l-1.836,0.375
			v4.708h-1.291v-4.386l-1.445,0.323v4.571c0,0.307,0.153,0.545,0.493,0.545h4.146c0.323,0,0.526-0.203,0.612-0.492
			c0.17-0.426,0.237-0.885,0.322-1.564L481.533,822.23z"/>
		<path fill="#FFFFFF" d="M496.204,817.25c-0.051,2.227-0.271,4.742-0.9,6.697c-0.188,0.594-0.714,1.104-1.343,1.206
			c-0.511,0.171-2.363-0.255-3.434-0.526l-0.256-1.514c1.07,0.392,1.954,0.629,2.855,0.799c0.425,0.068,0.73-0.051,0.918-0.561
			c0.407-1.58,0.611-3.229,0.662-4.827h-4.997c-0.493,2.261-1.088,5.523-5.389,7.173l-0.885-1.225
			c3.399-1.224,4.657-3.365,4.98-6.681c0.103-1.054,0.103-2.362,0.103-3.467h-4.25v-1.258h6.971c-0.341-0.748-1.173-1.6-2.313-2.159
			l1.207-0.731c0.833,0.511,2.058,1.479,2.533,2.566l-0.425,0.289l6.221,0.035v1.258l-8.55,0.017c0,0.901-0.051,2.04-0.104,2.923
			L496.204,817.25z"/>
		<path fill="#FFFFFF" d="M447.057,845.265c-3.024-0.748-4.623-1.411-6.289-3.229v4.028h-1.377v-4.028
			c-1.513,1.699-3.568,2.516-6.237,3.313l-0.681-1.155c2.192-0.477,4.113-1.121,5.371-2.347h-4.726v-1.239h6.271l0.018-1.14
			l1.343-0.018l0.018,1.173h6.17v1.224h-4.741c1.24,1.037,2.905,1.818,5.575,2.295L447.057,845.265z M445.85,840.165
			c-1.768-0.612-3.449-1.155-5.167-1.581c-1.666,0.714-3.893,1.344-6.866,1.632l-0.682-1.224c2.193-0.103,4.08-0.408,5.491-0.867
			c-1.173-0.221-2.091-0.34-3.688-0.492c0.765-0.681,1.324-1.123,1.613-1.445h-3.519l0.017-1.225l4.675-0.017
			c0.478-0.477,0.8-0.936,1.275-1.479l1.258,0.442l-0.833,1.036h7.513v1.24h-2.754c-0.61,0.681-1.409,1.207-1.953,1.548
			c1.224,0.321,2.72,0.765,4.301,1.358L445.85,840.165z M439.271,830.578c0.492,0.373,1.206,1.07,1.563,1.615l5.78-0.019v2.432
			h-1.292l0.017-1.19h-10.675v1.293l-1.292-0.018v-2.517l5.779,0.019c-0.119-0.138-0.511-0.459-1.104-0.748L439.271,830.578z
			 M437.571,836.799c1.189,0.119,2.192,0.323,3.025,0.51c0.714-0.355,1.292-0.729,1.718-1.12h-4.063L437.571,836.799z"/>
		<path fill="#FFFFFF" d="M450.22,846.131h-0.918l4.369-7.683l-4.369-7.718h0.97l4.301,7.718L450.22,846.131z M452.48,846.131
			h-0.918l4.402-7.683l-4.352-7.718h0.917l4.402,7.718L452.48,846.131z"/>
	</g>
</g>
</svg>
