<?xml version="1.0" encoding="utf-8"?>
<!-- Generator: Adobe Illustrator 16.0.0, SVG Export Plug-In . SVG Version: 6.00 Build 0)  -->
<!DOCTYPE svg PUBLIC "-//W3C//DTD SVG 1.1//EN" "http://www.w3.org/Graphics/SVG/1.1/DTD/svg11.dtd">
<svg version="1.1" id="Layer_1" xmlns="http://www.w3.org/2000/svg" xmlns:xlink="http://www.w3.org/1999/xlink" x="0px" y="0px"
	 width="768px" height="1024px" viewBox="0 0 768 1024" enable-background="new 0 0 768 1024" xml:space="preserve">
<rect x="517.464" y="781.712" opacity="0.2" fill="#FFFFFF" enable-background="new    " width="122.652" height="71.355"/>
<g>
	<g>
		<path fill="#FFFFFF" d="M547.629,795.574l0.019,1.241l-4.08-0.018v1.529l3.553,0.018l-0.018,3.756
			c-0.052,0.493-0.392,0.867-0.884,1.071c-0.493,0.204-0.952,0.119-1.717,0.119l-0.426-1.274l1.395,0.067
			c0.204-0.052,0.307-0.119,0.34-0.289l0.018-2.261h-2.261v5.778h-1.325v-5.778h-2.159v3.927h-1.275v-5.134h3.417l0.019-1.529
			l-4.403,0.018v-1.225l4.403,0.018v-1.784l-1.921-0.019c-0.289,0.493-0.612,1.122-1.122,1.718l-1.14-0.681
			c1.089-1.225,1.563-2.565,1.973-4.097c0.459,0.119,0.765,0.289,1.122,0.442c-0.068,0.61-0.272,1.139-0.357,1.428h1.428
			l0.019-2.669h1.273v2.669h3.214v1.188h-3.18v1.785L547.629,795.574z M548.156,801.745v-9.57h1.273v9.57H548.156z M552.065,790.066
			v13.53c0,0.748-0.103,0.952-0.477,1.359c-0.663,0.442-1.853,0.222-2.703,0.289c-0.204-0.424-0.255-0.799-0.44-1.31
			c0.78,0.068,1.377,0.153,1.954,0.103c0.188-0.084,0.356-0.271,0.356-0.492l0.018-13.479H552.065z"/>
		<path fill="#FFFFFF" d="M565.274,804.38c-1.818,0.17-4.521-0.136-6.153-1.326c-0.459-0.34-0.9-0.765-1.189-0.969
			c-0.476,1.122-1.444,2.243-2.601,3.212c-0.425-0.34-0.646-0.68-1.054-1.07c1.377-0.833,2.38-2.106,2.735-3.483
			c0.238-0.9,0.289-1.904,0.323-3.009h1.325c-0.018,0.918-0.136,2.191-0.288,3.009c0.662,0.765,2.021,1.853,3.042,2.057l0.034-6.408
			h-4.353l0.034-1.225l9.944-0.033v1.258l-4.353,0.019l-0.052,2.516l5.304-0.018v1.24l-5.252,0.018v2.854l2.177,0.068h4.878
			l-0.663,1.292L565.274,804.38L565.274,804.38z M561.025,789.813c0.935,0.492,1.938,1.343,2.446,1.854l-0.406,0.271l5.847,0.033
			l-0.018,3.383h-1.309l0.034-2.091l-10.947-0.034v2.023h-1.309l0.017-3.281h6.563c-0.426-0.425-1.122-1.02-2.074-1.496
			L561.025,789.813z"/>
		<path fill="#FFFFFF" d="M583.601,805.332l-4.452-7.684l4.401-7.718h0.918l-4.352,7.718l4.401,7.684H583.601z M585.861,805.332
			l-4.353-7.684l4.302-7.718h0.969l-4.368,7.718l4.368,7.684H585.861z"/>
		<path fill="#FFFFFF" d="M588.821,804.363v-1.242h4.964v-12.544h1.326v12.544h1.972v-12.544h1.274v12.544h4.93v1.242H588.821z
			 M591.49,801.389c-0.085-2.313-0.867-4.676-1.717-6.596l1.104-0.527c0.867,1.904,1.666,4.283,1.904,6.563L591.49,801.389z
			 M600.108,801.592l-1.089-0.662c1.174-1.547,1.988-4.59,2.107-6.63l1.173,0.425C601.961,797.394,601.23,799.857,600.108,801.592z"
			/>
		<path fill="#FFFFFF" d="M620.185,798.617c-2.446-0.527-4.759-1.189-6.765-2.38c-1.938,1.292-4.947,2.159-7.564,2.566l-0.526-1.225
			c2.04-0.34,3.825-0.799,5.575-1.445c0.459-0.221,1.003-0.492,1.344-0.68c-0.731-0.562-1.7-1.139-2.295-1.954
			c-0.748,0.884-1.836,1.802-3.111,2.313l-0.969-1.174c2.618-0.969,3.876-2.48,4.675-4.572l1.122,0.629
			c-0.188,0.426-0.357,0.73-0.408,0.834h6.374v1.139c-1.003,1.24-2.021,2.039-3.076,2.805c0.222,0.17,0.748,0.341,1.225,0.578
			c1.598,0.596,3.28,1.055,5.234,1.429L620.185,798.617z M617.517,804.091c-0.171,0.526-0.611,0.985-1.104,1.122
			c-0.748,0.221-1.513-0.018-2.295-0.137l-0.322-1.479c0.9,0.255,1.547,0.511,2.243,0.408c0.392-0.256,0.425-0.729,0.51-1.225
			c0.153-0.918,0.34-2.09,0.374-2.636h-3.671c-0.271,1.464-1.411,2.856-2.788,3.759c-1.02,0.68-2.854,1.223-3.961,1.428
			c-0.237-0.426-0.459-0.766-0.68-1.275c2.159-0.34,4.165-0.85,5.456-2.55c0.356-0.459,0.544-0.969,0.646-1.359h-4.861v-1.24h5.065
			c0.051-0.408,0-0.714,0.051-1.479l1.259,0.17c-0.018,0.646,0.033,0.936-0.018,1.31h4.827
			C618.213,800.793,618.009,802.527,617.517,804.091z M610.836,792.77c0.68,0.816,1.598,1.36,2.55,1.974
			c0.918-0.596,1.836-1.293,2.481-1.974H610.836z"/>
		<path fill="#FFFFFF" d="M540.303,814.291h2.091v1.275h-2.072v10.012h-1.292v-9.994h-1.633v-1.293h1.614v-3.857h1.292V814.291z
			 M544.45,817.113c-0.307,1.444-0.951,2.651-1.903,3.823c-0.408-0.254-0.714-0.407-1.104-0.713c0.9-1.14,1.547-2.228,1.888-3.621
			L544.45,817.113z M550.944,816.723c0.917,1.104,1.513,2.313,1.698,3.739c-0.407,0.222-0.714,0.323-1.173,0.544
			c-0.289-1.258-0.646-2.261-1.104-2.992c-0.17,2.144-0.425,4.388-0.799,6.205c-0.119,0.578-0.731,1.121-1.311,1.207
			c-0.748,0.103-1.444-0.086-2.176-0.256l-0.103-1.342c0.8,0.136,1.377,0.441,1.922,0.289c0.271-0.238,0.374-0.596,0.459-0.969
			c0.476-1.938,0.714-5.916,0.748-8.244h-2.211c-0.033,0.17-0.018,0.492-0.018,0.866c-0.033,1.173-0.085,2.531-0.356,3.654
			c-0.611,2.447-1.614,4.316-3.927,6.188l-0.935-1.021c1.598-1.24,2.754-2.788,3.297-4.486c0.511-1.634,0.663-3.484,0.612-5.168
			h-2.873v-1.31h2.873l0.018-3.229l1.258-0.018c0.067,1.021,0.018,2.754,0.018,3.247h3.553c0.068,1.343,0.034,2.533-0.034,3.349
			L550.944,816.723z"/>
		<path fill="#FFFFFF" d="M564.663,824.015c0.815,0,2.006-0.051,2.261-0.136c0.17-0.086,0.289-0.441,0.289-0.766l0.018-10.674
			l-10.302-0.019v13.412h-1.343v-14.67h12.986l0.018,12.222c0,0.782-0.307,1.581-0.766,1.819c-0.459,0.17-2.143,0.237-2.702,0.203
			L564.663,824.015z M566.686,814.274l0.019,1.259h-8.977l0.019-1.259H566.686z M565.309,817.368v5.134h-6.459v-5.117
			L565.309,817.368z M560.142,821.244h3.894v-2.603l-3.894,0.019V821.244z"/>
		<path fill="#FFFFFF" d="M572.246,822.383h6.187v-8.396l-5.286,0.032v-1.309h12.019v1.275h-5.286v8.414l6.204-0.019v1.275h-13.836
			L572.246,822.383L572.246,822.383z"/>
		<path fill="#FFFFFF" d="M591.286,816.535c-0.441,0.766-1.054,1.7-1.785,2.481l-1.188-0.68c2.158-2.363,3.45-5.016,4.352-7.922
			l1.156,0.527c-0.357,1.054-0.816,2.43-1.258,3.331l0.032,11.439h-1.309V816.535z M603.219,816.688v1.259h-5.49l0.018,2.124
			l5.797-0.017l0.034,1.206h-5.813l-0.018,4.42h-1.325v-10.964l-0.238-0.018c-0.629,1.241-1.394,2.533-2.346,3.809l-1.173-0.629
			c1.683-2.176,3.043-4.521,3.553-7.718l1.274,0.459c-0.152,1.003-0.544,2.176-0.799,2.854h7.208v1.241l-6.188,0.018v1.972
			L603.219,816.688z"/>
		<path fill="#FFFFFF" d="M605.601,819.426c2.143-1.225,3.843-3.129,5.235-5.117l1.037,0.697c-0.477,0.867-1.445,2.006-2.074,2.771
			v7.836h-1.309v-6.493c-0.289,0.271-1.241,0.9-1.888,1.359L605.601,819.426z M605.821,814.75c1.784-1.24,3.162-2.77,4.301-4.555
			l1.003,0.78c-1.139,1.718-2.55,3.521-4.165,4.658L605.821,814.75z M613.606,824.219c0.866,0.068,1.614,0.068,2.346,0.051
			c0.188-0.051,0.374-0.17,0.374-0.407v-6.97h-4.353v-1.258l8.755,0.018v1.24l-3.025,0.018l-0.018,7.104
			c0,0.596-0.307,1.037-0.73,1.292c-0.459,0.256-2.073,0.238-2.94,0.203L613.606,824.219z M619.692,812.779h-7.311l-0.018-1.258
			l7.327-0.019L619.692,812.779L619.692,812.779z"/>
		<path fill="#FFFFFF" d="M556.198,842.545h5.218l0.034-0.986l-6.852-0.017v-1.156l6.852-0.034v-0.85l-5.271-0.018l0.019-1.155
			l5.252-0.034v-0.714l-4.845-0.034l-0.018-3.365h4.845l0.018-0.748l-6.748,0.019v-1.19h6.73l-0.018-1.343h1.36l-0.019,1.343h6.782
			l0.018,1.173h-6.8l0.019,0.781l4.793-0.033v3.399h-4.793v0.748l5.389-0.018v2.039h1.547l0.018,1.207l-1.599-0.017v2.191
			l-5.372-0.017c0,0.646,0.17,1.733-0.595,2.073c-0.799,0.375-1.903,0.221-2.855,0.271c-0.203-0.425-0.271-0.799-0.492-1.31
			c0.9,0.067,1.632,0.137,2.329,0.067c0.391-0.051,0.255-0.459,0.271-1.088h-5.201L556.198,842.545z M557.847,836.391l3.554-0.016
			l0.017-1.004l-3.569,0.018L557.847,836.391L557.847,836.391z M566.821,840.369v-0.885l-4.097,0.018v0.884L566.821,840.369z
			 M566.788,842.545l0.017-1.02l-4.078-0.019l0.032,1.037L566.788,842.545L566.788,842.545z M566.277,836.426v-1.055h-3.501v1.037
			L566.277,836.426z"/>
		<path fill="#FFFFFF" d="M586.116,831.615v1.224H574.54v6.595c0,2.313-0.781,5.083-2.107,6.494l-1.139-0.815
			c1.274-1.395,1.955-3.724,1.955-5.49l0.017-8.006L586.116,831.615L586.116,831.615z M580.133,836.936
			c-0.102,0.951-0.255,2.007-0.391,2.771c-0.459,2.635-1.887,5.064-3.791,6.188l-1.104-1.003c1.869-1.24,2.94-2.565,3.569-5.219
			c0.204-0.815,0.306-2.176,0.374-2.771h-3.688v-1.241h3.809l0.102-2.328l1.258,0.152c-0.032,0.766-0.032,1.633-0.066,2.176
			l4.979,0.018c-0.152,3.162-0.544,7.31-1.021,8.924c-0.203,0.697-0.646,0.986-1.104,1.089c-0.765,0.17-1.529-0.034-2.346-0.103
			l-0.289-1.36c0.799,0.171,1.496,0.272,2.057,0.256c0.272-0.033,0.426-0.289,0.493-0.562c0.408-1.462,0.681-4.896,0.815-7.004
			L580.133,836.936z"/>
		<path fill="#FFFFFF" d="M589.449,846.131h-0.918l4.369-7.683l-4.369-7.718h0.969l4.301,7.718L589.449,846.131z M591.71,846.131
			h-0.918l4.403-7.683l-4.353-7.718h0.917l4.403,7.718L591.71,846.131z"/>
	</g>
</g>
</svg>
