<?xml version="1.0" encoding="utf-8"?>
<!-- Generator: Adobe Illustrator 16.0.0, SVG Export Plug-In . SVG Version: 6.00 Build 0)  -->
<!DOCTYPE svg PUBLIC "-//W3C//DTD SVG 1.1//EN" "http://www.w3.org/Graphics/SVG/1.1/DTD/svg11.dtd">
<svg version="1.1" id="Layer_1" xmlns="http://www.w3.org/2000/svg" xmlns:xlink="http://www.w3.org/1999/xlink" x="0px" y="0px"
	 width="768px" height="1024px" viewBox="0 0 768 1024" enable-background="new 0 0 768 1024" xml:space="preserve">
<rect x="140.671" y="121.42" opacity="0.698" fill-rule="evenodd" clip-rule="evenodd" fill="#58B5E1" width="162.219" height="162.22"/>
<g>
	<g>
		<path fill="#FFFFFF" d="M166.973,175.766h-4.97v-15.892h-6.161v-3.746c3.465,0.07,6.65-1.12,7.176-4.865h3.955V175.766z"/>
	</g>
</g>
<g>
	<path fill="#FFFFFF" d="M156.135,206.004v-9.748h7.194l-0.021-4.027h1.76l-0.044,4.005l7.173,0.022v9.659h-1.738v-1.496h-5.435
		l0.044,7.415h-1.738l-0.021-7.415h-5.391l-0.044,1.584H156.135z M163.308,197.863h-5.435v4.973h5.456L163.308,197.863z
		 M170.414,197.863h-5.347v4.951h5.369L170.414,197.863z"/>
	<path fill="#FFFFFF" d="M192.568,211.703v-1.541h-13.399v1.541h-1.673v-18.659h16.635v18.659H192.568z M192.568,194.65h-13.399
		v13.994h13.399V194.65z M179.608,207.06v-1.518h5.325v-3.74h-4.379v-1.519h4.379v-2.794h-5.127v-1.518h11.991v1.518h-5.303v2.794
		h4.6v1.519h-4.6v3.74h5.523v1.518H179.608z M189.972,205.388c-0.857-1.122-1.628-1.893-2.728-2.53l1.078-0.858
		c0.924,0.55,2.112,1.408,2.816,2.552L189.972,205.388z"/>
	<path fill="#FFFFFF" d="M209.354,192.67c0.022,2.486-0.088,4.73-0.33,6.953c-0.065,0.528,0.132,0.726,0.265,1.034
		c1.782,4.401,4.136,7.415,8.713,9.374l-1.276,1.43c-4.07-2.112-6.557-4.511-8.427-8.867c-0.858,2.53-3.917,6.491-8.163,8.801
		l-1.32-1.298c1.54-0.924,2.816-1.848,4.004-2.992c1.452-1.364,2.509-2.508,3.609-4.797c1.275-2.596,1.122-6.447,1.166-9.637
		H209.354z"/>
	<path fill="#FFFFFF" d="M221.166,210.537c0.99-0.462,1.276-1.056,1.276-1.826v-15.578h14.984v6.051h-6.602
		c0,0.88,0.11,1.915,0.286,2.729l7.943-0.022v1.628h-7.525c0.639,2.663,3.521,5.457,5.963,6.117c0.221,0,0.265-0.154,0.353-0.44
		c0.132-0.814,0.198-1.431,0.154-2.905l1.804,0.77c-0.065,0.946-0.198,1.761-0.33,2.597c-0.132,0.748-0.242,1.408-0.924,1.738
		c-1.013,0.484-1.98-0.154-2.816-0.44c-2.948-1.453-5.303-4.445-6.029-7.438l-5.522,0.022v5.633l5.677-2.002v1.804
		c-2.046,0.704-5.413,1.936-7.239,2.685L221.166,210.537z M224.225,199.205l-0.021,2.707h5.104c-0.154-0.792-0.198-1.87-0.242-2.729
		L224.225,199.205z M224.225,194.783v2.772h11.397v-2.794L224.225,194.783z"/>
	<path fill="#FFFFFF" d="M247.611,204.046v4.797l2.684-1.32v1.694l-3.718,1.958l-0.969-1.54c0.198-0.242,0.286-0.506,0.286-1.1
		v-4.489h-3.103v-1.606h3.103v-2.288h-0.99c-0.483,0.66-0.968,1.1-1.826,1.848l-1.232-1.32c2.003-1.628,3.411-4.643,3.653-8.339
		l1.584,0.418c0.065,1.188-0.11,2.31-0.198,2.508h3.322v1.606h-3.719c-0.197,0.616-0.483,1.232-0.682,1.672h4.181v1.606h-2.376
		v2.288h2.75v1.606H247.611z M261.011,211.615c-1.298-0.33-2.376-1.012-3.322-1.804c-1.87-1.914-2.839-4.422-3.036-6.887h-1.827
		v6.755l3.323-1.122v1.65l-4.467,1.628l-0.836-1.54c0.241-0.242,0.264-0.484,0.264-0.946v-16.106h8.229v9.682h-3.103
		c0.088,1.012,0.418,2.288,0.813,3.058c0.925-0.462,1.761-1.342,2.597-2.64l1.276,1.012c-0.946,1.386-2.091,2.332-3.19,2.948
		c0.771,1.342,2.486,2.354,4.444,2.86L261.011,211.615z M257.688,194.849h-4.863v2.398h4.863V194.849z M257.688,198.765h-4.863
		v2.552h4.863V198.765z"/>
	<path fill="#FFFFFF" d="M264.374,203.76c2.772-1.584,4.973-4.048,6.777-6.623l1.342,0.902c-0.616,1.122-1.87,2.596-2.685,3.586
		v10.144h-1.694v-8.405c-0.374,0.352-1.605,1.166-2.442,1.76L264.374,203.76z M264.66,197.709c2.311-1.606,4.093-3.586,5.566-5.897
		l1.299,1.012c-1.475,2.222-3.301,4.555-5.391,6.029L264.66,197.709z M274.737,209.965c1.122,0.088,2.091,0.088,3.037,0.066
		c0.241-0.066,0.483-0.22,0.483-0.528v-9.021h-5.633v-1.628l11.332,0.022v1.606l-3.917,0.022l-0.021,9.197
		c0,0.77-0.396,1.342-0.946,1.672c-0.594,0.33-2.685,0.308-3.807,0.264L274.737,209.965z M282.614,195.157h-9.461l-0.021-1.628
		l9.482-0.022V195.157z"/>
</g>
<g>
	<path fill="#FFFFFF" d="M158.164,240.777v3.706l2.074-1.02v1.309l-2.873,1.513l-0.748-1.189c0.153-0.187,0.222-0.391,0.222-0.85
		v-3.468h-2.397v-1.241h2.397v-1.768h-0.766c-0.373,0.51-0.747,0.85-1.41,1.428l-0.952-1.02c1.547-1.258,2.635-3.587,2.821-6.442
		l1.225,0.323c0.051,0.918-0.085,1.785-0.153,1.938h2.566v1.241h-2.872c-0.153,0.476-0.374,0.952-0.527,1.292H160v1.241h-1.836
		v1.768h2.125v1.241H158.164z M168.517,246.625c-1.003-0.255-1.836-0.782-2.567-1.394c-1.444-1.479-2.192-3.417-2.346-5.32h-1.41
		v5.218l2.566-0.867v1.275l-3.45,1.258l-0.646-1.19c0.188-0.187,0.204-0.374,0.204-0.731v-12.443h6.357v7.479h-2.396
		c0.067,0.782,0.322,1.768,0.629,2.363c0.714-0.357,1.359-1.037,2.006-2.04l0.985,0.782c-0.73,1.071-1.614,1.802-2.465,2.277
		c0.596,1.037,1.921,1.819,3.434,2.21L168.517,246.625z M165.949,233.672h-3.756v1.853h3.756V233.672z M165.949,236.697h-3.756
		v1.972h3.756V236.697z"/>
	<path fill="#FFFFFF" d="M171.119,240.556c2.142-1.224,3.842-3.128,5.235-5.117l1.037,0.697c-0.477,0.867-1.445,2.006-2.074,2.771
		v7.836h-1.309v-6.493c-0.289,0.272-1.241,0.901-1.887,1.36L171.119,240.556z M171.34,235.881c1.785-1.241,3.162-2.771,4.301-4.556
		l1.003,0.782c-1.139,1.717-2.55,3.519-4.165,4.657L171.34,235.881z M179.125,245.35c0.867,0.068,1.615,0.068,2.346,0.051
		c0.188-0.051,0.374-0.17,0.374-0.408v-6.969h-4.352v-1.258l8.754,0.017v1.241l-3.025,0.017l-0.017,7.105
		c0,0.595-0.307,1.037-0.731,1.292c-0.459,0.255-2.073,0.238-2.94,0.204L179.125,245.35z M185.21,233.91h-7.309l-0.018-1.258
		l7.326-0.017V233.91z"/>
	<path fill="#FFFFFF" d="M191.331,240.148c-0.373,0.765-1.155,1.972-2.261,3.077l-1.121-0.782c1.733-1.564,2.753-3.451,3.365-5.27
		h-2.532l0.017-1.224h2.532v-1.92c-0.595,0.102-1.343,0.272-2.227,0.306l-0.663-1.275c2.329,0,4.029-0.612,5.712-1.462l0.748,0.986
		c-0.816,0.459-1.581,0.816-2.261,1.054l-0.018,2.295l2.55,0.017v1.224l-2.55,0.017v1.173l0.442-0.289
		c1.054,0.612,1.972,1.598,2.516,2.669l-1.037,0.782c-0.526-1.037-1.24-1.853-1.903-2.295v7.632l-1.31-0.017V240.148z
		 M199.933,246.794l-0.017-4.675l-5.253,1.241l-0.34-1.241l5.609-1.36l-0.017-8.992l1.292,0.017l0.017,8.669l1.988-0.459
		l0.272,1.241l-2.261,0.544l-0.017,5.015H199.933z M197.876,240.59c-0.748-1.258-1.819-2.227-3.145-2.873l0.918-0.901
		c1.258,0.68,2.346,1.564,3.161,2.771L197.876,240.59z M198.284,236.477c-0.884-1.258-2.006-2.006-3.315-2.686l0.8-0.901
		c1.309,0.595,2.516,1.428,3.416,2.669L198.284,236.477z"/>
	<path fill="#FFFFFF" d="M205.697,245.537c0.629,0.153,1.189,0.17,1.632,0.136c0.288-0.017,0.441-0.221,0.441-0.442l0.018-3.893
		l-2.04,0.748l-0.867-1.088l2.89-1.003l0.018-3.723h-2.295l-0.018-1.224h2.313v-3.297h1.258l0.017,3.281h1.751v1.241l-1.751,0.017
		l-0.017,3.212l1.887-0.663v1.292l-1.87,0.697l-0.017,4.776c0,0.646-0.341,1.343-1.31,1.343h-1.41L205.697,245.537z M209.827,245.74
		c1.768-0.493,3.229-1.224,4.402-2.209c-1.002-1.071-1.699-2.55-2.192-3.927l-0.833-0.017l-0.017-1.224l3.246,0.017v-2.822h-3.553
		v-1.241h3.553v-2.635h1.275l0.017,2.652l3.927-0.017v1.241h-3.927l-0.017,2.805h2.991c-0.237,2.159-1.359,3.841-2.617,5.185
		c1.139,0.986,2.635,1.581,4.352,2.107l-0.816,1.139c-1.699-0.493-3.179-1.309-4.453-2.363c-1.071,0.816-2.193,1.734-4.369,2.431
		L209.827,245.74z M213.414,239.587c0.527,1.275,0.969,2.278,1.785,3.094c0.747-0.731,1.614-2.006,1.938-3.077L213.414,239.587z"/>
	<path fill="#FFFFFF" d="M236.347,246.709c-2.601-0.612-3.57-1.445-5.202-2.635c-1.444,1.411-3.365,2.227-5.371,2.601l-0.748-1.071
		c2.261-0.493,3.91-1.156,5.219-2.363c-0.595-0.578-1.853-2.397-2.295-3.349c-0.918,2.686-2.873,4.759-5.116,6.391l-0.936-1.088
		c2.907-1.802,4.964-4.811,5.729-8.21h-3.893v-1.139l1.564-3.893l1.139,0.595l-1.275,3.196h2.788
		c0.323-1.224,0.493-2.55,0.663-4.131l1.241,0.323c-0.204,1.462-0.374,2.703-0.612,3.808h7.326v1.241h-7.615
		c-0.153,0.425-0.306,0.952-0.442,1.326h5.813v1.054c-0.577,1.36-1.41,2.771-2.379,3.841c1.428,1.173,3.161,1.938,5.286,2.465
		L236.347,246.709z M229.156,239.553c0.374,0.731,1.241,2.159,1.921,2.771c0.765-0.85,1.394-1.819,1.802-2.771H229.156z
		 M233.338,235.422c-0.646-1.071-1.615-1.819-2.703-2.448l0.884-0.833c1.122,0.595,2.091,1.411,2.856,2.465L233.338,235.422z"/>
	<path fill="#FFFFFF" d="M241.958,240.403c0.017,2.907-0.578,4.334-1.769,6.527l-1.155-0.748c1.139-1.785,1.614-3.995,1.614-6
		v-7.734h12.001v3.927H241.94L241.958,240.403z M251.357,233.688l-9.399-0.017v1.479h9.399V233.688z M248.638,241.78
		c0.221,0.612,0.663,1.411,1.258,1.938c0.578-0.374,1.139-1.054,1.598-1.785l1.037,0.782c-0.578,0.748-1.088,1.275-1.717,1.734
		c0.851,0.595,2.023,0.918,3.468,1.139l-0.85,1.207c-2.482-0.51-5.049-1.751-6.137-5.015h-1.87v3.366l2.771-0.986l0.017,1.292
		l-3.927,1.479l-1.104-0.901c0.611-0.17,1.037-0.442,0.952-1.003v-3.247h-1.904l0.017-1.224l2.72-0.017v-1.581h-2.362v-1.241
		l2.362,0.017v-1.122l1.292-0.017v1.139h2.856l0.017-1.122h1.274v1.122l2.432-0.017l-0.018,1.241h-2.414v1.598h3.094v1.224H248.638z
		 M249.114,240.556v-1.598h-2.873l0.017,1.581L249.114,240.556z"/>
	<path fill="#FFFFFF" d="M270.873,240.913v1.241h-5.524c0.782,1.258,2.703,2.618,6.12,3.4l-0.936,1.139
		c-3.757-1.037-6-2.941-6.544-4.573h-0.17c-1.564,3.927-5.508,4.284-7.225,4.573l-0.833-1.122c2.278-0.425,5.627-1.037,6.578-3.417
		h-6.051v-1.241h6.748l0.357-1.156l1.274,0.153l-0.271,1.003H270.873z M261.541,240.335h-1.325v-2.975
		c-0.952,0.782-2.244,1.7-3.281,2.295l-0.867-1.258c1.174-0.544,2.891-1.717,4.131-2.566v-4.25h1.309L261.541,240.335z
		 M257.07,232.38c0.885,0.629,1.836,1.666,2.432,2.737l-1.021,1.003c-0.408-1.02-1.343-2.159-2.295-2.958L257.07,232.38z
		 M264.941,235.117c0.492,0.357,1.121,0.884,1.495,1.411c0.596-0.493,1.411-1.258,2.176-2.414h-3.62
		c-0.51,0.748-1.581,1.989-2.329,2.431l-1.003-0.969c1.309-0.816,2.431-2.006,3.213-4.148l1.139,0.476
		c-0.067,0.306-0.238,0.714-0.408,1.003h4.437l0.018,1.224c-1.462,2.805-3.688,4.708-7.514,5.575l-0.85-1.173
		c1.326-0.238,2.754-0.595,3.808-1.343c-0.493-0.527-0.952-0.969-1.513-1.275L264.941,235.117z"/>
	<path fill="#FFFFFF" d="M154.952,264.355v-1.377l13.87,0.017v1.343L154.952,264.355z M167.7,256.281h-11.593v-1.36l11.593,0.017
		V256.281z"/>
	<path fill="#FFFFFF" d="M176.389,256.604c-0.238-0.748-0.782-1.462-1.207-1.938l-0.884,0.017c-0.323,0.714-0.986,1.615-1.955,2.278
		l-0.986-0.799c1.547-1.156,2.55-3.11,2.737-4.283l1.207,0.34c-0.153,0.561-0.307,1.003-0.408,1.241h4.147v1.224h-2.295
		c0.204,0.204,0.544,0.714,0.884,1.343L176.389,256.604z M179.346,265.885c0.799,0.051,1.395,0.102,1.972,0.085
		c0.222,0,0.374-0.221,0.374-0.425v-2.21h-10.097v-1.207h10.097v-1.105l1.343-0.017v1.139h3.026v1.19h-3.026v2.584
		c0,0.357-0.34,0.816-0.68,1.054c-0.391,0.255-1.309,0.272-2.532,0.255L179.346,265.885z M179.448,256.009v1.122l4.708,0.017v1.189
		l-4.691,0.017v1.258h5.949v1.224h-13.259l-0.017-1.207l5.983-0.017v-1.258h-4.572l-0.018-1.207h4.59v-1.258h1.173l-0.73-0.561
		c1.07-1.02,1.802-2.091,1.954-3.57l1.173,0.459c-0.136,0.68-0.136,0.799-0.271,1.173h4.59v1.207h-2.329
		c0.187,0.187,0.459,0.697,0.73,1.326l-1.224,0.612c-0.17-0.765-0.595-1.513-0.969-1.938h-1.411
		c-0.221,0.442-0.765,1.173-1.224,1.513L179.448,256.009z M174.638,263.506c1.513,0.17,2.839,0.697,3.994,1.785l-0.696,1.088
		c-0.97-1.054-2.771-1.7-4.012-1.836L174.638,263.506z"/>
	<path fill="#FFFFFF" d="M202.873,261.313v1.241h-5.524c0.782,1.258,2.703,2.618,6.12,3.399l-0.936,1.139
		c-3.757-1.037-6-2.941-6.544-4.573h-0.17c-1.564,3.927-5.508,4.284-7.225,4.573l-0.833-1.122c2.278-0.425,5.627-1.037,6.578-3.417
		h-6.051v-1.241h6.748l0.357-1.156l1.274,0.153l-0.271,1.003H202.873z M193.541,260.735h-1.325v-2.975
		c-0.952,0.782-2.244,1.7-3.281,2.295l-0.867-1.258c1.174-0.544,2.891-1.717,4.131-2.566v-4.25h1.309L193.541,260.735z
		 M189.07,252.78c0.885,0.629,1.836,1.666,2.432,2.737l-1.021,1.003c-0.408-1.02-1.343-2.159-2.295-2.958L189.07,252.78z
		 M196.941,255.517c0.492,0.357,1.121,0.884,1.495,1.411c0.596-0.493,1.411-1.258,2.176-2.414h-3.62
		c-0.51,0.748-1.581,1.989-2.329,2.431l-1.003-0.969c1.309-0.816,2.431-2.006,3.213-4.148l1.139,0.476
		c-0.067,0.306-0.238,0.714-0.408,1.003h4.437l0.018,1.224c-1.462,2.805-3.688,4.709-7.514,5.576l-0.85-1.173
		c1.326-0.238,2.754-0.595,3.808-1.343c-0.493-0.527-0.952-0.969-1.513-1.275L196.941,255.517z"/>
</g>
</svg>
