<?xml version="1.0" encoding="utf-8"?>
<!-- Generator: Adobe Illustrator 16.0.0, SVG Export Plug-In . SVG Version: 6.00 Build 0)  -->
<!DOCTYPE svg PUBLIC "-//W3C//DTD SVG 1.1//EN" "http://www.w3.org/Graphics/SVG/1.1/DTD/svg11.dtd">
<svg version="1.1" id="Layer_1" xmlns="http://www.w3.org/2000/svg" xmlns:xlink="http://www.w3.org/1999/xlink" x="0px" y="0px"
	 width="768px" height="1024px" viewBox="0 0 768 1024" enable-background="new 0 0 768 1024" xml:space="preserve">
<rect x="465.11" y="770.301" opacity="0.698" fill="#002E59" enable-background="new    " width="162.219" height="162.222"/>
<g>
	<g>
		<path fill="#FFFFFF" d="M486.819,811.867h-4.971v-15.891h-6.161v-3.746c3.467,0.069,6.65-1.12,7.177-4.865h3.955V811.867z"/>
		<path fill="#FFFFFF" d="M502.255,786.875c4.9,0,9.031,3.08,9.031,12.637c0,9.767-4.131,12.847-9.031,12.847
			c-4.83,0-8.961-3.08-8.961-12.847C493.294,789.955,497.425,786.875,502.255,786.875z M502.255,808.262
			c4.062,0,4.062-5.983,4.062-8.75c0-2.556,0-8.541-4.062-8.541c-3.99,0-3.99,5.985-3.99,8.541
			C498.265,802.277,498.265,808.262,502.255,808.262z"/>
	</g>
</g>
<g>
	<path fill="#FFFFFF" d="M475.98,842.105v-9.748h7.194l-0.021-4.025h1.76l-0.044,4.004l7.173,0.021v9.659h-1.738v-1.495h-5.435
		l0.044,7.414h-1.738l-0.021-7.414h-5.392l-0.044,1.584H475.98z M483.154,833.965h-5.436v4.973h5.456L483.154,833.965z
		 M490.261,833.965h-5.347v4.95h5.369L490.261,833.965z"/>
	<path fill="#FFFFFF" d="M513.999,829.168v18.658h-1.562l-0.022-1.54h-13.422v1.519h-1.65l0.022-18.637H513.999z M499.016,844.746
		h13.379V830.73h-13.379V844.746z M511.865,843.184h-12.41v-1.563h5.303v-3.718h-4.355v-1.52h4.379v-2.815h-5.127v-1.496h11.99
		v1.518h-5.279v2.773h4.577v1.563h-4.601v3.719h5.523V843.184z M509.818,841.49c-0.857-1.123-1.629-1.894-2.729-2.531l1.078-0.857
		c0.924,0.551,2.112,1.408,2.816,2.553L509.818,841.49z"/>
	<path fill="#FFFFFF" d="M529.244,829.168c2.267,2.816,5.215,5.369,8.978,6.469l-1.342,1.364c-1.519-0.506-2.839-1.276-3.829-1.937
		l0.022,0.901l-4.005-0.021l0.021,2.552h5.962l0.022,1.585l-6.008,0.021l0.022,5.28l7.877-0.021v1.605h-17.427l-0.022-1.605
		l7.899,0.021v-5.303l-6.072,0.021l-0.021-1.605h6.095v-2.552l-4.005,0.021v-0.945c-1.078,0.703-2.464,1.496-4.004,2.199
		l-1.122-1.386c3.278-1.474,7.437-3.938,9.9-8.163l1.364,0.924L529.244,829.168z M524.58,845.032
		c-0.595-1.452-1.276-2.663-2.53-3.829l1.496-0.703c0.924,0.727,2.222,2.706,2.64,3.85L524.58,845.032z M532.039,834.361
		c-1.211-1.014-2.816-2.465-3.785-3.829c-0.945,1.188-2.508,2.86-3.895,3.784L532.039,834.361z M529.839,844.24
		c1.452-1.034,2.464-2.42,3.19-3.939l1.342,0.969c-0.704,1.519-1.65,2.927-3.036,4.004L529.839,844.24z"/>
	<path fill="#FFFFFF" d="M552.257,829.014v1.584h-12.058v-1.584H552.257z M549.704,838.277h-6.821v9.506h-1.584v-11.156h9.989v9.088
		c-0.065,0.727-0.55,1.363-1.166,1.605c-0.704,0.285-1.188,0.242-2.046,0.242L547.504,846c0.924-0.044,1.342,0.221,1.893-0.044
		c0.463-0.22,0.309-0.88,0.309-1.782L549.704,838.277L549.704,838.277z M542.289,835.77v-4.27h7.965v4.27H542.289z M549.176,841.402
		v1.584h-2.156v3.542h-1.539v-3.521h-2.024v-1.649h1.496c-0.353-0.771-1.078-1.629-1.826-1.959l1.146-0.748
		c0.748,0.44,1.649,1.319,1.979,2.112l-0.925,0.615l1.211,0.022c0.857-0.946,1.166-1.959,1.496-2.815l1.43,0.571
		c-0.396,0.683-0.836,1.737-1.342,2.267L549.176,841.402z M548.626,833.041h-4.729v1.23h4.729V833.041z M553.688,846.682
		c-0.528,0.154-0.683,0.199-1.299,0.42l-0.771-1.606c1.319-0.286,1.959-0.396,2.883-0.64v-4.024h-2.486v-8.164h2.486v-4.4h1.563v4.4
		h2.529v8.164h-2.529l0.021,3.606l1.276-0.308c-0.154-0.308-0.506-0.901-1.013-1.519l1.387-0.506
		c0.88,1.012,1.475,2.179,1.849,3.321l0.482,1.453l-1.649,0.572c-0.153-0.771-0.33-1.541-0.506-2.003L553.688,846.682z
		 M554.501,834.25h-0.946v4.973h0.946V834.25z M556.063,839.223h1.078v-4.973h-1.078V839.223z"/>
	<path fill="#FFFFFF" d="M567.193,833.723l-0.021,9.527c1.122-0.484,2.178-0.969,3.762-1.738v1.672l-5.5,2.75l-0.837-1.627
		c0.419-0.065,0.749-0.33,1.014-0.639l-0.022-8.361l-2.904,0.021l-0.021-1.605H567.193z M567.611,832.908
		c-0.946-1.563-1.958-2.685-3.104-3.301l1.299-0.902c1.364,0.771,2.42,1.783,3.213,3.169L567.611,832.908z M580.791,847.871
		c-1.958-1.717-3.212-3.697-4.202-5.655c-0.616-1.231-0.99-2.397-1.122-2.815v-0.946c-0.242,1.1-0.594,1.959-1.013,3.037
		c-0.968,2.464-2.597,4.708-5.126,6.381l-1.255-1.32c3.278-2.067,5.192-5.192,5.743-8.604c0.506-3.06,0.527-6.14,0.506-9.615
		l1.673,0.021c-0.022,2.707-0.066,5.216-0.265,7.327c0.703,2.312,1.605,4.862,2.838,6.865c0.902,1.452,2.135,2.948,3.587,4.07
		L580.791,847.871z"/>
	<path fill="#FFFFFF" d="M585.827,844.68c0.352-0.176,0.704-0.638,0.704-0.924l0.021-7.107h-2.112v-1.627h3.896v8.339l2.575-1.387
		v1.85l-4.093,2.266L585.827,844.68z M586.268,828.97c1.231,0.792,2.2,1.563,3.213,2.729l-1.276,1.188
		c-0.88-1.188-1.87-2.002-3.146-2.75L586.268,828.97z M602.77,831.391h-4.576v5.479h3.938v1.563h-3.938v6.996h5.215v1.607H589.37
		v-1.629h2.685v-10.408h1.674v10.43l2.859,0.022l-0.021-14.061h-5.854v-1.584h12.059v1.584H602.77z"/>
	<path fill="#FFFFFF" d="M475.98,868.506v-9.748h7.194l-0.021-4.025h1.76l-0.044,4.005l7.173,0.021v9.66h-1.738v-1.496h-5.435
		l0.044,7.414h-1.738l-0.021-7.414h-5.392l-0.044,1.584H475.98z M483.154,860.364h-5.436v4.974h5.456L483.154,860.364z
		 M490.261,860.364h-5.347v4.95h5.369L490.261,860.364z"/>
	<path fill="#FFFFFF" d="M496.001,868.99c1.43-2.398,2.641-4.688,3.168-7.481l1.54,0.638c-0.527,2.816-1.474,4.863-3.189,7.657
		L496.001,868.99z M503.746,859.924l0.021,10.738c0.066,0.242,0.44,0.66,0.814,0.727h3.433c0.353-0.045,0.683-0.221,0.836-0.572
		c0.374-1.188,0.66-2.397,0.902-3.852l1.716,0.617c-0.418,1.563-0.66,2.992-1.319,4.29c-0.396,0.792-1.211,1.21-2.068,1.21
		l-3.521-0.021c-1.144,0-2.529-0.615-2.529-2.223v-10.892L503.746,859.924z M507.42,861.597c-1.298-2.023-3.124-4.005-5.28-5.303
		c0.639-0.374,0.969-0.726,1.52-1.013c2.046,1.387,3.916,3.301,5.235,5.413L507.42,861.597z M514.571,869.43
		c-1.101-2.641-2.42-5.039-4.511-7.217c0.595-0.309,0.945-0.551,1.495-0.771c2.091,2.111,3.39,4.577,4.621,7.173L514.571,869.43z"/>
</g>
<g>
	<path fill="#FFFFFF" d="M474,901.223l1.768-0.17v-5.542h-1.513v-1.207h14.397v1.207h-6.852v7.854h-1.359v-1.818l-5.745,0.9
		L474,901.223z M476.566,893.794v-4.913h9.705v4.913H476.566z M480.441,896.445v-0.936h-3.365v0.936H480.441z M477.076,897.618
		v0.884h3.383v-0.884H477.076z M477.093,899.658v1.224c1.088-0.153,2.261-0.288,3.35-0.476v-0.748H477.093z M484.946,890.055h-7.071
		v0.748h7.071V890.055z M477.875,891.924v0.73h7.071v-0.73H477.875z M487.87,896.156c-0.34,1.717-0.663,2.771-1.769,4.268
		c0.766,0.781,1.699,1.41,2.891,1.887c-0.34,0.392-0.527,0.662-0.851,0.985c-1.14-0.476-1.921-1.071-2.839-1.955
		c-0.815,0.731-1.717,1.581-2.635,2.091l-0.766-1.02c1.037-0.629,1.938-1.275,2.602-1.955c-0.681-0.918-1.31-1.955-1.514-3.094
		h-0.714v-1.207H487.87z M484.164,897.363c0.271,0.815,0.563,1.358,1.088,2.125c0.493-0.748,0.952-1.496,1.141-2.125H484.164z"/>
	<path fill="#FFFFFF" d="M495.776,888.49c-0.442,1.445-0.901,2.854-1.581,4.045v10.879h-1.258v-8.906
		c-0.171,0.271-0.681,1.037-1.429,1.769l-1.054-0.936c1.972-1.888,3.382-4.59,4.13-7.327L495.776,888.49z M505.958,901.613v1.239
		h-11.049v-1.239h4.794v-2.448h-3.639v-1.241h3.639v-1.902h1.394v1.902h3.604v1.241h-3.604v2.448H505.958z M501.079,894.287h4.42
		v1.24h-10.25v-1.24h4.437v-2.329h-3.483V890.7h3.483v-2.243h1.395v2.26h3.451v1.226h-3.451L501.079,894.287L501.079,894.287z"/>
	<path fill="#FFFFFF" d="M516.159,889.051c1.394,2.228,4.521,4.964,7.224,5.372l-0.85,1.206c-4.028-1.41-5.764-3.568-7.089-5.507
		c-1.259,1.802-3.18,3.909-6.884,5.507l-0.986-0.951c2.72-1.225,5.982-3.229,7.785-6.781l1.003,0.73L516.159,889.051z
		 M516.396,897.567v3.842h6.018v1.273h-13.888v-1.258h2.72v-5.643h1.343v5.643h2.465v-8.057h1.343v2.957h4.029v1.241
		L516.396,897.567L516.396,897.567z"/>
	<path fill="#FFFFFF" d="M539.703,901.154v1.239h-14.466v-1.258h4.964v-12.526h1.326v12.545h1.972v-12.527h1.274v12.527H539.703z
		 M527.294,892.298c0.867,1.903,1.666,4.284,1.904,6.563l-1.292,0.561c-0.085-2.312-0.867-4.674-1.717-6.596L527.294,892.298z
		 M538.717,892.757c-0.34,2.669-1.07,5.134-2.191,6.867l-1.088-0.663c1.172-1.547,1.988-4.59,2.106-6.629L538.717,892.757z"/>
	<path fill="#FFFFFF" d="M553.116,903.092l-0.477-1.258l1.803,0.068c0.102-0.019,0.187-0.086,0.237-0.153v-11.508h-10.438v13.07
		h-1.292V889h12.987v12.936c0,0.545-0.563,1.175-1.123,1.175L553.116,903.092z M545.552,891.669
		c0.782,0.765,1.021,1.122,1.685,1.853c0.289-0.799,0.525-1.75,0.646-2.719l1.19,0.306c-0.256,1.395-0.596,2.5-0.918,3.569
		c0.61,0.867,1.054,1.514,1.479,2.636l-1.088,0.866c-0.357-0.985-0.595-1.496-0.9-1.922c-0.492,1.43-1.378,2.414-2.058,3.436
		c-0.459-0.255-0.729-0.512-1.173-0.782c1.326-1.428,1.785-2.465,2.329-3.978c-0.629-0.936-1.241-1.633-2.228-2.551L545.552,891.669
		z M553.201,899.641c-0.289-1.104-0.951-2.43-1.395-3.212c-0.611,1.344-1.274,2.499-2.362,3.723l-1.225-0.814
		c1.326-1.275,2.159-2.619,2.771-3.995c-0.611-0.867-1.206-1.666-2.073-2.669l1.02-0.697c0.563,0.681,1.207,1.411,1.582,1.938
		c0.237-0.832,0.629-1.954,0.85-3.229l1.173,0.341c-0.34,1.528-0.714,2.854-1.155,4.112c0.781,1.105,1.462,2.261,1.973,3.639
		L553.201,899.641z"/>
	<path fill="#FFFFFF" d="M565.221,900.78v-12.427h1.31l0.018,4.93l5.813,0.018v1.226h-5.813l-0.018,6.255h7.327v1.258l-14.194-0.018
		v-1.24L565.221,900.78L565.221,900.78z"/>
	<path fill="#FFFFFF" d="M582.085,899.965v1.31l-3.264,1.717l-0.782-1.105c0.493-0.271,0.646-0.68,0.646-1.139v-3.57h-2.397v-1.206
		h2.397v-1.699h-0.767c-0.373,0.51-0.747,0.85-1.41,1.428l-0.952-1.021c1.547-1.258,2.636-3.587,2.821-6.441l1.226,0.323
		c0.051,0.918-0.086,1.801-0.153,1.954h2.565v1.224h-2.871c-0.153,0.477-0.375,0.97-0.527,1.31h3.229v1.224h-1.836v1.685h2.125
		v1.223h-2.125v3.81L582.085,899.965z M583.037,903.347l-0.952-1.104c0.374-0.119,0.629-0.51,0.629-0.867V888.95h6.357v7.463
		l-2.396-0.019c0.067,0.781,0.322,1.785,0.629,2.381c0.714-0.356,1.359-1.037,2.007-2.04l0.984,0.781
		c-0.73,1.071-1.614,1.803-2.465,2.277c0.596,1.037,1.921,1.819,3.434,2.21l-0.899,1.122c-1.003-0.255-1.836-0.782-2.567-1.394
		c-1.443-1.479-2.191-3.417-2.346-5.32h-1.41v5.218l2.566-0.866v1.274L583.037,903.347z M584.04,890.174v1.853h3.739v-1.853H584.04z
		 M584.04,893.216v1.972h3.739v-1.972H584.04z"/>
	<path fill="#FFFFFF" d="M592.966,897.058c2.143-1.224,3.842-3.128,5.235-5.116l1.037,0.696c-0.478,0.867-1.445,2.006-2.074,2.771
		v7.836h-1.309v-6.492c-0.289,0.271-1.241,0.9-1.888,1.359L592.966,897.058z M593.188,892.383c1.784-1.24,3.161-2.771,4.301-4.556
		l1.003,0.782c-1.14,1.717-2.55,3.519-4.165,4.656L593.188,892.383z M600.972,901.852c0.867,0.067,1.615,0.067,2.347,0.052
		c0.188-0.052,0.374-0.17,0.374-0.408v-6.969h-4.353v-1.259l8.754,0.017v1.242l-3.024,0.016l-0.018,7.105
		c0,0.596-0.307,1.036-0.73,1.293c-0.459,0.254-2.073,0.236-2.94,0.202L600.972,901.852z M607.057,890.411h-7.309l-0.018-1.258
		l7.325-0.018L607.057,890.411L607.057,890.411z"/>
	<path fill="#FFFFFF" d="M488.72,917.814v1.239h-5.523c0.782,1.259,2.703,2.618,6.12,3.4l-0.937,1.139
		c-3.757-1.037-6-2.94-6.544-4.571h-0.17c-1.564,3.926-5.508,4.282-7.225,4.571l-0.834-1.122c2.278-0.425,5.628-1.036,6.578-3.417
		h-6.051v-1.239h6.748l0.357-1.156l1.273,0.152l-0.271,1.004H488.72z M479.388,917.236h-1.325v-2.976
		c-0.951,0.781-2.243,1.699-3.28,2.295l-0.867-1.258c1.174-0.545,2.891-1.717,4.131-2.565v-4.25h1.31L479.388,917.236z
		 M474.917,909.281c0.885,0.629,1.836,1.666,2.432,2.735l-1.021,1.005c-0.408-1.021-1.343-2.16-2.295-2.959L474.917,909.281z
		 M482.788,912.018c0.492,0.357,1.121,0.886,1.495,1.411c0.596-0.493,1.411-1.258,2.176-2.413h-3.62
		c-0.51,0.747-1.581,1.988-2.329,2.431l-1.003-0.97c1.31-0.814,2.431-2.006,3.213-4.146l1.14,0.476
		c-0.067,0.308-0.238,0.716-0.408,1.005h4.437l0.019,1.223c-1.462,2.806-3.688,4.709-7.514,5.576l-0.851-1.173
		c1.326-0.237,2.754-0.596,3.808-1.344c-0.492-0.526-0.951-0.969-1.513-1.274L482.788,912.018z"/>
</g>
</svg>
