<?xml version="1.0" encoding="utf-8"?>
<!-- Generator: Adobe Illustrator 16.0.0, SVG Export Plug-In . SVG Version: 6.00 Build 0)  -->
<!DOCTYPE svg PUBLIC "-//W3C//DTD SVG 1.1//EN" "http://www.w3.org/Graphics/SVG/1.1/DTD/svg11.dtd">
<svg version="1.1" id="Layer_1" xmlns="http://www.w3.org/2000/svg" xmlns:xlink="http://www.w3.org/1999/xlink" x="0px" y="0px"
	 width="768px" height="1024px" viewBox="0 0 768 1024" enable-background="new 0 0 768 1024" xml:space="preserve">
<rect x="302.89" y="121.42" opacity="0.698" fill-rule="evenodd" clip-rule="evenodd" fill="#2A79BE" width="324.439" height="162.22"/>
<g>
	<g>
		<path fill="#FFFFFF" d="M317.418,160.68c-0.175-5.601,3.011-9.906,8.891-9.906c4.48,0,8.401,2.87,8.401,7.666
			c0,3.675-1.96,5.706-4.375,7.42c-2.415,1.715-5.286,3.116-7.071,5.636h11.586v4.271h-17.992c0.035-5.67,3.5-8.086,7.736-10.956
			c2.17-1.47,5.111-2.976,5.146-5.986c0-2.31-1.54-3.78-3.675-3.78c-2.94,0-3.885,3.045-3.885,5.636H317.418z"/>
	</g>
</g>
<g>
	<path fill="#FFFFFF" d="M319.006,206.004v-9.748h7.194l-0.021-4.027h1.76l-0.044,4.005l7.173,0.022v9.659h-1.738v-1.496h-5.435
		l0.044,7.415H326.2l-0.021-7.415h-5.391l-0.044,1.584H319.006z M326.179,197.863h-5.435v4.973h5.456L326.179,197.863z
		 M333.285,197.863h-5.347v4.951h5.369L333.285,197.863z"/>
	<path fill="#FFFFFF" d="M355.439,211.703v-1.541H342.04v1.541h-1.673v-18.659h16.635v18.659H355.439z M355.439,194.65H342.04
		v13.994h13.399V194.65z M342.479,207.06v-1.518h5.325v-3.74h-4.379v-1.519h4.379v-2.794h-5.127v-1.518h11.991v1.518h-5.303v2.794
		h4.6v1.519h-4.6v3.74h5.523v1.518H342.479z M352.843,205.388c-0.857-1.122-1.628-1.893-2.728-2.53l1.078-0.858
		c0.924,0.55,2.112,1.408,2.816,2.552L352.843,205.388z"/>
	<path fill="#FFFFFF" d="M366.482,204.046v4.797l2.684-1.32v1.694l-3.718,1.958l-0.969-1.54c0.198-0.242,0.286-0.506,0.286-1.1
		v-4.489h-3.103v-1.606h3.103v-2.288h-0.99c-0.483,0.66-0.968,1.1-1.826,1.848l-1.232-1.32c2.003-1.628,3.411-4.643,3.653-8.339
		l1.584,0.418c0.065,1.188-0.11,2.31-0.198,2.508h3.322v1.606h-3.719c-0.197,0.616-0.483,1.232-0.682,1.672h4.181v1.606h-2.376
		v2.288h2.75v1.606H366.482z M379.882,211.615c-1.298-0.33-2.376-1.012-3.322-1.804c-1.87-1.914-2.839-4.422-3.036-6.887h-1.827
		v6.755l3.323-1.122v1.65l-4.467,1.628l-0.836-1.54c0.241-0.242,0.264-0.484,0.264-0.946v-16.106h8.229v9.682h-3.103
		c0.088,1.012,0.418,2.288,0.813,3.058c0.925-0.462,1.761-1.342,2.597-2.64l1.276,1.012c-0.946,1.386-2.091,2.332-3.19,2.948
		c0.771,1.342,2.486,2.354,4.444,2.86L379.882,211.615z M376.56,194.849h-4.863v2.398h4.863V194.849z M376.56,198.765h-4.863v2.552
		h4.863V198.765z"/>
	<path fill="#FFFFFF" d="M383.245,203.76c2.772-1.584,4.973-4.048,6.777-6.623l1.342,0.902c-0.616,1.122-1.87,2.596-2.685,3.586
		v10.144h-1.694v-8.405c-0.374,0.352-1.605,1.166-2.442,1.76L383.245,203.76z M383.531,197.709c2.311-1.606,4.093-3.586,5.566-5.897
		l1.299,1.012c-1.475,2.222-3.301,4.555-5.391,6.029L383.531,197.709z M393.608,209.965c1.122,0.088,2.091,0.088,3.037,0.066
		c0.241-0.066,0.483-0.22,0.483-0.528v-9.021h-5.633v-1.628l11.332,0.022v1.606l-3.917,0.022l-0.021,9.197
		c0,0.77-0.396,1.342-0.946,1.672c-0.594,0.33-2.685,0.308-3.807,0.264L393.608,209.965z M401.485,195.157h-9.461l-0.021-1.628
		l9.482-0.022V195.157z"/>
	<path fill="#FFFFFF" d="M405.598,210.669v-1.606h6.425v-16.238h1.716v16.238h2.553v-16.238h1.65v16.238h6.381v1.606H405.598z
		 M409.052,206.818c-0.11-2.993-1.122-6.051-2.223-8.537l1.431-0.682c1.122,2.464,2.156,5.544,2.464,8.493L409.052,206.818z
		 M420.207,207.083l-1.408-0.858c1.519-2.002,2.575-5.941,2.729-8.581l1.519,0.55C422.605,201.647,421.659,204.838,420.207,207.083z
		"/>
	<path fill="#FFFFFF" d="M443.989,203.43v5.853h2.883v1.65h-19.604v-1.65h2.574v-5.853H443.989z M428.543,202.286v-8.978h1.673
		v8.978H428.543z M434.066,209.283v-4.203h-2.553v4.203H434.066z M432.746,203.034v-10.627h1.672v10.627H432.746z M434.88,201.164
		c2.398-2.002,3.499-5.171,4.181-8.801l1.387,0.682c-0.11,0.88-0.309,1.804-0.484,2.398h5.985v1.606h-6.47
		c-0.682,1.892-1.562,3.719-3.322,5.259L434.88,201.164z M438.247,205.08h-2.509v4.203h2.509V205.08z M443.77,202.286
		c-1.166-1.408-2.42-2.267-3.982-3.103l0.968-1.122c1.606,0.704,2.993,1.65,4.203,3.125L443.77,202.286z M442.317,205.08h-2.376
		v4.203h2.376V205.08z"/>
	<path fill="#FFFFFF" d="M449.377,200.547c1.276-0.792,2.333-1.716,3.213-2.926l1.254,0.946c-1.056,1.386-1.937,2.376-3.389,3.323
		L449.377,200.547z M456.309,197.555v2.596c0,0.462-0.198,0.77-0.99,1.078c-0.484,0.176-1.145,0.132-1.738,0.132l-0.528-1.54h1.342
		c0.265,0,0.309-0.22,0.309-0.506v-1.76h-4.774v-1.453h3.586v-4.07h1.738v1.54h4.313v1.452h-4.313v1.078h5.325v1.453H456.309z
		 M452.458,211.879v-10.188h13.773v10.188h-1.672v-1.144h-10.451v1.144H452.458z M454.108,203.21v0.88h10.451v-0.88H454.108z
		 M454.108,205.608v1.012h10.451v-1.012H454.108z M464.56,209.15v-1.012h-10.451v1.012H464.56z M459.036,200.877
		c-0.857-0.858-1.87-1.452-2.728-1.98l1.122-1.012c1.144,0.616,1.804,1.012,2.729,1.738L459.036,200.877z M459.895,199.997
		c1.166-0.352,2.311-0.902,2.948-1.43c-0.945-1.144-1.54-2.596-1.804-3.74h-1.078v-1.519h7.591c0,0.99-0.021,1.519-0.264,2.112
		c-0.484,1.21-1.255,2.398-2.135,3.213c1.078,0.924,2.53,1.584,4.005,2.046l-0.792,1.475c-1.805-0.727-3.213-1.408-4.335-2.398
		c-0.528,0.462-1.782,1.254-3.322,1.848L459.895,199.997z M462.623,194.827c0.353,0.99,0.748,1.804,1.408,2.729
		c0.902-0.902,1.298-1.497,1.738-2.729H462.623z"/>
	<path fill="#FFFFFF" d="M471.487,196.433c1.782-1.144,2.772-2.75,3.587-4.51c0.527,0.242,0.901,0.44,1.43,0.682
		c-0.242,0.55-0.484,1.034-0.55,1.21h5.698v1.562l-3.322,0.022c0.088,0.11,0.396,0.771,0.748,1.298l-1.496,0.814
		c-0.374-0.88-0.748-1.54-1.254-2.112h-1.276c-0.528,0.726-1.188,1.453-2.311,2.223L471.487,196.433z M472.39,197.665h8.075
		c-0.154-0.308-0.595-0.858-1.255-1.496l1.585-0.506c0.704,0.704,1.231,1.606,1.496,2.002h7.877v4.137l-1.672-0.022v-2.553h-14.435
		l-0.021,2.663l-1.65-0.022V197.665z M477.01,211.901h-1.738l0.022-11.552h11.838l0.021,4.489l-10.188,0.022v1.1h11.156v5.875
		h-1.694v-1.298h-9.439L477.01,211.901z M476.966,203.276h8.516l-0.022-1.364h-8.493V203.276z M476.988,207.566l0.021,1.452
		l9.418-0.022v-1.474L476.988,207.566z M487.264,195.289c0.132,0.132,0.638,0.66,1.012,1.342c-0.483,0.308-0.924,0.528-1.496,0.77
		c-0.418-0.88-0.858-1.562-1.43-2.09h-1.452c-0.286,0.484-0.704,1.166-1.32,1.694c-0.462-0.352-0.814-0.572-1.299-0.946
		c1.188-1.276,1.805-2.552,2.179-4.181l1.475,0.55c-0.089,0.572-0.221,1.056-0.309,1.298h6.007v1.562H487.264z"/>
	<path fill="#FFFFFF" d="M494.346,208.997c-0.462-0.418-0.881-0.748-1.452-1.32c1.364-0.396,2.376-0.814,3.322-1.166v-5.083h-2.244
		l0.021-1.562l2.179,0.022l0.021-4.356l-2.64,0.022v-1.606l6.82,0.022v1.563h-2.442l-0.021,4.356l2.156-0.022v1.562h-2.156v4.445
		c0.638-0.242,1.584-0.682,2.662-1.078v1.65L494.346,208.997z M511.596,193.375l-0.044,9.571h-4.467v2.112h4.335v1.584h-4.379v2.53
		h5.875v1.563h-13.355v-1.563h5.786l0.022-2.53h-4.4v-1.584h4.378l0.022-2.112h-4.555v-9.593L511.596,193.375z M505.347,197.291
		l0.022-2.333l-2.883-0.022v2.354H505.347z M502.486,198.853v2.53h2.86l0.022-2.552L502.486,198.853z M507.063,198.875v2.486
		l2.838,0.022v-2.486L507.063,198.875z M507.107,197.313h2.816l0.044-2.354l-2.883-0.022L507.107,197.313z"/>
	<path fill="#FFFFFF" d="M525.961,201.824h-1.122l0.527,0.33c-0.483,0.484-0.989,1.012-1.188,1.188h9.813v1.584h-3.873
		c-0.66,1.101-1.694,2.354-2.574,2.993c1.893,0.616,4.114,1.32,6.359,2.42l-0.793,1.496c-2.397-1.298-4.752-2.2-7.173-2.794
		c-2.86,1.76-6.271,2.398-9.879,2.838l-0.66-1.672c2.685-0.132,5.501-0.66,8.009-1.694c-1.342-0.352-2.926-0.55-4.818-0.88
		c0.99-1.144,1.804-2.068,2.311-2.729h-4.731v-1.562h5.897c0.55-0.638,1.078-1.232,1.826-2.134l0.374,0.22v-2.816
		c-2.002,2.245-4.533,3.433-7.921,4.357l-0.902-1.474c2.772-0.638,5.303-1.606,6.887-3.234h-6.183v-1.606h8.119v-1.563
		c-1.628,0.176-5.589,0.462-6.799,0.462l-0.727-1.694c5.391,0,10.716-0.418,15.446-1.848l1.034,1.386
		c-2.112,0.638-5.324,1.276-7.261,1.54v1.716h8.119v1.584h-5.985c1.166,1.21,3.543,2.157,6.096,2.772l-0.902,1.43
		c-2.398-0.462-5.677-1.782-7.283-4.158L525.961,201.824z M525.608,207.346c1.013-0.528,2.068-1.672,2.553-2.442h-5.281
		c-0.483,0.638-0.77,1.012-1.254,1.541L525.608,207.346z"/>
	<path fill="#FFFFFF" d="M537.972,210.317c3.08-0.132,6.051-0.594,7.459-3.146c0.813-1.452,0.792-2.707,0.792-4.775l1.606,0.242
		c0.176,3.19-0.374,5.787-2.904,7.569c-1.717,1.232-3.807,1.65-6.029,1.782L537.972,210.317z M540.567,208.579v-8.713h12.696v8.273
		h-1.673v-6.645h-9.395v7.085H540.567z M541.646,198.919v-5.677h10.54v5.677H541.646z M550.558,194.871h-7.262v2.442h7.262V194.871z
		 M554.54,212.187c-1.606-1.408-4.841-2.685-7.371-3.278l0.682-1.452c2.662,0.55,5.633,1.716,7.635,3.322L554.54,212.187z"/>
	<path fill="#FFFFFF" d="M577.552,203.056c-1.54-0.814-3.322-2.046-4.444-3.125v0.902h-8.735v-0.858
		c-0.99,0.924-2.002,1.76-4.159,3.037l-1.298-1.298c1.65-0.814,3.036-1.738,4.225-2.794c2.465-2.2,3.961-4.247,5.303-6.821
		l1.519,0.704l-0.484,0.748c1.914,2.53,3.652,4.819,6.667,6.667l2.53,1.563L577.552,203.056z M575.703,211.351
		c-0.462-0.572-0.88-1.1-1.166-1.32l-8.427,1.078l-3.301,0.506l-1.056-1.892c2.178-1.452,4.576-3.477,6.028-5.193h-6.975v-1.496
		h15.798v1.496h-8.075l1.034,0.771c-2.112,2.2-3.19,3.168-5.259,4.422l8.516-1.056c-0.572-0.418-1.21-0.77-2.135-1.21l1.122-1.123
		c1.057,0.44,1.893,1.034,2.795,1.606c0.748,0.638,1.65,1.342,2.376,2.311L575.703,211.351z M568.641,195.135
		c-0.727,1.122-2.421,3.058-3.499,4.114h7.35C570.621,197.709,569.564,196.411,568.641,195.135z"/>
</g>
<g>
	<path fill="#FFFFFF" d="M316.616,245.689c0.085-0.697,0.17-0.986,0.408-1.462c0.459-0.918,1.24-1.802,2.464-2.805l0.562-0.459
		c2.243-1.836,3.094-2.992,3.094-4.147c0-1.224-0.969-2.108-2.295-2.108c-1.462,0-2.363,0.918-2.38,2.448l-1.53-0.17
		c0.204-2.278,1.599-3.519,3.944-3.519c2.261,0,3.808,1.377,3.808,3.383c0,1.445-0.851,2.736-2.992,4.538l-1.224,1.037
		c-1.003,0.85-1.411,1.292-1.751,1.836h5.983v1.428H316.616z"/>
	<path fill="#FFFFFF" d="M330.284,245.894c-1.581,0-2.788-0.833-3.4-2.363c-0.391-0.986-0.561-2.193-0.561-3.875
		c0-4.097,1.326-6.188,3.961-6.188s3.96,2.091,3.96,6.221C334.244,243.82,332.919,245.894,330.284,245.894z M332.272,236.221
		c-0.34-0.935-1.104-1.513-2.006-1.513c-1.666,0-2.414,1.564-2.414,4.963c0,1.513,0.153,2.669,0.442,3.468
		c0.34,0.952,1.104,1.53,1.989,1.53c0.884,0,1.648-0.578,1.988-1.53c0.289-0.782,0.442-1.955,0.442-3.451
		C332.715,238.193,332.578,237.054,332.272,236.221z"/>
	<path fill="#FFFFFF" d="M339.906,245.689v-9.519c-0.493,0.476-0.97,0.799-1.854,1.275c-0.544,0.289-0.696,0.357-1.139,0.527v-1.445
		c1.615-0.748,2.958-1.938,3.519-3.06h0.969v12.222H339.906z"/>
	<path fill="#FFFFFF" d="M349.375,245.894c-1.547,0-2.924-0.833-3.569-2.176c-0.459-0.952-0.646-2.091-0.646-3.723
		c0-4.267,1.496-6.527,4.352-6.527c1.938,0,3.213,1.122,3.468,3.025l-1.496,0.136c-0.17-1.258-0.85-1.921-1.972-1.921
		c-1.104,0-1.938,0.595-2.362,1.666c-0.307,0.782-0.51,1.904-0.51,2.805v0.238c0.271-0.425,0.407-0.578,0.714-0.833
		c0.629-0.493,1.428-0.782,2.243-0.782c2.057,0,3.587,1.683,3.587,3.927C353.183,244.16,351.602,245.894,349.375,245.894z
		 M349.29,239.111c-1.394,0-2.414,1.122-2.414,2.618c0,1.666,1.071,2.94,2.465,2.94c1.343,0,2.312-1.19,2.312-2.838
		C351.652,240.216,350.701,239.111,349.29,239.111z"/>
	<path fill="#FFFFFF" d="M359.625,231.921c-0.068,0.595-0.238,1.037-0.323,1.326h9.52v1.241l-5.185,0.034l0.017,2.176h4.335v1.258
		h-4.335v2.754h5.865v1.258l-5.865-0.017v4.896h-1.343v-4.878h-6.629v-1.275l2.107,0.017v-4.012l4.521-0.017v-2.176h-3.501
		c-0.544,1.105-1.19,2.329-2.346,3.4l-1.071-0.867c1.547-1.376,2.516-3.229,3.145-5.643L359.625,231.921z M359.099,237.955v2.754
		h3.195l0.017-2.754H359.099z"/>
	<path fill="#FFFFFF" d="M374.568,239.842c0,2.329-0.136,5.032-1.768,7.088l-1.088-0.85c0.765-1.122,1.24-2.142,1.377-3.349
		c0.102-1.003,0.152-2.04,0.152-3.077V233.4h6.188c-0.221-0.323-0.51-0.595-1.377-1.139l1.258-0.697
		c0.51,0.51,1.395,1.36,1.683,1.836h5.627l0.017,1.207h-12.052L374.568,239.842z M384.631,241.763
		c-0.595,1.003-2.277,2.278-2.957,2.669c0.407,0.187,1.088,0.391,1.768,0.544c1.139,0.272,2.277,0.459,3.638,0.561
		c-0.204,0.527-0.476,0.816-0.697,1.207c-2.176-0.306-4.267-0.697-6.068-1.581c-0.493,0.204-1.003,0.442-1.547,0.646
		c-1.24,0.476-2.635,0.799-4.097,0.969c-0.289-0.374-0.51-0.697-0.9-1.19c2.091-0.17,3.79-0.68,5.219-1.19
		c-0.833-0.595-1.785-1.563-2.448-2.566h-1.292v-1.207l9.417,0.034L384.631,241.763z M383.51,239.774h-6.409l0.018-2.329h-2.278
		v-1.173l2.261-0.017v-1.309h1.344v1.309h3.739v-1.326h1.326v1.326h2.771v1.207h-2.771V239.774z M378.104,241.831
		c0.851,0.952,1.344,1.394,2.21,1.955c1.037-0.561,2.006-1.156,2.754-1.938L378.104,241.831z M378.495,238.601l3.672-0.017
		l0.017-1.122h-3.723L378.495,238.601z"/>
	<path fill="#FFFFFF" d="M392.843,240.777v3.706l2.074-1.02v1.309l-2.873,1.513l-0.748-1.189c0.153-0.187,0.222-0.391,0.222-0.85
		v-3.468h-2.397v-1.241h2.397v-1.768h-0.766c-0.374,0.51-0.747,0.85-1.41,1.428l-0.952-1.02c1.547-1.258,2.635-3.587,2.821-6.442
		l1.225,0.323c0.051,0.918-0.085,1.785-0.153,1.938h2.566v1.241h-2.872c-0.153,0.476-0.374,0.952-0.527,1.292h3.229v1.241h-1.836
		v1.768h2.125v1.241H392.843z M403.195,246.625c-1.003-0.255-1.836-0.782-2.567-1.394c-1.444-1.479-2.192-3.417-2.346-5.32h-1.41
		v5.218l2.566-0.867v1.275l-3.45,1.258l-0.646-1.19c0.188-0.187,0.204-0.374,0.204-0.731v-12.443h6.357v7.479h-2.396
		c0.067,0.782,0.322,1.768,0.629,2.363c0.714-0.357,1.359-1.037,2.006-2.04l0.985,0.782c-0.73,1.071-1.614,1.802-2.465,2.277
		c0.595,1.037,1.921,1.819,3.434,2.21L403.195,246.625z M400.628,233.672h-3.756v1.853h3.756V233.672z M400.628,236.697h-3.756
		v1.972h3.756V236.697z"/>
	<path fill="#FFFFFF" d="M405.798,240.556c2.142-1.224,3.842-3.128,5.235-5.117l1.037,0.697c-0.477,0.867-1.445,2.006-2.074,2.771
		v7.836h-1.309v-6.493c-0.289,0.272-1.241,0.901-1.887,1.36L405.798,240.556z M406.019,235.881c1.785-1.241,3.162-2.771,4.301-4.556
		l1.003,0.782c-1.139,1.717-2.55,3.519-4.165,4.657L406.019,235.881z M413.804,245.35c0.867,0.068,1.615,0.068,2.346,0.051
		c0.188-0.051,0.374-0.17,0.374-0.408v-6.969h-4.352v-1.258l8.754,0.017v1.241l-3.025,0.017l-0.017,7.105
		c0,0.595-0.307,1.037-0.731,1.292c-0.459,0.255-2.073,0.238-2.94,0.204L413.804,245.35z M419.89,233.91h-7.31l-0.018-1.258
		l7.327-0.017V233.91z"/>
	<path fill="#FFFFFF" d="M423.069,245.894v-1.241h4.964v-12.544h1.326v12.544h1.972v-12.544h1.274v12.544h4.93v1.241H423.069z
		 M425.738,242.919c-0.085-2.312-0.867-4.675-1.717-6.596l1.104-0.527c0.867,1.904,1.666,4.284,1.904,6.562L425.738,242.919z
		 M434.356,243.123l-1.088-0.663c1.173-1.547,1.988-4.59,2.107-6.629l1.173,0.425C436.209,238.924,435.479,241.389,434.356,243.123z
		"/>
	<path fill="#FFFFFF" d="M439.645,239.043c1.785-1.887,3.162-4.998,3.893-7.343l1.241,0.442c-0.374,1.173-0.782,2.346-1.275,3.366
		v11.372h-1.274v-9.077c-0.188,0.34-0.748,1.19-1.445,2.006L439.645,239.043z M448.313,231.428c0.816,0.476,1.666,1.343,2.227,2.193
		l-0.373,0.425h4.878v1.224l-10.828-0.017v-1.19l5.117-0.017c-0.307-0.51-1.088-1.224-1.955-1.785L448.313,231.428z
		 M445.152,237.819v-1.224h8.584v1.224H445.152z M445.152,240.284v-1.224l8.601-0.017l-0.017,1.241H445.152z M446.58,246.845h-1.207
		l-0.017-5.218h8.142v5.185l-1.207,0.017l0.018-0.986h-5.712L446.58,246.845z M446.597,244.771l5.712-0.034v-2.005h-5.746
		L446.597,244.771z"/>
	<path fill="#FFFFFF" d="M456.661,244.737c1.241-0.612,2.295-1.461,2.992-2.634l0.969,0.697c-0.697,1.207-1.87,2.244-3.06,2.89
		L456.661,244.737z M465.637,231.989c-0.323,0.527-0.663,0.935-0.816,1.088l4.267-0.017l0.018,7.938l-9.621,0.017v-7.938
		l3.757-0.017c0.425-0.408,0.9-1.037,1.24-1.7L465.637,231.989z M460.758,235.252l7.055,0.017v-0.969h-7.055V235.252z
		 M460.758,236.459v1.037h7.055v-1.02L460.758,236.459z M460.758,238.686v1.105l7.055-0.017v-1.088H460.758z M468.425,243.446
		c-0.663,2.346-0.97,2.652-1.802,2.652l-4.165,0.017c-1.207,0-1.428-0.595-1.428-1.547v-2.618l1.309,0.017v2.397
		c0,0.306,0.153,0.51,0.408,0.51h3.62c0.392,0,0.442-0.493,0.851-1.581L468.425,243.446z M465.467,244.108
		c-0.833-0.969-1.717-1.581-2.907-2.005l0.833-0.918c1.122,0.374,2.108,1.054,2.941,2.04L465.467,244.108z M470.975,245.502
		c-0.681-1.224-1.734-2.159-3.077-2.686l1.003-0.782c1.258,0.493,2.38,1.513,3.162,2.72L470.975,245.502z"/>
	<path fill="#FFFFFF" d="M477.011,240.148c-0.374,0.765-1.156,1.972-2.262,3.077l-1.121-0.782c1.733-1.564,2.753-3.451,3.365-5.27
		h-2.532l0.017-1.224h2.533v-1.92c-0.596,0.102-1.344,0.272-2.228,0.306l-0.663-1.275c2.329,0,4.029-0.612,5.712-1.462l0.748,0.986
		c-0.816,0.459-1.581,0.816-2.261,1.054l-0.018,2.295l2.55,0.017v1.224l-2.55,0.017v1.173l0.442-0.289
		c1.054,0.612,1.972,1.598,2.516,2.669l-1.037,0.782c-0.526-1.037-1.24-1.853-1.903-2.295v7.632l-1.309-0.017V240.148z
		 M485.611,246.794l-0.017-4.675l-5.253,1.241l-0.34-1.241l5.609-1.36l-0.017-8.992l1.292,0.017l0.017,8.669l1.988-0.459
		l0.272,1.241l-2.261,0.544l-0.017,5.015H485.611z M483.555,240.59c-0.748-1.258-1.819-2.227-3.145-2.873l0.918-0.901
		c1.258,0.68,2.346,1.564,3.161,2.771L483.555,240.59z M483.963,236.477c-0.884-1.258-2.006-2.006-3.315-2.686l0.8-0.901
		c1.309,0.595,2.516,1.428,3.416,2.669L483.963,236.477z"/>
	<path fill="#FFFFFF" d="M491.376,245.537c0.629,0.153,1.189,0.17,1.632,0.136c0.288-0.017,0.441-0.221,0.441-0.442l0.017-3.893
		l-2.039,0.748l-0.867-1.088l2.89-1.003l0.017-3.723h-2.294l-0.018-1.224h2.312v-3.297h1.259l0.017,3.281h1.751v1.241l-1.751,0.017
		l-0.017,3.212l1.887-0.663v1.292l-1.87,0.697l-0.017,4.776c0,0.646-0.341,1.343-1.31,1.343h-1.41L491.376,245.537z M495.506,245.74
		c1.769-0.493,3.229-1.224,4.402-2.209c-1.003-1.071-1.699-2.55-2.192-3.927l-0.833-0.017l-0.017-1.224l3.246,0.017v-2.822h-3.553
		v-1.241h3.553v-2.635h1.275l0.017,2.652l3.927-0.017v1.241h-3.927l-0.017,2.805h2.991c-0.237,2.159-1.359,3.841-2.617,5.185
		c1.139,0.986,2.635,1.581,4.352,2.107l-0.816,1.139c-1.699-0.493-3.179-1.309-4.453-2.363c-1.071,0.816-2.193,1.734-4.369,2.431
		L495.506,245.74z M499.093,239.587c0.527,1.275,0.969,2.278,1.785,3.094c0.748-0.731,1.614-2.006,1.938-3.077L499.093,239.587z"/>
	<path fill="#FFFFFF" d="M522.722,245.383c-0.136,0.408-0.306,1.003-0.815,1.207c-0.425,0.17-1.003-0.119-1.309-0.493
		c-1.514-1.836-1.819-4.573-1.938-6.613c-0.119-1.768-0.067-3.552-0.085-5.983h-7.462v5.933c0,2.635-0.901,5.711-2.651,7.326
		l-1.088-0.901c1.563-1.496,2.447-3.875,2.447-6.748v-6.851h10.046v5.864c0,2.499,0.459,5.27,1.666,7.021l0.238-1.411l1.173,0.68
		L522.722,245.383z M517.401,244.754c-0.526-1.563-1.444-3.195-2.107-4.096c-0.629,0.884-1.904,2.601-3.484,4.113l-1.037-0.935
		c1.274-0.917,3.195-3.382,3.79-4.198c-0.781-1.105-2.142-2.516-3.161-3.485l0.867-0.782c0.969,0.85,2.158,2.04,2.991,3.094
		c0.289-0.374,1.292-2.21,1.819-3.519l1.07,0.612c-0.391,1.003-1.428,3.127-2.091,3.978c0.867,1.19,1.989,2.89,2.499,4.556
		L517.401,244.754z"/>
	<path fill="#FFFFFF" d="M528.928,237.037c0.851,1.105,1.751,2.397,1.802,4.012c0.018,0.969-0.68,1.904-1.598,2.227
		c-0.459,0.153-0.866,0.153-1.444,0.068l-0.425-1.411c0.799,0.136,1.394,0.289,1.836-0.085c0.271-0.34,0.391-0.578,0.356-0.952
		c-0.153-1.394-1.122-2.635-2.074-3.825c0.731-1.258,1.377-2.431,1.904-3.468h-2.362v13.225h-1.292v-14.465h5.167v1.173
		C530.288,234.556,529.608,235.831,528.928,237.037z M539.212,238.55l-1.003-0.595v0.799h-6.816v-0.782
		c-0.118,0.068-0.425,0.323-0.866,0.493c-0.34-0.391-0.562-0.731-0.936-1.19c2.125-0.731,4.267-3.519,4.811-5.644l1.275,0.544
		c-0.103,0.289-0.222,0.561-0.34,0.867c0.985,1.768,2.702,3.434,4.641,4.385L539.212,238.55z M529.813,246.148v-1.241h5.779
		c0.935-1.513,1.632-3.893,1.954-5.711l1.225,0.493c-0.357,1.921-1.055,3.774-1.887,5.219h2.617v1.241H529.813z M532.464,244.295
		c-0.119-1.632-0.731-2.907-1.615-4.215l1.122-0.527c0.833,1.258,1.581,2.72,1.785,4.13L532.464,244.295z M534.708,234.284
		c-0.731,1.394-1.496,2.346-2.703,3.196l5.644,0.034C536.492,236.749,535.2,235.337,534.708,234.284z M534.708,243.395
		c-0.272-1.496-1.037-2.601-1.955-3.808l1.189-0.527c0.901,1.173,1.615,2.312,1.955,3.74L534.708,243.395z"/>
	<path fill="#FFFFFF" d="M541.984,234.896c1.377-0.884,2.142-2.125,2.771-3.484c0.408,0.187,0.697,0.34,1.105,0.527
		c-0.188,0.425-0.374,0.799-0.425,0.935h4.402v1.207l-2.566,0.017c0.067,0.085,0.306,0.595,0.577,1.003l-1.155,0.629
		c-0.289-0.68-0.578-1.19-0.969-1.632h-0.986c-0.408,0.561-0.918,1.122-1.785,1.717L541.984,234.896z M542.682,235.848h6.238
		c-0.119-0.238-0.459-0.663-0.969-1.156l1.224-0.391c0.544,0.544,0.952,1.241,1.156,1.547h6.085v3.195l-1.292-0.017v-1.972h-11.15
		l-0.018,2.057l-1.274-0.017V235.848z M546.251,246.845h-1.343l0.017-8.924h9.146l0.017,3.467l-7.87,0.017v0.85h8.618v4.539h-1.309
		v-1.003h-7.292L546.251,246.845z M546.217,240.182h6.579l-0.018-1.054h-6.562V240.182z M546.234,243.497l0.017,1.122l7.275-0.017
		v-1.139L546.234,243.497z M554.172,234.012c0.103,0.102,0.493,0.51,0.782,1.037c-0.374,0.238-0.714,0.408-1.155,0.595
		c-0.323-0.68-0.663-1.207-1.105-1.615h-1.122c-0.221,0.374-0.544,0.901-1.02,1.309c-0.357-0.272-0.629-0.442-1.003-0.731
		c0.918-0.986,1.394-1.972,1.683-3.229l1.139,0.425c-0.067,0.442-0.17,0.816-0.237,1.003h4.641v1.207H554.172z"/>
	<path fill="#FFFFFF" d="M559.647,244.602c-0.357-0.323-0.68-0.578-1.122-1.02c1.054-0.306,1.836-0.629,2.567-0.901v-3.927h-1.734
		l0.018-1.207l1.683,0.017l0.017-3.366l-2.04,0.017v-1.241l5.27,0.017v1.207h-1.887l-0.017,3.366l1.666-0.017v1.207h-1.666v3.434
		c0.493-0.187,1.224-0.527,2.057-0.833v1.275L559.647,244.602z M572.975,232.533l-0.034,7.395h-3.451v1.632h3.349v1.224h-3.383
		v1.955h4.539v1.207h-10.318v-1.207h4.471l0.018-1.955h-3.4v-1.224h3.383l0.018-1.632h-3.52v-7.412L572.975,232.533z
		 M568.146,235.559l0.018-1.802l-2.228-0.017v1.819H568.146z M565.937,236.765v1.955h2.21l0.018-1.972L565.937,236.765z
		 M569.473,236.782v1.921l2.192,0.017v-1.921L569.473,236.782z M569.507,235.576h2.176l0.033-1.819l-2.227-0.017L569.507,235.576z"
		/>
	<path fill="#FFFFFF" d="M319.744,266.276l-0.748-1.088c0.255-0.187,0.51-0.357,0.663-0.68v-6.612h-2.21v-1.241h3.468v7.395
		l2.073-1.343v1.394L319.744,266.276z M320.458,255.261c-0.493-1.02-1.225-1.819-2.143-2.566l0.901-0.782
		c0.952,0.646,1.768,1.564,2.312,2.533L320.458,255.261z M330.656,252.746v6.629h-3.28v1.003h4.352v1.224h-3.195
		c0.662,1.411,1.988,2.958,3.808,3.791l-1.003,0.901c-1.989-1.054-3.026-2.278-3.927-4.148l-0.034,5.066h-1.258v-5.1
		c-0.986,2.652-2.176,3.586-3.484,4.284l-0.986-0.935c1.768-0.918,2.703-2.176,3.349-3.859h-3.229v-1.224h4.352v-1.003h-3.281
		v-6.629H330.656z M326.118,255.397v-1.428h-2.022v1.428H326.118z M324.096,256.604v1.547h2.022v-1.547H324.096z M327.376,253.97
		v1.428h2.022v-1.428H327.376z M327.376,258.151h2.022v-1.547h-2.022V258.151z"/>
	<path fill="#FFFFFF" d="M347.13,265.206c0.595,0,1.224-0.034,1.988-0.136l-0.459,1.343h-7.87c-1.563,0-3.45-0.646-4.538-1.887
		c-0.34,0.799-0.969,1.938-1.581,2.635c-0.357-0.323-0.646-0.493-1.003-0.799c1.462-1.615,2.022-3.621,1.955-5.864l1.173,0.374
		c0.017,0.952-0.051,1.818-0.188,2.261c0.289,0.374,0.527,0.646,0.766,0.782v-3.91h-3.332v-1.224h7.581v1.241h-2.958v1.36h2.635
		v1.173h-2.635v2.142c0.646,0.289,1.547,0.493,2.347,0.493L347.13,265.206z M340.552,258.253h-5.423v-5.558l5.439-0.017
		L340.552,258.253z M336.387,255.992v1.02h2.94v-1.02H336.387z M336.403,254.751h2.907v-0.833h-2.907V254.751z M345.565,257.284
		c-0.017,1.343-0.017,2.618-0.237,3.91c-0.289,1.683-1.666,3.145-3.298,3.638l-0.663,0.204l-0.782-1.19
		c1.785-0.425,3.111-1.309,3.502-2.941c0.238-1.02,0.306-2.159,0.221-3.773L345.565,257.284z M345.396,253.953
		c-0.067,0.425-0.255,1.003-0.374,1.292h2.975v6.374h-1.224v-5.133h-3.604v5.133h-1.241v-6.374h1.684
		c0.271-0.408,0.425-0.935,0.526-1.326h-3.127v-1.224h7.615v1.241L345.396,253.953z M346.144,261.5
		c0.952,0.561,1.938,1.275,2.635,2.516l-0.969,0.935c-0.663-1.207-1.309-1.904-2.516-2.584L346.144,261.5z"/>
	<path fill="#FFFFFF" d="M352.18,258.627h13.174v1.411l-13.174,0.017V258.627z"/>
	<path fill="#FFFFFF" d="M382.473,267.024c-1.071-0.272-1.904-0.561-2.669-0.884c-1.632-0.68-2.958-1.563-3.978-3.96h-0.238
		c-0.73,2.261-2.516,3.366-4.164,4.097c-0.918,0.408-1.751,0.612-2.907,0.867l-0.73-1.156c2.227-0.374,4.198-0.986,5.66-2.567
		c0.391-0.408,0.68-0.901,0.799-1.241h-6.051v-1.241h6.425c0.034-0.255,0.119-0.748,0.153-1.105l1.173,0.068
		c0,0.306-0.068,0.731-0.136,1.037h6.85v1.241h-5.592c0.204,0.442,0.476,0.816,0.815,1.19c1.496,1.649,2.805,1.836,5.354,2.567
		L382.473,267.024z M376.013,256.435v3.195h-1.291v-2.958c-1.173,1.394-3.077,2.414-5.015,2.958
		c-0.408,0.119-0.646,0.238-1.037,0.272l-0.782-1.105c2.159-0.442,4.012-1.207,5.27-2.362h-4.589v-1.241h6.153v-3.281h1.291v3.281
		h6.154v1.241H376.013z M372.698,255.023c-0.544-0.731-1.614-1.666-2.38-2.057l0.97-0.765c0.85,0.357,1.869,1.19,2.498,1.938
		L372.698,255.023z M381.011,259.749c-1.326-0.901-3.213-1.717-4.709-2.125l0.663-0.935c1.666,0.357,3.213,1.037,4.709,2.057
		L381.011,259.749z M377.866,254.938l-0.969-0.901c0.969-0.425,2.176-1.224,2.635-1.972l1.036,0.714
		C379.991,253.562,378.937,254.53,377.866,254.938z"/>
	<path fill="#FFFFFF" d="M388.135,259.63c-0.103,2.261,0.017,5.202-2.074,7.684l-1.088-0.816c2.023-2.261,1.904-5.575,1.887-8.397
		l-0.017-3.247l6.289-0.017c-0.033-0.782-0.085-1.751-0.085-2.873h1.275c0.017,1.173,0.034,1.955,0.102,2.89h4.964v1.241
		l-4.879-0.017c0.153,1.598,0.357,3.451,1.003,5.134c1.021-1.326,1.581-2.635,2.176-4.232l1.173,0.391
		c-0.85,2.261-1.479,3.536-2.787,5.202c0.561,1.156,1.155,2.244,2.277,3.111c0.085,0.068,0.136,0.119,0.221,0.017
		c0.204-0.765,0.323-1.496,0.357-2.481l1.258,0.731c-0.085,0.935-0.425,1.666-0.663,2.414c-0.119,0.34-0.306,0.629-0.612,0.748
		c-0.781,0.289-1.444-0.374-1.938-0.918c-0.884-0.969-1.309-1.513-1.818-2.618c-1.055,1.122-2.125,2.057-3.434,2.855l-1.173-0.901
		c1.563-0.833,2.957-1.938,3.994-3.179c-0.782-1.955-1.071-4.165-1.292-6.255h-5.1v2.312h4.539c-0.051,1.258-0.17,2.838-0.374,3.893
		c-0.119,0.697-0.425,1.649-1.122,1.904c-0.697,0.238-1.513,0.102-2.244,0l-0.561-1.411c0.867,0.255,1.496,0.34,2.159,0.306
		c0.152,0,0.306-0.017,0.407-0.238c0.272-0.578,0.392-2.278,0.408-3.23H388.135z M398.215,254.514
		c-0.952-0.799-2.295-1.428-3.298-1.513l1.02-0.917c1.173,0.255,2.244,0.765,3.196,1.632L398.215,254.514z"/>
	<path fill="#FFFFFF" d="M408.993,267.194v-5.117c-0.459,0.697-1.037,1.377-1.733,1.955c-1.31,1.088-2.805,1.768-4.437,2.294
		l-0.885-1.037c1.564-0.408,2.891-1.037,4.063-1.853c0.629-0.442,1.206-1.02,1.529-1.411h-4.793v-1.258h6.255v-1.173l-4.572,0.017
		v-6.918l10.487-0.034l0.018,6.936l-4.606-0.017l0.017,1.19l6.222,0.017v1.241h-4.641c1.309,1.53,3.28,2.516,5.524,3.179
		c-0.272,0.459-0.544,0.714-0.782,1.088c-2.465-0.816-4.793-2.193-6.306-4.284l-0.034,5.218L408.993,267.194z M408.993,256.757
		h-3.298l-0.017,1.581l3.314-0.017V256.757z M405.713,255.517h3.28v-1.564l-3.28-0.017V255.517z M410.336,253.936v1.581h3.298
		l-0.017-1.581H410.336z M410.336,256.757v1.564h3.281l0.017-1.564H410.336z"/>
	<path fill="#FFFFFF" d="M433.744,261.313v1.241h-5.524c0.782,1.258,2.703,2.618,6.12,3.399l-0.936,1.139
		c-3.757-1.037-6-2.941-6.544-4.573h-0.17c-1.564,3.927-5.508,4.284-7.225,4.573l-0.833-1.122c2.278-0.425,5.627-1.037,6.578-3.417
		h-6.051v-1.241h6.748l0.357-1.156l1.274,0.153l-0.271,1.003H433.744z M424.412,260.735h-1.325v-2.975
		c-0.952,0.782-2.244,1.7-3.281,2.295l-0.867-1.258c1.174-0.544,2.891-1.717,4.131-2.566v-4.25h1.309L424.412,260.735z
		 M419.941,252.78c0.885,0.629,1.836,1.666,2.432,2.737l-1.021,1.003c-0.408-1.02-1.343-2.159-2.295-2.958L419.941,252.78z
		 M427.813,255.517c0.492,0.357,1.121,0.884,1.495,1.411c0.596-0.493,1.411-1.258,2.176-2.414h-3.62
		c-0.51,0.748-1.581,1.989-2.329,2.431l-1.003-0.969c1.309-0.816,2.431-2.006,3.213-4.148l1.139,0.476
		c-0.067,0.306-0.238,0.714-0.408,1.003h4.437l0.018,1.224c-1.462,2.805-3.688,4.709-7.514,5.576l-0.85-1.173
		c1.326-0.238,2.754-0.595,3.808-1.343c-0.493-0.527-0.952-0.969-1.513-1.275L427.813,255.517z"/>
</g>
</svg>
