<?xml version="1.0" encoding="utf-8"?>
<!-- Generator: Adobe Illustrator 16.0.0, SVG Export Plug-In . SVG Version: 6.00 Build 0)  -->
<!DOCTYPE svg PUBLIC "-//W3C//DTD SVG 1.1//EN" "http://www.w3.org/Graphics/SVG/1.1/DTD/svg11.dtd">
<svg version="1.1" id="Layer_1" xmlns="http://www.w3.org/2000/svg" xmlns:xlink="http://www.w3.org/1999/xlink" x="0px" y="0px"
	 width="768px" height="1024px" viewBox="0 0 768 1024" enable-background="new 0 0 768 1024" xml:space="preserve">
<rect x="465.11" y="283.64" opacity="0.698" fill="#328FC1" enable-background="new    " width="162.219" height="162.221"/>
<g>
	<g>
		<path fill="#FFFFFF" d="M481.08,310.13c2.136,0.175,5.216-0.245,5.216-3.045c0-2.065-1.646-3.255-3.466-3.255
			c-2.485,0-3.815,1.855-3.78,4.375h-4.726c0.175-5.005,3.431-8.471,8.471-8.471c3.921,0,8.227,2.416,8.227,6.791
			c0,2.31-1.154,4.375-3.431,5.005v0.07c2.695,0.595,4.34,2.835,4.34,5.565c0,5.146-4.305,8.051-9.101,8.051
			c-5.495,0-9.206-3.291-9.102-8.926h4.726c0.104,2.661,1.436,4.831,4.307,4.831c2.24,0,3.99-1.54,3.99-3.85
			c0-3.71-3.256-3.641-5.671-3.641V310.13z"/>
	</g>
</g>
<g>
	<path fill="#FFFFFF" d="M475.98,354.965v-9.748h7.194l-0.021-4.027h1.76l-0.044,4.005l7.173,0.021v9.659h-1.738v-1.496h-5.435
		l0.044,7.415h-1.738l-0.021-7.415h-5.392l-0.044,1.584L475.98,354.965L475.98,354.965z M483.154,346.824h-5.436v4.973h5.456
		L483.154,346.824z M490.261,346.824h-5.347v4.951h5.369L490.261,346.824z"/>
	<path fill="#FFFFFF" d="M512.415,360.664v-1.541h-13.399v1.541h-1.673v-18.659h16.636v18.659H512.415z M512.415,343.611h-13.399
		v13.994h13.399V343.611z M499.455,356.021v-1.518h5.325v-3.74h-4.379v-1.519h4.379v-2.794h-5.127v-1.518h11.991v1.518h-5.304v2.794
		h4.601v1.519h-4.601v3.74h5.523v1.518H499.455z M509.818,354.349c-0.857-1.122-1.629-1.893-2.729-2.53l1.078-0.858
		c0.924,0.55,2.112,1.408,2.816,2.552L509.818,354.349z"/>
	<path fill="#FFFFFF" d="M523.458,353.007v4.797l2.685-1.32v1.694l-3.719,1.958l-0.969-1.54c0.198-0.242,0.286-0.506,0.286-1.1
		v-4.489h-3.104V351.4h3.104v-2.288h-0.99c-0.483,0.66-0.968,1.1-1.826,1.848l-1.231-1.32c2.003-1.628,3.41-4.643,3.652-8.339
		l1.584,0.418c0.065,1.188-0.109,2.311-0.197,2.508h3.321v1.606h-3.719c-0.197,0.616-0.483,1.232-0.682,1.672h4.181v1.606h-2.376
		v2.288h2.75v1.606h-2.75V353.007z M536.857,360.576c-1.299-0.33-2.377-1.012-3.322-1.804c-1.87-1.914-2.839-4.422-3.036-6.887
		h-1.827v6.755l3.323-1.122v1.65l-4.467,1.628l-0.837-1.54c0.241-0.242,0.265-0.484,0.265-0.946v-16.106h8.229v9.682h-3.103
		c0.088,1.012,0.418,2.288,0.813,3.058c0.926-0.462,1.762-1.342,2.598-2.64l1.275,1.012c-0.945,1.386-2.091,2.332-3.189,2.948
		c0.771,1.342,2.486,2.354,4.443,2.86L536.857,360.576z M533.535,343.81h-4.863v2.398h4.863V343.81z M533.535,347.726h-4.863v2.552
		h4.863V347.726z"/>
	<path fill="#FFFFFF" d="M540.221,352.721c2.772-1.584,4.974-4.048,6.777-6.623L548.34,347c-0.616,1.122-1.87,2.596-2.685,3.586
		v10.144h-1.694v-8.405c-0.374,0.352-1.604,1.166-2.441,1.76L540.221,352.721z M540.507,346.67c2.312-1.606,4.093-3.586,5.566-5.897
		l1.299,1.012c-1.476,2.222-3.301,4.555-5.392,6.029L540.507,346.67z M550.584,358.926c1.122,0.088,2.091,0.088,3.037,0.066
		c0.241-0.066,0.482-0.22,0.482-0.528v-9.021h-5.633v-1.628l11.332,0.022v1.606l-3.917,0.022l-0.021,9.197
		c0,0.77-0.396,1.342-0.946,1.672c-0.594,0.33-2.685,0.308-3.807,0.264L550.584,358.926z M558.461,344.118H549l-0.021-1.628
		l9.482-0.022V344.118z"/>
	<path fill="#FFFFFF" d="M562.573,359.63v-1.606h6.425v-16.238h1.716v16.238h2.553v-16.238h1.65v16.238h6.381v1.606H562.573z
		 M566.027,355.779c-0.11-2.993-1.122-6.051-2.224-8.537l1.432-0.682c1.122,2.464,2.155,5.544,2.464,8.493L566.027,355.779z
		 M577.183,356.043l-1.407-0.858c1.519-2.002,2.574-5.941,2.729-8.581l1.52,0.55C579.581,350.608,578.635,353.799,577.183,356.043z"
		/>
	<path fill="#FFFFFF" d="M587.982,346.076h2.707v1.65h-2.686v12.96h-1.672v-12.938h-2.112v-1.672h2.091v-4.995h1.672V346.076z
		 M593.354,349.729c-0.396,1.87-1.232,3.432-2.466,4.951c-0.527-0.33-0.924-0.528-1.43-0.924c1.166-1.474,2.002-2.882,2.442-4.687
		L593.354,349.729z M601.758,349.222c1.188,1.43,1.958,2.993,2.2,4.841c-0.528,0.286-0.925,0.418-1.519,0.704
		c-0.375-1.628-0.836-2.926-1.432-3.873c-0.22,2.772-0.55,5.677-1.034,8.031c-0.152,0.748-0.944,1.452-1.692,1.563
		c-0.969,0.132-1.871-0.11-2.816-0.33l-0.133-1.738c1.034,0.176,1.782,0.572,2.486,0.374c0.353-0.308,0.483-0.77,0.595-1.254
		c0.616-2.508,0.924-7.657,0.968-10.672h-2.859c-0.045,0.22-0.021,0.638-0.021,1.123c-0.045,1.518-0.109,3.278-0.463,4.729
		c-0.792,3.168-2.09,5.589-5.082,8.009l-1.211-1.32c2.068-1.606,3.564-3.608,4.269-5.809c0.66-2.112,0.858-4.511,0.794-6.689h-3.72
		v-1.694h3.72l0.021-4.181l1.628-0.022c0.089,1.32,0.021,3.564,0.021,4.203h4.6c0.088,1.738,0.044,3.278-0.044,4.334
		L601.758,349.222z"/>
	<path fill="#FFFFFF" d="M624.527,352.017c-1.54-0.814-3.322-2.046-4.444-3.125v0.902h-8.735v-0.858
		c-0.989,0.924-2.002,1.76-4.158,3.037l-1.299-1.298c1.65-0.814,3.036-1.738,4.226-2.794c2.465-2.2,3.961-4.247,5.303-6.821
		l1.519,0.704l-0.483,0.748c1.914,2.53,3.651,4.819,6.667,6.667l2.53,1.563L624.527,352.017z M622.679,360.312
		c-0.462-0.572-0.88-1.1-1.166-1.32l-8.427,1.078l-3.301,0.506l-1.057-1.892c2.179-1.452,4.576-3.477,6.028-5.193h-6.975v-1.496
		h15.798v1.496h-8.075l1.034,0.771c-2.112,2.2-3.19,3.168-5.259,4.422l8.516-1.056c-0.572-0.418-1.21-0.77-2.135-1.21l1.122-1.123
		c1.057,0.44,1.893,1.034,2.795,1.606c0.748,0.638,1.65,1.342,2.376,2.311L622.679,360.312z M615.616,344.096
		c-0.728,1.122-2.421,3.059-3.499,4.114h7.35C617.597,346.67,616.54,345.372,615.616,344.096z"/>
</g>
<g>
	<path fill="#FFFFFF" d="M474,393.495c2.021-0.629,3.042-1.105,5.15-1.87v1.275l-4.506,1.666L474,393.495z M478.878,389.177v1.122
		c-1.343,0.289-2.532,0.578-4.317,1.122l-0.476-1.156c1.003-1.003,1.954-2.55,2.498-3.399c-0.17-0.017-1.359,0.221-1.938,0.374
		l-0.526-1.021c0.867-1.394,1.921-3.383,2.635-5.507l1.105,0.612c-0.578,1.87-1.429,3.434-2.159,4.539
		c0.255-0.034,0.936-0.136,1.513-0.221c0.34-0.595,0.663-1.275,0.833-1.92l1.071,0.595c-0.782,1.955-1.632,3.91-3.111,5.524
		L478.878,389.177z M482.362,390.503c-0.407,1.479-1.376,3.06-2.432,4.045l-1.139-0.714c0.935-0.867,2.159-2.958,2.499-3.995
		L482.362,390.503z M479.422,382.446h3.604c-0.188-0.272-0.646-0.782-1.259-1.258l1.122-0.884c0.748,0.731,1.326,1.479,1.718,2.143
		h3.535v3.349h-1.31v-2.091h-6.085v2.091h-1.326V382.446L479.422,382.446z M482.924,394.548c0.17,0.017,0.323-0.085,0.323-0.34v-5.1
		h-3.723v-1.258h8.939v1.258h-3.875l0.017,5.287c0,0.714-0.425,1.394-1.428,1.394h-1.529l-0.526-1.36L482.924,394.548z
		 M486.289,386.389h-4.878v-1.241h4.878V386.389z M486.307,389.789c1.121,1.207,1.922,2.516,2.668,3.893l-1.154,0.646
		c-0.646-1.394-1.411-2.601-2.499-3.825L486.307,389.789z"/>
	<path fill="#FFFFFF" d="M499.788,380.797c-0.188,0.187-0.374,0.374-0.527,0.527c1.989,2.516,5.56,4.979,7.088,5.457
		c-0.288,0.476-0.577,0.765-0.85,1.139c-0.629-0.255-1.188-0.476-3.45-2.125c-1.14-0.85-2.533-2.533-3.451-3.621
		c-1.581,1.887-3.246,3.467-6.9,5.949l-0.918-1.02c3.791-2.448,6.73-5.542,7.751-7.156L499.788,380.797z M502.186,395.704
		l-0.019-1.054h-7.188v1.139h-1.36v-6.323h9.944v6.238H502.186L502.186,395.704z M502.796,387.664h-8.532v-1.309h8.517
		L502.796,387.664z M494.994,393.358h7.173l0.019-2.618h-7.19L494.994,393.358L494.994,393.358z"/>
	<path fill="#FFFFFF" d="M513.388,388.429c-0.833,1.989-2.176,3.706-3.841,5.252l-0.9-0.935c0.951-0.714,3.179-3.366,3.653-5.032
		L513.388,388.429z M516.465,394.463c0,0.68-0.391,1.003-0.85,1.19c-0.782,0.17-1.666,0.051-2.518,0.119
		c-0.187-0.493-0.306-0.867-0.51-1.462c0.884,0.085,1.564,0.153,2.227,0.102c0.172-0.051,0.272-0.238,0.272-0.493l0.034-7.19h-5.813
		v-1.258h12.834v1.258h-5.678L516.465,394.463L516.465,394.463z M521.055,383.023h-10.591v-1.258l10.591,0.017V383.023z
		 M518.776,387.783c1.666,1.156,2.924,2.805,4.165,5.014l-1.056,0.884c-0.918-1.768-2.276-3.672-4.112-5.015L518.776,387.783z"/>
	<path fill="#FFFFFF" d="M527.532,391.081c-0.544-1.275-1.615-2.159-2.651-2.822l0.696-0.935c1.037,0.476,2.465,1.598,2.924,2.72
		L527.532,391.081z M524.948,394.872c1.751-0.918,3.145-2.754,3.978-4.301l1.071,0.748c-0.833,1.819-2.584,3.569-4.028,4.504
		L524.948,394.872z M529.997,383.754v1.649h-1.326v-1.649h-3.604v-1.241h3.604v-1.648h1.326v1.648h4.896v-1.648h1.31v1.648h3.655
		v1.241h-3.655v1.649h-1.31v-1.649H529.997z M529.063,388.65c-0.629-1.241-1.666-2.091-2.839-2.72l0.781-0.935
		c1.156,0.561,2.313,1.496,2.992,2.669L529.063,388.65z M532.189,387.171v6.596c0,0.153,0.17,0.289,0.356,0.323h5.56
		c0.187-0.051,0.289-0.119,0.459-0.34c0.236-0.51,0.34-1.326,0.459-2.142l1.188,0.527c-0.085,0.816-0.187,1.632-0.493,2.329
		c-0.391,0.646-0.951,0.884-1.887,0.884h-5.626c-0.459,0-0.952-0.476-1.19-0.867c-0.203-0.323-0.187-0.799-0.187-1.173v-7.395h7.225
		c-0.034,1.819-0.086,3.604-0.341,5.219c-0.085,0.493-0.51,0.952-0.984,1.088c-0.8,0.204-1.684,0.068-2.551,0l-0.425-1.394
		c0.9,0.136,1.632,0.238,2.313,0.204c0.255-0.103,0.356-0.272,0.407-0.562c0.119-0.68,0.237-2.261,0.204-3.298H532.189z"/>
	<path fill="#FFFFFF" d="M544.379,383.482h2.652c-0.272-0.68-1.071-1.734-1.819-2.396l0.937-0.731
		c0.662,0.476,1.528,1.462,2.242,2.72l-0.525,0.374l2.072,0.034c0.596-0.578,1.377-1.836,1.785-3.025l1.189,0.561
		c-0.407,1.054-1.07,2.091-1.428,2.465h2.839v6.068h-4.317v1.395h6.833v1.189h-6.851v3.501h-1.258v-3.483h-6.715v-1.19h6.731v-1.411
		h-4.369L544.379,383.482L544.379,383.482z M548.73,387.086h-3.076v1.292h3.076V387.086z M548.748,385.845v-1.139h-3.077v1.139
		H548.748z M549.988,384.707v1.139h3.094v-1.139H549.988z M553.064,387.069h-3.06v1.309h3.06V387.069z"/>
	<path fill="#FFFFFF" d="M558.796,388.004c2.702-2.618,3.212-5.422,4.063-7.36l1.173,0.544c-0.442,1.326-0.867,2.55-1.36,3.689
		v10.981h-1.309v-8.771c-0.103,0.153-0.867,1.173-1.411,1.751L558.796,388.004z M574.196,394.803l-10.643,0.018v-1.275h4.591
		c1.359-2.414,2.516-4.929,2.686-7.989l1.292,0.493c-0.188,2.567-1.292,5.083-2.532,7.496h4.589L574.196,394.803z M563.946,385.386
		l-0.019-1.275l9.417-0.017v1.275L563.946,385.386z M566.732,392.645c-0.066-2.38-0.661-4.267-1.834-6.238l1.358-0.289
		c1.088,1.921,1.683,3.96,1.854,6.255L566.732,392.645z M567.329,380.61c0.866,0.561,1.887,1.853,2.328,2.873l-1.225,0.544
		c-0.493-1.122-1.173-1.989-2.295-2.72L567.329,380.61z"/>
	<path fill="#FFFFFF" d="M590.72,389.874v1.241h-5.523c0.782,1.258,2.702,2.618,6.12,3.4l-0.937,1.139
		c-3.757-1.037-6-2.941-6.544-4.573h-0.17c-1.564,3.927-5.508,4.284-7.225,4.573l-0.833-1.122c2.277-0.425,5.627-1.037,6.577-3.417
		h-6.051v-1.241h6.748l0.357-1.156l1.273,0.153l-0.271,1.003H590.72z M581.388,389.296h-1.325v-2.975
		c-0.951,0.782-2.243,1.7-3.28,2.295l-0.867-1.258c1.174-0.544,2.891-1.717,4.131-2.566v-4.25h1.31L581.388,389.296z
		 M576.917,381.341c0.885,0.629,1.836,1.666,2.432,2.737l-1.021,1.003c-0.408-1.02-1.343-2.159-2.295-2.958L576.917,381.341z
		 M584.788,384.078c0.492,0.357,1.121,0.884,1.495,1.411c0.596-0.493,1.411-1.258,2.176-2.414h-3.62
		c-0.51,0.748-1.581,1.989-2.329,2.431l-1.003-0.969c1.31-0.816,2.432-2.006,3.213-4.148l1.14,0.476
		c-0.067,0.306-0.238,0.714-0.408,1.003h4.437l0.019,1.224c-1.462,2.805-3.688,4.708-7.514,5.575l-0.851-1.173
		c1.326-0.238,2.754-0.595,3.808-1.343c-0.492-0.527-0.951-0.969-1.513-1.275L584.788,384.078z"/>
	<path fill="#FFFFFF" d="M601.159,389.874c-0.393-0.646-1.311-1.734-2.074-2.397l0.952-0.952c0.884,0.663,1.768,1.496,2.328,2.176
		L601.159,389.874z"/>
	<path fill="#FFFFFF" d="M612.243,387.613c-0.204,0.289-0.799,0.969-1.395,1.615c-0.425-0.238-0.73-0.493-1.189-0.748
		c2.228-2.329,3.485-5.015,4.182-8.023l1.207,0.459c-0.391,1.581-0.884,2.906-1.513,4.352l-0.018,10.521l-1.274-0.017V387.613z
		 M624.771,387.817c-2.144-1.003-4.132-3.399-5.236-5.167c-0.9,1.666-2.771,3.978-5.014,5.134l-0.918-1.054
		c2.752-1.241,4.622-3.756,5.744-6.476c0.51,0.272,0.715,0.408,1.122,0.629l-0.204,0.493c1.189,2.108,3.061,4.25,5.524,5.372
		L624.771,387.817z M618.125,389.891c0,1.377-0.188,2.414-0.952,3.553c-0.646,0.952-1.496,1.7-2.601,2.465l-0.969-1.071
		c1.717-0.816,3.229-2.737,3.229-4.25v-4.199l1.292-0.017L618.125,389.891L618.125,389.891z M622.34,395.738h-1.291v-9.349
		l1.291-0.017V395.738z"/>
	<path fill="#FFFFFF" d="M483.009,402.302c0.085-0.356,0.119-0.833,0.136-1.428l1.31,0.221c0,0.527-0.067,0.952-0.136,1.207h4.216
		v1.224h-4.454c-0.118,0.442-0.34,0.952-0.477,1.292h3.858v9.451h1.666l-0.017,1.241H477.84l0.018-1.224l1.444-0.017l0.019-9.451
		h2.872c0.188-0.408,0.392-0.918,0.493-1.292h-4.472v-0.901c-0.271,1.003-0.646,1.955-1.037,2.805l0.019,10.777h-1.292v-8.448
		c-0.119,0.188-0.596,0.748-1.122,1.343l-1.055-0.731c1.938-2.176,2.992-4.726,3.588-7.462l1.173,0.408
		c-0.052,0.357-0.153,0.782-0.204,0.986L483.009,402.302L483.009,402.302z M480.595,406.058l0.019,1.037l5.574,0.018v-1.054H480.595
		z M486.188,409.373v-1.19l-5.574,0.017v1.173H486.188z M480.612,410.495v1.258h5.575v-1.258H480.612z M480.612,412.857v1.411
		l5.575,0.017l-0.019-1.428H480.612z"/>
	<path fill="#FFFFFF" d="M498.921,408.574c0.153,2.601-0.833,4.369-1.615,5.185c-1.343,1.377-3.501,2.023-5.541,2.329l-0.851-1.156
		c1.734-0.238,2.976-0.612,4.216-1.207c1.785-0.867,2.499-2.482,2.55-5.185L498.921,408.574z M497.629,403.016h-4.641v-1.207h10.59
		v1.224h-4.675v1.683h6.596v1.173h-14.432v-1.173h6.562V403.016z M502.933,406.806v5.813h-1.24v-4.641h-6.833v5.032l-1.225-0.017
		v-6.188L502.933,406.806L502.933,406.806z M504.021,416.07c-1.311-1.122-3.707-2.533-5.475-3.162l0.73-0.969
		c1.326,0.459,4.216,1.615,5.593,3.179L504.021,416.07z"/>
	<path fill="#FFFFFF" d="M510.021,415.968h-1.309v-10.76h3.501v-1.36h-4.182l-0.018-1.275h4.198v-1.836h1.311v1.853l4.367-0.017
		v1.275h-4.367v1.36h3.723v9.264l-0.018,0.204c1.359-1.717,1.614-3.247,1.632-5.372l0.034-3.008l-1.463,0.017v-1.292h1.445v-4.233
		h1.291l-0.017,1.36l1.003-0.544c0.833,0.782,1.343,1.649,1.683,2.669c-0.391,0.238-0.696,0.408-1.104,0.612
		c-0.374-1.02-0.663-1.683-1.581-2.465v2.601h2.788v1.275h-1.615c0.034,0.935,0.051,2.125,0.188,3.247
		c0.237,1.921,0.73,3.893,1.803,5.49l-0.986,0.935c-1.666-2.329-2.04-5.32-2.159-8.244c-0.033,1.7-0.17,3.773-0.595,5.048
		c-0.356,1.105-0.815,2.159-1.614,3.196l-1.037-0.714c-0.833,0.799-1.581,0.544-2.533,0.51l-0.459-1.36l1.666,0.085
		c0.272,0.017,0.357-0.188,0.357-0.442l-0.018-7.564h-1.325l0.899,0.391c-0.391,1.207-0.833,1.887-1.121,2.295h1.24v1.224h-2.021
		l-0.019,1.139h2.193v1.207h-2.176v2.397l-1.292-0.017v-2.38h-2.125v-1.224h2.125v-1.122h-1.973v-1.224h1.377
		c-0.203-0.663-0.815-1.36-1.633-2.125l0.937-0.527l-1.003-0.034V415.968L510.021,415.968z M512.929,409.169
		c0.612-0.816,1.003-1.564,1.343-2.686h-3.041c0.85,0.73,1.343,1.513,1.768,2.499l-0.374,0.153L512.929,409.169z"/>
	<path fill="#FFFFFF" d="M539.72,410.274v1.241h-5.523c0.782,1.258,2.702,2.618,6.12,3.399l-0.937,1.139
		c-3.757-1.037-6-2.941-6.544-4.573h-0.17c-1.564,3.927-5.508,4.284-7.225,4.573l-0.833-1.122c2.277-0.425,5.627-1.037,6.577-3.417
		h-6.051v-1.241h6.748l0.357-1.156l1.273,0.153l-0.271,1.003L539.72,410.274L539.72,410.274z M530.388,409.696h-1.325v-2.976
		c-0.951,0.782-2.243,1.7-3.28,2.295l-0.867-1.258c1.174-0.544,2.891-1.717,4.131-2.566v-4.25h1.31L530.388,409.696z
		 M525.917,401.741c0.885,0.629,1.836,1.666,2.432,2.737l-1.021,1.003c-0.408-1.02-1.343-2.159-2.295-2.958L525.917,401.741z
		 M533.788,404.478c0.492,0.357,1.121,0.884,1.495,1.411c0.596-0.493,1.411-1.258,2.176-2.414h-3.62
		c-0.51,0.748-1.581,1.989-2.329,2.431l-1.003-0.969c1.31-0.816,2.432-2.006,3.213-4.148l1.14,0.476
		c-0.067,0.306-0.238,0.714-0.408,1.003h4.437l0.019,1.224c-1.462,2.805-3.688,4.709-7.514,5.576l-0.851-1.173
		c1.326-0.238,2.754-0.595,3.808-1.343c-0.492-0.527-0.951-0.969-1.513-1.275L533.788,404.478z"/>
	<path fill="#FFFFFF" d="M550.159,410.274c-0.393-0.646-1.311-1.734-2.074-2.397l0.952-0.952c0.884,0.663,1.768,1.496,2.328,2.176
		L550.159,410.274z"/>
	<path fill="#FFFFFF" d="M558.813,408.965c1.819-1.938,3.502-5.303,4.098-8.193l1.207,0.51c-0.426,1.615-0.646,2.346-1.241,3.808
		v10.964l-1.326,0.018v-8.38c-0.033,0.051-1.104,1.598-1.632,2.091L558.813,408.965z M568.569,405.14h5.389v1.224h-5.439
		l-0.051,0.68h1.07v6.986c0,0.17,0.085,0.34,0.289,0.34h2.431c0.341,0,0.374-0.17,0.477-0.442c0.103-0.441,0.152-1.054,0.171-1.802
		l1.258,0.969c-0.153,0.917-0.425,2.499-1.31,2.499h-3.502c-0.867,0-1.173-0.476-1.173-1.104v-5.524
		c-0.255,1.666-0.833,3.791-2.362,5.524c-0.511,0.561-1.207,1.207-2.039,1.648l-0.867-1.02c2.447-1.479,3.417-3.671,3.961-6.102
		c0.187-0.799,0.306-1.938,0.322-2.635h-3.672v-1.241h3.705l0.019-4.215l1.325,0.017L568.569,405.14L568.569,405.14z
		 M571.612,405.038c-0.595-1.02-1.479-1.75-2.448-2.464l0.97-0.833c0.951,0.646,1.802,1.53,2.532,2.499L571.612,405.038z"/>
	<path fill="#FFFFFF" d="M584.329,408.744h-1.31v-2.873c-1.055,1.241-2.262,2.516-6.019,3.859l-0.832-1.156
		c1.92-0.578,3.943-1.598,5.185-2.753h-4.438l0.018-1.241h6.086v-1.292c-1.036,0.119-3.604,0.238-4.964,0.238l-0.681-1.309
		c2.805,0.238,8.551-0.204,11.372-1.275l0.748,0.986c-1.818,0.629-3.468,0.986-5.167,1.173l-0.018,1.496l6.137-0.017v1.241h-4.454
		c1.496,1.394,3.146,2.074,5.27,2.652l-0.799,1.156c-2.431-0.663-4.487-1.853-6.136-3.672L584.329,408.744L584.329,408.744z
		 M582.765,410.291c-0.391,4.402-4.097,5.49-5.745,5.83l-0.815-1.258c2.448-0.357,4.692-1.139,5.202-4.572h-2.38l0.017-1.207h8.296
		l-0.526,2.244h3.16c-0.236,1.241-0.425,2.261-0.916,3.451c-0.289,0.68-0.952,1.139-1.819,1.122
		c-0.884-0.017-1.769-0.136-2.687-0.374l-0.255-1.343c1.14,0.272,2.04,0.459,3.043,0.425c0.747-0.017,0.951-1.36,1.07-2.057h-3.213
		l0.526-2.261H582.765z"/>
	<path fill="#FFFFFF" d="M598.592,401.333l-0.136,0.374c1.377,2.397,2.669,4.199,4.453,5.524l-0.936,1.071
		c-0.595-0.51-0.985-0.935-1.224-1.207c-0.153,1.785-0.459,4.011-0.901,5.133c-0.221,0.561-0.799,0.68-1.273,0.68
		c-0.527-0.068-1.021-0.204-1.564-0.374c-0.102-0.442-0.151-0.799-0.255-1.394c0.682,0.289,1.141,0.476,1.649,0.527
		c0.391-0.068,0.374-0.527,0.525-0.901c0.289-1.037,0.442-2.074,0.478-3.042h-3.536v6.102c0,0.289,0.17,0.442,0.34,0.442h4.606
		c0.256-0.068,0.356-0.34,0.392-0.629l0.271-1.139l1.14,0.561c-0.255,0.918-0.373,2.261-1.665,2.38h-4.845
		c-0.97,0-1.514-0.663-1.514-1.36v-6.459c-0.137,0.102-0.646,0.442-1.292,0.833l-0.815-1.139c1.563-0.714,2.55-1.75,3.366-2.975
		c0.662-1.003,1.258-2.295,1.632-3.519L598.592,401.333z M600.207,406.517c-0.578-0.748-1.666-2.193-2.313-3.399
		c-0.441,1.104-1.291,2.481-2.158,3.382L600.207,406.517z M603.113,412.381v-8.822h1.258v8.822H603.113z M605.663,400.958h1.258
		v13.956c0,0.561-0.322,1.105-1.054,1.173l-1.836-0.017l-0.392-1.258l1.733,0.085c0.153,0,0.289-0.17,0.289-0.561L605.663,400.958
		L605.663,400.958z"/>
	<path fill="#FFFFFF" d="M613.314,411.158c-0.715,1.462-1.514,2.516-2.873,3.298l-0.766-1.003c1.344-0.748,2.158-1.734,2.721-2.992
		L613.314,411.158z M614.963,414.948c0,0.663-0.51,1.394-1.292,1.394h-1.377l-0.44-1.36l1.358,0.102
		c0.17,0.017,0.425-0.187,0.425-0.408v-4.624H610.9v-1.241h2.735v-1.207h-3.331v-1.258h2.447c-0.118-0.493-0.525-1.122-1.309-1.717
		l1.122-0.459c0.714,0.561,1.224,1.326,1.462,2.176h0.714c0.561-0.561,0.985-1.411,1.188-2.142l1.141,0.459
		c-0.188,0.595-0.578,1.292-0.952,1.683h2.021v1.258h-3.179v1.207h2.703v1.241h-2.703v1.207l0.493-0.629
		c0.799,0.493,1.563,1.292,2.125,2.244l-0.867,0.986c-0.425-1.02-1.188-1.751-1.751-2.176v3.264H614.963z M613.52,402.659
		c-0.153-0.272-0.512-0.748-1.071-1.309l1.241-0.578c0.544,0.646,1.003,1.292,1.207,1.887h2.871v1.241h-7.037v-1.241H613.52z
		 M624.567,402.03c-1.53,0.884-3.095,1.309-4.606,1.581v2.431h4.878v1.241h-1.903v8.855h-1.31v-8.855h-1.665v2.192
		c0,2.261-0.748,4.59-2.058,6.613l-1.155-0.816c1.563-2.142,1.903-4.454,1.903-7.088l-0.018-5.609
		c1.888-0.221,3.52-0.731,5.116-1.598L624.567,402.03z"/>
	<path fill="#FFFFFF" d="M488.72,430.674v1.241h-5.523c0.782,1.258,2.703,2.618,6.12,3.399l-0.937,1.14
		c-3.757-1.037-6-2.941-6.544-4.573h-0.17c-1.564,3.927-5.508,4.284-7.225,4.573l-0.834-1.122c2.278-0.425,5.628-1.037,6.578-3.417
		h-6.051v-1.241h6.748l0.357-1.156l1.273,0.153l-0.271,1.003H488.72z M479.388,430.096h-1.325v-2.975
		c-0.951,0.782-2.243,1.7-3.28,2.295l-0.867-1.258c1.174-0.544,2.891-1.717,4.131-2.566v-4.25h1.31L479.388,430.096z
		 M474.917,422.141c0.885,0.629,1.836,1.666,2.432,2.737l-1.021,1.003c-0.408-1.02-1.343-2.159-2.295-2.958L474.917,422.141z
		 M482.788,424.877c0.492,0.357,1.121,0.884,1.495,1.411c0.596-0.493,1.411-1.258,2.176-2.414h-3.62
		c-0.51,0.748-1.581,1.989-2.329,2.431l-1.003-0.969c1.31-0.816,2.431-2.006,3.213-4.148l1.14,0.477
		c-0.067,0.306-0.238,0.714-0.408,1.003h4.437l0.019,1.224c-1.462,2.806-3.688,4.708-7.514,5.575l-0.851-1.173
		c1.326-0.238,2.754-0.595,3.808-1.343c-0.492-0.527-0.951-0.969-1.513-1.275L482.788,424.877z"/>
	<path fill="#FFFFFF" d="M499.159,430.674c-0.393-0.646-1.311-1.734-2.074-2.396l0.952-0.952c0.884,0.663,1.768,1.496,2.328,2.176
		L499.159,430.674z"/>
	<path fill="#FFFFFF" d="M507.813,429.365c1.819-1.938,3.502-5.303,4.098-8.193l1.207,0.51c-0.426,1.615-0.646,2.347-1.241,3.809
		v10.964l-1.326,0.017v-8.38c-0.033,0.051-1.104,1.599-1.632,2.091L507.813,429.365z M517.569,425.54h5.389v1.224h-5.439
		l-0.051,0.681h1.07v6.985c0,0.17,0.085,0.34,0.289,0.34h2.431c0.341,0,0.374-0.17,0.477-0.441c0.103-0.442,0.152-1.054,0.171-1.802
		l1.258,0.969c-0.153,0.917-0.425,2.499-1.31,2.499h-3.502c-0.867,0-1.173-0.477-1.173-1.105v-5.523
		c-0.255,1.666-0.833,3.791-2.362,5.523c-0.511,0.562-1.207,1.207-2.039,1.649l-0.867-1.021c2.447-1.479,3.417-3.671,3.961-6.102
		c0.187-0.799,0.306-1.938,0.322-2.635h-3.672v-1.241h3.705l0.019-4.215l1.325,0.017L517.569,425.54L517.569,425.54z
		 M520.612,425.438c-0.595-1.02-1.479-1.75-2.448-2.464l0.97-0.833c0.951,0.646,1.802,1.53,2.532,2.499L520.612,425.438z"/>
	<path fill="#FFFFFF" d="M533.329,429.145h-1.31v-2.873c-1.055,1.24-2.262,2.516-6.019,3.858l-0.832-1.156
		c1.92-0.577,3.943-1.598,5.185-2.753h-4.438l0.018-1.24h6.086v-1.293c-1.036,0.119-3.604,0.238-4.964,0.238l-0.681-1.309
		c2.805,0.238,8.551-0.204,11.372-1.275l0.748,0.986c-1.818,0.629-3.468,0.986-5.167,1.173l-0.018,1.496l6.137-0.017v1.24h-4.454
		c1.496,1.395,3.146,2.074,5.27,2.652l-0.799,1.156c-2.431-0.663-4.487-1.854-6.136-3.672L533.329,429.145L533.329,429.145z
		 M531.765,430.689c-0.391,4.403-4.097,5.491-5.745,5.832l-0.815-1.259c2.448-0.356,4.692-1.139,5.202-4.573h-2.38l0.017-1.206
		h8.296l-0.526,2.243h3.16c-0.236,1.241-0.425,2.262-0.916,3.451c-0.289,0.68-0.952,1.14-1.819,1.122
		c-0.884-0.017-1.769-0.136-2.687-0.374l-0.255-1.343c1.14,0.272,2.04,0.458,3.043,0.425c0.747-0.017,0.951-1.359,1.07-2.057h-3.213
		l0.526-2.262H531.765z"/>
	<path fill="#FFFFFF" d="M548.34,422.124v12.97c0,0.477-0.68,1.122-1.443,1.122h-1.515c-0.136-0.441-0.289-0.782-0.491-1.309
		c0.765,0,1.309,0.067,1.853-0.018c0.136-0.034,0.289-0.152,0.323-0.493v-3.213l-2.313,0.018c-0.102,1.445-0.187,3.553-1.698,5.457
		l-1.055-0.8c1.309-1.769,1.461-3.639,1.461-5.882v-7.837L548.34,422.124z M544.771,423.398v2.601h2.261v-2.618L544.771,423.398z
		 M547.064,427.223l-2.295,0.018v2.703h2.262L547.064,427.223z M550.736,429.042v7.563l-1.31,0.034v-14.5h6.816
		c-0.103,1.326-0.188,2.499-0.511,3.688c-0.152,0.595-0.781,1.02-1.343,1.054c-0.596,0.051-1.258-0.017-1.921-0.119l-0.374-1.359
		c0.799,0.118,1.429,0.271,2.073,0.289c0.137,0.017,0.204-0.068,0.271-0.255c0.137-0.426,0.307-1.547,0.341-2.041h-4.046
		l-0.018,4.387h5.541c-0.102,1.139-0.289,2.106-0.595,3.024s-0.629,1.819-1.07,2.602c0.662,0.815,1.599,1.428,2.651,2.125
		l-0.766,0.969c-1.121-0.663-1.785-1.173-2.55-1.955c-0.392,0.51-1.36,1.445-2.244,2.176c-0.323-0.306-0.544-0.577-0.884-0.935
		c1.021-0.799,1.666-1.411,2.261-2.244c-0.833-1.207-1.428-2.72-1.717-4.504L550.736,429.042L550.736,429.042z M552.623,429.025
		c0.119,1.02,0.663,2.447,1.122,3.246c0.544-1.088,0.901-2.295,1.139-3.246H552.623z"/>
	<path fill="#FFFFFF" d="M565.034,421.987c-0.188,0.425-0.357,0.714-0.408,0.815h6.356l0.018,1.156
		c-1.003,1.241-2.021,2.04-3.076,2.805c0.221,0.17,0.748,0.34,1.225,0.578c1.598,0.596,3.279,1.055,5.234,1.428l-0.833,1.14
		c-2.446-0.527-4.759-1.19-6.765-2.38c-1.938,1.292-4.947,2.158-7.564,2.566l-0.526-1.224c2.04-0.34,3.825-0.799,5.575-1.445
		c0.459-0.221,1.002-0.493,1.344-0.68c-0.731-0.562-1.7-1.139-2.295-1.955c-0.748,0.884-1.836,1.802-3.111,2.312l-0.969-1.173
		c2.617-0.969,3.876-2.481,4.675-4.572L565.034,421.987z M566.802,428.889c-0.017,0.646,0.034,0.936-0.017,1.31h4.827
		c-0.034,1.887-0.222,3.621-0.731,5.185c-0.152,0.527-0.611,0.986-1.104,1.122c-0.748,0.222-1.514-0.017-2.295-0.136l-0.322-1.479
		c0.9,0.255,1.546,0.511,2.243,0.408c0.391-0.255,0.425-0.73,0.51-1.224c0.153-0.918,0.34-2.091,0.374-2.635h-3.671
		c-0.272,1.462-1.411,2.855-2.788,3.757c-1.021,0.68-2.855,1.224-3.961,1.428c-0.237-0.425-0.459-0.765-0.68-1.275
		c2.158-0.34,4.164-0.85,5.455-2.55c0.357-0.459,0.545-0.986,0.646-1.377h-4.861v-1.224l5.065,0.017c0.051-0.408,0-0.73,0.051-1.496
		L566.802,428.889z M564.201,424.078c0.68,0.816,1.598,1.343,2.55,1.955c0.918-0.596,1.836-1.275,2.481-1.955H564.201z"/>
	<path fill="#FFFFFF" d="M590.72,430.674v1.241h-5.523c0.782,1.258,2.702,2.618,6.12,3.399l-0.937,1.14
		c-3.757-1.037-6-2.941-6.544-4.573h-0.17c-1.564,3.927-5.508,4.284-7.225,4.573l-0.833-1.122c2.277-0.425,5.627-1.037,6.577-3.417
		h-6.051v-1.241h6.748l0.357-1.156l1.273,0.153l-0.271,1.003H590.72z M581.388,430.096h-1.325v-2.975
		c-0.951,0.782-2.243,1.7-3.28,2.295l-0.867-1.258c1.174-0.544,2.891-1.717,4.131-2.566v-4.25h1.31L581.388,430.096z
		 M576.917,422.141c0.885,0.629,1.836,1.666,2.432,2.737l-1.021,1.003c-0.408-1.02-1.343-2.159-2.295-2.958L576.917,422.141z
		 M584.788,424.877c0.492,0.357,1.121,0.884,1.495,1.411c0.596-0.493,1.411-1.258,2.176-2.414h-3.62
		c-0.51,0.748-1.581,1.989-2.329,2.431l-1.003-0.969c1.31-0.816,2.432-2.006,3.213-4.148l1.14,0.477
		c-0.067,0.306-0.238,0.714-0.408,1.003h4.437l0.019,1.224c-1.462,2.806-3.688,4.708-7.514,5.575l-0.851-1.173
		c1.326-0.238,2.754-0.595,3.808-1.343c-0.492-0.527-0.951-0.969-1.513-1.275L584.788,424.877z"/>
</g>
</svg>
