<?xml version="1.0" encoding="utf-8"?>
<!-- Generator: Adobe Illustrator 16.0.0, SVG Export Plug-In . SVG Version: 6.00 Build 0)  -->
<!DOCTYPE svg PUBLIC "-//W3C//DTD SVG 1.1//EN" "http://www.w3.org/Graphics/SVG/1.1/DTD/svg11.dtd">
<svg version="1.1" id="Layer_1" xmlns="http://www.w3.org/2000/svg" xmlns:xlink="http://www.w3.org/1999/xlink" x="0px" y="0px"
	 width="768px" height="1024px" viewBox="0 0 768 1024" enable-background="new 0 0 768 1024" xml:space="preserve">
<rect x="140.671" y="283.64" opacity="0.698" fill="#144F84" enable-background="new    " width="324.396" height="162.22"/>
<g>
	<g>
		<path fill="#FFFFFF" d="M164.172,332.23h-10.361v-4.551l10.641-14.281h4.445v14.736h3.255v4.096h-3.255v5.67h-4.726
			L164.172,332.23L164.172,332.23z M164.172,319.628h-0.105l-6.335,8.506h6.44V319.628z"/>
	</g>
</g>
<g>
	<path fill="#FFFFFF" d="M170.568,373.837v-1.541h-13.399v1.541h-1.673v-18.659h16.635v18.659H170.568z M170.568,356.785h-13.399
		v13.994h13.399V356.785z M157.608,369.194v-1.518h5.325v-3.74h-4.379v-1.519h4.379v-2.794h-5.127v-1.518h11.991v1.518h-5.303v2.794
		h4.6v1.519h-4.6v3.74h5.523v1.518H157.608z M167.972,367.522c-0.857-1.122-1.628-1.893-2.728-2.53l1.078-0.858
		c0.924,0.55,2.112,1.408,2.815,2.552L167.972,367.522z"/>
	<path fill="#FFFFFF" d="M181.281,361.12c1.122,1.452,2.354,2.97,2.442,4.973c0.044,1.034-0.44,1.958-1.364,2.376
		c-0.793,0.353-1.673,0.375-2.597,0.308l-0.616-1.65c1.122,0.044,2.223,0.22,2.75-0.242c0.265-0.308,0.44-0.528,0.286-1.1
		c-0.462-1.65-1.562-3.015-2.794-4.467l2.442-4.555h-2.948v17.119h-1.673v-18.637h6.579v1.43L181.281,361.12z M182.535,371.483
		l-1.057-1.276c2.156-1.32,3.785-3.344,5.017-5.5l1.188,0.924C186.649,367.632,184.779,370.009,182.535,371.483z M190.104,362.528
		v9.527c0,0.814-0.66,1.65-1.497,1.738c-0.704,0.066-1.21,0.088-2.134,0.022l-0.638-1.606c0.88,0.11,1.408,0.11,2.2,0.11
		c0.33,0,0.396-0.22,0.396-0.748v-9.043h-5.479v-1.52h12.168v1.52H190.104z M184.295,357.137v-1.518h10.166v1.518H184.295z
		 M194.725,371.659c-0.946-2.223-2.662-4.688-4.313-5.875l1.232-0.924c1.87,1.541,3.542,3.586,4.4,5.809L194.725,371.659z"/>
	<path fill="#FFFFFF" d="M201.389,354.21h1.672v4.181h2.509v1.562h-2.509v1.958l0.639-0.396c0.924,0.968,1.848,2.222,2.486,3.564
		l-1.452,0.814c-0.595-1.386-1.255-2.333-1.629-2.882l-0.044,10.737h-1.672v-8.955c-0.528,1.606-1.188,2.596-2.442,3.938
		l-1.232-1.188c2.112-2.112,3.19-4.995,3.564-7.591h-2.75v-1.562h2.86V354.21z M209.266,364.574
		c-1.122,2.816-3.08,5.281-4.379,6.381l-1.364-1.101c1.497-1.32,3.213-3.168,4.379-6.007L209.266,364.574z M210.542,362.461h-5.083
		v-1.518h11.948v1.518h-5.193v8.625c0,0.814,0.132,1.738-0.638,2.31c-0.683,0.638-1.717,0.352-2.641,0.44l-0.616-1.694l1.849,0.088
		c0.154,0,0.374-0.088,0.374-0.66V362.461z M206.428,357.467v-1.518h9.967v1.518H206.428z M214.128,363.782
		c1.276,1.563,2.839,3.741,3.807,6.249l-1.584,0.858c-0.77-2.354-1.893-4.291-3.521-6.293L214.128,363.782z"/>
	<path fill="#FFFFFF" d="M220.506,371.945c1.826-2.53,3.103-5.083,3.323-8.251l1.693,0.55c-0.264,3.235-1.54,6.007-3.432,8.625
		L220.506,371.945z M224.423,360.151c-0.792-1.43-1.694-2.75-3.169-3.719l1.519-0.902c1.386,0.924,2.288,2.332,3.124,3.674
		L224.423,360.151z M239.429,359.689h-4.488v2.442h3.807v1.584h-3.807l-0.022,2.596h3.829v1.606h-3.807v2.816h5.215v1.606h-10.782
		v1.628h-1.672v-12.3c-0.22,0.308-0.748,1.034-1.475,1.804l-1.694-0.77c2.397-2.42,3.807-5.325,4.688-8.537l1.563,0.594
		c-0.33,1.276-0.704,2.508-1.122,3.344h3.917c-0.528-1.232-1.475-2.289-2.706-3.081l1.716-0.88c1.166,0.924,2.002,1.98,2.597,3.322
		l-1.122,0.594l5.368,0.022v1.61H239.429z M229.373,359.711v2.398h3.895v-2.398H229.373z M229.373,363.738v2.574h3.873l0.021-2.596
		L229.373,363.738z M233.268,367.918l-3.895-0.022v2.838h3.895V367.918z"/>
	<path fill="#FFFFFF" d="M258.173,371.483c0.418,0,0.836-0.22,0.968-0.616c0.33-0.99,0.528-1.76,0.704-3.036l1.65,0.616
		c-0.242,1.43-0.44,2.75-1.255,3.873c-0.439,0.506-0.901,0.704-1.76,0.814h-4.114c-1.32,0-2.53-0.968-2.53-2.267v-4.114
		c-0.946,0.594-1.871,1.078-3.433,1.694l-0.792-0.858l-0.022,6.535h-1.694v-11.221l-0.021,0.308
		c-0.595,0.814-1.343,1.694-2.179,2.332l-1.519-1.144c3.146-2.729,4.688-6.117,5.963-9.923l1.476,0.704
		c-0.572,1.893-1.232,3.718-2.024,5.303l0.022,6.359c1.716-0.704,2.97-1.232,4.225-2.002v-9.945h1.693v9.021
		c2.421-1.694,3.829-3.191,5.303-5.039l1.453,0.99c-2.223,2.75-4.489,4.708-6.756,6.051v4.665c0,0.55,0.374,0.902,1.211,0.902h3.432
		V371.483z"/>
	<path fill="#FFFFFF" d="M271.877,365.476v1.496c-1.694,0.418-4.29,0.946-6.49,1.628l-0.793-1.474
		c1.32-1.32,2.509-2.663,3.146-3.609c-0.197,0.022-1.496,0.33-2.398,0.638l-0.836-1.519c1.101-1.738,2.641-5.127,3.697-7.854
		l1.496,0.682c-0.66,1.54-2.354,5.236-3.19,6.688c0.352-0.044,1.605-0.33,2.31-0.484c0.484-0.704,0.969-1.606,1.475-2.618
		l1.563,0.704c-1.299,2.596-2.641,4.84-4.643,6.689L271.877,365.476z M264.66,370.955c2.662-0.836,4.643-1.386,7.701-2.442v1.65
		l-6.887,2.311L264.66,370.955z M270.646,372.825v-1.563h2.508v-15.688h7.898v15.688h2.552v1.563H270.646z M274.804,357.137v3.478
		h4.599v-3.478H274.804z M274.804,365.784h4.599v-3.653h-4.599V365.784z M279.402,371.263v-3.981h-4.599v3.981H279.402z"/>
	<path fill="#FFFFFF" d="M287.034,373.177l-0.924-1.563c2.332-0.704,5.368-1.804,7.987-2.618v1.672
		C291.721,371.593,289.477,372.363,287.034,373.177z M289.169,367.038l4.929-1.012v1.606c-1.738,0.462-4.885,1.254-6.777,1.606
		l-0.771-1.476c1.034-0.857,2.619-2.771,3.587-4.092c-0.704,0.022-1.782,0.176-2.86,0.572l-0.814-1.628
		c2.024-2.268,3.081-4.841,3.938-7.723l1.519,0.616c-0.66,2.552-2.42,5.633-3.257,6.733c0.572-0.044,1.563-0.22,2.486-0.308
		c0.528-0.792,0.969-1.782,1.497-2.882l1.54,0.704C292.821,362.55,291.501,365.146,289.169,367.038z M294.207,373.441l-1.254-1.21
		c2.024-0.968,3.587-2.684,4.709-4.577l1.188,0.88C298.124,370.603,295.638,372.583,294.207,373.441z M295.153,366.268v-10.099
		h8.955v10.099H295.153z M302.438,357.775h-5.611v6.887h5.611V357.775z M304.791,373.771c-0.946-2.024-2.686-3.631-4.511-4.885
		l0.968-1.167c1.914,1.188,3.607,2.794,4.73,4.709L304.791,373.771z"/>
</g>
<g>
	<path fill="#FFFFFF" d="M154.815,407.824v-12.171h1.615v12.171H154.815z"/>
	<path fill="#FFFFFF" d="M163.927,408.028c-3.213,0-5.116-1.513-5.185-4.114l1.53-0.136c0.067,0.646,0.119,0.867,0.323,1.241
		c0.526,0.969,1.769,1.564,3.264,1.564c1.818,0,3.008-0.816,3.008-2.074c0-0.646-0.34-1.19-0.917-1.479
		c-0.578-0.306-0.833-0.391-2.754-0.851c-1.598-0.391-2.193-0.612-2.856-1.104c-0.73-0.544-1.121-1.36-1.121-2.277
		c0-2.006,1.717-3.349,4.267-3.349c2.771,0,4.487,1.36,4.572,3.638l-1.547,0.119c-0.17-1.598-1.104-2.329-2.958-2.329
		c-1.732,0-2.787,0.68-2.787,1.819c0,1.02,0.595,1.428,2.89,1.938c1.903,0.425,2.48,0.612,3.229,1.054
		c0.985,0.578,1.547,1.547,1.547,2.703C168.432,406.515,166.562,408.028,163.927,408.028z"/>
	<path fill="#FFFFFF" d="M175.929,408.028c-3.417,0-5.813-2.567-5.813-6.255c0-3.774,2.329-6.324,5.813-6.324
		c3.468,0,5.83,2.533,5.83,6.307C181.759,405.478,179.38,408.028,175.929,408.028z M175.963,396.826
		c-2.601,0-4.182,1.87-4.182,4.947c0,2.975,1.614,4.878,4.146,4.878c2.533,0,4.165-1.904,4.165-4.896
		S178.462,396.826,175.963,396.826z"/>
	<path fill="#FFFFFF" d="M190.362,406.073c-0.731,1.275-1.938,1.955-3.435,1.955c-1.938,0-3.179-1.088-3.417-3.026l1.428-0.119
		c0.238,1.309,0.884,1.921,2.023,1.921c0.918,0,1.717-0.493,2.142-1.326c0.425-0.833,0.696-1.989,0.696-3.077v-0.306
		c-0.629,0.986-1.75,1.598-2.906,1.598c-2.091,0-3.604-1.666-3.604-3.978c0-2.414,1.581-4.113,3.824-4.113
		c1.207,0,2.313,0.527,3.043,1.462c0.799,1.003,1.122,2.278,1.122,4.419S191.025,404.917,190.362,406.073z M187.149,396.843
		c-1.359,0-2.329,1.19-2.329,2.822c0,1.615,0.952,2.72,2.38,2.72c1.411,0,2.431-1.104,2.431-2.618
		C189.631,398.118,188.543,396.843,187.149,396.843z"/>
	<path fill="#FFFFFF" d="M196.704,408.028c-1.581,0-2.788-0.833-3.4-2.363c-0.391-0.986-0.561-2.193-0.561-3.875
		c0-4.097,1.326-6.188,3.961-6.188c2.635,0,3.96,2.091,3.96,6.221C200.664,405.954,199.339,408.028,196.704,408.028z
		 M198.692,398.355c-0.34-0.935-1.104-1.513-2.006-1.513c-1.666,0-2.414,1.564-2.414,4.963c0,1.513,0.153,2.669,0.442,3.468
		c0.34,0.952,1.104,1.53,1.989,1.53c0.884,0,1.648-0.578,1.988-1.53c0.289-0.782,0.442-1.955,0.442-3.451
		C199.135,400.328,198.998,399.188,198.692,398.355z"/>
	<path fill="#FFFFFF" d="M206.156,408.028c-1.581,0-2.788-0.833-3.4-2.363c-0.391-0.986-0.561-2.193-0.561-3.875
		c0-4.097,1.326-6.188,3.961-6.188c2.634,0,3.96,2.091,3.96,6.221C210.116,405.954,208.79,408.028,206.156,408.028z
		 M208.145,398.355c-0.34-0.935-1.104-1.513-2.006-1.513c-1.666,0-2.414,1.564-2.414,4.963c0,1.513,0.153,2.669,0.442,3.468
		c0.34,0.952,1.104,1.53,1.989,1.53c0.884,0,1.647-0.578,1.988-1.53c0.289-0.782,0.442-1.955,0.442-3.451
		C208.587,400.328,208.45,399.188,208.145,398.355z"/>
	<path fill="#FFFFFF" d="M215.777,407.824v-9.52c-0.493,0.477-0.97,0.799-1.854,1.275c-0.544,0.289-0.696,0.357-1.139,0.527v-1.445
		c1.615-0.748,2.958-1.938,3.519-3.06h0.969v12.222H215.777z"/>
	<path fill="#FFFFFF" d="M221.863,400.718v-1.7h1.7v1.7H221.863z M221.863,407.824v-1.7h1.7v1.7H221.863z"/>
	<path fill="#FFFFFF" d="M225.57,407.824c0.085-0.697,0.17-0.986,0.408-1.462c0.458-0.918,1.24-1.802,2.464-2.805l0.562-0.459
		c2.243-1.836,3.094-2.992,3.094-4.147c0-1.224-0.969-2.108-2.295-2.108c-1.462,0-2.363,0.918-2.38,2.448l-1.529-0.17
		c0.203-2.278,1.598-3.519,3.943-3.519c2.261,0,3.808,1.377,3.808,3.383c0,1.445-0.851,2.736-2.992,4.538l-1.224,1.037
		c-1.003,0.85-1.411,1.292-1.751,1.836h5.983v1.428H225.57z"/>
	<path fill="#FFFFFF" d="M239.237,408.028c-1.581,0-2.788-0.833-3.4-2.363c-0.391-0.986-0.561-2.193-0.561-3.875
		c0-4.097,1.326-6.188,3.961-6.188c2.635,0,3.96,2.091,3.96,6.221C243.197,405.954,241.872,408.028,239.237,408.028z
		 M241.226,398.355c-0.34-0.935-1.104-1.513-2.006-1.513c-1.666,0-2.414,1.564-2.414,4.963c0,1.513,0.153,2.669,0.442,3.468
		c0.34,0.952,1.104,1.53,1.989,1.53c0.884,0,1.647-0.578,1.988-1.53c0.289-0.782,0.442-1.955,0.442-3.451
		C241.668,400.328,241.531,399.188,241.226,398.355z"/>
	<path fill="#FFFFFF" d="M248.859,407.824v-9.52c-0.493,0.477-0.97,0.799-1.854,1.275c-0.544,0.289-0.696,0.357-1.139,0.527v-1.445
		c1.615-0.748,2.958-1.938,3.519-3.06h0.969v12.222H248.859z"/>
	<path fill="#FFFFFF" d="M258.09,408.028c-2.21,0-3.723-1.31-3.909-3.4l1.563-0.119c0.222,1.461,1.071,2.294,2.346,2.294
		c1.479,0,2.567-1.258,2.567-2.975c0-1.666-1.037-2.754-2.603-2.754c-0.935,0-1.75,0.425-2.209,1.173l-1.411-0.17l1.189-6.255h6.035
		v1.428h-4.845l-0.663,3.264c0.714-0.493,1.53-0.765,2.312-0.765c2.176,0,3.773,1.683,3.773,3.944
		C262.237,406.209,260.487,408.028,258.09,408.028z"/>
	<path fill="#FFFFFF" d="M276.688,394.837c-3.536,1.003-7.105,1.037-9.944,1.054v6.289c0,2.482-0.73,5.117-2.396,6.697l-1.037-0.918
		c0.986-1.02,2.125-2.533,2.142-6.646l0.018-6.766c2.991-0.017,7.462-0.017,10.521-0.85L276.688,394.837z M272.692,401.466
		c0.068,2.159,0,3.978-1.58,5.457c-1.122,1.037-2.465,1.666-3.995,2.006l-0.611-1.292c1.036-0.187,1.887-0.441,2.651-0.884
		c1.359-0.799,2.21-2.159,2.21-3.74c0-0.357,0.067-1.037,0.102-1.751L272.692,401.466z M271.741,397.047v-0.986h1.274v0.986h5.27
		v1.224h-5.27v1.02h3.468v6.255h-1.274v-5.031h-5.898v4.98h-1.241v-6.222h3.672v-1.02h-4.488v-1.207L271.741,397.047
		L271.741,397.047z M276.959,408.997c-0.985-1.139-3.264-2.465-4.589-2.855l0.73-0.986c1.394,0.356,3.638,1.513,4.709,2.855
		L276.959,408.997z"/>
	<path fill="#FFFFFF" d="M287.721,407.11v-0.51h-5.438v-1.088l5.438-0.017v-0.459l-4.827,0.017v-4.318h10.98v4.318h-4.861v0.459
		h5.508v1.088h-5.508v0.51h6.97v1.207h-15.18v-1.207H287.721z M295.285,400.344l-13.837,0.017v-1.122h13.837V400.344z
		 M293.313,398.849h-9.927v-4.419h9.91L293.313,398.849z M284.168,401.84v0.527h3.553l0.019-0.527H284.168z M284.168,403.319
		l0.018,0.629h3.535v-0.612L284.168,403.319z M292.021,395.551l-7.36,0.017v0.561h7.36V395.551z M284.661,397.115v0.629h7.36v-0.612
		L284.661,397.115z M289.013,401.84l0.019,0.544l3.552-0.017v-0.527H289.013z M289.013,403.948h3.569v-0.629h-3.569V403.948z"/>
	<path fill="#FFFFFF" d="M300.08,393.664h1.292v3.23h1.938v1.207h-1.938v1.513l0.493-0.306c0.714,0.748,1.428,1.717,1.921,2.754
		l-1.122,0.629c-0.459-1.071-0.969-1.802-1.258-2.227l-0.034,8.295h-1.292v-6.918c-0.407,1.241-0.918,2.006-1.887,3.042
		l-0.951-0.917c1.632-1.632,2.464-3.859,2.753-5.865h-2.124v-1.207h2.209V393.664L300.08,393.664z M306.166,401.67
		c-0.867,2.176-2.38,4.08-3.383,4.93l-1.055-0.85c1.155-1.02,2.481-2.448,3.384-4.641L306.166,401.67z M307.151,400.039h-3.927
		v-1.173h9.229v1.173h-4.012v6.663c0,0.629,0.103,1.343-0.493,1.785c-0.526,0.493-1.325,0.271-2.039,0.34l-0.478-1.309l1.429,0.068
		c0.119,0,0.289-0.068,0.289-0.51L307.151,400.039L307.151,400.039z M303.973,396.18v-1.173h7.7v1.173H303.973z M309.923,401.059
		c0.985,1.207,2.192,2.89,2.94,4.827l-1.225,0.663c-0.596-1.819-1.462-3.314-2.72-4.861L309.923,401.059z"/>
	<path fill="#FFFFFF" d="M314.854,407.365c1.411-1.955,2.396-3.927,2.567-6.375l1.31,0.425c-0.204,2.499-1.19,4.641-2.652,6.663
		L314.854,407.365z M317.879,398.254c-0.611-1.105-1.309-2.125-2.447-2.873l1.174-0.697c1.07,0.714,1.768,1.802,2.414,2.839
		L317.879,398.254z M329.473,397.897h-3.468v1.887h2.94v1.224h-2.94l-0.018,2.006h2.958v1.241h-2.94v2.176h4.028v1.241h-8.329v1.258
		h-1.292v-9.502c-0.17,0.238-0.578,0.799-1.139,1.395l-1.311-0.595c1.854-1.87,2.941-4.114,3.621-6.595l1.207,0.459
		c-0.255,0.986-0.544,1.938-0.867,2.583h3.025c-0.407-0.952-1.139-1.768-2.09-2.38l1.324-0.68c0.901,0.714,1.547,1.53,2.007,2.566
		l-0.867,0.459l4.147,0.017v1.241H329.473z M321.704,397.914v1.853h3.009v-1.853H321.704z M321.704,401.024v1.989h2.991l0.018-2.006
		L321.704,401.024z M324.713,404.254l-3.009-0.017v2.191h3.009V404.254z"/>
	<path fill="#FFFFFF" d="M335.594,397.948l-0.018,7.36c0.867-0.374,1.683-0.748,2.907-1.343v1.292l-4.25,2.125l-0.646-1.258
		c0.322-0.051,0.577-0.255,0.781-0.493l-0.017-6.459l-2.244,0.017l-0.018-1.241H335.594z M335.916,397.319
		c-0.73-1.207-1.513-2.074-2.396-2.55l1.004-0.697c1.054,0.595,1.869,1.376,2.48,2.448L335.916,397.319z M346.099,408.877
		c-1.514-1.326-2.481-2.855-3.247-4.368c-0.476-0.952-0.765-1.853-0.866-2.176v-0.731c-0.188,0.85-0.459,1.513-0.781,2.346
		c-0.748,1.904-2.006,3.638-3.961,4.929l-0.97-1.02c2.532-1.598,4.013-4.012,4.438-6.646c0.391-2.363,0.408-4.743,0.391-7.428
		l1.293,0.017c-0.018,2.091-0.052,4.028-0.205,5.66c0.545,1.785,1.241,3.757,2.193,5.304c0.696,1.122,1.648,2.278,2.771,3.145
		L346.099,408.877z"/>
	<path fill="#FFFFFF" d="M349.992,406.413c0.271-0.136,0.544-0.493,0.544-0.714l0.018-5.49h-1.632v-1.258h3.009v6.442l1.988-1.071
		v1.428l-3.161,1.751L349.992,406.413z M350.333,394.276c0.951,0.612,1.699,1.207,2.481,2.108l-0.986,0.918
		c-0.68-0.918-1.444-1.547-2.432-2.125L350.333,394.276z M363.081,396.146h-3.535v4.232h3.042v1.207h-3.042v5.405h4.028v1.241
		h-10.846v-1.258h2.073v-8.04h1.292v8.057l2.21,0.017l-0.017-10.862h-4.521v-1.224h9.314L363.081,396.146L363.081,396.146z"/>
	<path fill="#FFFFFF" d="M154.815,428.224v-12.171h1.615v12.171H154.815z"/>
	<path fill="#FFFFFF" d="M163.927,428.428c-3.213,0-5.116-1.513-5.185-4.113l1.53-0.137c0.067,0.646,0.119,0.867,0.323,1.241
		c0.526,0.969,1.769,1.564,3.264,1.564c1.818,0,3.008-0.816,3.008-2.074c0-0.646-0.34-1.19-0.917-1.479
		c-0.578-0.306-0.833-0.391-2.754-0.85c-1.598-0.391-2.193-0.612-2.856-1.105c-0.73-0.544-1.121-1.359-1.121-2.276
		c0-2.006,1.717-3.349,4.267-3.349c2.771,0,4.487,1.359,4.572,3.637l-1.547,0.119c-0.17-1.598-1.104-2.329-2.958-2.329
		c-1.732,0-2.787,0.68-2.787,1.819c0,1.021,0.595,1.428,2.89,1.938c1.903,0.425,2.48,0.611,3.229,1.054
		c0.985,0.578,1.547,1.547,1.547,2.703C168.432,426.915,166.562,428.428,163.927,428.428z"/>
	<path fill="#FFFFFF" d="M175.929,428.428c-3.417,0-5.813-2.566-5.813-6.255c0-3.774,2.329-6.323,5.813-6.323
		c3.468,0,5.83,2.533,5.83,6.306C181.759,425.878,179.38,428.428,175.929,428.428z M175.963,417.226
		c-2.601,0-4.182,1.87-4.182,4.947c0,2.976,1.614,4.878,4.146,4.878c2.533,0,4.165-1.904,4.165-4.896
		C180.093,419.163,178.462,417.226,175.963,417.226z"/>
	<path fill="#FFFFFF" d="M187.422,428.224v-9.519c-0.493,0.476-0.97,0.799-1.854,1.275c-0.544,0.289-0.696,0.357-1.139,0.527v-1.445
		c1.615-0.748,2.958-1.938,3.52-3.06h0.969v12.222H187.422z"/>
	<path fill="#FFFFFF" d="M196.704,428.428c-1.581,0-2.788-0.833-3.4-2.363c-0.391-0.985-0.561-2.192-0.561-3.875
		c0-4.097,1.326-6.188,3.961-6.188c2.635,0,3.96,2.091,3.96,6.221C200.664,426.354,199.339,428.428,196.704,428.428z
		 M198.692,418.755c-0.34-0.935-1.104-1.513-2.006-1.513c-1.666,0-2.414,1.564-2.414,4.963c0,1.513,0.153,2.669,0.442,3.468
		c0.34,0.952,1.104,1.53,1.989,1.53c0.884,0,1.648-0.578,1.988-1.53c0.289-0.782,0.442-1.955,0.442-3.451
		C199.135,420.728,198.998,419.588,198.692,418.755z"/>
	<path fill="#FFFFFF" d="M206.156,428.428c-1.581,0-2.788-0.833-3.4-2.363c-0.391-0.985-0.561-2.192-0.561-3.875
		c0-4.097,1.326-6.188,3.961-6.188c2.634,0,3.96,2.091,3.96,6.221C210.116,426.354,208.79,428.428,206.156,428.428z
		 M208.145,418.755c-0.34-0.935-1.104-1.513-2.006-1.513c-1.666,0-2.414,1.564-2.414,4.963c0,1.513,0.153,2.669,0.442,3.468
		c0.34,0.952,1.104,1.53,1.989,1.53c0.884,0,1.647-0.578,1.988-1.53c0.289-0.782,0.442-1.955,0.442-3.451
		C208.587,420.728,208.45,419.588,208.145,418.755z"/>
	<path fill="#FFFFFF" d="M215.607,428.428c-1.581,0-2.788-0.833-3.4-2.363c-0.391-0.985-0.561-2.192-0.561-3.875
		c0-4.097,1.326-6.188,3.961-6.188c2.634,0,3.96,2.091,3.96,6.221C219.567,426.354,218.241,428.428,215.607,428.428z
		 M217.596,418.755c-0.34-0.935-1.104-1.513-2.006-1.513c-1.666,0-2.414,1.564-2.414,4.963c0,1.513,0.153,2.669,0.442,3.468
		c0.34,0.952,1.104,1.53,1.989,1.53c0.884,0,1.648-0.578,1.988-1.53c0.289-0.782,0.442-1.955,0.442-3.451
		C218.038,420.728,217.901,419.588,217.596,418.755z"/>
	<path fill="#FFFFFF" d="M220.844,428.224c0.085-0.696,0.17-0.985,0.408-1.462c0.458-0.918,1.24-1.802,2.464-2.805l0.562-0.459
		c2.243-1.836,3.094-2.992,3.094-4.147c0-1.224-0.969-2.108-2.295-2.108c-1.462,0-2.363,0.918-2.38,2.448l-1.529-0.17
		c0.203-2.278,1.598-3.519,3.943-3.519c2.261,0,3.808,1.377,3.808,3.382c0,1.445-0.851,2.737-2.992,4.539l-1.224,1.037
		c-1.003,0.85-1.411,1.292-1.751,1.836h5.983v1.428H220.844L220.844,428.224z"/>
	<path fill="#FFFFFF" d="M233.525,423.753c-0.476,0.153-1.207,0.442-1.972,0.646c-0.255-0.373-0.477-0.662-0.799-1.121
		c1.104-0.256,1.988-0.511,2.771-0.782v-3.841h-2.21v-1.224h2.21v-3.162h1.292v3.162h1.955v1.224h-1.955v3.399l1.903-0.629v1.241
		c-0.696,0.323-1.377,0.442-1.903,0.68v4.861c0,0.374-0.357,0.799-0.748,0.952c-0.68,0.255-1.496,0.136-2.295,0.136
		c-0.136-0.408-0.238-0.748-0.425-1.275c0.765,0.085,1.224,0.085,1.785,0.068c0.17,0.017,0.425-0.187,0.391-0.391V423.753z
		 M235.463,428.139c1.751-0.561,3.281-1.224,4.471-2.261c-0.884-1.02-1.563-2.261-2.022-3.536h-0.884v-1.24h7.139
		c-0.136,2.039-1.088,3.62-2.328,4.86c1.121,1.037,2.668,1.734,4.334,2.193l-0.833,1.189c-1.462-0.374-3.484-1.717-4.487-2.532
		c-1.156,0.969-2.669,1.869-4.521,2.464L235.463,428.139z M235.565,420.184c0.985-0.459,1.784-1.105,2.006-1.989
		c0.204-0.765,0.221-1.972,0.237-3.23h5.797l0.017,3.655c0,0.272,0.137,0.425,0.477,0.425h1.699v1.19h-2.091
		c-1.104-0.204-1.377-0.935-1.377-1.598v-2.431l-3.195-0.017c-0.051,0.952-0.068,2.091-0.561,3.009
		c-0.408,0.765-1.071,1.445-1.989,2.005L235.565,420.184z M239.288,422.342c0.255,0.748,1.104,2.278,1.632,2.652
		c0.781-0.782,1.359-1.53,1.717-2.652H239.288z"/>
	<path fill="#FFFFFF" d="M250.491,428.122l-0.765-1.088c0.306-0.153,0.459-0.442,0.459-0.799v-5.779h-2.21v-1.224h3.519v6.954
		l1.87-1.123v1.411L250.491,428.122z M251.46,417.872c-0.492-1.02-1.224-1.802-2.158-2.566l0.9-0.782
		c0.952,0.646,1.768,1.564,2.329,2.533L251.46,417.872z M258.124,429.396v-5.405c-0.459-0.255-1.31-0.612-2.244-0.901l0.765-1.037
		c0.477,0.17,0.969,0.374,1.496,0.629l-0.017-2.396h-2.584v3.621c0,1.292-0.34,2.854-0.884,4.045
		c-0.204,0.425-0.442,0.918-0.799,1.428l-1.241-0.748c1.428-1.632,1.598-3.706,1.598-5.745l0.018-7.139
		c2.396-0.255,4.589-0.697,6.663-1.7l0.748,1.071c-1.989,1.054-4.097,1.461-6.103,1.768v2.159h6.766v1.241h-2.891v2.958
		c0.918,0.51,1.87,1.207,2.788,2.04l-0.815,1.054c-0.715-0.68-1.411-1.274-1.973-1.581v4.642h-1.291V429.396z"/>
	<path fill="#FFFFFF" d="M264.856,417.43c1.377-0.884,2.142-2.125,2.771-3.484c0.408,0.187,0.697,0.34,1.105,0.527
		c-0.188,0.425-0.374,0.799-0.425,0.935h4.402v1.207l-2.566,0.017c0.067,0.085,0.306,0.595,0.577,1.003l-1.155,0.629
		c-0.289-0.68-0.578-1.189-0.969-1.632h-0.986c-0.408,0.561-0.918,1.122-1.785,1.717L264.856,417.43z M265.554,418.382h6.238
		c-0.119-0.238-0.459-0.663-0.969-1.156l1.224-0.391c0.544,0.544,0.952,1.241,1.156,1.547h6.085v3.195l-1.292-0.017v-1.973h-11.15
		l-0.018,2.057l-1.274-0.017V418.382z M269.123,429.379h-1.343l0.017-8.924h9.146l0.017,3.467l-7.87,0.018v0.85h8.618v4.539h-1.309
		v-1.003h-7.292L269.123,429.379z M269.089,422.716h6.579l-0.018-1.054h-6.562L269.089,422.716L269.089,422.716z M269.106,426.031
		l0.017,1.122l7.275-0.018v-1.139L269.106,426.031z M277.044,416.546c0.103,0.102,0.493,0.51,0.782,1.037
		c-0.374,0.238-0.714,0.408-1.155,0.595c-0.323-0.68-0.663-1.207-1.105-1.615h-1.122c-0.221,0.374-0.544,0.901-1.02,1.309
		c-0.357-0.272-0.629-0.442-1.003-0.731c0.918-0.986,1.394-1.972,1.683-3.229l1.139,0.425c-0.067,0.442-0.17,0.816-0.237,1.003
		h4.641v1.207L277.044,416.546L277.044,416.546z"/>
	<path fill="#FFFFFF" d="M282.52,427.136c-0.356-0.323-0.68-0.578-1.122-1.02c1.054-0.306,1.836-0.629,2.567-0.901v-3.926h-1.734
		l0.018-1.207l1.683,0.017l0.017-3.366l-2.04,0.017v-1.241l5.27,0.017v1.207h-1.887l-0.017,3.366l1.666-0.017v1.207h-1.666v3.434
		c0.493-0.187,1.224-0.526,2.057-0.833v1.275L282.52,427.136z M295.847,415.067l-0.034,7.395h-3.451v1.632h3.349v1.225h-3.383v1.955
		h4.539v1.207h-10.318v-1.207h4.471l0.018-1.955h-3.4v-1.225h3.383l0.018-1.632h-3.52v-7.412L295.847,415.067z M291.019,418.093
		l0.018-1.802l-2.228-0.017v1.819H291.019z M288.809,419.299v1.955h2.21l0.018-1.972L288.809,419.299z M292.345,419.316v1.921
		l2.192,0.017v-1.921L292.345,419.316z M292.379,418.11h2.176l0.033-1.819l-2.227-0.017L292.379,418.11z"/>
	<path fill="#FFFFFF" d="M303.701,414.642c-0.272,1.666-0.646,2.873-1.274,4.232v10.369h-1.31v-8.074
		c-0.034,0.051-1.021,1.326-1.547,1.819c-0.477-0.272-0.629-0.493-1.14-0.766c2.007-1.751,3.484-5.201,4.147-8.125L303.701,414.642z
		 M311.64,424.807v1.241h-2.736l-0.018,3.265l-1.274-0.018v-3.247h-2.702l-0.019-1.241h2.703v-5.304
		c-0.356,1.649-1.717,4.642-4.267,6.646l-0.935-0.952c1.494-1.36,2.65-2.788,3.245-4.402c0.272-0.765,0.493-1.513,0.663-2.125
		l-3.195-0.017v-1.225l4.505-0.017v-3.281h1.274v3.298h4.623l0.019,1.241h-3.366c0.307,1.139,0.681,2.482,1.359,3.672
		c0.611,1.055,1.614,1.973,2.702,2.805c-0.34,0.375-0.61,0.664-0.969,1.004c-1.887-1.445-3.246-3.332-3.858-5.592l-0.476-1.751
		l-0.034,6H311.64z"/>
	<path fill="#FFFFFF" d="M316.01,427.391c1.717-0.662,3.265-1.41,4.402-2.958l0.952,0.851c-1.071,1.513-3.128,2.618-4.505,3.162
		L316.01,427.391z M328.844,424.722c-0.271-0.476-0.611-1.258-0.985-1.632l-3.824,0.442L324,427.917
		c0,0.527-0.357,1.037-0.833,1.275c-0.527,0.17-1.632,0.136-2.431,0.118l-0.493-1.309c0.85,0.068,1.428,0.136,2.04,0.085
		c0.236-0.017,0.408-0.204,0.408-0.527v-3.909l-4.624,0.526c-0.272-0.407-0.527-0.714-0.782-1.207
		c2.261-0.833,3.943-1.683,5.797-2.805l-4.794,0.51l-0.73-1.105c1.563-0.612,3.757-1.989,4.572-2.975c0,0-2.669,0.238-5.167,0.323
		l-0.612-1.292c2.313-0.017,4.438-0.068,6.459-0.306c1.973-0.238,3.91-0.646,5.798-1.258l0.899,1.088
		c-2.192,0.68-4.334,1.037-6.221,1.309c-0.034-0.034,0.204,0.068,0.51,0.306c-1.122,1.292-2.21,1.955-3.229,2.431l4.368-0.425
		c0.511-0.408,1.14-1.173,1.666-1.802l1.156,0.68c-1.751,2.346-4.437,4.063-6.885,4.98l5.949-0.578
		c-0.171-0.17-0.63-0.374-1.274-0.73l0.969-0.731c1.429,0.562,2.669,1.836,3.383,3.196L328.844,424.722z M326.227,424.212
		c1.41,0.493,3.416,1.751,4.521,2.976l-0.952,0.985c-1.139-1.258-2.566-2.396-4.419-2.94L326.227,424.212z"/>
	<path fill="#FFFFFF" d="M336.512,418.348l-0.018,7.36c0.867-0.374,1.683-0.748,2.907-1.343v1.292l-4.25,2.125l-0.646-1.259
		c0.322-0.051,0.577-0.254,0.781-0.492l-0.017-6.459l-2.244,0.017l-0.018-1.241L336.512,418.348L336.512,418.348z M336.834,417.719
		c-0.73-1.207-1.513-2.074-2.396-2.55l1.004-0.697c1.054,0.595,1.869,1.377,2.48,2.448L336.834,417.719z M347.017,429.277
		c-1.514-1.326-2.481-2.855-3.247-4.368c-0.476-0.952-0.765-1.854-0.866-2.176v-0.731c-0.188,0.85-0.459,1.513-0.781,2.346
		c-0.748,1.904-2.006,3.639-3.961,4.93l-0.969-1.021c2.531-1.598,4.012-4.012,4.437-6.646c0.391-2.363,0.408-4.743,0.391-7.428
		l1.293,0.017c-0.018,2.091-0.052,4.028-0.205,5.66c0.545,1.785,1.241,3.757,2.193,5.304c0.696,1.122,1.648,2.278,2.771,3.145
		L347.017,429.277z"/>
	<path fill="#FFFFFF" d="M350.91,426.813c0.271-0.136,0.544-0.492,0.544-0.714l0.018-5.49h-1.632v-1.258h3.009v6.442l1.988-1.071
		v1.429l-3.161,1.751L350.91,426.813z M351.251,414.676c0.951,0.612,1.699,1.207,2.481,2.108l-0.986,0.918
		c-0.68-0.918-1.444-1.547-2.432-2.125L351.251,414.676z M363.999,416.546h-3.535v4.232h3.042v1.208h-3.042v5.404h4.028v1.241
		h-10.846v-1.258h2.073v-8.04h1.292v8.057l2.21,0.018l-0.017-10.862h-4.521v-1.224h9.314L363.999,416.546L363.999,416.546z"/>
</g>
</svg>
