<?xml version="1.0" encoding="utf-8"?>
<!-- Generator: Adobe Illustrator 16.0.0, SVG Export Plug-In . SVG Version: 6.00 Build 0)  -->
<!DOCTYPE svg PUBLIC "-//W3C//DTD SVG 1.1//EN" "http://www.w3.org/Graphics/SVG/1.1/DTD/svg11.dtd">
<svg version="1.1" id="Layer_1" xmlns="http://www.w3.org/2000/svg" xmlns:xlink="http://www.w3.org/1999/xlink" x="0px" y="0px"
	 width="768px" height="1024px" viewBox="0 0 768 1024" enable-background="new 0 0 768 1024" xml:space="preserve">
<rect x="302.89" y="445.86" opacity="0.698" fill-rule="evenodd" clip-rule="evenodd" fill="#58B5E1" width="324.439" height="162.221"/>
<g>
	<g>
		<path fill="#FFFFFF" d="M333.625,475.206h-10.116l-0.98,5.566l0.07,0.07c1.33-1.365,2.871-1.89,4.795-1.89
			c4.831,0,7.561,3.745,7.561,8.331c0,5.041-4.166,8.926-9.101,8.821c-4.76,0-9.031-2.625-9.101-7.771h4.971
			c0.245,2.17,1.855,3.675,4.025,3.675c2.59,0,4.235-2.275,4.235-4.726c0-2.555-1.575-4.585-4.235-4.585
			c-1.785,0-2.765,0.63-3.745,1.96h-4.48l2.415-13.546h13.687V475.206z"/>
	</g>
</g>
<g>
	<path fill="#FFFFFF" d="M319.006,525.852v-9.748h7.194l-0.021-4.027h1.76l-0.044,4.005l7.173,0.021v9.659h-1.738v-1.496h-5.435
		l0.044,7.415H326.2l-0.021-7.415h-5.391l-0.044,1.585H319.006z M326.179,517.709h-5.435v4.973h5.456L326.179,517.709z
		 M333.285,517.709h-5.347v4.951h5.369L333.285,517.709z"/>
	<path fill="#FFFFFF" d="M355.439,531.55v-1.54H342.04v1.54h-1.673v-18.659h16.635v18.659H355.439z M355.439,514.497H342.04v13.994
		h13.399V514.497z M342.479,526.906v-1.518h5.325v-3.74h-4.379v-1.519h4.379v-2.794h-5.127v-1.519h11.991v1.519h-5.303v2.794h4.6
		v1.519h-4.6v3.74h5.523v1.518H342.479z M352.843,525.234c-0.857-1.121-1.628-1.893-2.728-2.529l1.078-0.859
		c0.924,0.551,2.112,1.408,2.816,2.553L352.843,525.234z"/>
	<path fill="#FFFFFF" d="M377.989,513.441c-4.576,1.298-9.197,1.342-12.871,1.363v8.142c0,3.212-0.946,6.623-3.103,8.669
		l-1.343-1.188c1.276-1.32,2.751-3.279,2.772-8.604l0.022-8.758c3.872-0.021,9.659-0.021,13.62-1.1L377.989,513.441z
		 M372.819,522.022c0.088,2.794,0,5.148-2.047,7.063c-1.452,1.342-3.19,2.156-5.171,2.596l-0.792-1.672
		c1.343-0.242,2.442-0.572,3.433-1.145c1.761-1.034,2.86-2.795,2.86-4.841c0-0.462,0.088-1.343,0.132-2.267L372.819,522.022z
		 M371.587,516.301v-1.275h1.65v1.275h6.82v1.585h-6.82v1.32h4.488v8.097h-1.65v-6.513h-7.635v6.446h-1.606v-8.053h4.753v-1.32
		h-5.809v-1.563H371.587z M378.342,531.77c-1.276-1.475-4.225-3.19-5.941-3.696l0.946-1.276c1.805,0.463,4.709,1.959,6.095,3.697
		L378.342,531.77z"/>
	<path fill="#FFFFFF" d="M392.267,529.327v-0.659h-7.041v-1.408l7.041-0.023v-0.594l-6.249,0.022v-5.589h14.214v5.589h-6.293v0.595
		h7.129v1.408h-7.129v0.659h9.021v1.563h-19.648v-1.563H392.267z M402.058,520.57l-17.91,0.021v-1.452h17.91V520.57z
		 M399.506,518.634h-12.851v-5.721h12.828L399.506,518.634z M387.668,522.506v0.683h4.599l0.021-0.683H387.668z M387.668,524.42
		l0.021,0.814h4.577v-0.791L387.668,524.42z M397.833,514.365l-9.527,0.021v0.727h9.527V514.365z M388.306,516.39v0.813h9.527
		v-0.791L388.306,516.39z M393.938,522.506l0.022,0.705l4.599-0.022v-0.683H393.938z M393.938,525.234h4.621v-0.814h-4.621V525.234z
		"/>
	<path fill="#FFFFFF" d="M409.008,516.961h2.706v1.65h-2.685v12.961h-1.672v-12.938h-2.112v-1.673h2.091v-4.994h1.672V516.961z
		 M414.377,520.614c-0.396,1.87-1.232,3.433-2.465,4.95c-0.528-0.33-0.924-0.527-1.43-0.924c1.166-1.475,2.002-2.883,2.442-4.687
		L414.377,520.614z M422.782,520.107c1.188,1.431,1.958,2.993,2.2,4.842c-0.528,0.285-0.925,0.418-1.519,0.703
		c-0.374-1.628-0.836-2.926-1.431-3.872c-0.22,2.772-0.55,5.677-1.034,8.031c-0.153,0.748-0.945,1.452-1.693,1.562
		c-0.969,0.133-1.871-0.109-2.816-0.33l-0.133-1.738c1.034,0.177,1.782,0.572,2.486,0.375c0.353-0.309,0.484-0.771,0.595-1.254
		c0.616-2.509,0.924-7.658,0.968-10.672h-2.86c-0.044,0.22-0.021,0.638-0.021,1.122c-0.045,1.519-0.11,3.278-0.463,4.73
		c-0.792,3.169-2.09,5.589-5.082,8.009l-1.211-1.32c2.068-1.605,3.565-3.607,4.269-5.809c0.66-2.111,0.858-4.51,0.793-6.688h-3.719
		v-1.694h3.719l0.021-4.181l1.628-0.022c0.089,1.32,0.022,3.564,0.022,4.203h4.599c0.088,1.738,0.044,3.278-0.044,4.334
		L422.782,520.107z"/>
	<path fill="#FFFFFF" d="M445.552,522.902c-1.54-0.814-3.322-2.047-4.444-3.125v0.902h-8.735v-0.857
		c-0.99,0.924-2.002,1.76-4.159,3.036l-1.298-1.298c1.65-0.814,3.036-1.738,4.225-2.795c2.465-2.2,3.961-4.246,5.303-6.821
		l1.519,0.704l-0.484,0.748c1.914,2.531,3.652,4.819,6.667,6.668l2.53,1.563L445.552,522.902z M443.703,531.197
		c-0.462-0.572-0.88-1.1-1.166-1.32l-8.427,1.078l-3.301,0.506l-1.056-1.892c2.178-1.452,4.576-3.477,6.028-5.192h-6.975v-1.496
		h15.798v1.496h-8.075l1.034,0.77c-2.112,2.201-3.19,3.168-5.259,4.423l8.516-1.056c-0.572-0.418-1.21-0.771-2.135-1.211
		l1.122-1.122c1.057,0.44,1.893,1.034,2.795,1.606c0.748,0.639,1.65,1.342,2.376,2.311L443.703,531.197z M436.641,514.981
		c-0.727,1.122-2.421,3.058-3.499,4.114h7.35C438.621,517.556,437.564,516.258,436.641,514.981z"/>
</g>
<g>
	<path fill="#FFFFFF" d="M317.721,565.928v-1.242h6.034v-2.498h-3.501v-1.24h3.501v-2.347h-4.063v-0.612
		c-0.391,0.256-1.274,0.596-2.124,0.936l-0.766-1.156c3.791-1.274,6.171-3.688,7.463-5.881l1.24,0.561l-0.306,0.51
		c1.258,2.092,4.063,3.825,6.816,4.709l-0.748,1.173c-0.884-0.323-1.632-0.663-2.21-0.918v0.68h-3.978v2.347h3.502v1.24h-3.502
		v2.498h6.119v1.242H317.721z M328.209,557.359c-1.496-0.73-2.737-1.733-3.858-3.28c-1.055,1.444-2.176,2.397-3.638,3.247
		L328.209,557.359z"/>
	<path fill="#FFFFFF" d="M346.501,566.539v-1.189h-10.353v1.189h-1.292v-14.414h12.852v14.414H346.501z M346.501,553.365h-10.353
		v10.811h10.353V553.365z M336.488,562.952v-1.173h4.114v-2.89h-3.383v-1.173h3.383v-2.158h-3.961v-1.174h9.264v1.174h-4.096v2.158
		h3.553v1.173h-3.553v2.89h4.267v1.173H336.488z M344.495,561.66c-0.663-0.867-1.258-1.461-2.108-1.955l0.833-0.662
		c0.714,0.425,1.632,1.088,2.176,1.972L344.495,561.66z"/>
	<path fill="#FFFFFF" d="M356.531,560.283c-0.68,0.222-1.258,0.459-1.784,0.629v3.961c0,0.612-0.018,1.02-0.459,1.428
		c-0.374,0.323-1.395,0.391-2.262,0.374l-0.492-1.309c0.696,0.051,1.139,0.119,1.614,0.034c0.222-0.018,0.323-0.221,0.323-0.391
		v-3.655c-0.391,0.153-1.037,0.408-1.7,0.612c-0.271-0.34-0.459-0.629-0.765-1.071c0.986-0.272,1.768-0.526,2.448-0.782V556h-2.023
		v-1.207h2.023l0.017-3.297h1.275v3.297h1.699V556h-1.699v3.604c0.458-0.136,1.359-0.492,1.75-0.68L356.531,560.283z
		 M354.984,557.921c1.853-1.938,2.89-4.079,3.468-6.562l1.156,0.408c-0.272,1.037-0.477,1.955-0.766,2.668h7.021v1.225h-3.349
		l-0.017,1.887h2.481v1.24h-2.481l0.017,2.006h2.465v1.225h-2.481l0.017,2.176h3.842v1.224h-7.7v1.224h-1.309v-9.688
		c-0.153,0.221-0.612,0.985-1.156,1.598L354.984,557.921z M358.656,555.66v1.887h2.566l0.018-1.869L358.656,555.66z
		 M358.656,560.776h2.566l0.018-1.989l-2.584-0.016V560.776z M358.656,564.193h2.566v-2.176L358.656,562V564.193z M361.495,554.385
		c-0.323-1.02-0.799-1.717-1.683-2.549l1.189-0.629c0.612,0.73,1.411,1.818,1.7,2.736L361.495,554.385z"/>
	<path fill="#FFFFFF" d="M382.54,565.859h-6.969c-1.836,0-3.417-0.715-4.521-1.955c-0.527,0.73-1.649,1.648-2.618,2.261l-0.9-0.901
		c0.969-0.578,2.057-1.41,3.009-2.516v-4.59h-2.55v-1.206h3.79v6.068c0.493,0.544,2.074,1.598,3.604,1.665
		c3.23,0.137,5.746-0.051,7.633-0.135L382.54,565.859z M371.117,555.541c-0.595-1.156-1.818-2.481-2.634-2.975l0.917-0.799
		c0.986,0.68,1.836,1.479,2.771,2.924L371.117,555.541z M378.393,554.402v-2.754h1.275v2.754h2.091v1.207h-2.091v2.617h2.771v1.225
		h-2.788v4.827h-1.24v-4.861l-2.431,0.017c-0.018,1.973-0.188,3.314-1.836,4.742l-1.037-0.918c1.173-0.935,1.547-1.869,1.615-3.824
		h-2.618v-1.207h2.635v-2.635h-2.261v-1.207h2.227v-2.736h1.309v2.754H378.393z M376.013,558.227h2.397v-2.617h-2.397V558.227z"/>
	<path fill="#FFFFFF" d="M385.636,564.516c2.108-1.377,3.943-3.841,4.811-6.051l1.173,0.629c-1.122,2.414-2.566,4.709-5.015,6.442
		L385.636,564.516z M399.37,555.864l0.018,1.309H386.18v-1.292L399.37,555.864z M392.775,555.508
		c-0.408-1.242-1.479-2.414-2.482-3.162l1.19-0.715c0.985,0.731,2.158,1.854,2.566,3.299L392.775,555.508z M398.826,565.417
		c-0.969-2.448-3.127-4.726-4.963-6.341l1.003-0.799c2.346,1.887,4.164,3.961,5.167,6.477L398.826,565.417z"/>
	<path fill="#FFFFFF" d="M414.364,566.352v-1.258h-9.654l0.017,1.344H403.4v-10.233h3.859l0.017-2.431h-5.185v-1.275h14.822v1.258
		l-5.099,0.018v2.431l3.858-0.017v10.164H414.364z M404.727,561.983c1.428-0.85,2.363-2.72,2.516-4.521l-2.532,0.017
		L404.727,561.983z M404.727,563.836h9.638v-6.374h-2.549v2.651c0,0.307,0.152,0.442,0.492,0.442h1.836v1.241l-2.396-0.018
		c-1.105,0-1.241-0.799-1.241-1.394v-2.924l-1.903,0.017c-0.051,2.125-1.054,4.098-2.873,5.576l-1.003-0.833V563.836z
		 M410.489,553.756l-1.904,0.018v2.414l1.921,0.017L410.489,553.756z"/>
	<path fill="#FFFFFF" d="M424.889,554.811v1.24h-1.751v0.885l0.204-0.205c0.833,0.494,1.614,1.207,2.176,2.041l-1.054,0.747
		c-0.426-0.714-0.901-1.274-1.292-1.513v8.635h-1.292v-6.544c-0.34,0.663-1.258,2.176-1.955,2.94l-1.054-0.815
		c1.377-1.513,2.617-3.995,2.873-6.171h-2.261v-1.24l2.346,0.017l-0.018-3.331h1.343v3.314H424.889z M428.594,551.717
		c-0.085,0.527-0.255,0.986-0.374,1.377h4.471c-0.578,2.022-1.189,2.975-2.55,4.385c1.207,1.004,2.754,1.785,4.437,2.278
		l-0.765,1.071c-1.819-0.629-3.349-1.496-4.59-2.516c-1.41,1.155-2.805,1.784-4.538,2.583l-0.799-1.071
		c1.853-0.629,3.127-1.428,4.453-2.43c-0.526-0.697-0.782-1.19-1.189-1.836c-0.459,0.748-0.986,1.479-1.53,2.039l-1.104-0.73
		c1.598-1.598,2.346-3.451,2.839-5.524L428.594,551.717z M426.078,566.624l-0.017-6.323h6.272v6.289h-1.31v-0.951h-3.62v1.002
		L426.078,566.624z M431.042,564.397l-0.018-2.873h-3.62l-0.018,2.89L431.042,564.397z M427.931,554.334
		c0.307,0.68,0.731,1.428,1.377,2.227c0.816-0.9,1.156-1.444,1.615-2.227H427.931z"/>
	<path fill="#FFFFFF" d="M436.364,557.87v-1.241h2.209v-2.601l-2.209-0.017v-1.241l5.729,0.017v1.225h-2.244v2.617h1.903v1.225
		h-1.903l0.017,2.991c0.646-0.272,1.241-0.562,2.261-1.003v1.292c-1.24,0.612-2.176,1.003-3.45,1.495
		c-0.629,0.238-1.292,0.51-2.04,0.766l-0.646-1.225c0.985-0.289,1.717-0.561,2.583-0.9v-3.399H436.364z M442.109,562.715v-1.241
		h6.204v1.241H442.109z M446.002,565.094c0.799,0.137,1.274,0.221,1.903,0.256c0.426,0.017,0.612-0.375,0.697-0.748
		c0.357-1.496,0.51-3.383,0.714-5.083l-6.544-0.017v-1.225c0.271-1.699,0.356-2.787,0.476-4.232l1.309,0.408
		c-0.152,1.768-0.288,2.771-0.458,3.824h3.076c0.272-1.325,0.51-3.45,0.612-4.878H442.5v-1.241l6.646,0.018
		c-0.067,1.836-0.34,3.842-0.663,6.102h2.091l-0.034,0.936c-0.067,2.039-0.373,5.014-0.765,6.051
		c-0.237,0.664-0.629,1.258-1.717,1.293c-0.646,0.017-1.122-0.052-1.699-0.154L446.002,565.094z"/>
	<path fill="#FFFFFF" d="M453.177,554.742c1.377-0.884,2.142-2.125,2.771-3.484c0.408,0.187,0.697,0.34,1.105,0.527
		c-0.188,0.424-0.374,0.799-0.425,0.934h4.402v1.207l-2.566,0.018c0.067,0.085,0.306,0.595,0.577,1.003l-1.155,0.629
		c-0.289-0.681-0.578-1.19-0.969-1.632h-0.986c-0.408,0.561-0.918,1.122-1.785,1.717L453.177,554.742z M453.874,555.694h6.238
		c-0.119-0.238-0.459-0.663-0.969-1.156l1.224-0.391c0.544,0.544,0.952,1.241,1.156,1.547h6.085v3.195l-1.292-0.017V556.9h-11.15
		l-0.018,2.058l-1.274-0.017V555.694z M457.443,566.691h-1.343l0.017-8.924h9.146l0.017,3.468l-7.87,0.017v0.851h8.618v4.538h-1.309
		v-1.002h-7.292L457.443,566.691z M457.409,560.029h6.579l-0.018-1.055h-6.562V560.029z M457.427,563.344l0.017,1.121l7.275-0.017
		v-1.139L457.427,563.344z M465.364,553.858c0.103,0.103,0.493,0.51,0.782,1.036c-0.374,0.238-0.714,0.408-1.155,0.596
		c-0.323-0.68-0.663-1.207-1.105-1.615h-1.122c-0.221,0.374-0.544,0.901-1.02,1.309c-0.357-0.271-0.629-0.441-1.003-0.73
		c0.918-0.986,1.394-1.972,1.683-3.229l1.139,0.425c-0.067,0.441-0.17,0.816-0.237,1.003h4.641v1.207H465.364z"/>
	<path fill="#FFFFFF" d="M470.84,564.448c-0.356-0.323-0.68-0.578-1.122-1.021c1.054-0.305,1.836-0.629,2.567-0.9v-3.927h-1.734
		l0.018-1.206l1.683,0.017l0.017-3.366l-2.04,0.018v-1.241l5.27,0.017v1.207h-1.887l-0.017,3.366l1.666-0.017v1.206h-1.666v3.435
		c0.493-0.188,1.224-0.527,2.057-0.834v1.275L470.84,564.448z M484.167,552.379l-0.034,7.395h-3.451v1.633h3.349v1.223h-3.383v1.955
		h4.539v1.207h-10.318v-1.207h4.471l0.018-1.955h-3.4v-1.223h3.383l0.018-1.633h-3.52v-7.411L484.167,552.379z M479.339,555.405
		l0.018-1.802l-2.228-0.018v1.819H479.339z M477.129,556.611v1.955h2.21l0.018-1.971L477.129,556.611z M480.665,556.629v1.921
		l2.192,0.017v-1.92L480.665,556.629z M480.699,555.422h2.176l0.033-1.818l-2.227-0.018L480.699,555.422z"/>
	<path fill="#FFFFFF" d="M493.977,559.195c-0.119,1.344-0.204,2.551-0.816,3.672c-0.985,1.803-2.855,3.009-4.708,3.808
		c-0.289-0.356-0.493-0.68-0.816-1.088c2.55-1.173,4.454-2.516,4.93-5.031c0.034-0.187,0.068-1.104,0.085-1.36l-4.267,0.018v-1.292
		l5.949,0.017l-0.017-2.498c-0.969-0.018-2.074-0.018-3.094,0c-0.425,0.748-0.969,1.479-1.7,2.295l-1.104-0.715
		c1.359-1.377,2.21-3.008,2.431-4.827l1.241,0.323c-0.068,0.662-0.289,1.326-0.392,1.699l2.601-0.017v-2.907
		c0.477-0.017,0.851,0,1.343-0.017v2.924l4.42,0.017l0.018,1.225l-4.386,0.017v2.499h5.729v1.24l-4.403,0.018l-0.017,4.827
		c0,0.425,0.221,0.646,0.544,0.646h2.465c0.255-0.067,0.356-0.322,0.459-0.594c0.153-0.477,0.306-1.123,0.441-1.734l1.088,0.391
		c-0.17,0.986-0.288,1.564-0.595,2.278c-0.323,0.747-0.73,0.901-1.274,0.901h-2.873c-0.815,0-1.563-0.986-1.563-1.599l-0.018-5.134
		H493.977z"/>
	<path fill="#FFFFFF" d="M518.54,565.859h-6.969c-1.836,0-3.417-0.715-4.521-1.955c-0.527,0.73-1.649,1.648-2.618,2.261l-0.9-0.901
		c0.969-0.578,2.057-1.41,3.009-2.516v-4.59h-2.55v-1.206h3.79v6.068c0.493,0.544,2.074,1.598,3.604,1.665
		c3.23,0.137,5.746-0.051,7.633-0.135L518.54,565.859z M507.117,555.541c-0.595-1.156-1.818-2.481-2.634-2.975l0.917-0.799
		c0.986,0.68,1.836,1.479,2.771,2.924L507.117,555.541z M514.393,554.402v-2.754h1.275v2.754h2.091v1.207h-2.091v2.617h2.771v1.225
		h-2.788v4.827h-1.24v-4.861l-2.431,0.017c-0.018,1.973-0.188,3.314-1.836,4.742l-1.037-0.918c1.173-0.935,1.547-1.869,1.615-3.824
		h-2.618v-1.207h2.635v-2.635h-2.261v-1.207h2.227v-2.736h1.309v2.754H514.393z M512.013,558.227h2.397v-2.617h-2.397V558.227z"/>
	<path fill="#FFFFFF" d="M523.403,554.368h2.652c-0.272-0.68-1.071-1.733-1.819-2.396l0.936-0.731
		c0.663,0.477,1.529,1.463,2.243,2.721l-0.526,0.373l2.073,0.034c0.595-0.577,1.377-1.836,1.785-3.025l1.189,0.561
		c-0.407,1.054-1.07,2.091-1.428,2.465h2.839v6.068h-4.317v1.394h6.833v1.19h-6.851v3.501h-1.258v-3.484h-6.714v-1.189h6.731v-1.411
		h-4.369V554.368z M527.755,557.972h-3.076v1.292h3.076V557.972z M527.772,556.73v-1.139h-3.077v1.139H527.772z M529.013,555.592
		v1.139h3.094v-1.139H529.013z M532.09,557.955h-3.06v1.309h3.06V557.955z"/>
	<path fill="#FFFFFF" d="M537.82,558.89c2.702-2.618,3.212-5.423,4.063-7.36l1.173,0.544c-0.442,1.326-0.867,2.55-1.36,3.688v10.981
		h-1.309v-8.771c-0.102,0.153-0.867,1.173-1.411,1.751L537.82,558.89z M553.221,565.689l-10.642,0.017v-1.274h4.59
		c1.36-2.414,2.516-4.93,2.686-7.99l1.292,0.494c-0.187,2.566-1.292,5.082-2.532,7.496h4.589L553.221,565.689z M542.971,556.271
		l-0.018-1.274l9.417-0.017v1.274L542.971,556.271z M545.758,563.53c-0.067-2.38-0.662-4.267-1.835-6.238l1.359-0.289
		c1.088,1.921,1.683,3.96,1.853,6.255L545.758,563.53z M546.354,551.496c0.866,0.561,1.887,1.852,2.328,2.872l-1.224,0.544
		c-0.493-1.121-1.173-1.988-2.295-2.72L546.354,551.496z"/>
	<path fill="#FFFFFF" d="M316.616,585.936c0.085-0.696,0.17-0.985,0.408-1.461c0.459-0.918,1.24-1.803,2.464-2.805l0.562-0.459
		c2.243-1.836,3.094-2.992,3.094-4.148c0-1.224-0.969-2.107-2.295-2.107c-1.462,0-2.363,0.918-2.38,2.447l-1.53-0.17
		c0.204-2.277,1.599-3.518,3.944-3.518c2.261,0,3.808,1.377,3.808,3.382c0,1.445-0.851,2.737-2.992,4.538l-1.224,1.037
		c-1.003,0.851-1.411,1.293-1.751,1.836h5.983v1.428H316.616z"/>
	<path fill="#FFFFFF" d="M330.284,586.141c-1.581,0-2.788-0.834-3.4-2.363c-0.391-0.986-0.561-2.193-0.561-3.875
		c0-4.098,1.326-6.188,3.961-6.188s3.96,2.09,3.96,6.221S332.919,586.141,330.284,586.141z M332.272,576.468
		c-0.34-0.935-1.104-1.513-2.006-1.513c-1.666,0-2.414,1.564-2.414,4.963c0,1.514,0.153,2.67,0.442,3.469
		c0.34,0.951,1.104,1.529,1.989,1.529c0.884,0,1.648-0.578,1.988-1.529c0.289-0.782,0.442-1.955,0.442-3.451
		S332.578,577.301,332.272,576.468z"/>
	<path fill="#FFFFFF" d="M339.906,585.936v-9.519c-0.493,0.476-0.97,0.799-1.854,1.274c-0.544,0.289-0.696,0.357-1.139,0.527v-1.445
		c1.615-0.748,2.958-1.938,3.519-3.059h0.969v12.221H339.906z"/>
	<path fill="#FFFFFF" d="M349.375,586.141c-1.547,0-2.924-0.834-3.569-2.176c-0.459-0.953-0.646-2.092-0.646-3.723
		c0-4.268,1.496-6.527,4.352-6.527c1.938,0,3.213,1.121,3.468,3.025l-1.496,0.136c-0.17-1.258-0.85-1.921-1.972-1.921
		c-1.104,0-1.938,0.596-2.362,1.666c-0.307,0.781-0.51,1.904-0.51,2.805v0.238c0.271-0.426,0.407-0.578,0.714-0.834
		c0.629-0.492,1.428-0.781,2.243-0.781c2.057,0,3.587,1.683,3.587,3.927C353.183,584.406,351.602,586.141,349.375,586.141z
		 M349.29,579.357c-1.394,0-2.414,1.122-2.414,2.618c0,1.665,1.071,2.94,2.465,2.94c1.343,0,2.312-1.189,2.312-2.838
		C351.652,580.463,350.701,579.357,349.29,579.357z"/>
	<path fill="#FFFFFF" d="M359.625,572.168c-0.068,0.594-0.238,1.036-0.323,1.325h9.52v1.241l-5.185,0.033l0.017,2.176h4.335v1.258
		h-4.335v2.754h5.865v1.258l-5.865-0.017v4.896h-1.343v-4.879h-6.629v-1.274l2.107,0.017v-4.012l4.521-0.017v-2.176h-3.501
		c-0.544,1.104-1.19,2.329-2.346,3.399l-1.071-0.867c1.547-1.376,2.516-3.229,3.145-5.643L359.625,572.168z M359.099,578.201v2.754
		h3.195l0.017-2.754H359.099z"/>
	<path fill="#FFFFFF" d="M374.568,580.089c0,2.329-0.136,5.031-1.768,7.088l-1.088-0.85c0.765-1.122,1.24-2.142,1.377-3.349
		c0.102-1.003,0.152-2.04,0.152-3.076v-6.256h6.188c-0.221-0.323-0.51-0.596-1.377-1.139l1.258-0.697
		c0.51,0.51,1.395,1.359,1.683,1.836h5.627l0.017,1.207h-12.052L374.568,580.089z M384.631,582.01
		c-0.595,1.002-2.277,2.277-2.957,2.668c0.407,0.188,1.088,0.392,1.768,0.545c1.139,0.271,2.277,0.459,3.638,0.561
		c-0.204,0.527-0.476,0.816-0.697,1.207c-2.176-0.307-4.267-0.697-6.068-1.581c-0.493,0.204-1.003,0.442-1.547,0.646
		c-1.24,0.477-2.635,0.799-4.097,0.969c-0.289-0.373-0.51-0.696-0.9-1.189c2.091-0.17,3.79-0.68,5.219-1.189
		c-0.833-0.596-1.785-1.564-2.448-2.566h-1.292v-1.207l9.417,0.033L384.631,582.01z M383.51,580.021h-6.409l0.018-2.329h-2.278
		v-1.172l2.261-0.018v-1.309h1.344v1.309h3.739v-1.326h1.326v1.326h2.771v1.207h-2.771V580.021z M378.104,582.078
		c0.851,0.951,1.344,1.393,2.21,1.954c1.037-0.562,2.006-1.155,2.754-1.938L378.104,582.078z M378.495,578.848l3.672-0.018
		l0.017-1.121h-3.723L378.495,578.848z"/>
	<path fill="#FFFFFF" d="M389.528,586.327v-1.241h6.034v-2.498h-3.501v-1.241h3.501v-2.346H391.5v-0.612
		c-0.391,0.255-1.274,0.596-2.124,0.936l-0.766-1.156c3.791-1.275,6.171-3.689,7.463-5.881l1.24,0.561l-0.306,0.51
		c1.258,2.091,4.063,3.824,6.816,4.709l-0.748,1.172c-0.884-0.322-1.632-0.662-2.21-0.918v0.681h-3.978v2.346h3.502v1.241h-3.502
		v2.498h6.119v1.241H389.528z M400.017,577.76c-1.496-0.73-2.737-1.734-3.858-3.281c-1.055,1.445-2.176,2.397-3.638,3.248
		L400.017,577.76z"/>
	<path fill="#FFFFFF" d="M418.309,586.939v-1.19h-10.353v1.19h-1.292v-14.415h12.852v14.415H418.309z M418.309,573.766h-10.353
		v10.811h10.353V573.766z M408.296,583.353v-1.173h4.114v-2.891h-3.383v-1.172h3.383v-2.159h-3.961v-1.173h9.265v1.173h-4.097v2.159
		h3.552v1.172h-3.552v2.891h4.267v1.173H408.296z M416.303,582.061c-0.663-0.867-1.258-1.462-2.108-1.955l0.833-0.662
		c0.714,0.424,1.632,1.088,2.176,1.971L416.303,582.061z"/>
	<path fill="#FFFFFF" d="M423.443,584.916c2.108-1.377,3.943-3.842,4.811-6.051l1.173,0.629c-1.122,2.413-2.566,4.708-5.015,6.441
		L423.443,584.916z M437.178,576.264l0.018,1.309h-13.208v-1.291L437.178,576.264z M430.583,575.907
		c-0.408-1.241-1.479-2.414-2.482-3.162l1.19-0.714c0.985,0.73,2.159,1.854,2.566,3.298L430.583,575.907z M436.634,585.816
		c-0.969-2.447-3.127-4.725-4.963-6.34l1.003-0.799c2.346,1.887,4.164,3.961,5.167,6.477L436.634,585.816z"/>
	<path fill="#FFFFFF" d="M452.172,586.752v-1.258h-9.654l0.017,1.343h-1.326v-10.233h3.859l0.017-2.43h-5.185v-1.275h14.822v1.258
		l-5.099,0.018v2.43l3.858-0.017v10.165H452.172z M442.534,582.383c1.428-0.85,2.363-2.719,2.516-4.521l-2.532,0.018
		L442.534,582.383z M442.534,584.236h9.638v-6.375h-2.549v2.652c0,0.306,0.152,0.441,0.492,0.441h1.836v1.241l-2.396-0.017
		c-1.104,0-1.241-0.799-1.241-1.395v-2.924l-1.903,0.018c-0.051,2.125-1.054,4.097-2.873,5.575l-1.003-0.833V584.236z
		 M448.297,574.156l-1.904,0.018v2.413l1.921,0.017L448.297,574.156z"/>
	<path fill="#FFFFFF" d="M462.696,575.21v1.241h-1.751v0.884l0.204-0.204c0.833,0.493,1.614,1.207,2.176,2.04l-1.054,0.747
		c-0.426-0.713-0.901-1.274-1.292-1.512v8.635h-1.292v-6.545c-0.34,0.664-1.258,2.176-1.955,2.941l-1.054-0.816
		c1.377-1.513,2.617-3.994,2.873-6.17h-2.262v-1.241l2.347,0.017l-0.018-3.331h1.343v3.314H462.696z M466.401,572.116
		c-0.085,0.527-0.255,0.986-0.374,1.377h4.471c-0.578,2.022-1.189,2.975-2.55,4.386c1.207,1.003,2.754,1.785,4.437,2.277
		l-0.765,1.071c-1.818-0.629-3.349-1.496-4.59-2.516c-1.41,1.155-2.805,1.784-4.538,2.583l-0.799-1.07
		c1.853-0.629,3.127-1.428,4.453-2.431c-0.526-0.697-0.782-1.19-1.189-1.836c-0.459,0.748-0.986,1.479-1.53,2.04l-1.104-0.73
		c1.598-1.599,2.346-3.451,2.839-5.525L466.401,572.116z M463.886,587.023l-0.017-6.322h6.272v6.289h-1.31v-0.952h-3.62v1.003
		L463.886,587.023z M468.85,584.797l-0.018-2.873h-3.62l-0.018,2.891L468.85,584.797z M465.738,574.734
		c0.307,0.68,0.731,1.428,1.377,2.227c0.816-0.9,1.156-1.445,1.615-2.227H465.738z"/>
	<path fill="#FFFFFF" d="M474.172,578.27v-1.24h2.209v-2.602l-2.209-0.017v-1.241l5.729,0.018v1.224h-2.244v2.618h1.903v1.224
		h-1.903l0.017,2.991c0.646-0.271,1.241-0.561,2.261-1.002v1.291c-1.24,0.612-2.176,1.003-3.45,1.496
		c-0.629,0.238-1.292,0.51-2.04,0.766l-0.646-1.225c0.985-0.289,1.717-0.561,2.583-0.9v-3.4H474.172z M479.917,583.114v-1.241h6.204
		v1.241H479.917z M483.81,585.494c0.799,0.136,1.274,0.221,1.904,0.255c0.425,0.017,0.611-0.374,0.696-0.748
		c0.357-1.495,0.51-3.382,0.714-5.083l-6.544-0.016v-1.225c0.271-1.699,0.356-2.787,0.476-4.232l1.309,0.408
		c-0.152,1.768-0.288,2.771-0.459,3.824h3.077c0.272-1.326,0.51-3.451,0.612-4.879h-5.287v-1.24l6.646,0.017
		c-0.067,1.836-0.34,3.842-0.663,6.103h2.091l-0.034,0.936c-0.067,2.039-0.373,5.014-0.765,6.051
		c-0.238,0.663-0.629,1.258-1.717,1.292c-0.646,0.017-1.122-0.052-1.699-0.153L483.81,585.494z"/>
	<path fill="#FFFFFF" d="M491.172,583.369c-0.255-0.408-0.408-0.748-0.612-1.24c0.935-0.289,1.733-0.494,2.431-0.731v-6.341h-2.158
		v-1.224h5.252v1.224h-1.818v5.865c0.407-0.137,1.376-0.51,1.988-0.68v1.377L491.172,583.369z M501.473,581.092
		c0,0.629-0.459,2.006-0.969,2.635c-1.599,1.988-3.281,2.771-6.29,3.229l-0.577-1.274c2.243-0.153,4.164-0.681,5.541-2.262
		c0.748-0.85,1.037-1.887,1.054-3.06l0.034-3.042l1.224,0.084L501.473,581.092z M505.365,573.867h-4.028
		c-0.153,0.544-0.408,1.139-0.562,1.564h3.638v8.006h-1.258v-6.783h-4.793v7.105h-1.292v-8.328h2.362
		c0.221-0.527,0.442-1.088,0.595-1.547h-3.654v-1.174h8.992V573.867z M501.574,583.029c1.513,0.595,3.111,1.513,4.284,3.009
		c-0.272,0.34-0.493,0.629-0.816,0.985c-1.309-1.598-2.55-2.346-4.097-2.991L501.574,583.029z"/>
	<path fill="#FFFFFF" d="M511.792,586.667h-1.359v-13.854h9.536v13.837h-1.36v-1.479h-6.833L511.792,586.667z M511.775,574.088
		l0.017,2.278h6.816v-2.278H511.775z M511.792,577.572l-0.017,2.448h6.833v-2.448H511.792z M511.775,581.262l0.017,2.617h6.816
		v-2.617H511.775z"/>
	<path fill="#FFFFFF" d="M539.025,586.956c-2.601-0.612-3.57-1.444-5.202-2.635c-1.444,1.411-3.365,2.227-5.371,2.601l-0.748-1.07
		c2.261-0.494,3.91-1.156,5.219-2.363c-0.595-0.578-1.853-2.396-2.295-3.349c-0.918,2.686-2.873,4.759-5.116,6.392l-0.936-1.088
		c2.907-1.803,4.964-4.811,5.729-8.211h-3.893v-1.139l1.564-3.893l1.139,0.596l-1.275,3.195h2.788
		c0.323-1.225,0.493-2.55,0.663-4.131l1.241,0.323c-0.204,1.462-0.374,2.702-0.612,3.808h7.326v1.24h-7.615
		c-0.153,0.426-0.306,0.952-0.442,1.326h5.813v1.055c-0.577,1.359-1.41,2.77-2.379,3.841c1.428,1.173,3.161,1.938,5.286,2.465
		L539.025,586.956z M531.835,579.8c0.374,0.731,1.241,2.159,1.921,2.771c0.765-0.85,1.394-1.818,1.802-2.771H531.835z
		 M536.017,575.669c-0.646-1.071-1.615-1.819-2.703-2.448l0.884-0.832c1.122,0.595,2.091,1.41,2.856,2.465L536.017,575.669z"/>
	<path fill="#FFFFFF" d="M545.248,586.242c0.477-0.238,0.663-0.663,0.714-0.969v-2.958c-0.781,0.493-2.006,1.139-3.229,1.462
		l-0.697-1.156c1.973-0.578,3.757-1.479,4.879-2.703h-4.368v-1.223h6.271v-1.395h-4.47v-1.258h4.47v-1.292h-5.473v-1.241h5.473
		v-1.836h1.36v1.871h5.405v1.189h-5.354v1.309h4.386v1.225h-4.42v1.428h6.171v1.223h-5.049c0.289,1.004,0.493,1.564,0.901,2.363
		c0.866-0.441,1.836-1.224,2.651-2.022l0.969,0.918c-0.985,0.969-1.972,1.665-2.872,2.176c0.951,1.122,2.362,1.954,3.96,2.634
		l-0.9,1.105c-4.063-2.107-5.27-3.858-6.018-7.174h-1.445c-0.322,0.527-0.815,1.072-1.291,1.496v3.91l3.365-1.666v1.326
		l-4.471,2.244L545.248,586.242z"/>
	<path fill="#FFFFFF" d="M573.297,573.221l0.018,2.822h-1.275l-0.017-1.648h-2.873v0.408h2.465v1.104l-2.465-0.017v0.407h2.21
		l0.017,1.071h-2.227v0.459h4.487l-0.017,1.173l-4.113-0.017c1.155,1.376,2.736,2.209,4.759,2.906l-0.85,1.02
		c-1.241-0.476-2.38-1.088-3.179-1.699v2.94l-1.274-0.017v-3.315h-5.219v3.621h-1.258v-2.839c-0.833,0.561-1.989,1.037-3.229,1.377
		l-0.681-1.071c0.952-0.272,1.717-0.493,2.414-0.866c0.986-0.527,2.006-1.31,2.533-2.057h-4.352v-1.156h4.521l-0.018-0.442
		l-2.227-0.017v-1.071h2.244v-0.391h-2.499v-1.088h2.499v-0.442l-2.958,0.018v1.666h-1.274v-2.84h6.561
		c-0.221-0.271-0.407-0.476-1.003-0.918l1.105-0.646c0.595,0.527,0.918,1.088,1.207,1.563H573.297z M559.716,585.698
		c2.312,0.102,4.589-0.527,5.422-2.108c0.374-0.713,0.595-1.309,0.714-2.295l1.19,0.205c-0.204,1.818-0.918,3.484-2.414,4.385
		c-1.224,0.748-2.873,1.055-4.283,1.088L559.716,585.698z M568.538,579.664c-0.086-0.103-0.323-0.426-0.511-0.68h-3.025
		c-0.153,0.356-0.357,0.611-0.408,0.68H568.538z M567.875,574.819l-0.018-0.425h-2.906l0.017,0.425H567.875z M567.875,576.298
		l-0.018-0.391l-2.906-0.017l0.017,0.407H567.875z M567.875,577.828l-0.018-0.442l-2.906-0.017l0.017,0.459H567.875z
		 M571.887,587.211c-1.785-1.122-3.366-1.683-5.423-2.261l0.612-1.003c2.091,0.51,3.638,1.139,5.592,2.193L571.887,587.211z"/>
	<path fill="#FFFFFF" d="M576.987,578.474h13.174v1.411l-13.174,0.018V578.474z"/>
	<path fill="#FFFFFF" d="M598.067,576.451c-0.238-0.748-0.782-1.462-1.207-1.938l-0.884,0.017c-0.323,0.714-0.986,1.614-1.955,2.278
		l-0.986-0.8c1.547-1.155,2.55-3.11,2.737-4.283l1.207,0.34c-0.153,0.562-0.307,1.003-0.408,1.241h4.147v1.224h-2.295
		c0.204,0.204,0.544,0.714,0.884,1.343L598.067,576.451z M601.024,585.732c0.799,0.051,1.395,0.102,1.972,0.084
		c0.222,0,0.374-0.221,0.374-0.424v-2.211h-10.097v-1.206h10.097v-1.104l1.344-0.018v1.139h3.025v1.189h-3.025v2.584
		c0,0.357-0.341,0.816-0.681,1.055c-0.391,0.254-1.309,0.271-2.532,0.254L601.024,585.732z M601.127,575.855v1.123l4.708,0.017
		v1.189l-4.691,0.017v1.258h5.949v1.225h-13.258l-0.018-1.207l5.983-0.018v-1.258h-4.572l-0.018-1.206h4.59v-1.258h1.173
		l-0.73-0.562c1.07-1.02,1.802-2.09,1.954-3.569l1.173,0.459c-0.136,0.68-0.136,0.799-0.271,1.173h4.59v1.207h-2.329
		c0.187,0.188,0.459,0.697,0.73,1.326l-1.224,0.611c-0.17-0.765-0.595-1.513-0.969-1.938h-1.411
		c-0.221,0.441-0.765,1.173-1.224,1.513L601.127,575.855z M596.316,583.353c1.513,0.17,2.839,0.696,3.994,1.784l-0.696,1.088
		c-0.97-1.054-2.771-1.699-4.012-1.836L596.316,583.353z"/>
	<path fill="#FFFFFF" d="M624.552,581.16v1.24h-5.524c0.782,1.258,2.703,2.617,6.12,3.399l-0.936,1.14
		c-3.757-1.037-6-2.941-6.544-4.573h-0.17c-1.564,3.927-5.508,4.284-7.225,4.573l-0.833-1.123c2.278-0.424,5.627-1.036,6.578-3.416
		h-6.051v-1.24h6.748l0.357-1.156l1.274,0.152l-0.271,1.004H624.552z M615.22,580.582h-1.325v-2.975
		c-0.952,0.781-2.244,1.699-3.281,2.295l-0.866-1.259c1.173-0.544,2.89-1.717,4.13-2.566v-4.249h1.31L615.22,580.582z
		 M610.749,572.627c0.885,0.629,1.836,1.665,2.432,2.736l-1.021,1.003c-0.408-1.021-1.343-2.159-2.295-2.958L610.749,572.627z
		 M618.62,575.363c0.492,0.357,1.121,0.884,1.495,1.41c0.596-0.492,1.411-1.258,2.176-2.413h-3.62
		c-0.51,0.747-1.581,1.989-2.329,2.431l-1.003-0.969c1.309-0.816,2.431-2.006,3.213-4.148l1.139,0.477
		c-0.067,0.307-0.238,0.714-0.408,1.003h4.437l0.018,1.224c-1.462,2.805-3.688,4.709-7.514,5.576l-0.85-1.174
		c1.326-0.237,2.754-0.595,3.808-1.342c-0.493-0.527-0.952-0.97-1.513-1.275L618.62,575.363z"/>
</g>
</svg>
