<?xml version="1.0" encoding="utf-8"?>
<!-- Generator: Adobe Illustrator 16.0.0, SVG Export Plug-In . SVG Version: 6.00 Build 0)  -->
<!DOCTYPE svg PUBLIC "-//W3C//DTD SVG 1.1//EN" "http://www.w3.org/Graphics/SVG/1.1/DTD/svg11.dtd">
<svg version="1.1" id="Layer_1" xmlns="http://www.w3.org/2000/svg" xmlns:xlink="http://www.w3.org/1999/xlink" x="0px" y="0px"
	 width="768px" height="1024px" viewBox="0 0 768 1024" enable-background="new 0 0 768 1024" xml:space="preserve">
<rect x="140.671" y="445.86" opacity="0.698" fill-rule="evenodd" clip-rule="evenodd" fill="#173058" width="162.219" height="324.44"/>
<g>
	<g>
		<path fill="#FFFFFF" d="M166.833,477.411c-0.315-1.646-1.575-3.045-3.291-3.045c-3.605,0-4.55,4.725-4.69,7.456l0.07,0.07
			c1.365-1.925,3.15-2.73,5.531-2.73c2.1,0,4.235,0.98,5.636,2.52c1.295,1.505,1.89,3.536,1.89,5.461
			c0,5.005-3.465,8.961-8.576,8.961c-7.42,0-9.416-6.476-9.416-12.671c0-5.986,2.661-12.812,9.626-12.812
			c4.235,0,7.386,2.485,7.946,6.791H166.833z M159.307,487.457c0,2.275,1.47,4.55,3.956,4.55c2.38,0,3.745-2.275,3.745-4.48
			c0-2.31-1.19-4.621-3.745-4.621C160.602,482.906,159.307,485.042,159.307,487.457z"/>
	</g>
</g>
<g>
	<path fill="#FFFFFF" d="M156.135,525.852v-9.748h7.194l-0.021-4.027h1.76l-0.044,4.005l7.173,0.021v9.659h-1.738v-1.496h-5.435
		l0.044,7.415h-1.738l-0.021-7.415h-5.391l-0.044,1.585H156.135z M163.308,517.709h-5.435v4.973h5.456L163.308,517.709z
		 M170.414,517.709h-5.347v4.951h5.369L170.414,517.709z"/>
	<path fill="#FFFFFF" d="M191.469,531.55v-1.54h-13.399v1.54h-1.673v-18.659h16.635v18.659H191.469z M191.469,514.497h-13.399
		v13.994h13.399V514.497z M178.509,526.906v-1.518h5.325v-3.74h-4.379v-1.519h4.379v-2.794h-5.127v-1.519h11.991v1.519h-5.303v2.794
		h4.6v1.519h-4.6v3.74h5.523v1.518H178.509z M188.872,525.234c-0.857-1.121-1.628-1.893-2.728-2.529l1.078-0.859
		c0.924,0.551,2.112,1.408,2.816,2.553L188.872,525.234z"/>
	<path fill="#FFFFFF" d="M204.865,511.681c0.792,0.814,1.298,1.452,1.563,2.179h9.043v1.584H195.91v-1.584h8.845
		c-0.197-0.353-0.66-0.639-1.386-1.32L204.865,511.681z M199.188,519.58v12.277h-1.672v-13.84h4.796
		c-0.308-0.396-1.231-0.945-1.979-1.364l1.496-0.901c0.901,0.461,2.023,1.496,2.442,2.266h2.882
		c0.748-0.727,1.431-1.475,1.849-2.223l1.672,0.727c-0.572,0.836-1.056,1.232-1.364,1.496h4.511v11.376
		c0,0.924-0.792,1.892-1.848,1.892h-1.849l-0.616-1.826l2.156,0.176c0.242-0.021,0.506-0.373,0.506-0.527l-0.021-9.527H199.188z
		 M199.408,522.594c1.628-0.571,3.278-1.649,4.203-2.859l1.298,0.924c-0.946,1.32-2.904,2.729-4.488,3.41L199.408,522.594z
		 M209.397,528.777h-7.591v-4.929h7.591V528.777z M203.369,527.215h4.444v-1.805h-4.444V527.215z M210.256,524.267
		c-1.166-1.474-2.992-2.685-4.356-3.433l1.012-0.99c1.629,0.594,3.587,1.914,4.555,3.168L210.256,524.267z"/>
	<path fill="#FFFFFF" d="M217.427,530.516v-1.606h6.425v-16.238h1.716v16.238h2.553v-16.238h1.65v16.238h6.381v1.606H217.427z
		 M220.881,526.665c-0.11-2.993-1.122-6.051-2.223-8.537l1.431-0.683c1.122,2.465,2.156,5.545,2.464,8.494L220.881,526.665z
		 M232.036,526.93l-1.408-0.859c1.519-2.002,2.574-5.94,2.729-8.58l1.519,0.549C234.435,521.494,233.488,524.685,232.036,526.93z"/>
	<path fill="#FFFFFF" d="M245.19,526.203v5.369h-1.672v-4.885l-4.797,1.386l-1.056-1.673c0.77-0.065,1.298-0.197,1.694-0.285
		v-11.641h-1.188v-1.605h8.251v1.605h-1.232v10.1c0.463-0.109,1.166-0.264,1.563-0.439v1.605L245.19,526.203z M243.519,514.475
		h-2.486v2.377h2.486V514.475z M243.519,518.457h-2.486v2.398h2.486V518.457z M243.519,522.463h-2.486v3.277
		c0.924-0.219,1.452-0.33,2.486-0.638V522.463z M256.347,531.527c-0.836-0.527-1.343-0.945-1.98-1.693
		c-1.475-1.783-2.486-4.137-2.86-7.063c-0.506,2.97-0.814,4.973-3.608,7.701c-0.396,0.374-0.792,0.748-1.32,1.034l-1.101-1.299
		c2.904-1.936,3.763-3.762,4.379-7.437h-4.049v-1.606h4.181c0.066-0.727,0.066-1.672,0.066-2.662v-0.352h-3.829v-1.607h4.995
		c1.122-1.584,1.628-2.771,2.267-4.554l1.518,0.814c-0.506,1.012-1.298,2.685-1.98,3.74h3.499v1.607h-4.841
		c0,1.474,0,2.111-0.088,3.014h5.479v1.606h-4.093c0.133,0.638,0.221,1.408,0.507,2.222c0.726,2.047,2.002,3.917,4.048,5.436
		L256.347,531.527z M249.195,516.346c-0.33-1.211-1.122-2.662-2.024-3.389l1.364-0.77c0.924,0.902,1.628,2.024,2.068,3.366
		L249.195,516.346z"/>
	<path fill="#FFFFFF" d="M270.294,512.319c-0.242,0.242-0.484,0.484-0.683,0.682c2.575,3.257,7.195,6.446,9.176,7.063
		c-0.374,0.615-0.748,0.99-1.101,1.474c-0.813-0.33-1.54-0.616-4.467-2.751c-1.474-1.1-3.278-3.277-4.466-4.686
		c-2.047,2.441-4.203,4.488-8.934,7.701l-1.188-1.32c4.907-3.169,8.714-7.174,10.033-9.264L270.294,512.319z M273.396,531.615
		l-0.022-1.363h-9.308v1.474h-1.76v-8.185h12.872v8.074H273.396z M274.188,521.208h-11.046v-1.694h11.023L274.188,521.208z
		 M264.089,528.579h9.285l0.022-3.388h-9.308V528.579z"/>
	<path fill="#FFFFFF" d="M298.081,522.902c-1.54-0.814-3.322-2.047-4.444-3.125v0.902h-8.735v-0.857
		c-0.99,0.924-2.002,1.76-4.159,3.036l-1.298-1.298c1.65-0.814,3.036-1.738,4.225-2.795c2.465-2.2,3.961-4.246,5.303-6.821
		l1.519,0.704l-0.484,0.748c1.914,2.531,3.652,4.819,6.667,6.668l2.53,1.563L298.081,522.902z M296.232,531.197
		c-0.462-0.572-0.88-1.1-1.166-1.32l-8.427,1.078l-3.301,0.506l-1.056-1.892c2.178-1.452,4.576-3.477,6.028-5.192h-6.975v-1.496
		h15.798v1.496h-8.075l1.034,0.77c-2.112,2.201-3.19,3.168-5.259,4.423l8.516-1.056c-0.572-0.418-1.21-0.771-2.135-1.211
		l1.122-1.122c1.057,0.44,1.893,1.034,2.795,1.606c0.748,0.639,1.65,1.342,2.376,2.311L296.232,531.197z M289.17,514.981
		c-0.727,1.122-2.421,3.058-3.499,4.114h7.35C291.15,517.556,290.094,516.258,289.17,514.981z"/>
	<path fill="#FFFFFF" d="M156.135,552.25v-9.746h7.194l-0.021-4.027h1.76l-0.044,4.005l7.173,0.022v9.658h-1.738v-1.496h-5.435
		l0.044,7.416h-1.738l-0.021-7.416h-5.391l-0.044,1.584H156.135z M163.308,544.109h-5.435v4.973h5.456L163.308,544.109z
		 M170.414,544.109h-5.347v4.951h5.369L170.414,544.109z"/>
	<path fill="#FFFFFF" d="M191.469,557.949v-1.54h-13.399v1.54h-1.673v-18.658h16.635v18.658H191.469z M191.469,540.896h-13.399
		v13.994h13.399V540.896z M178.509,553.307v-1.518h5.325v-3.74h-4.379v-1.52h4.379v-2.794h-5.127v-1.519h11.991v1.519h-5.303v2.794
		h4.6v1.52h-4.6v3.74h5.523v1.518H178.509z M188.872,551.635c-0.857-1.122-1.628-1.893-2.728-2.53l1.078-0.858
		c0.924,0.551,2.112,1.408,2.816,2.553L188.872,551.635z"/>
	<path fill="#FFFFFF" d="M214.48,557.268l-0.638,0.066h-7.218c-1.364,0-1.804-0.925-1.804-2.179v-2.53h-6.513v-10.738h6.513v-3.365
		h1.672v3.365h6.667v10.738h-6.667v2.662c0,0.352,0.154,0.528,0.616,0.528h6.623c0.506-0.154,0.638-0.88,0.66-1.519l0.088-1.717
		l1.563,0.749C216.043,555.001,215.845,557.135,214.48,557.268z M204.821,543.516h-4.929v2.86h4.929V543.516z M204.821,547.982
		h-4.929v3.059h4.929V547.982z M211.488,543.516h-4.995v2.86h4.995V543.516z M211.488,547.982h-4.995v3.059h4.995V547.982z"/>
	<path fill="#FFFFFF" d="M225.655,556.344c0.595,0,0.881-0.484,0.881-1.035v-6.446h-8.428v-1.628h8.428l0.021-2.201
		c1.761-1.121,3.543-2.729,4.533-3.895h-10.276v-1.628l12.674,0.022v1.232c-1.43,1.936-3.41,3.828-5.28,5.082v1.387h8.009v1.628
		h-8.009l-0.022,7.327c0,0.704-0.55,1.298-1.012,1.518c-0.594,0.375-2.992,0.221-3.499,0.221l-1.254-1.584H225.655z"/>
	<path fill="#FFFFFF" d="M246.665,538.08c0.792,0.814,1.298,1.453,1.563,2.179h9.043v1.585H237.71v-1.585h8.845
		c-0.198-0.353-0.66-0.638-1.386-1.319L246.665,538.08z M240.988,545.98v12.277h-1.673v-13.84h4.797
		c-0.308-0.396-1.231-0.946-1.98-1.365l1.497-0.901c0.901,0.462,2.024,1.496,2.442,2.267h2.882c0.748-0.727,1.431-1.475,1.849-2.223
		l1.672,0.727c-0.572,0.836-1.056,1.232-1.364,1.496h4.511v11.375c0,0.924-0.792,1.893-1.848,1.893h-1.849l-0.616-1.826l2.156,0.176
		c0.242-0.021,0.506-0.374,0.506-0.527l-0.021-9.527H240.988z M241.208,548.994c1.629-0.572,3.278-1.65,4.203-2.86l1.298,0.925
		c-0.946,1.32-2.904,2.729-4.488,3.41L241.208,548.994z M251.197,555.178h-7.591v-4.93h7.591V555.178z M245.169,553.615h4.444
		v-1.805h-4.444V553.615z M252.056,550.666c-1.166-1.474-2.992-2.684-4.356-3.432l1.012-0.99c1.629,0.594,3.587,1.914,4.555,3.168
		L252.056,550.666z"/>
	<path fill="#FFFFFF" d="M277.753,549.479c-3.169-0.682-6.161-1.541-8.758-3.08c-2.508,1.672-6.402,2.794-9.791,3.322l-0.682-1.584
		c2.64-0.44,4.95-1.035,7.217-1.871c0.594-0.285,1.298-0.638,1.738-0.88c-0.946-0.726-2.2-1.474-2.971-2.53
		c-0.968,1.145-2.376,2.332-4.026,2.992l-1.254-1.518c3.388-1.255,5.017-3.213,6.051-5.92l1.452,0.814
		c-0.242,0.551-0.462,0.946-0.528,1.078h8.251v1.475c-1.298,1.605-2.618,2.641-3.982,3.631c0.286,0.22,0.968,0.439,1.584,0.748
		c2.068,0.77,4.247,1.363,6.777,1.848L277.753,549.479z M274.298,556.563c-0.22,0.683-0.792,1.276-1.43,1.452
		c-0.968,0.286-1.958-0.021-2.971-0.176l-0.418-1.914c1.166,0.33,2.002,0.66,2.904,0.527c0.506-0.33,0.551-0.945,0.66-1.584
		c0.198-1.188,0.44-2.707,0.484-3.41h-4.753c-0.352,1.893-1.826,3.696-3.608,4.862c-1.32,0.88-3.696,1.585-5.127,1.849
		c-0.308-0.551-0.594-0.99-0.88-1.65c2.794-0.44,5.391-1.1,7.063-3.301c0.462-0.594,0.704-1.254,0.836-1.76h-6.293v-1.606h6.557
		c0.066-0.528,0-0.925,0.066-1.915l1.628,0.221c-0.022,0.836,0.044,1.21-0.022,1.694h6.249
		C275.2,552.295,274.937,554.539,274.298,556.563z M265.651,541.909c0.88,1.056,2.068,1.761,3.3,2.552
		c1.188-0.77,2.377-1.672,3.213-2.552H265.651z"/>
	<path fill="#FFFFFF" d="M283.537,543.361h2.706v1.65h-2.685v12.96h-1.672v-12.938h-2.112v-1.672h2.091v-4.994h1.672V543.361z
		 M288.906,547.014c-0.396,1.871-1.232,3.433-2.465,4.951c-0.528-0.33-0.924-0.528-1.43-0.924c1.166-1.475,2.002-2.883,2.442-4.688
		L288.906,547.014z M297.312,546.508c1.188,1.43,1.958,2.992,2.2,4.841c-0.528,0.286-0.925,0.418-1.519,0.704
		c-0.374-1.629-0.836-2.926-1.431-3.873c-0.22,2.773-0.55,5.678-1.034,8.031c-0.153,0.748-0.945,1.453-1.693,1.563
		c-0.969,0.133-1.871-0.109-2.816-0.33l-0.133-1.738c1.034,0.176,1.782,0.572,2.486,0.374c0.353-0.308,0.484-0.771,0.595-1.254
		c0.616-2.509,0.924-7.657,0.968-10.671h-2.86c-0.044,0.219-0.021,0.637-0.021,1.121c-0.045,1.519-0.11,3.279-0.463,4.73
		c-0.792,3.169-2.09,5.59-5.082,8.01l-1.211-1.32c2.068-1.605,3.565-3.608,4.269-5.809c0.66-2.112,0.858-4.511,0.793-6.689h-3.719
		v-1.693h3.719l0.021-4.182l1.628-0.021c0.089,1.32,0.022,3.564,0.022,4.203h4.599c0.088,1.738,0.044,3.277-0.044,4.334
		L297.312,546.508z"/>
	<path fill="#FFFFFF" d="M164.605,566.197c1.914,2.529,3.652,4.818,6.667,6.666l2.53,1.563l-1.122,1.276
		c-1.54-0.813-3.322-2.046-4.444-3.124v0.902h-8.735v-0.859c-0.99,0.925-2.002,1.761-4.159,3.037l-1.298-1.299
		c1.65-0.813,3.036-1.738,4.225-2.794c2.465-2.2,3.961-4.247,5.303-6.821l1.519,0.705L164.605,566.197z M167.95,581.313
		c-0.572-0.418-1.21-0.77-2.135-1.209l1.122-1.123c1.057,0.44,1.893,1.034,2.795,1.606c0.748,0.638,1.65,1.343,2.376,2.311
		l-1.276,1.101c-0.462-0.572-0.88-1.101-1.166-1.32l-8.427,1.078l-3.301,0.506l-1.056-1.893c2.178-1.452,4.576-3.455,6.028-5.171
		l-6.997-0.022l0.022-1.518h15.798v1.518h-8.075l1.034,0.771c-2.112,2.199-3.19,3.168-5.259,4.422L167.95,581.313z M167.62,571.918
		c-1.87-1.563-2.927-2.861-3.851-4.137c-0.727,1.122-2.421,3.08-3.499,4.137H167.62z"/>
</g>
<g>
	<path fill="#FFFFFF" d="M153.745,630.328c0.085-0.697,0.17-0.986,0.408-1.463c0.459-0.918,1.24-1.801,2.464-2.805l0.562-0.459
		c2.243-1.836,3.094-2.991,3.094-4.146c0-1.225-0.969-2.108-2.295-2.108c-1.462,0-2.363,0.918-2.38,2.448l-1.53-0.17
		c0.204-2.278,1.599-3.52,3.944-3.52c2.261,0,3.808,1.377,3.808,3.383c0,1.445-0.851,2.736-2.992,4.539l-1.224,1.037
		c-1.003,0.85-1.411,1.291-1.751,1.836h5.983v1.428H153.745z"/>
	<path fill="#FFFFFF" d="M167.413,630.531c-1.581,0-2.788-0.832-3.4-2.362c-0.391-0.985-0.561-2.192-0.561-3.876
		c0-4.096,1.326-6.188,3.961-6.188s3.96,2.092,3.96,6.222C171.373,628.458,170.048,630.531,167.413,630.531z M169.401,620.859
		c-0.34-0.935-1.104-1.513-2.006-1.513c-1.666,0-2.414,1.563-2.414,4.964c0,1.513,0.153,2.668,0.442,3.467
		c0.34,0.953,1.104,1.53,1.989,1.53c0.884,0,1.648-0.577,1.988-1.53c0.289-0.781,0.442-1.954,0.442-3.45
		C169.844,622.832,169.707,621.692,169.401,620.859z"/>
	<path fill="#FFFFFF" d="M177.035,630.328v-9.52c-0.493,0.477-0.97,0.799-1.854,1.275c-0.544,0.289-0.696,0.356-1.139,0.526v-1.444
		c1.615-0.748,2.958-1.938,3.519-3.061h0.969v12.223H177.035z"/>
	<path fill="#FFFFFF" d="M186.504,630.531c-1.547,0-2.924-0.832-3.569-2.176c-0.459-0.951-0.646-2.09-0.646-3.723
		c0-4.266,1.496-6.527,4.352-6.527c1.938,0,3.213,1.122,3.468,3.025l-1.496,0.137c-0.17-1.258-0.85-1.921-1.972-1.921
		c-1.104,0-1.938,0.595-2.362,1.666c-0.307,0.782-0.51,1.903-0.51,2.805v0.237c0.271-0.424,0.407-0.577,0.714-0.832
		c0.629-0.493,1.428-0.782,2.243-0.782c2.057,0,3.587,1.683,3.587,3.927C190.312,628.798,188.73,630.531,186.504,630.531z
		 M186.419,623.75c-1.394,0-2.414,1.121-2.414,2.617c0,1.666,1.071,2.94,2.465,2.94c1.343,0,2.312-1.19,2.312-2.839
		C188.781,624.854,187.83,623.75,186.419,623.75z"/>
	<path fill="#FFFFFF" d="M196.754,616.559c-0.068,0.596-0.238,1.037-0.323,1.326h9.52v1.241l-5.185,0.034l0.017,2.176h4.335v1.258
		h-4.335v2.754h5.865v1.258l-5.865-0.018v4.896h-1.343v-4.878h-6.629v-1.275l2.107,0.018v-4.012l4.521-0.018v-2.176h-3.501
		c-0.544,1.105-1.19,2.329-2.346,3.4l-1.071-0.867c1.547-1.377,2.516-3.23,3.145-5.644L196.754,616.559z M196.228,622.594v2.754
		h3.195l0.017-2.754H196.228z"/>
	<path fill="#FFFFFF" d="M211.697,624.48c0,2.328-0.136,5.031-1.768,7.088l-1.088-0.85c0.765-1.122,1.24-2.143,1.377-3.349
		c0.102-1.003,0.152-2.04,0.152-3.077v-6.255h6.188c-0.221-0.323-0.51-0.595-1.377-1.14l1.258-0.696
		c0.51,0.51,1.395,1.36,1.683,1.836h5.627l0.017,1.206h-12.052L211.697,624.48z M221.76,626.4c-0.595,1.004-2.277,2.278-2.957,2.67
		c0.407,0.187,1.088,0.391,1.768,0.543c1.139,0.272,2.277,0.459,3.638,0.562c-0.204,0.526-0.476,0.815-0.697,1.206
		c-2.176-0.305-4.267-0.696-6.068-1.58c-0.493,0.204-1.003,0.441-1.547,0.646c-1.24,0.475-2.635,0.799-4.097,0.969
		c-0.289-0.375-0.51-0.697-0.9-1.19c2.091-0.17,3.79-0.68,5.219-1.19c-0.833-0.594-1.785-1.563-2.448-2.566h-1.292v-1.207
		l9.417,0.035L221.76,626.4z M220.639,624.412h-6.409l0.018-2.328h-2.278v-1.174l2.261-0.017v-1.31h1.344v1.31h3.739v-1.325h1.326
		v1.325h2.771v1.207h-2.771V624.412z M215.232,626.469c0.851,0.952,1.344,1.395,2.21,1.955c1.037-0.561,2.006-1.156,2.754-1.938
		L215.232,626.469z M215.624,623.239l3.672-0.017l0.017-1.122h-3.723L215.624,623.239z"/>
	<path fill="#FFFFFF" d="M227.286,626.928v-7.529h5.559l-0.017-3.111h1.359l-0.034,3.094l5.542,0.018v7.461h-1.343v-1.155h-4.199
		l0.034,5.729h-1.343l-0.017-5.729h-4.165l-0.034,1.224H227.286z M232.828,620.639h-4.199v3.842h4.216L232.828,620.639z
		 M238.318,620.639h-4.131v3.824h4.147L238.318,620.639z"/>
	<path fill="#FFFFFF" d="M255.438,631.33v-1.189h-10.353v1.189h-1.292v-14.414h12.852v14.414H255.438z M255.438,618.156h-10.353
		v10.812h10.353V618.156z M245.425,627.744v-1.174h4.114v-2.889h-3.383v-1.174h3.383v-2.158h-3.961v-1.173h9.265v1.173h-4.097v2.158
		h3.552v1.174h-3.552v2.889h4.267v1.174H245.425z M253.432,626.452c-0.663-0.867-1.258-1.462-2.108-1.955l0.833-0.663
		c0.714,0.426,1.632,1.088,2.176,1.973L253.432,626.452z"/>
	<path fill="#FFFFFF" d="M271.706,631.398l-1.274,0.018v-0.953h-5.712l-0.017,0.986l-1.275,0.018v-5.406
		c-0.918,0.238-2.124,0.426-3.042,0.545l-0.646-1.225c2.533-0.271,4.76-0.748,6.612-1.563c-0.799-0.578-1.343-1.088-1.818-1.599
		c-0.578,0.664-1.445,1.259-2.261,1.854l-1.122-0.816c1.938-1.121,3.264-2.498,3.927-4.063l1.088,0.426
		c-0.085,0.373-0.272,0.696-0.307,0.781h5.831l-0.018,1.122c-0.781,1.021-1.869,1.87-2.668,2.362c1.683,0.851,3.893,1.139,6.34,1.31
		l-0.561,1.325c-2.703-0.408-5.524-1.053-7.055-1.92c-1.207,0.595-2.855,1.172-4.046,1.377l8.023,0.033V631.398z M267.032,617.885
		c-0.222-0.188-0.748-0.73-1.564-1.02l1.292-0.833c1.513,0.714,1.87,1.768,1.921,1.835l5.456,0.018v3.365l-1.309-0.017l0.017-2.107
		h-10.606v2.159l-1.274-0.018v-3.383H267.032z M270.414,627.251h-5.694v1.972h5.712L270.414,627.251z M265.757,621.642
		c0.476,0.526,1.088,1.122,1.921,1.53c0.833-0.442,1.581-0.986,2.107-1.53H265.757z"/>
	<path fill="#FFFFFF" d="M289.199,624.242v-0.697h-8.669c0.051,3.791-0.442,5.865-2.396,7.904l-1.173-0.918
		c1.75-1.513,2.261-3.399,2.261-5.523v-6.205h5.456c-0.204-0.492-1.037-1.24-2.091-1.955l0.952-0.832
		c0.781,0.594,1.818,1.342,2.532,2.346l-0.561,0.391l4.98,0.051v5.439H289.199z M289.199,620.027h-8.687v2.294h8.687V620.027z"/>
	<path fill="#FFFFFF" d="M159.694,647.6v4.148h-1.292v-3.774l-3.705,1.071l-0.816-1.292c0.595-0.052,1.003-0.153,1.309-0.222v-8.992
		h-0.918v-1.24h6.375v1.24h-0.952v7.803c0.357-0.085,0.9-0.203,1.207-0.34v1.24L159.694,647.6z M158.402,638.539h-1.921v1.836h1.921
		V638.539z M158.402,641.617h-1.921v1.852h1.921V641.617z M158.402,644.71h-1.921v2.532c0.714-0.17,1.122-0.254,1.921-0.492V644.71z
		 M168.313,651.713c-0.646-0.407-1.037-0.73-1.53-1.309c-1.139-1.377-1.921-3.195-2.209-5.456c-0.392,2.294-0.629,3.841-2.788,5.949
		c-0.306,0.289-0.612,0.578-1.02,0.799l-0.851-1.003c2.244-1.496,2.907-2.906,3.383-5.745h-3.128v-1.241h3.23
		c0.051-0.561,0.051-1.291,0.051-2.057v-0.271h-2.958v-1.241h3.858c0.867-1.224,1.258-2.142,1.751-3.519l1.173,0.629
		c-0.391,0.781-1.003,2.074-1.529,2.89h2.702v1.241h-3.739c0,1.139,0,1.631-0.068,2.328h4.232v1.241h-3.161
		c0.102,0.493,0.17,1.088,0.391,1.717c0.562,1.581,1.547,3.025,3.128,4.198L168.313,651.713z M162.788,639.984
		c-0.255-0.935-0.867-2.057-1.563-2.617l1.054-0.596c0.714,0.697,1.258,1.564,1.598,2.602L162.788,639.984z"/>
	<path fill="#FFFFFF" d="M172.139,650.523l-0.629-1.07c2.006-0.629,3.28-1.088,5.456-1.887v1.274L172.139,650.523z M176.694,645.135
		v1.225c-1.887,0.441-3.179,0.68-4.402,1.07l-0.714-1.207c1.003-1.002,1.954-2.532,2.516-3.399c-0.188,0-1.36,0.222-1.938,0.374
		l-0.543-1.02c0.866-1.377,1.938-3.383,2.634-5.508l1.105,0.611c-0.578,1.871-1.428,3.434-2.159,4.539
		c0.255-0.018,0.952-0.119,1.513-0.221c0.341-0.596,0.544-1.003,0.952-1.802l1.071,0.595c-0.816,1.615-1.768,3.604-3.264,5.371
		L176.694,645.135z M176.644,641.191c1.309-1.003,2.651-3.162,2.821-4.861l1.241,0.441c-0.119,0.578-0.272,0.986-0.357,1.225h4.386
		v1.172c-0.476,1.259-1.377,2.363-2.227,3.23c0.782,0.867,2.414,1.699,4.182,1.955l-0.748,1.24
		c-1.733-0.476-3.229-1.172-4.402-2.295c-1.292,1.037-2.958,1.938-4.199,2.295l-0.781-1.172c1.632-0.527,3.025-1.19,4.097-2.125
		c-0.527-0.596-1.021-1.463-1.343-2.041c-0.544,0.8-1.156,1.429-1.718,1.836L176.644,641.191z M184.581,645.271v6.527h-1.309v-1.105
		h-3.434v1.105h-1.309v-6.527H184.581z M183.272,649.453v-2.941h-3.434v2.941H183.272z M180.264,639.236
		c0.307,0.697,0.918,1.479,1.428,2.159c0.596-0.544,1.258-1.444,1.599-2.159H180.264z"/>
	<path fill="#FFFFFF" d="M189.479,647.328v-7.53h5.559l-0.017-3.11h1.359l-0.034,3.094l5.542,0.017v7.462h-1.343v-1.156h-4.199
		l0.034,5.729h-1.343l-0.017-5.729h-4.165l-0.034,1.225H189.479z M195.021,641.039h-4.199v3.842h4.216L195.021,641.039z
		 M200.511,641.039h-4.131v3.824h4.147L200.511,641.039z"/>
	<path fill="#FFFFFF" d="M204.949,647.701c1.104-1.852,2.039-3.62,2.447-5.779l1.19,0.494c-0.408,2.176-1.14,3.756-2.465,5.914
		L204.949,647.701z M210.933,640.699l0.017,8.295c0.051,0.187,0.34,0.51,0.629,0.561h2.651c0.272-0.034,0.527-0.17,0.646-0.441
		c0.289-0.918,0.51-1.854,0.697-2.975l1.325,0.475c-0.322,1.207-0.51,2.313-1.02,3.315c-0.306,0.612-0.935,0.935-1.598,0.935
		l-2.72-0.017c-0.884,0-1.955-0.476-1.955-1.717v-8.415L210.933,640.699z M213.771,641.99c-1.002-1.563-2.413-3.094-4.079-4.096
		c0.493-0.289,0.748-0.562,1.173-0.783c1.581,1.071,3.025,2.551,4.046,4.182L213.771,641.99z M219.296,648.042
		c-0.851-2.04-1.87-3.893-3.485-5.575c0.459-0.238,0.731-0.426,1.156-0.596c1.614,1.633,2.617,3.536,3.569,5.542L219.296,648.042z"
		/>
	<path fill="#FFFFFF" d="M222.119,645.594c2.142-1.224,3.842-3.127,5.235-5.116l1.037,0.696c-0.477,0.867-1.445,2.006-2.074,2.771
		v7.836h-1.309v-6.493c-0.289,0.272-1.241,0.901-1.887,1.36L222.119,645.594z M222.34,640.92c1.785-1.241,3.162-2.771,4.301-4.557
		l1.003,0.783c-1.139,1.717-2.55,3.518-4.165,4.656L222.34,640.92z M230.125,650.388c0.867,0.067,1.615,0.067,2.346,0.051
		c0.188-0.051,0.374-0.17,0.374-0.407v-6.97h-4.352v-1.259l8.754,0.018v1.241l-3.025,0.017l-0.017,7.105
		c0,0.595-0.307,1.037-0.731,1.292c-0.459,0.255-2.073,0.237-2.94,0.204L230.125,650.388z M236.21,638.947h-7.309l-0.018-1.258
		l7.326-0.017V638.947z"/>
	<path fill="#FFFFFF" d="M239.391,650.932v-1.241h4.964v-12.544h1.326v12.544h1.972v-12.544h1.274v12.544h4.93v1.241H239.391z
		 M242.06,647.957c-0.085-2.313-0.867-4.675-1.717-6.596l1.104-0.527c0.867,1.904,1.666,4.284,1.904,6.563L242.06,647.957z
		 M250.678,648.16l-1.088-0.662c1.173-1.547,1.989-4.59,2.107-6.629l1.173,0.424C252.53,643.963,251.8,646.427,250.678,648.16z"/>
	<path fill="#FFFFFF" d="M262.493,637.4v12.971c0,0.476-0.68,1.121-1.444,1.121h-1.514c-0.136-0.441-0.289-0.781-0.492-1.309
		c0.765,0,1.309,0.068,1.853-0.018c0.136-0.033,0.289-0.152,0.323-0.492v-3.213l-2.313,0.018c-0.102,1.444-0.187,3.553-1.699,5.456
		l-1.054-0.8c1.309-1.768,1.461-3.637,1.461-5.881v-7.836L262.493,637.4z M258.924,638.676v2.601h2.261v-2.618L258.924,638.676z
		 M261.219,642.5l-2.295,0.018v2.703h2.261L261.219,642.5z M264.89,644.319v7.563l-1.309,0.035v-14.5h6.816
		c-0.102,1.326-0.188,2.498-0.51,3.688c-0.153,0.595-0.782,1.021-1.343,1.054c-0.596,0.051-1.258-0.017-1.921-0.119l-0.374-1.359
		c0.799,0.119,1.428,0.271,2.073,0.289c0.137,0.017,0.204-0.068,0.272-0.256c0.136-0.424,0.306-1.547,0.34-2.039h-4.046
		l-0.017,4.386h5.541c-0.102,1.139-0.289,2.107-0.595,3.025s-0.629,1.819-1.07,2.601c0.662,0.816,1.598,1.428,2.651,2.125
		l-0.765,0.969c-1.122-0.662-1.785-1.173-2.55-1.955c-0.392,0.51-1.36,1.445-2.244,2.176c-0.323-0.306-0.544-0.578-0.884-0.935
		c1.02-0.799,1.666-1.411,2.261-2.243c-0.833-1.207-1.428-2.721-1.717-4.505H264.89z M266.776,644.303
		c0.119,1.02,0.663,2.447,1.122,3.246c0.544-1.088,0.901-2.295,1.139-3.246H266.776z"/>
	<path fill="#FFFFFF" d="M287.703,645.186c-2.447-0.526-4.759-1.189-6.765-2.379c-1.938,1.291-4.947,2.158-7.564,2.566l-0.527-1.224
		c2.04-0.341,3.825-0.8,5.575-1.444c0.459-0.222,1.003-0.494,1.344-0.681c-0.731-0.562-1.7-1.139-2.295-1.954
		c-0.748,0.883-1.836,1.801-3.111,2.311l-0.969-1.172c2.618-0.969,3.876-2.482,4.675-4.573l1.122,0.63
		c-0.188,0.424-0.357,0.73-0.408,0.832h6.374v1.139c-1.003,1.241-2.022,2.04-3.076,2.805c0.221,0.17,0.748,0.34,1.224,0.578
		c1.598,0.596,3.28,1.055,5.235,1.428L287.703,645.186z M285.034,650.66c-0.17,0.526-0.611,0.985-1.104,1.121
		c-0.748,0.221-1.513-0.017-2.295-0.136l-0.322-1.479c0.9,0.256,1.546,0.511,2.243,0.408c0.391-0.254,0.425-0.73,0.51-1.224
		c0.153-0.918,0.34-2.091,0.374-2.635h-3.671c-0.272,1.462-1.411,2.856-2.788,3.757c-1.02,0.68-2.855,1.224-3.961,1.428
		c-0.237-0.425-0.459-0.766-0.68-1.275c2.159-0.34,4.165-0.85,5.456-2.549c0.357-0.459,0.544-0.969,0.646-1.36h-4.861v-1.241h5.065
		c0.051-0.408,0-0.713,0.051-1.479l1.258,0.17c-0.017,0.646,0.034,0.936-0.017,1.309h4.827
		C285.731,647.361,285.527,649.096,285.034,650.66z M278.354,639.339c0.68,0.815,1.598,1.36,2.55,1.972
		c0.918-0.596,1.836-1.292,2.481-1.972H278.354z"/>
	<path fill="#FFFFFF" d="M161.326,666.436v1.225l-2.329,0.629v3.893h-1.292v-3.57l-2.923,0.715
		c-0.222-0.408-0.408-0.731-0.629-1.241c1.359-0.171,2.498-0.459,3.552-0.714v-1.973h-2.583l0.017-1.207
		c0.544-1.121,0.969-2.361,1.224-3.331h-1.869v-1.155h2.176c0.221-0.748,0.407-1.598,0.595-2.618l1.309,0.306
		c-0.289,1.225-0.391,1.734-0.526,2.295h2.89v1.189h-3.213c-0.255,0.885-0.935,2.67-1.207,3.314h1.189v-1.971h1.292v1.955h2.346
		l0.018,1.223h-2.38v1.615L161.326,666.436z M166.97,672.25c-1.139-1.531-2.652-2.619-4.25-3.536l0.816-0.884
		c0.611,0.306,1.07,0.629,1.462,0.832c0.544-0.646,1.155-1.377,1.581-1.971h-4.335v-1.105c0.289-0.646,0.51-1.292,0.646-1.768
		h-1.733v-1.241h2.022c0.17-0.629,0.289-1.376,0.392-1.989h-1.973l-0.017-1.206l2.091-0.034c0.102-0.561,0.17-1.326,0.221-2.244
		l1.343,0.256l-0.203,2.022h3.264l-0.018,1.189l-3.365,0.017c-0.068,0.646-0.204,1.582-0.34,1.989h4.555l0.018,1.224h-4.98
		c-0.17,0.562-0.357,1.241-0.544,1.666h4.675v1.122c-0.766,1.054-1.53,1.972-2.228,2.839c0.612,0.544,1.173,1.121,1.87,1.887
		L166.97,672.25z"/>
	<path fill="#FFFFFF" d="M171.255,666.096c1.802-0.748,2.958-2.142,2.855-3.416l-2.243-0.018v-1.224l2.227-0.017l-0.018-2.329
		h-1.818v-1.224h8.159v1.224l-1.445,0.017l-0.017,2.313h1.972v1.24l-1.955,0.018v3.467h-1.291v-3.484h-2.313
		c-0.051,1.632-0.748,3.247-3.145,4.352L171.255,666.096z M184.785,668.781h-5.371v1.514l7.037,0.017v1.224l-15.196,0.018v-1.241
		l6.901-0.017l-0.017-1.496l-5.27-0.018v-1.224h5.286v-1.325l1.274,0.017v1.309h5.338L184.785,668.781z M175.368,659.093
		l0.018,2.346h2.295v-2.346H175.368z M182.457,658.141l0.017,6.068h-1.292v-6.068H182.457z M181.42,665.076
		c0.9,0.051,1.563,0.119,2.142,0c0.238,0.018,0.289-0.307,0.289-0.477v-7.529h1.292v7.938c0,0.646-0.34,1.359-1.156,1.359h-2.022
		L181.42,665.076z"/>
	<path fill="#FFFFFF" d="M193.745,657.41l-0.136,0.373c1.377,2.397,2.669,4.199,4.453,5.525l-0.935,1.07
		c-0.595-0.51-0.986-0.935-1.224-1.207c-0.153,1.785-0.459,4.012-0.901,5.134c-0.221,0.562-0.799,0.681-1.274,0.681
		c-0.527-0.068-1.021-0.205-1.564-0.375c-0.102-0.441-0.152-0.799-0.255-1.394c0.681,0.289,1.14,0.476,1.649,0.526
		c0.391-0.067,0.374-0.526,0.526-0.9c0.289-1.037,0.442-2.074,0.477-3.043h-3.536v6.104c0,0.288,0.17,0.441,0.34,0.441h4.606
		c0.256-0.068,0.357-0.34,0.392-0.629l0.271-1.139l1.139,0.561c-0.255,0.918-0.373,2.261-1.665,2.38h-4.845
		c-0.969,0-1.513-0.663-1.513-1.36v-6.459c-0.137,0.102-0.646,0.441-1.292,0.833l-0.816-1.14c1.564-0.713,2.55-1.75,3.366-2.975
		c0.663-1.002,1.258-2.295,1.632-3.518L193.745,657.41z M195.36,662.594c-0.578-0.748-1.666-2.192-2.312-3.398
		c-0.442,1.104-1.292,2.48-2.159,3.382L195.36,662.594z M198.267,668.459v-8.822h1.258v8.822H198.267z M200.816,657.035h1.258
		v13.957c0,0.561-0.322,1.104-1.054,1.172l-1.836-0.017l-0.391-1.258l1.733,0.085c0.153,0,0.289-0.17,0.289-0.561V657.035z"/>
	<path fill="#FFFFFF" d="M208.468,667.234c-0.714,1.463-1.513,2.516-2.873,3.299l-0.765-1.004c1.343-0.748,2.158-1.733,2.72-2.991
		L208.468,667.234z M210.116,671.025c0,0.663-0.51,1.395-1.292,1.395h-1.377l-0.441-1.36l1.359,0.103
		c0.17,0.016,0.425-0.188,0.425-0.408v-4.624h-2.736v-1.241h2.736v-1.207h-3.331v-1.258h2.447c-0.118-0.492-0.526-1.121-1.309-1.717
		l1.122-0.459c0.714,0.562,1.224,1.326,1.462,2.176h0.714c0.561-0.561,0.985-1.41,1.189-2.141l1.14,0.459
		c-0.188,0.594-0.578,1.291-0.952,1.682h2.022v1.258h-3.179v1.207h2.703v1.241h-2.703v1.207l0.493-0.629
		c0.799,0.493,1.563,1.292,2.125,2.243l-0.867,0.986c-0.425-1.02-1.189-1.751-1.751-2.176V671.025z M208.672,658.736
		c-0.153-0.272-0.511-0.748-1.071-1.31l1.241-0.577c0.544,0.645,1.003,1.291,1.207,1.887h2.872v1.24h-7.037v-1.24H208.672z
		 M219.721,658.107c-1.53,0.883-3.094,1.309-4.606,1.58v2.431h4.878v1.241h-1.903v8.855h-1.31v-8.855h-1.665v2.193
		c0,2.26-0.748,4.589-2.058,6.611l-1.155-0.815c1.563-2.142,1.903-4.454,1.903-7.089l-0.017-5.609
		c1.887-0.221,3.519-0.73,5.116-1.598L219.721,658.107z"/>
	<path fill="#FFFFFF" d="M227.541,664.906c-0.833,1.988-2.176,3.705-3.841,5.252l-0.901-0.935c0.952-0.714,3.179-3.366,3.654-5.032
		L227.541,664.906z M230.618,670.94c0,0.681-0.391,1.003-0.85,1.19c-0.782,0.17-1.666,0.051-2.517,0.119
		c-0.187-0.494-0.306-0.867-0.51-1.463c0.884,0.086,1.564,0.153,2.227,0.103c0.171-0.052,0.272-0.238,0.272-0.493l0.034-7.19h-5.813
		v-1.258h12.834v1.258h-5.678V670.94z M235.208,659.5h-10.591v-1.258l10.591,0.018V659.5z M232.93,664.26
		c1.666,1.156,2.924,2.805,4.165,5.015l-1.055,0.884c-0.918-1.768-2.277-3.672-4.113-5.014L232.93,664.26z"/>
	<path fill="#FFFFFF" d="M241.686,667.558c-0.544-1.274-1.615-2.159-2.651-2.821l0.696-0.936c1.037,0.477,2.465,1.598,2.924,2.721
		L241.686,667.558z M239.102,671.349c1.751-0.918,3.145-2.754,3.978-4.301l1.071,0.748c-0.833,1.819-2.584,3.569-4.028,4.505
		L239.102,671.349z M244.15,660.231v1.649h-1.326v-1.649h-3.604v-1.241h3.604v-1.648h1.326v1.648h4.896v-1.648h1.309v1.648h3.655
		v1.241h-3.655v1.649h-1.309v-1.649H244.15z M243.216,665.127c-0.629-1.24-1.666-2.091-2.839-2.72l0.781-0.935
		c1.156,0.561,2.313,1.496,2.992,2.668L243.216,665.127z M246.343,663.648v6.596c0,0.152,0.17,0.289,0.357,0.322h5.559
		c0.187-0.051,0.289-0.119,0.459-0.34c0.237-0.51,0.34-1.326,0.459-2.142l1.189,0.526c-0.085,0.816-0.187,1.633-0.493,2.329
		c-0.391,0.646-0.951,0.884-1.887,0.884h-5.626c-0.459,0-0.952-0.476-1.19-0.867c-0.204-0.322-0.187-0.799-0.187-1.172v-7.395h7.225
		c-0.034,1.818-0.086,3.604-0.341,5.219c-0.085,0.492-0.51,0.951-0.985,1.088c-0.799,0.203-1.683,0.067-2.55,0l-0.425-1.395
		c0.9,0.137,1.632,0.238,2.312,0.204c0.255-0.103,0.357-0.272,0.408-0.562c0.119-0.68,0.237-2.26,0.204-3.297H246.343z"/>
	<path fill="#FFFFFF" d="M258.532,659.959h2.652c-0.272-0.68-1.071-1.733-1.819-2.396l0.936-0.73
		c0.663,0.476,1.529,1.462,2.243,2.72l-0.526,0.374l2.073,0.033c0.595-0.577,1.377-1.836,1.785-3.025l1.189,0.561
		c-0.407,1.055-1.07,2.092-1.428,2.465h2.839v6.068h-4.317v1.395h6.833v1.189h-6.851v3.502h-1.258v-3.484h-6.714v-1.189h6.731
		v-1.412h-4.369V659.959z M262.884,663.563h-3.076v1.293h3.076V663.563z M262.901,662.322v-1.139h-3.077v1.139H262.901z
		 M264.142,661.184v1.139h3.094v-1.139H264.142z M267.219,663.547h-3.06v1.309h3.06V663.547z"/>
	<path fill="#FFFFFF" d="M272.949,664.48c2.702-2.617,3.212-5.422,4.063-7.359l1.173,0.543c-0.442,1.326-0.867,2.551-1.36,3.689
		v10.98h-1.309v-8.771c-0.102,0.154-0.867,1.174-1.411,1.752L272.949,664.48z M288.35,671.28l-10.642,0.017v-1.274h4.59
		c1.36-2.413,2.516-4.929,2.686-7.989l1.292,0.493c-0.187,2.567-1.292,5.083-2.532,7.496h4.589L288.35,671.28z M278.1,661.863
		l-0.018-1.275l9.417-0.017v1.274L278.1,661.863z M280.887,669.121c-0.067-2.379-0.662-4.266-1.835-6.238l1.359-0.289
		c1.088,1.922,1.683,3.961,1.853,6.256L280.887,669.121z M281.482,657.087c0.866,0.562,1.887,1.853,2.328,2.872l-1.224,0.545
		c-0.493-1.122-1.173-1.989-2.295-2.721L281.482,657.087z"/>
	<path fill="#FFFFFF" d="M153.745,711.928c0.085-0.697,0.17-0.986,0.408-1.462c0.459-0.918,1.24-1.802,2.464-2.805l0.562-0.459
		c2.243-1.836,3.094-2.991,3.094-4.147c0-1.225-0.969-2.107-2.295-2.107c-1.462,0-2.363,0.918-2.38,2.447l-1.53-0.17
		c0.204-2.277,1.599-3.519,3.944-3.519c2.261,0,3.808,1.377,3.808,3.382c0,1.445-0.851,2.737-2.992,4.539l-1.224,1.037
		c-1.003,0.85-1.411,1.292-1.751,1.836h5.983v1.428H153.745z"/>
	<path fill="#FFFFFF" d="M167.413,712.132c-1.581,0-2.788-0.833-3.4-2.362c-0.391-0.986-0.561-2.193-0.561-3.876
		c0-4.097,1.326-6.188,3.961-6.188s3.96,2.091,3.96,6.222S170.048,712.132,167.413,712.132z M169.401,702.459
		c-0.34-0.934-1.104-1.512-2.006-1.512c-1.666,0-2.414,1.563-2.414,4.963c0,1.514,0.153,2.669,0.442,3.468
		c0.34,0.952,1.104,1.53,1.989,1.53c0.884,0,1.648-0.578,1.988-1.53c0.289-0.782,0.442-1.954,0.442-3.45
		S169.707,703.293,169.401,702.459z"/>
	<path fill="#FFFFFF" d="M177.035,711.928v-9.52c-0.493,0.477-0.97,0.799-1.854,1.275c-0.544,0.289-0.696,0.357-1.139,0.527v-1.445
		c1.615-0.748,2.958-1.938,3.519-3.06h0.969v12.222H177.035z"/>
	<path fill="#FFFFFF" d="M186.504,712.132c-1.547,0-2.924-0.833-3.569-2.176c-0.459-0.952-0.646-2.091-0.646-3.723
		c0-4.267,1.496-6.527,4.352-6.527c1.938,0,3.213,1.122,3.468,3.025l-1.496,0.136c-0.17-1.258-0.85-1.92-1.972-1.92
		c-1.104,0-1.938,0.595-2.362,1.666c-0.307,0.781-0.51,1.903-0.51,2.805v0.237c0.271-0.425,0.407-0.577,0.714-0.833
		c0.629-0.492,1.428-0.781,2.243-0.781c2.057,0,3.587,1.682,3.587,3.926C190.312,710.398,188.73,712.132,186.504,712.132z
		 M186.419,705.35c-1.394,0-2.414,1.121-2.414,2.617c0,1.666,1.071,2.941,2.465,2.941c1.343,0,2.312-1.19,2.312-2.839
		C188.781,706.454,187.83,705.35,186.419,705.35z"/>
	<path fill="#FFFFFF" d="M196.754,698.159c-0.068,0.595-0.238,1.036-0.323,1.325h9.52v1.242l-5.185,0.033l0.017,2.176h4.335v1.258
		h-4.335v2.754h5.865v1.258l-5.865-0.018v4.896h-1.343v-4.879h-6.629v-1.275l2.107,0.018v-4.012l4.521-0.018v-2.176h-3.501
		c-0.544,1.105-1.19,2.33-2.346,3.4l-1.071-0.867c1.547-1.377,2.516-3.229,3.145-5.643L196.754,698.159z M196.228,704.193v2.754
		h3.195l0.017-2.754H196.228z"/>
	<path fill="#FFFFFF" d="M211.697,706.08c0,2.329-0.136,5.031-1.768,7.088l-1.088-0.85c0.765-1.121,1.24-2.142,1.377-3.348
		c0.102-1.004,0.152-2.041,0.152-3.077v-6.255h6.188c-0.221-0.324-0.51-0.596-1.377-1.14l1.258-0.696
		c0.51,0.51,1.395,1.359,1.683,1.836h5.627l0.017,1.206h-12.052L211.697,706.08z M221.76,708.001
		c-0.595,1.003-2.277,2.278-2.957,2.669c0.407,0.188,1.088,0.391,1.768,0.544c1.139,0.272,2.277,0.459,3.638,0.562
		c-0.204,0.526-0.476,0.815-0.697,1.206c-2.176-0.306-4.267-0.696-6.068-1.581c-0.493,0.205-1.003,0.442-1.547,0.646
		c-1.24,0.476-2.635,0.799-4.097,0.969c-0.289-0.374-0.51-0.697-0.9-1.189c2.091-0.17,3.79-0.68,5.219-1.19
		c-0.833-0.595-1.785-1.563-2.448-2.566h-1.292v-1.207l9.417,0.034L221.76,708.001z M220.639,706.012h-6.409l0.018-2.328h-2.278
		v-1.173l2.261-0.017v-1.309h1.344v1.309h3.739v-1.326h1.326v1.326h2.771v1.207h-2.771V706.012z M215.232,708.069
		c0.851,0.952,1.344,1.394,2.21,1.954c1.037-0.561,2.006-1.155,2.754-1.938L215.232,708.069z M215.624,704.84l3.672-0.018
		l0.017-1.121h-3.723L215.624,704.84z"/>
	<path fill="#FFFFFF" d="M237.706,712.998l-1.274,0.018v-0.951h-5.712l-0.017,0.985l-1.275,0.017v-5.405
		c-0.918,0.237-2.124,0.425-3.042,0.544l-0.646-1.224c2.533-0.272,4.76-0.748,6.612-1.563c-0.799-0.578-1.343-1.088-1.818-1.599
		c-0.578,0.663-1.445,1.259-2.261,1.853l-1.122-0.815c1.938-1.122,3.264-2.499,3.927-4.063l1.088,0.425
		c-0.085,0.374-0.272,0.697-0.307,0.781h5.831l-0.018,1.123c-0.781,1.02-1.869,1.869-2.668,2.362c1.683,0.851,3.893,1.14,6.34,1.31
		l-0.561,1.325c-2.703-0.407-5.524-1.054-7.055-1.921c-1.207,0.596-2.855,1.173-4.046,1.377l8.023,0.034V712.998z M233.032,699.484
		c-0.222-0.187-0.748-0.73-1.564-1.02l1.292-0.832c1.513,0.713,1.87,1.768,1.921,1.835l5.456,0.017v3.366l-1.309-0.017l0.017-2.107
		h-10.606v2.158l-1.274-0.018v-3.383H233.032z M236.414,708.852h-5.694v1.971h5.712L236.414,708.852z M231.757,703.242
		c0.476,0.526,1.088,1.121,1.921,1.529c0.833-0.441,1.581-0.986,2.107-1.529H231.757z"/>
	<path fill="#FFFFFF" d="M255.199,705.842v-0.696h-8.669c0.051,3.79-0.442,5.864-2.396,7.904l-1.173-0.918
		c1.75-1.513,2.261-3.399,2.261-5.524v-6.205h5.456c-0.204-0.492-1.037-1.24-2.091-1.954l0.952-0.833
		c0.781,0.595,1.818,1.343,2.532,2.346l-0.561,0.391l4.98,0.051v5.439H255.199z M255.199,701.627h-8.687v2.295h8.687V701.627z"/>
	<path fill="#FFFFFF" d="M271.672,711.859l-0.017-1.428l-8.159,0.018l-0.017,1.394h-1.326l0.017-11.745h10.794v11.762H271.672z
		 M263.496,701.371l-0.017,7.803h8.176v-7.803H263.496z"/>
	<path fill="#FFFFFF" d="M278.405,705.944c-0.034,0.034-0.391,0.425-0.85,0.765l-0.969-0.884c1.903-1.513,2.176-3.587,2.312-5.644
		h-1.717l-0.018-1.24h5.406l0.017,1.24h-2.38c-0.067,1.02-0.221,2.176-0.493,3.111h2.397l-0.018,8.04h-1.274v-1.021h-1.139v1.021
		l-1.292,0.017L278.405,705.944z M280.819,709.055v-4.538h-1.139v4.538H280.819z M283.386,708.613l-0.714-0.782
		c1.088-0.374,1.938-0.85,2.414-1.411h-1.802v-7.173h2.89c0.493-0.374,0.866-0.952,1.189-1.666c0.425,0.153,0.748,0.289,1.173,0.442
		c-0.238,0.629-0.611,1.054-0.799,1.224h3.213v7.173l-4.25,0.018c-0.646,0.935-1.529,1.648-2.617,2.142l3.179,0.034v-1.955
		l1.292-0.018v1.973l3.756,0.017v1.224l-3.756-0.017v3.247h-1.292v-3.23h-4.896l-0.018-1.24H283.386z M284.559,702.256h1.87
		c0.017-0.646,0.067-1.139,0.067-1.802l-1.92,0.017L284.559,702.256z M284.559,703.463v1.75h1.343
		c0.238-0.543,0.408-1.172,0.477-1.75H284.559z M287.669,703.479c-0.067,0.578-0.237,1.258-0.373,1.733h2.362v-1.75L287.669,703.479
		z M287.771,700.454c-0.017,0.561,0.017,1.241-0.034,1.802h1.921v-1.802H287.771z"/>
	<path fill="#FFFFFF" d="M154.153,731.359l1.768-0.17v-5.542h-1.513v-1.207h14.397v1.207h-6.851v7.853h-1.36v-1.818l-5.745,0.9
		L154.153,731.359z M156.72,723.931v-4.913h9.706v4.913H156.72z M160.595,726.582v-0.935h-3.365v0.935H160.595z M157.229,727.755
		v0.884h3.383v-0.884H157.229z M157.246,729.795v1.224c1.088-0.153,2.261-0.288,3.349-0.476v-0.748H157.246z M165.1,720.191h-7.071
		v0.748h7.071V720.191z M158.028,722.061v0.73h7.071v-0.73H158.028z M168.023,726.293c-0.34,1.717-0.663,2.771-1.768,4.268
		c0.765,0.781,1.699,1.41,2.89,1.887c-0.34,0.391-0.527,0.662-0.85,0.985c-1.14-0.476-1.921-1.071-2.839-1.955
		c-0.816,0.731-1.717,1.581-2.635,2.091l-0.766-1.02c1.037-0.629,1.938-1.275,2.602-1.955c-0.681-0.918-1.31-1.955-1.514-3.094
		h-0.714v-1.207H168.023z M164.317,727.5c0.272,0.816,0.562,1.359,1.088,2.125c0.493-0.748,0.952-1.496,1.14-2.125H164.317z"/>
	<path fill="#FFFFFF" d="M175.93,718.627c-0.442,1.445-0.901,2.855-1.581,4.045v10.879h-1.258v-8.906
		c-0.17,0.271-0.68,1.037-1.428,1.768l-1.054-0.935c1.972-1.888,3.382-4.59,4.13-7.327L175.93,718.627z M186.111,731.75v1.24
		h-11.049v-1.24h4.794v-2.448h-3.638v-1.241h3.638v-1.903h1.394v1.903h3.604v1.241h-3.604v2.448H186.111z M181.232,724.424h4.42
		v1.24h-10.25v-1.24h4.437v-2.329h-3.484v-1.258h3.484v-2.243h1.394v2.26h3.451v1.225h-3.451V724.424z"/>
	<path fill="#FFFFFF" d="M199.898,733.398l-1.274,0.018v-0.953h-5.712l-0.017,0.986l-1.275,0.018v-5.406
		c-0.918,0.238-2.124,0.426-3.042,0.545l-0.646-1.225c2.533-0.271,4.76-0.748,6.612-1.563c-0.799-0.578-1.343-1.088-1.818-1.599
		c-0.578,0.664-1.445,1.259-2.261,1.854l-1.122-0.816c1.938-1.121,3.264-2.498,3.927-4.063l1.088,0.426
		c-0.085,0.373-0.272,0.696-0.306,0.781h5.83l-0.018,1.122c-0.781,1.021-1.869,1.87-2.668,2.362c1.683,0.851,3.893,1.139,6.34,1.31
		l-0.561,1.325c-2.703-0.408-5.524-1.053-7.055-1.92c-1.207,0.595-2.855,1.172-4.045,1.377l8.022,0.033V733.398z M195.225,719.885
		c-0.222-0.188-0.748-0.73-1.564-1.02l1.292-0.833c1.513,0.714,1.87,1.768,1.921,1.835l5.456,0.018v3.365l-1.309-0.017l0.017-2.107
		h-10.606v2.159l-1.275-0.018v-3.383H195.225z M198.606,729.251h-5.694v1.972h5.712L198.606,729.251z M193.949,723.642
		c0.476,0.526,1.088,1.122,1.921,1.53c0.833-0.442,1.581-0.986,2.107-1.53H193.949z"/>
	<path fill="#FFFFFF" d="M217.392,726.242v-0.697h-8.669c0.051,3.791-0.442,5.865-2.396,7.904l-1.173-0.918
		c1.75-1.513,2.261-3.399,2.261-5.523v-6.205h5.456c-0.204-0.492-1.037-1.24-2.091-1.955l0.952-0.832
		c0.781,0.594,1.818,1.342,2.532,2.346l-0.561,0.391l4.98,0.051v5.439H217.392z M217.392,722.027h-8.687v2.294h8.687V722.027z"/>
	<path fill="#FFFFFF" d="M227.694,729.199v4.148h-1.292v-3.773l-3.705,1.07l-0.816-1.291c0.595-0.052,1.003-0.154,1.309-0.222
		v-8.992h-0.918v-1.241h6.375v1.241h-0.952v7.802c0.357-0.084,0.9-0.203,1.207-0.34v1.241L227.694,729.199z M226.402,720.14h-1.921
		v1.836h1.921V720.14z M226.402,723.217h-1.921v1.853h1.921V723.217z M226.402,726.311h-1.921v2.532
		c0.714-0.17,1.122-0.255,1.921-0.493V726.311z M236.313,733.313c-0.646-0.407-1.037-0.731-1.53-1.309
		c-1.139-1.377-1.921-3.196-2.209-5.456c-0.392,2.294-0.629,3.841-2.788,5.949c-0.306,0.289-0.612,0.578-1.02,0.799l-0.851-1.004
		c2.244-1.495,2.907-2.906,3.383-5.744h-3.128v-1.242h3.23c0.051-0.561,0.051-1.291,0.051-2.057v-0.271h-2.958v-1.24h3.858
		c0.867-1.225,1.258-2.143,1.751-3.52l1.173,0.629c-0.391,0.782-1.003,2.074-1.529,2.891h2.702v1.24h-3.739
		c0,1.139,0,1.632-0.068,2.328h4.232v1.242h-3.161c0.102,0.492,0.17,1.088,0.391,1.717c0.562,1.58,1.547,3.025,3.128,4.197
		L236.313,733.313z M230.788,721.584c-0.255-0.934-0.867-2.057-1.563-2.617l1.054-0.595c0.714,0.696,1.258,1.563,1.598,2.601
		L230.788,721.584z"/>
	<path fill="#FFFFFF" d="M240.139,732.123l-0.629-1.07c2.006-0.629,3.28-1.088,5.456-1.887v1.275L240.139,732.123z M244.694,726.735
		v1.224c-1.887,0.441-3.179,0.68-4.402,1.07l-0.714-1.206c1.003-1.003,1.954-2.532,2.516-3.399c-0.188,0-1.36,0.221-1.938,0.373
		l-0.543-1.02c0.866-1.377,1.938-3.383,2.634-5.508l1.105,0.612c-0.578,1.87-1.428,3.434-2.159,4.538
		c0.255-0.017,0.952-0.118,1.513-0.221c0.341-0.595,0.544-1.002,0.952-1.801l1.071,0.594c-0.816,1.615-1.768,3.604-3.264,5.372
		L244.694,726.735z M244.644,722.791c1.309-1.002,2.651-3.161,2.821-4.861l1.241,0.442c-0.119,0.578-0.272,0.985-0.357,1.224h4.386
		v1.174c-0.476,1.258-1.377,2.361-2.227,3.229c0.782,0.867,2.414,1.7,4.182,1.955l-0.748,1.241
		c-1.733-0.476-3.229-1.173-4.402-2.295c-1.292,1.036-2.958,1.938-4.199,2.295l-0.781-1.173c1.632-0.527,3.025-1.189,4.097-2.125
		c-0.527-0.595-1.021-1.462-1.343-2.039c-0.544,0.799-1.156,1.428-1.718,1.835L244.644,722.791z M252.581,726.871v6.527h-1.309
		v-1.105h-3.434v1.105h-1.309v-6.527H252.581z M251.272,731.053v-2.941h-3.434v2.941H251.272z M248.264,720.837
		c0.307,0.696,0.918,1.479,1.428,2.159c0.596-0.545,1.258-1.445,1.599-2.159H248.264z"/>
	<path fill="#FFFFFF" d="M257.479,728.928v-7.529h5.559l-0.017-3.111h1.359l-0.034,3.094l5.542,0.018v7.461h-1.343v-1.155h-4.199
		l0.034,5.729h-1.343l-0.017-5.729h-4.165l-0.034,1.224H257.479z M263.021,722.639h-4.199v3.842h4.216L263.021,722.639z
		 M268.511,722.639h-4.131v3.824h4.147L268.511,722.639z"/>
	<path fill="#FFFFFF" d="M272.949,729.302c1.104-1.853,2.039-3.62,2.447-5.779l1.19,0.493c-0.408,2.176-1.14,3.756-2.465,5.915
		L272.949,729.302z M278.933,722.299l0.017,8.295c0.051,0.188,0.34,0.51,0.629,0.561h2.651c0.272-0.033,0.527-0.17,0.646-0.441
		c0.289-0.918,0.51-1.854,0.697-2.975l1.325,0.476c-0.322,1.207-0.51,2.312-1.02,3.315c-0.306,0.611-0.935,0.934-1.598,0.934
		l-2.72-0.016c-0.884,0-1.955-0.477-1.955-1.717v-8.415L278.933,722.299z M281.771,723.59c-1.002-1.563-2.413-3.094-4.079-4.096
		c0.493-0.289,0.748-0.561,1.173-0.782c1.581,1.071,3.025,2.55,4.046,4.182L281.771,723.59z M287.296,729.643
		c-0.851-2.041-1.87-3.893-3.485-5.576c0.459-0.238,0.731-0.425,1.156-0.595c1.614,1.632,2.617,3.536,3.569,5.542L287.296,729.643z"
		/>
</g>
</svg>
