<?xml version="1.0" encoding="utf-8"?>
<!-- Generator: Adobe Illustrator 16.0.0, SVG Export Plug-In . SVG Version: 6.00 Build 0)  -->
<!DOCTYPE svg PUBLIC "-//W3C//DTD SVG 1.1//EN" "http://www.w3.org/Graphics/SVG/1.1/DTD/svg11.dtd">
<svg version="1.1" id="Layer_1" xmlns="http://www.w3.org/2000/svg" xmlns:xlink="http://www.w3.org/1999/xlink" x="0px" y="0px"
	 width="768px" height="1024px" viewBox="0 0 768 1024" enable-background="new 0 0 768 1024" xml:space="preserve">
<rect x="302.89" y="608.081" opacity="0.698" fill-rule="evenodd" clip-rule="evenodd" fill="#3490C1" width="162.221" height="162.22"/>
<g>
	<g>
		<path fill="#FFFFFF" d="M334.22,636.778c-5.146,4.48-7.946,13.687-8.016,20.231h-5.32c0.56-7.245,3.57-14.281,8.226-19.882
			h-11.621v-4.62h16.731V636.778z"/>
	</g>
</g>
<g>
	<path fill="#FFFFFF" d="M324.407,693.167l-5.765-9.945l5.699-9.989h1.188l-5.633,9.989l5.699,9.945H324.407z M327.334,693.167
		l-5.633-9.945l5.566-9.989h1.255l-5.655,9.989l5.655,9.945H327.334z"/>
	<path fill="#FFFFFF" d="M337.475,687.248c-1.893,0.66-5.127,2.267-5.831,2.574l-1.188-1.363c0.902-0.33,1.958-0.814,2.992-1.232
		v-4.841h-2.266v-1.585h2.266v-3.762h-2.42v-1.584h6.447v1.584h-2.354v3.762h1.98v1.585h-1.98v4.202l2.354-1.122v0.968
		c2.662-2.111,3.608-4.532,4.181-6.248c0.527-1.606,0.77-2.685,0.968-4.158h-4.687v-1.607h11.903v1.607l-5.522,0.021
		c-0.264,1.936-0.683,3.586-1.101,4.709h1.034v12.146h-1.694v-10.276c-0.77,2.091-2.706,4.27-4.334,5.567L337.475,687.248z
		 M349.114,687.864c-1.255-2.904-2.729-4.73-4.665-6.073l1.276-1.012c2.068,1.387,3.872,3.631,4.818,6.007L349.114,687.864z"/>
	<path fill="#FFFFFF" d="M359.694,682.166h-2.068v4.379c0.682-0.265,1.563-0.551,2.685-0.947v1.717l-2.816,0.99l-3.543,1.232
		c-0.352-0.506-0.66-0.858-1.166-1.453c1.276-0.352,2.332-0.615,3.19-0.945v-4.973h-2.267v-1.629h2.267v-3.807h-2.75v-1.584h6.776
		v1.584h-2.354l-0.022,3.807h2.09L359.694,682.166z M363.259,687.402l-3.257,2.42c-0.571-0.352-0.945-0.682-1.628-1.078
		c2.354-1.386,4.4-2.992,6.337-4.379l-0.021-5.324h-5.413v-1.65h5.435v-4.07h1.761v4.07l5.61,0.022l0.022,1.628h-5.655v12.365
		c-0.066,0.572-0.484,1.167-1.012,1.431c-0.925,0.308-1.98,0.089-3.015,0.154l-0.616-1.761c1.034,0.11,1.849,0.221,2.618,0.133
		c0.11-0.066,0.242-0.154,0.286-0.287l-0.021-4.664L363.259,687.402z M361.345,679.547c1.144,1.035,1.937,2.244,2.464,3.697
		c-0.418,0.33-0.813,0.594-1.386,0.88c-0.44-1.497-1.276-2.706-2.465-3.741L361.345,679.547z M371.51,690.219
		c-1.012-1.98-2.904-3.345-4.708-4.4l0.901-1.232c2.091,0.902,3.983,2.377,5.017,4.445L371.51,690.219z M367.836,673.541
		c1.408,0.527,2.574,1.539,3.498,2.705c-0.374,0.375-0.704,0.771-1.145,1.145c-0.857-1.188-1.914-2.068-3.344-2.53L367.836,673.541z
		 M368.495,684.058c-0.483-0.264-0.77-0.571-1.342-0.924c1.166-0.946,2.135-2.112,2.509-3.542c0.571,0.285,0.924,0.483,1.408,0.77
		C370.652,681.813,369.662,683.134,368.495,684.058z"/>
	<path fill="#FFFFFF" d="M385.765,674.311c2.267,2.816,5.215,5.369,8.978,6.469l-1.342,1.364c-1.519-0.506-2.839-1.276-3.829-1.937
		l0.022,0.902l-4.005-0.021l0.022,2.552h5.962l0.022,1.585l-6.007,0.021l0.022,5.281l7.877-0.022v1.606h-17.427l-0.022-1.606
		l7.899,0.022v-5.303l-6.072,0.021l-0.022-1.606h6.095v-2.552l-4.005,0.021v-0.946c-1.078,0.704-2.464,1.497-4.004,2.2l-1.122-1.386
		c3.278-1.474,7.437-3.938,9.901-8.163l1.364,0.924L385.765,674.311z M381.101,690.175c-0.595-1.452-1.276-2.663-2.53-3.829
		l1.496-0.703c0.924,0.726,2.222,2.706,2.64,3.85L381.101,690.175z M388.56,679.504c-1.211-1.013-2.816-2.465-3.785-3.829
		c-0.945,1.188-2.508,2.86-3.895,3.784L388.56,679.504z M386.359,689.383c1.452-1.034,2.464-2.42,3.19-3.939l1.342,0.969
		c-0.704,1.518-1.65,2.926-3.036,4.004L386.359,689.383z"/>
	<path fill="#FFFFFF" d="M408.777,674.156v1.584H396.72v-1.584H408.777z M406.225,683.42h-6.821v9.506h-1.584V681.77h9.989v9.088
		c-0.065,0.726-0.55,1.363-1.166,1.605c-0.704,0.286-1.188,0.242-2.046,0.242l-0.572-1.563c0.924-0.044,1.342,0.221,1.893-0.044
		c0.462-0.22,0.308-0.88,0.308-1.782V683.42z M398.81,680.912v-4.27h7.965v4.27H398.81z M405.696,686.545v1.584h-2.156v3.542H402
		v-3.521h-2.024v-1.65h1.496c-0.352-0.77-1.078-1.628-1.826-1.958l1.145-0.748c0.748,0.44,1.65,1.319,1.98,2.112l-0.925,0.615
		l1.211,0.023c0.857-0.947,1.166-1.959,1.496-2.816l1.43,0.571c-0.396,0.683-0.836,1.738-1.342,2.267L405.696,686.545z
		 M405.146,678.184h-4.73v1.231h4.73V678.184z M410.207,691.824c-0.528,0.154-0.682,0.199-1.298,0.419l-0.771-1.606
		c1.32-0.286,1.959-0.396,2.883-0.639v-4.025h-2.486v-8.164h2.486v-4.4h1.563v4.4h2.53v8.164h-2.53l0.021,3.607l1.276-0.308
		c-0.154-0.308-0.506-0.901-1.012-1.519l1.386-0.506c0.88,1.012,1.475,2.179,1.849,3.322l0.483,1.453l-1.65,0.572
		c-0.153-0.771-0.33-1.541-0.506-2.003L410.207,691.824z M411.021,679.393h-0.946v4.973h0.946V679.393z M412.584,684.365h1.078
		v-4.973h-1.078V684.365z"/>
	<path fill="#FFFFFF" d="M419.907,693.167h-1.188l5.654-9.945l-5.654-9.989h1.254l5.566,9.989L419.907,693.167z M422.834,693.167
		h-1.188l5.699-9.945l-5.633-9.989h1.188l5.699,9.989L422.834,693.167z"/>
</g>
<g>
	<path fill="#FFFFFF" d="M317.024,725.965l1.768-0.17v-5.541h-1.513v-1.207h14.397v1.207h-6.851v7.853h-1.36v-1.819l-5.745,0.901
		L317.024,725.965z M319.591,718.537v-4.913h9.706v4.913H319.591z M323.466,721.188v-0.934h-3.365v0.934H323.466z M320.101,722.361
		v0.884h3.383v-0.884H320.101z M320.117,724.4v1.225c1.088-0.153,2.261-0.289,3.349-0.477V724.4H320.117z M327.971,714.797h-7.071
		v0.748h7.071V714.797z M320.899,716.666v0.731h7.071v-0.731H320.899z M330.895,720.899c-0.34,1.717-0.663,2.771-1.768,4.267
		c0.765,0.781,1.699,1.41,2.89,1.887c-0.34,0.391-0.527,0.662-0.85,0.986c-1.14-0.477-1.921-1.071-2.839-1.955
		c-0.816,0.73-1.717,1.58-2.635,2.09l-0.766-1.02c1.037-0.629,1.938-1.274,2.602-1.955c-0.681-0.918-1.31-1.954-1.514-3.094h-0.714
		v-1.206H330.895z M327.188,722.105c0.272,0.816,0.562,1.36,1.088,2.125c0.493-0.748,0.952-1.496,1.14-2.125H327.188z"/>
	<path fill="#FFFFFF" d="M338.801,713.232c-0.442,1.445-0.901,2.856-1.581,4.046v10.879h-1.258v-8.907
		c-0.17,0.272-0.68,1.037-1.428,1.768l-1.054-0.934c1.972-1.888,3.382-4.59,4.13-7.327L338.801,713.232z M348.982,726.355v1.241
		h-11.049v-1.241h4.794v-2.447h-3.638v-1.241h3.638v-1.903h1.394v1.903h3.604v1.241h-3.604v2.447H348.982z M344.104,719.029h4.42
		v1.241h-10.25v-1.241h4.437v-2.328h-3.484v-1.258h3.484v-2.244h1.394v2.261h3.451v1.224h-3.451V719.029z"/>
	<path fill="#FFFFFF" d="M355.631,718.4v2.057h1.632v1.173h-1.649l0.018,2.924c0.425-0.17,1.121-0.425,1.903-0.696v1.325
		l-3.688,1.326c-0.629,0.221-1.241,0.476-1.938,0.731c-0.357-0.341-0.562-0.646-1.003-1.088l1.189-0.341v-6.136l1.258,0.017v5.712
		c0.255-0.068,0.646-0.222,0.952-0.357l-0.017-6.646h-1.904v-5.1h4.471v5.1H355.631z M353.591,717.143h1.972v-2.635l-1.972,0.018
		V717.143z M366.187,720.219c-1.071-0.561-1.87-1.309-2.295-1.699l0.017,0.578h-4.368v-0.663c-0.459,0.51-1.241,1.122-2.244,1.683
		l-1.104-0.969c1.751-0.73,2.924-2.057,3.587-3.349h-2.448l0.018-1.241h2.924c0.237-0.595,0.34-1.359,0.51-2.244l1.189,0.357
		c-0.051,0.766-0.255,1.428-0.374,1.887h4.624v1.241h-2.805c0.17,0.407,0.629,0.952,1.02,1.462c0.731,0.68,1.53,1.359,2.516,1.904
		L366.187,720.219z M365.778,721.528l-4.827,0.017c-0.136,0.374-0.238,0.85-0.34,1.173h4.215c-0.051,1.411-0.203,2.856-0.544,4.063
		c-0.152,0.526-0.611,1.036-1.189,1.088c-0.799,0.067-1.632-0.018-2.499-0.188c-0.067-0.477-0.152-0.816-0.221-1.326
		c0.799,0.153,1.496,0.357,2.227,0.34c0.153-0.017,0.289-0.068,0.357-0.187c0.271-0.851,0.407-1.836,0.493-2.584h-4.522
		c0.256-0.952,0.493-1.768,0.681-2.396h-2.006v-1.258h8.176V721.528z M361.188,715.816c-0.356,0.715-0.765,1.53-1.173,2.04h3.281
		c-0.459-0.459-0.884-1.292-1.207-2.057L361.188,715.816z"/>
	<path fill="#FFFFFF" d="M371.594,716.854h1.359l-0.017,1.241l-1.326-0.034l-0.017,3.773c0.306-0.119,1.054-0.441,1.717-0.68
		l-0.018,1.292c-1.479,0.646-2.855,1.224-4.334,1.887c-0.34-0.374-0.612-0.595-1.071-1.021c0.969-0.356,1.751-0.629,2.414-0.918
		v-4.316l-1.733,0.017l0.017-1.241h1.7l0.017-3.127l1.274,0.017L371.594,716.854z M383.306,724.639
		c-0.34,0.952-0.595,2.499-1.615,2.602H379.6c-0.815,0-1.274-0.545-1.325-1.055v-2.158h-1.19c-0.136,0.9-0.459,1.836-1.292,2.549
		c-1.139,0.952-2.516,1.344-4.028,1.463c-0.323-0.357-0.459-0.748-0.833-1.241c1.496-0.103,2.651-0.238,3.604-0.918
		c0.714-0.493,1.173-1.173,1.224-1.836h-1.717v-5.065l7.429-0.018l0.017,5.066h-1.954v1.683c0,0.221,0.187,0.356,0.391,0.356h1.411
		c0.374-0.085,0.629-1.156,0.696-1.903L383.306,724.639z M375.503,715.596l-2.107-0.034l-0.018-1.224h3.689
		c-0.068-0.221-0.663-0.85-1.088-1.225l1.309-0.577c0.544,0.612,0.9,1.224,1.139,1.802h3.638l0.017,1.224h-2.09l0.799,0.442
		c-0.392,0.611-0.714,1.02-0.782,1.104h2.72l-0.017,1.241l-9.469-0.034v-1.207h2.618c-0.153-0.237-0.646-0.561-1.224-1.003
		L375.503,715.596z M380.178,720.967v-0.765h-4.827v0.748L380.178,720.967z M375.351,722.141v0.68h4.811v-0.68H375.351z
		 M375.962,715.562c0.51,0.511,1.003,0.986,1.292,1.547h1.173c0.562-0.51,0.646-0.612,1.156-1.547H375.962z"/>
	<path fill="#FFFFFF" d="M385.534,726.729c2.686-0.204,5.371-1.19,6.188-3.773c0.187-0.629,0.221-1.054,0.221-1.903l1.224,0.102
		c-0.034,1.547-0.289,2.787-1.104,3.943c-0.799,1.122-2.72,2.482-5.864,2.822L385.534,726.729z M390.09,716.548
		c-0.119-0.103-0.442-0.323-0.833-0.595l0.969-0.629c0.935,0.51,1.581,1.053,2.192,2.09l-1.088,0.851
		c-0.187-0.442-0.407-0.697-0.544-0.884l-2.481,1.563c-0.493,0.306-0.986,0.544-1.648,0.918l-0.731-1.207
		c0.323-0.067,0.459-0.237,0.51-0.442l-0.017-4.027c1.784-0.154,3.399-0.578,4.861-1.377l1.037,0.951
		c-1.581,0.766-3.111,1.207-4.606,1.377v2.754L390.09,716.548z M389.308,725.064l-1.241-0.018v-5.711h2.992l-0.527-0.664
		c2.499-0.832,3.604-1.988,3.688-3.909h-1.733v-1.19h6.425c-0.067,1.547-0.221,2.924-0.459,4.25
		c-0.187,0.629-0.492,0.936-0.969,1.122c-0.765,0.204-1.359,0.085-2.176,0.017l-0.374-1.342c0.766,0.237,1.225,0.271,1.836,0.254
		c0.272-0.017,0.425-0.187,0.51-0.696c0.153-0.815,0.256-1.666,0.289-2.414l-2.073,0.017c-0.357,2.262-1.122,3.706-3.655,4.539
		l5.219,0.018l0.018,5.234h-1.31l0.018-3.994l-6.46-0.018L389.308,725.064z M398.674,728.056c-1.87-1.462-3.876-2.312-6.205-2.821
		l0.697-1.088c2.278,0.526,4.352,1.325,6.256,2.787L398.674,728.056z"/>
	<path fill="#FFFFFF" d="M410.863,725.947c0.884,0.205,1.428,0.442,2.142,0.527c0.459,0.051,0.612-0.408,0.867-1.377
		c0.271-0.986,0.425-2.006,0.561-2.957l-1.394,0.017c-0.782,2.481-3.162,4.641-5.559,5.915l-0.935-0.986
		c2.277-1.172,4.283-2.889,5.116-4.945l-1.853,0.017c-1.275,2.38-3.944,3.943-6.562,4.742l-0.851-1.054
		c2.432-0.714,4.709-1.921,5.916-3.705l-1.632,0.017c-0.918,0.696-2.108,1.377-3.314,1.802l-0.884-1.07
		c1.972-0.629,3.756-1.666,4.742-2.976h-2.091v-6.272l9.451,0.018l-0.018,6.255h-5.813c-0.356,0.544-0.73,0.918-0.832,0.97
		l7.921,0.033c-0.204,1.955-0.459,3.672-0.918,5.389c-0.119,0.459-0.391,0.918-0.833,1.173c-0.935,0.51-1.972,0-2.94-0.136
		L410.863,725.947z M413.276,716.105l0.018-1.224l-6.885-0.017v1.24H413.276z M406.409,718.672l6.867,0.018v-1.428h-6.867V718.672z"
		/>
	<path fill="#FFFFFF" d="M425.059,721.12v1.224c-1.904,0.527-3.672,0.85-5.117,1.309l-0.611-1.139
		c1.02-1.02,1.938-2.057,2.414-2.821c-0.137,0.034-1.14,0.272-1.836,0.51l-0.646-1.173c0.833-1.326,2.04-3.961,2.855-6.068
		l1.156,0.544c-0.51,1.19-1.818,4.028-2.465,5.15c0.272-0.034,1.241-0.237,1.785-0.356c0.374-0.562,0.68-1.088,1.07-1.87l1.14,0.612
		c-0.816,1.547-2.023,3.535-3.366,4.861L425.059,721.12z M419.364,725.676c2.039-0.663,3.824-1.258,5.932-1.921v1.292l-5.303,1.802
		L419.364,725.676z M425.433,720.287v-1.24h3.161v-2.313h-3.79v-1.258h3.79v-2.771h1.31v2.771h4.079v1.258h-4.079v2.313h3.229v1.24
		H425.433z M432.623,721.885v6.171h-1.275v-1.156h-4.182v1.156h-1.274v-6.171H432.623z M431.348,725.642v-2.499h-4.182v2.499
		H431.348z"/>
	<path fill="#FFFFFF" d="M441.276,716.785c-0.238-0.578-0.476-1.088-0.799-1.41l-1.326-0.018c-0.407,0.782-1.155,1.615-2.039,2.295
		l-1.14-0.816c1.53-0.985,2.533-2.396,2.72-4.164l1.14,0.408c-0.034,0.459-0.119,0.867-0.204,1.037l4.182,0.017v1.224l-1.955,0.018
		c0.068,0.085,0.374,0.373,0.578,0.867L441.276,716.785z M436.84,724.01h4.437l-0.017-0.765l-2.618,0.017v-6.357h10.063v6.357
		h-2.244v0.748l4.368-0.018v1.242h-4.368v2.939l-1.292-0.017l0.018-2.923h-2.788c-1.037,2.192-3.604,2.787-5.712,2.975
		c-0.203-0.426-0.407-0.748-0.68-1.293c1.547-0.033,4.25-0.373,5.049-1.682h-4.216V724.01z M439.917,718.095v0.577l7.496,0.018
		v-0.595H439.917z M447.413,720.305v-0.562h-7.496v0.562H447.413z M439.934,722.072h7.479v-0.697l-7.496,0.018L439.934,722.072z
		 M442.552,723.262v0.748l2.617-0.018v-0.73H442.552z M448.568,715.289c0.204,0.256,0.511,0.545,0.596,0.901l-1.14,0.511
		c-0.255-0.612-0.51-1.071-0.884-1.412h-1.648c-0.272,0.443-0.629,1.021-1.156,1.547l-1.173-0.696
		c1.105-1.021,1.751-2.057,1.938-3.501l1.105,0.459c-0.051,0.51-0.136,0.764-0.238,0.951h5.049v1.24H448.568z"/>
	<path fill="#FFFFFF" d="M316.99,742.2c2.142-1.224,3.842-3.128,5.235-5.116l1.037,0.696c-0.477,0.867-1.445,2.006-2.074,2.771
		v7.836h-1.309v-6.492c-0.289,0.271-1.241,0.9-1.887,1.359L316.99,742.2z M317.211,737.525c1.785-1.24,3.162-2.771,4.301-4.556
		l1.003,0.782c-1.139,1.717-2.55,3.519-4.165,4.657L317.211,737.525z M324.996,746.994c0.867,0.067,1.615,0.067,2.346,0.051
		c0.188-0.051,0.374-0.17,0.374-0.408v-6.969h-4.352v-1.259l8.754,0.017v1.242l-3.025,0.016l-0.017,7.105
		c0,0.596-0.307,1.037-0.731,1.293c-0.459,0.254-2.073,0.237-2.94,0.203L324.996,746.994z M331.081,735.554h-7.309l-0.018-1.258
		l7.326-0.017V735.554z"/>
</g>
</svg>
