<?xml version="1.0" encoding="utf-8"?>
<!-- Generator: Adobe Illustrator 16.0.0, SVG Export Plug-In . SVG Version: 6.00 Build 0)  -->
<!DOCTYPE svg PUBLIC "-//W3C//DTD SVG 1.1//EN" "http://www.w3.org/Graphics/SVG/1.1/DTD/svg11.dtd">
<svg version="1.1" id="Layer_1" xmlns="http://www.w3.org/2000/svg" xmlns:xlink="http://www.w3.org/1999/xlink" x="0px" y="0px"
	 width="768px" height="1024px" viewBox="0 0 768 1024" enable-background="new 0 0 768 1024" xml:space="preserve">
<rect x="465.11" y="608.081" opacity="0.698" fill-rule="evenodd" clip-rule="evenodd" fill="#2A79BE" width="162.219" height="162.22"/>
<g>
	<g>
		<path fill="#FFFFFF" d="M482.865,632.018c6.09,0,8.191,4.201,8.191,6.581c0,2.415-1.261,4.376-3.57,5.146v0.07
			c2.904,0.665,4.585,2.905,4.585,5.985c0,5.146-4.62,7.701-9.171,7.701c-4.726,0-9.311-2.38-9.311-7.666
			c0-3.115,1.75-5.32,4.619-6.021v-0.07c-2.379-0.665-3.604-2.625-3.604-5.041C474.604,634.293,478.875,632.018,482.865,632.018z
			 M482.9,653.756c2.38,0,4.2-1.681,4.2-4.131c0-2.346-1.89-3.92-4.2-3.92c-2.416,0-4.341,1.365-4.341,3.885
			C478.56,652.11,480.52,653.756,482.9,653.756z M482.865,642.379c2.03,0,3.676-1.119,3.676-3.221c0-1.26-0.596-3.395-3.676-3.395
			c-1.995,0-3.746,1.225-3.746,3.395C479.119,641.294,480.87,642.379,482.865,642.379z"/>
	</g>
</g>
<g>
	<path fill="#FFFFFF" d="M481.383,693.168l-5.765-9.945l5.699-9.99h1.188l-5.633,9.99l5.699,9.945H481.383z M484.31,693.168
		l-5.633-9.945l5.566-9.99h1.255l-5.655,9.99l5.655,9.945H484.31z"/>
	<path fill="#FFFFFF" d="M500.192,676.203v13.994h6.514v1.628h-18.703c-0.044-0.528-0.022-1.034-0.022-1.628h6.403v-13.994h-5.984
		l0.021-1.584h17.801v1.584H500.192z M493.394,687.82c-0.572,0.265-1.034,0.529-1.716,0.837c-0.242-3.454-1.408-6.205-3.234-8.956
		c0.55-0.264,0.901-0.55,1.496-0.703C491.655,681.748,492.998,684.543,493.394,687.82z M496.034,676.203v13.994h2.508v-13.994
		H496.034z M505.672,679.459c-0.396,3.346-1.606,6.535-3.125,8.891l-1.563-0.727c1.629-2.354,2.751-5.633,3.235-8.801
		L505.672,679.459z"/>
	<path fill="#FFFFFF" d="M514.8,684.674c-0.418,3.037-1.563,5.721-3.301,8.23l-1.519-0.793c1.475-1.826,3.146-5.148,3.279-7.921
		L514.8,684.674z M513.369,682.496c-0.902-1.232-1.892-2.332-3.366-2.904l1.078-1.188c1.431,0.55,2.618,1.673,3.499,2.971
		L513.369,682.496z M514.689,677.766c-0.924-1.166-1.98-2.024-3.345-2.619l1.101-1.144c1.32,0.483,2.442,1.431,3.41,2.574
		L514.689,677.766z M522.303,691.781v-8.053l-1.475,0.594c-0.088-1.605-0.308-2.948-1.012-4.246l-0.044,5.148
		c0,3.301-1.276,5.699-4.577,7.965l-1.32-1.166c2.179-1.54,4.247-2.838,4.247-7.833v-10.518h1.65v5.963l1.364-0.507
		c0.506,0.99,0.946,2.443,1.122,3.676l0.044-8.229h1.672v4.818l1.166-0.44c0.99,1.453,1.431,3.015,1.629,4.797l-1.606,0.639
		c-0.066-1.541-0.55-3.213-1.166-4.533l-0.044,11.926H522.303z M514.294,683.926c0.968-1.518,1.584-3.014,1.649-4.797l1.475,0.287
		c0.022,1.893-0.682,3.454-1.563,5.017L514.294,683.926z M528.464,673.607v19.406h-1.673v-19.406H528.464z"/>
	<path fill="#FFFFFF" d="M537.218,682.166h-1.672v-3.631c-0.902,0.705-1.98,1.453-3.323,2.179l-0.99-1.298
		c3.234-1.606,4.577-3.345,6.491-6.227l1.343,0.748c-0.528,0.924-1.276,2.199-1.871,2.904L537.218,682.166z M531.761,691.231
		c2.992-0.065,5.589-0.462,7.569-2.179c0.77-0.682,1.21-1.21,1.21-2.574v-2.002h1.694c0,3.454,0.11,4.356-2.002,6.051
		c-2.135,1.717-4.731,2.223-7.636,2.398L531.761,691.231z M546.833,682.475v6.842h-1.672v-5.236l-7.525,0.022v5.435h-1.672v-7.063
		H546.833z M548.043,675.764c-1.32,1.033-3.212,2.199-4.643,2.992l0.044,1.363c0,0.33,0,0.33,0.242,0.33h4.774
		c0.44,0,0.616-0.615,0.704-1.275l0.133-0.881l1.474,0.705c-0.22,1.451-0.528,3.08-1.782,3.08h-5.677
		c-0.902,0-1.54-0.551-1.519-1.452l0.022-1.145c-1.057,0.638-2.376,1.32-3.499,1.694l-0.989-1.298
		c1.518-0.616,3.058-1.408,4.466-2.2v-4.357h1.629l0.021,3.631c1.057-0.639,2.377-1.43,3.455-2.311L548.043,675.764z
		 M549.495,693.035c-0.66-0.396-1.649-0.748-2.178-0.968c-1.826-0.748-3.389-1.21-5.765-1.804l0.813-1.188
		c2.267,0.462,5.501,1.254,7.943,2.552L549.495,693.035z"/>
	<path fill="#FFFFFF" d="M562.254,680.714h-5.104v9.329h-1.606v-10.914h6.733l0.021-2.529c-2.288,0.132-4.95,0.176-7.503,0.132
		l-0.594-1.65c4.62,0.55,12.52,0.044,16.106-1.716l0.77,1.408c-2.464,0.88-4.818,1.363-7.106,1.65v2.705h6.908v8.691
		c0,0.683-0.22,1.387-0.945,1.805c-0.727,0.418-1.673,0.242-2.575,0.286l-0.704-1.738c0.99,0.022,1.606,0.177,2.267,0.065
		c0.088-0.043,0.265-0.197,0.309-0.396v-7.129h-5.237v12.058h-1.738V680.714z"/>
	<path fill="#FFFFFF" d="M576.883,693.168h-1.188l5.654-9.945l-5.654-9.99h1.254l5.566,9.99L576.883,693.168z M579.81,693.168
		h-1.188l5.699-9.945l-5.633-9.99h1.188l5.699,9.99L579.81,693.168z"/>
</g>
<g>
	<path fill="#FFFFFF" d="M474,725.965l1.768-0.17v-5.541h-1.513v-1.207h14.397v1.207h-6.851v7.854h-1.36v-1.819l-5.745,0.901
		L474,725.965z M476.566,718.537v-4.912h9.706v4.912H476.566z M480.441,721.188v-0.935h-3.365v0.935H480.441z M477.076,722.361
		v0.885h3.383v-0.885H477.076z M477.093,724.401v1.224c1.088-0.152,2.261-0.289,3.349-0.476v-0.748H477.093z M484.946,714.797
		h-7.071v0.748h7.071V714.797z M477.875,716.667v0.731h7.071v-0.731H477.875z M487.87,720.9c-0.34,1.717-0.663,2.77-1.768,4.266
		c0.765,0.782,1.699,1.411,2.89,1.887c-0.34,0.391-0.527,0.663-0.85,0.986c-1.14-0.477-1.921-1.07-2.839-1.955
		c-0.816,0.73-1.717,1.581-2.635,2.091l-0.766-1.02c1.037-0.63,1.938-1.274,2.602-1.955c-0.681-0.918-1.31-1.954-1.514-3.094h-0.714
		V720.9H487.87z M484.164,722.106c0.272,0.815,0.562,1.36,1.088,2.125c0.493-0.748,0.952-1.496,1.14-2.125H484.164z"/>
	<path fill="#FFFFFF" d="M495.776,713.233c-0.442,1.444-0.901,2.856-1.581,4.046v10.879h-1.258v-8.907
		c-0.17,0.272-0.68,1.036-1.428,1.768l-1.054-0.935c1.972-1.887,3.382-4.59,4.13-7.326L495.776,713.233z M505.958,726.355v1.242
		h-11.049v-1.242h4.794v-2.447h-3.638v-1.24h3.638v-1.904h1.394v1.904h3.604v1.24h-3.604v2.447H505.958z M501.079,719.029h4.42
		v1.242h-10.25v-1.242h4.437v-2.328h-3.484v-1.258h3.484v-2.244h1.394v2.262h3.451v1.223h-3.451V719.029z"/>
	<path fill="#FFFFFF" d="M511.178,721.393c-0.373,0.766-1.155,1.972-2.261,3.076l-1.121-0.781c1.733-1.564,2.753-3.451,3.365-5.27
		h-2.532l0.017-1.225h2.532v-1.92c-0.595,0.102-1.343,0.271-2.227,0.306l-0.663-1.274c2.329,0,4.029-0.612,5.712-1.463l0.748,0.986
		c-0.816,0.459-1.581,0.816-2.261,1.055l-0.018,2.295l2.55,0.016v1.225l-2.55,0.018v1.172l0.442-0.289
		c1.054,0.612,1.972,1.598,2.516,2.67l-1.037,0.781c-0.526-1.037-1.24-1.854-1.903-2.295v7.633l-1.31-0.018V721.393z
		 M519.779,728.039l-0.017-4.675l-5.253,1.241l-0.34-1.241l5.609-1.36l-0.017-8.991l1.292,0.017l0.017,8.67l1.988-0.459l0.272,1.24
		l-2.261,0.544l-0.017,5.015H519.779z M517.723,721.834c-0.748-1.258-1.819-2.227-3.145-2.872l0.918-0.901
		c1.258,0.68,2.346,1.564,3.161,2.771L517.723,721.834z M518.131,717.721c-0.884-1.258-2.006-2.006-3.315-2.686l0.8-0.9
		c1.309,0.595,2.516,1.428,3.416,2.668L518.131,717.721z"/>
	<path fill="#FFFFFF" d="M525.544,726.781c0.629,0.152,1.189,0.17,1.632,0.136c0.288-0.017,0.441-0.221,0.441-0.442l0.018-3.893
		l-2.04,0.748l-0.867-1.088l2.89-1.002l0.018-3.723h-2.295l-0.018-1.225h2.313v-3.297h1.258l0.017,3.28h1.751v1.241l-1.751,0.017
		l-0.017,3.212l1.887-0.662v1.291l-1.87,0.697l-0.017,4.777c0,0.646-0.341,1.342-1.31,1.342h-1.41L525.544,726.781z
		 M529.674,726.984c1.768-0.492,3.229-1.223,4.402-2.209c-1.002-1.07-1.699-2.55-2.192-3.927l-0.833-0.017l-0.017-1.225l3.246,0.018
		v-2.822h-3.553v-1.24h3.553v-2.635h1.275l0.017,2.651l3.927-0.017v1.24h-3.927l-0.017,2.805h2.991
		c-0.237,2.159-1.359,3.842-2.617,5.186c1.139,0.985,2.635,1.58,4.352,2.107l-0.816,1.139c-1.699-0.493-3.179-1.309-4.453-2.363
		c-1.071,0.816-2.193,1.734-4.369,2.432L529.674,726.984z M533.261,720.832c0.527,1.274,0.969,2.277,1.785,3.094
		c0.747-0.731,1.614-2.006,1.938-3.077L533.261,720.832z"/>
	<path fill="#FFFFFF" d="M547.592,713.217l-0.136,0.373c1.377,2.397,2.669,4.199,4.453,5.525l-0.935,1.07
		c-0.595-0.51-0.986-0.935-1.224-1.207c-0.153,1.785-0.459,4.012-0.901,5.134c-0.221,0.562-0.799,0.681-1.274,0.681
		c-0.527-0.068-1.021-0.205-1.564-0.375c-0.102-0.441-0.152-0.799-0.255-1.394c0.681,0.289,1.14,0.476,1.649,0.526
		c0.391-0.067,0.374-0.526,0.526-0.9c0.289-1.037,0.442-2.074,0.477-3.043h-3.536v6.104c0,0.288,0.17,0.441,0.34,0.441h4.606
		c0.256-0.068,0.357-0.34,0.392-0.629l0.271-1.139l1.139,0.561c-0.255,0.918-0.373,2.261-1.665,2.38h-4.845
		c-0.969,0-1.513-0.663-1.513-1.36v-6.459c-0.137,0.102-0.646,0.441-1.292,0.833l-0.816-1.14c1.564-0.713,2.55-1.75,3.366-2.975
		c0.663-1.002,1.258-2.295,1.632-3.518L547.592,713.217z M549.207,718.4c-0.578-0.748-1.666-2.192-2.312-3.398
		c-0.442,1.104-1.292,2.48-2.159,3.382L549.207,718.4z M552.113,724.266v-8.822h1.258v8.822H552.113z M554.663,712.842h1.258v13.957
		c0,0.561-0.322,1.104-1.054,1.172l-1.836-0.017l-0.391-1.258l1.733,0.085c0.153,0,0.289-0.17,0.289-0.561V712.842z"/>
	<path fill="#FFFFFF" d="M562.314,723.041c-0.714,1.463-1.513,2.516-2.873,3.299l-0.765-1.004c1.343-0.748,2.158-1.733,2.72-2.991
		L562.314,723.041z M563.963,726.832c0,0.663-0.51,1.395-1.292,1.395h-1.377l-0.441-1.36l1.359,0.103
		c0.17,0.016,0.425-0.188,0.425-0.408v-4.624H559.9v-1.241h2.736v-1.207h-3.331v-1.258h2.447c-0.118-0.492-0.526-1.121-1.309-1.717
		l1.122-0.459c0.714,0.562,1.224,1.326,1.462,2.176h0.714c0.561-0.561,0.985-1.41,1.189-2.141l1.14,0.459
		c-0.188,0.594-0.578,1.291-0.952,1.682h2.022v1.258h-3.179v1.207h2.703v1.241h-2.703v1.207l0.493-0.629
		c0.799,0.493,1.563,1.292,2.125,2.243l-0.867,0.986c-0.425-1.02-1.189-1.751-1.751-2.176V726.832z M562.519,714.543
		c-0.153-0.272-0.511-0.748-1.071-1.31l1.241-0.577c0.544,0.645,1.003,1.291,1.207,1.887h2.872v1.24h-7.037v-1.24H562.519z
		 M573.567,713.914c-1.53,0.883-3.094,1.309-4.606,1.58v2.431h4.878v1.241h-1.903v8.855h-1.31v-8.855h-1.665v2.193
		c0,2.26-0.748,4.589-2.058,6.611l-1.155-0.815c1.563-2.142,1.903-4.454,1.903-7.089l-0.017-5.609
		c1.887-0.221,3.519-0.73,5.116-1.598L573.567,713.914z"/>
	<path fill="#FFFFFF" d="M583.02,723.16c-0.407-0.832-1.054-1.648-1.666-2.125l-0.017,7.055h-1.377v-6.493
		c-0.408,0.782-1.938,2.702-3.094,3.587l-1.02-0.834c1.972-1.648,3.417-3.552,4.063-5.541l-3.28-0.017l0.017-1.274l3.365,0.017
		v-2.431c-0.696,0.119-2.057,0.322-3.042,0.357c-0.17-0.426-0.307-0.766-0.477-1.275c2.448-0.137,4.606-0.441,6.664-1.411
		l0.68,1.122c-0.901,0.441-1.734,0.799-2.499,1.003v2.618h2.771l0.018,1.274h-2.771l-0.017,1.309l0.425-0.356
		c1.003,0.713,1.683,1.615,2.346,2.635L583.02,723.16z M588.833,724.164c-0.407-0.731-1.02-1.633-1.784-2.397l1.24-0.493
		c1.53,1.666,2.431,3.502,3.213,5.525c-0.459,0.186-0.815,0.322-1.292,0.526c-0.255-0.748-0.391-1.258-0.68-1.853
		c-1.785,0.289-4.097,0.799-5.949,1.41l-1.021-1.156c0.477-0.73,0.901-1.461,1.31-2.158c1.173-2.057,1.921-6.918,2.073-10.539
		l1.36,0.221c-0.425,4.369-0.681,8.313-2.856,11.967L588.833,724.164z"/>
	<path fill="#FFFFFF" d="M601.447,713.233c0.018,1.921-0.067,3.655-0.255,5.372c-0.051,0.407,0.103,0.561,0.204,0.799
		c1.377,3.399,3.196,5.729,6.731,7.24l-0.985,1.105c-3.146-1.632-5.066-3.484-6.511-6.85c-0.663,1.954-3.025,5.014-6.307,6.799
		l-1.02-1.003c1.189-0.714,2.176-1.429,3.094-2.312c1.122-1.055,1.938-1.938,2.787-3.706c0.986-2.006,0.867-4.98,0.901-7.445
		H601.447z"/>
	<path fill="#FFFFFF" d="M478.011,742.422v3.705l2.074-1.02v1.309l-2.873,1.513l-0.748-1.189c0.153-0.187,0.222-0.392,0.222-0.851
		v-3.467h-2.397v-1.241h2.397v-1.769h-0.766c-0.373,0.511-0.747,0.851-1.41,1.429l-0.952-1.021c1.547-1.258,2.635-3.586,2.821-6.441
		l1.225,0.322c0.051,0.918-0.085,1.785-0.153,1.938h2.566v1.241h-2.872c-0.153,0.476-0.374,0.952-0.527,1.292h3.229v1.24h-1.836
		v1.769h2.125v1.241H478.011z M488.363,748.27c-1.003-0.256-1.836-0.783-2.567-1.395c-1.444-1.479-2.192-3.416-2.346-5.32h-1.41
		v5.219l2.566-0.867v1.275l-3.45,1.258l-0.646-1.19c0.188-0.187,0.204-0.374,0.204-0.731v-12.442h6.357v7.479h-2.396
		c0.067,0.781,0.322,1.768,0.629,2.363c0.714-0.357,1.359-1.037,2.006-2.041l0.985,0.783c-0.73,1.07-1.614,1.801-2.465,2.277
		c0.596,1.037,1.921,1.818,3.434,2.209L488.363,748.27z M485.796,735.316h-3.756v1.853h3.756V735.316z M485.796,738.342h-3.756
		v1.972h3.756V738.342z"/>
	<path fill="#FFFFFF" d="M490.966,742.201c2.142-1.225,3.842-3.129,5.235-5.117l1.037,0.697c-0.477,0.867-1.445,2.006-2.074,2.771
		v7.836h-1.309v-6.493c-0.289,0.271-1.241,0.9-1.887,1.359L490.966,742.201z M491.187,737.525c1.785-1.24,3.162-2.77,4.301-4.555
		l1.003,0.781c-1.139,1.717-2.55,3.52-4.165,4.658L491.187,737.525z M498.972,746.994c0.867,0.068,1.615,0.068,2.346,0.051
		c0.188-0.051,0.374-0.17,0.374-0.408v-6.969h-4.352v-1.258l8.754,0.017v1.241l-3.025,0.017l-0.017,7.105
		c0,0.595-0.307,1.037-0.731,1.292c-0.459,0.255-2.073,0.238-2.94,0.203L498.972,746.994z M505.057,735.555h-7.309l-0.018-1.258
		l7.326-0.018V735.555z"/>
</g>
</svg>
