<?xml version="1.0" encoding="utf-8"?>
<!-- Generator: Adobe Illustrator 16.0.0, SVG Export Plug-In . SVG Version: 6.00 Build 0)  -->
<!DOCTYPE svg PUBLIC "-//W3C//DTD SVG 1.1//EN" "http://www.w3.org/Graphics/SVG/1.1/DTD/svg11.dtd">
<svg version="1.1" id="Layer_1" xmlns="http://www.w3.org/2000/svg" xmlns:xlink="http://www.w3.org/1999/xlink" x="0px" y="0px"
	 width="768px" height="1024px" viewBox="0 0 768 1024" enable-background="new 0 0 768 1024" xml:space="preserve">
<rect x="140.671" y="770.301" opacity="0.698" fill="#144E84" enable-background="new    " width="324.396" height="162.222"/>
<g>
	<g>
		<path fill="#FFFFFF" d="M158.132,804.566c0.315,1.646,1.575,3.046,3.291,3.046c3.605,0,4.551-4.727,4.689-7.456l-0.069-0.07
			c-1.365,1.926-3.15,2.73-5.53,2.73c-2.101,0-4.236-0.979-5.636-2.521c-1.296-1.506-1.891-3.535-1.891-5.461
			c0-5.006,3.466-8.961,8.576-8.961c7.421,0,9.416,6.476,9.416,12.672c0,5.985-2.66,12.812-9.626,12.812
			c-4.235,0-7.386-2.484-7.945-6.791H158.132z M165.657,794.521c0-2.275-1.47-4.552-3.955-4.552c-2.38,0-3.745,2.275-3.745,4.48
			c0,2.311,1.19,4.62,3.745,4.62C164.362,799.071,165.657,796.936,165.657,794.521z"/>
	</g>
</g>
<g>
	<path fill="#FFFFFF" d="M157.702,847.023l-5.766-9.944l5.699-9.989h1.188l-5.633,9.989l5.699,9.944H157.702z M160.628,847.023
		l-5.633-9.944l5.566-9.989h1.256l-5.656,9.989l5.656,9.944H160.628z"/>
	<path fill="#FFFFFF" d="M176.511,830.061v13.994h6.514v1.627h-18.703c-0.043-0.526-0.021-1.033-0.021-1.627h6.402v-13.994h-5.984
		l0.021-1.584h17.801v1.584H176.511z M169.712,841.678c-0.572,0.264-1.033,0.528-1.715,0.836c-0.242-3.453-1.408-6.205-3.234-8.955
		c0.549-0.264,0.9-0.551,1.496-0.703C167.974,835.605,169.317,838.398,169.712,841.678z M172.353,830.061v13.994h2.508v-13.994
		H172.353z M181.991,833.316c-0.396,3.345-1.607,6.534-3.125,8.89l-1.563-0.726c1.629-2.355,2.75-5.634,3.234-8.803L181.991,833.316
		z"/>
	<path fill="#FFFFFF" d="M191.118,838.531c-0.418,3.037-1.563,5.721-3.301,8.229l-1.518-0.792c1.475-1.825,3.146-5.147,3.279-7.922
		L191.118,838.531z M189.688,836.354c-0.902-1.231-1.893-2.332-3.367-2.903l1.078-1.189c1.432,0.552,2.619,1.673,3.5,2.972
		L189.688,836.354z M191.009,831.623c-0.924-1.167-1.979-2.025-3.346-2.619l1.102-1.145c1.32,0.483,2.441,1.431,3.41,2.573
		L191.009,831.623z M198.622,845.639v-8.053l-1.475,0.594c-0.088-1.605-0.309-2.949-1.012-4.247l-0.045,5.149
		c0,3.3-1.275,5.698-4.576,7.965l-1.32-1.166c2.178-1.541,4.246-2.839,4.246-7.834v-10.518h1.65v5.963l1.365-0.506
		c0.506,0.99,0.945,2.441,1.121,3.675l0.045-8.229h1.672v4.818l1.166-0.439c0.99,1.452,1.43,3.015,1.629,4.797l-1.607,0.639
		c-0.066-1.54-0.549-3.212-1.166-4.532l-0.043,11.926L198.622,845.639L198.622,845.639z M190.612,837.783
		c0.969-1.519,1.584-3.014,1.649-4.797l1.476,0.285c0.021,1.894-0.683,3.455-1.563,5.018L190.612,837.783z M204.782,827.464v19.407
		h-1.672v-19.407H204.782z"/>
	<path fill="#FFFFFF" d="M215.956,842.624v1.694l-4.225,2.223l-1.012-1.431c0.639-0.354,0.836-0.88,0.836-1.475v-4.621h-3.102
		v-1.563h3.102v-2.2h-0.99c-0.482,0.66-0.967,1.102-1.826,1.85l-1.232-1.32c2.004-1.629,3.412-4.644,3.654-8.34l1.584,0.418
		c0.064,1.188-0.111,2.332-0.199,2.53h3.322v1.584h-3.719c-0.197,0.615-0.482,1.255-0.682,1.693h4.182v1.585h-2.377v2.179h2.75
		v1.584h-2.75v4.93L215.956,842.624z M217.188,847.002l-1.232-1.43c0.484-0.154,0.814-0.66,0.814-1.122v-16.085H225v9.66
		l-3.104-0.021c0.088,1.012,0.418,2.311,0.814,3.08c0.924-0.463,1.76-1.342,2.596-2.641l1.277,1.012
		c-0.947,1.387-2.092,2.332-3.191,2.949c0.771,1.342,2.486,2.354,4.445,2.858l-1.166,1.453c-1.299-0.33-2.377-1.012-3.322-1.805
		c-1.871-1.914-2.84-4.422-3.037-6.888h-1.826v6.756l3.322-1.122v1.649L217.188,847.002z M218.487,829.95v2.397h4.84v-2.397H218.487
		z M218.487,833.889v2.553h4.84v-2.553H218.487z"/>
	<path fill="#FFFFFF" d="M230.036,838.861c2.771-1.584,4.973-4.049,6.777-6.623l1.342,0.901c-0.617,1.122-1.871,2.597-2.687,3.587
		v10.145h-1.693v-8.406c-0.375,0.354-1.605,1.166-2.443,1.762L230.036,838.861z M230.321,832.811
		c2.311-1.605,4.094-3.586,5.565-5.896l1.299,1.012c-1.475,2.224-3.301,4.556-5.391,6.029L230.321,832.811z M240.399,845.066
		c1.121,0.088,2.09,0.088,3.037,0.065c0.24-0.065,0.482-0.221,0.482-0.528v-9.021h-5.633v-1.628l11.332,0.021v1.606l-3.916,0.022
		l-0.021,9.196c0,0.771-0.396,1.342-0.947,1.672c-0.594,0.33-2.684,0.31-3.807,0.265L240.399,845.066z M248.276,830.258h-9.461
		l-0.021-1.628l9.482-0.021V830.258z"/>
	<path fill="#FFFFFF" d="M270.739,845.242c-2.312-0.969-4.137-3.521-4.93-5.875l-1.057,0.439c0.354,1.52,0.441,3.104,0.33,4.336
		c-0.109,1.209-0.352,2.266-1.496,2.661c-0.967,0.353-2.662,0.066-3.85-0.153l-0.682-1.958c1.43,0.462,2.529,0.747,3.695,0.704
		c0.264-0.11,0.572-0.44,0.639-0.728c0.109-0.856,0.131-1.781,0.088-2.948c-2.641,2.288-6.844,3.39-9.703,3.917l-1.211-1.519
		c4.094-0.595,7.701-1.65,10.563-4.114c-0.176-0.463-0.33-0.858-0.594-1.276c-2.312,1.584-4.842,2.816-8.361,3.19l-1.168-1.43
		c3.412-0.484,6.271-1.3,8.627-3.017c-0.354-0.285-0.705-0.526-1.102-0.748c-1.826,0.902-3.719,1.432-5.963,1.738l-1.143-1.451
		c3.629-0.572,6.115-1.343,8.008-2.485l-5.545-0.022l0.023-1.585h12.408v1.563h-4.049c-0.703,0.615-1.518,1.057-2.111,1.407
		c0.793,0.507,1.65,1.52,2.068,2.466c1.475-0.484,2.838-1.694,4.07-3.168l1.277,1.12c-0.859,0.99-1.674,1.63-2.443,2.201
		c0.615,2.002,2.465,4.576,4.709,5.436L270.739,845.242z M270.782,833.801h-1.693v-2.441h-14.105l0.023,2.529h-1.695v-4.093h7.943
		c-0.352-0.55-0.814-0.901-2.09-1.849c0.551-0.396,0.924-0.683,1.387-1.033c1.363,0.791,2.375,2.156,2.793,2.882h7.438
		L270.782,833.801L270.782,833.801z"/>
	<path fill="#FFFFFF" d="M275.202,847.023h-1.188l5.654-9.944l-5.654-9.989h1.254l5.566,9.989L275.202,847.023z M278.128,847.023
		h-1.188l5.699-9.944l-5.633-9.989h1.188l5.699,9.989L278.128,847.023z"/>
</g>
<g>
	<path fill="#FFFFFF" d="M152.745,880.791c0.085-0.697,0.17-0.986,0.408-1.462c0.459-0.918,1.24-1.802,2.464-2.805l0.562-0.459
		c2.243-1.837,3.094-2.991,3.094-4.147c0-1.225-0.969-2.107-2.295-2.107c-1.462,0-2.363,0.919-2.38,2.447l-1.53-0.17
		c0.204-2.276,1.599-3.519,3.944-3.519c2.261,0,3.808,1.377,3.808,3.383c0,1.444-0.851,2.736-2.992,4.538l-1.224,1.037
		c-1.003,0.85-1.411,1.292-1.751,1.836h5.983v1.428H152.745L152.745,880.791z"/>
	<path fill="#FFFFFF" d="M165.988,880.995c-1.581,0-2.788-0.833-3.4-2.362c-0.391-0.986-0.561-2.193-0.561-3.876
		c0-4.097,1.326-6.188,3.961-6.188c2.634,0,3.96,2.091,3.96,6.222S168.622,880.995,165.988,880.995z M167.977,871.322
		c-0.34-0.935-1.104-1.512-2.006-1.512c-1.666,0-2.414,1.563-2.414,4.963c0,1.514,0.153,2.669,0.442,3.468
		c0.34,0.952,1.104,1.53,1.989,1.53c0.884,0,1.647-0.578,1.988-1.53c0.289-0.782,0.442-1.954,0.442-3.45
		S168.282,872.156,167.977,871.322z"/>
	<path fill="#FFFFFF" d="M175.186,880.791v-9.52c-0.493,0.477-0.97,0.799-1.854,1.274c-0.544,0.289-0.696,0.357-1.139,0.527v-1.445
		c1.615-0.748,2.958-1.938,3.519-3.06h0.969v12.222L175.186,880.791L175.186,880.791z"/>
	<path fill="#FFFFFF" d="M184.229,880.995c-1.547,0-2.924-0.833-3.569-2.176c-0.459-0.952-0.646-2.091-0.646-3.724
		c0-4.267,1.496-6.526,4.352-6.526c1.938,0,3.213,1.122,3.468,3.024l-1.496,0.137c-0.17-1.259-0.85-1.92-1.972-1.92
		c-1.104,0-1.938,0.595-2.362,1.666c-0.307,0.78-0.51,1.902-0.51,2.805v0.236c0.271-0.425,0.407-0.576,0.714-0.832
		c0.629-0.492,1.428-0.781,2.243-0.781c2.057,0,3.587,1.682,3.587,3.926C188.036,879.262,186.455,880.995,184.229,880.995z
		 M184.144,874.213c-1.394,0-2.414,1.121-2.414,2.617c0,1.666,1.071,2.941,2.465,2.941c1.343,0,2.312-1.19,2.312-2.84
		C186.506,875.317,185.555,874.213,184.144,874.213z"/>
	<path fill="#FFFFFF" d="M194.055,867.021c-0.067,0.596-0.238,1.036-0.323,1.325h9.52v1.242l-5.185,0.033l0.017,2.176h4.335v1.258
		h-4.335v2.755h5.865v1.258l-5.865-0.019v4.896h-1.343v-4.879h-6.629v-1.275l2.106,0.019v-4.013l4.521-0.018v-2.177h-3.501
		c-0.544,1.105-1.19,2.33-2.346,3.4l-1.071-0.867c1.547-1.377,2.516-3.229,3.145-5.643L194.055,867.021z M193.528,873.057v2.754
		h3.195l0.017-2.754H193.528z"/>
	<path fill="#FFFFFF" d="M208.573,874.943c0,2.328-0.136,5.03-1.769,7.088l-1.088-0.851c0.765-1.12,1.24-2.142,1.377-3.348
		c0.103-1.004,0.152-2.041,0.152-3.077v-6.255h6.188c-0.221-0.324-0.51-0.596-1.377-1.14l1.258-0.696
		c0.51,0.51,1.395,1.358,1.684,1.836h5.626l0.017,1.206H208.59L208.573,874.943z M218.636,876.864
		c-0.595,1.003-2.277,2.278-2.957,2.669c0.408,0.188,1.088,0.391,1.769,0.544c1.139,0.271,2.277,0.459,3.638,0.562
		c-0.204,0.526-0.476,0.815-0.697,1.206c-2.176-0.306-4.267-0.695-6.067-1.581c-0.493,0.205-1.003,0.442-1.547,0.646
		c-1.24,0.476-2.635,0.799-4.097,0.969c-0.289-0.374-0.51-0.697-0.9-1.189c2.091-0.17,3.79-0.68,5.219-1.189
		c-0.833-0.595-1.785-1.563-2.448-2.566h-1.292v-1.207l9.417,0.034L218.636,876.864z M217.515,874.875h-6.409l0.018-2.328h-2.278
		v-1.173l2.261-0.017v-1.311h1.344v1.311h3.739v-1.326h1.326v1.326h2.771v1.207h-2.771L217.515,874.875L217.515,874.875z
		 M212.108,876.933c0.851,0.952,1.344,1.395,2.21,1.954c1.037-0.561,2.006-1.154,2.754-1.938L212.108,876.933z M212.5,873.703
		l3.672-0.018l0.017-1.121h-3.723L212.5,873.703z"/>
	<path fill="#FFFFFF" d="M223.737,877.393v-7.53h5.559l-0.017-3.111h1.358l-0.034,3.094l5.542,0.019v7.462h-1.343v-1.155h-4.199
		l0.034,5.729h-1.343l-0.017-5.729h-4.165l-0.034,1.224L223.737,877.393L223.737,877.393z M229.279,871.102h-4.199v3.843h4.216
		L229.279,871.102z M234.77,871.102h-4.131v3.825h4.147L234.77,871.102z"/>
	<path fill="#FFFFFF" d="M252.688,867.396v14.414h-1.207l-0.017-1.189h-10.369v1.173h-1.274l0.018-14.397H252.688L252.688,867.396z
		 M241.111,879.432h10.335v-10.828h-10.335V879.432z M251.039,878.225h-9.588v-1.207h4.097v-2.873h-3.365v-1.173h3.383v-2.176
		h-3.961v-1.155h9.264v1.172h-4.079v2.144h3.536v1.207h-3.553v2.872h4.267L251.039,878.225L251.039,878.225z M249.458,876.916
		c-0.663-0.867-1.258-1.463-2.108-1.955l0.833-0.663c0.714,0.425,1.632,1.088,2.176,1.972L249.458,876.916z"/>
	<path fill="#FFFFFF" d="M255.562,879.822l1.768-0.17v-5.541h-1.513v-1.207h14.397v1.207h-6.851v7.853h-1.36v-1.819l-5.745,0.901
		L255.562,879.822z M258.128,872.395v-4.912h9.706v4.912H258.128z M262.003,875.045v-0.934h-3.365v0.934H262.003z M258.638,876.219
		v0.885h3.383v-0.885H258.638z M258.654,878.258v1.225c1.088-0.152,2.261-0.288,3.349-0.477v-0.748H258.654z M266.508,868.654
		h-7.071v0.748h7.071V868.654z M259.437,870.523v0.73h7.071v-0.73H259.437z M269.432,874.757c-0.34,1.717-0.663,2.771-1.768,4.268
		c0.765,0.78,1.699,1.409,2.89,1.887c-0.34,0.391-0.527,0.662-0.85,0.986c-1.14-0.478-1.921-1.071-2.839-1.955
		c-0.816,0.729-1.717,1.58-2.635,2.09l-0.766-1.021c1.037-0.629,1.938-1.273,2.602-1.955c-0.681-0.918-1.31-1.953-1.514-3.094
		h-0.714v-1.206H269.432z M265.726,875.963c0.272,0.816,0.562,1.36,1.088,2.125c0.493-0.748,0.952-1.496,1.14-2.125H265.726z"/>
	<path fill="#FFFFFF" d="M276.913,867.09c-0.442,1.445-0.901,2.856-1.581,4.046v10.88h-1.258v-8.907
		c-0.17,0.271-0.68,1.036-1.428,1.768l-1.054-0.934c1.972-1.889,3.382-4.591,4.13-7.327L276.913,867.09z M287.095,880.213v1.241
		h-11.049v-1.241h4.794v-2.447h-3.638v-1.24h3.638v-1.903h1.394v1.903h3.604v1.24h-3.604v2.447H287.095z M282.216,872.887h4.42
		v1.241h-10.25v-1.241h4.438v-2.328h-3.484v-1.258h3.484v-2.244h1.394v2.262h3.451v1.224h-3.451L282.216,872.887L282.216,872.887z"
		/>
	<path fill="#FFFFFF" d="M302.227,867.498v1.189h-5.288v0.664h6.153v3.024h-1.309v-1.836h-4.845v2.074l0.374,0.289l-0.289,0.306
		c1.802,1.581,4.267,2.432,7.122,2.788l-0.695,1.188c-2.397-0.237-4.879-1.155-7.225-3.11c-1.818,1.514-4.368,2.651-7.003,3.281
		l-0.681-1.207c3.23-0.851,5.831-1.769,7.089-3.332v-2.277h-4.861v1.938h-1.275v-3.127h6.137v-0.663h-5.32v-1.19H302.227z
		 M291.108,873.584v-1.055h3.45v1.055H291.108z M294.524,872.003h-3.229v-1.071h3.229V872.003z M293.454,878.615
		c1.02,0.188,1.853,0.44,2.686,0.697c1.088-0.375,1.683-0.716,2.566-1.19l-7.173-0.034v-1.189h9.332v1.07
		c-1.055,0.901-2.228,1.615-3.146,2.006c0.392,0.223,1.225,0.597,1.938,1.123l-0.766,1.088c-1.903-1.325-3.875-2.058-6.222-2.517
		L293.454,878.615z M297.092,876.762c-0.629-0.543-1.445-0.951-2.244-1.154l0.884-0.766c0.731,0.17,1.564,0.51,2.261,1.037
		L297.092,876.762z M301.256,872.003h-3.382v-1.054h3.382V872.003z M301.46,873.584h-3.586v-1.055h3.586V873.584z"/>
	<path fill="#FFFFFF" d="M313.157,868.654c-0.289-0.408-0.97-0.986-1.515-1.326l1.345-0.697c0.765,0.563,1.394,1.311,1.683,2.006
		l5.201,0.019v1.239l-5.508-0.017v0.867l4.556-0.018v1.121h-4.556v0.886l4.556-0.019v1.104h-4.556v0.951h6.068v1.241l-11.645-0.017
		l-0.018,0.629h-1.274v-5.117c-0.221,0.238-0.696,0.833-1.258,1.309l-1.14-0.799c1.785-1.496,2.976-3.331,3.758-5.354l1.139,0.525
		c-0.255,0.646-0.527,1.155-0.663,1.463h3.826V868.654z M318.8,881.879h-1.273v-0.936h-8.38v0.985h-1.293l-0.018-5.116h10.981
		L318.8,881.879z M308.788,869.878v0.851h4.317v-0.834L308.788,869.878z M313.105,872.717v-0.884l-4.317,0.017v0.867H313.105z
		 M313.089,874.773l0.017-0.951h-4.316v0.951H313.089z M317.525,878.037l-8.397,0.018l0.019,1.666l8.396-0.018L317.525,878.037z"/>
	<path fill="#FFFFFF" d="M322.287,880.706c2.328-0.408,4.742-1.563,6.289-2.431c-1.36-1.07-2.432-2.5-3.28-3.961h-1.14l-0.018-1.24
		l4.812,0.017v-2.396h-6.238v-1.224l6.222,0.018v-2.805h1.359l0.034,2.787h6.222v1.24h-6.256l0.034,2.363h4.267v1.139
		c-0.441,0.9-2.329,3.213-3.791,4.113c1.717,1.122,3.809,1.904,6.223,2.329l-0.578,1.241c-1.733-0.257-5.39-1.666-6.715-2.822
		c-2.143,1.224-4.317,2.276-6.781,2.822L322.287,880.706z M326.74,874.314c0.646,1.139,1.666,2.192,2.939,3.213
		c0.901-0.493,2.618-2.143,3.332-3.213H326.74z"/>
	<path fill="#FFFFFF" d="M341.479,873.091c-0.543,0.765-1.139,1.377-1.853,2.192l-1.156-0.9c2.414-2.329,3.621-4.488,4.727-7.836
		l1.225,0.629c-0.477,1.359-1.055,2.687-1.649,3.824v11.031h-1.309L341.479,873.091z M347.921,881.93l-0.408-1.41
		c0.867,0.119,1.226,0.103,1.804,0.119c0.391,0.018,0.525-0.256,0.525-0.494v-8.191h-5.881v-1.259h5.881v-3.909h1.292l-0.017,3.909
		h2.516v1.259l-2.499-0.018v8.517c0,0.646-0.561,1.479-1.513,1.479L347.921,881.93L347.921,881.93z M345.456,873.533
		c1.547,0.695,2.856,2.396,3.468,3.501l-1.139,0.782c-0.782-1.529-1.938-2.855-3.399-3.484L345.456,873.533z"/>
	<path fill="#FFFFFF" d="M355.352,878.225c-0.255-0.408-0.407-0.748-0.611-1.24c0.935-0.289,1.732-0.493,2.431-0.731v-6.34h-2.158
		v-1.224h5.252v1.224h-1.817v5.864c0.406-0.137,1.376-0.511,1.988-0.681v1.377L355.352,878.225z M365.652,875.946
		c0,0.629-0.459,2.006-0.97,2.635c-1.599,1.989-3.28,2.771-6.29,3.229l-0.576-1.274c2.242-0.153,4.164-0.681,5.541-2.261
		c0.748-0.851,1.037-1.888,1.054-3.061l0.034-3.043l1.224,0.085L365.652,875.946z M369.545,868.723h-4.027
		c-0.153,0.543-0.408,1.14-0.563,1.563h3.638v8.007h-1.258v-6.783h-4.793v7.105h-1.292v-8.329h2.362
		c0.221-0.526,0.441-1.088,0.595-1.547h-3.654v-1.173h8.992V868.723z M365.754,877.885c1.513,0.596,3.111,1.512,4.284,3.008
		c-0.272,0.341-0.493,0.629-0.816,0.986c-1.309-1.598-2.55-2.346-4.097-2.992L365.754,877.885z"/>
	<path fill="#FFFFFF" d="M375.547,881.521h-1.359v-13.854h9.536v13.837h-1.359v-1.479h-6.833L375.547,881.521z M375.53,868.943
		l0.017,2.276h6.816v-2.276H375.53z M375.547,872.428l-0.017,2.447h6.833v-2.447H375.547z M375.53,876.117l0.017,2.617h6.816v-2.617
		H375.53z"/>
	<path fill="#FFFFFF" d="M402.882,876.015v1.241h-5.523c0.781,1.258,2.702,2.617,6.12,3.399l-0.937,1.139
		c-3.757-1.037-6-2.94-6.544-4.573h-0.17c-1.564,3.928-5.508,4.284-7.225,4.573l-0.834-1.122c2.278-0.425,5.627-1.037,6.578-3.416
		h-6.051v-1.241h6.748l0.357-1.155l1.273,0.152l-0.271,1.003H402.882L402.882,876.015z M393.55,875.438h-1.325v-2.976
		c-0.951,0.782-2.244,1.7-3.28,2.295l-0.866-1.259c1.173-0.543,2.89-1.717,4.13-2.566v-4.248h1.31L393.55,875.438z M389.079,867.48
		c0.885,0.63,1.836,1.666,2.432,2.737l-1.021,1.002c-0.408-1.02-1.344-2.157-2.295-2.957L389.079,867.48z M396.95,870.219
		c0.492,0.356,1.121,0.883,1.495,1.41c0.596-0.493,1.41-1.258,2.176-2.414h-3.62c-0.51,0.748-1.581,1.989-2.329,2.432l-1.003-0.969
		c1.31-0.815,2.431-2.006,3.213-4.147l1.14,0.477c-0.067,0.306-0.238,0.713-0.408,1.002h4.437l0.019,1.226
		c-1.462,2.805-3.688,4.709-7.515,5.574l-0.85-1.173c1.326-0.237,2.754-0.595,3.808-1.343c-0.492-0.526-0.951-0.97-1.513-1.273
		L396.95,870.219z"/>
	<path fill="#FFFFFF" d="M412.896,876.015c-0.393-0.646-1.311-1.732-2.074-2.396l0.951-0.951c0.885,0.662,1.769,1.496,2.328,2.176
		L412.896,876.015z"/>
	<path fill="#FFFFFF" d="M420.903,880.791c0.085-0.697,0.17-0.986,0.407-1.462c0.459-0.918,1.24-1.802,2.465-2.805l0.562-0.459
		c2.243-1.837,3.094-2.991,3.094-4.147c0-1.225-0.969-2.107-2.295-2.107c-1.462,0-2.362,0.919-2.38,2.447l-1.53-0.17
		c0.204-2.276,1.6-3.519,3.944-3.519c2.261,0,3.809,1.377,3.809,3.383c0,1.444-0.852,2.736-2.992,4.538l-1.225,1.037
		c-1.003,0.85-1.411,1.292-1.751,1.836h5.983v1.428H420.903L420.903,880.791z"/>
	<path fill="#FFFFFF" d="M434.146,880.995c-1.582,0-2.788-0.833-3.4-2.362c-0.391-0.986-0.561-2.193-0.561-3.876
		c0-4.097,1.325-6.188,3.961-6.188c2.634,0,3.959,2.091,3.959,6.222S436.78,880.995,434.146,880.995z M436.135,871.322
		c-0.34-0.935-1.104-1.512-2.006-1.512c-1.666,0-2.414,1.563-2.414,4.963c0,1.514,0.153,2.669,0.442,3.468
		c0.34,0.952,1.104,1.53,1.989,1.53c0.884,0,1.647-0.578,1.987-1.53c0.289-0.782,0.442-1.954,0.442-3.45
		S436.439,872.156,436.135,871.322z"/>
	<path fill="#FFFFFF" d="M443.344,880.791v-9.52c-0.493,0.477-0.97,0.799-1.854,1.274c-0.544,0.289-0.696,0.357-1.14,0.527v-1.445
		c1.615-0.748,2.958-1.938,3.52-3.06h0.969v12.222L443.344,880.791L443.344,880.791z"/>
	<path fill="#FFFFFF" d="M452.388,880.995c-1.547,0-2.924-0.833-3.568-2.176c-0.459-0.952-0.646-2.091-0.646-3.724
		c0-4.267,1.496-6.526,4.353-6.526c1.938,0,3.213,1.122,3.468,3.024l-1.496,0.137c-0.17-1.259-0.851-1.92-1.972-1.92
		c-1.104,0-1.938,0.595-2.362,1.666c-0.308,0.78-0.51,1.902-0.51,2.805v0.236c0.271-0.425,0.407-0.576,0.714-0.832
		c0.629-0.492,1.428-0.781,2.243-0.781c2.057,0,3.587,1.682,3.587,3.926C456.195,879.262,454.614,880.995,452.388,880.995z
		 M452.303,874.213c-1.394,0-2.414,1.121-2.414,2.617c0,1.666,1.071,2.941,2.465,2.941c1.344,0,2.313-1.19,2.313-2.84
		C454.665,875.317,453.714,874.213,452.303,874.213z"/>
	<path fill="#FFFFFF" d="M157.946,887.422c-0.068,0.596-0.238,1.037-0.323,1.326h9.52v1.241l-5.185,0.034l0.017,2.176h4.335v1.258
		h-4.335v2.754h5.865v1.258l-5.865-0.018v4.896h-1.343v-4.878h-6.629v-1.274l2.107,0.018V892.2l4.521-0.019v-2.176h-3.501
		c-0.544,1.105-1.19,2.329-2.346,3.4l-1.071-0.867c1.547-1.377,2.516-3.23,3.145-5.645L157.946,887.422z M157.419,893.457v2.754
		h3.196l0.017-2.754H157.419z"/>
	<path fill="#FFFFFF" d="M172.465,895.344c0,2.328-0.136,5.031-1.768,7.088l-1.088-0.85c0.765-1.122,1.24-2.143,1.377-3.349
		c0.102-1.003,0.152-2.04,0.152-3.077v-6.255h6.188c-0.221-0.323-0.51-0.596-1.377-1.141l1.258-0.696
		c0.51,0.511,1.395,1.36,1.683,1.837h5.627l0.017,1.206h-12.052L172.465,895.344z M182.527,897.264
		c-0.595,1.004-2.277,2.278-2.957,2.67c0.407,0.188,1.088,0.392,1.768,0.543c1.139,0.272,2.277,0.459,3.638,0.563
		c-0.204,0.526-0.476,0.814-0.697,1.206c-2.176-0.305-4.268-0.696-6.068-1.58c-0.493,0.204-1.003,0.44-1.547,0.646
		c-1.24,0.476-2.635,0.8-4.097,0.97c-0.289-0.375-0.51-0.697-0.9-1.19c2.091-0.17,3.79-0.68,5.219-1.189
		c-0.833-0.595-1.785-1.563-2.448-2.566h-1.292v-1.207l9.417,0.034L182.527,897.264z M181.406,895.275h-6.409l0.018-2.328h-2.278
		v-1.174l2.261-0.018v-1.309h1.344v1.309h3.739v-1.325h1.326v1.325h2.771v1.207h-2.771L181.406,895.275L181.406,895.275z
		 M176,897.332c0.851,0.952,1.344,1.395,2.21,1.955c1.037-0.562,2.006-1.156,2.754-1.938L176,897.332z M176.392,894.104l3.672-0.018
		l0.017-1.122h-3.723L176.392,894.104z"/>
	<path fill="#FFFFFF" d="M187.629,897.791v-7.529h5.559l-0.017-3.11h1.359l-0.034,3.094l5.542,0.018v7.461h-1.343v-1.154h-4.199
		l0.034,5.729h-1.343l-0.017-5.729h-4.165l-0.034,1.224h-1.342V897.791z M193.171,891.502h-4.199v3.842h4.216L193.171,891.502z
		 M198.661,891.502h-4.131v3.824h4.146L198.661,891.502z"/>
	<path fill="#FFFFFF" d="M216.578,887.797v14.414h-1.207l-0.017-1.189h-10.369v1.173h-1.275l0.018-14.396L216.578,887.797
		L216.578,887.797z M205.002,899.831h10.335v-10.828h-10.335V899.831z M214.93,898.624h-9.588v-1.206h4.097v-2.873h-3.365v-1.174
		h3.383v-2.176h-3.961v-1.155h9.264v1.173h-4.079v2.143h3.536v1.207h-3.553v2.871h4.267v1.19H214.93z M213.349,897.315
		c-0.663-0.867-1.258-1.462-2.108-1.955l0.833-0.663c0.714,0.426,1.632,1.088,2.176,1.973L213.349,897.315z"/>
	<path fill="#FFFFFF" d="M219.453,900.223l1.768-0.17v-5.542h-1.513v-1.207h14.397v1.207h-6.851v7.854h-1.359v-1.818l-5.746,0.9
		L219.453,900.223z M222.02,892.794v-4.913h9.706v4.913H222.02z M225.896,895.445v-0.936h-3.366v0.936H225.896z M222.529,896.618
		v0.884h3.383v-0.884H222.529z M222.546,898.658v1.224c1.088-0.153,2.262-0.288,3.35-0.476v-0.748H222.546z M230.399,889.055h-7.071
		v0.748h7.071V889.055z M223.328,890.924v0.73h7.071v-0.73H223.328z M233.323,895.156c-0.34,1.717-0.663,2.771-1.769,4.267
		c0.765,0.782,1.699,1.411,2.89,1.888c-0.34,0.392-0.527,0.662-0.85,0.985c-1.14-0.476-1.921-1.071-2.839-1.955
		c-0.816,0.731-1.717,1.581-2.635,2.091l-0.766-1.02c1.037-0.629,1.938-1.275,2.602-1.955c-0.681-0.918-1.31-1.955-1.514-3.094
		h-0.714v-1.207H233.323z M229.617,896.363c0.272,0.815,0.562,1.358,1.088,2.125c0.493-0.748,0.952-1.496,1.14-2.125H229.617z"/>
	<path fill="#FFFFFF" d="M240.805,887.49c-0.441,1.445-0.9,2.854-1.581,4.046v10.879h-1.258v-8.907
		c-0.17,0.271-0.68,1.037-1.428,1.769l-1.054-0.936c1.972-1.888,3.382-4.59,4.13-7.327L240.805,887.49z M250.986,900.613v1.239
		h-11.049v-1.239h4.794v-2.448h-3.638v-1.241h3.638v-1.902h1.394v1.902h3.604v1.241h-3.604v2.448H250.986z M246.107,893.287h4.42
		v1.24h-10.25v-1.24h4.437v-2.329h-3.484V889.7h3.484v-2.244h1.394v2.261h3.451v1.225h-3.451L246.107,893.287L246.107,893.287z"/>
	<path fill="#FFFFFF" d="M252.569,901.445c0.969-1.41,1.768-2.702,1.954-4.249c0.153-1.325,0.204-2.669,0.204-3.96v-3.758
		c3.417-0.103,7.36-0.714,10.505-1.733l0.884,1.104c-3.076,0.97-6.612,1.666-9.994,1.718v1.633h9.009
		c-0.289,2.295-1.326,4.827-2.907,6.44c1.479,1.175,3.281,2.023,5.253,2.618l-0.918,1.104c-1.547-0.492-4.317-1.784-5.32-2.839
		c-1.258,1.259-3.179,2.107-5.186,2.873l-0.646-1.123c1.869-0.747,3.535-1.494,4.878-2.616c-1.224-1.326-2.312-3.332-2.754-5.201
		h-1.41c0,4.334-0.392,6.085-2.448,8.736L252.569,901.445z M258.893,893.457c0.493,1.513,1.394,3.213,2.38,4.232
		c0.866-0.97,1.903-2.771,2.277-4.232H258.893z"/>
	<path fill="#FFFFFF" d="M271.983,894.222c-0.715-1.189-1.496-2.006-2.687-2.736l1.003-0.832c1.122,0.595,1.955,1.495,2.687,2.702
		L271.983,894.222z M269.638,901.038c1.563-1.819,2.549-3.45,2.957-5.831l1.241,0.545c-0.442,2.379-1.496,4.079-3.06,6
		L269.638,901.038z M273.309,890.686c-0.646-1.188-1.495-1.853-2.754-2.549l0.986-0.851c0.952,0.425,1.853,1.155,2.805,2.567
		L273.309,890.686z M280.754,900.018c0.153,0.323,0.357,0.357,0.562,0.393h1.309c0.34-0.119,0.425-0.511,0.51-0.901
		c0.051-0.476,0.17-0.951,0.188-1.58c0.51,0.119,0.866,0.307,1.325,0.441c-0.136,0.815-0.306,1.479-0.526,2.158
		c-0.188,0.526-0.731,1.021-1.31,1.104c-1.104-0.018-2.635,0.308-3.229-0.969c-0.136-0.307-0.152-0.68-0.152-1.003v-4.878h-1.225
		c-0.017,1.07-0.102,2.346-0.493,3.397c-0.765,2.023-2.787,3.315-4.81,4.063l-0.748-1.172c2.039-0.816,4.861-1.717,4.759-6.272
		H273.7v-1.241h4.759v-2.565h-1.938c-0.323,0.697-0.697,1.496-1.224,2.312c-0.477-0.136-0.867-0.322-1.395-0.492
		c1.207-1.529,1.87-3.076,2.04-5.031l1.241,0.459c-0.085,0.611-0.17,1.156-0.272,1.513h1.547v-2.72h1.326l-0.017,2.72l3.569,0.017
		v1.207l-3.569,0.019l0.017,2.565h4.437v1.226h-3.468L280.754,900.018L280.754,900.018z"/>
	<path fill="#FFFFFF" d="M285.412,893.439c1.785-1.684,2.635-4.045,2.941-6.357l1.122,0.51c-0.119,0.901-0.222,1.377-0.408,1.922
		l4.079-0.018v1.275h-4.437c-0.187,0.51-0.408,0.935-0.629,1.273l4.028,0.018l-0.017,1.258h-2.72l-0.017,1.598h2.668l0.034,1.258
		l-2.686-0.017v3.536c0.85-0.34,1.632-0.715,2.975-1.411v1.343l-4.249,2.006l-0.681-1.156c0.188-0.051,0.596-0.236,0.663-0.407
		v-3.894h-2.057v-1.258h2.057v-1.598H287.3c-0.171,0.307-0.477,0.715-0.816,1.021L285.412,893.439z M299.181,896.33
		c-0.491,0.814-0.984,1.614-1.717,2.413c0.527,0.866,1.156,1.614,2.091,2.261c0.204-0.425,0.374-1.02,0.527-1.563l1.071,0.815
		c-0.17,0.562-0.393,1.359-0.767,1.785c-0.321,0.34-0.748,0.425-1.173,0.271c-0.918-0.355-1.513-1.104-2.158-1.853
		c-0.289-0.323-0.442-0.629-0.596-0.884c-1.155,0.85-2.294,1.853-4.419,2.72l-0.901-1.037c1.751-0.696,3.451-1.717,4.624-2.805
		c-0.425-0.884-0.731-2.073-0.85-3.025l-2.38,0.17l-0.103-1.189l2.329-0.152c-0.051-0.697-0.103-1.309-0.085-1.836l-2.006,0.102
		l-0.136-1.224l2.124-0.119l0.018-3.909h1.274l-0.017,3.842l3.978-0.271l0.102,1.207l-4.063,0.289c0,0.544,0.052,1.206,0.085,1.818
		l4.231-0.271l0.104,1.189l-4.198,0.289c0.085,0.646,0.476,1.666,0.68,2.176c0.441-0.493,1.002-1.19,1.411-1.903L299.181,896.33z
		 M298.161,890.686c-0.493-0.883-1.292-1.732-2.006-2.142l0.799-0.747c0.815,0.441,1.854,1.342,2.21,2.124L298.161,890.686z"/>
	<path fill="#FFFFFF" d="M302.872,901.038c0.629,0.153,1.188,0.17,1.632,0.136c0.288-0.018,0.441-0.221,0.441-0.44l0.017-3.894
		l-2.039,0.748l-0.867-1.088l2.891-1.004l0.017-3.723h-2.294l-0.018-1.225h2.312v-3.298h1.259l0.018,3.281h1.751v1.239l-1.751,0.019
		l-0.018,3.213l1.888-0.663v1.292l-1.87,0.697l-0.018,4.774c0,0.646-0.341,1.345-1.31,1.345h-1.41L302.872,901.038z
		 M307.002,901.242c1.77-0.493,3.229-1.226,4.402-2.21c-1.003-1.071-1.699-2.55-2.192-3.927l-0.833-0.019l-0.017-1.223l3.246,0.017
		v-2.82h-3.554v-1.242h3.554v-2.635h1.274l0.018,2.651l3.927-0.018v1.241H312.9l-0.018,2.806h2.991
		c-0.237,2.157-1.359,3.841-2.617,5.184c1.14,0.986,2.635,1.581,4.353,2.107l-0.816,1.14c-1.699-0.493-3.179-1.31-4.453-2.362
		c-1.071,0.815-2.193,1.733-4.369,2.431L307.002,901.242z M310.589,895.088c0.527,1.275,0.969,2.278,1.785,3.094
		c0.748-0.729,1.614-2.006,1.938-3.076L310.589,895.088z"/>
	<path fill="#FFFFFF" d="M318.58,899.916c3.28-1.887,4.657-4.453,5.474-7.445h-5.032l0.019-1.274h6.646l-0.018-3.857h1.275v3.857
		h6.578l0.017,1.274h-4.98c0.63,1.955,1.989,5.49,5.542,7.411l-0.918,1.037c-0.441-0.204-0.748-0.442-1.054-0.68
		c-2.618-1.938-4.063-4.794-4.794-7.77h-0.391l-0.019,9.894h-1.24v-9.894h-0.392c-0.866,3.809-2.583,6.646-5.796,8.433
		L318.58,899.916z M328.779,887.779c1.088,0.492,2.091,1.274,2.838,2.362l-1.003,0.8c-0.696-1.088-1.529-1.752-2.668-2.329
		L328.779,887.779z"/>
	<path fill="#FFFFFF" d="M335.818,901.004c3.009-0.477,5.847-1.683,7.02-4.283h-7.02v-1.24h7.41
		c0.171-0.493,0.271-1.582,0.271-2.313l0.018-2.346l1.274,0.017c0,2.261,0.051,3.196-0.238,4.624h5.679v1.24h-6
		c-0.545,1.563-1.938,3.213-3.52,4.029c-1.31,0.661-2.465,1.12-3.927,1.428L335.818,901.004z M343.569,889.02l6.392,0.035v2.806
		h-1.292v-1.564h-11.271v1.581h-1.291v-2.821h6.814c-0.271-0.459-1.02-1.088-1.58-1.395l0.969-0.611
		c0.611,0.322,1.429,1.021,1.803,1.75L343.569,889.02z M340.152,895.377c-0.578-0.935-1.41-1.75-2.413-2.379l0.832-0.766
		c0.97,0.545,1.903,1.395,2.517,2.381L340.152,895.377z M341.854,893.746c-0.563-1.021-1.344-1.785-2.347-2.465l0.867-0.731
		c1.002,0.578,1.903,1.496,2.498,2.499L341.854,893.746z M349.484,902.229c-1.614-1.803-3.314-2.754-5.439-3.706l0.663-0.951
		c1.7,0.629,4.216,2.142,5.66,3.653L349.484,902.229z"/>
	<path fill="#FFFFFF" d="M354.229,900.494c1.648,0.459,1.633,0.238,1.836-0.748c0.255-1.24,0.356-2.975,0.441-4.623h-1.445
		c0,2.465-0.544,5.048-1.953,7.292l-1.071-0.884c1.326-1.974,1.717-4.269,1.717-6.646v-3.434h-1.224l-0.018-1.241h5.507v1.241h-2.99
		v2.431h2.786c-0.066,2.396-0.221,4.742-0.695,6.884c-0.137,0.63-0.459,0.918-0.833,1.089c-0.578,0.271-1.258,0.033-1.904-0.033
		L354.229,900.494z M355.419,890.125c-0.374-0.986-1.156-1.683-2.091-2.313l1.003-0.681c0.935,0.563,1.7,1.258,2.142,2.278
		L355.419,890.125z M361.028,887.473c-0.068,0.597-0.238,1.105-0.341,1.396h6.153v1.24l-6.596,0.018
		c-0.51,1.189-1.206,2.533-2.431,3.435l-0.985-0.816c1.309-0.866,2.516-3.025,3.042-5.677L361.028,887.473z M367.182,898.862
		c-0.136,0.814-0.306,1.547-0.714,2.159c-0.289,0.44-0.782,0.661-1.292,0.661l-4.623-0.017c-0.73,0-1.428-0.459-1.428-1.411v-4.674
		l-0.986,0.254l-0.289-1.207l1.259-0.271v-1.803h1.292v1.479l1.462-0.308v-2.957l1.273-0.018v2.686l3.213-0.714
		c-0.102,1.819-0.306,3.469-0.68,5.05c-0.085,0.355-0.425,0.814-0.799,0.918c-0.478,0.117-0.969,0-1.462-0.053l-0.204-1.324
		c0.544,0.066,0.85,0.271,1.122,0.103c0.221-0.154,0.152-0.477,0.271-0.748c0.171-0.815,0.272-1.684,0.374-2.362l-1.836,0.373v4.708
		h-1.291v-4.385l-1.444,0.322v4.572c0,0.307,0.152,0.545,0.493,0.545h4.146c0.323,0,0.527-0.204,0.612-0.493
		c0.17-0.425,0.236-0.884,0.321-1.563L367.182,898.862z"/>
	<path fill="#FFFFFF" d="M383.348,896.414v1.241h-5.523c0.781,1.258,2.703,2.618,6.12,3.398l-0.937,1.14
		c-3.757-1.037-6-2.94-6.544-4.572h-0.17c-1.563,3.927-5.508,4.283-7.225,4.572l-0.833-1.121c2.277-0.426,5.627-1.037,6.578-3.417
		h-6.052v-1.241h6.748l0.357-1.156l1.273,0.154l-0.271,1.002H383.348z M374.016,895.836h-1.324v-2.975
		c-0.952,0.781-2.244,1.699-3.281,2.295l-0.867-1.258c1.174-0.545,2.891-1.718,4.131-2.566v-4.25h1.309L374.016,895.836z
		 M369.545,887.881c0.885,0.629,1.836,1.666,2.432,2.737l-1.021,1.003c-0.408-1.021-1.343-2.159-2.295-2.958L369.545,887.881z
		 M377.416,890.618c0.492,0.355,1.121,0.884,1.495,1.411c0.596-0.493,1.411-1.258,2.176-2.414h-3.62
		c-0.51,0.748-1.581,1.988-2.329,2.431l-1.003-0.969c1.31-0.815,2.432-2.006,3.213-4.147l1.14,0.477
		c-0.067,0.306-0.238,0.714-0.408,1.003h4.437l0.019,1.224c-1.462,2.807-3.688,4.709-7.515,5.575l-0.85-1.172
		c1.326-0.238,2.754-0.596,3.809-1.344c-0.493-0.526-0.952-0.97-1.514-1.274L377.416,890.618z"/>
	<path fill="#FFFFFF" d="M393.362,896.414c-0.393-0.646-1.311-1.733-2.074-2.396l0.952-0.95c0.884,0.661,1.768,1.495,2.328,2.176
		L393.362,896.414z"/>
	<path fill="#FFFFFF" d="M401.37,901.191c0.085-0.697,0.17-0.986,0.408-1.464c0.459-0.918,1.239-1.801,2.464-2.805l0.562-0.459
		c2.243-1.836,3.095-2.991,3.095-4.146c0-1.226-0.97-2.108-2.295-2.108c-1.463,0-2.363,0.918-2.381,2.448l-1.529-0.17
		c0.203-2.278,1.599-3.521,3.943-3.521c2.262,0,3.809,1.377,3.809,3.384c0,1.444-0.852,2.735-2.992,4.538l-1.225,1.037
		c-1.003,0.851-1.41,1.291-1.75,1.836h5.982v1.429H401.37z"/>
	<path fill="#FFFFFF" d="M414.613,901.395c-1.581,0-2.788-0.831-3.4-2.361c-0.391-0.985-0.561-2.192-0.561-3.876
		c0-4.097,1.326-6.188,3.961-6.188c2.634,0,3.96,2.092,3.96,6.223C418.573,899.321,417.247,901.395,414.613,901.395z
		 M416.602,891.723c-0.34-0.935-1.104-1.513-2.006-1.513c-1.666,0-2.414,1.563-2.414,4.964c0,1.514,0.153,2.668,0.442,3.467
		c0.34,0.953,1.104,1.53,1.989,1.53c0.884,0,1.647-0.577,1.987-1.53c0.289-0.78,0.442-1.953,0.442-3.449
		C417.044,893.695,416.907,892.556,416.602,891.723z"/>
	<path fill="#FFFFFF" d="M423.811,901.191v-9.521c-0.492,0.478-0.97,0.799-1.854,1.275c-0.544,0.289-0.696,0.355-1.139,0.525v-1.443
		c1.614-0.748,2.958-1.938,3.519-3.062h0.969v12.224L423.811,901.191L423.811,901.191z"/>
	<path fill="#FFFFFF" d="M432.854,901.395c-1.547,0-2.924-0.831-3.568-2.176c-0.459-0.951-0.646-2.09-0.646-3.723
		c0-4.266,1.496-6.527,4.353-6.527c1.938,0,3.213,1.122,3.468,3.025l-1.496,0.137c-0.17-1.258-0.85-1.921-1.972-1.921
		c-1.104,0-1.938,0.595-2.362,1.666c-0.307,0.782-0.51,1.903-0.51,2.805v0.237c0.271-0.424,0.407-0.577,0.714-0.832
		c0.629-0.493,1.428-0.782,2.243-0.782c2.057,0,3.587,1.684,3.587,3.928C436.661,899.661,435.08,901.395,432.854,901.395z
		 M432.77,894.613c-1.395,0-2.414,1.121-2.414,2.617c0,1.666,1.07,2.939,2.465,2.939c1.343,0,2.312-1.189,2.312-2.839
		C435.131,895.717,434.18,894.613,432.77,894.613z"/>
	<path fill="#FFFFFF" d="M442.68,887.422c-0.067,0.596-0.237,1.037-0.322,1.326h9.52v1.241l-5.185,0.034l0.017,2.176h4.335v1.258
		h-4.335v2.754h5.865v1.258l-5.865-0.018v4.896h-1.343v-4.878h-6.629v-1.274l2.106,0.018V892.2l4.521-0.019v-2.176h-3.501
		c-0.544,1.105-1.19,2.329-2.347,3.4l-1.07-0.867c1.547-1.377,2.516-3.23,3.145-5.645L442.68,887.422z M442.153,893.457v2.754h3.194
		l0.018-2.754H442.153z"/>
	<path fill="#FFFFFF" d="M155.89,915.743c0,2.329-0.136,5.032-1.768,7.089l-1.088-0.85c0.765-1.123,1.24-2.144,1.377-3.351
		c0.102-1.002,0.152-2.039,0.152-3.076V909.3h6.188c-0.221-0.321-0.51-0.595-1.377-1.139l1.258-0.697
		c0.51,0.51,1.395,1.36,1.684,1.836h5.626l0.017,1.207h-12.052L155.89,915.743z M165.952,917.664
		c-0.595,1.003-2.277,2.277-2.957,2.669c0.408,0.187,1.088,0.392,1.768,0.544c1.139,0.271,2.277,0.459,3.638,0.561
		c-0.204,0.527-0.476,0.816-0.697,1.207c-2.176-0.306-4.267-0.696-6.068-1.58c-0.493,0.203-1.003,0.441-1.547,0.646
		c-1.24,0.476-2.635,0.799-4.097,0.969c-0.289-0.374-0.51-0.695-0.9-1.189c2.091-0.17,3.79-0.681,5.219-1.189
		c-0.833-0.595-1.785-1.563-2.448-2.565h-1.292v-1.207l9.417,0.033L165.952,917.664z M164.831,915.676h-6.409l0.018-2.329h-2.278
		v-1.173l2.261-0.018v-1.31h1.344v1.31h3.739v-1.325h1.326v1.325h2.771v1.207h-2.771L164.831,915.676L164.831,915.676z
		 M159.425,917.732c0.851,0.95,1.344,1.394,2.21,1.955c1.037-0.563,2.006-1.156,2.754-1.938L159.425,917.732z M159.816,914.502
		l3.672-0.017l0.017-1.122h-3.723L159.816,914.502z"/>
	<path fill="#FFFFFF" d="M171.054,918.191v-7.53h5.56l-0.018-3.11h1.359l-0.034,3.094l5.542,0.018v7.462h-1.343v-1.156h-4.199
		l0.034,5.729h-1.343l-0.018-5.729h-4.165l-0.034,1.226h-1.342V918.191z M176.596,911.902h-4.199v3.841h4.216L176.596,911.902z
		 M182.086,911.902h-4.131v3.823h4.147L182.086,911.902z"/>
	<path fill="#FFFFFF" d="M200.004,908.196v14.415h-1.207l-0.017-1.19h-10.369v1.173h-1.275l0.019-14.396L200.004,908.196
		L200.004,908.196z M188.428,920.23h10.335v-10.828h-10.335V920.23z M198.355,919.023h-9.588v-1.206h4.097v-2.873h-3.365v-1.173
		h3.383v-2.177h-3.961v-1.155h9.264v1.174h-4.079v2.141h3.536v1.207h-3.553v2.873h4.267L198.355,919.023L198.355,919.023z
		 M196.774,917.715c-0.663-0.867-1.258-1.461-2.108-1.955l0.833-0.662c0.714,0.426,1.632,1.088,2.176,1.973L196.774,917.715z"/>
	<path fill="#FFFFFF" d="M202.878,920.622l1.768-0.17v-5.542h-1.513v-1.207h14.397v1.207h-6.852v7.854h-1.36v-1.817l-5.745,0.899
		L202.878,920.622z M205.444,913.193v-4.912h9.706v4.912H205.444z M209.319,915.846v-0.936h-3.365v0.936H209.319z M205.954,917.018
		v0.886h3.383v-0.886H205.954z M205.971,919.059v1.224c1.088-0.152,2.261-0.288,3.349-0.476v-0.748H205.971L205.971,919.059z
		 M213.824,909.454h-7.071v0.748h7.071V909.454z M206.753,911.324v0.729h7.071v-0.729H206.753z M216.748,915.557
		c-0.34,1.718-0.663,2.771-1.768,4.268c0.765,0.782,1.699,1.411,2.89,1.887c-0.34,0.391-0.527,0.663-0.85,0.985
		c-1.14-0.477-1.921-1.07-2.839-1.955c-0.816,0.73-1.717,1.582-2.635,2.092l-0.766-1.021c1.037-0.63,1.938-1.274,2.602-1.954
		c-0.681-0.919-1.31-1.955-1.514-3.095h-0.714v-1.207H216.748z M213.042,916.764c0.272,0.815,0.562,1.359,1.088,2.125
		c0.493-0.748,0.952-1.496,1.14-2.125H213.042z"/>
	<path fill="#FFFFFF" d="M224.229,907.891c-0.442,1.444-0.901,2.855-1.581,4.045v10.88h-1.258v-8.906
		c-0.17,0.271-0.68,1.036-1.428,1.768l-1.054-0.936c1.972-1.888,3.382-4.59,4.13-7.326L224.229,907.891z M234.411,921.013v1.241
		h-11.049v-1.241h4.794v-2.447h-3.638v-1.24h3.638v-1.904h1.394v1.904h3.604v1.24h-3.604v2.447H234.411z M229.532,913.688h4.42v1.24
		h-10.25v-1.24h4.437v-2.329h-3.484V910.1h3.484v-2.242h1.394v2.261h3.451v1.224h-3.451L229.532,913.688L229.532,913.688z"/>
	<path fill="#FFFFFF" d="M238.646,915.166c-0.561-1.19-1.563-2.041-2.839-2.465l0.986-0.937c1.224,0.408,2.243,1.445,2.906,2.603
		L238.646,915.166z M240.176,916.219c-0.442,2.278-1.14,4.506-2.941,6.256l-1.121-0.833c1.733-1.495,2.565-3.653,2.89-5.915
		L240.176,916.219z M239.325,911.256c-0.561-1.088-1.479-1.734-2.651-2.091l0.952-0.918c1.088,0.289,1.972,1.104,2.702,2.073
		L239.325,911.256z M238.9,921.676c3.604-1.343,2.839-4.334,2.94-6.271l1.275-0.018c0,2.532,0.425,5.813-3.28,7.396L238.9,921.676z
		 M249.389,915.268c-0.204-0.477-0.442-0.833-0.612-1.069c-2.617,0.221-5.881,0.61-7.581,0.951l-0.851-1.14
		c1.274-0.526,2.821-1.7,3.553-3.417h-3.502v-1.241h4.352c-0.323-0.44-0.935-0.918-1.853-1.291l1.088-0.781
		c0.9,0.306,1.632,1.036,2.158,1.887l-0.271,0.153l4.76,0.032v1.241h-5.304c-0.477,0.936-1.071,2.125-2.142,2.976l4.674-0.458
		c-0.204-0.205-0.696-0.494-1.462-0.767l1.258-0.85c1.104,0.611,2.261,1.732,2.873,3.008L249.389,915.268z M244.459,922.441v-7.105
		h1.292v7.105H244.459z M248.726,920.469c-0.068,0.562,0.952,0.562,1.071,0.271c0.17-0.254,0.306-1.394,0.322-2.191l1.225,0.441
		c-0.052,0.765-0.171,1.428-0.356,2.057c-0.153,0.478-0.595,0.969-1.122,1.021c-0.714,0.067-2.431,0.204-2.431-1.395v-5.337h1.292
		V920.469L248.726,920.469z"/>
	<path fill="#FFFFFF" d="M261.986,907.465c0.459,0.019,0.765-0.033,1.258-0.017v3.96h3.535c-0.152,2.924-0.459,6.29-0.73,8.397
		c-0.153,1.021-0.255,1.988-1.377,2.447c-0.629,0.271-1.377,0.085-2.091,0.018c-0.136-0.426-0.221-0.766-0.408-1.31
		c0.799,0.085,1.36,0.272,1.904,0.17c0.441-0.152,0.391-0.714,0.561-1.173c0.408-2.363,0.663-5.354,0.765-7.36h-2.124
		c0.017,3.979-0.596,7.87-4.862,10.014l-0.985-1.088c1.088-0.527,1.903-1.19,2.261-1.615c-0.221-0.493-0.493-0.85-0.765-1.173
		c-1.411,0.391-3.502,0.984-5.202,1.598l-0.884-1.292c0.918-0.748,2.396-3.604,2.855-5.185h-3.061v-1.206h7.411v1.223h-2.923
		c-0.851,2.057-1.7,3.81-2.431,4.728l3.501-0.952c-0.102-0.153-0.408-0.442-0.85-0.833l0.936-0.663
		c0.782,0.663,1.938,1.887,2.346,2.788c0.357-0.308,1.343-2.482,1.343-5.016v-1.343h-1.784v-1.189h1.802L261.986,907.465
		L261.986,907.465z M259.352,909.216v1.173H253.3v-1.173H259.352z"/>
	<path fill="#FFFFFF" d="M269.195,914.877c0.68-1.31,1.224-2.432,1.258-3.979l1.122,0.34c-0.103,1.496-0.477,2.959-1.275,4.131
		L269.195,914.877z M271.677,922.746v-15.179l1.275,0.017v3.57l1.003-0.527c0.595,0.68,1.054,1.632,1.224,2.074
		c0.477-0.799,0.714-2.228,0.782-3.791l1.292,0.34c-0.052,0.748-0.153,1.411-0.238,1.904h1.699v-3.621h1.292v3.621h3.57v1.239h-3.57
		v3.23h3.06v1.24h-3.076l0.017,3.468h4.42l0.017,1.241h-9.995v-1.241h4.267v-3.468h-3.349v-1.24h3.349v-3.23h-2.022
		c-0.289,0.901-0.799,1.955-1.496,2.892l-1.309-0.596c0.544-0.527,0.799-0.919,0.867-1.07l-0.629,0.271
		c-0.238-0.985-0.408-1.632-1.139-2.55l-0.034,11.405L271.677,922.746L271.677,922.746z"/>
	<path fill="#FFFFFF" d="M297.787,908.18v5.848c0,2.499,0.459,5.27,1.666,7.021l0.238-1.41l1.173,0.681l-0.223,0.969
		c-0.136,0.408-0.306,0.984-0.814,1.207c-0.425,0.151-0.986-0.119-1.31-0.493c-1.496-1.836-1.818-4.573-1.938-6.612
		c-0.119-1.768-0.067-3.587-0.085-6.018l-7.462,0.018l-0.017,5.949c0,2.635-0.885,5.711-2.635,7.326l-1.088-0.901
		c1.563-1.495,2.447-3.876,2.447-6.748l0.017-6.833h10.03V908.18z M288.693,919.738c1.274-0.918,3.195-3.383,3.79-4.199
		c-0.781-1.104-2.142-2.516-3.161-3.484l0.867-0.78c0.969,0.85,2.158,2.038,2.991,3.094c0.289-0.375,1.292-2.211,1.819-3.521
		l1.07,0.612c-0.391,1.003-1.428,3.128-2.091,3.978c0.867,1.189,1.989,2.891,2.499,4.557l-1.156,0.663
		c-0.526-1.564-1.444-3.195-2.107-4.097c-0.629,0.884-1.904,2.601-3.484,4.112L288.693,919.738z"/>
	<path fill="#FFFFFF" d="M304.759,917.834c0.799,0.137,1.395,0.289,1.836-0.085c0.271-0.34,0.392-0.577,0.356-0.952
		c-0.153-1.394-1.122-2.635-2.074-3.824c0.73-1.258,1.377-2.431,1.904-3.468h-2.362v13.225h-1.292l0.018-14.466h5.149v1.174
		c-0.51,1.021-1.188,2.295-1.87,3.501c0.852,1.104,1.751,2.397,1.802,4.013c0.019,0.969-0.68,1.902-1.598,2.228
		c-0.459,0.152-0.866,0.152-1.444,0.067L304.759,917.834z M315.688,914.655h-6.8v-0.782c-0.118,0.068-0.425,0.324-0.866,0.494
		c-0.34-0.393-0.562-0.731-0.936-1.19c2.125-0.73,4.268-3.519,4.811-5.644l1.275,0.544c-0.103,0.289-0.222,0.562-0.34,0.867
		c0.985,1.768,2.702,3.434,4.641,4.386l-0.766,1.121l-1.003-0.595L315.688,914.655z M316.267,915.59
		c-0.356,1.922-1.055,3.791-1.887,5.236h2.601l0.018,1.224h-9.688v-1.224h5.778c0.936-1.514,1.632-3.91,1.954-5.729L316.267,915.59z
		 M309.96,920.197c-0.119-1.633-0.731-2.907-1.615-4.216l1.122-0.526c0.833,1.258,1.581,2.719,1.785,4.13L309.96,920.197z
		 M315.145,913.414c-1.155-0.764-2.447-2.176-2.939-3.229c-0.731,1.394-1.496,2.347-2.703,3.195L315.145,913.414z M312.204,919.296
		c-0.272-1.495-1.037-2.601-1.955-3.808l1.188-0.527c0.901,1.174,1.615,2.313,1.955,3.74L312.204,919.296z"/>
	<path fill="#FFFFFF" d="M319.447,921.438c0.629,0.153,1.188,0.171,1.632,0.138c0.288-0.019,0.44-0.222,0.44-0.442l0.019-3.893
		l-2.04,0.748l-0.867-1.088l2.891-1.004l0.018-3.723h-2.295l-0.019-1.225h2.313v-3.297h1.258l0.018,3.28h1.75v1.24l-1.75,0.019
		l-0.018,3.212l1.887-0.663v1.292l-1.869,0.696l-0.018,4.776c0,0.646-0.341,1.343-1.31,1.343h-1.41L319.447,921.438z
		 M323.577,921.642c1.768-0.492,3.229-1.224,4.401-2.21c-1.002-1.069-1.698-2.549-2.191-3.926l-0.833-0.018l-0.017-1.225
		l3.245,0.018v-2.821h-3.553v-1.241h3.553v-2.635h1.275l0.017,2.652l3.928-0.019v1.241h-3.928l-0.017,2.805h2.991
		c-0.237,2.159-1.359,3.842-2.617,5.186c1.139,0.985,2.635,1.58,4.352,2.106l-0.815,1.14c-1.699-0.492-3.179-1.31-4.453-2.362
		c-1.071,0.815-2.193,1.733-4.369,2.431L323.577,921.642z M327.164,915.488c0.527,1.274,0.969,2.276,1.785,3.094
		c0.747-0.73,1.613-2.006,1.938-3.076L327.164,915.488z"/>
	<path fill="#FFFFFF" d="M335.155,920.316c3.28-1.888,4.657-4.454,5.474-7.445h-5.032l0.019-1.275h6.646l-0.018-3.857h1.274v3.857
		h6.578l0.018,1.275h-4.98c0.629,1.955,1.989,5.49,5.542,7.41l-0.918,1.037c-0.442-0.203-0.748-0.441-1.054-0.681
		c-2.618-1.938-4.063-4.793-4.794-7.768h-0.392l-0.018,9.893h-1.24v-9.893h-0.392c-0.866,3.807-2.583,6.646-5.796,8.431
		L335.155,920.316z M345.354,908.18c1.089,0.492,2.092,1.274,2.839,2.362l-1.003,0.799c-0.696-1.088-1.529-1.751-2.668-2.329
		L345.354,908.18z"/>
	<path fill="#FFFFFF" d="M352.395,921.404c3.009-0.478,5.847-1.685,7.02-4.284h-7.02v-1.241h7.41c0.17-0.492,0.271-1.58,0.271-2.312
		l0.018-2.347l1.274,0.018c0,2.262,0.051,3.195-0.238,4.624h5.678v1.241h-6c-0.544,1.563-1.938,3.213-3.519,4.027
		c-1.311,0.663-2.465,1.122-3.927,1.428L352.395,921.404z M360.145,909.42l6.393,0.034v2.805h-1.292v-1.563h-11.271v1.58h-1.291
		v-2.821h6.815c-0.271-0.459-1.02-1.088-1.58-1.395l0.969-0.611c0.611,0.323,1.429,1.021,1.803,1.751L360.145,909.42z
		 M356.729,915.777c-0.578-0.937-1.41-1.751-2.414-2.381l0.832-0.765c0.971,0.544,1.904,1.395,2.518,2.38L356.729,915.777z
		 M358.428,914.146c-0.562-1.021-1.343-1.784-2.346-2.466l0.867-0.73c1.003,0.578,1.902,1.496,2.498,2.5L358.428,914.146z
		 M366.061,922.628c-1.614-1.802-3.314-2.754-5.439-3.706l0.663-0.951c1.7,0.629,4.216,2.142,5.66,3.654L366.061,922.628z"/>
	<path fill="#FFFFFF" d="M370.804,920.895c1.648,0.459,1.632,0.237,1.835-0.747c0.256-1.241,0.357-2.976,0.442-4.624h-1.445
		c0,2.465-0.544,5.048-1.954,7.292l-1.07-0.885c1.325-1.972,1.717-4.267,1.717-6.646v-3.436h-1.225l-0.017-1.24h5.507v1.24h-2.991
		v2.432h2.787c-0.066,2.396-0.221,4.742-0.696,6.885c-0.137,0.629-0.459,0.918-0.832,1.088c-0.578,0.271-1.259,0.033-1.904-0.034
		L370.804,920.895z M371.993,910.525c-0.374-0.986-1.156-1.685-2.091-2.313l1.003-0.68c0.935,0.561,1.7,1.258,2.142,2.276
		L371.993,910.525z M377.604,907.873c-0.068,0.596-0.238,1.104-0.341,1.395h6.153v1.24l-6.596,0.019
		c-0.51,1.188-1.206,2.531-2.432,3.434l-0.984-0.815c1.309-0.867,2.516-3.025,3.042-5.679L377.604,907.873z M383.756,919.262
		c-0.136,0.816-0.306,1.547-0.714,2.159c-0.289,0.442-0.782,0.663-1.292,0.663l-4.623-0.018c-0.73,0-1.428-0.459-1.428-1.41v-4.675
		l-0.986,0.255l-0.289-1.207l1.258-0.271v-1.803h1.292v1.479l1.462-0.307v-2.958l1.274-0.017v2.686l3.213-0.715
		c-0.102,1.819-0.306,3.469-0.68,5.049c-0.085,0.357-0.425,0.816-0.799,0.918c-0.478,0.119-0.97,0-1.462-0.051l-0.204-1.326
		c0.544,0.068,0.85,0.272,1.122,0.104c0.221-0.153,0.152-0.477,0.271-0.748c0.17-0.815,0.272-1.684,0.374-2.362l-1.836,0.373v4.709
		h-1.291v-4.386l-1.445,0.323v4.571c0,0.308,0.153,0.544,0.493,0.544h4.147c0.322,0,0.526-0.204,0.611-0.492
		c0.17-0.426,0.237-0.885,0.322-1.563L383.756,919.262z"/>
	<path fill="#FFFFFF" d="M399.923,916.814v1.239h-5.523c0.781,1.259,2.702,2.618,6.12,3.4l-0.937,1.139
		c-3.757-1.037-6-2.94-6.544-4.571h-0.17c-1.564,3.926-5.508,4.282-7.225,4.571l-0.834-1.122c2.278-0.425,5.627-1.036,6.578-3.417
		h-6.051v-1.239h6.748l0.357-1.156l1.273,0.152l-0.271,1.004H399.923z M390.591,916.236h-1.325v-2.976
		c-0.951,0.781-2.244,1.699-3.28,2.295l-0.866-1.258c1.173-0.545,2.89-1.717,4.13-2.565v-4.25h1.31L390.591,916.236z
		 M386.12,908.281c0.885,0.629,1.836,1.666,2.432,2.735l-1.021,1.005c-0.408-1.021-1.344-2.16-2.295-2.959L386.12,908.281z
		 M393.991,911.018c0.492,0.357,1.121,0.886,1.495,1.411c0.596-0.493,1.41-1.258,2.176-2.413h-3.62
		c-0.51,0.747-1.581,1.988-2.329,2.431l-1.003-0.97c1.31-0.814,2.431-2.006,3.213-4.146l1.14,0.476
		c-0.067,0.308-0.238,0.716-0.408,1.005h4.437l0.019,1.224c-1.463,2.805-3.688,4.708-7.515,5.575l-0.85-1.173
		c1.326-0.237,2.754-0.596,3.808-1.344c-0.492-0.526-0.951-0.969-1.513-1.274L393.991,911.018z"/>
</g>
</svg>
