<?xml version="1.0" encoding="utf-8"?>
<!-- Generator: Adobe Illustrator 16.0.0, SVG Export Plug-In . SVG Version: 6.00 Build 0)  -->
<!DOCTYPE svg PUBLIC "-//W3C//DTD SVG 1.1//EN" "http://www.w3.org/Graphics/SVG/1.1/DTD/svg11.dtd">
<svg version="1.1" id="Layer_1" xmlns="http://www.w3.org/2000/svg" xmlns:xlink="http://www.w3.org/1999/xlink" x="0px" y="0px"
	 width="768px" height="1024px" viewBox="0 0 768 1024" enable-background="new 0 0 768 1024" xml:space="preserve">
<g>
	<line fill="none" stroke="#2A79BE" stroke-miterlimit="10" x1="100.974" y1="18.996" x2="60.621" y2="78.871"/>
	<g>
		<g>
			<path fill="#58B5E1" d="M105.532,51.248c2.657,3.303,6.115,6.296,10.527,7.586l-1.574,1.6c-1.78-0.594-3.328-1.497-4.489-2.271
				l0.025,1.058l-4.696-0.026l0.026,2.993h6.992l0.026,1.858l-7.045,0.025l0.026,6.193l9.237-0.026v1.884H94.153l-0.026-1.884
				l9.264,0.026v-6.218l-7.122,0.025l-0.025-1.883h7.147v-2.993l-4.696,0.026v-1.109c-1.265,0.826-2.89,1.754-4.696,2.58
				l-1.315-1.625c3.845-1.729,8.721-4.619,11.611-9.573l1.6,1.083L105.532,51.248z M100.062,69.851
				c-0.696-1.703-1.496-3.122-2.967-4.489l1.755-0.826c1.083,0.852,2.605,3.173,3.096,4.515L100.062,69.851z M108.809,57.337
				c-1.419-1.187-3.303-2.89-4.438-4.49c-1.109,1.394-2.941,3.354-4.567,4.438L108.809,57.337z M106.229,68.922
				c1.703-1.213,2.891-2.838,3.741-4.619l1.574,1.135c-0.825,1.78-1.935,3.432-3.561,4.696L106.229,68.922z"/>
			<path fill="#58B5E1" d="M132.525,51.067v1.858h-14.14v-1.858H132.525z M129.532,61.93h-7.998v11.147h-1.858V59.995h11.715v10.657
				c-0.078,0.851-0.646,1.6-1.368,1.883c-0.825,0.335-1.393,0.284-2.399,0.284l-0.671-1.832c1.084-0.052,1.574,0.258,2.219-0.052
				c0.542-0.258,0.361-1.032,0.361-2.09V61.93z M120.837,58.988v-5.005h9.341v5.005H120.837z M128.913,65.594v1.858h-2.528v4.154
				h-1.807v-4.128h-2.373v-1.935h1.754c-0.413-0.903-1.264-1.91-2.142-2.297l1.342-0.877c0.877,0.516,1.936,1.548,2.322,2.477
				l-1.084,0.722l1.42,0.026c1.006-1.109,1.367-2.296,1.754-3.303l1.678,0.671c-0.465,0.8-0.98,2.039-1.574,2.658L128.913,65.594z
				 M128.269,55.789h-5.548v1.445h5.548V55.789z M134.203,71.787c-0.619,0.181-0.8,0.232-1.522,0.49l-0.903-1.884
				c1.548-0.335,2.297-0.464,3.38-0.748v-4.722h-2.915V55.35h2.915v-5.16h1.832v5.16h2.968v9.573h-2.968l0.026,4.232l1.496-0.361
				c-0.181-0.361-0.594-1.058-1.187-1.78l1.625-0.594c1.032,1.187,1.729,2.555,2.168,3.896l0.567,1.703l-1.936,0.671
				c-0.181-0.903-0.387-1.806-0.593-2.348L134.203,71.787z M135.157,57.208h-1.109v5.832h1.109V57.208z M136.989,63.04h1.265v-5.832
				h-1.265V63.04z"/>
			<path fill="#58B5E1" d="M149.094,63.168c-0.567,1.161-1.754,2.993-3.432,4.67l-1.703-1.187c2.632-2.374,4.181-5.238,5.109-7.999
				h-3.845l0.025-1.857h3.845v-2.916c-0.903,0.155-2.038,0.413-3.38,0.464l-1.006-1.935c3.534,0,6.115-0.929,8.669-2.219
				l1.136,1.496c-1.238,0.697-2.399,1.239-3.432,1.6l-0.026,3.483l3.871,0.026v1.857l-3.871,0.026v1.78l0.671-0.438
				c1.6,0.929,2.993,2.425,3.819,4.051l-1.574,1.187c-0.8-1.574-1.884-2.813-2.89-3.483V73.36l-1.987-0.026V63.168z M162.15,73.257
				l-0.026-7.096l-7.973,1.883l-0.516-1.883l8.515-2.064l-0.026-13.649l1.961,0.026l0.026,13.159l3.019-0.697l0.413,1.884
				l-3.432,0.826l-0.026,7.612H162.15z M159.028,63.839c-1.136-1.91-2.761-3.38-4.773-4.361l1.393-1.367
				c1.91,1.032,3.562,2.374,4.8,4.206L159.028,63.839z M159.647,57.595c-1.342-1.91-3.045-3.045-5.031-4.077l1.212-1.367
				c1.987,0.903,3.819,2.167,5.187,4.051L159.647,57.595z"/>
			<path fill="#58B5E1" d="M170.901,71.348c0.954,0.232,1.806,0.258,2.477,0.207c0.439-0.026,0.671-0.335,0.671-0.671l0.026-5.909
				l-3.097,1.135l-1.315-1.651l4.386-1.522l0.026-5.65h-3.483l-0.026-1.858h3.51v-5.006h1.909l0.025,4.98h2.658v1.884l-2.658,0.025
				l-0.025,4.877l2.864-1.006v1.961l-2.839,1.058l-0.025,7.25c0,0.98-0.516,2.038-1.987,2.038h-2.142L170.901,71.348z
				 M177.171,71.658c2.684-0.749,4.903-1.858,6.684-3.354c-1.522-1.625-2.581-3.871-3.329-5.96l-1.264-0.026l-0.026-1.858
				l4.929,0.026v-4.283h-5.393v-1.883h5.393v-4h1.935l0.026,4.025l5.96-0.025v1.883h-5.96l-0.026,4.257h4.542
				c-0.361,3.277-2.064,5.832-3.974,7.87c1.729,1.497,3.999,2.399,6.605,3.199l-1.239,1.729c-2.58-0.749-4.825-1.987-6.76-3.586
				c-1.626,1.238-3.329,2.632-6.632,3.689L177.171,71.658z M182.615,62.317c0.8,1.935,1.471,3.458,2.71,4.696
				c1.135-1.11,2.451-3.045,2.941-4.67L182.615,62.317z"/>
			<path fill="#58B5E1" d="M225.893,50.757l-0.206,0.568c2.09,3.638,4.051,6.373,6.76,8.386l-1.419,1.625
				c-0.903-0.774-1.496-1.419-1.857-1.832c-0.232,2.709-0.697,6.089-1.368,7.792c-0.335,0.852-1.212,1.032-1.935,1.032
				c-0.8-0.104-1.549-0.31-2.374-0.568c-0.155-0.671-0.232-1.213-0.387-2.116c1.031,0.438,1.729,0.723,2.503,0.8
				c0.593-0.103,0.567-0.8,0.8-1.368c0.438-1.574,0.671-3.148,0.722-4.619h-5.366v9.263c0,0.439,0.258,0.671,0.516,0.671h6.992
				c0.388-0.103,0.542-0.516,0.594-0.955l0.413-1.729l1.729,0.852c-0.387,1.394-0.567,3.432-2.528,3.612h-7.354
				c-1.471,0-2.297-1.006-2.297-2.064v-9.805c-0.206,0.155-0.98,0.671-1.961,1.265l-1.238-1.729c2.374-1.083,3.87-2.658,5.108-4.516
				c1.007-1.522,1.909-3.483,2.478-5.341L225.893,50.757z M228.344,58.627c-0.877-1.135-2.528-3.328-3.509-5.16
				c-0.671,1.677-1.961,3.767-3.277,5.135L228.344,58.627z M232.756,67.529V54.138h1.91v13.392H232.756z M236.627,50.19h1.909
				v21.184c0,0.852-0.49,1.677-1.6,1.78l-2.787-0.025l-0.594-1.91l2.632,0.129c0.232,0,0.439-0.258,0.439-0.851V50.19z"/>
			<path fill="#58B5E1" d="M248.241,65.671c-1.084,2.219-2.297,3.819-4.361,5.005l-1.161-1.522c2.039-1.135,3.277-2.632,4.129-4.542
				L248.241,65.671z M250.744,71.425c0,1.006-0.774,2.116-1.962,2.116h-2.09l-0.671-2.064l2.064,0.155
				c0.258,0.026,0.646-0.284,0.646-0.62v-7.018h-4.154V62.11h4.154v-1.832h-5.058v-1.909h3.716c-0.181-0.748-0.8-1.703-1.987-2.606
				l1.703-0.697c1.084,0.852,1.857,2.013,2.219,3.303h1.084c0.852-0.852,1.497-2.142,1.807-3.251l1.729,0.696
				c-0.284,0.903-0.877,1.961-1.445,2.555h3.07v1.909h-4.824v1.832h4.103v1.884h-4.103v1.832l0.748-0.955
				c1.213,0.748,2.374,1.961,3.226,3.406l-1.316,1.497c-0.646-1.548-1.807-2.658-2.657-3.303V71.425z M248.551,52.77
				c-0.232-0.413-0.774-1.135-1.626-1.987l1.884-0.877c0.825,0.98,1.522,1.961,1.832,2.864h4.36v1.883h-10.682V52.77H248.551z
				 M265.322,51.815c-2.322,1.342-4.696,1.987-6.992,2.399v3.69h7.405v1.883h-2.891v13.443h-1.986V59.788h-2.528v3.329
				c0,3.432-1.136,6.967-3.122,10.037l-1.755-1.238c2.374-3.251,2.89-6.76,2.89-10.76l-0.025-8.515
				c2.863-0.335,5.341-1.11,7.767-2.426L265.322,51.815z"/>
			<path fill="#58B5E1" d="M275.492,66.523c-1.677,0.645-4.103,1.6-5.728,2.116l-1.084-1.858c1.884-0.335,3.689-0.955,6.838-2.167
				L275.492,66.523z M278.743,60.64c-0.129,2.245-0.335,5.083-0.516,6.709c-0.258,1.883-0.542,4.979-1.961,5.444
				c-1.136,0.361-2.038,0.181-3.174,0.129l-0.619-1.935c1.238,0.077,1.857,0.49,2.709,0.258c0.542-0.155,0.723-1.109,0.955-2.813
				c0.258-2.064,0.464-4.025,0.567-5.935l-6.838-0.052v-1.677l0.929-6.554l1.807,0.645l-0.852,5.677l3.07,0.026l1.007-7.405h-6.425
				v-1.858h8.488l-1.109,9.289L278.743,60.64z M281.298,71.632v1.522h-1.935V51.48h11.43v1.935h-9.495v16.333h10.244v1.884H281.298z
				 M288.91,69.077c-0.723-2.374-1.29-3.845-2.245-5.521c-1.109,2.271-1.497,3.277-3.406,5.702l-1.574-1.29
				c1.807-2.013,2.735-4,3.845-6.322c-0.954-1.677-2.373-4.051-3.999-6.167l1.574-0.981c1.342,1.574,2.58,3.845,3.354,5.083
				c0.619-1.316,1.341-3.38,2.063-5.341l1.703,0.748c-0.671,1.987-1.755,4.645-2.657,6.477c1.213,2.064,2.167,3.871,3.147,6.709
				L288.91,69.077z"/>
			<path fill="#58B5E1" d="M315.231,68.871c-0.206,1.548-0.387,3.019-2.09,3.716c-0.955,0.413-2.09,0.129-3.174,0.026
				c-0.206-0.645-0.335-1.161-0.619-1.987c1.213,0.129,2.064,0.413,2.89,0.258c0.671-0.232,0.594-1.083,0.852-1.78
				c0.619-3.586,1.007-8.154,1.161-11.198h-3.226c0.026,6.038-0.902,11.972-7.379,15.224l-1.497-1.651
				c1.651-0.8,2.89-1.806,3.432-2.452c-0.335-0.748-0.748-1.29-1.161-1.78c-2.142,0.594-5.315,1.497-7.896,2.426l-1.342-1.961
				c1.394-1.135,3.639-5.444,4.335-7.844h-4.645v-1.884h11.25v1.884h-4.438c-1.291,3.122-2.581,5.78-3.69,7.173l5.315-1.445
				c-0.154-0.232-0.619-0.671-1.29-1.264l1.419-1.006c1.188,1.006,2.941,2.864,3.561,4.231c0.542-0.464,2.039-3.767,2.039-7.612
				v-2.038h-2.709v-1.78h2.709v-5.986c0.696,0.026,1.213-0.052,1.961-0.026v6.012h5.341
				C316.108,60.563,315.67,65.671,315.231,68.871z M295.88,54.576v-1.78h9.186v1.78H295.88z"/>
		</g>
	</g>
	<g>
		<g>
			<path fill="#58B5E1" d="M55.908,32.482h12.359v2.452c-3.768,4.257-6.271,9.083-6.734,15.61h-3.226
				c0.387-5.702,3.251-11.25,6.967-15.43h-9.366V32.482z"/>
		</g>
	</g>
</g>
<line fill="none" stroke="#58B5E1" stroke-width="1.5" stroke-miterlimit="10" stroke-dasharray="1.5,1.5" x1="0" y1="932.521" x2="768" y2="932.521"/>
<line fill="none" stroke="#58B5E1" stroke-width="1.5" stroke-miterlimit="10" stroke-dasharray="1.5,1.5" x1="0" y1="89.479" x2="768" y2="89.479"/>
<line fill="none" stroke="#58B5E1" stroke-width="1.5" stroke-miterlimit="10" stroke-dasharray="1.5,1.5" x1="0" y1="669.95" x2="768" y2="669.95"/>
</svg>
