<?xml version="1.0" encoding="utf-8"?>
<!-- Generator: Adobe Illustrator 16.0.0, SVG Export Plug-In . SVG Version: 6.00 Build 0)  -->
<!DOCTYPE svg PUBLIC "-//W3C//DTD SVG 1.1//EN" "http://www.w3.org/Graphics/SVG/1.1/DTD/svg11.dtd">
<svg version="1.1" id="Layer_1" xmlns="http://www.w3.org/2000/svg" xmlns:xlink="http://www.w3.org/1999/xlink" x="0px" y="0px"
	 width="768px" height="1024px" viewBox="0 0 768 1024" enable-background="new 0 0 768 1024" xml:space="preserve">
<rect x="98.188" y="121.382" opacity="0.302" fill-rule="evenodd" clip-rule="evenodd" fill="#D9D9D9" width="571.623" height="89.764"/>
<rect x="104.738" y="128.83" fill="none" stroke="#C1DBF2" stroke-miterlimit="10" width="558.523" height="74.869"/>
<g>
	<path fill="#C0DAF2" d="M131.052,150.321h-2.944v-1.406h2.944v-3.496h1.521v3.496h2.583v1.406h-2.583v3.477l2.45-0.855v1.444
		l-2.45,0.874v5.091c0,0.703-0.058,1.159-0.685,1.539c-0.684,0.418-1.938,0.114-2.83-0.038l-0.476-1.482
		c0.97,0.171,1.463,0.266,2.109,0.304c0.285,0.038,0.36-0.209,0.36-0.532v-4.35l-2.659,0.969l-0.703-1.463l3.362-1.083V150.321z
		 M143.724,162.194c-1.235-0.684-2.394-1.729-2.964-2.432c-0.551,0.912-1.443,1.653-2.508,2.489l-0.76-0.779l-0.019,0.836h-1.521
		v-16.205h7.105c-0.058,1.52-0.247,3.154-0.665,4.047c-0.209,0.456-0.703,0.874-1.216,0.95c-0.741,0.095-1.444,0.057-2.317-0.171
		l-0.361-1.463c0.931,0.228,1.406,0.285,2.033,0.285c0.417,0,0.551-0.171,0.702-0.646c0.171-0.57,0.247-1.121,0.267-1.615h-4.027
		v4.483h5.736c-0.057,2.488-0.684,4.559-1.671,6.459c0.74,1.063,2.127,1.995,3.191,2.66L143.724,162.194z M137.474,160.902
		c0.873-0.551,1.785-1.349,2.412-2.45c-0.816-1.539-1.349-3.268-1.614-5.072h-0.798V160.902z M139.677,153.36
		c0.152,1.235,0.608,2.754,1.063,3.723c0.456-0.893,0.932-2.622,0.97-3.704L139.677,153.36z"/>
	<path fill="#C0DAF2" d="M154.611,152.334v-2.888h-3.856c-0.456,0.817-1.026,1.691-1.995,2.432l-1.196-0.969
		c1.709-1.311,2.45-3.001,2.925-4.939l1.406,0.342c-0.171,0.741-0.437,1.406-0.551,1.767h3.268v-2.888h1.425v2.888h5.395v1.368
		h-5.395v2.888h7.2v1.368h-16.148v-1.368H154.611z M151.059,162.27h-1.425v-7.504h11.133v7.504h-1.444v-1.349h-8.264V162.27z
		 M151.059,159.553h8.264v-3.419h-8.264V159.553z"/>
	<path fill="#C0DAF2" d="M170.61,158.224c-0.836,1.596-2.071,2.887-3.515,4.027c-0.398-0.323-0.703-0.627-1.083-1.007
		c1.444-1.064,2.508-1.938,3.571-3.952L170.61,158.224z M168.103,147.357l-0.019-2.033h1.405l0.02,2.033h3.495l0.019-2.108h1.425
		v2.089h1.501v1.368h-1.52l0.019,7.124h1.539v1.349h-9.632l0.02-1.349h1.71v-7.143l-1.634,0.019v-1.349H168.103z M173.022,150.055
		v-1.349l-3.533-0.019v1.368H173.022z M173.022,151.403h-3.514l-0.02,1.425l3.515-0.019L173.022,151.403z M169.509,154.158v1.671
		h3.514v-1.671H169.509z M174.22,160.997c-0.589-0.912-1.596-1.938-2.755-2.527l0.969-0.969c1.045,0.418,2.242,1.577,2.812,2.413
		L174.22,160.997z M174.618,161.453c0.855-1.425,1.691-2.755,1.691-6.345v-8.929h5.642l-0.019,13.735
		c0.057,0.608-0.02,1.045-0.494,1.577c-0.703,0.608-1.767,0.399-2.621,0.437l-0.476-1.462c0.722,0.019,1.254,0.095,1.786,0.057
		c0.189,0.019,0.38-0.19,0.38-0.418v-4.331h-2.773c-0.096,2.223-0.685,4.654-1.824,6.554L174.618,161.453z M177.753,147.528v2.546
		h2.735v-2.546H177.753z M177.753,151.441v2.982h2.755v-3.001L177.753,151.441z"/>
	<path fill="#C0DAF2" d="M192.858,148.573v-3.229h1.368v3.229h6.136v12.177c0,0.722-0.456,0.988-0.988,1.159
		c-0.493,0.152-1.254,0.095-2.146,0.076l-0.551-1.406c0.817,0.057,1.254,0.114,1.824,0.076c0.342-0.076,0.475-0.171,0.475-0.494
		v-10.22h-4.807c0,0.741-0.038,1.577-0.113,2.336c1.747,1.349,2.906,2.736,4.179,4.863l-1.158,0.874
		c-0.912-1.596-2.261-3.116-3.458-4.18c-0.646,1.501-2.052,3.306-4.426,4.579l-0.874-1.216c3.647-2.014,4.445-3.99,4.445-7.257
		h-4.921v12.272h-1.405v-13.64H192.858z"/>
	<path fill="#C0DAF2" d="M211.763,156.799l-0.551-0.703c0.894-0.399,1.14-1.121,1.14-1.881h-1.025v-2.089h2.09v1.995
		C213.416,154.766,213.188,156.134,211.763,156.799z"/>
	<path fill="#C0DAF2" d="M222.823,157.654c3.153-2.014,5.414-4.882,6.401-7.979h-5.281v-1.444l6.858,0.019v-2.963h1.481
		l-0.019,2.963l6.782-0.019v1.444h-5.072c0.836,3.343,3.495,6.212,6.212,7.808l-1.026,1.216c-4.901-3.704-5.566-5.737-6.857-9.251
		l-0.038,6.744h3.666v1.425l-3.647-0.019l-0.019,4.673h-1.444l-0.019-4.673l-3.762,0.019v-1.425l3.762,0.019v-6.763
		c-1.311,4.142-3.533,6.991-6.801,9.347L222.823,157.654z"/>
	<path fill="#C0DAF2" d="M242.069,155.26c2.394-1.368,4.294-3.495,5.852-5.718l1.158,0.779c-0.531,0.969-1.614,2.242-2.317,3.096
		v8.758h-1.463v-7.257c-0.323,0.304-1.387,1.007-2.108,1.52L242.069,155.26z M242.316,150.036c1.995-1.387,3.533-3.097,4.807-5.091
		l1.12,0.874c-1.272,1.918-2.85,3.932-4.654,5.205L242.316,150.036z M251.018,160.617c0.969,0.076,1.805,0.076,2.621,0.057
		c0.209-0.057,0.418-0.19,0.418-0.456v-7.789h-4.863v-1.406l9.783,0.019v1.387l-3.381,0.019l-0.02,7.941
		c0,0.665-0.342,1.159-0.816,1.444c-0.513,0.285-2.317,0.266-3.287,0.228L251.018,160.617z M257.818,147.832h-8.169l-0.02-1.406
		l8.188-0.019V147.832z"/>
	<path fill="#C0DAF2" d="M261.925,158.28c0.779-0.437,1.387-0.703,1.862-1.007v-10.885l1.538,0.019v10.012
		c1.33-0.684,2.831-1.615,4.578-2.622v1.671c-1.596,0.912-3.134,1.786-4.635,2.698c-0.608,0.361-1.235,0.779-1.957,1.197
		L261.925,158.28z M266.294,160.636c2.394-1.216,4.521-3.097,5.813-5.319c0.703-1.52,1.216-3.021,1.33-4.768
		c0.095-1.33,0.133-2.907,0.171-4.788h1.558c-0.152,3.705,0.076,6.896-1.539,10.031c1.121,0.665,3.571,2.944,4.483,4.692
		l-1.234,1.025c-1.197-2.07-2.641-3.438-4.009-4.426c-1.254,1.71-3.173,3.458-5.661,4.901L266.294,160.636z M270.397,151.992
		c-1.102-1.425-2.412-2.317-4.008-3.001l1.007-1.045c0.816,0.266,1.5,0.741,2.127,1.121c0.608,0.38,1.312,1.121,1.9,1.672
		L270.397,151.992z"/>
	<path fill="#C0DAF2" d="M286.472,145.667l-0.152,0.418c1.539,2.678,2.983,4.692,4.978,6.174l-1.045,1.197
		c-0.665-0.57-1.102-1.045-1.367-1.349c-0.171,1.995-0.514,4.483-1.007,5.737c-0.247,0.626-0.894,0.76-1.425,0.76
		c-0.589-0.076-1.141-0.228-1.748-0.418c-0.114-0.494-0.171-0.893-0.285-1.558c0.76,0.323,1.273,0.532,1.843,0.589
		c0.438-0.076,0.418-0.589,0.589-1.007c0.323-1.159,0.494-2.318,0.532-3.401h-3.951v6.82c0,0.323,0.189,0.494,0.38,0.494h5.147
		c0.285-0.076,0.399-0.38,0.438-0.703l0.304-1.273l1.272,0.627c-0.284,1.026-0.417,2.527-1.861,2.66h-5.414
		c-1.083,0-1.69-0.741-1.69-1.52v-7.219c-0.152,0.114-0.723,0.494-1.444,0.931l-0.912-1.272c1.748-0.798,2.85-1.957,3.762-3.325
		c0.741-1.121,1.406-2.564,1.824-3.933L286.472,145.667z M288.276,151.46c-0.646-0.836-1.861-2.451-2.583-3.799
		c-0.494,1.235-1.444,2.773-2.413,3.78L288.276,151.46z M291.525,158.015v-9.86h1.405v9.86H291.525z M294.375,145.249h1.405v15.597
		c0,0.627-0.36,1.235-1.178,1.311l-2.052-0.019l-0.437-1.406l1.938,0.095c0.171,0,0.323-0.19,0.323-0.627V145.249z"/>
	<path fill="#C0DAF2" d="M302.982,156.646c-0.798,1.634-1.69,2.812-3.21,3.686l-0.855-1.121c1.501-0.836,2.413-1.938,3.04-3.344
		L302.982,156.646z M304.825,160.883c0,0.741-0.569,1.558-1.443,1.558h-1.539l-0.494-1.52l1.521,0.114
		c0.189,0.019,0.475-0.209,0.475-0.456v-5.167h-3.059v-1.387h3.059v-1.349h-3.724v-1.406h2.735
		c-0.133-0.551-0.589-1.254-1.462-1.919l1.253-0.513c0.798,0.627,1.368,1.482,1.634,2.432h0.798c0.627-0.627,1.103-1.577,1.33-2.394
		l1.273,0.513c-0.209,0.665-0.646,1.444-1.064,1.881h2.261v1.406h-3.553v1.349h3.021v1.387h-3.021v1.349l0.551-0.703
		c0.894,0.551,1.748,1.444,2.375,2.508l-0.969,1.102c-0.475-1.14-1.33-1.957-1.957-2.432V160.883z M303.211,147.148
		c-0.171-0.304-0.57-0.836-1.197-1.462l1.387-0.646c0.608,0.722,1.121,1.444,1.35,2.108h3.21v1.387h-7.864v-1.387H303.211z
		 M315.559,146.445c-1.709,0.988-3.457,1.463-5.147,1.767v2.717h5.452v1.387h-2.128v9.897h-1.463v-9.897h-1.861v2.451
		c0,2.526-0.836,5.129-2.299,7.39l-1.292-0.912c1.748-2.394,2.128-4.978,2.128-7.922l-0.02-6.269
		c2.108-0.247,3.933-0.817,5.719-1.786L315.559,146.445z"/>
	<path fill="#C0DAF2" d="M319.077,155.849h12.937v1.539l-12.937-0.019V155.849z M328.651,161.643
		c-0.076-0.57-0.152-1.045-0.247-1.691c1.007,0.285,1.881,0.627,2.773,0.741c0.247,0,0.703-0.171,0.894-0.532
		c0.38-1.121,0.456-3.153,0.607-4.901c0.038-0.57,0.02-1.253,0.038-1.709l-12.272,0.019l1.501-8.245l1.52,0.456l-0.398,2.128
		l11.93-0.019v1.558h-12.195l-0.476,2.527h12.007l-0.076,3.058c-0.038,1.273-0.133,2.679-0.342,4.009
		c-0.19,1.235-0.323,2.622-1.824,3.077c-0.912,0.266-1.786-0.095-2.564-0.228L328.651,161.643z"/>
	<path fill="#C0DAF2" d="M344.479,146.103v14.495c0,0.532-0.76,1.254-1.614,1.254h-1.691c-0.151-0.494-0.323-0.874-0.551-1.463
		c0.854,0,1.463,0.076,2.07-0.019c0.152-0.038,0.323-0.171,0.361-0.551v-3.59l-2.584,0.019c-0.113,1.615-0.209,3.971-1.899,6.098
		l-1.178-0.893c1.463-1.976,1.634-4.065,1.634-6.573v-8.758L344.479,146.103z M340.489,147.528v2.907h2.526v-2.925L340.489,147.528z
		 M343.054,151.802l-2.564,0.019v3.021h2.526L343.054,151.802z M347.157,153.835v8.454l-1.463,0.038v-16.205h7.618
		c-0.114,1.482-0.209,2.793-0.57,4.123c-0.171,0.665-0.874,1.14-1.501,1.178c-0.665,0.057-1.405-0.019-2.146-0.133l-0.418-1.52
		c0.893,0.133,1.596,0.304,2.317,0.323c0.152,0.019,0.229-0.076,0.305-0.285c0.151-0.475,0.342-1.729,0.38-2.28h-4.521l-0.02,4.901
		h6.193c-0.114,1.273-0.323,2.356-0.665,3.382s-0.702,2.033-1.196,2.906c0.74,0.912,1.785,1.596,2.963,2.375l-0.854,1.083
		c-1.254-0.741-1.994-1.311-2.85-2.185c-0.437,0.57-1.52,1.615-2.508,2.432c-0.36-0.342-0.607-0.646-0.987-1.045
		c1.14-0.893,1.861-1.577,2.526-2.507c-0.931-1.349-1.596-3.04-1.919-5.035H347.157z M349.266,153.816
		c0.133,1.14,0.741,2.736,1.254,3.629c0.608-1.216,1.007-2.565,1.272-3.629H349.266z"/>
	<path fill="#C0DAF2" d="M372.711,154.804c-2.735-0.589-5.319-1.33-7.561-2.66c-2.166,1.444-5.528,2.413-8.454,2.869l-0.589-1.368
		c2.279-0.38,4.274-0.893,6.23-1.615c0.514-0.247,1.121-0.551,1.501-0.76c-0.816-0.627-1.899-1.273-2.564-2.185
		c-0.836,0.988-2.052,2.014-3.477,2.583l-1.083-1.311c2.926-1.083,4.332-2.774,5.225-5.11l1.254,0.703
		c-0.209,0.475-0.399,0.817-0.456,0.931h7.124v1.272c-1.121,1.387-2.261,2.28-3.438,3.135c0.247,0.19,0.836,0.38,1.368,0.646
		c1.785,0.665,3.666,1.178,5.851,1.596L372.711,154.804z M369.729,160.921c-0.19,0.589-0.685,1.102-1.235,1.254
		c-0.836,0.247-1.69-0.019-2.564-0.152l-0.36-1.653c1.007,0.285,1.729,0.57,2.507,0.456c0.438-0.285,0.476-0.817,0.57-1.368
		c0.171-1.026,0.38-2.337,0.418-2.945h-4.104c-0.304,1.634-1.577,3.191-3.115,4.198c-1.14,0.76-3.191,1.368-4.427,1.596
		c-0.266-0.475-0.513-0.855-0.76-1.425c2.413-0.38,4.654-0.95,6.098-2.85c0.399-0.513,0.608-1.083,0.723-1.52h-5.434v-1.387h5.661
		c0.057-0.456,0-0.798,0.057-1.653l1.406,0.19c-0.019,0.722,0.038,1.045-0.019,1.463h5.395
		C370.507,157.236,370.279,159.173,369.729,160.921z M362.263,148.269c0.76,0.912,1.785,1.52,2.85,2.204
		c1.025-0.665,2.052-1.444,2.773-2.204H362.263z"/>
	<path fill="#C0DAF2" d="M385.252,160.332c0.894,0.152,1.577,0.437,2.337,0.418c0.229-0.057,0.456-0.152,0.513-0.361
		c0.494-1.596,0.761-5.471,0.836-9.385h-4.996c-0.038,2.869-0.646,5.718-2.394,8.036c-0.987,1.33-2.888,2.583-4.217,3.191
		l-0.988-1.273c2.508-0.874,4.787-3.04,5.452-5.433c0.418-1.482,0.76-3.04,0.703-4.541h-6.44v-1.33h6.44v-4.369
		c0.531-0.019,0.874-0.038,1.443-0.038v4.388l6.44,0.019c-0.171,3.609-0.114,7.656-0.836,11.019
		c-0.095,0.475-0.456,0.969-0.95,1.234c-0.569,0.38-1.463,0.266-3.115-0.095L385.252,160.332z M380.047,149.409
		c-0.456-1.159-1.311-1.843-2.412-2.603l1.178-0.893c0.987,0.741,1.843,1.482,2.47,2.527L380.047,149.409z M386.563,157.787
		c-0.418-1.558-1.368-2.736-2.508-3.971l1.196-0.703c1.197,1.178,2.014,2.375,2.604,3.875L386.563,157.787z"/>
	<path fill="#C0DAF2" d="M396.9,156.172l4.122-0.817v1.273c-2.014,0.475-4.18,0.912-5.718,1.292l-0.665-1.273
		c1.083-0.988,2.337-2.603,3.362-3.742c-0.57,0.076-1.539,0.266-2.717,0.513l-0.646-1.272c1.121-1.539,2.812-4.483,3.971-6.706
		l1.178,0.817c-1.007,1.824-2.66,4.597-3.325,5.566c0.399-0.019,1.577-0.285,2.679-0.361c0.513-0.703,1.007-1.463,1.615-2.336
		l1.196,0.854C400.016,152.505,398.42,154.728,396.9,156.172z M395.476,161.377l-0.817-1.406c2.66-0.798,4.407-1.52,6.896-2.375
		v1.444C398.933,160.066,397.47,160.579,395.476,161.377z M399.997,161.624v-1.311h4.825v-3.894h-3.4v-1.387h8.226v1.387h-3.382
		v3.894h5.072v1.311H399.997z M410.388,155.089c-1.558-1.311-3.59-2.451-4.673-2.869c-1.596,1.52-3.097,2.09-4.73,2.66l-0.912-1.216
		c4.256-1.425,6.25-4.027,7.314-6.022h-6.383v-1.311h8.244v1.216c-1.025,1.843-1.918,2.888-2.545,3.591
		c1.481,0.741,3.571,1.824,4.673,2.944L410.388,155.089z"/>
	<path fill="#C0DAF2" d="M414.324,161.415l-0.836-1.387c2.166-0.589,4.407-1.368,6.801-2.052v1.444L414.324,161.415z
		 M416.109,155.773l3.477-0.532v1.33c-1.918,0.38-3.419,0.494-5.186,1.14l-0.741-1.368c1.368-1.14,2.412-2.355,3.077-3.477
		c-0.684,0.038-1.576,0.228-2.394,0.399c-0.247-0.513-0.456-0.893-0.703-1.349c1.597-1.938,2.489-4.123,3.135-6.573
		c0.57,0.171,0.931,0.399,1.444,0.551c-0.685,2.146-1.501,4.084-2.622,5.604c0.323-0.019,1.216-0.114,1.957-0.152
		c0.304-0.627,0.607-1.311,0.931-2.223l1.406,0.779C418.959,152.201,417.819,154.177,416.109,155.773z M429.351,159.041
		c-0.151,0.399-0.551,0.817-0.969,0.988c-0.798,0.247-1.387,0.114-2.241-0.019l-0.361-1.672c0.893,0.285,1.33,0.551,2.033,0.361
		c0.208-0.057,0.246-0.57,0.284-0.893c0.114-0.855,0.19-1.672,0.19-2.413h-3.515v6.915h-1.443v-6.915h-3.382v-1.387h3.382v-1.843
		h-3.04v-1.387h3.04v-1.5h-3.382v-1.387h3.382v-2.546h1.443v2.546h4.825v1.387h-4.825v1.5h4.104v1.387h-4.104v1.843h4.996
		C429.712,155.811,429.692,157.463,429.351,159.041z"/>
	<path fill="#C0DAF2" d="M440.447,156.799l-0.551-0.703c0.893-0.399,1.14-1.121,1.14-1.881h-1.025v-2.089h2.09v1.995
		C442.101,154.766,441.872,156.134,440.447,156.799z"/>
	<path fill="#C0DAF2" d="M459.333,151.612c-1.443,1.843-3.875,3.496-6.307,4.844l-0.95-1.234c2.698-1.349,5.13-2.964,6.935-5.509
		c0.493-0.684,0.949-1.349,1.272-1.881h-7.922v-1.444h15.882v1.444h-6.137c-0.342,0.57-0.778,1.235-1.216,1.843v12.557h-1.558
		V151.612z M462.411,150.853c2.261,1.026,4.217,2.698,5.946,4.692l-1.159,0.988c-1.539-1.919-3.724-3.818-5.794-4.673
		L462.411,150.853z"/>
	<path fill="#C0DAF2" d="M471.571,146.711h1.387v9.593c0.76-0.646,1.729-1.938,2.298-3.4l-2.014-0.019v-1.349h2.983l0.019-5.889
		l1.368-0.019v5.908h2.812v1.368h-2.793v6.478h-1.405v-5.718c-0.494,1.938-1.881,3.381-2.774,4.351l-0.493-0.494v2.109h7.161
		c0.59-0.836,0.817-3.059,0.817-4.313l0.019-8.511c1.9-0.152,3.477-0.608,5.13-1.349l0.893,1.121
		c-1.634,0.665-3.153,1.102-4.616,1.311l-0.019,3.096h4.844v1.349h-1.748v9.765l-1.367-0.019v-9.727h-1.729
		c-0.076,3.21,0.531,6.706-1.862,9.783l-1.254-0.798c0.114-0.095,0.19-0.209,0.304-0.361h-7.959V146.711z M474.725,151.081
		c-0.229-0.931-0.855-2.508-1.368-3.135l1.102-0.646c0.494,0.627,1.235,2.108,1.521,3.115L474.725,151.081z M479.359,157.198
		c-0.171-0.893-1.025-2.565-1.5-3.154l0.987-0.608c0.57,0.665,1.387,2.014,1.843,3.135L479.359,157.198z M477.992,150.377
		c0.665-0.741,1.254-2.279,1.405-3.096l1.159,0.513c-0.229,1.14-0.76,2.622-1.425,3.325L477.992,150.377z"/>
	<path fill="#C0DAF2" d="M492.755,154.31c-0.493,1.235-1.12,2.336-2.374,3.647l-1.083-1.026c1.861-2.071,2.679-3.724,3.268-5.642
		l-2.698,0.019v-1.406l2.869-0.019v-2.052c-0.646,0.133-1.159,0.19-2.261,0.323l-0.722-1.425c2.223-0.057,4.084-0.608,6.003-1.5
		l0.76,1.102c-0.76,0.38-1.634,0.817-2.355,1.064v2.508h2.564v1.425l-2.564-0.019v1.102l0.76-0.323
		c0.874,0.855,1.748,2.545,2.166,3.705l-1.273,0.684c-0.38-1.14-1.045-2.469-1.652-3.153v8.853h-1.406V154.31z M495.529,161.016
		c1.671-1.482,2.545-3.001,3.457-5.072l1.178,0.627c-0.228,0.741-0.532,1.33-0.76,1.786c-0.703,1.368-1.406,2.508-2.755,3.647
		L495.529,161.016z M497.2,155.26v-8.929h8.207v8.929H497.2z M504.002,147.737h-5.377v6.136h5.377V147.737z M505.445,161.947
		c-0.722-1.938-2.108-3.799-3.382-5.148l1.103-0.779c1.558,1.52,2.697,3.172,3.514,5.072L505.445,161.947z"/>
	<path fill="#C0DAF2" d="M516.029,158.964c-1.805,1.254-3.724,1.919-5.852,2.204c-0.322-0.399-0.569-0.741-1.045-1.273
		c2.299-0.247,4.218-0.722,5.928-1.899L516.029,158.964z M516.96,157.806c-1.861,0.076-4.142,0.342-6.193,0.589l-1.102-1.463
		c2.66-0.532,5.016-1.254,6.383-1.748c-0.931,0.019-2.83,0.152-4.768,0.399c-0.229-0.437-0.514-0.798-0.836-1.33
		c2.317-0.475,4.255-1.425,5.642-2.317l-5.053-0.038l-0.02-6.25h12.918v6.212h-6.154l0.322,0.304
		c-1.216,0.95-2.432,1.52-2.888,1.671c0.988,0,2.793-0.152,4.598-0.228c0.817-0.437,1.653-0.912,2.546-1.577l1.121,0.912
		c-2.813,2.033-4.959,2.716-7.903,3.571c1.995-0.095,3.818-0.209,5.946-0.285c-0.076-0.076-0.532-0.266-1.159-0.551
		c0.399-0.437,0.779-0.684,1.14-0.988c1.577,0.798,2.831,1.539,4.199,3.229l-1.197,0.893c-0.532-0.57-0.912-1.064-1.33-1.387
		l-4.73,0.285v2.964c-0.057,0.57-0.455,1.026-1.007,1.216c-0.702,0.228-1.558,0.057-2.374,0.133l-0.494-1.444l2.033,0.057
		c0.151-0.019,0.342-0.095,0.342-0.361L516.96,157.806z M512.515,148.079l4.256-0.019l0.019-1.045l-4.274,0.019V148.079z
		 M512.515,149.39v1.102h4.256v-1.102H512.515z M518.232,147.034l0.02,1.026h4.218l-0.02-1.045L518.232,147.034z M518.232,149.39
		v1.121h4.237v-1.121H518.232z M524.901,161.32c-1.748-1.197-3.553-1.861-5.757-2.089c0.267-0.551,0.532-0.855,0.779-1.273
		c2.128,0.304,4.008,0.988,5.813,2.204L524.901,161.32z"/>
	<path fill="#C0DAF2" d="M537.082,155.659c-0.438-0.722-1.463-1.938-2.318-2.678l1.064-1.064c0.987,0.741,1.976,1.672,2.603,2.432
		L537.082,155.659z"/>
	<path fill="#C0DAF2" d="M547.323,148.934h2.432l-0.019-3.629h1.481v3.629h2.014l0.02,1.368h-2.052v3.4l1.785-0.798l-0.038,1.539
		c-0.684,0.304-1.234,0.532-1.729,0.779l-0.019,5.509c0,0.532-0.418,1.159-1.083,1.349s-1.368,0.152-2.166,0.114
		c-0.133-0.475-0.266-0.817-0.456-1.387c0.817-0.019,1.387,0.152,1.9,0.019c0.266-0.019,0.418-0.399,0.36-0.76v-4.351
		c-0.418,0.171-1.14,0.513-1.881,0.741l-0.949-1.216c1.102-0.361,2.052-0.608,2.812-0.95l0.019-3.989h-2.412L547.323,148.934z
		 M551.427,161.301c1.805-1.14,2.622-3.173,2.432-5.643l1.425,0.19c0,0.817-0.057,1.596-0.171,2.261
		c0.494,0.703,1.824,1.311,2.337,1.501l-0.02-4.673l-4.331-0.019v-1.349l10.581-0.019v1.387h-4.825v1.653h3.762v1.406h-3.742v1.938
		c1.652,0.228,3.495,0.076,5.547,0c-0.189,0.608-0.418,0.988-0.57,1.482l-3.932-0.038c-1.957-0.019-3.914-0.608-5.225-1.767
		c-0.38,0.836-0.893,1.899-2.279,2.754L551.427,161.301z M553.896,146.027l8.283-0.019v6.649l-8.302-0.038L553.896,146.027z
		 M555.303,147.395v1.197l5.452-0.019v-1.159L555.303,147.395z M555.321,149.979l-0.019,1.273h5.452v-1.292L555.321,149.979z"/>
	<path fill="#C0DAF2" d="M566.589,161.054c3.42-1.501,4.769-4.541,4.674-7.048h-4.161v-1.368h4.218l0.02-4.255
		c-0.912,0.247-2.109,0.437-3.382,0.532l-0.76-1.444c2.926-0.133,5.433-0.76,7.693-2.166l1.026,1.083
		c-1.121,0.722-2.166,1.178-3.135,1.577v4.673h4.502v-7.352h1.425v7.352h4.027v1.368h-4.008l-0.02,8.339h-1.443l0.019-8.339h-4.559
		c-0.209,3.021-0.589,5.623-5.168,8.339L566.589,161.054z"/>
	<path fill="#C0DAF2" d="M588.687,154.804c-0.418,0.854-1.292,2.204-2.527,3.438l-1.253-0.874c1.938-1.748,3.077-3.856,3.761-5.889
		h-2.83l0.019-1.368h2.831v-2.147c-0.665,0.114-1.501,0.304-2.489,0.342l-0.74-1.425c2.603,0,4.502-0.684,6.383-1.634l0.836,1.102
		c-0.912,0.513-1.767,0.912-2.526,1.178l-0.02,2.565l2.85,0.019v1.368l-2.85,0.019v1.311l0.494-0.323
		c1.178,0.684,2.204,1.786,2.812,2.982l-1.159,0.874c-0.589-1.159-1.387-2.071-2.127-2.564v8.53l-1.463-0.019V154.804z
		 M598.299,162.232l-0.019-5.224l-5.87,1.387l-0.381-1.387l6.27-1.52l-0.019-10.049l1.443,0.019l0.019,9.688l2.223-0.513
		l0.305,1.387l-2.527,0.608l-0.019,5.604H598.299z M596,155.298c-0.836-1.406-2.032-2.489-3.515-3.21l1.026-1.007
		c1.405,0.76,2.621,1.748,3.533,3.097L596,155.298z M596.456,150.701c-0.987-1.406-2.241-2.242-3.704-3.001l0.893-1.007
		c1.463,0.665,2.812,1.596,3.818,2.982L596.456,150.701z"/>
	<path fill="#C0DAF2" d="M604.799,160.826c0.702,0.171,1.329,0.19,1.823,0.152c0.323-0.019,0.494-0.247,0.494-0.494l0.019-4.351
		l-2.279,0.836l-0.969-1.216l3.229-1.121l0.019-4.16h-2.564l-0.019-1.368h2.583v-3.686h1.406l0.019,3.667h1.957v1.387l-1.957,0.019
		l-0.019,3.59l2.108-0.741v1.444l-2.09,0.779l-0.019,5.338c0,0.722-0.38,1.501-1.463,1.501h-1.577L604.799,160.826z
		 M609.415,161.054c1.976-0.551,3.609-1.368,4.92-2.47c-1.121-1.197-1.899-2.85-2.45-4.388l-0.932-0.019l-0.019-1.368l3.628,0.019
		v-3.153h-3.97v-1.387h3.97v-2.945h1.425l0.02,2.964l4.389-0.019v1.387h-4.389l-0.02,3.134h3.344
		c-0.266,2.413-1.52,4.293-2.926,5.794c1.273,1.102,2.945,1.767,4.863,2.355l-0.911,1.273c-1.9-0.551-3.553-1.463-4.978-2.641
		c-1.197,0.912-2.451,1.938-4.883,2.717L609.415,161.054z M613.423,154.177c0.589,1.425,1.083,2.545,1.995,3.458
		c0.836-0.817,1.805-2.242,2.165-3.438L613.423,154.177z"/>
	<path fill="#C0DAF2" d="M623.989,155.849h12.937v1.539l-12.937-0.019V155.849z M633.563,161.643
		c-0.076-0.57-0.152-1.045-0.247-1.691c1.007,0.285,1.881,0.627,2.773,0.741c0.247,0,0.703-0.171,0.894-0.532
		c0.38-1.121,0.456-3.153,0.607-4.901c0.038-0.57,0.02-1.253,0.038-1.709l-12.272,0.019l1.501-8.245l1.52,0.456l-0.398,2.128
		l11.93-0.019v1.558h-12.195l-0.476,2.527h12.007l-0.076,3.058c-0.038,1.273-0.133,2.679-0.342,4.009
		c-0.19,1.235-0.323,2.622-1.824,3.077c-0.912,0.266-1.786-0.095-2.564-0.228L633.563,161.643z"/>
	<path fill="#C0DAF2" d="M194.066,183.493c1.045-0.741,1.786-1.615,2.527-2.413v-5.072h-1.957v-1.368l3.382,0.019v6.383
		c1.14,1.159,2.526,1.899,4.179,1.899h7.2l1.995-0.114l-0.608,1.463l-9.156-0.019c-1.539,0-3.42-0.912-4.16-2.09l-2.337,2.489
		L194.066,183.493z M196.556,168.599c1.196,0.703,2.166,1.691,2.868,2.812l-1.196,0.931c-0.551-1.178-1.577-2.109-2.717-2.831
		L196.556,168.599z M199.69,180.207c0.931-0.779,3.134-3.477,3.799-5.243l-4.521-0.019v-1.387h11.816v1.387h-6.782l0.912,0.494
		c-1.102,2.128-2.07,3.553-3.191,4.407l5.434-0.456c-0.323-0.437-1.083-1.102-1.881-1.919l1.121-0.76
		c1.538,1.311,2.868,2.773,3.647,4.559l-1.197,0.931c-0.247-0.703-0.57-1.121-0.779-1.52c-1.652,0.152-5.034,0.551-7.637,0.855
		L199.69,180.207z M200.032,171.012v-1.368h9.65v1.368H200.032z"/>
	<path fill="#C0DAF2" d="M223.819,172.076v-1.368h-3.952v1.33h-1.443v-1.33h-4.654v-1.387h4.711v-1.102h1.387v1.083h3.952v-1.064
		h1.425v1.064h4.673v1.387h-4.692v1.387H223.819z M215.518,175.609h-1.406v-3.001h15.426l-0.019,3.04h-1.406v-1.653h-12.595V175.609
		z M226.27,185.165v-1.121h-8.967v1.102h-1.443l0.019-5.737h11.816v5.756H226.27z M226.27,180.814h-8.967v1.824h8.967V180.814z
		 M226.289,178.611h-8.948v-3.875h8.929L226.289,178.611z M218.804,176.141v1.064h6.022v-1.064H218.804z"/>
	<path fill="#C0DAF2" d="M242.363,178.801c-0.607,1.748-2.165,3.571-3.932,4.483c-1.463,0.741-2.755,1.253-4.389,1.596l-1.083-1.292
		c3.362-0.532,6.535-1.881,7.846-4.787h-7.846v-1.387h8.283c0.189-0.551,0.322-1.767,0.322-2.583v-2.622h1.425
		c0,2.527,0.058,3.609-0.266,5.205h6.345v1.387H242.363z M247.322,173.367v-1.748h-12.596v1.748h-1.443v-3.134h7.617
		c-0.304-0.513-1.14-1.216-1.767-1.558l1.083-0.684c0.684,0.361,1.596,1.14,2.014,1.957l-0.607,0.247l7.143,0.038v3.134H247.322z
		 M237.805,177.3c-0.646-1.045-1.577-1.957-2.698-2.66l0.931-0.855c1.083,0.608,2.128,1.558,2.813,2.66L237.805,177.3z
		 M239.704,175.476c-0.627-1.14-1.501-1.995-2.622-2.754l0.97-0.817c1.12,0.646,2.127,1.671,2.792,2.792L239.704,175.476z
		 M248.233,184.956c-1.805-2.014-3.704-3.078-6.079-4.141l0.741-1.064c1.899,0.703,4.711,2.394,6.326,4.084L248.233,184.956z"/>
	<path fill="#C0DAF2" d="M267.024,172.379c-0.095,3.952-0.304,6.573-1.045,10.125c-0.209,1.026-1.14,1.596-1.881,1.691
		c-1.387,0.19-2.545-0.209-3.837-0.57l-0.323-1.653c1.292,0.418,2.355,0.76,3.477,0.855c0.398,0.038,0.741-0.266,0.931-0.513
		c0.513-0.722,1.083-5.927,1.14-8.53l-4.768,0.019c-0.323,7.257-3.629,9.347-7.675,11.057l-1.083-1.387
		c3.324-1.235,6.972-2.698,7.237-9.67h-4.692v-1.406h4.75v-4.255h1.463l-0.02,4.255L267.024,172.379z"/>
	<path fill="#C0DAF2" d="M278.463,179.599l-0.551-0.703c0.893-0.399,1.14-1.121,1.14-1.881h-1.025v-2.089h2.09v1.995
		C280.116,177.566,279.888,178.934,278.463,179.599z"/>
	<path fill="#C0DAF2" d="M299.496,183.132c0.894,0.152,1.577,0.437,2.337,0.418c0.229-0.057,0.456-0.152,0.513-0.361
		c0.494-1.596,0.761-5.471,0.836-9.385h-4.996c-0.038,2.869-0.646,5.718-2.394,8.036c-0.987,1.33-2.888,2.583-4.217,3.191
		l-0.988-1.273c2.508-0.874,4.787-3.04,5.452-5.433c0.418-1.482,0.76-3.04,0.703-4.541h-6.44v-1.33h6.44v-4.369
		c0.531-0.019,0.874-0.038,1.443-0.038v4.388l6.44,0.019c-0.171,3.609-0.114,7.656-0.836,11.019
		c-0.095,0.475-0.456,0.969-0.95,1.234c-0.569,0.38-1.463,0.266-3.115-0.095L299.496,183.132z M294.291,172.208
		c-0.456-1.159-1.311-1.843-2.412-2.603l1.178-0.893c0.987,0.741,1.843,1.482,2.47,2.527L294.291,172.208z M300.808,180.586
		c-0.418-1.558-1.368-2.736-2.508-3.971l1.196-0.703c1.197,1.178,2.014,2.375,2.604,3.875L300.808,180.586z"/>
	<path fill="#C0DAF2" d="M309.587,184.234v-1.387h6.743v-2.793h-3.913v-1.387h3.913v-2.622h-4.54v-0.684
		c-0.437,0.285-1.425,0.665-2.374,1.044l-0.855-1.292c4.236-1.425,6.896-4.123,8.34-6.573l1.387,0.627l-0.342,0.57
		c1.406,2.337,4.54,4.274,7.618,5.262l-0.836,1.311c-0.988-0.361-1.824-0.741-2.47-1.026v0.76h-4.445v2.622h3.913v1.387h-3.913
		v2.793h6.839v1.387H309.587z M321.308,174.659c-1.672-0.817-3.059-1.938-4.313-3.667c-1.178,1.615-2.432,2.679-4.065,3.628
		L321.308,174.659z"/>
	<path fill="#C0DAF2" d="M327.827,178.06c2.394-1.368,4.294-3.495,5.852-5.718l1.158,0.779c-0.531,0.969-1.614,2.242-2.317,3.096
		v8.758h-1.463v-7.257c-0.323,0.304-1.387,1.007-2.108,1.52L327.827,178.06z M328.074,172.835c1.995-1.387,3.533-3.097,4.807-5.091
		l1.12,0.874c-1.272,1.918-2.85,3.932-4.654,5.205L328.074,172.835z M336.775,183.417c0.969,0.076,1.805,0.076,2.621,0.057
		c0.209-0.057,0.418-0.19,0.418-0.456v-7.789h-4.863v-1.406l9.783,0.019v1.387l-3.381,0.019l-0.02,7.941
		c0,0.665-0.342,1.159-0.816,1.444c-0.513,0.285-2.317,0.266-3.287,0.228L336.775,183.417z M343.576,170.632h-8.169l-0.02-1.406
		l8.188-0.019V170.632z"/>
	<path fill="#C0DAF2" d="M347.188,184.025v-1.387h5.548v-14.02h1.481v14.02h2.204v-14.02h1.425v14.02h5.509v1.387H347.188z
		 M350.17,180.7c-0.095-2.583-0.969-5.224-1.918-7.371l1.234-0.589c0.969,2.127,1.862,4.787,2.128,7.333L350.17,180.7z
		 M359.802,180.928l-1.216-0.741c1.311-1.729,2.223-5.129,2.355-7.409l1.312,0.475C361.873,176.236,361.056,178.991,359.802,180.928
		z"/>
	<path fill="#C0DAF2" d="M382.24,177.604c-2.735-0.589-5.319-1.33-7.561-2.66c-2.166,1.444-5.528,2.413-8.454,2.869l-0.589-1.368
		c2.279-0.38,4.274-0.893,6.23-1.615c0.514-0.247,1.121-0.551,1.501-0.76c-0.816-0.627-1.899-1.273-2.564-2.185
		c-0.836,0.988-2.052,2.014-3.477,2.583l-1.083-1.311c2.926-1.083,4.332-2.774,5.225-5.11l1.254,0.703
		c-0.209,0.475-0.399,0.817-0.456,0.931h7.124v1.272c-1.121,1.387-2.261,2.28-3.438,3.135c0.247,0.19,0.836,0.38,1.368,0.646
		c1.785,0.665,3.666,1.178,5.851,1.596L382.24,177.604z M379.258,183.721c-0.19,0.589-0.685,1.102-1.235,1.254
		c-0.836,0.247-1.69-0.019-2.564-0.152l-0.36-1.653c1.007,0.285,1.729,0.57,2.507,0.456c0.438-0.285,0.476-0.817,0.57-1.368
		c0.171-1.026,0.38-2.337,0.418-2.945h-4.104c-0.304,1.634-1.577,3.191-3.115,4.198c-1.14,0.76-3.191,1.368-4.427,1.596
		c-0.266-0.475-0.513-0.855-0.76-1.425c2.413-0.38,4.654-0.95,6.098-2.85c0.399-0.513,0.608-1.083,0.723-1.52h-5.434v-1.387h5.661
		c0.057-0.456,0-0.798,0.057-1.653l1.406,0.19c-0.019,0.722,0.038,1.045-0.019,1.463h5.395
		C380.036,180.036,379.809,181.973,379.258,183.721z M371.792,171.069c0.76,0.912,1.785,1.52,2.85,2.204
		c1.025-0.665,2.052-1.444,2.773-2.204H371.792z"/>
	<path fill="#C0DAF2" d="M400.898,184.937c-2.906-0.684-3.989-1.615-5.813-2.944c-1.615,1.577-3.762,2.489-6.003,2.907l-0.836-1.197
		c2.526-0.551,4.369-1.292,5.832-2.641c-0.665-0.646-2.071-2.678-2.564-3.742c-1.026,3.001-3.211,5.319-5.719,7.143l-1.045-1.216
		c3.249-2.014,5.548-5.376,6.402-9.176h-4.351v-1.273l1.748-4.35l1.272,0.665l-1.425,3.572h3.116c0.36-1.368,0.551-2.85,0.74-4.616
		l1.387,0.361c-0.228,1.634-0.418,3.021-0.684,4.255h8.188v1.387h-8.511c-0.171,0.475-0.342,1.064-0.494,1.482h6.497v1.178
		c-0.646,1.52-1.576,3.097-2.659,4.293c1.596,1.311,3.533,2.166,5.908,2.754L400.898,184.937z M392.863,176.939
		c0.418,0.817,1.387,2.413,2.146,3.097c0.854-0.95,1.558-2.033,2.014-3.097H392.863z M397.536,172.323
		c-0.722-1.197-1.805-2.033-3.021-2.736l0.988-0.931c1.254,0.665,2.336,1.577,3.191,2.754L397.536,172.323z"/>
	<path fill="#C0DAF2" d="M407.228,177.889c0.019,3.249-0.646,4.844-1.976,7.295l-1.292-0.836c1.272-1.995,1.805-4.464,1.805-6.706
		v-8.644h13.412v4.388h-11.969L407.228,177.889z M417.732,170.385l-10.505-0.019v1.653h10.505V170.385z M414.693,179.428
		c0.247,0.684,0.741,1.577,1.405,2.166c0.646-0.418,1.273-1.178,1.786-1.995l1.159,0.874c-0.646,0.836-1.216,1.425-1.919,1.938
		c0.95,0.665,2.261,1.026,3.875,1.273l-0.949,1.349c-2.774-0.57-5.643-1.957-6.858-5.604h-2.09v3.761l3.097-1.102l0.02,1.444
		l-4.389,1.653l-1.235-1.007c0.685-0.19,1.159-0.494,1.064-1.121v-3.628h-2.128l0.019-1.368l3.04-0.019v-1.767h-2.641v-1.387
		l2.641,0.019v-1.254l1.443-0.019v1.273h3.192l0.019-1.254h1.425v1.254l2.717-0.019l-0.02,1.387h-2.697v1.786h3.457v1.368H414.693z
		 M415.226,178.06v-1.786h-3.211l0.019,1.767L415.226,178.06z"/>
	<path fill="#C0DAF2" d="M423.453,171.734h2.432l-0.019-3.629h1.481v3.629h2.014l0.02,1.368h-2.052v3.4l1.785-0.798l-0.038,1.539
		c-0.684,0.304-1.234,0.532-1.729,0.779l-0.019,5.509c0,0.532-0.418,1.159-1.083,1.349s-1.368,0.152-2.166,0.114
		c-0.133-0.475-0.266-0.817-0.456-1.387c0.817-0.019,1.387,0.152,1.9,0.019c0.266-0.019,0.418-0.399,0.36-0.76v-4.351
		c-0.418,0.171-1.14,0.513-1.881,0.741l-0.949-1.216c1.102-0.361,2.052-0.608,2.812-0.95l0.019-3.989h-2.412L423.453,171.734z
		 M427.557,184.101c1.805-1.14,2.622-3.173,2.432-5.643l1.425,0.19c0,0.817-0.057,1.596-0.171,2.261
		c0.494,0.703,1.824,1.311,2.337,1.501l-0.02-4.673l-4.331-0.019v-1.349l10.581-0.019v1.387h-4.825v1.653h3.762v1.406h-3.742v1.938
		c1.652,0.228,3.495,0.076,5.547,0c-0.189,0.608-0.418,0.988-0.57,1.482l-3.932-0.038c-1.957-0.019-3.914-0.608-5.225-1.767
		c-0.38,0.836-0.893,1.899-2.279,2.754L427.557,184.101z M430.026,168.827l8.283-0.019v6.649l-8.302-0.038L430.026,168.827z
		 M431.433,170.195v1.197l5.452-0.019v-1.159L431.433,170.195z M431.451,172.778l-0.019,1.273h5.452v-1.292L431.451,172.778z"/>
	<path fill="#C0DAF2" d="M448.153,168.39c-0.494,1.52-1.216,3.135-1.862,4.464l-0.019,12.234l-1.443,0.019v-9.917
		c-0.229,0.342-0.685,0.988-1.559,1.938l-1.234-0.874c2.261-2.317,3.837-5.528,4.769-8.492L448.153,168.39z M446.956,184.063
		c1.748-1.311,3.021-2.888,4.104-4.673l1.235,0.798c-1.045,1.899-2.318,3.458-4.236,4.939L446.956,184.063z M451.363,167.991
		l-0.019,3.705l3.533,0.038l0.02-3.743h1.463l0.019,3.686l2.166,0.019l-0.02,1.444h-2.165l0.019,4.141h2.697v1.406l-11.854,0.019
		l-0.02-1.425h2.66l0.019-4.141l-2.09,0.019l0.02-1.463l2.07,0.038l-0.019-3.724L451.363,167.991z M451.363,173.102v4.179h3.477
		l0.02-4.141L451.363,173.102z M454.974,179.522c0.626,0.456,1.216,0.95,1.709,1.406c1.007,0.912,1.919,2.014,2.66,3.287
		c-0.456,0.285-0.703,0.57-1.197,0.855c-1.025-1.824-2.583-3.419-4.388-4.692L454.974,179.522z"/>
	<path fill="#C0DAF2" d="M466.678,183.835c-0.189,0.532-0.854,1.292-1.425,1.349c-0.703,0.076-1.614-0.133-2.337-0.247l-0.38-1.481
		l2.166,0.323c0.627,0.095,0.741-1.045,0.893-1.767c0.323-1.558,0.361-2.755,0.494-3.724h-4.313l0.912-5.281h3.438v-2.394h-4.616
		v-1.368h6.06v5.129h-3.761l-0.438,2.545h4.236C467.419,179.39,467.096,182.619,466.678,183.835z M476.917,185.184
		c-0.36-0.551-0.702-1.102-0.911-1.387l-7.732,1.007l-0.778-1.425c1.596-0.076,2.925-0.228,4.293-0.38v-2.869h-2.204v1.197h-1.443
		v-6.497h3.647v-0.779h-2.793v-4.616h7.276v4.616h-3.04v0.779h3.743v6.25h-1.444v-0.95h-2.299v2.736l1.691-0.285
		c-0.399-0.266-0.779-0.684-1.178-0.95l1.254-0.646c1.007,0.665,2.545,2.166,3.115,3.419L476.917,185.184z M471.788,176.198h-2.204
		v2.565h2.204V176.198z M474.828,170.803h-4.465v1.881h4.465V170.803z M475.53,176.198h-2.299v2.565h2.299V176.198z"/>
	<path fill="#C0DAF2" d="M481.86,174.146v-1.463h5.927c0.152-1.368,0.171-3.001,0.133-4.788c0.589,0.133,0.969,0.133,1.539,0.228
		c0.038,1.672,0.019,3.21-0.095,4.56h6.801l0.019,1.463h-5.585c0.76,4.027,2.223,6.858,6.44,9.328l-1.026,1.14
		c-4.141-2.508-6.041-5.262-6.801-10.467c-1.025,5.224-3.002,8.036-7.2,10.372l-1.082-1.311c4.122-1.938,6.079-5.452,6.725-9.062
		H481.86z"/>
	<path fill="#C0DAF2" d="M510.814,168.219c-0.171,0.988-0.532,1.899-0.817,2.869h5.13c-0.096,4.046,0.057,8.377-1.197,12.12
		c-0.209,0.627-0.703,1.444-1.463,1.577c-0.836,0.152-2.412-0.323-3.381-0.589l-0.247-1.596c1.063,0.399,1.938,0.665,2.868,0.798
		c0.323,0.038,0.532-0.076,0.722-0.342c0.323-0.76,0.514-1.634,0.627-2.242c0.494-2.679,0.57-6.041,0.627-8.397h-4.046
		c-0.476,1.311-1.178,2.603-2.204,3.971l-0.987-0.627v8.473h-1.501v-1.235h-3.153v1.539h-1.501v-13.146h1.747
		c0.494-0.874,0.874-1.957,1.159-3.362l1.368,0.551c-0.342,1.254-0.646,2.185-1.026,2.812h2.907v3.799
		c1.538-2.146,2.374-4.597,2.85-7.313L510.814,168.219z M501.771,172.741v3.685h3.135v-3.685H501.771z M504.944,181.612v-3.799
		h-3.153v3.799H504.944z M511.175,180.339c-0.607-1.653-1.5-3.097-2.583-4.464l1.178-0.779c1.387,1.615,2.146,2.907,2.773,4.635
		L511.175,180.339z"/>
	<path fill="#C0DAF2" d="M518.909,183.702c2.603-0.456,5.301-1.748,7.029-2.716c-1.52-1.197-2.717-2.792-3.666-4.426h-1.273
		l-0.019-1.387l5.376,0.019v-2.678h-6.972v-1.368l6.953,0.019v-3.134h1.52l0.038,3.115h6.953v1.387h-6.991l0.038,2.641h4.768v1.272
		c-0.493,1.007-2.603,3.591-4.236,4.598c1.919,1.253,4.256,2.127,6.953,2.603l-0.646,1.387c-1.938-0.285-6.022-1.862-7.504-3.154
		c-2.394,1.368-4.825,2.546-7.58,3.154L518.909,183.702z M523.887,176.559c0.722,1.272,1.861,2.451,3.286,3.59
		c1.007-0.551,2.926-2.394,3.724-3.59H523.887z"/>
	<path fill="#C0DAF2" d="M537.967,183.607c0.855,0.038,1.596,0.171,2.147-0.038c0.095-0.076,0.189-0.228,0.189-0.437v-4.578
		c-0.437,0.209-1.405,0.589-2.128,0.779c-0.304-0.399-0.589-0.703-0.949-1.197c1.158-0.38,2.203-0.665,3.077-1.007v-4.027h-2.603
		v-1.349h2.603l-0.019-3.78h1.463v3.78h2.279l0.019,1.349h-2.298v3.533c0.513-0.19,1.272-0.532,2.185-0.893v1.539l-2.185,0.817
		l-0.02,5.471c0,0.722-0.323,1.463-1.539,1.463h-1.767L537.967,183.607z M548.169,184.994c-0.209-0.456-0.361-0.836-0.551-1.463
		c0.854,0.114,1.52,0.095,2.165,0.095c0.152-0.019,0.304-0.152,0.38-0.323v-4.312h-6.668v-1.349h6.668l0.02-1.462h1.443v1.462h2.793
		v1.349h-2.812v4.616c-0.096,0.76-0.476,1.254-1.521,1.406L548.169,184.994z M549.669,170.632h3.591v1.349L549.669,172v2.356
		l4.636-0.019v1.349l-10.468,0.019v-1.368h4.37v-2.356h-3.686l0.019-1.349h3.667v-2.679h1.462V170.632z M547.542,182.885
		c-0.931-0.817-2.109-1.767-3.42-2.299l0.95-1.045c1.272,0.513,2.337,1.292,3.438,2.28L547.542,182.885z"/>
	<path fill="#C0DAF2" d="M565.287,178.934c-0.835,0.057-1.596-0.266-2.127-0.874c-0.532-0.608-0.685-1.558-0.438-2.336
		c0.285-0.912,1.159-1.615,2.09-1.672c0.874-0.057,1.672,0.266,2.185,0.988c0.456,0.627,0.627,1.425,0.361,2.204
		C567.055,178.117,566.219,178.857,565.287,178.934z M565.325,175.286c-0.437-0.114-0.893,0.019-1.178,0.342
		c-0.266,0.285-0.398,0.703-0.322,1.102c0.075,0.361,0.342,0.722,0.684,0.874c0.475,0.209,1.025,0.095,1.387-0.266
		c0.342-0.342,0.437-0.893,0.266-1.33C566.01,175.647,565.687,175.381,565.325,175.286z"/>
</g>
</svg>
