<?xml version="1.0" encoding="utf-8"?>
<!-- Generator: Adobe Illustrator 16.0.0, SVG Export Plug-In . SVG Version: 6.00 Build 0)  -->
<!DOCTYPE svg PUBLIC "-//W3C//DTD SVG 1.1//EN" "http://www.w3.org/Graphics/SVG/1.1/DTD/svg11.dtd">
<svg version="1.1" id="Layer_1" xmlns="http://www.w3.org/2000/svg" xmlns:xlink="http://www.w3.org/1999/xlink" x="0px" y="0px"
	 width="768px" height="1024px" viewBox="0 0 768 1024" enable-background="new 0 0 768 1024" xml:space="preserve">
<g>
	<polygon opacity="0.102" fill-rule="evenodd" clip-rule="evenodd" fill="#FFFFFF" points="384,597.457 480.364,431.308 
		576.73,597.457 	"/>
	<polygon opacity="0.102" fill-rule="evenodd" clip-rule="evenodd" fill="#FFFFFF" points="287.636,431.308 384,265.16 
		480.364,431.308 	"/>
	<path fill-rule="evenodd" clip-rule="evenodd" fill="#D9D9D9" d="M373.03,373.916c-1.694-0.862-2.54-2.553-2.54-5.108
		c0-7.66,0-7.66,0-7.66c0-0.862,0.846-2.554,0.846-3.415c0,0,0,0-0.846,0c-5.106,0-5.106,0-5.106,0c-2.553,0-4.262,1.706-4.262,4.26
		c0,6.814,0,6.814,0,6.814c0,1.693,0.861,3.401,1.709,4.247c0,13.631,0,13.631,0,13.631c4.244,0,4.244,0,4.244,0
		c0.861-9.37,0.861-9.37,0.861-9.37c1.694,9.37,1.694,9.37,1.694,9.37c3.399,0,3.399,0,3.399,0V373.916z M385.797,373.054
		c1.693-0.846,2.558-2.553,2.558-4.247c0-7.66,0-7.66,0-7.66c0-2.554-2.558-4.262-5.109-4.262c-5.953,0-5.953,0-5.953,0
		c-2.557,0-4.262,1.708-4.262,4.262c0,7.66,0,7.66,0,7.66c0,1.693,0.861,3.401,2.553,4.247c0,15.323,0,15.323,0,15.323
		c3.415,0,3.415,0,3.415,0c1.693-9.353,1.693-9.353,1.693-9.353c1.706,9.353,1.706,9.353,1.706,9.353c3.399,0,3.399,0,3.399,0
		C385.797,373.054,385.797,373.054,385.797,373.054z M380.691,345.824c2.554,0,5.105,1.693,5.105,5.109
		c0,2.553-2.552,5.106-5.105,5.106s-5.108-2.553-5.108-5.106C375.583,347.517,378.138,345.824,380.691,345.824z M388.354,373.916
		c0,12.77,0,12.77,0,12.77c3.399,0,3.399,0,3.399,0c1.706-9.37,1.706-9.37,1.706-9.37c0.846,9.37,0.846,9.37,0.846,9.37
		c3.401,0,3.401,0,3.401,0c0-13.631,0-13.631,0-13.631c1.707-0.846,2.555-2.553,2.555-4.247c0-6.814,0-6.814,0-6.814
		c0-2.554-1.709-4.26-4.263-4.26c-5.093,0-5.093,0-5.093,0c-0.861,0-0.861,0-1.706,0c0.845,0.861,1.706,2.553,1.706,3.415
		c0,7.66,0,7.66,0,7.66C390.906,371.362,390.045,373.054,388.354,373.916z M393.46,347.517c-2.554,0-5.105,1.706-5.105,4.26
		c0,2.556,2.552,5.108,5.105,5.108c2.539,0,4.247-2.552,4.247-5.108C397.707,349.223,395.999,347.517,393.46,347.517z
		 M367.937,347.517c2.554,0,5.094,1.706,5.094,4.26c0,2.556-2.54,5.108-5.094,5.108c-2.553,0-4.26-2.552-4.26-5.108
		C363.677,349.223,365.384,347.517,367.937,347.517z M401.106,383.27c3.4,0.861,5.108,2.555,5.108,5.107
		c0,4.262-11.062,7.662-25.523,7.662s-25.522-3.399-25.522-7.662c0-2.552,1.707-4.246,5.107-5.107
		c-0.846,0.861-0.846,0.861-0.846,1.707c0,2.554,9.354,5.108,21.261,5.108c11.908,0,21.264-2.554,21.264-5.108
		C401.955,384.13,401.955,384.13,401.106,383.27z"/>
	<polygon opacity="0.102" fill-rule="evenodd" clip-rule="evenodd" fill="#FFFFFF" points="191.271,597.457 287.636,431.308 
		384,597.457 	"/>
	<path fill-rule="evenodd" clip-rule="evenodd" fill="#D9D9D9" d="M268.899,555.644c0,0.846,0,1.691,0,3.399h0.859h0.846
		c0-1.708,0-2.554,0-3.399h-0.846H268.899z M268.899,549.689c0,0.846,0,1.692,0,3.4h0.859h0.846c0-1.708,0-2.555,0-3.4h-0.846
		H268.899z M268.899,543.734c0,0.848,0,2.555,0,3.4h0.859h0.846c0-1.707,0-2.553,0-3.4h-0.846H268.899z M268.899,531.828
		c0,0.846,0,2.554,0,3.399h0.859h0.846c0-1.708,0-2.554,0-3.399h-0.846H268.899z M272.313,555.644c0,0.846,0,1.691,0,3.399
		c0.846,0,0.846,0,1.707,0c0,0,0,0,0.846,0c0-1.708,0-2.554,0-3.399c-0.846,0-0.846,0-0.846,0
		C273.159,555.644,273.159,555.644,272.313,555.644z M272.313,549.689c0,0.846,0,1.692,0,3.4c0.846,0,0.846,0,1.707,0
		c0,0,0,0,0.846,0c0-1.708,0-2.555,0-3.4c-0.846,0-0.846,0-0.846,0C273.159,549.689,273.159,549.689,272.313,549.689z
		 M272.313,543.734c0,0.848,0,1.693,0,3.4c0.846,0,0.846,0,1.707,0c0,0,0,0,0.846-0.846c0-0.861,0-1.707,0-3.4
		c-0.846,0-0.846,0.846-0.846,0.846C273.159,543.734,273.159,543.734,272.313,543.734z M272.313,531.828c0,0.846,0,1.691,0,3.399
		c0.846,0,0.846-0.846,1.707-0.846c0,0,0,0,0.846,0c0-0.862,0-1.708,0-3.415c-0.846,0-0.846,0-0.846,0
		C273.159,530.967,273.159,530.967,272.313,531.828z M272.313,537.781c0,0.846,0,1.693,0,3.4c0.846,0,0.846,0,1.707-0.847
		c0,0,0,0,0.846,0c0-0.86,0-1.708,0-3.415c-0.846,0-0.846,0-0.846,0C273.159,537.781,273.159,537.781,272.313,537.781z
		 M268.899,537.781c0,0.846,0,2.554,0,3.4h0.859h0.846c0-1.707,0-2.555,0-3.4h-0.846H268.899z M292.79,550.535
		c0,0.847,0,1.709,0,2.555c0.846,0,0.846,0,1.707,0c0,0,0,0,0.847,0c0-0.846,0-1.708,0-3.4c-0.847,0-0.847,0-0.847,0
		C293.636,549.689,293.636,549.689,292.79,550.535z M297.05,549.689c0,1.692,0,2.555,0,3.4h0.861c0.848,0,0.848,0,0.848,0
		c0-0.846,0-1.708,0-3.4c0,0,0,0-0.848,0H297.05z M292.79,544.582c0,0.846,0,1.707,0,2.553c0.846,0,0.846,0,1.707,0c0,0,0,0,0.847,0
		c0-0.846,0-1.707,0-3.4c-0.847,0-0.847,0-0.847,0C293.636,543.734,293.636,543.734,292.79,544.582z M292.79,538.627
		c0,0.848,0,1.708,0,3.4c0.846,0,0.846-0.846,1.707-0.846c0,0,0,0,0.847,0c0-0.847,0-1.707,0-3.4c-0.847,0-0.847,0-0.847,0.846
		C293.636,538.627,293.636,538.627,292.79,538.627z M292.79,532.674c0,0.846,0,1.708,0,3.401c0.846,0,0.846,0,1.707,0
		c0-0.848,0-0.848,0.847-0.848c0-0.846,0-1.708,0-3.399c-0.847,0.846-0.847,0.846-0.847,0.846
		C293.636,532.674,293.636,532.674,292.79,532.674z M292.79,520.768c0,0.846,0,1.707,0,3.399c0.846,0,0.846,0,1.707,0
		c0,0,0,0,0.847-0.847c0-0.846,0-1.707,0-2.553c-0.847,0-0.847,0-0.847,0C293.636,520.768,293.636,520.768,292.79,520.768z
		 M292.79,526.72c0,0.848,0,1.708,0,3.399c0.846,0,0.846,0,1.707,0c0,0,0,0,0.847-0.846c0-0.846,0-1.706,0-2.554
		c-0.847,0-0.847,0-0.847,0C293.636,526.72,293.636,526.72,292.79,526.72z M297.05,543.734c0,1.693,0,2.555,0,3.4h0.861
		c0.848,0,0.848,0,0.848,0c0-0.846,0-1.707,0-3.4c0,0,0,0-0.848,0H297.05z M297.05,537.781c0,1.693,0,2.554,0,3.4h0.861
		c0.848,0,0.848,0,0.848,0c0-0.847,0-1.707,0-3.4c0,0,0,0-0.848,0H297.05z M297.05,531.828c0,1.691,0,2.554,0,3.399h0.861
		c0.848,0,0.848,0,0.848,0c0-0.846,0-2.554,0-3.399c0,0,0,0-0.848,0H297.05z M297.05,519.921c0,1.692,0,2.554,0,3.399h0.861
		c0.848,0,0.848,0,0.848,0c0-0.846,0-2.553,0-3.399c0,0,0,0-0.848,0H297.05z M297.05,525.874c0,1.693,0,2.554,0,3.399h0.861
		c0.848,0,0.848,0,0.848,0c0-0.846,0-2.554,0-3.399c0,0,0,0-0.848,0H297.05z M259.513,559.043c3.418,0,3.418,0,3.418,0
		c0-30.615,0-30.615,0-30.615c0-1.708,0-1.708,0-1.708c1.707-0.846,1.707-0.846,1.707-0.846c13.644-1.707,13.644-1.707,13.644-1.707
		c2.555,0,2.555,0,2.555,0c2.569,0.847,2.569,0.847,2.569,0.847c2.553,18.721,2.553,18.721,2.553,18.721
		c0.861,0.848,0.861,0.848,0.861,0.848c0-28.076,0-28.076,0-28.076c0-1.693,0-1.693,0-1.693c2.556,0,2.556,0,2.556,0
		c13.646-2.553,13.646-2.553,13.646-2.553c2.567,0,2.567,0,2.567,0c7.677,2.553,7.677,2.553,7.677,2.553c0,44.23,0,44.23,0,44.23
		c2.555,0,2.555,0,2.555,0c0,4.261,0,4.261,0,4.261c-12.799,0-12.799,0-12.799,0c-1.709,0-1.709,0-1.709,0c0-2.552,0-2.552,0-2.552
		c0-43.386,0-43.386,0-43.386c-9.383,1.693-9.383,1.693-9.383,1.693c0,41.692,0,41.692,0,41.692c0,2.552,0,2.552,0,2.552
		c-0.848,0-0.848,0-0.848,0c-7.676,0-7.676,0-7.676,0c-4.262,0-4.262,0-4.262,0c-2.568,0-2.568,0-2.568,0c0-2.552,0-2.552,0-2.552
		c0-31.479,0-31.479,0-31.479c-9.385,0.846-9.385,0.846-9.385,0.846c0,30.633,0,30.633,0,30.633c0,2.552,0,2.552,0,2.552
		c-2.553,0-2.553,0-2.553,0c-5.125,0-5.125,0-5.125,0C259.513,559.043,259.513,559.043,259.513,559.043z"/>
	<polygon opacity="0.302" fill-rule="evenodd" clip-rule="evenodd" fill="#FFFFFF" points="287.636,431.308 384,597.457 
		480.364,431.308 	"/>
	<path fill-rule="evenodd" clip-rule="evenodd" fill="#D9D9D9" d="M458.727,517.985c-0.664,0-1.346,0.666-1.346,1.346
		c0,29.526,0,29.526,0,29.526c0,1,0.682,1.346,1.346,1.346c43.294,0,43.294,0,43.294,0c0.664,0,1.328-0.346,1.328-1.346
		c0-29.526,0-29.526,0-29.526c0-0.68-0.664-1.346-1.328-1.346H458.727z M502.021,552.878c-43.294,0-43.294,0-43.294,0
		c-2.343,0-4.019-1.678-4.019-4.021c0-29.526,0-29.526,0-29.526c0-2.358,1.676-4.034,4.019-4.034c43.294,0,43.294,0,43.294,0
		c2.342,0,4.019,1.676,4.019,4.034c0,29.526,0,29.526,0,29.526C506.039,551.2,504.362,552.878,502.021,552.878z"/>
	<path fill-rule="evenodd" clip-rule="evenodd" fill="#D9D9D9" d="M461.779,522.656c0,21.441,0,21.441,0,21.441
		c36.9,0,36.9,0,36.9,0c0-21.441,0-21.441,0-21.441H461.779z M498.68,544.098c0,1.346,0,1.346,0,1.346
		C498.68,544.098,498.68,544.098,498.68,544.098L498.68,544.098z M498.68,546.788c-36.9,0-36.9,0-36.9,0
		c-1.345,0-2.689-1.012-2.689-2.69c0-21.441,0-21.441,0-21.441c0-1.678,1.345-2.675,2.689-2.675c36.9,0,36.9,0,36.9,0
		c1.678,0,2.675,0.997,2.675,2.675c0,21.441,0,21.441,0,21.441C501.354,545.776,500.357,546.788,498.68,546.788z"/>
	<path fill-rule="evenodd" clip-rule="evenodd" fill="#D9D9D9" d="M489.945,560.252c-19.431,0-19.431,0-19.431,0
		c-0.682,0-1.348-0.666-1.348-1.345c0-0.664,0.666-1.345,1.348-1.345c19.431,0,19.431,0,19.431,0c0.681,0,1.347,0.681,1.347,1.345
		C491.292,559.586,490.626,560.252,489.945,560.252z"/>
	<path fill-rule="evenodd" clip-rule="evenodd" fill="#D9D9D9" d="M473.823,560.252c-0.333,0-0.333,0-0.666,0
		c-0.68-0.333-1.013-1.33-0.68-2.009c3.354-7.043,3.354-7.043,3.354-7.043c0.348-0.68,1.345-1.013,2.024-0.68
		c0.666,0.331,0.666,1.013,0.666,1.678c-3.688,7.388-3.688,7.388-3.688,7.388C474.835,559.919,474.154,560.252,473.823,560.252z"/>
	<path fill-rule="evenodd" clip-rule="evenodd" fill="#D9D9D9" d="M486.924,560.252c-0.333,0-0.999-0.333-1.33-0.666
		c-3.324-7.388-3.324-7.388-3.324-7.388c-0.333-0.665,0-1.347,0.664-1.678c0.664-0.333,1.33,0,1.663,0.68
		c3.672,7.043,3.672,7.043,3.672,7.043c0.333,0.679,0,1.676-0.679,2.009C487.257,560.252,487.257,560.252,486.924,560.252z"/>
	<path fill-rule="evenodd" clip-rule="evenodd" fill="#D9D9D9" d="M481.498,528.624c0-1.48,1.209-2.689,2.705-2.689
		c1.481,0,2.69,1.209,2.69,2.689c0,1.495-1.209,2.704-2.69,2.704C482.707,531.328,481.498,530.119,481.498,528.624z"/>
	<path fill-rule="evenodd" clip-rule="evenodd" fill="#D9D9D9" d="M481.498,538.068c0-1.451,1.209-2.628,2.705-2.628
		c1.481,0,2.69,1.177,2.69,2.628c0,1.437-1.209,2.615-2.69,2.615C482.707,540.684,481.498,539.505,481.498,538.068z"/>
	<path fill-rule="evenodd" clip-rule="evenodd" fill="#D9D9D9" d="M472.145,534.019c0-1.479,1.209-2.69,2.69-2.69
		c1.496,0,2.703,1.211,2.703,2.69c0,1.496-1.207,2.69-2.703,2.69C473.354,536.709,472.145,535.515,472.145,534.019z"/>
	<path fill-rule="evenodd" clip-rule="evenodd" fill="#D9D9D9" d="M484.233,539.414H483.9c-9.338-4.051-9.338-4.051-9.338-4.051
		c-0.666-0.347-0.997-0.679-0.997-1.345c0-0.347,0.331-1.013,0.666-1.358c9.338-5.396,9.338-5.396,9.338-5.396
		c0.664-0.332,1.661,0,1.994,0.681c0.333,0.663,0,1.344-0.664,1.677c-6.998,4.05-6.998,4.05-6.998,4.05
		c6.998,3.037,6.998,3.037,6.998,3.037c0.664,0.333,0.997,1.012,0.664,1.693C485.23,539.065,484.899,539.414,484.233,539.414z"/>
</g>
<g>
	<g>
		<path fill="#FFFFFF" d="M368.322,455.714c3.605,4.48,8.296,8.541,14.282,10.291l-2.135,2.17c-2.415-0.805-4.516-2.03-6.091-3.08
			l0.035,1.435l-6.371-0.035l0.035,4.061h9.486l0.035,2.52l-9.556,0.035l0.035,8.401l12.531-0.035v2.555h-27.723l-0.035-2.555
			l12.566,0.035v-8.436l-9.661,0.035l-0.035-2.555h9.696v-4.061l-6.371,0.035v-1.505c-1.715,1.12-3.92,2.38-6.371,3.5l-1.785-2.205
			c5.216-2.345,11.831-6.266,15.752-12.987l2.17,1.47L368.322,455.714z M360.901,480.952c-0.945-2.31-2.03-4.235-4.025-6.091
			l2.38-1.12c1.47,1.155,3.536,4.306,4.201,6.126L360.901,480.952z M372.768,463.975c-1.925-1.61-4.48-3.921-6.021-6.091
			c-1.505,1.89-3.991,4.55-6.196,6.021L372.768,463.975z M369.267,479.691c2.31-1.645,3.92-3.85,5.076-6.266l2.135,1.54
			c-1.12,2.416-2.625,4.656-4.831,6.371L369.267,479.691z"/>
		<path fill="#FFFFFF" d="M404.932,455.469v2.521H385.75v-2.521H404.932z M400.871,470.206h-10.851v15.122H387.5V467.58h15.893
			v14.457c-0.105,1.155-0.875,2.17-1.855,2.555c-1.121,0.455-1.891,0.385-3.256,0.385l-0.91-2.485c1.471-0.07,2.136,0.35,3.011-0.07
			c0.735-0.35,0.489-1.4,0.489-2.835V470.206z M389.076,466.215v-6.791h12.671v6.791H389.076z M400.031,475.176v2.52h-3.43v5.636
			h-2.451v-5.601h-3.22v-2.625h2.38c-0.56-1.225-1.715-2.59-2.904-3.115l1.82-1.19c1.189,0.7,2.625,2.1,3.149,3.36l-1.47,0.98
			l1.925,0.035c1.365-1.505,1.855-3.116,2.38-4.48l2.275,0.91c-0.63,1.085-1.33,2.766-2.135,3.605L400.031,475.176z
			 M399.156,461.875h-7.525v1.96h7.525V461.875z M407.207,483.577c-0.84,0.245-1.084,0.315-2.064,0.666l-1.226-2.556
			c2.101-0.455,3.115-0.63,4.585-1.015v-6.405h-3.955V461.28h3.955v-7.001h2.486v7.001h4.025v12.986h-4.025l0.035,5.74l2.029-0.49
			c-0.244-0.49-0.805-1.435-1.609-2.416l2.205-0.805c1.4,1.61,2.345,3.465,2.939,5.285l0.771,2.311l-2.625,0.91
			c-0.245-1.226-0.525-2.451-0.806-3.186L407.207,483.577z M408.502,463.8h-1.504v7.911h1.504V463.8z M410.988,471.71h1.715V463.8
			h-1.715V471.71z"/>
		<path fill="#FFFFFF" d="M357.401,513.886c-0.77,1.575-2.38,4.061-4.655,6.335l-2.311-1.609c3.57-3.221,5.671-7.106,6.931-10.851
			h-5.215l0.035-2.521h5.215v-3.956c-1.225,0.21-2.765,0.56-4.585,0.63l-1.365-2.625c4.795,0,8.296-1.26,11.761-3.01l1.54,2.03
			c-1.68,0.945-3.255,1.68-4.655,2.17l-0.035,4.725l5.25,0.035v2.521l-5.25,0.035v2.416l0.91-0.595
			c2.17,1.26,4.061,3.291,5.181,5.496l-2.135,1.609c-1.085-2.135-2.555-3.815-3.92-4.725v15.716l-2.695-0.034V513.886z
			 M375.113,527.572l-0.035-9.626l-10.816,2.556l-0.7-2.556l11.551-2.8l-0.035-18.518l2.66,0.035l0.035,17.852l4.096-0.945
			l0.56,2.556l-4.656,1.12l-0.035,10.326H375.113z M370.877,514.796c-1.541-2.59-3.746-4.585-6.476-5.916l1.89-1.855
			c2.59,1.4,4.831,3.22,6.51,5.706L370.877,514.796z M371.717,506.325c-1.82-2.59-4.13-4.13-6.826-5.53l1.645-1.855
			c2.695,1.225,5.181,2.94,7.036,5.496L371.717,506.325z"/>
		<path fill="#FFFFFF" d="M386.975,524.982c1.296,0.314,2.451,0.35,3.361,0.279c0.595-0.035,0.91-0.455,0.91-0.91l0.035-8.016
			l-4.201,1.54l-1.785-2.24l5.951-2.065l0.035-7.666h-4.727l-0.035-2.52h4.762v-6.791h2.59l0.035,6.756h3.605v2.555l-3.605,0.035
			l-0.035,6.616l3.885-1.365v2.66l-3.85,1.435l-0.035,9.837c0,1.33-0.7,2.765-2.695,2.765h-2.905L386.975,524.982z M395.48,525.402
			c3.641-1.016,6.651-2.521,9.066-4.551c-2.064-2.205-3.5-5.25-4.516-8.086l-1.715-0.035l-0.035-2.52l6.686,0.035v-5.811h-7.315
			v-2.555h7.315v-5.426h2.625l0.035,5.461l8.086-0.035v2.555h-8.086l-0.035,5.776h6.161c-0.489,4.446-2.8,7.911-5.39,10.676
			c2.345,2.029,5.425,3.255,8.961,4.34l-1.682,2.346c-3.5-1.016-6.545-2.695-9.17-4.865c-2.205,1.68-4.516,3.57-8.996,5.005
			L395.48,525.402z M402.867,512.73c1.085,2.625,1.995,4.69,3.676,6.371c1.539-1.506,3.324-4.131,3.99-6.336L402.867,512.73z"/>
	</g>
</g>
</svg>
