<?xml version="1.0" encoding="utf-8"?>
<!-- Generator: Adobe Illustrator 16.0.0, SVG Export Plug-In . SVG Version: 6.00 Build 0)  -->
<!DOCTYPE svg PUBLIC "-//W3C//DTD SVG 1.1//EN" "http://www.w3.org/Graphics/SVG/1.1/DTD/svg11.dtd">
<svg version="1.1" id="Layer_1" xmlns="http://www.w3.org/2000/svg" xmlns:xlink="http://www.w3.org/1999/xlink" x="0px" y="0px"
	 width="768px" height="1024px" viewBox="0 0 768 1024" enable-background="new 0 0 768 1024" xml:space="preserve">
<g>
	<g>
		<path fill="#FFFFFF" d="M248.524,247.093c-0.84,1.72-1.78,2.961-3.38,3.881l-0.9-1.18c1.58-0.88,2.541-2.041,3.201-3.521
			L248.524,247.093z M250.464,251.554c0,0.78-0.6,1.641-1.52,1.641h-1.621l-0.52-1.601l1.6,0.12c0.2,0.02,0.5-0.22,0.5-0.48v-5.441
			h-3.221v-1.46h3.221v-1.42h-3.921v-1.48h2.88c-0.14-0.58-0.62-1.32-1.54-2.021l1.32-0.54c0.84,0.66,1.44,1.561,1.72,2.561h0.84
			c0.66-0.66,1.16-1.66,1.4-2.521l1.34,0.54c-0.22,0.7-0.68,1.521-1.12,1.98h2.38v1.48h-3.741v1.42h3.181v1.46h-3.181v1.42
			l0.58-0.74c0.94,0.58,1.84,1.521,2.5,2.641l-1.02,1.16c-0.5-1.2-1.4-2.061-2.061-2.561V251.554z M248.764,237.091
			c-0.18-0.32-0.6-0.88-1.26-1.541l1.46-0.68c0.64,0.76,1.18,1.521,1.42,2.221h3.381v1.46h-8.282v-1.46H248.764z M261.767,236.351
			c-1.801,1.04-3.641,1.541-5.421,1.86v2.861h5.741v1.46h-2.24v10.422h-1.541v-10.422h-1.96v2.581c0,2.661-0.88,5.401-2.42,7.782
			l-1.36-0.96c1.84-2.521,2.24-5.241,2.24-8.342l-0.02-6.602c2.221-0.26,4.141-0.86,6.021-1.88L261.767,236.351z"/>
		<path fill="#FFFFFF" d="M265.983,242.892h15.503v1.66l-15.503,0.02V242.892z"/>
		<path fill="#FFFFFF" d="M291.185,235.67c-0.52,1.601-1.12,3.201-1.78,4.581v12.783h-1.541v-10.302
			c-0.42,0.58-1.24,1.561-2.12,2.561l-1.26-0.94c3.201-3.48,3.92-5.441,5.301-9.282L291.185,235.67z M302.707,248.573
			c-0.24,1.28-0.6,2.44-1.1,3.561c-0.3,0.46-0.8,0.74-1.36,0.72c-1.1-0.18-2.021-0.84-2.801-1.62c-2.2-2.261-3.061-5.081-3.42-8.162
			l-3.461,0.3l-0.18-1.5c1.32-0.1,2.461-0.22,3.461-0.3c-0.16-1.98-0.34-4.181-0.32-6.461l1.601,0.02
			c0.06,2.42,0.14,4.621,0.36,6.301c1.86-0.14,3.901-0.32,6.082-0.54l0.16,1.48l-6.062,0.56c0.3,2.581,0.94,4.981,2.781,6.941
			c0.52,0.54,0.88,0.8,1.48,1.16c0.22,0.1,0.46,0.12,0.561-0.1c0.36-0.76,0.6-2.081,0.74-3.041L302.707,248.573z M299.546,240.131
			c-0.92-1.28-1.86-2.5-3.241-3.361l1.12-1c1.38,0.82,2.48,2.101,3.361,3.341L299.546,240.131z"/>
		<path fill="#FFFFFF" d="M310.964,246.433c-0.4-1.24-1.12-2.16-1.62-2.721v9.302h-1.521v-8.242c-0.32,0.82-1.22,2.24-2.42,3.721
			l-1.22-0.9c1.72-2.32,3.321-4.501,3.641-7.082h-2.74v-1.42h2.74l0.02-3.921l1.5,0.02v3.901l2.38-0.02v1.44h-2.4v1.98l0.6-0.28
			c1.1,0.92,1.86,2.041,2.42,3.361L310.964,246.433z M309.984,251.714c5.101-2.061,7.582-4.341,10.002-8.562l1.3,0.58
			c-0.86,1.601-1.84,3.101-2.92,4.281c1.38,0.74,3.101,2,4.061,3.781l-1.221,1.04c-0.68-1.8-3.121-3.361-3.92-3.721
			c-1.721,1.6-3.821,2.781-6.021,3.781L309.984,251.714z M310.825,247.813c2.68-1.16,4.121-2.801,5.461-4.301
			c-1.1,0.08-2.3,0.32-3.641,0.54l-0.8-1.42c1.38-1.14,2.621-2.42,3.161-3.641h-3.48v-1.46h4.361c-0.38-0.48-1.16-1.16-2.081-1.76
			l1.22-1.021c1,0.72,1.74,1.42,2.601,2.521l-0.34,0.24l4.681,0.04v1.44h-5.181c-0.66,1.22-1.4,2.5-2.34,3.201l2.88-0.26
			c0.36-0.56,0.74-1.22,1.101-2.021l1.34,0.66c-1.561,3.281-4.081,6.622-7.422,8.302L310.825,247.813z"/>
		<path fill="#FFFFFF" d="M324.383,248.113c1.3-2.181,2.4-4.261,2.88-6.802l1.4,0.58c-0.48,2.561-1.34,4.421-2.9,6.961
			L324.383,248.113z M331.425,239.871l0.02,9.762c0.06,0.22,0.4,0.6,0.74,0.66h3.121c0.32-0.04,0.62-0.2,0.76-0.52
			c0.34-1.08,0.601-2.181,0.82-3.501l1.561,0.561c-0.38,1.42-0.6,2.72-1.2,3.9c-0.36,0.72-1.101,1.101-1.88,1.101l-3.201-0.02
			c-1.041,0-2.301-0.56-2.301-2.021v-9.902L331.425,239.871z M334.765,241.392c-1.18-1.84-2.84-3.641-4.801-4.821
			c0.58-0.34,0.88-0.66,1.38-0.92c1.86,1.26,3.561,3,4.761,4.921L334.765,241.392z M341.267,248.513c-1-2.4-2.2-4.581-4.101-6.562
			c0.54-0.28,0.86-0.5,1.36-0.7c1.9,1.92,3.081,4.161,4.201,6.521L341.267,248.513z"/>
		<path fill="#FFFFFF" d="M344.983,250.694c2.021-0.78,3.841-1.661,5.181-3.481l1.12,1c-1.26,1.781-3.681,3.081-5.301,3.721
			L344.983,250.694z M360.086,247.553c-0.32-0.56-0.72-1.48-1.16-1.92l-4.501,0.521l-0.04,5.161c0,0.62-0.42,1.22-0.98,1.5
			c-0.62,0.2-1.92,0.16-2.861,0.14l-0.58-1.541c1,0.08,1.68,0.16,2.4,0.1c0.28-0.02,0.48-0.24,0.48-0.62v-4.601l-5.441,0.62
			c-0.32-0.48-0.62-0.84-0.92-1.42c2.661-0.98,4.641-1.98,6.822-3.301l-5.641,0.6l-0.86-1.3c1.84-0.72,4.421-2.34,5.381-3.501
			c0,0-3.141,0.28-6.082,0.38l-0.72-1.521c2.721-0.02,5.221-0.08,7.602-0.36c2.321-0.28,4.601-0.76,6.822-1.48l1.06,1.28
			c-2.581,0.8-5.101,1.22-7.322,1.541c-0.04-0.04,0.24,0.08,0.6,0.36c-1.32,1.521-2.6,2.3-3.801,2.861l5.141-0.5
			c0.6-0.48,1.34-1.38,1.96-2.12l1.36,0.8c-2.061,2.761-5.221,4.781-8.102,5.861l7.001-0.68c-0.2-0.2-0.74-0.44-1.5-0.86l1.14-0.86
			c1.681,0.66,3.141,2.161,3.981,3.761L360.086,247.553z M357.006,246.953c1.66,0.58,4.021,2.061,5.321,3.501l-1.121,1.16
			c-1.34-1.48-3.021-2.82-5.201-3.461L357.006,246.953z"/>
		<path fill="#FFFFFF" d="M365.503,248.093l-0.72-1.34c1.2-1.2,2.281-2.421,2.861-3.281c-0.18,0.02-1.36,0.3-2.181,0.58l-0.76-1.38
			c1-1.58,2.4-4.661,3.361-7.142l1.36,0.62c-0.6,1.4-2.141,4.761-2.901,6.082c0.32-0.04,1.46-0.3,2.101-0.44
			c0.44-0.64,0.88-1.46,1.34-2.38l1.42,0.64c-1.18,2.36-2.4,4.321-4.221,6.042l4.381-0.98v1.36
			C369.984,246.853,367.504,247.473,365.503,248.093z M365.583,251.834l-0.74-1.4c2.4-0.76,4.641-1.541,7.122-2.32v1.48
			L365.583,251.834z M373.985,250.354c-0.8,1.22-2.161,2.101-3.501,2.741l-1.08-1.42c1.72-0.5,3.181-1.44,3.721-2.98
			c0.42-1.18,0.34-2.421,0.34-3.881h1.54C375.005,246.993,375.045,248.733,373.985,250.354z M380.767,244.712
			c-0.32-0.54-0.54-0.94-0.76-1.18c-2.44,0.14-5.981,0.48-8.481,0.76l-0.86-1.601c1.7-1.08,3.281-2.32,4.021-3.781h-3.761v-1.46
			h4.761c-0.4-0.46-1.28-0.98-2.34-1.54l1.08-1c0.88,0.32,2.36,1.36,2.98,2.081l-0.54,0.46h4.661v1.46h-4.981
			c-0.8,1.48-2,2.781-3.441,3.641l5.781-0.42c-0.24-0.26-0.82-0.84-1.561-1.42l1.4-0.74c1.34,1.18,2.44,2.421,3.321,3.961
			L380.767,244.712z M381.607,251.274c-0.34,0.64-0.86,0.9-1.521,0.9h-1.56c-0.88,0-1.701-0.46-1.701-1.52v-5.841h1.521v5.461
			c0,0.3,0.28,0.46,0.5,0.44h1.16c0.28,0,0.42-0.24,0.521-0.52c0.2-0.52,0.32-1.28,0.48-1.92l1.4,0.44
			C382.227,249.713,382.007,250.514,381.607,251.274z"/>
		<path fill="#FFFFFF" d="M397.206,237.631h0.92v2.041h-1.88v-1.601c0-0.98,0-2.36,1.6-3.081l0.44,0.68
			C397.266,236.09,397.227,237.071,397.206,237.631z M400.246,237.631h0.92v2.041h-1.88v-1.601c0-0.98,0-2.36,1.601-3.081
			l0.439,0.68C400.307,236.09,400.267,237.071,400.246,237.631z"/>
		<path fill="#58B5E1" d="M405.344,250.474c2.48-1.621,4.641-4.521,5.66-7.122l1.381,0.74c-1.32,2.84-3.021,5.541-5.901,7.582
			L405.344,250.474z M421.507,240.292l0.021,1.54h-15.544v-1.52L421.507,240.292z M413.745,239.871
			c-0.479-1.46-1.74-2.84-2.921-3.721l1.4-0.84c1.16,0.86,2.541,2.18,3.021,3.88L413.745,239.871z M420.867,251.534
			c-1.141-2.88-3.682-5.561-5.842-7.461l1.18-0.94c2.762,2.221,4.902,4.661,6.082,7.622L420.867,251.534z"/>
		<path fill="#58B5E1" d="M438.946,250.713c0.38,0,0.761-0.2,0.88-0.56c0.301-0.9,0.48-1.6,0.641-2.76l1.5,0.56
			c-0.22,1.3-0.4,2.5-1.141,3.521c-0.399,0.46-0.82,0.64-1.6,0.74h-3.741c-1.2,0-2.3-0.88-2.3-2.061v-3.741
			c-0.861,0.54-1.701,0.98-3.121,1.541l-0.721-0.78l-0.02,5.941h-1.541v-10.202l-0.02,0.28c-0.54,0.74-1.221,1.541-1.98,2.121
			l-1.38-1.04c2.86-2.481,4.261-5.562,5.421-9.022l1.34,0.64c-0.52,1.72-1.119,3.38-1.84,4.821l0.02,5.781
			c1.561-0.64,2.701-1.12,3.842-1.82v-9.042h1.54v8.202c2.2-1.54,3.48-2.9,4.821-4.581l1.32,0.9c-2.021,2.5-4.082,4.281-6.142,5.501
			v4.241c0,0.5,0.34,0.82,1.101,0.82H438.946z"/>
		<path fill="#58B5E1" d="M445.983,242.892h15.503v1.66l-15.503,0.02V242.892z"/>
		<path fill="#58B5E1" d="M466.184,247.673v-8.862h6.541l-0.02-3.661h1.6l-0.039,3.641l6.521,0.02v8.782h-1.58v-1.36h-4.941
			l0.039,6.741h-1.58l-0.02-6.741h-4.901l-0.04,1.44H466.184z M472.705,240.271h-4.941v4.521h4.961L472.705,240.271z
			 M479.166,240.271h-4.861v4.501h4.882L479.166,240.271z"/>
		<path fill="#58B5E1" d="M484.383,248.113c1.301-2.181,2.4-4.261,2.881-6.802l1.4,0.58c-0.48,2.561-1.34,4.421-2.9,6.961
			L484.383,248.113z M491.425,239.871l0.021,9.762c0.06,0.22,0.399,0.6,0.74,0.66h3.12c0.319-0.04,0.62-0.2,0.76-0.52
			c0.341-1.08,0.601-2.181,0.82-3.501l1.561,0.561c-0.38,1.42-0.601,2.72-1.2,3.9c-0.36,0.72-1.101,1.101-1.881,1.101l-3.2-0.02
			c-1.04,0-2.301-0.56-2.301-2.021v-9.902L491.425,239.871z M494.766,241.392c-1.181-1.84-2.841-3.641-4.801-4.821
			c0.58-0.34,0.88-0.66,1.38-0.92c1.86,1.26,3.561,3,4.761,4.921L494.766,241.392z M501.267,248.513c-1-2.4-2.2-4.581-4.101-6.562
			c0.54-0.28,0.859-0.5,1.36-0.7c1.9,1.92,3.081,4.161,4.2,6.521L501.267,248.513z"/>
		<path fill="#FFFFFF" d="M506.244,239.771l-0.441-0.68c1.021-0.42,1.061-1.4,1.081-1.96h-0.921v-2.041h1.881v1.6
			C507.844,237.671,507.844,239.051,506.244,239.771z M509.284,239.771l-0.44-0.68c1.021-0.42,1.061-1.4,1.08-1.96h-0.92v-2.041
			h1.881v1.6C510.885,237.671,510.885,239.051,509.284,239.771z"/>
	</g>
</g>
<g>
	<path fill="#FFFFFF" d="M180.741,373.69l-1.425,0.019v-1.064h-6.383l-0.019,1.102l-1.425,0.019v-6.041
		c-1.026,0.266-2.375,0.475-3.4,0.608l-0.722-1.368c2.831-0.304,5.319-0.836,7.39-1.748c-0.893-0.646-1.501-1.216-2.033-1.786
		c-0.646,0.741-1.615,1.406-2.527,2.071l-1.254-0.912c2.166-1.254,3.647-2.792,4.389-4.541l1.216,0.475
		c-0.095,0.418-0.304,0.779-0.342,0.874h6.516l-0.019,1.254c-0.874,1.14-2.089,2.089-2.982,2.641
		c1.881,0.95,4.351,1.272,7.086,1.462l-0.627,1.482c-3.021-0.456-6.174-1.178-7.884-2.146c-1.349,0.665-3.191,1.311-4.521,1.539
		l8.966,0.038V373.69z M175.517,358.587c-0.247-0.209-0.836-0.817-1.748-1.14l1.444-0.931c1.69,0.798,2.089,1.976,2.146,2.052
		l6.098,0.019v3.761l-1.463-0.019l0.019-2.355H170.16v2.413l-1.425-0.019v-3.78H175.517z M179.297,369.055h-6.364v2.204h6.383
		L179.297,369.055z M174.092,362.786c0.532,0.589,1.216,1.254,2.146,1.709c0.931-0.494,1.767-1.102,2.356-1.709H174.092z"/>
	<path fill="#FFFFFF" d="M200.292,365.692v-0.779h-9.689c0.057,4.237-0.494,6.554-2.678,8.834l-1.311-1.026
		c1.957-1.691,2.527-3.799,2.527-6.174v-6.934h6.098c-0.228-0.551-1.159-1.387-2.336-2.185l1.064-0.931
		c0.874,0.665,2.033,1.501,2.831,2.622l-0.627,0.437l5.566,0.057v6.079H200.292z M200.292,360.981h-9.708v2.564h9.708V360.981z"/>
	<path fill="#FFFFFF" d="M215.36,371.828c0.893,0.152,1.577,0.437,2.336,0.418c0.228-0.057,0.456-0.152,0.513-0.361
		c0.494-1.596,0.76-5.471,0.836-9.385h-4.997c-0.038,2.869-0.646,5.718-2.394,8.036c-0.988,1.33-2.888,2.583-4.217,3.191
		l-0.988-1.273c2.508-0.874,4.787-3.04,5.452-5.433c0.418-1.482,0.76-3.04,0.703-4.541h-6.44v-1.33h6.44v-4.369
		c0.532-0.019,0.874-0.038,1.443-0.038v4.388l6.44,0.019c-0.171,3.609-0.114,7.656-0.836,11.019
		c-0.095,0.475-0.456,0.969-0.95,1.234c-0.57,0.38-1.462,0.266-3.115-0.095L215.36,371.828z M210.155,360.905
		c-0.456-1.159-1.311-1.843-2.413-2.603l1.178-0.893c0.988,0.741,1.843,1.482,2.47,2.527L210.155,360.905z M216.67,369.283
		c-0.417-1.558-1.368-2.736-2.507-3.971l1.197-0.703c1.197,1.178,2.014,2.375,2.603,3.875L216.67,369.283z"/>
	<path fill="#FFFFFF" d="M226.096,368.694v-8.416h6.212l-0.019-3.477h1.52l-0.038,3.458l6.193,0.019v8.34h-1.5v-1.292h-4.692
		l0.038,6.402h-1.501l-0.019-6.402h-4.654l-0.038,1.368H226.096z M232.289,361.665h-4.692v4.293h4.711L232.289,361.665z
		 M238.425,361.665h-4.616v4.274h4.635L238.425,361.665z"/>
	<path fill="#FFFFFF" d="M243.386,369.112c1.235-2.071,2.28-4.046,2.736-6.459l1.33,0.551c-0.456,2.432-1.273,4.198-2.754,6.611
		L243.386,369.112z M250.073,361.285l0.019,9.271c0.057,0.209,0.38,0.57,0.703,0.626h2.963c0.304-0.038,0.589-0.19,0.722-0.494
		c0.323-1.026,0.57-2.071,0.779-3.325l1.481,0.532c-0.361,1.349-0.57,2.583-1.14,3.704c-0.342,0.684-1.045,1.045-1.786,1.045
		l-3.04-0.019c-0.988,0-2.185-0.532-2.185-1.918v-9.404L250.073,361.285z M253.246,362.729c-1.121-1.748-2.697-3.458-4.559-4.578
		c0.551-0.323,0.836-0.627,1.311-0.874c1.767,1.197,3.381,2.85,4.521,4.673L253.246,362.729z M259.42,369.492
		c-0.95-2.28-2.09-4.351-3.895-6.231c0.513-0.266,0.817-0.475,1.292-0.665c1.805,1.824,2.925,3.951,3.989,6.193L259.42,369.492z"/>
</g>
<g>
	<g>
		<path fill="#FFFFFF" d="M127.093,610.146v1.42h-3.761v4.781h4.581l-0.02,1.42h-4.541v9.103h-1.541v-9.103h-4.521
			c0.02,2.861-0.76,5.682-3.041,7.603c-0.82,0.68-1.561,1.101-2.5,1.5l-1.24-1.2c2.141-0.721,3.901-2.221,4.641-4.201
			c0.44-1.18,0.66-2.44,0.64-3.701h-4.881v-1.42h4.861v-4.781h-4.101v-1.42H127.093z M117.291,611.566v4.762h4.521v-4.762H117.291z"
			/>
		<path fill="#FFFFFF" d="M134.15,619.509c0.02,3.421-0.68,5.101-2.081,7.682l-1.36-0.88c1.34-2.102,1.9-4.701,1.9-7.063v-9.102
			h14.123v4.621H134.13L134.15,619.509z M145.212,611.607l-11.063-0.021v1.74h11.063V611.607z M142.012,621.129
			c0.26,0.721,0.78,1.66,1.48,2.281c0.68-0.441,1.34-1.24,1.88-2.102l1.22,0.92c-0.68,0.881-1.28,1.501-2.021,2.041
			c1,0.7,2.38,1.08,4.081,1.34l-1,1.421c-2.92-0.601-5.941-2.061-7.222-5.901h-2.2v3.961l3.261-1.16l0.02,1.52l-4.621,1.741
			l-1.3-1.061c0.72-0.2,1.22-0.521,1.12-1.181v-3.82h-2.24l0.02-1.44l3.201-0.021v-1.859h-2.781v-1.461l2.781,0.021v-1.32
			l1.52-0.021v1.341h3.361l0.02-1.32h1.5v1.32l2.86-0.021l-0.02,1.461h-2.84v1.88h3.641v1.44H142.012z M142.572,619.688v-1.88
			h-3.381l0.02,1.859L142.572,619.688z"/>
		<path fill="#58B5E1" d="M152.47,615.568v-1.541h6.241c0.16-1.439,0.18-3.16,0.14-5.041c0.62,0.141,1.02,0.141,1.62,0.24
			c0.04,1.76,0.02,3.381-0.1,4.801h7.162l0.02,1.541h-5.881c0.8,4.24,2.341,7.221,6.782,9.822l-1.08,1.199
			c-4.361-2.641-6.362-5.541-7.162-11.021c-1.081,5.5-3.161,8.461-7.582,10.922l-1.141-1.381c4.341-2.04,6.401-5.74,7.082-9.541
			H152.47z"/>
		<path fill="#58B5E1" d="M170.969,616.969c1.3-0.641,2.321-1.861,2.701-2.641l-2.641-0.021v-1.46l4.201-0.021v-3.44h1.46v3.44
			h3.821l0.02,1.501l-3.841-0.021v4.12h-0.9c-0.14,0.421-0.3,0.74-0.521,1.24h4.101l-0.02,1.32c-0.38,1.061-1,1.961-1.76,2.762
			c0.52,0.38,1.22,0.84,1.94,1.561l-1.16,0.959c-0.68-0.74-1.36-1.24-1.861-1.52c-1.08,0.699-2.66,1.62-5.021,2.42l-1-1.22
			c1.84-0.48,3.381-1.141,4.561-1.98c-0.76-0.38-1.82-0.74-3.161-1.021c0.58-0.9,0.92-1.4,1.14-1.82l-1.96-0.02v-1.441h2.661
			c0.2-0.399,0.46-1.26,0.64-1.92l0.86,0.221v-3.641h-0.36c-0.58,1.52-1.5,2.9-2.96,3.721L170.969,616.969z M173.79,612.646
			c-0.6-0.859-1.28-1.379-2.121-1.88l0.86-0.899c0.86,0.379,1.8,1.02,2.34,1.98L173.79,612.646z M174.59,621.129
			c-0.18,0.32-0.3,0.58-0.541,1c0.7,0.18,1.48,0.561,2.201,0.84c0.74-0.74,1.14-1.399,1.34-1.859L174.59,621.129z M178.991,617.668
			c-0.44-0.859-1.32-1.801-2.041-2.24l0.92-0.84c0.8,0.4,1.581,1.18,2.121,2.02L178.991,617.668z M177.051,611.727
			c0.84-0.5,1.64-1.04,2.26-1.84l1.06,0.7c-0.6,0.899-1.42,1.64-2.24,2.101L177.051,611.727z M178.911,618.889
			c2.38-2.781,3.021-6.041,3.261-9.582l1.4,0.4c-0.14,1.5-0.26,2.5-0.44,3.5h5.001v1.44l-0.78,0.021l-0.08,0.619
			c-0.3,2.381-0.9,4.682-1.92,6.723c0.82,1.34,1.96,2.779,3.44,3.98l-1.02,1.24c-1.44-1.181-2.621-2.5-3.361-3.641
			c-0.8,1.279-2.121,2.78-3.781,3.74l-1.08-1.221c1.82-0.899,3.101-2.52,4.001-3.98c-0.82-1.5-1.42-3.541-1.681-5.001
			c-0.36,0.88-0.94,1.741-1.68,2.821L178.911,618.889z M182.832,614.647c0.16,1.62,0.74,4.261,1.62,5.921
			c0.86-2.141,1.28-4.221,1.48-5.9L182.832,614.647z"/>
		<path fill="#58B5E1" d="M195.37,625.27c0,0.641-0.52,1.141-1.08,1.361c-0.72,0.26-1.561,0.159-2.48,0.18l-0.54-1.621l1.96,0.08
			c0.6,0.021,0.62-0.4,0.62-1v-4.32c-0.54,0.18-1.26,0.56-2.101,0.88l-1.22-1.24l3.321-1.32v-3.961h-2.881v-1.501h2.881v-3.84h1.52
			v3.84h1.681v1.521h-1.681l-0.02,3.36l1.701-0.74v1.54l-1.681,0.74V625.27z M195.29,625.891c1.4-1.561,1.96-3.401,1.96-5.422
			l-0.02-10.682h10.402v4.92h-8.882v6.643c0,1.98-0.92,4.08-2.221,5.461L195.29,625.891z M198.771,611.268v1.88h7.322v-1.88H198.771
			z M204.252,618.269v2.101h3.261v6.441l-1.52-0.021l-0.02-1.12h-4.901v1.141h-1.54v-6.422l3.141-0.02v-2.101h-3.721v-1.421
			l3.741-0.02v-1.9h1.56v1.9h4.401v1.44H204.252z M201.071,624.189l4.921-0.02v-2.361l-4.921-0.02V624.189z"/>
		<path fill="#58B5E1" d="M128.951,651.131v-7.262h-7.742v-1.461h7.742v-6.961h-6.481v-1.461h14.363v1.461h-6.361v6.961h7.722v1.461
			h-7.722v7.262H128.951z M124.25,636.027c1.64,1.46,2.641,3.16,3.441,5.101l-1.4,0.761c-0.7-1.98-1.661-3.762-3.521-5.142
			L124.25,636.027z M131.352,640.969c1.64-1.501,2.92-3.081,3.5-5.062l1.32,0.7c-0.66,2.02-1.9,3.641-3.46,5.24L131.352,640.969z"/>
		<path fill="#58B5E1" d="M156.953,643.028c-0.4-1.06-0.96-1.74-1.62-2.72c-3.941,0.299-8.102,0.319-12.083,0.92
			c-0.32-0.5-0.561-0.98-0.92-1.5c3.401-2.262,5.441-4.861,6.501-7.182l1.4,1.02c-1.721,3.101-3.601,4.661-5.121,5.821
			c2.46-0.12,6.601-0.399,8.982-0.479c-0.62-0.66-1.581-1.381-2.681-2.201l1.12-1.061c2.121,1.501,4.401,3.821,5.721,6.242
			L156.953,643.028z M145.39,650.77h-1.58v-8.301h11.762l-0.02,8.262h-1.52v-1.48h-8.662L145.39,650.77z M145.39,643.929v3.841
			h8.642v-3.861L145.39,643.929z"/>
		<path fill="#FFFFFF" d="M178.173,650.33h-7.602c-2.34,0-4.521-0.561-6.201-1.9c-0.44,0.721-1.621,2.021-2.281,2.66l-1.14-1.1
			c0.96-0.94,1.76-1.781,2.321-2.66c-0.76-0.841-1.36-1.98-1.94-3.182l1.22-0.699c0.52,0.959,0.98,2.02,1.5,2.6
			c0.76-1.4,0.82-2.561,0.92-3.601h-3.401v-1.261c1.44-1.5,2.621-3.26,3.301-4.801h-3.641l0.02-1.46l5.241,0.021l0.02,1.32
			c-0.64,1.52-1.6,3.26-2.88,4.721l2.861,0.02c-0.02,1.181-0.16,3.641-1.4,6.121c1.9,1.781,4.701,1.841,7.582,1.781
			c1.58-0.021,3.921-0.08,6.101-0.2L178.173,650.33z M171.051,648.59v-1.881h-4.541v-1.46h4.521l0.02-1.181h-3.781v-1.439h3.761
			l0.02-1.181h-3.4v-1.46h3.4l-0.02-1.201l-4.701-0.02v-1.44l4.701-0.021v-1.08h-3.38v-1.439l3.38-0.021v-1.56h1.521l0.02,1.56
			l4.341,0.021v2.54h1.3v1.44h-1.3v2.681l-4.361-0.021v1.201l4.601-0.021v1.46h-4.581l-0.02,1.181h5.681l0.02,1.46l-5.701-0.02
			l0.02,1.9H171.051z M172.552,636.227v1.101h2.841v-1.101H172.552z M175.393,639.988v-1.221l-2.841,0.02v1.221L175.393,639.988z"/>
		<path fill="#FFFFFF" d="M184.07,649.75l-0.88-1.28c0.38-0.32,0.52-0.54,0.52-0.96v-6.461h-2.841v-1.461h4.361v7.882l2.821-1.521
			v1.641L184.07,649.75z M185.33,637.947c-0.58-1.2-1.44-2.141-2.541-3.041l1.061-0.899c1.12,0.739,2.08,1.82,2.74,2.96
			L185.33,637.947z M197.353,650.971c-1.641-0.621-3.561-1.58-4.821-2.621c-1.22,0.9-3.061,2.101-4.841,2.701l-1-1.261
			c1.86-0.66,3.441-1.46,4.701-2.46c-1.1-1.16-1.8-2.701-2.42-4.142h-0.94v-1.46h8.602c-0.4,2.6-1.521,4.181-3.021,5.561
			c1.4,1.101,3.041,1.82,5.101,2.441L197.353,650.971z M195.532,640.448c-0.96,0-1.48-0.72-1.48-1.501v-3.26h-3.201v1.859
			c0,1.021-0.44,2.061-1.46,3.021c-0.4,0.38-0.96,0.76-1.601,1.02l-1.08-1.26c1.14-0.381,1.74-0.98,2.201-1.66
			c0.44-0.681,0.42-1.141,0.42-1.861v-2.58h6.241v4.521c0,0.16,0.16,0.26,0.32,0.24h2.16v1.46H195.532z M190.611,643.188
			c0.44,1.001,1.02,2.241,1.9,3.12c0.9-0.899,1.641-1.9,2.141-3.12H190.611z"/>
	</g>
</g>
<g>
	<g>
		<path fill="#58B5E1" d="M554.426,624.369c2.7-1.619,5.281-4.16,6.341-6.681h-6.642v-1.54l17.023-0.021v1.561h-8.621
			c-1.42,3.221-3.381,4.981-4.861,6.121c2.101-0.2,6.661-0.64,9.462-0.94c-0.78-0.82-1.8-1.66-3.081-2.541
			c0.42-0.42,0.66-0.66,1.041-1.02c1.779,1.2,4.4,3.301,5.921,6.381c-0.38,0.36-0.74,0.561-1.28,1.041
			c-0.48-1.08-1.12-1.961-1.44-2.441c-4.181,0.421-8.501,0.701-12.803,1.441L554.426,624.369z M569.408,612.848h-13.563v-1.58
			l13.563,0.02V612.848z"/>
		<path fill="#58B5E1" d="M573.645,616.969c1.301-0.641,2.321-1.861,2.701-2.641l-2.641-0.021v-1.46l4.201-0.021v-3.44h1.46v3.44
			h3.821l0.02,1.501l-3.841-0.021v4.12h-0.899c-0.141,0.421-0.301,0.74-0.521,1.24h4.102l-0.02,1.32
			c-0.381,1.061-1,1.961-1.761,2.762c0.521,0.38,1.22,0.84,1.94,1.561l-1.16,0.959c-0.68-0.74-1.36-1.24-1.861-1.52
			c-1.08,0.699-2.66,1.62-5.021,2.42l-1-1.22c1.841-0.48,3.381-1.141,4.562-1.98c-0.761-0.38-1.82-0.74-3.161-1.021
			c0.58-0.9,0.92-1.4,1.14-1.82l-1.96-0.02v-1.441h2.661c0.199-0.399,0.459-1.26,0.64-1.92l0.86,0.221v-3.641h-0.36
			c-0.58,1.52-1.501,2.9-2.96,3.721L573.645,616.969z M576.466,612.646c-0.601-0.859-1.28-1.379-2.12-1.88l0.859-0.899
			c0.86,0.379,1.801,1.02,2.341,1.98L576.466,612.646z M577.266,621.129c-0.18,0.32-0.3,0.58-0.54,1c0.7,0.18,1.48,0.561,2.2,0.84
			c0.74-0.74,1.141-1.399,1.341-1.859L577.266,621.129z M581.667,617.668c-0.44-0.859-1.32-1.801-2.04-2.24l0.92-0.84
			c0.8,0.4,1.58,1.18,2.12,2.02L581.667,617.668z M579.727,611.727c0.84-0.5,1.641-1.04,2.26-1.84l1.061,0.7
			c-0.6,0.899-1.42,1.64-2.24,2.101L579.727,611.727z M581.587,618.889c2.38-2.781,3.021-6.041,3.261-9.582l1.4,0.4
			c-0.141,1.5-0.26,2.5-0.44,3.5h5.001v1.44l-0.779,0.021l-0.08,0.619c-0.301,2.381-0.9,4.682-1.921,6.723
			c0.819,1.34,1.96,2.779,3.44,3.98l-1.02,1.24c-1.441-1.181-2.621-2.5-3.361-3.641c-0.801,1.279-2.121,2.78-3.781,3.74l-1.08-1.221
			c1.82-0.899,3.102-2.52,4.002-3.98c-0.82-1.5-1.421-3.541-1.682-5.001c-0.359,0.88-0.939,1.741-1.68,2.821L581.587,618.889z
			 M585.508,614.647c0.16,1.62,0.74,4.261,1.62,5.921c0.86-2.141,1.28-4.221,1.48-5.9L585.508,614.647z"/>
		<path fill="#58B5E1" d="M598.046,625.27c0,0.641-0.521,1.141-1.08,1.361c-0.72,0.26-1.561,0.159-2.48,0.18l-0.54-1.621l1.961,0.08
			c0.6,0.021,0.619-0.4,0.619-1v-4.32c-0.539,0.18-1.26,0.56-2.1,0.88l-1.221-1.24l3.32-1.32v-3.961h-2.881v-1.501h2.881v-3.84
			h1.521v3.84h1.681v1.521h-1.681l-0.021,3.36l1.701-0.74v1.54l-1.681,0.74V625.27z M597.966,625.891
			c1.4-1.561,1.96-3.401,1.96-5.422l-0.02-10.682h10.402v4.92h-8.882v6.643c0,1.98-0.921,4.08-2.221,5.461L597.966,625.891z
			 M601.447,611.268v1.88h7.321v-1.88H601.447z M606.928,618.269v2.101h3.261v6.441l-1.521-0.021l-0.02-1.12h-4.901v1.141h-1.54
			v-6.422l3.141-0.02v-2.101h-3.721v-1.421l3.74-0.02v-1.9h1.561v1.9h4.401v1.44H606.928z M603.747,624.189l4.921-0.02v-2.361
			l-4.921-0.02V624.189z"/>
		<path fill="#58B5E1" d="M615.086,621.729v-8.861h6.541l-0.02-3.66h1.6l-0.04,3.641l6.521,0.02v8.781h-1.58v-1.359h-4.941
			l0.04,6.741h-1.58l-0.02-6.741h-4.902l-0.039,1.439H615.086z M621.607,614.328h-4.941v4.521h4.961L621.607,614.328z
			 M628.068,614.328h-4.861v4.5h4.881L628.068,614.328z"/>
		<path fill="#58B5E1" d="M633.285,622.17c1.301-2.182,2.4-4.262,2.881-6.803l1.4,0.58c-0.48,2.561-1.341,4.422-2.9,6.962
			L633.285,622.17z M640.326,613.928l0.021,9.762c0.06,0.221,0.399,0.6,0.74,0.66h3.12c0.32-0.04,0.621-0.2,0.76-0.52
			c0.341-1.08,0.602-2.182,0.82-3.502l1.561,0.561c-0.38,1.42-0.6,2.721-1.199,3.9c-0.361,0.721-1.102,1.102-1.881,1.102
			l-3.201-0.021c-1.04,0-2.301-0.56-2.301-2.021v-9.902L640.326,613.928z M643.668,615.447c-1.182-1.84-2.842-3.641-4.802-4.82
			c0.58-0.34,0.88-0.66,1.38-0.92c1.861,1.26,3.561,3,4.762,4.92L643.668,615.447z M650.168,622.569c-1-2.4-2.199-4.581-4.1-6.562
			c0.539-0.279,0.859-0.5,1.359-0.7c1.9,1.921,3.081,4.161,4.201,6.521L650.168,622.569z"/>
		<path fill="#FFFFFF" d="M542.984,649.59c1.501-1.52,3.502-4.361,3.901-7.822h-3.48v-1.399h3.501c0.06-0.841,0-1.821,0-2.7h-2.941
			v-1.441h2.921v-3.02h1.521v3h2.48v1.44h-2.44c-0.021,1.22,0.021,1.9,0,2.741h2.641v1.379l-2.741,0.021
			c-0.38,4.321-2.6,7.321-4.261,8.922L542.984,649.59z M547.365,649.529c2.602-1,4.962-2.14,6.102-5.141
			c0.86-2.28,1.08-5.061,1.381-8.142l1.4,0.2c-0.12,2.34-0.32,3.9-0.66,5.861c-0.68,3.781-2.121,6.461-7.302,8.541L547.365,649.529z
			 M550.406,647.59c-0.619-1.301-1.46-2.621-2.32-3.32l1.1-0.801c0.82,0.62,1.861,1.98,2.422,3.24L550.406,647.59z M559.428,633.967
			v11.223h-1.459v-9.843h-5.102v9.843h-1.461v-11.223H559.428z M555.367,643.589h1.48v4.94c0.04,0.061,0.08,0.08,0.16,0.121h2.16
			c0.381-0.181,0.541-1.102,0.601-1.48l0.06-0.461l1.281,0.521c-0.24,1.06-0.301,2.581-1.682,2.82h-2.32
			c-1.14,0-1.72-0.78-1.72-1.38L555.367,643.589z"/>
		<path fill="#FFFFFF" d="M573.688,640.948c-0.881,1.841-2.221,3.48-3.561,4.801c0.539,1.3,1.3,2.46,2.561,3.461
			c0.26,0.14,0.279,0.06,0.359-0.08c0.301-1.101,0.5-1.841,0.641-2.561l1.439,0.56c-0.199,1.24-0.56,2.281-1.16,3.281
			c-0.319,0.52-0.68,0.68-1.38,0.52c-0.841-0.18-1.4-0.68-2.001-1.48c-0.68-0.92-1.34-1.8-1.74-2.66
			c-1.18,0.82-2.52,1.801-4.301,2.48l-1.18-1.26c1.9-0.7,3.5-1.621,4.881-2.701c-0.6-1.66-1.04-3.561-1.26-5.361l-2.821,0.4
			l-0.2-1.439l2.82-0.42c-0.08-1.682-0.18-3.381-0.16-5.402h1.561l0.021,2.301l0.181,2.881l5.9-0.9l0.2,1.48l-5.94,0.881
			c0.219,1.619,0.459,2.98,0.979,4.5c1.2-1.26,2.161-2.66,2.96-4.16L573.688,640.948z M571.406,637.567c-0.699-1.22-1.6-2.2-2.9-2.9
			c0.48-0.38,0.78-0.601,1.121-0.94c1.24,0.62,2.22,1.7,3,2.861C572.207,636.887,571.906,637.268,571.406,637.567z M576.708,635.447
			v11.322h-1.501v-11.322H576.708z M578.428,649.47c0.201-0.04,0.48-0.079,0.48-0.521l-0.02-15.923l1.52,0.021v16.203
			c0,0.76-0.359,1.26-0.96,1.52c-0.739,0.301-1.521,0.181-2.561,0.181l-0.54-1.54L578.428,649.47z"/>
		<path fill="#FFFFFF" d="M583.365,644.328c2.541-2.24,4.521-4.66,5.421-7.201l-4.2-0.02v-1.461h4.76
			c0.301-0.76,0.521-1.74,0.781-2.801l1.54,0.341c-0.2,0.88-0.501,1.921-0.66,2.48h10.183v1.44l-10.763,0.02
			c-0.28,0.82-0.48,1.381-0.72,1.861h9.062v10.222c-0.06,0.601-0.501,1.06-1.04,1.261c-0.82,0.18-1.761,0.06-2.661,0.1
			c-0.239-0.5-0.44-0.881-0.7-1.541c0.98,0.121,1.761,0.141,2.521,0.101c0.22,0,0.38-0.16,0.38-0.341v-1.979l-7.541-0.021v4.241
			h-1.58v-9.542c-0.681,1.02-2.102,2.44-3.381,3.761L583.365,644.328z M589.687,645.35h7.562v-1.801l-7.562-0.02V645.35z
			 M589.727,640.448v1.62l7.502,0.02v-1.64H589.727z"/>
		<path fill="#FFFFFF" d="M603.605,650.27c0.779-1.1,1.279-2.14,1.721-3.52c0.52-1.501,0.5-3.121,0.5-4.762l-0.021-6.821h6.921
			c-0.22-0.32-0.84-0.86-1.54-1.38l1.4-0.861c0.841,0.74,1.54,1.561,1.921,2.241l6.521,0.021l0.02,1.479h-13.743l0.021,6.782
			c0,1.88-0.34,3.801-1.181,5.521c-0.38,0.761-0.78,1.46-1.341,2.241L603.605,650.27z M608.025,643.988v-1.46h6.082
			c-1.12-0.66-2.021-1-3.621-1.44l1.181-1.061c0.979,0.261,1.82,0.681,2.581,1.041c0.52-0.16,1.06-0.521,1.58-0.86
			c0.52-0.32,1.039-0.681,1.22-0.86h-8.142v-1.44l10.383,0.021l-0.021,1.26c-1.14,1.201-2.681,2.221-3.621,2.701l0.9,0.66
			l4.521-0.021c-0.18,1.421-0.64,2.7-1.26,3.94l-1.44-0.379c0.261-0.701,0.681-1.501,0.921-2.102h-4.121v5.461
			c0,0.641-0.48,1.4-1.341,1.501c-0.86,0.12-1.66,0.021-2.641,0.04c-0.2-0.52-0.28-0.94-0.5-1.521l2.4,0.08
			c0.261,0,0.581-0.28,0.581-0.66v-4.901H608.025z"/>
		<path fill="#FFFFFF" d="M640.609,650.109h-8.203c-2.16,0-4.02-0.84-5.32-2.3c-0.62,0.86-1.94,1.94-3.08,2.661l-1.061-1.061
			c1.14-0.68,2.42-1.66,3.541-2.961v-5.4h-3.002v-1.421h4.461v7.142c0.581,0.641,2.441,1.881,4.242,1.961
			c3.801,0.159,6.761-0.061,8.981-0.16L640.609,650.109z M627.166,637.967c-0.7-1.359-2.141-2.92-3.102-3.5l1.081-0.94
			c1.16,0.8,2.16,1.741,3.261,3.44L627.166,637.967z M635.728,636.627v-3.24h1.501v3.24h2.46v1.42h-2.46v3.081h3.26v1.44h-3.28
			v5.682h-1.46v-5.722l-2.861,0.021c-0.02,2.32-0.22,3.9-2.16,5.581l-1.221-1.081c1.381-1.1,1.82-2.199,1.9-4.5h-3.08v-1.421h3.101
			v-3.101h-2.661v-1.42h2.621v-3.221h1.541v3.24H635.728z M632.928,641.128h2.82v-3.081h-2.82V641.128z"/>
		<path fill="#FFFFFF" d="M643.484,643.688c2.521-1.44,4.521-3.681,6.162-6.021l1.221,0.82c-0.561,1.02-1.701,2.359-2.441,3.26
			v9.223h-1.54v-7.643c-0.34,0.32-1.46,1.061-2.22,1.601L643.484,643.688z M643.745,638.188c2.101-1.461,3.721-3.261,5.062-5.361
			l1.18,0.92c-1.34,2.021-3,4.142-4.9,5.481L643.745,638.188z M652.907,649.33c1.021,0.08,1.9,0.08,2.761,0.061
			c0.22-0.061,0.439-0.201,0.439-0.48v-8.202h-5.121v-1.48l10.303,0.021v1.46l-3.561,0.021l-0.021,8.361
			c0,0.7-0.36,1.221-0.86,1.521c-0.54,0.3-2.44,0.28-3.461,0.239L652.907,649.33z M660.068,635.867h-8.602l-0.02-1.48l8.621-0.02
			V635.867z"/>
	</g>
</g>
<g>
	<g>
		<path fill="#FFFFFF" d="M530.875,288.779h3.705c-0.229-0.57-1.179-1.615-1.748-2.052l0.912-0.76
			c0.588,0.342,1.805,1.481,2.393,2.375l-0.646,0.437l2.45,0.038c0.514-0.494,1.502-1.767,1.92-2.831l1.253,0.684
			c-0.399,0.798-1.044,1.691-1.425,2.109h5.016v1.311h-12.424l0.019,3.477c0.019,2.698-1.501,4.407-2.944,5.281l-1.064-1.083
			c1.254-0.684,2.584-2.166,2.584-4.616V288.779z M537.941,284.447l6.744,0.038v1.311h-15.444v-1.292h7.637
			c-0.304-0.551-1.083-1.52-1.843-2.071l0.988-0.798c0.779,0.646,1.652,1.368,2.412,2.508L537.941,284.447z"/>
		<path fill="#FFFFFF" d="M553.902,298.904v-1.311h-3.533v1.387l-1.426-0.038v-8.53h6.384l-0.019,8.492H553.902z M550.369,296.245
			l3.514-0.019v-4.464h-3.514V296.245z M561.577,282.7l-0.019,6.212h-10.771v-6.231L561.577,282.7z M560.323,283.916l-8.245-0.038
			l0.02,3.837h8.207L560.323,283.916z M558.48,298.847h-1.443v-8.492h6.496v8.454h-1.443v-1.311l-3.609,0.019V298.847z
			 M562.109,291.704h-3.629v4.464l3.629-0.019V291.704z"/>
		<path fill="#FFFFFF" d="M569.482,291.495c-0.189,0.551-0.74,1.9-1.918,3.363l-1.159-1.007c0.894-1.121,1.481-2.147,2.032-3.268
			c0.551-1.14,0.799-2.432,0.988-3.534h-2.432v-1.387h2.412v-3.686h1.482v3.667h2.07v1.387h-2.032v2.014l0.399-0.209
			c0.836,1.007,1.443,1.881,1.918,3.04l-1.234,0.779c-0.361-0.95-0.799-1.786-1.083-2.109v8.416h-1.463L569.482,291.495z
			 M583.143,298.904c-2.414-0.399-4.541-1.691-5.377-3.743c-0.949,1.995-3.172,3.192-5.301,3.762l-0.797-1.254
			c1.938-0.437,3.666-1.216,4.559-2.564h-3.742v-1.368h4.332c0.113-0.342,0.17-0.76,0.246-1.102h-3.666v-5.889h8.72v5.908h-3.686
			c-0.038,0.361-0.114,0.836-0.209,1.083h4.787v1.349h-3.78c0.057,0.095,0.304,0.437,0.589,0.741c0.969,1.045,2.679,1.634,4.085,1.9
			L583.143,298.904z M576.094,285.15v1.197h-1.406v-1.197h-2.545v-1.387h2.526v-1.843h1.444v1.843h3.305v-1.862h1.406v1.843h2.526
			v1.368h-2.507v1.235h-1.406v-1.197H576.094z M580.615,288.133h-5.719v0.855h5.719V288.133z M574.916,290.355v0.912h5.699v-0.912
			H574.916z"/>
		<path fill="#FFFFFF" d="M585.938,292.027c2.014-0.836,3.305-2.394,3.191-3.818l-2.508-0.019v-1.368l2.488-0.019l-0.019-2.603
			h-2.032v-1.368h9.118v1.368l-1.614,0.019l-0.02,2.584h2.203v1.387l-2.184,0.019v3.875h-1.444v-3.894h-2.583
			c-0.058,1.824-0.836,3.628-3.516,4.863L585.938,292.027z M601.059,295.029h-6.003v1.691l7.865,0.019v1.368l-16.983,0.019v-1.387
			l7.713-0.019l-0.02-1.672l-5.889-0.019v-1.368h5.908v-1.482l1.424,0.019v1.463h5.966L601.059,295.029z M590.535,284.2l0.019,2.622
			h2.564V284.2H590.535z M598.457,283.137l0.019,6.782h-1.444v-6.782H598.457z M597.297,290.887c1.008,0.057,1.748,0.133,2.395,0
			c0.266,0.019,0.322-0.342,0.322-0.532v-8.416h1.444v8.872c0,0.722-0.38,1.52-1.292,1.52h-2.261L597.297,290.887z"/>
		<path fill="#FFFFFF" d="M618.426,296.739c0.36,0,0.721-0.19,0.836-0.532c0.284-0.855,0.455-1.52,0.607-2.622l1.425,0.532
			c-0.209,1.235-0.38,2.375-1.083,3.344c-0.38,0.437-0.779,0.608-1.52,0.703h-3.553c-1.14,0-2.185-0.835-2.185-1.957v-3.552
			c-0.817,0.513-1.614,0.931-2.964,1.462l-0.684-0.741l-0.02,5.642h-1.463v-9.688l-0.019,0.266c-0.513,0.703-1.159,1.463-1.88,2.014
			l-1.312-0.988c2.717-2.356,4.046-5.281,5.148-8.568l1.272,0.608c-0.494,1.634-1.063,3.21-1.748,4.578l0.02,5.49
			c1.482-0.608,2.564-1.063,3.647-1.729v-8.587h1.463v7.789c2.089-1.463,3.306-2.755,4.578-4.351l1.254,0.855
			c-1.919,2.375-3.876,4.065-5.832,5.224v4.027c0,0.475,0.323,0.779,1.045,0.779H618.426z"/>
		<path fill="#FFFFFF" d="M529.09,320.678v-1.387h5.547v-14.02h1.481v14.02h2.204v-14.02h1.424v14.02h5.51v1.387H529.09z
			 M532.072,317.354c-0.096-2.583-0.969-5.224-1.92-7.371l1.235-0.589c0.97,2.127,1.862,4.787,2.128,7.333L532.072,317.354z
			 M541.703,317.582l-1.216-0.741c1.312-1.729,2.224-5.129,2.356-7.409l1.311,0.475
			C543.773,312.889,542.957,315.644,541.703,317.582z"/>
		<path fill="#FFFFFF" d="M564.085,314.257c-2.735-0.589-5.319-1.33-7.562-2.66c-2.165,1.444-5.527,2.413-8.453,2.869l-0.589-1.368
			c2.279-0.38,4.274-0.893,6.231-1.615c0.512-0.247,1.12-0.551,1.5-0.76c-0.816-0.627-1.899-1.273-2.564-2.185
			c-0.836,0.988-2.052,2.014-3.477,2.583l-1.082-1.311c2.925-1.083,4.33-2.774,5.224-5.11l1.254,0.703
			c-0.209,0.475-0.399,0.817-0.456,0.931h7.124v1.272c-1.121,1.387-2.261,2.28-3.438,3.135c0.247,0.19,0.836,0.38,1.367,0.646
			c1.786,0.665,3.667,1.178,5.852,1.596L564.085,314.257z M561.102,320.374c-0.189,0.589-0.684,1.102-1.234,1.254
			c-0.836,0.247-1.69-0.019-2.564-0.152l-0.361-1.653c1.008,0.285,1.729,0.57,2.508,0.456c0.438-0.285,0.475-0.817,0.57-1.368
			c0.171-1.026,0.38-2.337,0.418-2.945h-4.104c-0.304,1.634-1.576,3.191-3.115,4.198c-1.141,0.76-3.191,1.368-4.427,1.596
			c-0.266-0.475-0.513-0.855-0.76-1.425c2.413-0.38,4.654-0.95,6.099-2.85c0.398-0.513,0.607-1.083,0.721-1.52h-5.433v-1.387h5.661
			c0.057-0.456,0-0.798,0.057-1.653l1.406,0.19c-0.02,0.722,0.038,1.045-0.02,1.463h5.396
			C561.881,316.689,561.653,318.626,561.102,320.374z M553.637,307.722c0.76,0.912,1.785,1.52,2.85,2.204
			c1.025-0.665,2.051-1.444,2.773-2.204H553.637z"/>
		<path fill="#FFFFFF" d="M569.749,313.269c-0.627-1.33-1.748-2.279-3.173-2.754l1.102-1.045c1.368,0.456,2.508,1.615,3.249,2.907
			L569.749,313.269z M571.459,314.447c-0.494,2.545-1.273,5.034-3.287,6.991l-1.254-0.931c1.938-1.672,2.869-4.084,3.23-6.611
			L571.459,314.447z M570.509,308.9c-0.627-1.216-1.653-1.938-2.964-2.336l1.064-1.026c1.215,0.323,2.203,1.234,3.02,2.317
			L570.509,308.9z M570.033,320.545c4.027-1.501,3.174-4.845,3.287-7.01l1.425-0.019c0,2.831,0.476,6.497-3.667,8.264
			L570.033,320.545z M581.755,313.383c-0.228-0.532-0.493-0.931-0.684-1.197c-2.926,0.247-6.573,0.684-8.473,1.064l-0.95-1.273
			c1.425-0.589,3.154-1.9,3.971-3.818h-3.914v-1.387h4.863c-0.36-0.494-1.045-1.025-2.07-1.443l1.216-0.874
			c1.007,0.342,1.823,1.159,2.413,2.109l-0.305,0.171l5.32,0.038v1.387h-5.928c-0.532,1.044-1.197,2.375-2.394,3.324l5.224-0.513
			c-0.228-0.228-0.778-0.551-1.633-0.855l1.405-0.95c1.235,0.684,2.526,1.938,3.21,3.362L581.755,313.383z M576.246,321.4v-7.94
			h1.443v7.94H576.246z M581.014,319.196c-0.076,0.627,1.064,0.627,1.197,0.304c0.189-0.285,0.342-1.558,0.361-2.451l1.367,0.494
			c-0.057,0.855-0.189,1.596-0.398,2.299c-0.172,0.532-0.665,1.083-1.254,1.14c-0.798,0.076-2.717,0.228-2.717-1.558v-5.965h1.443
			V319.196z"/>
		<path fill="#FFFFFF" d="M588.673,309.565l0.019-2.166c-0.607,0.152-1.463,0.418-2.355,0.513l-0.664-1.349
			c1.975-0.247,4.539-0.798,6.23-1.615l0.912,1.025c-0.95,0.513-1.938,0.855-2.736,1.102v2.489h2.338v1.349h-2.338v1.558
			l0.514-0.418c0.988,0.969,1.52,1.653,2.336,2.907l-1.234,0.912c-0.456-1.026-1.178-1.995-1.615-2.394v8.302h-1.405v-7.371
			c-0.418,1.387-1.235,2.716-2.299,4.122l-1.063-1.025c1.367-1.653,2.678-4.009,3.305-6.592h-2.678v-1.349H588.673z
			 M592.244,313.535v-1.33h9.518v1.33h-4.047v2.185h4.066v1.349h-4.066v2.375h4.826v1.33h-10.98v-1.33h4.692v-2.375h-3.913v-1.349
			h3.913v-2.185H592.244z M593.061,305.538h7.979v5.794h-7.979V305.538z M599.615,309.983v-3.116h-5.129v3.116H599.615z"/>
		<path fill="#FFFFFF" d="M618.426,319.539c0.36,0,0.721-0.19,0.836-0.532c0.284-0.855,0.455-1.52,0.607-2.622l1.425,0.532
			c-0.209,1.235-0.38,2.375-1.083,3.344c-0.38,0.437-0.779,0.608-1.52,0.703h-3.553c-1.14,0-2.185-0.835-2.185-1.957v-3.552
			c-0.817,0.513-1.614,0.931-2.964,1.462l-0.684-0.741l-0.02,5.642h-1.463v-9.688l-0.019,0.266c-0.513,0.703-1.159,1.463-1.88,2.014
			l-1.312-0.988c2.717-2.356,4.046-5.281,5.148-8.568l1.272,0.608c-0.494,1.634-1.063,3.21-1.748,4.578l0.02,5.49
			c1.482-0.608,2.564-1.063,3.647-1.729v-8.587h1.463v7.789c2.089-1.463,3.306-2.755,4.578-4.351l1.254,0.855
			c-1.919,2.375-3.876,4.065-5.832,5.224v4.027c0,0.475,0.323,0.779,1.045,0.779H618.426z"/>
		<path fill="#FFFFFF" d="M536.574,339.071c-1.406,2.185-4.217,3.667-7.01,4.54c-0.285-0.399-0.551-0.76-0.855-1.292
			c2.508-0.741,4.807-1.805,6.213-3.572h-5.377v-1.425h7.067v-1.767h1.52v1.767h6.839v1.425h-5.167
			c0.247,0.304,0.836,0.722,1.387,1.159c1.481,0.969,3.04,1.729,4.939,2.204c-0.361,0.551-0.608,0.893-0.95,1.311
			c-2.793-0.817-5.566-2.299-7.01-4.407l-0.038,5.49h-1.558V339.071z M533.896,331.092c-0.133,2.622-1.881,4.578-3.876,5.737
			l-1.12-1.121c1.368-0.912,3.134-2.127,3.533-4.616h-2.583v-1.425h2.678c0.02-0.646,0.076-1.349,0.096-2.127h1.424
			c0.02,0.874-0.057,1.558-0.075,2.127h3.306c-0.02,1.596-0.076,2.963-0.209,4.407c-0.096,0.38-0.096,0.912-0.438,1.292
			c-0.684,0.969-2.014,0.646-3.021,0.57l-0.569-1.577c0.873,0.133,1.481,0.285,2.108,0.285c0.133-0.019,0.267-0.133,0.342-0.228
			c0.133-0.722,0.285-2.299,0.342-3.325H533.896z M544.325,328.623l-0.019,7.352h-1.426v-1.083h-3.077l-0.019,1.14h-1.444v-7.409
			H544.325z M539.804,330.047v3.458h3.059l0.019-3.438L539.804,330.047z"/>
		<path fill="#FFFFFF" d="M552.819,333.999c1.083,1.044,1.881,1.805,2.241,3.059l-1.215,0.741c-0.456-1.216-1.026-1.9-1.52-2.299
			v8.872H550.9v-7.656c-0.209,0.646-0.873,2.09-2.051,3.458l-1.178-0.893c1.729-1.881,2.525-3.99,2.943-6.269l0.096-0.532h-2.318
			v-1.387h2.489v-3.686h1.444v3.686h2.165v1.368h-2.165v1.824L552.819,333.999z M562.432,339.185
			c0.133-0.893,0.209-1.843,0.248-2.754l0.133-3.21l0.057-2.204h-6.193c-0.361,1.273-0.969,2.603-1.899,3.914l-1.254-0.836
			c1.481-2.014,2.165-4.217,2.374-6.839l1.368,0.456c-0.019,0.836-0.19,1.425-0.284,1.938h7.295l-0.039,4.616
			c-0.037,2.394-0.266,4.75-0.627,7.048c-0.113,0.741-0.284,1.577-0.646,2.298c-0.437,0.646-1.178,0.912-1.919,0.741
			c-0.379-0.076-0.74-0.171-1.215-0.323l-0.476-1.691c0.894,0.247,1.444,0.627,2.09,0.646c0.133-0.019,0.418-0.095,0.532-0.817
			L562.432,339.185z M559.203,332.897c-0.514,1.938-1.026,3.762-2.071,5.338l-0.589,0.893c1.007-0.171,2.336-0.361,3.553-0.608
			c-0.114-0.323-0.475-0.722-0.855-1.33l1.178-0.646c1.045,1.216,1.577,2.432,1.768,4.104l-1.387,0.722
			c-0.076-0.722-0.133-1.235-0.248-1.5c-1.52,0.228-3.077,0.494-4.635,1.063l-1.273-1.368c1.539-2.28,2.717-4.54,3.135-7.352
			L559.203,332.897z"/>
		<path fill="#FFFFFF" d="M573.264,337.152v1.292c-1.463,0.361-3.705,0.817-5.604,1.406l-0.685-1.273
			c1.141-1.14,2.166-2.299,2.717-3.116c-0.17,0.019-1.291,0.285-2.07,0.551l-0.722-1.311c0.95-1.5,2.279-4.426,3.191-6.782
			l1.292,0.589c-0.57,1.33-2.033,4.521-2.755,5.775c0.304-0.038,1.387-0.285,1.995-0.418c0.418-0.608,0.836-1.387,1.272-2.261
			l1.349,0.608c-1.121,2.242-2.279,4.18-4.008,5.775L573.264,337.152z M567.032,341.883c2.299-0.722,4.009-1.197,6.649-2.109v1.425
			l-5.946,1.995L567.032,341.883z M572.199,343.498v-1.349h2.166v-13.545h6.82v13.545h2.203v1.349H572.199z M575.79,329.953v3.001
			h3.97v-3.001H575.79z M575.79,337.418h3.97v-3.154h-3.97V337.418z M579.76,342.148v-3.438h-3.97v3.438H579.76z"/>
		<path fill="#FFFFFF" d="M585.672,336.431c2.203-2.66,3.609-5.661,4.236-9.005l1.367,0.285c-0.304,1.558-0.646,3.021-1.178,4.312
			v12.481l-1.463,0.019v-9.784c-0.285,0.456-0.855,1.311-1.729,2.564L585.672,336.431z M590.801,337.779l0.019-1.444h5.281
			l0.019-3.761l-2.564-0.019c-0.398,0.931-0.912,1.976-1.652,3.059l-1.33-0.665c1.406-1.881,2.128-3.724,2.432-6.193l1.311,0.417
			c-0.037,0.76-0.151,1.482-0.284,1.957l2.07-0.019l0.019-3.762l1.521,0.019v3.743l3.933,0.019v1.444l-3.933-0.019v3.78l5.224-0.019
			v1.444l-5.224,0.019l-0.019,6.63h-1.521l0.019-6.63H590.801z"/>
		<path fill="#FFFFFF" d="M618.426,342.338c0.36,0,0.721-0.19,0.836-0.532c0.284-0.855,0.455-1.52,0.607-2.622l1.425,0.532
			c-0.209,1.235-0.38,2.375-1.083,3.344c-0.38,0.437-0.779,0.608-1.52,0.703h-3.553c-1.14,0-2.185-0.835-2.185-1.957v-3.552
			c-0.817,0.513-1.614,0.931-2.964,1.462l-0.684-0.741l-0.02,5.642h-1.463v-9.688l-0.019,0.266c-0.513,0.703-1.159,1.463-1.88,2.014
			l-1.312-0.988c2.717-2.356,4.046-5.281,5.148-8.568l1.272,0.608c-0.494,1.634-1.063,3.21-1.748,4.578l0.02,5.49
			c1.482-0.608,2.564-1.063,3.647-1.729v-8.587h1.463v7.789c2.089-1.463,3.306-2.755,4.578-4.351l1.254,0.855
			c-1.919,2.375-3.876,4.065-5.832,5.224v4.027c0,0.475,0.323,0.779,1.045,0.779H618.426z"/>
		<path fill="#FFFFFF" d="M528.994,353.987c1.539-0.988,2.394-2.375,3.097-3.895c0.456,0.209,0.778,0.38,1.235,0.589
			c-0.209,0.475-0.418,0.893-0.476,1.045h4.921v1.349l-2.869,0.019c0.076,0.095,0.342,0.665,0.646,1.121l-1.293,0.703
			c-0.322-0.76-0.646-1.33-1.082-1.824h-1.102c-0.457,0.627-1.026,1.254-1.995,1.918L528.994,353.987z M529.773,355.051h6.972
			c-0.133-0.266-0.513-0.741-1.083-1.292l1.368-0.437c0.608,0.608,1.063,1.387,1.292,1.729h6.801v3.572l-1.443-0.019V356.4h-12.463
			l-0.02,2.298l-1.424-0.019V355.051z M533.763,367.342h-1.501l0.02-9.974h10.221l0.018,3.875l-8.795,0.019v0.95h9.631v5.072h-1.462
			v-1.121h-8.149L533.763,367.342z M533.725,359.895h7.352l-0.019-1.178h-7.333V359.895z M533.744,363.6l0.019,1.254l8.131-0.019
			v-1.273L533.744,363.6z M542.615,352.999c0.113,0.114,0.551,0.57,0.874,1.159c-0.418,0.266-0.798,0.456-1.292,0.665
			c-0.361-0.76-0.74-1.349-1.234-1.805h-1.254c-0.247,0.418-0.608,1.007-1.141,1.463c-0.398-0.304-0.703-0.494-1.121-0.817
			c1.026-1.102,1.559-2.204,1.881-3.609l1.273,0.475c-0.076,0.494-0.189,0.912-0.266,1.121h5.186v1.349H542.615z"/>
		<path fill="#FFFFFF" d="M548.735,364.834c-0.399-0.361-0.761-0.646-1.254-1.14c1.178-0.342,2.052-0.703,2.868-1.007v-4.389h-1.938
			l0.02-1.349l1.881,0.019l0.019-3.762l-2.28,0.019v-1.387l5.89,0.019v1.349h-2.108l-0.02,3.762l1.861-0.019v1.349h-1.861v3.837
			c0.551-0.209,1.368-0.589,2.299-0.931v1.425L548.735,364.834z M563.629,351.347l-0.038,8.264h-3.856v1.824h3.742v1.368h-3.78
			v2.185h5.072v1.349h-11.531v-1.349h4.997l0.019-2.185h-3.8v-1.368h3.781l0.019-1.824h-3.933v-8.283L563.629,351.347z
			 M558.234,354.728l0.019-2.014l-2.489-0.019v2.033H558.234z M555.764,356.077v2.185h2.471l0.019-2.204L555.764,356.077z
			 M559.715,356.096v2.147l2.451,0.019v-2.146L559.715,356.096z M559.754,354.747h2.432l0.037-2.033l-2.488-0.019L559.754,354.747z"
			/>
		<path fill="#FFFFFF" d="M566.614,358.623c1.995-2.109,3.534-5.585,4.351-8.207l1.387,0.494c-0.418,1.311-0.874,2.622-1.425,3.761
			v12.709h-1.425v-10.144c-0.209,0.38-0.836,1.33-1.615,2.241L566.614,358.623z M576.303,350.112c0.912,0.532,1.861,1.5,2.488,2.451
			l-0.418,0.475h5.453v1.368l-12.102-0.019v-1.33l5.719-0.019c-0.343-0.57-1.217-1.368-2.186-1.995L576.303,350.112z
			 M572.77,357.254v-1.368h9.594v1.368H572.77z M572.77,360.009v-1.368l9.612-0.019l-0.019,1.387H572.77z M574.365,367.342h-1.35
			l-0.018-5.833h9.1v5.794l-1.35,0.019l0.02-1.102h-6.383L574.365,367.342z M574.385,365.024l6.383-0.038v-2.242h-6.422
			L574.385,365.024z"/>
		<path fill="#FFFFFF" d="M585.633,364.986c1.387-0.684,2.564-1.634,3.344-2.944l1.083,0.779c-0.778,1.349-2.09,2.508-3.419,3.229
			L585.633,364.986z M595.664,350.739c-0.361,0.589-0.741,1.044-0.912,1.216l4.768-0.019l0.02,8.872l-10.752,0.019v-8.872
			l4.198-0.019c0.475-0.456,1.007-1.159,1.387-1.9L595.664,350.739z M590.211,354.386l7.885,0.019v-1.083h-7.885V354.386z
			 M590.211,355.735v1.159h7.885v-1.14L590.211,355.735z M590.211,358.224v1.235l7.885-0.019v-1.216H590.211z M598.779,363.542
			c-0.74,2.622-1.083,2.964-2.014,2.964l-4.654,0.019c-1.349,0-1.596-0.665-1.596-1.729v-2.925l1.463,0.019v2.678
			c0,0.342,0.171,0.57,0.455,0.57h4.047c0.438,0,0.494-0.551,0.95-1.767L598.779,363.542z M595.474,364.284
			c-0.931-1.083-1.919-1.767-3.249-2.242l0.932-1.026c1.254,0.418,2.355,1.178,3.287,2.28L595.474,364.284z M601.629,365.841
			c-0.76-1.368-1.938-2.413-3.438-3.001l1.12-0.874c1.406,0.551,2.66,1.691,3.534,3.04L601.629,365.841z"/>
		<path fill="#FFFFFF" d="M618.426,365.138c0.36,0,0.721-0.19,0.836-0.532c0.284-0.855,0.455-1.52,0.607-2.622l1.425,0.532
			c-0.209,1.235-0.38,2.375-1.083,3.344c-0.38,0.437-0.779,0.608-1.52,0.703h-3.553c-1.14,0-2.185-0.835-2.185-1.957v-3.552
			c-0.817,0.513-1.614,0.931-2.964,1.462l-0.684-0.741l-0.02,5.642h-1.463v-9.688l-0.019,0.266c-0.513,0.703-1.159,1.463-1.88,2.014
			l-1.312-0.988c2.717-2.356,4.046-5.281,5.148-8.568l1.272,0.608c-0.494,1.634-1.063,3.21-1.748,4.578l0.02,5.49
			c1.482-0.608,2.564-1.063,3.647-1.729v-8.587h1.463v7.789c2.089-1.463,3.306-2.755,4.578-4.351l1.254,0.855
			c-1.919,2.375-3.876,4.065-5.832,5.224v4.027c0,0.475,0.323,0.779,1.045,0.779H618.426z"/>
		<path fill="#FFFFFF" d="M545.465,388.509c-0.152,0.456-0.342,1.121-0.912,1.349c-0.475,0.19-1.121-0.133-1.463-0.551
			c-1.69-2.052-2.032-5.11-2.166-7.39c-0.133-1.976-0.075-3.97-0.094-6.687h-8.34v6.63c0,2.944-1.008,6.383-2.964,8.188
			l-1.216-1.007c1.748-1.672,2.735-4.332,2.735-7.542v-7.656h11.228v6.554c0,2.792,0.513,5.889,1.861,7.846l0.266-1.577l1.312,0.76
			L545.465,388.509z M539.519,387.806c-0.589-1.748-1.614-3.571-2.355-4.578c-0.703,0.988-2.128,2.906-3.895,4.597l-1.159-1.045
			c1.426-1.026,3.572-3.78,4.236-4.692c-0.873-1.235-2.393-2.812-3.533-3.894l0.969-0.874c1.083,0.95,2.413,2.28,3.344,3.458
			c0.322-0.418,1.443-2.47,2.033-3.933l1.196,0.684c-0.437,1.121-1.596,3.496-2.337,4.445c0.969,1.33,2.223,3.229,2.793,5.091
			L539.519,387.806z"/>
		<path fill="#FFFFFF" d="M551.793,388.546c0,0.874-0.569,1.52-1.614,1.577l-1.614,0.076l-0.59-1.577
			c0.875,0.095,1.254,0.133,1.9,0.076c0.189,0,0.456-0.095,0.456-0.342v-4.597l-2.166,0.95l-0.95-1.197
			c0.855-0.399,1.881-0.779,3.002-1.349v-3.933h-2.394v-1.368h2.432v-3.628h1.463v3.628h1.634v1.368h-1.634v3.249l1.843-0.874v1.462
			l-1.768,0.893V388.546z M563.307,382.505v1.368h-3.971v3.856h5.091v1.368h-11.646v-1.368h5.092v-3.856h-4.027v-1.368H563.307z
			 M559.088,375.325l4.617,0.038v3.951h-1.443v-2.583h-7.086v2.641h-1.444v-4.008h4.578c-0.437-0.627-1.254-1.235-2.128-1.577
			l1.064-0.969c1.045,0.513,1.918,1.197,2.603,1.995L559.088,375.325z M553.922,381.347c1.69-1.007,2.641-2.109,2.85-3.818
			l1.311,0.456c-0.285,1.709-1.217,3.343-2.964,4.255L553.922,381.347z M559.943,377.528c1.234,0.836,2.621,2.375,3.191,3.515
			l-1.272,0.969c-0.589-1.387-1.539-2.792-2.926-3.609L559.943,377.528z"/>
		<path fill="#FFFFFF" d="M572.408,373.672c-0.304,1.862-0.722,3.21-1.424,4.73v11.588h-1.463v-9.023
			c-0.039,0.057-1.141,1.482-1.729,2.033c-0.532-0.304-0.702-0.551-1.272-0.855c2.241-1.957,3.895-5.813,4.635-9.081
			L572.408,373.672z M581.28,385.032v1.387h-3.059l-0.019,3.647l-1.426-0.019v-3.628h-3.02l-0.02-1.387h3.021v-5.927
			c-0.399,1.843-1.919,5.187-4.769,7.428l-1.045-1.063c1.672-1.52,2.964-3.116,3.629-4.92c0.304-0.855,0.551-1.691,0.74-2.375
			l-3.57-0.019v-1.368l5.033-0.019v-3.667h1.426v3.686h5.166l0.02,1.387h-3.762c0.342,1.272,0.76,2.773,1.52,4.103
			c0.685,1.178,1.805,2.204,3.021,3.135c-0.381,0.418-0.684,0.741-1.083,1.121c-2.108-1.615-3.628-3.723-4.313-6.25l-0.532-1.957
			l-0.037,6.706H581.28z"/>
		<path fill="#FFFFFF" d="M586.165,387.92c1.919-0.741,3.647-1.577,4.921-3.306l1.063,0.95c-1.196,1.691-3.495,2.926-5.034,3.534
			L586.165,387.92z M600.508,384.937c-0.304-0.532-0.684-1.406-1.102-1.824l-4.274,0.494l-0.038,4.901
			c0,0.589-0.398,1.159-0.931,1.425c-0.589,0.19-1.823,0.152-2.717,0.133l-0.551-1.463c0.95,0.076,1.596,0.152,2.28,0.095
			c0.266-0.019,0.455-0.228,0.455-0.589v-4.37l-5.167,0.589c-0.304-0.456-0.589-0.798-0.874-1.349
			c2.527-0.931,4.408-1.881,6.479-3.135l-5.357,0.57l-0.816-1.235c1.747-0.684,4.197-2.223,5.109-3.325c0,0-2.982,0.266-5.775,0.361
			l-0.684-1.444c2.584-0.019,4.959-0.076,7.219-0.342c2.204-0.266,4.369-0.722,6.479-1.406l1.007,1.216
			c-2.45,0.76-4.845,1.159-6.953,1.463c-0.038-0.038,0.228,0.076,0.569,0.342c-1.253,1.444-2.469,2.185-3.609,2.717l4.883-0.475
			c0.57-0.456,1.273-1.311,1.861-2.014l1.293,0.76c-1.957,2.622-4.959,4.541-7.694,5.566l6.649-0.646
			c-0.19-0.19-0.703-0.418-1.426-0.817l1.083-0.817c1.597,0.627,2.983,2.052,3.78,3.571L600.508,384.937z M597.582,384.367
			c1.577,0.551,3.818,1.957,5.054,3.325l-1.063,1.102c-1.273-1.406-2.869-2.679-4.939-3.286L597.582,384.367z"/>
		<path fill="#FFFFFF" d="M618.426,387.939c0.36,0,0.721-0.19,0.836-0.532c0.284-0.855,0.455-1.52,0.607-2.622l1.425,0.532
			c-0.209,1.235-0.38,2.375-1.083,3.344c-0.38,0.437-0.779,0.608-1.52,0.703h-3.553c-1.14,0-2.185-0.835-2.185-1.957v-3.552
			c-0.817,0.513-1.614,0.931-2.964,1.462l-0.684-0.741l-0.02,5.642h-1.463v-9.688l-0.019,0.266c-0.513,0.703-1.159,1.463-1.88,2.014
			l-1.312-0.988c2.717-2.356,4.046-5.281,5.148-8.568l1.272,0.608c-0.494,1.634-1.063,3.21-1.748,4.578l0.02,5.49
			c1.482-0.608,2.564-1.063,3.647-1.729v-8.587h1.463v7.789c2.089-1.463,3.306-2.755,4.578-4.351l1.254,0.855
			c-1.919,2.375-3.876,4.065-5.832,5.224v4.027c0,0.475,0.323,0.779,1.045,0.779H618.426z"/>
		<path fill="#FFFFFF" d="M522.268,404.051c-0.722-1.234-1.729-2.241-3.153-2.716l1.121-0.969c1.292,0.532,2.317,1.539,3.153,2.754
			L522.268,404.051z M519.551,411.441c1.463-1.881,2.146-3.914,2.527-6.25l1.272,0.475c-0.437,2.355-1.14,4.616-2.583,6.592
			L519.551,411.441z M523.332,399.929c-0.703-1.197-1.768-2.052-3.154-2.489l1.064-1.026c1.234,0.475,2.355,1.406,3.172,2.583
			L523.332,399.929z M533.895,410.302c-0.229,1.387-0.779,1.976-1.273,2.26c-0.798,0.437-1.861,0.247-3.609-0.057l-0.322-1.501
			c1.006,0.171,1.823,0.437,2.659,0.456c0.304,0.019,0.532-0.057,0.722-0.247c0.209-0.266,0.285-0.589,0.342-0.912h-8.511
			c0.646-1.577,1.026-3.097,1.216-4.445h-1.576v-1.368l1.709,0.019c0.133-0.912,0.285-2.451,0.323-3.552
			c-0.36,0.437-0.741,0.893-1.272,1.368l-1.35-0.76c1.824-1.653,3.249-3.572,3.629-5.927l1.234,0.551
			c-0.037,0.57-0.189,0.95-0.266,1.292h8.587v1.387l-9.176,0.019c-0.266,0.551-0.665,1.083-0.911,1.425h9.08
			c-0.038,1.52-0.209,3.021-0.322,4.198l1.671,0.019v1.349h-1.805c-0.151,0.969-0.342,2.108-0.493,3.077h1.52v1.368L533.895,410.302
			z M528.119,405.856h-1.463c-0.114,0.703-0.342,2.051-0.627,3.058h4.787c-1.121-1.063-2.166-1.823-3.818-2.032L528.119,405.856z
			 M531.121,404.488c-1.045-0.931-2.109-1.539-3.686-1.729l1.196-1.007c1.387,0.266,2.47,0.874,3.628,1.843l-0.836,0.912
			l1.881-0.019c0.114-0.836,0.248-1.88,0.305-2.812h-6.555l-0.285,2.831L531.121,404.488z M528.328,405.856
			c1.349,0.342,2.469,1.121,3.533,2.185l-0.874,0.874h1.634c0.189-0.95,0.438-2.07,0.532-3.058H528.328z"/>
		<path fill="#FFFFFF" d="M546.245,399.226v-3.229h1.368v3.229h6.136v12.177c0,0.722-0.456,0.988-0.987,1.159
			c-0.494,0.152-1.254,0.095-2.147,0.076l-0.551-1.406c0.817,0.057,1.254,0.114,1.823,0.076c0.342-0.076,0.476-0.171,0.476-0.494
			v-10.22h-4.807c0,0.741-0.038,1.577-0.114,2.336c1.748,1.349,2.907,2.736,4.18,4.863l-1.158,0.874
			c-0.912-1.596-2.262-3.116-3.458-4.18c-0.646,1.501-2.052,3.306-4.427,4.579l-0.873-1.216c3.646-2.014,4.445-3.99,4.445-7.257
			h-4.92v12.272h-1.406v-13.64H546.245z"/>
		<path fill="#FFFFFF" d="M557.456,411.783c2.166-1.272,4.236-3.001,5.566-4.958c-0.532-0.608-1.558-1.387-2.659-2.033l1.139-1.121
			c0.932,0.608,1.805,1.292,2.356,1.957c0.798-1.368,1.481-3.515,1.767-5.262h-3.4c-0.684,1.539-1.71,3.268-3.002,4.673
			l-1.349-0.741c2.147-2.298,3.818-5.471,3.762-8.682l1.481,0.323c-0.076,1.443-0.246,2.279-0.418,3.021l4.617-0.019
			c-0.627,7.276-4.427,11.512-8.777,13.944L557.456,411.783z M573.318,406.92c-0.836-1.938-2.355-3.761-3.704-4.844l0.019,10.81
			h-1.48v-17.002l1.48-0.019l-0.019,5.509l0.761-0.494c1.234,0.779,3.59,3.325,4.255,5.167L573.318,406.92z"/>
		<path fill="#FFFFFF" d="M577.615,403.311h14.723v1.577l-14.723,0.019V403.311z"/>
		<path fill="#FFFFFF" d="M600.908,396.472c-0.304,1.862-0.722,3.21-1.424,4.73v11.588h-1.463v-9.023
			c-0.039,0.057-1.141,1.482-1.729,2.033c-0.532-0.304-0.702-0.551-1.272-0.855c2.241-1.957,3.895-5.813,4.635-9.081
			L600.908,396.472z M609.78,407.832v1.387h-3.059l-0.019,3.647l-1.426-0.019v-3.628h-3.02l-0.02-1.387h3.021v-5.927
			c-0.399,1.843-1.919,5.187-4.769,7.428l-1.045-1.063c1.672-1.52,2.964-3.116,3.629-4.92c0.304-0.855,0.551-1.691,0.74-2.375
			l-3.57-0.019v-1.368l5.033-0.019v-3.667h1.426v3.686h5.166l0.02,1.387h-3.762c0.342,1.272,0.76,2.773,1.52,4.103
			c0.685,1.178,1.805,2.204,3.021,3.135c-0.381,0.418-0.684,0.741-1.083,1.121c-2.108-1.615-3.628-3.723-4.313-6.25l-0.532-1.957
			l-0.037,6.706H609.78z"/>
		<path fill="#FFFFFF" d="M627.926,410.739c0.36,0,0.721-0.19,0.836-0.532c0.284-0.855,0.455-1.52,0.607-2.622l1.425,0.532
			c-0.209,1.235-0.38,2.375-1.083,3.344c-0.38,0.437-0.779,0.608-1.52,0.703h-3.553c-1.14,0-2.185-0.835-2.185-1.957v-3.552
			c-0.817,0.513-1.614,0.931-2.964,1.462l-0.684-0.741l-0.02,5.642h-1.463v-9.688l-0.019,0.266c-0.513,0.703-1.159,1.463-1.88,2.014
			l-1.312-0.988c2.717-2.356,4.046-5.281,5.148-8.568l1.272,0.608c-0.494,1.634-1.063,3.21-1.748,4.578l0.02,5.49
			c1.482-0.608,2.564-1.063,3.647-1.729v-8.587h1.463v7.789c2.089-1.463,3.306-2.755,4.578-4.351l1.254,0.855
			c-1.919,2.375-3.876,4.065-5.832,5.224v4.027c0,0.475,0.323,0.779,1.045,0.779H627.926z"/>
	</g>
</g>
</svg>
