<?xml version="1.0" encoding="utf-8"?>
<!-- Generator: Adobe Illustrator 16.0.0, SVG Export Plug-In . SVG Version: 6.00 Build 0)  -->
<!DOCTYPE svg PUBLIC "-//W3C//DTD SVG 1.1//EN" "http://www.w3.org/Graphics/SVG/1.1/DTD/svg11.dtd">
<svg version="1.1" id="Layer_1" xmlns="http://www.w3.org/2000/svg" xmlns:xlink="http://www.w3.org/1999/xlink" x="0px" y="0px"
	 width="768px" height="1024px" viewBox="0 0 768 1024" enable-background="new 0 0 768 1024" xml:space="preserve">
<g>
	<line fill="none" stroke="#58B3E0" stroke-miterlimit="10" x1="146.3" y1="714.842" x2="114.827" y2="759.797"/>
	<g>
		<path fill="#58B5E1" d="M157.631,745.377h-7.219c-2.223,0-4.293-0.531-5.889-1.805c-0.418,0.684-1.539,1.919-2.166,2.527
			l-1.083-1.045c0.912-0.894,1.671-1.691,2.204-2.527c-0.722-0.798-1.292-1.881-1.843-3.021l1.159-0.665
			c0.494,0.912,0.931,1.919,1.425,2.47c0.722-1.329,0.779-2.432,0.874-3.419h-3.229v-1.197c1.368-1.425,2.488-3.097,3.134-4.559
			h-3.458l0.019-1.388l4.978,0.019l0.019,1.254c-0.608,1.444-1.52,3.098-2.736,4.484l2.717,0.019
			c-0.019,1.12-0.152,3.458-1.33,5.813c1.805,1.69,4.464,1.748,7.2,1.69c1.5-0.019,3.723-0.076,5.794-0.19L157.631,745.377z
			 M150.868,743.725v-1.786h-4.312v-1.387h4.293l0.019-1.12h-3.59v-1.369h3.571l0.019-1.12h-3.229v-1.387h3.229l-0.019-1.14
			l-4.464-0.02v-1.367l4.464-0.02v-1.025h-3.21v-1.368l3.21-0.019v-1.482h1.444l0.019,1.482l4.123,0.019v2.413h1.235v1.367h-1.235
			v2.546l-4.142-0.019v1.139l4.37-0.019v1.388h-4.351l-0.019,1.12h5.396l0.019,1.387l-5.414-0.019l0.019,1.805H150.868z
			 M152.292,731.984v1.045h2.698v-1.045H152.292z M154.99,735.556v-1.159l-2.698,0.02v1.158L154.99,735.556z"/>
		<path fill="#58B5E1" d="M176.498,744.579h-15.521v-1.405h7.504c1.9-2.527,3.059-5.623,3.496-9.081l1.444,0.608
			c-0.475,3.191-1.615,6.154-3.249,8.473h6.326V744.579z M168.709,732.363c-0.741-1.082-1.748-2.089-3.097-2.545l1.216-0.988
			c1.292,0.494,2.375,1.596,3.21,2.793l-1.007,0.722l6.554,0.019v1.406h-13.754v-1.387L168.709,732.363z M166.372,742.451
			c-0.247-2.545-1.216-5.869-3.001-7.75l1.33-0.646c1.805,1.938,2.944,5.301,3.115,7.96L166.372,742.451z"/>
		<path fill="#58B5E1" d="M193.123,745.928v-1.33h-11.569v1.33h-1.444v-16.109h14.362v16.109H193.123z M193.123,731.205h-11.569
			v12.082h11.569V731.205z M181.934,741.92v-1.311h4.598v-3.23h-3.781v-1.311h3.781v-2.412h-4.426v-1.312h10.353v1.312h-4.578v2.412
			h3.971v1.311h-3.971v3.23h4.769v1.311H181.934z M190.881,740.476c-0.741-0.969-1.406-1.634-2.355-2.185l0.931-0.74
			c0.798,0.475,1.824,1.215,2.432,2.203L190.881,740.476z"/>
		<path fill="#58B5E1" d="M206.101,732.383v-3.229h1.368v3.229h6.136v12.178c0,0.722-0.456,0.987-0.988,1.158
			c-0.494,0.152-1.254,0.096-2.147,0.076l-0.551-1.406c0.817,0.058,1.254,0.114,1.824,0.076c0.342-0.076,0.475-0.17,0.475-0.494
			v-10.22h-4.807c0,0.741-0.038,1.577-0.114,2.337c1.748,1.348,2.907,2.735,4.179,4.863l-1.159,0.873
			c-0.912-1.596-2.261-3.115-3.458-4.18c-0.646,1.502-2.052,3.307-4.426,4.579l-0.874-1.216c3.647-2.014,4.445-3.99,4.445-7.257
			h-4.92v12.272h-1.406v-13.641H206.101z"/>
		<path fill="#58B5E1" d="M228.559,744.199c0.912,0,2.242-0.057,2.526-0.152c0.19-0.095,0.323-0.494,0.323-0.854l0.019-11.931
			l-11.512-0.019v14.989h-1.501v-16.395h14.514l0.019,13.658c0,0.874-0.342,1.768-0.855,2.033c-0.513,0.189-2.394,0.266-3.021,0.228
			L228.559,744.199z M230.819,733.314l0.019,1.405h-10.031l0.019-1.405H230.819z M229.28,736.771v5.736h-7.219v-5.717
			L229.28,736.771z M223.505,741.103h4.35v-2.906l-4.35,0.019V741.103z"/>
		<path fill="#58B5E1" d="M236.445,745.035v-1.387h5.547v-14.02h1.482v14.02h2.204v-14.02h1.425v14.02h5.509v1.387H236.445z
			 M239.428,741.711c-0.095-2.584-0.969-5.225-1.919-7.371l1.235-0.589c0.969,2.128,1.862,4.787,2.128,7.333L239.428,741.711z
			 M249.059,741.938l-1.216-0.741c1.311-1.729,2.223-5.129,2.356-7.408l1.311,0.475C251.13,737.246,250.313,740.001,249.059,741.938
			z"/>
		<path fill="#58B5E1" d="M256.661,741.008v-8.416h6.212l-0.019-3.477h1.52l-0.038,3.457l6.193,0.02v8.34h-1.5v-1.292h-4.692
			l0.038,6.402h-1.501l-0.019-6.402H258.2l-0.038,1.368H256.661z M262.854,733.979h-4.692v4.293h4.711L262.854,733.979z
			 M268.99,733.979h-4.616v4.274h4.635L268.99,733.979z"/>
		<path fill="#58B5E1" d="M282.101,746.042v-4.503c-1.634,1.977-4.274,3.098-7.067,3.686c-0.285-0.418-0.437-0.816-0.817-1.311
			c2.489-0.418,4.749-1.443,6.174-2.641h-5.3v-1.349l6.991-0.019v-1.026h1.501v1.045h7.067v1.33l-5.415,0.019
			c0.19,0.19,0.627,0.59,1.14,0.893c1.482,0.875,3.115,1.406,5.072,1.691c-0.323,0.551-0.532,0.873-0.741,1.311
			c-2.812-0.494-5.68-1.558-7.104-3.59l-0.038,4.502L282.101,746.042z M290.08,730.939v1.367h-6.061l0.019,0.836l4.844-0.019v1.329
			h-4.863v0.76h4.92l-0.019,1.369l-4.901-0.02l0.019,0.893l6.345-0.02v1.35l-12.044-0.02l-0.019,0.932h-1.406v-5.813
			c-0.209,0.228-0.684,0.702-1.463,1.292c-0.418-0.305-0.665-0.532-1.178-0.855c1.918-1.387,3.134-3.324,4.027-5.3l1.292,0.513
			c-0.285,0.723-0.665,1.311-0.722,1.425l4.123-0.019c-0.323-0.418-1.045-0.855-1.919-1.292l1.045-0.931
			c0.855,0.342,2.108,1.272,2.603,1.918l-0.38,0.267L290.08,730.939z M278.283,736.524l0.038,0.931l4.255-0.02v-0.873
			L278.283,736.524z M282.595,735.213v-0.74h-4.255v0.74H282.595z M282.595,732.345l-4.217-0.038l0.019,0.836l4.198-0.019V732.345z"
			/>
		<path fill="#58B5E1" d="M299.828,738.576v1.291c-1.481,0.361-3.837,0.951-5.737,1.539l-0.684-1.272
			c1.14-1.14,2.166-2.299,2.717-3.153c-0.323,0.095-1.444,0.38-2.071,0.589l-0.722-1.312c0.931-1.5,2.28-4.426,3.192-6.781
			l1.292,0.589c-0.57,1.329-2.033,4.521-2.754,5.774c0.304-0.037,1.387-0.284,1.995-0.418c0.418-0.607,0.836-1.387,1.273-2.26
			l1.33,0.607c-1.121,2.242-2.261,4.18-3.989,5.775L299.828,738.576z M293.388,743.914c2.318-0.703,4.541-1.425,6.782-2.223v1.425
			l-6.061,2.108L293.388,743.914z M307.37,737.778c0.076-1.501,0.038-3.077,0.057-4.503h-4.521
			c-0.589,1.387-1.539,2.945-2.432,3.762l-1.425-0.74c2.033-1.786,3.059-4.674,3.419-7.353l1.311,0.343
			c-0.057,1.025-0.247,1.918-0.456,2.602h5.547c0,5.016-0.095,9.518-0.589,12.045c-0.19,0.969-0.931,1.842-1.919,1.994
			c-1.045,0.152-2.09-0.057-3.153-0.228l-0.437-1.653c1.159,0.248,2.127,0.418,3.115,0.494c0.399-0.038,0.76-0.304,0.931-0.664
			c0.323-0.912,0.38-2.338,0.475-4.484L307.37,737.778z M304.482,741.103c-0.399-1.88-1.69-3.173-3.115-4.103l1.178-0.817
			c1.615,0.874,2.888,2.45,3.249,3.951L304.482,741.103z"/>
		<path fill="#58B5E1" d="M325.781,743.896c0.361,0,0.722-0.19,0.836-0.532c0.285-0.855,0.456-1.52,0.608-2.621l1.425,0.531
			c-0.209,1.234-0.38,2.375-1.083,3.344c-0.38,0.438-0.779,0.607-1.52,0.703h-3.553c-1.14,0-2.185-0.836-2.185-1.957v-3.553
			c-0.817,0.514-1.615,0.932-2.963,1.463l-0.684-0.74l-0.019,5.642h-1.463v-9.688l-0.019,0.266c-0.513,0.703-1.159,1.463-1.88,2.014
			l-1.311-0.987c2.717-2.356,4.046-5.281,5.148-8.567l1.272,0.607c-0.494,1.634-1.063,3.211-1.748,4.578l0.019,5.49
			c1.482-0.607,2.564-1.063,3.647-1.729v-8.587h1.463v7.789c2.089-1.463,3.305-2.755,4.578-4.351l1.254,0.855
			c-1.919,2.374-3.875,4.064-5.832,5.224v4.027c0,0.476,0.323,0.779,1.045,0.779H325.781z"/>
		<path fill="#58B5E1" d="M334.029,733.922l0.019-2.166c-0.608,0.152-1.463,0.418-2.355,0.514l-0.665-1.35
			c1.976-0.246,4.54-0.798,6.231-1.614l0.912,1.025c-0.95,0.513-1.938,0.854-2.736,1.103v2.488h2.337v1.349h-2.337v1.558
			l0.513-0.418c0.988,0.969,1.52,1.652,2.337,2.906l-1.235,0.912c-0.456-1.025-1.178-1.994-1.615-2.394v8.302h-1.406v-7.371
			c-0.418,1.387-1.235,2.717-2.299,4.123l-1.063-1.025c1.368-1.653,2.678-4.01,3.305-6.593h-2.679v-1.349H334.029z M337.6,737.893
			v-1.33h9.518v1.33h-4.046v2.184h4.065v1.35h-4.065v2.375h4.826v1.329h-10.98v-1.329h4.692v-2.375h-3.914v-1.35h3.914v-2.184H337.6
			z M338.417,729.895h7.979v5.794h-7.979V729.895z M344.971,734.34v-3.115h-5.129v3.115H344.971z"/>
		<path fill="#58B5E1" d="M353.238,738.271c0,2.604-0.152,5.624-1.976,7.922l-1.216-0.949c0.854-1.254,1.387-2.394,1.539-3.742
			c0.114-1.121,0.171-2.279,0.171-3.439v-6.99h6.915c-0.247-0.361-0.57-0.665-1.539-1.273l1.406-0.778
			c0.57,0.569,1.558,1.52,1.881,2.052h6.288l0.019,1.349h-13.469L353.238,738.271z M364.484,740.419
			c-0.665,1.12-2.545,2.546-3.305,2.982c0.456,0.209,1.216,0.437,1.976,0.608c1.273,0.303,2.545,0.512,4.065,0.627
			c-0.228,0.588-0.532,0.911-0.779,1.348c-2.432-0.342-4.769-0.778-6.782-1.766c-0.551,0.228-1.121,0.493-1.729,0.721
			c-1.387,0.533-2.945,0.894-4.579,1.084c-0.323-0.418-0.57-0.779-1.007-1.33c2.337-0.19,4.236-0.76,5.833-1.33
			c-0.931-0.665-1.995-1.748-2.736-2.869h-1.444v-1.348l10.524,0.037L364.484,740.419z M363.23,738.196h-7.162l0.019-2.603h-2.546
			v-1.311l2.527-0.02v-1.463h1.501v1.463h4.179v-1.482h1.482v1.482h3.096v1.349h-3.096V738.196z M357.189,740.494
			c0.95,1.064,1.501,1.559,2.47,2.186c1.159-0.627,2.242-1.292,3.078-2.166L357.189,740.494z M357.626,736.885l4.104-0.019
			l0.019-1.254h-4.161L357.626,736.885z"/>
		<path fill="#58B5E1" d="M369.977,737.037c0.798-1.387,1.216-2.564,1.539-3.951h-2.166v-1.367h2.47
			c0.171-0.646,0.266-1.521,0.38-2.547l1.349,0.399c-0.038,0.874-0.208,1.596-0.323,2.147h2.527v1.367h-2.831
			c-0.342,1.652-0.931,3.039-1.387,3.989h1.425v-2.47h1.444v2.47h1.71v1.368h-1.71v1.709l2.603-0.703v1.426l-2.603,0.703v4.54
			h-1.444v-4.237l-3.001,0.742l-0.76-1.235c1.52-0.36,2.754-0.608,3.761-0.894v-2.051h-2.982V737.037z M374.574,744.77
			c2.166-0.723,3.856-1.691,5.167-3.324c-0.855-1.293-1.482-2.641-1.824-4.408l1.349-0.513c0.285,1.558,0.779,2.583,1.387,3.571
			c0.589-0.988,1.064-2.127,1.368-3.742l1.311,0.627c-0.152,1.197-0.95,3.096-1.786,4.465c1.197,1.462,2.754,2.488,4.635,3.381
			l-1.045,1.216c-1.767-0.854-3.381-2.09-4.502-3.419c-1.387,1.52-3.002,2.678-5.072,3.419L374.574,744.77z M375.657,736.373
			c1.235-0.608,2.451-1.844,3.116-3.344l1.14,0.684c-0.703,1.709-1.482,2.66-3.191,3.799L375.657,736.373z M380.254,731.471
			c-0.551-0.664-1.368-1.311-2.223-1.652l1.064-0.874c0.95,0.418,1.729,0.969,2.603,1.919l-0.646,0.607h4.541v1.387h-9.499v-1.387
			H380.254z M384.605,737.531c-0.874-1.463-1.938-2.66-3.154-3.59l1.007-0.761c1.463,0.912,2.659,2.204,3.286,3.458L384.605,737.531
			z"/>
		<path fill="#58B5E1" d="M389.092,730.559h6.952c-0.171-0.189-0.684-0.664-1.292-1.12l1.463-0.608
			c0.589,0.57,1.045,1.178,1.35,1.729h6.99l0.02,1.387l-15.465-0.018L389.092,730.559z M400.033,744.237
			c0.836,0,1.368,0.133,1.977,0.019c0.246-0.057,0.398-0.342,0.398-0.684v-4.844l-11.076,0.019v7.313l-1.5,0.02l0.02-8.701
			l14.038-0.019v6.649c0,0.797-0.532,1.463-1.196,1.596c-0.723,0.133-1.443,0.057-2.261,0.095L400.033,744.237z M401.477,732.781
			v3.819h-9.289l-0.02-3.819H401.477z M393.08,743.572l0.02-4.047l7.466-0.019v4.065H393.08z M393.594,735.213h6.478v-1.063h-6.497
			L393.594,735.213z M394.506,742.186l4.654,0.02l-0.02-1.293h-4.635V742.186z"/>
		<path fill="#58B5E1" d="M418.615,729.229c-0.171,0.987-0.531,1.899-0.816,2.868h5.129c-0.095,4.047,0.057,8.378-1.197,12.121
			c-0.209,0.627-0.702,1.443-1.463,1.576c-0.835,0.152-2.412-0.322-3.381-0.589l-0.247-1.596c1.063,0.399,1.938,0.665,2.868,0.798
			c0.324,0.038,0.533-0.076,0.723-0.342c0.322-0.76,0.513-1.634,0.627-2.242c0.494-2.678,0.57-6.041,0.627-8.396h-4.047
			c-0.475,1.311-1.178,2.603-2.203,3.971l-0.988-0.627v8.473h-1.5v-1.234h-3.154v1.538h-1.5v-13.146h1.747
			c0.493-0.874,0.874-1.957,1.159-3.363l1.367,0.551c-0.342,1.254-0.646,2.186-1.025,2.813h2.906v3.799
			c1.539-2.146,2.375-4.598,2.85-7.313L418.615,729.229z M409.572,733.751v3.685h3.135v-3.685H409.572z M412.746,742.623v-3.8
			h-3.154v3.8H412.746z M418.977,741.35c-0.607-1.652-1.501-3.097-2.584-4.465l1.178-0.778c1.387,1.614,2.146,2.907,2.773,4.636
			L418.977,741.35z"/>
		<path fill="#58B5E1" d="M425.951,741.464c3.154-2.015,5.414-4.882,6.402-7.979h-5.281v-1.443l6.857,0.02v-2.964h1.482l-0.02,2.964
			l6.782-0.02v1.443h-5.072c0.836,3.344,3.495,6.213,6.212,7.809l-1.025,1.215c-4.901-3.703-5.566-5.736-6.858-9.251l-0.038,6.744
			h3.666v1.425l-3.646-0.02l-0.02,4.674h-1.443l-0.02-4.674l-3.762,0.02v-1.425l3.762,0.019v-6.763
			c-1.311,4.142-3.533,6.991-6.801,9.347L425.951,741.464z"/>
		<path fill="#58B5E1" d="M445.313,744.939c2.166-1.271,4.236-3.001,5.566-4.957c-0.532-0.608-1.559-1.387-2.66-2.033l1.14-1.121
			c0.931,0.607,1.805,1.292,2.356,1.957c0.797-1.368,1.48-3.515,1.766-5.262h-3.4c-0.684,1.538-1.709,3.268-3.001,4.673
			l-1.349-0.741c2.146-2.299,3.818-5.471,3.762-8.682l1.48,0.323c-0.075,1.443-0.246,2.279-0.417,3.021l4.616-0.02
			c-0.627,7.276-4.426,11.513-8.777,13.944L445.313,744.939z M461.175,740.076c-0.836-1.938-2.355-3.761-3.704-4.844l0.019,10.81
			h-1.481v-17.003l1.481-0.019l-0.019,5.509l0.76-0.494c1.234,0.779,3.59,3.325,4.256,5.168L461.175,740.076z"/>
		<path fill="#58B5E1" d="M471.512,735.365h-4.406v8.055h-1.388v-9.422h5.813l0.02-2.186c-1.977,0.115-4.275,0.152-6.479,0.115
			l-0.514-1.426c3.99,0.475,10.811,0.038,13.906-1.481l0.665,1.216c-2.128,0.76-4.16,1.178-6.136,1.425v2.337h5.965v7.504
			c0,0.588-0.189,1.196-0.816,1.558c-0.627,0.36-1.444,0.209-2.223,0.247l-0.608-1.501c0.854,0.019,1.387,0.151,1.956,0.058
			c0.076-0.039,0.229-0.172,0.267-0.343v-6.155h-4.521v10.41h-1.501V735.365z"/>
		<path fill="#58B5E1" d="M484.471,736.467h14.724v1.577l-14.724,0.019V736.467z"/>
		<path fill="#58B5E1" d="M507.765,729.629c-0.304,1.861-0.722,3.21-1.425,4.73v11.588h-1.463v-9.023
			c-0.038,0.057-1.14,1.481-1.729,2.032c-0.532-0.304-0.703-0.551-1.272-0.854c2.241-1.957,3.895-5.813,4.635-9.081L507.765,729.629
			z M516.637,740.988v1.387h-3.059l-0.02,3.648l-1.425-0.02v-3.629h-3.021l-0.019-1.387h3.021v-5.927
			c-0.399,1.843-1.919,5.187-4.769,7.428l-1.045-1.063c1.672-1.52,2.964-3.115,3.629-4.92c0.304-0.855,0.551-1.691,0.741-2.375
			l-3.572-0.02v-1.367l5.034-0.02v-3.666h1.425v3.686h5.168l0.019,1.387h-3.762c0.343,1.272,0.761,2.773,1.521,4.104
			c0.684,1.178,1.805,2.203,3.021,3.135c-0.38,0.418-0.685,0.74-1.083,1.12c-2.108-1.614-3.629-3.724-4.313-6.25l-0.532-1.956
			l-0.038,6.705H516.637z"/>
		<path fill="#58B5E1" d="M534.781,743.896c0.361,0,0.723-0.19,0.836-0.532c0.285-0.855,0.456-1.52,0.608-2.621l1.425,0.531
			c-0.209,1.234-0.38,2.375-1.083,3.344c-0.38,0.438-0.779,0.607-1.52,0.703h-3.553c-1.14,0-2.185-0.836-2.185-1.957v-3.553
			c-0.817,0.514-1.615,0.932-2.964,1.463l-0.684-0.74l-0.02,5.642h-1.462v-9.688l-0.02,0.266c-0.513,0.703-1.158,1.463-1.881,2.014
			l-1.311-0.987c2.717-2.356,4.047-5.281,5.148-8.567l1.272,0.607c-0.494,1.634-1.063,3.211-1.748,4.578l0.02,5.49
			c1.481-0.607,2.564-1.063,3.647-1.729v-8.587h1.463v7.789c2.09-1.463,3.306-2.755,4.578-4.351l1.254,0.855
			c-1.919,2.374-3.875,4.064-5.832,5.224v4.027c0,0.476,0.323,0.779,1.045,0.779H534.781z"/>
		<path fill="#58B5E1" d="M539.78,744.503c1.045-0.741,1.786-1.614,2.527-2.413v-5.072h-1.957v-1.367l3.382,0.02v6.383
			c1.14,1.158,2.526,1.899,4.179,1.899h7.2l1.995-0.114l-0.608,1.463l-9.156-0.019c-1.539,0-3.42-0.912-4.16-2.09l-2.337,2.489
			L539.78,744.503z M542.27,729.609c1.196,0.703,2.166,1.691,2.868,2.812l-1.196,0.931c-0.551-1.178-1.577-2.108-2.717-2.83
			L542.27,729.609z M545.404,741.217c0.931-0.779,3.134-3.477,3.799-5.243l-4.521-0.019v-1.387h11.816v1.387h-6.782l0.912,0.493
			c-1.102,2.128-2.07,3.553-3.191,4.407l5.434-0.455c-0.323-0.438-1.083-1.103-1.881-1.92l1.121-0.76
			c1.538,1.312,2.868,2.773,3.647,4.56l-1.197,0.931c-0.247-0.703-0.57-1.121-0.779-1.52c-1.652,0.152-5.034,0.551-7.637,0.855
			L545.404,741.217z M545.746,732.021v-1.367h9.65v1.367H545.746z"/>
		<path fill="#58B5E1" d="M569.477,733.086v-1.367h-3.952v1.329h-1.443v-1.329h-4.654v-1.388h4.711v-1.102h1.387v1.083h3.952v-1.064
			h1.425v1.064h4.673v1.387h-4.692v1.387H569.477z M561.175,736.619h-1.406v-3.002h15.426l-0.019,3.04h-1.406v-1.653h-12.595
			V736.619z M571.927,746.175v-1.12h-8.967v1.102h-1.443l0.019-5.737h11.816v5.756H571.927z M571.927,741.824h-8.967v1.824h8.967
			V741.824z M571.946,739.621h-8.948v-3.875h8.929L571.946,739.621z M564.461,737.151v1.063h6.022v-1.063H564.461z"/>
		<path fill="#58B5E1" d="M581.2,735.84c-0.494,0.855-1.178,1.9-1.995,2.774l-1.329-0.761c2.412-2.641,3.856-5.604,4.863-8.852
			l1.292,0.588c-0.399,1.178-0.912,2.717-1.406,3.725l0.038,12.785H581.2V735.84z M594.536,736.012v1.405H588.4l0.019,2.375
			l6.479-0.019l0.038,1.348h-6.497l-0.02,4.939h-1.481v-12.253l-0.266-0.019c-0.703,1.387-1.559,2.83-2.622,4.255l-1.311-0.702
			c1.881-2.432,3.4-5.054,3.97-8.625l1.425,0.513c-0.171,1.12-0.607,2.432-0.893,3.191h8.055v1.387l-6.915,0.019v2.204
			L594.536,736.012z"/>
		<path fill="#58B5E1" d="M597.445,745.035v-1.387h5.548v-14.02h1.481v14.02h2.204v-14.02h1.425v14.02h5.509v1.387H597.445z
			 M600.429,741.711c-0.096-2.584-0.97-5.225-1.919-7.371l1.234-0.589c0.969,2.128,1.862,4.787,2.128,7.333L600.429,741.711z
			 M610.06,741.938l-1.216-0.741c1.312-1.729,2.223-5.129,2.355-7.408l1.312,0.475C612.131,737.246,611.313,740.001,610.06,741.938z
			"/>
		<path fill="#58B5E1" d="M617.661,741.008v-8.416h6.213l-0.02-3.477h1.52l-0.038,3.457l6.193,0.02v8.34h-1.501v-1.292h-4.692
			l0.038,6.402h-1.5l-0.02-6.402H619.2l-0.038,1.368H617.661z M623.854,733.979h-4.692v4.293h4.712L623.854,733.979z
			 M629.99,733.979h-4.616v4.274h4.636L629.99,733.979z"/>
		<path fill="#58B5E1" d="M634.952,741.426c1.234-2.07,2.279-4.047,2.735-6.459l1.33,0.551c-0.456,2.432-1.273,4.198-2.755,6.611
			L634.952,741.426z M641.639,733.599l0.02,9.271c0.057,0.209,0.38,0.57,0.702,0.627h2.964c0.304-0.037,0.589-0.189,0.722-0.494
			c0.323-1.025,0.57-2.07,0.779-3.324l1.481,0.532c-0.36,1.349-0.569,2.583-1.14,3.704c-0.342,0.684-1.045,1.045-1.786,1.045
			l-3.039-0.02c-0.988,0-2.185-0.531-2.185-1.918v-9.404L641.639,733.599z M644.812,735.043c-1.121-1.748-2.698-3.458-4.56-4.578
			c0.551-0.324,0.836-0.627,1.311-0.875c1.767,1.197,3.382,2.85,4.521,4.674L644.812,735.043z M650.985,741.806
			c-0.95-2.28-2.09-4.351-3.895-6.231c0.513-0.266,0.817-0.475,1.292-0.664c1.805,1.823,2.926,3.951,3.989,6.192L650.985,741.806z"
			/>
	</g>
</g>
</svg>
