<?xml version="1.0" encoding="utf-8"?>
<!-- Generator: Adobe Illustrator 16.0.0, SVG Export Plug-In . SVG Version: 6.00 Build 0)  -->
<!DOCTYPE svg PUBLIC "-//W3C//DTD SVG 1.1//EN" "http://www.w3.org/Graphics/SVG/1.1/DTD/svg11.dtd">
<svg version="1.1" id="Layer_1" xmlns="http://www.w3.org/2000/svg" xmlns:xlink="http://www.w3.org/1999/xlink" x="0px" y="0px"
	 width="768px" height="1024px" viewBox="0 0 768 1024" enable-background="new 0 0 768 1024" xml:space="preserve">
<g>
	<g>
		<g>
			<circle opacity="0.302" fill-rule="evenodd" clip-rule="evenodd" fill="#FFFFFF" cx="158.803" cy="843.635" r="44.623"/>
			<rect x="135.521" y="830.751" fill-rule="evenodd" clip-rule="evenodd" fill="#FFFFFF" width="10.92" height="35.943"/>
			<rect x="147.4" y="846.22" fill-rule="evenodd" clip-rule="evenodd" fill="#FFFFFF" width="10.921" height="20.475"/>
			<rect x="159.28" y="839.999" fill-rule="evenodd" clip-rule="evenodd" fill="#FFFFFF" width="10.921" height="26.695"/>
			<rect x="171.16" y="853.347" fill-rule="evenodd" clip-rule="evenodd" fill="#FFFFFF" width="10.921" height="13.348"/>
			<path fill-rule="evenodd" clip-rule="evenodd" fill="#58B5E1" d="M141.346,828.796L141.346,828.796
				c0.727,0,0.971-0.473,0.971-1.211c-0.729-3.373-0.729-3.373-0.729-3.373c14.318,10.153,14.318,10.153,14.318,10.153
				c0.241,0.246,0.727,0.246,1.213,0c7.28-5.569,7.28-5.569,7.28-5.569c14.317,8.469,14.317,8.469,14.317,8.469
				c0.241,0,0.241,0,0.483,0c0.485,0,0.729,0,0.972-0.492c0.241-0.474,0-0.966-0.486-1.195c-14.803-8.715-14.803-8.715-14.803-8.715
				c-0.483-0.243-0.97-0.243-1.212,0c-7.281,5.569-7.281,5.569-7.281,5.569c-13.588-9.678-13.588-9.678-13.588-9.678
				c3.641-0.246,3.641-0.246,3.641-0.246c0.728,0,0.969-0.474,0.969-0.968c0-0.474-0.482-0.966-0.969-0.966
				c-6.31,0.246-6.31,0.246-6.31,0.246c-0.241,0-0.485,0.246-0.728,0.492c-0.243,0.228-0.243,0.474-0.243,0.722
				c1.212,6.043,1.212,6.043,1.212,6.043C140.373,828.566,140.859,828.796,141.346,828.796z"/>
		</g>
		<g>
			<path fill="#58B5E1" d="M268.446,814.088c-0.315-1.645-1.575-3.045-3.291-3.045c-3.605,0-4.55,4.725-4.69,7.455l0.07,0.07
				c1.365-1.925,3.15-2.73,5.531-2.73c2.1,0,4.235,0.98,5.636,2.521c1.295,1.505,1.89,3.536,1.89,5.461
				c0,5.005-3.465,8.961-8.576,8.961c-7.42,0-9.416-6.476-9.416-12.671c0-5.986,2.661-12.813,9.626-12.813
				c4.235,0,7.386,2.486,7.946,6.791H268.446z M260.92,824.135c0,2.275,1.47,4.55,3.956,4.55c2.38,0,3.745-2.274,3.745-4.48
				c0-2.31-1.19-4.62-3.745-4.62C262.215,819.584,260.92,821.719,260.92,824.135z"/>
			<path fill="#58B5E1" d="M280.206,825.989c0.315,1.646,1.575,3.046,3.29,3.046c3.605,0,4.551-4.727,4.69-7.456l-0.07-0.07
				c-1.365,1.925-3.15,2.73-5.531,2.73c-2.1,0-4.235-0.979-5.635-2.521c-1.295-1.505-1.891-3.535-1.891-5.461
				c0-5.005,3.465-8.961,8.576-8.961c7.421,0,9.416,6.477,9.416,12.672c0,5.986-2.66,12.812-9.626,12.812
				c-4.235,0-7.386-2.485-7.946-6.791H280.206z M287.731,815.943c0-2.275-1.47-4.551-3.955-4.551c-2.38,0-3.746,2.275-3.746,4.48
				c0,2.311,1.19,4.621,3.746,4.621C286.436,820.494,287.731,818.358,287.731,815.943z"/>
			<path fill="#58B5E1" d="M298.005,825.309c-1.82,0-3.021-1.48-3.021-3.761c0-2.36,1.16-3.821,3.021-3.821
				c1.9,0,3.101,1.461,3.101,3.801C301.106,823.809,299.886,825.309,298.005,825.309z M298.045,818.947
				c-1.04,0-1.52,0.84-1.52,2.641c0,1.641,0.52,2.5,1.52,2.5c1.041,0,1.541-0.84,1.541-2.641
				C299.586,819.787,299.046,818.947,298.045,818.947z M299.506,832.83h-1.46l7.842-15.104h1.42L299.506,832.83z M307.268,832.83
				c-1.82,0-3.021-1.48-3.021-3.761c0-2.36,1.16-3.821,3.021-3.821c1.9,0,3.101,1.461,3.101,3.781
				C310.368,831.33,309.148,832.83,307.268,832.83z M307.308,826.449c-1.041,0-1.521,0.859-1.521,2.66c0,1.641,0.52,2.5,1.521,2.5
				c1.04,0,1.54-0.84,1.54-2.641C308.848,827.309,308.328,826.449,307.308,826.449z"/>
			<path fill="#FFFFFF" d="M223.855,855.971c1.1-0.781,1.88-1.701,2.661-2.541v-5.342h-2.061v-1.439l3.561,0.02v6.722
				c1.2,1.22,2.66,2,4.401,2h7.582l2.101-0.12l-0.641,1.541l-9.642-0.021c-1.621,0-3.601-0.96-4.381-2.2l-2.46,2.621
				L223.855,855.971z M226.476,840.287c1.26,0.74,2.28,1.779,3.021,2.96l-1.26,0.98c-0.58-1.24-1.66-2.221-2.86-2.981
				L226.476,840.287z M229.776,852.51c0.98-0.82,3.301-3.661,4-5.521l-4.761-0.02v-1.461h12.442v1.461h-7.141l0.96,0.52
				c-1.16,2.24-2.18,3.74-3.361,4.641l5.721-0.48c-0.34-0.459-1.14-1.16-1.98-2.02l1.18-0.801c1.62,1.381,3.021,2.921,3.841,4.801
				l-1.26,0.98c-0.26-0.74-0.6-1.18-0.82-1.6c-1.74,0.16-5.301,0.58-8.042,0.9L229.776,852.51z M230.136,842.827v-1.44h10.162v1.44
				H230.136z"/>
			<path fill="#FFFFFF" d="M255.117,843.947v-1.439h-4.161v1.399h-1.521v-1.399h-4.901v-1.461h4.961v-1.16h1.46v1.141h4.161v-1.121
				h1.5v1.121h4.921v1.46h-4.941v1.46H255.117z M246.375,847.668h-1.48v-3.16h16.244l-0.02,3.2h-1.48v-1.74h-13.263V847.668z
				 M257.698,857.73v-1.18h-9.442v1.16h-1.52l0.02-6.042h12.443v6.062H257.698z M257.698,853.149h-9.442v1.921h9.442V853.149z
				 M257.718,850.829h-9.422v-4.081h9.402L257.718,850.829z M249.836,848.229v1.12h6.341v-1.12H249.836z"/>
			<path fill="#FFFFFF" d="M264.555,856.53v-1.46h5.841v-14.764h1.56v14.764h2.321v-14.764h1.5v14.764h5.801v1.46H264.555z
				 M267.696,853.029c-0.1-2.721-1.02-5.501-2.021-7.762l1.3-0.62c1.021,2.241,1.96,5.041,2.241,7.722L267.696,853.029z
				 M277.838,853.27l-1.28-0.78c1.38-1.82,2.34-5.401,2.48-7.802l1.38,0.5C280.019,848.328,279.158,851.229,277.838,853.27z"/>
			<path fill="#FFFFFF" d="M301.399,849.769c-2.881-0.62-5.602-1.4-7.962-2.8c-2.28,1.52-5.821,2.54-8.902,3.02l-0.62-1.439
				c2.4-0.4,4.501-0.94,6.562-1.701c0.54-0.26,1.18-0.58,1.58-0.8c-0.86-0.66-2-1.341-2.701-2.3c-0.88,1.039-2.16,2.119-3.661,2.72
				l-1.14-1.38c3.081-1.141,4.561-2.921,5.501-5.381l1.32,0.74c-0.22,0.5-0.42,0.859-0.48,0.979h7.501v1.341
				c-1.18,1.46-2.38,2.4-3.621,3.301c0.26,0.199,0.88,0.399,1.44,0.68c1.88,0.7,3.861,1.24,6.161,1.68L301.399,849.769z
				 M298.258,856.21c-0.2,0.62-0.72,1.16-1.3,1.32c-0.88,0.261-1.781-0.021-2.701-0.16l-0.38-1.74
				c1.061,0.3,1.821,0.601,2.641,0.479c0.46-0.299,0.5-0.859,0.6-1.439c0.18-1.08,0.4-2.461,0.44-3.102h-4.321
				c-0.32,1.721-1.66,3.361-3.281,4.422c-1.2,0.8-3.36,1.439-4.661,1.68c-0.28-0.5-0.54-0.9-0.8-1.5c2.541-0.4,4.901-1,6.421-3
				c0.42-0.541,0.64-1.141,0.76-1.602h-5.721v-1.459h5.961c0.06-0.48,0-0.841,0.06-1.741l1.48,0.2c-0.02,0.76,0.04,1.1-0.02,1.541
				h5.681C299.078,852.329,298.838,854.369,298.258,856.21z M290.396,842.887c0.8,0.961,1.88,1.601,3,2.32
				c1.08-0.699,2.161-1.52,2.921-2.32H290.396z"/>
			<path fill="#FFFFFF" d="M317.998,857.01c-1.92-0.02-3.881-0.199-5.561-0.939c-1.46-0.641-2.801-2.001-3.181-2.621
				c-0.92,1.381-2.641,2.941-4.581,4.182l-1.041-1.181c1.86-0.9,3.941-2.961,4.801-4.241c-0.66-1.04-1.34-2.521-1.7-3.801
				c-0.26,0.74-1.3,2.301-1.96,2.961l-1.201-0.98c1.841-2.26,3.521-5.682,3.961-10.462l1.38,0.521c-0.24,1.34-0.42,2.26-0.56,3.04
				h4.281c-0.4,3.241-1.06,6.421-2.581,8.802c0.94,1.34,2.381,2.521,4.021,2.921c2.32,0.56,5.061,0.44,7.842,0.3l-0.6,1.521
				L317.998,857.01z M308.056,844.888c-0.16,0.521-0.26,1.08-0.48,1.64c0.18,1.081,1,3.342,1.661,4.342
				c0.96-1.761,1.52-3.801,1.82-5.981H308.056z M314.978,840.106h1.48v14.983h-1.48V840.106z M320.298,850.349
				c-0.86-1.56-2.06-3.081-3.541-4.081l0.92-0.96c1.621,1.001,3.141,2.78,3.861,4.081L320.298,850.349z"/>
			<path fill="#FFFFFF" d="M325.235,855.01c-0.42-0.38-0.8-0.68-1.32-1.2c1.24-0.36,2.161-0.74,3.021-1.06v-4.621h-2.041l0.02-1.421
				l1.98,0.021l0.02-3.961l-2.4,0.02v-1.461l6.201,0.021v1.421h-2.22l-0.02,3.961l1.96-0.021v1.421h-1.96v4.04
				c0.58-0.22,1.44-0.62,2.42-0.979v1.5L325.235,855.01z M340.918,840.807l-0.04,8.702h-4.061v1.921h3.941v1.439h-3.981v2.301h5.341
				v1.42h-12.143v-1.42h5.261l0.02-2.301h-4.001v-1.439h3.981l0.02-1.921h-4.141v-8.722L340.918,840.807z M335.237,844.367
				l0.02-2.12l-2.621-0.021v2.141H335.237z M332.637,845.787v2.301h2.601l0.02-2.32L332.637,845.787z M336.798,845.808v2.261
				l2.581,0.02v-2.26L336.798,845.808z M336.838,844.388h2.561l0.04-2.141l-2.621-0.021L336.838,844.388z"/>
			<path fill="#FFFFFF" d="M225.535,880.37l-1.06-1.04c1.34-0.961,2.32-2.121,3.301-3.641l1,0.8
				C228.096,878.129,226.736,879.529,225.535,880.37z M227.836,874.648v-7.102h2.94c-0.72-1.279-1.46-2.061-2.721-3.02l1.201-0.82
				c1.2,0.9,2.14,1.9,2.84,3.2l-0.92,0.62l3.721,0.02l-1.041-0.64c1.26-0.88,1.9-1.98,2.541-3.2l1.141,0.779
				c-0.5,1.24-1.041,2.16-2.141,3.041l2.721,0.02v7.102H227.836z M236.598,869.008h-7.242v4.181h7.242V869.008z M236.998,880.57
				l-0.58,0.16h-5.601c-0.78,0-1.46-0.701-1.46-1.4v-3.9h1.521v3.54c0.04,0.16,0.22,0.3,0.42,0.3h4.981c0.38,0,0.76-1.12,0.84-2
				l1.42,0.8C238.238,879.13,238.118,880.05,236.998,880.57z M234.277,878.609c-0.44-1.16-1.121-2.04-2.121-2.881l1.1-0.8
				c1.101,1.021,1.661,1.78,2.301,2.78L234.277,878.609z M240.779,879.971c-0.82-1.461-1.881-2.701-3.021-3.502l1.14-0.859
				c1.201,0.8,2.321,2.061,3.081,3.4L240.779,879.971z"/>
			<path fill="#FFFFFF" d="M252.437,879.449v-0.6h-6.401v-1.28l6.401-0.021v-0.539l-5.682,0.02v-5.081h12.923v5.081h-5.721v0.54
				h6.481v1.28h-6.481v0.6h8.202v1.421h-17.864v-1.421H252.437z M261.339,871.488l-16.284,0.02v-1.32h16.284V871.488z
				 M259.018,869.729h-11.682v-5.201h11.662L259.018,869.729z M248.256,873.248v0.621h4.181l0.02-0.621H248.256z M248.256,874.988
				l0.02,0.74h4.161v-0.72L248.256,874.988z M257.498,865.848l-8.662,0.02v0.66h8.662V865.848z M248.836,867.688v0.74h8.662v-0.721
				L248.836,867.688z M253.957,873.248l0.02,0.641l4.181-0.02v-0.621H253.957z M253.957,875.729h4.201v-0.74h-4.201V875.729z"/>
			<path fill="#FFFFFF" d="M276.258,879.65c0.96,0,2.36-0.061,2.66-0.16c0.2-0.101,0.34-0.521,0.34-0.9l0.02-12.563l-12.123-0.021
				v15.784h-1.581v-17.264h15.283l0.02,14.383c0,0.92-0.36,1.859-0.9,2.141c-0.54,0.199-2.521,0.279-3.181,0.239L276.258,879.65z
				 M278.638,868.188l0.02,1.48h-10.563l0.02-1.48H278.638z M277.018,871.828v6.041h-7.602v-6.021L277.018,871.828z
				 M270.937,876.389h4.581v-3.061l-4.581,0.021V876.389z"/>
			<path fill="#FFFFFF" d="M285.175,879.63c0.48-0.24,0.92-0.58,0.92-1v-14.363l1.621,0.021l0.02,5.221l5.161-0.02v1.52l-5.181-0.02
				v7.582c1.6-0.521,3.361-1.102,5.341-1.762v1.602c-2.821,1.02-4.061,1.4-6.842,2.48L285.175,879.63z M298.518,879.15
				c0.44,0,0.8-0.24,0.96-0.541c0.24-0.48,0.4-1.859,0.52-2.74l1.54,0.561c-0.16,1.039-0.34,2.04-0.74,2.92
				c-0.3,0.7-0.98,1.32-1.821,1.32l-3.221-0.02c-1.24,0-2.1-0.801-2.1-1.82v-14.623l1.62-0.021v7.021
				c1.561-0.62,3.161-1.681,4.721-3.101l1.38,0.9c-1.94,1.76-3.981,3.16-6.102,3.82v5.602c0.04,0.32,0.22,0.721,0.7,0.721H298.518z"
				/>
			<path fill="#FFFFFF" d="M308.696,875.488c0.36-0.139,1.041-0.34,1.801-0.619l0.04,1.52c-1.781,0.641-3.441,1.221-5.221,1.881
				l-1.061-1.36c1.181-0.28,2.101-0.56,2.901-0.84v-5.481l-2.261-0.02l0.02-1.421h2.241v-4.921h1.52v4.921h1.521v1.44h-1.5V875.488z
				 M310.376,872.608v-6.501h2.96c-0.3-0.48-1.08-1.141-1.92-1.861l1.541-0.6c0.9,0.76,1.58,1.641,2.081,2.44l1.8,0.021
				c0.76-0.74,1.3-1.66,1.74-2.801c0.56,0.22,0.94,0.5,1.42,0.779c-0.46,0.861-0.92,1.602-1.3,1.98h2.82v6.542H310.376z
				 M313.057,881.65h-1.541v-8.002l8.882-0.02v8.002l-1.5-0.021l0.02-1.14l-5.881,0.02L313.057,881.65z M315.197,871.188v-3.66
				l-3.301-0.02v3.68H315.197z M313.117,867.748c0.84,0.799,1.28,1.72,1.78,2.72c-0.48,0.22-0.84,0.421-1.38,0.62
				c-0.28-1.08-0.88-1.84-1.581-2.74L313.117,867.748z M313.017,875.049v1.221h5.881l0.02-1.221H313.017z M313.037,877.689v1.36
				h5.881l-0.02-1.36H313.037z M319.999,871.148v-3.641h-3.341v3.641H319.999z M319.738,868.107c-0.44,1.1-0.9,2.061-1.68,3.021
				l-1.28-0.681c0.72-0.859,1.38-2.1,1.72-2.92L319.738,868.107z"/>
			<path fill="#FFFFFF" d="M341.259,880.551c-5.521-2.061-7.762-4.662-8.802-7.922h-2.461v6.541l3.901-1.641v1.5l-4.761,2.221
				l-0.9-1.34c0.2-0.18,0.24-0.58,0.24-0.86v-6.421h-4.141v-1.461h4.341v-7.461h1.521v5.681c2.38-1.06,5.021-2.46,7.282-4.321
				l1.04,1.141c-2.5,1.98-5.321,3.521-8.322,4.641v0.32h11.143v1.461h-7.402c1.081,3.461,4.921,5.601,8.342,6.581L341.259,880.551z"
				/>
		</g>
	</g>
	<g>
		<g>
			<path opacity="0.302" fill-rule="evenodd" clip-rule="evenodd" fill="#FFFFFF" d="M425.533,843.635
				c0-24.647,19.981-44.628,44.628-44.628c24.633,0,44.613,19.98,44.613,44.628c0,24.646-19.98,44.627-44.613,44.627
				C445.515,888.262,425.533,868.281,425.533,843.635z"/>
			<rect x="446.218" y="830.53" fill-rule="evenodd" clip-rule="evenodd" fill="#FFFFFF" width="10.919" height="36.966"/>
			<rect x="458.223" y="846.44" fill-rule="evenodd" clip-rule="evenodd" fill="#FFFFFF" width="11.23" height="21.056"/>
			<rect x="470.539" y="840.046" fill-rule="evenodd" clip-rule="evenodd" fill="#FFFFFF" width="11.229" height="27.45"/>
			<rect x="482.871" y="853.771" fill-rule="evenodd" clip-rule="evenodd" fill="#FFFFFF" width="11.229" height="13.725"/>
			<path fill-rule="evenodd" clip-rule="evenodd" fill="#58B5E1" d="M482.625,837.494c0,0.489,0.507,0.998,1.001,0.998
				c6.502,0,6.502,0,6.502,0c0.26,0,0.506,0,0.752-0.263c0.263-0.246,0.263-0.489,0.263-0.735c-1.015-6.239-1.015-6.239-1.015-6.239
				c0-0.509-0.492-1.001-1.001-0.755c-0.49,0-0.998,0.507-0.998,0.999c0.508,3.489,0.508,3.489,0.508,3.489
				c-13.758-10.974-13.758-10.974-13.758-10.974c-0.508-0.246-0.998-0.246-1.261,0c-7.748,5.241-7.748,5.241-7.748,5.241
				c-14.002-8.991-14.002-8.991-14.002-8.991c-0.506-0.492-0.998-0.246-1.507,0.263c-0.244,0.49,0,0.982,0.246,1.245
				c14.756,9.482,14.756,9.482,14.756,9.482c0.507,0.244,0.755,0.244,1.262,0c7.5-5.243,7.5-5.243,7.5-5.243
				c13.251,10.483,13.251,10.483,13.251,10.483c-3.75,0-3.75,0-3.75,0C483.132,836.495,482.625,836.985,482.625,837.494z"/>
		</g>
		<g>
			<path fill="#58B5E1" d="M573.451,817.693c2.135,0.176,5.215-0.244,5.215-3.045c0-2.065-1.645-3.256-3.465-3.256
				c-2.485,0-3.815,1.855-3.78,4.375h-4.726c0.176-5.005,3.43-8.471,8.471-8.471c3.92,0,8.227,2.416,8.227,6.791
				c0,2.311-1.156,4.375-3.431,5.006v0.07c2.695,0.595,4.341,2.835,4.341,5.564c0,5.146-4.307,8.052-9.102,8.052
				c-5.496,0-9.206-3.29-9.102-8.927h4.727c0.104,2.661,1.435,4.831,4.305,4.831c2.24,0,3.99-1.54,3.99-3.851
				c0-3.71-3.255-3.641-5.67-3.641V817.693z"/>
			<path fill="#58B5E1" d="M594.626,807.297c4.901,0,9.031,3.081,9.031,12.637c0,9.766-4.13,12.847-9.031,12.847
				c-4.83,0-8.961-3.081-8.961-12.847C585.665,810.378,589.796,807.297,594.626,807.297z M594.626,828.685
				c4.061,0,4.061-5.985,4.061-8.751c0-2.555,0-8.541-4.061-8.541c-3.99,0-3.99,5.986-3.99,8.541
				C590.636,822.699,590.636,828.685,594.626,828.685z"/>
			<path fill="#58B5E1" d="M608.611,825.309c-1.82,0-3.021-1.48-3.021-3.761c0-2.36,1.16-3.821,3.021-3.821
				c1.9,0,3.101,1.461,3.101,3.801C611.712,823.809,610.491,825.309,608.611,825.309z M608.65,818.947
				c-1.039,0-1.52,0.84-1.52,2.641c0,1.641,0.52,2.5,1.52,2.5c1.041,0,1.541-0.84,1.541-2.641
				C610.191,819.787,609.651,818.947,608.65,818.947z M610.111,832.83h-1.461l7.842-15.104h1.421L610.111,832.83z M617.873,832.83
				c-1.82,0-3.021-1.48-3.021-3.761c0-2.36,1.16-3.821,3.021-3.821c1.9,0,3.101,1.461,3.101,3.781
				C620.974,831.33,619.754,832.83,617.873,832.83z M617.913,826.449c-1.04,0-1.521,0.859-1.521,2.66c0,1.641,0.52,2.5,1.521,2.5
				c1.04,0,1.54-0.84,1.54-2.641C619.453,827.309,618.934,826.449,617.913,826.449z"/>
			<path fill="#FFFFFF" d="M542.982,857.69v-7.262h-7.742v-1.46h7.742v-6.962h-6.481v-1.46h14.362v1.46h-6.361v6.962h7.723v1.46
				h-7.723v7.262H542.982z M538.281,842.587c1.641,1.46,2.641,3.161,3.441,5.101l-1.4,0.761c-0.701-1.98-1.661-3.761-3.521-5.142
				L538.281,842.587z M545.383,847.528c1.641-1.501,2.92-3.081,3.5-5.062l1.32,0.701c-0.66,2.02-1.9,3.641-3.46,5.24
				L545.383,847.528z"/>
			<path fill="#FFFFFF" d="M561.482,846.309c1.46-1.821,2.439-4.722,2.6-6.643l1.441,0.34c-0.101,0.781-0.221,1.4-0.341,1.821h6.762
				c-0.06,5.921-0.16,12.823-1.421,14.683c-1.119,1.66-3.32,0.86-4.9,0.74l-0.5-1.74c1.24,0.26,2.221,0.5,3.28,0.52
				c0.4,0.021,0.74-0.18,0.9-0.52c0.92-2.78,1.04-6.961,1.181-12.223h-5.722c-0.54,1.521-1.3,3.24-2.7,4.641l-1.501-0.699
				c0.261-0.26,0.48-0.461,0.7-0.721h-1.68v5.081c0.58-0.26,1.54-0.62,2.54-1.021v1.58l-5.601,2.441l-1.4-1.101
				c1.14-0.42,2.141-0.819,2.939-1.14v-5.842h-2.52v-1.439h2.5v-4.281h1.541v4.281h1.9V846.309z M563.162,853.67l-1.1-1.261
				c1.54-0.44,5.641-2.04,7.281-2.78v1.54L563.162,853.67z M567.643,848.928c-0.64-1.02-2.06-2.46-3.2-3.08l1.12-1
				c1.301,0.76,2.66,1.961,3.381,3.061L567.643,848.928z"/>
			<path fill="#FFFFFF" d="M577.682,843.147h3.12c-0.319-0.8-1.261-2.04-2.141-2.821l1.101-0.859c0.779,0.56,1.801,1.721,2.641,3.2
				l-0.62,0.44l2.44,0.04c0.7-0.681,1.62-2.161,2.1-3.562l1.4,0.66c-0.479,1.24-1.26,2.461-1.68,2.901h3.341v7.142h-5.081v1.641
				h8.041v1.4h-8.061v4.12h-1.48v-4.101H574.9v-1.4h7.922v-1.66h-5.141V843.147z M582.803,847.389h-3.621v1.52h3.621V847.389z
				 M582.822,845.928v-1.34h-3.621v1.34H582.822z M584.283,844.588v1.34h3.641v-1.34H584.283z M587.903,847.368h-3.601v1.54h3.601
				V847.368z"/>
			<path fill="#FFFFFF" d="M594.641,848.469c3.181-3.081,3.781-6.382,4.781-8.662l1.38,0.641c-0.521,1.56-1.021,3-1.601,4.34v12.924
				h-1.54v-10.322c-0.12,0.18-1.021,1.38-1.66,2.061L594.641,848.469z M612.764,856.471l-12.521,0.02v-1.5h5.4
				c1.601-2.842,2.961-5.802,3.161-9.402l1.521,0.58c-0.221,3.021-1.521,5.98-2.98,8.822h5.4L612.764,856.471z M600.701,845.388
				l-0.02-1.501l11.082-0.02v1.5L600.701,845.388z M603.982,853.93c-0.08-2.801-0.78-5.021-2.16-7.342l1.6-0.34
				c1.281,2.26,1.98,4.66,2.182,7.361L603.982,853.93z M604.683,839.767c1.021,0.66,2.221,2.181,2.741,3.381l-1.441,0.64
				c-0.58-1.32-1.38-2.34-2.7-3.2L604.683,839.767z"/>
			<path fill="#FFFFFF" d="M614.461,855.971c1.1-0.781,1.88-1.701,2.66-2.541v-5.342h-2.061v-1.439l3.561,0.02v6.722
				c1.201,1.22,2.66,2,4.401,2h7.581l2.102-0.12l-0.641,1.541l-9.643-0.021c-1.62,0-3.601-0.96-4.381-2.2l-2.461,2.621
				L614.461,855.971z M617.081,840.287c1.261,0.74,2.28,1.779,3.021,2.96l-1.26,0.98c-0.58-1.24-1.66-2.221-2.861-2.981
				L617.081,840.287z M620.382,852.51c0.979-0.82,3.301-3.661,4.001-5.521l-4.762-0.02v-1.461h12.443v1.461h-7.142l0.96,0.52
				c-1.16,2.24-2.18,3.74-3.361,4.641l5.722-0.48c-0.34-0.459-1.14-1.16-1.979-2.02l1.18-0.801c1.62,1.381,3.021,2.921,3.841,4.801
				l-1.261,0.98c-0.26-0.74-0.6-1.18-0.82-1.6c-1.74,0.16-5.301,0.58-8.041,0.9L620.382,852.51z M620.742,842.827v-1.44h10.162v1.44
				H620.742z"/>
			<path fill="#FFFFFF" d="M645.723,843.947v-1.439h-4.16v1.399h-1.521v-1.399h-4.9v-1.461h4.961v-1.16h1.461v1.141h4.16v-1.121h1.5
				v1.121h4.922v1.46h-4.941v1.46H645.723z M636.98,847.668h-1.48v-3.16h16.244l-0.02,3.2h-1.48v-1.74H636.98V847.668z
				 M648.303,857.73v-1.18h-9.441v1.16h-1.52l0.02-6.042h12.442v6.062H648.303z M648.303,853.149h-9.441v1.921h9.441V853.149z
				 M648.323,850.829h-9.422v-4.081h9.401L648.323,850.829z M640.441,848.229v1.12h6.342v-1.12H640.441z"/>
			<path fill="#FFFFFF" d="M538.541,872.688c-0.119,2.661,0.021,6.121-2.44,9.042l-1.28-0.961c2.381-2.66,2.24-6.561,2.221-9.881
				l-0.02-3.821l7.4-0.021c-0.039-0.92-0.1-2.061-0.1-3.381h1.5c0.021,1.381,0.041,2.301,0.121,3.401h5.841v1.46l-5.741-0.02
				c0.18,1.88,0.42,4.061,1.18,6.041c1.201-1.561,1.861-3.101,2.561-4.98l1.381,0.459c-1,2.661-1.74,4.162-3.281,6.121
				c0.66,1.361,1.361,2.641,2.682,3.662c0.1,0.08,0.16,0.14,0.26,0.02c0.24-0.9,0.38-1.761,0.42-2.921l1.48,0.86
				c-0.1,1.1-0.5,1.961-0.78,2.84c-0.14,0.4-0.36,0.74-0.72,0.881c-0.921,0.34-1.701-0.439-2.281-1.08
				c-1.04-1.141-1.54-1.78-2.141-3.08c-1.24,1.32-2.5,2.42-4.041,3.359l-1.38-1.06c1.841-0.979,3.481-2.28,4.701-3.741
				c-0.921-2.301-1.261-4.9-1.521-7.361h-6.001v2.721h5.341c-0.061,1.48-0.199,3.341-0.439,4.581c-0.141,0.82-0.5,1.94-1.32,2.24
				c-0.82,0.28-1.781,0.12-2.641,0l-0.66-1.66c1.02,0.3,1.76,0.399,2.54,0.36c0.181,0,0.36-0.02,0.479-0.28
				c0.32-0.681,0.461-2.681,0.48-3.801H538.541z M550.404,866.667c-1.121-0.94-2.701-1.681-3.881-1.78l1.199-1.08
				c1.381,0.3,2.641,0.9,3.762,1.92L550.404,866.667z"/>
			<path fill="#FFFFFF" d="M554.641,876.77c3.32-2.121,5.701-5.141,6.741-8.402h-5.562v-1.52l7.223,0.02v-3.121h1.56l-0.021,3.121
				l7.143-0.02v1.52h-5.342c0.881,3.521,3.682,6.541,6.541,8.223l-1.08,1.279c-5.16-3.9-5.861-6.041-7.221-9.742l-0.041,7.102h3.861
				v1.501l-3.841-0.021l-0.021,4.922h-1.52l-0.02-4.922l-3.961,0.021v-1.501l3.961,0.021v-7.122
				c-1.381,4.361-3.722,7.361-7.162,9.843L554.641,876.77z"/>
			<path fill="#FFFFFF" d="M586.863,879.65c0.96,0,2.36-0.061,2.66-0.16c0.2-0.101,0.34-0.521,0.34-0.9l0.021-12.563l-12.122-0.021
				v15.784h-1.581v-17.264h15.283l0.021,14.383c0,0.92-0.36,1.859-0.9,2.141c-0.54,0.199-2.521,0.279-3.181,0.239L586.863,879.65z
				 M589.244,868.188l0.02,1.48h-10.563l0.02-1.48H589.244z M587.623,871.828v6.041h-7.602v-6.021L587.623,871.828z
				 M581.542,876.389h4.581v-3.061l-4.581,0.021V876.389z"/>
			<path fill="#FFFFFF" d="M595.781,879.63c0.479-0.24,0.92-0.58,0.92-1v-14.363l1.62,0.021l0.021,5.221l5.16-0.02v1.52l-5.181-0.02
				v7.582c1.601-0.521,3.36-1.102,5.341-1.762v1.602c-2.82,1.02-4.061,1.4-6.842,2.48L595.781,879.63z M609.123,879.15
				c0.44,0,0.801-0.24,0.961-0.541c0.24-0.48,0.4-1.859,0.52-2.74l1.541,0.561c-0.16,1.039-0.34,2.04-0.74,2.92
				c-0.301,0.7-0.98,1.32-1.82,1.32l-3.221-0.02c-1.24,0-2.101-0.801-2.101-1.82v-14.623l1.62-0.021v7.021
				c1.561-0.62,3.16-1.681,4.721-3.101l1.381,0.9c-1.94,1.76-3.98,3.16-6.102,3.82v5.602c0.04,0.32,0.221,0.721,0.7,0.721H609.123z"
				/>
			<path fill="#FFFFFF" d="M622.143,880.99v-15.143h-6.723v-1.48h16.645v1.48h-8.361v15.143H622.143z M629.504,875.829
				c-1.541-2.141-3.561-3.381-4.941-4.161l0.68-1.141c1.261,0.48,2.301,1.181,3.281,1.98c0.74,0.601,1.42,1.341,2.101,2.141
				L629.504,875.829z"/>
			<path fill="#FFFFFF" d="M639.121,870.288c1.24,1.399,2.361,3.161,1.82,5.261c-0.16,0.66-0.76,1.32-1.439,1.44
				c-0.58,0.101-1.201,0.04-1.881-0.101l-0.34-1.3l-0.04,6.062h-1.521v-17.023h5.361v1.24L639.121,870.288z M637.241,875.289
				c0.88,0.3,1.399,0.38,1.94,0.22c0.42-0.239,0.48-0.739,0.4-1.3c-0.201-1.36-1.041-2.521-2.141-3.541
				c0.68-1.68,1.38-3.221,1.98-4.581h-2.181V875.289z M651.984,873.408c-1.94-0.38-3.881-1.34-5.342-2.46
				c-1.46,0.92-3.381,1.7-5.461,2.28l-0.76-1.301c1.98-0.56,3.721-1.14,5.121-2.08c-0.561-0.6-0.98-1.12-1.48-2
				c-0.82,1.061-1.221,1.7-2.201,2.641l-1.32-0.881c1.922-1.7,3.182-3.82,3.842-6.182l1.439,0.58
				c-0.199,0.66-0.439,1.141-0.539,1.441h5.461v1.38c-0.74,1.32-1.861,2.38-2.881,3.2c1.301,0.98,2.98,1.621,4.941,2.021
				L651.984,873.408z M643.683,875.43l-0.36,1.619h2.521v-2.24h-3.38v-1.46h3.38v-1.4h1.581v1.4h3.141v1.46h-3.141v2.24h4.2v1.441
				h-4.2v3.1h-1.561v-3.08h-4.502l0.781-3.381L643.683,875.43z M645.242,866.907c0.301,0.601,0.841,1.4,1.48,2.141
				c0.721-0.561,1.721-1.501,2.181-2.141H645.242z"/>
		</g>
	</g>
</g>
</svg>
